<?xml version="1.0" encoding="UTF-8"?>
<svg id="Capa_2" data-name="Capa 2" xmlns="http://www.w3.org/2000/svg" viewBox="0 0 392.3 249.92">
  <defs>
    <style>
      .cls-1 {
        fill: #045f68;
      }

      .cls-2 {
        fill: #fff;
      }

      .cls-3 {
        fill: #a0d4d2;
      }

      .cls-4 {
        fill: #5d939c;
      }
    </style>
  </defs>
  <g id="Capa_1-2" data-name="Capa 1">
    <path class="cls-4" d="m360.33,127.58c3.98-10.41,6.17-21.69,6.17-33.49,0-51.97-42.13-94.09-94.09-94.09-42.16,0-77.84,27.74-89.78,65.98-11.15-15.7-29.44-25.95-50.13-25.95-33.94,0-61.44,27.51-61.44,61.43,0,8.87,1.88,17.29,5.28,24.91h-34.34C18.8,126.37,0,145.16,0,168.37c0,23.15,18.8,41.95,41.99,41.95h308.35c23.18,0,41.96-18.8,41.96-41.95,0-19.74-13.61-36.31-31.97-40.79Z"/>
    <path class="cls-2" d="m347.82,100.86c3.7-.97,6.06-4.66,5.29-8.46-5.54-27.8-19.01-49.34-38.96-62.27-20.03-12.97-45.12-16.52-72.57-10.27-3.96.95-6.37,4.79-5.48,8.71.89,3.92,4.79,6.39,8.7,5.48,23.56-5.36,44.77-2.5,61.42,8.29,16.58,10.74,27.85,29.05,32.61,52.9.78,3.93,4.61,6.5,8.55,5.71.16-.02.28-.05.45-.09Z"/>
    <path class="cls-2" d="m202.86,87.97c67.41,0,124.99,33.06,147.79,79.64-22.8,46.58-80.38,79.65-147.79,79.65-67.43,0-124.99-33.07-147.81-79.65,22.82-46.58,80.38-79.64,147.81-79.64Z"/>
    <path class="cls-2" d="m277.7,167.61c0-41.33-33.52-74.85-74.84-74.85-41.35,0-74.85,33.51-74.85,74.85,0,41.34,33.5,74.85,74.85,74.85,41.33,0,74.84-33.51,74.84-74.85Z"/>
    <path class="cls-1" d="m125.35,167.61c0-42.74,34.77-77.51,77.51-77.51,42.74,0,77.51,34.77,77.51,77.51s-34.77,77.51-77.51,77.51c-42.74,0-77.51-34.77-77.51-77.51Zm5.32,0c0,39.8,32.38,72.19,72.19,72.19,39.8,0,72.18-32.38,72.18-72.19,0-39.8-32.38-72.19-72.18-72.19-39.8,0-72.19,32.38-72.19,72.19Z"/>
    <path class="cls-1" d="m110.95,227.24c-26.53-14.56-46.69-34.77-58.29-58.45l-.57-1.17.57-1.17c11.6-23.68,31.75-43.89,58.29-58.45,27.04-14.84,58.82-22.68,91.91-22.68,33.09,0,64.87,7.84,91.9,22.68,26.53,14.56,46.69,34.78,58.28,58.45l.57,1.17-.57,1.17c-11.59,23.68-31.74,43.89-58.28,58.46-27.04,14.84-58.82,22.69-91.9,22.69-33.09,0-64.87-7.84-91.91-22.69Zm181.26-114.58c-26.26-14.41-57.15-22.03-89.34-22.03s-63.1,7.62-89.35,22.03c-25.12,13.79-44.28,32.77-55.48,54.96,11.2,22.19,30.36,41.17,55.48,54.96,26.26,14.41,57.15,22.03,89.35,22.03,32.19,0,63.09-7.62,89.34-22.03,25.13-13.79,44.28-32.77,55.47-54.96-11.19-22.19-30.35-41.17-55.47-54.96Z"/>
    <path class="cls-1" d="m337.83,181.56l4.88-2.12c-21.77-50.13-82.82-87.24-148.46-90.23-24.56-1.11-45.83,4.29-65.15,10.29l1.58,5.08c21.8-6.77,40.91-11.08,63.33-10.06,63.69,2.91,122.83,38.69,143.82,87.03Z"/>
    <path class="cls-3" d="m181.76,131.88l21.09,35.73v-41.49c22.9,0,41.49,18.58,41.49,41.49,0,22.91-18.58,41.49-41.49,41.49-22.93,0-41.49-18.58-41.49-41.49,0-15.21,8.19-28.51,20.4-35.73Z"/>
    <path class="cls-1" d="m202.77,223.17c4.82,0,9.68-.63,14.46-1.91,14.33-3.84,26.3-13.03,33.72-25.87,15.31-26.52,6.19-60.55-20.32-75.87l-2.66,4.61c23.97,13.85,32.21,44.62,18.37,68.6-6.7,11.62-17.53,19.92-30.48,23.39-12.96,3.47-26.49,1.69-38.11-5.02l-2.66,4.61c8.56,4.94,18.07,7.47,27.69,7.47Z"/>
    <path class="cls-1" d="m166.82,209.85l3.43-4.07c-2.37-2-4.57-4.25-6.53-6.69l-4.15,3.34c2.18,2.71,4.62,5.21,7.25,7.42Z"/>
  </g>
</svg>