<?xml version="1.0" encoding="UTF-8"?>
<svg id="Capa_2" data-name="Capa 2" xmlns="http://www.w3.org/2000/svg" xmlns:xlink="http://www.w3.org/1999/xlink" viewBox="0 0 391.86 880.81">
  <defs>
    <style>
      .cls-1 {
        fill: none;
      }

      .cls-2 {
        clip-path: url(#clippath);
      }

      .cls-3 {
        fill: #045f68;
      }

      .cls-4 {
        fill: #fff;
      }

      .cls-5 {
        fill: #a0d4d2;
      }

      .cls-6 {
        fill: #bfe4e8;
      }
    </style>
    <clipPath id="clippath">
      <polygon class="cls-1" points="125.3 435.79 266.57 435.79 328.38 830.83 63.49 830.83 125.3 435.79"/>
    </clipPath>
  </defs>
  <g id="Capa_1-2" data-name="Capa 1">
    <polygon class="cls-4" points="81.5 7.58 106.59 7.58 186.57 7.08 186.57 80.08 81.5 80.08 118.13 44.39 81.5 7.58"/>
    <rect class="cls-3" x="190.4" y="0" width="8.5" height="203.3"/>
    <g>
      <rect class="cls-3" x="119.69" y="14.05" width="59.56" height="8.5"/>
      <rect class="cls-3" x="100.52" y="14.05" width="8.81" height="8.5"/>
    </g>
    <polygon class="cls-5" points="47.77 837.23 118.18 418.98 273.69 418.98 344.1 837.23 47.77 837.23"/>
    <path class="cls-3" d="m114.58,414.73h162.7s71.84,426.75,71.84,426.75H42.74s71.85-426.75,71.85-426.75Zm155.51,8.5H121.78s-68.98,409.74-68.98,409.74h286.27s-68.97-409.74-68.97-409.74Z"/>
    <polygon class="cls-4" points="294.08 385.36 271.42 419.81 120.44 419.81 97.78 385.36 294.08 385.36"/>
    <path class="cls-3" d="m89.89,381.11h212.08s-28.25,42.95-28.25,42.95H118.15s-28.26-42.95-28.26-42.95Zm196.31,8.5H105.66s17.07,25.94,17.07,25.94h146.4s17.06-25.94,17.06-25.94Z"/>
    <polyline class="cls-4" points="125.83 260.45 113.25 386.64 278.61 386.64 266.9 260.45"/>
    <polygon class="cls-3" points="108.55 390.9 283.28 390.9 271.13 260.06 262.66 260.85 273.95 382.39 117.94 382.39 130.06 260.88 121.6 260.03 108.55 390.9"/>
    <polygon class="cls-6" points="195.93 202.89 133.37 255.43 258.49 255.43 195.93 202.89"/>
    <path class="cls-3" d="m195.93,197.34l74.23,62.34H121.69s74.24-62.34,74.24-62.34Zm0,11.1l-50.89,42.73h101.77s-50.88-42.73-50.88-42.73Z"/>
    <path class="cls-3" d="m178.14,368.48v-38.99c0-9.83,7.97-17.79,17.8-17.79,9.83,0,17.79,7.96,17.79,17.79v38.99h-35.59Z"/>
    <g class="cls-2">
      <g>
        <polygon class="cls-4" points="42.27 447.89 419.37 686.05 445.69 637.79 68.61 399.63 42.27 447.89"/>
        <polygon class="cls-4" points="-12.82 548.87 364.27 787.02 390.6 738.77 13.5 500.61 -12.82 548.87"/>
        <polygon class="cls-4" points="-67.91 649.85 309.18 888.02 335.5 839.75 -41.59 601.6 -67.91 649.85"/>
      </g>
    </g>
    <rect class="cls-4" x="4.25" y="833.03" width="383.35" height="43.52"/>
    <path class="cls-3" d="m0,828.78h391.86v52.03H0v-52.03Zm383.35,8.5H8.5s0,35.02,0,35.02h374.85s0-35.02,0-35.02Z"/>
  </g>
</svg>