<?xml version="1.0" encoding="UTF-8"?>
<svg id="Capa_2" data-name="Capa 2" xmlns="http://www.w3.org/2000/svg" viewBox="0 0 304.02 283.87">
  <defs>
    <style>
      .cls-1 {
        fill: #045f68;
      }

      .cls-2 {
        fill: #fff;
      }

      .cls-3 {
        fill: #a0d4d2;
      }

      .cls-4 {
        fill: #5d939c;
      }
    </style>
  </defs>
  <g id="Capa_1-2" data-name="Capa 1">
    <g>
      <path class="cls-1" d="m148.17,283.87c11.13,0,22.34-1.22,33.46-3.7,39.29-8.75,73.01-32.15,94.93-65.91,21.89-33.71,29.59-73.95,21.68-113.31l-4.67.94c7.67,38.13.21,77.12-21.01,109.78-21.24,32.7-53.91,55.38-91.97,63.86-38.07,8.48-77.27,1.8-110.38-18.81-33.06-20.57-56.35-52.71-65.59-90.49l-4.62,1.13c9.53,39,33.58,72.17,67.7,93.41,24.51,15.25,52.25,23.11,80.47,23.11Z"/>
      <polygon class="cls-1" points="294.07 111.09 296.55 105.6 300.84 109.45 304.02 105.91 294.89 97.7 289.74 109.14 294.07 111.09"/>
    </g>
    <path class="cls-4" d="m18.79,132.22c0,71.77,58.14,129.92,129.89,129.92,71.71,0,129.87-58.15,129.87-129.92,0-71.69-58.16-129.84-129.87-129.84-71.75,0-129.89,58.16-129.89,129.84Z"/>
    <path class="cls-1" d="m16.41,132.22C16.41,59.32,75.74,0,148.67,0c72.92,0,132.25,59.32,132.25,132.22,0,72.95-59.33,132.3-132.25,132.3-72.93,0-132.27-59.35-132.27-132.3Zm4.76,0c0,70.32,57.2,127.54,127.51,127.54,70.3,0,127.49-57.21,127.49-127.54,0-70.28-57.19-127.47-127.49-127.47-70.31,0-127.51,57.18-127.51,127.47Z"/>
    <path class="cls-2" d="m39.42,132.22c0,60.35,48.92,109.27,109.26,109.27,60.36,0,109.26-48.92,109.26-109.27,0-60.29-48.9-109.22-109.26-109.22-60.33,0-109.26,48.93-109.26,109.22Z"/>
    <path class="cls-4" d="m63.26,132.22c0,47.19,38.23,85.41,85.41,85.41,47.13,0,85.36-38.22,85.36-85.41,0-47.12-38.23-85.33-85.36-85.33-47.18,0-85.41,38.21-85.41,85.33Z"/>
    <path class="cls-1" d="m60.88,132.22c0-48.36,39.38-87.71,87.79-87.71,48.38,0,87.74,39.35,87.74,87.71,0,48.41-39.36,87.79-87.74,87.79-48.41,0-87.79-39.38-87.79-87.79Zm4.76,0c0,45.78,37.25,83.03,83.03,83.03,45.76,0,82.98-37.25,82.98-83.03,0-45.74-37.22-82.95-82.98-82.95-45.78,0-83.03,37.21-83.03,82.95Z"/>
    <path class="cls-2" d="m89.68,132.22c0,32.63,26.39,59.03,58.99,59.03,32.59,0,59-26.4,59-59.03,0-32.52-26.41-58.98-59-58.98-32.6,0-58.99,26.45-58.99,58.98Z"/>
    <path class="cls-3" d="m119.22,132.22c0,16.27,13.2,29.45,29.45,29.45,16.25,0,29.41-13.19,29.41-29.45,0-16.22-13.17-29.38-29.41-29.38-16.25,0-29.45,13.17-29.45,29.38Z"/>
    <polygon class="cls-3" points="83.58 62.5 87.51 42.94 57.87 13.25 53.92 32.81 83.58 62.5"/>
    <polygon class="cls-3" points="79.55 66.48 59.97 70.46 30.35 40.79 49.89 36.84 79.55 66.48"/>
    <path class="cls-1" d="m145.48,133.97c1.52,1.55,4,1.55,5.55,0h0c1.55-1.55,1.55-4.02,0-5.56L49.52,26.89c-1.54-1.52-4.06-1.52-5.58,0h0c-1.55,1.53-1.55,4.03,0,5.57l101.54,101.51Z"/>
    <path class="cls-1" d="m132.74,151.9l3.08-3.63c-.97-.82-1.87-1.75-2.69-2.77l-3.71,2.98c1.01,1.25,2.12,2.4,3.32,3.42Z"/>
    <path class="cls-1" d="m149.24,158.01c2.21,0,4.44-.29,6.64-.88,6.58-1.76,12.07-5.98,15.47-11.87,7.03-12.17,2.84-27.79-9.33-34.82l-2.38,4.12c9.9,5.72,13.3,18.42,7.59,28.32-2.77,4.79-7.24,8.22-12.58,9.65-5.35,1.43-10.93.7-15.73-2.07l-2.38,4.12c3.92,2.27,8.28,3.43,12.7,3.43Z"/>
    <path class="cls-2" d="m143.29,116.2c-.01-.84.63-1.54,1.47-1.61,6.14-.46,11.44,1.11,15.31,4.53,3.88,3.44,6.09,8.48,6.38,14.6.03.89-.63,1.61-1.51,1.66-.87.04-1.62-.63-1.66-1.51-.25-5.24-2.09-9.52-5.31-12.38-3.22-2.84-7.71-4.14-12.98-3.74-.87.07-1.63-.59-1.69-1.46,0-.03,0-.06,0-.09Z"/>
  </g>
</svg>