<?xml version="1.0" encoding="UTF-8"?>
<svg id="Capa_2" data-name="Capa 2" xmlns="http://www.w3.org/2000/svg" xmlns:xlink="http://www.w3.org/1999/xlink" viewBox="0 0 1921.2 721.92">
  <defs>
    <style>
      .cls-1 {
        fill: none;
      }

      .cls-2 {
        fill: url(#linear-gradient);
      }

      .cls-3 {
        clip-path: url(#clippath);
      }

      .cls-4 {
        fill: #7e96b9;
        filter: url(#drop-shadow-1);
      }
    </style>
    <clipPath id="clippath">
      <rect class="cls-1" x="0" width="1921.2" height="721.92"/>
    </clipPath>
    <filter id="drop-shadow-1" filterUnits="userSpaceOnUse">
      <feOffset dx="7.38" dy="7.38"/>
      <feGaussianBlur result="blur" stdDeviation="5.27"/>
      <feFlood flood-color="#7b7a7d" flood-opacity=".15"/>
      <feComposite in2="blur" operator="in"/>
      <feComposite in="SourceGraphic"/>
    </filter>
    <linearGradient id="linear-gradient" x1="12514.92" y1="-3209.47" x2="11252.33" y2="-1946.88" gradientTransform="translate(24335.28 -905.02) rotate(-175.43) scale(1.9 .97)" gradientUnits="userSpaceOnUse">
      <stop offset="0" stop-color="#fff"/>
      <stop offset="1" stop-color="#fff"/>
    </linearGradient>
  </defs>
  <g id="Capa_1-2" data-name="Capa 1">
    <g class="cls-3">
      <g>
        <path class="cls-4" d="m-88,456.31s16.44-214.95,26.4-331.2c.36-4.15.7-8.2,1.04-12.15.34-3.94.67-7.77.98-11.48.08-.93.39-4.56.8-9.32.38-4.42.04-.41.97-11.34-.26,3.02-.21,2.5-.03.41.18-2.09.49-5.73.77-8.97.74-8.62,1.01-11.81.73-8.54.73-8.56-.24,2.77.27-3.2.33-3.8.09-1.08.84-9.75.24-2.79-.13,1.49.7-8.2-.92,10.78.09-1.1.25-2.87.16-1.87,5.19,5.28,13.55,6.56,8.98-6.04,18.33,16.6,29.81,14.43,11.55-3.07,20.87,19.9,29.81,14.43,8.5-.4,13.64,5.56,13.55,6.56-.33,3.81,10.8-2.04,24.8-.11,14.9-8.6,32.11-2.69,46.06-.21,13.87,3.46,25.16-4.28,24.8-.11.32-3.71,10.41,2.54,24.63,1.85,14.05,1.32,32.02-1.74,45.75,3.43,13.96,2.36,24.04,8.8,24.63,1.85.66-7.69,9.07,2.6,18.47,1.38,10.1-9.37,18.48,1.28,18.48,1.39.02-.28,7.58-7.03,17.46-.28,10.55-1.08,24.62-2.52,38.4-.61,13.57,4.43,27.19,8.22,38.4-.61,10.45.06,17.31,1.4,17.46-.28.24-2.79,2.9-4.08,7.36-.58,4.62,1.68,11.73.02,20.7-1.53,9.23-4.61,19.55-.02,31.97-2.15,11.72,6.05,26.21-2.38,41.18-2.43,14.95.13,31.1.09,48.31-2.38,16.95.58,30.89,1.61,43.18-1.49,12.07-.44,22.29-2.73,31.1-.33,9.18-2.02,16.98.26,24.92.31,7.9.55,15.67,2.17,24.66.41,8.91-.76,18.49,1.47,30.3-.02,11.63.65,22.56,2.08,33.64.29,11.14-2.52,21.59,1.49,32.77,1.44,10.97,2.37,22.69.62,35,2.22,12.5-.52,25.51,3.32,40.32,2.62,14.76-.11,30.81.99,48.73,2.64,7.76-2.77,15.07,1.54,22.83,1.28,7.84-1.14,15.45,1.32,23.23,1.67,7.49,3.76,15.06,6.39,23.08,2.92,7.68.42,14.74,7.13,22.73,1.2,7.77-3.47,14.85-.61,21.63,2.86,7.17-1.02,14.2-3.17,20.31,1.68,6.46.82,12.46,3.32,18.23,4.02,6.51-7.98,10.55,8.26,16.22.17,5.32-4.09,10.16-8.1,13.83-4.76,3.37,6.81,6.39,11.45,9.49,7.83,3.23-5.16,5.7-8.67,6.81-4.41,1.66-2.2,1.66,6.81,1.77,5.6-.17,2.01,2.62-3.42,6-2.22,3.38,1.2,7.85,3.37,12.47,3.6,8.95,4.08,18.2,4.59,18.48,1.39.28-3.3,7.31,3.85,19.07.24,11.42.43,27.11-4.44,41.96.53,15,3.18,30.52.27,41.96.53,11.44.15,19.07.24,19.07.24,0,0,20.68,6.62,90.17,1.69,13.9-.99,28.2-1.74,42.19-2.31,13.99-.57,27.67-.97,40.31-1.24,12.73-1.27,24.31-1.04,34.13-.48,9.64,2.59,18.14-1.94,23.63-.05,5.9-2.9,8.63,2.44,8.84.05.16-1.82,5.33-.21,14.05-1.17,8.88-2.86,20.53.6,34.33-5.35,9.31-5.31,21.06-4.66,32.77-3.55,11.7,1.26,23.59.24,32.53-.75,8.37,5.66,14.83-.8,14.74.17-.36,4.18,11.4,6.4,23.75,1.78,12.37-4.87,23.39,6.05,23.75,1.78.23-2.69,7.47,1.93,18.97,1.42,11.12,3.87,26.02,8.3,41.73,3.13,15.25.28,30.19,4.17,41.73,3.13,11.6-1.68,18.89,2.41,18.97,1.42.52-6.02,11.88.9,23.97-.74,12.15-2.34,24.28-4.38,23.97-.74.48-5.56,5.91-.11,14.19-4.85,8.18-3.64,17.41,3.46,26.35-9.01,8.19-3.68,14.57-9.27,14.19-4.85.35-4.08,5.88-6.67,12.42-5.41,7.08-5.18,15.22-7.16,20.98-12.37,5.19,1.38,11.14-6.04,15.7-12.76,4.76-9.09,6.27,4.28,7.14-5.8.79-9.17,7.34-23.61,11.42-9.28,5.56-2.93,11.07-5.24,11.42-9.28.82-9.51,5.52,11.4,14.38,8.96,8.44,2.55,18.39,12.66,26.71,16.65,9.15-5.72,14.37,9.13,14.38,8.96-.16,1.81-.24,2.8-.19,2.23-.37,4.31-.31,3.64-.55,6.46-5.8,67.68-43.41,499.8-43.41,499.8L-88,456.31Z"/>
        <path class="cls-2" d="m-42.46,66.42c8.99-6.05,18.33,16.6,29.81,14.43,11.55-3.07,20.87,19.9,29.81,14.43,8.5-.4,13.64,5.56,13.55,6.56-.33,3.81,10.8-2.04,24.8-.11,14.9-8.6,24.63,22.63,38.59,25.12,13.87,3.46,25.16-4.28,24.8-.11.32-3.71,10.41,2.54,24.63,1.85,14.05,1.32,32.02-1.74,45.75,3.43,13.97,2.36,31.51-16.52,32.11-23.48.66-7.69,9.07,2.6,18.47,1.38,10.1-9.37,18.48,1.28,18.47,1.39.02-.28,7.58-7.03,17.46-.28,10.55-1.08,24.62-2.52,38.4-.61,13.57,4.43,16.01,28.49,27.22,19.66,10.45.06,17.31,1.4,17.46-.28.24-2.79,2.9-4.08,7.36-.58,4.62,1.68,11.73.02,20.7-1.53,9.23-4.6,30.73-20.29,43.15-22.42,11.72,6.05,26.21-2.38,41.18-2.43,14.95.12,31.1.09,48.31-2.38,16.95.58,30.89,1.61,43.18-1.49,12.07-.44,22.29-2.73,31.1-.32,9.18-2.02,16.98.26,24.92.31,7.9.55,15.67,2.17,24.66.41,8.91-.76,5.27,12.89,17.09,11.4,11.63.65,22.56,2.08,33.64.29,11.14-2.52,21.59,1.49,32.77,1.44,10.97,2.37,22.68.62,35,2.22,12.5-.52,25.51,3.32,40.32,2.62,14.76-.1,44.03-10.44,61.95-8.78,7.76-2.77,15.07,1.54,22.83,1.28,7.84-1.14,15.45,1.32,23.23,1.67,7.49,3.76,15.06,6.39,23.08,2.92,7.68.42,14.75,7.13,22.73,1.21,7.77-3.47,14.85-.61,21.63,2.86,7.17-1.02,2.68,13.7,8.8,18.55,6.46.81,12.46,3.32,18.23,4.02,6.51-7.98,10.55,8.26,16.22.17,5.32-4.09,10.16-8.09,13.83-4.76,3.37,6.81,6.39,11.45,9.49,7.83,3.23-5.16,5.71-8.67,6.81-4.41,1.66-2.2,1.66,6.81,1.77,5.6-.17,2.01,2.62-3.42,6-2.22,3.38,1.2,7.85,3.37,12.47,3.6,8.95,4.08,18.2,4.59,18.47,1.38.28-3.3,7.31,3.85,19.07.24,11.42.43,27.11-4.44,41.96.53,15,3.18,30.52.27,41.96.53,11.44.15,49.14-5.12,49.14-5.12,0,0,5.42,10.54,74.91,5.62,13.9-.99,24.9-17.18,38.89-17.75,13.99-.57,27.67-.97,40.31-1.24,12.73-1.27,24.31-1.04,34.13-.48,9.64,2.59,18.14-1.94,23.63-.05,5.9-2.9,8.63,2.44,8.84.05.16-1.82,5.33-.21,14.04-1.16,8.88-2.86,20.53.6,34.33-5.35,9.31-5.31,21.06-4.66,32.77-3.55,11.7,1.25,23.59.24,32.53-.75,8.37,5.66,14.83-.8,14.74.17-.36,4.18,11.4,6.4,23.75,1.78,12.37-4.87,23.39,6.05,23.75,1.78.23-2.69,7.47,1.93,18.97,1.42,11.12,3.87,26.02,8.31,41.73,3.13,15.25.28,33.76,23.78,45.31,22.73,11.6-1.68,18.89,2.41,18.97,1.42.52-6.02,11.88.9,23.97-.74,12.15-2.34,24.28-4.38,23.97-.74.48-5.56,5.91-.11,14.19-4.85,8.18-3.64,13.84-16.15,22.78-28.61,8.19-3.68,20.99-3.19,20.62,1.23.35-4.08,5.88-6.67,12.42-5.41,7.08-5.18,8.8-13.24,14.56-18.44,5.19,1.38,11.14-6.04,15.7-12.76,4.76-9.09,6.27,4.28,7.14-5.8.79-9.17,7.34-23.61,11.42-9.28,5.56-2.93,11.07-5.24,11.42-9.28.82-9.52,5.52,11.4,14.38,8.96,8.44,2.55,18.39,12.66,26.71,16.65,9.15-5.72,14.37,9.13,14.38,8.96.39-4.53.72-8.38.98-11.45.24-2.78.19-2.19.54-6.32,0-.02,0-.1.01-.15.02-.28.09-1.05.19-2.23-.01.17-5.23-14.69-14.38-8.96-8.32-3.99-18.27-14.09-26.71-16.65-8.87,2.44-13.57-18.48-14.38-8.96-.35,4.04-5.86,6.36-11.42,9.28-4.09-14.33-10.64.12-11.42,9.28-.86,10.08-2.37-3.29-7.14,5.8-4.56,6.72-10.51,14.14-15.7,12.76-5.76,5.21-13.9,7.19-20.98,12.37-6.53-1.26-12.07,1.32-12.42,5.41.38-4.42-6,1.17-14.19,4.85-8.94,12.46-18.17,5.37-26.35,9.01-8.28,4.74-13.71-.71-14.19,4.85.31-3.64-11.82-1.6-23.97.74-12.09,1.64-23.45-5.28-23.97.74-.08.98-7.37-3.1-18.97-1.42-11.55,1.04-26.48-2.85-41.73-3.13-15.72,5.18-30.61.74-41.73-3.13-11.5.51-18.74-4.11-18.97-1.42-.37,4.27-11.38-6.66-23.75-1.78-12.35,4.62-24.11,2.4-23.75-1.78.08-.97-6.37,5.49-14.74-.17-8.94.99-20.83,2.01-32.53.75-11.71-1.1-23.46-1.75-32.77,3.55-13.79,5.95-25.45,2.49-34.33,5.35-8.71.95-13.89-.66-14.05,1.16-.2,2.39-2.93-2.96-8.84-.05-5.49-1.89-14,2.64-23.63.05-9.81-.55-21.4-.79-34.13.48-12.65.27-26.32.66-40.31,1.24-13.99.57-28.29,1.33-42.19,2.31-69.49,4.93-90.17-1.69-90.17-1.69,0,0-7.63-.1-19.07-.24-11.43-.26-26.96,2.64-41.96-.53-14.85-4.97-30.54-.1-41.96-.53-11.77,3.61-18.79-3.55-19.07-.24-.28,3.21-9.53,2.7-18.47-1.38-4.63-.23-9.09-2.4-12.47-3.6-3.38-1.2-6.17,4.23-6,2.22-.1,1.21-.11-7.8-1.77-5.6-1.11-4.26-3.58-.75-6.81,4.41-3.1,3.62-6.12-1.02-9.49-7.83-3.67-3.34-8.51.67-13.83,4.76-5.66,8.09-9.71-8.14-16.22-.17-5.77-.7-11.77-3.21-18.23-4.02-6.11-4.85-13.14-2.7-20.31-1.68-6.78-3.47-13.85-6.33-21.63-2.86-7.99,5.93-15.05-.79-22.73-1.2-8.02,3.47-15.6.84-23.08-2.92-7.78-.35-15.38-2.81-23.23-1.67-7.77.27-15.07-4.05-22.83-1.28-17.92-1.65-33.98-2.74-48.73-2.64-14.81.7-27.82-3.14-40.32-2.62-12.32-1.6-24.03.15-35-2.22-11.18.04-21.63-3.96-32.77-1.44-11.08,1.78-22,.36-33.63-.29-11.81,1.49-21.4-.74-30.3.02-8.99,1.76-16.76.14-24.66-.41-7.94-.04-15.74-2.32-24.92-.31-8.8-2.41-19.03-.12-31.1.32-12.29,3.1-26.23,2.07-43.18,1.49-17.21,2.47-33.36,2.5-48.31,2.38-14.96.05-29.46,8.48-41.18,2.43-12.42,2.12-22.74-2.46-31.97,2.15-8.97,1.55-16.08,3.21-20.7,1.53-4.46-3.5-7.12-2.2-7.36.58-.14,1.67-7,.34-17.46.28-11.22,8.83-24.84,5.04-38.4.61-13.78-1.92-27.85-.47-38.4.61-9.88-6.76-17.43,0-17.46.28,0-.1-8.37-10.76-18.48-1.39-9.4,1.21-17.82-9.07-18.47-1.38-.6,6.95-10.67.51-24.63-1.85-13.72-5.17-31.69-2.1-45.75-3.43-14.23.69-24.32-5.56-24.63-1.85.36-4.17-10.93,3.57-24.8.11-13.95-2.48-31.16-8.39-46.06.21-14-1.93-25.13,3.93-24.8.11.09-1-5.05-6.96-13.55-6.56-8.94,5.47-18.26-17.5-29.81-14.43-11.48,2.17-20.82-20.48-29.81-14.43-8.36-1.28-13.39-8.43-13.55-6.56-.04.46-.14,1.61-.25,2.87-.18,2.06-.3,3.47-.38,4.47-.32,3.69-.13,1.54-.32,3.74-.69,8.09-.54,6.26-.78,9.08.16-1.87,5.19,5.27,13.55,6.56Z"/>
      </g>
    </g>
  </g>
</svg>