<?xml version="1.0" encoding="UTF-8"?>
<svg xmlns="http://www.w3.org/2000/svg" xmlns:xlink="http://www.w3.org/1999/xlink" viewBox="0 0 1399.87 1083.54">
  <defs>
    <style>
      .cls-1 {
        fill: none;
      }

      .cls-2 {
        clip-path: url(#clippath);
      }

      .cls-3 {
        mask: url(#mask);
      }

      .cls-4 {
        filter: url(#luminosity-noclip);
      }

      .cls-5, .cls-6 {
        fill: #eaeced;
      }

      .cls-7 {
        fill: #b6a8a5;
      }

      .cls-7, .cls-6, .cls-8 {
        mix-blend-mode: multiply;
      }

      .cls-8 {
        fill: url(#_ÅÂÁ_Ï_ÌÌ_È_ËÂÌÚ_4);
      }

      .cls-9 {
        isolation: isolate;
      }

      .cls-10 {
        mask: url(#mask-1);
      }
    </style>
    <clipPath id="clippath">
      <rect class="cls-1" width="1399.87" height="1083.54"/>
    </clipPath>
    <filter id="luminosity-noclip" x="31.57" y="19.78" width="1309.98" height="1757.79" color-interpolation-filters="sRGB" filterUnits="userSpaceOnUse">
      <feFlood flood-color="#fff" result="bg"/>
      <feBlend in="SourceGraphic" in2="bg"/>
    </filter>
    <filter id="luminosity-noclip-2" x="31.57" y="-7634.43" width="1309.98" height="32766" color-interpolation-filters="sRGB" filterUnits="userSpaceOnUse">
      <feFlood flood-color="#fff" result="bg"/>
      <feBlend in="SourceGraphic" in2="bg"/>
    </filter>
    <mask id="mask-1" x="31.57" y="-7634.43" width="1309.98" height="32766" maskUnits="userSpaceOnUse"/>
    <linearGradient id="_ÅÂÁ_Ï_ÌÌ_È_ËÂÌÚ_4" data-name="ÅÂÁ˚ÏﬂÌÌ˚È „‡‰ËÂÌÚ 4" x1="4542.12" y1="3204.84" x2="6292" y2="3204.84" gradientTransform="translate(3926.37 -4497.12) rotate(90.37)" gradientUnits="userSpaceOnUse">
      <stop offset="0" stop-color="#000"/>
      <stop offset=".5" stop-color="#fff"/>
      <stop offset="1" stop-color="#fff"/>
    </linearGradient>
    <mask id="mask" x="31.57" y="19.78" width="1309.98" height="1757.79" maskUnits="userSpaceOnUse">
      <g class="cls-4">
        <g class="cls-10">
          <path class="cls-8" d="m1249.41,1777.57l-1135.88-7.4c-45.48-.3-82.25-37.54-81.96-83.02L42.44,19.78l53.4.35.07.16,13.33,32.02-.09.12c-2.81,3.47-4.31,7.67-4.34,12.16-.04,5.84,2.51,11.34,7,15.1,4.48,3.74,10.46,5.27,16.28,4.17,7.7-1.44,13.53-7.07,15.22-14.7,1.71-7.72-1.1-15.43-7.36-20.09l-.09-.07v-.11s-3.5-28.52-3.5-28.52l98.84.64.03.21,5.55,30.33-.09.09c-3.71,3.66-5.77,8.54-5.8,13.76-.04,5.55,2.31,10.88,6.44,14.61,4.18,3.78,9.63,5.5,15.26,4.89,8.57-.94,15.75-7.79,17.06-16.29,1.09-7.05-1.57-13.9-7.1-18.32l-.14-.12.07-.17,11.2-28.71,86.12.56.02.22,4.37,29.13-.11.09c-4.48,3.69-7.07,9.13-7.1,14.94-.04,5.89,2.55,11.43,7.1,15.18,4.56,3.75,10.56,5.23,16.47,4.04,7.37-1.49,13.38-7.43,14.96-14.79,1.48-6.91-.67-13.85-5.76-18.58l-.09-.09v-.12s2.89-29.8,2.89-29.8l111.13.72-.14.34-10.73,27.14-.07.04c-5.92,3.47-9.63,9.87-9.68,16.73-.04,5.9,2.56,11.45,7.13,15.2,4.56,3.74,10.55,5.21,16.5,4,7.24-1.48,13.2-7.3,14.84-14.48,1.53-6.68-.38-13.52-5.1-18.29l-.09-.1.03-.13,7.33-30.32,95.43.62v.25s.73,26.78.73,26.78l-.14.08c-6.47,3.34-10.52,9.93-10.57,17.22-.04,5.89,2.55,11.43,7.1,15.18,4.56,3.75,10.56,5.23,16.48,4.04,7.38-1.49,13.39-7.44,14.96-14.8,1.48-6.93-.69-13.88-5.79-18.61l-.11-.09.03-.14,5.85-29.72,90.75.59.05.19,2.07,8.09-.04.08c-.58,1.12.56,5.95,1.55,10.22,1.36,5.84,2.15,9.44,1.23,10.11-5,3.63-8.01,9.49-8.05,15.67-.04,5.55,2.3,10.87,6.42,14.59,4.18,3.77,9.55,5.52,15.24,4.92,8.73-.94,15.94-7.92,17.14-16.59.67-4.8-.42-9.63-3.07-13.59-.69-1.05-1.84-4.61-3.17-8.72-1.94-5.99-4.59-14.2-6.22-15.1l-.12-.06v-.14s-.81-9.53-.81-9.53l108.54.71v.26s-.88,29.25-.88,29.25l-.08.07c-4.35,3.68-6.87,9.07-6.91,14.76-.04,5.89,2.55,11.43,7.11,15.18,4.56,3.75,10.54,5.25,16.49,4.03,7.33-1.48,13.32-7.38,14.93-14.69,1.49-6.82-.58-13.73-5.54-18.48l-.09-.09v-.12s3.05-29.98,3.05-29.98l79.22.52.08.11,9.34,13.14v.07s2.64,24.67,2.64,24.67l-.02.06c-1.14,3.19-1.42,6.55-.83,9.99,1.39,8.16,8.11,14.66,16.33,15.85,6.49.91,12.74-1.26,17.16-6.01,4.43-4.76,6.15-11.2,4.74-17.68-1.58-7.29-7.58-13.19-14.92-14.69-2.68-.55-5.37-.56-7.97-.04l-.25.06-.04-.26-4.58-25.12,125,.81v.25s.7,26.96.7,26.96l-.13.08c-6.27,3.39-10.2,9.91-10.24,17.04-.04,5.9,2.56,11.44,7.12,15.19,4.56,3.75,10.58,5.22,16.49,4.02,7.28-1.48,13.26-7.34,14.88-14.58,1.78-7.97-1.36-16.05-7.99-20.6l-.12-.08v-.14s1.51-27.98,1.51-27.98l114.22.74.07.15,2.38,5.61c-2.01,19.13-2.56,19.12-2.86,19.12-5.89-.04-11.43,2.55-15.18,7.11-3.75,4.56-5.23,10.56-4.03,16.47,1.49,7.37,7.42,13.38,14.76,14.96,5.91,1.27,11.92-.13,16.52-3.82,4.6-3.69,7.26-9.2,7.3-15.09.04-5.95-3.48-13.59-5.3-14.97l-.12-.1.03-.15,4.8-22.74,3.84-6.41,59.68.39-10.88,1669.12c-.29,44.52-36.75,80.5-81.26,80.21ZM42.95,20.29l-10.86,1666.85c-.29,45.2,36.25,82.22,81.45,82.52l1135.88,7.4c44.24.29,80.47-35.47,80.76-79.71l10.88-1668.61-58.89-.38-3.68,6.12-4.74,22.47c2.11,1.81,5.41,9.65,5.38,15.27-.04,6.04-2.77,11.69-7.49,15.47-4.72,3.79-10.87,5.21-16.94,3.92-7.54-1.63-13.63-7.79-15.16-15.36-1.22-6.06.28-12.22,4.14-16.89,3.83-4.64,9.45-7.3,15.45-7.29.49-1.15,1.76-11.89,2.48-18.61l-2.28-5.27-113.41-.74-1.47,27.36c6.72,4.68,9.89,12.91,8.08,21.05-1.66,7.43-7.8,13.44-15.27,14.96-6.06,1.24-12.22-.26-16.91-4.12-4.68-3.85-7.35-9.53-7.31-15.58.05-7.26,4.02-13.92,10.38-17.4l-.7-26.41-123.9-.81,4.43,24.27c2.57-.5,5.24-.47,7.91.08,7.53,1.53,13.68,7.59,15.31,15.08,1.44,6.64-.32,13.24-4.86,18.12-4.54,4.87-10.97,7.11-17.6,6.16-8.43-1.2-15.32-7.89-16.75-16.25-.6-3.5-.31-6.94.84-10.19l-2.62-24.5-9.2-12.93-78.51-.51-2.99,29.4c5.03,4.87,7.12,11.91,5.59,18.87-1.63,7.49-7.79,13.55-15.31,15.07-6.04,1.23-12.23-.28-16.91-4.13-4.67-3.85-7.34-9.53-7.3-15.57.04-5.81,2.59-11.29,7.01-15.07l.84-28.76-107.47-.7.74,8.85c1.79,1.25,4.2,8.72,6.34,15.31,1.32,4.08,2.46,7.61,3.12,8.6,2.71,4.07,3.82,9.02,3.14,13.94-1.24,8.91-8.63,16.06-17.58,17.02-5.8.63-11.35-1.16-15.63-5.04-4.22-3.82-6.62-9.28-6.59-14.97.04-6.34,3.13-12.34,8.26-16.07.71-.51-.48-5.55-1.43-9.59-1.09-4.67-2.12-9.08-1.55-10.48l-1.98-7.72-89.95-.59-5.75,29.17c5.17,4.85,7.34,11.93,5.84,18.97-1.61,7.56-7.78,13.67-15.35,15.2-6.09,1.21-12.22-.3-16.89-4.14-4.67-3.85-7.34-9.53-7.3-15.57.05-7.42,4.15-14.14,10.72-17.59l-.73-26.22-94.53-.62-7.21,29.78c4.77,4.9,6.68,11.86,5.13,18.65-1.68,7.38-7.81,13.35-15.24,14.87-6.05,1.23-12.24-.24-16.92-4.1-4.68-3.85-7.36-9.54-7.32-15.59.05-7.01,3.82-13.55,9.85-17.11l10.53-26.64-109.93-.72-2.83,29.21c5.15,4.85,7.33,11.93,5.82,18.97-1.61,7.55-7.79,13.65-15.35,15.18-6.07,1.22-12.21-.29-16.89-4.14-4.66-3.85-7.33-9.53-7.29-15.57.04-5.91,2.66-11.45,7.19-15.23l-4.3-28.63-85.34-.56-11.01,28.21c5.57,4.54,8.23,11.51,7.13,18.68-1.34,8.71-8.7,15.74-17.49,16.71-5.82.63-11.37-1.15-15.67-5.03-4.23-3.82-6.64-9.29-6.61-14.98.03-5.3,2.12-10.28,5.86-14.01l-5.46-29.87-97.84-.64,3.41,27.85c6.35,4.78,9.2,12.64,7.45,20.54-1.71,7.69-7.83,13.62-15.61,15.07-6.04,1.14-12.09-.44-16.71-4.29-4.6-3.85-7.22-9.49-7.18-15.48.03-4.54,1.54-8.81,4.37-12.35l-13.16-31.59-52.56-.34Z"/>
        </g>
      </g>
    </mask>
  </defs>
  <g class="cls-9">
    <g id="Capa_2" data-name="Capa 2">
      <g id="Capa_1-2" data-name="Capa 1">
        <g class="cls-2">
          <g>
            <path class="cls-7" d="m149.58,40.62c5.93,4.42,9.28,12.09,7.45,20.35-1.7,7.67-7.7,13.43-15.42,14.88-12.67,2.37-23.67-7.32-23.59-19.52.03-4.66,1.68-8.94,4.41-12.3l-13.28-31.88-52.98-.35-10.87,1667.1c-.3,45.42,36.28,82.47,81.7,82.76l1135.88,7.4c44.45.29,80.72-35.51,81.01-79.95l10.88-1668.86-59.28-.39-3.78,6.27-4.77,22.67c1.94,1.47,5.44,9.28,5.41,15.16-.08,12.3-11.38,21.9-24.13,19.16-7.46-1.61-13.45-7.68-14.96-15.16-2.58-12.79,7.17-23.96,19.46-23.88.62,0,2.61-18.9,2.61-18.9l-2.36-5.48-113.82-.74-1.48,27.74c6.33,4.35,10,12.28,8.09,20.86-1.65,7.37-7.68,13.27-15.08,14.78-12.8,2.6-24-7.15-23.92-19.46.05-7.46,4.23-13.94,10.37-17.25l-.7-26.81-124.45-.81,4.52,24.82c2.55-.51,5.27-.54,8.07.04,7.44,1.51,13.51,7.45,15.11,14.88,3.02,13.87-8.51,25.94-22.18,23.99-8.3-1.19-15.12-7.77-16.54-16.05-.61-3.58-.26-7.03.85-10.11l-2.64-24.62-9.3-13.08-78.86-.51-3.03,29.75c4.73,4.52,7.21,11.38,5.61,18.72-1.62,7.42-7.68,13.38-15.12,14.88-12.79,2.59-23.98-7.15-23.9-19.46.04-5.99,2.76-11.35,7-14.94l.86-29.13-108-.7.78,9.25c2.79,1.54,7.73,21.26,9.48,23.9,2.57,3.85,3.81,8.66,3.1,13.77-1.22,8.8-8.54,15.86-17.37,16.81-11.95,1.28-22.01-8.1-21.93-19.77.04-6.53,3.24-12.3,8.16-15.86,1.64-1.19-4.12-17.81-2.86-20.24l-2.05-8-90.35-.59-5.81,29.51c4.86,4.51,7.45,11.43,5.87,18.83-1.59,7.48-7.68,13.49-15.16,15-12.79,2.57-23.96-7.17-23.88-19.48.05-7.6,4.39-14.17,10.71-17.43l-.73-26.62-94.98-.62-7.29,30.12c4.51,4.57,6.81,11.32,5.16,18.52-1.67,7.32-7.68,13.17-15.04,14.68-12.81,2.62-24.01-7.13-23.93-19.45.05-7.22,3.98-13.53,9.8-16.93l10.7-27.06-110.53-.72-2.86,29.56c4.84,4.51,7.42,11.42,5.83,18.82-1.6,7.46-7.68,13.47-15.15,14.98-12.78,2.57-23.96-7.17-23.88-19.48.04-6.09,2.83-11.52,7.2-15.12l-4.35-28.99-85.73-.56-11.14,28.54c5.27,4.22,8.34,11.08,7.18,18.57-1.33,8.65-8.58,15.55-17.28,16.5-11.97,1.32-22.07-8.06-21.99-19.76.04-5.45,2.28-10.37,5.88-13.92l-5.53-30.2-98.34-.64,3.45,28.23Z"/>
            <g id="Notebook_paper_2" data-name="Notebook paper 2">
              <path class="cls-6" d="m133.59,48.84c5.82,4.34,9.16,11.8,7.55,19.88-1.53,7.72-7.78,13.9-15.51,15.35-12.66,2.38-23.67-7.32-23.59-19.52.03-4.66,1.67-8.94,4.4-12.3l-13.28-31.88-52.98-.35-10.88,1669.78c-.26,39.65,31.68,72,71.33,72.26l1156.77,7.54c38.68.25,70.25-30.91,70.5-69.58l10.89-1671.54-59.28-.39-3.78,6.27-4.77,22.67c1.94,1.47,5.43,9.28,5.4,15.16-.08,12.21-11.2,21.76-23.84,19.21-7.69-1.55-13.85-7.8-15.3-15.5-2.37-12.67,7.32-23.67,19.52-23.59.61,0,2.61-18.9,2.61-18.9l-2.36-5.48-113.83-.74-1.49,27.74c6.16,4.22,9.8,11.84,8.25,20.13-1.47,7.81-7.76,14.11-15.56,15.57-12.67,2.38-23.66-7.32-23.58-19.52.05-7.46,4.23-13.94,10.37-17.25l-.7-26.81-124.44-.81,4.52,24.82c2.26-.46,4.66-.52,7.12-.13,8.68,1.37,15.55,8.68,16.44,17.41,1.35,13.2-10.29,24.06-23.63,21.44-7.85-1.54-14.12-7.97-15.46-15.87-.61-3.58-.27-7.03.83-10.11l-2.62-24.62-9.31-13.09-78.86-.51-3.03,29.75c4.6,4.4,7.07,11,5.73,18.12-1.47,7.79-7.75,14.09-15.55,15.54-12.67,2.38-23.66-7.32-23.58-19.52.04-5.99,2.74-11.35,6.99-14.94l.86-29.13-108.01-.7.78,9.25c2.79,1.54,7.73,21.26,9.49,23.9,2.53,3.79,3.78,8.51,3.13,13.53-1.14,8.92-8.5,16.1-17.43,17.05-11.94,1.25-21.98-8.12-21.9-19.78.04-6.53,3.25-12.3,8.16-15.86,1.64-1.19-4.11-17.81-2.86-20.24l-2.05-8-90.35-.59-5.82,29.51c4.74,4.38,7.31,11.05,6,18.24-1.45,7.84-7.74,14.18-15.57,15.65-12.66,2.38-23.67-7.32-23.59-19.52.05-7.6,4.4-14.17,10.72-17.43l-.73-26.62-94.98-.62-7.28,30.12c4.38,4.43,6.67,10.92,5.3,17.88-1.52,7.73-7.78,13.93-15.52,15.38-12.67,2.38-23.67-7.32-23.59-19.52.05-7.22,3.98-13.53,9.8-16.93l10.7-27.06-110.52-.72-2.87,29.56c4.71,4.38,7.28,11.04,5.96,18.21-1.45,7.83-7.74,14.17-15.57,15.64-12.66,2.38-23.67-7.32-23.59-19.52.04-6.09,2.84-11.52,7.2-15.12l-4.33-28.99-85.73-.56-11.14,28.54c5.14,4.12,8.18,10.74,7.27,18.01-1.14,8.92-8.5,16.12-17.45,17.07-11.94,1.25-21.98-8.12-21.9-19.78.04-5.45,2.28-10.37,5.87-13.92l-5.53-30.2-98.34-.64,3.46,28.23Z"/>
              <g>
                <path class="cls-5" d="m136.1,48.86c5.93,4.42,9.28,12.09,7.45,20.35-1.7,7.67-7.7,13.43-15.42,14.88-12.67,2.37-23.67-7.32-23.59-19.52.03-4.66,1.68-8.94,4.41-12.3l-13.28-31.88-52.98-.35-10.87,1667.1c-.3,45.42,36.28,82.47,81.7,82.76l1135.88,7.4c44.45.29,80.72-35.51,81.01-79.95l10.88-1668.86-59.28-.39-3.78,6.27-4.77,22.67c1.94,1.47,5.44,9.28,5.41,15.16-.08,12.3-11.38,21.9-24.13,19.16-7.46-1.61-13.45-7.68-14.96-15.16-2.58-12.79,7.17-23.96,19.46-23.88.62,0,2.61-18.9,2.61-18.9l-2.36-5.48-113.82-.74-1.48,27.74c6.33,4.35,10,12.28,8.09,20.86-1.65,7.37-7.68,13.27-15.08,14.78-12.8,2.6-24-7.15-23.92-19.46.05-7.46,4.23-13.94,10.37-17.25l-.7-26.81-124.45-.81,4.52,24.82c2.55-.51,5.27-.54,8.07.04,7.44,1.51,13.51,7.45,15.11,14.88,3.02,13.87-8.51,25.94-22.18,23.99-8.3-1.19-15.12-7.77-16.54-16.05-.61-3.58-.26-7.03.85-10.11l-2.64-24.62-9.3-13.08-78.86-.51-3.03,29.75c4.73,4.52,7.21,11.38,5.61,18.72-1.62,7.42-7.68,13.38-15.12,14.88-12.79,2.59-23.98-7.15-23.9-19.46.04-5.99,2.76-11.35,7-14.94l.86-29.13-108-.7.78,9.25c2.79,1.54,7.73,21.26,9.48,23.9,2.57,3.85,3.81,8.66,3.1,13.77-1.22,8.8-8.54,15.86-17.37,16.81-11.95,1.28-22.01-8.1-21.93-19.77.04-6.53,3.24-12.3,8.16-15.86,1.64-1.19-4.12-17.81-2.86-20.24l-2.05-8-90.35-.59-5.81,29.51c4.86,4.51,7.45,11.43,5.87,18.83-1.59,7.48-7.68,13.49-15.16,15-12.79,2.57-23.96-7.17-23.88-19.48.05-7.6,4.39-14.17,10.71-17.43l-.73-26.62-94.98-.62-7.29,30.12c4.51,4.57,6.81,11.32,5.16,18.52-1.67,7.32-7.68,13.17-15.04,14.68-12.81,2.62-24.01-7.13-23.93-19.45.05-7.22,3.98-13.53,9.8-16.93l10.7-27.06-110.53-.72-2.86,29.56c4.84,4.51,7.42,11.42,5.83,18.82-1.6,7.46-7.68,13.47-15.15,14.98-12.78,2.57-23.96-7.17-23.88-19.48.04-6.09,2.83-11.52,7.2-15.12l-4.35-28.99-85.73-.56-11.14,28.54c5.27,4.22,8.34,11.08,7.18,18.57-1.33,8.65-8.58,15.55-17.28,16.5-11.97,1.32-22.07-8.06-21.99-19.76.04-5.45,2.28-10.37,5.88-13.92l-5.53-30.2-98.34-.64,3.45,28.23Z"/>
                <g class="cls-3">
                  <path class="cls-5" d="m1249.41,1777.57l-1135.88-7.4c-45.48-.3-82.25-37.54-81.96-83.02L42.44,19.78l53.4.35.07.16,13.33,32.02-.09.12c-2.81,3.47-4.31,7.67-4.34,12.16-.04,5.84,2.51,11.34,7,15.1,4.48,3.74,10.46,5.27,16.28,4.17,7.7-1.44,13.53-7.07,15.22-14.7,1.71-7.72-1.1-15.43-7.36-20.09l-.09-.07v-.11s-3.5-28.52-3.5-28.52l98.84.64.03.21,5.55,30.33-.09.09c-3.71,3.66-5.77,8.54-5.8,13.76-.04,5.55,2.31,10.88,6.44,14.61,4.18,3.78,9.63,5.5,15.26,4.89,8.57-.94,15.75-7.79,17.06-16.29,1.09-7.05-1.57-13.9-7.1-18.32l-.14-.12.07-.17,11.2-28.71,86.12.56.02.22,4.37,29.13-.11.09c-4.48,3.69-7.07,9.13-7.1,14.94-.04,5.89,2.55,11.43,7.1,15.18,4.56,3.75,10.56,5.23,16.47,4.04,7.37-1.49,13.38-7.43,14.96-14.79,1.48-6.91-.67-13.85-5.76-18.58l-.09-.09v-.12s2.89-29.8,2.89-29.8l111.13.72-.14.34-10.73,27.14-.07.04c-5.92,3.47-9.63,9.87-9.68,16.73-.04,5.9,2.56,11.45,7.13,15.2,4.56,3.74,10.55,5.21,16.5,4,7.24-1.48,13.2-7.3,14.84-14.48,1.53-6.68-.38-13.52-5.1-18.29l-.09-.1.03-.13,7.33-30.32,95.43.62v.25s.73,26.78.73,26.78l-.14.08c-6.47,3.34-10.52,9.93-10.57,17.22-.04,5.89,2.55,11.43,7.1,15.18,4.56,3.75,10.56,5.23,16.48,4.04,7.38-1.49,13.39-7.44,14.96-14.8,1.48-6.93-.69-13.88-5.79-18.61l-.11-.09.03-.14,5.85-29.72,90.75.59.05.19,2.07,8.09-.04.08c-.58,1.12.56,5.95,1.55,10.22,1.36,5.84,2.15,9.44,1.23,10.11-5,3.63-8.01,9.49-8.05,15.67-.04,5.55,2.3,10.87,6.42,14.59,4.18,3.77,9.55,5.52,15.24,4.92,8.73-.94,15.94-7.92,17.14-16.59.67-4.8-.42-9.63-3.07-13.59-.69-1.05-1.84-4.61-3.17-8.72-1.94-5.99-4.59-14.2-6.22-15.1l-.12-.06v-.14s-.81-9.53-.81-9.53l108.54.71v.26s-.88,29.25-.88,29.25l-.08.07c-4.35,3.68-6.87,9.07-6.91,14.76-.04,5.89,2.55,11.43,7.11,15.18,4.56,3.75,10.54,5.25,16.49,4.03,7.33-1.48,13.32-7.38,14.93-14.69,1.49-6.82-.58-13.73-5.54-18.48l-.09-.09v-.12s3.05-29.98,3.05-29.98l79.22.52.08.11,9.34,13.14v.07s2.64,24.67,2.64,24.67l-.02.06c-1.14,3.19-1.42,6.55-.83,9.99,1.39,8.16,8.11,14.66,16.33,15.85,6.49.91,12.74-1.26,17.16-6.01,4.43-4.76,6.15-11.2,4.74-17.68-1.58-7.29-7.58-13.19-14.92-14.69-2.68-.55-5.37-.56-7.97-.04l-.25.06-.04-.26-4.58-25.12,125,.81v.25s.7,26.96.7,26.96l-.13.08c-6.27,3.39-10.2,9.91-10.24,17.04-.04,5.9,2.56,11.44,7.12,15.19,4.56,3.75,10.58,5.22,16.49,4.02,7.28-1.48,13.26-7.34,14.88-14.58,1.78-7.97-1.36-16.05-7.99-20.6l-.12-.08v-.14s1.51-27.98,1.51-27.98l114.22.74.07.15,2.38,5.61c-2.01,19.13-2.56,19.12-2.86,19.12-5.89-.04-11.43,2.55-15.18,7.11-3.75,4.56-5.23,10.56-4.03,16.47,1.49,7.37,7.42,13.38,14.76,14.96,5.91,1.27,11.92-.13,16.52-3.82,4.6-3.69,7.26-9.2,7.3-15.09.04-5.95-3.48-13.59-5.3-14.97l-.12-.1.03-.15,4.8-22.74,3.84-6.41,59.68.39-10.88,1669.12c-.29,44.52-36.75,80.5-81.26,80.21ZM42.95,20.29l-10.86,1666.85c-.29,45.2,36.25,82.22,81.45,82.52l1135.88,7.4c44.24.29,80.47-35.47,80.76-79.71l10.88-1668.61-58.89-.38-3.68,6.12-4.74,22.47c2.11,1.81,5.41,9.65,5.38,15.27-.04,6.04-2.77,11.69-7.49,15.47-4.72,3.79-10.87,5.21-16.94,3.92-7.54-1.63-13.63-7.79-15.16-15.36-1.22-6.06.28-12.22,4.14-16.89,3.83-4.64,9.45-7.3,15.45-7.29.49-1.15,1.76-11.89,2.48-18.61l-2.28-5.27-113.41-.74-1.47,27.36c6.72,4.68,9.89,12.91,8.08,21.05-1.66,7.43-7.8,13.44-15.27,14.96-6.06,1.24-12.22-.26-16.91-4.12-4.68-3.85-7.35-9.53-7.31-15.58.05-7.26,4.02-13.92,10.38-17.4l-.7-26.41-123.9-.81,4.43,24.27c2.57-.5,5.24-.47,7.91.08,7.53,1.53,13.68,7.59,15.31,15.08,1.44,6.64-.32,13.24-4.86,18.12-4.54,4.87-10.97,7.11-17.6,6.16-8.43-1.2-15.32-7.89-16.75-16.25-.6-3.5-.31-6.94.84-10.19l-2.62-24.5-9.2-12.93-78.51-.51-2.99,29.4c5.03,4.87,7.12,11.91,5.59,18.87-1.63,7.49-7.79,13.55-15.31,15.07-6.04,1.23-12.23-.28-16.91-4.13-4.67-3.85-7.34-9.53-7.3-15.57.04-5.81,2.59-11.29,7.01-15.07l.84-28.76-107.47-.7.74,8.85c1.79,1.25,4.2,8.72,6.34,15.31,1.32,4.08,2.46,7.61,3.12,8.6,2.71,4.07,3.82,9.02,3.14,13.94-1.24,8.91-8.63,16.06-17.58,17.02-5.8.63-11.35-1.16-15.63-5.04-4.22-3.82-6.62-9.28-6.59-14.97.04-6.34,3.13-12.34,8.26-16.07.71-.51-.48-5.55-1.43-9.59-1.09-4.67-2.12-9.08-1.55-10.48l-1.98-7.72-89.95-.59-5.75,29.17c5.17,4.85,7.34,11.93,5.84,18.97-1.61,7.56-7.78,13.67-15.35,15.2-6.09,1.21-12.22-.3-16.89-4.14-4.67-3.85-7.34-9.53-7.3-15.57.05-7.42,4.15-14.14,10.72-17.59l-.73-26.22-94.53-.62-7.21,29.78c4.77,4.9,6.68,11.86,5.13,18.65-1.68,7.38-7.81,13.35-15.24,14.87-6.05,1.23-12.24-.24-16.92-4.1-4.68-3.85-7.36-9.54-7.32-15.59.05-7.01,3.82-13.55,9.85-17.11l10.53-26.64-109.93-.72-2.83,29.21c5.15,4.85,7.33,11.93,5.82,18.97-1.61,7.55-7.79,13.65-15.35,15.18-6.07,1.22-12.21-.29-16.89-4.14-4.66-3.85-7.33-9.53-7.29-15.57.04-5.91,2.66-11.45,7.19-15.23l-4.3-28.63-85.34-.56-11.01,28.21c5.57,4.54,8.23,11.51,7.13,18.68-1.34,8.71-8.7,15.74-17.49,16.71-5.82.63-11.37-1.15-15.67-5.03-4.23-3.82-6.64-9.29-6.61-14.98.03-5.3,2.12-10.28,5.86-14.01l-5.46-29.87-97.84-.64,3.41,27.85c6.35,4.78,9.2,12.64,7.45,20.54-1.71,7.69-7.83,13.62-15.61,15.07-6.04,1.14-12.09-.44-16.71-4.29-4.6-3.85-7.22-9.49-7.18-15.48.03-4.54,1.54-8.81,4.37-12.35l-13.16-31.59-52.56-.34Z"/>
                </g>
              </g>
            </g>
          </g>
        </g>
      </g>
    </g>
  </g>
</svg>