<?xml version="1.0" encoding="UTF-8"?>
<svg id="Capa_2" data-name="Capa 2" xmlns="http://www.w3.org/2000/svg" xmlns:xlink="http://www.w3.org/1999/xlink" viewBox="0 0 1922.75 1081.07">
  <defs>
    <style>
      .cls-1 {
        fill: none;
      }

      .cls-2 {
        clip-path: url(#clippath);
      }

      .cls-3 {
        fill: #eaeced;
      }

      .cls-4 {
        fill: #5d939c;
      }

      .cls-4, .cls-5, .cls-6, .cls-7, .cls-8 {
        fill-rule: evenodd;
      }

      .cls-5 {
        fill: #4666ad;
      }

      .cls-6 {
        fill: #7e96b9;
      }

      .cls-7 {
        fill: #b5d6dd;
      }

      .cls-8 {
        fill: #fff;
      }
    </style>
    <clipPath id="clippath">
      <rect class="cls-1" width="1922.75" height="1081.07"/>
    </clipPath>
  </defs>
  <g id="Capa_1-2" data-name="Capa 1">
    <g class="cls-2">
      <rect class="cls-3" x="194.59" y="62.13" width="1801.77" height="1020.4"/>
      <path class="cls-4" d="m5.71,1.01h1990.65v517.27c-8.47-12.32-81.56-118.47-86.59-119.68-5.35-1.28-11.74,11.85-11.74,11.85,0,0-84.6-114.35-93.9-114.81-9.3-.46-130.15,170.59-145.03,191.97-14.87,21.38-125.74,186.4-125.74,186.4,0,0-42.76-91.8-46.48-94.59-3.72-2.79-11.39,6.28-11.39,6.28,0,0-30.21-62.75-35.33-63.68-22.75-4.14-230.23,343.94-253.21,384.18,0,0-29.87-43-34.98-44.39-19.92-5.43-129.77,199.58-141.42,220.71H5.71V1.01Z"/>
      <path class="cls-5" d="m1996.36,519.87s-82.18-119.98-87.53-121.26c-5.35-1.28-11.74,11.85-11.74,11.85,0,0-84.6-114.35-93.9-114.81-9.3-.46-130.15,170.59-145.03,191.97-14.87,21.38-125.74,186.4-125.74,186.4,0,0-42.76-91.8-46.48-94.59-3.72-2.79-11.39,6.28-11.39,6.28,0,0-30.21-62.75-35.33-63.68-22.75-4.14-230.23,343.94-253.21,384.18,0,0-29.87-43-34.98-44.39-.24-.06-.49-.09-.76-.08-5.06-.11-14.73,10.61-26.75,27.41-2.74,3.52-5.62,7.29-8.63,11.25-5.88,7.74-19.52,30.52-35.09,57.46-32.31,54.44-64.2,113.81-70.19,124.67h32.88l-.05.02h-102.86c12.77-24.06,22.97-49.47,36.67-73.07,38.23-68.4,75.62-137.3,116.52-204.16,22.63-37.98,44.95-76.14,66.87-114.54,12.25-20.77,22.48-42.9,36.43-62.6,19.1-24.84,38.42,55.42,45.82,66.7,2.62,5.08,4.41,12.73,9.92,4.97,12.22-18.92,20.46-40.33,32.44-59.5,22.7-37.29,43.59-75.63,64.99-113.68,15.42-28.02,28.21-57.43,44.25-85.11,10.86-18.31,22.72-35.76,33.47-54.05,8.13-13.49,15.69-27.33,24.27-40.54,6.37-9.36,12.19-20,21.97-26.2,15.09-7.57,44.58,46.46,52.05,57.59,8.83,13.76,18.19,27.18,27,40.95,6.2,7.98,26.3,46.45,36.12,42.96,15.91-8.11,25.77-24.48,37.78-37.21,20.26-24.8,38.09-51.47,58.12-76.46,9.64-12.35,18.47-25.32,28.29-37.53,10.5-13.9,14.87-10.21,18.89,5.11,10.87-13.02,18.02-28.19,27.38-42.18,11.8-17.85,25.79-34.15,38.6-51.27,9.32-10.44,22.97-37.51,38.07-19.81,9.78,9.91,17.9,22.05,25.69,33.36,25.63,33.19,50.96,66.82,78.83,98.16,17.97,19.04,34.26,39.49,51.31,59.32.65,1.11,2.64,3.22,5.02,5.72v120.39Z"/>
      <g>
        <path class="cls-8" d="m1490.03,431.67c-3.94-6.48-6.73-13.61-10.16-20.37-2.63-5.55-5.24-11.27-9.17-16.04-.24-.24-.46-.52-.73-.71-.26,0-.47.22-.67.37-1.86,1.88-3.53,3.94-5.27,5.93-4.13,4.87-8.49,9.9-12.63,14.64-2.7,2.99-8.43,13.84-9.31,3.55-1.19-6.9-1.78-14.16-5.03-20.46-12.01,8.48-23.35,17.92-35.09,26.78-2.88,2.15-5.84,4.2-8.84,6.18-.66.5-1.35,1.28-2.24.77-1.11-.64-.68-2.07.25-2.68,11.54-7.82,22.18-16.77,33.27-25.19,2.21-1.69,4.45-3.35,6.67-5.03,1.11-.83,2.2-1.68,3.34-2.48.98-.68,2.13-1.5,3.39-1.21,4.45,1.67,6.39,18.84,7.17,23.54,4.76-6.72,10.46-12.48,15.67-18.81,1.82-2.08,3.62-4.19,5.47-6.25.93-1.01,1.91-2.21,3.34-2.44,4.5-1.1,11.68,15.9,13.55,19.62,2.84,5.71,5.41,11.66,8.42,17.24,2.93-10.26,3.01-20.99,4.5-31.49.79-5.56,1.16-11.19,2.3-16.7.35-1.36.49-2.91,1.41-4.03,1.08-1.17,2.77-.42,3.58.68,2.45,3.21,4.02,6.97,5.86,10.53,2.93,5.39,6.54,10.61,11.09,14.65,2.3-4.39,2.38-9.54,3.14-14.34.63-4.64.97-9.3,1.51-13.95.1-.74.78-1.3,1.53-1.21.77.09,1.27.78,1.21,1.53-.11,1.37-.21,2.74-.34,4.11-.69,6.53-1.32,13.18-2.55,19.62-.67,2.44-1.9,8.82-5.56,7-1.39-.95-2.4-2.08-3.55-3.27-2.9-3.1-5.38-6.59-7.56-10.22-2.36-3.95-3.98-8.32-6.61-12.12-.98,3.74-1.35,7.6-1.81,11.42-.65,5.62-1.46,11.23-1.98,16.87-.54,5.79-1.15,11.59-2.37,17.29-.55,2.22-1.69,10.26-5.2,6.66Z"/>
        <path class="cls-8" d="m1493.39,441.31c-3.76-3.12-5.95-7.81-8.63-11.83-6.27-9.36-10.44-19.88-13.08-30.79-5.82,10.35-13.49,19.47-19.99,29.37-1.44,1.83-3.76,6.52-6.55,4.45-1.45-1.82-1.75-4.33-2.51-6.49-2.1-7.79-4.11-15.62-5.74-23.52-2.71,2.62-5.3,5.02-8.17,7.41-7.1,5.43-14.82,9.98-21.85,15.48-2.41,1.8-4.8,3.62-7.14,5.51-1.78,1.28-3.23,3.1-5.15,4.15-1.51.43-2.42-1.67-1.06-2.48,9.6-8.47,20.27-15.66,30.82-22.84,4.27-3.21,8.32-6.79,11.91-10.66.48-.74,1.42-1.13,2.19-.57.63.43.73,1.21.9,1.9.33,1.42.6,2.86.9,4.28,2.1,8.36,3.86,16.85,6.59,25.03,3.09-3.62,5.35-7.86,8.26-11.62,5.53-7.35,10.81-14.92,15.34-22.93,3.34-3.43,4.72,5.79,5.38,7.75.66,2.41,1.41,4.79,2.24,7.14,2.34,6.25,5.41,12.13,9.01,17.7,2.22,3.54,4.24,7.07,6.9,10.23,3.14-9.8,2.31-20.37,3.75-30.47,1.07-7.14,2.78-14.29,3.02-21.52.1-1.92.15-3.85.17-5.77,0-.56.32-1.14.86-1.34,1.65-.68,2.52,1.33,3.21,2.47,3.04,5.56,5.66,11.16,9.21,16.38,1.92,2.67,3.99,4.76,6.14,7.09.56-3.88,1.45-7.55,2.19-11.38.59-2.91,1.12-5.84,1.72-8.75.16-1.35.8-2.89,2.42-2.06.23-2.51.16-5.05.39-7.56.29-1.3,2.19-1.45,2.71-.23.35,1.31,0,2.75,0,4.1-.1,4.66-.09,9.32-.15,13.98-.16,4.34.1,18.26-4.27,20.06-1.9.43-3-1.66-4.15-2.79-1.25-1.42-2.45-2.89-3.72-4.27-6.13-5.88-9.93-13.53-13.77-20.93-.14,9.37-2.83,18.43-3.58,27.73-.64,3.92-.71,31.16-6.73,28.6h0Zm30.02-32.94c0-.12,0-.24,0-.36-.1.02-.2.02-.3.02.1.11.2.23.29.34Z"/>
        <path class="cls-8" d="m1446.35,430.9c-.61-.23-1.08-.94-.96-1.6.01-.07.03-.13.04-.2-1.94-3.89-2.51-8.33-3.69-12.49-1.1-4.29-2.3-8.55-3.42-12.83-7.44,5.44-15.16,10.49-22.78,15.67-3.61,2.76-7.14,5.64-10.8,8.34-.43.32-.98.39-1.45.19-.74.7-1.98,1.27-2.76.3-.43-.53-.45-1.42.08-1.9,1.78-1.57,3.6-3.1,5.38-4.66-.1-.75.43-1.37.97-1.83.9-.84,1.84-1.62,2.79-2.4,3.6-2.93,7.33-5.72,11.04-8.52,5.64-3.75,9.55-9.42,14.89-13.55,4.38-3.35,4.97-1.37,6.71,2.83,2.21,6.1,4.09,12.3,6.67,18.22.31-.32.65-.63,1.06-.78,2.93-4.52,6.54-8.57,10.09-12.6,1.41-1.32,2.48-3.28,4.28-4.07,1.32-1.45,2.71-2.83,4.18-4.13.54-.42,1.05-1.02,1.76-1.12.77-.07,1.55.41,1.65,1.22.11,1.12-.93,1.87-1.54,2.68.14.17.24.37.3.59,1.5.28,1.41,2.73-.14,2.83-3.32,3.42-6.1,7.34-9.17,10.88-3.55,4.13-6.84,8.33-10.29,12.51-.35,1.9-1.84,3.42-2.71,5.12-.22.98-1.24,1.69-2.2,1.31Z"/>
        <path class="cls-8" d="m1843.28,271.85c-4.76-8.75-7.89-18.28-12.18-27.25-2.15-3.98-3.67-8.2-6.51-11.67-3.04,7.08-6.12,14.3-10.25,20.8-.62,1.03-1.64,2.39-3.01,1.9-.92-.37-1.23-1.44-1.49-2.3-.39-1.29-.7-2.59-1.01-3.9-1.62-6.29-2.68-12.7-3.96-19.06-6.41,5.04-12.54,10.49-19.37,14.98-2.62,1.73-5.5,3.02-8.16,4.69-.97,1.74-3.4.06-2.3-1.55,1.28-1.44,3.24-2.1,4.85-3.1,3.72-2.02,7.06-4.29,10.3-6.91,3.35-2.61,6.69-5.24,9.97-7.94,1.3-1.06,2.59-2.13,3.96-3.11.82-.7,2.06-.64,2.72.26.72,1.04.83,2.42,1.12,3.62.41,2.08.77,4.16,1.15,6.25.9,4.87,2.04,9.37,3.21,14.13,3.46-5.68,6.33-11.68,8.86-17.82.68-1.33,1-3.11,2.42-3.86,3.72-1.31,6.9,7.97,8.52,10.51,4.47,8.67,7.58,17.97,11.88,26.73.46-6.56.91-13.36,1.34-19.87.15-2.88.23-5.76.28-8.65.02-1.35.02-2.71.07-4.06.06-1.09.02-2.33.79-3.19,1.85-1.61,4.31.92,5.99,1.8,3.56,2.16,6.76,5.04,10.18,7.35,3.98,2.41,8.06,4.69,11.62,7.72.59.48.77,1.31.3,1.95-.45.61-1.34.75-1.95.3-1.85-1.36-3.65-2.78-5.54-4.01-1.94-1.26-3.99-2.33-5.81-3.52-4.29-2.92-8.31-6.53-12.81-9-.11,8.71-.55,17.4-1.24,26.08-.25,3.27-.36,6.54-.79,9.79-.06,1.8-1.53,3.75-3.17,1.92Z"/>
        <path class="cls-8" d="m1809.59,263.9c-2.42-5.89-3.46-12.35-4.86-18.56-.72-3.55-1.46-7.1-1.92-10.7-5.53,4.22-11.21,8.23-16.62,12.61-5.33,3.94-10.34,8.38-16.02,11.81-1.12.51-2.36-.68-1.88-1.82.4-.76,1.19-1.32,1.78-1.92,8.4-7.73,17.91-14.11,27.03-20.94,2.14-1.52,4.29-3.04,6.52-4.43.82-.47,1.76-1.26,2.73-.75,1.1.64.84,2.02-.11,2.67,1.72,7.32,3.4,14.67,5.61,21.87,3.92-6.23,7.47-12.67,10.8-19.23.41-.85.88-1.96,1.98-2.01,1.22-.03,1.73,1.36,1.19,2.33.55.67-.04,1.71-.35,2.29-2.14,5.05-4,10.23-6.6,15.08-1.43,2.79-2.88,5.56-4.4,8.3-.55.98-1.1,1.96-1.73,2.9-.22.37-.64.66-1.05.7-.61.57-1.55.43-2.08-.19Z"/>
      </g>
      <g>
        <path class="cls-6" d="m1209.71,1082.54c11.16-19.04,24.07-37.32,34.61-56.63,17.59-29.31,33.66-59.5,52.01-88.34,11.49-18.51,22.72-37.19,34.74-55.36,17.27-25.92,30.33,20.12,37.3,32.36,15.15-14.02,23.61-33.25,34.39-50.49,13-21.42,27.11-42.13,39.79-63.69,8.09-13.75,15.53-27.89,24-41.42,8.73-16.67,18.08-15.09,26.48.88,39.1,70.22,68.2,145.42,104.96,216.78,10.67-11.93,17.9-26.92,24.95-41.16,4.61-7,6.02-21.09,15.49-22.52,9.19,2.9,15.6,24.22,21.45,32.44,15.91,28.17,29.95,56.93,47.08,84.25,9.7,17.41,21.47,33.56,31.05,51.03.39.64.57,1.27.6,1.88h-8.76c-1.02-1.63-2.06-3.24-3.1-4.87-32.95-49.51-59.84-102.54-88.73-154.42-8.91,15.83-23.42,56.24-40.1,62.5-10.61-.03-25.18-44.57-31.42-54.77-14.25-30.18-28.01-60.59-42.46-90.68-14.01-28.53-25.81-59.4-44.77-84.88-11.76,15.52-19.74,33.07-29.8,49.63-16.91,28.62-35.93,55.96-52.16,85-39.83,62.06-29.86,26.32-55.89-7.12-41.03,58.57-73.76,122.65-111.66,183.29-3.33,5.44-6.71,10.87-10.05,16.31h-10Z"/>
        <path class="cls-6" d="m1507.17,876.34c-8.68-14.87-13.12-31.99-20.16-47.7-6.22,8.51-12.75,16.79-18.57,25.58-3.01,4.36-9.42,14.69-14.59,7.21-2.75-9.07-2.67-18.86-4.83-28.1-13.03,10.04-26.1,20.02-38.05,31.35-4.71,3.11-8.59-3.8-4.24-6.96,11.69-10.98,24.38-20.74,37.07-30.52,15.33-13.4,14.27,15.93,16.35,24.71,37.19-53.31,26.36-40.11,49.74,11.89,1.5-6.87,2.62-13.82,3.56-20.79,1.62-5.14.23-23.93,7.7-22.66,2.22.38,3.73,2.54,3.36,4.75-1.1,5.79-1.96,11.61-2.69,17.46-1.9,6.56-2.71,42.59-14.65,33.76Z"/>
        <path class="cls-6" d="m1542.09,924.38c-1.26-3.94-10.87-16.83-5.44-19.06,4.42-.49,4.25,6.37,6.46,9.08.82,3.34,6.08,7.88,2.63,10.86-1.18.72-2.97.4-3.65-.87Z"/>
        <path class="cls-6" d="m1531.33,934.7c-.95-2.58-4.19-5.1-3.05-7.98,3.37-4.68,8.01,4.24,8.01,7.22-.48,2.26-3.83,2.8-4.96.76Z"/>
        <path class="cls-6" d="m1553.95,960.64c-3.29-2.93-4.42-7.88-6.75-11.6-1.17-2.32-3.75-6.73.25-7.68,4.5.31,7.13,12.03,9.94,15.69,1.06,2.07-1.34,4.51-3.44,3.58Z"/>
        <path class="cls-6" d="m1558.53,950.09c-.96-3.7-6.23-11.11-1.06-13.28,4.23-.08,3.72,8.12,6.08,11.05,1.47,3.24-3.61,5.51-5.03,2.23Z"/>
        <path class="cls-6" d="m1537.56,977.1c-1.64-4.09-3.57-8.1-4.94-12.29-.33-1.38.36-2.81,1.78-3.23,3.87-.72,3.9,4.81,5.53,7.17.76,2.95,5,7.52,1.22,9.73-1.32.59-3.02-.01-3.59-1.39Z"/>
        <path class="cls-6" d="m1511.38,952.59c-1.27-3.85-9.79-13.43-4.52-16.07,3.9-1.09,6.81,10.73,9.28,13.57,1.42,2.93-3.13,5.34-4.76,2.51Z"/>
        <path class="cls-6" d="m1506.6,918.36c-1.87-1.44-7.45-10.38-4.13-11.84,3.5-1.86,4.73,3.45,6.08,5.46,2.01,2.47,2.62,7.4-1.96,6.38Z"/>
        <path class="cls-6" d="m1517.97,982.73c-2.34-2.01-12.11-19.37-6-19.96,4.22.24,3.86,6.83,6.19,9.64,1.35,3.06,6.84,11.1-.18,10.32Z"/>
        <path class="cls-6" d="m1540.9,1014.03c-.94-3.82-13.97-21.8-4.61-20.67,4.38,5.06,6.07,12.59,9.52,18.49,1.44,3.14-3.47,5.38-4.91,2.18Z"/>
        <path class="cls-6" d="m1558.64,1006.83c-1.19-4.05-9.97-15.23-3.22-17.09,3.24-.2,5.66,11.88,8.07,14.93,1.42,3.12-3.42,5.32-4.86,2.16Z"/>
        <path class="cls-6" d="m1568.6,990.68c-2.16-4.72-4.41-9.43-6.1-14.35-.73-2.13,1.86-4.16,3.76-3.01,2.19,2,2.41,5.37,3.91,7.89.7,3.29,5.89,8.25,1.92,10.82-1.3.58-2.89-.02-3.49-1.35Z"/>
        <path class="cls-6" d="m1552.94,1039.93c-1.06-2.39-2.82-7.2,1.23-7.56,2.96.03,2.8,3.76,3.82,5.72,1.03,3.09-3.85,4.86-5.05,1.84Z"/>
        <path class="cls-6" d="m1523.2,1024.89c-1.79-3.67-10.53-14.45-3.02-15.87,3.29.79,2.25,5.24,4.28,7.46,1.02,1.92,2.08,3.81,3.23,5.65,1.8,2.89-2.7,5.68-4.49,2.76Z"/>
        <path class="cls-6" d="m1574.39,1041.29c-1.06-3.24-6.19-8.55-2.25-11.24,4.51-1.23,4.64,5.84,6.88,8.39,1.89,2.98-2.86,5.88-4.63,2.84Z"/>
        <path class="cls-6" d="m1589.27,1015.21c-1-2.22-1.9-6.42,1.62-6.65,2.61-.07,2.53,2.76,3.27,4.48,1.43,3.16-3.55,5.36-4.89,2.17Z"/>
        <path class="cls-6" d="m1664.6,1082.54c-3.5-5.14-8.02-11.53-5.09-13.54,3.73-1.97,8.34,8.07,11.33,13.54h-6.24Z"/>
        <path class="cls-6" d="m1671.65,1067.47c-1.29-3.5-9.61-10.97-3.07-12.86,3.94,1.23,5.06,6.99,7.63,10.06,1.82,2.93-2.75,5.76-4.55,2.8Z"/>
        <path class="cls-6" d="m1668.96,1042.44c-2.08-3.84-13.08-13.76-8.01-17.39,4.12-1.27,4.91,5.58,7.26,7.5,1.41,3.15,7.66,6.74,4.52,10.27-1.11.91-2.87.76-3.77-.39Z"/>
        <path class="cls-6" d="m1697.65,1082.54c-2.66-4.26-9.94-11.92-4.96-14.38,3.95-.72,7.53,10.07,10.28,12.93.31.5.44.99.43,1.46h-5.74Z"/>
        <path class="cls-6" d="m1689.98,1055.47c-1.35-2.15-2.41-4.43-3.39-6.77-.94-5.32,5.02-4.29,5.88.1,1,2.31,4.29,5.49,1.25,7.57-1.25.77-2.95.37-3.74-.89Z"/>
        <path class="cls-6" d="m1664.26,1002.52c-1-2.55-4.95-6.19-1.79-8.51,3.68-1.85,4.67,3.54,6.38,5.69,1.84,2.96-2.81,5.82-4.59,2.82Z"/>
        <path class="cls-6" d="m1645.66,971.34c-1.03-3.63-7.15-9.29-3.03-12.37,4.76-1.03,5.15,6.81,7.59,9.57,1.87,2.93-2.83,5.79-4.56,2.8Z"/>
        <path class="cls-6" d="m1362.14,957.83c-.78-4.32-11.04-21.06-6.43-22.77,4.95-1.02,5.12,7.15,7.25,10.24.68,4,6.83,10.82,2.7,13.88-1.29.58-2.97,0-3.52-1.36Z"/>
        <path class="cls-6" d="m1341.31,927.26c-.84-2.4-2.26-7.05,1.58-7.37,3.1.04,2.6,3.81,3.6,5.87,1.02,3.32-4.2,4.88-5.18,1.5Z"/>
        <path class="cls-6" d="m1352.38,974.47c-1.02-3.17-2.07-6.35-2.59-9.65-.2-1.41.79-2.76,2.21-2.97,4.66.38,3.62,7.82,5.58,11.11.99,3.34-4.2,4.89-5.2,1.51Z"/>
        <path class="cls-6" d="m1336.55,947.16c-1.51-3.89,3.87-6.77,5.08-2.36,1.49,3.99-3.68,6.84-5.08,2.36Z"/>
        <path class="cls-6" d="m1355.12,1001.53c-.76-3.34-5.47-9.34-1.1-11.56,4.31-.74,4.26,6.64,6.07,9.35,1.43,3.21-3.57,5.44-4.96,2.2Z"/>
        <path class="cls-6" d="m1365.99,983.32c-.38-3.05-3.51-9.35,1.25-10.09,3.95.43,2.58,5.87,3.89,8.59.96,3.33-4.22,4.83-5.14,1.49Z"/>
        <path class="cls-6" d="m1335.76,984.94c-2.07-5.09-4.22-10.2-5.47-15.56-.94-3.23,4.1-4.71,5.01-1.45.5,1.92,1.12,3.79,1.8,5.66.52,3.88,6.24,9.69,2.19,12.71-1.3.58-2.98,0-3.53-1.36Z"/>
        <path class="cls-6" d="m1370.16,1021.2c-1.01-3.65-2.2-7.25-3.11-10.92-.22-1.27.64-2.54,1.86-2.89,5.2-.3,4.58,8.8,6.33,12.34.96,3.27-4.14,4.78-5.08,1.47Z"/>
        <path class="cls-6" d="m1354.48,1039.33c-.69-4.09-7.85-14.89-2.98-17,4.89-.44,4.43,8.2,6.54,11.34.45,1.82,1.96,3.64,1.35,5.55-.74,2.13-4.09,2.24-4.91.1Z"/>
      </g>
      <g>
        <path class="cls-8" d="m1521.69,411.33c-2.43-1.68-4.19-4.29-6.14-6.5-1.65-1.77-3.27-3.48-4.84-5.3-2.95-3.46-5.73-7.05-8.36-10.75-.9-1.27-1.82-2.53-2.65-3.85-.54-.78-1.12-1.92-.31-2.72-.34-1.26,1.17-2.29,2.24-1.58-.96-1.26.19-3.09,1.72-2.33,1.7,1.52,2.76,3.68,4.16,5.46,1.24,1.42,2.45,2.85,3.67,4.28,2.89,3.25,5.44,6.8,8.55,9.84,1.25,1.27,2.5,2.54,3.72,3.84.95.88,2.46,2.48.91,3.55.94,1.66,2.43,6.26-1.02,5.6-.38.52-1.08.68-1.67.47h0Zm.22-4.67c-1.36-2.14-3.19-4.02-4.95-5.83-2.12-2.31-4.06-4.79-5.93-7.3,2.88,4.92,6.91,9.07,10.88,13.12Z"/>
        <path class="cls-8" d="m1495.39,443.77c-.8-.2-1.24-1-1.07-1.79.09-.41.2-.81.3-1.22-1.99.03-1.55-2.08-1.3-3.39-2.25.3-1.85-2.21-1.61-3.66.61-4.35,1.55-8.42,2.48-12.67,1.59-11.15,3.45-22.31,5.71-33.31-.88-1.01-.03-2.47.69-3.31.18-.83.43-1.66.75-2.44.31-.77.98-1.38,1.85-1.28,1.16.1,1.57,1.72.62,2.37-.04.09-.07.19-.11.28-.17.53-.31,1.06-.43,1.59.05.1.08.21.12.32.75-.33,1.68.14,1.89.93.24,1.91-.47,3.85-.67,5.75.8-.31,1.76.26,1.86,1.12-.08,1.62-.64,3.23-.91,4.83-.96,5.04-1.81,10.09-2.76,15.13-1.29,7.12-2.75,14.14-4.07,21.22-.41,2.13-.71,4.27-1.06,6.4-.24,1.29-.49,3.51-2.29,3.13Z"/>
        <path class="cls-8" d="m1494.11,443.94c-2.82-2.73-4.46-6.44-6.64-9.67-3.8-6.18-7.72-12.28-11.47-18.49-1.46-2.63-10.63-16.97-8.23-18.78-.01-.19.02-.38.1-.58.04-.11.1-.21.17-.3-.64-1.37.87-2.91,2.18-1.95,1.23.1,1.46,1.61,1.94,2.52.71,1.48,1.44,2.7,2.22,4.11,2.01-.6,2.34,2.33,3.21,3.54,1.86,3.64,3.8,7.19,5.77,10.77,2.12,3.84,4.27,7.66,6.37,11.5.49.9.98,1.8,1.45,2.71.34.6.59,1.37.25,2.02.82,1.28,1.64,2.55,2.46,3.83.87,1.03,1.21,2.7-.44,3.06.06.09.12.18.18.28,2.08-.89,2.62,1.86,2.79,3.35.51,1.47-.87,3.05-2.3,2.07Z"/>
        <path class="cls-8" d="m1531.34,476.56c-3.12-3.33-4.45-8.47-6.23-12.7-.73-2.47,3.11-3.58,3.83-1.11.2,3.11,9.3,14.5,2.4,13.8Z"/>
        <path class="cls-8" d="m1521.51,446.99c-1.67-1.43-6.35-9.07-2.36-9.88,2.31-.27,2.42,2.61,3.42,4.03,1.45,1.96,3.1,6.65-1.06,5.85Z"/>
        <path class="cls-8" d="m1542.54,466.13c-1.26-3.54-12.01-18.88-8.13-20.69,3.45-1.36,5.95,9.91,8.16,12.37.71,2.78,5.43,6.41,2.73,8.98-.91.56-2.2.29-2.75-.66Z"/>
        <path class="cls-8" d="m1531.57,428.47c-.69-1.99-3.32-5.58-.35-6.78,2.84-.56,2.85,3.42,4.07,5.12,1.09,2.39-2.65,4.07-3.72,1.65Z"/>
        <path class="cls-8" d="m1559.92,466.89c-1.16-3.63-6.57-8.75-4.85-12.36,3.63-3.18,6.37,8.02,8.35,10.2,1.43,2.25-2.16,4.44-3.5,2.15Z"/>
        <path class="cls-8" d="m1560.4,494.35c-.91-2.6-5.48-8.37-.96-9.55,2.85.55,2.95,5.68,4.74,7.86,1.1,2.43-2.67,4.14-3.79,1.68Z"/>
        <path class="cls-8" d="m1551.28,502.4c-.88-2.93-7.66-10.09-2.55-11.54,3.27,1.14,3.89,6.77,5.99,9.42,1.4,2.21-2.12,4.37-3.44,2.11Z"/>
        <path class="cls-8" d="m1571.66,532.65c-.99-3.68-9.92-15.58-5.54-17.74,3.61-.22,3.7,6.22,5.69,8.56.67,3.09,5.87,7.67,2.58,10.23-1.02.46-2.22-.02-2.72-1.05Z"/>
        <path class="cls-8" d="m1560.01,537.27c-1.92-1.73-8.05-12.84-3.13-13.42,2.9.46,2.23,4.84,3.88,6.84,1.14,2.09,3.86,7.3-.74,6.58Z"/>
        <path class="cls-8" d="m1536.71,512.01c-.95-2.92-6.06-8.22-2.36-10.5,3.32-.45,3.84,6.24,5.8,8.39,1.41,2.22-2.13,4.38-3.45,2.12Z"/>
        <path class="cls-8" d="m1579.7,509.89c-1.03-2.58-6.05-8.47-1.39-9.71,2.84.58,3.16,5.65,4.97,7.82,1.08,2.21-2.37,4.02-3.58,1.89Z"/>
        <path class="cls-8" d="m1577.39,482.75c-.77-2.71-5.33-6.35-2.67-8.88,3.58-1.34,4.34,4.67,6.16,6.73,1.39,2.26-2.14,4.42-3.49,2.15Z"/>
        <path class="cls-8" d="m1511.62,481.5c-.58-2.34-4-6.07-1.14-7.86,3.37-.97,3.42,4.24,4.83,6.23,1.07,2.38-2.63,4.04-3.69,1.64Z"/>
        <path class="cls-8" d="m1576.48,563.2c-.63-1.54-2.02-3.88.1-4.88,2.21-.91,2.92,1.71,3.65,3.22,1.12,2.4-2.7,4.12-3.75,1.67Z"/>
      </g>
      <g>
        <path class="cls-8" d="m1840.8,271.32c-5.51-9.81-10.04-20.14-15.09-30.18-.82-1.74-1.59-3.43-2.17-5.22-.19-.58-.35-1.24-.11-1.83.34-.88,1.45-1.17,2.22-.65,2.06-.43,2.24,2.88,3.01,4.18,1.12,2.76,2.39,5.45,3.63,8.16,1.99,3.86,3.93,7.74,5.84,11.64.95,1.93,1.9,3.86,2.76,5.83.22.49.11,1.05-.23,1.43.82,1.87,1.81,3.68,2.65,5.54.43,1.51-1.66,2.45-2.5,1.1Z"/>
        <path class="cls-8" d="m1846.73,277.54c-.39-.05-.71-.25-.92-.53-1.25.27-2.06-1.16-2.63-2.02-2.48-3.61-4.37-7.55-6.54-11.34-2.91-5.05-5.77-10.13-8.56-15.25-1.15-2.16-2.3-4.32-3.32-6.54-.35-.96-1.11-2.02-.71-3.07-.61-1.36-2.27-3.23-.75-4.46.46-.3,1.02-.22,1.46.06.61.48.62,1.38,1.05,2,2.85,5.04,5.99,9.92,8.6,15.09,3.28,6.73,6.08,13.29,10.53,19.25,1.05-12.45.91-24.8,1.67-37.24.19-.82.03-1.83.73-2.44.66-.56,1.74-.29,2.08.5.78,12.08.15,24.39-.58,36.48-.16,2.42-.35,4.84-.5,7.26.07,1.03-.34,2.39-1.61,2.23Z"/>
        <path class="cls-8" d="m1877.44,256.93c-1.59-1.19-3.3-2.2-4.9-3.38-1.72-.2-3.18-1.42-4.63-2.31-3.57-2.45-6.71-5.46-10.41-7.73-3.25-2.31-6.59-4.55-9.63-7.12-1.06-1.35.85-2.98,2.06-1.79,1.45-.83,3.21,1.52,4.46,2.16,2.89,2.16,5.9,4.14,8.84,6.22.45,0,.81.28,1.15.54,1.12.86,2.23,1.72,3.35,2.58,3.36,2.39,6.76,4.73,9.91,7.39.48.44.85.91,1.4,1.27,1.4,1.07-.16,3.2-1.59,2.18Z"/>
        <path class="cls-8" d="m1846.91,277.16c-2.24-.41-.67-3.79-.73-5.33.47-4.04.75-8.09,1.1-12.14.53-5.78.79-11.59,1.31-17.38.18-1.77.34-3.55.48-5.32.29-1.29,2.23-1.32,2.58-.04.16,3.36-.51,6.74-.64,10.11-.39,5.75-.79,11.49-1.33,17.23-.23,2.65-.45,5.3-.76,7.94-.38,1.49.21,5.07-2.02,4.93Z"/>
        <path class="cls-8" d="m1864.84,321.98c-1.58-2.56-10.84-13.05-7.5-15.07,3.69-1.51,6.79,8.45,9.3,10.79,2.73,2.1,1.8,6.83-1.8,4.28Z"/>
        <path class="cls-8" d="m1866.55,300.53c-1.26-2.95-6.66-7.86-3.39-10.67,3.65-.84,4.49,6.41,6.82,8.56,1.37,2.2-2.04,4.34-3.43,2.11Z"/>
        <path class="cls-8" d="m1867.25,271.39c-1.68-3.09-10.2-11.24-5.72-14.02,1.19-.35,2.38.5,2.57,1.7,1.1,2.41,2.61,4.57,3.92,6.56.94,1.81,4.19,4.02,2.06,6.05-.83.67-2.16.57-2.82-.3Z"/>
        <path class="cls-8" d="m1889.31,332.69c-1.31-3-9.53-11.89-4.02-13.54,2.79.61,2.84,4.89,4.74,6.85.9,1.53,1.79,3.07,2.73,4.57,1.37,2.22-2.04,4.35-3.45,2.12Z"/>
        <path class="cls-8" d="m1889.91,308.59c-1.02-2.21-4.92-6.03-1.88-7.98,3.2-.91,3.6,4.07,5.41,5.82,1.41,2.26-2.11,4.45-3.52,2.16Z"/>
        <path class="cls-8" d="m1878.88,289.96c-1.03-1.55-1.98-3.11-2.79-4.78-.47-.97.04-2.2,1.01-2.63,3.01-.91,3.55,3.64,5.23,5.29,1.39,2.21-2.06,4.36-3.45,2.12Z"/>
        <path class="cls-8" d="m1908.41,326.75c-.4-.61-.81-1.22-1.23-1.83-.96-1.34-1.96-2.63-3.04-3.87-2.1.49-3.09-2.25-2.02-3.76,4.22-3.41,7.49,4.68,9.72,7.35,1.38,2.2-2.06,4.34-3.43,2.11Z"/>
        <path class="cls-8" d="m1905.67,351.25c-.93-2.09-4.6-5.5-1.61-7.31,2.93-.92,3.64,3.45,5.07,5.18,1.37,2.24-2.09,4.38-3.46,2.13Z"/>
        <path class="cls-8" d="m1886.75,357.71c-1.06-2.44-5.33-7.08-1.81-8.98,3.31-.3,3.26,4.93,5.24,6.88,1.37,2.21-2.07,4.34-3.43,2.11Z"/>
        <path class="cls-8" d="m1895.45,299.3c-.9-3.23-6.97-10.32-3.02-12.65,3.23-.86,4.61,8.66,6.67,11.03,1.07,2.34-2.59,4-3.65,1.62Z"/>
        <path class="cls-8" d="m1924.23,342.42c-.69-1.99-3.29-5.54-.3-6.74,2.85-.58,2.85,3.37,4.02,5.09,1.09,2.39-2.66,4.07-3.72,1.65Z"/>
        <path class="cls-8" d="m1922.89,381.42c-1.09-3.04-9.69-11.43-4.11-13.03,3.15,1.13,5.05,8.14,7.54,10.92,1.38,2.2-2.07,4.35-3.44,2.11Z"/>
      </g>
      <g>
        <path class="cls-8" d="m1221.21,711.39c-.1-3.05-4.17-10.19-.31-11.55,3.78.21,2.86,7.62,4.23,10.42.76,2.52-3.21,3.68-3.92,1.13Z"/>
        <path class="cls-8" d="m1214.87,683.42c-.42-2.63-3.44-8.36.53-9.23,3.28.62,2.03,5.67,3.42,8.09.75,2.54-3.2,3.71-3.95,1.14Z"/>
        <path class="cls-8" d="m1230.67,705.58c-.21-3.07-3.76-9.68.02-11.23,3.78.14,2.47,7.47,3.85,10.11.75,2.5-3.17,3.63-3.87,1.12Z"/>
        <path class="cls-8" d="m1213.01,652.1c-.84-3.4-6.34-12.51-1.4-14.12,3.11.23,2.16,7.03,3.87,9.48.49,1.78,2.55,4.44.16,5.65-.96.43-2.21,0-2.62-1.01Z"/>
        <path class="cls-8" d="m1223.09,672.66c-1.41-1.71-2.45-7.14.73-7.5,2.82.14,1.79,3.69,2.49,5.56.34,1.72-1.86,3.01-3.22,1.94Z"/>
        <path class="cls-8" d="m1204.72,665.7c-.28-2.03-2.54-5.39.27-6.46,2.97-.6,2.79,3.46,3.59,5.34.74,2.49-3.15,3.63-3.86,1.12Z"/>
        <path class="cls-8" d="m1213.7,736.43c-2.76-6.58-3.31-14.5-4.26-21.66-.09-2.48,3.83-2.67,3.96-.18-.84,3.49,7.4,25.59.3,21.84Z"/>
        <path class="cls-8" d="m1198.2,709.79c.02-2.76-3.09-9.59,1.59-9.51,2.82,1.53,1.33,6.19,2.42,8.92.4,2.58-3.63,3.19-4.01.59Z"/>
        <path class="cls-8" d="m1228.58,741.15c-.48-2.83-1.38-6.1-1.36-8.88-.1-1.25.62-2.59,2-2.59,3.14.3,1.69,4.56,2.57,6.69.11,2.1,2.17,5.76-.92,6.49-1.09.17-2.09-.62-2.3-1.71Z"/>
        <path class="cls-8" d="m1219.93,766.9c.18-3.1-3.19-10.11.96-11.19,3.5.53,2.03,7.81,3.05,10.6.38,2.59-3.63,3.19-4.01.59Z"/>
        <path class="cls-8" d="m1203.87,753.8c-.65-2.5-1.13-8.21,2.86-5.9,1.12,1.45.6,3.6,1.14,5.31.42,2.58-3.63,3.19-4,.59Z"/>
        <path class="cls-8" d="m1229.1,775.95c.33-3.24-2.69-11.27,1.37-12.33,3.71.81,1.47,6.58,2.42,9.4,0-.03,0-.07,0-.1.11,1.68.86,4.34-1.49,4.74-1.05.15-2.18-.61-2.29-1.71Z"/>
      </g>
      <path class="cls-8" d="m1277.15,549.06c-1.15-.24-3.1-.22-5.26-.2-4.64.04-10.22.08-10.88-2.46.19-.93.73-1.44,1.48-1.69-.28-2.24,2.36-5.34,3.69-6.8,5.26-5.11,13.58-7.23,20.52-4.61-3.32-28.5,43.41-39.32,55.42-14.57,10.51-26.85,46.19-20.43,55.16,4.12,7.81-8.92,23.83-14.12,31.71-2.58,1.07,1.91,3.89,5.27,4.33,7.97-.44.37-.81.88-1.17,1.31-.16.19-.32.38-.48.57-.17.19-.33.39-.48.58-.03.04-.06.07-.09.1-.04.05-.09.11-.12.16-1.39-.82-2.52-3.72-4.19-6.63-2.01-3.48-4.8-6.97-9.82-6.85-5.31-.49-9.54,2.2-12.94,4.88-4.25,3.36-7.21,6.71-9.4,3.87-4.74-12.94-18.48-24.18-32.79-20.74-10.59,3.13-13.58,9.96-18.3,18.58-4.02,2.43-6.92-10.88-14.27-12.9-13.02-5.53-31.46-1.14-37.69,12.36-2.21,4.19.29,9.33-1.92,13.33-2.01,1.91-4.64-.49-6.9-.67-6.29-.96-13.6,2.06-16.34,8,.06.18.08.36.08.54,1.68.27,3.38.62,4.48.4,24.02.82,48.07.6,72.11.54,19.65-.45,39.3-.76,58.95-.69,5.5,0,11-.07,16.48-.46.89-.04,1.48.5,1.73,1.18-.31.46-.59.93-.88,1.39-.25.39-.49.79-.73,1.19-31,.88-62.05.82-93.07,1.19-16.14-.1-32.29-.02-48.43-.44Z"/>
      <g>
        <path class="cls-8" d="m1735.62,349.95c-.27-1.24-.69-2.44-1.29-3.56-7.1-13.7-18.66-13.7-32.1-12.55-4.02-1.95-4.8-7.69-8.69-10.19-9.3-7.91-22.64-3.19-28.64,6.35-5.09,2.63-5.32-6.19-8.12-8.65-13.06-15.46-31.5-7.02-35.7,11.07-3.72,4.94-7.61-9.2-17.69-14.04-16.32-11.64-37.19,5.56-37.22,23.39-2.91,5.75-11.79-3.74-21.38,7.31-1.11.73-1.39,2.35-1.71,3.82.96.04,1.88.07,2.57-.09,31.84-.17,63.69.66,95.53.4,28.64.19,57.21-1.72,85.81-2.98,2.14.4,6.08-.74,8.64-.27h0Zm4.36,1.2c.22,1.73-1.45,2.59-2.73,2.21-.32.26-.72.41-1.15.43-34.04,1.05-68.02,3.69-102.1,3.16-31.44.36-62.9-.98-94.34-.27-.97.08-1.8-.84-1.82-1.77.16-.94.69-1.46,1.42-1.75-1.12-9.12,15.38-16.24,23.24-13.3,3.84-31.95,38.74-39.48,56.18-12.18,5.67-23.13,36.73-24.31,44.9-2.32,9.83-14.97,33.19-11.74,39.74,4.58,16.29-3.21,33.42,3.48,36.66,21.2Z"/>
        <path class="cls-8" d="m1583.9,398.47c-3.54-3.8,3.96-13.05,6.36-16.36.94-1.01,1.65-2.69,3.14-2.89,1.11.02,2.23.77,1.8,2-.96,2.41-2.04,4.78-2.94,7.23-1.35,2.97-3.65,12.92-8.36,10.03h0Zm1.79-2.42c.11-.11.22-.22.32-.34.07-.09.13-.18.2-.27-.15-.09-.29-.21-.4-.34-.07.31-.12.63-.11.95Z"/>
        <path class="cls-8" d="m1583.3,394.85c.02-1.79,2.66-1.82,2.73-.03-.02,1.79-2.66,1.82-2.73.03Z"/>
        <path class="cls-8" d="m1608.26,415.89c-3.3-1.88-.17-5.95.99-8.3,1.41-2.49,2.91-4.92,4.43-7.35,1.36-1.93,2.53-4.58,4.11-6.22.96-.6,2.29.31,1.97,1.43-.13.41-.42.72-.62,1.09.18.6-.11,1.17-.28,1.73-.55,1.78-.98,3.59-1.39,5.4-1.1,4.88-2.49,13.65-9.21,12.21Z"/>
        <path class="cls-8" d="m1642.34,391.53c-4.56-1.64.03-8.47,1.57-10.93,1.24-1.91,2.56-3.79,4.12-5.44.39-.39.89-.77,1.45-.86,1.31-.23,2.07,1.61.97,2.36-.88,4.19-2.36,15.33-8.11,14.86Z"/>
        <path class="cls-8" d="m1650.48,424.46c-6.13-1.63-.01-9.11,1.94-12.05,1.03-1.27,3.26-5.3,5.16-4.36.56.31.79.89.72,1.51-1.09,3.68-2.75,15.64-7.82,14.9Z"/>
        <path class="cls-8" d="m1680.6,389.25c-4.3-2.55,2.79-11.91,4.57-14.84.39-.54.74-1.16,1.3-1.53.92-.58,2.18.26,1.98,1.34.06.36-.04.79-.07,1.15-.21,3.56-2.45,16-7.77,13.87Z"/>
      </g>
      <path class="cls-7" d="m437.29,1080.17H4.04v-247.47c3.87-4.33,7.12-7.73,7.85-8.6,16.71-18.29,35.82-34.38,54.94-50.06,14.22-8.39,20.98,37.68,25.07,46.61,3.72,11.6,6.64,23.68,12.13,34.58,23.02-8.8,21.78-27.15,34.68,11.35,6.02,18.35,13.47,35.64,19.22,53.99,4.92,16.2,8.25,32.94,14.35,48.75,9-8.26,15.46-19.05,23.61-28.13,9.71-11.42,19.79-22.84,29.19-34.44,5.77-5.86,12.94-18.81,22.56-13.58,15.95,11.8,24.44,30.98,34.39,47.63,5.48,9.73,10.62,19.64,15.44,29.71,4.79,7.12,11.17,31.55,21.79,27.79,39.27-13.75,41.69-49.42,74.46,2.28,18.4,25.46,33.32,53.05,50.08,79.54,0,.02.02.03.02.05h-6.52Z"/>
      <path class="cls-8" d="m262.79,959.81c-1.93-.98-2.16-3.55-3.05-5.33-4.07-9.8-7.45-20.17-14.42-28.38-3.92,5.39-6.81,11.37-10.28,17.03-1.53,3.08-6.37,11-8.04,3.58-1.44-6.74-2.87-13.48-4.88-20.06-12.42,7.95-24.43,16.81-37.93,22.89-.82.5-1.97.25-2.46-.59-1.95-2.99,7.54-5.38,9.41-6.94,34.68-18.45,31.85-32.75,39.04,2.13,3.3-4.14,10.95-22.04,15.3-22.12,8.93,5.44,14.03,23.19,18.22,32.74,3.14-10.77,4.88-21.94,7.86-32.77.26-.94,1.21-1.54,2.18-1.3,3.3.73-1.14,10.05-1.23,12.65-1.87,4.4-3.93,28.56-9.72,26.47Z"/>
      <path class="cls-8" d="m263.18,957.07c-2.31-.39-1.59-3.04-1.14-4.62.92-3.57,1.94-7.12,2.92-10.67,1.2-4.99,2.51-9.95,3.43-15.01.75-2.29.42-5.43,2.21-7.15.32-.93.37-2.13,1.29-2.7,1.11-.71,2.73.14,2.69,1.48-.78,3.7-1.88,7.39-2.76,11.11-1.68,6.47-3.25,12.97-4.79,19.48-1.04,2.28-.72,8.02-3.87,8.08Z"/>
      <path class="cls-8" d="m261.47,956.98c-3.5-6.24-7.4-12.24-11.39-18.17-2.16-3.97-5.88-7.77-6.54-12.26.38-1.78,3.13-1.73,3.44.04,5.2,9.97,12.47,18.74,17.65,28.72.92,1.95-2.05,3.54-3.16,1.66Z"/>
      <path class="cls-8" d="m261.84,961.6c-4.48-6.22-7.9-13.21-11.41-20.03-2.23-5.44-5.89-10.67-7.1-16.37.3-1.74,2.98-1.75,3.37-.14,1.51,3.28,3.12,6.53,4.64,9.81,2.43-1.37,5.52,9.54,6.95,11.52,2.12,4.6,4.08,8.87,6.53,13.11.87,1.77-1.6,3.52-2.99,2.11Z"/>
      <path class="cls-8" d="m262.23,961.17c-.78-2.22.85-4.6,1.21-6.82,1.12-2.15,1.69-11.37,4.64-10.42,3.04.91-.61,7.14-.72,9.46-1,2.06-1.45,11.61-5.13,7.78Z"/>
      <path class="cls-8" d="m228.7,948.69c-1.43-2.13,1.62-3.95,2.59-5.64,3.96-5.19,7.99-10.43,12.7-14.95,1-1.26,3.15-.5,3.13,1.12-.95,2.86-4.14,4.61-5.78,7.15-2.59,3.32-5.3,6.54-7.82,9.92-1.12,1.43-2.86,4.47-4.82,2.39Z"/>
      <path class="cls-8" d="m226.78,948.83c-1.96-2.02-7.1-20.79-5.13-22.91.24-2.12,3.52-2.13,3.56.08-.02,1.47.59,2.9.99,4.3,1.3,4.29,2.3,8.66,3.45,12.98.33,1.54,1.68,3.92-.36,4.8-.45.88-1.65,1.25-2.51.75Z"/>
      <path class="cls-8" d="m188.54,949.62c-3.45-2.15,1.25-4.43,3.12-5.52,4.64-5.24,11.55-7.98,17.36-11.75,4.44-2.44,8.45-5.85,13.14-7.75,1.56-.3,2.8,1.72,1.79,2.97-.59.74-1.53,1.19-2.33,1.66,1.54,3.11-17.48,11.36-20.43,13.53-4.14,1.61-8.34,6.92-12.66,6.86Z"/>
      <path class="cls-8" d="m68.56,801.19c-.14-2.99-4.47-9.83-.62-11.28,3.3-.17,3.09,7.72,4.35,10.2.7,2.41-3.05,3.51-3.73,1.08Z"/>
      <path class="cls-8" d="m79.31,817.11c-.19-2.99-4.54-9.12-1.18-10.92,3.77-.28,3.42,7.23,4.91,9.84.72,2.4-3.04,3.51-3.73,1.08Z"/>
      <path class="cls-8" d="m69.71,826.31c-.08-2.84-3.92-8.16-.24-9.63,3.53.33,2.66,6,3.93,8.56.7,2.39-3.03,3.48-3.7,1.07Z"/>
      <path class="cls-8" d="m82.27,842.53c-.16-2.93-4.56-9.59-.71-10.98,3.44.12,3.04,7.34,4.4,9.91.7,2.38-3.01,3.47-3.69,1.07Z"/>
      <path class="cls-8" d="m76.1,856.63c-.25-2.91-4.19-9.79-.44-11.17,3.45-.06,2.7,7.56,4.17,10.09.71,2.4-3.03,3.5-3.72,1.08Z"/>
      <path class="cls-8" d="m88.98,860.47c-.16-1.65-1.02-4.3,1.32-4.72,2.38-.27,2.28,2.51,2.53,4.15.39,2.48-3.51,3.06-3.84.57Z"/>
      <path class="cls-8" d="m63.51,838.71c-.53-1.58-1.35-4.18,1-4.6,2.09-.28,2.23,2.09,2.7,3.53.71,2.38-3.01,3.48-3.69,1.07Z"/>
      <path class="cls-8" d="m140.7,921.84c-.21-2.82-4.17-9.41-.44-10.69,1.49-.23,2.21,1.16,2.34,2.43,0-.03-.02-.07-.02-.1,0,2.94,3.86,7.81.55,9.69-1,.3-2.13-.3-2.42-1.33Z"/>
      <path class="cls-8" d="m132.43,894.03c.13-2.48-1.88-7.55,1.58-8.23,3.36.49,1.39,5.3,2.26,7.67.38,2.48-3.51,3.06-3.84.57Z"/>
      <path class="cls-8" d="m133.04,931.88c-.18-1.96-1.47-5.77,1.49-6.07,2.77.16,1.7,3.67,2.35,5.51.4,2.47-3.48,3.06-3.84.56Z"/>
      <path class="cls-8" d="m150.99,951.92c-1.36-1.38-5.08-10.88-1.98-11.43,3.57-.53,3.18,6.84,4.76,9.21.54,1.57-1.37,3.07-2.78,2.22Z"/>
      <path class="cls-8" d="m148.25,929.05c-.49-1.56-1.66-4,.57-4.72,2.26-.58,2.57,2.12,3.11,3.65.72,2.36-2.99,3.46-3.68,1.06Z"/>
      <path class="cls-8" d="m140.5,953.18c-.29-1.98-2.23-5.65.7-6.39,1.01-.15,2.01.57,2.14,1.6.05,1.97,2.22,5.09-.47,6.1-.97.28-2.13-.29-2.38-1.31Z"/>
      <path class="cls-8" d="m155.92,972.53c-.35-2.02-2.18-6.06,1.04-6.46,2.59.16,1.95,3.62,2.72,5.37.7,2.43-3.08,3.53-3.76,1.09Z"/>
      <path class="cls-8" d="m127.18,915.75c-1.26-1.29-4.8-9.36-1.74-9.89,3.53-.27,3.04,5.4,4.5,7.68.54,1.56-1.36,3.05-2.76,2.2Z"/>
      <path class="cls-8" d="m371.57,1078.67c-.67-2.4-4.3-6.72-1.05-8.38,3.27-.35,3.07,4.76,4.69,6.76,1.07,2.34-2.59,3.98-3.64,1.62Z"/>
      <path class="cls-8" d="m372.28,1062.82c-1.22-2.67-7.43-9.04-3.49-11.16,2.89-.72,4.58,7.13,6.82,9.12,1.35,2.13-2,4.21-3.33,2.04Z"/>
      <path class="cls-8" d="m385.41,1032.47c-.86-3.19-8.87-14.54-5.38-16.26,3.31-1.65,6.81,12.1,8.94,14.67,1.04,2.28-2.52,3.9-3.56,1.58Z"/>
      <path class="cls-8" d="m367.27,1002.01c-.81-1.46-2.32-3.83-.17-4.86.91-.4,2.15,0,2.52.97.64,1.43,2.19,3.34.32,4.53-.87.53-2.16.29-2.66-.64Z"/>
      <path class="cls-8" d="m389.98,1019.11c-.6-2.82-5.48-8.24-1.9-10.2,3.32-.45,3.71,6.4,5.41,8.64,1.02,2.26-2.5,3.85-3.51,1.56Z"/>
      <path class="cls-8" d="m376.98,1044.74c-1.13-2.91-7.76-11.84-4.41-13.93,3.38-1.26,4.72,7.85,6.7,10.08,2.35,2.55.82,6.67-2.29,3.85Z"/>
      <path class="cls-8" d="m396.28,1060.18c-.77-2.73-5.51-6.92-2.45-9.28,3.55-.62,4.1,5.25,5.89,7.48,1.03,2.12-2.28,3.86-3.44,1.81Z"/>
      <path class="cls-8" d="m403.07,1048.19c-.91-3.11-8.21-10.94-5.26-13.24,3.56-1.66,6.5,8.82,8.57,11.2,1.32,2.14-2.02,4.2-3.31,2.04Z"/>
      <path class="cls-8" d="m415.34,1060.95c-.59-1.97-3.19-5.45-.29-6.62,2.79-.56,2.75,3.34,3.84,5.04,1.03,2.29-2.54,3.89-3.55,1.58Z"/>
      <path class="cls-8" d="m409.96,1080.17c-1.73-3.54-4.06-8.3-.47-9.27,2.16-.05,3.2,6.06,4.57,9.27h-4.1Z"/>
      <path class="cls-8" d="m427.51,1080.17c-1.26-2-2.57-3.99-3.55-6.13-.31-.88.23-1.9,1.05-2.27,2.66-.9,3.32,2.94,4.66,4.48.43,1.16,1.74,2.56,2.46,3.92h-4.62Z"/>
      <path class="cls-8" d="m387.68,1080.17c-1.13-2.32-1.87-4.61-.2-5.75,2.44-.64,3.57,2.73,4.59,5.75h-4.39Z"/>
      <path class="cls-5" d="m394.84,1080.17c-13.67-26.9-27.92-53.51-43.63-79.29-9.76-15.11-17.64-32.61-30.37-45.27-26.75,25.83-45.96,58.95-72.51,85.07-7.18,6.95-9.93-1.03-15.18-5.04-12.68,11.04-20.39,29.83-31.04,43.46-.28.3-.57.66-.87,1.06h-4.68c7.4-10.75,14.51-21.71,21.57-32.68,9.2-11.19,11.6-24.53,24.62-8.17,15.92-12.18,27.29-30.43,40.15-45.85,11.89-13.86,22.31-29.91,36.34-41.55,8.31-4.54,32.6,44,38.22,51.65,12.95,21.22,24.73,43.15,36.04,65.27,1.97,3.76,3.89,7.54,5.8,11.33h-4.48Z"/>
      <path class="cls-5" d="m4.04,947.64c6.22,0,12.52.15,18.7-.17,20.71-.45,41.41-.65,62.12-.18,3.36.78,13.72-1.89,14.39,2,.58,4.24-22.82,1.02-26.73,1.7-22.83-.37-45.66.43-68.48.61v-3.96Z"/>
      <path class="cls-5" d="m95.45,950.85c-3.09-.2-1.38-3.79-2.01-5.71-1.08-4.11-5.64-6.92-9.77-6.78-2.44-.04-4.56,2.62-6.98,1.52-4.05-5.74-1.06-13.03-9.41-19.44-9.33-9.1-25.46-7.2-30.95,5.08-.6,1.15-1.18,2.64-2.63,2.85-4.2-.26-2.72-7.72-6.24-10.07-5.79-5.12-15.18-8.09-23.41-6.92v-3.98c11.84-1.52,25.62,3.38,29.92,14.22,12.5-21.29,44.12-8.54,44.88,14.05,8-4.38,19.59,2.77,18.66,12.01.04,1.34-.38,3.19-2.05,3.17Z"/>
      <g>
        <path class="cls-5" d="m218.65,866.5c-6.04-3.99-12.34-10.1-20.28-7.77-1.01.23-2.15.62-3.06-.07-3.14-3.68,3.95-4.47,6.39-4.56,6.58-.16,12.41,3.69,17.32,7.69,4.11-7.48,11.93-12.29,20.29-13.48.99-.15,1.97.49,2.24,1.44,1,3.74-9.75,3.62-12.36,6.85-4.4,1.73-6.65,10.89-10.55,9.89Z"/>
        <path class="cls-5" d="m184.48,901.12c-3.85-3.12-7.76-6.81-12.97-7.27-1.03.08-2.04-.56-2.19-1.63,1.65-6.29,13.04,1.56,15.81,4.21,1.76-3.15,8.84-11.05,12.29-7.19.45,1-.01,2.24-1.03,2.68-6.35,1.07-8,10.66-11.91,9.2Z"/>
      </g>
    </g>
  </g>
</svg>