<?xml version="1.0" encoding="UTF-8"?>
<svg xmlns="http://www.w3.org/2000/svg" viewBox="0 0 452.56 419.87">
  <defs>
    <style>
      .cls-1 {
        fill: none;
      }

      .cls-2, .cls-3 {
        fill: #00793a;
      }

      .cls-4, .cls-5 {
        fill: #fff;
      }

      .cls-6, .cls-7 {
        fill: #ce3024;
      }

      .cls-8, .cls-9 {
        fill: #d6a453;
      }

      .cls-10, .cls-11 {
        fill: #1d1d1b;
      }

      .cls-11, .cls-9, .cls-7, .cls-12, .cls-5, .cls-3 {
        fill-rule: evenodd;
      }

      .cls-12 {
        fill: #be944c;
      }

      .cls-13 {
        opacity: .05;
      }

      .cls-13, .cls-14 {
        mix-blend-mode: multiply;
      }

      .cls-13, .cls-15 {
        fill: #a4d8d6;
      }

      .cls-16 {
        isolation: isolate;
      }

      .cls-14 {
        opacity: .15;
      }

      .cls-15 {
        opacity: .5;
      }
    </style>
  </defs>
  <g class="cls-16">
    <g id="Capa_2" data-name="Capa 2">
      <g id="Capa_1-2" data-name="Capa 1">
        <g>
          <path class="cls-14" d="m9.37,30.77S3.94,236.77,1.6,325.84c-.15,5.62-.28,10.76-.42,15.34-.13,4.59-.27,8.62-.4,12.01-.28,7.62-.44,11.92-.44,11.92l-.34,10.89c1.98,2.02,4.29,4.08,7.38,5.99,1.09.67,2.23,1.31,3.44,1.92,1.95,2.34,4.57,4.13,7.14,4.7.48.11.94.19,1.39.26,1.68.26,3.11.28,4.25.3.76.01,1.41.02,1.91.11.08.02.32.06.41.07,2.46.42,4.22-.27,4.89-.53.31-.11.62-.25.91-.42.05,0,.1.02.15.03.43.11.84.2,1.24.27,2.19.39,4.07.23,5.58-.09l1.45.81c.86,2.34,2.53,4.64,5.06,6.04.82.46,2.31,1.3,4.2,1.57,1.07.16,2.24.1,3.22-.15l.26-.07c.09-.02.18-.05.28-.07.58.2,1.21.36,1.86.45.78.1,1.54.1,2.26,0,1.37,2.09,3.53,3.73,6,4.45,1.54.52,3.19,1.06,4.91,1.54.99.27,1.96.44,2.89.5,1.58.1,3.08-.11,4.39-.58.24.02.47.04.72.05.53.02,1.05.01,1.55-.02,1.49,1.22,3.33,2.21,5.39,2.87.73.23,1.37.38,1.85.48,2.45.94,4.93,1.38,7.37,1.33,2.01-.05,3.57-.42,4.56-.69.8-.22,1.5-.47,2.11-.71.93.1,1.87.13,2.8.09,1.76-.09,3.12-.41,3.99-.65,2.53-.22,4.45-.87,5.89-1.66,1.03.16,2.32.27,3.77.15.52-.04,1.04-.11,1.54-.2.33.13.66.26,1,.38,3.78,1.34,8.06,2,12.45,1.93.53.06,1.05.12,1.59.16.37.29.76.56,1.16.84,2.09,1.4,4.85,2.13,7.67,2.02,1.64-.06,4.77.08,7.37,1.71,2.2,1.38,4.98,2.04,7.72,1.87.57-.04,1.14-.11,1.7-.22l.57-.11c.21-.04.42-.09.65-.12,3.56-.46,6.57-1.89,8.63-4.01.58-.28,1.14-.61,1.66-.98.3-.21.58-.36.88-.49.34-.13.67-.28.99-.44.46-.03.91-.09,1.36-.16,1.01-.17,2.07-.24,3.15-.21,1.19.03,2.35.17,3.45.43.49.11.98.2,1.46.26.35.21.72.41,1.1.59.35.17.76.41,1.21.71,1.43.96,3.15,1.62,4.98,1.92,1.85,2.06,4.23,3.1,6.52,3.58l.16.15c1.87,1.71,4.51,2.7,7.29,2.8.78.03,1.57-.01,2.36-.13,1.64-.23,3.26-.62,4.84-1.14.87-.29,1.68-.65,2.43-1.08,1.23.3,2.37.42,3.29.45.38.01.78.01,1.18,0,.9.23,1.85.37,2.82.4.59.02,1.19,0,1.79-.05.72-.07,1.5-.09,2.33-.07h.27c.06.01.11.01.17.01.44.01.88,0,1.32-.03.41.13.84.24,1.28.33,1.76.35,3.24.99,4.39,1.89,1.76,1.39,4.19,2.17,6.78,2.18.22,0,.44,0,.66-.02.9.21,1.85.31,2.8.31,1.31,0,2.63-.21,3.9-.61.42.06,1.08.18,2.12.41.88.19,1.8.28,2.72.26,1.84-.03,3.7-.47,5.39-1.29,1-.48,1.89-.72,2.94-.78.11,0,.23,0,.35.01.21,0,.43,0,.65,0,2.72-.11,5.43-1.13,7.52-2.85.33-.27.66-.55.99-.83.12-.1.24-.21.35-.31.14-.13.26-.23.38-.31.11-.07.21-.15.32-.23.06-.03.13-.06.19-.09l.42-.18c1.37-.62,2.57-1.43,3.56-2.37.19-.06.38-.12.57-.19,1.69.89,3.7,1.29,5.83,1.11.82-.07,1.69-.24,2.51-.48.76.09,1.54.11,2.33.04,1.43-.13,2.88-.52,4.23-1.18.13-.02.25-.04.38-.06.35-.06.7-.12,1.04-.19.52-.1,1.03-.22,1.53-.36.51,0,1.02-.01,1.53-.06,1.39-.13,2.76-.45,4.07-.96.87.14,1.78.17,2.69.09,1.63-.14,3.29-.64,4.82-1.51.86-.49,1.63-1.06,2.3-1.71.17.19.34.38.51.57l1.19,1.34c1.02,1.17,2.39,2.07,3.97,2.6,1.37.46,2.81.66,4.3.6,2.38-.11,4.14-.89,5.01-1.31,2.48-.99,4.24-2.33,5.42-3.23.25-.19.5-.39.77-.56,0,0,0,0,0,0,2.53-.21,4.97-.74,7.21-1.54,1.61.64,3.36,1,5.21,1.07.18,0,.37.01.55.02,2.18.04,4.38-.33,6.36-1.07.75-.28,1.47-.6,2.16-.97.18.04.37.07.56.1.72.12,1.43.21,2.1.27,4.94.44,9.32-1.04,12.03-3.79,1.67,1.58,4.04,2.61,6.61,2.9.41.05.83.07,1.25.08h.33c.65.02,1.66.04,2.87-.04,2.25,1.49,4.3,2.46,7.08,2.78,1.57.18,2.97.09,4.23-.16,1.13.55,2.4.91,3.71,1.05.99.11,2.02.09,3.03-.07,1-.15,1.96-.43,2.85-.81,1.59.01,3.23.09,4.91.24.69.06,1.38.13,2.07.21.12.01.36.04.48.05,1.49.12,2.99,0,4.49-.33.49.21.86.33,1.07.4,1.11.38,2.2.6,3.32.66,1.85.1,3.65-.22,5.27-.94.84.21,1.7.33,2.56.35,1.68.04,7.38-.35,10.65-6.35.79-.29,1.55-.64,2.27-1.03.99.13,2,.19,3.03.18.99.34,2.05.49,3.13.46,1.25-.04,2.52-.33,3.71-.89,1.21-.57,2.74-.92,4.31-.99h.21c.05,0,.1-.01.15-.01,2.05-.09,4.01-.87,5.56-2.17l-.33-10.32s-.13-4.31-.39-12.04c-.13-3.86-.32-8.64-.53-14.23-.21-5.59-.4-12.02-.53-19.17-.06-3.57-.1-7.34-.13-11.28-.03-3.93-.04-8.02-.05-12.24,0-4.22,0-8.54.04-12.93.04-4.39.12-8.81.26-13.26.17-4.38.27-8.85.26-13.42-.06-3.74-.13-7.53-.2-11.35-1.87-102.87-4.24-233.82-4.24-233.82H9.37Z"/>
          <g>
            <path class="cls-4" d="m446.78,385.7V30.77H9.35v343.94c2.1,1.82,4.57,3.6,7.89,5.1,1.17.53,2.41,1,3.74,1.41,2.17,1.96,5.07,3.27,7.93,3.36.53.02,1.05.01,1.56,0,1.89-.07,3.51-.34,4.81-.57.86-.15,1.6-.28,2.17-.3.09,0,.37-.01.46-.02,2.82-.15,4.86-1.22,5.63-1.62.36-.18.71-.39,1.06-.62.05,0,.11,0,.17,0,.49,0,.97,0,1.44-.03,2.53-.15,4.72-.76,6.48-1.43l1.68.43c.95,2.07,2.8,3.95,5.65,4.74.92.27,2.59.77,4.72.62,1.22-.09,2.55-.41,3.68-.89l.3-.12c.1-.04.21-.09.32-.13.65.08,1.34.11,2.08.06.87-.06,1.73-.22,2.55-.48,1.35,1.89,3.59,3.2,6.23,3.53,1.61.3,3.34.62,5.12.88,1.03.15,2.04.21,3.01.16,1.65-.08,3.24-.47,4.66-1.11.24,0,.48,0,.73-.01.54-.02,1.07-.07,1.58-.15,1.35,1.21,3.06,2.19,5.01,2.84.69.23,1.3.37,1.75.47,2.24,1,4.55,1.5,6.86,1.5,1.91,0,3.4-.35,4.36-.6.77-.2,1.44-.43,2.03-.66.84.18,1.68.28,2.52.3,1.59.05,2.85-.18,3.64-.35,2.26.03,4.01-.44,5.35-1.11.87.29,1.97.58,3.23.65.45.03.9.03,1.34,0,.27.19.54.36.81.54,3.07,1.97,6.62,3.32,10.33,3.93.44.15.88.29,1.32.42.28.36.59.72.9,1.07,1.63,1.82,3.89,3.02,6.29,3.35,1.39.19,4.03.81,6.15,2.89,1.78,1.76,4.15,2.81,6.56,2.97.5.03,1,.03,1.5-.02l.51-.05c.19-.02.38-.05.57-.05,3.15-.09,5.81-1.31,7.56-3.35.5-.26.96-.56,1.4-.92.25-.2.48-.35.74-.46.29-.12.56-.26.82-.41.39-.02.77-.06,1.15-.12.85-.14,1.76-.19,2.69-.14,1.02.05,2.04.21,3.02.48.43.12.87.21,1.3.27.33.22.67.42,1.02.6.33.17.71.41,1.14.71,1.38.97,2.98,1.6,4.65,1.84,1.92,2.03,4.23,2.98,6.38,3.36l.16.14c1.94,1.66,4.51,2.56,7.09,2.55.72,0,1.45-.08,2.16-.23,1.48-.31,2.93-.77,4.3-1.38.76-.34,1.45-.75,2.08-1.22,1.19.27,2.28.35,3.14.35.36,0,.73-.01,1.1-.04.89.21,1.8.32,2.71.33.56,0,1.12-.03,1.67-.11.67-.09,1.4-.14,2.19-.14h.26c.05,0,.11,0,.16,0,.42,0,.83-.02,1.24-.07.41.13.84.23,1.28.31,1.75.33,3.27.97,4.54,1.9,1.93,1.43,4.4,2.2,6.91,2.18.21,0,.42,0,.64-.02.91.21,1.84.3,2.77.29,1.27-.02,2.53-.24,3.72-.66.42.06,1.08.18,2.14.41.89.19,1.81.28,2.71.26,1.8-.03,3.58-.48,5.15-1.32.93-.5,1.78-.73,2.82-.78.11,0,.23.01.35.01.21,0,.43,0,.64,0,2.69-.09,5.28-1.11,7.17-2.84.3-.27.6-.55.9-.83.11-.1.22-.21.32-.31.13-.13.24-.23.35-.31.1-.07.2-.15.3-.23.06-.03.12-.06.18-.09l.4-.18c1.31-.61,2.43-1.42,3.32-2.36.19-.05.37-.11.56-.18,1.82.95,3.9,1.4,6.03,1.25.83-.05,1.68-.21,2.49-.44.77.11,1.56.13,2.34.08,1.43-.1,2.85-.47,4.16-1.11.12-.02.25-.04.37-.06.34-.05.69-.11,1.03-.17.52-.09,1.02-.21,1.51-.33.51.01,1.01,0,1.52-.04,1.38-.11,2.72-.41,4-.89.86.15,1.76.18,2.66.11,1.6-.13,3.21-.61,4.69-1.44.83-.47,1.57-1.02,2.22-1.64.17.18.34.36.51.55l1.17,1.28c1,1.11,2.32,1.96,3.84,2.45,1.31.43,2.7.6,4.13.51,2.28-.13,3.97-.9,4.79-1.31,2.37-.97,4.06-2.26,5.2-3.13.24-.19.48-.38.74-.54,0,0,0,0,0,0,2.41-.24,4.7-.8,6.76-1.64,1.51.56,3.14.85,4.86.85.17,0,.34,0,.51,0,2-.05,3.97-.52,5.7-1.35.65-.31,1.27-.68,1.85-1.09.17.03.34.05.51.07.66.08,1.3.13,1.9.15,4.46.16,8.13-1.63,10.08-4.69,1.74,1.55,4.01,2.49,6.35,2.64.37.02.75.03,1.12.01h.3c.58-.04,1.49-.07,2.56-.23,2.31,1.47,4.34,2.4,6.94,2.61,1.46.12,2.73-.04,3.83-.35,1.15.55,2.39.89,3.64.99.94.08,1.89.02,2.81-.17.91-.19,1.75-.52,2.51-.95,1.5-.03,3.08.02,4.71.15.67.05,1.35.12,2.04.2.12.01.36.04.48.04,1.47.11,2.91-.02,4.32-.39.52.22.91.35,1.12.42,1.16.4,2.27.64,3.4.71,1.85.12,3.61-.21,5.15-.96.88.23,1.76.37,2.64.41,1.71.07,7.5-.2,10.41-6.36.82-.27,1.6-.6,2.34-.97,1.07.18,2.15.3,3.24.34,1.07.39,2.2.61,3.34.63,1.32.02,2.65-.21,3.9-.72,1.27-.52,2.88-.8,4.53-.79h.22c.05,0,.11,0,.16,0,2.14,0,4.2-.67,5.86-1.88Z"/>
            <path class="cls-4" d="m9.92,364.37c1.33.81,2.69,1.51,4.08,2.15,2.01,1.96,4.1,3.81,7.4,5.3,1.75.79,3.61,1.36,5.5,1.8.03.14.05.27.09.41.21.71,1.79,1.86,2.53,1.91,3.02.19,5.34-.63,8.28-.55.59.02,1.02-.25,1.45-.45.12-.05-.01-.36-.03-.56,1.88-.53,3.71-1.06,6.17-.89,2.58.18,4.49-.65,6.28-1.54.1-.05.15-.17.2-.29l11.15,3.71c0,.07-.06.1-.06.17.02.93,0,1.83.04,2.76,0,.17.24.59.31.62.47.17,1.1.46,1.36.36.96-.36,2.03-.67,2.64-1.34.66-.74,1.51-.55,2.91.42.22.15.68.33.71.27.72-1.75,4.15.14,5.52-.76.66-.43,1.5-.92,2.55-.68,2.12.47,2.89-.57,4.29-.88.83-.19,1.67-.38,2.5-.57.25.13.51.26.76.39.99.49,2.27,1.06,2.4,1.99.1.68-.39,1.4-1.07,1.4-1.49,0-2.85.01-3.01,1.37-1.18.06-2.41.06-3.52.22-.22.03-.19.71.04.96.79.85-.38.38.59.63,1.64.43,3.27.84,4.88,1.18.95.2,1.71.13,2.04-.49.3-.58.96-.86,1.94-.65,1.88.39,3.71.77,3.82-.96,1.37-.08,3.07.32,4-.4.45-.35,1.35.28,2.03.85.87.74.61,1.07.34,1.51-.6.99.41,2.35,2.17,3.01.74.28,1.48.3,2.19.69,2,1.09,3.31.92,4.5.58,1.19-.34,2.18-.92,3.3-1.35.48-.19,1.13-.6,1.59-.33,2.79,1.65,3.75.29,5.53.33,2.36.05,2.33-.78.29-3.7.93-.12,1.62-.48,2.19-1.02.77-.72,1.81-.24,2.88,1.19.47.63.84,1.27,1.26,1.91.93-.4,3.01,1.29,3.64.37.17-.25.06-.7.08-1.06,1.27-.1,2.84,1.02,4.25,1.51.08.03.18.07.27.11.61.53,1.28,1.03,2.05,1.47,2.31,1.33,4.97,2.01,7.59,2.13,1.43.45,2.91.74,4.42.86.46.26.93.51,1.41.73.38.95,1.01,1.85,1.8,2.68,4.5.27,9.03,1.89,12.5,5.12.59-.09,1.17-.2,1.78-.26,1.07-.1,1.62-.55,1.93-1.31.06-.15.13-.3.19-.45.67-.3,1.3-.65,1.89-1.03.02.01.04.02.06.04.82-.7,1.74-1.33,2.82-1.86-.09-.15-.18-.31-.28-.46.59-.7.94-1.41,1.07-2.12,1.23.5,2.43.95,3.51,1.13,3.26-.72,6.92-.74,10.44.1.04-.12.08-.24.1-.36l3.13.63c.44.46.87.92,1.31,1.38.84.43,1.64.94,2.41,1.5.21,0,.4-.05.55-.16.37-.27.54-.73.93-.98.5-.31,1.71.11,2.65.78.82.6,1.08,1.2,1.26,1.82.06.2.08.4.16.61.51,1.32.69,1.54,1.97,1.51,1.19-.03,2.16.41,3.29,1.56.37.37.75.74,1.13,1.11.79-.17,1.55-.43,2.25-.76.42-.19.69-.77.78-1.32.13-.79.04-1.71.04-2.58,1.92-.18,3.83-.35,5.75-.53.72,1.48,1.56,2.72,3.06,2.57,1.09-.11,2.13-.3,3.45.3,1.33-.21,2.72-.3,4.12-.28.13-.12.24-.36.25-.64.66.18,1.31.38,2.01.51.95.18,1.85.27,2.75.36-.13.11-.33.17-.48.26,3.09.66,6.06,2.02,8.54,4.14,1.17-.09,2.23.03,3.21.32.42-.17.8-.37,1.28-.49,1.95-.51,4.37.02,6.8.65,2.31-1.28,4.95-2.05,8.08-1.99.14,0,.26.03.4.04.25-.23.5-.47.74-.71.46-.49.96-.95,1.52-1.37.59-.49,1.23-.96,2-1.36.01.03.03.06.04.09.21-.11.44-.2.67-.3-.08-.24-.12-.5-.14-.71-.09-1.2.63-1.76,1.19-2.44.39-.47,1.04-.21,1.66-.04.63.16,1.25.3,1.86.4.44.07.84-.74.67-1.36-.26-.94-.54-1.88-.81-2.82,2.3-.21,4.6-.42,6.9-.63.34.65.89,1.36.97,1.94.12.88-.11,1.66-.12,2.51,0,.55.99,1.68,1.37,1.58,1.39-.4,2.69-1.01,4.57-.02,1.22-.72,2.77-.73,4.26-.89,1.11-.12,2.04-.54,3.35-.27,1.21.25,2.24-.17,2.95-1.03,1.09-1.3,2.56-.87,4.2.86-.38-1.23-.15-2.41-1.11-3.78-.79-1.12-.55-2.24.26-2.81,3.07-.28,6.13-.56,9.2-.85,1.68,2.26,1.68,2.27,3.19,2.12.38-.04.69-.25,1.09-.21.66.07,1.29.58,1.64,1.31.32.69.51,1.42.16,1.92-.1.14-.19.33-.34.39-.5.19-.99.43-1.55.47-.02,0-.03,0-.05,0,1.14,1.45,2.35,2.88,3.52,4.33.51.2.89-.15,1.32-.29,1.73-.58,2.94-1.87,4.43-2.79.45-.27.58-.99.76-1.64,4.2.78,8.54-.37,10.49-2.66.49.06.95.07,1.35-.15.67-.38,1.22.33,1.63.88.96,1.27,1.95,1.5,2.94,1.47.57-.02,1.12-.16,1.58-.4.46-.24.88-.59,1.19-1.01,1.24-1.7,3.07-2.19,5.55-1.48.42.12.85.27,1.25.31,1.66.16,3.15.1,3.47-1.86.04-.26.17-.43.32-.56-.25-.34-.44-.71-.48-1.09-.08-.95.09-1.78.15-2.67,2.1-.35,3-1.87,4.51-2.8,1.26.38,2.41.7,1.09-1.14-.21-.3-.15-.78.05-.93.5-.39,1.13-.66,1.76-.93.11-.05.48.14.71.29,1.97,1.22,4.02,2.25,5.81,3.92.21.19.5.54.48.65-.1.39-.25.75-.38,1.11.37,1.31.54,2.28.48,3.02,1.68-.19,3.45-.29,4.06-1.68.08-.19.76,0,1.19.1.21.04.49.25.73.41,5.4,3.51,5.49,3.59,7.41,1.2.63-.79,1.71-.44,2.93.13.89.42,1.8.97,2.69,1.53.15-.39.29-.78.25-1.27.21.07.46.22.62.19,3.8-.66,7.78-.88,11.9-.73.76.03,1.47-.21,2.07-.53,1.63-.85,3.54-.7,5.73.34.21.1.42.14.63.2,1.11.31,1.62.02,1.48-1.55-.11-1.25.42-1.87.86-2.62.38-.65,1.07-.83,1.96-.62.1.23.21.46.31.69.64,1.57,1.72,2.56,3.09,3.06,1.49.54,2.18-.34,2.64-1.32.54-1.15.8-2.53,1.15-3.83.02-.07-.02-.16,0-.23,2.98.02,5.75-.83,7.21-2.83.82.14,1.67.18,2.5.25,2.32.67,4.78.68,6.94.19,0,.32,0,.65-.08.91,2.57-1.08,5.65-1.66,8.84-1.61,1.05-1.17,2.52-2.14,4.2-2.91.58-.06,1.12-.19,1.66-.32V30.77H9.35v333.49c.19.05.37.11.56.11Z"/>
          </g>
        </g>
        <g>
          <path class="cls-13" d="m395.86,54.86c.14-.06.44-.13.4-.18-.93-1.05-1.04-2.17-.46-3.35.11-.22-.29-.41-.82-.58-1.46-.45-1.04-1,1.05-1.66.2-.06.3-.13.42-.19.67-.33.17-.47-2.77-.39-2.33.07-3.45-.07-4.82-.18-1.19-.09-1.48-.29-1.03-.55.44-.04.87-.07,1.31-.11,2.98-.23,4.91-.58,5.94-.99,1.12-.45-.48-.63-2.28-.74-2.12-.13-4.69-.17-7.11-.23-.14,0-.3,0-.44,0,.23-.89-1.2-1.69-4.89-2.07,1.08-.84,1.35-1.73,1-2.5-.06-.13-.27-.24-.36-.36.07,0,.11-.01.17-.01,1.83-.06,3.04.02,4.22.12,1.93.16,1.75.59,3.15.83,4.18-.57,4.12-1.21,6.66-1.82.2-.05-.76-.15-1.35-.19-1.19-.09-3.21-.07-3.6-.24-.73-.31-3.71-.04-4.88-.2-.7-.1-2.24-.12-2.18-.26.2-.47-.33-.97,4.11-1.52,1.01-.13,1.21-.24.4-.31-1.15-.1-3.16-.1-3.45-.28-.75-.46-2.97-.29-5.98,0-.7.07-1.59.03-2.39.04l-.28-.72c1.34-.07,2.7-.16,4.01-.22,4.01-.18,4.07-.18,5.33-.63,1.35-.49,2.73-.98,4.06-1.47.92-.34-1.23-.85-3.59-.82-.74,0-1.74.08-2.57.16-2.71.26-5.39.54-8.08.81-.66-1.71-1.33-3.44-2.01-5.19.35-.07.67-.14,1.05-.2,2.46-.41,4.32-.79,3.29-1.18-.82-.31-.58-.66,1.62-1.17,1.33-.31,1.9-.78,1.4-1.02-.71-.34,0-.91-2.69-1,3.54-1.45,3.08-3.02-1.2-3.94.66-1.19-.54-2.24-5.45-2.78-.88-.1-1.72-.14-2.47-.15-.06-.15-.11-.29-.17-.44.36-.33.68-.64.74-.82.25-.73,0-1.41-.23-2.11,2.21-.71,3.8-1.53,4.37-2.5.85-1.46-1.22-2.55-3.65-3.62.14-.08.27-.15.46-.27,1.2-.45,1.97-.91,2.32-1.4.6-.49.82-.98.85-1.46.37-.08.64-.13,1.12-.24,1.54-.29,2.98-.66,4.29-1.08-.4-.21-.78-.43-1.12-.69H70.86c-.08.12-.2.23-.27.35-.28.02-.56.03-.84.05-1.44.11-3.42.76-3.31,1.04.45,1.16,2.8,2.01,3.44,3.12.13.22.79.37,1.33.53.14.04.75-.02,1.15-.03,1.61.68,3.2,1.35,3.49,2.27.3.96,2.52,1.63,4.8,2.25.13.03.39.05.65.06l-4.69,4.15c-.14,0-.21-.02-.36-.01-1.87.04-3.71.06-5.59.11-.34,0-1.13.11-1.17.13-.22.17-.63.41-.36.5.98.33,1.88.7,3.41.89,1.66.21,1.5.51-.08,1.04-.25.08-.48.25-.35.26,3.71.19.8,1.45,2.96,1.9,1.03.21,2.21.49,2.01.86-.41.74,1.86.97,2.83,1.44.58.28,1.17.56,1.75.83-.2.09-.4.18-.58.27-.73.35-1.54.8-3.34.88-1.31.05-2.86-.09-3.04-.32-.38-.5-.75-.96-3.47-.98-.42-.4-.75-.82-1.34-1.19-.12-.07-1.46-.04-1.9.05-1.48.3-.86-.12-1.1.22-.41.57-.8,1.14-1.06,1.7-.15.33.19.58,1.5.67,1.22.08,1.93.3,1.78.63-.29.64-.55,1.26,2.87,1.25.51.45.15,1.03,1.8,1.32.8.14-.2.45-1.15.7-1.22.31-1.92.23-2.85.16-2.08-.17-4.46.21-5.28.8-.35.25-.19.49-.77.74-1.59.68-.91,1.1.05,1.47.96.37,2.34.67,3.45,1.02.48.15,1.44.34,1.03.5-2.46.94.39,1.2.76,1.77.49.75,2.07.71,7.12-.02.46.29,1.31.5,2.47.66,1.55.22.89.56-1.57.94-1.08.17-2.21.3-3.32.45.99.28-1.7.97.19,1.14.5.04,1.34,0,2.02,0,.5.39-1.24.91-1.81,1.35-.03.03-.09.06-.14.09-.84.2-1.62.42-2.26.67-1.92.74-2.53,1.57-2.12,2.36-.49.44-.66.89-.52,1.35-.38.15-.71.29-1.01.44-3.8.32-6.95.96-8.62,1.86-.09-.04-.15-.09-.25-.13-.79-.3-3.49.15-4.69,0-.7-.08-1.14-.23-1.72-.34-.78-.15-1.47-.32-2.42-.43-.35-.04-1.36.04-1.97.13-.27.04-.56.1-.84.16.71.48,1.42.96,2.13,1.44,2.55-.04,4.28.08,5.08.47,1.18.58,2.53,1.13,3.42,1.75.45.31,1.41.45,2.85.52.29.01.57.03.86.04.7.18,1.49.35,2.34.51-.71.21-1.36.42-1.24.63-.55.22-1.15.44-1.64.65-1.1.48-1.19.5-3.27.62-1.04.06-2.07.08-3.12.18-.57.05-1.4.24-1.7.37-1.25.53-.45.93.75,1.15,1.67.31,5.45-.22,7.05.1.42.09,2.06-.19,2.81-.41.46-.14.86-.3.93-.42.12-.22-.63-.3-1.74-.24-1.04.06-2.18.2-3.24.27-.55.04-1.04,0-1.47-.03-.08,0,.2-.15.46-.21,2.32-.54,4.68-1.08,7.04-1.62,1.05-.12,2.09-.25,3.14-.37,1.41.15,2.78.23,4.08.25-1.15.67-2.13,1.32-.1,1.7.77.14.56.45-.2.75-.4.16-.54.29-.61.42h324.22c.59-.16,1.13-.32,1.79-.47-.69-.03-1.41-.06-2.3-.04Z"/>
          <path class="cls-15" d="m395.86,52.06c.14-.06.44-.13.4-.18-.93-1.05-1.04-2.17-.46-3.35.11-.22-.29-.41-.82-.58-1.46-.45-1.04-1,1.05-1.66.2-.06.3-.13.42-.19.67-.33.17-.47-2.77-.39-2.33.07-3.45-.07-4.82-.18-1.19-.09-1.48-.29-1.03-.55.44-.04.87-.08,1.31-.11,2.98-.23,4.91-.58,5.94-.99,1.12-.45-.48-.63-2.28-.74-2.12-.13-4.69-.17-7.11-.23-.14,0-.3.01-.44,0,.23-.89-1.2-1.69-4.89-2.07,1.08-.84,1.35-1.73,1-2.5-.06-.13-.27-.24-.36-.36.07,0,.11-.01.17-.01,1.83-.06,3.04.02,4.22.12,1.93.16,1.75.59,3.15.83,4.18-.57,4.12-1.21,6.66-1.82.2-.05-.76-.15-1.35-.19-1.19-.09-3.21-.07-3.6-.24-.73-.31-3.71-.04-4.88-.2-.7-.1-2.24-.12-2.18-.26.2-.47-.33-.97,4.11-1.52,1.01-.13,1.21-.24.4-.31-1.15-.1-3.16-.1-3.45-.28-.75-.46-2.97-.29-5.98,0-.7.07-1.59.03-2.39.04l-.28-.72c1.34-.07,2.7-.16,4.01-.22,4.01-.18,4.07-.18,5.33-.63,1.35-.49,2.73-.98,4.06-1.47.92-.34-1.23-.85-3.59-.82-.74,0-1.74.08-2.57.16-2.71.26-5.39.54-8.08.81-.66-1.71-1.33-3.44-2.01-5.19.35-.07.67-.14,1.05-.2,2.46-.41,4.32-.79,3.29-1.18-.82-.31-.58-.66,1.62-1.17,1.33-.31,1.9-.78,1.4-1.02-.71-.34,0-.91-2.69-1,3.54-1.45,3.08-3.02-1.2-3.94.66-1.19-.54-2.24-5.45-2.78-.88-.1-1.72-.14-2.47-.15-.06-.15-.11-.29-.17-.44.36-.33.68-.64.74-.82.25-.73,0-1.41-.23-2.1,2.21-.71,3.8-1.53,4.37-2.5.85-1.46-1.22-2.55-3.65-3.62.14-.08.27-.15.46-.27,1.2-.45,1.97-.91,2.32-1.4.6-.49.82-.98.85-1.46.37-.08.64-.13,1.12-.24.63-.12,1.22-.26,1.82-.4-.28-.41-.5-.87-.67-1.36H70.86c-.08.12-.2.23-.27.35-.28.02-.56.03-.84.05-1.44.11-3.42.76-3.31,1.04.45,1.16,2.8,2.01,3.44,3.12.13.22.79.37,1.33.53.14.04.75-.02,1.15-.03,1.61.68,3.2,1.35,3.49,2.27.3.96,2.52,1.63,4.8,2.25.13.03.39.05.65.06l-4.69,4.15c-.14,0-.21-.02-.36-.01-1.87.04-3.71.06-5.59.11-.34,0-1.13.11-1.17.13-.22.17-.63.4-.36.5.98.33,1.88.7,3.41.89,1.66.21,1.5.51-.08,1.04-.25.08-.48.25-.35.26,3.71.19.8,1.45,2.96,1.9,1.03.21,2.21.49,2.01.86-.41.74,1.86.97,2.83,1.44.58.28,1.17.56,1.75.83-.2.09-.4.18-.58.27-.73.35-1.54.8-3.34.88-1.31.05-2.86-.09-3.04-.32-.38-.5-.75-.96-3.47-.98-.42-.4-.75-.82-1.34-1.19-.12-.07-1.46-.04-1.9.05-1.48.3-.86-.12-1.1.22-.41.57-.8,1.14-1.06,1.7-.15.33.19.58,1.5.67,1.22.08,1.93.3,1.78.63-.29.64-.55,1.26,2.87,1.25.51.45.15,1.03,1.8,1.32.8.14-.2.45-1.15.7-1.22.31-1.92.23-2.85.16-2.08-.17-4.46.21-5.28.8-.35.25-.19.49-.77.74-1.59.68-.91,1.1.05,1.47.96.37,2.34.67,3.45,1.02.48.15,1.44.34,1.03.5-2.46.94.39,1.2.76,1.76.49.75,2.07.71,7.12-.02.46.29,1.31.5,2.47.66,1.55.22.89.56-1.57.94-1.08.17-2.21.3-3.32.45.99.28-1.7.97.19,1.14.5.04,1.34,0,2.02,0,.5.39-1.24.91-1.81,1.35-.03.03-.09.06-.14.09-.84.2-1.62.42-2.26.67-1.92.74-2.53,1.57-2.12,2.36-.49.44-.66.89-.52,1.35-.38.14-.71.29-1.01.44-3.8.32-6.95.96-8.62,1.86-.09-.04-.15-.09-.25-.13-.79-.3-3.49.15-4.69,0-.7-.08-1.14-.23-1.72-.34-.78-.15-1.47-.32-2.42-.43-.35-.04-1.36.04-1.97.13-.27.04-.56.1-.84.16.71.48,1.42.96,2.13,1.44,2.55-.04,4.28.08,5.08.47,1.18.58,2.53,1.13,3.42,1.75.45.31,1.41.45,2.85.52.29.01.57.03.86.04.7.18,1.49.35,2.34.51-.71.21-1.36.42-1.24.63-.55.22-1.15.44-1.64.65-1.1.48-1.19.5-3.27.62-1.04.06-2.07.08-3.12.18-.57.05-1.4.24-1.7.37-1.25.53-.45.93.75,1.15,1.67.31,5.45-.22,7.05.1.42.09,2.06-.19,2.81-.41.46-.14.86-.3.93-.42.12-.22-.63-.3-1.74-.24-1.04.06-2.18.2-3.24.27-.55.04-1.04,0-1.47-.03-.08,0,.2-.15.46-.21,2.32-.54,4.68-1.08,7.04-1.62,1.05-.12,2.09-.25,3.14-.37,1.41.15,2.78.23,4.08.25-1.15.67-2.13,1.32-.1,1.7.77.14.56.45-.2.75-.4.16-.54.29-.61.42h324.22c.59-.16,1.13-.32,1.79-.47-.69-.03-1.41-.06-2.3-.04Z"/>
        </g>
        <g>
          <path class="cls-5" d="m136.68,284.04c7.97-3.29,15.46-5.4,22.1-5.41,1.48,3.63,3.79,7.43,5.26,11.05-7.53-1.52-14.81-1.44-20.95-1-5.34.32-8.11-3.46-6.41-4.64Z"/>
          <path class="cls-5" d="m329.76,287.11c-6.14-.44-13.42-.51-20.95,1,1.48-3.63,3.79-7.43,5.26-11.05,6.64,0,14.13,2.12,22.1,5.41,1.7,1.18-1.08,4.96-6.41,4.64Z"/>
          <path class="cls-5" d="m344.48,261.42c-2.32,6.56-4.64,13.12-6.95,19.68-18.6-8.14-37.73-9.65-57.42-3.89-2.55-5.39-5.1-10.78-7.66-16.18-1.22-4.11-.53-6.98,2.98-8.02,19.3-6.78,52.66-4.69,66.2,2.14,2.74,1.78,3.29,3.94,2.85,6.26Z"/>
          <path class="cls-5" d="m131.17,256.72c13.54-6.83,46.91-8.92,66.2-2.14,3.51,1.04,4.2,3.91,2.98,8.02-2.55,5.39-5.11,10.78-7.66,16.18-19.69-5.76-38.81-4.24-57.42,3.89-2.32-6.56-4.64-13.12-6.95-19.68-.44-2.32.11-4.48,2.85-6.26Z"/>
          <ellipse class="cls-4" cx="235.9" cy="185.53" rx="94.37" ry="121.24"/>
          <path class="cls-10" d="m162.23,342.12l-.53.25,1.78,4.91c.29-.22.59-.4.92-.53.35-.15.66-.23.95-.23.08,0,.22.02.4.05.11.03.31.09.6.18.57.17,1.01.3,1.35.38.6.14,1.15.21,1.67.21,1.75,0,3.14-.41,4.17-1.23,1.16-.91,1.75-2.23,1.75-3.97,0-1.52-.61-2.72-1.84-3.62-.91-.68-2.38-1.29-4.41-1.83-1.65-.49-2.85-1.02-3.61-1.58-1.05-.76-1.57-1.76-1.56-2.99,0-1.25.41-2.19,1.2-2.81.7-.54,1.62-.81,2.77-.81,1.4,0,2.67.43,3.81,1.28,1,.73,1.9,1.8,2.71,3.2l.4-.25-1.66-4.71-1.25.5c-.15.05-.33.06-.55.02-.13-.03-.37-.1-.72-.21-.47-.15-.84-.26-1.12-.33-.5-.1-1-.15-1.5-.16-1.89,0-3.33.51-4.32,1.54-.79.84-1.18,1.89-1.18,3.16,0,1.5.62,2.74,1.86,3.7.9.68,2.24,1.3,4.03,1.86,2.09.61,3.5,1.19,4.21,1.73.85.64,1.27,1.58,1.27,2.81,0,1.42-.45,2.47-1.33,3.16-.76.6-1.85.91-3.24.9-1.63,0-3.09-.51-4.39-1.51-.94-.73-1.83-1.76-2.66-3.1h0Zm24.03-14.22l-1.42.58-5.37,15.21c-.4,1.13-.78,1.86-1.13,2.2-.33.3-.86.45-1.57.45v.66s5.56.01,5.56.01v-.66c-1.15,0-1.87-.16-2.17-.46-.31-.33-.31-.96,0-1.9l1.38-3.8,7.71.02,1.63,4.41c.25.69.19,1.16-.18,1.42-.32.22-1.02.33-2.12.32v.66s6.48.02,6.48.02v-.66c-.71,0-1.25-.14-1.62-.41-.42-.27-.73-.75-.95-1.45l-6.24-16.63h0Zm-.93,1.72l3.62,9.83-7.15-.02,3.54-9.81h0Zm10.98,17.42h5.26s0-.64,0-.64c-.85,0-1.44-.14-1.77-.41-.31-.25-.47-.71-.47-1.37l.03-14,12.18,16.53h.43s.04-16.68.04-16.68c0-.49.18-.85.55-1.09.38-.24.96-.35,1.72-.35v-.63s-5.28-.01-5.28-.01v.63c.78,0,1.35.11,1.72.33.37.24.55.61.55,1.12l-.03,13.55-11.61-15.65h-3.26s0,.62,0,.62c.8,0,1.37.14,1.72.41.35.27.52.74.52,1.39l-.03,13.83c0,.64-.18,1.1-.53,1.36-.33.27-.91.4-1.72.4v.66h0Zm28.3.07l6.71.02v-.66c-1.01,0-1.72-.16-2.12-.48-.35-.31-.52-.79-.52-1.44v-6.23s5.25.01,5.25.01c1.58,0,2.86-.44,3.85-1.33,1.03-.94,1.55-2.23,1.55-3.85,0-1.43-.51-2.58-1.54-3.45-.95-.81-2.15-1.22-3.62-1.22l-9.53-.02v.66c.93,0,1.58.11,1.94.33.35.24.52.67.52,1.29l-.03,13.81c0,.66-.18,1.14-.53,1.44-.38.32-1.03.48-1.95.47v.66h0Zm4.09-9.46l.02-6.91c0-.61.14-1.04.43-1.29.28-.22.74-.33,1.37-.33h3.04c1.26.01,2.27.42,3.01,1.23.68.75,1.02,1.67,1.01,2.79,0,1.16-.35,2.18-1.03,3.04-.77.99-1.78,1.49-3.05,1.49h-4.81Zm21.38-9.59l-1.42.58-5.37,15.21c-.4,1.13-.78,1.86-1.13,2.2-.33.3-.86.45-1.57.45v.66s5.56.01,5.56.01v-.66c-1.15,0-1.87-.16-2.17-.46-.31-.32-.31-.96,0-1.9l1.38-3.8,7.71.02,1.63,4.41c.25.69.19,1.16-.18,1.42-.32.22-1.02.33-2.12.32v.66s6.49.02,6.49.02v-.66c-.71,0-1.25-.14-1.62-.41-.42-.27-.73-.75-.95-1.45l-6.24-16.63h0Zm-.93,1.72l3.62,9.83-7.15-.02,3.54-9.81h0Zm10.98,17.42l9.33.02c2.01,0,3.61-.52,4.79-1.58,1.08-.94,1.63-2.12,1.63-3.54,0-1.3-.36-2.36-1.09-3.17-.81-.9-2.05-1.51-3.71-1.83,1.41-.4,2.46-.98,3.12-1.74.58-.66.88-1.48.88-2.46,0-1.28-.53-2.32-1.59-3.12-1.1-.81-2.59-1.22-4.46-1.22l-8.85-.02v.66c.93,0,1.58.14,1.94.41.35.27.52.74.52,1.39l-.03,13.83c0,.68-.18,1.13-.53,1.37-.33.24-.98.35-1.95.35v.66h0Zm4.09-10.27v-5.93c.02-.64.18-1.11.52-1.39.33-.27.88-.4,1.65-.4h2.57c1.43,0,2.54.4,3.34,1.18.7.66,1.04,1.45,1.04,2.38,0,1.03-.41,1.97-1.23,2.81-.88.91-1.94,1.37-3.17,1.36h-4.71Zm0,.66h5.14c1.36.02,2.52.48,3.46,1.39.91.9,1.37,1.93,1.37,3.11,0,1.2-.44,2.22-1.31,3.06-.95.94-2.2,1.41-3.74,1.41h-2.79c-.8,0-1.34-.13-1.65-.37-.33-.26-.5-.71-.49-1.37l.02-7.24h0Zm13.99,9.66l13.17.03,1.88-4.5-.5-.26c-.72,1.28-1.59,2.28-2.62,2.98-1.05.74-2.17,1.11-3.37,1.11h-2.65c-.7,0-1.19-.14-1.47-.42-.27-.25-.4-.66-.4-1.21l.03-14.13c0-.64.16-1.07.48-1.29.37-.24,1.08-.35,2.15-.35v-.63s-6.66-.02-6.66-.02v.63c.93,0,1.57.12,1.92.36.33.22.5.65.49,1.29l-.03,14.13c0,.56-.17.96-.5,1.21-.37.27-1.01.4-1.92.4v.66h0Zm24.76-19.06c-2.51,0-4.5,1-5.97,3.02-1.32,1.84-1.98,4.08-1.99,6.73,0,2.63.64,4.86,1.96,6.69,1.46,2.05,3.44,3.07,5.96,3.08,2.59,0,4.64-1.01,6.14-3.05,1.35-1.8,2.03-4.03,2.04-6.68,0-2.67-.66-4.91-2.01-6.74-1.49-2.03-3.53-3.05-6.13-3.05h0Zm0,.66c2.04,0,3.65.96,4.83,2.87,1.04,1.69,1.56,3.79,1.56,6.29,0,2.46-.53,4.54-1.59,6.23-1.19,1.89-2.8,2.83-4.85,2.82-1.97,0-3.52-.96-4.66-2.85-1.03-1.71-1.54-3.79-1.53-6.23,0-2.49.53-4.57,1.56-6.28,1.15-1.9,2.71-2.85,4.68-2.85Z"/>
          <path class="cls-10" d="m320.52,326.53l.02-9.28h4.05c.82.01,1.43.1,1.86.27.42.17.76.46,1.02.88.25.42.38.89.37,1.4,0,.66-.21,1.21-.63,1.66-.42.45-1.07.74-1.95.86.32.16.56.31.73.46.35.33.69.74,1,1.24l1.58,2.53h-1.52s-1.2-1.94-1.2-1.94c-.35-.56-.64-.98-.87-1.28-.23-.3-.43-.5-.61-.62-.18-.12-.36-.2-.55-.25-.14-.03-.36-.04-.68-.04h-1.4s0,4.12,0,4.12h-1.21Zm1.22-5.18h2.6c.55,0,.99-.05,1.3-.17.31-.12.55-.3.71-.56.16-.25.24-.53.24-.83,0-.44-.15-.8-.47-1.08-.31-.28-.81-.43-1.49-.43h-2.89s0,3.06,0,3.06Z"/>
          <path d="m323.94,312.75c-4.81-.01-8.71,3.93-8.72,8.81-.01,4.88,3.88,8.84,8.68,8.85,4.81.01,8.71-3.93,8.72-8.81.01-4.88-3.88-8.84-8.68-8.86Zm-.04,17.02c-4.33-.01-7.83-3.68-7.82-8.2.01-4.52,3.53-8.18,7.86-8.17,4.33.01,7.83,3.69,7.82,8.2-.01,4.52-3.53,8.18-7.86,8.17Z"/>
          <g>
            <g>
              <polygon class="cls-11" points="208.76 231.83 208.09 234.83 209.4 234.83 208.77 231.83 208.76 231.83"/>
              <path class="cls-11" d="m228.8,232.05c-.11-.26-.25-.47-.42-.63-.17-.16-.38-.24-.63-.24-.25,0-.46.08-.63.23-.17.16-.32.37-.42.63-.11.26-.19.56-.24.9-.05.34-.08.68-.08,1.04,0,.34.02.68.07,1,.05.32.13.62.23.88.11.26.25.47.42.63.17.16.38.24.63.24.25,0,.46-.08.63-.23.17-.16.32-.36.42-.62.11-.26.19-.55.24-.88.05-.32.08-.66.08-1,0-.36-.02-.71-.07-1.04-.05-.34-.13-.64-.23-.9Z"/>
              <path class="cls-11" d="m244.6,226.16l9.47-.16,28.59.07v-1.1s-20.57-.05-20.57-.05l-3.59-3.99-1.91-.32-3.14-3.42-1.22-2.34-26.11-.19-6.07,3.88-4.71.07-9.43,7.67-10.06-.02c-3.88,0-7.07,3.15-7.08,7.03v1.14c-.01,3.88,3.16,7.06,7.04,7.07l41.46.1c.12,0,.24-.01.35-.04l44.99.11v-1.05s-36.47-.09-36.47-.09c-3.88,0-7.05-3.04-7.04-6.74v-1.09c.01-3.18,2.36-5.85,5.49-6.53Zm-47.41,11.81h-3.82s.02-8.19.02-8.19h3.76s0,1.52,0,1.52h-2.66s0,1.75,0,1.75h2.44s0,1.4,0,1.4h-2.44s0,2,0,2h2.71s0,1.52,0,1.52Zm4.53-1.37c-.09.32-.22.6-.4.83-.18.23-.4.41-.66.54-.26.13-.56.19-.91.19-.28,0-.55-.06-.81-.17-.26-.11-.49-.29-.69-.52-.2-.24-.36-.54-.47-.91-.12-.37-.17-.8-.17-1.31h1.07c0,.28.03.51.09.7.06.19.14.35.24.46.1.12.22.21.36.26.14.06.28.09.42.09.1,0,.2-.01.32-.04.11-.03.22-.08.32-.15.1-.08.18-.18.25-.31.07-.13.1-.3.1-.51,0-.22-.04-.4-.13-.54-.09-.14-.2-.25-.34-.34-.14-.09-.3-.17-.48-.24-.18-.07-.36-.15-.54-.23-.19-.08-.37-.17-.55-.28-.18-.11-.34-.25-.48-.43-.14-.18-.25-.4-.34-.66-.09-.26-.13-.58-.13-.96,0-.42.06-.78.17-1.09.11-.31.26-.57.43-.77.18-.21.38-.36.61-.46.23-.1.45-.15.68-.15.26,0,.52.05.76.14.24.1.46.25.64.47.19.21.34.49.45.82.11.33.16.74.16,1.21h-1.07c0-.25-.04-.45-.09-.61-.05-.16-.13-.29-.21-.38-.09-.09-.19-.16-.31-.2-.12-.04-.24-.06-.38-.06-.09,0-.18.02-.27.05-.09.03-.17.08-.24.16-.07.08-.13.17-.18.29-.05.11-.07.26-.07.43,0,.16.02.29.06.39.04.1.11.19.22.28.11.08.26.17.46.25s.45.19.76.32c.09.03.22.09.39.17.17.08.33.21.5.38.16.18.31.41.42.71.12.29.18.67.18,1.13,0,.37-.05.72-.14,1.04Zm4.53-5.27h-1.51s-.02,6.66-.02,6.66h-1.11s.02-6.67.02-6.67h-1.51s0-1.52,0-1.52h4.12s0,1.52,0,1.52Zm3.8,6.67l-.38-1.82h-1.88s-.4,1.82-.4,1.82h-1.11s1.92-8.17,1.92-8.17h1.13s1.86,8.18,1.86,8.18h-1.15Zm5.33-6.65h-1.51s-.02,6.66-.02,6.66h-1.11s.02-6.67.02-6.67h-1.51s0-1.52,0-1.52h4.12s0,1.52,0,1.52Zm4.84,3.59c0,1.11-.19,1.93-.58,2.47-.38.54-.91.81-1.58.8-.68,0-1.21-.27-1.58-.81-.37-.54-.56-1.36-.55-2.47v-5.08s1.12,0,1.12,0v5.08c-.01.22,0,.44.02.65.02.21.07.4.15.57.07.16.18.3.31.4.13.1.31.16.54.16.39,0,.67-.14.82-.43.15-.29.23-.73.23-1.35v-5.08s1.12,0,1.12,0v5.08Zm4.69-3.56h-1.51s-.02,6.66-.02,6.66h-1.11s.02-6.67.02-6.67h-1.51s0-1.52,0-1.52h4.12s0,1.52,0,1.52Zm5.13,4.29c-.11.52-.28.96-.49,1.34-.21.38-.47.68-.78.9-.31.22-.65.33-1.04.32-.39,0-.73-.11-1.04-.33-.31-.22-.57-.52-.78-.9-.21-.38-.37-.83-.48-1.35-.11-.52-.17-1.07-.17-1.67,0-.61.06-1.18.17-1.7.11-.52.28-.98.49-1.37.21-.39.47-.69.78-.91.31-.22.66-.33,1.04-.33.39,0,.74.11,1.04.33.31.22.56.53.77.92.21.39.37.85.48,1.37.11.52.17,1.09.16,1.7,0,.6-.06,1.15-.17,1.67Zm4.7,1.01c-.09.32-.22.6-.4.83-.18.23-.4.41-.66.54-.26.13-.56.19-.91.19-.28,0-.55-.06-.81-.17-.26-.11-.49-.29-.69-.52-.2-.24-.36-.54-.47-.91-.12-.37-.17-.8-.17-1.31h1.07c0,.28.03.51.09.7.06.19.14.35.24.46.1.12.22.21.36.26.14.06.28.09.42.09.1,0,.2-.01.32-.04.11-.03.22-.08.32-.15.1-.08.18-.18.25-.31.07-.13.1-.3.1-.51,0-.22-.04-.4-.13-.54-.09-.14-.2-.25-.34-.34-.14-.09-.3-.17-.48-.24-.18-.07-.36-.15-.54-.23-.19-.08-.37-.17-.55-.28-.18-.11-.34-.25-.48-.43-.14-.18-.25-.4-.34-.66-.09-.26-.13-.58-.13-.96,0-.42.06-.78.17-1.09.11-.31.26-.57.44-.77.18-.21.38-.36.61-.46.23-.1.45-.15.68-.15.26,0,.52.05.76.14.24.1.46.25.64.47.19.21.34.49.45.82.11.33.16.73.16,1.21h-1.07c0-.25-.04-.45-.09-.61-.05-.16-.12-.29-.21-.38-.09-.09-.19-.16-.31-.2-.11-.04-.24-.06-.38-.06-.09,0-.18.02-.27.05-.09.03-.17.08-.24.16-.07.08-.13.17-.18.29-.05.11-.07.26-.07.43,0,.16.02.29.06.39.04.1.11.19.22.28.11.08.26.17.46.25.19.08.45.19.76.32.09.03.22.09.39.17.17.08.33.21.5.38.16.18.31.41.42.71.12.29.18.67.18,1.13,0,.37-.05.72-.14,1.04Z"/>
            </g>
            <path class="cls-3" d="m235.8,62.92c-52.65-.13-95.47,54.61-95.64,122.23-.06,24.17,5.35,46.73,14.72,65.74,12.67-1.2,27.06-.6,38.22,2.37-13.93-16.43-22.73-40.82-22.66-68.03.12-49.36,29.35-89.31,65.28-89.22,35.93.09,64.97,40.18,64.85,89.54-.06,26.39-8.45,50.09-21.73,66.42,10.91-3.07,25.19-3.74,37.92-2.62,8.88-18.55,14.03-40.37,14.09-63.72.16-67.62-42.4-122.56-95.05-122.69Zm78.75,127.47c-2.58-3.65-6.41-3.63-8.53-.41-1.5-1.83-1.19-2.4-2.67-4.57.04-1.2.07-2.4.07-3.61.12-49.01-30.2-88.82-67.71-88.91-36.99-.09-67.17,38.49-68.11,86.56.25,2.7.48,5.29.6,7.66-1.71,1.01-1.95,1.15-3.66,2.16-2.84-2.41-5.74-2.58-8.73.51-3.18-2.32-5.93-2.14-8.16,1.05-1.75-1.1-3.51-2.19-5.26-3.29-.41-32.39,6.29-63.93,32.7-93.11,39.76-39.74,80.19-37.35,116.52-5.25,28.89,27.16,37.2,62.45,37.29,98.74-1.89,1.07-3.79,2.14-5.68,3.21-2.56-2.54-5.62-3.69-8.67-.73Z"/>
            <line class="cls-1" x1="243.89" y1="227.96" x2="278.62" y2="228.1"/>
            <line class="cls-1" x1="242.83" y1="229.4" x2="277.37" y2="229.53"/>
            <line class="cls-1" x1="242.23" y1="230.61" x2="276.86" y2="230.69"/>
            <line class="cls-1" x1="241.92" y1="231.98" x2="276.46" y2="232.01"/>
            <line class="cls-1" x1="241.37" y1="233.43" x2="276.01" y2="233.41"/>
            <line class="cls-1" x1="241.37" y1="234.81" x2="276" y2="235"/>
            <line class="cls-1" x1="242.12" y1="236.34" x2="276.75" y2="236.48"/>
            <line class="cls-1" x1="242.59" y1="237.5" x2="277.07" y2="237.64"/>
            <line class="cls-1" x1="244.18" y1="238.67" x2="278.71" y2="238.81"/>
            <path class="cls-7" d="m152.9,210.01c1.54.21,2.44,1.03,2.68,2.45-.14,1.49-.78,2.06-1.5,2.5-1.15.09-1.87-.42-2.41-1.22-.79-2.61.28-3.56,1.23-3.73Z"/>
            <g>
              <path class="cls-9" d="m165.59,245.89c-1.38-2.61-2.89-5.46-4.6-8.69-2.79-4.19-5.48-4.78-8.15-4.85,1.73,9.87,8.07,14.37,12.75,13.53Z"/>
              <path class="cls-9" d="m163.25,228.94c1.79,1.6,3.58,3.04,5.23,7.3,1.49,3.56,2.19,7.15.7,10.83-4.99-2.89-8.85-12.02-5.93-18.13Z"/>
              <path class="cls-9" d="m172.3,245.13c4.46-2.2,5.24-8.85,2.33-19.96-2.4,1.52-4.16,4.12-4.49,9.07-.26,3.89.85,7.41,2.16,10.89Z"/>
              <path class="cls-7" d="m158.23,228.69c1.54.21,2.44,1.03,2.68,2.45-.14,1.49-.78,2.06-1.5,2.5-1.15.09-1.87-.42-2.41-1.22-.79-2.61.28-3.56,1.23-3.73Z"/>
              <path class="cls-7" d="m167.55,225.65c1.55.24,2.28,1.22,1.74,3.34-.36.75-1,1.07-1.73,1.27-.63-.03-1.11-.4-1.49-.99-.41-.87-.61-1.74-.3-2.83.58-.69,1.14-.84,1.77-.78Z"/>
            </g>
            <path class="cls-7" d="m163.06,207.88c1.55.24,2.28,1.22,1.74,3.34-.36.76-1,1.07-1.73,1.27-.63-.03-1.11-.4-1.49-.99-.41-.87-.61-1.74-.3-2.83.58-.69,1.14-.84,1.77-.78Z"/>
            <path class="cls-7" d="m160.85,189.64c1.55.24,2.28,1.22,1.74,3.34-.36.75-1,1.07-1.73,1.27-.63-.03-1.11-.4-1.49-.99-.41-.87-.61-1.74-.3-2.83.58-.69,1.14-.84,1.77-.78Z"/>
            <path class="cls-7" d="m151.29,191.21c1.55.24,2.28,1.22,1.74,3.34-.36.75-1,1.07-1.72,1.27-.63-.03-1.11-.4-1.49-.99-.41-.87-.61-1.74-.3-2.83.58-.69,1.14-.84,1.77-.78Z"/>
            <path class="cls-9" d="m158.59,226.28c-.77-2.61-2.28-5.32-4.1-8.07-1.89-2.61-4.04-4.21-6.57-4.31-.3,2.86.48,5.58,2.34,8.15,3.3,4.28,5.93,4.91,8.33,4.23Z"/>
            <path class="cls-9" d="m161.67,226.49c1.27-1.46,1.7-3.48.52-8.12-.83-3.22-1.99-5.36-4.28-6.74-1.35,1.27-1.53,4.06-1.05,7.72.74,3.54,2.23,6.07,4.81,7.14Z"/>
            <path class="cls-9" d="m164.3,225.52c2.55-1.28,4.38-3.99,5.48-8.14.69-3.96.5-7-.56-9.12-1.72,1.28-3.35,3.06-4.68,6.61-1.53,3.98-1.15,7.39-.24,10.66Z"/>
            <path class="cls-9" d="m154.79,208.51c-1.04-7.45-3.76-12.99-9.22-15.42-.3,2.82-.63,5.6,1.4,10.41,2.09,3.88,4.66,5.69,7.82,5.01Z"/>
            <path class="cls-9" d="m157.34,208.8c1.34-1.41,1.93-4.28,1.76-8.59-.53-4.12-1.55-6.67-3.13-7.52-.47.72-.87,1.49-1.18,2.3-2.04,5.25-.75,11.81,2.54,13.8Z"/>
            <path class="cls-12" d="m160.17,206.94c2.83-.42,4.96-3.07,6.52-7.54.77-3.24,1.26-6.18,1.12-8.46-6.44,2.38-8.22,8.3-7.64,16.01Z"/>
            <path class="cls-9" d="m305.56,247.89c1.39-2.6,2.92-5.45,4.64-8.66,2.81-4.18,5.5-4.75,8.17-4.81-1.78,9.86-8.14,14.33-12.81,13.47Z"/>
            <path class="cls-9" d="m307.99,230.95c-1.79,1.6-3.6,3.03-5.27,7.28-1.51,3.55-2.22,7.13-.75,10.83,5-2.87,8.91-11.98,6.02-18.1Z"/>
            <path class="cls-9" d="m298.86,247.1c-4.45-2.22-5.19-8.88-2.24-19.97,2.39,1.54,4.14,4.14,4.45,9.1.24,3.89-.89,7.41-2.21,10.88Z"/>
            <path class="cls-7" d="m313.01,230.72c-1.55.2-2.44,1.01-2.69,2.43.13,1.49.77,2.07,1.49,2.51,1.15.1,1.88-.42,2.41-1.21.8-2.61-.26-3.56-1.21-3.73Z"/>
            <path class="cls-7" d="m318.43,210.01c-1.55.2-2.44,1.01-2.69,2.43.13,1.49.77,2.07,1.49,2.51,1.15.1,1.88-.41,2.41-1.21.8-2.61-.26-3.56-1.21-3.73Z"/>
            <path class="cls-7" d="m303.71,227.64c-1.55.23-2.28,1.2-1.76,3.33.35.76,1,1.08,1.72,1.28.63-.03,1.11-.39,1.5-.98.41-.87.62-1.74.31-2.83-.58-.69-1.13-.85-1.77-.79Z"/>
            <path class="cls-7" d="m308.28,207.83c-1.55.23-2.28,1.2-1.76,3.33.35.76,1,1.08,1.72,1.28.63-.03,1.11-.39,1.5-.98.41-.87.62-1.74.31-2.83-.58-.69-1.13-.85-1.77-.79Z"/>
            <path class="cls-7" d="m310.57,189.6c-1.55.23-2.28,1.2-1.76,3.33.35.76,1,1.08,1.72,1.28.63-.03,1.11-.39,1.5-.98.41-.87.62-1.74.31-2.83-.58-.69-1.13-.85-1.77-.79Z"/>
            <path class="cls-7" d="m320.13,191.22c-1.55.23-2.28,1.2-1.76,3.33.36.76,1,1.08,1.72,1.28.63-.03,1.11-.39,1.5-.98.41-.87.62-1.74.31-2.83-.58-.69-1.13-.85-1.77-.79Z"/>
            <path class="cls-9" d="m312.66,226.26c.78-2.6,2.31-5.31,4.14-8.05,1.91-2.6,4.06-4.19,6.59-4.28.29,2.86-.5,5.58-2.38,8.14-3.32,4.26-5.96,4.88-8.35,4.19Z"/>
            <path class="cls-9" d="m309.58,226.45c-1.26-1.47-1.68-3.49-.48-8.12.85-3.22,2.02-5.35,4.31-6.72,1.35,1.27,1.51,4.07,1.02,7.72-.76,3.53-2.26,6.06-4.85,7.11Z"/>
            <path class="cls-9" d="m306.96,225.47c-2.55-1.29-4.36-4.01-5.44-8.17-.67-3.96-.47-7,.6-9.12,1.71,1.29,3.33,3.08,4.65,6.63,1.51,3.98,1.12,7.4.19,10.66Z"/>
            <path class="cls-9" d="m316.55,208.5c1.07-7.45,3.83-12.97,9.29-15.38.28,2.82.6,5.61-1.45,10.4-2.11,3.87-4.69,5.67-7.85,4.97Z"/>
            <path class="cls-9" d="m314,208.78c-1.33-1.42-1.91-4.28-1.72-8.59.55-4.12,1.58-6.67,3.16-7.5.47.72.86,1.5,1.17,2.3,2.02,5.26.7,11.82-2.61,13.79Z"/>
            <path class="cls-9" d="m311.18,206.91c-2.83-.44-4.95-3.09-6.49-7.58-.76-3.25-1.23-6.19-1.08-8.47,6.43,2.41,8.18,8.34,7.56,16.04Z"/>
            <path class="cls-6" d="m219.08,250.85v-4.92s.91,0,.91,0c.31,0,.57.06.78.18.21.12.38.29.51.52.13.23.22.5.28.82.05.32.08.67.08,1.07,0,.43-.04.8-.12,1.09-.08.3-.19.54-.32.73-.13.19-.29.32-.46.4-.17.08-.35.12-.53.12h-1.12Zm-1.25-6.37l-.02,7.81h2.47c.44,0,.82-.09,1.15-.29.32-.2.6-.47.81-.82.22-.35.38-.77.49-1.25.11-.48.16-1.01.16-1.58,0-.65-.06-1.21-.19-1.7-.13-.48-.31-.88-.54-1.2-.23-.32-.51-.56-.83-.72-.32-.16-.66-.24-1.03-.24h-2.47Zm8.18.02l-.02,7.81h4.35s0-1.43,0-1.43h-3.09s0-1.92,0-1.92h2.78s0-1.33,0-1.33h-2.78s0-1.68,0-1.68h3.03s0-1.44,0-1.44h-4.29Zm8.28,5.24h-1.22c0,.48.06.89.19,1.25.13.35.31.64.54.87.23.23.49.39.79.5.3.11.6.16.92.16.39,0,.73-.06,1.03-.18.3-.12.55-.3.75-.52.2-.22.35-.49.46-.79.1-.31.15-.64.16-1,0-.44-.07-.8-.2-1.08-.14-.28-.3-.51-.48-.67-.19-.17-.38-.29-.57-.37-.19-.08-.34-.13-.45-.16-.36-.12-.65-.23-.87-.31-.22-.08-.4-.16-.52-.24-.13-.08-.21-.17-.25-.26-.04-.09-.06-.22-.06-.37,0-.17.03-.31.08-.42.05-.11.12-.2.21-.27.08-.07.18-.12.28-.15.1-.03.2-.04.31-.04.16,0,.3.02.43.06.13.04.25.1.35.19.1.09.18.21.24.36.06.15.1.35.11.58h1.22c0-.45-.06-.83-.19-1.15-.13-.32-.29-.58-.51-.78-.21-.2-.46-.35-.73-.45-.28-.09-.56-.14-.86-.14-.26,0-.51.05-.77.14-.26.09-.49.24-.69.44-.2.2-.37.44-.5.74-.13.3-.19.64-.19,1.04,0,.36.05.66.15.91.1.25.23.46.39.63.16.17.34.31.55.41.2.11.41.2.63.27.21.08.41.15.62.22.2.07.39.14.55.23.16.09.29.2.39.33.1.13.15.3.15.51,0,.2-.04.36-.11.49-.08.13-.17.23-.28.3-.11.07-.23.12-.36.15-.13.03-.25.04-.36.04-.17,0-.33-.03-.48-.08-.16-.06-.29-.14-.4-.25-.12-.11-.21-.26-.28-.44-.07-.18-.1-.4-.1-.67h0Zm7.84,1.17v-4.92s.91,0,.91,0c.31,0,.57.06.78.18.21.12.38.29.51.52.13.23.22.5.27.82.06.32.08.67.08,1.07,0,.43-.04.79-.12,1.09-.08.3-.19.54-.32.73-.13.19-.29.32-.46.4-.17.08-.35.12-.53.12h-1.12Zm-1.25-6.37l-.02,7.81h2.47c.44,0,.82-.09,1.15-.29.32-.2.59-.47.81-.82.22-.35.38-.77.49-1.25.11-.48.16-1.01.16-1.58,0-.65-.06-1.21-.19-1.7-.13-.48-.31-.88-.54-1.21-.23-.32-.51-.56-.83-.72-.32-.16-.66-.24-1.03-.24h-2.47Zm8.18.02l-.02,7.81h4.35s0-1.43,0-1.43h-3.09s0-1.92,0-1.92h2.78s0-1.33,0-1.33h-2.78s0-1.68,0-1.68h3.03s0-1.44,0-1.44h-4.29Z"/>
            <path class="cls-6" d="m226.97,267.31l.03-11.06h-1.44c-.05.42-.16.77-.32,1.05-.16.28-.36.51-.59.69-.23.17-.5.29-.79.36-.29.07-.6.1-.91.08v1.69s2.24,0,2.24,0l-.02,7.18h1.81Zm5.54-5.31c-.23,0-.43-.06-.6-.18-.17-.12-.32-.28-.43-.47-.11-.2-.19-.42-.25-.66-.05-.25-.08-.5-.08-.77,0-.25.03-.5.09-.74.06-.24.15-.46.27-.65.12-.19.26-.34.43-.46.17-.12.36-.17.57-.17.23,0,.43.06.61.18.18.12.33.27.45.47.12.2.22.42.28.66.06.25.09.5.09.75,0,.27-.03.54-.09.78-.06.25-.15.47-.27.66-.12.19-.27.34-.45.45-.18.11-.39.16-.64.16h0Zm-1.31,2.48h-1.72c.05.48.15.91.32,1.29.16.38.37.7.62.97.25.26.55.46.88.59.33.13.69.2,1.07.2.64,0,1.18-.17,1.62-.51.44-.34.8-.79,1.09-1.34.28-.55.49-1.17.62-1.86.13-.68.19-1.37.2-2.05,0-.7-.05-1.39-.15-2.07-.1-.68-.28-1.3-.54-1.84-.26-.54-.61-.98-1.05-1.31-.44-.33-1-.5-1.67-.5-.47,0-.89.1-1.28.31-.38.21-.71.5-.99.86-.28.36-.49.79-.64,1.28-.15.49-.23,1.02-.23,1.59,0,.44.05.88.16,1.31.11.43.28.82.52,1.16.25.35.56.63.93.83.36.21.74.31,1.12.31.43,0,.82-.09,1.15-.28.33-.19.62-.5.87-.95l.03.03c-.02.31-.05.65-.11,1.04-.06.39-.15.76-.28,1.1-.13.34-.3.63-.51.87-.21.24-.49.35-.82.35-.31,0-.58-.14-.79-.41-.21-.27-.35-.6-.41-.97h0Zm11.55-6.26v-1.93s-6.09-.01-6.09-.01v2.09s4.23.01,4.23.01c-.85,1.27-1.54,2.67-2.07,4.2-.53,1.53-.84,3.12-.95,4.77h1.94c.01-.73.08-1.53.22-2.38.13-.85.32-1.7.57-2.53.24-.83.55-1.62.91-2.35.36-.74.78-1.36,1.25-1.86h0Zm5.47,9.15l.03-11.06h-1.44c-.05.42-.16.77-.32,1.05-.16.28-.36.51-.59.69-.23.17-.5.29-.79.36-.29.07-.6.1-.91.08v1.69s2.24,0,2.24,0l-.02,7.18h1.81Z"/>
            <path class="cls-3" d="m280.24,277.17c-2.55-5.39-5.1-10.78-7.66-16.18-.19-.65-.33-1.26-.43-1.85-10.5,9.87-23.2,15.64-36.87,15.61-12.67-.03-24.48-5.04-34.47-13.68-.09.5-.22,1.01-.39,1.55-2.58,5.38-5.16,10.76-7.74,16.14-7.43-2.21-14.78-3.38-22.06-3.55,16.94,20.19,39.62,32.56,64.56,32.62,25.67.06,49.01-12.93,66.2-34.09-6.98.21-14.04,1.34-21.17,3.42Zm6.93,8.64c-16.42,13.56-32.99,19.08-49.67,19.12-25.74-.67-40.88-8.77-52.63-19.25-.96-1.61-.74-2.73.66-3.34,10.17.7,10.29-6.46,14.66-18.97,22.8,17.59,45.86,18.93,70.34.57,3.29,8.44,6.63,16.83,10.21,17.94,2.03.31,4.07.62,6.11.94,1.12.96,1,1.97.32,3Z"/>
            <path class="cls-8" d="m142.89,265.5l1.75-.49c-.2-.56-.46-1.03-.77-1.42-.32-.39-.67-.69-1.07-.9-.39-.21-.81-.34-1.25-.39-.44-.05-.89,0-1.34.12-.63.18-1.16.47-1.59.88-.43.41-.76.9-.99,1.47-.23.57-.35,1.2-.38,1.88-.02.69.06,1.4.24,2.14.18.72.44,1.37.78,1.95.34.57.74,1.04,1.2,1.41.46.37.97.61,1.54.74.57.12,1.16.1,1.79-.08.51-.14.94-.36,1.32-.67.37-.3.67-.68.9-1.11.23-.44.37-.94.44-1.49.07-.55.04-1.15-.07-1.78l-1.74.49c.1.69.04,1.28-.16,1.77-.21.49-.59.82-1.14.97-.41.11-.77.12-1.1,0-.33-.11-.62-.3-.88-.56-.26-.27-.47-.58-.65-.96-.18-.37-.32-.77-.43-1.18-.11-.44-.18-.87-.2-1.3-.02-.43.01-.83.11-1.2.1-.37.26-.69.5-.96.24-.27.56-.46.96-.57.22-.06.45-.08.67-.05.23.03.44.1.64.22.2.11.38.26.54.44.16.18.29.39.38.63h0Zm5.81-.05l-.42-2.86,2.02-.33c.42-.07.76-.01,1,.18.24.19.4.53.48,1.02.08.51.02.9-.15,1.16-.18.26-.48.43-.9.5l-2.02.33h0Zm-2.52-4.29l1.5,10.15,1.84-.3-.58-3.96,1.84-.3c.46-.08.81,0,1.05.2.24.21.43.58.57,1.1.11.4.2.82.29,1.26.09.44.21.81.36,1.12l1.84-.3c-.11-.13-.2-.29-.27-.49-.07-.2-.14-.41-.19-.63-.05-.22-.1-.44-.14-.66-.04-.22-.08-.4-.11-.56-.05-.25-.12-.5-.2-.75-.08-.25-.18-.47-.31-.67-.13-.2-.27-.36-.45-.49s-.38-.22-.61-.26v-.03c.43-.3.72-.69.86-1.16.14-.47.17-1,.08-1.6-.06-.39-.17-.74-.33-1.06-.16-.32-.37-.59-.62-.81-.25-.22-.54-.38-.86-.48-.32-.1-.67-.12-1.05-.05l-4.52.74h0Zm9.14-1.42l.82,10.23,6.41-.58-.15-1.89-4.56.41-.2-2.51,4.09-.37-.14-1.75-4.09.37-.18-2.19,4.46-.4-.15-1.89-6.32.57h0Zm10.36,7.54l-.09-6.47,1.33-.02c.46,0,.85.07,1.16.22.32.15.57.38.76.67.19.29.34.65.42,1.06.09.42.14.88.14,1.4,0,.57-.04,1.05-.16,1.44-.11.4-.27.72-.46.96-.19.25-.42.43-.67.54-.25.11-.51.17-.78.17l-1.66.03h0Zm-1.98-8.34l.15,10.27,3.66-.06c.65-.01,1.21-.15,1.69-.42.48-.27.87-.64,1.18-1.1.31-.47.55-1.02.7-1.65.15-.64.22-1.33.21-2.07-.01-.85-.12-1.59-.32-2.22-.2-.63-.48-1.15-.83-1.57-.35-.42-.76-.73-1.24-.93-.47-.2-.98-.3-1.53-.29l-3.66.06h0Zm9.14-.07l-.19,10.27,1.86.04.19-10.27-1.86-.04h0Zm5.62,2.07l-.43,8.36,1.86.11.43-8.36,2.54.15.1-1.9-6.94-.4-.1,1.9,2.54.15h0Zm7.03,3.92c.05-.45.15-.87.28-1.28.13-.41.31-.76.53-1.07.22-.3.49-.53.8-.69.31-.16.68-.21,1.1-.15.42.06.76.2,1.03.43.27.23.47.53.61.88.14.35.23.74.26,1.17.03.43.02.87-.03,1.31-.05.43-.14.84-.27,1.23-.13.39-.31.74-.52,1.04-.22.3-.49.53-.8.68-.31.16-.68.21-1.1.15-.42-.05-.76-.2-1.03-.43-.27-.23-.47-.52-.61-.87-.14-.35-.23-.73-.27-1.14-.03-.42-.03-.84.02-1.27h0Zm-1.85-.24c-.09.74-.08,1.45.04,2.11.11.67.32,1.26.61,1.78.3.52.69.95,1.17,1.29s1.05.55,1.69.64c.65.09,1.25.03,1.79-.18.54-.2,1.02-.52,1.43-.95.41-.43.75-.95,1.01-1.57.26-.62.44-1.3.53-2.04.09-.76.08-1.48-.03-2.16-.11-.68-.32-1.28-.61-1.81-.3-.53-.68-.97-1.16-1.31-.48-.34-1.04-.56-1.7-.64-.64-.08-1.24-.02-1.79.18-.55.21-1.03.53-1.44.97-.41.44-.75.97-1.02,1.6-.27.63-.44,1.32-.53,2.08Z"/>
            <polygon class="cls-8" points="200.41 274.79 196.73 283.96 202.47 287.34 203.15 285.65 199.07 283.24 199.98 281 203.64 283.16 204.27 281.59 200.61 279.43 201.4 277.47 205.39 279.82 206.07 278.13 200.41 274.79 200.41 274.79"/>
            <path class="cls-8" d="m213.35,283.12c-.21-.53-.51-.99-.89-1.37-.39-.38-.84-.68-1.35-.89l-3.43-1.43-2.74,9.64,3.43,1.43c.61.25,1.17.35,1.69.29.52-.06.99-.25,1.42-.55.42-.31.79-.73,1.11-1.26.32-.53.58-1.15.78-1.85.23-.8.33-1.54.32-2.21-.01-.67-.13-1.27-.34-1.8Zm-1.54,2.12c-.03.42-.12.88-.26,1.37-.15.53-.33.96-.55,1.28-.22.32-.45.56-.7.71-.25.15-.51.23-.78.23s-.53-.05-.78-.16l-1.56-.65,1.73-6.08,1.25.52c.43.18.77.4,1.02.67.25.27.43.58.53.94.1.35.13.74.1,1.17Z"/>
            <path class="cls-8" d="m222.42,291.34l1.18-6.18-1.8-.5-1.18,6.18c-.14.74-.37,1.25-.68,1.53-.31.28-.79.33-1.43.15-.37-.1-.65-.25-.84-.43-.19-.19-.33-.4-.42-.63-.08-.23-.12-.49-.11-.76.01-.27.04-.54.09-.81l1.18-6.18-1.8-.5-1.18,6.18c-.26,1.35-.14,2.44.34,3.26.49.82,1.28,1.38,2.39,1.69,1.1.3,2.02.22,2.76-.26.74-.48,1.25-1.4,1.5-2.74h0Z"/>
            <path class="cls-8" d="m230.92,289.64l1.79.19c-.01-.59-.11-1.13-.29-1.61-.18-.48-.42-.89-.72-1.23-.3-.34-.65-.62-1.05-.82-.4-.2-.83-.33-1.29-.38-.64-.07-1.23.01-1.76.23-.53.22-.99.56-1.38,1-.39.45-.7.99-.93,1.62-.23.63-.38,1.32-.43,2.08-.05.74,0,1.44.13,2.1.14.66.37,1.25.69,1.76.32.51.72.93,1.22,1.25.49.32,1.06.52,1.7.59.52.05,1,0,1.44-.14.44-.14.84-.38,1.19-.71.35-.33.64-.74.87-1.23.23-.49.4-1.05.49-1.68l-1.79-.19c-.12.68-.35,1.21-.7,1.59-.35.38-.8.55-1.37.49-.42-.04-.76-.18-1.04-.4-.28-.23-.49-.51-.65-.85-.16-.34-.26-.72-.32-1.13-.05-.41-.06-.83-.03-1.26.03-.45.1-.87.22-1.28.11-.41.27-.77.47-1.08.2-.31.46-.54.76-.71.3-.16.66-.22,1.08-.18.23.02.44.09.64.2.2.11.38.26.53.44.15.18.28.38.37.6.09.23.15.47.16.73h0Z"/>
            <path class="cls-8" d="m239.32,286.43h-1.9s-3.18,10.2-3.18,10.2h1.86s.66-2.27.66-2.27h3.15s.64,2.27.64,2.27h1.92s-3.15-10.19-3.15-10.19Zm-2.07,6.26l1.1-3.74h.02l1.06,3.74h-2.18Z"/>
            <path class="cls-8" d="m249.57,288.44l1.77-.3c-.12-.57-.32-1.07-.58-1.49-.26-.42-.57-.75-.93-1-.36-.25-.75-.42-1.18-.51-.43-.09-.87-.1-1.33-.02-.64.11-1.2.34-1.67.71-.48.36-.86.81-1.16,1.35-.29.54-.5,1.15-.61,1.83-.11.68-.12,1.39-.04,2.15.08.74.26,1.41.52,2.01.26.6.59,1.11,1,1.52.4.41.88.71,1.42.89.54.18,1.13.22,1.77.11.51-.09.97-.26,1.38-.53.41-.26.75-.6,1.03-1.01.28-.41.48-.89.62-1.43.14-.54.19-1.13.16-1.77l-1.77.3c0,.69-.12,1.27-.39,1.74-.27.47-.68.75-1.24.85-.41.07-.77.03-1.08-.11-.31-.14-.57-.36-.79-.65-.22-.29-.39-.63-.52-1.01-.13-.39-.22-.79-.27-1.22-.05-.44-.06-.88-.03-1.31.03-.43.12-.82.26-1.18.14-.36.34-.66.61-.9.27-.24.6-.4,1.02-.47.23-.04.45-.03.66.02.22.05.42.15.6.28.18.13.34.29.47.49.13.19.23.42.29.66h0Z"/>
            <polygon class="cls-8" points="253.2 283.97 254.96 293.95 256.77 293.48 255.01 283.51 253.2 283.97 253.2 283.97"/>
            <path class="cls-8" d="m266.05,284.51c-.19-.72-.46-1.36-.81-1.91-.35-.55-.75-.99-1.21-1.32-.46-.33-.97-.53-1.52-.6-.56-.07-1.15.02-1.77.26-.61.24-1.13.59-1.55,1.05-.42.46-.74.98-.95,1.58-.21.59-.33,1.24-.34,1.93-.01.69.08,1.4.27,2.12.19.71.46,1.33.8,1.87.34.54.74.97,1.2,1.29.46.32.97.51,1.52.58.56.06,1.14-.02,1.76-.27.62-.24,1.14-.59,1.56-1.04.42-.45.73-.97.95-1.55.22-.59.33-1.22.35-1.9.02-.68-.07-1.38-.26-2.08Zm-1.66,3.12c-.09.38-.25.71-.47,1.01-.23.29-.54.52-.93.68-.4.16-.76.2-1.08.12-.33-.08-.62-.23-.87-.47-.25-.24-.47-.54-.65-.89-.18-.35-.33-.73-.44-1.14-.11-.43-.19-.85-.21-1.28-.03-.43,0-.83.09-1.21.09-.38.25-.72.47-1.01.23-.29.54-.52.93-.68.4-.16.76-.2,1.08-.12.33.08.62.24.87.48.26.24.48.55.66.92.19.37.34.76.45,1.19.11.41.18.82.2,1.23.03.42,0,.81-.1,1.19Z"/>
            <polygon class="cls-8" points="266.49 278.37 269.91 287.68 271.5 286.82 269.2 280.59 269.22 280.58 274.72 285.08 276.41 284.17 272.98 274.85 271.4 275.71 273.7 281.96 273.68 281.97 268.17 277.46 266.49 278.37"/>
            <path class="cls-8" d="m283.08,265.97l.62-3.84h.03s1.77,3.4,1.77,3.4l-2.42.44h0Zm-.8-6.08l-1.91,10.51,2.06-.38.37-2.33,3.49-.64,1.07,2.07,2.13-.39-5.11-9.22-2.1.39h0Zm7.4-1.08l.64,9.98,2.08-.15-.27-4.31,3.83-.27.27,4.31,2.08-.15-.64-9.98-2.08.15.24,3.83-3.83.27-.24-3.83-2.08.15h0Zm12.24,4.47c0-.44.06-.86.16-1.27.1-.41.26-.77.47-1.09.21-.32.48-.57.81-.75.33-.18.73-.27,1.2-.26.47,0,.86.11,1.19.31.32.2.58.46.78.79.2.33.34.7.42,1.11.08.41.12.84.12,1.28,0,.42-.06.83-.16,1.22-.1.39-.26.75-.46,1.06-.21.31-.48.56-.81.75-.33.18-.73.27-1.2.26-.47,0-.86-.11-1.19-.31-.32-.2-.58-.46-.78-.78-.2-.32-.34-.68-.42-1.08-.09-.4-.12-.81-.12-1.23h0Zm-2.08-.04c-.01.73.08,1.41.28,2.05.2.64.49,1.19.88,1.67.39.48.87.85,1.44,1.13.57.28,1.22.43,1.95.44.73.02,1.39-.1,1.97-.36.58-.25,1.07-.61,1.48-1.07.41-.46.72-1,.95-1.63.22-.63.34-1.3.36-2.03.01-.75-.08-1.44-.28-2.09-.2-.64-.49-1.21-.88-1.69-.39-.48-.87-.87-1.44-1.15-.57-.28-1.22-.43-1.96-.45-.72-.02-1.38.11-1.96.37-.58.26-1.08.62-1.49,1.09-.41.47-.72,1.02-.95,1.66-.22.64-.34,1.33-.36,2.07h0Zm13.17.08l.24-2.81,2.27.22c.48.05.82.19,1.04.43.22.24.31.6.27,1.09-.04.5-.19.85-.45,1.05-.26.2-.62.28-1.1.23l-2.27-.22h0Zm-1.69-4.71l-.85,9.97,2.07.2.33-3.89,2.07.2c.52.05.88.21,1.09.47.21.26.33.66.35,1.19.02.41.02.83.01,1.27-.01.44.03.82.12,1.15l2.07.2c-.08-.15-.14-.33-.17-.53-.03-.2-.05-.42-.05-.65,0-.23,0-.45,0-.66,0-.22.02-.4.02-.56,0-.25,0-.51-.03-.76-.03-.26-.08-.49-.17-.71-.09-.22-.21-.41-.36-.58-.15-.17-.36-.3-.61-.4v-.03c.55-.17.96-.46,1.23-.87.27-.41.43-.9.48-1.49.03-.38,0-.74-.1-1.09-.1-.34-.26-.65-.48-.93-.22-.27-.49-.5-.82-.68-.33-.18-.7-.28-1.12-.32l-5.09-.48h0Zm11.68,5.91l.47-2.77,2.25.42c.47.09.8.26,1,.52.2.26.26.63.18,1.11-.08.5-.26.83-.54,1.01-.27.18-.64.22-1.11.13l-2.25-.42h0Zm-1.3-4.84l-1.67,9.85,2.05.39.65-3.85,2.05.39c.51.1.86.29,1.05.57.19.28.27.69.25,1.21-.01.41-.05.83-.09,1.26-.05.44-.04.82.02,1.16l2.05.39c-.07-.16-.12-.34-.13-.54-.01-.21-.01-.42,0-.65.02-.22.04-.44.06-.66.03-.21.05-.4.07-.56.03-.25.03-.51.03-.76,0-.26-.04-.5-.11-.73-.07-.23-.17-.43-.31-.61-.14-.18-.33-.34-.57-.46v-.03c.56-.12,1-.37,1.3-.75.3-.38.5-.86.6-1.44.06-.38.06-.74-.01-1.09-.07-.35-.21-.67-.4-.97-.2-.29-.45-.54-.76-.75-.31-.21-.68-.35-1.09-.43l-5.03-.95h0Zm10.79,7.38c.13-.42.3-.81.51-1.17.21-.36.46-.66.75-.9.29-.24.62-.4.98-.47.37-.07.77-.03,1.22.12.45.15.8.38,1.05.67.25.29.43.62.53.99.1.37.13.77.1,1.19-.03.42-.11.84-.24,1.26-.12.4-.29.77-.49,1.12-.21.35-.45.64-.74.87-.29.24-.61.39-.98.46-.37.07-.77.03-1.22-.12-.45-.15-.8-.38-1.05-.67-.25-.29-.43-.62-.53-.99-.1-.37-.14-.76-.11-1.17.03-.41.1-.81.23-1.21h0Zm-1.98-.68c-.21.69-.31,1.37-.3,2.04.02.67.14,1.29.38,1.87.24.57.6,1.08,1.07,1.53.47.44,1.05.78,1.74,1.02.7.24,1.36.33,1.98.27.62-.06,1.19-.25,1.71-.57.52-.31.97-.73,1.36-1.26.39-.53.69-1.14.9-1.83.22-.71.32-1.4.31-2.08-.01-.68-.14-1.31-.38-1.89-.24-.58-.59-1.1-1.06-1.55-.47-.45-1.05-.79-1.75-1.03-.69-.24-1.35-.32-1.98-.26-.63.07-1.2.26-1.72.58-.52.32-.97.75-1.36,1.29-.39.54-.7,1.16-.92,1.87Z"/>
            <path class="cls-2" d="m156.98,178.18l.3-1.07c.83.26,1.46.69,1.88,1.3.42.61.62,1.34.58,2.19-.03.88-.23,1.59-.58,2.13-.36.54-.87.94-1.52,1.2-.66.26-1.35.38-2.09.35-.81-.03-1.5-.22-2.09-.57-.59-.35-1.03-.83-1.32-1.44-.29-.61-.42-1.28-.4-2,.03-.82.25-1.5.66-2.04.41-.54.98-.91,1.7-1.1l.2,1.07c-.57.17-.99.43-1.26.78-.27.35-.41.8-.43,1.35-.02.63.1,1.16.37,1.59.27.43.64.75,1.12.93.47.19.97.3,1.48.32.66.03,1.24-.05,1.74-.24.5-.18.88-.48,1.13-.9.26-.42.4-.88.41-1.38.02-.61-.13-1.12-.44-1.56-.32-.43-.8-.74-1.44-.91h0Zm2.63-1.39l-7.32-4.14.14-1.16,8.08-2.31-.15,1.23-2.44.64-.4,3.4,2.22,1.2-.14,1.14h0Zm-2.88-2.76l.33-2.75-2.23.57c-.68.17-1.23.29-1.66.36.48.17.95.38,1.42.63l2.15,1.19h0Zm1.5-5.49l.02-.99c.59.07,1.01.03,1.25-.14.25-.17.4-.44.45-.8.04-.27.02-.51-.07-.72-.09-.22-.22-.38-.41-.48-.19-.11-.5-.2-.94-.27l-5.27-.89.16-1.07,5.21.89c.64.11,1.12.27,1.45.5.33.22.55.53.68.91.13.39.16.82.09,1.3-.11.71-.38,1.22-.83,1.53-.44.31-1.04.39-1.8.25h0Zm3-5l.19-1.13-2.16-1.32.57-3.37,2.47-.5.21-1.22-8.18,1.86-.19,1.15,7.1,4.53h0Zm-2.74-2.92l-2.09-1.31c-.45-.28-.91-.51-1.38-.71.43-.05.99-.14,1.68-.27l2.25-.44-.46,2.73h0Zm4.83-7.89l-7.44-2.27.81-2.96c.14-.52.28-.91.4-1.17.17-.37.37-.66.61-.87.24-.21.54-.34.89-.41.35-.06.71-.04,1.08.07.63.19,1.11.57,1.43,1.13.32.56.33,1.4.02,2.51l-.55,2.02,3.03.92-.29,1.04h0Zm-3.62-2.23l.56-2.03c.18-.67.2-1.19.04-1.54-.16-.35-.45-.6-.88-.73-.31-.1-.6-.09-.87,0-.27.1-.47.27-.62.52-.09.16-.2.48-.33.95l-.55,2.01,2.66.81h0Zm1.99-6.18c-1.2-.49-2.01-1.21-2.44-2.17-.43-.96-.45-1.97-.05-3.05.26-.7.65-1.27,1.18-1.71.53-.43,1.13-.69,1.81-.75.68-.06,1.38.05,2.1.35.73.3,1.33.72,1.8,1.27.46.55.74,1.17.83,1.86.09.7,0,1.37-.23,2.04-.26.72-.66,1.29-1.2,1.72-.54.43-1.14.68-1.82.74-.67.06-1.33-.04-1.96-.3h0Zm.4-1.04c.87.36,1.65.39,2.33.1.68-.29,1.16-.81,1.43-1.56.28-.76.25-1.49-.07-2.19-.33-.7-.95-1.24-1.88-1.62-.59-.24-1.14-.34-1.66-.31-.52.03-.97.2-1.36.5-.39.31-.68.71-.86,1.21-.26.72-.26,1.43.02,2.13.28.7.96,1.28,2.04,1.72h0Zm6.11-6.26l.45-.97-2.83-1.47.88-1.88c.48-1.04.61-1.86.39-2.47-.23-.61-.63-1.07-1.23-1.37-.34-.18-.69-.27-1.05-.27-.36,0-.67.08-.94.24-.27.16-.52.41-.75.74-.16.23-.36.59-.59,1.08l-1.29,2.77,6.95,3.6h0Zm-3.2-2.86l-2.49-1.29.87-1.88c.21-.44.37-.73.48-.87.18-.22.42-.35.69-.4.28-.05.56,0,.86.15.4.21.65.5.75.88.1.38,0,.88-.29,1.51l-.88,1.9h0Zm2.07-12.64l.5-.95,3.91,2.3c.68.4,1.18.8,1.49,1.2.31.4.48.88.51,1.45.03.57-.14,1.2-.5,1.89-.35.67-.75,1.15-1.19,1.45-.44.3-.92.42-1.43.35-.51-.06-1.12-.3-1.84-.72l-3.91-2.3.5-.95,3.91,2.3c.59.35,1.05.54,1.39.59.34.05.66-.02.96-.21.3-.19.56-.49.77-.9.37-.7.48-1.28.34-1.75-.14-.47-.64-.96-1.49-1.46l-3.91-2.3h0Zm8.15,1.44l2.65-4.28-.77-.53-2.09,3.37-5.72-3.94-.56.91,6.49,4.47h0Zm2.78-4.65l-4.62-7.28.64-.95,8.16,1.97-.67,1.01-2.44-.65-1.86,2.8,1.43,2.16-.63.94h0Zm-1.31-3.86l1.51-2.27-2.22-.6c-.67-.18-1.22-.35-1.63-.5.35.39.67.81.97,1.26l1.37,2.12h0Zm6.2-2.88l.67-.81-2.59-2.39.78-.95c.17-.21.31-.35.4-.43.13-.1.29-.17.46-.23.17-.05.42-.07.73-.05.31.02.74.07,1.29.15l1.89.31.85-1.03-2.47-.39c-.49-.07-.93-.09-1.34-.04-.19.02-.42.1-.7.22.41-.66.59-1.27.54-1.81-.05-.55-.28-1.01-.69-1.39-.32-.3-.68-.48-1.09-.56-.41-.07-.78-.01-1.12.17-.34.19-.74.56-1.19,1.11l-2.26,2.73,5.83,5.38h0Zm-2.58-3.82l-1.93-1.78,1.61-1.95c.38-.46.74-.71,1.1-.76.35-.05.67.06.94.31.19.17.32.39.39.65.07.26.06.52-.05.8-.1.28-.31.6-.61.98l-1.45,1.75h0Zm7.93-6.38l.68-.74c.29.28.58.46.87.54.29.08.62.06.98-.06.37-.12.72-.33,1.05-.64.3-.27.52-.55.67-.85.15-.3.22-.58.19-.84-.02-.26-.11-.49-.27-.68-.16-.19-.35-.31-.58-.36-.23-.05-.5,0-.82.12-.21.08-.64.3-1.29.65-.65.35-1.13.57-1.45.65-.41.1-.77.1-1.1,0-.32-.1-.6-.3-.84-.58-.25-.31-.41-.68-.47-1.1-.06-.43.02-.86.23-1.29.21-.44.51-.83.9-1.19.44-.4.88-.67,1.33-.83.45-.16.89-.17,1.3-.05.41.12.78.36,1.09.71l-.69.74c-.36-.35-.74-.53-1.13-.51-.39.01-.82.22-1.27.63-.47.43-.74.83-.8,1.21-.07.38,0,.69.21.95.18.22.41.34.68.34.27,0,.78-.2,1.53-.63.75-.42,1.29-.69,1.62-.79.48-.14.9-.16,1.27-.06.37.11.69.33.96.66.27.33.44.72.49,1.18.06.45-.01.91-.21,1.38-.2.47-.51.89-.93,1.27-.53.49-1.04.81-1.53.97-.49.16-.97.18-1.45.04-.47-.14-.88-.41-1.23-.82h0Zm6.75-2.68l.89-.66-.64-2.55,2.66-1.96,2.08,1.49.96-.71-7.03-4.8-.91.67,1.99,8.51h0Zm.02-4.11l-.6-2.48c-.13-.53-.3-1.04-.5-1.54.34.29.79.65,1.37,1.06l1.89,1.37-2.16,1.59h0Zm6.44-.98l-3.62-7.23.93-.52,6.44,3.67-2.84-5.68.87-.49,3.62,7.23-.93.52-6.44-3.68,2.84,5.68-.87.49h0Zm9.69-5.16l-2.88-7.59,2.71-1.15c.48-.2.85-.33,1.12-.39.38-.09.72-.09,1.02-.02.3.07.59.24.85.49.27.25.47.57.61.94.24.65.26,1.28.04,1.89-.22.61-.84,1.13-1.85,1.56l-1.84.78,1.17,3.09-.95.4h0Zm-.56-4.39l1.86-.79c.61-.26,1.01-.57,1.17-.92.17-.35.17-.75,0-1.18-.12-.32-.3-.56-.54-.72-.24-.16-.49-.23-.77-.19-.18.02-.48.13-.91.31l-1.84.78,1.03,2.71h0Zm5.65,2.1l1.03-8.7,1.07-.28,4.93,7.14-1.13.3-1.44-2.18-3.15.82-.26,2.62-1.06.28h0Zm1.41-3.83l2.55-.67-1.3-1.99c-.39-.61-.7-1.11-.92-1.51.02.54,0,1.08-.05,1.62l-.28,2.54h0Zm6.4,1.8l2.93-.37c.49-.06.9-.16,1.23-.29.33-.13.59-.3.8-.51.2-.21.36-.48.48-.83.12-.35.15-.71.11-1.09-.05-.47-.23-.87-.52-1.18-.29-.31-.67-.51-1.16-.6.34-.24.58-.52.72-.85.14-.33.2-.67.16-1.01-.04-.37-.19-.72-.42-1.03-.24-.32-.55-.53-.92-.65-.37-.12-.85-.14-1.44-.07l-2.89.37.92,8.12h0Zm.48-4.84l-.28-2.46,1.54-.2c.55-.07.95-.08,1.18-.04.23.05.43.16.57.36.14.19.23.42.26.69.03.28,0,.53-.12.73-.11.21-.29.36-.54.48-.19.09-.51.16-.96.22l-1.66.21h0Zm.43,3.75l-.32-2.79,1.78-.23c.49-.06.87-.06,1.14,0,.27.06.49.19.67.39.17.21.28.46.31.76.03.26,0,.49-.07.7-.08.21-.19.38-.34.5-.15.12-.33.22-.56.3-.13.04-.36.08-.69.13l-1.91.24h0Zm6.32.16l-.12-8.18,1.03-.02.1,7.22,3.81-.06v.97s-4.83.08-4.83.08h0Zm6.09-4.12c.12-1.35.55-2.38,1.3-3.08.75-.7,1.67-1,2.76-.9.71.07,1.34.31,1.88.72.54.41.93.96,1.18,1.63.25.67.33,1.41.26,2.23-.07.83-.29,1.55-.66,2.17-.37.62-.86,1.07-1.47,1.35-.61.28-1.25.39-1.92.33-.73-.07-1.36-.31-1.9-.74-.54-.42-.93-.97-1.17-1.64-.24-.67-.33-1.36-.27-2.08h0Zm1.05.12c-.08.98.1,1.78.55,2.39.45.61,1.06.96,1.81,1.03.77.07,1.43-.15,1.97-.68.54-.52.86-1.31.95-2.36.06-.66,0-1.25-.17-1.77-.17-.52-.45-.93-.83-1.24-.39-.31-.83-.49-1.34-.54-.72-.07-1.37.13-1.93.61-.57.47-.9,1.33-1.01,2.55h0Zm13.54,3.67l.94.23c-.08.4-.08.76,0,1.06.08.3.27.59.55.86.29.27.64.48,1.06.62.37.13.72.18,1.04.17.32-.02.58-.1.78-.26.2-.16.34-.35.42-.59.08-.24.07-.48,0-.71-.08-.23-.25-.46-.52-.69-.17-.15-.57-.43-1.19-.83-.62-.41-1.05-.73-1.27-.98-.29-.32-.48-.65-.56-1-.08-.35-.07-.7.04-1.06.12-.39.34-.72.66-.99.32-.27.71-.42,1.17-.46.46-.04.94.03,1.43.2.55.19,1,.45,1.36.78.36.33.59.71.71,1.15.11.44.11.89-.02,1.35l-.96-.25c.1-.51.05-.94-.17-1.29-.21-.35-.6-.62-1.17-.82-.59-.2-1.05-.24-1.39-.1-.34.13-.56.36-.66.68-.09.28-.06.54.07.79.13.25.56.6,1.3,1.06.73.46,1.22.82,1.48,1.06.36.36.6.73.7,1.12.1.39.09.8-.04,1.21-.13.41-.36.77-.7,1.05-.34.29-.75.46-1.23.52-.48.06-.99,0-1.51-.19-.67-.23-1.19-.53-1.58-.89-.39-.36-.64-.79-.77-1.29-.13-.5-.12-1.01.03-1.54h0Zm12.56,4.88l.83.69c-.54.72-1.16,1.17-1.85,1.36-.69.18-1.4.1-2.14-.25-.76-.36-1.31-.82-1.65-1.37-.34-.55-.5-1.2-.49-1.94.02-.74.17-1.47.48-2.18.33-.78.76-1.39,1.28-1.83.53-.45,1.11-.7,1.76-.75.65-.06,1.28.07,1.9.36.71.33,1.22.81,1.54,1.41.32.61.43,1.3.33,2.08l-1.02-.21c.07-.62,0-1.13-.21-1.53-.21-.4-.55-.7-1.02-.93-.54-.26-1.05-.33-1.54-.23-.48.1-.9.35-1.24.75-.34.39-.62.84-.83,1.33-.27.64-.42,1.23-.44,1.79-.02.56.1,1.04.37,1.45.27.41.62.72,1.05.92.52.25,1.03.3,1.53.15.5-.15.95-.51,1.34-1.07h0Zm3.49,5.32l4.46-6.69,2.18,1.62c.49.37.85.68,1.06.94.31.36.51.75.61,1.17.13.55.13,1.11-.01,1.7-.14.59-.41,1.18-.81,1.78-.34.51-.69.92-1.07,1.22-.37.31-.73.53-1.08.65-.35.13-.67.19-.98.18-.31,0-.63-.08-.98-.22-.35-.14-.71-.36-1.09-.64l-2.29-1.7h0Zm1.36-.17l1.35,1.01c.42.31.77.51,1.07.61.29.09.56.12.8.07.34-.06.68-.23,1.03-.5.35-.27.69-.66,1.03-1.17.47-.7.72-1.32.75-1.86.03-.54-.06-.99-.29-1.35-.16-.26-.5-.57-.99-.94l-1.33-.99-3.41,5.11h0Zm5,4.95l4.42,3.94.59-.74-3.64-3.24,1.7-2.13,3.28,2.92.59-.73-3.28-2.92,1.53-1.92,3.5,3.12.59-.74-4.28-3.81-4.99,6.26h0Zm6.56,6.17l7.65-3.4.76.84-3.39,8.09-.81-.89,1.07-2.41-2.24-2.47-2.28,1.07-.75-.83h0Zm3.84-.63l1.82,2,.99-2.19c.3-.66.56-1.2.78-1.59-.43.29-.88.54-1.36.77l-2.23,1.01h0Zm1.72,6.84l.63.85,2.49-2.04,1.22,1.66c.67.91,1.32,1.4,1.93,1.45.62.05,1.19-.14,1.71-.56.3-.25.53-.54.69-.88.16-.34.23-.67.21-1-.02-.33-.12-.68-.3-1.03-.13-.26-.35-.6-.66-1.03l-1.79-2.44-6.12,5.02h0Zm3.84-1.78l2.19-1.8,1.22,1.65c.29.39.46.67.53.84.11.27.12.55.04.84-.08.29-.25.53-.51.75-.35.29-.71.4-1.08.33-.37-.07-.75-.38-1.16-.94l-1.23-1.67h0Zm2.12,10.29l6.43-4.56,1.49,2.34c.34.53.56.95.68,1.28.16.45.22.89.17,1.32-.06.56-.26,1.09-.59,1.58-.33.5-.79.95-1.36,1.35-.49.35-.96.59-1.41.74-.45.15-.86.22-1.23.2-.37-.01-.69-.08-.98-.21-.28-.12-.56-.32-.84-.58-.28-.27-.54-.6-.8-1.01l-1.56-2.45h0Zm1.33.36l.92,1.45c.28.45.55.77.79.97.24.2.48.32.72.37.34.07.71.04,1.13-.08.42-.12.87-.36,1.35-.7.67-.48,1.11-.96,1.33-1.45.21-.49.27-.95.19-1.37-.06-.3-.27-.72-.61-1.26l-.91-1.43-4.91,3.48h0Zm2.83,6.58l2.7,5.4.81-.45-2.22-4.44,2.33-1.3,2,4,.8-.45-2-4,2.1-1.17,2.14,4.27.81-.45-2.62-5.23-6.85,3.83h0Zm4.52,9.75l7.08-3.31,1.39,3.32c.28.67.43,1.2.45,1.61.02.41-.09.79-.32,1.15-.24.36-.55.63-.94.81-.5.24-1,.26-1.49.08-.49-.18-.93-.61-1.32-1.29,0,.32-.04.57-.1.76-.13.41-.33.83-.6,1.26l-1.38,2.2-.52-1.25,1.06-1.68c.3-.49.53-.88.68-1.17.15-.29.24-.53.26-.72.03-.19.03-.37,0-.54-.03-.12-.09-.31-.2-.57l-.48-1.15-3.15,1.47-.41-.99h0Zm4.37-.86l.89,2.13c.19.45.38.79.58,1,.2.21.42.34.67.38s.49,0,.72-.1c.33-.16.56-.41.66-.77.11-.36.05-.81-.19-1.37l-.99-2.37-2.34,1.1h0Zm-1.55,8.5l1.48,4.87.87-.3-1.17-3.84,6.5-2.21-.31-1.03-7.37,2.51h0Zm2.7,8.64l7.55-1.82.59,2.75c.13.62.2,1.1.2,1.45,0,.48-.1.91-.29,1.3-.25.5-.61.92-1.09,1.26-.48.34-1.05.58-1.73.75-.57.14-1.1.19-1.57.15-.47-.03-.88-.13-1.22-.28-.34-.15-.62-.34-.84-.56-.22-.22-.42-.51-.59-.86-.17-.35-.3-.77-.4-1.25l-.62-2.88h0Zm1.12.84l.37,1.7c.11.53.25.93.41,1.21.16.28.34.48.55.62.29.19.65.31,1.08.35.43.04.93,0,1.5-.14.79-.19,1.37-.47,1.73-.85.37-.38.58-.78.64-1.21.04-.31,0-.78-.14-1.4l-.36-1.68-5.77,1.39h0Zm.5,7.31l7.58-1.68,1.15,5.79-.89.2-.94-4.73-2.32.52.88,4.43-.89.2-.88-4.43-2.58.57.98,4.92-.89.2-1.19-5.98h0Zm4.83,16.14l-.15,1.11c-.86-.13-1.54-.47-2.03-1.01-.5-.54-.79-1.23-.87-2.08-.08-.88.01-1.61.3-2.19.29-.59.74-1.06,1.35-1.41.61-.36,1.29-.57,2.02-.65.8-.09,1.52,0,2.15.26.63.26,1.13.67,1.5,1.24.37.56.59,1.2.66,1.92.08.81-.05,1.52-.39,2.12-.34.6-.85,1.04-1.54,1.34l-.34-1.03c.54-.25.92-.57,1.15-.96.22-.39.31-.85.25-1.4-.06-.63-.25-1.13-.58-1.52-.33-.39-.74-.64-1.23-.76-.49-.12-1-.15-1.5-.1-.66.07-1.22.23-1.69.49-.47.26-.8.61-1,1.06-.2.45-.28.93-.23,1.42.06.6.27,1.09.64,1.48.37.38.89.61,1.55.69h0Zm-2.6,5.06l7.65-3.44.04,1.17-5.56,2.32c-.44.19-.86.34-1.25.47.43.11.85.25,1.28.4l5.69,2.02.03,1.1-7.84-2.94-.03-1.11Z"/>
            <path class="cls-3" d="m344.61,254.73c-9.39-7.22-45.27-11.3-67.22-4.55-5.22,1.5-8.21,3.76-7.41,10.74,2.75,5.69,6.42,11.38,9.17,17.07,11.6-.83,22.06-3.13,33.4-1.62-2.49,4.79-3.56,8.72-6.05,13.51,5.63-.3,11.2-1.35,16.83-1.65,3.61-.19,7.28.38,10.89.19,5.68-.59,8.33-16.88,12.04-27.72.81-1.63.55-3.52-1.65-5.98Zm-14.85,32.43c-6.14-.44-13.42-.51-20.95,1,1.48-3.63,3.79-7.43,5.26-11.05,6.64,0,14.13,2.12,22.1,5.41,1.7,1.18-1.08,4.96-6.41,4.64Zm14.76-25.73c-2.32,6.56-4.64,13.12-6.95,19.68-18.6-8.14-37.73-9.65-57.42-3.89-2.55-5.39-5.1-10.78-7.66-16.18-1.22-4.11-.53-6.98,2.98-8.02,19.3-6.78,52.66-4.69,66.2,2.14,2.74,1.78,3.29,3.94,2.85,6.26Z"/>
            <path class="cls-3" d="m126.6,262.26c3.7,10.84,6.36,27.14,12.04,27.72,3.61.19,7.28-.38,10.89-.19,5.63.3,11.2,1.35,16.83,1.65-2.49-4.8-3.56-8.72-6.05-13.51,11.34-1.51,21.79.79,33.4,1.62,2.75-5.69,6.42-11.38,9.17-17.07.8-6.97-2.19-9.23-7.41-10.74-21.95-6.75-57.83-2.66-67.22,4.55-2.2,2.45-2.46,4.35-1.65,5.98Zm10.08,21.81c7.97-3.29,15.46-5.4,22.1-5.41,1.48,3.63,3.79,7.43,5.26,11.05-7.53-1.52-14.81-1.44-20.95-1-5.34.32-8.11-3.46-6.41-4.64Zm-5.51-27.35c13.54-6.83,46.91-8.92,66.2-2.14,3.51,1.04,4.2,3.91,2.98,8.02-2.55,5.39-5.11,10.78-7.66,16.18-19.69-5.76-38.81-4.24-57.42,3.89-2.32-6.56-4.64-13.12-6.95-19.68-.44-2.32.11-4.48,2.85-6.26Z"/>
            <path class="cls-9" d="m281.51,208.04l-12.8-.03.02-10.39h-10.72l-.02,10.36-12.61-.03.02-10.33h-17.87l-.02,10.28-12.56-.03.02-10.25h-10.72l-.02,10.22-13.23-.03v3.78s35.9.09,35.9.09c-.67.86-1.21,1.81-2.03,2.58-1.44,1.35-3.39,2.36-4.83,3.71-1.57.03-3.14.05-4.71.08-2.45,2.43-4.9,4.86-7.36,7.29.45.33.9.66,1.35.98,2.03-1.96,4.05-3.91,6.08-5.87.58.12,1.17.24,1.75.36.48,1.43.95,2.86,1.43,4.28,1.62.6,4.43-.69,5.59-4-1.2.31-2.42.46-3.75-.46.13-.48.27-.95.4-1.43,1.14,1.2,3.12.33,5.2-.39,1.57-.54,2.61-2.93,3.83-4.39-.59,2.96-2.94,4.85-4.74,6.93-1.13,1.31-1.63,3.21-1.67,4,2.1-1.26,4.2-1.62,6.3-1.05.96-1.69,1.81-2.92,2.64-3.83.82,1.13,1.64,2.26,2.47,3.39,1.25,1.13,3.24-.12,2.47-.44-.13-1.19-.26-2.38-.39-3.57.03-1.93,1.62-4.3,3.92-4,1.4,4.08,4.42,5.34,5.56,8.22.8-.06,1.6-.11,2.39-.17.14-2.42-3.52-5.23-4.21-8.12,2.86-.53,5.38.13,7.17,3.41,2.51.48,3.7,2.27,4.3,4.65,1.17-.03,2.34-.05,3.51-.08-.26-2.97-1.8-4.88-4.61-5.72.19-2.09-3.55-5.28-7.16-5.38-.56-.02-.98-.5-1.33-.94l35,.09v-3.78Z"/>
            <g>
              <path class="cls-3" d="m240.83,169.3c-.42,0-.83.02-1.24.05l-.02,9.31c.4.03.82.05,1.24.05,4.62.01,8.37-2.09,8.38-4.69,0-2.6-3.73-4.72-8.35-4.73Z"/>
              <path class="cls-3" d="m294.09,195.84l-16.97-40.12-16.97-40.12-8.26,19.27-15.64-38.28-15.61,37.69-8.01-18.67-16.97,40.12-16.97,40.12,16.46-.04-1.32,3.19,42.18.1,42.18.1-1.39-3.39,17.31.04Zm-97.71-3.06l-12.54-.03,14.63-34.38,14.17-33.01,5.9,13.93-3.52,8.5-18.64,45Zm65.3-17.58c-1.52,12.63-14.1,11.12-22.64,10.77.02,3.27.05,6.54.07,9.82-3.07-.04-6.13-.08-9.2-.12-.15-8.67-.29-17.35-.44-26.02-2.29-.1-4.33-.04-6.03-.62-5.09-1.76-7.44-5.67-6.26-12.95,1.95-8.43,10.24-11.53,18.3-11.86,8.09.48,14.17,3.2,17.85,8.64-2.73,2.32-6.18,3.53-9.97,4.24-2.28-2.67-5.18-3.97-8.98-3.27-4.49,1.44-4.45,5.25-.7,7.2,5.61.09,11.22.19,16.82.28,8.35,1.49,11.53,6.49,11.18,13.89Zm-4.48-27.31l-3.26-7.97,6.17-14.57,14.17,33.01,14.63,34.38-13.36.03-18.35-44.9Z"/>
            </g>
          </g>
        </g>
      </g>
    </g>
  </g>
</svg>