<?xml version="1.0" encoding="UTF-8"?>
<svg xmlns="http://www.w3.org/2000/svg" xmlns:xlink="http://www.w3.org/1999/xlink" viewBox="0 0 1138.5 456.57">
  <defs>
    <style>
      .cls-1, .cls-2 {
        fill: none;
      }

      .cls-3 {
        clip-path: url(#clippath);
      }

      .cls-4 {
        fill: #fff;
      }

      .cls-5 {
        isolation: isolate;
      }

      .cls-6 {
        mix-blend-mode: multiply;
        opacity: .15;
      }

      .cls-2 {
        stroke: #c5cad7;
        stroke-miterlimit: 10;
        stroke-width: .5px;
      }
    </style>
    <clipPath id="clippath">
      <path class="cls-1" d="m.07,346.61c.44,1.13.92,2.26,1.39,3.39,1.78.25,3.56.27,5.29.11,1.03-.1,2.07-1.17,2.73-2.32.94-1.66,1.54-3.79,2.29-5.72,4.11,1.14,8.21,2.28,12.32,3.42.22,3.9.91,7.32,4.13,8.2,2.34.64,4.66,1.03,6.86,3.44,2.94.59,5.87,1.5,8.75,2.68.38-.16.8-.63,1.06-1.22,1.22.93,2.38,1.89,3.72,2.75,1.81,1.16,3.59,2.08,5.36,3.02-.36.14-.82.11-1.21.19,5.82,3.96,10.79,9.37,14.09,16.1,2.49.73,4.59,1.85,6.35,3.29,1.01-.04,1.97-.18,3.07-.08,4.46.41,9.01,3.55,13.49,6.9,5.86-1.02,11.97-.62,18.38,2.04.29.12.51.28.79.41.71-.32,1.43-.66,2.14-1,1.36-.73,2.78-1.35,4.3-1.84,1.64-.62,3.36-1.15,5.3-1.43,0,.08,0,.15,0,.23.53-.07,1.09-.09,1.63-.13.05-.61.17-1.21.32-1.69.85-2.75,2.81-3.43,4.54-4.49,1.2-.74,2.32.37,3.46,1.23,1.15.87,2.32,1.68,3.51,2.38.85.5,2.37-.97,2.54-2.51.26-2.3.48-4.63.72-6.94,4.93,1.37,9.85,2.74,14.78,4.11.14,1.73.67,3.75.34,5.12-.49,2.07-1.65,3.61-2.39,5.51-.48,1.23.62,4.56,1.47,4.62,3.21.22,6.42-.11,9.44,3.62,3.13-.64,6.34.6,9.56,1.43,2.39.62,4.66.42,7.15,2.08,2.29,1.53,4.76,1.42,6.97.07,3.36-2.04,6.01.11,7.94,5.3.26-3.05,1.75-5.52.92-9.34-.67-3.13.77-5.44,2.93-6.07,6.57,1.83,13.14,3.65,19.71,5.48,1.53,6.4,1.53,6.43,4.77,7.3.81.22,1.65,0,2.42.41,1.3.68,2.17,2.32,2.26,4.25.08,1.79-.16,3.57-1.31,4.41-.33.24-.67.58-1.04.59-1.19.03-2.4.16-3.6-.18-.03,0-.07-.03-.1-.04,1.11,4.15,2.39,8.33,3.59,12.5.87.86,1.97.38,2.98.4,4.06.1,7.68-1.83,11.52-2.68,1.16-.26,2.06-1.75,2.98-3.06,8,5.11,17.95,6.01,23.93,2.46.95.53,1.91.92,2.91.73,1.7-.31,2.23,1.72,2.62,3.27.91,3.61,2.74,4.92,4.81,5.64,1.2.42,2.45.54,3.6.38,1.16-.16,2.31-.61,3.31-1.32,4-2.8,8.21-2.44,12.71,1.14.76.61,1.53,1.3,2.32,1.7,3.3,1.69,6.42,2.74,8.74-1.37.31-.55.71-.83,1.14-.99-.22-.96-.31-1.93-.05-2.83.63-2.19,1.7-3.91,2.58-5.84,4.64.9,7.79-1.78,11.7-2.64,2.27,1.86,4.37,3.5,3.22-1.67-.19-.83.35-1.85.89-2.04,1.37-.47,2.9-.58,4.43-.66.26-.02.86.7,1.22,1.21,3.03,4.3,6.39,8.25,8.65,13.43.26.6.57,1.62.43,1.83-.53.79-1.16,1.47-1.74,2.18-.36,3.22-.84,5.53-1.58,7.13.87.22,1.74.45,2.6.65h5.42c.65-.25,1.27-.58,1.8-1.16.32-.35,1.52.6,2.33,1.16h775.03s0-321.91,0-321.91c-.66-.05-1.31-.08-1.99-.19-2.36-.36-3.79.4-4.89,1.98-.22.31-.44.62-.66.94-1.62.32-3.16.79-4.66,1.37-.04-.04-.08-.08-.11-.12-2.15,1.18-4.51,2.14-7.12,2.77.11.41.21.82.32,1.22-1.68,1.31-2.85,2.77-3.52,4.34-2.35-1.84-4.66-3.53-6.87-4.55-7.41-.11-15.28-2.05-22.34-5.93-.15.25-.3.51-.43.79l-6.36-3.16c-.67-1.31-1.33-2.62-2.01-3.92-1.55-1.45-2.97-3.07-4.29-4.8-.44-.11-.87-.11-1.27.07-.95.43-1.59,1.4-2.57,1.76-1.26.46-3.62-1.18-5.22-3.27-1.41-1.83-1.63-3.38-1.64-4.92,0-.5.07-.96.02-1.49-.32-3.35-.57-3.95-3.36-4.59-2.57-.59-4.39-2.13-6.16-5.43-.57-1.07-1.18-2.13-1.78-3.19-1.8-.03-3.57.16-5.27.53-1.01.22-1.92,1.42-2.43,2.64-.74,1.76-1.08,3.95-1.59,5.96-4.21-.64-8.42-1.27-12.64-1.91-.68-3.84-1.78-7.16-5.08-7.64-2.4-.35-4.75-.46-7.22-2.59-2.99-.23-6-.78-9.01-1.6-.36.2-.72.72-.91,1.34-1.32-.77-2.59-1.59-4.02-2.28-1.94-.93-3.81-1.63-5.68-2.34.34-.18.8-.21,1.18-.34-6.25-3.23-11.82-7.99-15.9-14.28-2.56-.42-4.77-1.28-6.7-2.49-1,.17-1.94.42-3.04.45-4.48.13-9.37-2.44-14.21-5.22-5.7,1.72-11.81,2.06-18.49.2-.3-.08-.54-.22-.83-.31-.67.41-1.34.83-2.01,1.25-1.27.89-2.6,1.68-4.05,2.35-1.55.81-3.2,1.55-5.09,2.06-.01-.07-.02-.15-.03-.22-.52.13-1.07.22-1.6.33.02.61-.03,1.22-.12,1.72-.51,2.83-2.38,3.74-3.97,5.01-1.11.88-2.34-.09-3.59-.8-1.25-.72-2.51-1.39-3.77-1.94-.9-.4-2.24,1.25-2.23,2.8.01,2.32.07,4.65.11,6.98-5.05-.76-10.11-1.53-15.16-2.29-.35-1.7-1.11-3.64-.95-5.04.24-2.11,1.21-3.78,1.72-5.76.33-1.28-1.15-4.45-2.01-4.4-3.21.17-6.36.89-9.81-2.45-3.03,1.01-6.36.18-9.66-.26-2.44-.33-4.68.15-7.35-1.2-2.46-1.24-4.89-.83-6.93.77-3.09,2.43-5.98.62-8.51-4.3.1,3.06-1.08,5.69.19,9.39,1.04,3.02-.12,5.49-2.18,6.38-6.74-1.02-13.48-2.04-20.22-3.05-2.29-6.17-2.29-6.19-5.61-6.66-.83-.12-1.63.2-2.45-.11-1.37-.52-2.43-2.04-2.75-3.94-.3-1.77-.27-3.57.78-4.53.3-.28.6-.66.96-.71,1.18-.17,2.36-.45,3.59-.26.03,0,.07.02.1.02-1.6-3.99-3.36-7.98-5.05-11.97-.97-.75-2-.14-3.01-.04-4.05.39-7.4,2.75-11.12,4.05-1.12.39-1.83,1.99-2.59,3.39-8.55-4.11-18.54-3.79-24.05.45-1.01-.41-2.01-.68-2.98-.38-1.65.51-2.42-1.44-2.99-2.93-1.33-3.48-3.31-4.55-5.45-5.02-1.24-.27-2.5-.24-3.62.06-1.13.3-2.22.89-3.13,1.71-3.63,3.26-7.86,3.42-12.75.41-.83-.51-1.67-1.1-2.51-1.41-3.47-1.27-6.7-1.94-8.51,2.42-.24.59-.61.91-1.01,1.12.33.92.54,1.88.39,2.8-.37,2.25-1.22,4.09-1.86,6.11-4.71-.34-7.53,2.71-11.3,4.04-2.48-1.57-4.76-2.95-3,2.05.28.81-.13,1.88-.64,2.13-1.3.63-2.81.92-4.32,1.2-.26.05-.94-.59-1.35-1.05-3.52-3.91-7.32-7.42-10.19-12.28-.33-.56-.76-1.54-.65-1.77.44-.85.97-1.6,1.47-2.38-.03-3.24.17-5.59.72-7.27-3.72-.47-7.57-1.21-9.69,1.69-.28.39-1.62-.44-2.49-.89-.42-.22-.91-.85-1.34-1.35-9.54-11.09-9.7-11.32-15.19-6.82-1.81,1.48-3.93.09-6.2-1.9-1.67-1.47-3.3-3.22-4.89-5.02-.56.81-1.07,1.66-1.27,2.82-.41-.27-.86-.76-1.23-.79-8.54-.54-17.19-2.21-25.95-4.8-1.61-.48-3.27-.3-4.75.1-4,1.1-8-.3-12.1-3.92-.04-.03-.09-.05-.12-.08h-4.63c-.22.53-.4,1.19-.55,2.06-.48,2.96-1.99,4.11-3.36,5.62-1.19,1.31-2.79,1.35-4.56.38-.09-.59-.19-1.18-.26-1.77-.29-2.55-1.16-4.6-2.4-6.28h-9.43c-1.53,2.23-2.8,4.86-4.13,7.38-.08.16-.05.38-.12.55-6.39-1.67-12.82-1.21-17.11,2.64-1.69-.79-3.47-1.32-5.23-1.94-4.58-2.82-9.86-4.19-14.77-4.22.19-.75.38-1.5.71-2.07-6.15,1.11-13.08.78-19.9-1.08-2.93,2.15-6.64,3.59-10.7,4.46-3.23-.45-6.3-.21-9.13.43-2.17-.4-4.32-.5-6.4-.41-5.4-.82-10.86-2.27-15.91-5.07-1.49-.23-2.99-.45-4.48-.68H0S0,346.45,0,346.45c.02.06.05.1.07.16Z"/>
    </clipPath>
  </defs>
  <g class="cls-5">
    <g id="Capa_2" data-name="Capa 2">
      <g id="Capa_1-2" data-name="Capa 1">
        <g>
          <path class="cls-6" d="m1118.84,81.33c-1.38.68-2.76,1.49-4.1,2.44-.76.54-1.44.93-2.12,1.22-.77.33-1.52.7-2.27,1.1-.88.05-1.78.15-2.69.33-4.31.82-8.68.58-12.32-.67-.84-.29-1.71-.49-2.59-.63-.51-.55-1.06-1.05-1.66-1.5-.56-.42-1.17-1.01-1.82-1.76-2.08-2.39-4.99-3.88-8.41-4.35-2.25-4.96-6.36-7.17-10.73-7.96l-.24-.37c-3.42-5.21-10.25-7.23-17.94-5.45-3.48.81-7.02,1.93-10.52,3.35-1.93.78-3.78,1.73-5.53,2.81-3.38-1.07-6.65-1.23-8.88-1.16-2.81-.96-5.97-1.32-9.25-1.03-1.67.14-3.45.13-5.32-.04-1-.09-2.01-.12-3.02-.09-.78-.36-1.59-.67-2.45-.93-3.41-1.06-6.12-2.79-8.04-5.14-3.2-3.89-8.28-6.32-14.07-6.77-4.13-1.78-8.95-2.34-13.7-1.61-.83-.31-2.13-.85-4.16-1.81-5.17-2.44-11.32-3.06-17.01-1.74-2.23.52-4.16.52-6.35.01-.22-.08-.45-.15-.68-.23-6.02-1.95-12.55-1.74-17.9.58-.77.33-1.55.67-2.33,1.02-.29.13-.57.26-.85.4-.33.16-.63.28-.9.36-.25.07-.5.15-.74.23-.15.01-.29.03-.44.04l-.91.06c-3.06.22-5.84.97-8.22,2.14-.41-.04-.82-.06-1.23-.08-.51-.53-1.03-1.03-1.58-1.52-4.34-3.86-9.83-6.35-15.55-7.05-4.34-2.47-9.31-3.77-14.1-3.61-.27-.07-.54-.15-.81-.22-.75-.2-1.5-.39-2.25-.57-1.14-.28-2.24-.49-3.35-.68-3.91-1.79-7.99-2.81-11.99-3.03-4.8-3-10.55-4.45-16.09-3.67-1.99.31-3.85.88-5.53,1.67-.25-.53-.5-1.07-.75-1.6l-1.74-3.76c-1.47-3.26-3.77-6.23-6.65-8.64-3.84-3.2-10.17-6.92-18.86-6.34-5.46-.13-9.68,1.14-12.52,1.99-.61.18-1.2.39-1.83.51-.01,0-.02,0-.03,0-5.04-1.78-10.08-2.74-14.84-2.82-3.06-3-6.63-5.36-10.6-6.95-4.18-1.67-8.57-2.28-12.69-1.75-1.56.2-3.08.57-4.54,1.09-.33-.19-.68-.39-1.04-.57-12.18-6.2-22.1-3.39-28.48,3.26-3.07-5.37-8.19-8.96-14.03-9.87,0,0-10.75.47-29.95,1.95-9.72.71-21.52,1.46-35.06,2.01-12.35.51-26.05.77-40.88.77-14.94.16-31.08.34-48.15.67-8.56.17-17.36.42-26.35.76-9.01.34-18.21.79-27.57,1.34-9.38.55-18.9,1.21-28.53,1.93-9.66.72-19.41,1.39-29.23,1.95-9.84.56-19.75.97-29.67,1.29-9.62.31-19.25.56-28.87.8-9.62.25-19.25.51-28.87.81-9.62.29-19.24.61-28.85.95-9.61.34-19.23.72-28.83,1.14-9.6.42-19.21.86-28.78,1.33-9.58.46-19.1.84-28.53,1.08-9.43.24-18.76.37-27.97.39-9.21.02-18.28-.03-27.18-.16-8.9-.13-17.63-.32-26.14-.51-8.51-.2-16.81-.4-24.85-.56-16.08-.32-31.14-.47-44.92-.36-13.77.14-26.3.44-37.35.8-11.05.36-20.63.7-28.49.97C8.86,19.89,0,20.2,0,20.2,0,20.2,0,66.65,0,126.9c0,15.06.04,30.95.21,46.99.18,16.03.51,32.17,1.02,47.92.52,15.75,1.11,31.23,1.7,46.06s1.16,29.04,1.63,42.22c.54,15,.88,28.74,1.13,40.36.23,23.57.23,38.47.23,38.47,2.98.07,6.03-.11,9.09-.67,1.98-.37,3.91-.97,5.75-1.79,3.24,2.04,6.46,2.92,8.7,3.29,2.68,1.65,5.79,2.63,9.11,2.82,1.69.1,3.49.36,5.35.8,1,.23,2.01.39,3.04.46.74.5,1.53.95,2.37,1.35,3.35,1.56,5.91,3.79,7.6,6.65,2.8,4.73,7.75,7.68,13.7,8.13,4.05,1.93,8.99,2.3,14.03,1.05.82.28,2.1.79,4.08,1.67,5.05,2.25,11.37,2.1,17.48-.34,2.39-.96,4.41-1.29,6.61-1.09.23.05.45.1.69.14,5.99,1.12,12.79-.39,18.62-4.08.85-.54,1.7-1.08,2.55-1.62.31-.2.62-.4.92-.61.36-.25.68-.44.97-.59.27-.13.53-.27.8-.41.15-.04.3-.09.45-.13l.96-.25c3.17-.83,6.11-2.2,8.69-3.95.41-.03.82-.08,1.23-.13,3.75,4.05,9.31,6.7,16.47,6.41,4.1,2,8.97,2.67,13.8,1.88.26.04.52.09.78.14.73.13,1.45.25,2.18.37,1.1.18,2.17.3,3.24.41,3.65,1.6,7.52,2.47,11.37,2.59,4.27,3.1,9.61,4.71,14.95,4.15,1.92-.2,3.74-.66,5.42-1.35.17.57.34,1.15.51,1.72l1.17,4.07c.97,3.57,2.74,6.93,5.13,9.76.58.69,1.26,1.4,2,2.12,0,0,8.39.88,23.28,2.9,7.44,1.01,16.46,2.42,26.91,4.09,10.45,1.67,22.41,3.48,35.87,5.07,13.47,1.59,28.69,2.48,45.53,2.32,8.55-.01,17.38-.07,26.44.09,11.72.45,23.86,1.23,36.33,2.37,12.43,1.14,25.22,2.51,38.33,3.91,13.07,1.39,26.5,2.6,40.27,3.34,13.73.74,27.84.77,42.23.32,14.35-.49,28.89-.99,43.55-1.5,65.4-2.25,133.13-4.58,197.48-6.79,12.76-.44,25.4-.87,37.85-1.3,12.41-.43,24.47-.84,36.08-1.22,11.57-.38,22.76-.75,33.59-1.11,10.81-.36,21.34-.71,31.63-1.05,10.26-.34,20.32-.68,30.21-1.03,13.94-.48,27.57-.96,40.83-1.42,13.19-.46,25.76-.92,37.46-1.36,11.67-.44,22.51-.86,32.38-1.24,9.85-.38,18.72-.72,26.46-1.01,7.73-.29,14.33-.53,19.68-.71,10.68-.37,16.48-.57,16.48-.57,0,0-.09-8.14-.28-21.94-.1-6.9-.22-15.21-.33-24.6-.12-9.4-.26-19.87-.53-31.09-.26-11.23-.6-23.17-.84-35.58-.35-12.4-.5-25.27-.48-38.35.02-13.09.21-26.43.58-39.77.38-13.35.99-26.71,1.82-39.79.55-8.73,1.24-17.37,2.02-25.8.78-8.43,1.63-16.64,2.5-24.54,1.76-15.8,3.38-30.15,4.76-42.27,2.74-24.15,4.66-39.18,4.66-39.18-6.94.16-13.86,3.12-19.66,8.27Z"/>
          <g>
            <path class="cls-4" d="m1105.17,108.26c-1.31.46-2.6,1.05-3.85,1.78-.71.41-1.34.69-2.01.88-.74.21-1.46.46-2.17.74-.89-.08-1.79-.11-2.7-.07-4.29.16-8.77-.77-12.6-2.61-.88-.42-1.79-.78-2.7-1.06-.57-.64-1.18-1.24-1.83-1.8-.61-.52-1.28-1.23-2.01-2.1-2.32-2.8-5.39-4.88-8.87-6.04-2.64-5.55-6.88-8.72-11.28-10.49l-.26-.44c-3.7-6.17-10.53-9.78-17.97-9.54-3.37.11-6.79.61-10.15,1.48-1.86.48-3.64,1.17-5.31,2.04-3.32-1.71-6.49-2.39-8.66-2.64-2.73-1.44-5.78-2.23-8.96-2.3-1.61-.03-3.34-.23-5.15-.58-.97-.19-1.95-.3-2.93-.35-.76-.45-1.55-.85-2.39-1.19-3.34-1.37-6.01-3.37-7.92-5.96-3.18-4.29-8.19-6.91-13.86-7.27-4.05-1.73-8.76-2.05-13.38-.93-.81-.26-2.08-.72-4.05-1.53-5.03-2.06-11.01-1.99-16.54.14-2.17.83-4.05,1.11-6.17.89-.22-.05-.44-.09-.66-.14-5.83-1.12-12.18.13-17.41,3.36-.75.47-1.52.94-2.28,1.42-.28.18-.56.36-.83.54-.33.22-.61.39-.88.52-.24.12-.48.23-.72.36-.14.04-.28.07-.42.11l-.89.21c-2.98.7-5.7,1.91-8.05,3.48-.4.03-.8.06-1.2.1-.48-.46-.99-.9-1.52-1.31-4.17-3.27-9.48-4.96-15.06-4.85-4.19-1.87-9.04-2.53-13.73-1.82-.26-.04-.52-.08-.79-.12-.73-.11-1.46-.22-2.19-.33-1.11-.15-2.19-.26-3.27-.33-3.81-1.39-7.8-2.06-11.73-2.02-4.68-2.64-10.33-3.84-15.81-3.06-1.97.28-3.81.79-5.49,1.51-.24-.51-.48-1.02-.72-1.52l-1.68-3.58c-1.43-3.1-3.69-5.95-6.56-8.28-3.82-3.1-10.19-6.7-19.01-6.29-5.58-.19-9.91.96-12.84,1.73-.63.16-1.24.36-1.89.46-.01,0-.02,0-.03,0-5.21-1.7-10.44-2.64-15.39-2.76-3.21-2.87-6.95-5.17-11.12-6.78-4.39-1.7-8.98-2.44-13.28-2.1-1.62.12-3.21.41-4.73.84-.35-.2-.72-.4-1.1-.59-12.81-6.56-23.06-4.48-29.52,1.51-3.26-5.38-8.59-9.21-14.58-10.52,0,0-10.86-.36-29.9-.39-9.52,0-21.07,0-34.33,0-172.32,0-631.84,0-631.84,0v352.49c2.87.3,5.78.38,8.71.11,1.89-.18,3.73-.59,5.48-1.21,3.06,2.24,6.11,3.38,8.22,3.95,2.51,1.85,5.42,3.09,8.54,3.62,1.58.26,3.26.71,4.99,1.33.93.33,1.87.59,2.83.77.69.57,1.42,1.09,2.19,1.56,3.1,1.88,5.45,4.32,6.99,7.26,2.55,4.89,7.1,8.3,12.59,9.45,3.72,2.35,8.26,3.29,12.92,2.69.76.37,1.93,1.01,3.74,2.1,4.63,2.78,10.46,3.38,16.14,1.7,2.23-.66,4.1-.76,6.14-.32.21.07.42.14.64.21,5.54,1.75,11.91.96,17.48-2.13.81-.45,1.63-.91,2.45-1.38.3-.17.6-.35.89-.53.35-.22.66-.38.93-.5.26-.11.51-.22.77-.34.14-.03.29-.06.43-.09l.92-.17c3.03-.57,5.87-1.7,8.4-3.27.39,0,.79-.02,1.18-.04,3.39,4.41,8.61,7.49,15.52,7.67,3.89,2.26,8.61,3.2,13.39,2.62.26.06.51.11.77.17.71.15,1.43.31,2.14.45,1.08.22,2.15.37,3.22.5,3.61,1.68,7.51,2.58,11.46,2.7,4.32,3.09,9.84,4.65,15.48,4.07,2.03-.21,3.97-.67,5.77-1.36.17.56.34,1.13.51,1.69l1.19,3.98c1.01,3.45,2.9,6.66,5.5,9.33.63.65,1.37,1.32,2.18,1.99,0,0,9.13.76,25.57,2.6,8.22.92,18.26,2.25,29.9,3.87,11.64,1.62,24.88,3.44,39.49,5.16,14.61,1.72,30.59,3,47.71,3.52,8.56.22,17.41.26,26.51.3,263.97,0,743.9,0,743.9,0,0,0,0-123.55,0-222.39,0-16.47,0-32.26,0-46.64,0-14.38,0-27.32-.01-38.19-.01-21.74-.02-35.33-.02-35.33-6.84-.48-13.35,1.5-18.53,5.64Z"/>
            <path class="cls-4" d="m.07,346.61c.44,1.13.92,2.26,1.39,3.39,1.78.25,3.56.27,5.29.11,1.03-.1,2.07-1.17,2.73-2.32.94-1.66,1.54-3.79,2.29-5.72,4.11,1.14,8.21,2.28,12.32,3.42.22,3.9.91,7.32,4.13,8.2,2.34.64,4.66,1.03,6.86,3.44,2.94.59,5.87,1.5,8.75,2.68.38-.16.8-.63,1.06-1.22,1.22.93,2.38,1.89,3.72,2.75,1.81,1.16,3.59,2.08,5.36,3.02-.36.14-.82.11-1.21.19,5.82,3.96,10.79,9.37,14.09,16.1,2.49.73,4.59,1.85,6.35,3.29,1.01-.04,1.97-.18,3.07-.08,4.46.41,9.01,3.55,13.49,6.9,5.86-1.02,11.97-.62,18.38,2.04.29.12.51.28.79.41.71-.32,1.43-.66,2.14-1,1.36-.73,2.78-1.35,4.3-1.84,1.64-.62,3.36-1.15,5.3-1.43,0,.08,0,.15,0,.23.53-.07,1.09-.09,1.63-.13.05-.61.17-1.21.32-1.69.85-2.75,2.81-3.43,4.54-4.49,1.2-.74,2.32.37,3.46,1.23,1.15.87,2.32,1.68,3.51,2.38.85.5,2.37-.97,2.54-2.51.26-2.3.48-4.63.72-6.94,4.93,1.37,9.85,2.74,14.78,4.11.14,1.73.67,3.75.34,5.12-.49,2.07-1.65,3.61-2.39,5.51-.48,1.23.62,4.56,1.47,4.62,3.21.22,6.42-.11,9.44,3.62,3.13-.64,6.34.6,9.56,1.43,2.39.62,4.66.42,7.15,2.08,2.29,1.53,4.76,1.42,6.97.07,3.36-2.04,6.01.11,7.94,5.3.26-3.05,1.75-5.52.92-9.34-.67-3.13.77-5.44,2.93-6.07,6.57,1.83,13.14,3.65,19.71,5.48,1.53,6.4,1.53,6.43,4.77,7.3.81.22,1.65,0,2.42.41,1.3.68,2.17,2.32,2.26,4.25.08,1.79-.16,3.57-1.31,4.41-.33.24-.67.58-1.04.59-1.19.03-2.4.16-3.6-.18-.03,0-.07-.03-.1-.04,1.11,4.15,2.39,8.33,3.59,12.5.87.86,1.97.38,2.98.4,4.06.1,7.68-1.83,11.52-2.68,1.16-.26,2.06-1.75,2.98-3.06,8,5.11,17.95,6.01,23.93,2.46.95.53,1.91.92,2.91.73,1.7-.31,2.23,1.72,2.62,3.27.91,3.61,2.74,4.92,4.81,5.64,1.2.42,2.45.54,3.6.38,1.16-.16,2.31-.61,3.31-1.32,4-2.8,8.21-2.44,12.71,1.14.76.61,1.53,1.3,2.32,1.7,3.3,1.69,6.42,2.74,8.74-1.37.31-.55.71-.83,1.14-.99-.22-.96-.31-1.93-.05-2.83.63-2.19,1.7-3.91,2.58-5.84,4.64.9,7.79-1.78,11.7-2.64,2.27,1.86,4.37,3.5,3.22-1.67-.19-.83.35-1.85.89-2.04,1.37-.47,2.9-.58,4.43-.66.26-.02.86.7,1.22,1.21,3.03,4.3,6.39,8.25,8.65,13.43.26.6.57,1.62.43,1.83-.53.79-1.16,1.47-1.74,2.18-.36,3.22-.84,5.53-1.58,7.13.87.22,1.74.45,2.6.65h5.42c.65-.25,1.27-.58,1.8-1.16.32-.35,1.52.6,2.33,1.16h775.03s0-321.91,0-321.91c-.66-.05-1.31-.08-1.99-.19-2.36-.36-3.79.4-4.89,1.98-.22.31-.44.62-.66.94-1.62.32-3.16.79-4.66,1.37-.04-.04-.08-.08-.11-.12-2.15,1.18-4.51,2.14-7.12,2.77.11.41.21.82.32,1.22-1.68,1.31-2.85,2.77-3.52,4.34-2.35-1.84-4.66-3.53-6.87-4.55-7.41-.11-15.28-2.05-22.34-5.93-.15.25-.3.51-.43.79l-6.36-3.16c-.67-1.31-1.33-2.62-2.01-3.92-1.55-1.45-2.97-3.07-4.29-4.8-.44-.11-.87-.11-1.27.07-.95.43-1.59,1.4-2.57,1.76-1.26.46-3.62-1.18-5.22-3.27-1.41-1.83-1.63-3.38-1.64-4.92,0-.5.07-.96.02-1.49-.32-3.35-.57-3.95-3.36-4.59-2.57-.59-4.39-2.13-6.16-5.43-.57-1.07-1.18-2.13-1.78-3.19-1.8-.03-3.57.16-5.27.53-1.01.22-1.92,1.42-2.43,2.64-.74,1.76-1.08,3.95-1.59,5.96-4.21-.64-8.42-1.27-12.64-1.91-.68-3.84-1.78-7.16-5.08-7.64-2.4-.35-4.75-.46-7.22-2.59-2.99-.23-6-.78-9.01-1.6-.36.2-.72.72-.91,1.34-1.32-.77-2.59-1.59-4.02-2.28-1.94-.93-3.81-1.63-5.68-2.34.34-.18.8-.21,1.18-.34-6.25-3.23-11.82-7.99-15.9-14.28-2.56-.42-4.77-1.28-6.7-2.49-1,.17-1.94.42-3.04.45-4.48.13-9.37-2.44-14.21-5.22-5.7,1.72-11.81,2.06-18.49.2-.3-.08-.54-.22-.83-.31-.67.41-1.34.83-2.01,1.25-1.27.89-2.6,1.68-4.05,2.35-1.55.81-3.2,1.55-5.09,2.06-.01-.07-.02-.15-.03-.22-.52.13-1.07.22-1.6.33.02.61-.03,1.22-.12,1.72-.51,2.83-2.38,3.74-3.97,5.01-1.11.88-2.34-.09-3.59-.8-1.25-.72-2.51-1.39-3.77-1.94-.9-.4-2.24,1.25-2.23,2.8.01,2.32.07,4.65.11,6.98-5.05-.76-10.11-1.53-15.16-2.29-.35-1.7-1.11-3.64-.95-5.04.24-2.11,1.21-3.78,1.72-5.76.33-1.28-1.15-4.45-2.01-4.4-3.21.17-6.36.89-9.81-2.45-3.03,1.01-6.36.18-9.66-.26-2.44-.33-4.68.15-7.35-1.2-2.46-1.24-4.89-.83-6.93.77-3.09,2.43-5.98.62-8.51-4.3.1,3.06-1.08,5.69.19,9.39,1.04,3.02-.12,5.49-2.18,6.38-6.74-1.02-13.48-2.04-20.22-3.05-2.29-6.17-2.29-6.19-5.61-6.66-.83-.12-1.63.2-2.45-.11-1.37-.52-2.43-2.04-2.75-3.94-.3-1.77-.27-3.57.78-4.53.3-.28.6-.66.96-.71,1.18-.17,2.36-.45,3.59-.26.03,0,.07.02.1.02-1.6-3.99-3.36-7.98-5.05-11.97-.97-.75-2-.14-3.01-.04-4.05.39-7.4,2.75-11.12,4.05-1.12.39-1.83,1.99-2.59,3.39-8.55-4.11-18.54-3.79-24.05.45-1.01-.41-2.01-.68-2.98-.38-1.65.51-2.42-1.44-2.99-2.93-1.33-3.48-3.31-4.55-5.45-5.02-1.24-.27-2.5-.24-3.62.06-1.13.3-2.22.89-3.13,1.71-3.63,3.26-7.86,3.42-12.75.41-.83-.51-1.67-1.1-2.51-1.41-3.47-1.27-6.7-1.94-8.51,2.42-.24.59-.61.91-1.01,1.12.33.92.54,1.88.39,2.8-.37,2.25-1.22,4.09-1.86,6.11-4.71-.34-7.53,2.71-11.3,4.04-2.48-1.57-4.76-2.95-3,2.05.28.81-.13,1.88-.64,2.13-1.3.63-2.81.92-4.32,1.2-.26.05-.94-.59-1.35-1.05-3.52-3.91-7.32-7.42-10.19-12.28-.33-.56-.76-1.54-.65-1.77.44-.85.97-1.6,1.47-2.38-.03-3.24.17-5.59.72-7.27-3.72-.47-7.57-1.21-9.69,1.69-.28.39-1.62-.44-2.49-.89-.42-.22-.91-.85-1.34-1.35-9.54-11.09-9.7-11.32-15.19-6.82-1.81,1.48-3.93.09-6.2-1.9-1.67-1.47-3.3-3.22-4.89-5.02-.56.81-1.07,1.66-1.27,2.82-.41-.27-.86-.76-1.23-.79-8.54-.54-17.19-2.21-25.95-4.8-1.61-.48-3.27-.3-4.75.1-4,1.1-8-.3-12.1-3.92-.04-.03-.09-.05-.12-.08h-4.63c-.22.53-.4,1.19-.55,2.06-.48,2.96-1.99,4.11-3.36,5.62-1.19,1.31-2.79,1.35-4.56.38-.09-.59-.19-1.18-.26-1.77-.29-2.55-1.16-4.6-2.4-6.28h-9.43c-1.53,2.23-2.8,4.86-4.13,7.38-.08.16-.05.38-.12.55-6.39-1.67-12.82-1.21-17.11,2.64-1.69-.79-3.47-1.32-5.23-1.94-4.58-2.82-9.86-4.19-14.77-4.22.19-.75.38-1.5.71-2.07-6.15,1.11-13.08.78-19.9-1.08-2.93,2.15-6.64,3.59-10.7,4.46-3.23-.45-6.3-.21-9.13.43-2.17-.4-4.32-.5-6.4-.41-5.4-.82-10.86-2.27-15.91-5.07-1.49-.23-2.99-.45-4.48-.68H0S0,346.45,0,346.45c.02.06.05.1.07.16Z"/>
            <g class="cls-3">
              <g>
                <g>
                  <line class="cls-2" x1="74.93" y1="-102.77" x2="74.93" y2="506.5"/>
                  <line class="cls-2" x1="157.26" y1="-102.77" x2="157.26" y2="506.5"/>
                  <line class="cls-2" x1="239.59" y1="-102.77" x2="239.59" y2="506.5"/>
                  <line class="cls-2" x1="321.91" y1="-102.77" x2="321.91" y2="506.5"/>
                  <line class="cls-2" x1="404.24" y1="-102.77" x2="404.24" y2="506.5"/>
                  <line class="cls-2" x1="486.57" y1="-102.77" x2="486.57" y2="506.5"/>
                  <line class="cls-2" x1="568.9" y1="-102.77" x2="568.9" y2="506.5"/>
                  <line class="cls-2" x1="651.22" y1="-102.77" x2="651.22" y2="506.5"/>
                  <line class="cls-2" x1="733.55" y1="-102.77" x2="733.55" y2="506.5"/>
                  <line class="cls-2" x1="815.88" y1="-102.77" x2="815.88" y2="506.5"/>
                  <line class="cls-2" x1="898.2" y1="-102.77" x2="898.2" y2="506.5"/>
                  <line class="cls-2" x1="980.53" y1="-102.77" x2="980.53" y2="506.5"/>
                  <line class="cls-2" x1="1062.86" y1="-102.77" x2="1062.86" y2="506.5"/>
                </g>
                <g>
                  <line class="cls-2" x1="1227.51" y1="6.05" x2="-89.72" y2="6.05"/>
                  <line class="cls-2" x1="1227.51" y1="83.32" x2="-89.72" y2="83.32"/>
                  <line class="cls-2" x1="1227.51" y1="160.59" x2="-89.72" y2="160.59"/>
                  <line class="cls-2" x1="1227.51" y1="237.85" x2="-89.72" y2="237.85"/>
                  <line class="cls-2" x1="1227.51" y1="315.12" x2="-89.72" y2="315.12"/>
                  <line class="cls-2" x1="1227.51" y1="392.39" x2="-89.72" y2="392.39"/>
                </g>
              </g>
            </g>
          </g>
        </g>
      </g>
    </g>
  </g>
</svg>