<?xml version="1.0" encoding="UTF-8"?>
<svg xmlns="http://www.w3.org/2000/svg" xmlns:xlink="http://www.w3.org/1999/xlink" viewBox="0 0 851.87 415.45">
  <defs>
    <style>
      .cls-1, .cls-2 {
        fill: none;
      }

      .cls-3 {
        clip-path: url(#clippath);
      }

      .cls-4 {
        fill: #fff;
      }

      .cls-2 {
        stroke: #a1b6d6;
        stroke-miterlimit: 10;
        stroke-width: .75px;
      }

      .cls-5 {
        fill: url(#Degradado_sin_nombre_50);
      }

      .cls-6 {
        isolation: isolate;
      }

      .cls-7 {
        mix-blend-mode: multiply;
        opacity: .15;
      }
    </style>
    <linearGradient id="Degradado_sin_nombre_50" data-name="Degradado sin nombre 50" x1="514.33" y1="433.05" x2="329.76" y2="-65.58" gradientUnits="userSpaceOnUse">
      <stop offset="0" stop-color="#f8f8f8"/>
      <stop offset="1" stop-color="#e5e5e5"/>
    </linearGradient>
    <clipPath id="clippath">
      <path class="cls-1" d="m243.99,0c-.11.14-.18.29-.3.43-.68.89-1.44,1.78-2.43,2.61-.03-.04-.06-.07-.09-.11-.27.23-.58.43-.87.65.21.32.38.67.49.96.61,1.68-.23,2.72-.79,3.87-.39.8-1.46.64-2.45.62-1-.02-1.98-.01-2.93.06-.68.05-.96,1.33-.44,2.17.77,1.25,1.56,2.49,2.35,3.74-3.33,1.07-6.66,2.15-9.99,3.22-.77-.81-1.86-1.64-2.22-2.44-.54-1.21-.5-2.4-.83-3.61-.21-.79-2.16-2.06-2.66-1.79-1.9,1.03-3.59,2.35-6.78,1.56-1.52,1.44-3.82,1.96-5.97,2.7-1.59.54-2.8,1.46-4.87,1.51-1.9.05-3.25.99-3.97,2.45-1.09,2.22-3.45,2.09-6.59.18,1.06,1.62,1.2,3.39,3.18,5.01,1.62,1.33,1.72,3,.75,4.09-4.44,1.43-8.88,2.86-13.32,4.29q-3.41-2.66-5.59-1.95c-.54.18-.93.59-1.53.66-1.01.12-2.15-.39-2.96-1.32-.76-.87-1.33-1.85-1.01-2.67.09-.24.15-.53.35-.67.66-.44,1.29-.94,2.11-1.2.02,0,.05-.01.07-.02-2.28-1.68-4.65-3.32-6.98-4.98-.83-.12-1.26.51-1.85.86-2.34,1.4-3.62,3.66-5.46,5.46-.55.54-.47,1.61-.47,2.59-6.55.3-12.54,3.4-14.51,7.31-.75.07-1.44.22-1.94.67-.84.76-1.95-.06-2.78-.7-1.95-1.49-3.5-1.49-4.96-1.11-.84.22-1.6.61-2.19,1.1-.59.49-1.06,1.13-1.35,1.84-1.15,2.83-3.67,4.16-7.64,3.97-.67-.03-1.38-.1-1.99-.02-2.53.33-4.72.92-4.4,3.81.04.39-.07.67-.25.9.5.4.94.86,1.15,1.4.51,1.32.59,2.57.86,3.84-2.98,1.2-3.7,3.67-5.57,5.5-2.02-.12-3.86-.19-1.16,1.99.44.35.53,1.05.3,1.34-.59.72-1.41,1.33-2.24,1.91-.14.1-.76-.04-1.17-.17-3.42-1.07-6.88-1.85-10.22-3.64-.38-.21-.97-.61-.97-.76-.01-.59.07-1.15.12-1.72-1.07-1.74-1.72-3.07-1.93-4.14-2.42.84-5.01,1.57-5.35,3.76-.05.29-1.13.24-1.81.25-.33,0-.83-.19-1.25-.33-9.44-3.18-9.61-3.26-11.49.78-.62,1.33-2.36,1.2-4.4.8-1.5-.3-3.06-.77-4.62-1.27-.07.6-.11,1.21.15,1.9-.34-.03-.77-.16-1.01-.06-5.38,2.22-11.2,3.86-17.38,5.04-1.14.22-2.09.8-2.86,1.45-2.08,1.77-4.97,2.19-8.66,1.44-.35-.07-.68-.06-1.01-.08-1.78-.07-2.42.51-1.57,2.7.67,1.74.13,2.81-.22,4.02-.3,1.06-1.26,1.55-2.65,1.54-.25-.29-.5-.58-.73-.88-1.59-2.03-3.59-3.07-5.83-3.32-2.43-.27-3.1,1.22-3.38,2.76-.33,1.82-.17,3.87-.16,5.84,0,.11.09.22.1.33-2.7.6-5.08,1.68-6.89,3.14v312.13c1.25-.31,2.58-.56,4.12-.62,3.97-.17,6.69-1.71,9.23-3.3.14-.09.2-.27.24-.46l17.7,3.51c0,.1-.07.15-.05.26.09.55.17,1.09.25,1.64h19.04c.67-.07,1.27-.22,1.68-.55.91-.74,2.1-1.59,3.74-1.43,3.33.33,4.27-1.32,6.34-2.02,1.23-.42,2.46-.84,3.69-1.26.41.15.82.3,1.23.44,1.6.55,3.67,1.17,4.06,2.5.28.97-.31,2.11-1.34,2.23-.22.03-.43.06-.65.09h51.66c-.19-.21-.35-.39-.56-.62,1.39-.34,2.36-.98,3.12-1.86,1.02-1.18,2.7-.66,4.63,1.25.4.4.74.82,1.1,1.23h6.77c-.02-.1-.04-.2-.05-.29.8-.15,1.73.03,2.69.29h201.39c.45-.38.93-.75,1.47-1.1.03.04.05.08.08.12.3-.19.63-.37.95-.55-.17-.34-.29-.7-.35-1.01-.38-1.73.6-2.67,1.32-3.76.5-.75,1.53-.48,2.52-.35.98.13,1.96.23,2.91.26.68.02,1.13-1.22.74-2.1-.59-1.32-1.21-2.64-1.81-3.97,3.45-.7,6.91-1.4,10.36-2.1.65.89,1.62,1.83,1.87,2.67.37,1.26.16,2.43.32,3.68.1.8,1.85,2.28,2.4,2.07,2.03-.82,3.89-1.94,6.94-.8,1.7-1.26,4.06-1.53,6.3-2.02,1.66-.36,2.98-1.14,5.04-.97,1.9.16,3.37-.62,4.28-2,1.39-2.08,3.71-1.7,6.57.55-.83-1.72-.72-3.5-2.46-5.32-1.43-1.5-1.29-3.17-.18-4.14,4.6-.93,9.21-1.86,13.81-2.79,3.01,3.02,3.02,3.03,5.28,2.55.56-.12,1-.48,1.61-.49,1.02-.01,2.08.62,2.76,1.64.63.95,1.06,1.98.63,2.76-.12.23-.22.51-.44.62-.72.36-1.41.79-2.25.95-.02,0-.05,0-.07,0,2.03,1.92,4.16,3.8,6.24,5.71.81.21,1.32-.37,1.95-.65,2.51-1.13,4.09-3.23,6.17-4.81.62-.48.69-1.55.83-2.52,6.54.43,12.91-1.99,15.41-5.66.75,0,1.46-.06,2.02-.45.94-.66,1.92.28,2.66,1,1.73,1.69,3.27,1.86,4.77,1.64.87-.12,1.67-.42,2.32-.85.66-.42,1.21-1.01,1.6-1.68,1.53-2.68,4.22-3.72,8.13-3.1.66.11,1.35.26,1.97.24,2.56-.05,4.81-.39,4.89-3.29.01-.39.17-.65.37-.87-.45-.45-.81-.95-.95-1.51-.32-1.37-.23-2.61-.32-3.91,3.12-.86,4.18-3.24,6.29-4.85,1.99.34,3.81.62,1.42-1.84-.38-.4-.39-1.1-.12-1.36.68-.65,1.59-1.16,2.49-1.65.15-.08.75.13,1.13.3,3.25,1.44,6.58,2.6,9.64,4.74.35.25.88.71.86.86-.07.59-.23,1.13-.36,1.69.83,1.85,1.28,3.23,1.35,4.32,2.52-.57,5.19-1.01,5.83-3.14.09-.29,1.15-.11,1.83-.05.32.03.8.28,1.2.47,8.92,4.2,9.09,4.29,11.51.49.8-1.26,2.51-.93,4.47-.31,1.44.46,2.93,1.1,4.41,1.77.16-.59.28-1.19.12-1.9.33.06.74.24.99.17,5.65-1.61,11.65-2.6,17.95-3.08,1.16-.09,2.19-.56,3.04-1.12,2.31-1.52,5.24-1.62,8.79-.48.34.11.67.14,1,.19,1.75.27,2.48-.24,1.93-2.51-.43-1.8.26-2.8.77-3.97.44-1.02,1.46-1.4,2.85-1.24.2.32.42.63.61.96,1.3,2.19,3.14,3.44,5.32,3.93,2.37.53,3.24-.87,3.74-2.37.58-1.76.7-3.82.96-5.77.01-.11-.06-.23-.06-.34,4.54-.48,8.58-2.19,10.38-5.35,1.28.07,2.57-.02,3.86-.07,3.66.58,7.41.18,10.59-.9.06.47.13.94.06,1.34,3.69-2.01,8.25-3.38,13.12-3.85,1.36-1.89,3.39-3.54,5.8-4.95,2.2-.47,4.12-1.3,5.78-2.3,1.5-.26,2.92-.68,4.23-1.2,3.69-.75,7.57-1.14,11.53-.67,5.33-1.08,10.67-2.16,16-3.24.33.22.67.41.97.65,1.94,1.57,3.74,2.71,5.49,1.7,1.39-.81,2.99-.85,5.37.44,1.45.79,3.57.91,4.65.38,1.52-.74,4.08-.58,4.39-2.61,6.55,1.68,13.45.36,17.37-3.33,5.17-.25,9.71-1.76,11.88-5.62.39-.69.57-1.33.57-1.87.62-.13,1.24-.25,1.86-.38,1.42.07,2.74.12,3.51.06,3.11-.25,5.96-.82,8.89-1.38,3.03,1.17,6.52,1.82,10.57,1.66,6.05-.24,10.45-2.31,14.72-4.62.34.06.62.11,1.11.17,1.84.59,3.73.87,5.69.85,1.99.14,3.93.03,5.85-.22.32.22.53.37.97.65,1.35,1.04,3.12,1.95,5.08,2.68-1.24.69-1.48,2.09-.52,4.23.69,1.52.55,2.39-1.17,2.25-1.28-.1-2.57.04-1.86,1.82.23.58,1.1,1.66,1.35,1.67.87.04,1.71-.16,2.34-.53.64-.38.79-1.5,1.53-1.57,2.36-.22,4.86-.19,7.37-.09,1.37.06,2.65,1.15,3.79,2.32.16.33.37.68.46,1,.15.57.23.93.32,1.32.39.01.79.06,1.18.08.46-.15.94-.28,1.35-.49,1.34-.7,3.24-.97,5.05-1.26,1.2-.19,2.65-.14,4.06-.08,1.91.08,2.59-.62,3.06-1.77.4-.99,2.12-1.27,3.29-1.84,1.1-.53.8-1.55-.23-2.85-.24-.3-.48-.61-.72-.91-1.71-2.18-1.07-3.33.66-3.88.71-.23,1.69-.2,2.59-.25,2.5,2.61,6.18,4.96,7.58,7.85.17.36,1.46.99,2.26,1.34.77.34,1.83.75,2.26.64.33-.09.14-.98-.28-1.45-1.25-1.38-1.86-2.35.21-2.24.3.02.47-.18.67-.31,1.36-.86-2.66-4.62,1.62-3.91,1.22-.83,2.42-1.67,3.66-2.48.2-.13.59-.12.89-.17.79.41,1.6.79,2.38,1.23,1.71.97,2.57,1.87,2.51,3.11-.1,2.02.04,2.12,2.76,3.69.93.54,1.98,1.01,2.54,1.72V0H243.99Z"/>
    </clipPath>
  </defs>
  <g class="cls-6">
    <g id="Capa_2" data-name="Capa 2">
      <g id="Capa_1-2" data-name="Capa 1">
        <g>
          <path class="cls-7" d="m0,412.65s8.24.78,22.27,1.85c4.68.36,10.28.64,16.68.87,6.73.12,14.49.11,23.5-.12,4.51-.11,9.39-.29,14.63-.51,5.24-.22,10.87-.48,16.89-.78,6.02-.3,12.47-.62,19.25-.95,6.78-.33,13.79-.67,20.89-.98,7.09-.31,14.2-.55,21.22-.72,7.01-.17,13.84-.25,20.42-.26,6.58,0,12.9.07,18.99.17,6.07.1,11.97.17,17.77.22,5.76.03,11.47.01,17.1-.06,5.63-.08,11.19-.21,16.69-.42,11-.44,21.79-.92,32.29-1.36,10.49-.44,20.7-.8,30.5-1.04,6.22-.15,12.26-.24,18.05-.35,11.58-.23,22.23-.46,31.7-.71,9.48-.26,17.81-.56,24.69-.87,13.58-.59,21.33-.98,21.33-.98.94-.76,1.8-1.58,2.51-2.5.27.26.54.51.82.77l1.56,1.47,21.49-1.11c1.61-1.33,2.88-2.65,3.83-3.65.3-.32.59-.65.92-.94,3.38-.81,6.57-2.1,9.4-3.79,1.72.41,3.34.51,4.71.47,1.01-.03,2.01-.13,3.06-.32,2.88-.51,5.69-1.64,8.12-3.28.92-.61,1.79-1.3,2.6-2.04.13,0,.26,0,.39,0,.1,0,.28,0,.38,0,8.98-.25,14.84-4.38,17.81-9.39,2.27,1.61,5.14,2.53,8.16,2.66,1.17.05,2.37-.01,3.57-.2l.47-.07c.92-.14,2.36-.35,4.06-.78,3.13,1.45,5.83,2.33,9.21,2.56,3.3.22,6.13-.28,8.51-1.13,1.36.43,2.8.7,4.26.81,2.24.17,4.54-.03,6.75-.63,1.54-.42,2.98-1.01,4.28-1.75,3.68-.35,7.64-.49,11.86-.41,2.89.06,5.74-.31,8.51-1.08.94.26,1.65.4,2.04.48,1.26.27,2.47.45,3.69.55,4.17.35,8.2-.31,11.52-1.84.75.12,1.51.21,2.26.27,7.17.56,16.15-1.91,19.92-10.28,1.37-.53,2.67-1.13,3.88-1.8.43.02.86.03,1.29.04,1.4.02,2.81-.03,4.2-.14,1.22.24,2.47.36,3.72.35,2.89-.01,5.79-.66,8.37-1.95,2.11-1.06,4.85-1.81,7.72-2.13,4.76-.53,8.99-2.8,11.52-6.14h0s.07-.07.23-.21c1.72-.57,3.39-1.26,5-2.05,1.02-.28,2.03-.6,3.03-.96,1.44-.28,2.71-.44,3.87-.48.58-.02,1.15-.01,1.67.03.66.05,1.33.06,1.99.04,1.13-.04,2.25-.19,3.34-.44l8.15-1.86,1.72-.39c2.32.89,5.16,1.55,8.39,1.44,1.03-.03,2.05-.14,3.05-.33,2.22.57,4.57.83,6.89.78,2.72-.07,5.32-.58,7.59-1.5.95-.26,1.83-.55,2.65-.86.55.01,1.1.02,1.65.01,6.67-.06,12.93-1.65,17.95-4.48,7.75-1.15,12.72-4.07,15.89-7,1.65-.14,3.21-.33,4.69-.54,3.52.88,7.19,1.38,10.96,1.5.64.02,1.29.03,1.96.03,6.17,0,11.32-1.03,15.91-2.51.19.78.45,1.56.79,2.34,2.03,4.65,7.52,10.45,16.25,11.34.25.03.74.07.99.08,2.33.16,4.6.02,6.75-.4,2.84,2.2,6.51,3.71,10.5,4.13.35.05.72.1,1.08.15.31.04.63.07.94.09,2.05.15,4.09,0,6.02-.44.6-.12,1.64-.34,2.87-.73.35-.03.71-.05,1.07-.08.54.04.98.09,1.43.14.41.04.81.08,1.19.11,5.3.36,10.01-.74,13.64-3.06.05.02.1.05.15.07,2.26,1.05,5.76,2.48,9.96,2.71,1.64.09,3.47-.04,5.03-.35,2.08-.42,3.98-1.19,5.61-2.22,2.64,1.53,5.7,2.41,8.8,2.5,0,0-.12-7.39-.56-20.13-.22-6.38-.61-14.1-1.15-22.85-.55-8.75-1.24-18.51-2.03-29.02-.55-8.67-1.09-17.84-1.64-27.37-.29-5.24-.56-10.58-.81-16.01-.25-5.43-.48-10.96-.71-16.56-.22-5.6-.44-11.27-.65-17s-.44-11.5-.63-17.29c-.17-5.79-.34-11.59-.51-17.38-2.54-86.9-5.01-171.65-5.01-171.65H301.29c-11.7,0-22.6,0-32.45.13-9.85.13-18.63.37-26.28.65-7.65.27-14.2.54-19.56.76-10.7.44-16.64.68-16.64.68-1.12.56-2.19,1.24-3.13,2.12-.16.07-.32.13-.48.2-.45.19-.89.38-1.34.57-.67.3-1.3.63-1.92.97-2.63.47-5.05,1.52-7.14,3.06-.13,0-.25,0-.38,0-3.42.11-6.74,1.54-9.23,4.2-.93.99-1.69,2.11-2.28,3.29-.33-.25-.66-.5-1-.76l-2.3-1.75c-1.98-1.53-4.3-2.52-6.71-2.89-.75-.11-1.71-.18-2.47-.18-3.72.04-7.05,1.38-9.92,4.02-2.96,2.3-4.75,4.96-5.96,6.75-.26.38-.5.78-.8,1.13,0,0,0,.01-.01.02-3.37,1.15-6.46,2.81-9.11,4.87-1.06-.19-2.04-.27-2.9-.3-1.85-.05-3.74.16-5.6.64-3,.76-5.76,2.21-7.97,4.18-.83.74-1.6,1.56-2.28,2.44-.28.01-.55.03-.82.06-9.63.82-14.8,5.84-16.5,11.72-2.31-1.32-4.88-2.09-7.46-2.28-1.87-.13-3.75.04-5.53.54l-.46.13c-.9.25-2.32.63-3.94,1.27-2.76-.99-5.09-1.6-7.66-1.79-3.98-.29-7.43.44-10.35,2.18-.8-.17-1.6-.28-2.41-.34-2.83-.2-5.64.31-8.1,1.51-1.34.65-2.53,1.48-3.54,2.45-3.28.87-6.84,1.56-10.62,2.07-2.59.35-5.02,1.15-7.26,2.38-.84-.14-1.51-.18-1.87-.21-.34-.03-.66-.05-.97-.06-4.57-.17-8.73,1.19-11.8,3.77-3.25-.02-6.62.89-9.56,2.69,0,0-.19,6.99-.52,18.99-.17,6.01-.36,13.27-.57,21.55-.21,8.29-.45,17.59-.7,27.66-.71,28.17-1.58,62.47-2.46,97.31-.44,17.42-.86,34.95-1.2,51.77-.19,10.06-.38,19.93-.96,29.66-.85,9.79-2.09,19.42-2.73,28.68-.79,9.21-1.42,17.86-2.03,25.74-.62,7.88-1.17,15.02-1.63,21.23-.46,6.21-.81,11.51-1.06,15.8-.5,8.57-.74,13.37-.74,13.37Z"/>
          <g>
            <path class="cls-4" d="m16.07,394.13h321.34c11.69,0,22.5,0,32.15-.09,9.64-.1,18.11-.32,25.08-.59,13.71-.59,21.49-1.04,21.49-1.04.94-.75,1.8-1.55,2.49-2.46.27.25.55.49.82.74l1.56,1.4,21.25-1.54c1.57-1.33,2.8-2.65,3.71-3.65.29-.32.57-.65.88-.95,3.28-.9,6.34-2.27,9.05-4.03,1.68.35,3.24.39,4.56.3.97-.07,1.93-.21,2.93-.43,2.75-.61,5.4-1.84,7.66-3.54.85-.64,1.66-1.35,2.4-2.12.12,0,.25,0,.37-.02.1,0,.26-.02.36-.02,8.5-.58,13.87-4.92,16.43-10.06,2.2,1.5,4.92,2.25,7.74,2.21,1.09-.02,2.21-.15,3.31-.42l.43-.1c.85-.19,2.18-.5,3.73-1.02,2.94,1.25,5.46,1.96,8.56,1.98,3.03.03,5.61-.63,7.76-1.6,1.26.35,2.58.54,3.91.57,2.05.05,4.14-.27,6.14-.97,1.4-.49,2.7-1.15,3.86-1.94,3.34-.53,6.94-.85,10.78-.96,2.63-.08,5.22-.55,7.73-1.44.86.22,1.5.33,1.86.39,1.15.22,2.25.35,3.36.4,3.8.19,7.48-.6,10.54-2.2.69.1,1.38.16,2.07.2,6.6.35,14.97-2.19,18.66-10.36,1.31-.5,2.55-1.07,3.71-1.7.41.03.81.05,1.22.07,1.33.06,2.67.05,4-.01,1.15.28,2.34.44,3.54.49,2.75.11,5.55-.4,8.05-1.55,2.05-.94,4.69-1.56,7.44-1.73,4.56-.29,8.69-2.35,11.24-5.58h0s.07-.07.23-.2c1.67-.49,3.29-1.11,4.86-1.84.98-.24,1.97-.51,2.94-.83,1.39-.22,2.61-.32,3.72-.31.56,0,1.1.04,1.6.1.63.08,1.27.12,1.9.13,1.08,0,2.16-.09,3.21-.3l7.89-1.57,1.66-.34c2.19,1.01,4.88,1.79,7.98,1.79.99,0,1.98-.08,2.94-.24,2.11.65,4.35,1,6.58,1,2.61,0,5.13-.48,7.36-1.39.93-.25,1.79-.54,2.59-.85.53.02,1.06.03,1.6.03,6.47,0,12.63-1.64,17.62-4.62,7.63-1.28,12.57-4.4,15.74-7.5,1.62-.18,3.15-.41,4.61-.65,3.45.82,7.06,1.23,10.77,1.23.63,0,1.27-.01,1.92-.04,6.05-.23,11.08-1.49,15.53-3.19.18.77.42,1.55.75,2.32,1.93,4.58,7.13,10.04,15.35,10.36.24,0,.69.02.93.02,2.16,0,4.27-.29,6.25-.85,2.62,1.95,5.99,3.17,9.62,3.29.32.03.65.05.98.07.28.01.57.02.85.02,1.85,0,3.68-.28,5.41-.84.53-.16,1.46-.44,2.55-.9.31-.05.64-.1.96-.15.48,0,.88.02,1.27.04.37.02.72.02,1.06.02,4.7,0,8.84-1.34,12-3.76.05.02.09.04.14.06,2.01.87,5.13,2.03,8.86,2.02,1.46,0,3.08-.21,4.47-.57,1.86-.49,3.55-1.27,5.02-2.3,2.36,1.32,5.11,2.03,7.9,2.03,0,0,0-6.78,0-18.4,0-5.81,0-12.83,0-20.82s0-16.94,0-26.63V0H306.65c-11.8,0-22.81,0-32.76.13-9.95.12-18.84.36-26.58.63-7.74.27-14.38.53-19.81.74-10.85.43-16.88.66-16.88.66-1.13.55-2.2,1.21-3.15,2.07-.16.07-.33.13-.49.19-.45.18-.9.37-1.35.56-.67.29-1.31.61-1.94.95-2.66.46-5.11,1.49-7.21,2.99-.13,0-.26,0-.38,0-3.47.11-6.83,1.5-9.32,4.1-.93.97-1.69,2.06-2.27,3.22-.34-.25-.68-.49-1.02-.74l-2.36-1.71c-2.04-1.49-4.41-2.46-6.87-2.82-.77-.11-1.74-.18-2.52-.17-3.78.04-7.15,1.36-10.03,3.93-2.97,2.25-4.75,4.85-5.96,6.6-.26.37-.5.76-.79,1.1,0,0,0,.01-.01.02-3.41,1.12-6.53,2.75-9.19,4.76-1.09-.18-2.08-.27-2.96-.29-1.89-.05-3.8.16-5.69.63-3.04.75-5.82,2.16-8.05,4.09-.84.73-1.6,1.53-2.28,2.39-.28.01-.56.03-.84.06-9.8.81-14.98,5.72-16.59,11.45-2.38-1.29-5.02-2.04-7.65-2.21-1.91-.13-3.82.05-5.63.54l-.47.12c-.92.24-2.36.62-3.99,1.25-2.84-.96-5.23-1.55-7.85-1.73-4.07-.28-7.58.44-10.52,2.14-.82-.16-1.64-.27-2.47-.33-2.89-.19-5.75.31-8.25,1.49-1.35.64-2.55,1.45-3.56,2.39-3.34.86-6.96,1.54-10.82,2.04-2.64.35-5.11,1.13-7.37,2.34-.87-.13-1.55-.18-1.92-.2-.35-.03-.68-.05-1-.06-4.68-.16-8.91,1.18-11.99,3.71-3.33-.01-6.77.88-9.73,2.65,0,0-.01,6.82-.04,18.52-.01,5.85-.02,12.92-.02,20.96,0,8.04,0,17.06,0,26.81v268.13Z"/>
            <path class="cls-5" d="m357.66,394.26c.3-.19.63-.37.95-.55-.17-.34-.29-.7-.35-1.01-.38-1.73.6-2.67,1.32-3.76.5-.75,1.53-.48,2.52-.35.98.13,1.96.23,2.91.26.68.02,1.13-1.22.74-2.1-.59-1.32-1.21-2.64-1.81-3.97,3.45-.7,6.91-1.4,10.36-2.1.65.89,1.62,1.83,1.87,2.67.37,1.26.16,2.43.32,3.68.1.8,1.85,2.28,2.4,2.07,2.03-.82,3.89-1.94,6.94-.8,1.7-1.26,4.06-1.53,6.3-2.02,1.66-.36,2.98-1.14,5.04-.97,1.9.16,3.37-.62,4.28-2,1.39-2.08,3.71-1.7,6.57.55-.83-1.72-.72-3.5-2.46-5.32-1.43-1.5-1.29-3.17-.18-4.14,4.6-.93,9.21-1.86,13.81-2.79,3.01,3.02,3.02,3.03,5.28,2.55.56-.12,1-.48,1.61-.49,1.02-.01,2.08.62,2.76,1.64.63.95,1.06,1.98.63,2.76-.12.23-.22.51-.44.62-.72.36-1.41.79-2.25.95-.02,0-.05,0-.07,0,2.03,1.92,4.16,3.8,6.24,5.71.81.21,1.32-.37,1.95-.65,2.51-1.13,4.09-3.23,6.17-4.81.62-.48.69-1.55.83-2.52,6.54.43,12.91-1.99,15.41-5.66.75,0,1.46-.06,2.02-.45.94-.66,1.92.28,2.66,1,1.73,1.69,3.27,1.86,4.77,1.64.87-.12,1.67-.42,2.32-.85.66-.42,1.21-1.01,1.6-1.68,1.53-2.68,4.22-3.72,8.13-3.1.66.11,1.35.26,1.97.24,2.56-.05,4.81-.39,4.89-3.29.01-.39.17-.65.37-.87-.45-.45-.81-.95-.95-1.51-.32-1.37-.23-2.61-.32-3.91,3.12-.86,4.18-3.24,6.29-4.85,1.99.34,3.81.62,1.42-1.84-.38-.4-.39-1.1-.12-1.36.68-.65,1.59-1.16,2.49-1.65.15-.08.75.13,1.13.3,3.25,1.44,6.58,2.6,9.64,4.74.35.25.88.71.86.86-.07.59-.23,1.13-.36,1.69.83,1.85,1.28,3.23,1.35,4.32,2.52-.57,5.19-1.01,5.83-3.14.09-.29,1.15-.11,1.83-.05.32.03.8.28,1.2.47,8.92,4.2,9.09,4.29,11.51.49.8-1.26,2.51-.93,4.47-.31,1.44.46,2.93,1.1,4.41,1.77.16-.59.28-1.19.12-1.9.33.06.74.24.99.17,5.65-1.61,11.65-2.6,17.95-3.08,1.16-.09,2.19-.56,3.04-1.12,2.31-1.52,5.24-1.62,8.79-.48.34.11.67.14,1,.19,1.75.27,2.48-.24,1.93-2.51-.43-1.8.26-2.8.77-3.97.44-1.02,1.46-1.4,2.85-1.24.2.32.42.63.61.96,1.3,2.19,3.14,3.44,5.32,3.93,2.37.53,3.24-.87,3.74-2.37.58-1.76.7-3.82.96-5.77.01-.11-.06-.23-.06-.34,4.54-.48,8.58-2.19,10.38-5.35,1.28.07,2.57-.02,3.86-.07,3.66.58,7.41.18,10.59-.9.06.47.13.94.06,1.34,3.69-2.01,8.25-3.38,13.12-3.85,1.36-1.89,3.39-3.54,5.8-4.95,2.2-.47,4.12-1.3,5.78-2.3,1.5-.26,2.92-.68,4.23-1.2,3.69-.75,7.57-1.14,11.53-.67,5.33-1.08,10.67-2.16,16-3.24.33.22.67.41.97.65,1.94,1.57,3.74,2.71,5.49,1.7,1.39-.81,2.99-.85,5.37.44,1.45.79,3.57.91,4.65.38,1.52-.74,4.08-.58,4.39-2.61,6.55,1.68,13.45.36,17.37-3.33,5.17-.25,9.71-1.76,11.88-5.62.39-.69.57-1.33.57-1.87.62-.13,1.24-.25,1.86-.38,1.42.07,2.74.12,3.51.06,3.11-.25,5.96-.82,8.89-1.38,3.03,1.17,6.52,1.82,10.57,1.66,6.05-.24,10.45-2.31,14.72-4.62.34.06.62.11,1.11.17,1.84.59,3.73.87,5.69.85,1.99.14,3.93.03,5.85-.22.32.22.53.37.97.65,1.35,1.04,3.12,1.95,5.08,2.68-1.24.69-1.48,2.09-.52,4.23.69,1.52.55,2.39-1.17,2.25-1.28-.1-2.57.04-1.86,1.82.23.58,1.1,1.66,1.35,1.67.87.04,1.71-.16,2.34-.53.64-.38.79-1.5,1.53-1.57,2.36-.22,4.86-.19,7.37-.09,1.37.06,2.65,1.15,3.79,2.32.16.33.37.68.46,1,.15.57.23.93.32,1.32.39.01.79.06,1.18.08.46-.15.94-.28,1.35-.49,1.34-.7,3.24-.97,5.05-1.26,1.2-.19,2.65-.14,4.06-.08,1.91.08,2.59-.62,3.06-1.77.4-.99,2.12-1.27,3.29-1.84,1.1-.53.8-1.55-.23-2.85-.24-.3-.48-.61-.72-.91-1.71-2.18-1.07-3.33.66-3.88.71-.23,1.69-.2,2.59-.25,2.5,2.61,6.18,4.96,7.58,7.85.17.36,1.46.99,2.26,1.34.77.34,1.83.75,2.26.64.33-.09.14-.98-.28-1.45-1.25-1.38-1.86-2.35.21-2.24.3.02.47-.18.67-.31,1.36-.86-2.66-4.62,1.62-3.91,1.22-.83,2.42-1.67,3.66-2.48.2-.13.59-.12.89-.17.79.41,1.6.79,2.38,1.23,1.71.97,2.57,1.87,2.51,3.11-.1,2.02.04,2.12,2.76,3.69.93.54,1.98,1.01,2.54,1.72V0H243.99c-.11.14-.18.29-.3.43-.68.89-1.44,1.78-2.43,2.61-.03-.04-.06-.07-.09-.11-.27.23-.58.43-.87.65.21.32.38.67.49.96.61,1.68-.23,2.72-.79,3.87-.39.8-1.46.64-2.45.62-1-.02-1.98-.01-2.93.06-.68.05-.96,1.33-.44,2.17.77,1.25,1.56,2.49,2.35,3.74-3.33,1.07-6.66,2.15-9.99,3.22-.77-.81-1.86-1.64-2.22-2.44-.54-1.21-.5-2.4-.83-3.61-.21-.79-2.16-2.06-2.66-1.79-1.9,1.03-3.59,2.35-6.78,1.56-1.52,1.44-3.82,1.96-5.97,2.7-1.59.54-2.8,1.46-4.87,1.51-1.9.05-3.25.99-3.97,2.45-1.09,2.22-3.45,2.09-6.59.18,1.06,1.62,1.2,3.39,3.18,5.01,1.62,1.33,1.72,3,.75,4.09-4.44,1.43-8.88,2.86-13.32,4.29q-3.41-2.66-5.59-1.95c-.54.18-.93.59-1.53.66-1.01.12-2.15-.39-2.96-1.32-.76-.87-1.33-1.85-1.01-2.67.09-.24.15-.53.35-.67.66-.44,1.29-.94,2.11-1.2.02,0,.05-.01.07-.02-2.28-1.68-4.65-3.32-6.98-4.98-.83-.12-1.26.51-1.85.86-2.34,1.4-3.62,3.66-5.46,5.46-.55.54-.47,1.61-.47,2.59-6.55.3-12.54,3.4-14.51,7.31-.75.07-1.44.22-1.94.67-.84.76-1.95-.06-2.78-.7-1.95-1.49-3.5-1.49-4.96-1.11-.84.22-1.6.61-2.19,1.1-.59.49-1.06,1.13-1.35,1.84-1.15,2.83-3.67,4.16-7.64,3.97-.67-.03-1.38-.1-1.99-.02-2.53.33-4.72.92-4.4,3.81.04.39-.07.67-.25.9.5.4.94.86,1.15,1.4.51,1.32.59,2.57.86,3.84-2.98,1.2-3.7,3.67-5.57,5.5-2.02-.12-3.86-.19-1.16,1.99.44.35.53,1.05.3,1.34-.59.72-1.41,1.33-2.24,1.91-.14.1-.76-.04-1.17-.17-3.42-1.07-6.88-1.85-10.22-3.64-.38-.21-.97-.61-.97-.76-.01-.59.07-1.15.12-1.72-1.07-1.74-1.72-3.07-1.93-4.14-2.42.84-5.01,1.57-5.35,3.76-.05.29-1.13.24-1.81.25-.33,0-.83-.19-1.25-.33-9.44-3.18-9.61-3.26-11.49.78-.62,1.33-2.36,1.2-4.4.8-1.5-.3-3.06-.77-4.62-1.27-.07.6-.11,1.21.15,1.9-.34-.03-.77-.16-1.01-.06-5.38,2.22-11.2,3.86-17.38,5.04-1.14.22-2.09.8-2.86,1.45-2.08,1.77-4.97,2.19-8.66,1.44-.35-.07-.68-.06-1.01-.08-1.78-.07-2.42.51-1.57,2.7.67,1.74.13,2.81-.22,4.02-.3,1.06-1.26,1.55-2.65,1.54-.25-.29-.5-.58-.73-.88-1.59-2.03-3.59-3.07-5.83-3.32-2.43-.27-3.1,1.22-3.38,2.76-.33,1.82-.17,3.87-.16,5.84,0,.11.09.22.1.33-2.7.6-5.08,1.68-6.89,3.14v312.13c1.25-.31,2.58-.56,4.12-.62,3.97-.17,6.69-1.71,9.23-3.3.14-.09.2-.27.24-.46l17.7,3.51c0,.1-.07.15-.05.26.09.55.17,1.09.25,1.64h19.04c.67-.07,1.27-.22,1.68-.55.91-.74,2.1-1.59,3.74-1.43,3.33.33,4.27-1.32,6.34-2.02,1.23-.42,2.46-.84,3.69-1.26.41.15.82.3,1.23.44,1.6.55,3.67,1.17,4.06,2.5.28.97-.31,2.11-1.34,2.23-.22.03-.43.06-.65.09h51.66c-.19-.21-.35-.39-.56-.62,1.39-.34,2.36-.98,3.12-1.86,1.02-1.18,2.7-.66,4.63,1.25.4.4.74.82,1.1,1.23h6.77c-.02-.1-.04-.2-.05-.29.8-.15,1.73.03,2.69.29h201.39c.45-.38.93-.75,1.47-1.1.03.04.05.08.08.12Z"/>
            <g class="cls-3">
              <g>
                <line class="cls-2" x1="81.13" y1="0" x2="81.13" y2="395.24"/>
                <line class="cls-2" x1="157.99" y1="0" x2="157.99" y2="395.24"/>
                <line class="cls-2" x1="234.85" y1="0" x2="234.85" y2="395.24"/>
                <line class="cls-2" x1="311.71" y1="0" x2="311.71" y2="395.24"/>
                <line class="cls-2" x1="388.57" y1="0" x2="388.57" y2="395.24"/>
                <line class="cls-2" x1="465.43" y1="0" x2="465.43" y2="395.24"/>
                <line class="cls-2" x1="542.29" y1="0" x2="542.29" y2="395.24"/>
                <line class="cls-2" x1="619.14" y1="0" x2="619.14" y2="395.24"/>
                <line class="cls-2" x1="696" y1="0" x2="696" y2="395.24"/>
                <line class="cls-2" x1="772.86" y1="0" x2="772.86" y2="395.24"/>
              </g>
            </g>
          </g>
        </g>
      </g>
    </g>
  </g>
</svg>