<?xml version="1.0" encoding="UTF-8"?><svg id="Capa_2" xmlns="http://www.w3.org/2000/svg" viewBox="0 0 483.06 357.64"><defs><style>.cls-1{fill:#149da4;}.cls-1,.cls-2,.cls-3,.cls-4,.cls-5,.cls-6{fill-rule:evenodd;stroke-width:0px;}.cls-2{fill:#1e1c1b;}.cls-3{fill:#2f66be;}.cls-4{fill:#443e3b;}.cls-5{fill:#fff;}.cls-6{fill:#6d9dc4;}</style></defs><g id="Capa_1-2"><path class="cls-5" d="M450.22,343.04c-.11,2.96,2.03,5.48.85,7.96l-2.98.32c-.85-2.33-1.92-4.38-2.28-7.3,2.08.17,2.46-1.04,4.42-.97Z"/><path class="cls-2" d="M468.06,331.08c-3.91-22.35-9.56-42.55-17.88-59.44-1.36-.48-4.87,1.2-5.75,2.63-.25,9.55,4.32,17.85,5.89,27.03.54,3.63,3.27,8.8,4.89,13.63.39,1.37.77,2.76,1.07,4.1.4,2.54.14,4.8-1.39,6.42-14.03-40.39-26.43-82.79-40.71-122.88-3.44-3.62-8.06-5.78-11.11-9.88-1.88-2.91-1.43-8.73-5.47-8.97-1.1.02-1.54.57-1.34,1.65.17,3.54.83,6.48,1.95,8.84-2.44,3.48-3.08,8.43-4.15,13.02,10.95,49.44,26.93,92.67,41.3,137.9,1.11,1.44,4.07.59,5.23,1.96.85,4.38,2.02,8.37,4.65,10.57,5.03-.17,8.28-1.78,11.17-3.69,1.03-4.04-1.18-8.06-1.77-11.88,7.93-.86,11.69-5.09,13.41-10.98Z"/><path class="cls-2" d="M415.09,196.94c-3.13-1.75-6.62-3.06-8.69-6.11,2.22-5.03,8.42,1.56,8.69,6.11Z"/><path class="cls-5" d="M403.76,199.15c2.19.48,3.28,2.33,4.46,4.06-1.83.64-4.17.87-5.86,1.63.57-1.81,1.56-3.29,1.4-5.68Z"/><path class="cls-5" d="M411.67,207.36c-2.73,2.54-9.08,4.42-11.45,5.74,1.05-4.15,7.15-4.21,11.45-5.74Z"/><path class="cls-1" d="M412.25,212.83c3.51,8.4,4.76,19.6,7.59,28.85-1.28.64-2.51,1.3-4.37,1.47-3.79-8.25-6.86-17.39-9.87-26.61,1.33-1.96,5.19-1.87,6.65-3.72Z"/><path class="cls-1" d="M402.73,217.86c3.5,8.42,7.2,19.6,9.48,27.66-2.34-.93-3.99-7.84-5.3-12.01-1.47-4.66-2.72-10.01-4.02-14.16-.92-.27-.17-.89-.16-1.49Z"/><path class="cls-5" d="M421.53,248.04c-3.9-.11-6.42,3.29-8.74,2.94,1.55-1.52,7.39-7.06,8.74-2.94Z"/><path class="cls-1" d="M421.61,253.56l.99-.11c7,27.16,15.53,52.42,23.86,77.91-2.35.22-2.87,1.93-5.31,2.07-8.6-25.36-17.06-50.89-26.14-75.66,1.1-2.29,4.45-2.76,6.59-4.22Z"/><path class="cls-5" d="M448.22,276.88c.57-.14.89.02,1.04.4,4.81,15.61,9.47,31.4,13.63,47.82.54,4.65-2.09,11.18-7.16,8.3.64-3.73,4.7-4.68,5.12-8.58-2.27-18.02-9.73-32.58-12.63-47.93Z"/><path class="cls-2" d="M407.9,115.72c-1.14-.09-.46-2.42-.87-3.43-1.65-1.9-5.36-1.24-6.89-3.29.81-6.56,5.82-15.36-1.45-18.45-7.05,2.04-5.61,10.93-8.86,16.03-2.49-.67-5.22-1.04-7.28-2.24,1.01-5.55,3.4-9.98,2.73-16.88-5.2-2.49-7.43.03-8.84,3.74-1.79,2.87-2.71,6.71-3.52,10.39-.06.09-.12.19-.18.27-2.36-.83-5.31-.92-7.28-2.24.28-3.04,1.29-6.16,1.84-9.3.8-1.25,1.01-2.83.36-4.09-.03-1.13-.13-2.26-.46-3.39-1.47-.81-2.95-1.61-5.19-1.46-4.34,1.64-2.8,8.03-5.36,11.13-3.83-26.57-9.7-50.62-16.81-73.13-.5.06-.64-.34-1.05-.39-.63.09-.62.71-1.45.66-48.33,8.22-100.49,13.35-146.31,23.59-8.01,2.24-17.99,4.49-27.47,6.44-9.58,1.97-20.28,2.02-24.77,8.17.47,2.23,4.48.09,5.24,1.95,9.76,61.05,21.41,119.75,34.37,176.85-3.08,11.15-5.62,22.72-7.9,34.53-1.92,10.93-7.46,23.57-5.35,34.76,1.78.61,4.34.26,6.57.31,29.15,6.48,57.13,14.42,85.75,21.56,29.08,6.57,54.69,17.45,86.64,20.46,8.72-16.13,9.68-38.53,15.02-57.4,6.41-29.53,15.19-57.62,22-86.3,6.81-28.67,19.28-55.35,24.7-84.57-.32-2.23,3.02-1.5,2.07-4.25Z"/><path class="cls-5" d="M337.98,25.62c2.93,26.19,9.87,47.41,14.62,71.35-3.06-.9-6.4-1.46-9.32-2.53.32-5.24,4.15-12.17.24-16.62-2.22-.76-5.06.35-6.9,1.24-2.05.6.47-1.97-1.71-1.83-3.81.25-7.2.85-10.39,1.6-1.09-.55,2.49-6.85-.35-8.01,4.09-1.55,10.41-1.29,12.61-4.36-9.4-2.55-22.25,2.97-32.21,4.43-.13-3.4-1.72-4.98-4.11-5.6-6.47-.23-6.03,5.13-7.6,8.85-4.27.49-8.89.7-12.38,1.82.33-4.13,2.74-6.58,1.77-11.75,17.9-3.12,37.52-4.84,52.17-10.57-15.23-1.06-36.55,4.73-51.94,8.03-2.81.85-2.6-2.03-5.63-.91-3.41,1.79-5.69,4.5-11.07,4.7-.12,3.15,3.11,2.15,5.74,1.9-.14,2.77-1.62,4.45-1.75,7.22-3.01-.39-5.18-1.84-8.27-2.14.3-4.91,1.9-8.77,1.5-14.24,22.94-4.49,48.8-6.64,67.87-14.25-27.8,1.52-58.36,9.43-84.48,14,.76-1.56.96-4.25-.14-6.02,27.44-5.25,58.57-7.52,83.38-14.89-27.16.76-55.09,7.09-82.76,11.31-31.77,4.84-63.34,9.23-90.57,18.17,27.6-.7,54.61-10.06,82.5-13.79.46,2.34-1.42,2.79-.97,5.13-20.43,4.24-42.66,7.04-60.96,13.01-6.44,1.17-14.28,1.19-18.14,4.44,20.75-.6,43.53-7.18,64.22-10.84-1.36,2.84-1.33,6.81-3.03,9.37-18.13,3.78-43.19,5.63-58.42,13.25-.37,2.33,3.36-.4,3.64,1.12,18-4.09,37.7-6.81,54.55-11.83-.93,3.49-1.75,7.07-2.92,10.37-17.91,1.75-39,4.85-54.21,10.28,15.48,3.21,36.51-5.18,53.54-7.19-.37,2.89-1.27,5.34-1.64,8.22-16.23,3.25-34.26,5.04-45.99,11.93.74,3.46,8.03.97,10.6.38,11.69-2.37,22.13-5.74,34.37-7.67-1.22,3.86-1.57,8.42-2.71,12.36-2.16.23-4.31.46-6.46.69-11.02,3.66-28.73,1.93-34.11,10.16,2.87,3.03,9.59-.47,14.03-.48,7.1-3.2,16.55-4.5,25.48-6.23-.45,2.51-1.29,4.71-1.74,7.23-6.51,1.02-14.12,2.08-21.27,3.26-6.27,1.04-14.17,1.89-16.37,6.77,10.31-.06,25.03-4.27,36.53-6.39-.9,2.92-1.55,6.01-2.59,8.83-12.32,1.56-24.57,3.17-33.93,7.12-6.97-28.78-12.24-56.17-18.19-86.05,54.56-17.43,125.11-21.93,185.89-34.33Z"/><path class="cls-5" d="M242.11,55.41c.79-.22.91.38,1.54.34-1.4,7.35-1.52,15.74-4.19,22.06-3.54-1.67,0-6.92-.62-10.49,1.43-3.09,1.17-7.54,2.92-10.37-.22-.79.38-.9.34-1.54Z"/><path class="cls-5" d="M253.57,59.22c1.9,1.78-1.95,6.54-1.43,10.21-2.97.3-4.47-1.22-7.17-1.25.17-2.74.5-5.36,1.2-7.67,2.4-.48,5.88-.09,7.41-1.28Z"/><path class="cls-5" d="M236.72,61.51c.32,1.78-.66,2.5-.58,4.08-3.22-.51-6.18-1.36-9.71-1.48,2.84-1.35,7.01-1.62,10.29-2.61Z"/><path class="cls-5" d="M257.76,60.79c.48.34,1.18.41,2.04.29-1.63,6.26-2.09,13.46-4.51,19.08-3.62-1.01-.67-6.73-.45-9,.62-3.14,1.1-6.38,2.58-8.82-.22-.79.38-.91.34-1.54Z"/><path class="cls-5" d="M277.34,65.24c1.64,6.68-2.33,16.56-5.68,22.22-1.32-6.49,3.58-15.5,5.68-22.22Z"/><path class="cls-6" d="M229.77,71.81c1.37-1.48,3.54.84,5.12.97-.67,1.87-.71,4.27-.26,7.06,1.48,1.57,4.29,3.15,6.73,1.8,1.99-.97,1.22-4.17,1.85-6.23,2.64.12,4.84.77,6.73,1.8.39,3.31-1.02,4.48.3,7.51,1.38,2.88,6.13,1.58,7.11.75,3.31-.14,5.02,1.67,8.22,1.64.05,4.92,5.93,6.32,9.42,3.52,4.55.93,9.11,1.84,13.85,2.55-.97,3.53,2.22,4.55,4.61,5.54,3.27.66,3.98-3.12,5.26-2.57,3.51.34,6.29,1.59,9.76,1.98,1.31,2.89,3.16,5.1,7.04,4.78,3.16-.94,3.41-4.22,4.28-6.99,3.45.61,6.58,1.61,9.82,2.48-1.72,4.1-.6,10.63,4.2,11.12,4.47-1.24,5.77-5.03,7.66-8.35,4.14,1.06,8.51,1.85,12.4,3.21.72,3.8-3.08,3.14-5.75,2.62,2.89,2.24,5.01,5.42,6.97,8.82,3.21.31,4.96-.28,7.3-2.29,2.7.21,4.35,1.74,7.22,1.75-.04,1.73.49,2.76.92,3.93,2.29,2.04,7.4,1.93,8.95-.95,5.71-.33,8.68,2.74,11.67,5.8-8.29,35.43-15.15,72-23.82,107.11-10.73,33.44-17.57,70.03-26.01,105.33-30.58-.96-55.04-9.5-81.14-16.01-26.26-6.31-53.24-11.74-79.36-18.22-1.78-5.67-4.23-10.51-6.21-15.93,9.68-38.68,23.99-73.63,32.73-113.08,1.06.9,2.12.94,3.54.13-.36,4.25-1.76,7.67-1.72,12.25-.56,1.06-3.49.21-3.32,1.86,2.67,3.45,8.42,3.07,12.57,4.7,1.02.79-.28,1.31.32,2.99,1.01-.25.27-1.9,1.28-2.15,15.88,3.22,29.27,9.52,46.44,11.16-2.34-1.99-6.23-2.04-8.93-3.58.96-7.26,3.54-13.2,4.89-20.13,3.37-.23,5.39,1.2,8.22,1.64-1.83,6.1-3.84,12.05-5.06,18.63,4.09-4.57,4.14-12.41,6.61-18.29,6.11,2,12.8,3.27,19.13,5-.88,6.41-3.62,11.31-4.67,17.59,2.13-.56,2.97-6.09,4.08-8.98,3.48.58,5.89,2.45,9.37,3.03-.4,4.21-1.93,7.53-2.27,11.8-7.11-1.89-14.34-3.63-22.12-4.69,11.15,5.71,24.91,8.17,37.49,12.11,12.38,3.99,25.37,7.22,37.87,11.06,1.44-.23,1.73,1.86,1.26,2.38,1.6.27,3.38-1.68,5.36-1.57,1.51-1.36-1.96-1.27-1.36-3.37,8.25-23.02,14.28-47.85,20.45-72.56,1.81-.55,2.23.62,4.02.08.25-3.12-3.51-1.28-3.9-3.61-17.91-4.08-33.86-10.59-52.28-14.06-.07-3.35,1.17-6.53-1.4-8.4-3.69,1.56-6.59,3.76-9.96,5.58-14.91-4.06-29.66-8.3-45-11.81-7.51-1.95-15.04-3.88-22.72-5.63-3.13-1.75-7.59-1.87-10.92-3.37-4.23.52-8.06-3.42-11.15-.82-2.13,15.47-8.17,32.96-10.63,51.41-1.6,1.59-3.21,3.16-3.95,5.45,5.82-31.36,14.04-64.72,21.45-96.3.02-.59-.21-.87-.6-.94ZM206.36,211.05c-.3-1.14-.57-2.3-2.21-1.78-2.03.75-2.05,2.44-3.76,2.41,2.58,4.53-2,9.86-1.9,15.28-2.27,2.71-6.58,3.77-6.11,8.7,2.61.57,3.3-2.76,4.31-1.97-2.59,11.69-5.53,23.11-7.29,35.47-.72-.62-3.08-.55-2.93.81.6.94,1.97.94,2.69,1.72-.58,3.47-.93,7.13-.83,11.15-2.17.22-4.63.19-5.36,1.57,2.59,5.6,11.59,3.29,16.26,6.32,6.48.77,11.92,2.86,18.03,4.12,11.92,3.06,23.24,6.86,36.57,8.18-7.15-5.22-18.56-5.16-26.63-9.24.61-5.59,4.6-13.88,11.09-9.22.74,5.26,1.36,10.68,4.85,12.55,5.85-.88,5.9-6.43,10.15-8.62,1.81.75,4.24.75,5.73,1.9-.47,4.63-3.92,9.25-2.55,13.85,1.9-4.22,2.33-9.63,4.6-13.56,4.49,1,9.18,1.75,12.95,3.65-.96,3.91-1.62,8.08-3.31,11.41-4,.07-8.34-2.41-11.7-1.27,20.68,7.03,42.97,12.08,65.18,17.21.45,1.31-.22,4.01.97,4.42.86-3.82,3.47-3.35,6.65-3.73-2.16-3.3,2.2-7.44.06-13.58,6.28-18.56,10.23-39,15.96-58.01-.82-3.28,1.28-5.45-.35-8.01-3.14.19-2.53,3.41-4,4.95-43.96-14.4-90.68-25.39-137.13-36.71ZM351.47,275.57c5.43-7.59,5.96-19.12,9.02-28.61,1.83-10.65,4.92-20.26,6.78-30.89-.5.05-.99.11-1.49.16-4.48,20.02-10,39.19-14.31,59.34ZM351.08,276.62c.36.29-.23-.19,0,0h0ZM248.37,313.17c-2.59-2.72-7.06-3.24-10.47-3.92-12.48-2.46-23.43-6.19-35.96-7.24-.38.15-.98.12-.94.6,15.04,4.46,28.99,10.26,47.37,10.56ZM345.11,300.88c4.06-2.17,3.27-8.27,3.59-13.45-.5.05-1,.11-1.49.16-.78,4.37-3.23,7.39-2.1,13.3ZM338.64,325.2c3.63-1,5.46-9.19,2.87-10.86-2.79,1.9-4.06,7.26-2.87,10.86Z"/><path class="cls-5" d="M300.4,69.33c.47,7.56-2.7,15.95-4.58,23.11-1.18.33-1.17-.79-2.53-.24,1.55-7.83,3.33-15.48,5.63-22.72l1.49-.16Z"/><path class="cls-5" d="M315.79,72.22c-.65,2.96-1.87,5.46-2.64,8.33-3.81.25-7.2.84-10.38,1.6.21-2.86,1.13-5.13,1.14-8.16,3.73-.78,7.55-1.48,11.88-1.77Z"/><path class="cls-5" d="M259.27,79.73c3.15.05,5.08,1.59,8.22,1.64.07,1.42-.69,2.17-.62,3.58-2.91-.53-5.18-1.83-8.27-2.14.05-1.18.38-2.12.68-3.09Z"/><path class="cls-5" d="M292.19,77.24c.21,1.54-.35,2.44-.62,3.59-2.59-.35-4.54-1.52-7.22-1.75,1.91-1.18,4.79-1.59,7.84-1.84Z"/><path class="cls-5" d="M321.08,74.67c-1.71,8.16-3.52,18.67-7.02,23.87-2.24-7.05,3.78-16.29,5.53-23.71l1.49-.16Z"/><path class="cls-5" d="M277.85,84.29c3.89,1.19,7.88,2.25,11.91,3.26.53,1.48-.69,1.56-.18,3.04-4.2-.8-8.07-2-12.8-2.16-.58-2.13,1.2-2.36,1.07-4.13Z"/><path class="cls-5" d="M334.13,79.32c1.14,2.2-4.33,6.75-3.25,11.91-3.48-.02-5.74-1.52-9.21-1.53-.29-3.12,1.04-4.92,1.2-7.67,4.14-.59,8.32-1.16,11.27-2.71Z"/><path class="cls-5" d="M306.11,85.31c.9-1.25,4.12-.62,5.91-1.13.56,1.36-.56,1.36-.23,2.54-2.27,0-3.55-1.23-5.68-1.41Z"/><path class="cls-5" d="M340.47,82.16c.79-.22.9.39,1.54.34-.61,8.44-3.54,15.01-5.68,22.22-3.66-1.87.46-6.88.43-10.1,1.01-3.59,2.06-7.12,2.87-10.87.11-.67.79-.88.83-1.6Z"/><path class="cls-5" d="M300.18,90.97c4-.26,6.17,1.73,9.77,1.98.32,1.17-.8,1.17-.24,2.54-3.66-.16-5.95-2.02-9.76-1.98-.56-1.36.56-1.36.23-2.54Z"/><path class="cls-5" d="M363.75,88.24c-.27,4.25-1.12,8.81-2.16,12.8-.97,3.72-1.66,8.55-4.91,10.57.73-8.35,3.73-14.86,4.58-23.11l2.49-.26Z"/><path class="cls-5" d="M379.68,91.57c.88-.16,1.12.5,2.04.28-1.64,8.22-3.97,15.88-6.56,23.33-3.9-2.27.43-7.58.32-11.1,1.59-3.42,1.84-7.9,3.87-10.97-.23-.79.38-.91.34-1.55Z"/><path class="cls-5" d="M398.22,95.64c.57-.14.89.02,1.05.39-2.43,7.89-3.7,16.71-7.57,23.43,1.13-8.78,3.54-16.53,6.52-23.82Z"/><path class="cls-5" d="M226.8,114.86c3.67-.41,5.33,1.64,8.72,1.58-.94,6.52-2.94,12.17-4.07,18.53-3.34.57-4.87-1.1-8.11-.65.98-6.63,2.59-12.75,3.46-19.47Z"/><path class="cls-1" d="M251.28,122.81c-2.24,2.89-3.46,10.53-4.88,15.6-4.5-.8-8.72-1.95-13.35-2.6.49-6.73,2.59-12.16,3.57-18.48,9.63,1.88,15.82,4.88,25.31,6.36-1.12,6.06-3.31,11.26-4.72,17.09-3.14-.8-6.47-1.36-9.76-1.97.63-5.85,2.5-10.71,3.83-16Z"/><path class="cls-5" d="M363.71,106.84c2.49.49,4.41,1.66,7.22,1.75.22,1.54-.36,2.44-.62,3.58-2.27-.94-5.01-1.3-7.28-2.24.04-1.18.38-2.12.68-3.09Z"/><path class="cls-5" d="M163.98,134.1c3.4,9.87,5.01,21.92,9.3,30.69.85-5.57-1.7-11.78-2.34-17.35,9.58,2.49,21.44-2.67,31.76-3.87-1.18,5.4-3.36,10.01-4.38,15.55-7.56.71-13.26,2.91-19.62,4.6,3.24,4.61,11.93-.05,18.11.09-1.23,4.46-2.42,8.95-3.6,13.45-5.28.27-9.47,1.44-13.81,2.47-.69-1.95-1.12-4.23-2.57-5.26-2.11,5.36.83,13.38,2.17,20.38,2,10.5,5.85,20.71,2.57,28.89-6.91-28.58-11.83-59.62-17.57-89.64Z"/><path class="cls-5" d="M263.03,124.58c4.61.48,8.33,2.07,12.41,3.21-1.48,5.47-3.65,10.39-4.83,16.1-4.14-.32-7.11-2.07-11.31-2.32.24-6.47,3.34-10.64,3.72-16.99Z"/><path class="cls-5" d="M380.36,112.12c3.2-.21,5.05,1.25,7.72,1.7.33,1.17-.79,1.17-.23,2.54-3-.04-5.08-1.22-7.72-1.69-.56-1.36.57-1.37.23-2.54Z"/><path class="cls-1" d="M276.98,128.13c3.15.79,6.33,1.54,9.32,2.53-1.24,6.12-3.97,11.03-7.42,15.37-1.96-.56-4.01-1.03-6.18-1.35.9-5.94,3.32-10.65,4.28-16.54Z"/><path class="cls-5" d="M222.95,135.37c2.43.56,4.74,1.27,7.68,1.2-.43,4.96-1.81,9.14-3.11,13.4-4.81.66-5.54,4.61-8.32,6.92-.15-6.49,2.76-14.44,3.75-21.52Z"/><path class="cls-5" d="M306.64,137.55c-1.21,4.17-4.86,6.37-7,9.79-3.48-3.75-4.25-10.87-8.93-13.12-1.29.33-2.7.54-3.38,1.36-1.38-1,.31-3.36.52-4.58,7.38,1.93,14.61,4.04,22.22,5.68-.72,1.1-2.97,3.33-3.71,2.91-.15-.89.5-1.11.28-2.04Z"/><path class="cls-1" d="M232.21,137.41c5.1.25,9.09,1.88,13.85,2.55-1.14,4.54-2.15,9.17-3.05,13.9-4.9-.69-9.67-1.54-13.9-3.05.98-4.51,2.39-8.68,3.1-13.4Z"/><path class="cls-5" d="M246.61,140.4c4.11-.21,6.54,1.66,10.26,1.93-1.34,6.29-7.25,10.96-12.76,12.42-.47-4.07,2.01-9.55,2.5-14.35Z"/><path class="cls-5" d="M258.41,142.67c3.75.99,7.53,1.94,11.36,2.82-1.12,4.85-2.27,9.68-4.04,14-6.06.37-4.97-8.09-8.23-11.19-.17-2.26.85-3.55.91-5.63Z"/><path class="cls-5" d="M289.89,140.83c1.46,2.32,2.11,5.64,3.38,8.19-2.76.04-4.59-1.06-7.17-1.25.72-2.75,3.09-4.17,3.78-6.94Z"/><path class="cls-5" d="M317.04,155.04c-4.63-1.21-9.43-2.21-13.95-3.55,4.56-4.5,10.45-7.92,14.75-12.63,2.19,3.78-.77,11.16-.8,16.17Z"/><path class="cls-5" d="M271.87,146.27c2.26-.17,3.55.85,5.63.91-1.91,4.51-5.97,7.3-8.34,11.44-.63-3.55,2.21-8.21,2.71-12.36Z"/><path class="cls-1" d="M324.07,140.72c8.29,1.17,15.52,3.66,23.22,5.58-4.13,10.15-7.31,21.06-10.15,32.25-1.54-1.53.77-6.2-1.79-7.35-6.46-.12-8.32,5.56-13.55,4.96-.25-6.72,1.12-12.13,1.58-18.27,3.2.72,6.18,1.71,9.76,1.98-2.52-1.76-6.22-2.06-9.37-3.02-.4-5.78.89-10.19.3-16.12Z"/><path class="cls-5" d="M231.92,153.53c3.08-1,6.69,2.21,10.3,2.43-.07,4.03-3.51,5.34-6.27,7.2-2.18-2.18-1.57-7.8-4.03-9.63Z"/><path class="cls-5" d="M294.49,150.91c.56,1.36.9,3,1.46,4.37,2.68.04,3.95-1.05,4.76-2.51.63,4.59-2.73,9.91-3.44,14.95-6.6-1.02-12.35-3.1-18.58-4.56.59-5.89,3.14-10.19,6.03-14.22,3.39.49,6.37,1.49,9.77,1.98Z"/><path class="cls-5" d="M243.27,156.35c.92.27.17.89.16,1.49-.92-.27-.16-.9-.16-1.49Z"/><path class="cls-5" d="M255.32,156.07s-.09-.49-.05-.5c2.34-.67-2.03,3.45.05.5Z"/><path class="cls-5" d="M224.49,159.35c2.11.95-.66,5.41-.7,7.62-2.42.37-3.29-1.18-5.63-.91,1.32-2.87,4.55-4.19,6.32-6.7Z"/><path class="cls-1" d="M374.15,153c-3.32,12.47-8.43,23.49-11.22,36.39-8.75-2.29-16.58-5.72-25.02-8.4,3.04-11.63,6.78-22.71,9.94-34.24,9.62,1.03,16.89,4.97,26.31,6.25Z"/><path class="cls-5" d="M227.08,160.07c3.93,3.2,6.14,8.54,11.6,9.83-2.37,3.13-9.27-1.76-13.3-2.11.45-2.67,1.01-5.24,1.7-7.72Z"/><path class="cls-5" d="M251.55,158.48c1.62,3.99-2.35,11.05-3.33,15.94-2.73-1.32-6.58-1.24-8.87-3.08,2.63-5.45,8.76-8.07,12.2-12.86Z"/><path class="cls-5" d="M308.19,171.07c-3.64-.19-6.27-1.62-9.32-2.53.78-5.58,2.74-10.21,3.88-15.49,3.22.89,6.8,1.33,9.82,2.47-1.2,5.39-3.46,9.93-4.38,15.55Z"/><path class="cls-5" d="M254.63,159.16c4.68,1.71,3.65,10.48,8.34,12.19-1.09,1.7-1.43,3.99-1.86,6.23-3.86-.47-6.75-2.15-10.81-2.37.86-5.82,2.69-10.85,4.33-16.04Z"/><path class="cls-5" d="M316.66,156.09c-.03,6.2-1.07,11.57-1.69,17.28-2.52.3-3.41-1.42-5.68-1.4,1.22-5.53,2.82-10.76,3.78-16.49,1.14.27,2.04.84,3.59.62Z"/><path class="cls-5" d="M263.46,161.74c1.52-.39,1.91,1.07,1.2,1.89-.71-.25-1.04-.96-1.2-1.89Z"/><path class="cls-5" d="M216.28,167.26c2.57.2,4.38,1.33,6.73,1.8-.71,7-2.57,13.07-3.95,19.52-2.63-.88-5.37-1.61-8.28-2.13,1.86-6.38,4.33-12.26,5.51-19.19Z"/><path class="cls-5" d="M275.86,164.95c-1.01,5.4-3.28,9.77-4.43,15.05-3.37.23-5.39-1.2-8.22-1.65.71-7.01,5.92-15.54,12.65-13.41Z"/><path class="cls-1" d="M224.61,169.89c4.82.4,8.39,2.37,12.9,3.16-.73,6.98-3.11,12.64-4.51,19.08-4.59-.13-7.51-2.33-11.86-2.76.24-7.22,2.77-12.6,3.46-19.47Z"/><path class="cls-1" d="M277.96,165.73c6.45,1.02,12.17,2.94,18.08,4.61-.65,5.69-2.85,10.12-3.88,15.5-6.57-1.43-13.02-3-19.13-5.01,1.21-5.39,2.81-10.46,4.94-15.1Z"/><path class="cls-5" d="M238.55,173.44c3.13.81,6.08,1.85,9.32,2.53-1.43,6.57-3.35,12.74-5,19.13-3.64.18-5.58-1.72-8.77-2.08.79-7.09,3.29-12.79,4.45-19.58Z"/><path class="cls-5" d="M192.14,181.38c-2.02,8.67-4.53,16.94-6.3,25.81-2.76-6.9-3.36-16.47-5.57-24.04,4.56-.1,7.42-1.58,11.87-1.77Z"/><path class="cls-5" d="M297.64,171.18c3.64.18,6.27,1.62,9.32,2.52-1.2,5.09-2.81,9.85-3.93,15-3.5-.36-6.35-1.53-9.32-2.53,1.1-5.17,2.97-9.72,3.94-15Z"/><path class="cls-1" d="M249.47,176.8c3.97.34,6.92,1.94,10.81,2.37-1.1,7.14-3.65,13.11-4.9,20.13-4.35-.61-7.52-2.69-11.91-3.26,2.74-5.81,3.99-12.84,6-19.24Z"/><path class="cls-1" d="M308.51,174.05c2.14.53,4.08,1.33,6.23,1.85-.21,4.77-.75,11.37,2.09,14.86,6.19-2.02,8.32-9.56,14.51-10.09.69,4.09-.58,10.4.2,16.07-9.23-2.07-17.67-5.14-26.91-7.2.94-5.45,2.88-10.1,3.89-15.5Z"/><path class="cls-5" d="M321.02,178.25l.99-.11.11.99-.99.11-.11-.99Z"/><path class="cls-1" d="M337.56,182.53c8.21,2.6,16.08,5.6,24.48,7.96-1.41,8.71-4.5,16.06-5.91,24.76-2.29.21-3.37-1.07-5.18-1.46-1.93-7.17-1.91-16.76-5.36-22.06-3.48-1.22-5.96,1.28-8.84,1.95.53-3.51-.79-8.52.82-11.15Z"/><path class="cls-5" d="M302.19,190.31c.43,3.08-1.2,4.49-1.25,7.17-3.36-.53-6.15-1.75-9.76-1.98.23-2.69,1.39-4.63,1.74-7.23,3.78-.18,6.1,1.45,9.27,2.04Z"/><path class="cls-5" d="M331.14,197.79c-.11,3.25-1.13,5.75-2.14,8.27-9.28-2.01-17.31-5.59-26.47-7.75.44-2.53.87-5.06,1.75-7.23,9.4,1.68,17.79,4.61,26.85,6.7Z"/><path class="cls-5" d="M301.7,199.91c9.32,2.34,18.08,5.37,27.02,8.19-.94,3.48-2.19,6.72-2.92,10.37-9.49-1.75-17.59-5.23-26.91-7.2.42-4.2,2.56-7.02,2.81-11.36Z"/><path class="cls-5" d="M343.61,211.04c-4.88-.71-8.42-3.08-13.01-4.15.72-2.14,1.47-4.27,1.8-6.73,3.47,1.03,7.5-1.14,9.24-2.99,2.5,2.56.5,9.14,1.97,13.87Z"/><path class="cls-5" d="M205.73,214.63c3.3.6,6.44,1.42,9.77,1.98-.15,3.97-2.28,6.34-2.43,10.31-4.79.68-6.02-3.05-9.03-4.57.57-2.57.79-5.43,1.69-7.72Z"/><path class="cls-5" d="M217.04,216.95c2.86.78,5.88,1.35,8.76,2.09-.85,3.56-2.25,6.66-2.92,10.37-3.14-.05-5.41-1.18-8.22-1.64-.04-4.28,2.02-6.85,2.37-10.81Z"/><path class="cls-5" d="M226.35,219.48c6.12.67,10.87,3.05,16.54,4.27-1.09,3.21-2.04,6.53-2.97,9.87-5.77-.36-10.16-2.42-15.44-3.39-.08-4.15,1.5-6.97,1.87-10.75Z"/><path class="cls-5" d="M202.68,228.53c3.05,7.04.27,17.17,2.3,26.4-2.34-.47-4.76-.86-7.17-1.25,1.65-8.37,3.13-16.87,4.87-25.16Z"/><path class="cls-5" d="M208.15,227.95c1.92-.32,2.69.8,4.13,1.07-1.5,2.57-.94,6.81-3.07,8.88.35-3-.8-5.25-1.06-9.95Z"/><path class="cls-1" d="M243.44,224.2c4.87.54,8.48,2.64,13.41,3.1.38,4.09-2.01,5.95-1.97,9.76-4.81-.42-8.73-1.95-13.35-2.6.2-3.78,1.5-6.67,1.92-10.27Z"/><path class="cls-5" d="M213.83,229.36c3.05.16,5.02,1.65,8.22,1.64-.59,7.24-2.85,13.15-3.9,20.02-3.45-.06-4.61,1.74-6.75,2.73-2.11-10.49.37-17.28,2.44-24.39Z"/><path class="cls-5" d="M351.65,215.72c1.17.43,2.57.56,3.64,1.12-.48,3.55-1.65,6.55-2.48,9.81-.18-2.4,0-7.13-1.16-10.94Z"/><path class="cls-1" d="M223.65,231.83c5.25,1.19,10.49,2.38,15.49,3.89-.15,4.26-2.16,7.04-2.32,11.31-3.38-.13-5.87-1.35-9.21-1.54,2.07,1.93,5.63,2.02,8.38,3.13-.85,4.47-1.84,8.83-2.61,13.35-2.85-.02-4.89-1.08-7.22-1.75-.51-4.25-.59-9.02-2.26-11.83-2.55-.39-1.95,1.75-3.82,1.91.71-6.55,2.86-11.92,3.57-18.48Z"/><path class="cls-5" d="M258.44,228.14c5.32,1.1,10,3.01,15.5,3.88-.56,3.33-1.57,6.3-2.52,9.32-5.02-1.47-10.51-2.36-15.5-3.88.68-3.24,1.72-6.19,2.53-9.32Z"/><path class="cls-5" d="M240.69,236.05c4.62.66,8.54,2.18,13.35,2.61-.61,3.91-1.72,7.4-2.32,11.31-4.91-.11-8.52-1.82-13.29-2.11-.07-4.6,1.92-7.54,2.27-11.81Z"/><path class="cls-5" d="M275.04,232.91c4.95.81,9.46,2.16,13.95,3.54-1.15,2.55-1.59,5.69-2.63,8.33-4.94-.46-8.87-2.15-13.41-3.1.54-3.04,1.75-5.55,2.09-8.77Z"/><path class="cls-1" d="M271.07,242.88c-1.3,3.49-1.6,7.79-3.37,10.92-4.63.71-9.67-2.55-14.9-2.94.61-3.91,1.71-7.4,2.32-11.31,5.95.33,10.42,2.48,15.94,3.33Z"/><path class="cls-5" d="M290.04,236.85c2.04-.08,3.47.57,5.13.96-2.36,2.65-3.93,5.91-7.21,7.81.22-3.31,1.27-5.94,2.08-8.77Z"/><path class="cls-5" d="M272.62,243.22c4.14,1.26,8.33,2.44,12.91,3.15.24,5.5-3.14,8.07-5.3,11.63-3.6-.99-7.67-1.39-10.43-3.42.35-4.26,1.56-7.83,2.82-11.36Z"/><path class="cls-5" d="M304.54,240.84c3.16-1.46,6.46,1.75,10.21,1.43-2.29,2.09-5.33,3.57-8.53,4.93-.24-2.51-.7-4.75-1.68-6.36Z"/><path class="cls-5" d="M249.17,263.81c1.87-2.88,2.28-6.95,2.86-10.86,4.96.42,8.69,2.38,13.41,3.1-2.96,4.43-7.05,7.94-9.17,13.04-7.22-1.94-14.23-4.13-21.28-6.28.37-5,1.8-9.15,2.54-13.85,4.58.91,8.55,2.56,13.41,3.1-.42,4.06-1.29,7.74-1.76,11.75Z"/><path class="cls-1" d="M197.42,254.73c2.86.39,5.18,1.47,7.77,2.19.2,6.22-1.91,10.58-2.84,15.89-2.49-.86-5.07-1.6-7.77-2.19.42-5.72,2.65-9.99,2.84-15.89Z"/><path class="cls-5" d="M287.17,247.71c-.22-.19.36.29,0,0h0Z"/><path class="cls-5" d="M299.55,245.89c.02,1.47,1.29,1.41,1.31,2.88-.95,1.11-2.3-.47-3.58-.63.55-.92.81-2.07,2.27-2.25Z"/><path class="cls-5" d="M319.99,244.22c4.85.93,9.18,2.51,13.95,3.55-1.02,8.12-4.53,14.21-5.68,22.22-3.2.21-5.05-1.24-7.73-1.69-.01-7.9.89-15.04-.54-24.08Z"/><path class="cls-5" d="M220.11,255.34c1.13.1.46,2.43.86,3.43-1.36.56-1.36-.56-2.54-.23-.85-2.2,1.58-1.76,1.68-3.2Z"/><path class="cls-5" d="M296.88,249.19c.54,1.03,2.26.57,3.14,1.17-.92,4.1-2.21,7.92-3.26,11.91-2.82-.81-5.65-1.63-8.76-2.08,2.27-4.22,5.23-7.89,8.88-11Z"/><path class="cls-5" d="M215.01,259.4c1.86,3.88-1.82,10.87-2.34,15.83-3.19.02-5.17-1.48-8.22-1.64-.06-4.29,1.62-7.18,1.82-11.25,3.43,2.19,6.89-1.09,8.73-2.94Z"/><path class="cls-5" d="M217.6,260.13c1.17.42,2.58.56,3.64,1.12.58,5.47,1.16,10.94,1.74,16.41-3.59.32-5.56-1.36-8.71-1.59.88-5.5,2.43-10.45,3.33-15.94Z"/><path class="cls-1" d="M314.05,249.88c2.13,3.74-.03,11.75-.24,16.62-5.26-1.18-10.24-2.71-15.5-3.89-.04-4.28,2.02-6.85,2.37-10.81,1.36,1.69,1.99,4.29,4.51,4.55,4.77-.7,6.55-3.81,8.86-6.47Z"/><path class="cls-1" d="M335.53,248.61c2.92-.24,4.25,1.49,7.17,1.25-.99,7.38-3.98,13.15-5.39,20.19-2.76,5.95-2.54,14.31-6.49,19.29-2.83-4.73-4.29-11.92-2.3-16.85,2.39.04,4.06.97,6.17,1.35.51-1.58-3.79-2.05-5.34-2.95,1.75-7.68,4.43-14.61,6.18-22.28Z"/><path class="cls-5" d="M226.42,262.71c2.29.17,4.02,1.03,6.18,1.35-.57,5.29-1.35,10.42-3.49,14.45-1.8-4.15-2.04-10.23-2.69-15.8Z"/><path class="cls-5" d="M273.76,258.69c2.04-.1,2.95,1.21,5.13.96.48,2.21-1.52,2.4-1.57,4.19-1.27-1.61-2.7-3.03-3.56-5.15Z"/><path class="cls-5" d="M234.2,264.9c7.27,1.5,13.57,4.2,20.73,5.84-2,5.04-4.64,9.58-7.57,13.88-1.48.52-1.55-.71-3.04-.18-1.51-3.38-1.83-8.23-3.7-11.17-3.01.6-4.66,2.29-7.74,2.83-1.12-3.19,1.4-7.35,1.32-11.2Z"/><path class="cls-5" d="M268.11,262.31c3.23,2.89,5.84,10.79,12.23,6.24-.25,2.37-1.06,4.29-1.31,6.67-4.88-.7-9.14-2.19-13.45-3.59.17-3.65,1.52-6.35,2.53-9.32Z"/><path class="cls-5" d="M295.93,263.87c-.6,5.27-2.89,9.18-3.5,14.45-4.84-.01-8.38-1.62-12.35-2.71.62-3.14,1.91-5.73,2.04-9.27,2.47-5.87,8.2-3.89,13.82-2.47Z"/><path class="cls-1" d="M193.74,272.22c3.01.41,5.48,1.47,8.27,2.14.23,2.76-1.39,4.02-.75,7.12,1.77-1.3,1.51-4.23,2.35-6.28,3.18.95,7.52.45,8.93,3.57,2.67-2.34,7.26,1.09,10.7,1.38.29,3.77.82,7.23,4.27,7.09-.39,2.26-.84,4.48-1.3,6.68-11.74-3.66-23.18-7.7-35.79-10.28.77-4.08,1.95-7.82,3.31-11.41Z"/><path class="cls-1" d="M313.47,268.04c.45,5.67-1.01,9.79-.35,15.63-6.58-1.42-12.84-3.24-19.58-4.46.65-5.23,2.82-9.24,3.49-14.45,6.14.27,10.4,2.89,16.44,3.28Z"/><path class="cls-5" d="M263.49,270.84c.37-2.03.79,1.9,0,0h0Z"/><path class="cls-5" d="M263.2,272.88c-.55,5.61-2.36,10.2-3.38,15.44-2.13-.18-3.76-.97-5.68-1.4,2.99-4.71,4.55-10.56,9.06-14.04Z"/><path class="cls-1" d="M264.8,273.72c4.61,1.05,8.86,2.54,13.45,3.6-1.04,5.06-2.39,9.88-3.44,14.94-4.62-.84-8.51-2.59-13.4-3.1.84-5.39,2.26-10.29,3.39-15.44Z"/><path class="cls-5" d="M320.19,269.84c2.41.76,5.23,1.02,7.28,2.25-.86,4.61-3.24,7.99-8.05,9.4.31-3.84.75-7.57.78-11.65Z"/><path class="cls-5" d="M237.82,280.1l.21,1.99c-1.18.33-1.18-.8-2.54-.23.24-1.02,1.19-1.47,2.33-1.76Z"/><path class="cls-1" d="M279.8,277.66c3.58,1.19,7.64,1.78,11.36,2.81-.52,5.64-2.86,9.81-3.39,15.45-4.52-.4-8.03-2.06-11.91-3.26,1.6-4.76,2.31-10.26,3.94-15Z"/><path class="cls-1" d="M292.69,280.81c7.14,1.11,13.36,3.35,20.58,4.35,1.06,1.11.47,4.29,2.02,4.81,4.12.37,4.17-3.11,7.3-2.28-.89,6.55-3.33,11.85-4.61,18.09-9.71-2.99-19.22-6.21-29.11-8.97.74-5.77,2.69-10.55,3.83-15.99Z"/><path class="cls-5" d="M244.52,286.43l1.5-.16c.22.79-.38.91-.34,1.55l-1,.11-.16-1.5Z"/><path class="cls-2" d="M351.08,276.62c-.23-.19.36.29,0,0h0Z"/><path class="cls-5" d="M172.13,300.66c-.23-.19.36.29,0,0h0Z"/><path class="cls-5" d="M315.5,315.59c1.28-.64,2.35-5.36,3.18-7.88,1.64.59,3.31,1.15,5.19,1.46.34,3.16.67,6.3,1,9.45-18.17-3.4-35.16-8.24-52.62-12.51,1.36-3.6,2.04-7.74,3.31-11.42,4.11.73,7.72,2.07,11.41,3.31.09,1.59-.89,2.3-.58,4.08,1.35-.58.78-2.7,1.62-3.69,9.94,2.7,19.64,5.69,29.11,8.98-.29,2.95-1.25,5.35-1.64,8.22Z"/><path class="cls-5" d="M329.87,289.93c.42.22.86.43,1.54.34.52,1.78-.88,2.02-.62,3.58-1.16-.25-.49-2.77-.92-3.92Z"/><path class="cls-5" d="M322.73,293.71c1.45,3.76.26,9.3.98,13.97-1.88-.11-3.06-1.09-4.69-1.51,1.26-4.14,2.73-8.11,3.71-12.47Z"/><path class="cls-5" d="M399.44,116.62c1.24,4.01-2.59,11.45-3.78,16.49-.71,2.91-1.7,5.6-2.63,8.32-.22,1.65-.73,3.05-1.57,4.19.02.87-.97,4.41-1.27,2.14,2.15-7.96,3.95-16.19,5.41-24.7,1.76-1.76.14-6.25,3.84-6.45Z"/><path class="cls-5" d="M277.66,158.22c.94.5-.88,2.59-.57,4.08l-1.99.21c-1.36-1.66,2.03-2.72,2.56-4.29Z"/><path class="cls-5" d="M326.89,219.35c.65-3.71,2.75-6.26,2.92-10.37,5.49.34,9.07,3.02,14.01,4.05,1.32,4.37,1.54,10.09,4.8,12.06-6.48-.61-14.33-4.38-21.73-5.74Z"/><path class="cls-4" d="M151.02,245.02c-5.14-24.41-8.16-49.55-12.81-72.78-2.34-11.7-5.08-23.36-8.68-33.82-2.48-1.35-7.34.24-10.98.32-36.72,10.07-74.65,19.15-113.4,27.57-.39.04-.77.12-1.13.25-1.34.29-2.67.59-4.01.87,5.94,32.43,15.6,64.62,23.1,96.72.54,2.52,1.08,5.05,1.6,7.58,1.46,7.18,2.57,17.38,6.13,24.48.81,2.59,1.71,5.09,2.72,7.47,3.27,1.17,7.91.64,11.95.85,36.36-9.3,75.79-16.13,112.57-25.09-1.08-11.28-4.56-22.63-7.05-34.41Z"/><path class="cls-5" d="M125.23,141.84c2.78.51,2.33,5.02,4.86,5.84,8.93,41.88,15.07,87.22,24.27,128.76-36.35,8.16-73.29,15.85-108.79,24.7-3.05-.34-7.11.57-10.14.23-10.21-44.72-21.9-87.61-32.64-131.68,42.89-7.6,80.78-19.24,122.44-27.84ZM15.16,178.54c.37,7.33,2.73,16.17,5.71,21.85,4.31-.6,7.57-2.05,12.48-2.17,27.8-10.61,62.52-15.62,93.21-23.88-.59-6.41-2.58-15.12-4.79-21.1-34.09,9.61-73.56,14.87-106.62,25.31ZM95.23,190.36c.87,5.4,2.01,10.46,4.07,14.4,6.88-1.08,15.8-1.78,20.59-5.58-.52-5.05-.94-10.21-2.35-14.16-6.61-.52-17.87,1.58-22.3,5.34ZM66.8,198.04c.89,4.9,1.92,9.63,3.93,13.14,4.74-1.36,12.29-1.6,15.46-2.07.1-4.96-2.42-10.51-3.37-15.73-5.67-.22-12.24,2.09-16.03,4.66ZM43.28,203.93c.64,5.06,1.3,10.09,3.52,13.19,5.29-.17,9.53-1.98,14.24-1.51.19-4.39-.23-12-2.44-14.99-4.93-.25-12.85.31-15.32,3.32ZM23.44,208.59c.72,5.59,1.36,11.26,3.7,14.86,3.78-.64,7.88-1.03,11.22-2.04-.87-5.71-1.62-11.58-3.41-16.16-4.02-.52-9.4,1.05-11.51,3.34ZM101.28,215.56c-.65,4.5,1.22,9.83,2.31,13.74,8.73-.39,19.28-2.53,27.94-4.24,1.11-3.87-.1-11.48-1.98-14.62-9.23.34-20.38,2.42-28.27,5.12ZM58.96,223.87c-9.16,3.7-22.67,3.9-30.42,8.74,3.49,20.54,7.89,40.03,14.1,56.97,16.96-.6,31.68-6.32,48.24-8.52,4.01-2.12,12.11-.95,14.82-4.12-1.52-16.29-6.71-32.14-10.14-47.64-1.75-4.62-.98-12.38-5.28-13.84-10.86,2.46-19.91,6.39-31.31,8.41ZM106.31,234.94c-.54,5.44,1.54,11.65,4.11,14.81,8.78-.47,19.61-2.51,25.57-6.53-1.06-4.69-1.13-10.6-3.56-13.6-8.22,2.16-17.27,3.67-26.13,5.32ZM118.77,256.5c-3.22-.1-5.91-.01-7.41,2.06,1.16,4.89,1.69,10.54,3.28,14.9,6.41-.44,11.25-2.15,16.12-3.83,4.14-1.26,11.11-.22,12.3-3.85.34-2.48-2.05-1.57-2.07-3.6-.64-3.95-.25-9.17-2.46-11.18-6.97,1.51-12.36,4.31-19.75,5.49Z"/><path class="cls-6" d="M118.83,157.36c2.83-.18,1.33,4.98,2.8,6.48.25,3.02,1.09,5.3,1.69,7.87-16.28,3.36-32.3,7.93-48.39,11.07-16.39,3.2-30.89,9.06-46.54,12.57-2.32.29-3.76,1.3-6.2,1.5-1.29-5.83-3.34-10.72-4.71-16.45,16.25-2.45,31.61-8.93,50.58-10.46,16.53-3.88,32.66-8.08,49.14-12,.69.05.67-.47,1.21-.55l.42-.04Z"/><path class="cls-5" d="M114.03,187.94c1.9,1.75,1.73,6.09,2.28,9.5-5.07,1.27-9.28,3.22-15.28,3.74-1.61-3.07-2.48-7.05-3.67-10.63,5.9-.59,11.43-1.49,16.67-2.61Z"/><path class="cls-5" d="M81.05,196.53c.78,2.83,1.25,6.03,1.81,9.13-3.88.56-7.08,1.68-11.22,2.04-.9-2.85-1.93-5.52-2.62-8.62,4.54-.42,7.77-1.89,12.02-2.55Z"/><path class="cls-5" d="M45.47,204.55c3.99-.52,7.82-.83,11.36-.78.3,2.79.59,5.58.89,8.37-2.74.91-7.66,1.9-9.96,1.91-.77-3.15-1.63-6.2-2.28-9.5Z"/><path class="cls-5" d="M32.75,208.44c.25,3.95,1.57,6.58,1.95,10.38-2.35.27-4.26.9-6.2,1.5-1.22-3.23-2-7-2.83-10.71,2.86.02,4.28-1.13,7.08-1.17Z"/><path class="cls-5" d="M127.3,213.22c1.09,2.45,1.54,5.69,1.82,9.13-8.41,1.12-16.06,2.85-24.12,4.25-.46-3.53-1.43-6.45-2.28-9.5,8.08-.84,15.62-2.81,24.58-3.88Z"/><path class="cls-5" d="M91.13,219.61c.5,5.69,2.15,9.98,2.9,15.36-3.78.9-7.02,2.25-11.14,2.88-1.46-4.99-2.65-10.3-4.15-15.24,3.92-1.17,7.8-2.37,12.39-3.01Z"/><path class="cls-5" d="M76.68,223.26c.89,5.54,2.62,10.03,3.36,15.74-4.92.87-9.41,2.09-13.6,3.56-1.29-5.2-2.81-10.1-3.78-15.7,4.92-1.01,9.35-2.41,14.02-3.61Z"/><path class="cls-5" d="M63.14,243.34c-5.87,1.26-11.91,2.38-16.91,4.34-1.63-4.93-2.77-10.47-4.2-15.65,5.6-1.49,13.17-3.38,18.21-4.05.59,5.59,2.28,9.8,2.9,15.37Z"/><path class="cls-5" d="M39.93,232.25c.68,5.96,2.45,10.56,3.41,16.16-2.88.61-5.53,1.41-8.25,2.15-1.56-5.18-2.69-10.89-4.25-16.08,2.77-.95,5.38-2.03,9.08-2.23Z"/><path class="cls-5" d="M129.86,233.29c2.15,1.14,1.92,5.21,2.57,8.2-5.85,2.81-13.68,4.02-21.01,5.62-.76-3.48-2.02-6.35-3.12-9.41,7.11-1.53,15.48-2.05,21.56-4.41Z"/><path class="cls-5" d="M94.81,238.28c1.1,4.17,2.02,8.56,3.05,12.81-3.53.98-7.3,1.76-11.18,2.46-1.25-3.82-2.05-8.21-3.02-12.39,3.79-.9,7.02-2.24,11.14-2.88Z"/><path class="cls-5" d="M79.95,241.98c2.89,2.1,2.43,8.36,3.85,12.3-4.58,1.15-9.12,2.33-14.06,3.19-.43-4.53-1.95-7.7-2.55-12.02,4.32-1.1,8.52-2.31,12.77-3.47Z"/><path class="cls-5" d="M66.84,258.2c-5.96.8-11.54,1.91-17.51,2.71-.55-3.74-1.64-6.83-2.37-10.34,5.24-1.53,12.17-3.67,17.37-3.96.5,4.28,1.96,7.37,2.5,11.6Z"/><path class="cls-5" d="M43.66,251.34c2.16,1.91,1.91,6.81,3.16,9.84-2.93.31-5.86.62-8.79.93-.68-3.11-1.77-5.71-2.24-9.08,2.77-.44,5.49-.93,7.87-1.69Z"/><path class="cls-5" d="M98.68,254.82c.48,2.72,1.43,4.88,1.68,7.87-3.21,1.15-8.21,2.76-11.13,2.88-.25-3.32-1.45-5.48-1.77-8.71,3.77-.66,6.9-1.83,11.22-2.04Z"/><path class="cls-5" d="M83.73,257.68c2.4,1.14,1.64,6.18,3.03,8.58-3.95,1.65-9.42,2.08-14.06,3.19-.67-2.81-1.49-5.42-1.77-8.71,4.2-1.07,8.71-1.89,12.81-3.05Z"/><path class="cls-5" d="M67.62,261.51c.67,2.81,1.49,5.43,1.77,8.71-5.75.96-10.79,2.52-16.57,3.46-.66-3.29-1.7-6.11-2.28-9.5,5.29-1.21,11.46-1.71,17.09-2.66Z"/><path class="cls-5" d="M39.18,264.95c2.65-.28,5.31-.56,7.96-.85,1.56,2.66,2.28,6.35,2.79,10.3-2.92.27-6.34,1.93-8.29,1.73-.41-4.24-2.08-6.9-2.45-11.18Z"/><path class="cls-5" d="M136.41,255.04c1.16,2.2.85,6.22,1.4,9.18-7.69,1.57-13.61,4.57-21.38,6.08-.87-3.82-2-7.32-2.88-11.14,7.8,1.4,16.28-2.12,22.86-4.12Z"/><path class="cls-5" d="M100.72,266.04c2.06,1.9.76,5.72,1.35,8.76-2.58,1.36-6.94,1.28-9.92,2.32-.5-2.86-1.6-4.97-1.73-8.29,3.23-1.08,7.47-1.36,10.29-2.79Z"/><path class="cls-5" d="M87.53,269.56c.26,3.16,1.34,5.3,1.73,8.29-4.87.79-9.27,1.96-14.11,2.77-.68-2.63-1.31-5.34-1.73-8.29,4.64-.97,9.53-1.75,14.11-2.77Z"/><path class="cls-5" d="M70.12,273.1c.91,2.35,1.47,5.13,1.73,8.29-5.41.99-9.58,2.99-15.75,3.37-.77-2.68-1.96-4.84-2.15-8.25,4.99-1.46,10.72-2.32,16.16-3.41Z"/><path class="cls-5" d="M51.07,277.25c.56,2.95,1.59,5.3,2.15,8.25-3.25,0-6.65,1.67-8.75,1.35-.22-3.2-1.66-4.89-1.73-8.29,2.93-.31,5.08-1.26,8.33-1.31Z"/><path class="cls-4" d="M64.9,91c7.19-1.52,12.78,3.79,19.5,4.26,2.34-4.65,3.11-9.67,7.81-13.78,5.02.76,9.95,1.96,14.46,4.91-2.64,5.71-7.98,10.78-9.43,16.76,3.15,3.35,8.14,4.96,9.97,9.67-9.76,6.78-21.84,12.34-31.71,15.23-5.36-12.78-11.06-25.64-10.6-37.06Z"/><path class="cls-3" d="M68.64,94.64c.02,9.18,5.55,19.65,7.82,29.36,8.28-3.18,16.96-8.01,25.39-11.81-3.07-3.18-6.26-6.15-8.45-9.62,2.25-5.19,6.19-9.97,9.6-14.88-3.03-1.88-6.58-1.5-9.72-2.89-2.87,4.22-4.14,8.82-6.74,13.11-6.66,1.88-11.78-2.83-17.9-3.27Z"/><path class="cls-4" d="M118.35,46.91c4.01,1.61,8.06,3.05,11.73,6.1-6.5,8.38-12.71,16.82-18.47,25.36-4.38-.9-8.63-2.36-12.44-5.66,2.75-9.45,10.84-17.66,19.19-25.8Z"/><path class="cls-3" d="M103.4,71.56c2.28,1.6,4.65,2.81,7.13,3.51,4.83-7.03,9.92-14,15.88-20.76.24-1.75-5.18-1.2-6.78-3.73-6.66,6.7-13.54,13.36-16.23,20.99Z"/><path class="cls-4" d="M154.21,15.22c2.94,2.27,4.82,6.74,6.45,10.38-7.48,5.41-16.73,11.97-22.86,16.68-3.41-1.16-6.86-2.13-9.77-5.34,4.77-7.97,15.04-17.19,26.19-21.72Z"/><path class="cls-3" d="M132.49,36.15c1.51,1.38,3.26,1.77,4.68,3.54,6.89-4.82,13.01-9.81,20.81-14.41-1.59-1.45-2.95-3.97-4.36-6.22-8.5,4.29-16.55,10.91-21.13,17.09Z"/><path class="cls-4" d="M164.13,12.03c.82-1.23,1.36-2.54,3.28-3.51C186.34-.05,204.02-3.27,219.22,4.11c-1.39,3.55-.22,7.69-3.16,10.89-14.37-2.2-30.08,1.29-46.01,5.75-2.14-2.22-4.71-6.49-5.92-8.72Z"/><path class="cls-3" d="M169.41,11.74c-.17,1.49,1.62,3.44,1.59,4.96,14.72-1.91,30.02-6.29,43.86-4.43.03-2.54.71-4.93.24-7.59-14-2.9-28.96-1.75-45.7,7.06Z"/><path class="cls-4" d="M481.02,161.89c7.64-22.31-6.77-51.17-33.34-42.64-2.58-3.76-4.86-7.88-6.82-12.41,3.08-5.17,8.97-8.07,14.01-11.65-.93-3.9-2.53-6.98-4.42-9.7-7.04,2.23-11.74,6.34-17.17,9.87-1.95-2.8-3.04-6.66-6.33-7.8-2.28,1.48-4.79,2.76-5.79,5.27,1.45,3.9,4,6.43,5.35,10.45-1.92,3.29-3.78,8.06-4.48,13.09-.45,1.27-.5,2.81-.27,4.42.07,3.74.93,7.44,3.07,10.62,4.14,4.68,12.16,4.54,20.73,3.73,4.95,7.62,9.98,15.13,14.73,23.01-3.53,2.06-10.63,1.53-13.78,1.89-.55,3.9.83,9.35,1.05,13.87,3.88,6.28,17.09,2.3,23.26-.35,1.04,6.48,9.77,6.24,11.95.85-.76-3.65-3.92-4.31-5.03-7.51.54-2.11,2.28-3.27,3.28-5.01ZM467.12,150.66c-4.23-4.56-6.69-11.31-10.63-16.24,8.09-2.53,13.4,8.26,10.63,16.24Z"/><path class="cls-5" d="M452.17,93.78c-5.45,4.02-12.03,7.13-14.67,13.42,3.03,4.79,5.61,10.13,8.4,15.21,13.08-3.43,21.71.32,27.84,6.79,6.85,9.15,8.81,30.87-.31,36.89,1.17,2.51,4.21,5.21,4.19,7.61-3,2.8-4.66-2.23-5.98-4.45-3.56,1.93-15.53,7.26-20.86,3.06-.33-3.07-.65-6.14-.98-9.22,5.77-.45,11.24-1.13,14.44-3.65-5.71-9.37-11.67-18.42-17.73-27.35-7.68.33-16.11,1.61-19.81-2.98-4.92-9.21-.51-20.25,3.29-24.92-1.71-4.05-4.45-6.82-6.23-10.78,1.32-1.67,2.2-1.67,4.43-2.16,1.57,3.1,3.5,5.78,5.17,8.77,3.86-5.05,10.44-7.9,15.69-11.83,2.1.56,1.52,4.43,3.13,5.6ZM467.74,156.52c8.89-11.41.4-29.8-16.25-25.38,5.43,8.44,9.97,17.99,16.25,25.38Z"/></g></svg>