<?xml version="1.0" encoding="UTF-8"?><svg id="Capa_2" xmlns="http://www.w3.org/2000/svg" viewBox="0 0 381.39 310.7"><defs><style>.cls-1{fill:#faceac;}.cls-1,.cls-2,.cls-3,.cls-4{stroke-width:0px;}.cls-2{fill:#3066be;}.cls-3{fill:#323972;}.cls-4{fill:#80ded9;}</style></defs><g id="Capa_1-2"><path class="cls-4" d="M87.83,199.54v.02c2.61,12.37,15.48,22.02,31.32,22.02h13c20.33,0,35.46-15.82,31.07-32.51l-.75-2.78c-3.21-12.23-16.13-20.95-31.05-20.95h-11.81c-.15,0-.33,0-.48.02-15.74.19-28.99,10.04-31.07,23.19l-.44,2.76c-.44,2.82-.35,5.59.21,8.22Z"/><path class="cls-4" d="M87.83,199.56c0,16.99,16.45,31.26,37.29,31.26h15.26c23.85,0,41.59-18.55,36.42-38.11l-.86-3.26c-3.78-14.34-18.91-24.58-36.42-24.58h-13.86c-2.23,0-4.42.17-6.53.5.15-.02.33-.02.48-.02h11.81c14.92,0,27.84,8.72,31.05,20.95l.75,2.78c4.4,16.69-10.73,32.51-31.07,32.51h-13c-15.84,0-28.7-9.66-31.32-22.02Z"/><path class="cls-2" d="M132.14,222.83h-13c-16.04,0-29.72-9.68-32.54-23.01-.14-.68.29-1.34.96-1.48.67-.14,1.34.29,1.48.96,2.57,12.19,15.23,21.03,30.09,21.03h13c10.45,0,20.07-4.39,25.74-11.74,4.41-5.72,5.87-12.54,4.12-19.19l-.75-2.78c-3.04-11.6-15.59-20.02-29.84-20.02-.69,0-1.25-.56-1.25-1.25s.56-1.25,1.25-1.25c15.61,0,28.88,9,32.26,21.88l.75,2.78c1.96,7.43.34,15.01-4.56,21.36-6.14,7.96-16.5,12.72-27.72,12.72Z"/><path class="cls-1" d="M241.67,67.74c-16.29-5.79-34.2,2.71-39.98,18.99-1,2.81-1.56,5.67-1.74,8.5.76-.53,1.55-1.02,2.34-1.48,2.37-1.4,4.98-2.51,7.68-3.12,4.55-1.03,9.51-.59,13.3,2.32,3.29,2.52,5.27,6.28,6.79,10.06,3.23,8.08,4.88,16.6,5.44,25.23,11.19-1.56,21.15-9.14,25.19-20.51,5.79-16.29-2.71-34.19-19.01-39.99Z"/><path class="cls-2" d="M234.86,122.73c-.21,0-.43-.07-.6-.2-.21-.16-.35-.4-.39-.67-.88-6.59-2.48-12.81-4.75-18.48-1.26-3.14-3.13-7.08-6.47-9.63-3.22-2.46-7.65-3.22-12.48-2.13-.82.18-1.69.45-2.74.82-.34.12-.73.05-1.01-.2-.27-.25-.39-.62-.31-.98.23-.97.49-1.85.78-2.67,4.76-13.38,19.52-20.39,32.91-15.63h0c13.38,4.76,20.39,19.52,15.63,32.92-3.2,8.98-11.03,15.43-20.45,16.84-.05,0-.1.01-.15.01ZM214.37,89.13c3.61,0,6.88,1.03,9.5,3.03,3.73,2.85,5.75,7.1,7.11,10.48,2.21,5.53,3.8,11.56,4.73,17.93,8.24-1.59,15.03-7.4,17.86-15.36,4.39-12.35-2.08-25.97-14.42-30.36h0c-12.35-4.39-25.97,2.08-30.36,14.42-.08.23-.16.46-.24.7.41-.12.8-.22,1.18-.3,1.59-.36,3.14-.53,4.63-.53Z"/><path class="cls-4" d="M221.79,140.53s-18.41-18.23-31.76-23.39c0,0,14.28-18.38,25.62-15.84,11.34,2.54,6.14,39.23,6.14,39.23Z"/><ellipse class="cls-2" cx="175.53" cy="152.54" rx="7.65" ry="10.94"/><ellipse class="cls-2" cx="128.43" cy="147.74" rx="7.65" ry="10.94"/><path class="cls-2" d="M135.34,203.64c-4.27,0-7.74-4.77-7.74-10.64s3.47-10.64,7.74-10.64,7.74,4.77,7.74,10.64-3.47,10.64-7.74,10.64ZM135.34,184.37c-3.16,0-5.74,3.88-5.74,8.64s2.57,8.64,5.74,8.64,5.74-3.88,5.74-8.64-2.57-8.64-5.74-8.64Z"/><path class="cls-2" d="M107.3,203.64c-4.27,0-7.74-4.77-7.74-10.64s3.47-10.64,7.74-10.64,7.74,4.77,7.74,10.64-3.47,10.64-7.74,10.64ZM107.3,184.37c-3.16,0-5.74,3.88-5.74,8.64s2.57,8.64,5.74,8.64,5.74-3.88,5.74-8.64-2.57-8.64-5.74-8.64Z"/><path class="cls-2" d="M298.45,183.97s-.09,0-.13,0c-.55-.07-.93-.58-.86-1.12,1.86-13.96-2.02-28.35-10.65-39.47-.34-.44-.26-1.07.18-1.4.44-.34,1.07-.26,1.4.18,8.96,11.55,12.98,26.48,11.05,40.96-.07.5-.5.87-.99.87Z"/><path class="cls-2" d="M291.45,270.71c-.26,0-.51-.1-.71-.3l-17.8-17.96c-.39-.39-.39-1.03,0-1.41.39-.39,1.03-.39,1.41,0l17.8,17.96c.39.39.39,1.03,0,1.41-.2.19-.45.29-.7.29Z"/><path class="cls-2" d="M281.17,275.09c-.28,0-.56-.12-.76-.35l-15.48-17.88c-.36-.42-.32-1.05.1-1.41.42-.36,1.05-.32,1.41.1l15.48,17.88c.36.42.32,1.05-.1,1.41-.19.16-.42.24-.65.24Z"/><path class="cls-2" d="M269.77,277.17c-.25,0-.5-.09-.69-.28l-8.04-7.71c-.4-.38-.41-1.01-.03-1.41.38-.4,1.01-.41,1.41-.03l8.04,7.71c.4.38.41,1.01.03,1.41-.2.2-.46.31-.72.31Z"/><path class="cls-2" d="M270.24,278.46c-3.05,0-6.22-.37-9.45-1.24-.51-.14-.88-.58-.92-1.1l-1.42-16.72c-.06-.69.45-1.29,1.14-1.35.69-.08,1.29.45,1.35,1.14l1.35,15.84c17.84,4.29,33.96-7.79,37.25-10.46l-7.58-24.47c-.11-.37-.05-.77.17-1.09.21-.3,20.98-30.37,14.73-72.04-4.79-31.92-33.64-48.39-45.82-53.99-.63-.29-.9-1.03-.61-1.66.29-.63,1.03-.9,1.66-.61,12.55,5.77,42.28,22.77,47.25,55.89,5.95,39.67-12.05,69.1-14.81,73.33l7.65,24.7c.14.47,0,.98-.36,1.3-.67.6-14.25,12.55-31.56,12.55Z"/><path class="cls-2" d="M232.48,264.85c-.79,0-1.57-.01-2.37-.04-.69-.02-1.23-.6-1.21-1.29.02-.67.58-1.21,1.25-1.21.02,0,.03,0,.04,0,24.35.87,43.87-12.8,44.07-12.94.56-.4,1.34-.27,1.74.29.4.56.27,1.34-.29,1.74-.79.57-19.17,13.44-43.23,13.44Z"/><path class="cls-2" d="M200.73,291.46c-6.85,0-14.47-.86-22.52-3.21-.59-.17-.96-.74-.89-1.35l3.56-30.05c.08-.68.7-1.17,1.39-1.09.69.08,1.18.7,1.09,1.39l-3.43,28.99c25.55,7.08,46.32-1.12,50.63-3.03l-4.12-25.91c-.11-.68.36-1.32,1.04-1.43.68-.11,1.32.36,1.43,1.04l4.27,26.85c.08.54-.18,1.07-.67,1.31-.17.09-13.09,6.5-31.77,6.5Z"/><path class="cls-2" d="M176.49,267.42c-45.75,0-59.12-35.8-59.25-36.17-.23-.65.1-1.36.75-1.6.65-.23,1.37.1,1.6.75.13.37,13.82,36.81,61.38,34.4.67-.04,1.28.5,1.31,1.18.03.69-.5,1.28-1.18,1.31-1.57.08-3.11.12-4.61.12Z"/><path class="cls-2" d="M234.78,145.25c-.05,0-.11,0-.16,0-.68-.09-1.17-.71-1.08-1.4.04-.32,3.86-31.86-9.33-47.8-2.42-2.92-5.38-4.39-9.05-4.51-13.45-.39-30.89,17.91-31.07,18.09-.47.5-1.26.53-1.77.05-.5-.47-.53-1.26-.05-1.77.74-.79,18.37-19.36,32.97-18.88,4.37.14,8.04,1.96,10.9,5.42,13.88,16.77,10.05,48.37,9.88,49.7-.08.63-.62,1.09-1.24,1.09Z"/><path class="cls-2" d="M114.15,139.2c-.53,0-1.02-.34-1.19-.87-.35-1.08-8.39-26.52-1.96-38.9,1.6-3.08,3.97-5.13,7.05-6.09,16.88-5.26,43.64,10.13,44.77,10.79.6.35.8,1.11.45,1.71-.35.6-1.11.8-1.71.45-.27-.16-26.94-15.5-42.77-10.56-2.45.76-4.28,2.35-5.58,4.85-5.95,11.45,2.04,36.73,2.13,36.98.21.66-.15,1.36-.81,1.57-.13.04-.26.06-.38.06Z"/><path class="cls-2" d="M105.61,166.6c-.09,0-.19-.01-.28-.03-.67-.16-1.09-.83-.94-1.5,8.31-35.84,30.83-51,48.26-57.4,18.84-6.92,35.45-5.41,36.15-5.34.69.07,1.19.68,1.12,1.36-.07.69-.67,1.19-1.36,1.12-.17-.02-16.82-1.52-35.14,5.23-24.46,9.02-40.14,27.72-46.6,55.59-.13.58-.65.97-1.22.97Z"/><path class="cls-2" d="M153.49,281.2c-7.23,0-28.89-1.45-49.06-17.37-.48-.38-.62-1.05-.32-1.58l14.56-26.53c.33-.61,1.09-.83,1.7-.49.61.33.83,1.09.49,1.7l-14.05,25.59c21.03,16.14,43.37,16.32,48.07,16.16l3.37-14.63c.15-.67.82-1.1,1.5-.94.67.15,1.09.83.94,1.5l-3.58,15.55c-.12.53-.57.92-1.11.96-.05,0-.94.07-2.5.07Z"/><path class="cls-2" d="M301.11,143.14c-.5,0-.97-.3-1.16-.79-.25-.64.06-1.37.7-1.62,4.85-1.92,8.55-6.49,9.43-11.63.54-3.16,0-6.47-1.43-9.34-3.09,2.76-6.66,3.97-9.86,3.33-2.16-.43-4.15-1.96-5.2-4-.89-1.73-.99-3.57-.27-5.18,1.05-2.35,3.8-3.88,6.64-3.76,2.23.1,4.54,1.13,6.68,2.97.89.76,1.69,1.62,2.4,2.55,4.03-5.27,4.92-12.95,1.95-18.9-3.38-6.75-11.53-10.84-18.96-9.52-.69.12-1.33-.33-1.45-1.01-.12-.68.33-1.33,1.01-1.45,8.48-1.5,17.78,3.16,21.63,10.86,3.52,7.04,2.29,16.21-2.75,22.22,1.95,3.51,2.74,7.68,2.07,11.65-1.01,5.99-5.32,11.31-10.97,13.54-.15.06-.31.09-.46.09ZM299.62,112.64c-1.75,0-3.42.94-4.02,2.29-.54,1.21-.1,2.41.21,3.01.7,1.36,2.06,2.42,3.47,2.7,3.56.72,6.76-1.85,7.97-2.99.03-.03.06-.06.09-.08-.67-.94-1.45-1.8-2.33-2.55-1.19-1.03-3.05-2.27-5.16-2.37-.08,0-.15,0-.22,0Z"/><path class="cls-2" d="M234.3,91.99c-2.1-1-2.89-1.45-3.18-1.65-.38-.26-.65-.51-.8-.76-.13-.22-.21-.49-.21-.8,0-.52.17-.91.54-1.23.38-.34.97-.51,1.77-.51.76,0,1.54.11,2.33.3.81.21,1.87.56,3.13,1.09l.68.28,2.23-5.37-.67-.3c-1.28-.56-2.53-1-3.72-1.3-.6-.16-1.21-.27-1.84-.35v-4.03h-5.15v4.27c-1.33.32-2.45.88-3.38,1.66-1.63,1.38-2.46,3.29-2.46,5.66,0,1.26.25,2.38.75,3.35.49.94,1.15,1.77,1.97,2.47.81.7,1.95,1.39,3.51,2.12,1.56.74,2.59,1.28,3.08,1.6.44.3.77.6.99.9.17.25.27.52.27.85,0,.61-.19,1.04-.61,1.33-.48.34-1.24.52-2.19.52-.53,0-1.13-.06-1.76-.18.16.37.31.74.46,1.11,1.13,2.82,2.05,5.71,2.81,8.62h1.7v-4.22c1.36-.34,2.52-.9,3.47-1.66,1.76-1.41,2.66-3.35,2.66-5.79,0-1.75-.48-3.26-1.43-4.49-.92-1.2-2.54-2.34-4.96-3.49Z"/><path class="cls-2" d="M114.42,269.72c-.39,0-.77-.24-.93-.62-1.98-4.87-3.4-9.97-4.24-15.16-.09-.54.28-1.06.83-1.15.54-.09,1.06.28,1.15.83.81,5.04,2.2,10,4.12,14.73.21.51-.04,1.09-.55,1.3-.12.05-.25.07-.38.07Z"/><path class="cls-2" d="M190.55,251.4c-.35,0-.69-.18-.87-.51-.27-.48-.1-1.09.38-1.36,8.39-4.75,18.97-5.05,27.61-.8.5.24.7.84.46,1.34-.24.5-.84.7-1.34.46-8.06-3.97-17.92-3.68-25.74.74-.16.09-.32.13-.49.13Z"/><path class="cls-2" d="M124.33,275.03c-.37,0-.73-.21-.91-.57-4.13-8.76-7.4-17.97-9.73-27.37-.13-.54.19-1.08.73-1.21.53-.13,1.08.19,1.21.73,2.3,9.27,5.53,18.35,9.6,26.99.24.5.02,1.1-.48,1.33-.14.07-.28.1-.43.1Z"/><path class="cls-2" d="M135.35,278.42c-.36,0-.71-.2-.89-.54-6.56-12.53-11.86-25.78-15.75-39.38-.15-.53.16-1.08.69-1.24.53-.15,1.08.15,1.24.69,3.86,13.47,9.11,26.59,15.6,39,.26.49.07,1.09-.42,1.35-.15.08-.31.11-.46.11Z"/><path class="cls-2" d="M145.01,280.32c-.37,0-.73-.21-.9-.56-4.53-9.3-8.47-19-11.7-28.83-.17-.52.11-1.09.64-1.26.53-.17,1.09.11,1.26.64,3.21,9.74,7.11,19.36,11.6,28.58.24.5.03,1.09-.46,1.34-.14.07-.29.1-.44.1Z"/><path class="cls-2" d="M154.57,280.61c-.39,0-.76-.23-.92-.62-2.67-6.42-5.19-13.01-7.51-19.58-.18-.52.09-1.09.61-1.28.52-.18,1.09.09,1.28.61,2.3,6.53,4.81,13.08,7.47,19.47.21.51-.03,1.1-.54,1.31-.13.05-.26.08-.38.08Z"/><path class="cls-1" d="M54.63,259.8c11.32,2.93,23.93-4.06,28.11-15.59,4.18-11.52-1.63-23.28-12.95-26.21-11.33-2.93-23.94,4.07-28.12,15.59-4.18,11.53,1.63,23.28,12.96,26.21h0Z"/><path class="cls-2" d="M58.08,259.51c-.08,0-.17,0-.25-.03l-5.58-1.44c-.27-.07-.5-.25-.63-.5-.13-.25-.15-.54-.06-.81l1.21-3.33c-1.93-.78-3.6-1.81-4.99-3.09l-.36-.33c-.3-.27-.41-.7-.27-1.08l2.56-7.06c.11-.31.37-.54.69-.63.32-.09.66,0,.9.21l.93.8c1.41,1.2,2.64,2.1,3.66,2.7.97.56,1.92.98,2.76,1.19,1.11.28,1.72.16,1.98.07.21-.07.42-.21.6-.7.07-.2.06-.33.03-.41-.05-.16-.18-.46-.54-.91-.17-.21-.79-.9-2.58-2.5-1.47-1.32-2.51-2.48-3.15-3.57-.66-1.1-1.09-2.33-1.26-3.65-.18-1.34.01-2.82.58-4.38,1.04-2.88,2.87-4.93,5.44-6.11,1.25-.57,2.6-.89,4.04-.97l1.47-4.06c.18-.48.69-.76,1.19-.63l5.58,1.44c.27.07.5.25.63.5.13.25.15.54.06.81l-1.29,3.57c.38.18.74.37,1.09.57,1.18.68,2.41,1.54,3.65,2.58l.61.5c.21.17.34.42.36.69.02.27-.06.53-.24.74l-4.57,5.31c-.35.41-.96.46-1.38.13l-.63-.5c-1.05-.86-2.02-1.55-2.81-2-.72-.39-1.43-.68-2.17-.87-.63-.16-1.11-.16-1.44,0-.29.14-.45.32-.57.65-.05.15-.07.28-.06.39.04.12.13.36.37.67.17.21.75.84,2.67,2.58,2.27,2.05,3.66,3.9,4.25,5.66.6,1.85.51,3.86-.27,6.01-1.07,2.95-3,5.04-5.74,6.21-1.25.54-2.62.85-4.1.92l-1.45,4c-.15.4-.53.66-.94.66ZM53.82,256.37l3.63.94,1.37-3.79c.14-.4.52-.66.94-.66,1.47,0,2.82-.26,4.02-.78,2.21-.95,3.77-2.65,4.65-5.05.62-1.71.7-3.29.25-4.7-.47-1.4-1.71-3.02-3.7-4.81-1.54-1.4-2.52-2.35-2.9-2.83-.38-.49-.63-.98-.75-1.46,0-.02,0-.04-.01-.05-.09-.47-.04-.97.14-1.47.3-.82.82-1.4,1.58-1.77.78-.37,1.7-.41,2.81-.12.88.23,1.77.59,2.64,1.06.87.5,1.88,1.21,2.96,2.08l3.27-3.81c-1.09-.9-2.17-1.65-3.2-2.24-.53-.31-1.11-.59-1.72-.83-.5-.2-.75-.76-.57-1.27l1.24-3.42-3.63-.94-1.4,3.85c-.14.4-.52.66-.94.66-.03,0-.05,0-.07,0-1.41,0-2.67.26-3.85.8-2.06.95-3.54,2.62-4.39,4.98-.45,1.25-.61,2.41-.48,3.43.14,1.05.47,2.02,1,2.89.54.91,1.45,1.92,2.77,3.1.96.86,2.23,2.03,2.81,2.74.46.58.75,1.11.9,1.61.15.54.12,1.09-.08,1.64-.35.95-.95,1.59-1.8,1.89-.84.31-1.94.3-3.17-.01-1.01-.26-2.14-.74-3.26-1.4-1.08-.63-2.35-1.56-3.79-2.77l-1.84,5.07c1.38,1.24,3.1,2.22,5.11,2.91.25.09.46.27.58.51.12.24.13.52.04.77l-1.17,3.23Z"/><path class="cls-2" d="M58.08,259.51c-.08,0-.17,0-.25-.03l-5.58-1.44c-.27-.07-.5-.25-.63-.5-.13-.25-.15-.54-.06-.81l1.21-3.33c-1.93-.78-3.6-1.81-4.99-3.09l-.36-.33c-.3-.27-.41-.7-.27-1.08l2.56-7.06c.11-.31.37-.54.69-.63.32-.09.66,0,.9.21l.93.8c1.41,1.2,2.64,2.1,3.66,2.7.97.56,1.92.98,2.76,1.19,1.11.28,1.72.16,1.98.07.21-.07.42-.21.6-.69.07-.21.06-.33.03-.41-.05-.16-.18-.46-.54-.91-.17-.21-.79-.9-2.58-2.5-1.47-1.32-2.51-2.48-3.15-3.57-.66-1.1-1.09-2.33-1.26-3.65-.18-1.34.01-2.82.58-4.38,1.04-2.88,2.87-4.93,5.44-6.11,1.25-.57,2.6-.89,4.04-.97l1.47-4.06c.18-.48.69-.76,1.19-.63l5.58,1.44c.27.07.5.25.63.5.13.25.15.54.06.81l-1.29,3.57c.38.18.74.37,1.09.57,1.18.68,2.41,1.54,3.65,2.58l.61.51c.21.17.33.42.36.69.02.27-.06.53-.24.74l-4.57,5.31c-.35.41-.96.46-1.38.13l-.63-.5c-1.05-.86-2.02-1.55-2.81-2-.72-.39-1.43-.68-2.17-.87-.63-.16-1.11-.16-1.44,0-.29.14-.45.32-.57.65-.06.16-.08.3-.05.41.02.06.1.31.37.64.17.21.75.84,2.67,2.58,2.27,2.05,3.66,3.9,4.25,5.66.6,1.85.51,3.86-.27,6.01-1.07,2.95-3,5.04-5.74,6.21-1.25.54-2.62.85-4.1.92l-1.45,4c-.15.4-.53.66-.94.66ZM53.82,256.37l3.63.94,1.37-3.79c.14-.4.52-.66.94-.66,1.47,0,2.82-.26,4.02-.78,2.21-.95,3.77-2.65,4.65-5.05.62-1.71.7-3.29.25-4.7-.47-1.4-1.71-3.02-3.7-4.81-1.54-1.4-2.52-2.35-2.9-2.83-.38-.49-.63-.98-.75-1.46-.1-.53-.06-1.02.13-1.52.3-.82.82-1.4,1.58-1.77.78-.37,1.7-.41,2.81-.12.88.23,1.77.59,2.64,1.06.87.5,1.88,1.21,2.96,2.08l3.27-3.81c-1.09-.9-2.17-1.65-3.2-2.24-.53-.31-1.11-.59-1.72-.83-.5-.2-.75-.76-.57-1.27l1.24-3.42-3.63-.94-1.4,3.85c-.14.4-.52.66-.94.66-.03,0-.05,0-.07,0-1.41,0-2.67.26-3.85.8-2.06.95-3.54,2.62-4.39,4.98-.45,1.25-.61,2.41-.48,3.43.14,1.05.47,2.02,1,2.89.54.91,1.45,1.92,2.77,3.1.96.86,2.22,2.03,2.8,2.74.46.59.75,1.11.9,1.61.15.54.12,1.09-.08,1.64-.35.95-.95,1.59-1.79,1.89-.84.31-1.94.3-3.17-.01-1.01-.26-2.14-.74-3.26-1.4-1.08-.63-2.35-1.56-3.79-2.77l-1.84,5.07c1.38,1.24,3.1,2.22,5.11,2.91.25.09.46.27.58.51.12.24.13.52.04.77l-1.17,3.23Z"/><path class="cls-2" d="M61.62,270.3c-.37,0-.73-.21-.9-.57l-1.55-3.22c-.24-.5-.03-1.09.47-1.33.5-.24,1.1-.03,1.33.47l1.55,3.22c.24.5.03,1.09-.47,1.33-.14.07-.29.1-.43.1Z"/><path class="cls-2" d="M69.63,269.16c-.37,0-.72-.2-.89-.55l-1.85-3.68c-.25-.49-.05-1.09.44-1.34.49-.25,1.09-.05,1.34.44l1.85,3.68c.25.49.05,1.09-.44,1.34-.14.07-.3.11-.45.11Z"/><path class="cls-2" d="M76.16,266.21c-.31,0-.61-.14-.81-.41l-2.13-2.88c-.33-.44-.23-1.07.21-1.4.44-.33,1.07-.23,1.4.21l2.13,2.88c.33.44.23,1.07-.21,1.4-.18.13-.39.2-.59.2Z"/><path class="cls-2" d="M81.65,262.44c-.34,0-.67-.17-.86-.48l-1.83-3.04c-.28-.47-.13-1.09.34-1.37.47-.28,1.09-.13,1.37.34l1.83,3.04c.28.47.13,1.09-.34,1.37-.16.1-.34.14-.51.14Z"/><path class="cls-3" d="M85.33,259c-.32,0-.64-.16-.83-.44l-2.13-3.19c-.31-.46-.18-1.08.28-1.39.46-.31,1.08-.18,1.39.28l2.13,3.19c.31.46.18,1.08-.28,1.39-.17.11-.36.17-.55.17Z"/><path class="cls-3" d="M88.65,253.5c-.36,0-.71-.2-.89-.54l-1.67-3.21c-.26-.49-.07-1.09.42-1.35.49-.26,1.09-.07,1.35.42l1.67,3.21c.26.49.07,1.09-.42,1.35-.15.08-.31.11-.46.11Z"/><path class="cls-3" d="M90.81,249.52c-.3,0-.59-.13-.79-.38l-2.03-2.58c-.34-.43-.27-1.06.17-1.4.43-.34,1.06-.27,1.4.17l2.03,2.58c.34.43.27,1.06-.17,1.4-.18.14-.4.21-.62.21Z"/><path class="cls-3" d="M91.96,244.17c-.31,0-.62-.15-.82-.42l-2-2.8c-.32-.45-.22-1.07.23-1.39.45-.32,1.07-.22,1.39.23l2,2.8c.32.45.22,1.07-.23,1.39-.18.12-.38.19-.58.19Z"/><path class="cls-2" d="M44.07,239.43s-.08,0-.12,0c-.55-.06-.94-.56-.88-1.11.72-6.21,4.6-11.88,10.12-14.81.49-.26,1.09-.07,1.35.42.26.49.07,1.09-.41,1.35-4.95,2.62-8.43,7.71-9.07,13.28-.06.51-.49.88-.99.88Z"/><path class="cls-2" d="M62.49,270.71c-2.31,0-4.62-.28-6.89-.87-5.02-1.3-9.41-3.99-12.69-7.78l-3.16-3.65c-.45-.52-.4-1.31.13-1.76.52-.45,1.31-.4,1.76.13h0c2.95,3.41,6.9,5.83,11.43,7,13.52,3.49,28.59-4.88,33.59-18.66,3.14-8.64,1.69-17.64-3.87-24.07h0s0,0,0-.01c-.45-.52-.4-1.31.13-1.76.52-.45,1.31-.4,1.76.13h0s0,0,0,0l3.16,3.65c6.17,7.12,7.79,17.05,4.34,26.57-4.59,12.66-17.03,21.1-29.68,21.1ZM52.96,266.32c1.05.44,2.14.81,3.26,1.1,13.52,3.5,28.59-4.88,33.59-18.66,1.85-5.09,2.1-10.3.87-15.04.35,3.99-.2,8.15-1.68,12.24-5.36,14.79-21.44,23.83-36.04,20.36Z"/><path class="cls-2" d="M59.33,267.06c-2.31,0-4.62-.28-6.9-.87-6.96-1.8-12.59-6.21-15.86-12.42-3.49-6.62-3.9-14.4-1.18-21.92,5.43-14.97,21.84-24.05,36.58-20.23h0c6.95,1.8,12.58,6.21,15.85,12.41,3.49,6.62,3.9,14.41,1.18,21.93-4.59,12.66-17.03,21.1-29.67,21.1ZM65.04,213.24c-11.62,0-23.06,7.79-27.29,19.46-2.48,6.85-2.12,13.92,1.04,19.91,2.94,5.58,8.01,9.54,14.27,11.17,13.52,3.5,28.59-4.88,33.59-18.66,2.49-6.85,2.12-13.92-1.04-19.91-2.94-5.58-8-9.54-14.26-11.16h0c-2.08-.54-4.2-.79-6.31-.79Z"/><path class="cls-1" d="M57.53,196.89c11.55-1.78,18.16-12.53,14.76-23.99-3.4-11.44-15.56-19.32-27.1-17.54-11.55,1.78-18.16,12.54-14.76,23.99,3.4,11.45,15.56,19.32,27.1,17.54h0Z"/><path class="cls-2" d="M54.45,194.74c-.44,0-.83-.29-.96-.71l-1.41-4.74c-5.6-.67-9.49-4.54-11.56-11.51-1.3-4.38-1.17-7.99.39-10.73.91-1.62,2.3-2.89,4.14-3.79l-1.17-3.92c-.08-.28-.04-.58.11-.82.15-.24.41-.41.69-.45l4.13-.64c.49-.08.97.22,1.11.7l1.08,3.62c2.45-.22,4.84,0,7.12.66.46.13.76.57.72,1.04l-.44,5.45c-.02.29-.17.55-.4.73-.23.17-.53.24-.81.17-1.12-.25-2.18-.44-3.15-.57-.91-.12-1.74-.12-2.56,0-1.12.17-1.88.59-2.32,1.29-.69,1.1-.66,3.03.1,5.6,1.87,6.3,5.14,5.79,6.22,5.63,1.17-.18,2.22-.5,3.12-.96.9-.46,1.75-1.11,2.55-1.92.25-.25.61-.36.96-.27.34.08.62.35.72.69l1.69,5.69c.11.36,0,.74-.26,1-.97.94-2.04,1.65-3.18,2.12-.74.32-1.64.59-2.72.82l1.17,3.93c.08.28.04.58-.11.82-.15.24-.41.41-.69.45l-4.11.63c-.05,0-.1.01-.15.01ZM46.12,159.85l1.09,3.67c.15.49-.11,1.02-.58,1.21-1.82.74-3.16,1.85-3.98,3.3-1.28,2.25-1.35,5.34-.21,9.18,1.92,6.47,5.35,9.79,10.48,10.16.42.03.77.31.89.71l1.35,4.55,2.11-.33-1.16-3.9c-.08-.28-.04-.57.11-.81.15-.24.4-.41.68-.46,1.4-.23,2.54-.54,3.38-.9.75-.31,1.46-.75,2.12-1.31l-1.06-3.56c-.59.47-1.21.87-1.85,1.2-1.1.56-2.35.94-3.73,1.16h0c-2.77.42-6.48-.45-8.44-7.03-.96-3.23-.92-5.59.12-7.24.76-1.19,2-1.93,3.71-2.19,1.01-.15,2.03-.16,3.13-.02.7.09,1.44.21,2.21.37l.28-3.48c-2.04-.49-4.18-.59-6.37-.3-.49.06-.95-.23-1.09-.71l-1.07-3.58-2.13.33ZM55.62,182.72h0,0Z"/><path class="cls-2" d="M54.45,194.74c-.44,0-.83-.29-.96-.71l-1.41-4.74c-5.6-.67-9.49-4.54-11.56-11.51-1.3-4.38-1.17-7.99.39-10.73.91-1.62,2.3-2.89,4.14-3.79l-1.17-3.92c-.08-.28-.04-.58.11-.82.15-.24.41-.41.69-.45l4.13-.64c.49-.08.97.22,1.11.7l1.08,3.62c2.45-.22,4.84,0,7.12.66.46.13.76.57.72,1.04l-.44,5.45c-.02.29-.17.55-.4.73-.23.17-.53.24-.81.17-1.12-.25-2.18-.44-3.15-.57-.91-.12-1.74-.12-2.56,0-1.12.17-1.88.59-2.32,1.29-.69,1.1-.66,3.03.1,5.6,1.87,6.3,5.14,5.79,6.22,5.63,1.17-.18,2.22-.5,3.12-.96.9-.46,1.75-1.11,2.55-1.92.25-.25.61-.36.96-.27.34.08.62.35.72.69l1.69,5.69c.11.36,0,.74-.26,1-.97.94-2.04,1.65-3.18,2.12-.74.32-1.64.59-2.72.82l1.17,3.93c.08.28.04.58-.11.82-.15.24-.41.41-.69.45l-4.11.63c-.05,0-.1.01-.15.01ZM46.12,159.85l1.09,3.67c.15.49-.11,1.02-.58,1.21-1.82.74-3.16,1.85-3.98,3.3-1.28,2.25-1.35,5.34-.21,9.18,1.92,6.47,5.35,9.79,10.48,10.16.42.03.77.31.89.71l1.35,4.55,2.11-.33-1.16-3.9c-.08-.28-.04-.57.11-.81.15-.24.4-.41.68-.46,1.4-.23,2.54-.54,3.38-.9.75-.31,1.46-.75,2.12-1.31l-1.06-3.56c-.59.47-1.21.87-1.85,1.2-1.1.56-2.35.94-3.73,1.16-2.77.42-6.49-.45-8.44-7.03-.96-3.23-.92-5.59.12-7.24.76-1.19,2-1.93,3.71-2.19,1.01-.15,2.03-.16,3.13-.02.7.09,1.44.21,2.21.37l.28-3.48c-2.04-.49-4.18-.59-6.37-.3-.49.06-.95-.23-1.09-.71l-1.07-3.58-2.13.33Z"/><path class="cls-2" d="M21.8,183.44c-.3,0-.6-.14-.8-.4-.33-.44-.25-1.07.19-1.4l2.53-1.92c.44-.33,1.07-.25,1.4.19.33.44.25,1.07-.19,1.4l-2.53,1.92c-.18.14-.39.2-.6.2Z"/><path class="cls-2" d="M24.34,188.6c-.23,0-.46-.08-.65-.24-.42-.36-.47-.99-.12-1.41l2.05-2.43c.36-.42.99-.48,1.41-.12.42.36.47.99.12,1.41l-2.05,2.43c-.2.23-.48.35-.76.35Z"/><path class="cls-2" d="M27.98,194.01c-.19,0-.38-.05-.55-.17-.46-.31-.59-.93-.28-1.39l2.21-3.33c.3-.46.92-.59,1.39-.28.46.31.59.93.28,1.39l-2.21,3.33c-.19.29-.51.45-.83.45Z"/><path class="cls-2" d="M32.14,199.37c-.17,0-.34-.04-.49-.13-.48-.27-.65-.88-.38-1.36l2.11-3.72c.27-.48.88-.65,1.36-.38.48.27.65.88.38,1.36l-2.11,3.72c-.18.32-.52.51-.87.51Z"/><path class="cls-2" d="M37.3,202.57c-.17,0-.34-.04-.49-.13-.48-.27-.65-.88-.37-1.36l1.9-3.33c.27-.48.89-.65,1.36-.37.48.27.65.88.37,1.36l-1.9,3.33c-.18.32-.52.5-.87.5Z"/><path class="cls-2" d="M42.1,204.67c-.14,0-.29-.03-.43-.1-.5-.24-.71-.84-.47-1.33l1.28-2.69c.24-.5.84-.71,1.33-.47.5.24.71.83.47,1.33l-1.28,2.69c-.17.36-.53.57-.9.57Z"/><path class="cls-2" d="M46.83,206.48c-.13,0-.26-.02-.38-.08-.51-.21-.75-.8-.54-1.31l1.56-3.77c.21-.51.79-.75,1.31-.54.51.21.75.79.54,1.31l-1.56,3.77c-.16.39-.53.62-.92.62Z"/><path class="cls-2" d="M52.37,206.94c-.05,0-.11,0-.16-.01-.54-.09-.91-.6-.83-1.15l.42-2.58c.09-.54.6-.92,1.15-.83.54.09.91.6.83,1.15l-.42,2.58c-.08.49-.5.84-.99.84Z"/><path class="cls-2" d="M56.8,206.51s-.07,0-.1,0c-.55-.05-.95-.54-.9-1.09l.24-2.42c.05-.55.54-.94,1.09-.9.55.05.95.54.9,1.09l-.24,2.42c-.05.52-.49.9-.99.9Z"/><path class="cls-2" d="M61.43,205.55c-.55,0-.99-.44-1-.99l-.02-1.49c0-.55.44-1,.99-1.01.54-.04,1,.44,1.01.99l.02,1.49c0,.55-.44,1-.99,1.01h-.01Z"/><path class="cls-2" d="M67.83,184.75c-.1,0-.21-.02-.32-.05-.52-.18-.81-.74-.63-1.27,1.7-5.06.81-10.89-2.32-15.22-.32-.45-.22-1.07.22-1.4.45-.32,1.07-.22,1.4.22,3.5,4.84,4.49,11.36,2.6,17.03-.14.42-.53.68-.95.68Z"/><path class="cls-2" d="M54.96,203.59c-13.61,0-26.92-9.64-30.92-23.09-2.19-7.37-1.3-14.74,2.5-20.75,3.69-5.83,9.7-9.65,16.92-10.77,15-2.31,30.8,7.9,35.22,22.76,2.19,7.37,1.3,14.74-2.51,20.75-3.69,5.83-9.7,9.66-16.92,10.77-1.43.22-2.86.33-4.29.33ZM47.79,151.15c-1.32,0-2.63.1-3.94.3h0c-6.49,1-11.89,4.42-15.19,9.63-3.41,5.39-4.2,12.04-2.22,18.7,4.08,13.71,18.63,23.13,32.43,21,6.5-1,11.89-4.42,15.19-9.64,3.41-5.39,4.2-12.03,2.22-18.7-3.69-12.41-15.96-21.3-28.5-21.3ZM43.65,150.22h0,0Z"/><path class="cls-2" d="M51.69,207.93c-13.61,0-26.92-9.64-30.92-23.09-2.38-8-1.08-16.13,3.57-22.3l3.27-4.34c.42-.55,1.2-.66,1.75-.25.55.41.66,1.2.25,1.75-4.17,5.53-5.32,12.85-3.17,20.08,4.08,13.71,18.63,23.13,32.43,21,5.85-.9,10.9-3.83,14.24-8.26.42-.55,1.2-.66,1.75-.25.55.41.66,1.2.25,1.75h0s-3.27,4.34-3.27,4.34c-3.73,4.95-9.36,8.23-15.86,9.23-1.42.22-2.86.33-4.29.33ZM22.93,170.93c-1.16,4.13-1.11,8.68.23,13.2,4.08,13.71,18.63,23.13,32.43,21,3.14-.48,6.05-1.55,8.59-3.13-1.57.57-3.23.99-4.94,1.26-15,2.31-30.79-7.9-35.21-22.76-.96-3.21-1.32-6.45-1.11-9.57Z"/><path class="cls-2" d="M56.38,147.96c-.1,0-.19-.01-.29-.03-.67-.16-1.09-.83-.93-1.5l2.58-10.89c.16-.67.83-1.09,1.5-.93.67.16,1.09.83.93,1.5l-2.58,10.89c-.14.58-.65.96-1.22.96Z"/><path class="cls-2" d="M48.44,147.57c-.63,0-1.17-.47-1.24-1.11l-.86-7.75c-.08-.69.42-1.3,1.1-1.38.68-.08,1.3.42,1.38,1.1l.86,7.75c.08.69-.42,1.3-1.1,1.38-.05,0-.09,0-.14,0Z"/><path class="cls-2" d="M63.78,150.46c-.23,0-.47-.06-.67-.2-.58-.37-.75-1.15-.38-1.73l3.22-5.01c.37-.58,1.15-.75,1.73-.38.58.37.75,1.15.38,1.73l-3.22,5.01c-.24.37-.64.57-1.05.57Z"/><path class="cls-1" d="M342.51,255.68v7.67c0,1.98-1.86,3.83-5.06,5.38v6.44c0,1.25-.75,2.45-2.09,3.54-.21.17-.43.34-.68.51.24-.16.47-.33.68-.5,1.34,1.1,2.08,2.28,2.08,3.53v7.68c0,4.39-9.09,8.09-21.6,9.33-2.17.21-4.43.35-6.78.41-.78.02-1.56.03-2.36.03-16.98,0-30.75-4.36-30.75-9.77v-7.68c0-1.25.74-2.44,2.09-3.53.56.46,1.22.89,1.98,1.31-.76-.42-1.42-.86-1.98-1.32-1.34-1.1-2.08-2.29-2.08-3.54v-7.68c0-1.98,1.86-3.82,5.06-5.38v-6.43c0-.11,0-.2.02-.31-2.47-1.4-3.87-3.01-3.87-4.75v-7.68c0-1.25.74-2.44,2.08-3.53-1.34-1.1-2.08-2.29-2.08-3.54v-7.68c0-1.03.51-2.03,1.44-2.96-.14-.38-.22-.77-.22-1.17v-7.68c.02-5.39,13.78-9.77,30.75-9.77s30.72,4.38,30.74,9.77v7.68c0,1.04-.49,2.03-1.44,2.96.14.38.22.77.22,1.17v7.68c0,1.25-.73,2.44-2.08,3.54,1.35,1.1,2.08,2.29,2.08,3.53v7.68c0,.11,0,.21-.02.31,2.46,1.4,3.86,3.02,3.86,4.75Z"/><path class="cls-2" d="M280.16,280.19c-.08,0-.16,0-.24-.03-.54-.13-.86-.67-.73-1.21.46-1.9.48-3.9.04-5.81-.12-.54.21-1.08.75-1.2.54-.12,1.08.21,1.2.75.51,2.21.49,4.53-.05,6.73-.11.46-.52.76-.97.76Z"/><path class="cls-2" d="M285.17,282.26c-.53,0-.98-.42-1-.96l-.23-6.14c-.02-.55.41-1.02.96-1.04.58-.03,1.02.41,1.04.96l.23,6.14c.02.55-.41,1.02-.96,1.04-.01,0-.03,0-.04,0Z"/><path class="cls-2" d="M290.85,283.6c-.54,0-.98-.42-1-.96l-.22-6.21c-.02-.55.41-1.02.96-1.03.56-.02,1.02.41,1.03.96l.22,6.21c.02.55-.41,1.02-.96,1.03-.01,0-.02,0-.04,0Z"/><path class="cls-2" d="M296.91,284.13h0c-.55,0-1-.45-.99-1.01l.03-5.47c0-.55.45-.99,1-.99h0c.55,0,1,.45.99,1.01l-.03,5.47c0,.55-.45.99-1,.99Z"/><path class="cls-2" d="M302.9,284.6c-.52,0-.95-.4-1-.92l-.45-5.54c-.04-.55.37-1.03.92-1.08.56-.04,1.03.37,1.08.92l.45,5.54c.04.55-.37,1.03-.92,1.08-.03,0-.05,0-.08,0Z"/><path class="cls-2" d="M309.04,285h-.01c-.55,0-.99-.46-.99-1.01l.07-5.94c0-.55.45-.99,1-.99h.01c.55,0,.99.46.99,1.01l-.07,5.94c0,.55-.45.99-1,.99Z"/><path class="cls-2" d="M315.84,285.53c-.49,0-.91-.36-.99-.85-.34-2.26-.47-4.57-.39-6.85.02-.55.49-.99,1.03-.97.55.02.98.48.97,1.03-.07,2.17.05,4.35.37,6.49.08.55-.3,1.05-.84,1.14-.05,0-.1.01-.15.01Z"/><path class="cls-2" d="M320.58,284.2c-.54,0-.99-.44-1-.98l-.11-5.74c0-.55.43-1.01.98-1.02h.02c.54,0,.99.44,1,.98l.11,5.74c0,.55-.43,1.01-.98,1.02h-.02Z"/><path class="cls-2" d="M326.32,283.19s-.1,0-.15-.01c-.55-.08-.92-.59-.84-1.14.28-1.85.38-3.74.31-5.61-.02-.55.41-1.02.96-1.04.55-.03,1.02.41,1.04.96.08,2-.03,4.02-.33,6-.08.5-.5.85-.99.85Z"/><path class="cls-2" d="M331,281.12c-.52,0-.95-.4-1-.92l-.42-5.34c-.04-.55.37-1.03.92-1.08.55-.04,1.03.37,1.08.92l.42,5.34c.04.55-.37,1.03-.92,1.08-.03,0-.05,0-.08,0Z"/><path class="cls-2" d="M334.23,279.25s-.02,0-.03,0c-.55-.02-.99-.48-.97-1.03l.16-4.94c.02-.54.46-.97,1-.97.01,0,.02,0,.03,0,.55.02.99.48.97,1.03l-.16,4.94c-.02.54-.46.97-1,.97Z"/><path class="cls-2" d="M306.7,278.51c-.8,0-1.6,0-2.38-.03-.4-.01-.8-.02-1.19-.04h-.09c-.75-.03-1.51-.06-2.24-.11h-.18c-.66-.06-1.32-.1-1.96-.16l-.36-.03c-.29-.03-.57-.05-.85-.09l-1.19-.12c-.23-.02-.45-.05-.68-.08l-.35-.04c-.25-.03-.51-.06-.76-.1-.38-.04-.82-.1-1.25-.17-.33-.05-.68-.11-1.02-.17-1.81-.3-3.55-.66-5.17-1.08l-.37-.1c-.16-.04-.32-.09-.47-.13-.84-.22-1.71-.49-2.54-.79-.27-.09-.56-.2-.85-.3l-.2-.07c-.13-.05-.22-.08-.3-.12-.31-.12-.61-.25-.91-.37-.45-.2-.85-.39-1.24-.58l-.53-.27c-.25-.14-.49-.27-.71-.4-.13-.07-.28-.17-.42-.26-.15-.09-.29-.18-.43-.28-.08-.05-.23-.15-.37-.26-1.98-1.49-2.98-3.12-2.98-4.86s1-4.19,5.77-6.5c.39-.19.84-.16,1.21.07.36.23.59.63.59,1.06v1.24c0,4.03,12.11,8.52,29.49,8.52,3.09,0,6.12-.15,9.01-.44,6.42-.63,12.04-1.94,15.83-3.7.43-.2.94-.14,1.31.16.37.3.54.78.43,1.25-.03.15-.09.29-.17.43-.09.19-.21.38-.33.57-.14.22-.3.45-.5.67-.12.14-.25.28-.38.42-.24.24-.47.46-.73.67-.2.16-.35.28-.51.4-1.46,1.08-3.36,2.03-5.69,2.85-.1.04-.22.08-.35.12-.17.06-.39.14-.63.21-.36.12-.79.25-1.23.38l-.3.08c-.13.04-.25.07-.39.11-1.75.49-3.77.93-5.98,1.3l-.97.16c-.41.06-.8.11-1.2.16-.72.11-1.48.2-2.26.29-.29.03-.57.06-.87.08-.39.05-.83.09-1.27.12-.62.05-1.28.1-1.95.15-.81.05-1.56.08-2.32.11h-.11c-.37.02-.75.03-1.14.04-.8.02-1.61.03-2.42.03ZM279.85,264.19c-1.72,1.09-2.64,2.23-2.64,3.3,0,1.13,1.07,2.17,1.96,2.84.09.07.17.13.26.18.16.11.25.17.35.23.03.02.06.04.09.06.1.07.2.13.3.19.22.13.43.25.64.36l.44.23c.35.17.72.35,1.12.52.27.11.57.23.87.35.04.01.07.03.11.05,0,0,.12.04.12.04l.19.07c.26.1.52.19.78.28.8.29,1.6.54,2.41.75.17.05.31.09.45.13l.37.1c1.51.39,3.18.74,4.93,1.03.33.06.65.11.97.16.42.07.81.12,1.21.17.28.04.5.07.73.1l.39.05c.21.03.41.05.61.07l1.19.12c.29.04.55.06.8.08l.36.03c.61.05,1.26.09,1.91.14h.17c.71.06,1.44.08,2.17.11h.11c.39.02.76.03,1.15.04,1.55.04,3.15.04,4.68,0,.36,0,.73-.02,1.09-.04h.12c.73-.03,1.46-.06,2.18-.1.71-.05,1.35-.1,1.99-.15.43-.03.83-.07,1.24-.11.32-.02.57-.05.82-.08.75-.08,1.49-.18,2.2-.28.4-.05.76-.1,1.12-.15l.95-.16c2.13-.36,4.06-.78,5.75-1.25l.66-.18c.38-.11.78-.23,1.17-.36.22-.07.39-.12.54-.18l.33-.12c.33-.11.64-.23.95-.35-2.78.64-5.87,1.14-9.14,1.46-2.97.3-6.08.45-9.26.45-14.89,0-30.69-3.56-31.91-10.19Z"/><path class="cls-2" d="M306.7,286.18c-13.04,0-24.6-2.55-29.45-6.51-1.69-1.38-2.54-2.89-2.54-4.51v-7.67c0-.69.56-1.25,1.25-1.25s1.25.56,1.25,1.25c0,1.13,1.07,2.17,1.96,2.84.09.07.17.13.26.18.16.11.25.17.35.23.03.02.06.04.09.06.1.07.2.13.3.19.22.13.43.25.64.36l.44.23c.35.17.72.35,1.12.52l.14.06c.23.1.47.2.71.29.05.02.09.04.14.06,0,0,.12.04.12.04.33.13.65.25.98.35.82.28,1.63.53,2.42.75.16.05.3.09.44.12l.37.1c1.51.39,3.18.74,4.93,1.03l.14.02c.28.05.55.1.84.14.42.07.81.12,1.21.17.39.06.74.11,1.08.14.25.04.44.06.64.08l.62.07c.18.02.36.04.53.05.32.04.58.06.84.08l.36.03c.61.05,1.26.09,1.91.14h.17c.71.06,1.44.08,2.17.11h.11c.39.02.76.03,1.15.04,1.55.04,3.15.04,4.68,0,.36,0,.73-.02,1.09-.04h.12c.73-.03,1.46-.06,2.18-.1.68-.04,1.34-.1,1.99-.15.43-.03.83-.07,1.24-.11.32-.02.57-.05.82-.08.75-.08,1.49-.18,2.2-.28.4-.05.76-.1,1.12-.15.32-.05.63-.1.94-.16,2.15-.36,4.08-.78,5.77-1.25l.66-.18c.38-.11.78-.23,1.17-.36.22-.07.39-.12.54-.18l.33-.12c2.1-.74,3.79-1.58,5.03-2.49.12-.1.27-.21.4-.31.21-.17.38-.34.54-.49.07-.08.18-.19.27-.3.11-.14.21-.27.3-.41.08-.12.14-.22.19-.33,0-.02.02-.04.03-.06.12-.3.35-.54.65-.68.08-.04.15-.07.23-.11.39-.21.86-.2,1.24.02.38.23.61.63.61,1.08v6.44c0,1.62-.86,3.14-2.55,4.51-3.62,2.94-10.98,5.15-20.19,6.06-2.15.22-4.47.36-6.88.42-.79.02-1.58.03-2.38.03ZM277.21,271.96v3.2c0,1.04.88,1.97,1.62,2.58,4.36,3.56,15.56,5.94,27.87,5.94.79,0,1.56,0,2.32-.03,2.35-.06,4.6-.19,6.7-.41,8.61-.85,15.66-2.91,18.86-5.51.74-.6,1.62-1.54,1.62-2.58v-3.19c-.13.11-.29.23-.45.35-1.46,1.08-3.36,2.03-5.69,2.85-.1.04-.22.08-.35.12-.17.06-.39.14-.63.21-.36.12-.79.25-1.23.38l-.3.08c-.13.04-.25.07-.39.11-1.75.49-3.77.93-5.98,1.3-.34.06-.67.12-1.01.17-.38.06-.76.11-1.16.16-.72.11-1.48.2-2.26.29-.29.03-.57.06-.87.08-.39.05-.83.09-1.27.12-.65.06-1.33.12-2.03.16-.73.05-1.48.07-2.23.1h-.11c-.37.02-.75.03-1.14.04-1.58.04-3.21.04-4.81,0-.4-.01-.8-.02-1.19-.04h-.09c-.75-.03-1.51-.06-2.24-.11h-.18c-.66-.06-1.32-.1-1.96-.16l-.36-.03c-.29-.03-.57-.05-.85-.09-.14,0-.35-.03-.56-.05l-.62-.07c-.23-.02-.45-.05-.68-.08-.34-.04-.73-.09-1.1-.15-.38-.04-.82-.1-1.25-.17-.28-.04-.58-.09-.88-.14l-.13-.02c-1.82-.3-3.56-.66-5.17-1.08l-.37-.1c-.16-.04-.32-.09-.47-.13-.82-.22-1.68-.49-2.53-.79-.36-.12-.73-.25-1.09-.39-.1-.04-.18-.07-.26-.1-.26-.1-.52-.21-.77-.31l-.15-.06c-.45-.2-.85-.39-1.24-.58l-.53-.27c-.25-.14-.49-.27-.71-.4-.13-.07-.28-.17-.42-.26-.15-.09-.29-.18-.43-.28-.08-.05-.23-.15-.37-.26-.17-.12-.33-.25-.48-.38Z"/><path class="cls-2" d="M285.22,268.38c-.08,0-.16,0-.24-.03-.54-.13-.86-.67-.73-1.21.46-1.9.48-3.9.04-5.81-.12-.54.21-1.08.75-1.2.54-.12,1.08.21,1.2.75.51,2.21.49,4.53-.05,6.73-.11.46-.52.76-.97.76Z"/><path class="cls-2" d="M290.23,270.46c-.53,0-.98-.42-1-.96l-.23-6.14c-.02-.55.41-1.02.96-1.04.59-.05,1.02.41,1.04.96l.23,6.14c.02.55-.41,1.02-.96,1.04-.01,0-.03,0-.04,0Z"/><path class="cls-2" d="M295.91,271.79c-.54,0-.98-.42-1-.96l-.22-6.21c-.02-.55.41-1.02.96-1.03.54-.04,1.01.41,1.03.96l.22,6.21c.02.55-.41,1.01-.96,1.03-.01,0-.02,0-.04,0Z"/><path class="cls-2" d="M301.97,272.32h0c-.55,0-1-.45-.99-1.01l.03-5.47c0-.55.45-.99,1-.99h0c.55,0,1,.45.99,1.01l-.03,5.47c0,.55-.45.99-1,.99Z"/><path class="cls-2" d="M307.96,272.79c-.52,0-.95-.4-1-.92l-.45-5.54c-.04-.55.37-1.03.92-1.08.57-.04,1.03.37,1.08.92l.45,5.54c.04.55-.37,1.03-.92,1.08-.03,0-.05,0-.08,0Z"/><path class="cls-2" d="M314.1,273.19h-.01c-.55,0-.99-.46-.99-1.01l.07-5.94c0-.55.45-.99,1-.99h.01c.55,0,.99.46.99,1.01l-.07,5.94c0,.55-.45.99-1,.99Z"/><path class="cls-2" d="M320.9,273.72c-.49,0-.91-.36-.99-.85-.34-2.26-.47-4.57-.39-6.85.02-.55.5-1.01,1.03-.97.55.02.98.48.97,1.03-.07,2.17.05,4.35.37,6.49.08.55-.3,1.05-.84,1.14-.05,0-.1.01-.15.01Z"/><path class="cls-2" d="M325.64,272.39c-.54,0-.99-.44-1-.98l-.11-5.74c0-.55.43-1.01.98-1.02h.02c.54,0,.99.44,1,.98l.11,5.74c0,.55-.43,1.01-.98,1.02h-.02Z"/><path class="cls-2" d="M331.38,271.38s-.1,0-.15-.01c-.55-.08-.92-.59-.84-1.14.28-1.85.38-3.74.31-5.61-.02-.55.41-1.02.96-1.04.55-.03,1.02.41,1.04.96.08,2-.03,4.02-.33,6-.08.5-.5.85-.99.85Z"/><path class="cls-2" d="M336.06,269.32c-.52,0-.95-.4-1-.92l-.42-5.34c-.04-.55.37-1.03.92-1.08.56-.04,1.03.37,1.08.92l.42,5.34c.04.55-.37,1.03-.92,1.08-.03,0-.05,0-.08,0Z"/><path class="cls-2" d="M339.29,267.45s-.02,0-.03,0c-.55-.02-.99-.48-.97-1.03l.16-4.94c.02-.54.46-.97,1-.97.01,0,.02,0,.03,0,.55.02.99.48.97,1.03l-.16,4.94c-.02.54-.46.97-1,.97Z"/><path class="cls-2" d="M311.76,266.71c-.46,0-.91,0-1.36,0h-.02c-.33,0-.67,0-1.02-.02-.79-.02-1.57-.05-2.33-.09-.5-.02-1.01-.05-1.52-.09-.22,0-.49-.03-.75-.05l-1.13-.09c-.75-.07-1.48-.14-2.2-.21l-1.41-.18c-.59-.08-1.17-.16-1.74-.25-.63-.1-1.24-.2-1.82-.3-.39-.07-.79-.14-1.18-.22l-.86-.18c-.36-.07-.73-.15-1.1-.24-.53-.12-1.06-.25-1.58-.39-.98-.26-1.95-.55-2.97-.9l-.66-.23c-.5-.19-.95-.37-1.38-.55-.8-.33-1.56-.7-2.26-1.09-.15-.08-.34-.18-.51-.3l-.05-.03c-.12-.07-.24-.14-.36-.22-.28-.18-.55-.37-.81-.55-1.98-1.49-2.98-3.12-2.98-4.86,0-.15.01-.3.03-.43.04-.42.29-.79.67-.98.37-.19.82-.18,1.19.03,5.26,3,15.32,4.86,26.26,4.86,3.09,0,6.12-.15,9.01-.44,13.06-1.28,20.19-4.94,20.47-7.9.04-.42.29-.79.67-.99.38-.19.83-.19,1.19.02,3.71,2.12,4.49,4.34,4.49,5.83,0,1.74-1,3.37-2.97,4.84-.24.17-.45.32-.69.48l-.13.08c-.17.11-.35.23-.54.33-.17.11-.42.25-.68.39l-.16.09c-.29.15-.56.28-.85.41l-.28.13c-.2.09-.41.18-.62.27,0,0-.04.02-.12.05,0,0-.12.05-.12.05-.55.23-1.15.45-1.77.66-.36.12-.72.24-1.08.35-.02,0-.04.01-.07.02-.72.23-1.45.44-2.16.62-.04,0-.07.02-.11.02-.35.09-.71.18-1.08.27-.4.1-.82.19-1.24.28-.41.09-.84.18-1.28.26l-.92.17c-.22.04-.46.08-.7.11-.81.14-1.7.28-2.61.39l-1.18.15c-.1,0-.16.01-.23.03-.03,0-.1.01-.13.02-.18.02-.36.04-.55.05-.31.04-.63.08-.95.1-.03,0-.07,0-.1,0,0,0,0,0,0,0h0s-.02,0-.03,0c-.35.03-.65.06-.94.08-1.26.11-2.63.19-4.14.24-.35.02-.74.03-1.12.04h-.21c-.32,0-.68.02-1.05.02-.37,0-.78,0-1.18,0ZM283.49,257.9c.24.23.49.44.74.62.2.15.43.31.68.47.09.06.18.11.28.17l.1.06c.14.09.24.15.35.21.67.37,1.35.69,2.05.99.41.17.84.34,1.28.5l.62.22c.95.33,1.87.6,2.8.85.49.13,1,.25,1.52.38.34.09.66.16.99.22l.87.19c.37.08.74.14,1.12.21.58.11,1.17.2,1.77.3.54.08,1.1.16,1.67.24l1.38.17c.69.07,1.4.14,2.12.21l1.09.09c.24.02.48.04.72.04.52.04,1.01.07,1.49.09.77.04,1.52.07,2.29.09.34,0,.66.02,1,.02.47,0,.92.02,1.37,0,.37,0,.75,0,1.12,0,.37,0,.71,0,1.04-.02h.21c.33,0,.69-.02,1.05-.04,1.5-.05,2.82-.13,4.07-.24.3-.02.58-.04.84-.07.04,0,.16,0,.21-.01h0c.3-.03.59-.06.87-.1.03,0,.13-.01.15-.01.14,0,.28-.02.42-.04.1-.02.23-.03.37-.05l1.13-.14c.87-.11,1.73-.25,2.56-.39.25-.03.44-.07.63-.1l.91-.17c.42-.08.82-.16,1.21-.24.39-.08.79-.17,1.17-.26.39-.09.77-.19,1.14-.28.04,0,.07-.02.11-.02.66-.17,1.33-.37,2-.58.03,0,.06-.02.1-.03.31-.1.62-.2.92-.3.56-.2,1.12-.4,1.64-.62-.01,0,.04-.02.12-.05.03-.01.09-.04.12-.05.19-.08.37-.16.55-.24l.23-.1c.28-.13.52-.24.75-.36l.13-.07c.22-.12.44-.24.65-.37.2-.11.32-.19.43-.26l.13-.08c.19-.13.38-.26.57-.39.88-.65,1.95-1.69,1.95-2.83,0-.9-.67-1.87-1.92-2.81-2.5,4.74-12.7,7.4-22.16,8.33-2.97.3-6.08.45-9.26.45-9.52,0-18.47-1.4-24.42-3.74Z"/><path class="cls-2" d="M311.76,274.37c-15.51,0-31.99-3.86-31.99-11.02v-7.67c0-.69.56-1.25,1.25-1.25s1.25.56,1.25,1.25c0,1.13,1.07,2.17,1.96,2.84.2.15.43.31.68.47.11.07.21.14.32.2.03.02.07.04.1.06.1.06.2.12.31.18.67.37,1.35.69,2.05.99.41.17.84.34,1.28.5l.62.22c.95.33,1.87.6,2.8.85.47.13.96.24,1.44.36,0,0,.09.02.1.02.32.08.64.15.97.21.33.08.6.13.87.19.37.08.74.14,1.12.21.58.1,1.15.21,1.75.29.56.09,1.12.16,1.69.24l1.38.17c.69.07,1.4.14,2.12.21l1.09.09c.24.02.48.04.71.04.52.04,1.01.07,1.49.09.77.04,1.52.07,2.29.09.33,0,.66.02,1,.02.47,0,.92.02,1.37,0,.37,0,.75,0,1.12,0,.37,0,.71,0,1.04-.02h.21c.33,0,.69-.02,1.05-.04,1.5-.05,2.82-.13,4.07-.24.3-.02.58-.04.84-.07.04,0,.16,0,.2-.01h0c.31-.03.64-.07.95-.1.22-.01.36-.03.5-.04l.14-.02c.08-.01.15-.02.23-.03l1.13-.14c.87-.11,1.73-.25,2.56-.39.24-.03.44-.07.63-.1l.89-.17c.43-.08.83-.16,1.22-.25.39-.08.79-.17,1.17-.26.4-.09.76-.18,1.11-.28.04-.01.09-.02.14-.03.66-.17,1.33-.37,2-.58.03,0,.06-.02.1-.03.31-.1.62-.2.92-.3.58-.19,1.12-.41,1.65-.62,0,0,0,0,0,0,0,0,.05-.03.11-.05.03-.01.09-.04.12-.05.26-.11.5-.21.74-.33.27-.12.5-.24.73-.35l.19-.1c.22-.12.44-.24.65-.37.24-.13.38-.22.52-.31.23-.15.42-.29.61-.42.88-.65,1.95-1.69,1.95-2.83,0-.69.56-1.25,1.25-1.25s1.25.56,1.25,1.25v7.67c0,1.69-1,4.2-5.77,6.5-.08.04-.21.11-.35.17-4.03,1.86-9.94,3.25-16.62,3.91-2.97.3-6.08.45-9.26.45ZM282.27,260.16v3.2c0,4.03,12.11,8.52,29.49,8.52,3.09,0,6.12-.15,9.01-.44,6.42-.63,12.04-1.94,15.83-3.7.09-.04.17-.07.24-.12,2.87-1.38,4.41-2.89,4.41-4.27v-3.2c-.15.12-.31.25-.47.37-.24.17-.45.32-.69.48-.2.14-.42.28-.67.41-.17.11-.42.25-.68.39l-.16.09s-.11.05-.12.06c-.26.13-.52.26-.79.38-.25.12-.54.25-.84.37,0,0-.04.02-.12.05,0,0-.12.05-.13.06-.57.23-1.16.46-1.78.67-.34.12-.7.24-1.06.35-.02,0-.04.01-.07.02-.72.23-1.45.44-2.16.62-.03,0-.06.01-.08.02-.37.1-.74.19-1.13.28-.38.09-.79.18-1.21.27-.41.09-.84.18-1.28.26l-.92.17c-.22.04-.46.08-.69.11-.82.14-1.71.28-2.62.39l-1.51.19c-.22.02-.4.04-.59.05-.26.03-.61.07-.95.1-.04,0-.07,0-.11,0,0,0,0,0,0,0h0s-.02,0-.03,0c-.35.03-.65.06-.94.08-1.26.11-2.63.19-4.14.24-.35.02-.74.03-1.12.04h-.21c-.32,0-.69.02-1.05.02-.8.02-1.7.02-2.54,0h-.02c-.33,0-.68,0-1.02-.02-.78-.02-1.56-.05-2.33-.09-.5-.02-1.01-.05-1.52-.09-.22,0-.49-.03-.75-.05l-1.12-.09c-.76-.07-1.48-.14-2.2-.21l-1.41-.18c-.59-.08-1.17-.16-1.74-.25-.62-.09-1.22-.19-1.82-.3-.4-.07-.8-.14-1.18-.22-.3-.06-.6-.12-.9-.19-.32-.06-.69-.14-1.06-.23-.58-.14-1.09-.26-1.58-.39-.98-.26-1.95-.55-2.97-.9l-.67-.24c-.48-.18-.93-.36-1.37-.54-.8-.33-1.56-.7-2.26-1.09-.14-.07-.3-.17-.46-.27-.16-.09-.31-.18-.46-.28-.28-.18-.55-.37-.81-.55-.17-.12-.33-.25-.48-.38Z"/><path class="cls-2" d="M331.21,264.5c-.55,0-1.06-.37-1.21-.93-.17-.66.22-1.34.88-1.52.73-.2,1.43-.39,2.11-.61.65-.21,1.36.15,1.57.81.21.66-.15,1.36-.81,1.57-.74.24-1.5.46-2.24.65-.1.03-.21.04-.31.04Z"/><path class="cls-2" d="M334.41,263.54c-.52,0-1-.32-1.18-.84-.23-.65.12-1.36.76-1.59.41-.15.82-.3,1.21-.45.15-.06.3-.12.45-.18.64-.26,1.37.05,1.62.69.26.64-.04,1.37-.68,1.63-.16.06-.32.13-.48.19-.42.16-.85.33-1.3.48-.13.04-.27.07-.4.07Z"/><path class="cls-2" d="M280.16,294.95c-.08,0-.16,0-.24-.03-.54-.13-.86-.67-.73-1.21.46-1.9.48-3.9.04-5.81-.12-.54.21-1.08.75-1.2.54-.13,1.08.21,1.2.75.51,2.21.49,4.53-.05,6.73-.11.46-.52.76-.97.76Z"/><path class="cls-2" d="M285.17,297.02c-.53,0-.98-.42-1-.96l-.23-6.14c-.02-.55.41-1.02.96-1.04.58-.03,1.02.41,1.04.96l.23,6.14c.02.55-.41,1.02-.96,1.04-.01,0-.03,0-.04,0Z"/><path class="cls-2" d="M290.85,298.35c-.54,0-.98-.42-1-.96l-.22-6.21c-.02-.55.41-1.02.96-1.03.56-.03,1.02.41,1.03.96l.22,6.21c.02.55-.41,1.02-.96,1.03-.01,0-.02,0-.04,0Z"/><path class="cls-2" d="M296.91,298.88h0c-.55,0-1-.45-.99-1.01l.03-5.47c0-.55.48-1.03,1.01-.99.55,0,1,.45.99,1.01l-.03,5.47c0,.55-.45.99-1,.99Z"/><path class="cls-2" d="M302.9,299.35c-.52,0-.95-.4-1-.92l-.45-5.54c-.04-.55.37-1.03.92-1.08.56-.04,1.03.37,1.08.92l.45,5.54c.04.55-.37,1.03-.92,1.08-.03,0-.05,0-.08,0Z"/><path class="cls-2" d="M309.04,299.75h-.01c-.55,0-.99-.46-.99-1.01l.07-5.94c0-.55.45-.99,1-.99h.01c.55,0,.99.46.99,1.01l-.07,5.94c0,.55-.45.99-1,.99Z"/><path class="cls-2" d="M315.84,300.28c-.49,0-.91-.36-.99-.85-.34-2.26-.47-4.57-.39-6.85.02-.55.49-1,1.03-.97.55.02.98.48.97,1.03-.07,2.17.05,4.35.37,6.49.08.55-.3,1.05-.84,1.14-.05,0-.1.01-.15.01Z"/><path class="cls-2" d="M320.58,298.95c-.54,0-.99-.44-1-.98l-.11-5.74c0-.55.43-1.01.98-1.02h.02c.54,0,.99.44,1,.98l.11,5.74c0,.55-.43,1.01-.98,1.02h-.02Z"/><path class="cls-2" d="M326.32,297.94s-.1,0-.15-.01c-.55-.08-.92-.59-.84-1.14.28-1.85.38-3.74.31-5.61-.02-.55.41-1.02.96-1.04.55-.04,1.02.41,1.04.96.08,2-.03,4.02-.33,6-.08.5-.5.85-.99.85Z"/><path class="cls-2" d="M331,295.88c-.52,0-.95-.4-1-.92l-.42-5.34c-.04-.55.37-1.03.92-1.08.55-.04,1.03.37,1.08.92l.42,5.34c.04.55-.37,1.03-.92,1.08-.03,0-.05,0-.08,0Z"/><path class="cls-2" d="M334.23,294.01s-.02,0-.03,0c-.55-.02-.99-.48-.97-1.03l.16-4.94c.02-.54.46-.97,1-.97.01,0,.02,0,.03,0,.55.02.99.48.97,1.03l-.16,4.94c-.02.54-.46.97-1,.97Z"/><path class="cls-2" d="M306.69,293.27c-12.58,0-23.98-2.43-29.03-6.18-1.97-1.48-2.96-3.11-2.96-4.85,0-1.61.86-3.13,2.55-4.5.46-.37,1.12-.37,1.58,0,4.36,3.56,15.56,5.94,27.86,5.94s23.51-2.39,27.88-5.94c.46-.38,1.12-.38,1.58,0,1.69,1.38,2.54,2.89,2.54,4.5,0,1.74-1,3.37-2.96,4.84-5.06,3.76-16.46,6.19-29.04,6.19ZM278.13,280.33c-.61.65-.92,1.3-.92,1.92,0,1.13,1.07,2.17,1.96,2.84,4.57,3.4,15.64,5.69,27.53,5.69s22.96-2.29,27.54-5.69c.89-.67,1.95-1.7,1.95-2.84,0-.62-.31-1.26-.92-1.92-5.27,3.58-16.26,5.86-28.58,5.86s-23.3-2.28-28.57-5.86Z"/><path class="cls-2" d="M306.7,300.94c-15.51,0-32-3.86-32-11.02v-7.68c0-.69.56-1.25,1.25-1.25s1.25.56,1.25,1.25c0,1.14,1.07,2.17,1.96,2.84,4.58,3.4,15.64,5.69,27.53,5.69s22.96-2.29,27.54-5.69c.89-.67,1.96-1.7,1.96-2.84,0-.69.56-1.25,1.25-1.25s1.25.56,1.25,1.25v7.68c0,7.16-16.49,11.02-32,11.02ZM277.2,286.72v3.2c0,4.03,12.11,8.52,29.5,8.52s29.5-4.49,29.5-8.52v-3.2c-.15.12-.3.25-.46.37-5.06,3.76-16.45,6.18-29.03,6.18s-23.97-2.43-29.03-6.18c-.16-.12-.32-.25-.47-.37Z"/><path class="cls-2" d="M281.38,240.9c-.08,0-.16,0-.24-.03-.54-.13-.86-.67-.73-1.21.47-1.89.48-3.9.04-5.81-.12-.54.21-1.08.75-1.2.54-.12,1.08.21,1.2.75.51,2.21.49,4.54-.05,6.73-.11.46-.52.76-.97.76Z"/><path class="cls-2" d="M286.39,242.97c-.53,0-.98-.42-1-.96l-.23-6.14c-.02-.55.41-1.02.96-1.04.55-.04,1.02.41,1.04.96l.23,6.14c.02.55-.41,1.02-.96,1.04-.01,0-.03,0-.04,0Z"/><path class="cls-2" d="M292.07,244.31c-.54,0-.98-.42-1-.96l-.22-6.21c-.02-.55.41-1.02.96-1.03.55-.04,1.02.41,1.03.96l.22,6.21c.02.55-.41,1.02-.96,1.03-.01,0-.02,0-.04,0Z"/><path class="cls-2" d="M298.13,244.82h0c-.55,0-1-.44-.99-.99l.03-5.47c0-.55.45-1,1-1h0c.55,0,1,.45,1,1l-.03,5.44c0,.55-.45,1.01-1,1.01Z"/><path class="cls-2" d="M304.11,245.31c-.52,0-.95-.4-1-.92l-.45-5.54c-.04-.55.37-1.03.92-1.08.57-.04,1.03.37,1.08.92l.45,5.54c.04.55-.37,1.03-.92,1.08-.03,0-.05,0-.08,0Z"/><path class="cls-2" d="M310.25,245.71h-.01c-.55,0-.99-.46-.99-1.01l.07-5.94c0-.55.45-.99,1-.99h.01c.55,0,.99.46.99,1.01l-.07,5.94c0,.55-.45.99-1,.99Z"/><path class="cls-2" d="M317.06,246.24c-.49,0-.91-.36-.99-.85-.34-2.27-.47-4.57-.39-6.85.02-.55.48-1,1.03-.97.55.02.98.48.97,1.03-.07,2.16.05,4.35.37,6.49.08.55-.3,1.06-.84,1.14-.05,0-.1.01-.15.01Z"/><path class="cls-2" d="M321.79,244.91c-.54,0-.99-.44-1-.98l-.11-5.74c0-.55.43-1.01.98-1.02h.02c.54,0,.99.44,1,.98l.11,5.74c0,.55-.43,1.01-.98,1.02h-.02Z"/><path class="cls-2" d="M327.54,243.9s-.1,0-.15-.01c-.55-.08-.92-.59-.84-1.14.28-1.85.38-3.74.31-5.61-.02-.55.41-1.02.96-1.04.52-.03,1.02.41,1.04.96.08,2-.03,4.02-.33,6-.07.5-.5.85-.99.85Z"/><path class="cls-2" d="M332.22,241.83c-.52,0-.95-.4-1-.92l-.42-5.34c-.04-.55.37-1.03.92-1.08.55-.04,1.03.37,1.08.92l.42,5.34c.04.55-.37,1.03-.92,1.08-.03,0-.05,0-.08,0Z"/><path class="cls-2" d="M335.44,239.96s-.02,0-.03,0c-.55-.02-.99-.48-.97-1.03l.16-4.94c.02-.54.46-.97,1-.97.01,0,.02,0,.03,0,.55.02.99.48.97,1.03l-.16,4.94c-.02.54-.46.97-1,.97Z"/><path class="cls-2" d="M307.91,239.23c-12.58,0-23.98-2.43-29.03-6.18-1.97-1.47-2.97-3.1-2.97-4.85,0-1.35.61-2.64,1.81-3.84.3-.3.73-.43,1.15-.34.42.09.76.39.91.79.26.71.95,1.48,2,2.23,4.74,3.37,15.48,5.55,27.36,5.55,3.09,0,6.12-.15,9.01-.44.02,0,.03,0,.05,0,3-.29,5.81-.73,8.33-1.31,5.27-1.17,9.19-2.84,11.04-4.7.3-.3.74-.43,1.15-.34.42.09.76.38.91.78.2.53.3,1.07.3,1.61,0,1.75-1,3.38-2.97,4.84-5.05,3.76-16.44,6.18-29.03,6.18ZM278.55,227.49c-.09.24-.13.48-.13.71,0,1.14,1.07,2.17,1.97,2.84,4.57,3.4,15.64,5.69,27.53,5.69s22.96-2.29,27.53-5.69c.43-.32.9-.72,1.27-1.18-2.88,1.67-6.64,2.76-9.65,3.42-2.63.6-5.55,1.06-8.67,1.36-.01,0-.03,0-.04,0-2.96.29-6.06.44-9.22.44-12.37,0-23.68-2.36-28.81-6.01-.71-.51-1.3-1.04-1.77-1.58Z"/><path class="cls-2" d="M307.91,246.89c-13.04,0-24.61-2.55-29.46-6.51-2.1-1.71-2.54-3.4-2.54-4.51v-7.68c0-.69.56-1.25,1.25-1.25s1.25.56,1.25,1.25c0,1.14,1.07,2.17,1.97,2.84,1.69,1.26,4.35,2.41,7.7,3.33,5.48,1.52,12.52,2.36,19.83,2.36s14.35-.84,19.83-2.36c3.37-.93,6.03-2.08,7.7-3.33.9-.67,1.97-1.71,1.97-2.84,0-.69.56-1.25,1.25-1.25s1.25.56,1.25,1.25v7.68c0,1.61-.85,3.13-2.53,4.51-3.59,2.94-10.96,5.15-20.2,6.06-.02,0-.03,0-.05,0-2.97.29-6.07.44-9.22.44ZM278.41,232.67v3.2c0,1.04.88,1.97,1.62,2.57,4.36,3.56,15.56,5.95,27.88,5.95,3.08,0,6.12-.15,9.01-.44.02,0,.03,0,.05,0,8.62-.85,15.65-2.91,18.82-5.5,1.07-.88,1.62-1.75,1.62-2.58v-3.2c-.15.12-.31.25-.47.37-1.95,1.46-4.82,2.71-8.53,3.74-5.68,1.58-12.96,2.45-20.5,2.45s-14.81-.87-20.5-2.45c-3.69-1.02-6.56-2.28-8.53-3.74-.16-.12-.32-.25-.47-.37Z"/><path class="cls-2" d="M309.13,223.69c-15.27,0-23.09-3.36-25.13-4.39-1.55-.8-2.5-1.55-2.93-2.29-.22-.39-.21-.86.01-1.25,1.58-2.68,11.58-6.65,28.04-6.65s26.48,3.97,28.04,6.66c.22.38.23.86,0,1.24-.42.75-1.38,1.5-2.92,2.29-2.03,1.03-9.83,4.39-25.13,4.39ZM283.97,216.39c.28.19.66.42,1.17.68,1.9.96,9.27,4.12,23.99,4.12s22.09-3.15,24-4.12c.52-.27.89-.49,1.17-.68-2.4-1.61-10.53-4.78-25.17-4.78s-22.75,3.17-25.16,4.78Z"/><path class="cls-2" d="M282.6,229.09c-.08,0-.16,0-.24-.03-.54-.13-.86-.67-.73-1.21.46-1.9.48-3.9.04-5.81-.12-.54.21-1.08.75-1.2.54-.12,1.08.21,1.2.75.51,2.21.49,4.53-.05,6.73-.11.46-.52.76-.97.76Z"/><path class="cls-2" d="M287.61,231.17c-.53,0-.98-.42-1-.96l-.23-6.14c-.02-.55.41-1.02.96-1.04.58-.05,1.02.41,1.04.96l.23,6.14c.02.55-.41,1.02-.96,1.04-.01,0-.03,0-.04,0Z"/><path class="cls-2" d="M293.29,232.5c-.54,0-.98-.42-1-.96l-.22-6.21c-.02-.55.41-1.02.96-1.03.54-.04,1.01.41,1.03.96l.22,6.21c.02.55-.41,1.02-.96,1.03-.01,0-.02,0-.04,0Z"/><path class="cls-2" d="M299.35,233.03h0c-.55,0-1-.45-.99-1.01l.03-5.47c0-.55.45-.99,1-.99h0c.55,0,1,.45.99,1.01l-.03,5.47c0,.55-.45.99-1,.99Z"/><path class="cls-2" d="M305.33,233.5c-.52,0-.95-.4-1-.92l-.45-5.54c-.04-.55.37-1.03.92-1.08.54-.04,1.03.37,1.08.92l.45,5.54c.04.55-.37,1.03-.92,1.08-.03,0-.05,0-.08,0Z"/><path class="cls-2" d="M311.47,233.9h-.01c-.55,0-.99-.46-.99-1.01l.07-5.94c0-.55.41-.98,1.01-.99.55,0,.99.46.99,1.01l-.07,5.94c0,.55-.45.99-1,.99Z"/><path class="cls-2" d="M318.28,234.42c-.55,0-1-.43-1-.98v-.04c0-.55.45-1,1-1s1,.45,1,1-.45,1.02-1,1.02Z"/><path class="cls-2" d="M318.27,234.4c-.49,0-.92-.36-.99-.86-.33-2.31-.46-4.6-.38-6.82.02-.55.45-1,1.03-.96.55.02.98.48.96,1.03-.07,2.1.05,4.27.37,6.46.08.55-.3,1.05-.85,1.13-.05,0-.1,0-.14,0Z"/><path class="cls-2" d="M323.01,233.1c-.54,0-.99-.44-1-.98l-.11-5.74c0-.55.43-1.01.98-1.02h.02c.54,0,.99.44,1,.98l.11,5.74c0,.55-.43,1.01-.98,1.02h-.02Z"/><path class="cls-2" d="M328.76,232.09s-.1,0-.15-.01c-.55-.08-.92-.59-.84-1.14.28-1.85.38-3.74.31-5.61-.02-.55.41-1.02.96-1.04.56-.04,1.02.41,1.04.96.08,2-.03,4.02-.33,6-.08.5-.5.85-.99.85Z"/><path class="cls-2" d="M333.44,230.03c-.52,0-.95-.4-1-.92l-.42-5.34c-.04-.55.37-1.03.92-1.08.54-.04,1.03.37,1.08.92l.42,5.34c.04.55-.37,1.03-.92,1.08-.03,0-.05,0-.08,0Z"/><path class="cls-2" d="M336.66,228.16s-.02,0-.03,0c-.55-.02-.99-.48-.97-1.03l.16-4.94c.02-.54.46-.97,1-.97.01,0,.02,0,.03,0,.55.02.99.48.97,1.03l-.16,4.94c-.02.54-.46.97-1,.97Z"/><path class="cls-2" d="M309.14,227.42c-12.57,0-23.97-2.43-29.03-6.18-1.97-1.47-2.96-3.1-2.96-4.85,0-7.16,16.49-11.03,32-11.03s31.99,3.87,31.99,11.03c0,1.74-1,3.37-2.96,4.84-5.07,3.76-16.46,6.18-29.03,6.18ZM309.14,207.87c-17.38,0-29.5,4.49-29.5,8.53,0,1.14,1.06,2.17,1.96,2.84,4.58,3.4,15.65,5.69,27.54,5.69s22.95-2.29,27.54-5.69c.89-.67,1.95-1.7,1.95-2.84,0-4.03-12.11-8.53-29.49-8.53Z"/><path class="cls-2" d="M309.13,235.09c-12.37,0-23.68-2.36-28.81-6.01-1.48-1.06-2.45-2.2-2.89-3.4-.2-.52-.3-1.07-.3-1.61v-7.67c0-.69.56-1.25,1.25-1.25s1.25.56,1.25,1.25c0,1.14,1.07,2.17,1.97,2.84.79.59,1.78,1.15,2.95,1.66,1.64.74,3.61,1.4,5.85,1.96,5.38,1.35,11.86,2.07,18.74,2.07,6.34,0,12.39-.61,17.48-1.78,2.2-.49,4.2-1.08,5.93-1.76,1.67-.65,3.06-1.37,4.12-2.16.89-.66,1.96-1.7,1.96-2.84,0-.69.56-1.25,1.25-1.25s1.25.56,1.25,1.25v7.67c0,1.36-.61,2.66-1.81,3.85-2.79,2.8-8.2,4.46-12.25,5.36-2.63.6-5.55,1.06-8.67,1.36-.01,0-.03,0-.04,0-2.96.29-6.06.44-9.22.44ZM279.63,220.87v3.2c0,.24.05.48.14.73.26.72.96,1.49,2,2.24,4.74,3.37,15.48,5.55,27.36,5.55,3.09,0,6.12-.15,9.01-.44.02,0,.03,0,.05,0,3-.29,5.81-.73,8.33-1.31,5.27-1.17,9.19-2.84,11.04-4.7.72-.71,1.08-1.41,1.08-2.08v-3.2c-.15.12-.31.25-.47.37-1.25.92-2.83,1.75-4.71,2.48-1.85.72-3.97,1.35-6.29,1.87-5.27,1.2-11.5,1.84-18.03,1.84-7.08,0-13.77-.74-19.34-2.14-2.39-.59-4.49-1.3-6.26-2.1-1.33-.59-2.48-1.24-3.42-1.94-.16-.12-.32-.25-.47-.37Z"/><path class="cls-2" d="M281.38,255.65c-.08,0-.16,0-.24-.03-.54-.13-.86-.67-.73-1.21.47-1.89.48-3.9.04-5.8-.12-.54.21-1.08.75-1.2.54-.13,1.08.21,1.2.75.51,2.21.49,4.53-.05,6.73-.11.46-.52.76-.97.76Z"/><path class="cls-2" d="M286.39,257.72c-.53,0-.98-.42-1-.96l-.23-6.14c-.02-.55.41-1.02.96-1.04.55-.03,1.02.41,1.04.96l.23,6.14c.02.55-.41,1.02-.96,1.04-.01,0-.03,0-.04,0Z"/><path class="cls-2" d="M292.07,259.06c-.54,0-.98-.42-1-.96l-.22-6.21c-.02-.55.41-1.02.96-1.03.55-.05,1.02.41,1.03.96l.22,6.21c.02.55-.41,1.02-.96,1.03-.01,0-.02,0-.04,0Z"/><path class="cls-2" d="M298.13,259.59h0c-.55,0-1-.45-.99-1.01l.03-5.47c0-.55.45-1,1-1h0c.55,0,1,.45,1,1l-.03,5.48c0,.55-.45.99-1,.99Z"/><path class="cls-2" d="M304.11,260.06c-.52,0-.95-.4-1-.92l-.45-5.54c-.04-.55.37-1.03.92-1.08.57-.04,1.03.37,1.08.92l.45,5.54c.04.55-.37,1.03-.92,1.08-.03,0-.05,0-.08,0Z"/><path class="cls-2" d="M310.25,260.46h-.01c-.55,0-.99-.46-.99-1.01l.07-5.94c0-.55.45-.99,1-.99h.01c.55,0,.99.46.99,1.01l-.07,5.94c0,.55-.45.99-1,.99Z"/><path class="cls-2" d="M317.06,260.99c-.49,0-.91-.36-.99-.85-.34-2.26-.47-4.57-.39-6.85.02-.55.48-1.01,1.03-.97.55.02.98.48.97,1.03-.07,2.16.05,4.35.37,6.49.08.55-.3,1.06-.84,1.14-.05,0-.1.01-.15.01Z"/><path class="cls-2" d="M321.79,259.66c-.54,0-.99-.44-1-.98l-.11-5.74c0-.55.43-1.01.98-1.02h.02c.54,0,.99.44,1,.98l.11,5.74c0,.55-.43,1.01-.98,1.02h-.02Z"/><path class="cls-2" d="M327.54,258.65s-.1,0-.15-.01c-.55-.08-.92-.59-.84-1.14.28-1.85.38-3.74.31-5.61-.02-.55.41-1.02.96-1.04.52-.03,1.02.41,1.04.96.08,2-.03,4.02-.33,6-.07.5-.5.85-.99.85Z"/><path class="cls-2" d="M332.22,256.59c-.52,0-.95-.4-1-.92l-.42-5.34c-.04-.55.37-1.03.92-1.08.55-.04,1.03.37,1.08.92l.42,5.34c.04.55-.37,1.03-.92,1.08-.03,0-.05,0-.08,0Z"/><path class="cls-2" d="M335.44,254.72s-.02,0-.03,0c-.55-.02-.99-.48-.97-1.03l.16-4.94c.02-.55.53-.99,1.03-.97.55.02.99.48.97,1.03l-.16,4.94c-.02.54-.46.97-1,.97Z"/><path class="cls-2" d="M307.91,253.98c-12.58,0-23.98-2.43-29.03-6.18-1.97-1.47-2.97-3.1-2.97-4.85,0-1.61.86-3.13,2.54-4.5.46-.38,1.12-.38,1.58,0,4.36,3.56,15.56,5.94,27.87,5.94,3.08,0,6.12-.15,9.01-.44.02,0,.03,0,.05,0,8.62-.85,15.65-2.91,18.82-5.5.46-.38,1.12-.38,1.58,0,1.68,1.38,2.53,2.9,2.53,4.5,0,1.75-1,3.38-2.97,4.84-5.05,3.76-16.44,6.18-29.03,6.18ZM279.34,241.04c-.61.65-.92,1.3-.92,1.92,0,1.14,1.07,2.17,1.97,2.84,4.57,3.4,15.64,5.69,27.53,5.69s22.96-2.29,27.53-5.69c.9-.67,1.96-1.7,1.96-2.84,0-.62-.31-1.26-.91-1.91-3.84,2.61-10.77,4.56-19.32,5.41-.02,0-.03,0-.05,0-2.97.29-6.07.44-9.22.44-12.31,0-23.31-2.28-28.58-5.86Z"/><path class="cls-2" d="M307.91,261.65c-11.35,0-21.89-1.99-27.5-5.19-2.99-1.7-4.5-3.66-4.5-5.83v-7.68c0-.69.56-1.25,1.25-1.25s1.25.56,1.25,1.25c0,1.14,1.07,2.17,1.97,2.84,1.51,1.12,3.82,2.17,6.67,3.03,5.62,1.71,13.03,2.66,20.87,2.66,9.76,0,18.94-1.5,24.55-4,1.19-.53,2.19-1.1,2.98-1.69.9-.67,1.96-1.7,1.96-2.84,0-.69.56-1.25,1.25-1.25s1.25.56,1.25,1.25v7.68c0,.15-.01.3-.03.43-.67,6.87-16.97,10.59-31.97,10.59ZM278.41,247.43v3.2c0,1.17,1.15,2.47,3.24,3.66,5.26,3,15.32,4.86,26.26,4.86,16.9,0,29.1-4.39,29.49-8.33,0-.06.01-.12.01-.19v-3.2c-.15.12-.31.25-.47.37-.94.7-2.1,1.36-3.46,1.96-5.92,2.64-15.48,4.22-25.57,4.22-8.08,0-15.75-.98-21.59-2.76-3.16-.96-5.66-2.11-7.43-3.42-.16-.12-.32-.25-.47-.37Z"/><path class="cls-2" d="M278.85,210.29c-.35,0-.7-.15-.95-.43l-5.61-6.5c-.45-.52-.39-1.31.13-1.76.52-.45,1.31-.39,1.76.13l5.61,6.5c.45.52.39,1.31-.13,1.76-.24.2-.53.3-.82.3Z"/><path class="cls-2" d="M282.84,209.04c-.53,0-1.02-.34-1.19-.87l-2.55-7.9c-.21-.66.15-1.36.8-1.57.66-.21,1.36.15,1.57.8l2.55,7.9c.21.66-.15,1.36-.81,1.57-.13.04-.26.06-.38.06Z"/><path class="cls-2" d="M287.02,206.98c-.64,0-1.19-.49-1.24-1.14l-.44-5.16c-.06-.69.45-1.29,1.14-1.35.7-.08,1.29.45,1.35,1.14l.44,5.16c.06.69-.45,1.29-1.14,1.35-.04,0-.07,0-.11,0Z"/><path class="cls-2" d="M275.96,213.88c-.16,0-.32-.03-.48-.09l-7.56-3.13c-.64-.26-.94-1-.68-1.63.27-.64,1-.94,1.63-.68l7.56,3.13c.64.26.94,1,.68,1.63-.2.48-.67.77-1.16.77Z"/><path class="cls-1" d="M239.59,282.68c.48,2.06.46,4.22-.04,6.27"/><path class="cls-1" d="M256.33,287.41c-.01,1.82-.02,3.65-.03,5.47"/><path class="cls-1" d="M261.84,287.82c.15,1.85.3,3.69.45,5.54"/><path class="cls-1" d="M279.85,287.21c.04,1.91.07,3.83.11,5.74"/><path class="cls-1" d="M286.02,286.14c.08,1.94-.03,3.89-.32,5.81"/><path class="cls-1" d="M289.96,284.53c.14,1.78.28,3.56.42,5.34"/><path class="cls-1" d="M293.77,283.07c-.05,1.65-.11,3.29-.16,4.94"/><path class="cls-1" d="M240.81,270.87c.47,2.06.46,4.22-.05,6.27"/><path class="cls-1" d="M251.24,274.34c.07,2.07.14,4.14.22,6.21"/><path class="cls-1" d="M257.55,275.61c-.01,1.82-.02,3.65-.03,5.47"/><path class="cls-1" d="M263.05,276.01c.15,1.85.3,3.69.45,5.54"/><path class="cls-1" d="M281.07,275.4c.04,1.91.07,3.83.11,5.74"/><path class="cls-1" d="M287.24,274.33c.08,1.94-.03,3.89-.32,5.81"/><path class="cls-1" d="M291.18,272.73c.14,1.78.28,3.56.42,5.34"/><path class="cls-1" d="M294.99,271.27c-.05,1.65-.11,3.29-.16,4.94"/><path class="cls-1" d="M239.59,297.43c.47,2.06.46,4.22-.05,6.27"/><path class="cls-1" d="M256.33,302.17c-.01,1.82-.02,3.65-.03,5.47"/><path class="cls-1" d="M261.84,302.57c.15,1.85.3,3.69.45,5.54"/><path class="cls-1" d="M279.85,301.96c.04,1.91.07,3.83.11,5.74"/><path class="cls-1" d="M286.02,300.89c.08,1.94-.03,3.89-.32,5.81"/><path class="cls-1" d="M293.77,297.83c-.05,1.65-.11,3.29-.16,4.94"/><path class="cls-1" d="M298.05,273.12c0,1.04-.5,2.03-1.44,2.96.14.39.22.78.22,1.17v7.68c0,1.25-.73,2.44-2.08,3.54,1.35,1.11,2.08,2.3,2.08,3.54v7.68c0,.1-.02.2-.03.31-.2,2.06-2.39,3.95-5.98,5.49-3.84,1.66-9.29,2.91-15.61,3.53-2.17.21-4.43.36-6.78.41-.77.03-1.56.03-2.36.03-5.87,0-11.35-.53-16.02-1.44-2.1-.41-4.03-.89-5.75-1.44-2-.63-3.72-1.36-5.1-2.15-2.47-1.4-3.87-3.01-3.87-4.74v-7.68c0-1.25.74-2.45,2.08-3.54-1.34-1.09-2.08-2.29-2.08-3.54v-7.68c0-1.03.51-2.02,1.44-2.96-.14-.38-.22-.78-.22-1.17v-7.68c0,.43.08.85.25,1.26-.16-.42-.25-.83-.25-1.26,0-5.38,13.77-9.77,30.75-9.77s30.73,4.39,30.73,9.77c0,.42-.08.84-.25,1.26.17-.41.25-.82.25-1.26v7.68Z"/><path class="cls-2" d="M239.55,289.94c-.08,0-.16,0-.24-.03-.54-.13-.86-.67-.73-1.21.46-1.9.48-3.9.04-5.81-.12-.54.21-1.08.75-1.2.54-.12,1.08.21,1.2.75.51,2.21.49,4.53-.05,6.73-.11.46-.52.76-.97.76Z"/><path class="cls-2" d="M244.55,292.01c-.53,0-.98-.42-1-.96l-.23-6.14c-.02-.55.41-1.02.96-1.04.58-.03,1.02.41,1.04.96l.23,6.14c.02.55-.41,1.02-.96,1.04-.01,0-.03,0-.04,0Z"/><path class="cls-2" d="M250.23,293.35c-.54,0-.98-.42-1-.96l-.22-6.21c-.02-.55.41-1.02.96-1.03.54-.05,1.02.41,1.03.96l.22,6.21c.02.55-.41,1.02-.96,1.03-.01,0-.02,0-.04,0Z"/><path class="cls-2" d="M256.29,293.88h0c-.55,0-1-.45-.99-1.01l.03-5.47c0-.55.45-.99,1-.99h0c.55,0,1,.45.99,1.01l-.03,5.47c0,.55-.45.99-1,.99Z"/><path class="cls-2" d="M262.28,294.35c-.52,0-.95-.4-1-.92l-.45-5.54c-.04-.55.37-1.03.92-1.08.55-.04,1.03.37,1.08.92l.45,5.54c.04.55-.37,1.03-.92,1.08-.03,0-.05,0-.08,0Z"/><path class="cls-2" d="M268.42,294.75h-.01c-.55,0-.99-.46-.99-1.01l.07-5.94c0-.55.45-.99,1-.99h.01c.55,0,.99.46.99,1.01l-.07,5.94c0,.55-.45.99-1,.99Z"/><path class="cls-2" d="M275.22,295.28c-.49,0-.91-.36-.99-.85-.34-2.27-.47-4.57-.39-6.86.02-.55.5-1.02,1.03-.96.55.02.98.48.96,1.03-.07,2.16.05,4.35.37,6.49.08.55-.3,1.05-.84,1.14-.05,0-.1.01-.15.01Z"/><path class="cls-2" d="M279.96,293.95c-.54,0-.99-.44-1-.98l-.11-5.74c0-.55.43-1.01.98-1.02h.02c.54,0,.99.44,1,.98l.11,5.74c0,.55-.43,1.01-.98,1.02h-.02Z"/><path class="cls-2" d="M285.71,292.94s-.1,0-.15-.01c-.55-.08-.92-.59-.84-1.14.28-1.85.38-3.74.31-5.61-.02-.55.41-1.02.96-1.04.55-.04,1.02.41,1.04.96.08,2-.03,4.02-.33,6-.08.5-.5.85-.99.85Z"/><path class="cls-2" d="M290.38,290.88c-.52,0-.95-.4-1-.92l-.42-5.34c-.04-.55.37-1.03.92-1.08.54-.04,1.03.37,1.08.92l.42,5.34c.04.55-.37,1.03-.92,1.08-.03,0-.05,0-.08,0Z"/><path class="cls-2" d="M293.61,289.01s-.02,0-.03,0c-.55-.02-.99-.48-.97-1.03l.16-4.94c.02-.54.46-.97,1-.97.01,0,.02,0,.03,0,.55.02.99.48.97,1.03l-.16,4.94c-.02.54-.46.97-1,.97Z"/><path class="cls-2" d="M266.08,288.27c-12.58,0-23.98-2.43-29.03-6.18-1.97-1.47-2.97-3.1-2.97-4.85,0-1.35.61-2.64,1.81-3.84.3-.3.73-.43,1.15-.34.42.09.76.39.91.79.26.71.95,1.48,2,2.23,4.73,3.37,15.48,5.55,27.36,5.55,3.09,0,6.12-.15,9.01-.44.02,0,.03,0,.05,0,3-.29,5.8-.73,8.33-1.31,5.27-1.17,9.19-2.84,11.03-4.7.3-.3.73-.43,1.15-.34.42.09.76.39.91.79.2.53.3,1.07.3,1.61,0,1.75-1,3.38-2.97,4.84-5.05,3.76-16.44,6.18-29.03,6.18ZM236.71,276.54c-.09.24-.13.48-.13.71,0,1.14,1.07,2.17,1.97,2.84,4.57,3.4,15.64,5.69,27.53,5.69s22.96-2.29,27.53-5.69c.43-.32.9-.72,1.27-1.18-2.88,1.67-6.64,2.75-9.65,3.42-2.63.6-5.55,1.06-8.67,1.36-.01,0-.03,0-.04,0-2.96.29-6.06.44-9.22.44-12.37,0-23.68-2.36-28.81-6.01-.71-.51-1.3-1.04-1.77-1.58Z"/><path class="cls-2" d="M266.08,295.94c-13.04,0-24.61-2.55-29.46-6.51-2.1-1.71-2.54-3.4-2.54-4.51v-7.68c0-.69.56-1.25,1.25-1.25s1.25.56,1.25,1.25c0,1.14,1.07,2.17,1.97,2.84,1.69,1.26,4.35,2.41,7.7,3.33,5.48,1.52,12.52,2.36,19.83,2.36s14.35-.84,19.83-2.36c3.37-.93,6.03-2.08,7.7-3.33.9-.67,1.97-1.71,1.97-2.84,0-.69.56-1.25,1.25-1.25s1.25.56,1.25,1.25v7.68c0,1.61-.85,3.13-2.53,4.51-3.59,2.94-10.96,5.15-20.2,6.06-.02,0-.03,0-.05,0-2.97.29-6.07.44-9.22.44ZM236.58,281.72v3.2c0,1.04.88,1.97,1.62,2.57,4.36,3.56,15.56,5.95,27.88,5.95,3.08,0,6.12-.15,9.01-.44.02,0,.03,0,.05,0,8.62-.85,15.66-2.91,18.82-5.5,1.07-.88,1.62-1.75,1.62-2.58v-3.2c-.15.12-.31.25-.47.37-1.94,1.46-4.82,2.71-8.53,3.74-5.68,1.58-12.96,2.45-20.5,2.45s-14.81-.87-20.5-2.45c-3.69-1.02-6.56-2.27-8.53-3.74-.16-.12-.32-.25-.47-.37Z"/><path class="cls-2" d="M267.3,272.73c-15.27,0-23.09-3.36-25.13-4.39-1.55-.8-2.5-1.54-2.93-2.29-.22-.39-.22-.86.01-1.25,1.58-2.68,11.58-6.65,28.04-6.65s26.48,3.97,28.04,6.66c.22.38.23.86,0,1.24-.42.75-1.38,1.5-2.92,2.29-2.03,1.03-9.83,4.39-25.13,4.39ZM242.14,265.43c.28.19.66.42,1.17.68,1.9.96,9.27,4.12,23.99,4.12s22.09-3.15,24-4.12c.52-.27.89-.49,1.17-.68-2.4-1.61-10.53-4.78-25.17-4.78s-22.75,3.17-25.16,4.78Z"/><path class="cls-2" d="M240.76,278.14c-.08,0-.16,0-.24-.03-.54-.13-.86-.67-.73-1.21.46-1.9.48-3.9.04-5.81-.12-.54.21-1.08.75-1.2.54-.12,1.08.21,1.2.75.51,2.21.49,4.53-.05,6.73-.11.46-.52.76-.97.76Z"/><path class="cls-2" d="M245.77,280.21c-.54,0-.98-.42-1-.96l-.23-6.14c-.02-.55.41-1.02.96-1.04.58-.05,1.02.41,1.04.96l.23,6.14c.02.55-.41,1.02-.96,1.04-.01,0-.03,0-.04,0Z"/><path class="cls-2" d="M251.45,281.55c-.54,0-.98-.42-1-.96l-.22-6.21c-.02-.55.41-1.02.96-1.03.56-.03,1.02.41,1.03.96l.22,6.21c.02.55-.41,1.02-.96,1.03-.01,0-.02,0-.04,0Z"/><path class="cls-2" d="M257.51,282.08h0c-.55,0-1-.45-.99-1.01l.03-5.47c0-.55.45-.99,1-.99h0c.55,0,1,.45.99,1.01l-.03,5.47c0,.55-.45.99-1,.99Z"/><path class="cls-2" d="M263.5,282.55c-.52,0-.95-.4-1-.92l-.45-5.54c-.04-.55.37-1.03.92-1.08.56-.04,1.03.37,1.08.92l.45,5.54c.04.55-.37,1.03-.92,1.08-.03,0-.05,0-.08,0Z"/><path class="cls-2" d="M269.64,282.95h-.01c-.55,0-.99-.46-.99-1.01l.07-5.94c0-.55.45-.99,1-.99h.01c.55,0,.99.46.99,1.01l-.07,5.94c0,.55-.45.99-1,.99Z"/><path class="cls-2" d="M276.45,283.46c-.55,0-1-.43-1-.98v-.04c0-.55.45-1,1-1s1,.45,1,1-.45,1.02-1,1.02Z"/><path class="cls-2" d="M276.43,283.44c-.49,0-.92-.36-.99-.86-.33-2.3-.46-4.6-.38-6.82.02-.55.44-.99,1.03-.96.55.02.98.48.96,1.03-.07,2.1.05,4.27.37,6.46.08.55-.3,1.05-.85,1.13-.05,0-.1,0-.14,0Z"/><path class="cls-2" d="M281.18,282.15c-.54,0-.99-.44-1-.98l-.11-5.74c0-.55.43-1.01.98-1.02h.02c.54,0,.99.44,1,.98l.11,5.74c0,.55-.43,1.01-.98,1.02h-.02Z"/><path class="cls-2" d="M286.93,281.14s-.1,0-.15-.01c-.55-.08-.92-.59-.84-1.14.28-1.85.38-3.74.31-5.61-.02-.55.41-1.02.96-1.04.52-.03,1.02.41,1.04.96.08,2-.03,4.02-.33,6-.07.5-.5.85-.99.85Z"/><path class="cls-2" d="M291.6,279.07c-.52,0-.95-.4-1-.92l-.42-5.34c-.04-.55.37-1.03.92-1.08.56-.04,1.03.37,1.08.92l.42,5.34c.04.55-.37,1.03-.92,1.08-.03,0-.05,0-.08,0Z"/><path class="cls-2" d="M294.83,277.21s-.02,0-.03,0c-.55-.02-.99-.48-.97-1.03l.16-4.94c.02-.55.48-1.03,1.03-.97.55.02.99.48.97,1.03l-.16,4.94c-.02.54-.46.97-1,.97Z"/><path class="cls-2" d="M267.31,276.47c-12.58,0-23.97-2.43-29.03-6.18-1.97-1.47-2.96-3.1-2.96-4.85,0-7.16,16.49-11.03,32-11.03s31.99,3.87,31.99,11.03c0,1.74-1,3.37-2.96,4.84-5.07,3.76-16.46,6.18-29.03,6.18ZM267.31,256.92c-17.38,0-29.5,4.49-29.5,8.53,0,1.14,1.06,2.17,1.96,2.84,4.58,3.4,15.65,5.69,27.54,5.69s22.95-2.29,27.53-5.69c.89-.67,1.95-1.7,1.95-2.84,0-4.03-12.11-8.53-29.49-8.53Z"/><path class="cls-2" d="M267.3,284.13c-12.37,0-23.68-2.36-28.81-6.01-1.48-1.06-2.45-2.2-2.89-3.4-.2-.53-.3-1.07-.3-1.61v-7.67c0-.69.56-1.25,1.25-1.25s1.25.56,1.25,1.25c0,1.14,1.07,2.17,1.97,2.84.79.59,1.78,1.15,2.95,1.67,1.64.74,3.6,1.4,5.85,1.96,5.38,1.35,11.86,2.07,18.74,2.07,6.34,0,12.39-.61,17.48-1.78,2.21-.49,4.2-1.08,5.93-1.76,1.67-.65,3.06-1.37,4.12-2.16.89-.67,1.96-1.7,1.96-2.84,0-.69.56-1.25,1.25-1.25s1.25.56,1.25,1.25v7.67c0,1.36-.61,2.66-1.81,3.85-2.79,2.8-8.2,4.46-12.25,5.37-2.63.6-5.55,1.06-8.67,1.36-.01,0-.03,0-.04,0-2.96.29-6.06.44-9.22.44ZM237.8,269.91v3.2c0,.24.05.48.14.74.26.71.95,1.49,2,2.24,4.73,3.37,15.48,5.55,27.36,5.55,3.09,0,6.12-.15,9.01-.44.02,0,.03,0,.05,0,3-.29,5.8-.73,8.33-1.31,5.27-1.17,9.19-2.84,11.03-4.7.72-.71,1.08-1.41,1.08-2.08v-3.2c-.15.12-.31.25-.47.37-1.25.92-2.83,1.75-4.71,2.48-1.84.72-3.96,1.35-6.29,1.87-5.27,1.2-11.5,1.84-18.03,1.84-7.08,0-13.77-.74-19.34-2.14-2.39-.59-4.49-1.3-6.26-2.1-1.33-.59-2.48-1.24-3.42-1.94-.16-.12-.32-.25-.47-.37Z"/><path class="cls-2" d="M239.55,304.7c-.08,0-.16,0-.24-.03-.54-.13-.86-.67-.73-1.21.46-1.9.48-3.9.04-5.81-.12-.54.21-1.08.75-1.2.54-.12,1.08.21,1.2.75.51,2.21.49,4.53-.05,6.73-.11.46-.52.76-.97.76Z"/><path class="cls-2" d="M244.55,306.77c-.53,0-.98-.42-1-.96l-.23-6.14c-.02-.55.41-1.02.96-1.04.58-.06,1.02.41,1.04.96l.23,6.14c.02.55-.41,1.02-.96,1.04-.01,0-.03,0-.04,0Z"/><path class="cls-2" d="M250.23,308.11c-.54,0-.98-.42-1-.96l-.22-6.21c-.02-.55.41-1.02.96-1.03.54-.06,1.02.41,1.03.96l.22,6.21c.02.55-.41,1.02-.96,1.03-.01,0-.02,0-.04,0Z"/><path class="cls-2" d="M256.29,308.64h0c-.55,0-1-.45-.99-1.01l.03-5.47c0-.55.45-.99,1-.99h0c.55,0,1,.45.99,1.01l-.03,5.47c0,.55-.45.99-1,.99Z"/><path class="cls-2" d="M262.28,309.11c-.52,0-.95-.4-1-.92l-.45-5.54c-.04-.55.37-1.03.92-1.08.55-.03,1.03.37,1.08.92l.45,5.54c.04.55-.37,1.03-.92,1.08-.03,0-.05,0-.08,0Z"/><path class="cls-2" d="M268.42,309.51h-.01c-.55,0-.99-.46-.99-1.01l.07-5.94c0-.55.45-.99,1-.99h.01c.55,0,.99.46.99,1.01l-.07,5.94c0,.55-.45.99-1,.99Z"/><path class="cls-2" d="M275.22,310.04c-.49,0-.91-.36-.99-.85-.34-2.26-.47-4.57-.39-6.85.02-.55.5-.98,1.03-.96.55.02.98.48.96,1.03-.07,2.16.05,4.35.37,6.49.08.55-.3,1.05-.84,1.14-.05,0-.1.01-.15.01Z"/><path class="cls-2" d="M279.96,308.71c-.54,0-.99-.44-1-.98l-.11-5.74c0-.55.43-1.01.98-1.02h.02c.54,0,.99.44,1,.98l.11,5.74c0,.55-.43,1.01-.98,1.02h-.02Z"/><path class="cls-2" d="M285.71,307.7s-.1,0-.15-.01c-.55-.08-.92-.59-.84-1.14.28-1.85.38-3.74.31-5.61-.02-.55.41-1.02.96-1.04.55-.04,1.02.41,1.04.96.08,2-.03,4.02-.33,6-.08.5-.5.85-.99.85Z"/><path class="cls-2" d="M290.38,305.63c-.52,0-.95-.4-1-.92l-.42-5.34c-.04-.55.37-1.03.92-1.08.54-.04,1.03.37,1.08.92l.42,5.34c.04.55-.37,1.03-.92,1.08-.03,0-.05,0-.08,0Z"/><path class="cls-2" d="M293.61,303.77s-.02,0-.03,0c-.55-.02-.99-.48-.97-1.03l.16-4.94c.02-.54.46-.97,1-.97.01,0,.02,0,.03,0,.55.02.99.48.97,1.03l-.16,4.94c-.02.54-.46.97-1,.97Z"/><path class="cls-2" d="M266.08,303.03c-12.58,0-23.98-2.43-29.03-6.18-1.97-1.47-2.97-3.1-2.97-4.85,0-1.61.86-3.13,2.54-4.5.46-.38,1.12-.38,1.58,0,4.36,3.56,15.56,5.94,27.87,5.94,3.08,0,6.12-.15,9.01-.44.02,0,.03,0,.05,0,8.62-.85,15.66-2.91,18.82-5.5.46-.38,1.12-.38,1.58,0,1.68,1.38,2.53,2.9,2.53,4.5,0,1.75-1,3.38-2.97,4.84-5.05,3.76-16.44,6.18-29.03,6.18ZM237.5,290.08c-.61.65-.92,1.3-.92,1.92,0,1.14,1.07,2.17,1.97,2.84,4.57,3.4,15.64,5.69,27.53,5.69s22.96-2.29,27.53-5.69c.9-.67,1.96-1.7,1.96-2.84,0-.62-.31-1.26-.91-1.91-3.84,2.61-10.77,4.56-19.32,5.4-.02,0-.03,0-.05,0-2.97.29-6.07.44-9.22.44-12.31,0-23.31-2.28-28.58-5.86Z"/><path class="cls-2" d="M266.08,310.7c-11.35,0-21.89-1.99-27.5-5.19-2.99-1.7-4.5-3.66-4.5-5.83v-7.68c0-.69.56-1.25,1.25-1.25s1.25.56,1.25,1.25c0,1.14,1.07,2.17,1.97,2.84,1.51,1.12,3.82,2.17,6.66,3.03,5.62,1.71,13.03,2.66,20.87,2.66,9.76,0,18.94-1.5,24.55-4,1.19-.53,2.19-1.1,2.98-1.69.9-.67,1.96-1.7,1.96-2.84,0-.69.56-1.25,1.25-1.25s1.25.56,1.25,1.25v7.68c0,.15-.01.3-.03.43-.67,6.87-16.97,10.59-31.97,10.59ZM236.58,296.47v3.2c0,1.17,1.15,2.47,3.24,3.66,5.26,3,15.32,4.86,26.26,4.86,16.9,0,29.1-4.39,29.49-8.33,0-.06.01-.12.01-.19v-3.2c-.15.12-.31.25-.47.37-.94.7-2.1,1.36-3.46,1.96-5.92,2.64-15.48,4.22-25.57,4.22-8.08,0-15.75-.98-21.59-2.76-3.16-.96-5.66-2.11-7.43-3.42-.16-.12-.32-.25-.47-.37Z"/><path class="cls-4" d="M50.43,48.09c-.43.6-.54,1.21-.33,1.93.13.44.34.77.63,1.01.35.27.85.51,1.53.7.53.14,1.91.42,5.5.87,4.12.52,7.04,1.39,8.92,2.63,1.92,1.27,3.25,3.14,3.94,5.55.96,3.33.38,6.4-1.74,9.11-1.14,1.46-2.68,2.74-4.61,3.8l1.67,5.8-7.82,2.26-1.53-5.31c-3.26.7-6.37.85-9.27.46l-.71-.09-2.54-8.81,1.75.19c2.72.27,5.01.38,6.79.29,1.75-.09,3.34-.33,4.64-.7,1.45-.42,2.53-.99,3.12-1.67.51-.59.64-1.25.39-2.1-.13-.45-.37-.79-.74-1.06-.44-.31-1.07-.58-1.86-.79-.87-.23-2.65-.52-5.31-.85-2.67-.33-4.69-.78-6.19-1.39-1.52-.6-2.85-1.46-3.96-2.53-1.14-1.1-1.97-2.54-2.47-4.27-.94-3.26-.44-6.24,1.49-8.85,1.1-1.48,2.6-2.75,4.48-3.78l-1.69-5.87,7.82-2.26,1.6,5.54c.99-.16,1.96-.28,2.93-.33,1.93-.1,4.01-.04,6.18.16l1.14.11-1.26,8.37-1.14-.09c-2.12-.17-3.87-.2-5.19-.13-1.29.09-2.52.29-3.67.62-1.21.35-2.04.84-2.49,1.48Z"/><path class="cls-2" d="M95.57,71.94c-.43,0-.83-.29-.96-.72l-1.28-4.43c-3.04.56-5.96.66-8.7.29l-.7-.09c-.39-.05-.72-.33-.83-.71l-2.54-8.81c-.09-.32-.02-.66.19-.92.21-.25.53-.39.87-.35l1.75.19c2.73.27,4.97.37,6.64.29,1.67-.08,3.19-.31,4.41-.67,1.25-.36,2.19-.85,2.65-1.37.24-.27.35-.56.18-1.16-.07-.23-.18-.39-.37-.53-.23-.16-.7-.41-1.53-.64-.57-.15-1.93-.42-5.17-.82-2.77-.34-4.88-.82-6.45-1.45-1.62-.64-3.06-1.57-4.28-2.74-1.26-1.21-2.18-2.8-2.74-4.71-1.03-3.58-.48-6.85,1.65-9.72,1.05-1.42,2.43-2.64,4.11-3.66l-1.48-5.11c-.15-.53.15-1.09.68-1.24l7.82-2.26c.53-.15,1.08.15,1.24.68l1.36,4.7c.75-.1,1.47-.17,2.16-.21,1.94-.1,4.07-.04,6.32.16l1.14.11c.27.03.52.16.69.38.17.22.24.49.2.76l-1.26,8.37c-.08.52-.54.89-1.06.85l-1.14-.09c-1.99-.16-3.73-.2-5.06-.13-1.23.08-2.39.28-3.45.58-.97.28-1.64.66-1.95,1.09,0,0,0,0,0,.01-.25.35-.3.64-.18,1.06.07.23.17.4.32.53.15.11.49.32,1.15.5.41.11,1.67.38,5.35.84,4.27.54,7.32,1.45,9.34,2.79,2.13,1.4,3.59,3.46,4.35,6.11,1.06,3.66.41,7.03-1.92,10-1.09,1.39-2.51,2.62-4.22,3.66l1.46,5.05c.15.53-.15,1.08-.68,1.24l-7.82,2.26c-.09.03-.19.04-.28.04ZM94.03,64.63c.44,0,.83.29.96.72l1.26,4.35,5.9-1.7-1.4-4.84c-.13-.45.07-.93.48-1.15,1.79-.98,3.24-2.18,4.31-3.54,1.91-2.44,2.44-5.2,1.57-8.22-.63-2.18-1.82-3.86-3.53-4.99-1.74-1.15-4.59-1.98-8.49-2.47-2.9-.37-4.8-.67-5.64-.9-.79-.22-1.42-.52-1.88-.88-.48-.41-.8-.91-.97-1.52-.29-1.01-.13-1.95.48-2.79.59-.83,1.58-1.44,3.02-1.85,1.19-.34,2.5-.56,3.88-.66,1.44-.08,3.23-.04,5.33.13l.21.02.97-6.41h-.09c-2.15-.2-4.18-.26-6.03-.17-.88.04-1.8.15-2.81.32-.5.09-.98-.22-1.12-.71l-1.32-4.58-5.9,1.7,1.42,4.91c.13.45-.07.93-.48,1.16-1.74.95-3.14,2.12-4.16,3.49-1.73,2.34-2.18,5.03-1.33,7.98.45,1.57,1.19,2.86,2.2,3.83,1.03,1,2.25,1.78,3.64,2.33,1.41.57,3.35,1,5.95,1.32,2.69.34,4.53.63,5.45.88.9.24,1.63.56,2.17.94.56.41.94.94,1.13,1.6.34,1.17.14,2.19-.6,3.03-.73.83-1.94,1.5-3.6,1.97-1.36.39-3.05.65-4.87.74-1.76.08-4.1-.02-6.94-.3l-.28-.03,1.95,6.75h.06c2.78.39,5.79.24,8.93-.43.07-.01.14-.02.21-.02ZM87.88,37.28h0,0Z"/><path class="cls-4" d="M123.52,26.99c-.43.6-.54,1.21-.33,1.93.13.44.34.77.63,1.01.35.27.85.51,1.53.7.53.14,1.91.42,5.5.87,4.12.52,7.04,1.39,8.92,2.63,1.92,1.27,3.25,3.14,3.94,5.55.96,3.33.38,6.4-1.74,9.11-1.14,1.46-2.68,2.74-4.61,3.8l1.67,5.8-7.82,2.26-1.53-5.31c-3.26.7-6.37.85-9.27.46l-.71-.09-2.54-8.81,1.75.19c2.72.27,5.01.38,6.79.29,1.75-.09,3.34-.33,4.64-.7,1.45-.42,2.53-.99,3.12-1.67.51-.59.64-1.25.39-2.1-.13-.45-.37-.79-.74-1.06-.44-.31-1.07-.58-1.86-.79-.87-.23-2.65-.52-5.31-.85-2.67-.33-4.69-.78-6.19-1.39-1.52-.6-2.85-1.46-3.96-2.53-1.14-1.1-1.97-2.54-2.47-4.27-.94-3.26-.44-6.24,1.49-8.85,1.1-1.48,2.6-2.75,4.48-3.78l-1.69-5.87,7.82-2.26,1.6,5.54c.99-.16,1.96-.28,2.93-.33,1.93-.1,4.01-.04,6.18.16l1.14.11-1.26,8.37-1.14-.09c-2.12-.17-3.87-.2-5.19-.13-1.29.09-2.52.29-3.67.62-1.21.35-2.04.84-2.49,1.48Z"/><path class="cls-2" d="M29.52,50.38c-.5,0-.94-.38-.99-.89-.68-6.29,2.14-12.83,7.19-16.66.44-.33,1.07-.25,1.4.19.33.44.25,1.07-.19,1.4-4.5,3.41-7.01,9.24-6.41,14.85.06.55-.34,1.04-.89,1.1-.04,0-.07,0-.11,0Z"/><path class="cls-2" d="M148.7,58.58c-.24,0-.48-.09-.67-.26-.41-.37-.43-1.01-.06-1.41,2.65-2.9,4.15-6.81,4.11-10.73,0-.55.44-1,.99-1.01h0c.55,0,1,.44,1,.99.04,4.42-1.65,8.83-4.64,12.1-.2.22-.47.32-.74.32Z"/><path class="cls-2" d="M78.32,43.33c-.13,0-.26-.03-.39-.08-.51-.22-.75-.8-.53-1.31l8.13-19.14c.22-.51.8-.75,1.31-.53.51.22.75.8.53,1.31l-8.13,19.14c-.16.38-.53.61-.92.61Z"/><path class="cls-2" d="M80.39,47.22c-.15,0-.31-.04-.45-.11-.49-.25-.69-.85-.44-1.35l10.24-20.06c.25-.49.85-.69,1.35-.44.49.25.69.85.44,1.35l-10.24,20.06c-.18.35-.53.54-.89.54Z"/><path class="cls-2" d="M91.53,35.35c-.14,0-.29-.03-.43-.1-.5-.24-.71-.84-.47-1.33l3.36-7.02c.24-.5.84-.71,1.33-.47.5.24.71.84.47,1.33l-3.36,7.02c-.17.36-.53.57-.9.57Z"/><path class="cls-2" d="M96.61,35.02c-.16,0-.33-.04-.48-.12-.48-.27-.66-.87-.39-1.36l3.09-5.61c.27-.48.87-.66,1.36-.39.48.27.66.87.39,1.36l-3.09,5.6c-.18.33-.52.52-.88.52Z"/><path class="cls-2" d="M85.74,49.64c-.13,0-.27-.03-.39-.08-.51-.22-.74-.81-.52-1.31l3.31-7.7c.22-.51.81-.74,1.31-.52.51.22.74.81.52,1.31l-3.31,7.7c-.16.38-.53.61-.92.61Z"/><path class="cls-2" d="M92.04,50.78c-.14,0-.28-.03-.41-.09-.5-.23-.73-.82-.5-1.32l3.4-7.52c.23-.5.82-.73,1.32-.5.5.23.73.82.5,1.32l-3.4,7.52c-.17.37-.53.59-.91.59Z"/><path class="cls-2" d="M97.89,52.42c-.14,0-.28-.03-.41-.09-.5-.23-.73-.82-.5-1.32l3.51-7.84c.23-.5.82-.73,1.32-.5.5.23.73.82.5,1.32l-3.51,7.84c-.17.37-.53.59-.91.59Z"/><path class="cls-2" d="M94.37,66.55c-.17,0-.34-.04-.49-.13-.48-.27-.65-.88-.37-1.36l11.05-19.35c.27-.48.89-.65,1.36-.37.48.27.65.88.37,1.36l-11.05,19.35c-.18.32-.52.5-.87.5Z"/><path class="cls-2" d="M95.53,71.09c-.18,0-.37-.05-.54-.16-.47-.3-.6-.92-.3-1.38l12.66-19.74c.3-.46.92-.6,1.38-.3.47.3.6.92.3,1.38l-12.66,19.74c-.19.3-.51.46-.84.46Z"/><path class="cls-2" d="M87.51,66.69c-.13,0-.26-.03-.39-.08-.51-.21-.75-.8-.53-1.31l3.4-8.04c.21-.51.8-.75,1.31-.53.51.21.75.8.53,1.31l-3.4,8.04c-.16.38-.53.61-.92.61Z"/><path class="cls-2" d="M83.78,64.48c-.13,0-.27-.03-.4-.08-.51-.22-.74-.81-.52-1.31l2.09-4.84c.22-.51.81-.74,1.31-.52.51.22.74.81.52,1.31l-2.09,4.84c-.16.38-.53.6-.92.6Z"/><path class="cls-2" d="M90.05,108.08c-.25,0-.49-.07-.7-.22l-18.92-12.84c-4.28-2.9-9.59-3.75-14.56-2.31-5.1,1.47-10.46.87-15.11-1.7-4.64-2.56-8.01-6.78-9.48-11.88l-8.06-27.92c-1.47-5.1-.87-10.46,1.7-15.11,2.56-4.64,6.78-8.01,11.88-9.48L126.32.79c5.1-1.47,10.46-.87,15.11,1.7,4.64,2.56,8.01,6.78,9.48,11.88l8.06,27.92c1.47,5.1.87,10.46-1.7,15.11-2.56,4.64-6.78,8.01-11.88,9.48l-43.44,12.54c-8.75,2.53-14.09,11.48-12.15,20.38l1.48,6.78c.11.5-.1,1.01-.52,1.3-.21.14-.46.21-.7.21ZM60.69,89.52c3.93,0,7.8,1.17,11.14,3.43l16.34,11.08-.81-3.72c-2.22-10.18,3.89-20.42,13.9-23.31l43.44-12.54c4.46-1.29,8.14-4.23,10.39-8.29,2.24-4.06,2.77-8.75,1.48-13.21l-8.06-27.92c-2.65-9.2-12.3-14.52-21.49-11.87L37.48,29.02c-4.46,1.29-8.14,4.23-10.39,8.29-2.24,4.06-2.77,8.75-1.48,13.21l8.06,27.92c1.29,4.46,4.23,8.14,8.29,10.39,4.06,2.24,8.75,2.77,13.21,1.48,1.82-.52,3.68-.78,5.52-.78Z"/><path class="cls-2" d="M347.52,110.93c-.69,0-1.25-.56-1.25-1.25v-12.56c0-.69.56-1.25,1.25-1.25s1.25.56,1.25,1.25v12.56c0,.69-.56,1.25-1.25,1.25Z"/><path class="cls-2" d="M353.81,104.65h-12.56c-.69,0-1.25-.56-1.25-1.25s.56-1.25,1.25-1.25h12.56c.69,0,1.25.56,1.25,1.25s-.56,1.25-1.25,1.25Z"/><path class="cls-2" d="M189.02,61.94c-.69,0-1.25-.56-1.25-1.25v-12.56c0-.69.56-1.25,1.25-1.25s1.25.56,1.25,1.25v12.56c0,.69-.56,1.25-1.25,1.25Z"/><path class="cls-2" d="M195.3,55.65h-12.56c-.69,0-1.25-.56-1.25-1.25s.56-1.25,1.25-1.25h12.56c.69,0,1.25.56,1.25,1.25s-.56,1.25-1.25,1.25Z"/><path class="cls-2" d="M187.29,28.48c-3.48,0-5.3-2.74-5.3-5.44s1.82-5.45,5.3-5.45,5.3,2.74,5.3,5.44-1.82,5.45-5.3,5.45ZM187.29,20.09c-2.21,0-2.8,1.85-2.8,2.95s.59,2.94,2.8,2.94,2.8-1.85,2.8-2.95-.59-2.94-2.8-2.94Z"/><path class="cls-2" d="M209.83,46.82c-5.25,0-8-4.14-8-8.23,0-2.13.71-4.13,1.99-5.62,1.47-1.72,3.55-2.62,6.01-2.62,5.25,0,8,4.14,8,8.23s-2.75,8.24-8,8.24ZM209.83,32.84c-3.78,0-5.5,2.98-5.5,5.74s1.7,5.73,5.5,5.73,5.5-2.98,5.5-5.74-1.7-5.73-5.5-5.73Z"/><path class="cls-2" d="M5.26,164.01c-1.24,0-2.52-.47-3.64-1.58-1.39-1.38-1.92-3.2-1.45-4.99.51-1.95,2.16-3.61,4.1-4.14,1.79-.49,3.62.02,5.01,1.4h0c2.47,2.45,1.84,5.67-.06,7.59-1.04,1.05-2.47,1.72-3.95,1.72ZM5.61,155.62c-.25,0-.48.04-.68.09-1.09.3-2.06,1.27-2.34,2.36-.17.65-.17,1.63.79,2.58,1.57,1.55,3.29.66,4.06-.12.77-.78,1.65-2.5.08-4.06h0c-.66-.66-1.34-.86-1.9-.86Z"/><path class="cls-2" d="M9.94,134.36c-1.87,0-3.8-.71-5.5-2.39-3.73-3.7-2.77-8.58.11-11.48,2.88-2.91,7.75-3.92,11.49-.22h0c3.73,3.7,2.77,8.57-.11,11.48-1.57,1.59-3.74,2.61-5.99,2.61ZM10.53,120.39c-1.59,0-3.11.77-4.19,1.86-2.01,2.03-2.83,5.27-.13,7.95,2.69,2.66,6,1.76,7.95-.21,2.01-2.03,2.83-5.27.13-7.95h0c-1.19-1.18-2.5-1.66-3.76-1.66Z"/><path class="cls-2" d="M37.98,136.98c-1.87,0-3.8-.71-5.5-2.39-3.73-3.7-2.77-8.57.11-11.48,2.88-2.91,7.75-3.92,11.49-.22h0c3.73,3.7,2.77,8.57-.11,11.48-1.57,1.59-3.74,2.61-5.99,2.61ZM38.56,123.01c-1.59,0-3.11.77-4.19,1.86-2.01,2.03-2.83,5.27-.13,7.95,2.68,2.66,6,1.76,7.95-.21,2.01-2.03,2.83-5.27.13-7.95h0c-1.19-1.17-2.5-1.66-3.76-1.66Z"/><path class="cls-2" d="M352.58,205.54c-.69,0-1.25-.56-1.25-1.25v-12.56c0-.69.56-1.25,1.25-1.25s1.25.56,1.25,1.25v12.56c0,.69-.56,1.25-1.25,1.25Z"/><path class="cls-2" d="M358.86,199.26h-12.56c-.69,0-1.25-.56-1.25-1.25s.56-1.25,1.25-1.25h12.56c.69,0,1.25.56,1.25,1.25s-.56,1.25-1.25,1.25Z"/><path class="cls-2" d="M350.85,172.08c-3.48,0-5.3-2.74-5.3-5.44s1.82-5.45,5.3-5.45,5.3,2.74,5.3,5.44-1.82,5.45-5.3,5.45ZM350.85,163.69c-2.21,0-2.8,1.85-2.8,2.95s.59,2.94,2.8,2.94,2.8-1.85,2.8-2.95-.59-2.94-2.8-2.94Z"/><path class="cls-2" d="M373.39,190.42c-5.25,0-8-4.14-8-8.23,0-2.13.71-4.13,1.99-5.62,1.47-1.71,3.55-2.62,6.01-2.62s4.54.91,6.01,2.62c1.28,1.49,1.99,3.49,1.99,5.62,0,4.1-2.75,8.24-8,8.24ZM373.39,176.44c-1.71,0-3.13.61-4.11,1.75-.88,1.03-1.39,2.48-1.39,3.99,0,2.85,1.7,5.73,5.5,5.73,1.71,0,3.13-.61,4.11-1.75.88-1.03,1.39-2.48,1.39-3.99,0-2.85-1.7-5.73-5.5-5.73Z"/></g></svg>