<?xml version="1.0" encoding="UTF-8"?><svg xmlns="http://www.w3.org/2000/svg" viewBox="0 0 1337.8 2115.52"><defs><style>.cls-1{fill:none;}.cls-1,.cls-2,.cls-3,.cls-4,.cls-5,.cls-6,.cls-7,.cls-8,.cls-9,.cls-10,.cls-11{stroke-width:0px;}.cls-2{fill:#ffb073;}.cls-2,.cls-3,.cls-7{mix-blend-mode:multiply;}.cls-2,.cls-7{opacity:.3;}.cls-3{fill:#2a9c9e;opacity:.2;}.cls-4{fill:#e0e0e0;}.cls-5{fill:#f3f3f3;}.cls-6,.cls-7{fill:#e8e8e8;}.cls-12{opacity:.5;}.cls-8{fill:#f9f9f9;}.cls-13{isolation:isolate;}.cls-9{fill:#fff;}.cls-10{fill:#efefef;}.cls-11{fill:#f9be70;}</style></defs><g class="cls-13"><g id="Capa_2"><g id="Capa_1-2"><path class="cls-3" d="M1194.67,151.94H76.16c-36.91,0-65.42,31.15-63.66,69.58l73.04,1824.43c1.75,38.43,33.1,69.58,70.01,69.58h1118.51c36.91,0,65.42-31.15,63.66-69.58l-73.04-1824.43c-1.75-38.43-33.1-69.58-70.01-69.58Z"/><rect class="cls-11" y="142.61" width="1279.35" height="1931.31" rx="68.29" ry="68.29"/><path class="cls-2" d="M130.3,229.45c-7.28,162.55-8.97,1254.81,16.85,1364.21,29.9,126.72,95,250.45,200.71,323.53,76.47,52.87,169.02,75.84,260.11,80.67,145.07,7.68,295.73-17.53,438.59-37.53,55.06-7.71,110.15-16.08,164.68-26.8l-33.29-1704.08H130.3Z"/><path class="cls-9" d="M122.78,229.45c-10.93,157.77-33.52,1261.62-10.16,1367.81,27.06,123,90.73,218.97,194.8,289.9,75.28,51.32,167.31,73.62,258.3,78.3,144.9,7.46,549.94-65.03,604.71-75.45V229.45H122.78Z"/><path class="cls-7" d="M864.05,105.16h-144.19c-2.09,0-4.11-.39-6.04-1.06-6.31-2.19-11.47-7.64-13.72-14.23-1.05-3.07-1.48-6.38-1.09-9.73.69-5.8.61-11.9-.31-18.2-4.81-32.64-31.89-59.55-62.26-61.79-35.15-2.59-60.89,27.25-56.78,64.43.59,5.33,1.76,10.5,3.43,15.45,4.32,12.79-3.28,25.12-15.45,25.12h-144.02c-7.14,0-11.92,6.75-10.21,14.42l28.21,126.63c1.44,6.46,7.04,11.31,13.05,11.31h411.99c6.01,0,10.54-4.86,10.55-11.31l.23-126.63c.01-7.66-6.26-14.42-13.4-14.42Z"/><circle class="cls-1" cx="641.33" cy="59.69" r="24.44"/><path class="cls-8" d="M657.39,171.68l54.04-75.47c-6.06-2.03-10.62-7.06-12.15-13.15l-63.46,88.62h21.56Z"/><polygon class="cls-5" points="635.83 171.68 588.34 251.26 609.9 251.26 657.39 171.68 635.83 171.68"/><path class="cls-4" d="M416.74,171.68l6.79,69.12c.73,5.97,5.79,10.46,11.8,10.46h153l47.49-79.58h-219.09Z"/><path class="cls-6" d="M699.29,83.06c-.71-2.84-.78-5.9-.01-8.99,1.33-5.36,1.93-11,1.7-16.82-1.2-30.16-25.32-55.04-55.43-57.11-34.87-2.39-63.9,25.19-63.9,59.54,0,4.92.6,9.71,1.72,14.28,2.91,11.82-6.06,23.22-18.23,23.22h-144.02c-7.14,0-12.67,6.24-11.8,13.33l7.43,61.16h219.09l63.46-88.62ZM641.33,35.24c13.5,0,24.44,10.94,24.44,24.44s-10.94,24.44-24.44,24.44-24.44-10.94-24.44-24.44,10.94-24.44,24.44-24.44Z"/><polygon class="cls-4" points="657.39 171.68 609.9 251.26 625.69 251.26 673.18 171.68 657.39 171.68"/><path class="cls-6" d="M673.18,171.68l53.34-74.49h-9.17c-2.09,0-4.07-.36-5.92-.98l-54.04,75.47h15.79Z"/><path class="cls-4" d="M741.56,171.68l-47.49,79.58h153.26c6.01,0,11.08-4.49,11.8-10.46l6.79-69.12h-124.36Z"/><path class="cls-6" d="M865.92,171.68l7.43-61.16c.86-7.08-4.67-13.33-11.8-13.33h-66.65l-53.34,74.49h124.36Z"/><polygon class="cls-5" points="673.18 171.68 625.69 251.26 635.43 251.26 682.93 171.68 673.18 171.68"/><polygon class="cls-8" points="682.93 171.68 736.27 97.19 726.52 97.19 673.18 171.68 682.93 171.68"/><polygon class="cls-8" points="741.56 171.68 794.9 97.19 785.15 97.19 731.81 171.68 741.56 171.68"/><polygon class="cls-5" points="731.81 171.68 684.32 251.26 694.06 251.26 741.56 171.68 731.81 171.68"/><polygon class="cls-6" points="731.81 171.68 785.15 97.19 736.27 97.19 682.93 171.68 731.81 171.68"/><polygon class="cls-4" points="682.93 171.68 635.43 251.26 684.32 251.26 731.81 171.68 682.93 171.68"/><g class="cls-12"><path class="cls-6" d="M642.14,36.02l12.74-17.79c-2.87-.87-5.87-1.44-8.96-1.7l-16.33,22.81c3.71-2.1,7.99-3.32,12.56-3.32Z"/><path class="cls-8" d="M654.88,18.23l-12.74,17.79s0,0,0,0c14.1,0,25.53,11.43,25.53,25.53s-11.43,25.53-25.53,25.53c-11.23,0-20.74-7.26-24.16-17.33l-11.72,16.37c8,11.17,21.09,18.46,35.88,18.46,24.36,0,44.12-19.75,44.12-44.12,0-19.94-13.23-36.78-31.38-42.24Z"/><path class="cls-8" d="M629.58,39.34l16.33-22.81c-1.25-.11-2.5-.17-3.78-.17-24.36,0-44.12,19.75-44.12,44.12,0,6.31,1.33,12.31,3.72,17.74l15.32-21.39c1.41-7.5,6.09-13.84,12.52-17.48Z"/><path class="cls-6" d="M616.61,61.56c0-1.62.17-3.2.46-4.73l-15.32,21.39c1.23,2.8,2.75,5.45,4.51,7.91l11.72-16.37c-.88-2.58-1.37-5.33-1.37-8.2Z"/></g><path class="cls-10" d="M291.52,1893.19c3.26,1.99,6.55,3.93,9.87,5.8.45.25.89.52,1.34.77,3.69,2.06,7.42,4.02,11.18,5.94,1.04.53,2.1,1.05,3.15,1.57,3.11,1.55,6.25,3.05,9.41,4.51.81.37,1.61.76,2.43,1.13,3.76,1.7,7.55,3.33,11.37,4.9,1.15.47,2.31.93,3.47,1.4,2.99,1.2,5.99,2.36,9.01,3.48,1.12.42,2.24.85,3.36,1.25,3.79,1.37,7.6,2.68,11.43,3.94,1.27.41,2.54.81,3.81,1.21,2.87.91,5.75,1.79,8.64,2.64,1.39.41,2.77.82,4.17,1.22,3.79,1.07,7.59,2.1,11.41,3.07,1.36.35,2.72.66,4.08,1,2.8.68,5.6,1.34,8.41,1.98,1.58.36,3.17.71,4.76,1.05,3.79.81,7.59,1.59,11.41,2.31-90.29-57.58-50.09-170.66-50.09-170.66-138.49,2.72-229.77-124.11-264.5-182.73,1.05,12.36,2.27,21.98,3.68,28.41,23,104.58,75.99,206.68,164.47,267,3.56,2.43,7.18,4.75,10.83,7.03.96.6,1.93,1.19,2.9,1.78Z"/></g></g></g></svg>