<?xml version="1.0" encoding="UTF-8"?><svg xmlns="http://www.w3.org/2000/svg" viewBox="0 0 585.71 705.63"><defs><style>.cls-1{fill:#e5953d;}.cls-1,.cls-2,.cls-3,.cls-4,.cls-5,.cls-6,.cls-7,.cls-8,.cls-9,.cls-10{stroke-width:0px;}.cls-2{fill:#bbadaa;}.cls-2,.cls-4{mix-blend-mode:multiply;}.cls-3{fill:none;}.cls-4{opacity:.2;}.cls-4,.cls-5{fill:#1d1d1b;}.cls-6{fill:#fffdf9;}.cls-7{fill:#526aab;}.cls-11{isolation:isolate;}.cls-8{fill:#fff;}.cls-9{fill:#f8d44c;}.cls-10{fill:#62aee0;}</style></defs><g class="cls-11"><g id="Capa_2"><g id="Capa_1-2"><path class="cls-2" d="M584.68,24.35c3.05-9.32-6.88-17.52-15.45-12.75-26.09,14.52-74.24,47.95-133.12,119.31l7.92,6.54L42.86,623.85l-24.43,36.34,6.32,5.22-17,22.64,1.28,1.05-8.52,10.31c-.78.95-.64,2.35.31,3.13l3.12,2.56c.95.78,2.34.66,3.12-.29l8.52-10.31,1.26,1.04,19.01-21.01,6.32,5.22,31.04-30.9L474.37,162.47l7.22,5.95c-45.45,55.1-67.2,85.35-77.59,101.65-2.19,3.42,2.37,7.12,5.23,4.25,34.94-34.9,83.64-96.58,83.64-96.58,58.89-71.39,82.52-125,91.81-153.39Z"/><polygon class="cls-3" points="465.82 143.09 466.08 143.32 475.64 151.18 466.09 143.3 465.82 143.09"/><path class="cls-9" d="M5.17,684.27c-.78.94-.63,2.33.3,3.11l3.1,2.55c.94.78,2.32.65,3.1-.29l8.46-10.24-6.5-5.37-8.46,10.24Z"/><polygon class="cls-1" points="83.32 612.01 81.06 610.13 70.02 601.02 67.75 599.16 55.24 615.85 29.24 650.5 12.36 672.98 13.63 674.03 20.14 679.4 21.39 680.43 40.26 659.57 69.33 627.47 83.32 612.01"/><polygon class="cls-4" points="20.14 679.4 13.63 674.03 9.95 678.48 16.43 683.88 20.14 679.4"/><polygon class="cls-4" points="40.26 659.57 29.24 650.5 25.18 655.91 35.74 664.56 40.26 659.57"/><line class="cls-5" x1="70.02" y1="601.02" x2="67.75" y2="599.16"/><path class="cls-10" d="M585.15,14.05c3.03-9.25-6.83-17.39-15.34-12.66-25.91,14.42-73.71,47.6-132.17,118.46l7.86,6.49,9.55,7.88,10.77,8.87.27.21,9.55,7.88,7.17,5.91c-45.12,54.7-66.71,84.74-77.03,100.92-2.17,3.39,2.35,7.07,5.19,4.22,34.69-34.65,83.04-95.89,83.04-95.89,58.47-70.88,81.92-124.11,91.15-152.29Z"/><polygon class="cls-8" points="362.66 268.71 466.08 143.32 465.82 143.09 455.05 134.22 351.63 259.61 362.66 268.71"/><polygon class="cls-7" points="70.02 601.02 81.06 610.13 362.66 268.71 351.63 259.61 70.02 601.02"/><polyline class="cls-6" points="40.26 659.57 46.53 664.75 77.35 634.08 475.64 151.18 466.08 143.32 362.66 268.71 81.06 610.13 83.32 612.01 69.33 627.47"/><polyline class="cls-6" points="55.24 615.85 67.75 599.16 70.02 601.02 351.63 259.61 455.05 134.22 445.51 126.34 47.22 609.24 22.97 645.32 29.24 650.5"/><polygon class="cls-4" points="475.64 151.18 466.08 143.32 465.82 143.09 455.05 134.22 445.51 126.34 431.39 143.45 461.62 168.17 475.64 151.18"/></g></g></g></svg>