<?xml version="1.0" encoding="UTF-8"?><svg id="Capa_2" xmlns="http://www.w3.org/2000/svg" viewBox="0 0 833.1 378.9"><defs><style>.cls-1{fill:#aeecef;stroke-width:0px;}.cls-2{fill:#1666be;font-family:CenturyGothicPro, 'Century Gothic Pro';font-size:60.47px;}</style></defs><g id="Capa_1-2"><path class="cls-1" d="M0,277.3L790.61,0s3.12,1.43,6.04,7.62c1.04,2.21,1.7,6.65,2.69,9.58,2.34,6.97,5.88,6.27,7.19,8,2.21,2.93-2.15,2.51.28,9.45,2.43,6.94,3.71,4.03,3.72,6.29,0,2.27-3.08,3.22-3.43,7.05-.32,3.56.11,4.64,1.68,7.2.88,1.44-1.92,1.26,3.72,12.53,1.38,2.77-5.82,2.63-3.61,7.5,1.64,3.6,4.2,5.43,8.24,7.63,4.79,2.61-7.88,6.85,8.82,10.74,11.86,2.76,5.36,9.03,5.36,9.03L42.54,378.9s-4.7-9.07-12.12-14.85c-1.57-1.22-4.83-5.13-4.75-6.32.23-3.2,2.59-1.22,2.65-6.38.09-7.44-5.18-4.44-7.97-7.34-1.46-1.52,1.94-3.6,1.94-3.6l-2.9-3.46s1-2.82.19-4.74c-.52-1.24-2.57-2.02-4.21-1.44-4.2,1.47-8.62-19.77-7.06-21.1s.1-4.52.1-4.52c0,0-.19-.54-1.9-2.06-1.77-1.57-4.04-3.32.13-5.89,5.13-3.16-1.44-3.55-1.46-5.14-.04-2.65,2.02-5.77,2.02-5.77,0,0-3.88,0-7.19-8.97Z"/><text class="cls-2" transform="translate(49.19 341.62) rotate(-19.33)"><tspan x="0" y="0">EDUCACIÓN FINANCIERA I</tspan></text></g></svg>