<?xml version="1.0" encoding="UTF-8"?><svg id="Capa_2" xmlns="http://www.w3.org/2000/svg" xmlns:xlink="http://www.w3.org/1999/xlink" viewBox="0 0 725.54 786.3"><defs><style>.cls-1{stroke-width:.5px;}.cls-1,.cls-2,.cls-3,.cls-4{fill:none;}.cls-1,.cls-3,.cls-5,.cls-4,.cls-6,.cls-7{stroke-miterlimit:10;}.cls-1,.cls-3,.cls-8{font-family:Ubuntu-Bold, Ubuntu;font-size:66.21px;font-weight:700;}.cls-1,.cls-6{stroke:#def4bc;}.cls-9{fill:#2c8320;}.cls-9,.cls-10,.cls-2,.cls-11,.cls-12,.cls-13,.cls-14,.cls-15,.cls-16,.cls-17,.cls-18,.cls-19{stroke-width:0px;}.cls-10,.cls-5{fill:#fbffed;}.cls-20{clip-path:url(#clippath);}.cls-3{stroke-width:2px;}.cls-3,.cls-5,.cls-7{stroke:#434337;}.cls-11{fill:#448338;}.cls-12{fill:#def4bc;}.cls-5{stroke-width:.91px;}.cls-4{stroke:#a7c579;}.cls-13,.cls-8{fill:#434337;}.cls-14{fill:#bddc8e;}.cls-6{fill:#b5da88;stroke-width:.75px;}.cls-15{fill:#73733f;}.cls-21{clip-path:url(#clippath-1);}.cls-16{fill:#648d42;}.cls-7{fill:#ecf7cd;stroke-width:1.08px;}.cls-17{fill:#d0eea0;}.cls-18{fill:#edd7ba;}.cls-19{fill:#e7e7e7;}</style><clipPath id="clippath"><rect class="cls-2" x="378.58" y="178.8" width="27.73" height="341.54" transform="translate(-124.28 445.51) rotate(-52.21)"/></clipPath><clipPath id="clippath-1"><path class="cls-2" d="M69.19,487.78l121.93,94.54,16.99-21.92-121.93-94.54-16.99,21.92ZM339.11,697.06l16.99-21.92-28.37-22-16.99,21.92,28.37,22Z"/></clipPath></defs><g id="Capa_1-2"><rect class="cls-19" x="2.99" y="221.8" width="728.69" height="341.54" transform="translate(-167.99 442.32) rotate(-52.21)"/><rect class="cls-12" x="-6.13" y="222.96" width="728.69" height="341.54" transform="translate(-172.44 435.56) rotate(-52.21)"/><rect class="cls-14" x="228.49" y="701.77" width="140.66" height="35.9" transform="translate(-453.06 514.87) rotate(-52.21)"/><path class="cls-18" d="M241.99,276.36c42.11,32.65,49.78,93.26,17.13,135.37-32.65,42.11-93.26,49.78-135.37,17.13-1.87-1.45-3.64-2.97-5.37-4.52l-21.71,28c1.76,1.52,3.57,3,5.43,4.44,57.54,44.61,140.34,34.13,184.95-23.4,44.61-57.54,34.13-140.34-23.4-184.95-1.86-1.44-3.75-2.82-5.66-4.15l-21.71,28c1.93,1.29,3.85,2.63,5.71,4.07Z"/><polygon class="cls-17" points="354.32 371.84 271.95 369.44 202.62 315.69 151.39 381.77 220.71 435.52 243.55 514.71 121.93 671.56 147.81 691.62 269.42 534.77 342.74 530.14 421.3 591.05 472.54 524.97 393.98 464.06 380.2 391.9 409.89 353.6 384.02 333.54 354.32 371.84"/><rect class="cls-18" x="193.68" y="470.41" width="147.55" height="26.93" transform="translate(-180.22 159.45) rotate(-25.14)"/><polygon class="cls-18" points="329.57 506.48 323.21 535.17 351.08 522.56 357.43 493.86 329.57 506.48"/><polygon class="cls-18" points="363.79 465.17 357.43 493.86 385.3 481.25 391.66 452.56 363.79 465.17"/><polygon class="cls-18" points="350.79 522.93 344.44 551.63 372.3 539.02 378.66 510.32 350.79 522.93"/><polygon class="cls-18" points="385.01 481.63 378.66 510.32 406.53 497.71 412.88 469.01 385.01 481.63"/><polygon class="cls-6" points="357.43 493.86 351.08 522.56 378.95 509.95 385.3 481.25 357.43 493.86"/><polygon class="cls-6" points="391.66 452.56 385.3 481.25 413.17 468.64 419.52 439.94 391.66 452.56"/><polygon class="cls-6" points="323.21 535.17 316.86 563.87 344.73 551.25 351.08 522.56 323.21 535.17"/><rect class="cls-14" x="358.92" y="138.7" width="129.23" height="341.54" transform="translate(-80.55 454.56) rotate(-52.21)"/><g class="cls-20"><line class="cls-4" x1="237.02" y1="289.53" x2="244.3" y2="174.24"/><line class="cls-4" x1="243.09" y1="294.23" x2="250.37" y2="178.95"/><line class="cls-4" x1="249.16" y1="298.94" x2="256.44" y2="183.66"/><line class="cls-4" x1="255.23" y1="303.65" x2="262.51" y2="188.36"/><line class="cls-4" x1="261.3" y1="308.36" x2="268.58" y2="193.07"/><line class="cls-4" x1="267.37" y1="313.06" x2="274.65" y2="197.78"/><line class="cls-4" x1="273.44" y1="317.77" x2="280.72" y2="202.49"/><line class="cls-4" x1="279.52" y1="322.48" x2="286.8" y2="207.19"/><line class="cls-4" x1="285.59" y1="327.19" x2="292.87" y2="211.9"/><line class="cls-4" x1="291.66" y1="331.9" x2="298.94" y2="216.61"/><line class="cls-4" x1="297.73" y1="336.6" x2="305.01" y2="221.32"/><line class="cls-4" x1="303.8" y1="341.31" x2="311.08" y2="226.02"/><line class="cls-4" x1="309.87" y1="346.02" x2="317.15" y2="230.73"/><line class="cls-4" x1="315.95" y1="350.73" x2="323.23" y2="235.44"/><line class="cls-4" x1="322.02" y1="355.43" x2="329.3" y2="240.15"/><line class="cls-4" x1="328.09" y1="360.14" x2="335.37" y2="244.85"/><line class="cls-4" x1="334.16" y1="364.85" x2="341.44" y2="249.56"/><line class="cls-4" x1="340.23" y1="369.56" x2="347.51" y2="254.27"/><line class="cls-4" x1="346.3" y1="374.26" x2="353.58" y2="258.98"/><line class="cls-4" x1="352.37" y1="378.97" x2="359.65" y2="263.68"/><line class="cls-4" x1="358.45" y1="383.68" x2="365.73" y2="268.39"/><line class="cls-4" x1="364.52" y1="388.39" x2="371.8" y2="273.1"/><line class="cls-4" x1="370.59" y1="393.09" x2="377.87" y2="277.81"/><line class="cls-4" x1="376.66" y1="397.8" x2="383.94" y2="282.51"/><line class="cls-4" x1="382.73" y1="402.51" x2="390.01" y2="287.22"/><line class="cls-4" x1="388.8" y1="407.22" x2="396.08" y2="291.93"/><line class="cls-4" x1="394.88" y1="411.92" x2="402.16" y2="296.64"/><line class="cls-4" x1="400.95" y1="416.63" x2="408.23" y2="301.34"/><line class="cls-4" x1="407.02" y1="421.34" x2="414.3" y2="306.05"/><line class="cls-4" x1="413.09" y1="426.05" x2="420.37" y2="310.76"/><line class="cls-4" x1="419.16" y1="430.75" x2="426.44" y2="315.47"/><line class="cls-4" x1="425.23" y1="435.46" x2="432.51" y2="320.17"/><line class="cls-4" x1="431.3" y1="440.17" x2="438.58" y2="324.88"/><line class="cls-4" x1="437.38" y1="444.88" x2="444.66" y2="329.59"/><line class="cls-4" x1="443.45" y1="449.58" x2="450.73" y2="334.3"/><line class="cls-4" x1="449.52" y1="454.29" x2="456.8" y2="339"/><line class="cls-4" x1="455.59" y1="459" x2="462.87" y2="343.71"/><line class="cls-4" x1="461.66" y1="463.71" x2="468.94" y2="348.42"/><line class="cls-4" x1="467.73" y1="468.41" x2="475.01" y2="353.13"/><line class="cls-4" x1="473.81" y1="473.12" x2="481.09" y2="357.84"/><line class="cls-4" x1="479.88" y1="477.83" x2="487.16" y2="362.54"/><line class="cls-4" x1="485.95" y1="482.54" x2="493.23" y2="367.25"/><line class="cls-4" x1="492.02" y1="487.24" x2="499.3" y2="371.96"/><line class="cls-4" x1="498.09" y1="491.95" x2="505.37" y2="376.67"/><line class="cls-4" x1="504.16" y1="496.66" x2="511.44" y2="381.37"/><line class="cls-4" x1="510.23" y1="501.37" x2="517.51" y2="386.08"/><line class="cls-4" x1="516.31" y1="506.07" x2="523.59" y2="390.79"/><line class="cls-4" x1="522.38" y1="510.78" x2="529.66" y2="395.5"/><line class="cls-4" x1="528.45" y1="515.49" x2="535.73" y2="400.2"/><line class="cls-4" x1="534.52" y1="520.2" x2="541.8" y2="404.91"/><line class="cls-4" x1="540.59" y1="524.9" x2="547.87" y2="409.62"/></g><rect class="cls-14" x="458.79" y="-4.87" width="60.37" height="154.29" transform="translate(132.24 414.41) rotate(-52.21)"/><rect class="cls-14" x="33.73" y="491.57" width="140.66" height="154.29" transform="translate(-409.15 302.47) rotate(-52.21)"/><g class="cls-21"><line class="cls-4" x1="65.51" y1="535.75" x2="72.79" y2="420.47"/><line class="cls-4" x1="71.58" y1="540.46" x2="78.86" y2="425.17"/><line class="cls-4" x1="77.65" y1="545.17" x2="84.93" y2="429.88"/><line class="cls-4" x1="83.72" y1="549.88" x2="91" y2="434.59"/><line class="cls-4" x1="89.79" y1="554.58" x2="97.07" y2="439.3"/><line class="cls-4" x1="95.87" y1="559.29" x2="103.15" y2="444"/><line class="cls-4" x1="101.94" y1="564" x2="109.22" y2="448.71"/><line class="cls-4" x1="108.01" y1="568.71" x2="115.29" y2="453.42"/><line class="cls-4" x1="114.08" y1="573.41" x2="121.36" y2="458.13"/><line class="cls-4" x1="120.15" y1="578.12" x2="127.43" y2="462.83"/><line class="cls-4" x1="126.22" y1="582.83" x2="133.5" y2="467.54"/><line class="cls-4" x1="132.29" y1="587.54" x2="139.57" y2="472.25"/><line class="cls-4" x1="138.37" y1="592.24" x2="145.65" y2="476.96"/><line class="cls-4" x1="144.44" y1="596.95" x2="151.72" y2="481.66"/><line class="cls-4" x1="150.51" y1="601.66" x2="157.79" y2="486.37"/><line class="cls-4" x1="156.58" y1="606.37" x2="163.86" y2="491.08"/><line class="cls-4" x1="162.65" y1="611.07" x2="169.93" y2="495.79"/><line class="cls-4" x1="168.72" y1="615.78" x2="176" y2="500.49"/><line class="cls-4" x1="174.8" y1="620.49" x2="182.08" y2="505.2"/><line class="cls-4" x1="180.87" y1="625.2" x2="188.15" y2="509.91"/><line class="cls-4" x1="186.94" y1="629.9" x2="194.22" y2="514.62"/><line class="cls-4" x1="193.01" y1="634.61" x2="200.29" y2="519.33"/><line class="cls-4" x1="199.08" y1="639.32" x2="206.36" y2="524.03"/><line class="cls-4" x1="205.15" y1="644.03" x2="212.43" y2="528.74"/><line class="cls-4" x1="211.22" y1="648.73" x2="218.5" y2="533.45"/><line class="cls-4" x1="217.3" y1="653.44" x2="224.58" y2="538.16"/><line class="cls-4" x1="223.37" y1="658.15" x2="230.65" y2="542.86"/><line class="cls-4" x1="229.44" y1="662.86" x2="236.72" y2="547.57"/><line class="cls-4" x1="235.51" y1="667.56" x2="242.79" y2="552.28"/><line class="cls-4" x1="241.58" y1="672.27" x2="248.86" y2="556.99"/><line class="cls-4" x1="247.65" y1="676.98" x2="254.93" y2="561.69"/><line class="cls-4" x1="253.72" y1="681.69" x2="261" y2="566.4"/><line class="cls-4" x1="259.8" y1="686.4" x2="267.08" y2="571.11"/><line class="cls-4" x1="265.87" y1="691.1" x2="273.15" y2="575.82"/><line class="cls-4" x1="271.94" y1="695.81" x2="279.22" y2="580.52"/><line class="cls-4" x1="278.01" y1="700.52" x2="285.29" y2="585.23"/><line class="cls-4" x1="284.08" y1="705.23" x2="291.36" y2="589.94"/><line class="cls-4" x1="290.15" y1="709.93" x2="297.43" y2="594.65"/><line class="cls-4" x1="296.23" y1="714.64" x2="303.51" y2="599.35"/><line class="cls-4" x1="302.3" y1="719.35" x2="309.58" y2="604.06"/><line class="cls-4" x1="308.37" y1="724.06" x2="315.65" y2="608.77"/><line class="cls-4" x1="314.44" y1="728.76" x2="321.72" y2="613.48"/><line class="cls-4" x1="320.51" y1="733.47" x2="327.79" y2="618.18"/><line class="cls-4" x1="326.58" y1="738.18" x2="333.86" y2="622.89"/><line class="cls-4" x1="332.65" y1="742.89" x2="339.93" y2="627.6"/><line class="cls-4" x1="338.73" y1="747.59" x2="346.01" y2="632.31"/><line class="cls-4" x1="344.8" y1="752.3" x2="352.08" y2="637.01"/><line class="cls-4" x1="350.87" y1="757.01" x2="358.15" y2="641.72"/><line class="cls-4" x1="356.94" y1="761.72" x2="364.22" y2="646.43"/><line class="cls-4" x1="363.01" y1="766.42" x2="370.29" y2="651.14"/><line class="cls-4" x1="369.08" y1="771.13" x2="376.36" y2="655.84"/></g><rect class="cls-14" x="653.55" y="205.34" width="60.37" height="35.9" transform="translate(88.32 626.81) rotate(-52.21)"/><rect class="cls-16" x="449.82" y="33.69" width="77.11" height="97.43" transform="translate(124 417.86) rotate(-52.21)"/><rect class="cls-16" x="62" y="571.96" width="18.05" height="97.43" transform="translate(-463 296.49) rotate(-52.21)"/><rect class="cls-16" x="545.68" y="133.57" width="6.74" height="47.56" transform="translate(88.27 494.84) rotate(-52.21)"/><rect class="cls-16" x="563.36" y="121.87" width="1.71" height="72.42" transform="translate(93.57 507.1) rotate(-52.21)"/><path class="cls-13" d="M641.98,238.36l.63-.82-8.93-6.92,6.92-8.93-.82-.63-7.56,9.75,9.75,7.56ZM645.25,214.01l.82.63,6.92-8.93,8.93,6.92.63-.82-9.75-7.56-7.56,9.75ZM677.9,225.02l-6.92,8.93.82.63,7.56-9.75-9.75-7.56-.63.82,8.93,6.92ZM649.66,243l-.63.82,9.75,7.56,7.56-9.75-.82-.63-6.92,8.93-8.93-6.92Z"/><rect class="cls-11" x="143.57" y="502.84" width="17.48" height="38.19" transform="translate(-353.49 322.49) rotate(-52.21)"/><rect class="cls-11" x="192.71" y="540.94" width="17.48" height="38.19" transform="translate(-364.57 376.07) rotate(-52.21)"/><rect class="cls-11" x="241.84" y="579.04" width="17.48" height="38.19" transform="translate(-375.65 429.66) rotate(-52.21)"/><rect class="cls-11" x="290.98" y="617.13" width="17.48" height="38.19" transform="translate(-386.73 483.24) rotate(-52.21)"/><path class="cls-15" d="M94.99,548.63c1.89,2.71,2.98,6.31,2.97,9.93,2.79-.48,5.81.69,7.52,2.95,1.64,2.18,1.96,5.04.89,7.5,1.65-.15,3.36.43,4.55,1.59,1.42,1.38,2.03,3.51,1.57,5.44-.22.9-.64,1.71-1.05,2.49-.37.71-.72,1.38-.93,2.1-.59,2.08.1,4.27.98,6.7l.06.18-.08.17c-.07.15-.18.31-.29.46-.08.11-.16.22-.21.32l-.52-.24h0l-.3-.14c.07-.15.18-.31.29-.46.04-.06.08-.12.12-.17-.9-2.51-1.57-4.78-.93-7.06.23-.81.62-1.55,1-2.27.4-.77.78-1.5.98-2.29.39-1.62-.13-3.42-1.32-4.58-1.19-1.16-3.01-1.63-4.62-1.2l-1.06.29.56-.95c1.36-2.31,1.2-5.19-.41-7.33-1.61-2.14-4.55-3.17-7.15-2.5l-.58.15.02-.6c.02-.47,0-.94-.01-1.41,0-.15-.02-.31-.04-.46-.02-.31-.05-.63-.09-.94-.02-.18-.05-.36-.08-.54-.04-.28-.09-.56-.15-.84-.04-.19-.08-.37-.13-.56-.06-.27-.14-.53-.21-.79-.05-.18-.11-.36-.17-.54-.09-.26-.18-.51-.28-.77-.07-.17-.13-.34-.2-.51-.11-.27-.24-.52-.36-.78-.07-.14-.13-.28-.21-.42-.2-.38-.42-.75-.65-1.11-.25-.39-.52-.75-.81-1.1h0c-1.12-1.07-2.49-1.83-4.01-2.04-2.68-.37-5.66,1.37-6.12,4.03,1.93,2.98,3.89,5.94,5.87,8.89-1.77,4.15-3.37,8.91-4.45,14.24l40.78,31.62s-3.07-16.84,12.57-35.49l-37.34-28.95s-2.71,2.81-6,7.98ZM134.86,569.87c-.12.13-11.75,13.59-11.84,29.7h-.9c.1-16.45,11.95-30.15,12.07-30.29l.68.59Z"/><path class="cls-15" d="M100.86,615.11c4.16-3.25,9.35-6.35,15.34-7.93l.23.87c-5.77,1.52-10.79,4.49-14.84,7.62l2.21,1.71c10.06-7.43,18.66-8.06,18.66-8.06l-40.78-31.62c-6.37,3.08-11.6,6.78-15.74,10.32l34.92,27.07Z"/><path class="cls-15" d="M234.27,394.44c-16.62,21.44-22.35,44.82-12.79,52.23l95.7,74.2,60.19-77.63-95.7-74.2c-9.55-7.41-30.77,3.96-47.39,25.4Z"/><path class="cls-17" d="M323.62,512.55l-95.7-74.2c-2.11-2.71.22-18.84,14.66-37.47,14.44-18.63,29.48-24.9,32.72-23.48l95.62,74.15-47.3,61Z"/><path class="cls-15" d="M325.46,510.18l-95.13-73.76c-.61-2.83,1.37-16.61,14.62-33.7,13.34-17.21,26.2-22.46,29.06-22.52l95.06,73.72-43.61,56.25Z"/><rect class="cls-17" x="276.23" y="393.75" width="55.54" height="109.5" transform="translate(-236.72 413.93) rotate(-52.21)"/><rect class="cls-15" x="298.87" y="391.68" width="8.22" height="112.07" transform="translate(-236.49 412.82) rotate(-52.21)"/><rect class="cls-15" x="322.82" y="347.24" width="70.23" height="92.49" transform="translate(-172.36 435.25) rotate(-52.21)"/><polygon class="cls-13" points="322.13 529.33 329.7 528.02 414.73 418.35 357.53 374 348.92 371.28 348.35 419.12 322.13 529.33"/><path class="cls-13" d="M322.13,529.33l-57.56-44.63s9.92-14.76,11.81-30.52c1.89-15.76,12.13-29.86,31.08-30.32,0,0-1.92-21.47,9.44-31.26,11.36-9.79,24.15-12.96,32.02-21.33l59.8,46.36-86.59,111.68Z"/><path class="cls-10" d="M321.56,524.88l-52.79-40.93c2.98-5.01,9.24-16.79,10.75-29.39.79-6.63,3.11-12.59,6.71-17.22,5.06-6.52,12.43-10.09,21.3-10.3l3.38-.08-.3-3.37c-.01-.16-1.36-16.6,5.97-26.05.73-.94,1.53-1.79,2.38-2.52,5.25-4.52,10.83-7.57,16.23-10.52,5.07-2.77,9.91-5.41,13.95-9.02l55.12,42.74c-15.96,20.59-56.95,15.04-49.22,45.26-34.43,4.21-19.73,43.68-33.49,61.41Z"/><path class="cls-13" d="M275.56,550.94c7.97-14,17.91-26.87,29.45-38.11.67-.66,1.41-1.33,2.33-1.5,1.16-.21,2.28.43,3.27,1.05,5.1,3.21,10.01,6.73,14.69,10.52,1.8,1.46,3.66,3.08,4.38,5.29.72,2.21-.21,5.12-2.46,5.71-1.29.34-2.66-.14-3.98-.02-2.92.26-4.74,3.18-6.22,5.71-4.13,7.12-9.09,13.76-14.75,19.74-.47.5-.97,1.03-1.08,1.71-.18,1.12.75,2.08,1.17,3.13,2.63,6.65-6.25,4.21-8.61,2.55-6.48-4.54-12.4-10.4-18.19-15.79Z"/><path class="cls-13" d="M215.88,466.85c17.19,22.38,36.81,42.9,58.39,61.08,5.23,4.4,13.9,9.55,17.04,15.66-4.17.14-8.68-4.15-11.68-6.69-5.91-5.01-11.75-10.1-17.47-15.32-11.27-10.3-22.08-21.17-31.56-33.15-5.41-6.83-10.38-14.02-14.72-21.58Z"/><path class="cls-13" d="M246.1,469.18c5.62,11.41,15.21,22.22,22.97,32.24,4.09,5.28,8.28,10.48,12.58,15.59,3.65,4.35,9.59,9.16,11.99,14.18-5.02,3.58-22.77-22.11-25.89-26.35-8.24-11.23-15.49-23.17-21.65-35.66Z"/><path class="cls-13" d="M273.02,538.89c-3.1-.66-5.87-2.37-8.47-4.17-7.08-4.91-13.49-10.79-19-17.41,1.8.25,3.6.5,5.41.75-6.94-1.43-11.93-7.33-16.35-12.86-3.41-4.27-6.82-8.54-10.23-12.8.97.25,1.95.49,2.92.74-10.38-9.19-16.54-22.97-16.47-36.83,7.17,6.77,14.33,13.54,21.5,20.31,2.1,1.98,4.39,4.49,3.88,7.33.61-.58,1.23-1.15,1.84-1.73,4.09,2.17,6.61,6.99,6.07,11.59.77-1.03,1.54-2.05,2.31-3.08,11.57,10.99,22.33,22.82,32.17,35.38,1.72,2.19,5.39,6.71,4.13,9.8-1.28,3.15-6.9,3.58-9.7,2.99Z"/><path class="cls-13" d="M272,520.47c-6.01-4.88-11.38-10.54-15.93-16.8,1.48.1,2.97.2,4.45.3-3.42-2.33-6.51-5.13-9.16-8.3,1.25.03,1.84-1.74,1.27-2.86-.57-1.12-1.75-1.75-2.76-2.5-4.49-3.35-5.73-9.44-6.65-14.97-1.25-7.58-2.51-15.16-3.76-22.74,5.23,7.28,11.07,14.11,17.45,20.4-.1,2.72-.19,5.45-.29,8.17.28-1.81,3.08-1.93,4.39-.67,1.32,1.27,1.73,3.18,2.69,4.74,1.53,2.5,4.31,3.91,6.4,5.96,2.09,2.05,3.41,5.64,1.43,7.8,1.36-.75,2.72-1.49,4.07-2.24.42,2.02,1.33,3.94,2.64,5.53-.65.74-.98,1.77-.87,2.75.85-1.18,2.67-1.28,3.96-.6,1.29.68,2.17,1.92,3.01,3.11,2.56,3.67,8.66,12.56,5.03,17.2-4.1,5.24-13.82-1.41-17.37-4.29Z"/><path class="cls-10" d="M312.1,535.6c-3.31,4.27-6.88,8.72-10.39,13.1-3.73,4.65-7.26,9.05-10.15,12.83l-1.19-.91c2.91-3.8,6.43-8.2,10.17-12.86,6.87-8.56,13.97-17.42,18.82-24.53l1.24.85c-2.39,3.51-5.32,7.43-8.5,11.53Z"/><path class="cls-10" d="M305.53,524.32c-2.84,3.66-5.82,7.4-8.75,11.06-5.05,6.32-10.27,12.85-14.61,18.85l-1.22-.88c4.36-6.03,9.59-12.57,14.66-18.9,5.05-6.31,10.26-12.83,14.6-18.82l1.22.88c-1.83,2.53-3.82,5.16-5.89,7.83Z"/><rect class="cls-13" x="321" y="563.76" width="42.25" height="2.5" transform="translate(-314.02 489.18) rotate(-52.21)"/><rect class="cls-13" x="318.32" y="564.68" width="31.17" height="1.92" transform="translate(-317.71 482.93) rotate(-52.21)"/><rect class="cls-13" x="366.79" y="504.71" width="42.25" height="2.5" transform="translate(-249.63 502.5) rotate(-52.21)"/><rect class="cls-13" x="364.11" y="505.64" width="31.17" height="1.92" transform="translate(-253.32 496.25) rotate(-52.21)"/><path class="cls-13" d="M351.06,393.8c-8.92-10.96-4.87-14.33-22.71-30.87-17.84-16.54-30.21-26.13-38.57-46.67-8.36-20.53-21.31-63.16,16.28-95.99,37.59-32.83,79.39-38.12,112.07-10.22,32.68,27.89,53.96,42.47,69.42,48.08,15.46,5.6,29.9,5.93,35.98,17.04,6.08,11.11,11.09,45.02,16.47,56.22,5.38,11.2,15.15,31.55-2.62,56.11-17.76,24.56-50.03,65.35-83,49.37-32.97-15.98-39.09-18.81-47.37-18.84-8.28-.03-37.64-1.71-55.97-24.23Z"/><path class="cls-5" d="M516.51,398.77s16.52-28.72,12.04-64.14c0,0-36.36-4.2-50.26-16.75-13.9-12.56-53.47-52.17-69.74-64.15-16.27-11.98-44.77-29.6-44.77-29.6,0,0-11.79,49-34.7,72.77-22.9,23.77-34.21,11.17-34.21,11.17l147.4,85.22,33.56,35.92s23.84-5.37,40.69-30.43Z"/><path class="cls-13" d="M467.06,384.27c-18.53,14.59-25.84,31.21-28.31,45.05,4.43,2.11,9.58,4.6,15.64,7.54,32.97,15.98,65.24-24.81,83-49.37,2.29-3.16,4.11-6.25,5.55-9.26-16.03-8.74-44.65-18.56-75.88,6.03Z"/><path class="cls-7" d="M294.86,308.06s25.53,14.04,47.75-17.92c22.23-31.96,24.27-58.49,24.27-58.49,0,0,60.78,45.21,78.18,68.92,17.4,23.71,40.91,50.24,12.83,81.51-28.07,31.26-75.01,4.45-97.7-9.95-22.7-14.4-65.24-37.81-65.33-64.07Z"/><path class="cls-10" d="M454.39,436.86c32.97,15.98,65.24-24.81,83-49.37.25-.34.47-.69.71-1.03-15.89-6.44-38.41-9.63-61.99,8.42-16.65,12.75-23.27,27.54-25.47,40.16,1.21.59,2.45,1.19,3.75,1.82Z"/><path class="cls-5" d="M530.08,397.32c-13.55-3.93-31.07-4.01-49.45,10.21-12.75,9.86-19.02,20.99-21.9,31.08,27.33,9.25,53.75-18.46,71.35-41.29Z"/><path class="cls-13" d="M86.06,509.58c.53-1.1,1.54-2.7,2.71-4.21,1.67-2.16,3.12-3.26,4.77-3.64,1.32-.37,2.71-.12,4.03.9,1.61,1.25,2.2,3.41,1.48,5.67l.05.04c1.63-1.28,4.38-2.12,6.86-.2,1.44,1.11,2.09,2.53,2.25,4.01.16,1.99-.8,4.26-2.92,6.99-1.15,1.49-2.14,2.55-2.79,3.19l-16.43-12.74ZM94.57,512.72l1.52-1.96c1.77-2.28,1.62-4.54,0-5.79-1.96-1.52-3.88-.63-5.57,1.55-.77.99-1.14,1.62-1.33,2.02l5.38,4.17ZM102.58,518.93c.4-.36.91-.96,1.5-1.73,1.73-2.23,2.51-4.92.08-6.8-2.28-1.77-4.74-.54-6.57,1.81l-1.38,1.78,6.37,4.94Z"/><path class="cls-13" d="M118.05,502.35l-1.65-1-.06.07c.42,1.4.27,3.34-1.06,5.05-1.88,2.43-4.55,2.34-6.29,1-2.9-2.25-2.49-6.06,1.13-10.67l-.25-.19c-.99-.77-2.99-1.88-4.89.57-.86,1.12-1.42,2.55-1.53,3.81l-1.82-.62c.12-1.49.82-3.26,1.99-4.77,2.84-3.67,6.04-2.62,8.44-.76l4.49,3.48c1.04.81,2.1,1.55,3.03,2.03l-1.54,1.98ZM111.68,497.93c-1.89,2.34-3.57,5.37-1.24,7.18,1.41,1.1,2.81.67,3.68-.44,1.21-1.56.99-3.32.24-4.46-.17-.25-.37-.49-.6-.66l-2.08-1.61Z"/><path class="cls-13" d="M113.41,490.26c-1.24-.96-2.27-1.72-3.32-2.42l1.5-1.93,2.08,1.41.04-.05c-.68-1.48-.72-3.73.82-5.71,1.29-1.66,4.28-3.47,8.39-.28l7.16,5.55-1.69,2.18-6.91-5.36c-1.93-1.5-4.1-2.03-5.7.03-1.11,1.44-.96,3.34-.04,4.65.2.31.53.65.9.94l7.21,5.59-1.69,2.18-8.75-6.78Z"/><path class="cls-13" d="M139.01,474.39c-.14.8-.73,2.37-1.98,3.98-2.81,3.62-7.08,4.07-10.75,1.23-3.69-2.86-4.41-7.47-1.37-11.38,1-1.29,2.21-2.18,2.96-2.54l1.3,1.8c-.7.29-1.61.9-2.53,2.09-2.13,2.75-1.25,5.81,1.25,7.75,2.78,2.15,5.87,1.69,7.71-.69.96-1.24,1.27-2.31,1.48-3.14l1.92.9Z"/><path class="cls-13" d="M143.64,456.75c4.44,3.44,3.99,8.01,1.74,10.91-2.52,3.25-6.84,3.91-10.63.97-4.02-3.11-4.33-7.57-1.76-10.89,2.67-3.44,6.98-3.83,10.65-.99ZM136.39,466.37c2.63,2.04,5.78,2.06,7.43-.07s.87-5.16-1.83-7.26c-2.03-1.58-5.4-2.56-7.4.02-2,2.58-.48,5.54,1.8,7.31Z"/><path class="cls-13" d="M146.38,429.47l14.5,11.24c1.07.83,2.3,1.74,3.18,2.3l-1.52,1.96-2.16-1.52-.04.05c.82,1.71.7,3.96-.82,5.92-2.25,2.9-6.43,3.23-10.07.4-4.01-3.07-4.54-7.45-2.27-10.37,1.42-1.83,3.25-2.4,4.64-2.2l.04-.05-7.16-5.55,1.69-2.18ZM155.17,439.78c-.27-.21-.66-.47-.99-.61-1.64-.75-3.7-.45-4.97,1.19-1.75,2.26-.8,5.13,1.85,7.19,2.43,1.88,5.36,2.25,7.18-.1,1.13-1.46,1.2-3.55-.12-5.22-.24-.3-.52-.56-.87-.83l-2.08-1.61Z"/><path class="cls-13" d="M162.13,433.94c2.99,2.24,5.66,1.3,7.35-.89,1.21-1.56,1.67-2.71,1.96-3.8l1.85.84c-.25,1.04-.87,2.66-2.35,4.57-2.86,3.69-7,4.02-10.62,1.21-3.62-2.81-4.82-7.15-2.11-10.64,3.04-3.92,7.29-2.29,9.49-.58.45.35.75.66.96.86l-6.53,8.43ZM165.52,426.33c-1.37-1.1-3.99-2.18-5.89.28-1.71,2.21-.43,4.75.95,6.09l4.94-6.37Z"/><path class="cls-13" d="M184.12,401.98c-2.43-1.68-5.34-3.7-7.4-5.34l-.06.07c1.52,2.09,3.06,4.4,4.71,7.03l5.82,9.23-1.27,1.64-10.05-3.47c-2.97-1.03-5.64-2.04-7.99-3.1l-.04.05c2.04,1.66,4.75,3.96,7.14,6.05l6.82,6-1.59,2.06-15.8-14.12,2.13-2.75,10.29,3.41c2.6.9,4.87,1.75,6.93,2.68l.06-.07c-1.36-1.73-2.73-3.74-4.26-6.12l-5.77-9.24,2.13-2.75,17.51,11.91-1.63,2.11-7.66-5.27Z"/><path class="cls-13" d="M191.39,396.19c2.99,2.24,5.66,1.3,7.35-.89,1.21-1.56,1.67-2.71,1.96-3.8l1.85.84c-.25,1.04-.87,2.66-2.35,4.57-2.86,3.69-7,4.02-10.62,1.21-3.62-2.81-4.82-7.15-2.11-10.64,3.04-3.92,7.29-2.29,9.49-.58.45.35.75.66.96.86l-6.53,8.43ZM194.79,388.58c-1.37-1.1-3.99-2.18-5.89.28-1.71,2.21-.43,4.75.95,6.09l4.94-6.37ZM185.18,380.3l1.2,5.77-1.21,1.56-1.85-4.93,1.86-2.4Z"/><path class="cls-13" d="M194.42,379.08l3.9.29c1.01.07,1.92.18,2.9.3l.06-.07c-.41-.95-.72-1.83-1.06-2.73l-1.25-3.67,1.83-2.35,2.63,8.59,9.46.59-1.92,2.48-4.07-.33c-1.06-.07-2.04-.19-3.08-.32l-.04.05c.41.95.73,1.87,1.1,2.88l1.36,3.83-1.86,2.4-2.82-9.01-9.03-.49,1.88-2.43Z"/><path class="cls-13" d="M201.04,363.58c.76.55.93,1.56.26,2.43-.6.77-1.61.85-2.36.28s-.92-1.63-.31-2.42,1.63-.88,2.4-.28ZM214.52,377.93l-12-9.3,1.69-2.18,12,9.3-1.69,2.18Z"/><path class="cls-13" d="M225.2,363.23c-.14.8-.73,2.37-1.98,3.98-2.81,3.62-7.08,4.07-10.75,1.23-3.69-2.86-4.41-7.47-1.37-11.38,1-1.29,2.21-2.18,2.96-2.54l1.3,1.8c-.7.29-1.61.9-2.53,2.09-2.13,2.75-1.25,5.81,1.25,7.76,2.78,2.15,5.87,1.69,7.71-.69.96-1.24,1.27-2.31,1.48-3.14l1.92.9Z"/><path class="cls-13" d="M229.83,345.59c4.44,3.44,3.99,8.01,1.74,10.91-2.52,3.25-6.84,3.91-10.63.97-4.02-3.11-4.33-7.57-1.76-10.89,2.67-3.45,6.98-3.83,10.65-.99ZM222.58,355.2c2.63,2.04,5.78,2.06,7.43-.07s.87-5.16-1.83-7.26c-2.03-1.58-5.4-2.56-7.4.02s-.48,5.54,1.8,7.31Z"/><path class="cls-13" d="M296.98,704.47c-1.08-.6-2.31-1.38-3.56-2.35-2.27-1.76-3.48-3.55-3.78-5.38-.32-1.85.15-3.76,1.69-5.74,1.55-2,3.44-3.16,5.46-3.4,2.03-.26,4.41.59,6.79,2.44,1.13.87,2.03,1.66,2.76,2.37l-9.35,12.06ZM303.8,692.4c-.34-.38-.91-.85-1.53-1.33-3.39-2.62-6.69-2.16-9.26,1.16-2.26,2.88-2.05,5.99,1.3,8.58.82.63,1.49,1.04,1.98,1.28l7.51-9.68Z"/><path class="cls-13" d="M282.78,681.25c2.53-3.26,5.88-2.93,8.01-1.28,2.38,1.85,2.87,5.02.71,7.8-2.29,2.95-5.55,3.18-7.99,1.29s-2.81-5.13-.73-7.82ZM289.84,686.58c1.5-1.93,1.51-4.25-.05-5.46s-3.79-.64-5.33,1.35c-1.16,1.49-1.88,3.96.02,5.43,1.89,1.47,4.06.35,5.36-1.32Z"/><path class="cls-13" d="M283.18,677.01c-.23-.68-.82-1.65-1.62-2.27-1.16-.9-2.16-.74-2.73-.02-.59.76-.46,1.54.38,2.89,1.15,1.79,1.21,3.24.4,4.3-1.1,1.42-3.15,1.7-5.04.23-.89-.69-1.48-1.55-1.74-2.23l1.3-.85c.18.49.59,1.27,1.41,1.91.95.73,1.9.6,2.4-.06.56-.73.29-1.47-.52-2.79-1.08-1.77-1.27-3.14-.25-4.45,1.2-1.55,3.25-1.71,5.34-.08.96.75,1.67,1.68,2.01,2.52l-1.35.91Z"/><path class="cls-13" d="M270.49,665.08c.59.11,1.74.53,2.92,1.45,2.66,2.06,2.99,5.2.9,7.89-2.1,2.71-5.48,3.24-8.36,1.01-.95-.73-1.6-1.62-1.87-2.18l1.32-.96c.21.51.66,1.18,1.53,1.86,2.02,1.57,4.27.92,5.69-.92,1.58-2.04,1.24-4.31-.5-5.66-.91-.71-1.69-.93-2.3-1.09l.66-1.41Z"/><path class="cls-13" d="M258.34,673.2c.4-.56,1.14-.69,1.78-.19.56.44.63,1.18.2,1.73s-1.19.68-1.78.22-.64-1.2-.21-1.76ZM268.87,663.3l-6.83,8.81-1.6-1.24,6.83-8.81,1.6,1.24Z"/><path class="cls-13" d="M260.53,663.42c1.64-2.19.95-4.16-.65-5.4-1.15-.89-1.99-1.22-2.79-1.44l.62-1.36c.76.18,1.95.64,3.35,1.73,2.71,2.1,2.95,5.14.89,7.8-2.06,2.66-5.25,3.54-7.81,1.55-2.88-2.23-1.68-5.35-.42-6.97.25-.33.49-.55.63-.7l6.19,4.8ZM254.95,660.92c-.81,1-1.6,2.93.2,4.32,1.62,1.26,3.49.31,4.47-.7l-4.68-3.63Z"/><path class="cls-13" d="M250.51,659.35c-.71.91-1.27,1.67-1.78,2.44l-1.42-1.1,1.04-1.53-.04-.03c-1.09.5-2.74.53-4.2-.6-1.22-.95-2.55-3.14-.21-6.16l4.08-5.26,1.6,1.24-3.94,5.08c-1.1,1.42-1.49,3.01.02,4.18,1.06.82,2.45.71,3.42.03.23-.14.48-.39.69-.66l4.11-5.3,1.6,1.24-4.98,6.42Z"/><path class="cls-13" d="M234.74,654.99l1.96-2.53-2.29-1.78.95-1.22,2.29,1.78,3.68-4.75c.85-1.09,1.02-1.95.12-2.64-.42-.32-.77-.51-1.01-.61l.86-1.26c.41.11.97.4,1.59.88.75.58,1.16,1.28,1.21,2.01.09.83-.35,1.73-1.16,2.77l-3.72,4.8,1.37,1.06-.95,1.22-1.37-1.06-1.64,2.11-1.89-.79Z"/><path class="cls-13" d="M228.11,638.86c2.53-3.26,5.88-2.93,8.01-1.28,2.38,1.85,2.87,5.02.71,7.8-2.29,2.95-5.55,3.18-7.99,1.29-2.53-1.96-2.81-5.13-.73-7.82ZM235.16,644.19c1.5-1.93,1.51-4.25-.05-5.46-1.53-1.19-3.79-.64-5.33,1.35-1.16,1.49-1.88,3.96.02,5.43s4.06.35,5.36-1.32Z"/><path class="cls-13" d="M228.5,634.62c-.23-.68-.82-1.65-1.62-2.27-1.16-.9-2.16-.74-2.73-.02-.59.76-.46,1.54.38,2.89,1.15,1.79,1.21,3.24.4,4.3-1.1,1.42-3.15,1.7-5.04.23-.89-.69-1.48-1.55-1.74-2.23l1.3-.85c.18.49.59,1.27,1.41,1.91.95.73,1.9.6,2.4-.06.56-.73.29-1.47-.52-2.79-1.08-1.77-1.27-3.14-.25-4.45,1.2-1.55,3.25-1.71,5.34-.08.96.75,1.67,1.68,2.01,2.52l-1.35.91Z"/><path class="cls-13" d="M209.04,636.32c-.86-.47-1.95-1.13-3.22-2.12-1.57-1.21-2.43-2.47-2.65-3.69-.22-1.1.07-2.31.92-3.4.86-1.11,1.86-1.73,2.98-1.89,1.53-.24,3.25.36,4.79,1.56.47.37.9.72,1.19,1.1l3.81-4.91,1.58,1.23-9.4,12.12ZM212.04,629.17c-.28-.36-.68-.73-1.21-1.14-1.91-1.48-3.8-1.46-5.11.24s-.72,3.29,1.03,4.64c.69.54,1.26.89,1.59,1.03l3.7-4.77Z"/><path class="cls-13" d="M205.18,620.51c1.64-2.19.95-4.16-.65-5.4-1.15-.89-1.99-1.22-2.79-1.44l.62-1.36c.76.18,1.95.64,3.35,1.73,2.71,2.1,2.95,5.14.89,7.8-2.06,2.66-5.25,3.54-7.81,1.55-2.88-2.23-1.68-5.35-.42-6.97.25-.33.49-.55.63-.7l6.19,4.8ZM199.6,618.01c-.81,1-1.6,2.93.2,4.32,1.62,1.26,3.49.31,4.47-.7l-4.68-3.63Z"/><path class="cls-13" d="M199.09,611.82c-.23-.68-.82-1.65-1.62-2.27-1.16-.9-2.16-.74-2.73-.02-.59.76-.46,1.54.38,2.89,1.15,1.79,1.21,3.24.4,4.3-1.1,1.42-3.15,1.7-5.04.23-.89-.69-1.48-1.55-1.74-2.23l1.3-.85c.18.49.59,1.27,1.41,1.91.95.73,1.9.6,2.4-.06.56-.73.29-1.47-.52-2.79-1.08-1.77-1.27-3.14-.25-4.45,1.2-1.55,3.25-1.71,5.34-.08.96.75,1.67,1.68,2.01,2.52l-1.35.91Z"/><path class="cls-13" d="M181.5,602.72c2.53-3.26,5.88-2.93,8.01-1.28,2.38,1.85,2.87,5.02.71,7.8-2.29,2.95-5.55,3.18-7.99,1.29-2.53-1.96-2.81-5.13-.73-7.82ZM188.56,608.05c1.5-1.93,1.51-4.24-.05-5.46s-3.79-.64-5.33,1.35c-1.16,1.49-1.88,3.96.01,5.43s4.07.36,5.36-1.32Z"/><path class="cls-13" d="M181.9,598.49c-.23-.68-.82-1.65-1.62-2.27-1.16-.9-2.16-.74-2.73-.02-.59.76-.46,1.54.38,2.89,1.15,1.79,1.21,3.24.4,4.3-1.1,1.42-3.15,1.7-5.04.23-.89-.69-1.48-1.55-1.74-2.23l1.3-.85c.18.49.59,1.27,1.41,1.91.95.73,1.9.6,2.41-.06.56-.73.29-1.46-.52-2.79-1.08-1.77-1.27-3.14-.25-4.45,1.2-1.55,3.25-1.71,5.34-.08.96.75,1.67,1.68,2.01,2.52l-1.35.91Z"/><text class="cls-8" transform="translate(271.63 705.9) rotate(-142.21)"><tspan x="0" y="0">200</tspan></text><text class="cls-3" transform="translate(271.63 705.9) rotate(-142.21)"><tspan x="0" y="0">200</tspan></text><text class="cls-1" transform="translate(271.63 705.9) rotate(-142.21)"><tspan x="0" y="0">200</tspan></text><path class="cls-12" d="M441.06,81.05l1.55-2,4.49-.5c10.71-1.09,15.91-2.05,18.77-5.66,1.9-2.45,2.47-5.63-1.13-8.43-2.19-1.7-4.87-1.99-6.71-1.93l.75-3.11c2.76-.12,5.94.69,8.73,2.85,5.2,4.03,4.62,9.29,1.95,12.74-3.45,4.45-9.47,5.55-18.36,6.51l-3.31.28-.06.07,10.84,8.4-2.1,2.71-15.4-11.94Z"/><path class="cls-12" d="M485.68,95.93c-6.36,8.2-12.91,10.37-18.26,6.23-4.71-3.65-4.48-10.55,1.63-18.58,6.27-8.09,13.21-9.84,18.11-6.04,5.08,3.94,4.47,10.71-1.49,18.4ZM472.3,86.14c-4.86,6.27-5.7,11.33-2.73,13.63,3.34,2.59,7.96-.07,12.73-6.23,4.6-5.94,6.1-11.01,2.73-13.63-2.86-2.22-7.64-.34-12.73,6.23Z"/><path class="cls-12" d="M504.73,110.69c-6.36,8.2-12.91,10.37-18.26,6.23-4.71-3.65-4.48-10.55,1.63-18.58,6.27-8.09,13.21-9.84,18.11-6.04,5.08,3.94,4.47,10.71-1.49,18.4ZM491.34,100.9c-4.86,6.27-5.7,11.33-2.73,13.63,3.34,2.59,7.96-.07,12.73-6.23,4.6-5.94,6.1-11.01,2.73-13.63-2.86-2.22-7.64-.34-12.73,6.23Z"/><path class="cls-13" d="M572.64,323.27c.42-.78,1.02-1.76,1.92-2.91,1.1-1.42,2.23-2.2,3.33-2.4,1-.2,2.08.06,3.07.83s1.56,1.69,1.71,2.69c.22,1.38-.33,2.93-1.41,4.33-.33.43-.66.81-.99,1.08l4.44,3.44-1.11,1.43-10.96-8.5ZM579.1,325.98c.32-.25.66-.62,1.03-1.1,1.34-1.73,1.32-3.43-.21-4.62s-2.98-.65-4.2.93c-.48.63-.81,1.14-.93,1.44l4.31,3.34Z"/><path class="cls-13" d="M594.83,317.29l-13.9-4.98,1.2-1.55,6.8,2.51c1.87.68,3.54,1.32,5.07,2.03l.03-.03c-1.04-1.31-2.08-2.85-3.15-4.47l-4.02-6.12,1.19-1.53,8.02,12.56-1.22,1.58Z"/><path class="cls-13" d="M597.27,294.16c-.25.28-.52.68-.78,1.14-1.38,2.56-.65,5.05.92,6.67l.04-.05c-.28-1.03-.15-2.36.77-3.54,1.47-1.89,3.87-2.17,5.96-.55,1.96,1.52,2.73,4.25,1.01,6.48-1.77,2.29-4.71,2.41-7.49.25-2.11-1.63-3.18-3.68-3.42-5.55-.18-1.56.19-3.17,1.07-4.65.27-.48.53-.85.73-1.12l1.18.92ZM603.12,299.36c-1.53-1.19-3.13-1.03-4.16.3-.68.87-.76,2.1-.29,3.09.09.23.25.46.51.66,1.79,1.33,3.71,1.53,4.89.02.97-1.25.58-2.89-.95-4.08Z"/><path class="cls-13" d="M610.93,294.41c.28-.29.52-.67.86-1.21.54-.93.8-1.99.7-3.04-.09-1.21-.63-2.44-1.75-3.62l-.04.05c.27,1.15.03,2.34-.8,3.41-1.49,1.93-3.9,2.04-5.72.62-2.02-1.57-2.67-4.41-.97-6.6,1.7-2.19,4.52-2.16,7.25-.04,2.35,1.82,3.39,3.89,3.59,5.73.17,1.45-.22,2.97-.98,4.22-.33.59-.67,1.06-.95,1.4l-1.18-.92ZM605.19,289.11c1.33,1.03,2.9.95,3.87-.3.75-.97.86-2.1.51-2.97-.07-.18-.19-.36-.42-.54-1.83-1.42-3.75-1.83-4.92-.31-.96,1.23-.55,2.95.97,4.12Z"/><path class="cls-13" d="M618.89,282.65c.89-.34,1.95-1.02,2.71-2.01,1.14-1.46,1.02-2.92-.09-3.79-1.04-.8-2.09-.67-3.83.38-2.05,1.31-3.85,1.7-5.41.49-1.73-1.34-1.9-3.77-.23-5.92.88-1.14,1.78-1.75,2.44-2.03l.86,1.3c-.48.21-1.38.69-2.16,1.7-1.17,1.51-.72,2.79.04,3.38,1.04.8,2.07.52,3.85-.55,2.18-1.31,3.82-1.57,5.45-.3,1.71,1.33,2.21,3.74.18,6.36-.83,1.07-2.05,2-2.9,2.28l-.92-1.29Z"/><path class="cls-13" d="M618.69,263.92c.54-.97,1.25-2.09,2.13-3.22,1.59-2.06,3.21-3.15,4.87-3.42,1.67-.29,3.4.13,5.19,1.52,1.81,1.4,2.86,3.11,3.07,4.94.23,1.84-.53,3.99-2.21,6.14-.79,1.02-1.5,1.84-2.15,2.5l-10.91-8.46ZM629.6,270.09c.35-.31.77-.82,1.2-1.38,2.37-3.06,1.95-6.05-1.04-8.37-2.6-2.05-5.41-1.85-7.76,1.17-.57.74-.94,1.35-1.15,1.79l8.75,6.79Z"/><path class="cls-13" d="M632.11,248.81l-2.62,3.37-1.22-.94,6.37-8.21,1.22.94-2.63,3.39,9.87,7.65-1.12,1.45-9.87-7.65Z"/><path class="cls-13" d="M646.19,243.84l2.6,3.86-1.15,1.48-8.17-12.37,1.34-1.73,14.02,4.81-1.19,1.53-4.41-1.52-3.05,3.93ZM647.89,239.34l-4.03-1.39c-.92-.31-1.7-.66-2.47-.99l-.03.03c.53.67,1.06,1.38,1.57,2.12l2.37,3.57,2.59-3.34Z"/><path class="cls-9" d="M339.64,591.91c.45-.83,1.09-1.87,2.03-3.09,1.16-1.5,2.36-2.33,3.53-2.54,1.06-.21,2.21.07,3.26.88s1.66,1.79,1.81,2.85c.23,1.47-.35,3.11-1.49,4.59-.35.45-.69.86-1.05,1.14l4.71,3.65-1.18,1.52-11.62-9.01ZM346.48,594.79c.34-.26.7-.66,1.1-1.16,1.42-1.83,1.4-3.64-.23-4.9-1.55-1.2-3.15-.69-4.45.99-.51.66-.85,1.21-.99,1.53l4.57,3.54Z"/><path class="cls-9" d="M363.16,585.57l-14.73-5.28,1.27-1.64,7.21,2.66c1.98.72,3.75,1.4,5.37,2.15l.03-.04c-1.1-1.39-2.21-3.02-3.34-4.74l-4.27-6.49,1.26-1.62,8.5,13.32-1.3,1.67Z"/><path class="cls-9" d="M365.75,561.04c-.26.3-.55.72-.82,1.2-1.47,2.72-.69,5.36.97,7.07l.04-.05c-.3-1.1-.16-2.5.82-3.75,1.56-2.01,4.1-2.3,6.31-.58,2.08,1.61,2.9,4.51,1.07,6.86-1.88,2.42-4.99,2.55-7.94.27-2.23-1.73-3.37-3.9-3.62-5.88-.19-1.66.2-3.36,1.14-4.93.28-.51.56-.9.78-1.18l1.26.97ZM371.95,566.55c-1.62-1.26-3.32-1.09-4.41.32-.72.92-.8,2.23-.31,3.28.09.24.27.49.55.7,1.89,1.41,3.93,1.63,5.18.02,1.03-1.33.62-3.07-1-4.33Z"/><path class="cls-9" d="M380.24,561.3c.29-.3.55-.72.91-1.28.57-.98.85-2.11.74-3.22-.1-1.28-.67-2.59-1.85-3.84l-.04.05c.28,1.22.03,2.48-.85,3.62-1.58,2.04-4.13,2.16-6.07.66-2.15-1.66-2.83-4.68-1.03-7,1.8-2.32,4.79-2.29,7.69-.04,2.49,1.93,3.59,4.12,3.81,6.08.18,1.54-.23,3.14-1.04,4.47-.35.63-.71,1.13-1.01,1.48l-1.26-.97ZM374.15,555.68c1.41,1.1,3.07,1.01,4.1-.31.8-1.03.91-2.22.55-3.15-.07-.2-.21-.38-.45-.57-1.94-1.5-3.97-1.94-5.22-.33-1.01,1.31-.58,3.13,1.02,4.37Z"/><path class="cls-9" d="M388.69,548.82c.95-.36,2.07-1.08,2.88-2.13,1.2-1.55,1.09-3.1-.1-4.01-1.1-.85-2.21-.71-4.06.4-2.17,1.39-4.08,1.81-5.74.52-1.83-1.42-2.02-3.99-.24-6.28.93-1.2,1.89-1.86,2.59-2.15l.91,1.38c-.51.22-1.46.74-2.29,1.8-1.24,1.6-.76,2.96.04,3.58,1.1.85,2.19.56,4.08-.58,2.31-1.39,4.05-1.66,5.78-.32,1.81,1.41,2.34,3.97.19,6.74-.88,1.13-2.17,2.12-3.08,2.42l-.98-1.37Z"/><path class="cls-9" d="M388.48,528.96c.58-1.03,1.32-2.21,2.26-3.42,1.69-2.18,3.4-3.34,5.16-3.63,1.77-.3,3.61.14,5.51,1.62,1.92,1.49,3.03,3.3,3.26,5.24.25,1.95-.57,4.22-2.34,6.51-.84,1.08-1.59,1.95-2.28,2.65l-11.56-8.97ZM400.05,535.5c.37-.33.82-.87,1.28-1.47,2.52-3.24,2.07-6.41-1.11-8.87-2.76-2.17-5.74-1.96-8.23,1.25-.61.79-1,1.43-1.22,1.9l9.28,7.19Z"/><path class="cls-9" d="M402.72,512.93l-2.77,3.58-1.29-1,6.75-8.7,1.29,1-2.79,3.59,10.47,8.11-1.19,1.53-10.47-8.11Z"/><path class="cls-9" d="M417.64,507.66l2.75,4.09-1.22,1.57-8.66-13.11,1.42-1.83,14.87,5.1-1.26,1.62-4.67-1.61-3.23,4.17ZM419.45,502.88l-4.28-1.47c-.97-.33-1.8-.7-2.62-1.05l-.03.04c.56.72,1.13,1.46,1.67,2.24l2.51,3.79,2.75-3.54Z"/></g></svg>