<?xml version="1.0" encoding="UTF-8"?><svg id="Capa_2" xmlns="http://www.w3.org/2000/svg" xmlns:xlink="http://www.w3.org/1999/xlink" viewBox="0 0 806.65 553.58"><defs><style>.cls-1{fill:#905427;}.cls-1,.cls-2,.cls-3,.cls-4,.cls-5,.cls-6,.cls-7,.cls-8,.cls-9,.cls-10,.cls-11,.cls-12{stroke-width:0px;}.cls-2,.cls-13,.cls-14,.cls-15{fill:#511e13;}.cls-3{fill:#ffbea3;}.cls-16{clip-path:url(#clippath);}.cls-17{letter-spacing:-.02em;}.cls-4,.cls-18,.cls-19,.cls-20,.cls-21,.cls-22{fill:none;}.cls-23{fill:#f0b2a7;}.cls-23,.cls-18,.cls-19,.cls-13,.cls-20,.cls-21,.cls-22{stroke-miterlimit:10;}.cls-23,.cls-19,.cls-13,.cls-20{stroke:#511e13;}.cls-23,.cls-13,.cls-20,.cls-21{stroke-width:1.09px;}.cls-18{stroke-width:.48px;}.cls-18,.cls-19,.cls-15{font-family:Ubuntu-Medium, Ubuntu;font-size:64.02px;font-weight:500;}.cls-18,.cls-22{stroke:#ffe9d1;}.cls-5{fill:#ff8976;}.cls-6,.cls-24{fill:#ffe9d1;}.cls-25{letter-spacing:0em;}.cls-19{stroke-width:1.93px;}.cls-26{clip-path:url(#clippath-1);}.cls-21{stroke:#f0b2a7;}.cls-14{font-family:Ubuntu-Bold, Ubuntu;font-size:20.97px;font-weight:700;}.cls-24{font-family:Ubuntu-Regular, 'Ubuntu Regular';font-size:46.97px;}.cls-7{fill:#ffc59b;}.cls-8{fill:#8e5c35;}.cls-9{fill:#ffd7ac;}.cls-27{letter-spacing:-.01em;}.cls-10{fill:#e7e7e7;}.cls-11{fill:#a0625f;}.cls-12{fill:#bd8065;}</style><clipPath id="clippath"><path class="cls-4" d="M415.51,300.02c-7.41,1.22-14.1,5.12-20.13,9.59-17.49,12.95-30.87,31.27-38.29,51.73-7.42,20.46-8.9,42.97-4.65,64.32.42,2.13.91,4.25,1.44,6.36-.81-2.02-1.66-4.02-2.57-5.99-9.07-19.78-23.46-37.16-41.47-49.39-18-12.23-39.58-19.23-61.34-19.47-7.5-.08-15.22.68-21.93,4.03-6.71,3.35-12.29,9.71-13.06,17.17-1.01,9.76,6.37,18.78,15.2,23.06,3.55,1.72,7.62,2.88,11.44,1.88,3.82-1,6.94-4.59,6.24-8.48-4.63-1.39-6.14-8.48-2.48-11.63,3.67-3.15,10.45-.6,11.13,4.19.2,1.39-.01,2.91.74,4.09,1.71,2.71,5.82.97,8.7-.43,9.68-4.69,21.39-1.72,30.93,3.25,15.97,8.32,28.82,21.82,38.55,36.98,1.69,2.64,3.29,5.33,4.82,8.06-4.05-5.66-8.51-11-13.49-15.86-11.47-11.18-25.92-19.72-41.73-22.24-6.5-1.04-13.27-1.04-19.56.9-6.29,1.94-12.08,5.96-15.37,11.66-3.29,5.7-3.78,13.14-.52,18.87,3.25,5.72,10.45,9.16,16.78,7.36,6.33-1.8,10.3-8.52,8.17-14.75,5.64-5.31,14.52-5.42,21.95-3.22,13.13,3.89,23.83,13.76,31.4,25.17,5.43,8.19,9.43,17.19,13.01,26.37l50.53-16.36c-2.48-9.53-4.52-19.17-4.92-28.99-.56-13.68,2.33-27.95,10.69-38.79,4.73-6.13,11.99-11.24,19.67-10.25,1.93,6.3,9.08,9.41,15.27,7.16,6.19-2.25,10-9.25,9.29-15.8-.72-6.55-5.47-12.29-11.48-14.98-6.01-2.69-13.05-2.55-19.29-.44-6.23,2.12-11.72,6.08-16.38,10.73-11.33,11.31-18.04,26.7-20.78,42.48-1.19,6.86-1.67,13.8-1.64,20.76-.36-3.11-.65-6.23-.82-9.36-1-17.98,1.49-36.45,9.56-52.56,4.82-9.62,12.56-18.89,23.16-20.76,3.16-.56,7.51-1.55,7.31-4.75-.09-1.4-1.15-2.51-1.8-3.75-2.26-4.28,1.75-10.32,6.57-9.92,4.82.41,7.75,7.04,4.81,10.88,1.71,3.56,6.35,4.63,10.03,3.21,3.68-1.42,6.3-4.75,8.17-8.22,4.65-8.64,5.34-20.28-1.2-27.59-5-5.59-13.24-7.47-20.65-6.25Z"/></clipPath><clipPath id="clippath-1"><path class="cls-4" d="M221.13,206.67c-8.5-2.85-17.78-4.37-26.42-1.95-8.63,2.42-16.37,9.49-17.47,18.39-1.1,8.9,6.3,18.52,15.25,17.97,3.45-.21,6.96-2.02,8.45-5.14,1.49-3.12.03-8.03-3.15-9.4,7.26-7.25,18.68-9.34,28.63-6.84,9.95,2.5,18.51,9.04,25.17,16.85,6.66,7.81,11.62,16.88,16.54,25.89,1.13,2.07,1.43,6.23,2.91,8.08,1.47,1.85,4.6,2.57,6.17.81,1.33-1.48.92-3.78.37-5.69-7.82-27.2-29.62-49.98-56.46-58.97ZM213.16,247.48c-2.73-.98-6.22-3.98-8.31-1.37-1.42,1.77.85,8.64,1.54,10.46,1.48,3.9,4.51,7.45,8.56,8.42,4.05.97,8.94-1.44,9.7-5.54.55-2.97-1.09-6.01-3.41-7.95-2.32-1.94-5.23-3-8.08-4.02ZM374.52,159.23c-6.1-6.57-16.52-7.76-24.93-4.66-8.41,3.1-15.04,9.78-20.26,17.06-16.48,23.02-20.79,54.25-11.18,80.87.68,1.87,1.69,3.97,3.64,4.39,2.31.5,4.42-1.91,4.53-4.27.11-2.36-2.08-5.91-2.38-8.25-1.29-10.18-2.59-20.44-1.77-30.67.82-10.23,3.92-20.55,10.52-28.41,6.6-7.86,17.07-12.86,27.2-11.24-1.78,2.97-.08,7.81,2.96,9.46,3.04,1.65,6.94,1.06,9.86-.79,7.57-4.8,7.93-16.93,1.83-23.5ZM365.64,194.05c-3.22-.89-4.29,3.59-5.93,5.98-1.71,2.5-3.45,5.06-4.19,7.99-.74,2.93-.29,6.36,1.9,8.44,3.02,2.87,8.39,1.96,11.11-1.2,2.71-3.16,3.09-7.82,2-11.84-.51-1.88-2.69-8.77-4.88-9.38Z"/></clipPath></defs><g id="Capa_1-2"><rect class="cls-10" x="43.08" y="108.11" width="728.69" height="341.54" transform="translate(-66.09 139.06) rotate(-17.94)"/><rect class="cls-6" x="34.89" y="103.93" width="728.69" height="341.54" transform="translate(-65.2 136.33) rotate(-17.94)"/><path class="cls-7" d="M415.51,300.02c-7.41,1.22-14.1,5.12-20.13,9.59-17.49,12.95-30.87,31.27-38.29,51.73-7.42,20.46-8.9,42.97-4.65,64.32.42,2.13.91,4.25,1.44,6.36-.81-2.02-1.66-4.02-2.57-5.99-9.07-19.78-23.46-37.16-41.47-49.39-18-12.23-39.58-19.23-61.34-19.47-7.5-.08-15.22.68-21.93,4.03-6.71,3.35-12.29,9.71-13.06,17.17-1.01,9.76,6.37,18.78,15.2,23.06,3.55,1.72,7.62,2.88,11.44,1.88,3.82-1,6.94-4.59,6.24-8.48-4.63-1.39-6.14-8.48-2.48-11.63,3.67-3.15,10.45-.6,11.13,4.19.2,1.39-.01,2.91.74,4.09,1.71,2.71,5.82.97,8.7-.43,9.68-4.69,21.39-1.72,30.93,3.25,15.97,8.32,28.82,21.82,38.55,36.98,1.69,2.64,3.29,5.33,4.82,8.06-4.05-5.66-8.51-11-13.49-15.86-11.47-11.18-25.92-19.72-41.73-22.24-6.5-1.04-13.27-1.04-19.56.9-6.29,1.94-12.08,5.96-15.37,11.66-3.29,5.7-3.78,13.14-.52,18.87,3.25,5.72,10.45,9.16,16.78,7.36,6.33-1.8,10.3-8.52,8.17-14.75,5.64-5.31,14.52-5.42,21.95-3.22,13.13,3.89,23.83,13.76,31.4,25.17,5.43,8.19,9.43,17.19,13.01,26.37l50.53-16.36c-2.48-9.53-4.52-19.17-4.92-28.99-.56-13.68,2.33-27.95,10.69-38.79,4.73-6.13,11.99-11.24,19.67-10.25,1.93,6.3,9.08,9.41,15.27,7.16,6.19-2.25,10-9.25,9.29-15.8-.72-6.55-5.47-12.29-11.48-14.98-6.01-2.69-13.05-2.55-19.29-.44-6.23,2.12-11.72,6.08-16.38,10.73-11.33,11.31-18.04,26.7-20.78,42.48-1.19,6.86-1.67,13.8-1.64,20.76-.36-3.11-.65-6.23-.82-9.36-1-17.98,1.49-36.45,9.56-52.56,4.82-9.62,12.56-18.89,23.16-20.76,3.16-.56,7.51-1.55,7.31-4.75-.09-1.4-1.15-2.51-1.8-3.75-2.26-4.28,1.75-10.32,6.57-9.92,4.82.41,7.75,7.04,4.81,10.88,1.71,3.56,6.35,4.63,10.03,3.21,3.68-1.42,6.3-4.75,8.17-8.22,4.65-8.64,5.34-20.28-1.2-27.59-5-5.59-13.24-7.47-20.65-6.25Z"/><g class="cls-16"><line class="cls-22" x1="47" y1="395.67" x2="448.42" y2="126.01"/><line class="cls-22" x1="50.39" y1="402.56" x2="451.81" y2="132.9"/><line class="cls-22" x1="53.78" y1="409.46" x2="455.2" y2="139.8"/><line class="cls-22" x1="57.17" y1="416.35" x2="458.59" y2="146.69"/><line class="cls-22" x1="60.56" y1="423.25" x2="461.98" y2="153.58"/><line class="cls-22" x1="63.95" y1="430.14" x2="465.37" y2="160.48"/><line class="cls-22" x1="67.34" y1="437.04" x2="468.76" y2="167.37"/><line class="cls-22" x1="70.73" y1="443.93" x2="472.15" y2="174.27"/><line class="cls-22" x1="74.12" y1="450.82" x2="475.54" y2="181.16"/><line class="cls-22" x1="77.51" y1="457.72" x2="478.93" y2="188.06"/><line class="cls-22" x1="80.9" y1="464.61" x2="482.32" y2="194.95"/><line class="cls-22" x1="84.29" y1="471.51" x2="485.7" y2="201.85"/><line class="cls-22" x1="87.68" y1="478.4" x2="489.09" y2="208.74"/><line class="cls-22" x1="91.07" y1="485.3" x2="492.48" y2="215.63"/><line class="cls-22" x1="94.46" y1="492.19" x2="495.87" y2="222.53"/><line class="cls-22" x1="97.85" y1="499.09" x2="499.26" y2="229.42"/><line class="cls-22" x1="101.24" y1="505.98" x2="502.65" y2="236.32"/><line class="cls-22" x1="104.63" y1="512.88" x2="506.04" y2="243.21"/><line class="cls-22" x1="108.02" y1="519.77" x2="509.43" y2="250.11"/><line class="cls-22" x1="111.41" y1="526.66" x2="512.82" y2="257"/><line class="cls-22" x1="114.8" y1="533.56" x2="516.21" y2="263.9"/><line class="cls-22" x1="118.19" y1="540.45" x2="519.6" y2="270.79"/><line class="cls-22" x1="121.58" y1="547.35" x2="522.99" y2="277.69"/><line class="cls-22" x1="124.97" y1="554.24" x2="526.38" y2="284.58"/><line class="cls-22" x1="128.36" y1="561.14" x2="529.77" y2="291.47"/><line class="cls-22" x1="131.75" y1="568.03" x2="533.16" y2="298.37"/><line class="cls-22" x1="135.14" y1="574.93" x2="536.55" y2="305.26"/><line class="cls-22" x1="138.53" y1="581.82" x2="539.94" y2="312.16"/><line class="cls-22" x1="141.92" y1="588.72" x2="543.33" y2="319.05"/><line class="cls-22" x1="145.31" y1="595.61" x2="546.72" y2="325.95"/><line class="cls-22" x1="148.7" y1="602.5" x2="550.11" y2="332.84"/><line class="cls-22" x1="152.09" y1="609.4" x2="553.5" y2="339.74"/><line class="cls-22" x1="155.48" y1="616.29" x2="556.89" y2="346.63"/><line class="cls-22" x1="158.86" y1="623.19" x2="560.28" y2="353.53"/><line class="cls-22" x1="162.25" y1="630.08" x2="563.67" y2="360.42"/><line class="cls-22" x1="165.64" y1="636.98" x2="567.06" y2="367.31"/><line class="cls-22" x1="169.03" y1="643.87" x2="570.45" y2="374.21"/><line class="cls-22" x1="172.42" y1="650.77" x2="573.84" y2="381.1"/><line class="cls-22" x1="175.81" y1="657.66" x2="577.23" y2="388"/><line class="cls-22" x1="179.2" y1="664.55" x2="580.62" y2="394.89"/><line class="cls-22" x1="182.59" y1="671.45" x2="584.01" y2="401.79"/><line class="cls-22" x1="185.98" y1="678.34" x2="587.4" y2="408.68"/><line class="cls-22" x1="189.37" y1="685.24" x2="590.79" y2="415.58"/><line class="cls-22" x1="192.76" y1="692.13" x2="594.18" y2="422.47"/><line class="cls-22" x1="196.15" y1="699.03" x2="597.57" y2="429.37"/><line class="cls-22" x1="199.54" y1="705.92" x2="600.95" y2="436.26"/><line class="cls-22" x1="202.93" y1="712.82" x2="604.34" y2="443.15"/><line class="cls-22" x1="206.32" y1="719.71" x2="607.73" y2="450.05"/><line class="cls-22" x1="209.71" y1="726.61" x2="611.12" y2="456.94"/><line class="cls-22" x1="213.1" y1="733.5" x2="614.51" y2="463.84"/><line class="cls-22" x1="216.49" y1="740.39" x2="617.9" y2="470.73"/></g><path class="cls-9" d="M244.2,150.03c.86,2.67,1.44,5.42,1.82,8.19.77,5.6.71,11.35.05,16.95-1.37,12.35-5.06,24.35-6.69,36.67s-.99,25.57,5.62,36.1c8.69,13.85,26.53,20.18,42.76,18.18,16.53-2.04,32.08-12.19,39.72-26.99,7.64-14.8,6.72-33.9-3.09-47.35-7.27-9.97-18.46-16.28-27.1-25.1-7.89-8.07-13.58-18.28-16.29-29.23-.29-1.18-.64-2.45-1.14-3.59l-37.66,12.19c.78,1.48,1.68,3,2,3.99Z"/><path class="cls-7" d="M221.13,206.67c-8.5-2.85-17.78-4.37-26.42-1.95-8.63,2.42-16.37,9.49-17.47,18.39-1.1,8.9,6.3,18.52,15.25,17.97,3.45-.21,6.96-2.02,8.45-5.14,1.49-3.12.03-8.03-3.15-9.4,7.26-7.25,18.68-9.34,28.63-6.84,9.95,2.5,18.51,9.04,25.17,16.85,6.66,7.81,11.62,16.88,16.54,25.89,1.13,2.07,1.43,6.23,2.91,8.08,1.47,1.85,4.6,2.57,6.17.81,1.33-1.48.92-3.78.37-5.69-7.82-27.2-29.62-49.98-56.46-58.97ZM213.16,247.48c-2.73-.98-6.22-3.98-8.31-1.37-1.42,1.77.85,8.64,1.54,10.46,1.48,3.9,4.51,7.45,8.56,8.42,4.05.97,8.94-1.44,9.7-5.54.55-2.97-1.09-6.01-3.41-7.95-2.32-1.94-5.23-3-8.08-4.02ZM374.52,159.23c-6.1-6.57-16.52-7.76-24.93-4.66-8.41,3.1-15.04,9.78-20.26,17.06-16.48,23.02-20.79,54.25-11.18,80.87.68,1.87,1.69,3.97,3.64,4.39,2.31.5,4.42-1.91,4.53-4.27.11-2.36-2.08-5.91-2.38-8.25-1.29-10.18-2.59-20.44-1.77-30.67.82-10.23,3.92-20.55,10.52-28.41,6.6-7.86,17.07-12.86,27.2-11.24-1.78,2.97-.08,7.81,2.96,9.46,3.04,1.65,6.94,1.06,9.86-.79,7.57-4.8,7.93-16.93,1.83-23.5ZM365.64,194.05c-3.22-.89-4.29,3.59-5.93,5.98-1.71,2.5-3.45,5.06-4.19,7.99-.74,2.93-.29,6.36,1.9,8.44,3.02,2.87,8.39,1.96,11.11-1.2,2.71-3.16,3.09-7.82,2-11.84-.51-1.88-2.69-8.77-4.88-9.38Z"/><g class="cls-26"><line class="cls-22" x1="-46.13" y1="196.55" x2="355.29" y2="-73.11"/><line class="cls-22" x1="-42.74" y1="203.45" x2="358.68" y2="-66.21"/><line class="cls-22" x1="-39.35" y1="210.34" x2="362.07" y2="-59.32"/><line class="cls-22" x1="-35.96" y1="217.24" x2="365.46" y2="-52.43"/><line class="cls-22" x1="-32.57" y1="224.13" x2="368.85" y2="-45.53"/><line class="cls-22" x1="-29.18" y1="231.03" x2="372.24" y2="-38.64"/><line class="cls-22" x1="-25.79" y1="237.92" x2="375.63" y2="-31.74"/><line class="cls-22" x1="-22.4" y1="244.81" x2="379.02" y2="-24.85"/><line class="cls-22" x1="-19.01" y1="251.71" x2="382.4" y2="-17.95"/><line class="cls-22" x1="-15.62" y1="258.6" x2="385.79" y2="-11.06"/><line class="cls-22" x1="-12.23" y1="265.5" x2="389.18" y2="-4.16"/><line class="cls-22" x1="-8.84" y1="272.39" x2="392.57" y2="2.73"/><line class="cls-22" x1="-5.45" y1="279.29" x2="395.96" y2="9.63"/><line class="cls-22" x1="-2.06" y1="286.18" x2="399.35" y2="16.52"/><line class="cls-22" x1="1.33" y1="293.08" x2="402.74" y2="23.41"/><line class="cls-22" x1="4.72" y1="299.97" x2="406.13" y2="30.31"/><line class="cls-22" x1="8.11" y1="306.87" x2="409.52" y2="37.2"/><line class="cls-22" x1="11.5" y1="313.76" x2="412.91" y2="44.1"/><line class="cls-22" x1="14.89" y1="320.65" x2="416.3" y2="50.99"/><line class="cls-22" x1="18.28" y1="327.55" x2="419.69" y2="57.89"/><line class="cls-22" x1="21.67" y1="334.44" x2="423.08" y2="64.78"/><line class="cls-22" x1="25.06" y1="341.34" x2="426.47" y2="71.68"/><line class="cls-22" x1="28.45" y1="348.23" x2="429.86" y2="78.57"/><line class="cls-22" x1="31.84" y1="355.13" x2="433.25" y2="85.46"/><line class="cls-22" x1="35.23" y1="362.02" x2="436.64" y2="92.36"/><line class="cls-22" x1="38.62" y1="368.92" x2="440.03" y2="99.25"/><line class="cls-22" x1="42.01" y1="375.81" x2="443.42" y2="106.15"/><line class="cls-22" x1="45.4" y1="382.71" x2="446.81" y2="113.04"/><line class="cls-22" x1="48.79" y1="389.6" x2="450.2" y2="119.94"/><line class="cls-22" x1="52.18" y1="396.49" x2="453.59" y2="126.83"/><line class="cls-22" x1="55.56" y1="403.39" x2="456.98" y2="133.73"/><line class="cls-22" x1="58.95" y1="410.28" x2="460.37" y2="140.62"/><line class="cls-22" x1="62.34" y1="417.18" x2="463.76" y2="147.52"/><line class="cls-22" x1="65.73" y1="424.07" x2="467.15" y2="154.41"/><line class="cls-22" x1="69.12" y1="430.97" x2="470.54" y2="161.3"/><line class="cls-22" x1="72.51" y1="437.86" x2="473.93" y2="168.2"/><line class="cls-22" x1="75.9" y1="444.76" x2="477.32" y2="175.09"/><line class="cls-22" x1="79.29" y1="451.65" x2="480.71" y2="181.99"/><line class="cls-22" x1="82.68" y1="458.55" x2="484.1" y2="188.88"/><line class="cls-22" x1="86.07" y1="465.44" x2="487.49" y2="195.78"/><line class="cls-22" x1="89.46" y1="472.33" x2="490.88" y2="202.67"/><line class="cls-22" x1="92.85" y1="479.23" x2="494.27" y2="209.57"/><line class="cls-22" x1="96.24" y1="486.12" x2="497.66" y2="216.46"/><line class="cls-22" x1="99.63" y1="493.02" x2="501.04" y2="223.36"/><line class="cls-22" x1="103.02" y1="499.91" x2="504.43" y2="230.25"/><line class="cls-22" x1="106.41" y1="506.81" x2="507.82" y2="237.14"/><line class="cls-22" x1="109.8" y1="513.7" x2="511.21" y2="244.04"/><line class="cls-22" x1="113.19" y1="520.6" x2="514.6" y2="250.93"/><line class="cls-22" x1="116.58" y1="527.49" x2="517.99" y2="257.83"/><line class="cls-22" x1="119.97" y1="534.38" x2="521.38" y2="264.72"/><line class="cls-22" x1="123.36" y1="541.28" x2="524.77" y2="271.62"/></g><rect class="cls-3" x="96.26" y="492.7" width="140.66" height="35.9" transform="translate(-149.2 76.14) rotate(-17.94)"/><rect class="cls-5" x="49.15" y="348.79" width="140.66" height="32.74" transform="translate(-106.67 54.56) rotate(-17.94)"/><rect class="cls-3" x="436.05" y="71.08" width="129.23" height="341.54" transform="translate(-50.15 165.98) rotate(-17.94)"/><rect class="cls-3" x="658.12" y="5.55" width="60.37" height="154.29" transform="translate(8 216.04) rotate(-17.94)"/><rect class="cls-3" x="20.34" y="199.05" width="140.66" height="154.29" transform="translate(-80.67 41.36) rotate(-17.94)"/><rect class="cls-3" x="734.04" y="299.21" width="60.37" height="35.9" transform="translate(-60.54 250.83) rotate(-17.94)"/><rect class="cls-12" x="643.55" y="42.01" width="77.11" height="97.43" transform="translate(5.22 214.52) rotate(-17.94)"/><rect class="cls-12" x="25.09" y="251.81" width="18.05" height="97.43" transform="translate(-90.91 25.12) rotate(-17.94)"/><rect class="cls-1" x="686.68" y="163.05" width="6.74" height="47.56" transform="translate(-24 221.64) rotate(-17.94)"/><rect class="cls-1" x="701.31" y="159.76" width="1.71" height="72.42" transform="translate(-26.22 225.82) rotate(-17.94)"/><rect class="cls-8" x="148.15" y="245.61" width="17.48" height="38.19" transform="translate(-73.91 61.2) rotate(-17.94)"/><rect class="cls-8" x="167.3" y="304.76" width="17.48" height="38.19" transform="translate(-91.2 69.97) rotate(-17.94)"/><rect class="cls-8" x="186.45" y="363.91" width="17.48" height="38.19" transform="translate(-108.49 78.75) rotate(-17.94)"/><rect class="cls-8" x="205.6" y="423.07" width="17.48" height="38.19" transform="translate(-125.78 87.52) rotate(-17.94)"/><rect class="cls-2" x="268.37" y="405.94" width="42.25" height="2.5" transform="translate(-111.35 108.97) rotate(-17.94)"/><rect class="cls-2" x="266.76" y="402.12" width="31.17" height="1.92" transform="translate(-110.43 106.57) rotate(-17.94)"/><rect class="cls-2" x="339.45" y="382.92" width="42.25" height="2.5" transform="translate(-100.8 129.75) rotate(-17.94)"/><rect class="cls-2" x="337.84" y="379.11" width="31.17" height="1.92" transform="translate(-99.89 127.35) rotate(-17.94)"/><rect class="cls-2" x="726.26" y="321.74" width="10.23" height="2.19" transform="translate(-63.88 240.99) rotate(-17.94)"/><rect class="cls-2" x="738.08" y="317.92" width="10.23" height="2.19" transform="translate(-62.13 244.44) rotate(-17.94)"/><rect class="cls-2" x="749.9" y="314.09" width="10.23" height="2.19" transform="translate(-60.37 247.9) rotate(-17.94)"/><rect class="cls-2" x="723.08" y="311.92" width="10.23" height="2.19" transform="translate(-61.01 239.53) rotate(-17.94)"/><rect class="cls-2" x="734.9" y="308.09" width="10.23" height="2.19" transform="translate(-59.26 242.98) rotate(-17.94)"/><rect class="cls-2" x="746.72" y="304.26" width="10.23" height="2.19" transform="translate(-57.5 246.44) rotate(-17.94)"/><rect class="cls-2" x="719.9" y="302.09" width="10.23" height="2.19" transform="translate(-58.14 238.07) rotate(-17.94)"/><rect class="cls-2" x="731.72" y="298.26" width="10.23" height="2.19" transform="translate(-56.38 241.52) rotate(-17.94)"/><rect class="cls-2" x="743.54" y="294.44" width="10.23" height="2.19" transform="translate(-54.63 244.98) rotate(-17.94)"/><rect class="cls-2" x="716.72" y="292.26" width="10.23" height="2.19" transform="translate(-55.26 236.61) rotate(-17.94)"/><rect class="cls-2" x="728.54" y="288.44" width="10.23" height="2.19" transform="translate(-53.51 240.07) rotate(-17.94)"/><rect class="cls-2" x="740.36" y="284.61" width="10.23" height="2.19" transform="translate(-51.76 243.52) rotate(-17.94)"/><path class="cls-11" d="M127.39,292.82c-1.16-1.78-2.9-4.73-3.75-8.57-.85-3.83-6.14-11.12-8.36-13.73-2.21-2.61-11.01-6.22-14.4-9.42s-8.33-9.43-13.39-10.53c-2.88-.63-9.61.18-15.47,1.48.22,1.59.52,3.49.9,5.52,3.15-1.29,6.84-1.27,10.11-.57,7,1.5,13.4,5.8,18.93,10.19,2.91,2.31,5.64,4.84,8.18,7.55,1.22,1.31,2.4,2.65,3.53,4.04,1.17,1.43,2.4,2.87,3.23,4.52.04.08-.05.18-.13.11-1.37-1.41-2.48-3.05-3.74-4.54-1.3-1.54-2.67-3.02-4.1-4.45-4.98-4.97-10.62-9.19-16.72-12.67-3.11-1.77-6.39-3.28-9.92-3.99-3.13-.63-6.25-.48-9.27.37.34,1.76.75,3.58,1.23,5.35,2,7.37,4.92,16.4,7.3,20.72,1.11,2.02,2.04,4.02,2.76,5.96.63-.02,1.27-.05,1.9-.08,5.09-.22,10.18-.71,15.28-.44,4.43.23,9.42.87,13.24,3.29.29.18.08.58-.24.46-2.71-1.01-5.34-1.92-8.2-2.41-2.75-.47-5.54-.62-8.32-.62-4.48,0-8.94.41-13.42.49.68,1.95,1.15,3.84,1.35,5.63.08.66.21,1.47.38,2.34,7.32.49,15.49.23,18.56-.64,5.01-1.43,9.3-.27,12.66-.19s9.24-.45,11.37-1.73c2.13-1.28-.34-1.65-1.5-3.43ZM117.05,288.44c-3.36-2.11-6.84-3.54-10.73-4.37-6.82-1.45-14.17-1.87-20.37-5.33-3.31-1.85-6.51-5.05-6.23-9.14.13-1.83.94-3.55,2.51-4.57,1.4-.91,3.39-1.17,4.83-.21.38.26.2.81-.27.76-1.77-.22-3.52.64-4.45,2.17-.98,1.61-.74,3.81.09,5.42,1.61,3.13,5.19,4.9,8.34,6.09,3,1.13,6.16,1.79,9.3,2.44,3.12.64,6.23,1.28,9.26,2.31,2.82.96,5.68,2.19,7.82,4.31.06.06,0,.17-.09.12ZM62.37,258.95c-2.06,1.54-3.5,3.81-3.48,6.51,0,1.53.52,3.04,1.39,4.29.9,1.3,2.14,2.06,3.33,3.05.06.05,0,.12-.06.12-1.61-.14-3-1.49-3.88-2.76-.96-1.39-1.53-3.07-1.51-4.77.02-2.72,1.63-5.59,4.06-6.93-.26-.83-.51-1.63-.72-2.37-2.54,2.36-3.04,4.56-6.82,6.67-4.14,2.32-6.85,9.06-.52,19.53,5.58,9.24,17.47,13.54,20.2,14.42-.62-2.14-1.29-4.43-1.97-6.77-1.6-.32-3.18-.75-4.69-1.34-4.16-1.63-7.86-4.35-10.15-8.23-2.15-3.64-2.93-8.01-1.45-12.04.06-.16.33-.06.28.1-1.29,4.85.41,10.08,3.61,13.82,2.99,3.48,7.19,5.47,11.54,6.66.2.06.4.1.6.15-.6-2.03-1.2-4.08-1.8-6.09-.25-.1-.5-.19-.74-.3-2.95-1.31-5.59-3.23-7.69-5.69-.07-.08.06-.19.14-.12,2.29,2.17,4.98,3.92,7.92,5.09.03.01.05.02.08.03-2.37-7.93-4.57-15.03-5.48-17.14-.8-1.87-1.54-3.96-2.17-5.9Z"/><path class="cls-11" d="M77.98,309.38s-1.14-4-2.76-9.63c-.41-.12-.8-.25-1.15-.39-.67-.2-3.53-1.1-7.12-2.88l4.66,14.39c.97,3.01,1.23,14.08,1.94,14.44.6.3,6.83-.65,10.55-1.55.06-1.34-.15-3.76-1.83-6.56-2.55-4.26-4.3-7.83-4.3-7.83ZM86.86,301.44c.8,3.49,1.77,7.02,1.77,7.02,0,0,4.45,9.89,4.91,12.02,3.08-1.29,5.74-2.69,5.45-3.59-.57-1.77-1.36-4.45-.9-7.73.42-2.97,1.03-5.68,1.89-7.71-3.76.26-8.55.27-13.11,0Z"/><path class="cls-11" d="M388.84,280.07c-3.17-5.07-10.23-5.22-15.7-8.94-5.47-3.72-5.09-15.73-10.85-18.43-3.91-1.84-10.65,1.46-14.57,3.76-1.04-.44-2.21-.93-2.87-1.16-1.37-.47,2.45-7.5,2.45-7.5,0,0-4.22.15-5.4-.69-1.18-.84,4.45-6.01,4.45-6.01l-7.33-.98s-1.07-3.31-1.23-5.7c-.16-2.39-2.73-1.86-4.1-3.24-1.36-1.39,1.27-9.25,1.86-13.1.58-3.85-3.32-8.37-3.32-8.37,0,0-3.24,4.1-5.21,8.39-1.96,4.29-7.41-2.17-11.53-2.67-4.12-.49-7.82,3.14-12.22,2.74-4.4-.4-21.51,6.05-25.29,8.49-3.78,2.44-7.18,3.24-12.87,3.56-5.69.32-10.41,5.5-10.41,5.5,0,0-7.01,4.71-9.4,5.79-2.39,1.08-5.67-1.52-7.43.58-1.76,2.09-2.83,9.15-5.69,11.6-2.86,2.45-7.46-7.03-7.46-7.03l1.95,7.9,8.1,7.13-5.95-1.43s-2.85.62-2.77,1.81c.08,1.19,12.78,6.53,12.78,6.53,0,0-3.05,2.82-4.06,3.45-1.01.63-1.06,6.13-1.06,6.13l1.88,5.79s1.51-4.76,2.16-5.58c.65-.82,1.89,3.96,1.89,3.96l-2.07,5.85,3.24,7.18s1.2-1,2.04-2.18c.84-1.18,2.25,5.06,2.25,5.06l-1.84,5.19-18.4-9.31s-3.72,5.47-3.72,6.39c0,.46,13.48,7.41,26.81,14.15.08.49.15.99.2,1.49.25,2.66.63,1.93,2.35,3.51,1.73,1.57,3.24,7.18,3.24,7.18,0,0,.17.68.44,1.76l-25.29-12.62s-3.21-.49-2.76.89c.22.68,14.72,8.83,29.38,16.97,1.13,4.41,2.46,9.38,2.85,10.08.72,1.29,1.1.56,1.39-1.36.13-.83.98-2.92,2.07-5.22,9.05,5.02,17.36,9.61,21.44,11.93l-12.17,3.94c-7.48-4.09-20.01-10.94-21.78-11.84-2.56-1.31-3-3.6-4-3.89-1.01-.28-2.39.16-2.39.16l-8.03-4.1-3.27,6.85,5.66,2.43s1.18,1.75,2.36,2.59c1.18.84,4.57,1.87,7.31,2.81,2.04.7,17.24,8.12,24.87,11.87l7.56,23.35,99.32-32.16-2.23-6.9c4.37-1.69,5.78-4.1,7.4-7.27,1.87-3.65,8.56-24.41,9.63-32.38,1.08-7.97-1.48-19.64-4.65-24.71ZM263.79,333.43c.89-1.65,1.75-3.1,2.38-3.89.86-1.09,2.24-2.58,3.52-3.91,1.28.64,2.31,1.15,3.01,1.5v.9s1.53,2.86,2.62,3.42c1.06.54,3.11,7.66,4.05,9.75l-15.59-7.78ZM377.04,295.36c.7,4.55-.81,9.38-3.97,12.73-2.3,2.43-7.6,5.81-11.19,4.63-3.56-1.17-4.26-6.71-3.7-9.8.06-.31.13-.62.2-.93,1.2.31,2.5.72,3.24,1.18,1.58,1,2.87,2.91,3.34,3.7.47.79.44,2.13.44,2.13,0,0,1.48-4.38.59-6.74-.89-2.36-1.86-4.18-2.31-4.79-.27-.36-1.22-1.25-1.97-1.92,1.88-2.23,4.34-3.97,7.11-4.89,2.04-.68,4.48-.86,6.16.47,1.26,1,1.82,2.64,2.06,4.23Z"/><path class="cls-6" d="M251.38,272.66c-1.63.41-3.33.41-4.99.66-2.93.44-5.42,1.8-7.32,4.1-.31.37-.59.75-.85,1.15.15.21.31.53.47.9.66-1.01,1.43-1.95,2.4-2.75,1.51-1.26,3.26-1.96,5.19-2.23,1.71-.24,3.45-.27,5.14-.64,1.99-.43,6.1-2.72,3.95-5.26-.81-.96-2.27-1.1-3.44-1.09-2.02,0-4.09.13-6.09.48-3.54.62-7.19,2.41-8.72,5.85-.08.18-.02.37.15.47.47.28.93.13,1.1-.38.04-.11-.11-.19-.19-.13-.07,0-.14-.02-.21-.02,1.6-2.69,4.44-4.16,7.46-4.8,1.81-.38,3.65-.5,5.49-.58,1.17-.05,4-.31,4.1,1.45.09,1.68-2.38,2.52-3.64,2.83Z"/><path class="cls-6" d="M271.21,233.61c1.55-1.6,3.41-2.89,5.45-3.8.96-.43,1.97-.76,3-1,.83-.19,1.68-.21,2.51-.31-.56,1-.8,2.13-.13,3.21.42.67,1.01,1,1.68,1.12,1.45,1.66,3.16,3.08,4.68,4.7,2.2,2.34,3.87,5.01,4.08,8.28.04.64.93.57.97-.04.21-3.09-1.58-6.03-3.6-8.22-1.56-1.7-3.35-3.17-5.12-4.67.89-.06,1.81-.33,2.56-.56,4.57-1.36,9.56.11,13.97-2.01.86-.42,1.67-.96,2.35-1.64.13.12.27.23.41.33-.05.26-.09.52-.16.77-.44,1.69-1.21,3.26-1.88,4.86-.62,1.5-1.18,3.06-1.37,4.68-.14,1.28-.22,3.38.93,4.25.22.17.54.03.54-.26,0-.79-.38-1.52-.47-2.3-.09-.86,0-1.72.17-2.56.36-1.75,1.09-3.37,1.77-5,.53-1.28,1-2.61,1.26-3.98.34.15.69.27,1.08.33.94.15,1.87.07,2.8-.16,1.76-.44,3.41-1.5,4.45-2.99,1.16-1.65,1.57-3.93.67-5.79-.89-1.84-2.93-2.56-4.87-2.24-.19.03-.37.09-.55.14-.22-.48-.61-.87-1.09-1.17-.67.22-1.36.4-2.06.51.1.02.2.02.3.05.75.22,1.16.63,1.55,1.12-.46.24-.89.53-1.3.86-.5.41-.96.86-1.39,1.34-.2.22-.41.46-.6.72-.04-.02-.06-.04-.1-.06-1.88-.95-4.4-.41-6.36-.09-2.58.43-5.11,1.1-7.55,2.04-1.85.71-4.46,1.94-4.11,4.37.24,1.66,1.66,2.27,3.14,2.45-.39.07-.77.14-1.15.24-.98.25-1.96.74-2.98.77-1.2.04-2.18-.65-2.22-1.91-.02-.56.14-1.09.38-1.6.02,0,.03,0,.05,0,.27-.06.35-.36.26-.59.19-.33.39-.64.58-.95.08-.12-.11-.24-.2-.14-.24.25-.48.53-.72.83-1.04-.15-2.22.14-3.23.38-1.15.27-2.26.67-3.33,1.18-.34.17-.68.35-1.01.54.1-.23.03-.54-.31-.66-.33-.12-.68-.2-1.04-.27-.97.35-1.97.63-3.05.85,1.32.06,2.62.32,3.93.37-1.46.92-2.75,2.1-3.81,3.47-.13.16.1.37.24.22ZM304.13,228.49c-.1-.02-.19-.03-.29-.05.11-.12.22-.25.32-.38-.01.15-.01.29-.04.44ZM305.01,226.63c.61-1.5.48-3.21-.79-4.19.47-.41.92-.86,1.38-1.23.64-.5,1.33-.93,2.08-1.24.02.02.04.04.06.07.24.27.8.09.83-.27,0-.03,0-.05,0-.08,1.44-.32,3.1-.05,3.95,1.27.92,1.41.55,3.34-.28,4.7-.78,1.28-2.1,2.19-3.51,2.64-1.18.38-2.5.44-3.77.31.07-.6.09-1.26.01-1.91,0-.02.02-.04.03-.07ZM286.77,227.28c.76-1.71,3.16-2.29,4.77-2.83,1.85-.62,3.74-1.09,5.67-1.4,1.64-.26,3.49-.63,5.14-.28,1.23.26,1.82,1.03,1.9,1.97-.12-.11-.36-.06-.34.14.04.36.12.71.19,1.06-.09.27-.21.55-.36.82-.73,1.28-2,2.17-3.34,2.73-2.97,1.25-6.21.95-9.35,1.16.05-.23-.09-.51-.4-.51-1.6.04-4.98-.37-3.88-2.86Z"/><path class="cls-6" d="M241.12,242.66c2.89-.77,7.14-.84,9.42-3.11-1.24,1.94-2.33,4.2-2.59,6.43-.02.13.17.22.23.08.58-1.23,1-2.52,1.62-3.73.6-1.18,1.31-2.32,2.09-3.39,1.61-2.22,3.61-4.16,5.89-5.67,2.06-1.36,4.35-2.37,6.75-2.99-5.43.61-9.85,5.44-9.85,5.44,0,0-1.13.76-2.64,1.74-.15.19-.31.37-.46.56.05-.11.08-.23.13-.35-2.21,1.43-5.07,3.22-6.43,3.83-1.07.48-2.33.23-3.54-.01-1.41.35-2.76.79-3.9,1.59-.37.26-.7.55-1.02.85-.35.83-.69,1.79-1.05,2.81,1.1-1.93,2.96-3.45,5.34-4.09Z"/><path class="cls-6" d="M329.54,213.54c-.8,1.26-1.65,2.72-2.36,4.22.57-.51,1.03-1.15,1.38-1.82.39-.74.66-1.59.98-2.41Z"/><path class="cls-6" d="M252.19,266.17c1.01.55,2.02,1.1,3.04,1.64.95.49,1.93,1.14,2.96,1.44.08.02.14-.09.08-.15-.72-.64-1.66-1.08-2.49-1.57-.94-.56-1.89-1.09-2.84-1.63-1.9-1.08-3.79-2.16-5.69-3.23-1.84-1.05-3.68-2.11-5.54-3.13-.85-.47-1.72-.92-2.46-1.54-.61-.52-.91-1.28-1.58-1.71-.07-.04-.14.02-.16.08-.47,1.38,1.61,2.65,2.58,3.24,1.95,1.18,4.01,2.22,6.02,3.3,2.02,1.09,4.05,2.19,6.07,3.28Z"/><path class="cls-6" d="M315.21,225.68c1.32,2.45,3.79,4.24,6.09,5.71,2.22,1.42,4.88,2.56,7.57,2.15.12-.02.23-.05.35-.08-.27.5-.55.99-.8,1.5-.37.73-.75,1.45-1.09,2.2-.24.53-.79,1.44-.5,2.04,0,.06,0,.13,0,.19,0,.2.24.24.37.13.04-.03.07-.06.11-.09.3-.06.51-.36.68-.6.24-.33.4-.74.58-1.11.36-.74.66-1.5.98-2.25.32-.73.6-1.48.89-2.22.03-.08.07-.16.1-.25,1.18-.62,2.03-1.68,1.96-3.08.14.32.28.64.4.97.09.25.5.33.62.05,0-.01,0-.02.01-.04-.16-.33-.22-.81-.2-1.4-.04.13-.08.26-.13.38-1.11-2.55-2.58-4.88-4.42-6.99-1.02-1.18-2.19-2.35-3.48-3.34-.52.06-1.11-.06-1.73-.29,2.59,1.51,4.8,3.74,6.54,6.27-.97-1-2.1-1.86-3.14-2.51-1.84-1.15-5.37-1.86-6.17.96-.34,1.21.32,2.45,1.28,3.16,1.17.86,2.67.96,4.07,1.04.6.03.55-.9-.04-.94-1.05-.06-2.2-.11-3.14-.63-1.18-.65-1.93-2.29-.67-3.27,1.87-1.45,4.41.45,5.83,1.67,1.39,1.19,4.13,3.79,3.25,5.89-.06.15-.15.29-.23.42.04-.13.08-.27.11-.41.06-.24-.29-.44-.44-.23-.37.5-.67,1.05-.97,1.61-1.27.49-2.96.33-4.08.04-2.05-.53-3.91-1.7-5.6-2.95-1.7-1.25-3.48-2.7-4.35-4.68-.81-1.84-.78-4.35.91-5.7,1.51-1.21,3.48-1.14,5.22-.52-.69-.38-1.41-.81-2.13-1.23-1.72-.06-3.43.5-4.5,1.95-1.38,1.88-1.17,4.51-.1,6.48Z"/><path class="cls-6" d="M334.87,218.91c.04.8.03,1.6,0,2.4.28-1.21.54-2.33.67-3.24.58-3.85-3.32-8.37-3.32-8.37,0,0-.41.52-1.01,1.36,3.04-2.22,3.59,6.28,3.66,7.85Z"/><path class="cls-6" d="M283.97,227.62c.36-.19.73-.37,1.08-.57.17-.1.35-.21.5-.33.08-.06.15-.13.23-.2.06-.06.12-.1.15-.19,0-.03-.02-.06-.04-.07-.09-.02-.16.01-.25.04-.1.03-.19.06-.29.1-.18.08-.37.18-.54.28-.35.21-.68.44-1.02.67-.18.12,0,.37.18.27Z"/><path class="cls-6" d="M315.49,215.43c-.94-.11-1.86,0-2.76.22,1.47-.18,2.98-.1,4.42.24-.57-.23-1.12-.39-1.65-.46Z"/><path class="cls-6" d="M285.09,225.69c3.06-3.03,7.02-4.78,11.11-5.95,1.98-.57,3.99-1.03,5.99-1.47.21-.05.43-.09.65-.13-2.7,0-8.72,1.8-14.24,3.84-1.42.94-2.72,2.06-3.81,3.44-.16.2.12.45.3.27Z"/><path class="cls-6" d="M275.44,282.64c2.32,1.16,4.07,3.44,4.62,5.97.56,2.59-.21,5.22-2.03,7.15-1.62,1.73-4.74,3.4-7.11,2.22-2.84-1.42-1.51-5.73-.29-7.8.69-1.17,1.88-2.87,3.32-3.14,1.1-.21,1.42.86,1.11,1.72-.26.74-.77,1.37-1.25,1.98-.07.09.03.19.12.14,1.39-.72,2.78-1.92,2.07-3.66-.63-1.54-2.4-1.29-3.52-.51-2.66,1.86-4.62,5.79-4.1,9.05.27,1.68,1.33,3.03,3.02,3.45,1.54.38,3.22,0,4.62-.67,2.96-1.41,5.05-4.51,5.16-7.8.12-3.63-2.23-7.08-5.62-8.34-.15-.05-.26.15-.11.22Z"/><path class="cls-6" d="M261.95,311.5c6.27,1.2,12.53-.98,18.36-3.05,1.85-.66,3.7-1.3,5.56-1.9,1.92-.62,3.9-.96,5.83-1.52.25-.07.16-.43-.08-.43-1.95-.02-3.97.55-5.84,1.06-2.02.55-3.98,1.27-5.96,1.96-3.68,1.3-7.41,2.6-11.31,3.07-3.62.44-7.35.15-10.62-1.57-3.05-1.61-5.48-4.3-6.19-7.74,0-.04-.03-.08-.05-.11.24.08.47.15.71.21.95.23,2.04.3,3.02.06,0,.01,0,.03,0,.04,1.59,2.56,5.03,3.75,7.88,4.01,3.78.34,7.41-.81,10.68-2.65,3.76-2.12,6.98-5.02,10.36-7.67,1.73-1.36,3.52-2.66,5.44-3.75,1.59-.91,3.3-1.63,4.69-2.86,1.25-1.11,2.07-2.61,1.98-4.32-.05-1.05-.62-2.99-1.97-2.69-.05.01-.07.07-.06.12.15.58.53.83.78,1.38.3.66.3,1.45.15,2.15-.36,1.65-1.72,2.7-3.11,3.51-.58.34-1.18.65-1.78.96.36-.28.66-.63.84-1.07.05-.13-.06-.29-.21-.24-.66.23-1.22.57-1.86.85-.65.28-1.35.44-2.06.48-1.45.08-2.94-.28-4.07-1.22-1.93-1.6-2.53-4.46-1.74-6.79,1.06-.21,2.08-.66,2.96-1.34,1.23-.96,2.1-2.29,2.43-3.81,2.1,2.37,5.01,4.14,8.05,4.65.07.01.13,0,.19-.04.44.57,1.33.66,1.97.31,1.16-.63,1.3-2.47,2.57-2.89.61-.2,1.26.24,1.87.29.49.03.98-.07,1.43-.28.82-.38,1.7-1.22,1.59-2.19.24.14.66,0,.69-.37.33-4.64.15-9.54-2.39-13.6-.79-1.26-1.8-2.4-2.97-3.33,4.98-1.21,10.2.65,13.06,5.06.71,1.1,1.2,2.28,1.53,3.54.22.86.44,1.88,1.24,2.4.68.45,1.53.32,2.14-.2.74-.62.93-1.58.84-2.5-.12-1.24-.5-2.46-.77-3.67-.35-1.57-.71-3.15-1.06-4.72-.05-.23-.1-.47-.15-.71,2.17-1.5,4.48-2.78,6.98-3.64,1.37-.47,2.77-.82,4.2-1.03,1.14-.17,2.56-.44,3.69-.05.69.24,1.12.8.98,1.56-.15.82-.83,1.38-1.49,1.81-1.26.82-2.65,1.5-4.05,2.06-1.37.55-2.78,1-4.22,1.32-.76.17-1.52.3-2.29.39-.29.04-.64.13-.92.1-.35-.04-.27.12-.48-.28-.2-.37-.08-.4.16-.69,2.11-2.52,5.09-3.54,8.1-4.55.16-.05.11-.27-.05-.28-3.24-.12-6.99,1.99-8.99,4.51-.81,1.02-.39,2.24.97,2.32,1.75.1,3.74-.45,5.4-.92,1.94-.55,3.83-1.31,5.59-2.28,1.05-.58,2.25-1.28,2.87-2.35,0,0,0,.02.01.03-1.37,3.59-2.17,7.42-2.82,11.18-.37,2.18-.68,4.36-.91,6.56-.21,2.05-.66,4.35-.18,6.38.04.17.27.12.31-.02.66-1.98.54-4.28.77-6.35.24-2.19.56-4.38.95-6.55.66-3.67,1.6-7.27,2.4-10.91.17-.03.33-.13.39-.34.69-2.31,1.36-4.63,2.19-6.89.55-1.49,1.18-2.95,1.76-4.43.69-.4,1.28-.93,1.55-1.69,1.2-3.34-5.04-3.81-7-3.77-3.49.07-7.21,1.37-9.58,4.01-1.81-.56-3.75-.76-5.63-.49-1.79.26-3.98,1.05-5.03,2.65-.48-.27-1.03-.46-1.6-.55-2.35-.36-4.66.79-7.02.73-3.38-.09-8.51-1.64-10.75,1.81-.45-.73-1.12-1.31-2.02-1.63-2.75-.96-6.07.79-8.47,1.97-1.42.7-2.82,1.5-4.15,2.4-.13-.38-.35-.72-.57-1.07-.39-.62-.75-1.26-1.08-1.91-.7-1.35-1.28-2.77-1.8-4.21-.49-1.38-.87-2.8-1.17-4.23-.3-1.4-.34-2.91-.74-4.28-.02-.08-.15-.07-.17,0-.05.21-.06.43-.08.65-.07-.62-.39-1.17-1.07-1.54-.83-.45-1.92-.36-2.82-.34-1.33.04-2.65.2-3.95.48-2.48.52-4.88,1.49-7.03,2.84-4.05,2.55-7.13,6.46-8.6,11.01-2.15,1.08-3.95,2.94-5.69,4.53-1.46,1.33-3.14,2.57-5.18,2.71-1.03.07-2.09-.14-2.96-.65.05-.02.09-.08.06-.14-.71-1.67-.84-3.39-.53-4.99-.21.52-.43,1.02-.66,1.5.08,1.19.38,2.38.95,3.5-.46-.3-.88-.69-1.19-1.17-.07-.11-.25-.02-.2.1.95,2.35,3.74,3.1,6.06,2.56,3.79-.88,6.07-4.36,9.25-6.27,3.17-1.91,6.66-.99,9.22,1.48,1.37,1.32,2.34,3.02,3.06,4.76.38.92.7,1.86,1,2.81.25.77.47,1.57,1.03,2.18.06.06.13.07.21.07-1.29,1.12-2.33,2.67-3.08,4.07-1.94,3.59-3.15,7.83-2.31,11.92.41,2,1.33,3.91,2.65,5.44-2.4-1.49-5.43-2.02-8.1-1.13-1.87.62-3.46,1.98-3.99,3.92-.32,1.15-.24,2.39.12,3.52-.78.18-1.57.67-2.22,1.12-.72.5-1.4,1.05-2.04,1.65-.58.53-1.09,1.13-1.58,1.74.19-.06.4.18.61.58.5-.62,1.04-1.19,1.6-1.76.27-.27.54-.52.83-.77-.38.7-.63,1.47-.72,2.13-.21,1.46.23,2.81,1.01,3.97-1.08.95-1.71,2.55-2.13,3.86-.59,1.83-.71,3.73-.61,5.64.1,1.95.32,3.94.23,5.88.28.14.57.29.86.43.1-1.57,0-3.17-.12-4.7-.16-2.01-.31-4.07.08-6.07.19-.97.49-1.92.89-2.82.3-.67.69-1.31.98-1.99.25.35.54.69.85,1,1.1,1.12,2.47,2.08,3.95,2.66-.2.05-.38.24-.33.49.14.77.38,1.51.68,2.21-1.06,1.25-1.7,2.73-2,4.34-.15.82-.18,1.65-.12,2.48.04.55.08,1.21.28,1.77-.04.03-.09.05-.13.08-.89.55-1.74,1.15-2.59,1.77.28.14.56.28.84.43,0,.02,0,.03,0,.05.77-.56,1.54-1.11,2.36-1.58.19.1.47.06.5-.2,0-.03,0-.06,0-.08.72-.37,1.47-.67,2.27-.8.72-.12,1.44-.04,2.17-.05,1.15-.01,2.24-.34,2.81-1.4.09-.17.06-.32-.01-.43,1.25.61,2.58,1.06,3.92,1.31ZM285.74,276.38c-.43,1.95-1.98,3.57-3.84,4.25.01-.02.02-.05.04-.07.07-.11-.11-.23-.19-.13-.08.1-.15.21-.22.32-.81.24-1.68.31-2.52.14-3.04-.59-5.25-3.87-4.8-6.89.02-.16-.19-.21-.25-.07-.16-.74-.39-1.47-.64-2.16-.26-.74-.56-1.46-.83-2.2.92-2.93,2.5-5.55,4.75-7.66,1.22-1.14,2.67-2.27,4.28-2.8,1.58-.52,3.38-.1,4.45,1.24.01.02.03.02.05.03-.51.57-.96,1.2-1.33,1.86-.59,1.06-.97,2.22-1.17,3.41-.02-.04-.05-.09-.1-.11-.67-.37-1.35-.49-2.1-.41-.71.08-1.39.27-2.02.59-1.23.61-2.15,1.69-2.51,3.02-.32,1.21-.16,2.59.53,3.65.65,1,1.77,1.62,2.96,1.66,1.26.04,2.52-.52,3.19-1.61.12-.2-.2-.43-.34-.24-1.15,1.55-3.82,1.54-4.98-.01-.62-.83-.8-1.92-.59-2.92.23-1.1.9-1.99,1.87-2.55,1.17-.68,2.56-.66,3.88-.65.06,0,.11-.02.15-.06-.36,2.49.07,5.11,1.14,7.37.44.92,1,1.79,1.65,2.61-.22,0-.44.11-.5.39ZM301.55,262.72c2.62,3.88,2.88,8.87,2.71,13.4,0,.03,0,.05.01.08-.08-.03-.18,0-.24.1-.44.74-.83,1.46-1.7,1.77-.44.16-.89.17-1.35.05-.46-.13-.9-.31-1.39-.22-1,.17-1.54,1.1-2,1.91-.24.43-.53.96-.98,1.2-.4.21-1.07.2-1.26-.28-.11-.27-.47-.22-.55,0-3.33-1.39-6.41-3.08-8.47-6.17-2-3.02-2.67-7-1.4-10.44,1.23-3.3,4.4-5.86,7.95-6.14,3.55-.28,6.73,1.92,8.65,4.76ZM314.83,254.79c.6,2.42,1.13,4.86,1.69,7.28.26,1.11.51,2.22.77,3.34.25,1.07.89,2.71.03,3.65-.59.65-1.34.29-1.66-.39-.18-.4-.27-.82-.38-1.24-.24-.93-.57-1.82-1-2.67-.87-1.71-2.14-3.2-3.7-4.32-3.23-2.33-7.46-2.93-11.18-1.57-.61-.45-1.26-.83-1.94-1.14.05-.02.09-.03.14-.05.24-.11.22-.51-.09-.48-1.11.08-2.15-.79-2.11-1.94.05-1.35,1.27-2.31,2.41-2.77,2.13-.86,4.64-1.08,6.88-1.53,2.07-.41,4.42-1.23,6.55-.78,2.26.48,3.07,2.59,3.57,4.6ZM335.37,249.25c-.71,1.77-1.38,3.58-1.92,5.42-.12-2.39-3.46-2.21-5.59-1.87,1.89-1.02,2.09-3.19,1.1-4.95-.21-.38-.47-.72-.75-1.05.55.28,1.23.38,1.85.36,1.98-.07,4.04-.61,5.89-1.28.35-.13.73-.27,1.11-.43-.63,1.25-1.18,2.54-1.69,3.81ZM334.74,240.79c1.01.16,2.19.38,3.07.93,1.28.81.26,1.9-.65,2.42-1.04.6-2.27.97-3.42,1.29-1.2.34-2.47.62-3.72.68-.62.03-1.47,0-1.78-.64-.31-.63.16-1.42.7-1.76.65-.41,1.45-.46,2.2-.45.36,0,.75-.01,1.11.04.17.03.31.05.47.13.19.02.3.13.32.33.2.25.12.36-.24.33-.23-.22-.64.12-.43.37.65.79,1.94.08,1.66-.91-.44-1.54-3.01-1.35-4.2-1.15-1.38.22-2.76,1.26-2.67,2.8.02.27.09.49.18.69-1.02-.87-2.25-1.53-3.44-2-.16-.06-.32-.11-.48-.17,3.36-2.24,7.24-3.6,11.34-2.94ZM312.4,247.14c.44.31.81.72,1.06,1.25.04.09.21.12.22-.01.1-.92-.23-1.65-.8-2.19.7-.94,1.87-1.52,2.98-1.82,3.11-.85,6.6-.23,9.34,1.43,1.29.78,2.58,1.87,3.06,3.34.56,1.72-.76,2.78-2.33,3.05-1.66.29-3.48.09-5.13-.2-1.7-.3-3.5-.77-5.04-1.56-1.33-.68-.9-2,.23-2.66.89-.51,2.12-.87,3.14-.97.88-.09,2.16.13,2.38,1.17.23,1.07-.95,1.4-1.6.7-.14-.15-.34,0-.35.17-.07.84.74,1.28,1.5,1.23.88-.06,1.45-.91,1.46-1.74.02-.97-.59-1.79-1.47-2.18-1.07-.48-2.25-.27-3.34.05-1.14.33-2.45.65-3.23,1.63-.63.8-.81,1.95-.15,2.79.67.86,1.94,1.26,2.93,1.61,1.18.42,2.4.75,3.64.95,1.17.2,2.49.38,3.78.34-3.01.9-5.86,2.4-8.18,4.52-.44-2.23-.79-4.68-1.96-6.58-.13-.21-.28-.41-.43-.59.07-.05.07-.17-.04-.2-.08-.02-.16-.06-.23-.09-.32-.32-.68-.59-1.06-.8-.49-.68-.66-1.62-.45-2.46.02-.06.04-.12.06-.18ZM284.93,248.2c1.38-.56,2.89-1.19,4.41-1.15,1.75.05,2.87,1.32,3,3.01.12,1.56-.55,2.94-1.59,4.07-1.09,1.18-2.65,1.87-3.64,3.13-.13.17.02.36.21.32,1.38-.27,2.65-1.24,3.68-2.16,1.03-.91,1.91-2.02,2.32-3.35.42-1.35.33-2.9-.32-4.12,2.46-2.83,6.77-1.44,10-1.12,1.86.19,3.54-.2,5.36-.47,1.07-.16,2.33-.08,3.36.39-.24.86-.12,1.88.32,2.69-.85-.3-1.78-.41-2.74-.34-2.72.18-5.44.98-8.09,1.54-2.41.51-5.67.97-6.54,3.72-.27.85-.05,1.9.49,2.63-.46-.08-.93-.13-1.41-.14-2.74-.06-5.39,1.16-7.31,3.09-.03-.29-.05-.52-.25-.83-.22-.35-.52-.65-.87-.86-.73-.45-1.63-.64-2.48-.59-2.02.11-3.84,1.38-5.32,2.65-2.59,2.23-4.46,5.31-5.24,8.64-.07-.2-.14-.4-.2-.61-.4-1.36-.41-2.68-.47-4.09-.03-.84-.17-1.68-.47-2.42.09-.02.18-.09.16-.2-.42-3.18,1.88-5.84,4.15-7.75,2.82-2.37,6.06-4.31,9.47-5.69ZM259.85,250.61c-1.85-2.18-4.58-3.79-7.52-3.65-1.05.05-2.01.33-2.91.75,3.05-6.68,9.05-11.7,16.43-12.81,1.17-.18,5.75-.98,5.49,1.07-.12.9-.76,1.67-1.32,2.34-.62.76-1.28,1.48-1.99,2.16-2.76,2.64-6.18,4.46-9.84,5.49-.45.13-.98.32-1.46.22-.97-.19-.88-1.28-.5-1.96.52-.93,1.56-1.68,2.4-2.29,1.62-1.18,3.46-2.01,5.39-2.53-.58,1.05-1.46,1.84-2.39,2.62-.24.2-.08.6.25.51,1.76-.45,2.86-2.03,3.38-3.69.11-.36-.28-.59-.58-.52-2.53.57-4.88,1.65-6.96,3.2-1.41,1.05-3.33,2.59-2.63,4.59.71,2.05,3.37,1.22,4.87.76,2.3-.7,4.52-1.87,6.47-3.26,1.96-1.4,3.78-3.1,5.17-5.07.42-.59.82-1.39.98-2.19.01.95.14,1.92.26,2.8.21,1.49.57,2.96,1.01,4.39.45,1.45,1.05,2.84,1.73,4.19.33.65.69,1.29,1.07,1.92.27.44.53.92.92,1.25-1.28.92-2.5,1.92-3.6,3.03-1.92,1.93-3.52,4.47-3.13,7.24-.41-.68-.99-1.23-1.85-1.56-1.97-.75-3.69-.17-5.13.97.31-1.63-.7-3.72-1.29-5.21-.67-1.7-1.51-3.36-2.7-4.76ZM250.81,283.38c2.48-2.43,6.7-1.9,9.42-.2,1.39.87,2.7,2.17,3.18,3.78.53,1.75-.91,3-2.55,3.13-1.06.09-2.1-.27-3.05-.7-.82-.37-1.78-.76-2.4-1.43-.47-.52-.55-1.28.32-1.41.44-.07.88.06,1.31.17.81.21,1.65.4,2.25-.31.12-.14-.02-.34-.19-.29-1.14.33-2.18-.4-3.3-.33-.77.05-1.51.53-1.54,1.36-.04.85.68,1.54,1.32,1.98.87.59,1.89,1.07,2.87,1.42,1.73.62,3.77.61,5.16-.74,1.49-1.45,1.03-3.64-.11-5.15-.11-.14-.22-.28-.34-.41.8.5,1.69.88,2.64,1.11.17.04.22-.21.06-.26-3.14-1.02-5.45-3.75-6.43-6.86-1.05-3.32-.48-6.98.81-10.15,1.15-2.81,3.14-7.18,6.6-7.54,2.13-.22,3.35,1.19,3.46,3.23.11,1.94.04,3.67.69,5.54.7,2.03,1.83,3.99,2.04,6.17.22,2.26-.88,3.99-2.74,5.17-.06.04-.05.14.03.16,1.79.27,3.01-1.25,3.56-2.79.09-.25.16-.51.21-.76.44,1.46,1.36,2.79,2.65,3.64,1.26.85,2.74,1.13,4.18.95-.8,1.79-.74,3.92.2,5.69,1.25,2.37,4,3.62,6.63,3.25.49-.07,1.02-.18,1.52-.36-.43.24-.86.48-1.28.74-1.55.97-3.02,2.06-4.45,3.19-4.71,3.71-9.62,8.33-15.59,9.8,0-.03-.01-.06-.04-.08-3.75-3.82-4.22-9.3-2.46-14.18.82-2.28,2.03-4.75,3.84-6.41.91-.83,2.04-1.4,3.29-1.48.51-.03.96.07,1.45.16.54.1.99-.09,1.49.25.07.05.14-.07.09-.13-.42-.41-.62-1-1.18-1.23-.49-.2-1.1-.25-1.63-.25-1.14,0-2.26.37-3.21.97-2.47,1.56-4,4.53-5.01,7.18-1.94,5.07-1.84,11.82,2.97,15.29-.81.18-1.63.31-2.48.36-1.68.1-3.39-.08-4.99-.58-1.69-.53-3.04-1.49-4.43-2.54.84-.24,1.59-.7,2.08-1.49.59-.95.47-1.98,0-2.95-.39-.79-1.28-2.29-.4-3.08,2.14.09,4.32-.3,6.16-1,.08-.03.06-.15-.03-.15-1.99.11-3.93.48-5.93.37-1.77-.09-3.53-.53-5.03-1.49-2.7-1.73-4.24-5.77-1.65-8.31ZM249.43,299.01c-1.59-1.09-3.1-2.6-3.4-4.58-.14-.94-.02-1.91.34-2.79.28-.68.72-1.19,1.17-1.71.48-.34.97-.69,1.4-1.09.21.57.49,1.12.85,1.6,1.57,2.16,4.03,3.19,6.65,3.45-.6.56-.54,1.73-.21,2.48.39.9,1.17,1.82.73,2.84-.4.94-1.42,1.35-2.38,1.43-1.83.15-3.68-.62-5.16-1.63ZM257.22,310.2c-.83,1.32-2.81.74-4.1.93-.84.12-1.63.41-2.39.79-.07-.39-.16-.78-.2-1.18-.07-.78-.05-1.58.03-2.36.15-1.44.61-2.86,1.25-4.16,1.19,2.49,3.32,4.47,5.8,5.77-.15,0-.3.06-.4.22Z"/><path class="cls-6" d="M318.04,322.69c.38,1.78.63,3.6,1.31,5.3.07.18.31.13.32-.06.1-1.8-.31-3.59-.67-5.34-.38-1.86-.81-3.7-1.28-5.54-.91-3.54-1.99-7.04-3.25-10.48-2.53-6.92-5.7-13.54-9.54-19.83-.14-.23-.48,0-.35.23,3.55,6.42,6.63,13.15,9.06,20.07,1.19,3.39,2.25,6.83,3.15,10.3.46,1.77.88,3.55,1.26,5.34Z"/><path class="cls-6" d="M324.41,338.56c-.12-.07-.25.11-.14.2,2.08,1.71,2.92,4.59,2.57,7.21-.37,2.78-2.18,5.04-4.51,6.5-2.37,1.48-5.25,2.22-8.05,2.16-3.17-.07-5.9-1.48-7.65-4.15-1.67-2.54-2.5-5.68-2.91-8.66-.45-3.21-.29-6.41.3-9.6.5-2.73,1.14-5.53.53-8.3-.48-2.18-1.72-4.08-3.16-5.76-1.73-2.01-3.75-3.74-5.55-5.68-.91-.98-1.77-2.02-2.45-3.18-.69-1.18-1.05-2.46-1.42-3.77-.1-.34-.57-.21-.58.1-.09,2.43,1.47,4.73,2.97,6.5,1.68,1.98,3.65,3.67,5.44,5.54.87.91,1.7,1.89,2.39,2.95-.92-.18-2.06.26-2.92.42-1.43.27-2.85.57-4.27.84-2.87.55-5.74,1.06-8.62,1.55-2.8.47-5.61.89-8.42,1.25-2.6.34-5.27.53-7.82,1.15.11.06.23.11.34.17,2.5.12,5.04-.22,7.52-.48,2.88-.31,5.76-.67,8.63-1.09,2.79-.4,5.57-.87,8.34-1.4,1.36-.26,2.72-.52,4.07-.83,1.02-.23,2.65-.33,3.47-1.09.67,1.12,1.17,2.32,1.37,3.64.51,3.39-.72,6.76-1.06,10.11-.34,3.33-.12,6.71.66,9.96.6,2.5,1.51,5.07,3.14,7.09-.23.02-.47.12-.76.21-.91.27-1.81.55-2.71.83-1.87.59-3.73,1.18-5.6,1.77-1.8.57-3.6,1.14-5.41,1.71-1.74.55-3.55,1.07-5.18,1.89,0-.03,0-.05-.02-.08-1.16-2.8-2.27-5.66-3.63-8.38-.12-.24-.51-.05-.43.21.98,2.84,2.23,5.62,3.4,8.39.1.23.34.26.51.17.02.16.13.3.3.28,1.76-.25,3.49-.84,5.18-1.37,1.87-.59,3.73-1.17,5.6-1.76,1.8-.57,3.61-1.13,5.41-1.7.9-.28,1.8-.58,2.7-.87.51-.17.97-.22,1.22-.61.06.07.12.14.18.21,4.14,4.14,11.52,3.26,15.99.12,2.44-1.72,4.18-4.28,4.42-7.29.22-2.83-.9-5.58-3.37-7.07Z"/><path class="cls-6" d="M365.98,302.25c-.89-2.36-1.86-4.18-2.31-4.79-.27-.36-1.22-1.25-1.97-1.92.03-.04.06-.07.09-.1-.33-.26-.67-.5-1.02-.72,1.75-1.52,1.84-4.28.7-6.25-1.43-2.47-4.49-3.38-7.21-3.55,1.06-2.62.62-6.12-1.66-7.93-.08-.07-.18-.08-.27-.07-.28-1.36-.63-2.67-.93-3.82-1.04-3.89-2.38-7.65-4.14-11.27-.1-.2-.43-.2-.56-.04-2.08,2.5-4.4,4.95-6.22,7.65-.93.03-1.86.2-2.74.49-.51.17-1.03.38-1.52.63.9-2.61,1.1-5.55,1.49-8.24.45-3.03.97-6.05,1.93-8.97.69-2.11,1.66-4.16,3-5.93-.3-.09-.55-.19-.73-.32-.01,0-.01-.02-.02-.03-1.03,1.34-1.87,2.83-2.53,4.4-1.25,2.98-1.86,6.17-2.34,9.35-.27,1.78-.5,3.58-.79,5.36-.26,1.64-.64,3.26-.87,4.9-.93.64-1.7,1.48-2.09,2.57-.67,1.89-.07,4.08,1.1,5.64,1.31,1.75,3.36,3.04,5.4,3.87-5.22.21-10.56-2.41-15.84-2.87-1.63-.14-3.22-.04-4.82.28-2,.4-4,1.04-6.07.97-3.41-.13-6.14-2.3-7.83-5.13-.06-.1-.22-.02-.19.09.68,2.22,2.54,4.11,4.61,5.1,2.65,1.27,5.35.93,8.12.28,1.62-.38,3.22-.72,4.89-.7,1.62.01,3.23.28,4.82.64,3.01.67,5.95,1.68,9.02,2.05,3.14.38,6.74.18,9.34-1.83.31-.24,0-.71-.34-.51-1.73,1.01-3.48,1.48-5.24,1.61-1.41-.92-2.92-1.66-4.18-2.81-1.19-1.08-2.11-2.47-2.38-4.07-.29-1.72.32-3.29,1.71-4.33.11.08.25.08.33-.07.03-.07.05-.14.09-.21,1.23-.78,2.73-1.22,4.17-1.31,2.89-.19,5.91,1.09,6.78,4.05.37,1.28.29,2.72-.51,3.82-1.04,1.45-3.03,1.96-4.73,1.75-1.83-.23-4.08-1.78-3.4-3.92.28-.89,1.2-1.68,2.17-1.5.85.16,1.5,1.02,1.33,1.88-.08.42.57.57.65.14.29-1.53-1.16-2.95-2.69-2.65-1.84.37-2.63,2.46-1.96,4.09,1.55,3.77,7.86,3.43,9.55-.02.71-1.45.66-3.23.05-4.7-.69-1.67-2.02-2.81-3.71-3.4-.79-.28-1.63-.41-2.46-.43,2.1-2.07,3.94-4.5,5.84-6.77,1.69,3.6,3.12,7.33,4.1,11.18.82,3.24,1.72,6.89.85,10.22-.44,1.69-1.44,3.13-2.98,3.99-1.83,1.02-4.07,1.27-6.11,1.57-4.13.62-8.31.95-12.49.99-.54,0-.5.85.04.84,3.66-.03,7.31-.29,10.94-.82,2.97-.44,6.59-.72,8.99-2.72,2.83-2.37,2.93-6.23,2.33-9.87,1.5,2.11,2.01,4.65.65,7.08-.18.31.1.63.42.65,2.47.1,5.34.59,6.93,2.71,1.32,1.76,1.35,4.66-.63,5.95-.24.16-.21.51.04.65,4.43,2.39,6.64,7.8,5.48,12.58-.48-2.77-2.75-5.05-5.52-5.92-1.9-.6-3.95-.61-5.9-.26-1.92.34-3.97.97-5.71,1.97-.81-.18-1.63.33-2.38.62-1.01.38-2.02.76-3.03,1.13-1.95.73-3.91,1.45-5.86,2.2-1.95.75-3.89,1.52-5.84,2.28-1.01.39-2.01.79-3,1.2-.76.32-1.6.56-2.19,1.15-.98-2.4-.97-5.05-.84-7.63.12-2.51.3-5.06.95-7.5.69-2.61,1.95-4.68,4.02-6.4.18-.15.01-.41-.2-.3-3.59,1.77-4.71,6.34-5.17,9.96-.57,4.58-1.13,9.9,1.47,13.97,1.38,2.16,3.34,3.86,5.15,5.64,1.98,1.94,3.85,4,5.41,6.29,2.8,4.13,4.51,9.28,3.3,14.27-.64,2.65-2.17,4.99-4.42,6.54-1.01.7-2.13,1.23-3.33,1.52-1.28.32-2.58.21-3.88.32-.17.01-.22.24-.07.33,1.78.96,4.11.41,5.87-.37,1.92-.85,3.59-2.22,4.8-3.93.53-.75.93-1.55,1.27-2.39.7,0,1.3-.3,1.94-.55.75-.29,1.49-.59,2.24-.88l4.29-1.69c2.92-1.15,5.85-2.28,8.78-3.41.2-.08.33-.29.26-.51-.76-2.46-1.53-4.91-2.3-7.36,2.55-.2,5.06-1.09,7.51-1.79,1.4-.4,2.79-.81,4.19-1.23.37-.11,1.47-.65,1.83-.53.55.19.82,1.61.99,2.09,1.92,5.27,3.81,10.55,5.7,15.83.18.52.99.26.81-.26-1.04-2.99-2.09-5.98-3.13-8.97-.52-1.49-1.04-2.99-1.56-4.49-.5-1.44-.88-3.01-1.52-4.4-.4-.87-1.08-.97-1.94-.76-1.53.38-3.06.87-4.57,1.33-2.79.84-5.82,1.5-8.4,2.89-.83-2.66-1.66-5.32-2.49-7.98-.8-2.57-1.61-5.14-2.44-7.71-.79-2.46-1.38-5.22-2.6-7.5-.04-.07-.11-.09-.18-.08.17-.08.33-.18.47-.3,1.62-.48,3.19-1.18,4.84-1.57,1.72-.41,3.52-.53,5.27-.21.02-.1.04-.21.07-.31,1.2.31,2.5.72,3.24,1.18,1.58,1,2.87,2.91,3.34,3.7.47.79.44,2.13.44,2.13,0,0,1.48-4.38.59-6.74ZM349.63,312.04c.81,2.64,1.64,5.28,2.47,7.91,1.61,5.08,3.21,10.17,4.83,15.25-2.86,1.13-5.71,2.27-8.58,3.38-1.49.58-2.99,1.16-4.48,1.74-1,.39-2.33.69-3.28,1.32,1.04-3.11.9-6.61-.04-9.74-1.5-5.02-4.98-9.15-8.67-12.74-1.93-1.88-4.06-3.69-5.4-6.07-.18-.33-.35-.66-.49-1,0,0,0,0,0,0,.94.06,1.87-.4,2.75-.7,1.02-.34,2.03-.72,3.04-1.08,1.96-.71,3.93-1.4,5.88-2.14,1.95-.73,3.91-1.48,5.86-2.22,1.01-.38,2.02-.76,3.02-1.14.34-.13.69-.23,1-.36-.03.04-.05.08-.05.13.29,2.51,1.36,5.04,2.1,7.45Z"/><path class="cls-6" d="M240.96,282.55c.57-.45,1.18-.86,1.82-1.23,1.35-.77,2.8-1.35,4.31-1.71.79-.18,1.58-.3,2.38-.36-1.71.44-3.3,1.32-4.68,2.5-1.08.93-2.03,2.03-2.74,3.27-.37.65-.67,1.33-.92,2.04-.22.66-.49,1.37-.29,2.06.06.19.36.29.49.1.35-.51.42-1.11.61-1.69.21-.67.5-1.31.83-1.92.65-1.18,1.49-2.25,2.48-3.17,1.81-1.67,4.19-2.76,6.63-3.18,1.45.11,2.89.41,4.27.9.3.11.47-.39.19-.52-2.94-1.37-6.26-1.61-9.42-.96-1.56.32-3.09.88-4.49,1.65-.9.5-2.01,1.16-2.83,1.98,0,.02,0,.04,0,.04l-.56,1.6c.07,0,.14,0,.2-.04.64-.36,1.13-.9,1.7-1.36Z"/><path class="cls-6" d="M289.22,280.79c.03-.23.08-.45.08-.68,0-.13-.17-.17-.25-.09-.29.3-.39.71-.54,1.09-.16.4-.15.87-.09,1.29.12.83.47,1.6,1.07,2.2,1.09,1.07,2.92,1.32,4.03.15.53-.56.77-1.32.62-2.09-.01-.07-.11-.04-.11.02.01.8-.52,1.47-1.21,1.83-.67.36-1.42.3-2.09-.04-.71-.36-1.2-1.01-1.4-1.78-.11-.41-.1-.84-.11-1.26,0-.22-.02-.43,0-.65Z"/><path class="cls-6" d="M256.27,312.71c.07-.08-.04-.21-.12-.14-1.03.82-1.33,2.29-.99,3.54.54,2.02,2.54,3.36,3.57,5.1,1.27,2.15,1.65,4.74,1.6,7.2-.02,1.24-.16,2.48-.35,3.71-.15.99-.48,2.1-.23,3.09.06.23.34.19.44.04.56-.82.64-1.95.79-2.91.15-.95.26-1.91.33-2.87.15-2.13.02-4.3-.66-6.33-.64-1.9-1.77-3.35-3.09-4.82-1.28-1.42-2.98-3.84-1.27-5.61Z"/><path class="cls-6" d="M307.67,252.77c-1.42-.14-2.89.14-4.18.72-1.49.67-2.7,1.67-3.54,3.07-.08.13.12.26.22.15,1-1.15,2.33-2.11,3.75-2.65,1.32-.5,2.93-.76,4.3-.35.66.2,1.3.65,1.32,1.4.02.67-.4,1.31-.91,1.71-.61.47-1.42.57-2.17.59-.42.01-.87,0-1.29-.03-.43-.03-.82-.12-1.26-.1-.11,0-.13.14-.04.2.64.42,1.51.67,2.26.79.76.12,1.52.1,2.24-.2,1.16-.48,2.14-1.7,2.07-3-.09-1.46-1.47-2.18-2.77-2.3Z"/><path class="cls-6" d="M277.93,258.53c1.91-2.31,3.84-4.99,6.7-6.17,1.13-.46,2.39-.69,3.61-.55.61.07,1.19.24,1.74.5.47.22.94.57,1.48.54.11,0,.21-.1.2-.22-.08-1.2-1.95-1.67-2.91-1.8-1.39-.19-2.82.02-4.12.54-3.15,1.27-5.2,4.22-6.91,7.02-.07.12.11.25.2.14Z"/><path class="cls-6" d="M267.97,280.99c.11-.02.07-.19-.03-.19-1.91.08-3.35-1.77-4.07-3.34-.94-2.09-1.37-4.53-1.11-6.81.11-.99.52-2.19,1.61-2.46.96-.23,1.6.64,1.94,1.39.38.84.68,1.87.71,2.79.04,1.17-.57,1.62-1.44,2.21-.12.08-.16.29-.03.38.73.52,1.6-.01,2.05-.66.6-.87.56-1.92.36-2.91-.32-1.58-1-3.88-2.85-4.21-2.28-.41-3.27,2.1-3.35,3.91-.11,2.41.49,4.99,1.66,7.1.93,1.68,2.51,3.19,4.56,2.8Z"/><path class="cls-6" d="M373.92,348.14c-24.17,7.59-48.29,15.36-72.43,23.05-6.87,2.19-13.83,4.25-20.56,6.85-.22.09-.12.41.11.35,12.31-3.08,24.38-7.4,36.48-11.22,12.03-3.8,24.06-7.6,36.08-11.4,6.89-2.18,13.78-4.34,20.66-6.55.69-.22.35-1.29-.35-1.07Z"/><path class="cls-6" d="M281.82,373.84c-.17.06-.09.31.08.26,23.21-6.63,46.2-14.04,69.27-21.14,6.59-2.03,13.18-4.06,19.78-6.09.75-.23.37-1.4-.38-1.16-23.02,7.25-46.05,14.5-69.07,21.75-6.58,2.07-13.14,4.17-19.68,6.38Z"/><path class="cls-23" d="M424.37,236.74s-7.44-13.98-5.98-18.46c1.46-4.48,2.4-11.71,2.4-11.71,0,0-5.93,1.92-9.74-1.95-3.8-3.87-4.04-14.72-2.71-16.24s-.94-1.15-1.39-9.02c-.44-7.87-1.86-8.87,1.02-12.35,2.88-3.48,1.67-2.73.09-9.86-1.58-7.14-9.37-6.44-.11-12.71,9.26-6.28,11.75-3.08,15.7-3.26s6.69.41,8.99-6c2.3-6.4,2.69-14.18,14.24-19.01,11.55-4.83,22.09-7.15,22.09-7.15,0,0,8.38,6.76,13.68,1.76,5.3-5,3.79-7.42,11.58-8.12s11.08-1.77,14.11,3.08c3.03,4.85,1.33,10.86,5.86,6.85,4.53-4.02,4.25-9.39,10.25-6.6,6,2.79,10.87,9.96,10.87,9.96,0,0,12.8,2.41,15.39,7.04,2.59,4.63,6.17-3.45,9.95,2.61,3.78,6.06,6.26,11.45,6.26,11.45l13.09,6.69-1.54,13.25,4.42,8.04,7.9,12.01.21,14.14s.92,7.35-1.21,13.14c-2.13,5.79.1,13.81.1,13.81l-1.42,12.48,1.46,9s11.3,11.28,13.93,11.52,12.81,1.32,14.01,1.66c1.2.34,15,13.72,15,13.72l11.83,12.92s-49.73,73.65-99.34,94.81c-49.61,21.16-60.08,15.81-84.87-6.76l-3.63-11.21-7.38-3.08,28.47-28.52s-18.05-3.99-26.9-18.97c-8.86-14.98-16.79-34.99-16.79-34.99,0,0-7.77-13.88-6.72-20.77s-3.17-13.18-3.17-13.18Z"/><path class="cls-20" d="M493.44,326.58c7.99,1.12,33.29-8.24,36.42-11.79,3.14-3.55,8.38-12.57,11.27-21.14,2.89-8.57,10.83-44.87,10.83-44.87l8.96,2.58s7.52-6.44,9.18-9.93c1.66-3.49,6.66-16.44,6.66-16.44,0,0-.42-20.3-3.7-26.62-3.28-6.32-10.08-7.57-18.49-3.86-8.4,3.71-11.4,16.49-11.4,16.49-2.71,4.09-9.97-5.66-12.23-13.81-2.26-8.14,1.06-16.31-5.84-22.66-6.91-6.35-6.72-2.3-13.28-9.88-6.56-7.58-2.26-11.59-12-15.15-9.74-3.57-19.04-5.78-30.78,1.76-11.74,7.53-24.93,14.04-32.35,15.33-7.43,1.29-11.41,7.43-11.41,7.43,0,0-5.84,17.09-4.48,32.56"/><path class="cls-13" d="M499.82,149.5c9.74,3.57,5.44,7.57,12,15.15,6.56,7.58,6.37,3.54,13.28,9.88,6.91,6.35,3.58,14.52,5.84,22.66,2.26,8.14,9.53,17.9,12.23,13.81,0,0,3-12.79,11.4-16.49,8.4-3.71,15.21-2.46,18.49,3.86,3.28,6.32,3.7,26.62,3.7,26.62l11.82,4.76,1.33-11.65s-2.23-8.02-.1-13.81c2.13-5.79,1.21-13.14,1.21-13.14l-.21-14.14-7.9-12.01-4.42-8.04,1.54-13.25-13.09-6.69s-2.47-5.39-6.26-11.45c-3.78-6.06-7.36,2.02-9.95-2.61-2.59-4.62-15.39-7.04-15.39-7.04,0,0-4.87-7.17-10.87-9.96s-5.72,2.58-10.25,6.6c-4.53,4.02-2.83-2-5.86-6.85-3.03-4.85-6.32-3.78-14.11-3.08s-6.27,3.12-11.58,8.12c-5.3,5-13.68-1.76-13.68-1.76,0,0-10.54,2.32-22.09,7.15-11.55,4.83-11.94,12.61-14.24,19.01-2.3,6.4-5.04,5.81-8.99,6-3.95.19-6.44-3.01-15.7,3.26-9.26,6.28-1.47,5.58.11,12.71,1.58,7.14,2.79,6.38-.09,9.86-2.88,3.48-1.46,4.48-1.02,12.35.44,7.87,2.71,7.5,1.39,9.02s-1.09,12.37,2.71,16.24,9.74,1.95,9.74,1.95c-1.37-15.47,4.48-32.56,4.48-32.56,0,0,3.98-6.14,11.41-7.43,7.43-1.29,20.61-7.79,32.35-15.33,11.74-7.53,21.04-5.32,30.78-1.76Z"/><path class="cls-20" d="M408.38,234.21c-.56,9.38,12.37,26.03,26.95,18.6,14.58-7.43,19.97-30.35,10.47-36.87-9.5-6.53-36.46,2.2-37.42,18.27Z"/><path class="cls-20" d="M458.05,217.2c1.72,7.12,14.48,20.69,34.87,12.78,21.24-8.24,14.65-29.38,5.49-35.26-12.74-8.19-44.66,4.67-40.36,22.48Z"/><path class="cls-20" d="M448.83,219.4s2.06-3.69,8.8-3.41"/><path class="cls-13" d="M632.88,266.48s-13.8-13.38-15.01-13.72c-1.2-.34-11.38-1.41-14.01-1.66-1.97-.18-8.8-6.55-12.11-9.74,0,0-22.08,23.34-31.61,36.51-9.52,13.18-30.84,37.81-37.42,44.86-6.58,7.05-27.24,14.73-27.24,14.73-2.29-9.35-17.52-12.82-17.52-12.82l-28.47,28.52,7.38,3.08,3.63,11.21c24.79,22.57,35.27,27.92,84.87,6.76,49.61-21.16,99.34-94.81,99.34-94.81l-11.83-12.92Z"/><line class="cls-20" x1="500.51" y1="196.39" x2="552.49" y2="195.67"/><path class="cls-21" d="M481.91,383.64s11.52-7.34,12.39-15.25c.87-7.9-14.36-21.74,1.19-30.92,15.55-9.18,10.56,10.73,14.5,19.36,3.94,8.63,14.5,20.08,14.5,20.08,0,0,45.62-41.55,55.53-72.14,9.91-30.6,23.84-53.66,23.84-53.66"/><path class="cls-21" d="M457.71,344.95s27.93,4.26,33.7,13.65"/><path class="cls-2" d="M109.1,217.18c1.06-.61,2.79-1.36,4.61-1.95,2.6-.84,4.41-.93,5.99-.32,1.3.44,2.31,1.43,2.82,3.01.63,1.94-.1,4.06-1.97,5.52l.02.06c2.06-.14,4.81.72,5.78,3.7.56,1.73.3,3.27-.4,4.58-.99,1.74-3.06,3.07-6.34,4.13-1.79.58-3.2.9-4.1,1.07l-6.4-19.78ZM114.36,224.58l2.36-.76c2.74-.89,3.89-2.84,3.26-4.78-.76-2.36-2.85-2.7-5.48-1.85-1.19.39-1.85.7-2.24.92l2.1,6.47ZM117.48,234.21c.54-.07,1.29-.29,2.22-.59,2.68-.87,4.84-2.66,3.9-5.58-.89-2.75-3.61-3.12-6.45-2.2l-2.15.7,2.48,7.67Z"/><path class="cls-2" d="M139.6,229.23l-.8-1.75-.09.03c-.44,1.39-1.66,2.91-3.72,3.58-2.92.95-5.08-.63-5.76-2.72-1.13-3.49,1.35-6.41,6.94-8.18l-.1-.3c-.39-1.19-1.41-3.24-4.36-2.28-1.34.43-2.61,1.31-3.41,2.29l-1.16-1.54c.94-1.16,2.51-2.23,4.33-2.82,4.42-1.43,6.47,1.24,7.4,4.13l1.75,5.4c.41,1.25.86,2.46,1.36,3.38l-2.39.77ZM136.83,221.98c-2.88.87-5.97,2.43-5.06,5.23.55,1.7,1.95,2.14,3.29,1.7,1.88-.61,2.69-2.19,2.71-3.55,0-.3-.03-.62-.12-.88l-.81-2.51Z"/><path class="cls-2" d="M142.58,216.63c-.48-1.49-.91-2.71-1.38-3.87l2.33-.75.92,2.34.06-.02c.27-1.6,1.51-3.49,3.89-4.26,2-.65,5.49-.46,7.09,4.49l2.79,8.62-2.63.85-2.7-8.32c-.75-2.33-2.25-3.99-4.72-3.18-1.73.56-2.68,2.22-2.65,3.83-.01.37.07.83.22,1.28l2.81,8.68-2.63.85-3.41-10.53Z"/><path class="cls-2" d="M172.67,217.93c-.57.58-1.94,1.55-3.88,2.18-4.36,1.41-8.15-.63-9.58-5.04-1.44-4.45.56-8.65,5.28-10.18,1.55-.5,3.05-.56,3.88-.43l.06,2.22c-.74-.16-1.83-.16-3.27.3-3.31,1.07-4.31,4.1-3.33,7.11,1.08,3.34,3.9,4.7,6.76,3.78,1.49-.48,2.35-1.19,2.99-1.76l1.09,1.82Z"/><path class="cls-2" d="M186.43,205.96c1.73,5.34-1.22,8.87-4.71,10-3.91,1.27-7.85-.62-9.33-5.19-1.57-4.83.68-8.69,4.68-9.99,4.15-1.34,7.93.76,9.36,5.18ZM175.02,209.82c1.02,3.16,3.62,4.96,6.18,4.13,2.51-.81,3.62-3.78,2.57-7.03-.79-2.45-3.02-5.15-6.12-4.15-3.1,1-3.52,4.3-2.63,7.05Z"/><path class="cls-2" d="M204.06,184.95l5.65,17.45c.42,1.28.92,2.74,1.33,3.69l-2.36.76-.93-2.47-.06.02c-.28,1.87-1.65,3.67-4.01,4.43-3.49,1.13-7.13-.95-8.55-5.34-1.58-4.79.44-8.71,3.96-9.85,2.21-.71,4.04-.15,5.07.8l.06-.02-2.79-8.62,2.63-.85ZM205.52,198.42c-.11-.33-.28-.77-.48-1.07-.93-1.54-2.81-2.45-4.77-1.82-2.72.88-3.55,3.79-2.52,6.98.95,2.92,3.16,4.88,6,3.96,1.76-.57,3-2.26,2.83-4.38-.03-.39-.11-.75-.25-1.17l-.81-2.51Z"/><path class="cls-2" d="M214.55,197.51c1.21,3.53,3.95,4.26,6.58,3.41,1.88-.61,2.91-1.3,3.76-2.04l1.06,1.73c-.79.72-2.22,1.71-4.51,2.45-4.45,1.44-8.05-.63-9.46-4.98s.05-8.62,4.25-9.98c4.71-1.53,7.31,2.22,8.17,4.87.17.54.25.97.31,1.25l-10.14,3.28ZM221.64,193.14c-.51-1.68-2.07-4.04-5.02-3.09-2.66.86-3.03,3.68-2.65,5.57l7.67-2.48Z"/><path class="cls-2" d="M250.73,183.49c-1.06-2.76-2.33-6.07-3.11-8.59l-.09.03c.08,2.58.05,5.36-.06,8.46l-.39,10.91-1.97.64-6.35-8.52c-1.87-2.53-3.52-4.86-4.86-7.06l-.06.02c.75,2.53,1.69,5.95,2.49,9.02l2.25,8.8-2.48.8-5.11-20.56,3.31-1.07,6.58,8.62c1.64,2.21,3.04,4.19,4.22,6.12l.09-.03c-.15-2.19-.15-4.63-.07-7.46l.43-10.89,3.31-1.07,7.76,19.7-2.54.82-3.37-8.67Z"/><path class="cls-2" d="M260,182.8c1.21,3.53,3.95,4.26,6.58,3.41,1.88-.61,2.91-1.3,3.76-2.04l1.06,1.73c-.79.72-2.22,1.71-4.51,2.45-4.45,1.44-8.05-.62-9.46-4.98-1.41-4.36.04-8.62,4.25-9.98,4.71-1.53,7.31,2.22,8.17,4.87.17.54.25.97.31,1.25l-10.14,3.28ZM267.08,178.42c-.51-1.68-2.07-4.04-5.02-3.09-2.66.86-3.03,3.68-2.65,5.57l7.67-2.48ZM263.81,166.17l-2.26,5.45-1.88.61,1.24-5.12,2.89-.94Z"/><path class="cls-2" d="M272.12,170.36l3.06,2.44c.8.63,1.49,1.23,2.22,1.88l.09-.03c.2-1.02.43-1.92.66-2.85l1.03-3.73,2.83-.92-2.66,8.58,7.49,5.82-2.98.97-3.17-2.57c-.84-.65-1.58-1.3-2.36-2l-.06.02c-.2,1.02-.45,1.96-.71,3l-1.04,3.93-2.89.94,2.75-9.03-7.18-5.49,2.92-.95Z"/><path class="cls-2" d="M286.33,161.28c.32.89-.11,1.81-1.15,2.15-.92.3-1.81-.2-2.1-1.1s.16-1.86,1.11-2.17,1.84.19,2.14,1.12ZM289.39,180.73l-4.68-14.44,2.63-.85,4.68,14.44-2.63.85Z"/><path class="cls-2" d="M306.49,174.6c-.57.58-1.94,1.55-3.88,2.18-4.36,1.41-8.15-.63-9.58-5.04-1.44-4.45.56-8.65,5.28-10.18,1.55-.5,3.05-.56,3.88-.43l.06,2.22c-.74-.16-1.83-.16-3.27.3-3.31,1.07-4.31,4.1-3.33,7.11,1.08,3.34,3.9,4.7,6.76,3.78,1.49-.48,2.35-1.19,2.99-1.76l1.08,1.82Z"/><path class="cls-2" d="M320.25,162.63c1.73,5.34-1.22,8.87-4.71,10-3.91,1.27-7.85-.62-9.33-5.19-1.57-4.83.68-8.69,4.68-9.99s7.93.76,9.36,5.18ZM308.85,166.49c1.02,3.16,3.62,4.96,6.18,4.13,2.51-.81,3.62-3.78,2.57-7.03-.79-2.45-3.02-5.15-6.12-4.15-3.1,1-3.52,4.3-2.63,7.05Z"/><text class="cls-14" transform="translate(183.1 495.84) rotate(-107.94)"><tspan x="0" y="0">Quinien</tspan><tspan class="cls-17" x="77.98" y="0">t</tspan><tspan x="86.87" y="0">os </tspan><tspan class="cls-27" x="114.8" y="0">P</tspan><tspan class="cls-25" x="127.99" y="0">esos</tspan></text><text class="cls-15" transform="translate(152.7 492.62) rotate(-107.94)"><tspan x="0" y="0">500</tspan></text><text class="cls-19" transform="translate(152.7 492.62) rotate(-107.94)"><tspan x="0" y="0">500</tspan></text><text class="cls-18" transform="translate(152.7 492.62) rotate(-107.94)"><tspan x="0" y="0">500</tspan></text><text class="cls-24" transform="translate(643.11 61) rotate(72.06)"><tspan x="0" y="0">500</tspan></text><path class="cls-2" d="M616.12,337.22c.79-.41,1.84-.88,3.22-1.33,1.7-.55,3.08-.56,4.1-.1.94.4,1.69,1.23,2.07,2.41s.34,2.27-.11,3.19c-.6,1.27-1.92,2.24-3.61,2.79-.51.17-1,.3-1.42.33l1.73,5.35-1.72.56-4.27-13.19ZM619.92,343.1c.41-.02.9-.14,1.47-.32,2.08-.67,3.02-2.09,2.42-3.94s-2.09-2.21-4-1.59c-.75.24-1.31.49-1.58.66l1.68,5.19Z"/><path class="cls-2" d="M637.81,344.77l-8.68-11.94,1.86-.6,4.21,5.9c1.16,1.62,2.18,3.08,3.04,4.53h.04c-.12-1.68-.11-3.54-.08-5.48l.12-7.33,1.84-.6-.45,14.9-1.9.62Z"/><path class="cls-2" d="M652.85,327.03c-.36.1-.81.26-1.28.5-2.59,1.34-3.39,3.81-3,6.03l.06-.02c.35-1.01,1.2-2.03,2.63-2.49,2.28-.74,4.41.39,5.23,2.9.76,2.36-.14,5.05-2.81,5.92s-5.25-.66-6.33-4.01c-.82-2.54-.56-4.83.3-6.51.73-1.4,1.94-2.51,3.5-3.24.49-.25.92-.41,1.24-.51l.46,1.43ZM654.76,334.62c-.6-1.84-2.01-2.61-3.61-2.09-1.05.34-1.81,1.31-1.98,2.39-.05.24-.05.52.05.84.73,2.11,2.2,3.36,4.03,2.77,1.51-.49,2.11-2.06,1.52-3.9Z"/><path class="cls-2" d="M664.01,334.94c.39-.08.81-.26,1.39-.51.97-.47,1.78-1.19,2.29-2.12.6-1.05.85-2.38.59-3.98l-.06.02c-.43,1.1-1.29,1.95-2.58,2.37-2.32.75-4.37-.51-5.08-2.71-.79-2.44.28-5.15,2.92-6s4.95.76,6.02,4.05c.92,2.83.61,5.12-.26,6.76-.68,1.29-1.85,2.33-3.19,2.94-.6.3-1.15.5-1.57.62l-.46-1.43ZM662.24,327.32c.52,1.6,1.86,2.42,3.36,1.93,1.17-.38,1.89-1.25,2.1-2.17.05-.19.04-.41-.05-.68-.71-2.2-2.07-3.62-3.89-3.03-1.49.48-2.11,2.13-1.52,3.95Z"/><path class="cls-2" d="M677.21,329.7c.93.22,2.18.26,3.37-.13,1.76-.57,2.49-1.84,2.06-3.18-.4-1.25-1.35-1.73-3.38-1.84-2.43-.07-4.14-.76-4.75-2.64-.67-2.08.55-4.18,3.14-5.02,1.37-.44,2.46-.45,3.16-.3l-.02,1.56c-.51-.1-1.53-.2-2.74.19-1.82.59-2.16,1.9-1.87,2.81.4,1.25,1.42,1.6,3.49,1.72,2.54.14,4.04.86,4.68,2.82.67,2.06-.28,4.34-3.43,5.36-1.29.42-2.82.5-3.68.25l-.03-1.59Z"/><path class="cls-2" d="M687.58,314.1c1-.5,2.21-1.02,3.57-1.46,2.48-.8,4.43-.8,5.95-.09,1.54.7,2.73,2.03,3.43,4.18s.61,4.18-.24,5.81c-.84,1.65-2.69,2.99-5.28,3.83-1.23.4-2.28.67-3.18.85l-4.25-13.13ZM693.13,325.35c.46-.06,1.1-.25,1.77-.47,3.68-1.19,5.02-3.9,3.85-7.51-1-3.16-3.43-4.58-7.07-3.4-.89.29-1.54.59-1.96.83l3.41,10.54Z"/><path class="cls-2" d="M707.19,309.18l-4.06,1.31-.47-1.47,9.88-3.2.47,1.47-4.08,1.32,3.85,11.88-1.74.56-3.85-11.88Z"/><path class="cls-2" d="M721.62,313l-.03,4.65-1.78.58.21-14.82,2.08-.67,8.88,11.88-1.84.6-2.79-3.74-4.74,1.53ZM725.56,310.24l-2.55-3.42c-.58-.78-1.03-1.5-1.48-2.21h-.04c.06.87.1,1.75.11,2.65l-.06,4.29,4.02-1.3Z"/><path class="cls-1" d="M272.28,428.02c.83-.43,1.95-.93,3.42-1.41,1.81-.58,3.27-.59,4.35-.11.99.42,1.79,1.3,2.2,2.56s.36,2.41-.11,3.38c-.63,1.34-2.04,2.38-3.82,2.95-.55.18-1.06.32-1.51.35l1.84,5.67-1.83.59-4.53-13.99ZM276.32,434.25c.43-.02.95-.15,1.56-.34,2.21-.71,3.2-2.22,2.57-4.17s-2.22-2.34-4.24-1.69c-.8.26-1.39.52-1.67.71l1.78,5.5Z"/><path class="cls-1" d="M295.3,436.02l-9.2-12.66,1.97-.64,4.46,6.26c1.23,1.71,2.31,3.27,3.23,4.8h.04c-.13-1.78-.12-3.76-.09-5.81l.13-7.77,1.95-.63-.48,15.79-2.02.65Z"/><path class="cls-1" d="M311.25,417.21c-.38.1-.86.28-1.36.53-2.74,1.42-3.59,4.04-3.18,6.39l.06-.02c.37-1.07,1.28-2.15,2.79-2.64,2.41-.78,4.68.41,5.54,3.08.81,2.5-.14,5.36-2.98,6.28-2.92.94-5.56-.7-6.71-4.25-.87-2.69-.59-5.12.32-6.9.77-1.48,2.06-2.66,3.72-3.43.52-.26.97-.43,1.31-.54l.49,1.51ZM313.28,425.25c-.63-1.95-2.13-2.77-3.83-2.22-1.11.36-1.92,1.39-2.1,2.54-.06.25-.05.55.06.89.77,2.23,2.34,3.56,4.27,2.93,1.6-.52,2.24-2.19,1.61-4.14Z"/><path class="cls-1" d="M323.08,425.58c.41-.09.86-.28,1.47-.55,1.02-.49,1.89-1.26,2.43-2.25.64-1.11.9-2.52.63-4.22l-.06.02c-.46,1.17-1.37,2.07-2.74,2.51-2.46.8-4.63-.54-5.38-2.87-.84-2.58.3-5.46,3.09-6.36,2.79-.9,5.25.81,6.38,4.29.97,3,.64,5.43-.28,7.17-.72,1.37-1.96,2.47-3.38,3.11-.64.32-1.22.53-1.67.66l-.49-1.51ZM321.21,417.51c.55,1.7,1.97,2.56,3.56,2.05,1.24-.4,2.01-1.32,2.23-2.3.05-.2.05-.43-.05-.73-.75-2.33-2.19-3.84-4.13-3.21-1.57.51-2.24,2.26-1.61,4.19Z"/><path class="cls-1" d="M337.09,420.03c.98.24,2.32.27,3.58-.14,1.87-.61,2.64-1.95,2.18-3.37-.43-1.32-1.43-1.84-3.58-1.95-2.58-.07-4.39-.81-5.04-2.8-.71-2.21.58-4.43,3.33-5.33,1.45-.47,2.61-.47,3.35-.32l-.02,1.65c-.54-.1-1.62-.22-2.91.2-1.93.63-2.29,2.02-1.98,2.98.43,1.32,1.5,1.69,3.7,1.82,2.69.15,4.29.91,4.96,2.99.71,2.18-.3,4.6-3.64,5.68-1.36.44-2.98.53-3.9.27l-.03-1.68Z"/><path class="cls-1" d="M348.1,403.49c1.06-.53,2.34-1.08,3.79-1.55,2.62-.85,4.69-.85,6.3-.09,1.63.75,2.9,2.15,3.64,4.44s.65,4.43-.26,6.16c-.89,1.75-2.85,3.17-5.6,4.06-1.3.42-2.41.71-3.37.91l-4.51-13.92ZM353.98,415.42c.49-.07,1.17-.26,1.88-.49,3.91-1.26,5.32-4.14,4.08-7.96-1.06-3.35-3.64-4.86-7.5-3.6-.95.31-1.63.62-2.08.88l3.62,11.17Z"/><path class="cls-1" d="M368.89,398.27l-4.3,1.39-.5-1.55,10.48-3.39.5,1.55-4.33,1.4,4.08,12.6-1.85.6-4.08-12.6Z"/><path class="cls-1" d="M384.19,402.32l-.03,4.93-1.89.61.23-15.71,2.2-.71,9.41,12.59-1.95.63-2.95-3.96-5.02,1.62ZM388.37,399.39l-2.71-3.63c-.61-.82-1.1-1.59-1.57-2.34h-.04c.06.92.11,1.86.12,2.81l-.06,4.54,4.26-1.38Z"/></g></svg>