<?xml version="1.0" encoding="UTF-8"?><svg id="Capa_2" xmlns="http://www.w3.org/2000/svg" viewBox="0 0 804.6 690.79"><defs><style>.cls-1,.cls-2,.cls-3,.cls-4{fill:#a32a22;}.cls-1,.cls-5,.cls-6,.cls-7,.cls-8,.cls-9,.cls-10{stroke-miterlimit:10;}.cls-1,.cls-6,.cls-7,.cls-8,.cls-9,.cls-10{stroke:#a32a22;}.cls-1,.cls-8,.cls-10{stroke-width:1.03px;}.cls-2,.cls-11,.cls-12,.cls-13,.cls-14,.cls-15,.cls-16,.cls-17,.cls-18,.cls-19,.cls-20{stroke-width:0px;}.cls-5{stroke:#ffe5b2;stroke-width:.48px;}.cls-5,.cls-6,.cls-7,.cls-8,.cls-9{fill:none;}.cls-5,.cls-6,.cls-4{font-family:Ubuntu-Medium, Ubuntu;font-size:64.02px;font-weight:500;}.cls-6{stroke-width:1.93px;}.cls-7{stroke-width:.93px;}.cls-11{fill:#ff9c70;}.cls-12{fill:#ffaf84;}.cls-3{font-family:Antonio-Regular, 'Antonio Regular';font-size:28.06px;letter-spacing:.2em;}.cls-13{fill:#dfd4a3;}.cls-14{fill:#ffe5b2;}.cls-21{fill:#511e13;font-family:Ubuntu-Bold, Ubuntu;font-size:20.97px;font-weight:700;}.cls-9{stroke-width:1px;}.cls-22{fill:#ffe9d1;font-family:Ubuntu-Regular, 'Ubuntu Regular';font-size:46.97px;}.cls-15{fill:#d0453d;}.cls-10,.cls-19{fill:#ff958f;}.cls-16{fill:#ffcf70;}.cls-23{letter-spacing:-.01em;}.cls-17{fill:#e7e7e7;}.cls-18{fill:#a15b57;}.cls-20{fill:#bc5954;}</style></defs><g id="Capa_1-2"><rect class="cls-17" x="42.47" y="175.52" width="728.69" height="341.54" transform="translate(-123.86 284.61) rotate(-33.78)"/><rect class="cls-14" x="33.45" y="173.73" width="728.69" height="341.54" transform="translate(-124.38 279.29) rotate(-33.78)"/><rect class="cls-12" x="142.67" y="311.15" width="26.16" height="100.59" transform="translate(-174.65 147.59) rotate(-33.78)"/><rect class="cls-13" x="163.41" y="296.91" width="26.16" height="96.97" transform="translate(-162.23 156.41) rotate(-33.78)"/><path class="cls-13" d="M325.33,509.37c-19.02-19.64-37.97,4.8-38.64,11.72-.67,6.92,6.01,21.58,6.01,21.58l35.85,53.6,21.75-14.55-19.96-29.84s14.01-22.87-5-42.51Z"/><path class="cls-12" d="M272.8,496.95c-4.85,3.73-2.58,10.05-1.9,14,.68,3.95-1.56,10.84-4.71,20.78-3.15,9.94,4.76,25.49,4.76,25.49l35.85,53.6,21.75-14.55-35.85-53.6c-7.95-12.04,1.69-25.88-2.39-36.37-4.08-10.49-12.66-13.08-17.51-9.34Z"/><rect class="cls-12" x="322.31" y="489.53" width="213.37" height="35.9" transform="translate(-209.73 324.14) rotate(-33.78)"/><path class="cls-11" d="M687.43,152.55l15.83,3.64,2-7.33-2.75-4.11-2.07,7.45-8.19-2.47.38-1.25,6.92,2.08,2.01-7.25-.64-.95-9.11-3.01-4.39,13.19ZM691.48,128.25l-50.18,33.56,18.2,27.21,50.18-33.56-3.46-5.18-2.03,7.45-18.44-4.24,5.25-15.78,8.75,2.89-3.95-5.91-8.35-2.09,4.81-3.21-.77-1.16ZM694.03,162.85l-10.65,7.12,2.01-9.28,8.64,2.16ZM676.1,160.49l-5.34,19.6-18.44-4.24,5.25-15.78,12.34,4.08-2.89,10.4-8.19-2.47.38-1.25,6.92,2.08,2.2-7.93-9.93-3.28-4.39,13.19,15.83,3.64,5-18.37-20.82-5.2,8.29-5.54,8.64,2.16,2.01-9.28,8.29-5.54-5.14,23.72Z"/><rect class="cls-16" x="168.03" y="617.03" width="140.66" height="35.9" transform="translate(-312.78 239.68) rotate(-33.78)"/><path class="cls-11" d="M91.08,541.28l4.11,6.15,1.1.36-.25.91,2.74,4.1,2.45-8.98-10.15-2.53ZM201.54,465.54l1.98-9.15-.82-1.23-116.92,78.2.77,1.16,2.15-1.44,8.64,2.16,2.01-9.28,8.29-5.54-5.14,23.72-2.75,10.1,4.24,6.34,116.92-78.2-1.42-2.12-5.49,3.67,1.95-8.97-7.06-10.55-2.18,10.05-5.34,19.6-18.44-4.24,5.25-15.78,12.34,4.08-2.89,10.4-8.19-2.47.38-1.25,6.92,2.08,2.2-7.93-9.93-3.28-4.39,13.19,15.83,3.64,5-18.37-20.82-5.2,8.29-5.54,8.64,2.16ZM109.78,553.61l2.01-9.28,8.64,2.16-10.65,7.12ZM131.89,540.5l-18.44-4.24,5.25-15.78,12.34,4.08-2.89,10.4-8.19-2.47.38-1.25,6.92,2.08,2.2-7.93-9.93-3.28-4.39,13.19,15.83,3.64,5-18.37-20.82-5.2,8.29-5.54,8.64,2.16,2.01-9.28,8.29-5.54-5.14,23.72-5.34,19.6ZM144.52,530.38l2.01-9.28,8.64,2.16-10.65,7.12ZM189.9,500.03l-10.65,7.12,2.01-9.28,8.64,2.16ZM171.96,497.67l-5.34,19.6-18.44-4.24,5.25-15.78,12.34,4.08-2.89,10.4-8.19-2.47.38-1.25,6.92,2.08,2.2-7.93-9.93-3.28-4.39,13.19,15.83,3.64,5-18.37-20.82-5.2,8.29-5.54,8.64,2.16,2.01-9.28,8.29-5.54-5.14,23.72Z"/><path class="cls-16" d="M337.77,179.2l.44.65-57.52,39.96s59.55,45.17,107.13,34.21l139.84,209.08,107.42-71.84L445.18,107.36l-107.42,71.84Z"/><rect class="cls-16" x="593.32" y="3.76" width="60.37" height="154.29" transform="translate(60.26 360.28) rotate(-33.78)"/><rect class="cls-16" x="31.02" y="352.99" width="140.66" height="154.29" transform="translate(-222.02 128.94) rotate(-33.78)"/><path class="cls-13" d="M222.53,390.69l12.06,18.03s-16.97,16.04-19.3,26.57c-2.33,10.52.03,21.98-7.1,23.49-7.14,1.51-18.32.03-17.69-16.69.63-16.72,1.46-27.06,4.46-32.32,3-5.26,14.26-14.02,17.26-15.62,3-1.6,10.31-3.46,10.31-3.46Z"/><path class="cls-12" d="M209.25,370.83s-31.99,23.75-37.99,37.33c-4.91,11.11.77,30.33-3.23,40.5-1.52,3.86-.14,8.26,3.24,10.68h0c7,5.02,16.86,1.2,18.62-7.23,1.52-7.27,2.82-16.94,3-29.14,0,0,.73-16.54,29.64-32.27l-13.28-19.86Z"/><rect class="cls-16" x="730.33" y="267.81" width="60.37" height="35.9" transform="translate(-30.51 471.03) rotate(-33.78)"/><rect class="cls-20" x="581.17" y="41.61" width="77.11" height="97.43" transform="translate(54.38 359.78) rotate(-33.78)"/><rect class="cls-20" x="44.55" y="420.26" width="18.05" height="97.43" transform="translate(-251.68 108.94) rotate(-33.78)"/><rect class="cls-2" x="647.51" y="152.77" width="6.74" height="47.56" transform="translate(11.7 391.65) rotate(-33.78)"/><rect class="cls-2" x="664.18" y="145.83" width="1.71" height="72.42" transform="translate(11.04 400.44) rotate(-33.78)"/><rect class="cls-15" x="153.18" y="381.92" width="17.48" height="38.19" transform="translate(-195.61 157.7) rotate(-33.78)"/><rect class="cls-15" x="187.74" y="433.6" width="17.48" height="38.19" transform="translate(-218.51 185.64) rotate(-33.78)"/><rect class="cls-15" x="222.31" y="485.28" width="17.48" height="38.19" transform="translate(-241.41 213.57) rotate(-33.78)"/><rect class="cls-15" x="256.87" y="536.96" width="17.48" height="38.19" transform="translate(-264.31 241.51) rotate(-33.78)"/><rect class="cls-2" x="314.12" y="489.11" width="42.25" height="2.5" transform="translate(-216.03 269.14) rotate(-33.78)"/><rect class="cls-2" x="311.66" y="487.41" width="31.17" height="1.92" transform="translate(-216.27 264.35) rotate(-33.78)"/><rect class="cls-2" x="376.22" y="447.58" width="42.25" height="2.5" transform="translate(-182.46 296.65) rotate(-33.78)"/><rect class="cls-2" x="373.76" y="445.87" width="31.17" height="1.92" transform="translate(-182.7 291.87) rotate(-33.78)"/><rect class="cls-2" x="240.44" y="305.52" width="56.7" height="1.92" transform="translate(-125.02 201.16) rotate(-33.78)"/><rect class="cls-2" x="228.12" y="310.7" width="88.27" height="1.92" transform="translate(-127.32 203.96) rotate(-33.78)"/><rect class="cls-2" x="237.02" y="315.88" width="77.39" height="1.92" transform="translate(-129.61 206.76) rotate(-33.78)"/><rect class="cls-2" x="250.84" y="321.07" width="56.7" height="1.92" transform="translate(-131.91 209.56) rotate(-33.78)"/><path class="cls-2" d="M715.42,296.98c-.37-.39-1-.41-1.38-.04-.39.37-.41.99-.04,1.38l6.12,6.48c.33.35.86.4,1.25.14.05-.03.09-.06.13-.1.39-.37.41-.99.04-1.38l-6.12-6.48ZM713.3,296.22c.39-.37.41-.99.04-1.38l-7.48-7.92c-.37-.39-1-.41-1.38-.04-.39.37-.41.99-.04,1.38l7.48,7.92c.33.35.86.4,1.25.14.04-.03.09-.06.13-.1ZM704.04,286.35c.39-.37.41-.99.04-1.38l-6.75-7.15-1.42,1.34,6.75,7.15c.33.35.86.4,1.25.14.05-.03.09-.06.13-.1Z"/><path class="cls-2" d="M724.23,291.09c-.37-.39-1-.41-1.38-.04-.39.37-.41.99-.04,1.38l6.12,6.48c.33.35.86.4,1.25.14.05-.03.09-.06.13-.1.39-.37.41-.99.04-1.38l-6.12-6.48ZM722.11,290.33c.39-.37.41-.99.04-1.38l-7.48-7.92c-.37-.39-1-.41-1.38-.04-.39.37-.41.99-.04,1.38l7.48,7.92c.33.35.86.4,1.25.14.04-.03.09-.06.13-.1ZM712.85,280.46c.39-.37.41-.99.04-1.38l-6.75-7.15-1.42,1.34,6.75,7.15c.33.35.86.4,1.25.14.05-.03.09-.06.13-.1Z"/><path class="cls-2" d="M733.03,285.2c-.37-.39-1-.41-1.38-.04-.39.37-.41.99-.04,1.38l6.12,6.48c.33.35.86.4,1.25.14.05-.03.09-.06.13-.1.39-.37.41-.99.04-1.38l-6.12-6.48ZM730.92,284.44c.39-.37.41-.99.04-1.38l-7.48-7.92c-.37-.39-1-.41-1.38-.04-.39.37-.41.99-.04,1.38l7.48,7.92c.33.35.86.4,1.25.14.04-.03.09-.06.13-.1ZM721.66,274.57c.39-.37.41-.99.04-1.38l-6.75-7.15-1.42,1.34,6.75,7.15c.33.35.86.4,1.25.14.05-.03.09-.06.13-.1Z"/><path class="cls-2" d="M739.72,278.55c.39-.37.41-.99.04-1.38l-7.48-7.92c-.37-.39-1-.41-1.38-.04-.39.37-.41.99-.04,1.38l7.48,7.92c.33.35.86.4,1.25.14.04-.03.09-.06.13-.1ZM730.46,268.68c.39-.37.41-.99.04-1.38l-6.75-7.15-1.42,1.34,6.75,7.15c.33.35.86.4,1.25.14.05-.03.09-.06.13-.1ZM741.84,279.31c-.37-.39-1-.41-1.38-.04-.39.37-.41.99-.04,1.38l6.12,6.48c.33.35.86.4,1.25.14.05-.03.09-.06.13-.1.39-.37.41-.99.04-1.38l-6.12-6.48Z"/><path class="cls-2" d="M750.65,273.42c-.37-.39-1-.41-1.38-.04-.39.37-.41.99-.04,1.38l6.12,6.48c.33.35.86.4,1.25.14.05-.03.09-.06.13-.1.39-.37.41-.99.04-1.38l-6.12-6.48ZM748.53,272.66c.39-.37.41-.99.04-1.38l-7.48-7.92c-.37-.39-1-.41-1.38-.04-.39.37-.41.99-.04,1.38l7.48,7.92c.33.35.86.4,1.25.14.04-.03.09-.06.13-.1ZM739.27,262.79c.39-.37.41-.99.04-1.38l-6.75-7.15-1.42,1.34,6.75,7.15c.33.35.86.4,1.25.14.05-.03.09-.06.13-.1Z"/><path class="cls-18" d="M89.18,459.06c.11,1.2.43,2.36.71,3.52.47-.75.98-1.48,1.51-2.19-.62-1.59-1.35-3.13-2.16-4.63-.01.07-.03.14-.03.2-.04.35-.07.7-.08,1.06-.02.68,0,1.37.06,2.04ZM84.75,437.84c-.68-.48-1.42-.88-2.23-1.09-2.6-.67-4.52.86-5.6,3.14-1.18,2.5-1.78,5.29-1.97,8.1,1.69,5.06,3.57,9.36,3.57,9.36,0,0-.13-5.96.29-8.95.01-.08.02-.16.04-.24.02-.09.03-.2.05-.28.34-1.81,1.2-2.9,2.97-2.24,1.17.44,2.03,1.5,2.83,2.42,1.02,1.16,1.97,2.37,2.85,3.64,1.75,2.52,3.17,5.24,4.3,8.1,1.39-1.86,2.81-3.7,3.81-5.78-3.83-5.83-7.81-11.79-10.9-16.18ZM88.68,471.74c.24.86.6,1.65,1.05,2.38,0,0,0,0,0,0,2.64,1.5,7.27,2.14,7.27,2.14,0,0,.04.07.11.2.42,0,.83-.01,1.22-.05,1.42-.12,2.85-.3,4.26-.53,1.47-.24,2.93-.55,4.36-.94.6-.16,1.2-.38,1.81-.59-.02-.04-.02-.07-.04-.11,0,0-2.71-4.27-6.49-10.12-.48.55-.95,1.1-1.38,1.69-.79,1.1-1.56,2.23-2.17,3.44-.55,1.09-1,2.32-.85,3.56.15,1.28.86,2.32,2.02,2.89.21.1.1.43-.13.39-1.23-.24-2.09-1.39-2.41-2.54-.35-1.28-.08-2.62.42-3.83.57-1.38,1.41-2.68,2.28-3.88.49-.67,1.02-1.31,1.57-1.93.1-.11.2-.22.3-.33-1.83-2.83-3.89-6-6-9.22-1.5,3.88-4.58,6.79-6.38,10.52-1.03,2.14-1.46,4.53-.82,6.86ZM84.7,458.64c-.04-1.75.07-3.51,0-5.26-.07-1.82-.44-3.48-.96-5.21-.02-.08.01-.15.07-.19-.32-.34-.65-.67-1-.97-.86-.76-2.15-1.31-2.91-.34.95.04,1.92,1,1.92,1,0,0,.71,9.09.72,13.29,0,3.59,3.33,9.58,5.94,12.17-.79-1.91-.99-4.11-.55-6.12-2.46-2.03-3.16-5.29-3.24-8.36ZM102.77,476.59c-1.5.25-3.01.42-4.53.49-.24.01-.5.03-.76.05.77,1.31,2.35,3.74,3.94,4.35,2.21.86,4.47.05,5.92-.92,1.28-.85,2.3-3.17,1.72-5.4-.72.21-1.46.37-2.13.55-1.37.36-2.76.65-4.16.88ZM77.02,438.28c1.28-1.95,3.36-2.87,5.65-2.31.32.08.65.19.97.32-2.13-2.97-3.7-4.94-4.25-5.2-2.69-1.23-5.39-3.17-6.88,2.97-.69,2.83.53,8,2.05,12.76.04-.5.09-1.01.17-1.52.35-2.37.96-5,2.29-7.03ZM87.77,453.23c-1-1.57-2.12-3.22-3.39-4.66,1.29,2.57.97,5.84.93,8.6-.04,3.26.26,6.9,2.8,9.2.04-.15.08-.29.13-.44.39-1.12.92-2.15,1.53-3.15-.68-1.09-1.02-2.35-1.19-3.62-.1-.74-.14-1.48-.1-2.22.02-.37.05-.74.1-1.1.04-.3.05-.64.22-.89-.33-.58-.67-1.15-1.03-1.72Z"/><path class="cls-18" d="M99.64,402.91c-.11.05-.23.09-.33.13-.52.2-1.11.34-1.67.32-.29,0-.58-.03-.87-.09-.14-.03-.31-.05-.44-.11-.04-.02-.08-.06-.12-.08.09.7.18,1.4.27,2.1.08.64.14,1.28.22,1.91.24-.02.49,0,.72-.01.38-.02.76-.03,1.14-.08.38-.04.75-.12,1.11-.23.18-.05.36-.12.54-.19.09-.03.17-.08.26-.11,0,0,.01,0,.02,0-.2-.88-.4-1.77-.61-2.65-.07-.31-.16-.62-.24-.92ZM98.44,398.53c-.18.07-.38.1-.54.14-.33.08-.66.14-1,.19-.34.05-.67.06-1.01.05-.07,0-.14-.01-.21-.01.17,1.29.33,2.57.49,3.86.14-.03.27-.05.42-.04.15,0,.3,0,.45,0,.32-.01.64-.07.95-.12.5-.08.98-.27,1.43-.51-.32-1.18-.66-2.37-.98-3.56ZM100.2,430.15c.51-.06,1.02-.12,1.53-.21.97-.17,1.91-.47,2.81-.86-.16-1.1-.33-2.21-.49-3.31-.31.14-.66.24-.96.33-.54.16-1.08.28-1.64.35-.57.06-1.15.09-1.73.06-.26-.01-.56,0-.81-.06-.02,0-.04-.01-.06-.02.12,1.27.24,2.54.35,3.81.33-.07.69-.05,1-.09ZM92.33,403.04c.36,0,.72-.03,1.07-.08.65-.1,1.3-.29,1.91-.54-.15-1.15-.29-2.3-.44-3.45-.12.15-.31.28-.45.36-.51.31-1.1.53-1.68.68-.29.08-.59.15-.89.18-.18.02-.39.02-.58-.02.08.95.15,1.9.23,2.85.09,0,.17,0,.26,0,.19,0,.38.02.56.02ZM101.5,411.03c-.26-1.24-.53-2.48-.81-3.71-.27.13-.59.21-.85.27-.4.1-.82.17-1.23.21-.43.04-.84.03-1.26-.05-.19-.03-.39-.07-.58-.14.17,1.41.33,2.82.49,4.23.21-.03.44-.03.63-.05.45-.03.9-.1,1.35-.16.45-.06.9-.16,1.34-.28.22-.06.43-.13.65-.21.09-.03.18-.07.27-.11ZM99.03,425.94c.26,0,.53.01.79,0,.51-.02,1.03-.07,1.53-.16.52-.09,1.04-.21,1.55-.36.25-.07.51-.16.75-.25.1-.04.19-.07.28-.1-.17-1.14-.35-2.28-.53-3.42-.07.04-.14.08-.21.12-.25.14-.5.26-.76.37-.51.21-1.05.35-1.6.44-.57.09-1.12.1-1.69.02-.24-.03-.48-.09-.71-.15.12,1.17.24,2.34.36,3.51.08,0,.15-.02.23-.02ZM102.1,413.94s0-.04-.01-.07c-.13-.67-.28-1.34-.42-2.01-.06.02-.12.04-.18.06-.23.08-.46.15-.69.21-.47.13-.95.22-1.43.29-.49.07-.99.06-1.48.04-.17,0-.37-.02-.57-.06.07.59.14,1.17.2,1.76.18.1.25.35.15.51.29.03.59.04.88.06.39.02.78,0,1.16-.04.39-.05.76-.15,1.13-.26.39-.12.74-.3,1.11-.45.05-.02.09-.02.13-.03ZM91.54,403.41c.06.68.11,1.35.17,2.03.04.5.08,1,.12,1.5.03,0,.06,0,.09-.01.2,0,.41.03.61.03.41.01.82,0,1.23-.02.42-.03.84-.07,1.26-.13.27-.04.55-.1.83-.14-.05-.41-.09-.81-.14-1.22-.09-.75-.19-1.5-.29-2.25-.64.24-1.29.38-1.97.41-.39.02-.79,0-1.18-.04-.19-.02-.4-.04-.59-.1-.05-.02-.09-.04-.14-.06ZM89.09,421.58c.05,1.06.11,2.13.15,3.19.22.12.44.23.67.32.3.11.59.22.91.29.31.06.62.08.94.07.29-.02.56-.06.84-.1-.1-1.06-.19-2.12-.19-3.19-.13.04-.26.06-.37.06-.17,0-.34,0-.51-.02-.37-.02-.73-.07-1.09-.15-.36-.08-.71-.19-1.05-.32-.11-.04-.21-.1-.31-.15ZM94.55,430.13c.43.1.87.17,1.3.22.87.09,1.75.02,2.59-.22,0,0,.02,0,.03,0-.12-1.22-.26-2.44-.39-3.66-.4.22-.9.28-1.34.32-.49.05-.98.03-1.46-.03-.68-.09-1.36-.34-1.93-.74.02.27.03.54.05.8.08,1.04.16,2.08.24,3.12.3.05.6.13.9.2ZM88.88,417.46c.07,1.18.13,2.36.19,3.54.19.06.38.12.57.19.31.1.64.18.96.23.31.05.63.08.95.08.17,0,.34-.02.51-.02.1,0,.24,0,.36.03.03-.9-.19-1.8-.27-2.7-.02-.21-.04-.42-.06-.64-.1.02-.21.04-.31.06-.17.03-.35.05-.52.05-.35-.01-.7-.06-1.04-.15-.34-.09-.67-.22-.98-.39-.13-.07-.24-.17-.35-.28ZM89.14,411.1c-.14-.04-.26-.07-.38-.14-.09-.05-.18-.1-.27-.16.06,1.08.13,2.17.19,3.25.09-.01.19-.02.29-.01.17,0,.33.01.5.01.32,0,.65.03.97.03.33,0,.67,0,1-.02.09,0,.18-.01.27-.02-.07-.79-.14-1.57-.2-2.36-.53-.11-1.06-.21-1.57-.36-.27-.08-.54-.15-.81-.23ZM88.7,414.39c.03.49.06.99.09,1.48.02.39.04.78.06,1.17.21.07.42.14.62.23.28.12.57.2.87.25.31.05.58.06.89.05.16,0,.32,0,.48-.03.11-.01.2-.03.29-.04-.04-.48-.09-.96-.13-1.44-.04-.46-.08-.92-.12-1.38-.12,0-.23,0-.34.01-.34.01-.67,0-1.01,0-.35-.01-.7-.04-1.04-.11-.17-.04-.35-.08-.52-.12-.06-.02-.11-.04-.16-.06ZM88.48,410.63c.14-.02.29-.05.43-.06.15-.01.31.02.46.04.3.04.61.07.91.11.39.05.78.12,1.17.2-.1-1.26-.2-2.53-.3-3.79-.02.01-.03.03-.05.04-.14.06-.31.07-.45.1-.13.02-.26.03-.39.04-.27.02-.55.04-.81,0-.26-.04-.51-.1-.76-.17-.13-.04-.26-.08-.37-.15-.01,0-.02-.02-.04-.02.02.35.03.7.05,1.05.05.87.1,1.75.15,2.62ZM88.77,406.68c.24,0,.48,0,.72-.02.25-.02.5-.02.75-.05.12-.01.25-.03.37-.05.02,0,.02,0,.02,0,0,0,.01,0,.03,0,.03,0,.05-.01.08-.02.08-.02.16-.04.25-.04.05,0,.09.03.14.04-.03-.43-.07-.86-.1-1.29-.05-.61-.1-1.22-.14-1.83-.5.21-1.02.32-1.57.32-.27,0-.55-.02-.82-.06-.13-.02-.26-.06-.38-.12.06,1.04.11,2.08.16,3.12.05,0,.1,0,.15-.01.12-.02.24,0,.36,0ZM92.16,411.1c.09.05.16.12.19.22,0,0,0,.01,0,.02.03,0,.05,0,.08,0,.19-.01.38-.02.57-.03.38-.01.76,0,1.14.01.76.01,1.51.02,2.27.03-.15-1.3-.3-2.6-.46-3.91-.3.07-.63.1-.91.13-.42.05-.84.07-1.26.06-.44,0-.87-.04-1.31-.08-.19-.02-.4-.04-.58-.09.1,1.22.2,2.43.29,3.65ZM86.6,416.29c.06-.01.12,0,.18.02.08.02.16.03.23.05.16.03.32.07.48.12.16.05.33.1.49.15.08.03.16.07.24.12-.02-.28-.04-.56-.06-.83-.03-.57-.07-1.13-.1-1.7-.02,0-.04,0-.07,0l-.2-.06c-.13-.04-.26-.08-.39-.12-.07-.02-.14-.04-.21-.06-.08-.02-.14-.06-.22-.09-.12-.06-.23-.12-.35-.18-.07.92-.13,1.8-.18,2.65,0,0,0-.01.02-.02.04-.02.08-.03.12-.04ZM91.94,399.58c.32-.08.64-.18.95-.3.27-.11.53-.23.79-.37.27-.15.56-.39.86-.45.08-.02.18-.02.26,0-.13-.95-.28-1.9-.42-2.85-.98.18-2.05.67-3.26,1.5.07.91.06,1.85.12,2.68.22-.1.47-.15.7-.2ZM112.07,452.52c.51-3.25.19-6.67-.89-9.79-.49,1.17-.69,2.53-.86,3.67-.44,2.91-1.71,6.26-4.01,8.36l3.19,4.96c.41-.7.76-1.43,1.09-2.18.7-1.62,1.21-3.28,1.48-5.02ZM95.62,398.45c.09-.01.19-.03.28-.05.3-.06.6-.11.9-.18.31-.07.62-.15.92-.25.16-.05.34-.14.52-.18-.13-.47-.24-.95-.36-1.42-.84-.56-1.7-.86-2.64-.87.13.97.23,1.95.36,2.92,0,0,0,.01,0,.02ZM120.68,434.5c-1.47-2.57-3.49-5.68-6.77-5.81-2.45-.1-4.73,1.43-5.7,3.63.6-.32,1.25-.57,1.95-.73,2.73-.6,5.66.11,7.95,1.66,1.89,1.28,3.28,2.97,4.31,4.9-.49-1.24-1.05-2.47-1.73-3.65ZM106.28,443.97c.9-2.89,1.96-6.07,4.43-8.02,3.04-2.4,6.26-1.02,8.77,1.4,1.8,1.73,3.18,3.83,4.08,6.13-.26-1.15-.6-2.29-1.06-3.4-1.64-3.92-4.82-7.32-9.2-7.87-4.52-.57-7.65,2.44-9.42,6.29.03.14-.04.28-.16.35-1.07,2.47-1.68,5.13-2.79,7.56l2.65,4.12c.39-.57.76-1.17,1.05-1.82.69-1.52,1.15-3.14,1.64-4.73ZM118.83,437.51c-1.39-1.24-3.14-2.48-5.11-2.22-1.91.25-3.43,1.75-4.4,3.32-1.52,2.48-2.02,5.43-2.85,8.18-.48,1.6-1.1,3.44-2.16,4.85l1.49,2.32c.3-.3.59-.61.86-.94.8-.99,1.45-2.1,1.94-3.28.97-2.38.83-5.1,1.99-7.4.85-1.68,2.51-3.06,4.49-2.59.21.05.43.13.64.22.65.07,1.71.33,3.08,1.17,2.05,1.25,4.23,6.61,5.61,8.38-.13-1.4-.27-2.79-.49-4.16-1.01-2.99-2.73-5.73-5.1-7.85ZM93.33,425.53c.68.19,1.37.36,2.08.45.43.05.86.05,1.29,0,.44-.05.87-.22,1.31-.23-.12-1.15-.24-2.29-.36-3.44-.06.05-.12.09-.2.12-.1.04-.21.07-.31.1-.24.07-.48.12-.73.15-.46.07-.94.09-1.4.06-.47-.03-.94-.09-1.4-.2-.2-.05-.38-.12-.56-.2.16,1.05.23,2.13.29,3.2ZM92.21,411.76c.06.75.11,1.5.17,2.25.03,0,.06,0,.09,0,.16.01.23.15.22.28.03,0,.07,0,.1.01.21.03.42.05.63.07.43.04.84.09,1.27.09.69,0,1.37-.09,2.04-.24-.09-.75-.18-1.5-.26-2.25-.01,0-.02,0-.03,0-.13,0-.26-.01-.39-.02-.19.1-.44.16-.6.18-.62.09-1.22.07-1.83-.03-.3-.05-.6-.12-.89-.2-.13-.04-.26-.09-.38-.15-.05,0-.09-.01-.14-.02ZM101.05,415.2c-.41.13-.85.2-1.28.23-.43.03-.89.03-1.32-.04-.28-.05-.55-.14-.81-.24.09.78.19,1.57.27,2.35.2.05.41.09.62.13.45.09.9.15,1.36.12.47-.02.92-.12,1.37-.26.21-.07.42-.14.62-.24.11-.05.22-.13.34-.15.11-.02.21.02.32.04.08.01.15.11.13.19-.03.11-.04.25-.12.34-.09.11-.23.17-.35.23-.24.12-.48.23-.73.32-.49.17-1.02.24-1.53.25-.52,0-1.07-.04-1.57-.2-.14-.04-.26-.11-.39-.18.02.21.05.42.07.63.12,1.06.22,2.13.33,3.19.04,0,.07,0,.11,0,.26.03.52.05.79.05.49,0,.99-.03,1.48-.11.5-.08.99-.23,1.45-.42.24-.1.46-.21.68-.34.14-.08.27-.17.4-.23-.32-2.06-.67-4.12-1.06-6.17-.35.23-.78.39-1.18.52ZM92.97,421.83c.25.05.49.1.74.15.42.09.86.13,1.29.14.45,0,.9-.03,1.34-.12.22-.04.43-.09.65-.14.11-.03.22-.07.34-.09.09-.01.18,0,.27,0-.1-.93-.19-1.86-.29-2.79-.06-.5-.12-1-.18-1.5-.23.32-.79.45-1.15.55-.4.12-.82.2-1.24.24-.72.08-1.43.05-2.1-.2.05,1.26.12,2.53.34,3.75ZM95.84,417.41c.18-.06.36-.13.54-.21.19-.08.38-.19.59-.16.04,0,.08.02.11.05-.08-.72-.17-1.44-.26-2.16-.69.13-1.38.21-2.08.18-.45-.01-.92-.05-1.36-.13-.23-.04-.45-.11-.67-.18-.09-.03-.18-.06-.27-.09.03.43.07.87.1,1.3.04.58.07,1.18.09,1.77.68,0,1.37,0,2.04-.09.4-.06.79-.15,1.17-.28ZM93.88,433.5s.07-.01.11,0c.42.19.85.32,1.29.44.44.12.86.24,1.31.3.44.06.87.09,1.31.07.23,0,.46-.02.69-.05.1-.01.19-.03.29-.04-.05-.57-.1-1.13-.16-1.7-.06-.56-.12-1.13-.18-1.69-.91.23-1.84.3-2.77.2-.48-.05-.94-.16-1.39-.33-.25-.09-.49-.2-.7-.33.08,1.04.14,2.08.2,3.12ZM106.77,419.88c-.18-.85-.37-1.7-.55-2.55-.15.08-.31.15-.46.21-.34.13-.71.23-1.08.27-.36.04-.74,0-1.1-.06.19,1.01.37,2.02.55,3.04.05,0,.11-.01.16-.02.27-.02.53-.07.79-.14.27-.08.54-.19.8-.31.24-.11.44-.28.68-.4.07-.04.15-.04.21-.03ZM110.95,425.49c.06-.01.11.01.16.05.09-.22.17-.45.26-.67-.16-.47-.41-1.21-.73-2.14-.38.36-.81.66-1.3.86-.23.09-.47.17-.71.22-.06.01-.11.01-.17.02.23,1.08.44,2.16.63,3.24.03-.01.06-.02.09-.04.23-.11.44-.25.63-.41.2-.16.37-.35.53-.56.17-.22.3-.52.59-.57ZM89.26,403.23c.48-.05.97-.17,1.43-.35.04-.01.09-.02.13,0-.07-.89-.14-1.79-.21-2.68,0,0,0,0,0,0-.28.04-.56.02-.84-.02-.13-.02-.26-.05-.39-.09-.11-.03-.2-.09-.29-.15-.38.95-.72,2.08-1.01,3.32.14,0,.29-.01.43,0,.25.01.49,0,.74-.02ZM87.42,409.98c.09.02.17.05.26.07.05.01.09.02.14.04-.05-.75-.09-1.51-.14-2.26-.04-.61-.08-1.23-.13-1.84-.22,1.3-.4,2.66-.55,4.02.03-.03.07-.05.11-.04.1,0,.22,0,.31.02ZM87.13,413.49c.07,0,.13.01.2.03.07.02.13.03.2.05l.41.1s.07.02.1.03c-.06-1.03-.13-2.05-.19-3.08,0,0-.02,0-.02,0-.08-.03-.17-.05-.25-.08-.09-.03-.17-.05-.26-.08-.06-.02-.11-.04-.17-.07-.04-.02-.08-.04-.11-.06-.03-.02-.05-.04-.06-.07-.12,1.08-.22,2.15-.3,3.2.02,0,.03,0,.05,0,.14.01.28.02.42.03ZM97.85,438.33c.44.04.9,0,1.32.09.04,0,.06.04.09.06-.1-1.17-.21-2.34-.31-3.51-.11.02-.21.03-.32.04-.24.03-.48.04-.72.04-.49,0-.98-.04-1.46-.12-.48-.08-.99-.2-1.43-.4-.39-.18-.76-.4-1.12-.64.03.56.04,1.11.06,1.67l1.44,2.24c.36.12.72.23,1.09.32.44.1.89.17,1.35.21ZM104.74,410.48c-.22-1.02-.45-2.04-.67-3.07-.43.18-.9.28-1.35.33-.29.03-.6,0-.88-.02-.1-.01-.2-.04-.29-.06.27,1.19.52,2.38.77,3.57.22-.05.44-.1.65-.17.23-.07.47-.13.7-.2.24-.07.48-.15.72-.24.11-.04.21-.09.32-.13.02,0,.03,0,.05,0ZM89.67,399.67s.06,0,.09,0c0,0,.05,0,.02,0-.03,0,.02,0,.02,0,.25.01.49-.01.74-.05-.06-.59-.15-1.21-.23-1.85-.4.46-.77,1.09-1.1,1.84.09,0,.17,0,.26.01.06.01.13.02.19.03ZM86.95,423.43c.25.12.5.24.75.36.26.12.55.23.78.4.11.08.19.16.28.25-.08-1.06-.15-2.12-.22-3.18-.17.05-.37.05-.52.01-.21-.05-.41-.13-.61-.22-.19-.08-.37-.17-.55-.27-.05-.03-.1-.05-.15-.09-.06-.04-.1-.1-.14-.15-.06-.08-.1-.14-.09-.24,0-.09.13-.11.2-.11.11,0,.23.01.33.06.1.04.19.08.29.12.05.02.09.04.14.05.02,0,.05.02.07.02t0,0s.02,0,.03,0c.2.06.4.11.6.16.12.03.25.09.36.16-.08-1.15-.16-2.31-.23-3.46-.06,0-.11,0-.17,0-.04,0-.07,0-.11,0-.08,0-.15-.02-.23-.05-.16-.06-.31-.12-.47-.17-.16-.06-.31-.13-.47-.2-.07-.03-.14-.07-.22-.1-.06-.03-.12-.06-.16-.11-.19,3.34-.22,5.95-.23,6.63,0,0,0,0,0,0,.24-.13.51.03.73.14ZM101.62,402.56c-.26.05-.53.1-.79.14-.14.02-.28.02-.43.02.1.44.2.87.3,1.31.25,1.04.48,2.09.72,3.13.02,0,.04,0,.05-.01.13-.03.26-.03.4-.04.26-.02.51-.08.77-.12.42-.07.83-.21,1.25-.35-.25-1.09-.5-2.19-.72-3.29-.16-.34-.32-.67-.48-.98-.1.03-.2.04-.28.06-.26.05-.53.09-.79.14ZM88.56,424.79c-.14-.02-.27-.06-.41-.11-.13-.05-.25-.13-.37-.19-.12-.07-.24-.14-.36-.21-.24-.14-.48-.27-.72-.41-.18-.1-.42-.22-.49-.43,0,.03,0,.05,0,.05l2.84,4.42c-.09-1.03-.19-2.06-.27-3.09-.08,0-.16-.01-.23-.02ZM112.76,440.74c2.07,4.3,2.96,9.09,2.7,13.85-.13,2.31-.51,4.61-1.17,6.83-.36,1.21-.77,2.49-1.32,3.69l2,3.11s2.9-5.44,3.27-8.72c.34-3-2.67-16.84-3.18-19.18-.49-.11-1.01-.11-1.56.07-.27.09-.51.21-.74.36ZM111.95,425.41c-.05.11-.1.22-.15.33-.33.73-.69,1.45-1.07,2.15-.27.5-.56,1-.92,1.45.85-.64,1.85-1.09,2.91-1.28,3.12-.55,5.5,1.56,7.13,3.99,3.47,5.2,5.45,11.73,5.28,18.05,1.14.22,1-3.32-.04-7.56-1.08-4.41-4.97-13.71-7.66-15.65-2.13-1.53-4.55-1.54-5.48-1.48ZM91.05,429.4c.34.09.68.16,1.03.2.3.03.59.03.89.04-.09-1-.17-2.01-.25-3.01-.02-.22-.04-.45-.06-.67-.62.2-1.36.14-1.97-.01-.34-.09-.72-.2-1.02-.4-.15-.1-.28-.2-.41-.31.04,1.06.08,2.11.11,3.17l.36.56c.12.05.24.09.36.14.31.12.64.2.96.29ZM114.84,454.15c.18-4.5-.69-8.99-2.5-13.11-.3.26-.55.57-.76.92,0,.01.02.02.02.03,1.5,3.38,1.87,7.05,1.27,10.68-.3,1.78-.81,3.57-1.6,5.2-.39.79-.84,1.56-1.33,2.29-.02.04-.05.08-.08.11l2.6,4.04c.5-1.13.98-2.26,1.32-3.48.61-2.18.97-4.43,1.07-6.69ZM106.17,413.37c.09-.05.17-.1.26-.15.05-.03.11-.07.17-.09.08-.03.15-.01.23,0,.13.01.19.18.14.28-.04.07-.07.15-.14.19-.04.03-.1.05-.15.08-.1.05-.2.1-.29.16-.04.02-.07.04-.11.06.1.47.2.93.31,1.4.09.41.18.82.27,1.23.05-.01.11-.02.16-.03.09-.02.18-.05.27-.09.04-.02.09-.03.13-.05.02,0,.04-.02.06-.03,0,0,0,0,.02,0,.16-.09.32-.19.47-.31.04-.03.07-.06.11-.09.01,0,.12-.1.06-.05.02-.02.04-.02.06-.03-1.06-2.91-2.26-6.06-3.42-8.83.04.19.08.38.12.57.42,1.94.85,3.87,1.27,5.81ZM110.52,426.82c-.12.1-.24.2-.36.28-.25.17-.52.31-.8.41-.05.02-.11.04-.17.06.09.52.19,1.04.27,1.57.2-.52.44-1.03.69-1.53.13-.26.24-.52.36-.79ZM99.1,397.36c.45,1.62.83,3.28,1.2,4.91.15-.06.29-.12.44-.16.26-.07.52-.13.78-.19.26-.06.52-.13.78-.19.01,0,.04,0,.05-.01-.36-.67-.69-1.23-1-1.66-.78-1.08-1.52-1.98-2.26-2.7ZM101.38,439.18c-.39,0-.79,0-1.17-.05-.07-.01-.14-.03-.21-.05.17,2.12.3,4.24.32,6.35l.1.15c.82-2.16,1.47-4.39,2.37-6.53-.46.08-.93.13-1.4.13ZM107.69,432.31c-.31.19-.62.37-.96.5-.24.09-.48.16-.73.22-.1.02-.19.04-.29.06.03.37.05.73.07,1.1.54-.57,1.15-1.08,1.81-1.5.03-.12.06-.24.1-.36ZM104.66,429.85c-.91.38-1.86.67-2.83.84-.54.1-1.08.15-1.63.14-.3,0-.64,0-.95-.06.05.57.11,1.14.16,1.71.06.69.13,1.38.19,2.07.8-.31,1.64-.46,2.46-.73.92-.3,1.84-.67,2.7-1.11.11-.06.24-.07.35-.04-.15-.94-.3-1.89-.45-2.83ZM100.28,438.55c.35,0,.71.01,1.06,0,.59-.03,1.19-.13,1.78-.24.07-.16.14-.33.22-.49.55-1.15,1.24-2.25,2.07-3.22-.07-.4-.13-.81-.19-1.21,0,0,0,0-.01.01-.93.49-1.89.89-2.91,1.16-.87.23-1.77.43-2.67.32.11,1.23.23,2.46.33,3.69.11,0,.22-.01.33-.01ZM99.21,438.99c-.47.13-1.01.05-1.49,0-.46-.05-.92-.14-1.37-.25-.13-.03-.27-.07-.4-.11l4.04,6.29c-.28-1.99-.5-3.99-.68-5.99-.03.03-.05.06-.09.07ZM92.86,433.83l.64,1c-.04-.33-.09-.66-.12-.99-.17,0-.34,0-.52,0ZM93.03,430.25c-.7.06-1.45-.05-2.13-.24-.23-.07-.45-.16-.67-.26l2.2,3.42c.29.03.58.05.88.03-.1-.98-.19-1.96-.28-2.94ZM108,431.52c.29-.61.69-1.16,1.18-1.64-.18-.61-.33-1.23-.49-1.84-.16.2-.41.35-.59.46-.33.2-.68.37-1.04.51-.37.14-.74.24-1.14.29-.18.02-.35.04-.53.04.12,1.08.22,2.17.3,3.25.07-.02.13-.03.2-.05.23-.07.45-.15.67-.24.43-.19.83-.46,1.19-.77.07-.06.17-.06.26-.03ZM109.55,419.59c-.33.24-.68.42-1.1.51-.25.06-.51.09-.77.09.24,1.06.47,2.11.69,3.17.32-.17.64-.34.93-.56.19-.14.38-.27.55-.43.17-.16.31-.36.49-.52-.24-.69-.5-1.45-.79-2.27ZM109.3,418.89c-.27-.75-.55-1.54-.85-2.36-.03.02-.06.05-.1.07-.18.11-.38.21-.59.29-.21.08-.42.13-.64.16-.05,0-.09.01-.14.02.2.87.39,1.74.58,2.61.09-.01.18-.02.26-.04.26-.06.51-.15.74-.28.21-.12.43-.24.62-.39.04-.03.07-.06.1-.09ZM105.41,413.56c-.17-.76-.34-1.53-.5-2.29-.11.04-.22.08-.33.12-.23.08-.47.15-.7.2-.25.06-.51.11-.77.12-.23.01-.47,0-.7,0,.17.83.35,1.66.51,2.49.06,0,.11-.02.17-.02.27,0,.55-.01.82-.06.54-.09,1.02-.33,1.5-.57,0,0,0,0,0,0ZM103.97,414.77c-.31.03-.64.04-.94,0,.16.81.31,1.62.47,2.43.06,0,.11.02.17.02.33.03.65,0,.97-.05.33-.05.64-.12.95-.24.18-.07.35-.17.52-.26-.11-.53-.23-1.07-.34-1.6-.06-.27-.12-.54-.18-.81-.47.3-1.05.45-1.6.51ZM106.9,420.46c-.21.21-.47.37-.73.49-.3.15-.6.25-.94.31-.31.06-.62.08-.93.06-.02,0-.05,0-.07,0,.2,1.19.39,2.37.57,3.56.02,0,.04-.02.07-.03.14-.04.28-.08.42-.12.28-.09.55-.2.82-.32.52-.24,1.01-.52,1.47-.86-.23-1.03-.46-2.06-.68-3.09ZM106.8,428.37c.32-.14.62-.3.9-.5.23-.16.51-.43.81-.44-.27-1.05-.53-2.11-.77-3.17-.44.3-.9.57-1.4.74-.31.1-.62.19-.94.25-.14.03-.29.06-.44.07-.03,0-.07,0-.1,0,.17,1.17.33,2.35.46,3.53.16-.03.32-.07.48-.12.34-.1.68-.22,1-.36Z"/><path class="cls-19" d="M295.08,464.56c-7.99-3.5-13.05-12.12-13.64-20.82-.59-8.7,2.8-17.34,7.97-24.36-2.56-3.29-4.96-6.37-5.73-10.47-.77-4.1.15-8.69,3.14-11.59,3-2.9,8.24-3.5,11.35-.72,1.65,1.48,2.61,3.72,4.53,4.83.67.39,1.43.61,2.11.99.68.38,1.31.97,1.43,1.74s-.49,1.66-1.26,1.58c2.33,1.03,2.19,4.68,2.32,7.23.26,4.85,2.24,9.72,5.95,12.87,3.7,3.15,9.2,4.29,13.62,2.28,2.16,1.68,2.85,4.76,2.33,7.44-.52,2.69-2.05,5.06-3.68,7.26-5.83,7.9-13.3,14.55-21.66,19.71-2.76,1.7-5.81,3.33-8.79,2.03Z"/><rect class="cls-19" x="282.51" y="425.59" width="141.71" height="14.68" transform="translate(-181.05 269.52) rotate(-33.78)"/><path class="cls-7" d="M307.99,441.05c1.29,5.02,2.57,10.03,3.86,15.05.21.82.46,1.7,1.12,2.23,1.01.82,2.5.46,3.72,0,4.98-1.84,9.62-4.61,13.61-8.12-2.71.18-5.46.36-8.11-.22-2.65-.57-5.24-2-6.59-4.35-1.07-1.86-1.27-4.07-1.44-6.21-.17-2.14-.37-4.35-1.44-6.21-1.07-1.86-3.28-3.24-5.34-2.66-1.61.46-2.7,1.93-3.59,3.36-3.67,5.86-6.19,12.44-7.39,19.25-.39,2.22-.63,4.55.13,6.67.76,2.12,2.8,3.93,5.04,3.73,0,0,5.3.6,9-5.76"/><path class="cls-7" d="M298.88,399.17c-1.93.58-3.14,2.63-3.3,4.64-.16,2.01.52,3.99,1.32,5.84.8,1.85,1.73,3.68,2.1,5.66.49,2.6-.18,5.57-2.27,7.19-2.09,1.62-5.67,1.22-6.84-1.16"/><path class="cls-7" d="M306.64,422.97c3,5.26,9.81,8.94,15.77,7.86.63-.11,1.34-.25,1.85.13.75.56.42,1.86-.38,2.36-.8.49-1.81.42-2.74.33.84.65,2,.68,2.98,1.08.98.4,1.84,1.64,1.2,2.48-.86,1.11-2.72-.13-4.02.41,1.26.41,2.8,1.27,2.54,2.57-.19.95-1.35,1.43-2.29,1.23s-1.71-.87-2.43-1.51c.61.56,1.24,1.18,1.44,1.98s-.28,1.83-1.11,1.88c-.59.04-1.09-.41-1.51-.82-1.22-1.19-2.45-2.38-3.67-3.57"/><path class="cls-7" d="M288.98,459.38c-1.54-6.24,1.83-13.33,7.65-16.07-1.04-4.9,1.45-9.76,2.86-14.57.36-1.24.66-2.53.49-3.81-.17-1.28-.88-2.56-2.05-3.09"/><path class="cls-7" d="M299.81,427.35c2.22-1.01,4.31-2.3,6.21-3.83.59-.48,1.19-1.01,1.41-1.73.34-1.07-.26-2.24-1.08-3.01-1.69-1.58-4.43-1.91-6.45-.79"/><line class="cls-7" x1="322.6" y1="461.43" x2="320" y2="457.55"/><path class="cls-19" d="M404.81,391.17c-.18-8.72-6.22-16.69-14.04-20.56-7.82-3.87-17.09-4.04-25.56-1.94-2.06-3.62-3.99-7.02-7.49-9.29-3.49-2.28-8.08-3.18-11.91-1.52-3.82,1.66-6.38,6.28-5,10.21.74,2.09,2.44,3.83,2.73,6.03.1.77.02,1.56.11,2.33s.4,1.58,1.07,1.99,1.72.18,1.94-.57c.06,2.55,3.49,3.81,5.8,4.91,4.39,2.09,8.13,5.79,9.63,10.41,1.5,4.62.45,10.14-3.1,13.46.72,2.64,3.3,4.45,5.99,5,2.68.54,5.46.04,8.12-.63,9.53-2.38,18.53-6.73,26.48-12.49,2.63-1.9,5.3-4.1,5.23-7.35Z"/><path class="cls-7" d="M378.15,394.13c4.14,3.11,8.29,6.21,12.43,9.32.68.51,1.39,1.07,1.63,1.88.37,1.25-.53,2.49-1.41,3.44-3.61,3.9-7.94,7.13-12.71,9.48,1.2-2.43,2.41-4.91,2.9-7.58.48-2.67.15-5.61-1.51-7.76-1.31-1.7-3.28-2.73-5.19-3.7-1.91-.98-3.88-2.01-5.19-3.71-1.31-1.7-1.75-4.27-.42-5.96,1.04-1.32,2.82-1.76,4.47-2.04,6.82-1.15,13.86-.97,20.61.52,2.2.49,4.45,1.16,6.11,2.67,1.66,1.51,2.56,4.09,1.52,6.09,0,0-1.47,5.13-8.77,6.12"/><path class="cls-7" d="M342.93,369.71c1.28-1.56,3.63-1.89,5.55-1.28,1.92.62,3.49,2.01,4.89,3.45,1.41,1.45,2.74,3,4.43,4.1,2.22,1.44,5.22,1.96,7.52.65,2.3-1.31,3.29-4.78,1.54-6.76"/><path class="cls-7" d="M361.96,385.97c3.72,4.78,4.51,12.48,1.24,17.58-.34.54-.74,1.14-.58,1.76.23.91,1.56,1.1,2.32.55.76-.55,1.08-1.51,1.35-2.41.28,1.03-.13,2.11-.14,3.17,0,1.06.81,2.33,1.84,2.05,1.36-.36.92-2.57,1.92-3.56-.1,1.32.11,3.07,1.41,3.33.95.19,1.84-.7,2.01-1.65.18-.95-.15-1.91-.47-2.82.29.78.61,1.6,1.28,2.09.67.49,1.79.44,2.16-.31.26-.53.04-1.16-.18-1.71-.63-1.59-1.26-3.17-1.9-4.76"/><path class="cls-7" d="M402.35,383.55c-5.18-3.81-13.02-3.4-17.77.93-4.13-2.84-9.57-2.39-14.55-2.92-1.28-.14-2.59-.36-3.71-1-1.12-.64-2.03-1.79-2.07-3.08"/><path class="cls-7" d="M368.61,381.33c-1.78,1.67-3.77,3.11-5.92,4.28-.66.36-1.39.71-2.14.64-1.12-.1-1.97-1.1-2.37-2.15-.81-2.17-.08-4.82,1.74-6.26"/><line class="cls-7" x1="391.41" y1="415.41" x2="388.81" y2="411.53"/><circle class="cls-19" cx="349.81" cy="427.06" r="16.25"/><circle class="cls-19" cx="353.44" cy="410.44" r="6.36"/><circle class="cls-19" cx="346.18" cy="443.69" r="6.36"/><circle class="cls-19" cx="366.57" cy="430.06" r="6.36"/><circle class="cls-19" cx="333.06" cy="424.07" r="6.36"/><path class="cls-7" d="M336.48,426.11c-.29.49-.7.93-1.2,1.27-1.83,1.22-4.29.73-5.52-1.09-1.22-1.83-.73-4.29,1.09-5.51,1.83-1.22,4.29-.73,5.52,1.09.27.4.45.82.56,1.26"/><circle class="cls-7" cx="349.81" cy="427.06" r="13.48"/><circle class="cls-7" cx="349.81" cy="427.06" r="8.52"/><path class="cls-7" d="M354.02,414.37c.57-.08,1.12-.29,1.63-.63,1.83-1.22,2.32-3.69,1.09-5.52s-3.69-2.32-5.51-1.09c-1.83,1.22-2.32,3.69-1.09,5.51.27.4.59.73.95,1"/><path class="cls-7" d="M345.6,439.75c-.57.08-1.12.29-1.63.63-1.83,1.22-2.32,3.69-1.09,5.52,1.22,1.83,3.69,2.32,5.52,1.09s2.32-3.69,1.09-5.52c-.27-.4-.59-.73-.95-1"/><path class="cls-7" d="M363.15,428.02c.29-.49.7-.93,1.2-1.27,1.83-1.22,4.29-.73,5.51,1.09s.73,4.29-1.09,5.52c-1.83,1.22-4.29.73-5.52-1.09-.27-.4-.45-.82-.56-1.26"/><path class="cls-7" d="M352.5,425.27c.99,1.48.59,3.49-.89,4.48-1.48.99-3.49.59-4.48-.89s-.59-3.49.89-4.48,3.49-.59,4.48.89Z"/><path class="cls-12" d="M645.22,367.51c1.19,1.77.71,4.17-1.06,5.36-1.77,1.19-4.17.71-5.36-1.06s-.71-4.17,1.06-5.36c1.77-1.19,4.17-.71,5.36,1.06Z"/><path class="cls-12" d="M638.93,333.33c1.19,1.77.71,4.17-1.06,5.36-1.77,1.19-4.17.71-5.36-1.06s-.71-4.17,1.06-5.36c1.77-1.19,4.17-.71,5.36,1.06Z"/><path class="cls-12" d="M681.09,296.99c1.19,1.77.71,4.17-1.06,5.36-1.77,1.19-4.17.71-5.36-1.06s-.71-4.17,1.06-5.36,4.17-.71,5.36,1.06Z"/><circle class="cls-12" cx="702.63" cy="247.04" r="3.86"/><path class="cls-12" d="M721.99,200.72c1.19,1.77.71,4.17-1.06,5.36s-4.17.71-5.36-1.06c-1.19-1.77-.71-4.17,1.06-5.36s4.17-.71,5.36,1.06Z"/><path class="cls-12" d="M741.64,234c1.19,1.77.71,4.17-1.06,5.36-1.77,1.19-4.17.71-5.36-1.06-1.19-1.77-.71-4.17,1.06-5.36,1.77-1.19,4.17-.71,5.36,1.06Z"/><path class="cls-12" d="M518.09,139.48c1.19,1.77.71,4.17-1.06,5.36s-4.17.71-5.36-1.06c-1.19-1.77-.71-4.17,1.06-5.36,1.77-1.19,4.17-.71,5.36,1.06Z"/><path class="cls-12" d="M482.09,115.94c1.19,1.77.71,4.17-1.06,5.36-1.77,1.19-4.17.71-5.36-1.06-1.19-1.77-.71-4.17,1.06-5.36,1.77-1.19,4.17-.71,5.36,1.06Z"/><path class="cls-12" d="M547.36,59.4c1.19,1.77.71,4.17-1.06,5.36-1.77,1.19-4.17.71-5.36-1.06s-.71-4.17,1.06-5.36,4.17-.71,5.36,1.06Z"/><path class="cls-12" d="M507.68,81.19c1.19,1.77.71,4.17-1.06,5.36s-4.17.71-5.36-1.06-.71-4.17,1.06-5.36c1.77-1.19,4.17-.71,5.36,1.06Z"/><path class="cls-12" d="M577,125.02c1.19,1.77.71,4.17-1.06,5.36-1.77,1.19-4.17.71-5.36-1.06s-.71-4.17,1.06-5.36c1.77-1.19,4.17-.71,5.36,1.06Z"/><path class="cls-12" d="M527.68,76.63c1.19,1.77.71,4.17-1.06,5.36-1.77,1.19-4.17.71-5.36-1.06-1.19-1.77-.71-4.17,1.06-5.36s4.17-.71,5.36,1.06Z"/><path class="cls-12" d="M667.06,334.81c1.19,1.77.71,4.17-1.06,5.36-1.77,1.19-4.17.71-5.36-1.06s-.71-4.17,1.06-5.36c1.77-1.19,4.17-.71,5.36,1.06Z"/><path class="cls-12" d="M719.41,316.65c1.19,1.77.71,4.17-1.06,5.36s-4.17.71-5.36-1.06c-1.19-1.77-.71-4.17,1.06-5.36,1.77-1.19,4.17-.71,5.36,1.06Z"/><path class="cls-10" d="M386.15,300.71s-12.21-11.07-13.94-20.85c-1.73-9.78-8.24-46.96-9.87-59.87-1.63-12.9-.64-25.81,16.58-34.7,17.23-8.9,31.04-3.27,31.04-3.27,0,0,41.8-27.08,81.65-6.07,39.85,21.01,34.12,31.4,34.12,31.4,0,0,7.27,5.63,7.78,13.6,0,0,12.4.89,20.08,12.37,7.68,11.48,6.19,25.6,11.94,30.93,5.75,5.33,16.94,4.41,20.59,13.78s2.15,22.18,2.15,22.18l3.44,11.69s7.27,10.88,10.91,16.31c3.64,5.44,1.83,11.89-2.7,14.92-4.53,3.03-10.88,7.27-10.88,7.27,0,0,11.43,24.28-26.94,49.94-38.37,25.66-49.66,25.78-58.75,17.43-9.09-8.35-14.75-16.16-14.75-16.16,0,0-8.87-.84-17.05-8.49,0,0-8.77.62-14.12-5.42-5.35-6.04-7.88-11.78-7.88-11.78,0,0-8.98-4.93-16.35-11.37-7.37-6.44-13.64-18.43-19.69-23.56-6.06-5.13-8.39-14.5-8.8-20.35-.41-5.85-15.23-6.43-18.58-19.93Z"/><path class="cls-8" d="M386.15,300.71s-6.87-12.89,12.56-28.95c19.43-16.06,69.69-50.11,134.81-50.81"/><path class="cls-8" d="M409.96,182.03s28.35,12.96,49.11,12.63c20.77-.33,52.83,4.46,66.65,12.7"/><path class="cls-1" d="M409.96,182.03s28.35,12.96,49.11,12.63c20.77-.33,52.83,4.46,66.65,12.7,0,0,5.73-10.39-34.12-31.4-39.85-21.01-81.65,6.07-81.65,6.07Z"/><path class="cls-8" d="M377.6,291.13s-2.99-20.74,21.18-38.22c24.17-17.48,57.7-45.34,133.92-35.88"/><path class="cls-8" d="M466.91,233.83s23.69,7.96,35.9,16.41c12.21,8.45,15.75,14.39,22.1,18.01,6.36,3.62,27.05,19.52,37.84,21.92,10.79,2.4,28.96,21.73,28.96,21.73"/><path class="cls-1" d="M586.12,278.04c-3.64-9.37-14.83-8.45-20.59-13.78-5.75-5.33-4.26-19.45-11.94-30.93-7.68-11.48-20.08-12.37-20.08-12.37-24.69.27-47.24,5.32-66.78,12.38l.18.49s23.69,7.96,35.9,16.41c12.21,8.45,15.75,14.39,22.1,18.01,6.36,3.62,27.05,19.52,37.84,21.92,10.79,2.4,28.96,21.73,28.96,21.73l-3.44-11.69s1.49-12.81-2.15-22.18Z"/><path class="cls-8" d="M522.41,266.61s-3.84,9.81,2.23,18.88c6.06,9.06,16.65,12.48,16.65,12.48,0,0-5.44,1.02-2.61,5.25,2.83,4.23,13.91,1.19,18.65-1.54,4.73-2.73,12.5-8.36,12.5-8.36"/><path class="cls-8" d="M529.49,271.18s-1.73,7.59,1.91,12c3.63,4.41,11.15,3.27,11.15,3.27l6.75,10.09s-3.93,3.19-8,1.43"/><path class="cls-8" d="M547.6,283.06l6.76,10.11s1.94-1.28,5.69-3.81"/><path class="cls-9" d="M541.84,305.25c-2.24,2.5-3.62,2.57-1.1,6.35,2.53,3.78,9.6,14.36,11.93,17.84s4.5,4.74,7.28,2.89c2.78-1.86,3.03-2.03,4.69-3.13s2.24-3.82.09-7.04c-2.15-3.21-12.3-18.39-12.3-18.39"/><path class="cls-9" d="M552.44,303.78c2.53,3.78,9.6,14.36,11.93,17.84,2.33,3.48,4.5,4.74,7.28,2.89,2.78-1.86,3.03-2.03,4.69-3.13s2.24-3.82.09-7.04-11.67-17.44-11.67-17.44"/><path class="cls-9" d="M564.75,296.89c2.53,3.78,8.98,13.42,11.31,16.91,2.33,3.48,4.5,4.74,7.28,2.89l4.69-3.13c.94-.63,1.53-1.77,1.48-3.22"/><path class="cls-9" d="M559.95,332.33s6.78,13.8,9.37,18.4c2.59,4.6,6.83,8.31,11.2,5.39,4.37-2.92,8.52-5.7,8.52-5.7"/><path class="cls-9" d="M564.64,329.19s6.1,11.42,7.41,13.82c1.32,2.39,3.59,7.7,10.07,3.36,6.48-4.34,8.26-5.53,10.86-7.26,2.6-1.74,4.26-5.41,1.44-9.64-2.83-4.22-9.82-13.63-9.82-13.63"/><path class="cls-9" d="M566.12,325.95s5.48,10.16,6.47,11.95c.98,1.79,2.68,5.76,7.53,2.51,4.85-3.24,6.17-4.13,8.12-5.43,1.94-1.3,3.18-4.04,1.07-7.2-2.11-3.16-7.34-10.19-7.34-10.19"/><path class="cls-9" d="M570.82,325.06s5.47,9.11,5.94,9.96c.47.85,1.28,2.75,3.59,1.2,2.31-1.55,2.95-1.97,3.87-2.59s1.52-1.93.51-3.43-7.3-10.1-7.3-10.1"/><path class="cls-9" d="M471.57,393.13s-1.77-11.22,1.51-19.49c0,0,15.06,6.37,26.1,5.53,0,0-11.64,13.61-10.56,22.44"/><path class="cls-9" d="M499.17,379.17s14.61-5.07,22.39-20.35c7.78-15.28,6-20.94,6-20.94,0,0,13.47-6.2,17.59-19.71"/><path class="cls-2" d="M102.97,368.34c.85-.87,2.31-2.07,3.9-3.14,2.27-1.52,3.99-2.1,5.68-1.95,1.37.07,2.61.74,3.53,2.13,1.13,1.69,1.01,3.93-.39,5.85l.03.05c1.95-.7,4.83-.63,6.57,1.98,1.01,1.51,1.18,3.06.87,4.51-.48,1.94-2.11,3.79-4.98,5.7-1.56,1.05-2.83,1.74-3.66,2.14l-11.56-17.28ZM110.05,374.01l2.06-1.38c2.4-1.6,2.97-3.8,1.84-5.49-1.38-2.06-3.48-1.82-5.78-.29-1.04.7-1.59,1.18-1.9,1.5l3.78,5.66ZM115.68,382.43c.5-.22,1.16-.63,1.97-1.17,2.35-1.57,3.93-3.88,2.23-6.43-1.6-2.4-4.33-2.01-6.8-.36l-1.88,1.26,4.48,6.7Z"/><path class="cls-2" d="M135.6,371.6l-1.25-1.47-.08.05c-.04,1.46-.8,3.25-2.6,4.46-2.55,1.71-5.06.78-6.28-1.04-2.04-3.05-.44-6.53,4.45-9.77l-.17-.26c-.7-1.04-2.24-2.73-4.82-1-1.17.78-2.15,1.97-2.66,3.13l-1.53-1.16c.59-1.37,1.81-2.83,3.4-3.89,3.86-2.58,6.56-.58,8.25,1.95l3.16,4.72c.73,1.09,1.5,2.13,2.23,2.88l-2.09,1.39ZM130.96,365.39c-2.54,1.62-5.08,3.97-3.44,6.42.99,1.49,2.46,1.53,3.63.74,1.64-1.1,1.99-2.84,1.64-4.15-.08-.29-.2-.58-.36-.82l-1.46-2.19Z"/><path class="cls-2" d="M135.03,358.67c-.87-1.3-1.61-2.35-2.39-3.35l2.03-1.36,1.53,2,.05-.03c-.18-1.62.5-3.77,2.58-5.16,1.75-1.17,5.15-1.94,8.05,2.39l5.04,7.53-2.29,1.53-4.86-7.27c-1.36-2.03-3.25-3.22-5.41-1.77-1.51,1.01-1.97,2.86-1.51,4.4.09.36.3.78.56,1.17l5.07,7.59-2.29,1.53-6.15-9.2Z"/><path class="cls-2" d="M164.33,351.71c-.39.71-1.44,2.02-3.14,3.15-3.81,2.55-8.01,1.62-10.59-2.24s-1.82-8.48,2.3-11.23c1.36-.91,2.78-1.37,3.62-1.48l.66,2.12c-.76.05-1.81.34-3.06,1.18-2.89,1.94-3.03,5.12-1.27,7.75,1.95,2.92,5.03,3.46,7.54,1.79,1.3-.87,1.94-1.79,2.4-2.51l1.54,1.46Z"/><path class="cls-2" d="M174.31,336.44c3.12,4.67,1.25,8.86-1.8,10.9-3.41,2.28-7.72,1.54-10.39-2.45-2.82-4.22-1.72-8.55,1.78-10.88,3.62-2.42,7.84-1.43,10.42,2.43ZM164.38,343.26c1.85,2.76,4.83,3.79,7.07,2.29,2.19-1.46,2.45-4.62.55-7.46-1.43-2.14-4.31-4.13-7.02-2.32s-2.21,5.1-.61,7.5Z"/><path class="cls-2" d="M185.53,311.42l10.2,15.25c.75,1.12,1.63,2.38,2.28,3.19l-2.06,1.38-1.57-2.12-.05.03c.24,1.88-.59,3.98-2.64,5.35-3.05,2.04-7.12,1.03-9.69-2.8-2.83-4.18-1.95-8.5,1.12-10.56,1.93-1.29,3.84-1.25,5.1-.62l.05-.03-5.04-7.53,2.29-1.53ZM190.61,323.98c-.19-.29-.48-.66-.75-.9-1.31-1.23-3.37-1.6-5.09-.44-2.37,1.59-2.38,4.61-.52,7.4,1.71,2.55,4.37,3.83,6.85,2.17,1.54-1.03,2.27-2.99,1.53-4.99-.13-.36-.31-.7-.56-1.06l-1.46-2.19Z"/><path class="cls-2" d="M199.06,320.64c2.13,3.07,4.96,3.02,7.26,1.49,1.64-1.1,2.44-2.05,3.06-2.99l1.49,1.38c-.56.91-1.67,2.25-3.67,3.59-3.88,2.6-7.91,1.59-10.46-2.21-2.55-3.81-2.31-8.3,1.37-10.76,4.12-2.75,7.64.14,9.19,2.46.31.47.51.87.64,1.12l-8.86,5.93ZM204.68,314.5c-.95-1.48-3.09-3.33-5.67-1.6-2.32,1.55-1.91,4.37-1.03,6.08l6.7-4.48Z"/><path class="cls-2" d="M230.03,297.28c-1.77-2.36-3.9-5.2-5.33-7.41l-.08.05c.78,2.46,1.51,5.14,2.25,8.16l2.6,10.6-1.72,1.15-8.44-6.47c-2.49-1.92-4.71-3.72-6.6-5.47l-.05.03c1.41,2.22,3.25,5.26,4.86,7.99l4.57,7.85-2.16,1.45-10.53-18.39,2.89-1.94,8.68,6.49c2.18,1.68,4.07,3.2,5.73,4.73l.08-.05c-.74-2.07-1.41-4.42-2.11-7.16l-2.56-10.59,2.89-1.94,12.85,16.84-2.22,1.48-5.6-7.42Z"/><path class="cls-2" d="M238.76,294.08c2.13,3.07,4.96,3.02,7.26,1.49,1.64-1.1,2.44-2.05,3.06-2.99l1.49,1.38c-.56.91-1.67,2.25-3.67,3.59-3.88,2.6-7.91,1.59-10.46-2.21s-2.31-8.3,1.37-10.76c4.12-2.75,7.64.14,9.19,2.46.31.47.51.87.64,1.12l-8.86,5.93ZM244.39,287.94c-.95-1.48-3.09-3.33-5.67-1.6-2.32,1.55-1.91,4.37-1.03,6.08l6.7-4.48ZM237.89,277.04l-.69,5.85-1.64,1.1-.2-5.26,2.53-1.69Z"/><path class="cls-2" d="M247.04,278.81l3.61,1.51c.94.39,1.77.78,2.65,1.2l.08-.05c-.09-1.04-.11-1.97-.14-2.92l-.02-3.87,2.48-1.66-.22,8.98,8.79,3.55-2.61,1.74-3.75-1.6c-.98-.4-1.87-.82-2.82-1.28l-.05.03c.09,1.03.1,2.01.13,3.08l.08,4.06-2.53,1.69.18-9.44-8.41-3.32,2.55-1.71Z"/><path class="cls-2" d="M258.22,266.2c.55.76.39,1.77-.52,2.38-.81.54-1.8.3-2.32-.48s-.36-1.84.47-2.39,1.83-.32,2.37.49ZM266.48,284.07l-8.44-12.62,2.29-1.53,8.44,12.62-2.29,1.53Z"/><path class="cls-2" d="M281.26,273.51c-.39.71-1.44,2.02-3.13,3.15-3.81,2.55-8.01,1.62-10.59-2.24-2.6-3.88-1.82-8.48,2.3-11.23,1.36-.91,2.78-1.37,3.62-1.48l.66,2.12c-.76.05-1.81.34-3.06,1.18-2.89,1.94-3.03,5.12-1.27,7.75,1.95,2.92,5.03,3.46,7.54,1.79,1.3-.87,1.94-1.79,2.4-2.51l1.54,1.46Z"/><path class="cls-2" d="M291.23,258.23c3.12,4.67,1.25,8.86-1.8,10.9-3.41,2.28-7.72,1.54-10.39-2.45-2.82-4.22-1.72-8.55,1.78-10.88,3.62-2.42,7.83-1.43,10.42,2.43ZM281.31,265.06c1.85,2.76,4.83,3.78,7.07,2.29,2.19-1.46,2.45-4.62.55-7.46-1.43-2.14-4.31-4.13-7.02-2.32s-2.21,5.1-.61,7.5Z"/><text class="cls-21" transform="translate(250.2 616.14) rotate(-123.78)"><tspan x="0" y="0">Cien </tspan><tspan class="cls-23" x="49.27" y="0">P</tspan><tspan x="62.46" y="0">esos</tspan></text><text class="cls-4" transform="translate(220.07 621.34) rotate(-123.78)"><tspan x="0" y="0">100</tspan></text><text class="cls-6" transform="translate(220.07 621.34) rotate(-123.78)"><tspan x="0" y="0">100</tspan></text><text class="cls-5" transform="translate(220.07 621.34) rotate(-123.78)"><tspan x="0" y="0">100</tspan></text><text class="cls-22" transform="translate(574.1 72.29) rotate(56.22)"><tspan x="0" y="0">100</tspan></text><text class="cls-3" transform="translate(336.2 535.77) rotate(-33.78)"><tspan x="0" y="0">W2625906</tspan></text></g></svg>