<?xml version="1.0" encoding="UTF-8"?><svg xmlns="http://www.w3.org/2000/svg" xmlns:xlink="http://www.w3.org/1999/xlink" viewBox="0 0 1031.63 1219"><defs><style>.cls-1{fill:url(#_ÅÂÁ_Ï_ÌÌ_È_ËÂÌÚ_4);}.cls-1,.cls-2{mix-blend-mode:multiply;}.cls-1,.cls-2,.cls-3{stroke-width:0px;}.cls-2{fill:#bbadaa;}.cls-4{mask:url(#mask);}.cls-5{filter:url(#luminosity-noclip);}.cls-6{isolation:isolate;}.cls-3{fill:#fff;}.cls-7{mask:url(#mask-1);}</style><filter id="luminosity-noclip" x="10.57" y=".93" width="1021.06" height="1218.07" color-interpolation-filters="sRGB" filterUnits="userSpaceOnUse"><feFlood flood-color="#fff" result="bg"/><feBlend in="SourceGraphic" in2="bg"/></filter><filter id="luminosity-noclip-2" x="10.57" y="-8460.57" width="1021.06" height="32766" color-interpolation-filters="sRGB" filterUnits="userSpaceOnUse"><feFlood flood-color="#fff" result="bg"/><feBlend in="SourceGraphic" in2="bg"/></filter><mask id="mask-1" x="10.57" y="-8460.57" width="1021.06" height="32766" maskUnits="userSpaceOnUse"/><linearGradient id="_ÅÂÁ_Ï_ÌÌ_È_ËÂÌÚ_4" x1="9746.82" y1="490.37" x2="10589.14" y2="490.37" gradientTransform="translate(-9554.02 2025.33) rotate(-10.78)" gradientUnits="userSpaceOnUse"><stop offset="0" stop-color="#000"/><stop offset=".5" stop-color="#fff"/><stop offset="1" stop-color="#fff"/></linearGradient><mask id="mask" x="10.57" y=".93" width="1021.06" height="1218.07" maskUnits="userSpaceOnUse"><g class="cls-5"><g class="cls-7"><path class="cls-1" d="M982.92,1072.65l-768.52,146.34-8.38-44,.11-.08,23.99-16.14.11.06c3.29,1.75,6.97,2.31,10.63,1.62,4.78-.91,8.86-3.9,11.2-8.2,2.34-4.3,2.61-9.43.77-14.07-2.41-6.06-8.38-10.14-14.86-10.16-6.4-.02-12.1,3.54-14.83,9.3l-.04.08-.08.02-22.73,7.46-15.51-81.44.16-.06,23.87-9.45.09.06c3.59,2.46,7.92,3.37,12.18,2.56,4.53-.86,8.49-3.64,10.87-7.62,2.41-4.04,2.96-8.76,1.56-13.31-2.2-7.14-9.16-11.96-16.56-11.46-5.74.42-10.72,3.67-13.35,8.77l-.07.14-.15-.03-25.26-4.59-13.51-70.96.17-.06,23.08-8.28.09.08c3.74,3.09,8.61,4.35,13.35,3.44,4.78-.91,8.86-3.9,11.2-8.2,2.34-4.3,2.61-9.43.77-14.07-2.45-6.15-8.52-10.23-15.1-10.16-5.66.06-10.8,2.95-13.74,7.73l-.06.09h-.1s-24.8,2.44-24.8,2.44l-17.44-91.56.3.05,23.91,4.46.05.06c3.79,4.32,9.63,6.33,15.23,5.27,4.78-.91,8.86-3.9,11.2-8.2,2.34-4.3,2.61-9.43.77-14.07-2.42-6.07-8.4-10.15-14.89-10.16-5.57,0-10.51,2.6-13.58,7.15l-.06.09h-.12s-25.94-1.15-25.94-1.15l-14.97-78.63,21.95-4.96.08.1c3.78,4.79,9.83,7.07,15.78,5.93,4.78-.91,8.86-3.9,11.2-8.2,2.34-4.3,2.61-9.43.77-14.07-2.45-6.15-8.52-10.23-15.11-10.16-5.67.06-10.82,2.97-13.75,7.77l-.06.1h-.12s-25.22-.03-25.22-.03l-14.24-74.78,6.42-3.08.08.02c1.01.29,4.78-1.42,8.1-2.93,4.54-2.06,7.34-3.3,8.06-2.64,3.78,3.53,9.05,5.07,14.1,4.11,4.53-.86,8.49-3.64,10.87-7.62,2.41-4.04,2.97-8.77,1.56-13.32-2.2-7.13-9.15-11.95-16.54-11.45-3.97.26-7.65,1.93-10.41,4.7-.74.74-3.46,2.26-6.61,4.02-4.58,2.56-10.86,6.07-11.32,7.55l-.04.11-.11.03-7.65,2.2-17.03-89.43.21-.03,24.03-4,.07.06c3.72,2.98,8.52,4.19,13.18,3.3,4.78-.91,8.86-3.9,11.19-8.2,2.34-4.3,2.61-9.43.77-14.07-2.44-6.12-8.48-10.21-15.03-10.16-5.59.03-10.72,2.86-13.69,7.54l-.06.08h-.1s-24.98,2.33-24.98,2.33l-12.43-65.27.07-.08,9.22-9.81h.05s19.72-6.16,19.72-6.16h.05c2.79.43,5.58.12,8.3-.92,6.19-2.36,10.33-8.43,10.32-15.08-.01-5.33-2.42-10.18-6.61-13.3-4.19-3.12-9.46-4.01-14.47-2.5-6.9,2.12-11.7,8.9-11.42,16.12.08,2.01.5,3.95,1.25,5.77l.08.2-.2.08-19.78,7.81-19.61-102.99,22.11-4.96.08.1c3.78,4.61,9.76,6.79,15.58,5.68,4.78-.91,8.86-3.9,11.19-8.2,2.34-4.3,2.61-9.43.77-14.07-2.44-6.13-8.48-10.21-15.05-10.16-6.63.04-12.34,3.84-14.92,9.9l-.05.11-.12.02-23.1,3.28-17.92-94.12.11-.08,4.13-2.87h.05c15.95-1.42,16.04-.97,16.08-.73.92,4.82,3.9,8.93,8.17,11.3,4.28,2.36,9.36,2.66,13.98.81,6-2.4,10.04-8.39,10.05-14.9,0-5-2.13-9.67-5.89-12.81-3.75-3.14-8.64-4.42-13.42-3.51-4.87.93-10.53,5.06-11.37,6.77l-.06.12h-.13s-19.35-.29-19.35-.29l-5.85-2.14-9.36-49.17L780.52,1.96c31.71-6.04,62.44,15.03,68.52,46.97l181.5,953.14c6.23,32.73-15.13,64.4-47.62,70.58ZM214.73,1218.51l768.11-146.27c32.26-6.14,53.48-37.59,47.29-70.1L848.63,49.01c-6.04-31.71-36.56-52.63-68.03-46.63L11.05,148.91l9.24,48.52,5.6,2.04,19.12.27c1.14-2.02,7-6.01,11.6-6.88,4.9-.93,9.92.38,13.77,3.6,3.85,3.22,6.05,8.01,6.03,13.13-.01,6.68-4.16,12.82-10.31,15.28-4.73,1.9-9.95,1.59-14.34-.83-4.36-2.41-7.4-6.59-8.36-11.49-1.02-.22-9.99.47-15.6.96l-3.94,2.72,17.8,93.45,22.59-3.2c2.67-6.15,8.5-9.99,15.25-10.05,6.73-.05,12.93,4.14,15.43,10.43,1.9,4.76,1.61,10.02-.78,14.43-2.4,4.41-6.58,7.47-11.48,8.41-5.93,1.13-12.01-1.06-15.9-5.72l-21.47,4.82,19.44,102.09,19.11-7.55c-.72-1.8-1.12-3.72-1.2-5.72-.29-7.42,4.63-14.37,11.71-16.54,5.16-1.58,10.55-.64,14.84,2.56,4.3,3.2,6.77,8.17,6.78,13.64.02,6.83-4.24,13.05-10.59,15.48-2.77,1.05-5.61,1.38-8.46.96l-19.58,6.1-9.07,9.65,12.32,64.68,24.5-2.28c3.05-4.75,8.26-7.61,13.98-7.65,6.72-.04,12.92,4.15,15.42,10.43,1.9,4.76,1.61,10.02-.78,14.43-2.4,4.41-6.58,7.48-11.48,8.41s-9.64-.31-13.44-3.33l-23.63,3.94,16.86,88.56,7.11-2.04c.73-1.67,6.43-4.86,11.48-7.68,3.12-1.74,5.82-3.25,6.51-3.95,2.84-2.83,6.61-4.55,10.68-4.82,7.58-.51,14.72,4.43,16.97,11.75,1.44,4.66.87,9.51-1.6,13.66-2.44,4.09-6.5,6.93-11.15,7.82-5.18.99-10.59-.59-14.47-4.21-.53-.49-4.45,1.29-7.6,2.72-3.64,1.65-7.07,3.22-8.31,2.97l-5.99,2.87,14.11,74.12,24.76.03c3.02-4.86,8.26-7.8,14.04-7.87,6.77-.08,13,4.12,15.51,10.43,1.9,4.76,1.61,10.02-.78,14.43-2.4,4.41-6.58,7.47-11.48,8.41-6.07,1.16-12.23-1.13-16.11-5.98l-21.31,4.82,14.83,77.9,25.5,1.13c3.16-4.6,8.2-7.24,13.86-7.24,6.66,0,12.8,4.2,15.27,10.42,1.9,4.76,1.61,10.02-.78,14.43-2.4,4.41-6.58,7.47-11.49,8.41-5.73,1.09-11.69-.96-15.57-5.35l-23.47-4.38,17.25,90.58,24.32-2.38c3.02-4.85,8.26-7.78,14.04-7.84,6.76-.07,12.99,4.12,15.49,10.42,1.9,4.76,1.61,10.03-.78,14.43-2.4,4.41-6.58,7.47-11.49,8.41-4.83.92-9.78-.34-13.6-3.46l-22.7,8.14,13.39,70.32,24.83,4.52c2.71-5.15,7.8-8.45,13.62-8.85,7.59-.52,14.74,4.42,16.99,11.75,1.44,4.66.87,9.51-1.61,13.65-2.44,4.09-6.5,6.93-11.15,7.82-4.33.83-8.73-.09-12.4-2.56l-23.51,9.31,15.35,80.62,22.19-7.28c2.81-5.85,8.62-9.48,15.17-9.46,6.65.02,12.77,4.21,15.24,10.43,1.9,4.76,1.61,10.02-.78,14.43-2.4,4.41-6.58,7.47-11.49,8.4-3.72.71-7.45.15-10.79-1.6l-23.67,15.92,8.25,43.31Z"/></g></g></mask></defs><g class="cls-6"><g id="Capa_2"><g id="Capa_1-2"><path class="cls-2" d="M212.14,1136.11c2.6-5.48,8.16-9.44,15.02-9.42,6.55.02,12.62,4.17,15.05,10.29,3.99,10.04-2.14,20.66-12.12,22.56-3.82.73-7.58.07-10.77-1.64l-23.89,16.06,8.31,43.66,768.32-146.3c32.43-6.18,53.68-37.67,47.46-70.34L838.03,47.84c-6.07-31.87-36.64-52.83-68.28-46.8L0,147.61l9.3,48.85,5.74,2.1,19.29.28c.89-1.84,6.7-5.97,11.51-6.89,9.98-1.9,19.59,5.72,19.56,16.52-.02,6.58-4.12,12.66-10.18,15.09-9.96,3.99-20.52-2.21-22.44-12.27-.1-.5-15.86.9-15.86.9l-4.09,2.83,17.86,93.79,22.9-3.25c2.45-5.75,8.08-9.97,15.11-10.02,6.62-.05,12.78,4.1,15.24,10.29,3.99,10.03-2.14,20.65-12.12,22.56-6.11,1.16-12.07-1.24-15.78-5.75l-21.78,4.89,19.53,102.54,19.54-7.72c-.74-1.79-1.18-3.75-1.26-5.84-.29-7.36,4.57-14.19,11.56-16.33,10.56-3.23,21.32,4.6,21.35,16,.02,6.71-4.22,12.9-10.45,15.28-2.83,1.08-5.7,1.35-8.4.94l-19.68,6.13-9.18,9.77,12.37,64.98,24.79-2.3c2.85-4.49,7.84-7.59,13.86-7.64,6.61-.05,12.77,4.11,15.23,10.29,3.99,10.04-2.14,20.66-12.12,22.56-4.9.93-9.72-.43-13.35-3.34l-23.93,3.98,16.95,88.99,7.43-2.13c.8-2.54,16.12-9.78,17.98-11.66,2.69-2.69,6.34-4.48,10.54-4.76,7.47-.5,14.53,4.4,16.75,11.6,2.96,9.62-3.06,19.39-12.59,21.21-5.34,1.02-10.57-.69-14.28-4.16-1.24-1.16-13.88,6.26-16.08,5.62l-6.2,2.98,14.18,74.45,25.05.03c2.81-4.6,7.84-7.8,13.92-7.87,6.64-.08,12.84,4.08,15.32,10.29,3.99,10.04-2.14,20.66-12.12,22.56-6.22,1.18-12.3-1.33-15.98-6.01l-21.63,4.89,14.9,78.26,25.78,1.14c2.91-4.32,7.84-7.25,13.75-7.24,6.56.01,12.64,4.16,15.08,10.29,3.99,10.04-2.14,20.66-12.12,22.56-5.92,1.13-11.7-1.09-15.43-5.33l-23.84-4.45,17.34,91.07,24.61-2.41c2.82-4.58,7.84-7.77,13.92-7.83,6.63-.07,12.83,4.09,15.3,10.29,3.99,10.04-2.14,20.65-12.12,22.56-4.99.95-9.88-.48-13.52-3.49l-22.97,8.24,13.45,70.64,25.12,4.57c2.52-4.89,7.44-8.46,13.53-8.88,7.48-.51,14.56,4.39,16.78,11.61,2.96,9.62-3.06,19.39-12.6,21.2-4.46.85-8.85-.21-12.33-2.59l-23.77,9.41,15.43,81.03,22.5-7.38Z"/><path class="cls-3" d="M222.95,1137.24c2.6-5.48,8.16-9.44,15.02-9.42,6.55.02,12.62,4.17,15.05,10.29,3.99,10.04-2.14,20.66-12.12,22.56-3.82.73-7.58.06-10.77-1.64l-23.89,16.07,8.31,43.65,768.32-146.3c32.43-6.18,53.68-37.67,47.46-70.34L848.84,48.97c-6.07-31.87-36.64-52.83-68.28-46.8L10.81,148.75l9.3,48.85,5.74,2.1,19.29.28c.89-1.84,6.7-5.97,11.51-6.89,9.98-1.9,19.59,5.72,19.56,16.52-.02,6.58-4.12,12.66-10.18,15.09-9.96,4-20.52-2.21-22.44-12.26-.1-.51-15.86.9-15.86.9l-4.09,2.83,17.86,93.79,22.9-3.24c2.45-5.75,8.08-9.97,15.11-10.03,6.62-.05,12.78,4.1,15.24,10.29,3.99,10.04-2.14,20.66-12.12,22.56-6.11,1.16-12.07-1.24-15.78-5.76l-21.78,4.89,19.53,102.54,19.54-7.72c-.74-1.79-1.18-3.75-1.26-5.84-.29-7.36,4.57-14.19,11.56-16.33,10.56-3.23,21.32,4.59,21.35,16,.02,6.71-4.22,12.9-10.45,15.28-2.83,1.08-5.7,1.35-8.4.94l-19.68,6.13-9.18,9.77,12.37,64.98,24.79-2.31c2.85-4.49,7.84-7.59,13.86-7.63,6.61-.05,12.77,4.11,15.23,10.29,3.99,10.03-2.14,20.66-12.12,22.56-4.9.93-9.72-.43-13.35-3.35l-23.93,3.98,16.95,88.99,7.43-2.13c.8-2.54,16.12-9.78,17.98-11.66,2.69-2.69,6.34-4.48,10.54-4.76,7.47-.5,14.53,4.4,16.75,11.6,2.96,9.62-3.06,19.4-12.59,21.21-5.34,1.02-10.57-.69-14.28-4.16-1.24-1.16-13.88,6.26-16.08,5.62l-6.2,2.97,14.18,74.45,25.05.03c2.81-4.6,7.84-7.8,13.92-7.87,6.64-.07,12.84,4.08,15.32,10.29,3.99,10.04-2.14,20.66-12.12,22.56-6.22,1.18-12.3-1.33-15.98-6.01l-21.63,4.89,14.9,78.26,25.78,1.14c2.91-4.32,7.84-7.25,13.75-7.24,6.56,0,12.64,4.16,15.08,10.29,3.99,10.04-2.14,20.66-12.12,22.56-5.92,1.13-11.7-1.09-15.43-5.33l-23.84-4.45,17.34,91.07,24.61-2.41c2.82-4.59,7.84-7.77,13.91-7.84,6.63-.07,12.83,4.09,15.3,10.29,4,10.04-2.14,20.66-12.12,22.56-4.99.95-9.88-.48-13.52-3.49l-22.97,8.24,13.45,70.64,25.12,4.57c2.52-4.89,7.44-8.46,13.53-8.88,7.48-.51,14.56,4.39,16.77,11.6,2.96,9.62-3.06,19.39-12.6,21.2-4.46.85-8.85-.2-12.33-2.59l-23.77,9.41,15.43,81.03,22.5-7.38Z"/><g class="cls-4"><path class="cls-3" d="M982.92,1072.65l-768.52,146.34-8.38-44,.11-.08,23.99-16.14.11.06c3.29,1.75,6.97,2.31,10.63,1.62,4.78-.91,8.86-3.9,11.2-8.2,2.34-4.3,2.61-9.43.77-14.07-2.41-6.06-8.38-10.14-14.86-10.16-6.4-.02-12.1,3.54-14.83,9.3l-.04.08-.08.02-22.73,7.46-15.51-81.44.16-.06,23.87-9.45.09.06c3.59,2.46,7.92,3.37,12.18,2.56,4.53-.86,8.49-3.64,10.87-7.62,2.41-4.04,2.96-8.76,1.56-13.31-2.2-7.14-9.16-11.96-16.56-11.46-5.74.42-10.72,3.67-13.35,8.77l-.07.14-.15-.03-25.26-4.59-13.51-70.96.17-.06,23.08-8.28.09.08c3.74,3.09,8.61,4.35,13.35,3.44,4.78-.91,8.86-3.9,11.2-8.2,2.34-4.3,2.61-9.43.77-14.07-2.45-6.15-8.52-10.23-15.1-10.16-5.66.06-10.8,2.95-13.74,7.73l-.06.09h-.1s-24.8,2.44-24.8,2.44l-17.44-91.56.3.05,23.91,4.46.05.06c3.79,4.32,9.63,6.33,15.23,5.27,4.78-.91,8.86-3.9,11.2-8.2,2.34-4.3,2.61-9.43.77-14.07-2.42-6.07-8.4-10.15-14.89-10.16-5.57,0-10.51,2.6-13.58,7.15l-.06.09h-.12s-25.94-1.15-25.94-1.15l-14.97-78.63,21.95-4.96.08.1c3.78,4.79,9.83,7.07,15.78,5.93,4.78-.91,8.86-3.9,11.2-8.2,2.34-4.3,2.61-9.43.77-14.07-2.45-6.15-8.52-10.23-15.11-10.16-5.67.06-10.82,2.97-13.75,7.77l-.06.1h-.12s-25.22-.03-25.22-.03l-14.24-74.78,6.42-3.08.08.02c1.01.29,4.78-1.42,8.1-2.93,4.54-2.06,7.34-3.3,8.06-2.64,3.78,3.53,9.05,5.07,14.1,4.11,4.53-.86,8.49-3.64,10.87-7.62,2.41-4.04,2.97-8.77,1.56-13.32-2.2-7.13-9.15-11.95-16.54-11.45-3.97.26-7.65,1.93-10.41,4.7-.74.74-3.46,2.26-6.61,4.02-4.58,2.56-10.86,6.07-11.32,7.55l-.04.11-.11.03-7.65,2.2-17.03-89.43.21-.03,24.03-4,.07.06c3.72,2.98,8.52,4.19,13.18,3.3,4.78-.91,8.86-3.9,11.19-8.2,2.34-4.3,2.61-9.43.77-14.07-2.44-6.12-8.48-10.21-15.03-10.16-5.59.03-10.72,2.86-13.69,7.54l-.06.08h-.1s-24.98,2.33-24.98,2.33l-12.43-65.27.07-.08,9.22-9.81h.05s19.72-6.16,19.72-6.16h.05c2.79.43,5.58.12,8.3-.92,6.19-2.36,10.33-8.43,10.32-15.08-.01-5.33-2.42-10.18-6.61-13.3-4.19-3.12-9.46-4.01-14.47-2.5-6.9,2.12-11.7,8.9-11.42,16.12.08,2.01.5,3.95,1.25,5.77l.08.2-.2.08-19.78,7.81-19.61-102.99,22.11-4.96.08.1c3.78,4.61,9.76,6.79,15.58,5.68,4.78-.91,8.86-3.9,11.19-8.2,2.34-4.3,2.61-9.43.77-14.07-2.44-6.13-8.48-10.21-15.05-10.16-6.63.04-12.34,3.84-14.92,9.9l-.05.11-.12.02-23.1,3.28-17.92-94.12.11-.08,4.13-2.87h.05c15.95-1.42,16.04-.97,16.08-.73.92,4.82,3.9,8.93,8.17,11.3,4.28,2.36,9.36,2.66,13.98.81,6-2.4,10.04-8.39,10.05-14.9,0-5-2.13-9.67-5.89-12.81-3.75-3.14-8.64-4.42-13.42-3.51-4.87.93-10.53,5.06-11.37,6.77l-.06.12h-.13s-19.35-.29-19.35-.29l-5.85-2.14-9.36-49.17L780.52,1.96c31.71-6.04,62.44,15.03,68.52,46.97l181.5,953.14c6.23,32.73-15.13,64.4-47.62,70.58ZM214.73,1218.51l768.11-146.27c32.26-6.14,53.48-37.59,47.29-70.1L848.63,49.01c-6.04-31.71-36.56-52.63-68.03-46.63L11.05,148.91l9.24,48.52,5.6,2.04,19.12.27c1.14-2.02,7-6.01,11.6-6.88,4.9-.93,9.92.38,13.77,3.6,3.85,3.22,6.05,8.01,6.03,13.13-.01,6.68-4.16,12.82-10.31,15.28-4.73,1.9-9.95,1.59-14.34-.83-4.36-2.41-7.4-6.59-8.36-11.49-1.02-.22-9.99.47-15.6.96l-3.94,2.72,17.8,93.45,22.59-3.2c2.67-6.15,8.5-9.99,15.25-10.05,6.73-.05,12.93,4.14,15.43,10.43,1.9,4.76,1.61,10.02-.78,14.43-2.4,4.41-6.58,7.47-11.48,8.41-5.93,1.13-12.01-1.06-15.9-5.72l-21.47,4.82,19.44,102.09,19.11-7.55c-.72-1.8-1.12-3.72-1.2-5.72-.29-7.42,4.63-14.37,11.71-16.54,5.16-1.58,10.55-.64,14.84,2.56,4.3,3.2,6.77,8.17,6.78,13.64.02,6.83-4.24,13.05-10.59,15.48-2.77,1.05-5.61,1.38-8.46.96l-19.58,6.1-9.07,9.65,12.32,64.68,24.5-2.28c3.05-4.75,8.26-7.61,13.98-7.65,6.72-.04,12.92,4.15,15.42,10.43,1.9,4.76,1.61,10.02-.78,14.43-2.4,4.41-6.58,7.48-11.48,8.41s-9.64-.31-13.44-3.33l-23.63,3.94,16.86,88.56,7.11-2.04c.73-1.67,6.43-4.86,11.48-7.68,3.12-1.74,5.82-3.25,6.51-3.95,2.84-2.83,6.61-4.55,10.68-4.82,7.58-.51,14.72,4.43,16.97,11.75,1.44,4.66.87,9.51-1.6,13.66-2.44,4.09-6.5,6.93-11.15,7.82-5.18.99-10.59-.59-14.47-4.21-.53-.49-4.45,1.29-7.6,2.72-3.64,1.65-7.07,3.22-8.31,2.97l-5.99,2.87,14.11,74.12,24.76.03c3.02-4.86,8.26-7.8,14.04-7.87,6.77-.08,13,4.12,15.51,10.43,1.9,4.76,1.61,10.02-.78,14.43-2.4,4.41-6.58,7.47-11.48,8.41-6.07,1.16-12.23-1.13-16.11-5.98l-21.31,4.82,14.83,77.9,25.5,1.13c3.16-4.6,8.2-7.24,13.86-7.24,6.66,0,12.8,4.2,15.27,10.42,1.9,4.76,1.61,10.02-.78,14.43-2.4,4.41-6.58,7.47-11.49,8.41-5.73,1.09-11.69-.96-15.57-5.35l-23.47-4.38,17.25,90.58,24.32-2.38c3.02-4.85,8.26-7.78,14.04-7.84,6.76-.07,12.99,4.12,15.49,10.42,1.9,4.76,1.61,10.03-.78,14.43-2.4,4.41-6.58,7.47-11.49,8.41-4.83.92-9.78-.34-13.6-3.46l-22.7,8.14,13.39,70.32,24.83,4.52c2.71-5.15,7.8-8.45,13.62-8.85,7.59-.52,14.74,4.42,16.99,11.75,1.44,4.66.87,9.51-1.61,13.65-2.44,4.09-6.5,6.93-11.15,7.82-4.33.83-8.73-.09-12.4-2.56l-23.51,9.31,15.35,80.62,22.19-7.28c2.81-5.85,8.62-9.48,15.17-9.46,6.65.02,12.77,4.21,15.24,10.43,1.9,4.76,1.61,10.02-.78,14.43-2.4,4.41-6.58,7.47-11.49,8.4-3.72.71-7.45.15-10.79-1.6l-23.67,15.92,8.25,43.31Z"/></g></g></g></g></svg>