<?xml version="1.0" encoding="UTF-8"?><svg id="Capa_2" xmlns="http://www.w3.org/2000/svg" viewBox="0 0 912.37 1119.47"><defs><style>.cls-1{fill:#c2c5d2;}.cls-1,.cls-2,.cls-3,.cls-4,.cls-5,.cls-6{stroke-width:0px;}.cls-2{fill:#413a31;}.cls-3{fill:#f7f8f8;}.cls-4{fill:#7e808c;}.cls-5{fill:#9d9ead;}.cls-6{fill:#6b6d77;}</style></defs><g id="Capa_1-2"><path class="cls-2" d="M79.42,42.83h16.05c.43,0,.87.05,1.29.13.34.08.68.18,1,.32.06.01.13.02.18.04.68.29,1.28.71,1.82,1.19.06.06.15.09.22.15h-.09c1.1,1.04,1.86,2.41,2.04,3.99l.08.72c0,2.36-1.25,4.4-3.12,5.55-.03.02-.09.04-.13.08-.4.23-.83.41-1.29.56-.11.05-.23.08-.36.12-.52.13-1.07.23-1.62.23h-16.05v9.63h16.05c.43,0,.87.03,1.28.12.36.06.69.19,1.02.3.05.01.12.03.17.06.75.31,1.42.75,2.01,1.31,0,0,.01,0,.02.02h-.01c1.08,1.03,1.78,2.43,1.96,3.97l.08.74c0,2.36-1.25,4.4-3.12,5.53-.03.04-.09.06-.13.09-.4.23-.83.43-1.28.55-.12.05-.24.09-.37.13-.52.13-1.07.23-1.62.23h-16.05v12.06h27.03v-57.23h-27.03v9.41Z"/><path class="cls-2" d="M79.42,124.62v10.74h16.05c.43,0,.87.05,1.29.13.31.06.62.18.93.29.08.03.17.05.25.08.69.29,1.28.71,1.82,1.18.06.06.15.08.22.15h-.09c1.1,1.03,1.86,2.4,2.04,3.98l.08.72c0,1.13-.31,2.15-.8,3.09h0c-.55,1.01-1.34,1.87-2.31,2.46-.04.02-.1.04-.14.08-.4.24-.83.43-1.29.57-.11.03-.23.08-.36.11-.52.12-1.07.23-1.62.23h-16.05v9.62h16.05c.43,0,.87.03,1.29.12.36.08.73.19,1.07.33.04.02.06.02.1.04.68.28,1.28.71,1.82,1.2.06.04.15.08.22.13h-.09c1.1,1.04,1.86,2.41,2.04,3.98l.08.72c0,1.13-.31,2.16-.8,3.09h0c-.55,1.01-1.34,1.85-2.3,2.46-.05.03-.11.05-.16.09-.4.23-.83.41-1.27.55-.12.05-.25.09-.38.12-.52.13-1.06.23-1.62.23h-16.05v10.74h27.03v-57.23h-27.03Z"/><path class="cls-2" d="M96.76,228.02c.33.08.65.18.96.3.07.03.16.04.22.06.68.29,1.28.71,1.82,1.2.06.06.15.09.22.14h-.09c1.1,1.03,1.86,2.41,2.04,4l.08.71c0,2.35-1.25,4.39-3.11,5.54-.05.04-.11.05-.15.08-.4.24-.83.41-1.27.56-.13.05-.25.1-.38.12-.52.14-1.06.24-1.62.24h-16.05v9.62h16.05c.43,0,.87.05,1.29.13.3.05.6.16.89.26.1.04.2.06.29.1.69.27,1.28.71,1.82,1.19.06.05.15.08.22.13h-.09c1.1,1.04,1.86,2.41,2.04,4l.08.71c0,2.36-1.25,4.4-3.11,5.56-.04.03-.1.05-.15.08-.4.24-.83.41-1.28.56-.12.05-.24.09-.37.12-.52.13-1.07.23-1.62.23h-16.05v9.41h27.03v-57.23h-27.03v12.07h16.05c.43,0,.87.05,1.29.12Z"/><path class="cls-2" d="M79.42,313.04v4.72h16.05c.43,0,.87.05,1.29.13.3.06.58.17.86.27.12.04.22.05.33.1.37.15.71.34,1.03.55.01,0,.04.02.04.02.33.21.64.47.92.73.02.02.03.02.04.02h-.01c1.08,1.04,1.78,2.43,1.96,4l.08.72c0,2.34-1.25,4.4-3.12,5.55-.03.02-.09.04-.13.06-.39.24-.83.43-1.29.58-.11.04-.23.08-.36.11-.52.12-1.07.22-1.62.22h-16.05v9.62h16.05c.43,0,.87.06,1.29.13.31.06.62.17.93.28.08.03.17.05.24.09.69.27,1.28.7,1.82,1.18.06.05.15.09.22.14h-.09c1.1,1.04,1.86,2.4,2.04,3.99l.08.72c0,2.36-1.25,4.4-3.12,5.55-.03.03-.09.05-.13.08-.4.23-.83.42-1.29.57-.11.04-.23.08-.36.12-.52.13-1.07.23-1.62.23h-16.05v10.74h27.03v-57.23h-27.03v6Z"/><path class="cls-2" d="M79.42,398.24v10.74h16.05c.43,0,.87.04,1.29.13.3.07.6.16.89.27.1.03.2.05.29.08.68.28,1.28.71,1.82,1.19.06.05.15.08.22.13h-.09c1.1,1.04,1.86,2.4,2.04,4l.08.72c0,2.35-1.25,4.4-3.12,5.55-.03.03-.09.04-.13.08-.4.23-.83.42-1.29.57-.11.03-.23.08-.36.11-.52.14-1.07.22-1.62.22h-16.05v9.63h16.05c.43,0,.87.05,1.28.13.36.07.69.19,1.02.3.05.02.12.04.17.05.75.31,1.42.76,2.01,1.31,0,.02.01.02.02.02h-.01c1.08,1.03,1.78,2.43,1.96,3.98l.08.72c0,2.36-1.25,4.4-3.11,5.55-.04.03-.1.05-.15.08-.4.24-.83.43-1.28.56-.12.05-.24.08-.37.12-.52.13-1.07.23-1.62.23h-16.05v10.73h27.03v-57.22h-27.03Z"/><path class="cls-2" d="M79.42,489.45v10.73h16.05c.43,0,.87.05,1.29.14.31.08.62.16.93.28.08.03.17.05.25.08.69.28,1.28.71,1.82,1.19.06.05.15.08.22.15h-.09c1.1,1.03,1.86,2.4,2.04,3.98l.08.72c0,1.12-.31,2.16-.8,3.09v.02c-.55,1-1.34,1.83-2.31,2.44-.04.02-.1.05-.14.07-.4.23-.83.43-1.29.57-.11.03-.23.08-.36.11-.52.14-1.07.23-1.62.23h-16.05v9.62h16.05c.43,0,.87.05,1.29.13.36.09.73.2,1.07.34.04,0,.06.01.1.03.68.27,1.28.7,1.82,1.18.06.07.15.09.22.15h-.09c1.1,1.04,1.86,2.41,2.04,3.99l.08.72c0,1.13-.31,2.16-.8,3.1h0c-.55,1-1.34,1.85-2.3,2.44-.05.03-.11.07-.16.09-.4.23-.83.41-1.27.56-.12.04-.25.09-.38.12-.52.13-1.06.23-1.62.23h-16.05v10.73h27.03v-57.22h-27.03Z"/><path class="cls-2" d="M96.76,591.51c.26.05.51.15.76.23.15.04.29.07.42.14.34.12.66.3.96.5.03.03.08.04.12.06.3.19.59.43.86.69.02.03.06.05.09.06h-.01c1.08,1.04,1.78,2.43,1.96,4l.08.72c0,2.36-1.25,4.4-3.12,5.55-.03.02-.08.05-.12.06-.41.25-.85.43-1.31.58-.11.04-.23.08-.36.11-.52.14-1.07.24-1.62.24h-16.05v9.61h16.05c.43,0,.87.05,1.29.13.3.06.58.17.86.26.12.04.22.06.33.1.35.15.69.33,1.01.54.02.01.04.02.07.02.3.22.59.45.86.69.04.03.06.04.09.08h-.01c1.08,1.03,1.78,2.43,1.96,3.98l.08.73c0,2.36-1.25,4.4-3.12,5.55-.03.03-.09.05-.13.08-.4.23-.83.43-1.29.57-.11.05-.23.08-.36.11-.52.14-1.07.24-1.62.24h-16.05v10.73h27.03v-57.23h-27.03v10.74h16.05c.43,0,.87.04,1.29.13Z"/><path class="cls-2" d="M79.42,682.58h16.05c.43,0,.87.05,1.29.13.34.07.68.19,1,.31.06.02.13.03.18.05.68.29,1.28.71,1.82,1.19.06.06.15.09.22.15h-.09c1.1,1.03,1.86,2.4,2.04,3.98l.08.72c0,2.35-1.25,4.4-3.12,5.55-.03.02-.09.04-.13.08-.4.23-.83.42-1.28.55-.12.05-.24.09-.37.12-.52.13-1.07.23-1.62.23h-16.05v9.62h16.05c.43,0,.87.05,1.29.13.31.07.61.17.92.28.08.04.17.04.26.09.68.29,1.28.71,1.82,1.18.06.06.15.09.22.14h-.09c1.1,1.04,1.86,2.41,2.04,4l.08.71c0,2.36-1.25,4.4-3.11,5.55-.04.03-.1.06-.15.08-.4.24-.83.43-1.28.57-.12.05-.24.09-.37.1-.52.14-1.07.24-1.62.24h-16.05v10.73h27.03v-57.23h-27.03v10.73Z"/><path class="cls-2" d="M79.42,763.05v10.74h16.05c.43,0,.87.04,1.28.12.34.07.67.17.99.3.07.03.15.03.2.07.75.3,1.42.75,1.99,1.29.02.02.02.02.04.03h-.01c1.08,1.02,1.78,2.44,1.96,4l.08.72c0,2.36-1.25,4.4-3.12,5.55-.03.03-.08.03-.12.06-.41.24-.85.43-1.31.57-.11.05-.23.09-.36.12-.52.13-1.07.25-1.62.25h-16.05v9.61h16.05c.43,0,.87.05,1.29.12.28.06.56.16.83.26.12.05.24.06.35.12.35.15.69.33,1,.52.02.02.06.03.09.05.31.2.6.44.88.7.02.02.04.03.06.05h-.01c1.08,1.04,1.78,2.44,1.96,4.01l.08.71c0,2.36-1.25,4.41-3.12,5.55-.03.03-.08.05-.12.06-.41.24-.85.44-1.31.58-.11.04-.23.09-.36.12-.52.13-1.07.23-1.62.23h-16.05v10.73h27.03v-57.23h-27.03Z"/><path class="cls-2" d="M79.42,854.26v10.74h16.05c.43,0,.87.03,1.29.12.33.08.65.18.96.3.08.02.15.03.22.08.75.3,1.43.75,2.02,1.3,0,0,0,0,.02.02,1.08,1.03,1.77,2.42,1.95,3.99l.08.72c0,1.12-.31,2.17-.8,3.09h0c-.55,1-1.34,1.85-2.3,2.46-.05.02-.11.05-.16.08-.4.22-.82.41-1.27.56-.12.03-.25.08-.38.11-.52.14-1.06.23-1.62.23h-16.05v9.62h16.05c.43,0,.87.04,1.28.12.35.07.69.19,1.02.32.05.01.12.03.17.05.69.28,1.28.69,1.82,1.18.06.06.15.09.22.16h-.08c1.08,1.03,1.85,2.4,2.02,3.97l.08.73c0,1.11-.31,2.16-.8,3.09-.55,1-1.34,1.85-2.3,2.46-.05.03-.11.05-.15.08-.4.23-.83.41-1.27.56-.13.05-.25.08-.38.12-.52.14-1.06.22-1.62.22h-16.05v10.74h27.03v-57.23h-27.03Z"/><path class="cls-2" d="M96.76,951.7c.3.06.6.16.88.26.1.05.2.05.3.09.37.15.72.35,1.07.57h0c.34.22.66.48.94.76h.01c1.07,1.03,1.77,2.42,1.95,3.98l.08.73c0,2.36-1.25,4.4-3.12,5.53-.03.02-.09.05-.13.09-.4.23-.83.41-1.28.56-.12.04-.24.08-.37.12-.52.13-1.07.22-1.62.22h-16.05v9.64h16.05c.43,0,.87.04,1.29.12.3.07.58.16.86.27.1.03.22.05.33.1.37.13.7.33,1.03.54.01,0,.04,0,.05.02.32.21.62.46.9.72.02.01.03.01.04.03h-.01c1.08,1.03,1.78,2.43,1.96,3.98l.08.73c0,2.36-1.25,4.4-3.12,5.55-.03.03-.09.05-.13.08-.39.23-.83.43-1.29.57-.11.05-.23.08-.36.12-.52.13-1.07.23-1.62.23h-16.05v10.73h27.03v-57.23h-27.03v10.74h16.05c.43,0,.87.05,1.29.13Z"/><path class="cls-2" d="M79.42,1038.13h16.05c.43,0,.87.04,1.29.12.26.07.51.15.76.24.15.04.29.06.42.13.34.15.67.32.99.51.02.02.06.04.1.06.32.21.62.45.9.72.01,0,.03.01.05.04h-.01c1.08,1.03,1.78,2.43,1.96,3.99l.08.72c0,2.36-1.25,4.4-3.12,5.55-.03.02-.09.04-.12.07-.4.24-.84.43-1.31.58-.11.04-.23.08-.36.11-.52.13-1.07.23-1.62.23h-16.05v9.62h16.05c.43,0,.87.05,1.29.13.31.06.62.17.93.29.08.02.17.03.24.07.37.15.73.34,1.06.57.01,0,.01,0,.02,0,.32.2.61.44.88.7.03.01.05.04.08.06h-.01c1.08,1.03,1.78,2.42,1.96,3.98l.08.72c0,2.36-1.25,4.4-3.12,5.55-.03.02-.09.04-.13.07-.39.24-.83.42-1.29.57-.11.05-.23.08-.36.11-.52.14-1.07.23-1.62.23h-16.05v10.74h27.03v-57.23h-27.03v10.74Z"/><path class="cls-5" d="M99.88,44.65H2.08c-1.08,1.04-1.8,2.41-1.97,3.99h101.81c-.18-1.58-.94-2.95-2.04-3.99Z"/><path class="cls-1" d="M99.97,44.65c-.06-.05-.15-.08-.22-.15-.54-.48-1.14-.9-1.82-1.19-.05-.02-.12-.03-.18-.04-.32-.13-.66-.24-1-.32-.42-.08-.86-.13-1.29-.13H6.53c-.44,0-.87.05-1.29.13-.34.08-.66.18-.99.32-.06.01-.13.02-.2.04-.7.3-1.32.72-1.87,1.23-.04.05-.12.06-.16.1h97.95Z"/><path class="cls-4" d="M.8,52.46c.54,1.01,1.33,1.85,2.31,2.46-.97-.6-1.77-1.45-2.31-2.46Z"/><path class="cls-4" d="M98.87,54.91c1.87-1.15,3.12-3.2,3.12-5.55l-.08-.72H.08l-.08.72c0,1.13.3,2.18.8,3.1h100.38c-.55,1-1.34,1.85-2.32,2.46Z"/><path class="cls-6" d="M95.47,55.9c.55,0,1.1-.09,1.62-.23.12-.04.25-.08.36-.12.46-.15.89-.33,1.29-.56.05-.03.1-.06.13-.08.97-.6,1.77-1.45,2.32-2.46H.8c.54,1,1.34,1.85,2.31,2.46.05.02.08.04.13.08.4.23.85.41,1.29.56.11.05.24.08.37.12.51.13,1.06.23,1.62.23h88.94Z"/><path class="cls-5" d="M99.96,67.34H2.02c-1.07,1.03-1.78,2.43-1.95,3.97h101.84c-.18-1.55-.87-2.95-1.96-3.97Z"/><path class="cls-1" d="M99.97,67.34s-.02-.02-.02-.02c-.59-.57-1.26-1-2.01-1.31-.05-.02-.12-.05-.17-.06-.33-.12-.66-.24-1.02-.3-.41-.09-.85-.12-1.28-.12H6.53c-.44,0-.87.03-1.29.12-.34.06-.68.18-1,.3-.06.01-.13.03-.19.06-.73.31-1.41.75-1.99,1.29-.01.02-.02.02-.04.04h97.95Z"/><path class="cls-4" d="M.8,75.15c.54,1.01,1.33,1.86,2.31,2.46-.97-.61-1.77-1.45-2.31-2.46Z"/><path class="cls-4" d="M98.87,77.59c1.87-1.14,3.12-3.18,3.12-5.53l-.08-.74H.08l-.08.74c0,1.12.3,2.16.8,3.09h100.38c-.55,1.01-1.34,1.85-2.32,2.44Z"/><path class="cls-6" d="M79.42,78.59h16.05c.55,0,1.1-.1,1.62-.23.12-.04.25-.08.37-.13.45-.13.88-.32,1.28-.55.05-.03.1-.05.13-.09.97-.59,1.77-1.43,2.32-2.44H.8c.54,1.01,1.34,1.85,2.31,2.46.05.02.08.04.13.07.4.23.83.43,1.28.58.12.03.25.06.37.11.51.13,1.06.23,1.62.23h72.89Z"/><path class="cls-5" d="M99.88,137.19H2.08c-1.09,1.02-1.8,2.41-1.97,3.98h101.81c-.18-1.58-.94-2.96-2.04-3.98Z"/><path class="cls-1" d="M99.97,137.19c-.06-.07-.15-.09-.22-.15-.54-.47-1.13-.89-1.82-1.18-.08-.04-.17-.05-.25-.08-.3-.1-.61-.22-.93-.29-.42-.08-.86-.13-1.29-.13H6.53c-.44,0-.87.05-1.29.13-.31.06-.62.18-.92.29-.08.03-.18.05-.27.08-.7.29-1.32.72-1.87,1.22-.04.05-.12.06-.16.12h97.95Z"/><path class="cls-4" d="M.8,144.98c.55,1.01,1.33,1.87,2.31,2.46-.96-.61-1.76-1.45-2.31-2.46Z"/><path class="cls-4" d="M101.99,141.9l-.08-.72H.08l-.08.72c0,1.13.3,2.15.8,3.09h100.38c.5-.93.8-1.96.8-3.09Z"/><path class="cls-6" d="M95.47,148.43c.55,0,1.1-.1,1.62-.23.12-.03.25-.08.36-.11.46-.15.89-.33,1.29-.57.04-.04.1-.05.14-.08.97-.61,1.76-1.45,2.31-2.46H.8c.55,1.01,1.35,1.85,2.31,2.46.05.02.1.04.13.08.4.24.84.43,1.29.57.11.03.24.08.37.11.51.14,1.06.23,1.62.23h88.94Z"/><path class="cls-5" d="M99.88,159.87H2.08c-1.09,1.02-1.8,2.41-1.97,3.98h101.81c-.18-1.57-.94-2.95-2.04-3.98Z"/><path class="cls-1" d="M99.97,159.87c-.06-.06-.15-.09-.22-.13-.54-.49-1.14-.92-1.82-1.2-.04-.02-.07-.02-.1-.04-.34-.15-.71-.25-1.07-.33-.42-.09-.86-.12-1.29-.12H6.53c-.44,0-.87.03-1.29.12-.36.08-.72.19-1.05.32-.05.02-.09.03-.13.05-.7.29-1.32.72-1.87,1.22-.05.05-.12.06-.16.1h97.95Z"/><path class="cls-4" d="M.8,167.69c.55,1,1.33,1.84,2.3,2.44-.96-.61-1.75-1.45-2.3-2.44Z"/><path class="cls-4" d="M101.99,164.58l-.08-.72H.08l-.08.72c0,1.13.3,2.16.8,3.09h100.38c.5-.93.8-1.97.8-3.09Z"/><path class="cls-6" d="M95.47,171.12c.55,0,1.09-.09,1.62-.23.13-.02.26-.06.38-.12.43-.15.86-.33,1.27-.55.05-.04.1-.06.16-.09.96-.61,1.76-1.45,2.3-2.46H.8v.02c.55.99,1.34,1.84,2.3,2.44.06.03.11.05.16.09.38.23.82.41,1.25.55.13.05.26.09.38.12.52.13,1.06.23,1.62.23h88.94Z"/><path class="cls-5" d="M99.88,229.72H2.08c-1.08,1.03-1.8,2.41-1.97,4h101.81c-.18-1.59-.94-2.97-2.04-4Z"/><path class="cls-1" d="M99.97,229.72c-.06-.05-.15-.08-.22-.14-.54-.48-1.14-.91-1.82-1.2-.06-.03-.15-.03-.22-.06-.31-.12-.63-.22-.96-.3-.42-.08-.86-.12-1.29-.12H6.53c-.44,0-.87.05-1.29.12-.33.08-.64.18-.96.3-.08.03-.16.04-.23.06-.7.29-1.32.72-1.87,1.23-.04.04-.12.06-.16.1h97.95Z"/><path class="cls-4" d="M.8,237.51c.54,1.02,1.33,1.86,2.3,2.46-.96-.6-1.76-1.44-2.3-2.46Z"/><path class="cls-4" d="M98.88,239.97c1.86-1.15,3.11-3.19,3.11-5.54l-.08-.71H.08l-.08.71c0,1.12.3,2.16.8,3.08h100.38c-.55,1-1.34,1.86-2.3,2.46Z"/><path class="cls-6" d="M95.47,240.97c.55,0,1.1-.1,1.62-.24.13-.02.25-.06.38-.12.44-.15.87-.32,1.27-.56.05-.03.1-.05.15-.08.96-.6,1.76-1.46,2.3-2.46H.8c.54,1.02,1.34,1.86,2.3,2.46.06.04.11.05.15.08.4.24.83.41,1.28.56.12.05.25.1.37.12.52.14,1.06.24,1.62.24h88.94Z"/><path class="cls-5" d="M99.88,252.4H2.06c-1.08,1.04-1.8,2.43-1.97,4h101.83c-.18-1.59-.94-2.96-2.04-4Z"/><path class="cls-1" d="M99.97,252.4c-.06-.05-.15-.08-.22-.13-.54-.48-1.13-.92-1.82-1.19-.09-.03-.19-.06-.29-.1-.29-.1-.58-.21-.89-.26-.42-.09-.86-.13-1.29-.13H6.53c-.44,0-.87.05-1.29.13-.3.05-.59.16-.87.26-.1.05-.22.07-.32.1-.38.15-.73.34-1.07.57h0c-.34.22-.66.47-.96.75h97.95Z"/><path class="cls-4" d="M.8,260.21c.54,1,1.33,1.86,2.31,2.46-.97-.61-1.77-1.45-2.31-2.46Z"/><path class="cls-4" d="M98.88,262.67c1.87-1.16,3.11-3.2,3.11-5.56l-.08-.71H.08l-.08.71c0,1.14.3,2.18.8,3.1h100.38c-.55,1.01-1.34,1.85-2.31,2.46Z"/><path class="cls-6" d="M95.47,263.65c.55,0,1.1-.1,1.62-.23.12-.03.25-.07.37-.12.45-.15.87-.32,1.28-.56.05-.02.1-.05.15-.08.97-.61,1.76-1.45,2.31-2.46H.8c.54,1.01,1.34,1.85,2.31,2.46.05.03.1.05.13.08.4.24.84.41,1.29.56.11.05.24.09.37.12.51.15,1.06.23,1.62.23h88.94Z"/><path class="cls-5" d="M99.96,319.58H2.02c-1.08,1.04-1.78,2.44-1.95,4h101.84c-.18-1.57-.87-2.96-1.96-4Z"/><path class="cls-1" d="M99.97,319.58s-.02,0-.04-.02c-.28-.26-.58-.52-.92-.73,0,0-.03-.01-.04-.02-.32-.21-.66-.4-1.03-.55-.1-.05-.21-.06-.33-.1-.27-.1-.56-.2-.86-.27-.42-.09-.86-.13-1.29-.13H6.53c-.44,0-.87.05-1.29.13-.29.06-.57.16-.86.27-.1.04-.22.05-.33.1-.35.15-.7.32-1.02.55-.02,0-.04.02-.05.02-.33.21-.62.45-.9.72-.02.02-.03.03-.06.03h97.95Z"/><path class="cls-4" d="M.8,327.39h100.38c-.55,1-1.34,1.85-2.32,2.46,1.87-1.14,3.12-3.2,3.12-5.55l-.08-.72H.08l-.08.72c0,2.34,1.25,4.4,3.11,5.55-.97-.61-1.77-1.46-2.31-2.46Z"/><path class="cls-6" d="M79.42,330.83h16.05c.55,0,1.1-.1,1.62-.22.12-.03.25-.07.36-.11.47-.16.9-.34,1.29-.58.05-.02.1-.04.13-.06.97-.61,1.77-1.46,2.32-2.46H.8c.54,1,1.34,1.85,2.31,2.46.05.02.08.04.13.06.4.24.84.42,1.29.58.11.04.24.08.36.11.52.12,1.07.22,1.63.22h72.89Z"/><path class="cls-5" d="M99.88,342.27H2.08c-1.08,1.03-1.8,2.42-1.97,3.99h101.81c-.18-1.59-.94-2.95-2.04-3.99Z"/><path class="cls-1" d="M99.97,342.27c-.06-.05-.15-.09-.22-.14-.54-.48-1.13-.9-1.82-1.18-.08-.04-.17-.05-.24-.09-.31-.11-.62-.22-.93-.28-.42-.08-.86-.13-1.29-.13H6.53c-.44,0-.87.06-1.29.13-.31.06-.62.17-.92.28-.09.03-.18.05-.27.09-.7.28-1.32.72-1.87,1.22-.05.05-.12.07-.16.1h97.95Z"/><path class="cls-4" d="M.8,350.08h100.38c-.55,1.01-1.34,1.85-2.32,2.46,1.87-1.14,3.12-3.18,3.12-5.55l-.08-.72H.08l-.08.72c0,2.36,1.25,4.4,3.11,5.55-.97-.6-1.77-1.45-2.31-2.46Z"/><path class="cls-6" d="M79.42,353.53h16.05c.55,0,1.1-.1,1.62-.23.12-.04.25-.08.36-.12.47-.15.89-.34,1.29-.57.05-.03.1-.05.13-.08.97-.6,1.77-1.45,2.32-2.46H.8c.54,1.01,1.34,1.85,2.31,2.46.05.03.08.05.13.08.4.23.84.42,1.29.57.11.04.24.08.37.12.51.13,1.06.23,1.62.23h72.89Z"/><path class="cls-5" d="M99.88,410.79H2.06c-1.08,1.03-1.8,2.41-1.97,4h101.83c-.18-1.59-.94-2.96-2.04-4Z"/><path class="cls-1" d="M99.97,410.79c-.06-.05-.15-.08-.22-.13-.54-.48-1.14-.91-1.82-1.19-.09-.04-.19-.05-.29-.08-.29-.12-.58-.2-.89-.27-.42-.09-.86-.13-1.29-.13H6.53c-.44,0-.87.04-1.29.13-.3.07-.59.16-.87.27-.1.02-.22.05-.32.08-.38.15-.73.35-1.07.57-.34.22-.66.47-.96.75h97.95Z"/><path class="cls-4" d="M.8,418.59h100.38c-.55,1.01-1.34,1.85-2.32,2.46,1.87-1.14,3.12-3.2,3.12-5.55l-.08-.72H.08l-.08.72c0,2.35,1.25,4.4,3.11,5.55-.97-.61-1.77-1.45-2.31-2.46Z"/><path class="cls-6" d="M95.47,422.03c.55,0,1.1-.08,1.62-.22.12-.03.25-.08.36-.11.47-.15.89-.34,1.29-.57.05-.04.1-.05.13-.08.97-.61,1.77-1.45,2.32-2.46H.8c.54,1.01,1.34,1.85,2.31,2.46.05.03.08.04.13.08.4.23.84.41,1.29.57.11.03.24.08.37.11.51.14,1.06.22,1.62.22h88.94Z"/><path class="cls-5" d="M99.96,433.48H2.02c-1.07,1.03-1.78,2.43-1.95,3.98h101.84c-.18-1.55-.87-2.96-1.96-3.98Z"/><path class="cls-1" d="M99.97,433.48s-.02,0-.02-.02c-.59-.55-1.26-1-2.01-1.31-.05-.01-.12-.03-.17-.05-.33-.11-.66-.23-1.02-.3-.41-.08-.85-.13-1.28-.13H6.53c-.44,0-.87.05-1.29.13-.34.07-.68.19-1,.3-.06.02-.13.04-.19.05-.73.31-1.41.76-1.99,1.29-.01.02-.02.03-.04.04h97.95Z"/><path class="cls-4" d="M.8,441.29c.54,1,1.33,1.85,2.31,2.45-.97-.59-1.77-1.45-2.31-2.45Z"/><path class="cls-4" d="M98.88,443.74c1.87-1.15,3.11-3.19,3.11-5.55l-.08-.72H.08l-.08.72c0,1.13.3,2.17.8,3.09h100.38c-.55,1.02-1.34,1.87-2.31,2.47Z"/><path class="cls-6" d="M79.42,444.73h16.05c.55,0,1.1-.1,1.62-.23.12-.04.25-.07.37-.12.45-.13.87-.32,1.28-.56.05-.03.1-.05.15-.08.97-.59,1.76-1.45,2.31-2.47H.8v.02c.54,1,1.34,1.85,2.31,2.45.05.03.1.05.13.08.4.24.84.43,1.29.56.11.05.24.08.37.12.51.13,1.06.23,1.62.23h72.89Z"/><path class="cls-5" d="M99.88,502H2.08c-1.09,1.02-1.8,2.41-1.97,3.98h101.81c-.18-1.59-.94-2.96-2.04-3.98Z"/><path class="cls-1" d="M99.97,502c-.06-.06-.15-.09-.22-.15-.54-.48-1.13-.91-1.82-1.19-.08-.03-.17-.05-.25-.08-.3-.12-.61-.2-.93-.28-.42-.09-.86-.14-1.29-.14H6.53c-.44,0-.87.05-1.29.14-.31.08-.62.16-.92.28-.08.03-.18.05-.27.08-.7.29-1.32.72-1.87,1.22-.04.05-.12.07-.16.12h97.95Z"/><path class="cls-4" d="M.8,509.82c.55,1,1.33,1.83,2.31,2.44-.96-.61-1.76-1.46-2.31-2.44Z"/><path class="cls-4" d="M101.99,506.71l-.08-.72H.08l-.08.72c0,1.12.3,2.16.8,3.09h100.38c.5-.93.8-1.97.8-3.09Z"/><path class="cls-6" d="M95.47,513.24c.55,0,1.1-.09,1.62-.23.12-.03.25-.08.36-.11.46-.15.89-.34,1.29-.57.04-.02.1-.05.14-.07.97-.61,1.76-1.46,2.31-2.44v-.02H.8v.02c.55.99,1.35,1.83,2.31,2.44.05.02.1.05.13.07.4.23.84.43,1.29.57.11.03.24.08.37.11.51.14,1.06.23,1.62.23h88.94Z"/><path class="cls-5" d="M99.88,524.69H2.08c-1.09,1.02-1.8,2.42-1.97,3.99h101.81c-.18-1.58-.94-2.95-2.04-3.99Z"/><path class="cls-1" d="M99.97,524.69c-.06-.05-.15-.08-.22-.15-.54-.48-1.14-.9-1.82-1.18-.04-.02-.07-.03-.1-.03-.34-.14-.71-.26-1.07-.34-.42-.08-.86-.13-1.29-.13H6.53c-.44,0-.87.05-1.29.13-.36.09-.72.2-1.05.34-.05,0-.09.01-.13.03-.7.29-1.32.72-1.87,1.22-.05.05-.12.06-.16.1h97.95Z"/><path class="cls-4" d="M.8,532.5c.55,1,1.33,1.84,2.3,2.44-.96-.59-1.75-1.44-2.3-2.44Z"/><path class="cls-4" d="M101.99,529.4l-.08-.72H.08l-.08.72c0,1.13.3,2.16.8,3.1h100.38c.5-.93.8-1.97.8-3.1Z"/><path class="cls-6" d="M95.47,535.94c.55,0,1.09-.09,1.62-.23.13-.03.26-.08.38-.12.43-.15.86-.33,1.27-.56.05-.02.1-.06.16-.09.96-.59,1.76-1.44,2.3-2.44h0s-100.38,0-100.38,0h0c.55,1,1.34,1.85,2.3,2.44.06.03.11.07.16.09.38.24.82.41,1.25.56.13.04.26.09.38.12.52.13,1.06.23,1.62.23h88.94Z"/><path class="cls-5" d="M99.96,593.19H2.02c-1.07,1.04-1.78,2.43-1.95,4h101.84c-.18-1.57-.87-2.96-1.96-4Z"/><path class="cls-1" d="M99.97,593.19s-.06-.03-.09-.06c-.26-.26-.55-.5-.86-.69-.04-.02-.09-.03-.12-.06-.3-.19-.62-.37-.96-.5-.13-.07-.27-.1-.42-.14-.25-.09-.5-.18-.76-.23-.42-.09-.86-.13-1.29-.13H6.53c-.44,0-.87.04-1.29.13-.26.05-.51.15-.76.23-.13.04-.29.07-.43.14-.33.12-.65.3-.95.5-.03.02-.09.04-.13.06-.3.19-.58.42-.84.67-.03.04-.08.05-.1.08h97.95Z"/><path class="cls-4" d="M.8,601.01h100.38c-.55,1-1.34,1.84-2.32,2.46,1.87-1.15,3.12-3.19,3.12-5.55l-.08-.72H.08l-.08.72c0,2.36,1.25,4.4,3.12,5.55-.97-.61-1.77-1.46-2.32-2.46Z"/><path class="cls-6" d="M79.42,604.46h16.05c.55,0,1.1-.1,1.62-.24.12-.03.25-.07.36-.11.47-.16.9-.34,1.31-.58.04-.01.08-.03.12-.06.97-.61,1.77-1.46,2.32-2.46H.8c.54,1,1.35,1.84,2.32,2.46.04.02.07.05.12.06.4.25.85.43,1.3.58.11.04.24.08.36.11.52.14,1.07.24,1.63.24h72.89Z"/><path class="cls-5" d="M99.96,615.89H2.02c-1.07,1.02-1.78,2.43-1.95,3.98h101.84c-.18-1.55-.87-2.95-1.96-3.98Z"/><path class="cls-1" d="M99.97,615.89s-.05-.05-.09-.08c-.26-.25-.55-.48-.86-.69-.03,0-.05-.01-.07-.02-.32-.2-.66-.38-1.01-.54-.1-.04-.21-.06-.33-.1-.28-.09-.56-.2-.86-.26-.42-.08-.86-.13-1.29-.13H6.53c-.44,0-.87.05-1.29.13-.29.06-.57.17-.86.25-.1.05-.22.07-.33.11-.35.15-.69.33-1,.52-.02.02-.05.03-.08.03-.3.21-.58.44-.84.69-.03.03-.08.05-.1.08h97.95Z"/><path class="cls-4" d="M.8,623.7h100.38c-.55,1-1.34,1.84-2.32,2.45,1.87-1.14,3.12-3.19,3.12-5.55l-.08-.73H.08l-.08.73c0,2.36,1.25,4.4,3.11,5.55-.97-.61-1.77-1.45-2.31-2.45Z"/><path class="cls-6" d="M95.47,627.14c.55,0,1.1-.1,1.62-.24.12-.03.25-.06.36-.11.47-.14.89-.34,1.29-.57.05-.02.1-.05.13-.08.97-.61,1.77-1.45,2.32-2.45H.8c.54,1,1.34,1.84,2.31,2.45.05.03.08.05.13.07.4.23.84.43,1.29.57.11.05.24.08.37.11.51.14,1.06.24,1.62.24h88.94Z"/><path class="cls-5" d="M99.88,684.41H2.08c-1.09,1.02-1.8,2.4-1.97,3.98h101.81c-.18-1.59-.94-2.95-2.04-3.98Z"/><path class="cls-1" d="M99.97,684.41c-.06-.06-.15-.09-.22-.15-.54-.48-1.14-.9-1.82-1.19-.05-.02-.12-.03-.18-.05-.32-.12-.66-.24-1-.31-.42-.08-.86-.13-1.29-.13H6.53c-.44,0-.87.05-1.29.13-.34.07-.66.19-.99.31-.06.02-.13.03-.2.05-.7.3-1.32.73-1.87,1.22-.04.05-.12.07-.16.12h97.95Z"/><path class="cls-4" d="M.8,692.21h100.38c-.55,1-1.34,1.84-2.32,2.46,1.87-1.14,3.12-3.2,3.12-5.55l-.08-.72H.08l-.08.72c0,2.35,1.25,4.4,3.11,5.55-.97-.61-1.77-1.45-2.31-2.46Z"/><path class="cls-6" d="M79.42,695.65h16.05c.55,0,1.1-.1,1.62-.23.12-.04.25-.08.37-.12.45-.13.88-.33,1.28-.55.05-.04.1-.06.13-.08.97-.61,1.77-1.45,2.32-2.46H.8c.54,1,1.34,1.85,2.31,2.46.05.02.08.04.13.08.4.23.84.43,1.29.56.11.05.24.09.37.12.51.14,1.06.23,1.62.23h72.89Z"/><path class="cls-5" d="M99.88,707.09H2.08c-1.09,1.03-1.8,2.41-1.97,4h101.81c-.18-1.59-.94-2.96-2.04-4Z"/><path class="cls-1" d="M99.97,707.09c-.06-.05-.15-.08-.22-.14-.54-.48-1.14-.9-1.82-1.18-.08-.05-.18-.05-.26-.09-.31-.11-.61-.21-.92-.28-.42-.08-.86-.13-1.29-.13H6.53c-.44,0-.87.05-1.29.13-.31.07-.6.17-.9.28-.09.04-.2.04-.29.09-.7.29-1.32.71-1.87,1.22-.05.05-.12.06-.16.1h97.95Z"/><path class="cls-4" d="M.8,714.89c.54,1.01,1.33,1.86,2.31,2.46-.97-.6-1.77-1.44-2.31-2.46Z"/><path class="cls-4" d="M98.88,717.35c1.87-1.15,3.11-3.19,3.11-5.55l-.08-.71H.08l-.08.71c0,1.14.3,2.18.8,3.09h100.38c-.55,1.01-1.34,1.86-2.31,2.46Z"/><path class="cls-6" d="M79.42,718.34h16.05c.55,0,1.1-.1,1.62-.24.12-.02.25-.06.37-.1.45-.15.87-.33,1.28-.57.05-.02.1-.05.15-.08.97-.6,1.76-1.45,2.31-2.46H.8c.54,1.01,1.34,1.86,2.31,2.46.05.03.1.06.13.08.4.24.84.43,1.29.57.11.05.24.09.37.1.51.14,1.06.24,1.62.24h72.89Z"/><path class="cls-5" d="M99.96,775.6H2.02c-1.08,1.02-1.78,2.44-1.95,4h101.84c-.18-1.56-.87-2.97-1.96-4Z"/><path class="cls-1" d="M99.97,775.6s-.02-.01-.04-.03c-.58-.55-1.25-.99-1.99-1.29-.06-.04-.13-.04-.2-.07-.31-.12-.64-.23-.99-.3-.41-.08-.85-.12-1.28-.12H6.53c-.44,0-.87.04-1.29.12-.33.07-.65.17-.97.3-.08.03-.15.03-.22.07-.73.3-1.4.74-1.97,1.28-.02.02-.03.03-.06.05h97.95Z"/><path class="cls-4" d="M.8,783.4h100.38c-.55,1.01-1.35,1.85-2.32,2.47,1.87-1.15,3.12-3.19,3.12-5.55l-.08-.72H.08l-.08.72c0,2.36,1.25,4.4,3.12,5.55-.97-.61-1.77-1.46-2.32-2.47Z"/><path class="cls-6" d="M95.47,786.86c.55,0,1.1-.11,1.62-.25.12-.02.25-.06.36-.12.47-.15.9-.33,1.31-.57.04-.03.08-.03.12-.06.97-.61,1.77-1.46,2.32-2.47H.8c.54,1.01,1.35,1.85,2.32,2.47.03.03.07.03.1.06.41.24.86.43,1.31.57.12.05.24.09.36.12.52.13,1.07.25,1.63.25h88.94Z"/><path class="cls-5" d="M99.96,798.29H2.02c-1.08,1.04-1.78,2.44-1.95,4.01h101.84c-.18-1.57-.87-2.96-1.96-4.01Z"/><path class="cls-1" d="M99.97,798.29s-.05-.02-.06-.05c-.28-.26-.57-.5-.88-.7-.03-.02-.06-.03-.09-.05-.31-.19-.65-.37-1-.52-.11-.05-.23-.07-.35-.12-.27-.09-.55-.2-.83-.26-.42-.08-.86-.12-1.29-.12H6.53c-.44,0-.87.05-1.29.12-.29.06-.55.16-.82.26-.12.05-.24.06-.37.12-.34.15-.67.32-.98.52-.04.01-.06.03-.1.05-.3.2-.59.43-.86.68-.02.02-.05.05-.08.06h97.95Z"/><path class="cls-4" d="M.8,806.1h100.38c-.55,1-1.34,1.85-2.32,2.45,1.87-1.14,3.12-3.19,3.12-5.55l-.08-.71H.08l-.08.71c0,2.36,1.25,4.41,3.12,5.57-.97-.62-1.77-1.47-2.32-2.47Z"/><path class="cls-6" d="M95.47,809.55c.55,0,1.1-.1,1.62-.23.12-.03.25-.08.36-.12.47-.15.9-.34,1.31-.58.04-.02.08-.04.12-.06.97-.6,1.77-1.45,2.32-2.45H.8c.54,1,1.35,1.85,2.32,2.47.04.01.07.03.12.05.4.24.85.43,1.3.58.12.04.24.09.36.12.52.13,1.07.23,1.63.23h88.94Z"/><path class="cls-5" d="M99.97,866.81H2.02c-1.08,1.03-1.78,2.42-1.95,3.99h101.84c-.18-1.57-.87-2.96-1.95-3.99Z"/><path class="cls-1" d="M99.95,866.8c-.58-.55-1.27-1-2.02-1.3-.07-.04-.15-.05-.22-.08-.31-.12-.62-.22-.96-.3-.42-.09-.86-.12-1.29-.12H6.53c-.44,0-.87.03-1.29.12-.33.08-.64.18-.96.3-.08.02-.16.03-.23.08-.73.3-1.42.73-1.99,1.28-.01.01-.02.02-.04.03h97.95s-.02-.02-.02-.02Z"/><path class="cls-4" d="M.8,874.62c.54,1.01,1.33,1.85,2.3,2.46-.96-.61-1.76-1.46-2.3-2.46Z"/><path class="cls-4" d="M101.99,871.53l-.08-.72H.08l-.08.72c0,1.12.3,2.17.8,3.09h100.38c.5-.92.8-1.97.8-3.09Z"/><path class="cls-6" d="M95.47,878.07c.55,0,1.09-.09,1.62-.23.13-.04.26-.08.38-.11.44-.15.87-.34,1.27-.56.05-.03.1-.06.16-.08.96-.61,1.76-1.46,2.3-2.46H.8c.54,1,1.34,1.85,2.3,2.46.06.02.11.05.16.08.38.23.82.41,1.25.57.13.03.26.08.38.11.52.14,1.06.23,1.62.23h88.94Z"/><path class="cls-5" d="M99.89,889.52H2.08c-1.09,1.02-1.8,2.4-1.97,3.97h101.81c-.18-1.57-.94-2.95-2.02-3.97Z"/><path class="cls-1" d="M99.97,889.52c-.06-.06-.15-.09-.22-.16-.54-.48-1.13-.9-1.82-1.18-.05-.02-.12-.04-.17-.05-.33-.12-.67-.25-1.02-.32-.41-.09-.85-.12-1.28-.12H6.53c-.44,0-.87.04-1.29.12-.34.07-.68.19-1,.32-.06.01-.13.02-.19.05-.7.28-1.32.72-1.87,1.22-.05.05-.12.05-.16.11h97.95Z"/><path class="cls-4" d="M.8,897.31c.54,1,1.33,1.85,2.31,2.45-.97-.61-1.77-1.46-2.31-2.45Z"/><path class="cls-4" d="M101.99,894.22l-.08-.73H.08l-.08.73c0,1.11.3,2.16.8,3.09h100.38c.5-.92.8-1.98.8-3.09Z"/><path class="cls-3" d="M49.91,0c-4.82,0-8.72,3.9-8.72,8.71v34.12h38.23v-9.41h27.03v57.23h-27.03v-12.06h-38.23v56.77h38.23v-10.74h27.03v57.23h-27.03v-10.74h-38.23v56.78h38.23v-12.07h27.03v57.23h-27.03v-9.41h-38.23v54.11h38.23v-10.73h27.03v57.23h-27.03v-10.74h-38.23v55.46h38.23v-10.74h27.03v57.22h-27.03v-10.73h-38.23v55.44h38.23v-10.73h27.03v57.22h-27.03v-10.73h-38.23v55.45h38.23v-10.74h27.03v57.23h-27.03v-10.73h-38.23v55.44h38.23v-10.73h27.03v57.23h-27.03v-10.73h-38.23v55.44h38.23v-10.74h27.03v57.23h-27.03v-10.73h-38.23v55.46h38.23v-10.74h27.03v57.23h-27.03v-10.74h-38.23v50.81h38.23v-10.74h27.03v57.23h-27.03v-10.73h-38.23v50.81h38.23v-10.74h27.03v57.23h-27.03v-10.74h-38.23v36.88c0,4.8,3.9,8.7,8.72,8.7h100.18V0H49.91Z"/><rect class="cls-3" x="41.19" y="148.43" width="38.23" height="9.62"/><polygon class="cls-3" points="79.42 65.53 79.42 60.28 79.42 55.9 41.19 55.9 41.19 65.53 74.74 65.53 79.42 65.53"/><rect class="cls-3" x="41.19" y="240.97" width="38.23" height="9.62"/><polygon class="cls-3" points="79.42 340.45 79.42 330.83 63.48 330.83 41.19 330.83 41.19 340.45 54.87 340.45 79.42 340.45"/><rect class="cls-3" x="41.19" y="422.03" width="38.23" height="9.63"/><rect class="cls-3" x="41.19" y="513.24" width="38.23" height="9.62"/><polygon class="cls-3" points="79.42 604.46 44.81 604.46 41.19 604.46 41.19 608.47 41.19 614.07 79.42 614.07 79.42 604.46"/><rect class="cls-3" x="41.19" y="786.86" width="38.23" height="9.61"/><polygon class="cls-3" points="79.42 705.27 79.42 695.65 76.29 695.65 41.19 695.65 41.19 705.27 67.67 705.27 79.42 705.27"/><rect class="cls-3" x="41.19" y="878.07" width="38.23" height="9.62"/><path class="cls-3" d="M912.21,7.12c-.05-.27-.13-.52-.21-.78-.07-.22-.13-.44-.21-.65-.13-.34-.28-.67-.46-.99-.04-.08-.09-.17-.14-.26-.21-.36-.45-.71-.71-1.04,0,0,0-.02-.02-.02h0c-.39-.5-.82-.93-1.29-1.32-.05-.05-.11-.08-.16-.13-.43-.34-.88-.62-1.36-.87-.11-.06-.22-.12-.33-.19-.45-.2-.93-.37-1.41-.51-.15-.04-.28-.09-.44-.13-.63-.15-1.29-.23-1.96-.23H150.24v1119.47h753.27c4.9,0,8.86-3.9,8.86-8.7V8.71c0-.55-.06-1.07-.16-1.59Z"/><polygon class="cls-3" points="79.42 964.63 49.79 964.63 41.19 964.63 41.19 974.23 41.19 974.26 79.42 974.26 79.42 964.63"/><polygon class="cls-3" points="79.42 1060.81 79.42 1051.19 73.48 1051.19 41.19 1051.19 41.19 1060.81 64.87 1060.81 79.42 1060.81"/><path class="cls-3" d="M98.88,147.45c.97-.6,1.76-1.45,2.31-2.46-.55,1.01-1.34,1.85-2.31,2.46Z"/><path class="cls-3" d="M98.88,170.13c.97-.61,1.76-1.45,2.3-2.46-.55,1.01-1.34,1.85-2.3,2.46Z"/><path class="cls-3" d="M98.88,512.26c.97-.61,1.76-1.45,2.31-2.44-.55.99-1.34,1.83-2.31,2.44Z"/><path class="cls-3" d="M98.88,534.94c.97-.59,1.76-1.44,2.3-2.44-.55,1-1.34,1.84-2.3,2.44Z"/><path class="cls-3" d="M101.19,874.62c-.55,1-1.34,1.85-2.3,2.46.97-.61,1.76-1.46,2.3-2.46Z"/><path class="cls-3" d="M101.19,897.31c-.55,1-1.34,1.85-2.3,2.46.97-.6,1.76-1.46,2.3-2.46Z"/><path class="cls-6" d="M95.47,900.75c.55,0,1.1-.08,1.62-.22.13-.05.25-.08.38-.12.44-.15.87-.33,1.27-.56.05-.03.1-.05.15-.08.96-.61,1.76-1.46,2.3-2.46H.8c.54,1,1.34,1.85,2.31,2.46.05.03.1.05.14.08.4.23.83.41,1.27.56.13.05.26.08.38.12.52.14,1.06.22,1.62.22h88.94Z"/><path class="cls-5" d="M99.97,953.39H2.02c-1.08,1.03-1.78,2.42-1.95,3.98h101.84c-.18-1.56-.87-2.96-1.95-3.98Z"/><path class="cls-1" d="M99.96,953.39c-.29-.29-.6-.54-.94-.76h0c-.34-.22-.7-.42-1.07-.57-.1-.04-.2-.05-.3-.09-.28-.1-.58-.2-.88-.26-.42-.09-.86-.13-1.29-.13H6.53c-.44,0-.87.05-1.29.13-.3.06-.59.16-.87.26-.1.03-.22.05-.32.09-.37.15-.72.33-1.06.57,0,0-.01,0-.02,0-.33.21-.65.47-.93.74,0,0-.02.01-.03.02h97.95-.01Z"/><path class="cls-4" d="M.8,961.18h100.38c-.55,1-1.34,1.85-2.32,2.45,1.87-1.13,3.12-3.18,3.12-5.53l-.08-.73H.08l-.08.73c0,2.36,1.25,4.4,3.11,5.55-.97-.61-1.77-1.46-2.31-2.46Z"/><path class="cls-6" d="M79.42,964.63h16.05c.55,0,1.1-.09,1.62-.22.12-.04.25-.08.37-.12.45-.15.88-.33,1.28-.56.05-.04.1-.06.13-.09.97-.6,1.77-1.45,2.32-2.45H.8c.54,1,1.34,1.85,2.31,2.46.05.01.1.03.13.08.4.23.84.41,1.29.56.11.04.24.08.37.12.51.13,1.06.22,1.62.22h72.89Z"/><path class="cls-5" d="M99.96,976.07H2.02c-1.07,1.03-1.78,2.43-1.95,3.98h101.84c-.18-1.56-.87-2.96-1.96-3.98Z"/><path class="cls-1" d="M99.97,976.07s-.02-.02-.04-.03c-.28-.26-.58-.51-.9-.72-.02-.02-.04-.02-.05-.02-.33-.22-.66-.41-1.03-.54-.1-.05-.22-.08-.33-.1-.28-.11-.56-.2-.86-.27-.42-.08-.86-.12-1.29-.12H6.53c-.44,0-.87.04-1.29.12-.29.07-.57.16-.86.26-.1.04-.22.06-.33.12-.35.13-.69.33-1.02.53-.02.01-.04.02-.05.03-.33.21-.62.45-.9.71-.02.02-.03.03-.06.05h97.95Z"/><path class="cls-4" d="M.8,983.88h100.38c-.55,1-1.34,1.84-2.32,2.45,1.87-1.15,3.12-3.18,3.12-5.55l-.08-.73H.08l-.08.73c0,2.36,1.25,4.4,3.11,5.55-.96-.59-1.77-1.45-2.31-2.45Z"/><path class="cls-6" d="M95.47,987.32c.55,0,1.1-.1,1.62-.23.12-.04.25-.08.36-.12.47-.14.9-.34,1.29-.57.05-.03.1-.05.13-.08.97-.61,1.77-1.45,2.32-2.45H.8c.54,1,1.35,1.85,2.31,2.45.05.03.08.05.13.08.4.24.84.43,1.29.57.11.05.24.08.36.12.52.13,1.07.23,1.63.23h88.94Z"/><path class="cls-5" d="M99.96,1039.95H2.02c-1.08,1.03-1.78,2.44-1.95,3.99h101.84c-.18-1.56-.87-2.96-1.96-3.99Z"/><path class="cls-1" d="M99.97,1039.95s-.03-.03-.05-.04c-.28-.27-.58-.51-.9-.72-.04-.02-.08-.04-.1-.06-.31-.19-.64-.36-.99-.51-.13-.07-.27-.09-.42-.13-.25-.09-.5-.18-.76-.24-.42-.08-.86-.12-1.29-.12H6.53c-.44,0-.87.04-1.29.12-.26.07-.51.15-.76.24-.13.04-.29.06-.43.13-.33.15-.65.31-.97.51-.04.02-.07.04-.11.06-.32.2-.6.44-.89.7-.02.02-.03.03-.06.05h97.95Z"/><path class="cls-4" d="M.8,1047.75h100.38c-.55,1-1.34,1.85-2.32,2.46,1.87-1.15,3.12-3.19,3.12-5.55l-.08-.72H.08l-.08.72c0,2.36,1.25,4.4,3.12,5.55-.97-.6-1.77-1.46-2.32-2.46Z"/><path class="cls-6" d="M79.42,1051.19h16.05c.55,0,1.1-.1,1.62-.23.12-.04.25-.07.36-.11.47-.15.9-.34,1.31-.58.03-.03.09-.05.12-.07.97-.6,1.77-1.46,2.32-2.46H.8c.54,1,1.35,1.85,2.32,2.46.04.02.08.04.12.06.4.25.85.43,1.3.58.11.04.24.08.36.11.52.13,1.07.23,1.63.23h72.89Z"/><path class="cls-5" d="M99.96,1062.64H2.02c-1.07,1.03-1.78,2.42-1.95,3.98h101.84c-.18-1.56-.87-2.96-1.96-3.98Z"/><path class="cls-1" d="M99.97,1062.64s-.05-.05-.08-.06c-.27-.26-.56-.5-.88-.7,0,0,0,0-.02,0-.33-.22-.69-.42-1.06-.57-.07-.04-.17-.05-.24-.07-.31-.12-.62-.23-.93-.29-.42-.09-.86-.13-1.29-.13H6.53c-.44,0-.87.05-1.29.13-.32.06-.62.17-.92.28-.1.03-.18.05-.27.08-.36.15-.71.34-1.04.56-.01,0-.02,0-.03.01-.31.2-.6.44-.86.69-.04.01-.07.05-.1.08h97.95Z"/><path class="cls-4" d="M.8,1070.43h100.38c-.55,1.02-1.34,1.87-2.32,2.47,1.87-1.15,3.12-3.19,3.12-5.55l-.08-.72H.08l-.08.72c0,2.36,1.25,4.4,3.11,5.55-.96-.6-1.77-1.45-2.31-2.47Z"/><path class="cls-6" d="M79.42,1073.88h16.05c.55,0,1.1-.09,1.62-.23.12-.03.25-.06.36-.11.47-.15.9-.33,1.29-.57.05-.03.1-.05.13-.07.97-.6,1.77-1.45,2.32-2.47H.8c.54,1.02,1.35,1.87,2.31,2.47.05.02.08.04.13.07.4.24.84.42,1.29.57.11.05.24.08.36.11.52.14,1.07.23,1.63.23h72.89Z"/></g></svg>