<?xml version="1.0" encoding="UTF-8"?><svg id="Capa_2" xmlns="http://www.w3.org/2000/svg" xmlns:xlink="http://www.w3.org/1999/xlink" viewBox="0 0 1920 1080"><defs><style>.cls-1{fill:#c8cdd1;}.cls-1,.cls-2,.cls-3,.cls-4,.cls-5,.cls-6,.cls-7,.cls-8,.cls-9,.cls-10,.cls-11,.cls-12,.cls-13,.cls-14,.cls-15,.cls-16,.cls-17,.cls-18,.cls-19,.cls-20,.cls-21,.cls-22,.cls-23,.cls-24,.cls-25,.cls-26,.cls-27,.cls-28,.cls-29,.cls-30,.cls-31,.cls-32,.cls-33,.cls-34,.cls-35,.cls-36,.cls-37,.cls-38,.cls-39,.cls-40,.cls-41,.cls-42,.cls-43,.cls-44,.cls-45,.cls-46,.cls-47,.cls-48{stroke-width:0px;}.cls-2{fill:#6e7477;}.cls-3{fill:#42494f;}.cls-4{fill:#6898be;}.cls-5{fill:#6d9dc5;}.cls-6{fill:#393f44;}.cls-49{clip-path:url(#clippath);}.cls-7{fill:#808588;}.cls-8{fill:none;}.cls-9{fill:#798088;}.cls-10{fill:#a1a8b1;}.cls-11{fill:#588aaf;}.cls-12{fill:#6b737b;}.cls-13{fill:#30353a;}.cls-14{fill:#e8ecee;}.cls-15{fill:#dae0e6;}.cls-16{fill:#6d737a;}.cls-17{fill:#929aa3;}.cls-18{fill:#afb7bf;}.cls-19{fill:#dce0e4;}.cls-20{fill:#5284a8;}.cls-21{fill:#f7f8f8;}.cls-22{fill:#5f91b7;}.cls-23{fill:#262a2f;}.cls-24{fill:#bac0c5;}.cls-25{fill:#c5cacf;}.cls-26{fill:#9ba1a8;}.cls-27{fill:#bfc4c9;}.cls-28{fill:#acb3b9;}.cls-29{fill:#a5abaf;}.cls-30{fill:#7e858d;}.cls-31{fill:#d0d5d9;}.cls-32{fill:#bfc5cd;}.cls-33{fill:#60686e;}.cls-34{fill:#1b1b1e;}.cls-35{fill:#9da6ae;}.cls-36{fill:#181b1e;}.cls-37{fill:#979ca2;}.cls-38{fill:#8b9097;}.cls-39{fill:#35393e;}.cls-40{fill:#51585e;}.cls-41{fill:#81868c;}.cls-42{fill:#586168;}.cls-43{fill:#707a7f;}.cls-44{fill:#232d34;}.cls-45{fill:#aeb3b9;}.cls-46{fill:#91979a;}.cls-47{fill:#b6bbc2;}.cls-48{fill:#7c8188;}</style><clipPath id="clippath"><rect class="cls-8" width="1920" height="1080"/></clipPath></defs><g id="Capa_1-2"><g class="cls-49"><path class="cls-34" d="M1895.81,77.79c0-15.68-12.71-28.39-28.38-28.39h-931.26c-.63-.39-1.3-.73-1.96-1.08-.22-.11-.42-.26-.63-.36-.03-.03-.06-.03-.1-.05-1.04-.51-2.11-.96-3.21-1.35-.03,0-.05-.03-.08-.03,0,0-.03,0-.03-.02-1.01-.33-2.03-.63-3.08-.85-.09-.03-.18-.07-.26-.09-.89-.18-1.79-.32-2.7-.42-.07-.02-.12-.04-.18-.04-.98-.1-1.96-.16-2.96-.16h-7.09c-.99,0-1.97.06-2.94.16-.07,0-.12.03-.18.04-.92.09-1.82.24-2.7.42-.1.02-.19.08-.29.09-.99.22-1.95.5-2.89.82-.07.02-.14.03-.19.04,0,0-.02.02-.02.03-1.15.38-2.27.85-3.34,1.38-.01.01-.02.03-.02.03-.06.03-.11.07-.17.1-.84.42-1.64.86-2.43,1.35H52.57c-15.67,0-28.38,12.7-28.38,28.39v1101.82c0,15.67,12.7,28.37,28.38,28.37h846.15c.83.53,1.7,1.01,2.58,1.46h.02s0,.02.01.02c2.12,1.04,4.36,1.84,6.73,2.34h0c.86.19,1.74.32,2.63.42.08.02.17.04.26.04.97.1,1.95.16,2.94.16h7.09c1,0,1.98-.06,2.95-.16.09,0,.17-.03.26-.04.88-.1,1.76-.22,2.62-.42,1.14-.22,2.24-.56,3.34-.93,0-.02.03-.02.03-.02.03,0,.05-.01.08-.01,1.13-.41,2.23-.86,3.29-1.39,0,0,.02,0,.02-.02h0c.89-.45,1.75-.93,2.59-1.46h931.26c15.67,0,28.38-12.7,28.38-28.37V77.79Z"/><path class="cls-39" d="M949.36,74.51h2.95c.98,0,1.78.81,1.78,1.79s-.8,1.78-1.78,1.78h-2.95v29.26h766.75c3.92,0,7.09,3.16,7.09,7.09v1028.55c0,3.9-3.17,7.09-7.09,7.09h-766.75v29.26h.66c.98,0,1.78.79,1.78,1.78s-.8,1.79-1.78,1.79h-.66v1.16c0,3.01-.48,5.92-1.35,8.65h897.24c15.27,0,27.63-12.39,27.63-27.63V92.32c0-15.26-12.36-27.63-27.63-27.63h-897.24c.87,2.73,1.35,5.64,1.35,8.65v1.16Z"/><path class="cls-39" d="M550.37,64.69H74.75c-15.26,0-27.63,12.37-27.63,27.63v1072.75c0,15.24,12.37,27.63,27.63,27.63h475.62v-42.64H124.84c-3.91,0-7.1-3.18-7.1-7.09V114.42c0-3.92,3.18-7.09,7.1-7.09h760.68v-33.99c0-3.01.49-5.92,1.35-8.65h-336.5Z"/><path class="cls-36" d="M1822.15,750.38h-2.49v195.34l-17.68,85.1h-2.89v14.49c0,.66-.12,1.3-.34,1.89,0,0-.02.04-.02.07-.01.01-.03.04-.03.06,0,.03,0,.06-.02.07-.05.11-.13.19-.19.29.24.21.45.24.63-.04.98-1.53,3.75-14.97,3.79-15.11l19.25-78.1v-192.4h15.91v-321.59h-7.5v309.93h-8.41Z"/><path class="cls-36" d="M1816.24,166.26v4.27h3.42v22.12h1.96v33.88h-1.96v208.9h2.49V165.23c0-.6-.06-1.19-.17-1.75l-.03-.31-.1-.3-.3-.96h0l-.22-.66-.07-.12c-.54-1.18-1.28-2.24-2.21-3.11-.81-.79-1.77-1.4-2.81-1.88v10.14Z"/><polygon class="cls-5" points="1817.79 226.53 1816.89 226.53 1815.92 226.53 1814.53 226.53 1814.04 226.53 1812.17 226.53 1809.59 226.53 1809.59 435.44 1812.17 435.44 1814.04 435.44 1815.92 435.44 1817.79 435.44 1819.66 435.44 1819.66 226.53 1819.25 226.53 1817.79 226.53"/><polygon class="cls-5" points="1771.31 435.44 1773.18 435.44 1775.05 435.44 1777.64 435.44 1777.64 226.53 1775.05 226.53 1773.18 226.53 1772.69 226.53 1771.31 226.53 1770.34 226.53 1769.44 226.53 1767.98 226.53 1767.57 226.53 1767.57 435.44 1769.44 435.44 1771.31 435.44"/><polygon class="cls-4" points="1808.83 226.53 1807 226.53 1807 435.44 1809.59 435.44 1809.59 226.53 1808.83 226.53"/><polygon class="cls-4" points="1778.39 226.53 1777.64 226.53 1777.64 435.44 1780.23 435.44 1780.23 226.53 1778.39 226.53"/><polygon class="cls-22" points="1807 226.53 1805.5 226.53 1804.41 226.53 1804.41 435.44 1805.57 435.44 1807 435.44 1807 226.53"/><polygon class="cls-22" points="1781.73 226.53 1780.23 226.53 1780.23 435.44 1782.81 435.44 1782.81 226.53 1781.73 226.53"/><polygon class="cls-11" points="1802.16 226.53 1801.83 226.53 1801.83 435.44 1804.41 435.44 1804.41 226.53 1802.16 226.53"/><polygon class="cls-11" points="1785.07 226.53 1782.81 226.53 1782.81 435.44 1785.39 435.44 1785.39 226.53 1785.07 226.53"/><polygon class="cls-20" points="1798.82 226.53 1788.4 226.53 1785.39 226.53 1785.39 435.44 1801.83 435.44 1801.83 226.53 1798.82 226.53"/><polygon class="cls-5" points="1769.44 192.65 1770.34 192.65 1771.31 192.65 1772.69 192.65 1773.18 192.65 1775.05 192.65 1777.64 192.65 1777.64 170.53 1777.59 170.53 1777.38 170.53 1777.02 170.53 1776.88 170.53 1776.21 170.53 1775.74 170.53 1775.49 170.53 1775.48 170.53 1775.05 170.53 1774.46 170.53 1774.11 170.53 1774.07 170.53 1773.97 170.53 1773.18 170.53 1772.7 170.53 1772.46 170.53 1772.45 170.53 1771.31 170.53 1770.98 170.53 1770.95 170.53 1770.83 170.53 1769.44 170.53 1769.2 170.53 1767.57 170.53 1767.57 192.65 1767.98 192.65 1769.44 192.65"/><polygon class="cls-5" points="1812.17 192.65 1814.04 192.65 1814.53 192.65 1815.92 192.65 1816.89 192.65 1817.79 192.65 1819.25 192.65 1819.66 192.65 1819.66 170.53 1818.04 170.53 1817.79 170.53 1816.4 170.53 1816.27 170.53 1816.24 170.53 1815.92 170.53 1814.78 170.53 1814.77 170.53 1814.52 170.53 1814.04 170.53 1813.26 170.53 1813.15 170.53 1813.13 170.53 1812.77 170.53 1812.17 170.53 1811.74 170.53 1811.74 170.53 1811.49 170.53 1811.01 170.53 1810.34 170.53 1810.21 170.53 1809.85 170.53 1809.63 170.53 1809.59 170.53 1809.59 192.65 1812.17 192.65"/><polygon class="cls-4" points="1780.23 192.65 1780.23 170.53 1779.89 170.53 1779.69 170.53 1779.64 170.53 1778.74 170.53 1778.64 170.53 1778.54 170.53 1778.29 170.53 1777.64 170.53 1777.64 192.65 1778.39 192.65 1780.23 192.65"/><polygon class="cls-4" points="1808.83 192.65 1809.59 192.65 1809.59 170.53 1808.93 170.53 1808.69 170.53 1808.59 170.53 1808.48 170.53 1807.59 170.53 1807.53 170.53 1807.33 170.53 1807 170.53 1807 192.65 1808.83 192.65"/><polygon class="cls-22" points="1781.73 192.65 1782.81 192.65 1782.81 170.53 1782.74 170.53 1782.2 170.53 1782.01 170.53 1781.9 170.53 1781.63 170.53 1781.1 170.53 1781.05 170.53 1781.04 170.53 1780.63 170.53 1780.23 170.53 1780.23 192.65 1781.73 192.65"/><polygon class="cls-22" points="1805.5 192.65 1807 192.65 1807 170.53 1806.59 170.53 1806.18 170.53 1806.17 170.53 1806.12 170.53 1805.59 170.53 1805.33 170.53 1805.22 170.53 1805.02 170.53 1804.5 170.53 1804.41 170.53 1804.41 192.65 1805.5 192.65"/><polygon class="cls-11" points="1802.16 192.65 1804.41 192.65 1804.41 170.53 1804.32 170.53 1803.74 170.53 1803.65 170.53 1803.44 170.53 1803.42 170.53 1803.07 170.53 1802.6 170.53 1802.52 170.53 1802.4 170.53 1801.96 170.53 1801.85 170.53 1801.83 170.53 1801.83 192.65 1802.16 192.65"/><polygon class="cls-11" points="1785.07 192.65 1785.39 192.65 1785.39 170.53 1785.38 170.53 1785.27 170.53 1784.84 170.53 1784.71 170.53 1784.63 170.53 1784.15 170.53 1783.8 170.53 1783.79 170.53 1783.57 170.53 1783.48 170.53 1782.91 170.53 1782.81 170.53 1782.81 192.65 1785.07 192.65"/><polygon class="cls-20" points="1788.4 192.65 1798.82 192.65 1801.83 192.65 1801.83 170.53 1801.71 170.53 1801.32 170.53 1801.31 170.53 1801.28 170.53 1800.81 170.53 1800.67 170.53 1800.29 170.53 1800.26 170.53 1800.04 170.53 1800.02 170.53 1799.78 170.53 1799.13 170.53 1799.09 170.53 1798.8 170.53 1798.69 170.53 1798.67 170.53 1798.3 170.53 1798.23 170.53 1797.91 170.53 1797.56 170.53 1797.51 170.53 1797.34 170.53 1796.96 170.53 1796.45 170.53 1796.43 170.53 1795.88 170.53 1795.35 170.53 1791.88 170.53 1791.34 170.53 1790.8 170.53 1790.78 170.53 1790.26 170.53 1789.88 170.53 1789.71 170.53 1789.67 170.53 1789.32 170.53 1788.99 170.53 1788.92 170.53 1788.55 170.53 1788.53 170.53 1788.43 170.53 1788.14 170.53 1788.1 170.53 1787.45 170.53 1787.21 170.53 1787.19 170.53 1786.96 170.53 1786.93 170.53 1786.56 170.53 1786.42 170.53 1785.95 170.53 1785.91 170.53 1785.91 170.53 1785.51 170.53 1785.39 170.53 1785.39 192.65 1788.4 192.65"/><polygon class="cls-5" points="1769.44 945.71 1769.94 945.71 1770.83 945.71 1770.95 945.71 1771.31 945.71 1772.31 945.71 1772.45 945.71 1772.46 945.71 1772.7 945.71 1773.18 945.71 1773.97 945.71 1774.07 945.71 1774.11 945.71 1774.46 945.71 1774.68 945.71 1775.05 945.71 1775.48 945.71 1775.49 945.71 1775.74 945.71 1776.21 945.71 1776.88 945.71 1777.02 945.71 1777.06 945.71 1777.38 945.71 1777.59 945.71 1777.64 945.71 1777.64 750.38 1776.13 750.38 1775.05 750.38 1773.18 750.38 1771.68 750.38 1771.31 750.38 1769.44 750.38 1767.57 750.38 1767.57 945.71 1769.2 945.71 1769.44 945.71"/><polygon class="cls-5" points="1814.04 750.38 1812.17 750.38 1810.01 750.38 1809.59 750.38 1809.59 945.71 1809.63 945.71 1809.85 945.71 1810.16 945.71 1810.21 945.71 1810.34 945.71 1811.01 945.71 1811.49 945.71 1811.74 945.71 1811.74 945.71 1812.17 945.71 1812.55 945.71 1812.77 945.71 1813.13 945.71 1813.15 945.71 1813.26 945.71 1814.04 945.71 1814.52 945.71 1814.77 945.71 1814.78 945.71 1814.91 945.71 1815.92 945.71 1816.27 945.71 1816.4 945.71 1817.29 945.71 1817.79 945.71 1818.04 945.71 1819.66 945.71 1819.66 750.38 1817.79 750.38 1816.86 750.38 1815.92 750.38 1814.04 750.38"/><polygon class="cls-4" points="1807 750.38 1807 945.71 1807.27 945.71 1807.33 945.71 1807.53 945.71 1807.59 945.71 1808.48 945.71 1808.59 945.71 1808.69 945.71 1808.93 945.71 1809.59 945.71 1809.59 750.38 1807 750.38"/><polygon class="cls-4" points="1780.23 750.38 1777.64 750.38 1777.64 945.71 1778.29 945.71 1778.54 945.71 1778.64 945.71 1778.74 945.71 1779.64 945.71 1779.69 945.71 1779.89 945.71 1779.95 945.71 1780.23 945.71 1780.23 750.38"/><polygon class="cls-22" points="1804.5 945.71 1805.02 945.71 1805.22 945.71 1805.33 945.71 1805.59 945.71 1806.12 945.71 1806.17 945.71 1806.18 945.71 1806.59 945.71 1807 945.71 1807 750.38 1804.41 750.38 1804.41 945.71 1804.5 945.71"/><polygon class="cls-22" points="1780.63 945.71 1781.04 945.71 1781.05 945.71 1781.1 945.71 1781.63 945.71 1781.9 945.71 1782.01 945.71 1782.2 945.71 1782.74 945.71 1782.81 945.71 1782.81 750.38 1780.23 750.38 1780.23 945.71 1780.63 945.71"/><polygon class="cls-11" points="1801.85 945.71 1801.96 945.71 1802.4 945.71 1802.52 945.71 1802.6 945.71 1803.07 945.71 1803.42 945.71 1803.44 945.71 1803.65 945.71 1803.74 945.71 1804.32 945.71 1804.39 945.71 1804.41 945.71 1804.41 750.38 1801.83 750.38 1801.83 945.71 1801.85 945.71"/><polygon class="cls-11" points="1782.83 945.71 1782.91 945.71 1783.48 945.71 1783.57 945.71 1783.79 945.71 1783.8 945.71 1784.15 945.71 1784.63 945.71 1784.71 945.71 1784.84 945.71 1785.27 945.71 1785.38 945.71 1785.39 945.71 1785.39 750.38 1782.81 750.38 1782.81 945.71 1782.83 945.71"/><polygon class="cls-20" points="1798.69 945.71 1798.8 945.71 1799.09 945.71 1799.13 945.71 1799.78 945.71 1800.02 945.71 1800.04 945.71 1800.26 945.71 1800.29 945.71 1800.67 945.71 1800.81 945.71 1801.28 945.71 1801.31 945.71 1801.32 945.71 1801.5 945.71 1801.71 945.71 1801.83 945.71 1801.83 750.38 1801.12 750.38 1796.68 750.38 1785.39 750.38 1785.39 945.71 1785.51 945.71 1785.73 945.71 1785.91 945.71 1785.91 945.71 1785.95 945.71 1786.42 945.71 1786.56 945.71 1786.93 945.71 1786.96 945.71 1787.19 945.71 1787.21 945.71 1787.45 945.71 1788.1 945.71 1788.14 945.71 1788.43 945.71 1788.53 945.71 1788.55 945.71 1788.62 945.71 1788.92 945.71 1788.99 945.71 1789.32 945.71 1789.67 945.71 1789.71 945.71 1789.88 945.71 1790.26 945.71 1790.78 945.71 1790.8 945.71 1791.34 945.71 1791.88 945.71 1795.35 945.71 1795.88 945.71 1796.43 945.71 1796.45 945.71 1796.96 945.71 1797.34 945.71 1797.51 945.71 1797.56 945.71 1797.91 945.71 1798.23 945.71 1798.3 945.71 1798.61 945.71 1798.67 945.71 1798.69 945.71"/><path class="cls-24" d="M1798.69,1047.32s.02-.05.03-.06c0-.03.02-.06.02-.07.22-.59.34-1.23.34-1.89v-14.49h-.15l11.23-85.1h-2.89l-9.28,85.1h.68v11.55c0,.49-.08,3.84-.21,4.09-.08,1.35-.79,2.48-1.81,3.27-.02.05-.03.12-.06.16.17-.12.3-.28.46-.4.15-.13.34-.22.49-.38.03-.02.06-.07.09-.1.03-.02.06-.05.1-.09.03-.05.06-.07.08-.11.23-.28.37-.6.55-.91.04-.05.09-.12.12-.19.05-.1.14-.18.19-.29,0-.01.01-.04.02-.07Z"/><path class="cls-24" d="M1791.39,1045.3v-14.49h-2.17l-9.27-85.1h-2.89l11.23,85.1h-.15v14.49c0,3.03,2.44,5.48,5.47,5.48.09,0,.17-.05.26-.05h.06c.08,0,.15-.04.24-.05.02,0,.04.02.07.02.08-.01.14-.06.23-.08.03,0,.05.04.08.04.08-.01.14-.06.22-.08.04,0,.06.02.1.04.02-.01.03-.02.05-.02-2.01-.58-3.52-2.73-3.52-5.3Z"/><path class="cls-24" d="M1796.31,1050.02s-.06.03-.08.04c-.05.04-.12.04-.17.08-.02,0-.03.01-.05.03-.1.06-.23.07-.33.12-.1.06-.18.08-.27.1.15-.05.32-.08.47-.16.06,0,.12-.06.18-.09.06-.02.12-.06.17-.09.06-.03.11-.05.16-.08.06-.03.12-.06.18-.09-.08.04-.16.07-.24.1,0,0-.01.01-.02.02Z"/><path class="cls-29" d="M1796.23,1050.07s.06-.03.08-.04c0,0,.01-.02.02-.02-.08.04-.15.07-.23.1-.02.01-.03.03-.04.04.04-.04.12-.04.17-.08Z"/><path class="cls-29" d="M1792.16,1045.3v-14.49h-.77v14.49c0,2.57,1.5,4.72,3.52,5.3h0s.04-.01.06-.01c-1.61-.6-2.8-2.75-2.8-5.29Z"/><path class="cls-29" d="M1797.83,1047.6c-.12.79-.55,1.48-1.14,2.03-.01.03-.01.07-.04.08,1.02-.79,1.73-1.92,1.81-3.27.13-.25.21-3.6.21-4.09v-11.55h-.4v12.53c0,.97-.18,3.76-.44,4.26Z"/><path class="cls-46" d="M1796.01,1050.18s.03-.03.05-.03c0,0,.02-.02.04-.04-.28.14-.56.28-.86.38.06-.02.11-.04.17-.08.09-.02.17-.05.27-.1.1-.05.23-.06.33-.12Z"/><path class="cls-46" d="M1792.93,1045.3v-14.49h-.77v14.49c0,2.54,1.19,4.68,2.8,5.29h0s.04-.02.05-.03c-1.2-.61-2.08-2.72-2.08-5.26Z"/><path class="cls-46" d="M1797.85,1044.32c0,1.44-.25,3.7-.63,4.42-.08.19-.25.3-.35.48-.06.14-.11.29-.18.41.59-.55,1.02-1.24,1.14-2.03.26-.5.44-3.29.44-4.26v-12.53h-.42v13.51Z"/><path class="cls-7" d="M1793.7,1030.81h-.77v14.49c0,2.54.88,4.65,2.08,5.26h.03s0-.01.02-.01c-.79-.65-1.37-2.73-1.37-5.24v-14.49Z"/><path class="cls-7" d="M1797.85,1044.32v-13.51h-.4v14.49c0,1.54-.23,2.92-.58,3.92.1-.17.27-.29.35-.48.38-.73.63-2.99.63-4.42Z"/><path class="cls-2" d="M1796.69,1049.63c.06-.13.12-.27.18-.41.35-.99.58-2.37.58-3.92v-14.49h-2.23l3.39-85.1h-9.99l3.39,85.1h1.69v14.49c0,2.52.58,4.59,1.37,5.24h0c.06-.01.1-.05.17-.06.3-.1.58-.24.86-.38.08-.04.15-.07.23-.1.08-.04.17-.06.24-.1,0,0,0-.01.02-.01s0,0,0,0c.03-.04.04-.11.06-.16.02-.01.02-.05.04-.08Z"/><polygon class="cls-14" points="1769.44 945.71 1769.2 945.71 1767.57 945.71 1785.25 1030.81 1786.01 1030.81 1769.94 945.71 1769.44 945.71"/><polygon class="cls-14" points="1817.79 945.71 1817.29 945.71 1801.22 1030.81 1801.98 1030.81 1819.66 945.71 1818.04 945.71 1817.79 945.71"/><polygon class="cls-19" points="1771.31 945.71 1770.95 945.71 1770.83 945.71 1769.94 945.71 1786.01 1030.81 1786.77 1030.81 1772.31 945.71 1771.31 945.71"/><polygon class="cls-19" points="1816.4 945.71 1816.27 945.71 1815.92 945.71 1814.91 945.71 1800.45 1030.81 1801.22 1030.81 1817.29 945.71 1816.4 945.71"/><polygon class="cls-31" points="1774.46 945.71 1774.11 945.71 1774.07 945.71 1773.97 945.71 1773.18 945.71 1772.7 945.71 1772.46 945.71 1772.45 945.71 1772.31 945.71 1786.77 1030.81 1787.53 1030.81 1774.68 945.71 1774.46 945.71"/><polygon class="cls-31" points="1814.78 945.71 1814.77 945.71 1814.52 945.71 1814.04 945.71 1813.26 945.71 1813.15 945.71 1813.13 945.71 1812.77 945.71 1812.55 945.71 1799.69 1030.81 1800.45 1030.81 1814.91 945.71 1814.78 945.71"/><polygon class="cls-25" points="1812.17 945.71 1811.74 945.71 1811.74 945.71 1811.49 945.71 1811.01 945.71 1810.34 945.71 1810.21 945.71 1810.16 945.71 1798.93 1030.81 1799.09 1030.81 1799.69 1030.81 1812.55 945.71 1812.17 945.71"/><polygon class="cls-25" points="1777.06 945.71 1777.02 945.71 1776.88 945.71 1776.21 945.71 1775.74 945.71 1775.49 945.71 1775.48 945.71 1775.05 945.71 1774.68 945.71 1787.53 1030.81 1788.14 1030.81 1788.29 1030.81 1777.06 945.71"/><polygon class="cls-29" points="1782.81 945.71 1782.74 945.71 1782.2 945.71 1782.01 945.71 1781.9 945.71 1781.63 945.71 1781.1 945.71 1781.05 945.71 1781.04 945.71 1780.63 945.71 1780.23 945.71 1779.95 945.71 1789.22 1030.81 1789.39 1030.81 1790.01 1030.81 1790.15 1030.81 1782.83 945.71 1782.81 945.71"/><polygon class="cls-29" points="1806.59 945.71 1806.18 945.71 1806.17 945.71 1806.12 945.71 1805.59 945.71 1805.33 945.71 1805.22 945.71 1805.02 945.71 1804.5 945.71 1804.41 945.71 1804.39 945.71 1797.07 1030.81 1797.45 1030.81 1797.85 1030.81 1798 1030.81 1807.27 945.71 1807 945.71 1806.59 945.71"/><polygon class="cls-46" points="1785.51 945.71 1785.39 945.71 1785.38 945.71 1785.27 945.71 1784.84 945.71 1784.71 945.71 1784.63 945.71 1784.15 945.71 1783.8 945.71 1783.79 945.71 1783.57 945.71 1783.48 945.71 1782.91 945.71 1782.83 945.71 1790.15 1030.81 1790.64 1030.81 1791.08 1030.81 1785.73 945.71 1785.51 945.71"/><polygon class="cls-46" points="1804.32 945.71 1803.74 945.71 1803.65 945.71 1803.44 945.71 1803.42 945.71 1803.07 945.71 1802.6 945.71 1802.52 945.71 1802.4 945.71 1801.96 945.71 1801.85 945.71 1801.83 945.71 1801.71 945.71 1801.5 945.71 1796.14 1030.81 1797.07 1030.81 1804.39 945.71 1804.32 945.71"/><polygon class="cls-7" points="1801.32 945.71 1801.31 945.71 1801.28 945.71 1800.81 945.71 1800.67 945.71 1800.29 945.71 1800.26 945.71 1800.04 945.71 1800.02 945.71 1799.78 945.71 1799.13 945.71 1799.09 945.71 1798.8 945.71 1798.69 945.71 1798.67 945.71 1798.61 945.71 1795.22 1030.81 1796.14 1030.81 1801.5 945.71 1801.32 945.71"/><polygon class="cls-7" points="1788.53 945.71 1788.43 945.71 1788.14 945.71 1788.1 945.71 1787.45 945.71 1787.21 945.71 1787.19 945.71 1786.96 945.71 1786.93 945.71 1786.56 945.71 1786.42 945.71 1785.95 945.71 1785.91 945.71 1785.91 945.71 1785.73 945.71 1791.08 1030.81 1791.39 1030.81 1792.01 1030.81 1788.62 945.71 1788.55 945.71 1788.53 945.71"/><polygon class="cls-31" points="1767.98 192.65 1767.57 192.65 1765.61 192.65 1765.61 197.88 1765.61 220 1765.61 226.53 1767.57 226.53 1767.98 226.53 1767.98 192.65"/><polygon class="cls-31" points="1819.25 226.53 1819.66 226.53 1821.61 226.53 1821.61 192.65 1819.66 192.65 1819.25 192.65 1819.25 226.53"/><polygon class="cls-1" points="1769.44 192.65 1767.98 192.65 1767.98 226.53 1769.44 226.53 1770.34 226.53 1770.34 192.65 1769.44 192.65"/><polygon class="cls-1" points="1817.79 226.53 1819.25 226.53 1819.25 192.65 1817.79 192.65 1816.89 192.65 1816.89 226.53 1817.79 226.53"/><polygon class="cls-27" points="1771.31 192.65 1770.34 192.65 1770.34 226.53 1771.31 226.53 1772.69 226.53 1772.69 192.65 1771.31 192.65"/><polygon class="cls-27" points="1815.92 226.53 1816.89 226.53 1816.89 192.65 1815.92 192.65 1814.53 192.65 1814.53 226.53 1815.92 226.53"/><polygon class="cls-47" points="1773.18 192.65 1772.69 192.65 1772.69 226.53 1773.18 226.53 1775.05 226.53 1775.05 192.65 1773.18 192.65"/><polygon class="cls-47" points="1814.04 226.53 1814.53 226.53 1814.53 192.65 1814.04 192.65 1812.17 192.65 1812.17 226.53 1814.04 226.53"/><polygon class="cls-28" points="1778.39 192.65 1777.64 192.65 1775.05 192.65 1775.05 226.53 1777.64 226.53 1778.39 226.53 1778.39 192.65"/><polygon class="cls-28" points="1809.59 226.53 1812.17 226.53 1812.17 192.65 1809.59 192.65 1808.83 192.65 1808.83 226.53 1809.59 226.53"/><polygon class="cls-26" points="1780.23 192.65 1778.39 192.65 1778.39 226.53 1780.23 226.53 1781.73 226.53 1781.73 192.65 1780.23 192.65"/><polygon class="cls-26" points="1808.83 192.65 1807 192.65 1805.5 192.65 1805.5 226.53 1807 226.53 1808.83 226.53 1808.83 192.65"/><polygon class="cls-38" points="1782.81 192.65 1781.73 192.65 1781.73 226.53 1782.81 226.53 1785.07 226.53 1785.07 192.65 1782.81 192.65"/><polygon class="cls-38" points="1804.41 192.65 1802.16 192.65 1802.16 226.53 1804.41 226.53 1805.5 226.53 1805.5 192.65 1804.41 192.65"/><polygon class="cls-48" points="1785.39 192.65 1785.07 192.65 1785.07 226.53 1785.39 226.53 1788.4 226.53 1788.4 192.65 1785.39 192.65"/><polygon class="cls-48" points="1801.83 192.65 1798.82 192.65 1798.82 226.53 1801.83 226.53 1802.16 226.53 1802.16 192.65 1801.83 192.65"/><rect class="cls-16" x="1788.4" y="192.65" width="10.43" height="33.88"/><rect class="cls-16" x="1762.19" y="197.88" width="3.42" height="22.12"/><path class="cls-15" d="M1762.19,188.76h-5.21v223.99c0,4.23-3.42,7.65-7.65,7.65l-.48-.04c1.39,1.59,3.4,2.65,5.69,2.65,4.22,0,7.65-3.43,7.65-7.66v-226.61Z"/><path class="cls-35" d="M1756.98,412.76v-223.99h-10.09v226.61c0,.49.06.98.15,1.44.06.33.17.64.27.95.04.13.07.24.11.36.16.4.36.78.58,1.16h0c.23.38.49.75.79,1.09h.06s.48.05.48.05c4.23,0,7.65-3.42,7.65-7.65Z"/><polygon class="cls-5" points="1816.24 156.12 1816.24 155.22 1809.24 155.22 1807.78 155.22 1806.31 155.22 1804.84 155.22 1803.38 155.22 1801.83 155.22 1800.29 155.22 1798.74 155.22 1797.2 155.22 1790.03 155.22 1788.49 155.22 1786.94 155.22 1785.39 155.22 1783.85 155.22 1782.38 155.22 1780.92 155.22 1779.45 155.22 1777.99 155.22 1770.98 155.22 1770.98 162.35 1816.24 162.35 1816.24 156.12"/><rect class="cls-22" x="1770.98" y="162.35" width="45.26" height="3.91"/><polygon class="cls-20" points="1772.45 170.53 1772.46 170.53 1772.7 170.53 1773.18 170.53 1773.97 170.53 1774.07 170.53 1774.11 170.53 1774.46 170.53 1775.05 170.53 1775.48 170.53 1775.49 170.53 1775.74 170.53 1776.21 170.53 1776.88 170.53 1777.02 170.53 1777.38 170.53 1777.59 170.53 1777.64 170.53 1778.29 170.53 1778.54 170.53 1778.64 170.53 1778.74 170.53 1779.64 170.53 1779.69 170.53 1779.89 170.53 1780.23 170.53 1780.63 170.53 1781.04 170.53 1781.05 170.53 1781.1 170.53 1781.63 170.53 1781.9 170.53 1782.01 170.53 1782.2 170.53 1782.74 170.53 1782.81 170.53 1782.91 170.53 1783.48 170.53 1783.57 170.53 1783.79 170.53 1783.8 170.53 1784.15 170.53 1784.63 170.53 1784.71 170.53 1784.84 170.53 1785.27 170.53 1785.38 170.53 1785.39 170.53 1785.51 170.53 1785.91 170.53 1785.91 170.53 1785.95 170.53 1786.42 170.53 1786.56 170.53 1786.93 170.53 1786.96 170.53 1787.19 170.53 1787.21 170.53 1787.45 170.53 1788.1 170.53 1788.14 170.53 1788.43 170.53 1788.53 170.53 1788.55 170.53 1788.92 170.53 1788.99 170.53 1789.32 170.53 1789.67 170.53 1789.71 170.53 1789.88 170.53 1790.26 170.53 1790.78 170.53 1790.8 170.53 1791.34 170.53 1791.88 170.53 1795.35 170.53 1795.88 170.53 1796.43 170.53 1796.45 170.53 1796.96 170.53 1797.34 170.53 1797.51 170.53 1797.56 170.53 1797.91 170.53 1798.23 170.53 1798.3 170.53 1798.67 170.53 1798.69 170.53 1798.8 170.53 1799.09 170.53 1799.13 170.53 1799.78 170.53 1800.02 170.53 1800.04 170.53 1800.26 170.53 1800.29 170.53 1800.67 170.53 1800.81 170.53 1801.28 170.53 1801.31 170.53 1801.32 170.53 1801.71 170.53 1801.83 170.53 1801.85 170.53 1801.96 170.53 1802.4 170.53 1802.52 170.53 1802.6 170.53 1803.07 170.53 1803.42 170.53 1803.44 170.53 1803.65 170.53 1803.74 170.53 1804.32 170.53 1804.41 170.53 1804.5 170.53 1805.02 170.53 1805.22 170.53 1805.33 170.53 1805.59 170.53 1806.12 170.53 1806.17 170.53 1806.18 170.53 1806.59 170.53 1807 170.53 1807.33 170.53 1807.53 170.53 1807.59 170.53 1808.48 170.53 1808.59 170.53 1808.69 170.53 1808.93 170.53 1809.59 170.53 1809.63 170.53 1809.85 170.53 1810.21 170.53 1810.34 170.53 1811.01 170.53 1811.49 170.53 1811.74 170.53 1811.74 170.53 1812.17 170.53 1812.77 170.53 1813.13 170.53 1813.15 170.53 1813.26 170.53 1814.04 170.53 1814.52 170.53 1814.77 170.53 1814.78 170.53 1815.92 170.53 1816.24 170.53 1816.24 166.26 1770.98 166.26 1770.98 170.53 1771.31 170.53 1772.45 170.53"/><polygon class="cls-1" points="1780.92 155.22 1782.38 155.22 1783.85 155.22 1785.39 155.22 1785.39 123.83 1783.85 123.83 1782.38 123.83 1780.92 123.83 1779.45 123.83 1777.99 123.83 1777.99 155.22 1779.45 155.22 1780.92 155.22"/><polygon class="cls-1" points="1806.31 123.83 1804.84 123.83 1803.38 123.83 1801.83 123.83 1801.83 155.22 1803.38 155.22 1804.84 155.22 1806.31 155.22 1807.78 155.22 1809.24 155.22 1809.24 123.83 1807.78 123.83 1806.31 123.83"/><rect class="cls-45" x="1785.39" y="123.83" width="1.55" height="31.4"/><rect class="cls-45" x="1800.29" y="123.83" width="1.55" height="31.4"/><rect class="cls-37" x="1786.94" y="123.83" width="1.55" height="31.4"/><rect class="cls-37" x="1798.74" y="123.83" width="1.55" height="31.4"/><rect class="cls-41" x="1797.2" y="123.83" width="1.54" height="31.4"/><rect class="cls-41" x="1788.49" y="123.83" width="1.55" height="31.4"/><polygon class="cls-26" points="1812.17 120.71 1812.17 116.23 1775.05 116.23 1775.05 120.71 1777.99 120.71 1809.24 120.71 1812.17 120.71"/><rect class="cls-1" x="1775.05" y="114.2" width="37.12" height="2.03"/><polygon class="cls-16" points="1780.92 123.83 1782.38 123.83 1783.85 123.83 1785.39 123.83 1786.94 123.83 1788.49 123.83 1790.03 123.83 1790.03 155.22 1797.2 155.22 1797.2 123.83 1798.74 123.83 1800.29 123.83 1801.83 123.83 1803.38 123.83 1804.84 123.83 1806.31 123.83 1807.78 123.83 1809.24 123.83 1809.24 120.71 1777.99 120.71 1777.99 123.83 1779.45 123.83 1780.92 123.83"/><path class="cls-32" d="M936.17,49.4c-.63-.39-1.3-.73-1.96-1.08.75.37,1.47.79,2.18,1.25-.08-.04-.14-.13-.21-.17Z"/><path class="cls-32" d="M901.14,48.05c-.84.42-1.64.86-2.43,1.35-.1.07-.21.15-.31.22.88-.57,1.79-1.1,2.73-1.56Z"/><path class="cls-32" d="M885.52,107.33h8.92v-54.6c-.6.56-1.18,1.16-1.73,1.78,0,.01-.01.01-.01.03-2.59,2.91-4.6,6.35-5.82,10.15-.87,2.73-1.35,5.64-1.35,8.65v33.99Z"/><path class="cls-32" d="M942.18,107.33h7.17v-33.99c0-3.01-.48-5.92-1.35-8.65-1.21-3.77-3.26-7.12-5.82-10.02v-.13c-.55-.62-1.13-1.23-1.74-1.81v54.6h1.74Z"/><path class="cls-18" d="M940.44,107.33v-54.6c-.09-.08-.17-.15-.26-.23-.11-.09-.21-.19-.31-.27-.39-.36-.77-.71-1.18-1.04v56.14h1.76Z"/><path class="cls-18" d="M896.19,107.33v-56.14c-.6.49-1.18,1.01-1.75,1.54v54.6h1.75Z"/><path class="cls-10" d="M897.93,107.33v-57.45c-.58.41-1.13.84-1.7,1.29-.02,0-.04.01-.05.03v56.14h1.74Z"/><path class="cls-10" d="M938.69,51.19c-.56-.44-1.13-.89-1.74-1.31v57.45h1.74v-56.14Z"/><path class="cls-17" d="M897.93,49.88v57.45h3.38v-59.38c-.06.03-.11.07-.17.1-.95.47-1.85,1-2.73,1.56-.16.1-.32.17-.48.26Z"/><path class="cls-17" d="M936.95,107.33v-57.45c-.18-.12-.39-.2-.57-.31-.7-.46-1.43-.88-2.18-1.25-.22-.11-.42-.26-.63-.36v59.38h3.38Z"/><path class="cls-30" d="M904.69,107.33v-60.81s-.02.02-.02.03c-1.15.38-2.27.85-3.34,1.38-.01.01-.02.03-.02.03v59.38h3.38Z"/><path class="cls-30" d="M933.57,107.33v-59.38s-.06-.03-.1-.05c-1.04-.51-2.11-.96-3.21-1.35-.03,0-.05-.03-.08-.03v60.81h3.38Z"/><path class="cls-12" d="M908.06,107.33v-61.75c-.1.02-.19.08-.29.09-.99.22-1.95.5-2.89.82-.07.02-.14.03-.19.04v60.81h3.37Z"/><path class="cls-12" d="M930.19,107.33v-60.81s-.03,0-.03-.02c-1.01-.33-2.03-.63-3.08-.85-.09-.03-.18-.07-.26-.09v61.75h3.37Z"/><path class="cls-42" d="M914.56,107.33v28.08h11.82v-28.08h.44v-61.75c-.89-.18-1.79-.32-2.7-.42-.07-.02-.12-.04-.18-.04-.98-.1-1.96-.16-2.96-.16h-7.09c-.99,0-1.97.06-2.94.16-.07,0-.12.03-.18.04-.92.09-1.82.24-2.7.42v61.75h6.5Z"/><rect class="cls-42" x="914.56" y="964.21" width="11.82" height="33.09"/><rect class="cls-42" x="914.56" y="389.6" width="11.82" height="33.11"/><rect class="cls-42" x="914.56" y="916.33" width="11.82" height="33.09"/><rect class="cls-42" x="914.56" y="724.78" width="11.82" height="33.11"/><rect class="cls-42" x="914.56" y="341.71" width="11.82" height="33.11"/><rect class="cls-42" x="914.56" y="293.84" width="11.82" height="33.1"/><rect class="cls-42" x="914.56" y="485.37" width="11.82" height="33.11"/><rect class="cls-42" x="914.56" y="437.48" width="11.82" height="33.09"/><rect class="cls-42" x="914.56" y="245.95" width="11.82" height="33.09"/><rect class="cls-42" x="914.56" y="198.07" width="11.82" height="33.11"/><rect class="cls-42" x="914.56" y="581.13" width="11.82" height="33.11"/><rect class="cls-42" x="914.56" y="150.18" width="11.82" height="33.11"/><rect class="cls-42" x="914.56" y="1012.08" width="11.82" height="33.1"/><rect class="cls-42" x="914.56" y="533.25" width="11.82" height="33.1"/><rect class="cls-42" x="914.56" y="1059.98" width="11.82" height="33.09"/><rect class="cls-42" x="914.56" y="820.54" width="11.82" height="33.11"/><rect class="cls-42" x="914.56" y="629.01" width="11.82" height="33.1"/><rect class="cls-42" x="914.56" y="676.91" width="11.82" height="33.09"/><rect class="cls-42" x="914.56" y="868.45" width="11.82" height="33.09"/><rect class="cls-42" x="914.56" y="772.67" width="11.82" height="33.1"/><path class="cls-21" d="M117.74,114.42v1028.55c0,3.9,3.18,7.09,7.1,7.09h362.06v-76.33H183.95v-3.54h302.94v-50.84H183.95v-3.55h302.94v-50.84H183.95v-3.53h302.94v-50.84H183.95v-3.54h302.94v-50.83H183.95v-3.54h302.94v-50.84H183.95v-3.54h302.94v-50.82H183.95v-3.56h302.94v-50.81H183.95v-3.56h302.94v-50.84H183.95v-3.55h302.94v-50.82H183.95v-3.55h302.94v-50.83H183.95v-3.53h302.94v-50.85H183.95v-3.54h302.94v-50.83H183.95v-3.54h302.94v-50.83H183.95v-3.54h302.94v-50.84H183.95v-3.54h302.94v-50.83H183.95v-3.54h302.94v-50.83H183.95v-3.54h302.94v-92.81H124.84c-3.91,0-7.1,3.16-7.1,7.09Z"/><path class="cls-21" d="M892.7,1150.06h21.86v-42.2h-16.43c-2.06,2.32-5.05,3.84-8.4,3.84-6.2,0-11.23-5.03-11.23-11.24s5.02-11.24,11.23-11.24c3.35,0,6.34,1.51,8.4,3.85h16.43v-33.09h-16.43c-2.06,2.33-5.05,3.83-8.4,3.83-6.2,0-11.23-5.03-11.23-11.24s5.02-11.23,11.23-11.23c3.37,0,6.34,1.5,8.4,3.84h16.43v-33.1h-16.43c-2.06,2.35-5.05,3.85-8.4,3.85-6.2,0-11.23-5.03-11.23-11.23s5.02-11.23,11.23-11.23c3.35,0,6.34,1.49,8.4,3.83h16.43v-33.09h-16.43c-2.07,2.33-5.05,3.83-8.4,3.83-6.2,0-11.23-5.03-11.23-11.23s5.02-11.23,11.23-11.23c3.37,0,6.34,1.5,8.4,3.83h16.43v-33.09h-16.43c-2.06,2.32-5.05,3.83-8.4,3.83-6.2,0-11.23-5.02-11.23-11.23s5.02-11.23,11.23-11.23c3.35,0,6.33,1.5,8.4,3.84h16.43v-33.09h-16.43c-2.06,2.33-5.05,3.84-8.4,3.84-6.2,0-11.23-5.03-11.23-11.24s5.02-11.23,11.23-11.23c3.37,0,6.34,1.5,8.4,3.84h16.43v-33.11h-16.43c-2.06,2.35-5.05,3.86-8.4,3.86-6.2,0-11.23-5.03-11.23-11.24s5.02-11.23,11.23-11.23c3.37,0,6.34,1.5,8.4,3.84h16.43v-33.1h-16.43c-2.07,2.34-5.05,3.83-8.4,3.83-6.2,0-11.23-5.02-11.23-11.22s5.02-11.23,11.23-11.23c3.35,0,6.34,1.49,8.4,3.83h16.43v-33.11h-16.43c-2.07,2.33-5.05,3.85-8.4,3.85-6.2,0-11.23-5.03-11.23-11.23s5.02-11.25,11.23-11.25c3.35,0,6.34,1.52,8.4,3.85h16.43v-33.09h-16.43c-2.06,2.34-5.05,3.82-8.4,3.82-6.2,0-11.23-5.03-11.23-11.23s5.02-11.23,11.23-11.23c3.37,0,6.34,1.51,8.4,3.84h16.43v-33.1h-16.43c-2.06,2.35-5.05,3.86-8.4,3.86-6.2,0-11.23-5.03-11.23-11.24s5.02-11.23,11.23-11.23c3.35,0,6.34,1.5,8.4,3.84h16.43v-33.11h-16.43c-2.06,2.34-5.05,3.84-8.4,3.84-6.2,0-11.23-5.02-11.23-11.22s5.02-11.23,11.23-11.23c3.37,0,6.34,1.5,8.4,3.84h16.43v-33.1h-16.43c-2.07,2.33-5.05,3.83-8.4,3.83-6.2,0-11.23-5.02-11.23-11.22s5.02-11.25,11.23-11.25c3.37,0,6.34,1.51,8.4,3.85h16.43v-33.11h-16.43c-2.06,2.33-5.05,3.83-8.4,3.83-6.2,0-11.23-5.03-11.23-11.23s5.02-11.24,11.23-11.24c3.35,0,6.34,1.51,8.4,3.83h16.43v-33.09h-16.43c-2.06,2.33-5.03,3.85-8.4,3.85-6.2,0-11.23-5.03-11.23-11.23s5.02-11.24,11.23-11.24c3.35,0,6.34,1.51,8.4,3.85h16.43v-33.11h-16.43c-2.06,2.33-5.05,3.84-8.4,3.84-6.2,0-11.23-5.02-11.23-11.24s5.02-11.22,11.23-11.22c3.35,0,6.34,1.49,8.4,3.83h16.43v-33.11h-16.43c-2.06,2.34-5.03,3.84-8.4,3.84-6.2,0-11.23-5.02-11.23-11.24s5.02-11.23,11.23-11.23c3.37,0,6.34,1.51,8.4,3.85h16.43v-33.1h-16.43c-2.06,2.33-5.03,3.83-8.4,3.83-6.2,0-11.23-5.03-11.23-11.23s5.02-11.24,11.23-11.24c3.35,0,6.34,1.5,8.4,3.84h16.43v-33.09h-16.43c-2.06,2.33-5.05,3.85-8.4,3.85-6.2,0-11.23-5.03-11.23-11.23s5.02-11.25,11.23-11.25c3.37,0,6.34,1.52,8.4,3.85h16.43v-33.11h-16.43c-2.06,2.33-5.05,3.83-8.4,3.83-6.2,0-11.23-5.01-11.23-11.23s5.02-11.23,11.23-11.23c3.35,0,6.34,1.5,8.4,3.85h16.43v-33.11h-16.43c-2.06,2.33-5.05,3.84-8.4,3.84-6.2,0-11.23-5.02-11.23-11.24s5.02-11.23,11.23-11.23c3.35,0,6.33,1.51,8.4,3.85h16.43v-28.08h-436.03v92.81h376.92v3.54h-376.92v50.83h376.92v3.54h-376.92v50.83h376.92v3.54h-376.92v50.84h376.92v3.54h-376.92v50.83h376.92v3.54h-376.92v50.83h376.92v3.54h-376.92v50.85h376.92v3.53h-376.92v50.83h376.92v3.55h-376.92v50.82h376.92v3.55h-376.92v50.84h376.92v3.56h-376.92v50.81h376.92v3.56h-376.92v50.82h376.92v3.54h-376.92v50.84h376.92v3.54h-376.92v50.83h376.92v3.54h-376.92v50.84h376.92v3.53h-376.92v50.84h376.92v3.55h-376.92v50.84h376.92v3.54h-376.92v76.33h414.16Z"/><rect class="cls-21" x="478.54" y="200.14" width="376.92" height="3.54"/><rect class="cls-21" x="183.95" y="200.14" width="302.94" height="3.54"/><rect class="cls-21" x="183.95" y="254.52" width="302.94" height="3.54"/><rect class="cls-21" x="478.54" y="254.52" width="376.92" height="3.54"/><rect class="cls-21" x="478.54" y="308.89" width="376.92" height="3.54"/><rect class="cls-21" x="183.95" y="308.89" width="302.94" height="3.54"/><rect class="cls-21" x="183.95" y="363.27" width="302.94" height="3.54"/><rect class="cls-21" x="478.54" y="363.27" width="376.92" height="3.54"/><rect class="cls-21" x="183.95" y="417.65" width="302.94" height="3.54"/><rect class="cls-21" x="478.54" y="417.65" width="376.92" height="3.54"/><rect class="cls-21" x="183.95" y="472.02" width="302.94" height="3.54"/><rect class="cls-21" x="478.54" y="472.02" width="376.92" height="3.54"/><rect class="cls-21" x="183.95" y="526.41" width="302.94" height="3.53"/><rect class="cls-21" x="478.54" y="526.41" width="376.92" height="3.53"/><rect class="cls-21" x="183.95" y="580.77" width="302.94" height="3.55"/><rect class="cls-21" x="478.54" y="580.77" width="376.92" height="3.55"/><rect class="cls-21" x="183.95" y="635.14" width="302.94" height="3.55"/><rect class="cls-21" x="478.54" y="635.14" width="376.92" height="3.55"/><rect class="cls-21" x="183.95" y="689.53" width="302.94" height="3.56"/><rect class="cls-21" x="478.54" y="689.53" width="376.92" height="3.56"/><rect class="cls-21" x="478.54" y="743.91" width="376.92" height="3.56"/><rect class="cls-21" x="183.95" y="743.91" width="302.94" height="3.56"/><rect class="cls-21" x="183.95" y="798.28" width="302.94" height="3.54"/><rect class="cls-21" x="478.54" y="798.28" width="376.92" height="3.54"/><rect class="cls-21" x="478.54" y="852.67" width="376.92" height="3.54"/><rect class="cls-21" x="183.95" y="852.67" width="302.94" height="3.54"/><rect class="cls-21" x="478.54" y="907.04" width="376.92" height="3.54"/><rect class="cls-21" x="183.95" y="907.04" width="302.94" height="3.54"/><rect class="cls-21" x="183.95" y="961.42" width="302.94" height="3.53"/><rect class="cls-21" x="478.54" y="961.42" width="376.92" height="3.53"/><rect class="cls-21" x="478.54" y="1015.79" width="376.92" height="3.55"/><rect class="cls-21" x="183.95" y="1015.79" width="302.94" height="3.55"/><rect class="cls-21" x="478.54" y="1070.18" width="376.92" height="3.54"/><rect class="cls-21" x="183.95" y="1070.18" width="302.94" height="3.54"/><path class="cls-44" d="M888.72,147.24c-.39-.56-.69-1.16-.92-1.81-.04-.11-.07-.21-.1-.3-.02-.08-.02-.18-.04-.25h-.03c-.16-.57-.26-1.16-.26-1.79v-.58c0-.61.1-1.21.25-1.78h.03c.02-.09.02-.17.04-.25.04-.11.07-.22.11-.31.22-.64.53-1.24.92-1.79,1.29-1.78,3.38-2.95,5.74-2.95h3.67c-2.07-2.33-5.05-3.85-8.4-3.85-6.2,0-11.23,5.03-11.23,11.23s5.02,11.24,11.23,11.24c3.35,0,6.34-1.51,8.4-3.84h-3.67c-2.36,0-4.45-1.16-5.74-2.94Z"/><path class="cls-44" d="M888.76,195.11h-.03c-.39-.54-.69-1.15-.92-1.79-.04-.1-.07-.19-.1-.3-.03-.09-.02-.17-.04-.25h-.03c-.16-.58-.26-1.16-.26-1.78v-.6c0-.61.1-1.21.25-1.78h.03c.02-.09.02-.17.04-.26.04-.09.07-.19.11-.29.22-.65.53-1.25.92-1.8,1.29-1.79,3.38-2.95,5.74-2.95h3.67c-2.06-2.35-5.05-3.85-8.4-3.85-6.2,0-11.23,5.03-11.23,11.23s5.02,11.23,11.23,11.23c3.35,0,6.34-1.5,8.4-3.83h-3.67c-2.36,0-4.43-1.18-5.71-2.96Z"/><path class="cls-44" d="M888.76,243h-.03c-.39-.56-.69-1.15-.92-1.8-.04-.1-.07-.19-.1-.3-.03-.09-.02-.17-.04-.27h-.03c-.16-.57-.26-1.13-.26-1.76v-.6c0-.62.1-1.21.25-1.77h.03c.02-.09.02-.17.04-.25.04-.1.07-.21.11-.32.22-.64.53-1.24.92-1.8h.03c1.28-1.78,3.35-2.94,5.71-2.94h3.67c-2.06-2.33-5.03-3.85-8.4-3.85-6.2,0-11.23,5.03-11.23,11.25s5.02,11.23,11.23,11.23c3.35,0,6.34-1.51,8.4-3.85h-3.67c-2.36,0-4.43-1.17-5.71-2.95Z"/><path class="cls-44" d="M888.76,290.89h-.03c-.39-.56-.69-1.16-.92-1.81-.04-.1-.07-.21-.1-.3-.02-.09-.02-.16-.04-.25h-.03c-.16-.59-.26-1.17-.26-1.78v-.59c0-.63.1-1.2.25-1.79h.03c.02-.08.02-.18.04-.25.04-.11.07-.21.1-.32.23-.63.53-1.25.92-1.79h.03c1.28-1.78,3.35-2.96,5.71-2.96h3.67c-2.06-2.34-5.05-3.84-8.4-3.84-6.2,0-11.23,5.03-11.23,11.24s5.02,11.23,11.23,11.23c3.37,0,6.34-1.5,8.4-3.83h-3.67c-2.36,0-4.43-1.18-5.71-2.95Z"/><path class="cls-44" d="M888.72,338.77v-.02c-.39-.54-.69-1.15-.92-1.79-.04-.1-.07-.2-.1-.29-.03-.1-.02-.19-.04-.26h-.03c-.16-.57-.26-1.17-.26-1.8v-.58c0-.61.1-1.21.25-1.78h.03c.02-.09.02-.16.04-.26.04-.1.07-.19.1-.3.23-.63.53-1.24.92-1.78h.03c1.28-1.78,3.35-2.97,5.71-2.97h3.67c-2.06-2.33-5.03-3.85-8.4-3.85-6.2,0-11.23,5.03-11.23,11.23s5.02,11.24,11.23,11.24c3.37,0,6.34-1.5,8.4-3.84h-3.67c-2.36,0-4.45-1.16-5.74-2.94Z"/><path class="cls-44" d="M888.72,386.64c-.39-.54-.69-1.15-.92-1.8-.04-.09-.07-.19-.1-.3-.02-.07-.02-.17-.04-.25h-.03c-.16-.57-.26-1.16-.26-1.77v-.6c0-.61.1-1.2.25-1.76h.03c.02-.1.02-.18.04-.28.04-.08.07-.19.1-.29.23-.65.53-1.25.92-1.79h.03c1.28-1.79,3.35-2.96,5.71-2.96h3.67c-2.06-2.34-5.05-3.83-8.4-3.83-6.2,0-11.23,5.02-11.23,11.22s5.02,11.24,11.23,11.24c3.35,0,6.34-1.51,8.4-3.84h-3.67c-2.36,0-4.45-1.16-5.74-2.96Z"/><path class="cls-44" d="M888.73,434.53h-.01c-.39-.55-.69-1.15-.92-1.8-.04-.1-.07-.19-.1-.3-.02-.09-.02-.17-.04-.25h-.03c-.16-.57-.26-1.15-.26-1.79v-.58c0-.61.1-1.21.25-1.78h.03c.02-.09.02-.17.04-.25.04-.1.07-.2.1-.3.23-.65.53-1.25.92-1.79h.03c1.28-1.8,3.35-2.96,5.71-2.96h3.67c-2.06-2.33-5.05-3.85-8.4-3.85-6.2,0-11.23,5.03-11.23,11.24s5.02,11.23,11.23,11.23c3.37,0,6.34-1.51,8.4-3.85h-3.67c-2.36,0-4.45-1.16-5.73-2.95Z"/><path class="cls-44" d="M888.76,482.42h-.03c-.39-.55-.69-1.16-.92-1.8-.04-.1-.07-.19-.1-.3-.03-.08-.02-.17-.04-.25h-.03c-.16-.57-.26-1.16-.26-1.78v-.6c0-.61.1-1.2.25-1.77h.03c.02-.1.02-.18.04-.26.04-.11.07-.21.1-.3.23-.65.53-1.27.92-1.8h.03c1.28-1.79,3.35-2.98,5.71-2.98h3.67c-2.06-2.32-5.05-3.83-8.4-3.83-6.2,0-11.23,5.03-11.23,11.24s5.02,11.23,11.23,11.23c3.35,0,6.34-1.5,8.4-3.83h-3.67c-2.36,0-4.43-1.17-5.71-2.95Z"/><path class="cls-44" d="M888.76,530.3h-.03c-.39-.55-.69-1.16-.92-1.8-.04-.1-.07-.19-.1-.29-.02-.1-.02-.18-.04-.26h-.03c-.16-.57-.26-1.16-.26-1.79v-.58c0-.61.1-1.22.25-1.79h.03c.02-.07.02-.16.04-.25.04-.11.07-.21.1-.29.23-.65.53-1.26.92-1.8h.03c1.28-1.78,3.35-2.96,5.71-2.96h3.67c-2.06-2.34-5.03-3.85-8.4-3.85-6.2,0-11.23,5.03-11.23,11.25s5.02,11.22,11.23,11.22c3.35,0,6.33-1.5,8.4-3.83h-3.67c-2.36,0-4.43-1.17-5.71-2.95Z"/><path class="cls-44" d="M888.72,578.18v-.02c-.39-.54-.69-1.14-.92-1.78-.04-.11-.07-.21-.1-.32-.02-.07-.02-.17-.04-.25h-.03c-.16-.57-.26-1.17-.26-1.78v-.6c0-.61.1-1.21.25-1.77h.03c.02-.1.02-.18.04-.26.04-.1.07-.2.1-.31.23-.64.53-1.25.92-1.79h.03c1.28-1.78,3.35-2.96,5.71-2.96h3.67c-2.06-2.33-5.03-3.84-8.4-3.84-6.2,0-11.23,5.02-11.23,11.23s5.02,11.22,11.23,11.22c3.35,0,6.34-1.5,8.4-3.84h-3.67c-2.36,0-4.45-1.16-5.74-2.94Z"/><path class="cls-44" d="M888.76,626.07h-.03c-.39-.54-.69-1.16-.92-1.81-.04-.09-.07-.19-.11-.3-.02-.08-.02-.17-.04-.25h-.03c-.16-.57-.26-1.15-.26-1.77v-.6c0-.62.1-1.21.25-1.78h.03c.02-.08.02-.16.04-.25.04-.12.07-.21.1-.3.23-.64.53-1.25.92-1.79h.03c1.28-1.78,3.35-2.96,5.71-2.96h3.67c-2.06-2.34-5.05-3.84-8.4-3.84-6.2,0-11.23,5.02-11.23,11.23s5.02,11.24,11.23,11.24c3.35,0,6.34-1.51,8.4-3.86h-3.67c-2.35,0-4.43-1.16-5.71-2.94Z"/><path class="cls-44" d="M888.76,673.93h-.03c-.39-.53-.69-1.15-.92-1.79-.04-.09-.07-.19-.11-.3-.02-.09-.02-.17-.04-.25h-.03c-.16-.58-.26-1.15-.26-1.78v-.6c0-.61.1-1.2.25-1.76h.03c.02-.1.02-.18.04-.26.04-.12.07-.21.11-.31.22-.64.53-1.25.92-1.79h0c1.29-1.8,3.38-2.98,5.74-2.98h3.67c-2.06-2.32-5.03-3.84-8.4-3.84-6.2,0-11.23,5.03-11.23,11.23s5.02,11.23,11.23,11.23c3.35,0,6.34-1.48,8.4-3.82h-3.67c-2.36,0-4.43-1.18-5.71-2.98Z"/><path class="cls-44" d="M888.76,721.84h-.03c-.39-.54-.69-1.16-.92-1.8-.04-.11-.07-.21-.11-.31-.03-.1-.02-.18-.04-.26h-.03c-.16-.57-.26-1.16-.26-1.78v-.6c0-.61.1-1.2.25-1.76h.03c.02-.09.02-.19.04-.27.04-.11.07-.21.1-.29.23-.65.53-1.27.92-1.81h.03c1.28-1.77,3.35-2.96,5.71-2.96h3.67c-2.06-2.33-5.05-3.85-8.4-3.85-6.2,0-11.23,5.04-11.23,11.25s5.02,11.23,11.23,11.23c3.35,0,6.33-1.51,8.4-3.85h-3.67c-2.35,0-4.43-1.17-5.71-2.94Z"/><path class="cls-44" d="M888.72,769.71h0c-.39-.54-.69-1.15-.92-1.79-.04-.11-.07-.2-.1-.31-.02-.08-.02-.17-.04-.25h-.03c-.16-.57-.26-1.17-.26-1.78v-.6c0-.61.1-1.2.25-1.77h.03c.02-.08.02-.18.04-.26.04-.09.07-.19.1-.3.23-.63.53-1.25.92-1.79h.03c1.28-1.78,3.35-2.96,5.71-2.96h3.67c-2.06-2.34-5.05-3.83-8.4-3.83-6.2,0-11.23,5.02-11.23,11.23s5.02,11.22,11.23,11.22c3.35,0,6.33-1.49,8.4-3.83h-3.67c-2.36,0-4.45-1.17-5.74-2.95Z"/><path class="cls-44" d="M888.76,817.6h-.03c-.39-.54-.69-1.15-.92-1.8-.04-.1-.07-.2-.1-.29-.02-.09-.02-.18-.04-.26h-.03c-.16-.57-.26-1.16-.26-1.78v-.59c0-.62.1-1.22.25-1.79h0c.03-.08.05-.17.07-.25.04-.1.07-.2.1-.31.23-.64.53-1.25.92-1.79h.03c1.28-1.78,3.35-2.96,5.71-2.96h3.67c-2.06-2.33-5.03-3.84-8.4-3.84-6.2,0-11.23,5.02-11.23,11.23s5.02,11.24,11.23,11.24c3.35,0,6.34-1.5,8.4-3.86h-3.67c-2.36,0-4.43-1.16-5.71-2.94Z"/><path class="cls-44" d="M888.72,865.48c-.39-.54-.69-1.15-.92-1.81-.04-.09-.07-.19-.1-.29-.02-.08-.02-.18-.04-.26h-.03c-.16-.56-.26-1.15-.26-1.77v-.6c0-.62.1-1.2.25-1.77h.03c.02-.09.02-.18.04-.26.04-.09.07-.21.1-.3.23-.64.53-1.25.92-1.79h.03c1.28-1.78,3.35-2.96,5.71-2.96h3.67c-2.06-2.33-5.03-3.84-8.4-3.84-6.2,0-11.23,5.02-11.23,11.23s5.02,11.24,11.23,11.24c3.35,0,6.34-1.51,8.4-3.84h-3.67c-2.36,0-4.45-1.18-5.74-2.96Z"/><path class="cls-44" d="M888.76,913.36h-.03c-.39-.56-.69-1.16-.92-1.79-.04-.11-.07-.21-.1-.31-.02-.08-.02-.18-.04-.26h-.03c-.16-.57-.26-1.15-.26-1.78v-.58c0-.62.1-1.21.25-1.79h.03c.02-.07.02-.16.04-.25.04-.1.07-.19.1-.29.23-.65.53-1.26.92-1.8h.03c1.28-1.79,3.35-2.96,5.71-2.96h3.67c-2.07-2.33-5.05-3.84-8.4-3.84-6.2,0-11.23,5.01-11.23,11.23s5.02,11.23,11.23,11.23c3.35,0,6.34-1.51,8.4-3.83h-3.67c-2.36,0-4.43-1.18-5.71-2.96Z"/><path class="cls-44" d="M888.76,961.27h-.03c-.39-.56-.69-1.17-.92-1.81-.04-.11-.07-.21-.1-.3-.03-.08-.02-.18-.04-.27h-.03c-.16-.57-.26-1.15-.26-1.78v-.58c0-.63.1-1.21.25-1.78h.03c.02-.09.02-.19.04-.25.04-.11.07-.21.11-.31.22-.64.53-1.26.92-1.8h.03c1.28-1.77,3.35-2.96,5.71-2.96h3.67c-2.06-2.33-5.03-3.83-8.4-3.83-6.2,0-11.23,5.03-11.23,11.23s5.02,11.23,11.23,11.23c3.35,0,6.33-1.5,8.4-3.83h-3.67c-2.36,0-4.43-1.18-5.71-2.94Z"/><path class="cls-44" d="M888.76,1009.13h-.03c-.39-.55-.69-1.15-.92-1.81-.04-.09-.07-.19-.1-.29-.03-.09-.02-.18-.04-.27h-.03c-.16-.57-.26-1.15-.26-1.78v-.58c0-.63.1-1.21.25-1.8h.03c.02-.07.02-.17.04-.25.04-.1.07-.2.1-.31.23-.63.53-1.25.92-1.79h.03c1.28-1.78,3.35-2.96,5.71-2.96h3.67c-2.06-2.34-5.05-3.83-8.4-3.83-6.2,0-11.23,5.01-11.23,11.23s5.02,11.23,11.23,11.23c3.35,0,6.34-1.5,8.4-3.85h-3.67c-2.36,0-4.43-1.17-5.71-2.95Z"/><path class="cls-44" d="M888.76,1057.01h-.03c-.39-.54-.69-1.15-.92-1.8-.04-.1-.07-.19-.1-.29-.03-.09-.02-.18-.04-.26h-.03c-.16-.56-.26-1.15-.26-1.78v-.59c0-.62.1-1.2.25-1.77h.03c.02-.09.02-.17.04-.27.04-.1.07-.21.11-.31.22-.64.53-1.25.92-1.79h0c1.29-1.78,3.38-2.96,5.74-2.96h3.67c-2.06-2.33-5.03-3.84-8.4-3.84-6.2,0-11.23,5.02-11.23,11.23s5.02,11.24,11.23,11.24c3.35,0,6.34-1.5,8.4-3.83h-3.67c-2.35,0-4.43-1.17-5.71-2.97Z"/><path class="cls-21" d="M951.21,131.56c6.2,0,11.23,5.03,11.23,11.23s-5.03,11.24-11.23,11.24c-3.36,0-6.33-1.51-8.4-3.84h-16.43v33.11h16.43c2.07-2.35,5.04-3.85,8.4-3.85,6.2,0,11.23,5.03,11.23,11.23s-5.03,11.23-11.23,11.23c-3.36,0-6.33-1.5-8.4-3.83h-16.43v33.11h16.43c2.07-2.33,5.04-3.85,8.4-3.85,6.2,0,11.23,5.03,11.23,11.25s-5.03,11.23-11.23,11.23c-3.36,0-6.33-1.51-8.4-3.85h-16.43v33.09h16.43c2.07-2.34,5.04-3.84,8.4-3.84,6.2,0,11.23,5.03,11.23,11.24s-5.03,11.23-11.23,11.23c-3.36,0-6.33-1.5-8.4-3.83h-16.43v33.1h16.43c2.07-2.33,5.04-3.85,8.4-3.85,6.2,0,11.23,5.03,11.23,11.23s-5.03,11.24-11.23,11.24c-3.36,0-6.33-1.5-8.4-3.84h-16.43v33.11h16.43c2.07-2.34,5.04-3.83,8.4-3.83,6.2,0,11.23,5.02,11.23,11.22s-5.03,11.24-11.23,11.24c-3.36,0-6.33-1.51-8.4-3.84h-16.43v33.11h16.43c2.07-2.33,5.04-3.85,8.4-3.85,6.2,0,11.23,5.03,11.23,11.24s-5.03,11.23-11.23,11.23c-3.36,0-6.33-1.51-8.4-3.85h-16.43v33.09h16.43c2.07-2.32,5.04-3.83,8.4-3.83,6.2,0,11.23,5.03,11.23,11.24s-5.03,11.23-11.23,11.23c-3.36,0-6.33-1.5-8.4-3.83h-16.43v33.11h16.43c2.07-2.34,5.04-3.85,8.4-3.85,6.2,0,11.23,5.03,11.23,11.25s-5.03,11.22-11.23,11.22c-3.36,0-6.33-1.5-8.39-3.83h-16.44v33.1h16.43c2.07-2.33,5.04-3.84,8.4-3.84,6.2,0,11.23,5.02,11.23,11.23s-5.03,11.22-11.23,11.22c-3.36,0-6.33-1.5-8.4-3.84h-16.43v33.11h16.43c2.07-2.34,5.04-3.84,8.4-3.84,6.2,0,11.23,5.02,11.23,11.23s-5.03,11.24-11.23,11.24c-3.36,0-6.33-1.51-8.4-3.86h-16.43v33.1h16.43c2.07-2.32,5.04-3.84,8.4-3.84,6.2,0,11.23,5.03,11.23,11.23s-5.03,11.23-11.23,11.23c-3.36,0-6.33-1.48-8.4-3.82h-16.43v33.09h16.43c2.07-2.33,5.04-3.85,8.4-3.85,6.2,0,11.23,5.04,11.23,11.25s-5.03,11.23-11.23,11.23c-3.36,0-6.33-1.51-8.39-3.85h-16.44v33.11h16.43c2.07-2.34,5.04-3.83,8.4-3.83,6.2,0,11.23,5.02,11.23,11.23s-5.03,11.22-11.23,11.22c-3.36,0-6.33-1.49-8.39-3.83h-16.44v33.1h16.43c2.07-2.33,5.04-3.84,8.4-3.84,6.2,0,11.23,5.02,11.23,11.23s-5.03,11.24-11.23,11.24c-3.36,0-6.33-1.5-8.4-3.86h-16.43v33.11h16.43c2.07-2.33,5.04-3.84,8.4-3.84,6.2,0,11.23,5.02,11.23,11.23s-5.03,11.24-11.23,11.24c-3.36,0-6.33-1.51-8.4-3.84h-16.43v33.09h16.44c2.06-2.33,5.03-3.84,8.39-3.84,6.2,0,11.23,5.01,11.23,11.23s-5.03,11.23-11.23,11.23c-3.36,0-6.33-1.51-8.4-3.83h-16.43v33.09h16.43c2.07-2.33,5.04-3.83,8.4-3.83,6.2,0,11.23,5.03,11.23,11.23s-5.03,11.23-11.23,11.23c-3.36,0-6.33-1.5-8.39-3.83h-16.44v33.09h16.43c2.07-2.34,5.04-3.83,8.4-3.83,6.2,0,11.23,5.01,11.23,11.23s-5.03,11.23-11.23,11.23c-3.36,0-6.33-1.5-8.4-3.85h-16.43v33.1h16.43c2.07-2.33,5.04-3.84,8.4-3.84,6.2,0,11.23,5.02,11.23,11.23s-5.03,11.24-11.23,11.24c-3.36,0-6.33-1.5-8.4-3.83h-16.43v33.09h16.43c2.07-2.33,5.04-3.85,8.4-3.85,6.2,0,11.23,5.03,11.23,11.24s-5.03,11.24-11.23,11.24c-3.36,0-6.33-1.52-8.4-3.84h-16.43v42.2h789.73c3.92,0,7.09-3.18,7.09-7.09V114.42c0-3.92-3.17-7.09-7.09-7.09h-789.73v28.08h16.44c2.06-2.33,5.03-3.85,8.39-3.85ZM985.49,200.14h671.51v3.54h-671.51v-3.54ZM985.49,254.52h671.51v3.54h-671.51v-3.54ZM985.49,308.89h671.51v3.54h-671.51v-3.54ZM985.49,363.27h671.51v3.54h-671.51v-3.54ZM985.49,417.65h671.51v3.54h-671.51v-3.54ZM985.49,472.02h671.51v3.54h-671.51v-3.54ZM985.49,526.41h671.51v3.53h-671.51v-3.53ZM985.49,580.77h671.51v3.55h-671.51v-3.55ZM985.49,635.14h671.51v3.55h-671.51v-3.55ZM985.49,689.53h671.51v3.56h-671.51v-3.56ZM985.49,743.91h671.51v3.56h-671.51v-3.56ZM985.49,798.28h671.51v3.54h-671.51v-3.54ZM985.49,852.67h671.51v3.54h-671.51v-3.54ZM985.49,907.04h671.51v3.54h-671.51v-3.54ZM985.49,961.42h671.51v3.53h-671.51v-3.53ZM985.49,1015.79h671.51v3.55h-671.51v-3.55ZM985.49,1070.18h671.51v3.54h-671.51v-3.54Z"/><rect class="cls-21" x="985.49" y="200.14" width="671.51" height="3.54"/><rect class="cls-21" x="985.49" y="254.52" width="671.51" height="3.54"/><rect class="cls-21" x="985.49" y="308.89" width="671.51" height="3.54"/><rect class="cls-21" x="985.49" y="363.27" width="671.51" height="3.54"/><rect class="cls-21" x="985.49" y="417.65" width="671.51" height="3.54"/><rect class="cls-21" x="985.49" y="472.02" width="671.51" height="3.54"/><rect class="cls-21" x="985.49" y="526.41" width="671.51" height="3.53"/><rect class="cls-21" x="985.49" y="580.77" width="671.51" height="3.55"/><rect class="cls-21" x="985.49" y="635.14" width="671.51" height="3.55"/><rect class="cls-21" x="985.49" y="689.53" width="671.51" height="3.56"/><rect class="cls-21" x="985.49" y="743.91" width="671.51" height="3.56"/><rect class="cls-21" x="985.49" y="798.28" width="671.51" height="3.54"/><rect class="cls-21" x="985.49" y="852.67" width="671.51" height="3.54"/><rect class="cls-21" x="985.49" y="907.04" width="671.51" height="3.54"/><rect class="cls-21" x="985.49" y="961.42" width="671.51" height="3.53"/><rect class="cls-21" x="985.49" y="1015.79" width="671.51" height="3.55"/><rect class="cls-21" x="985.49" y="1070.18" width="671.51" height="3.54"/><path class="cls-44" d="M953.42,138.37c.38.54.69,1.14.92,1.78.04.09.07.2.1.31.02.09.06.17.08.25h0s0,.02,0,.02c.14.57.24,1.15.24,1.76v.58c0,.63-.11,1.23-.25,1.78v.02c-.03.09-.06.17-.08.25-.03.1-.06.2-.1.3-.23.64-.53,1.26-.93,1.81h-.03c-1.28,1.76-3.34,2.94-5.71,2.94h-4.86c2.07,2.33,5.04,3.84,8.4,3.84,6.2,0,11.23-5.02,11.23-11.24s-5.03-11.23-11.23-11.23c-3.36,0-6.33,1.51-8.39,3.85h4.85c2.37,0,4.46,1.17,5.75,2.95h0Z"/><path class="cls-44" d="M953.42,186.25h0c.38.55.69,1.15.92,1.78.04.12.07.23.1.32.02.09.06.17.08.25h0s0,.01,0,.01c.14.56.24,1.15.24,1.77v.6c0,.61-.11,1.2-.25,1.78-.03.09-.06.17-.08.25-.03.1-.06.2-.1.3-.22.64-.53,1.25-.93,1.79h-.03c-1.28,1.78-3.34,2.96-5.71,2.96h-4.86c2.07,2.33,5.04,3.83,8.4,3.83,6.2,0,11.23-5.01,11.23-11.23s-5.03-11.23-11.23-11.23c-3.36,0-6.33,1.5-8.4,3.85h4.86c2.37,0,4.46,1.16,5.75,2.95Z"/><path class="cls-44" d="M953.42,234.12c.38.56.69,1.16.92,1.8.04.11.07.22.1.32.02.08.06.17.08.25h0c.14.57.24,1.16.24,1.77v.6c0,.63-.11,1.2-.25,1.76h-.04c-.03.1-.02.18-.04.27-.03.11-.06.21-.1.3-.22.65-.53,1.26-.93,1.8h-.03c-1.28,1.78-3.34,2.95-5.71,2.95h-4.86c2.07,2.33,5.04,3.85,8.4,3.85,6.2,0,11.23-5.03,11.23-11.23s-5.03-11.25-11.23-11.25c-3.36,0-6.33,1.52-8.4,3.85h4.86c2.37,0,4.46,1.16,5.75,2.94Z"/><path class="cls-44" d="M953.42,282v.02c.38.53.69,1.14.92,1.78.04.11.07.22.1.32.02.09.06.17.08.25h0s0,.02,0,.02c.14.58.24,1.15.24,1.77v.59c0,.61-.11,1.2-.25,1.78h0c-.03.09-.06.16-.08.25-.03.1-.06.21-.1.3-.22.64-.53,1.27-.93,1.81h-.03c-1.28,1.77-3.34,2.95-5.71,2.95h-4.86c2.07,2.33,5.04,3.83,8.4,3.83,6.2,0,11.23-5.03,11.23-11.23s-5.03-11.24-11.23-11.24c-3.36,0-6.33,1.5-8.4,3.84h4.86c2.37,0,4.46,1.18,5.75,2.96Z"/><path class="cls-44" d="M953.42,329.9h0c.38.54.7,1.13.92,1.78.04.11.07.2.1.32.02.09.06.16.08.25v.02c.14.57.25,1.15.25,1.77v.58c0,.63-.11,1.23-.25,1.8h-.05c-.02.08-.02.16-.04.25-.03.11-.06.21-.1.3-.22.65-.53,1.25-.93,1.81-1.28,1.78-3.36,2.94-5.73,2.94h-4.86c2.07,2.34,5.04,3.84,8.4,3.84,6.2,0,11.23-5.02,11.23-11.24s-5.03-11.23-11.23-11.23c-3.36,0-6.33,1.51-8.4,3.85h4.86c2.37,0,4.46,1.17,5.75,2.97Z"/><path class="cls-44" d="M953.37,377.78h.04c.38.55.69,1.14.92,1.79.04.1.07.21.1.32.02.07.06.16.08.25h0c.14.57.25,1.15.25,1.76v.6c0,.61-.11,1.19-.25,1.77h0c-.03.09-.06.17-.08.25-.03.1-.06.21-.1.32-.22.63-.53,1.24-.93,1.78h-.03c-1.28,1.78-3.34,2.96-5.71,2.96h-4.86c2.07,2.33,5.04,3.84,8.4,3.84,6.2,0,11.23-5.02,11.23-11.24s-5.03-11.22-11.23-11.22c-3.36,0-6.33,1.49-8.4,3.83h4.86c2.37,0,4.43,1.17,5.71,2.96Z"/><path class="cls-44" d="M953.37,425.67h.04c.38.54.69,1.14.92,1.77.04.12.07.23.1.32.02.09.06.17.08.25h0v.02c.14.57.25,1.15.25,1.76v.58c0,.63-.11,1.21-.25,1.79h0c-.03.09-.06.17-.08.25-.03.1-.06.2-.1.3-.22.65-.53,1.25-.93,1.8h0c-1.28,1.79-3.36,2.95-5.73,2.95h-4.86c2.07,2.33,5.04,3.85,8.4,3.85,6.2,0,11.23-5.03,11.23-11.23s-5.03-11.24-11.23-11.24c-3.36,0-6.33,1.51-8.4,3.85h4.86c2.37,0,4.43,1.16,5.71,2.96Z"/><path class="cls-44" d="M953.42,473.55c.38.53.69,1.14.92,1.79.04.1.07.2.1.31.02.08.06.17.08.26h0c.14.57.24,1.15.24,1.77v.6c0,.61-.11,1.2-.25,1.78h0c-.03.09-.06.17-.08.25-.03.11-.06.21-.1.3-.22.64-.53,1.25-.93,1.8h-.03c-1.28,1.78-3.34,2.95-5.71,2.95h-4.86c2.07,2.33,5.04,3.83,8.4,3.83,6.2,0,11.23-5.03,11.23-11.23s-5.03-11.24-11.23-11.24c-3.36,0-6.33,1.51-8.4,3.83h4.86c2.37,0,4.46,1.18,5.75,2.98Z"/><path class="cls-44" d="M953.37,521.43h.04c.38.54.69,1.15.92,1.78.04.11.07.21.1.32.02.09.06.17.08.25h0s0,.02,0,.02c.14.58.24,1.16.24,1.77v.58c0,.62-.11,1.23-.25,1.79h0c-.03.09-.06.17-.08.26-.03.1-.06.19-.1.29-.22.65-.53,1.25-.93,1.8h-.03c-1.28,1.78-3.34,2.95-5.71,2.95h-4.85c2.06,2.33,5.03,3.83,8.39,3.83,6.2,0,11.23-5.02,11.23-11.22s-5.03-11.25-11.23-11.25c-3.36,0-6.33,1.51-8.4,3.85h4.86c2.37,0,4.43,1.18,5.71,2.96Z"/><path class="cls-44" d="M953.37,569.32h.04c.38.54.69,1.15.92,1.79.04.1.07.21.1.32.02.07.06.14.08.24h0c.14.58.24,1.16.24,1.77v.6c0,.61-.11,1.2-.25,1.78h0c-.03.08-.06.17-.08.25-.03.11-.06.21-.1.32-.23.62-.53,1.25-.93,1.79h-.03c-1.28,1.78-3.34,2.94-5.71,2.94h-4.86c2.07,2.34,5.04,3.84,8.4,3.84,6.2,0,11.23-5.02,11.23-11.22s-5.03-11.23-11.23-11.23c-3.36,0-6.33,1.5-8.4,3.84h4.86c2.37,0,4.43,1.18,5.71,2.96Z"/><path class="cls-44" d="M953.37,617.2h.04c.38.54.69,1.13.92,1.79.04.1.07.21.1.3.02.09.06.17.08.25h0s0,.02,0,.02c.14.57.24,1.15.24,1.77v.6c0,.62-.11,1.2-.25,1.77h0c-.03.09-.06.17-.08.25-.03.11-.06.21-.1.32-.23.63-.53,1.25-.93,1.79h-.03c-1.28,1.78-3.34,2.94-5.71,2.94h-4.86c2.07,2.35,5.04,3.86,8.4,3.86,6.2,0,11.23-5.03,11.23-11.24s-5.03-11.23-11.23-11.23c-3.36,0-6.33,1.5-8.4,3.84h4.86c2.37,0,4.43,1.18,5.71,2.96Z"/><path class="cls-44" d="M953.42,665.09h0c.38.54.69,1.15.92,1.79.04.1.07.21.1.31.02.09.06.16.08.26h0c.14.57.25,1.15.25,1.76v.6c0,.63-.11,1.2-.25,1.78-.03.09-.06.17-.08.25-.03.1-.06.21-.1.32-.23.62-.53,1.24-.93,1.77h-.03c-1.28,1.8-3.34,2.98-5.71,2.98h-4.86c2.07,2.34,5.04,3.82,8.4,3.82,6.2,0,11.23-5.03,11.23-11.23s-5.03-11.23-11.23-11.23c-3.36,0-6.33,1.51-8.4,3.84h4.86c2.37,0,4.46,1.17,5.75,2.98Z"/><path class="cls-44" d="M953.42,712.96c.38.54.69,1.14.92,1.8.04.1.07.19.1.3.02.08.06.18.08.27h0c.14.57.24,1.15.24,1.76v.6c0,.61-.11,1.21-.25,1.78h-.04c-.02.07-.02.17-.04.25-.03.11-.06.21-.1.32-.23.64-.53,1.26-.93,1.8h-.03c-1.28,1.77-3.34,2.94-5.71,2.94h-4.85c2.06,2.33,5.03,3.85,8.39,3.85,6.2,0,11.23-5.03,11.23-11.23s-5.03-11.25-11.23-11.25c-3.36,0-6.33,1.52-8.4,3.85h4.86c2.37,0,4.46,1.18,5.75,2.96Z"/><path class="cls-44" d="M953.42,760.85h0c.38.54.69,1.16.92,1.79.04.11.07.21.1.32.02.07.06.15.08.24h0c.14.58.24,1.16.24,1.77v.6c0,.61-.11,1.21-.25,1.78h0c-.03.09-.06.17-.08.25-.03.11-.06.2-.1.31-.22.64-.53,1.25-.93,1.79h-.03c-1.28,1.78-3.34,2.95-5.71,2.95h-4.85c2.06,2.34,5.03,3.83,8.39,3.83,6.2,0,11.23-5.02,11.23-11.22s-5.03-11.23-11.23-11.23c-3.36,0-6.33,1.49-8.4,3.83h4.86c2.37,0,4.46,1.18,5.75,2.96Z"/><path class="cls-44" d="M953.42,808.73h0c.38.54.69,1.15.92,1.79.04.1.07.21.1.31.02.08.06.17.08.25h0s0,.01,0,.03c.14.56.24,1.14.24,1.76v.59c0,.62-.11,1.21-.25,1.78h0c-.03.08-.06.17-.08.25-.03.11-.06.2-.1.3-.22.65-.53,1.26-.93,1.8h-.03c-1.28,1.78-3.34,2.94-5.71,2.94h-4.86c2.07,2.35,5.04,3.86,8.4,3.86,6.2,0,11.23-5.03,11.23-11.24s-5.03-11.23-11.23-11.23c-3.36,0-6.33,1.5-8.4,3.84h4.86c2.37,0,4.46,1.18,5.75,2.96Z"/><path class="cls-44" d="M953.37,856.62h.04c.38.54.69,1.15.92,1.79.04.1.07.21.1.31.02.08.06.16.08.25h0c.14.57.24,1.15.24,1.77v.6c0,.61-.11,1.2-.25,1.77h0c-.03.09-.06.17-.08.26-.03.1-.06.2-.1.29-.23.66-.53,1.27-.93,1.81h-.03c-1.28,1.78-3.34,2.96-5.71,2.96h-4.86c2.07,2.33,5.04,3.84,8.4,3.84,6.2,0,11.23-5.03,11.23-11.24s-5.03-11.23-11.23-11.23c-3.36,0-6.33,1.5-8.4,3.84h4.86c2.37,0,4.43,1.18,5.71,2.96Z"/><path class="cls-44" d="M953.37,904.5h.04c.38.54.69,1.15.92,1.79.04.11.07.2.1.31.02.09.06.17.08.24h0s0,.02,0,.03c.14.55.24,1.14.24,1.76v.58c0,.63-.11,1.21-.25,1.78h0c-.03.1-.06.16-.08.26-.03.1-.06.2-.1.31-.22.64-.53,1.23-.93,1.79h-.03c-1.28,1.78-3.34,2.96-5.71,2.96h-4.86c2.07,2.32,5.04,3.83,8.4,3.83,6.2,0,11.23-5.02,11.23-11.23s-5.03-11.23-11.23-11.23c-3.36,0-6.33,1.5-8.39,3.84h4.85c2.37,0,4.43,1.17,5.71,2.96Z"/><path class="cls-44" d="M953.42,952.38h0c.38.54.69,1.16.92,1.79.04.11.07.22.1.33.02.08.06.17.08.25h0c.14.57.24,1.15.24,1.78v.58c0,.63-.11,1.21-.25,1.78h-.04c-.03.09-.02.19-.04.27-.03.1-.06.2-.1.3-.22.64-.53,1.26-.93,1.81h-.03c-1.28,1.76-3.34,2.94-5.71,2.94h-4.85c2.06,2.33,5.03,3.83,8.39,3.83,6.2,0,11.23-5.03,11.23-11.23s-5.03-11.23-11.23-11.23c-3.36,0-6.33,1.5-8.4,3.83h4.86c2.37,0,4.46,1.18,5.75,2.96Z"/><path class="cls-44" d="M953.42,1000.26h0c.38.54.69,1.14.92,1.79.04.11.07.21.1.31.02.1.06.18.08.25h0s0,.01,0,.03c.14.56.24,1.14.24,1.77v.58c0,.62-.11,1.21-.25,1.78h-.04c-.03.09-.02.18-.04.27-.03.1-.06.2-.1.3-.22.64-.53,1.25-.93,1.79h-.03c-1.28,1.78-3.34,2.95-5.71,2.95h-4.86c2.07,2.35,5.04,3.85,8.4,3.85,6.2,0,11.23-5.03,11.23-11.23s-5.03-11.23-11.23-11.23c-3.36,0-6.33,1.49-8.4,3.83h4.86c2.37,0,4.46,1.16,5.75,2.96Z"/><path class="cls-44" d="M953.42,1048.15h0c.38.54.69,1.15.92,1.78.04.12.07.23.1.34.02.08.06.15.08.25h0c.14.58.24,1.15.24,1.77v.59c0,.62-.11,1.22-.25,1.78h-.04c-.03.08-.02.18-.04.26-.03.11-.06.19-.1.29-.22.65-.53,1.26-.93,1.8h-.03c-1.28,1.79-3.34,2.97-5.71,2.97h-4.86c2.07,2.33,5.04,3.83,8.4,3.83,6.2,0,11.23-5.03,11.23-11.24s-5.03-11.23-11.23-11.23c-3.36,0-6.33,1.5-8.4,3.84h4.86c2.37,0,4.46,1.18,5.75,2.96Z"/><path class="cls-32" d="M894.47,135.41c-2.36,0-4.45,1.17-5.74,2.95h64.69c-1.29-1.78-3.38-2.95-5.75-2.95h-53.2Z"/><path class="cls-32" d="M942.81,150.18h4.86c2.37,0,4.43-1.18,5.71-2.94h-64.65c1.29,1.78,3.38,2.94,5.74,2.94h48.35Z"/><path class="cls-32" d="M954.43,145.13c.02-.08.06-.17.08-.25h-.05c-.02.07-.02.17-.04.25Z"/><path class="cls-32" d="M954.43,140.47c.02.09.02.17.04.25h.04c-.03-.09-.06-.17-.08-.25Z"/><path class="cls-17" d="M887.7,140.47c-.03.09-.02.17-.04.25h66.81c-.02-.09-.02-.17-.04-.25-.03-.11-.07-.22-.1-.31-.22-.64-.53-1.24-.92-1.78h0s-64.69-.01-64.69-.01c-.39.55-.69,1.15-.92,1.79-.04.09-.07.2-.11.31Z"/><path class="cls-17" d="M954.33,145.43c.04-.11.07-.21.1-.3.02-.08.02-.18.04-.25h-66.81c.02.07.02.17.04.25.04.1.07.2.1.3.23.65.53,1.26.92,1.81h64.68c.4-.56.7-1.17.93-1.81Z"/><path class="cls-9" d="M954.51,144.87v-.02c.14-.55.25-1.15.25-1.78v-.58c0-.61-.11-1.2-.24-1.76,0,0,0-.02,0-.02h-66.88c-.15.57-.25,1.16-.25,1.78v.58c0,.63.1,1.23.26,1.79h66.88Z"/><path class="cls-32" d="M887.66,192.76c.02.09.02.17.04.25-.03-.09-.02-.17-.04-.25h0Z"/><path class="cls-32" d="M888.72,186.25h64.69c-1.29-1.79-3.38-2.95-5.75-2.95h-53.2c-2.36,0-4.45,1.16-5.74,2.95Z"/><path class="cls-32" d="M942.81,198.07h4.86c2.37,0,4.43-1.18,5.71-2.96h-64.62c1.29,1.78,3.35,2.96,5.71,2.96h48.35Z"/><path class="cls-32" d="M954.43,193.01c.02-.09.06-.17.08-.25h-.04c-.03.09-.02.17-.04.25Z"/><path class="cls-32" d="M954.51,188.6c-.03-.09-.06-.17-.08-.25.02.09.02.17.04.25h.04Z"/><path class="cls-17" d="M954.43,188.35c-.03-.1-.06-.2-.1-.32-.22-.63-.53-1.23-.92-1.78h-64.69c-.39.55-.69,1.15-.92,1.8-.04.1-.07.21-.11.29-.03.1-.02.18-.04.26h66.81c-.02-.09-.02-.17-.04-.25Z"/><path class="cls-17" d="M954.33,193.31c.04-.1.07-.21.1-.3.02-.09.02-.17.04-.25h-66.81c.02.09.02.17.04.25.04.11.07.2.1.3.23.64.53,1.25.92,1.79h64.68c.4-.54.71-1.15.93-1.79Z"/><path class="cls-9" d="M954.47,192.76h.04c.14-.58.25-1.16.25-1.78v-.6c0-.61-.11-1.21-.24-1.77,0,0,0-.01,0-.01h-66.88c-.15.57-.25,1.16-.25,1.78v.6c0,.61.1,1.2.26,1.78h66.84Z"/><path class="cls-32" d="M887.66,240.63c.02.1.02.18.04.27-.03-.09-.02-.17-.04-.27h0Z"/><path class="cls-32" d="M888.76,234.12h64.66c-1.29-1.78-3.38-2.94-5.75-2.94h-53.2c-2.36,0-4.43,1.16-5.71,2.94Z"/><path class="cls-32" d="M942.81,245.95h4.86c2.37,0,4.43-1.17,5.71-2.95h-64.62c1.29,1.78,3.35,2.95,5.71,2.95h48.35Z"/><path class="cls-32" d="M954.51,236.49c-.03-.09-.06-.17-.08-.25.02.08.02.17.04.25h.04Z"/><path class="cls-17" d="M954.43,236.24c-.03-.1-.06-.21-.1-.32-.22-.64-.53-1.24-.92-1.8h-64.69c-.39.56-.69,1.16-.92,1.8-.04.11-.07.22-.11.32-.03.08-.02.17-.04.25h66.81c-.02-.09-.02-.17-.04-.25Z"/><path class="cls-17" d="M954.33,241.2c.04-.1.07-.19.1-.3.02-.09.02-.17.04-.27h-66.81c.02.1.02.18.04.27.04.11.07.21.1.3.23.65.53,1.25.92,1.8h64.68c.4-.54.71-1.15.93-1.8Z"/><path class="cls-9" d="M954.47,240.63h.04c.14-.57.25-1.13.25-1.76v-.6c0-.61-.11-1.21-.24-1.76h0s-.04-.01-.04-.01h-66.84c-.15.57-.25,1.15-.25,1.77v.6c0,.63.1,1.2.26,1.76h66.84Z"/><path class="cls-32" d="M888.76,282h64.66c-1.29-1.78-3.38-2.96-5.75-2.96h-53.2c-2.36,0-4.43,1.18-5.71,2.96Z"/><path class="cls-32" d="M942.81,293.84h4.86c2.37,0,4.43-1.18,5.71-2.95h-64.62c1.29,1.77,3.35,2.95,5.71,2.95h48.35Z"/><path class="cls-32" d="M954.43,288.77c.02-.09.06-.16.08-.25h-.05c-.02.09-.02.16-.04.25Z"/><path class="cls-32" d="M954.51,284.36c-.03-.08-.06-.16-.08-.25.02.09.02.17.04.25h.04Z"/><path class="cls-17" d="M954.43,284.12c-.03-.1-.06-.21-.1-.32-.22-.63-.53-1.25-.92-1.78v-.02h-64.69c-.39.54-.69,1.16-.92,1.79-.04.11-.07.21-.1.32-.03.07-.02.17-.04.25h66.81c-.02-.08-.02-.16-.04-.25Z"/><path class="cls-17" d="M954.33,289.08c.04-.1.07-.21.1-.3.02-.09.02-.16.04-.25h-66.81c.02.09.02.16.04.25.04.1.07.21.1.3.23.64.53,1.25.92,1.81h64.68c.4-.54.71-1.16.93-1.81Z"/><path class="cls-9" d="M954.51,288.53h0c.14-.59.25-1.17.25-1.78v-.59c0-.62-.11-1.2-.24-1.77t0-.02h-66.88c-.15.59-.25,1.16-.25,1.79v.59c0,.61.1,1.2.26,1.78h66.88Z"/><path class="cls-32" d="M887.66,336.41c.02.08.02.16.04.26-.02-.1-.02-.19-.04-.26h0Z"/><path class="cls-32" d="M888.76,329.9h64.66c-1.29-1.79-3.38-2.97-5.75-2.97h-53.2c-2.36,0-4.43,1.18-5.71,2.97Z"/><path class="cls-32" d="M942.81,341.71h4.86c2.37,0,4.46-1.16,5.73-2.94h-64.68c1.29,1.78,3.38,2.94,5.74,2.94h48.35Z"/><path class="cls-32" d="M954.51,332.25c-.03-.09-.06-.16-.08-.25.02.09.02.16.04.25h.04Z"/><path class="cls-17" d="M954.43,336.66c.02-.09.02-.17.04-.25h-66.81c.02.08.02.16.04.26.04.09.07.19.1.29.23.64.53,1.25.92,1.79v.02h64.68c.4-.56.71-1.16.93-1.81.04-.1.07-.2.1-.3Z"/><path class="cls-17" d="M954.43,332c-.03-.12-.06-.21-.1-.32-.22-.64-.53-1.24-.92-1.78h-64.69c-.39.54-.69,1.15-.92,1.78-.04.11-.07.2-.1.3-.03.1-.02.18-.04.26h66.81c-.02-.09-.02-.16-.04-.25Z"/><path class="cls-9" d="M954.47,336.41h.05c.14-.57.25-1.17.25-1.8v-.58c0-.61-.11-1.2-.25-1.77v-.02h-66.88c-.15.57-.25,1.17-.25,1.78v.58c0,.63.1,1.23.26,1.8h66.83Z"/><path class="cls-32" d="M888.76,377.78h64.62c-1.28-1.79-3.34-2.96-5.71-2.96h-53.2c-2.36,0-4.43,1.17-5.71,2.96Z"/><path class="cls-32" d="M942.81,389.6h4.86c2.37,0,4.43-1.17,5.71-2.96h-64.65c1.29,1.79,3.38,2.96,5.74,2.96h48.35Z"/><path class="cls-32" d="M954.51,380.15c-.03-.1-.06-.18-.08-.25.02.07.02.16.04.25h.04Z"/><path class="cls-32" d="M954.43,384.54c.02-.08.06-.17.08-.25h-.05c-.02.09-.02.17-.04.25Z"/><path class="cls-17" d="M954.43,379.9c-.03-.11-.06-.22-.1-.32-.22-.65-.53-1.25-.92-1.79h-64.69c-.39.55-.69,1.14-.92,1.79-.04.1-.07.21-.1.29-.03.1-.02.18-.04.28h66.81c-.02-.1-.02-.18-.04-.25Z"/><path class="cls-17" d="M954.33,384.86c.04-.11.07-.22.1-.32.02-.08.02-.17.04-.25h-66.81c.02.09.02.19.04.25.04.11.07.21.1.3.23.64.53,1.26.92,1.8h64.68c.4-.54.71-1.15.93-1.78Z"/><path class="cls-9" d="M954.51,384.29h0c.14-.58.25-1.16.25-1.77v-.6c0-.61-.11-1.2-.25-1.76h-66.88c-.15.57-.25,1.15-.25,1.76v.6c0,.61.1,1.21.26,1.77h66.88Z"/><path class="cls-32" d="M888.76,425.67h64.62c-1.28-1.8-3.34-2.96-5.71-2.96h-53.2c-2.36,0-4.43,1.16-5.71,2.96Z"/><path class="cls-32" d="M942.81,437.48h4.86c2.37,0,4.46-1.16,5.73-2.95h-64.66c1.29,1.79,3.37,2.95,5.73,2.95h48.35Z"/><path class="cls-32" d="M954.43,432.42c.02-.09.06-.17.08-.25h-.05c-.02.09-.02.17-.04.25Z"/><path class="cls-32" d="M954.51,428.02c-.03-.09-.06-.17-.08-.25.02.09.02.18.04.25h.04Z"/><path class="cls-17" d="M954.33,432.73c.04-.1.07-.21.1-.3.02-.09.02-.17.04-.25h-66.81c.02.09.02.17.04.25.04.11.07.2.1.3.23.65.53,1.25.92,1.8h64.68c.4-.55.71-1.15.93-1.8Z"/><path class="cls-17" d="M954.43,427.77c-.03-.1-.06-.2-.1-.32-.22-.63-.53-1.23-.92-1.77h-64.69c-.39.54-.69,1.14-.92,1.79-.04.1-.07.21-.1.3-.03.09-.02.17-.04.25h66.81c-.02-.07-.02-.17-.04-.25Z"/><path class="cls-9" d="M954.51,432.17h0c.14-.58.25-1.16.25-1.79v-.58c0-.61-.11-1.2-.25-1.76v-.02h-66.88c-.15.57-.25,1.16-.25,1.78v.58c0,.64.1,1.23.26,1.79h66.88Z"/><path class="cls-32" d="M887.66,480.06c.02.09.02.18.04.25-.02-.08-.02-.17-.04-.25h0Z"/><path class="cls-32" d="M888.76,473.55h64.66c-1.29-1.79-3.38-2.98-5.75-2.98h-53.2c-2.36,0-4.43,1.18-5.71,2.98Z"/><path class="cls-32" d="M942.81,485.37h4.86c2.37,0,4.43-1.17,5.71-2.95h-64.62c1.29,1.78,3.35,2.95,5.71,2.95h48.35Z"/><path class="cls-32" d="M954.43,480.31c.02-.09.06-.17.08-.25h-.05c-.02.09-.02.18-.04.25Z"/><path class="cls-32" d="M954.51,475.91c-.03-.1-.06-.18-.08-.26.02.08.02.17.04.26h.04Z"/><path class="cls-17" d="M954.43,475.65c-.03-.11-.06-.21-.1-.31-.22-.64-.53-1.26-.92-1.79h-64.69c-.39.53-.69,1.14-.92,1.8-.04.09-.07.19-.1.3-.03.08-.02.17-.04.26h66.81c-.02-.1-.02-.18-.04-.26Z"/><path class="cls-17" d="M954.33,480.61c.04-.1.07-.19.1-.3.02-.08.02-.17.04-.25h-66.81c.02.09.02.18.04.25.04.11.07.21.1.3.23.64.53,1.25.92,1.8h64.68c.4-.55.71-1.16.93-1.8Z"/><path class="cls-9" d="M954.47,480.06h.05c.14-.58.25-1.16.25-1.78v-.6c0-.61-.11-1.2-.24-1.77h-66.89c-.15.57-.25,1.15-.25,1.77v.6c0,.61.1,1.21.26,1.78h66.83Z"/><path class="cls-32" d="M887.7,523.53c-.03.09-.02.18-.04.25h0c.02-.07.02-.16.04-.25Z"/><path class="cls-32" d="M888.76,521.43h64.62c-1.28-1.78-3.34-2.96-5.71-2.96h-53.2c-2.36,0-4.43,1.18-5.71,2.96Z"/><path class="cls-32" d="M942.82,533.25h4.85c2.37,0,4.43-1.17,5.71-2.95h-64.62c1.28,1.78,3.35,2.95,5.71,2.95h48.36Z"/><path class="cls-32" d="M954.43,528.2c.02-.1.06-.18.08-.26h-.05c-.02.09-.02.17-.04.26Z"/><path class="cls-32" d="M954.51,523.78c-.03-.08-.06-.16-.08-.25.02.09.02.18.04.25h.04Z"/><path class="cls-17" d="M954.47,523.78c-.02-.07-.02-.16-.04-.25-.03-.11-.06-.21-.1-.32-.22-.62-.53-1.24-.92-1.78h-64.69c-.39.54-.69,1.15-.92,1.8-.04.09-.07.19-.1.29-.03.09-.02.18-.04.25h66.81Z"/><path class="cls-17" d="M954.33,528.5c.04-.1.07-.19.1-.29.02-.1.02-.18.04-.26h-66.81c.02.09.02.17.04.26.04.1.07.19.1.29.23.64.53,1.25.92,1.8h64.68c.4-.55.71-1.15.93-1.8Z"/><path class="cls-9" d="M954.51,527.94h0c.14-.57.25-1.17.25-1.79v-.58c0-.61-.11-1.2-.24-1.77t0-.02h-66.88c-.15.57-.25,1.17-.25,1.79v.58c0,.63.1,1.23.26,1.79h66.88Z"/><path class="cls-32" d="M888.76,569.32h64.62c-1.28-1.78-3.34-2.96-5.71-2.96h-53.2c-2.36,0-4.43,1.18-5.71,2.96Z"/><path class="cls-32" d="M942.81,581.13h4.86c2.37,0,4.43-1.16,5.71-2.94h-64.65c1.29,1.78,3.38,2.94,5.74,2.94h48.35Z"/><path class="cls-32" d="M954.51,571.68c-.03-.1-.06-.18-.08-.24.02.07.02.16.04.24h.04Z"/><path class="cls-32" d="M954.43,576.07c.02-.08.06-.17.08-.25h-.05c-.02.08-.02.18-.04.25Z"/><path class="cls-17" d="M954.43,571.44c-.03-.12-.06-.23-.1-.32-.22-.64-.53-1.25-.92-1.79h-64.69c-.39.54-.69,1.15-.92,1.79-.04.11-.07.21-.1.31-.03.08-.02.16-.04.26h66.81c-.02-.08-.02-.18-.04-.24Z"/><path class="cls-17" d="M954.33,576.39c.04-.11.07-.21.1-.32.02-.07.02-.17.04-.25h-66.81c.02.08.02.18.04.25.04.11.07.21.1.32.23.64.53,1.24.92,1.78v.02h64.68c.4-.54.7-1.17.93-1.79Z"/><path class="cls-9" d="M954.51,575.83h0c.14-.58.25-1.17.25-1.78v-.6c0-.61-.11-1.19-.24-1.77h-66.89c-.15.56-.25,1.16-.25,1.77v.6c0,.61.1,1.21.26,1.78h66.88Z"/><path class="cls-32" d="M888.76,617.2h64.62c-1.28-1.78-3.34-2.96-5.71-2.96h-53.2c-2.36,0-4.43,1.18-5.71,2.96Z"/><path class="cls-32" d="M942.81,629.01h4.86c2.37,0,4.43-1.16,5.71-2.94h-64.62c1.29,1.78,3.36,2.94,5.71,2.94h48.35Z"/><path class="cls-32" d="M954.43,623.95c.02-.08.06-.17.08-.25h-.05c-.02.09-.02.17-.04.25Z"/><path class="cls-32" d="M954.51,619.55c-.03-.08-.06-.16-.08-.25.02.09.02.18.04.25h.04Z"/><path class="cls-17" d="M954.43,619.3c-.03-.1-.06-.21-.1-.3-.22-.66-.53-1.25-.92-1.79h-64.69c-.39.54-.69,1.15-.92,1.79-.04.1-.07.19-.1.3-.03.09-.02.17-.04.25h66.81c-.02-.07-.02-.16-.04-.25Z"/><path class="cls-17" d="M954.33,624.28c.04-.11.07-.21.1-.32.02-.08.02-.17.04-.25h-66.81c.02.09.02.17.04.25.04.11.07.21.11.3.22.65.53,1.27.92,1.81h64.68c.4-.54.7-1.16.93-1.79Z"/><path class="cls-9" d="M954.51,623.7h0c.14-.58.25-1.15.25-1.77v-.6c0-.62-.11-1.2-.24-1.77,0,0,0-.02,0-.02h-66.88c-.15.57-.25,1.16-.25,1.78v.6c0,.62.1,1.21.26,1.77h66.88Z"/><path class="cls-32" d="M888.72,665.09h64.69c-1.29-1.8-3.38-2.98-5.75-2.98h-53.2c-2.36,0-4.45,1.17-5.74,2.98Z"/><path class="cls-32" d="M942.81,676.91h4.86c2.37,0,4.43-1.18,5.71-2.98h-64.62c1.29,1.8,3.35,2.98,5.71,2.98h48.35Z"/><path class="cls-32" d="M954.51,667.45c-.03-.1-.06-.18-.08-.26.02.09.02.18.04.26h.04Z"/><path class="cls-32" d="M954.43,671.84c.02-.09.06-.17.08-.25h-.04c-.03.09-.02.17-.04.25Z"/><path class="cls-17" d="M954.43,667.18c-.03-.1-.06-.21-.1-.31-.22-.64-.53-1.25-.92-1.79h-64.69c-.39.54-.69,1.15-.92,1.79-.04.1-.07.19-.11.31-.03.09-.02.16-.04.26h66.81c-.02-.09-.02-.18-.04-.26Z"/><path class="cls-17" d="M954.33,672.16c.04-.11.07-.22.1-.32.02-.09.02-.17.04-.25h-66.81c.02.09.02.17.04.25.04.11.07.21.11.3.22.64.53,1.26.92,1.79h64.68c.4-.53.7-1.15.93-1.77Z"/><path class="cls-9" d="M954.51,671.58c.14-.58.25-1.15.25-1.78v-.6c0-.61-.11-1.2-.25-1.76h-66.88c-.15.57-.25,1.15-.25,1.76v.6c0,.63.1,1.2.26,1.78h66.88Z"/><path class="cls-32" d="M887.66,719.47c.02.09.02.17.04.26-.03-.1-.02-.2-.04-.26h0Z"/><path class="cls-32" d="M888.76,712.96h64.66c-1.29-1.77-3.38-2.96-5.75-2.96h-53.2c-2.36,0-4.43,1.18-5.71,2.96Z"/><path class="cls-32" d="M942.82,724.78h4.85c2.37,0,4.43-1.17,5.71-2.94h-64.62c1.29,1.77,3.36,2.94,5.71,2.94h48.36Z"/><path class="cls-32" d="M954.51,715.33c-.03-.09-.06-.19-.08-.27.02.08.02.18.04.27h.04Z"/><path class="cls-17" d="M954.43,715.06c-.03-.11-.06-.21-.1-.3-.22-.65-.53-1.26-.92-1.8h-64.69c-.39.54-.69,1.16-.92,1.81-.04.08-.07.18-.1.29-.03.08-.02.18-.04.27h66.81c-.02-.09-.02-.19-.04-.27Z"/><path class="cls-17" d="M954.33,720.04c.04-.11.07-.21.1-.32.02-.09.02-.19.04-.25h-66.81c.02.07.02.17.04.26.04.1.07.2.11.31.22.64.53,1.26.92,1.8h64.68c.4-.54.7-1.16.93-1.8Z"/><path class="cls-9" d="M954.47,719.47h.04c.14-.57.25-1.16.25-1.78v-.6c0-.61-.11-1.2-.24-1.76h-66.89c-.15.57-.25,1.15-.25,1.76v.6c0,.61.1,1.21.26,1.78h66.84Z"/><path class="cls-32" d="M888.76,760.85h64.66c-1.29-1.78-3.38-2.96-5.75-2.96h-53.2c-2.36,0-4.43,1.18-5.71,2.96Z"/><path class="cls-32" d="M942.82,772.67h4.85c2.37,0,4.43-1.17,5.71-2.95h-64.65c1.29,1.78,3.38,2.95,5.74,2.95h48.36Z"/><path class="cls-32" d="M954.51,763.21c-.03-.09-.06-.18-.08-.24.02.07.02.17.04.24h.04Z"/><path class="cls-32" d="M954.43,767.61c.02-.09.06-.17.08-.25h-.05c-.02.09-.02.18-.04.25Z"/><path class="cls-17" d="M954.43,762.96c-.03-.11-.06-.21-.1-.32-.22-.63-.53-1.25-.92-1.79h-64.69c-.39.54-.69,1.16-.92,1.79-.04.11-.07.21-.1.3-.03.09-.02.19-.04.26h66.81c-.02-.08-.02-.18-.04-.24Z"/><path class="cls-17" d="M954.33,767.92c.04-.11.07-.2.1-.31.02-.08.02-.17.04-.25h-66.81c.02.09.02.18.04.25.04.11.07.2.1.31.23.64.53,1.25.92,1.79h64.68c.4-.54.71-1.15.93-1.79Z"/><path class="cls-9" d="M954.51,767.35h0c.14-.57.25-1.17.25-1.78v-.6c0-.61-.11-1.2-.24-1.77h-66.89c-.15.58-.25,1.16-.25,1.77v.6c0,.61.1,1.21.26,1.78h66.88Z"/><path class="cls-32" d="M887.7,810.83c-.03.08-.05.17-.07.25h.03c.02-.07.02-.17.04-.25Z"/><path class="cls-32" d="M888.76,808.73h64.66c-1.29-1.78-3.38-2.96-5.75-2.96h-53.2c-2.36,0-4.43,1.18-5.71,2.96Z"/><path class="cls-32" d="M942.81,820.54h4.86c2.37,0,4.43-1.16,5.71-2.94h-64.62c1.28,1.78,3.35,2.94,5.71,2.94h48.35Z"/><path class="cls-32" d="M954.43,815.49c.02-.09.06-.17.08-.25h-.05c-.02.08-.02.18-.04.25Z"/><path class="cls-32" d="M954.51,811.08c-.03-.08-.06-.17-.08-.25.02.08.02.18.04.25h.04Z"/><path class="cls-17" d="M954.47,811.08c-.02-.07-.02-.17-.04-.25-.03-.1-.06-.21-.1-.31-.22-.64-.53-1.25-.92-1.79h-64.69c-.39.54-.69,1.15-.92,1.79-.04.11-.07.21-.1.31-.03.08-.02.18-.04.25h66.81Z"/><path class="cls-17" d="M954.33,815.8c.04-.1.07-.2.1-.3.02-.08.02-.17.04-.25h-66.81c.02.08.02.18.04.26.04.1.07.19.1.29.23.65.53,1.26.92,1.8h64.68c.4-.54.71-1.15.93-1.8Z"/><path class="cls-9" d="M954.51,815.24h0c.14-.57.25-1.16.25-1.78v-.59c0-.62-.11-1.2-.24-1.76,0-.02,0-.02,0-.03h-66.88c-.15.57-.25,1.17-.25,1.79v.59c0,.62.1,1.21.26,1.78h66.88Z"/><path class="cls-32" d="M887.7,858.71c-.03.09-.02.17-.04.26h0c.02-.09.02-.18.04-.26Z"/><path class="cls-32" d="M888.76,856.62h64.62c-1.28-1.78-3.34-2.96-5.71-2.96h-53.2c-2.36,0-4.43,1.18-5.71,2.96Z"/><path class="cls-32" d="M942.81,868.45h4.86c2.37,0,4.43-1.18,5.71-2.96h-64.65c1.29,1.78,3.38,2.96,5.74,2.96h48.35Z"/><path class="cls-32" d="M954.51,858.98c-.03-.09-.06-.18-.08-.25.02.08.02.17.04.25h.04Z"/><path class="cls-32" d="M954.43,863.38c.02-.09.06-.18.08-.26h-.05c-.02.09-.02.18-.04.26Z"/><path class="cls-17" d="M954.47,858.98c-.02-.08-.02-.18-.04-.25-.03-.1-.06-.22-.1-.31-.22-.64-.53-1.25-.92-1.79h-64.69c-.39.54-.69,1.15-.92,1.79-.04.1-.07.21-.1.3-.03.09-.02.17-.04.26h66.81Z"/><path class="cls-17" d="M954.33,863.67c.04-.09.07-.19.1-.29.02-.08.02-.18.04-.26h-66.81c.02.09.02.18.04.26.04.1.07.2.1.29.23.66.53,1.27.92,1.81h64.68c.4-.54.7-1.15.93-1.81Z"/><path class="cls-9" d="M954.51,863.12h0c.14-.57.25-1.16.25-1.77v-.6c0-.62-.11-1.2-.24-1.77h-66.89c-.15.57-.25,1.15-.25,1.77v.6c0,.62.1,1.22.26,1.77h66.88Z"/><path class="cls-32" d="M888.76,904.5h64.62c-1.28-1.79-3.34-2.96-5.71-2.96h-53.2c-2.36,0-4.43,1.17-5.71,2.96Z"/><path class="cls-32" d="M942.81,916.33h4.86c2.37,0,4.43-1.18,5.71-2.96h-64.62c1.29,1.78,3.35,2.96,5.71,2.96h48.35Z"/><path class="cls-32" d="M954.51,906.85c-.03-.07-.06-.15-.08-.24.02.08.02.17.04.24h.04Z"/><path class="cls-32" d="M954.43,911.27c.02-.1.06-.17.08-.26h-.05c-.02.08-.02.18-.04.26Z"/><path class="cls-17" d="M954.43,906.61c-.03-.11-.06-.2-.1-.31-.22-.64-.53-1.25-.92-1.79h-64.69c-.39.54-.69,1.15-.92,1.8-.04.1-.07.19-.1.29-.03.09-.02.18-.04.25h66.81c-.02-.07-.02-.16-.04-.24Z"/><path class="cls-17" d="M954.33,911.58c.04-.11.07-.21.1-.31.02-.08.02-.18.04-.26h-66.81c.02.08.02.18.04.26.04.1.07.2.1.31.23.62.53,1.23.92,1.79h64.68c.4-.56.71-1.15.93-1.79Z"/><path class="cls-9" d="M954.51,911h0c.14-.57.25-1.15.25-1.78v-.58c0-.62-.11-1.21-.24-1.76,0-.02,0-.03,0-.03h-66.88c-.15.58-.25,1.17-.25,1.79v.58c0,.63.1,1.21.26,1.78h66.88Z"/><path class="cls-32" d="M887.66,958.88c.02.09.02.19.04.27-.03-.08-.02-.18-.04-.27h0Z"/><path class="cls-32" d="M888.76,952.38h64.66c-1.29-1.77-3.38-2.96-5.75-2.96h-53.2c-2.36,0-4.43,1.18-5.71,2.96Z"/><path class="cls-32" d="M942.82,964.21h4.85c2.37,0,4.43-1.18,5.71-2.94h-64.62c1.28,1.76,3.35,2.94,5.71,2.94h48.36Z"/><path class="cls-32" d="M954.51,954.75c-.03-.09-.06-.17-.08-.25.02.08.02.17.04.25h.04Z"/><path class="cls-17" d="M954.43,954.49c-.03-.11-.07-.22-.1-.33-.22-.63-.53-1.25-.92-1.79h-64.69c-.39.54-.69,1.16-.92,1.8-.04.1-.07.2-.11.31-.03.07-.02.17-.04.25h66.81c-.02-.09-.02-.17-.04-.25Z"/><path class="cls-17" d="M954.33,959.46c.04-.11.07-.21.1-.3.02-.08.02-.18.04-.27h-66.81c.02.09.02.19.04.27.04.1.07.2.1.3.23.64.53,1.26.92,1.81h64.68c.4-.56.71-1.17.93-1.81Z"/><path class="cls-9" d="M954.47,958.88h.04c.14-.57.25-1.15.25-1.78v-.58c0-.63-.11-1.21-.24-1.77h0s-.04-.01-.04-.01h-66.84c-.15.57-.25,1.15-.25,1.78v.58c0,.63.1,1.21.26,1.78h66.84Z"/><path class="cls-32" d="M887.66,1006.77c.02.09.02.18.04.27-.02-.09-.02-.18-.04-.27h0Z"/><path class="cls-32" d="M888.76,1000.26h64.66c-1.29-1.79-3.38-2.96-5.75-2.96h-53.2c-2.36,0-4.43,1.18-5.71,2.96Z"/><path class="cls-32" d="M942.81,1012.08h4.86c2.37,0,4.43-1.17,5.71-2.95h-64.62c1.28,1.78,3.35,2.95,5.71,2.95h48.35Z"/><path class="cls-32" d="M954.51,1002.61c-.03-.07-.06-.15-.08-.25.02.08.02.18.04.25h.04Z"/><path class="cls-17" d="M954.43,1002.36c-.03-.1-.06-.2-.1-.31-.22-.65-.53-1.25-.92-1.79h-64.69c-.39.54-.69,1.16-.92,1.79-.04.11-.07.21-.1.31-.03.08-.02.18-.04.25h66.81c-.02-.07-.02-.17-.04-.25Z"/><path class="cls-17" d="M954.33,1007.34c.04-.1.07-.21.1-.3.02-.09.02-.18.04-.27h-66.81c.02.09.02.18.04.27.04.1.07.2.1.29.23.65.53,1.26.92,1.81h64.68c.4-.55.71-1.15.93-1.79Z"/><path class="cls-9" d="M954.47,1006.77h.04c.14-.57.25-1.15.25-1.78v-.58c0-.63-.11-1.21-.24-1.77t0-.03h-66.88c-.15.59-.25,1.17-.25,1.8v.58c0,.62.1,1.21.26,1.78h66.84Z"/><path class="cls-32" d="M887.66,1054.65c.02.08.02.18.04.26-.03-.09-.02-.18-.04-.26h0Z"/><path class="cls-32" d="M888.72,1048.15h64.69c-1.29-1.78-3.38-2.96-5.75-2.96h-53.2c-2.36,0-4.45,1.18-5.74,2.96Z"/><path class="cls-32" d="M942.81,1059.98h4.86c2.37,0,4.43-1.17,5.71-2.97h-64.62c1.29,1.79,3.36,2.97,5.71,2.97h48.35Z"/><path class="cls-32" d="M954.51,1050.52c-.03-.1-.06-.17-.08-.25.02.08.02.17.04.25h.04Z"/><path class="cls-17" d="M954.43,1050.26c-.03-.11-.07-.22-.1-.34-.22-.63-.53-1.24-.92-1.78h-64.69c-.39.54-.69,1.15-.92,1.79-.04.1-.07.21-.11.31-.03.1-.02.18-.04.27h66.81c-.02-.09-.02-.17-.04-.25Z"/><path class="cls-17" d="M954.33,1055.21c.04-.1.07-.19.1-.29.02-.09.02-.18.04-.26h-66.81c.02.08.02.18.04.26.04.11.07.19.1.29.23.65.53,1.26.92,1.8h64.68c.4-.54.71-1.15.93-1.8Z"/><path class="cls-9" d="M954.47,1054.65h.04c.14-.56.25-1.15.25-1.78v-.59c0-.62-.11-1.19-.24-1.77h-66.89c-.15.57-.25,1.15-.25,1.77v.59c0,.62.1,1.22.26,1.78h66.84Z"/><polygon class="cls-23" points="1755.94 750.36 1749.1 750.36 1749.1 435.44 1742.25 435.44 1742.25 750.38 1755.94 750.38 1755.94 750.36"/><polygon class="cls-23" points="1816.86 750.36 1816.86 750.38 1817.79 750.38 1819.66 750.38 1822.15 750.38 1830.56 750.38 1830.56 440.45 1830.56 435.44 1823.71 435.44 1823.71 750.36 1816.86 750.36"/><polygon class="cls-13" points="1817.79 435.44 1815.92 435.44 1814.04 435.44 1812.17 435.44 1809.59 435.44 1807 435.44 1805.57 435.44 1805.57 435.44 1810.01 435.44 1816.86 435.44 1816.86 750.36 1823.71 750.36 1823.71 435.44 1823.71 435.44 1822.15 435.44 1819.66 435.44 1817.79 435.44"/><polygon class="cls-13" points="1755.94 750.36 1755.94 435.44 1762.8 435.44 1767.24 435.44 1767.24 435.44 1749.1 435.44 1749.1 435.44 1749.1 750.36 1755.94 750.36"/><polygon class="cls-6" points="1755.94 435.44 1755.94 750.36 1755.94 750.38 1762.8 750.38 1762.8 435.44 1755.94 435.44"/><polygon class="cls-6" points="1812.17 750.38 1814.04 750.38 1815.92 750.38 1816.86 750.38 1816.86 750.36 1816.86 435.44 1810.01 435.44 1810.01 750.38 1812.17 750.38"/><polygon class="cls-3" points="1771.31 750.38 1771.68 750.38 1771.68 750.36 1767.24 750.36 1767.24 435.44 1762.8 435.44 1762.8 750.38 1767.57 750.38 1769.44 750.38 1771.31 750.38"/><polygon class="cls-3" points="1801.83 750.38 1804.41 750.38 1807 750.38 1809.59 750.38 1810.01 750.38 1810.01 435.44 1805.57 435.44 1805.57 750.36 1801.12 750.36 1801.12 750.38 1801.83 750.38"/><polygon class="cls-40" points="1767.24 750.36 1771.68 750.36 1771.68 435.44 1776.13 435.44 1796.68 435.44 1801.12 435.44 1801.12 750.36 1805.57 750.36 1805.57 435.44 1805.57 435.44 1804.41 435.44 1801.83 435.44 1785.39 435.44 1782.81 435.44 1780.23 435.44 1777.64 435.44 1775.05 435.44 1773.18 435.44 1771.31 435.44 1769.44 435.44 1767.57 435.44 1767.24 435.44 1767.24 435.44 1767.24 750.36"/><polygon class="cls-33" points="1773.18 750.38 1775.05 750.38 1776.13 750.38 1776.13 435.44 1771.68 435.44 1771.68 750.36 1771.68 750.38 1773.18 750.38"/><polygon class="cls-33" points="1801.12 750.38 1801.12 750.36 1801.12 435.44 1796.68 435.44 1796.68 750.38 1801.12 750.38"/><polygon class="cls-43" points="1777.64 750.38 1780.23 750.38 1782.81 750.38 1785.39 750.38 1796.68 750.38 1796.68 435.44 1776.13 435.44 1776.13 750.38 1777.64 750.38"/></g></g></svg>