<?xml version="1.0" encoding="UTF-8"?><svg id="Capa_2" xmlns="http://www.w3.org/2000/svg" viewBox="0 0 581.45 398.81"><defs><style>.cls-1{fill:#f3d0b0;}.cls-1,.cls-2,.cls-3{stroke-width:0px;}.cls-2{fill:#1666c4;}.cls-3{fill:#80ded9;}</style></defs><g id="Capa_1-2"><path class="cls-2" d="M550.29,248.38c-1.23.02-2.31-.81-3.34-1.37-1.25-.7-2.54-1.34-3.85-1.92-2.72-1.18-5.54-2.11-8.43-2.76-2.87-.65-5.74-.91-8.66-1.12-1.28-.08-2.65-.38-3.42-1.5-.59-.87-.71-2-.4-3,.8-2.59,3.63-3.39,6.02-3.68.06,0,.09.02.13.02.52-.06,1.05-.09,1.56-.05,1.52.09,3.02.49,4.48.91,1.69.49,3.38.96,5.05,1.48,2.93.91,5.85,1.92,8.62,3.27,2.22,1.08,4.48,2.69,5.04,5.26.4,1.89-.54,4.44-2.8,4.46Z"/><path class="cls-3" d="M520.04,284.51c-1.15.48-1.87,1.3-2.29,2.57-.25.77-.28,1.48-.14,2.12.2.74.64,1.58,1.35,2.5.56.72,2.12,2.44,6.44,6.55,4.96,4.71,7.99,8.8,9.29,12.44,1.33,3.73,1.29,7.79-.1,12.06-1.92,5.9-5.64,9.93-11.05,11.96-2.92,1.09-6.18,1.54-9.75,1.29l-3.35,10.26-12.53-4.08,3.06-9.4c-4.99-2.06-9.25-4.8-12.71-8.15l-.85-.81,5.08-15.59,2.14,1.95c3.35,3,6.28,5.34,8.71,6.91,2.4,1.54,4.74,2.7,6.82,3.37,2.31.75,4.3.93,5.74.48,1.24-.39,2.04-1.26,2.53-2.77.26-.79.26-1.54.03-2.29-.29-.89-.85-1.89-1.7-2.96-.93-1.18-3.01-3.3-6.21-6.33-3.22-3.03-5.47-5.63-6.87-7.98-1.44-2.35-2.37-4.9-2.81-7.57-.46-2.73-.18-5.68.83-8.74,1.88-5.78,5.4-9.75,10.46-11.82,2.88-1.17,6.07-1.63,9.56-1.37l3.39-10.39,12.53,4.08-3.2,9.82c1.46.69,2.86,1.45,4.19,2.3,2.64,1.7,5.34,3.77,8.03,6.13l1.4,1.25-9.7,11.31-1.43-1.22c-2.65-2.27-4.93-3.99-6.74-5.14-1.79-1.1-3.61-1.97-5.45-2.57-1.94-.63-3.51-.69-4.71-.17Z"/><path class="cls-2" d="M525.17,241.65c-.37,0-.75-.15-1.02-.44-.53-.56-.5-1.45.06-1.98l5.56-5.23c.56-.53,1.45-.51,1.98.06.53.56.5,1.45-.06,1.98l-5.56,5.23c-.27.25-.62.38-.96.38Z"/><path class="cls-2" d="M533.72,242.11c-.33,0-.67-.12-.94-.36-.58-.52-.62-1.4-.11-1.98l3.96-4.42c.52-.58,1.41-.62,1.98-.11.58.52.62,1.4.11,1.98l-3.96,4.41c-.28.31-.66.47-1.04.47Z"/><path class="cls-2" d="M541.29,244.42c-.4,0-.79-.17-1.07-.5-.5-.59-.43-1.48.16-1.98l4.39-3.73c.59-.5,1.48-.43,1.98.16.5.59.43,1.48-.16,1.98l-4.39,3.73c-.26.22-.59.33-.91.33Z"/><path class="cls-2" d="M546.58,247.4c-.41,0-.81-.17-1.09-.51-.49-.6-.41-1.48.19-1.97l4.06-3.35c.6-.49,1.48-.41,1.97.19.49.6.41,1.48-.19,1.98l-4.06,3.35c-.26.22-.58.32-.89.32Z"/><path class="cls-2" d="M536.85,236.57c-.77,0-1.39-.62-1.4-1.38l-.25-18.77c-.01-.78.61-1.41,1.38-1.42h.02c.77,0,1.39.62,1.4,1.38l.25,18.77c0,.77-.61,1.41-1.38,1.42h-.02Z"/><path class="cls-2" d="M543.36,238.18c-.24,0-.48-.06-.7-.19-.67-.39-.9-1.25-.51-1.92l9.2-15.92c.39-.67,1.25-.9,1.92-.51.67.39.9,1.25.51,1.92l-9.2,15.92c-.26.45-.73.7-1.22.7Z"/><path class="cls-2" d="M464.11,313.74c-.72,0-1.33-.55-1.4-1.28-.67-7.47.85-15.26,4.26-21.94,3.41-6.68,8.84-12.47,15.28-16.3.67-.4,1.53-.18,1.92.49.4.67.18,1.53-.49,1.92-5.99,3.57-11.04,8.96-14.22,15.17-3.18,6.22-4.58,13.46-3.96,20.41.07.77-.5,1.45-1.27,1.52-.04,0-.09,0-.13,0Z"/><path class="cls-2" d="M491.72,289.82c-.56,0-1.08-.33-1.3-.88l-3.21-7.99c-.29-.72.06-1.54.78-1.83.71-.29,1.53.06,1.83.78l3.21,7.99c.29.72-.06,1.54-.78,1.83-.17.07-.35.1-.52.1Z"/><path class="cls-2" d="M486.47,296.52c-.29,0-.57-.09-.82-.27l-6.25-4.53c-.63-.45-.77-1.33-.31-1.96.45-.63,1.33-.77,1.96-.31l6.26,4.54c.63.45.77,1.33.31,1.96-.27.38-.7.58-1.14.58Z"/><path class="cls-2" d="M484.89,304.95s-.06,0-.09,0l-7.3-.48c-.77-.05-1.36-.72-1.31-1.49.05-.77.73-1.35,1.49-1.31l7.3.48c.77.05,1.36.72,1.31,1.49-.05.74-.67,1.31-1.4,1.31Z"/><path class="cls-2" d="M541.01,304.12c-.56,0-1.08-.33-1.3-.88-.29-.72.06-1.54.78-1.83l8.27-3.33c.72-.28,1.54.06,1.83.78.29.72-.06,1.54-.78,1.83l-8.27,3.33c-.17.07-.35.1-.53.1Z"/><path class="cls-2" d="M546.31,313.17c-1.81,0-3.61-.2-5.38-.59-.76-.17-1.24-.91-1.07-1.67.17-.76.91-1.24,1.67-1.07,2.5.55,5.06.66,7.6.34.77-.08,1.47.45,1.57,1.22.1.77-.45,1.47-1.22,1.57-1.06.13-2.11.2-3.17.2Z"/><path class="cls-2" d="M546.35,323.38c-.26,0-.52-.07-.76-.22l-5.23-3.37c-.65-.42-.84-1.29-.42-1.94.42-.65,1.29-.84,1.94-.42l5.23,3.37c.65.42.84,1.29.42,1.94-.27.42-.72.64-1.18.64Z"/><path class="cls-2" d="M538.47,365.08c-.76,0-1.38-.61-1.4-1.37-.02-.78.59-1.42,1.37-1.44,3.89-.1,7.78-1.38,10.97-3.61.63-.44,1.51-.29,1.95.35.44.63.29,1.51-.35,1.95-3.63,2.54-8.07,4-12.51,4.12h-.04Z"/><path class="cls-2" d="M469.49,345.71c-.25,0-.49-.06-.72-.2-5.72-3.44-10.25-9.03-12.42-15.34-.25-.73.14-1.53.87-1.78.73-.25,1.53.14,1.78.87,1.96,5.7,6.04,10.75,11.21,13.85.66.4.88,1.26.48,1.93-.26.44-.73.68-1.2.68Z"/><path class="cls-2" d="M553.64,377.22c-2.17,0-4.17-1.35-6.12-2.66-2.16-1.46-4.39-2.96-6.98-2.97h0c-1.43,0-2.83.11-4.33.23-6.85.53-15.38,1.2-38.76-6.42-23.39-7.62-29.88-13.18-35.1-17.65-1.14-.97-2.21-1.9-3.37-2.74-2.09-1.52-4.78-1.61-7.38-1.71-2.75-.1-5.59-.21-7.36-2.23-1.24-1.41-1.7-3.51-1.42-6.4.37-3.78,1.77-6.55,4.18-8.24,2.2-1.55,4.75-1.8,6.5-1.72.32-30.98,12.28-50.45,39.74-64.87,24.26-12.75,27.77-19.89,27.8-19.97.29-.62.93-1.06,1.61-1.06h0c10.49.07,20.53,3.34,29.04,9.47.59.42.85,1.15.68,1.85,0,.04-1.39,7.88,10.71,32.47,13.68,27.81,11.87,50.6-6.12,75.82,1.46.98,3.37,2.67,4.23,5.22.94,2.78.44,5.85-1.49,9.12-1.48,2.5-3.09,3.92-4.91,4.33-.38.09-.76.13-1.13.13ZM540.54,368.08h.01c3.66,0,6.58,1.98,8.94,3.57,1.81,1.22,3.39,2.28,4.52,2.02.82-.18,1.72-1.09,2.67-2.7h0c1.38-2.34,1.78-4.42,1.19-6.19-.94-2.81-4.13-4.16-4.16-4.17-.5-.21-.88-.63-1.02-1.15-.15-.52-.05-1.08.27-1.51,18.43-25,20.45-46.38,6.96-73.8-10.37-21.09-11.25-30.43-11.11-33.61-7.46-5.13-16.12-7.95-25.17-8.21-1.76,2.65-7.98,9.68-28.78,20.6-27.07,14.22-38.04,32.68-37.86,63.73,0,.54-.25,1.06-.67,1.39-.43.34-.99.46-1.51.32-.03,0-3.4-.8-5.82.92-1.52,1.08-2.42,3-2.69,5.7-.18,1.85.02,3.12.57,3.75.77.88,2.66.95,4.85,1.03,2.84.11,6.36.24,9.32,2.38,1.27.93,2.4,1.89,3.59,2.91,4.98,4.27,11.18,9.57,33.91,16.98,22.71,7.4,30.86,6.77,37.4,6.26,1.56-.12,3.04-.24,4.6-.24Z"/><path class="cls-2" d="M550.66,251.45c-.37,0-.75-.12-1.07-.37-.77-.59-.91-1.69-.31-2.46.02-.03,2.73-3.63.92-6.03-2.18-2.89-18.29-8.04-23.61-7.51-1.39.13-1.81.74-1.95.94-.83,1.18-.49,3.4-.31,4.08.25.93-.3,1.9-1.24,2.15-.94.25-1.89-.29-2.15-1.23-.12-.43-1.09-4.25.8-6.99.68-.99,2.02-2.21,4.51-2.45,6.09-.58,23.66,4.82,26.74,8.89,3.42,4.54-.76,10.06-.95,10.29-.35.45-.86.68-1.39.68Z"/><path class="cls-2" d="M549.75,240.01c-.37,0-.74-.12-1.06-.35-.77-.58-.93-1.68-.34-2.46,3.47-4.61,7.98-8.51,13.04-11.28,1.43-.78,2.9-1.48,4.32-2.15,2.06-.97,4-1.89,5.81-3.05,2.4-1.52,5.43-4.09,6.25-7.66.64-2.75-.62-6.44-3.44-7.33-1.95-.62-4.19.09-6.57.83-.4.13-.8.25-1.19.37-4.53,1.36-8.08.85-10.27-1.47-2.04-2.16-2.1-5.02-2.15-7.54-.03-1.33-.05-2.58-.33-3.68-.54-2.09-2.22-3.86-4.28-4.49-2.07-.64-4.45-.12-6.07,1.31-1,.89-1.76,2.11-2.56,3.4-.25.41-.51.83-.77,1.23-1.08,1.65-2.83,3.94-5.57,4.71-2.68.75-5.72-.13-8.8-2.54-.58-.46-1.15-.94-1.71-1.42-1.4-1.2-2.71-2.33-4.22-2.94-1.66-.68-4-.45-4.7.95-.53,1.05-.15,2.61.25,3.85,1.92,6.05,5.31,11.38,8.89,17.02,3.34,5.26,6.79,10.7,8.91,16.74.32.91-.16,1.92-1.08,2.24-.92.32-1.91-.16-2.24-1.08-1.98-5.66-5.33-10.93-8.56-16.02-3.54-5.58-7.21-11.36-9.27-17.84-.6-1.88-1.14-4.31-.03-6.5,1.67-3.3,5.97-3.92,9.16-2.61,2.03.83,3.63,2.2,5.17,3.53.53.45,1.05.9,1.59,1.33,1.51,1.18,3.72,2.48,5.69,1.92,1.22-.34,2.35-1.37,3.57-3.25.25-.38.49-.77.73-1.16.9-1.46,1.83-2.96,3.22-4.19,2.52-2.22,6.21-3.02,9.42-2.03,3.21.99,5.82,3.73,6.65,6.98.38,1.49.41,3.01.44,4.47.05,2.16.08,4.03,1.19,5.2,1.62,1.71,4.9,1.06,6.72.52.38-.11.76-.23,1.15-.35,2.65-.84,5.66-1.78,8.68-.83,4.86,1.54,6.79,7.15,5.8,11.46-1.09,4.74-4.84,7.96-7.79,9.83-2,1.27-4.13,2.28-6.2,3.26-1.38.65-2.8,1.32-4.13,2.06-4.63,2.54-8.75,6.11-11.93,10.32-.35.46-.87.7-1.4.7Z"/><path class="cls-1" d="M1.38,270.75l49.91,117.48c3.75,8.82,13.97,12.94,22.78,9.2l8.53-3.62c-8.82,3.75-19.04-.38-22.78-9.2l-49.91-117.48c-3.75-8.82.38-19.04,9.2-22.78l-8.53,3.62c-8.82,3.75-12.94,13.97-9.2,22.78Z"/><path class="cls-3" d="M100.89,321.43c-.16.31-.17.62-.03.98.09.21.21.37.36.49.18.12.43.23.75.3.25.05.91.14,2.6.24,1.94.12,3.35.45,4.29,1,.97.57,1.71,1.45,2.19,2.64.66,1.63.59,3.19-.21,4.62-.43.77-1.06,1.47-1.88,2.07l1.15,2.84-3.47,1.41-1.06-2.6c-1.46.47-2.89.65-4.25.56l-.33-.02-1.75-4.32.82.03c1.28.04,2.34.01,3.16-.09.8-.11,1.52-.28,2.1-.52.64-.26,1.1-.59,1.33-.95.2-.31.21-.65.04-1.06-.09-.22-.22-.38-.41-.5-.22-.14-.53-.25-.91-.33-.42-.09-1.26-.17-2.51-.24-1.25-.07-2.22-.22-2.95-.47-.74-.25-1.41-.63-2-1.13-.6-.51-1.08-1.2-1.42-2.05-.65-1.6-.61-3.11.11-4.48.41-.78,1.02-1.47,1.82-2.05l-1.17-2.88,3.47-1.41,1.1,2.72c.44-.12.89-.21,1.33-.27.88-.12,1.85-.16,2.87-.14l.53.02-.04,4.23h-.53c-.99-.01-1.8.03-2.4.12-.59.09-1.14.23-1.66.44-.54.22-.89.49-1.05.83Z"/><path class="cls-3" d="M81.68,328.41c-.16.31-.17.62-.03.98.09.21.21.37.36.49.18.12.43.23.75.3.25.05.91.14,2.6.24,1.94.12,3.35.45,4.29,1,.97.57,1.71,1.45,2.19,2.64.66,1.63.59,3.19-.21,4.62-.43.77-1.06,1.47-1.88,2.07l1.15,2.84-3.47,1.41-1.06-2.6c-1.46.47-2.89.65-4.25.56l-.33-.02-1.75-4.32.82.03c1.28.04,2.34.01,3.16-.09.8-.11,1.52-.28,2.1-.52.64-.26,1.1-.59,1.33-.95.2-.31.21-.65.04-1.06-.09-.22-.22-.38-.41-.5-.22-.14-.53-.25-.91-.33-.42-.09-1.26-.17-2.51-.24-1.25-.07-2.22-.22-2.95-.47-.74-.25-1.41-.63-2-1.13-.6-.51-1.08-1.2-1.42-2.05-.65-1.6-.61-3.11.11-4.48.41-.78,1.02-1.47,1.82-2.05l-1.17-2.88,3.47-1.41,1.1,2.72c.44-.12.89-.21,1.33-.27.88-.12,1.85-.16,2.87-.14l.53.02-.04,4.23h-.53c-.99-.01-1.8.03-2.4.12-.59.09-1.14.23-1.66.44-.54.22-.89.49-1.05.83Z"/><path class="cls-3" d="M63.77,335.87c-.16.31-.17.62-.03.98.09.21.21.37.36.49.18.12.43.23.75.3.25.05.91.14,2.6.24,1.94.12,3.35.45,4.29,1,.97.57,1.71,1.45,2.19,2.64.66,1.63.59,3.19-.21,4.62-.43.77-1.06,1.47-1.88,2.07l1.15,2.84-3.47,1.41-1.06-2.6c-1.46.47-2.89.65-4.25.56l-.33-.02-1.75-4.32.82.03c1.28.04,2.34.01,3.16-.09.8-.11,1.52-.28,2.1-.52.64-.26,1.1-.59,1.33-.95.2-.31.21-.65.04-1.06-.09-.22-.22-.38-.41-.5-.22-.14-.53-.25-.91-.33-.42-.09-1.26-.17-2.51-.24-1.25-.07-2.22-.22-2.95-.47-.74-.25-1.41-.63-2-1.13-.6-.51-1.08-1.2-1.42-2.05-.65-1.6-.61-3.11.11-4.48.41-.78,1.02-1.47,1.82-2.05l-1.17-2.88,3.47-1.41,1.1,2.72c.44-.12.89-.21,1.33-.27.88-.12,1.85-.16,2.87-.14l.53.02-.04,4.23h-.53c-.99-.01-1.8.03-2.4.12-.59.09-1.14.23-1.66.44-.54.22-.89.49-1.05.83Z"/><path class="cls-2" d="M75.84,389.64c-1.5,0-3.01-.29-4.45-.87-2.94-1.19-5.23-3.43-6.46-6.33l-49.91-117.48c-1.23-2.9-1.26-6.11-.07-9.05,1.19-2.94,3.43-5.23,6.33-6.46l2.71-1.15c.34-.15.73-.15,1.07,0,.34.14.62.41.77.75,1.15,2.7,4.28,3.97,6.98,2.82l25.95-11.02c1.31-.56,2.33-1.59,2.86-2.91.53-1.32.52-2.77-.04-4.08-.15-.34-.15-.73,0-1.07.14-.35.41-.62.75-.77l2.7-1.15c6.01-2.55,12.96.26,15.51,6.26l49.91,117.48c1.23,2.9,1.26,6.12.08,9.05-1.18,2.93-3.44,5.23-6.34,6.46l-43.74,18.58c-1.48.63-3.04.94-4.6.94ZM23.9,251.38l-1.53.65c-2.21.94-3.92,2.69-4.83,4.93-.91,2.24-.89,4.69.05,6.9h0l49.91,117.48c.94,2.21,2.69,3.92,4.93,4.83,2.24.91,4.69.89,6.9-.05l43.74-18.58c2.22-.94,3.93-2.69,4.84-4.93.9-2.24.88-4.69-.06-6.9l-49.91-117.48c-1.95-4.58-7.25-6.72-11.83-4.78l-1.52.64c.38,1.62.26,3.31-.38,4.89-.81,2.01-2.36,3.59-4.36,4.44l-25.95,11.02c-2,.85-4.21.87-6.22.06-1.57-.64-2.88-1.72-3.78-3.12Z"/><path class="cls-2" d="M75.98,244.32c-.73,0-1.34-.56-1.4-1.3-.21-2.94-2.53-5.67-5.4-6.35-.75-.18-1.22-.94-1.04-1.69.18-.75.94-1.22,1.69-1.04,4.07.97,7.24,4.7,7.54,8.87.06.77-.52,1.45-1.3,1.5-.03,0-.07,0-.1,0Z"/><path class="cls-2" d="M77.4,384.95c-4.41,0-8.57-2.93-10.02-7.12-.25-.73.13-1.53.87-1.79.73-.25,1.53.14,1.78.87,1.08,3.13,4.42,5.4,7.7,5.22.77-.04,1.43.56,1.47,1.34.04.77-.56,1.43-1.34,1.47-.15,0-.31.01-.46.01Z"/><path class="cls-2" d="M78.78,382.45c-1.53,0-3.05-.58-4.17-1.63-.57-.53-.59-1.42-.06-1.98.53-.57,1.42-.59,1.98-.06.75.7,1.88,1.02,2.89.81.76-.16,1.5.32,1.66,1.08.16.76-.32,1.5-1.08,1.66-.4.08-.81.13-1.22.13Z"/><path class="cls-2" d="M57.48,322.94c-.55,0-1.06-.32-1.29-.85l-14.87-34.82c-.15-.34-.15-.73-.01-1.07.14-.35.41-.62.75-.77l11.72-5c.71-.3,1.54.03,1.84.74l14.87,34.82c.3.71-.03,1.54-.74,1.84-.71.31-1.54-.03-1.84-.74l-14.32-33.53-9.14,3.9,14.32,33.53c.3.71-.03,1.54-.74,1.84-.18.08-.37.11-.55.11Z"/><polyline class="cls-1" points="71.82 315.05 63 294.41 74.72 289.4 83.54 310.05"/><path class="cls-2" d="M86.95,310.73c-.55,0-1.06-.32-1.29-.85l-18.86-44.17c-.3-.71.03-1.54.74-1.84l11.72-5c.34-.15.73-.15,1.07-.01.35.14.62.41.77.75l18.86,44.17c.3.71-.03,1.54-.74,1.84-.71.31-1.54-.03-1.84-.74l-18.31-42.88-9.14,3.9,18.31,42.88c.3.71-.03,1.54-.74,1.84-.18.08-.37.11-.55.11Z"/><path class="cls-2" d="M39.68,284.76c-.49,0-.96-.26-1.22-.71-.38-.67-.14-1.53.53-1.91,11.9-6.74,21.46-17.95,26.24-30.76.27-.73,1.08-1.09,1.81-.82.73.27,1.1,1.08.82,1.81-5.01,13.42-15.02,25.16-27.49,32.22-.22.12-.46.18-.69.18Z"/><path class="cls-2" d="M70.18,257.97c-.49,0-.97-.26-1.23-.72l-2.58-4.65-6.65,2.59c-.72.28-1.54-.08-1.82-.8-.28-.72.08-1.54.8-1.82l7.79-3.03c.65-.25,1.4.01,1.74.63l3.17,5.72c.38.68.13,1.53-.55,1.91-.22.12-.45.18-.68.18Z"/><path class="cls-2" d="M71.82,272.85c-.12,0-.23-.01-.35-.04-.75-.19-1.2-.96-1.01-1.71l2.08-8.04c.19-.75.96-1.2,1.71-1.01.75.19,1.2.96,1.01,1.71l-2.08,8.04c-.16.63-.73,1.05-1.36,1.05Z"/><path class="cls-2" d="M75.37,281.76c-.11,0-.23-.01-.34-.04-.75-.19-1.21-.95-1.03-1.7l4.57-18.47c.19-.75.95-1.21,1.7-1.03.75.19,1.21.95,1.03,1.7l-4.57,18.47c-.16.64-.73,1.07-1.36,1.07Z"/><path class="cls-2" d="M78.7,290.78c-.15,0-.31-.03-.46-.08-.73-.26-1.12-1.06-.86-1.79l5.83-16.66c.26-.73,1.05-1.11,1.79-.86.73.26,1.12,1.06.86,1.79l-5.83,16.66c-.2.58-.74.94-1.32.94Z"/><path class="cls-2" d="M82.85,300.1c-.18,0-.36-.03-.53-.11-.72-.29-1.06-1.12-.76-1.83l6.52-15.85c.29-.72,1.11-1.06,1.83-.76.72.29,1.06,1.11.76,1.83l-6.52,15.85c-.22.54-.75.87-1.3.87Z"/><path class="cls-2" d="M86.19,307.62c-.19,0-.38-.04-.56-.12-.71-.31-1.03-1.14-.72-1.85l6.24-14.22c.31-.71,1.14-1.03,1.85-.72.71.31,1.03,1.14.72,1.85l-6.24,14.22c-.23.53-.75.84-1.29.84Z"/><path class="cls-2" d="M92.54,308.6c-.21,0-.42-.05-.62-.15-.69-.34-.98-1.19-.63-1.88l3.48-7.01c.35-.69,1.19-.98,1.88-.63.69.34.98,1.19.63,1.88l-3.48,7.01c-.25.49-.74.78-1.26.78Z"/><path class="cls-2" d="M45.86,292.67c-.17,0-.34-.03-.5-.09-.72-.28-1.09-1.09-.81-1.81l2.38-6.26c.28-.72,1.09-1.09,1.81-.81.72.28,1.09,1.09.81,1.81l-2.38,6.26c-.21.56-.75.9-1.31.9Z"/><path class="cls-2" d="M48.47,301.04c-.2,0-.4-.04-.59-.13-.7-.32-1.01-1.16-.69-1.86l6.7-14.56c.32-.7,1.16-1.01,1.86-.69.7.32,1.01,1.16.69,1.86l-6.7,14.56c-.24.51-.74.82-1.28.82Z"/><path class="cls-2" d="M53.11,311.18c-.2,0-.41-.04-.6-.13-.7-.33-1-1.17-.67-1.87,1.17-2.48,2.25-4.71,3.33-6.95,1.08-2.24,2.17-4.48,3.34-6.97.33-.7,1.17-1,1.87-.67.7.33,1,1.17.67,1.87-1.18,2.49-2.26,4.74-3.35,6.99-1.08,2.23-2.15,4.46-3.32,6.93-.24.51-.74.8-1.27.8Z"/><path class="cls-2" d="M57.02,319.71c-.2,0-.41-.04-.61-.14-.7-.34-.99-1.18-.66-1.87l6.31-13.1c.34-.7,1.18-.99,1.87-.66.7.34.99,1.18.66,1.87l-6.31,13.1c-.24.5-.74.79-1.27.79Z"/><path class="cls-2" d="M63.52,321.24c-.26,0-.52-.07-.75-.22-.65-.42-.85-1.28-.43-1.94l3.54-5.58c.42-.65,1.28-.85,1.94-.43.65.42.85,1.28.43,1.94l-3.54,5.58c-.27.42-.72.65-1.19.65Z"/><path class="cls-2" d="M75.84,396.94c-7.45,0-14.54-4.37-17.63-11.65l-49.91-117.48c-1.99-4.7-2.04-9.89-.12-14.64,1.92-4.74,5.56-8.45,10.25-10.45l43.74-18.58c4.7-1.99,9.89-2.04,14.64-.12,4.74,1.91,8.45,5.55,10.45,10.25l49.91,117.48c1.99,4.69,2.04,9.89.12,14.64-1.91,4.74-5.55,8.45-10.25,10.45l-43.74,18.58c-2.43,1.03-4.96,1.52-7.45,1.52ZM69.62,226.13c-2.03,0-4.1.4-6.09,1.24l-43.74,18.58c-3.83,1.63-6.81,4.66-8.37,8.53-1.56,3.87-1.53,8.12.1,11.95l49.91,117.48c3.37,7.93,12.56,11.64,20.48,8.27l43.74-18.58c3.83-1.63,6.8-4.66,8.37-8.53,1.56-3.87,1.53-8.12-.1-11.95l-49.91-117.48c-2.52-5.94-8.32-9.51-14.4-9.51Z"/><path class="cls-1" d="M72.98,367.77c.78,1.84,2.26,3.21,3.99,3.92,1.73.7,3.73.74,5.58-.04l30.69-13.04c3.7-1.57,5.43-5.88,3.86-9.58-.78-1.84-2.26-3.21-3.99-3.91s-3.74-.74-5.58.04l-30.69,13.04c-3.7,1.57-5.43,5.88-3.86,9.57Z"/><path class="cls-2" d="M79.51,218.14c-.15,0-.31-.02-.46-.06-.93-.26-1.48-1.22-1.23-2.15l5.81-21.25c.26-.93,1.22-1.49,2.15-1.23.93.26,1.48,1.22,1.23,2.15l-5.81,21.25c-.21.78-.92,1.29-1.69,1.29Z"/><path class="cls-2" d="M86.22,223.07c-.49,0-.98-.21-1.33-.61-.63-.73-.55-1.84.18-2.47l8.82-7.63c.73-.64,1.84-.55,2.47.18.63.73.55,1.84-.18,2.47l-8.82,7.63c-.33.29-.74.43-1.15.43Z"/><path class="cls-2" d="M70.63,218.41c-.97,0-1.75-.79-1.75-1.75v-11.91c0-.97.79-1.75,1.75-1.75s1.75.79,1.75,1.75v11.91c0,.97-.79,1.75-1.75,1.75Z"/><path class="cls-2" d="M62.59,220.66c-.74,0-1.43-.47-1.67-1.22l-2.89-9.02c-.3-.92.21-1.91,1.13-2.21.92-.29,1.91.21,2.21,1.13l2.89,9.02c.3.92-.21,1.91-1.13,2.21-.18.06-.36.08-.54.08Z"/><path class="cls-2" d="M51.44,326.64c-.68,0-1.33-.4-1.61-1.06l-21.8-51.05c-.38-.89.03-1.92.92-2.3.89-.38,1.92.03,2.3.92l21.12,49.46,47.63-19.4c.9-.37,1.92.07,2.29.96.37.9-.07,1.92-.96,2.29l-49.23,20.05c-.22.09-.44.13-.66.13Z"/><rect class="cls-1" x="252.99" y="52.13" width="23.02" height="64.25"/><rect class="cls-3" x="313.08" y="28.46" width="23.02" height="87.91"/><path class="cls-2" d="M257.27,85.9h-.01c-.78,0-1.4-.64-1.39-1.42l.24-27.4c0-.78.59-1.41,1.42-1.39.77,0,1.4.64,1.39,1.42l-.24,27.4c0,.77-.63,1.39-1.4,1.39Z"/><path class="cls-2" d="M261.04,85.45c-.76,0-1.38-.61-1.4-1.37l-.15-6.47c-.02-.77.6-1.42,1.37-1.43.75-.05,1.42.59,1.43,1.37l.15,6.47c.02.77-.6,1.42-1.37,1.43-.01,0-.02,0-.03,0Z"/><path class="cls-2" d="M331.03,116.76h0c-.78,0-1.4-.63-1.4-1.41l.09-35.53c0-.77.63-1.4,1.4-1.4h0c.78,0,1.4.63,1.4,1.41l-.09,35.53c0,.77-.63,1.4-1.4,1.4Z"/><path class="cls-2" d="M283.82,54.21c-.37,0-.75-.15-1.02-.44-.53-.57-.5-1.45.06-1.98l6.92-6.49c.57-.53,1.46-.5,1.98.06.53.57.5,1.45-.06,1.98l-6.92,6.49c-.27.25-.62.38-.96.38Z"/><path class="cls-2" d="M283.68,61.88c-.33,0-.66-.12-.93-.35-.58-.51-.64-1.4-.12-1.98,4.46-5.05,9.37-9.78,14.58-14.05.6-.49,1.48-.4,1.97.2.49.6.4,1.48-.2,1.97-5.1,4.18-9.9,8.8-14.26,13.74-.28.31-.66.47-1.05.47Z"/><path class="cls-2" d="M283.76,69.2c-.37,0-.73-.14-1.01-.43-.54-.56-.52-1.45.04-1.98l21.92-21.13c.56-.54,1.45-.52,1.98.04.54.56.52,1.45-.04,1.98l-21.92,21.13c-.27.26-.62.39-.97.39Z"/><path class="cls-2" d="M283.6,80.13c-.41,0-.82-.18-1.09-.52-.49-.6-.39-1.49.21-1.97l21.3-17.23c.61-.49,1.49-.39,1.97.21.49.6.39,1.49-.21,1.97l-21.3,17.23c-.26.21-.57.31-.88.31Z"/><path class="cls-2" d="M283.9,89.2c-.42,0-.84-.19-1.11-.55-.47-.61-.36-1.5.25-1.97l20.92-16.11c.61-.47,1.5-.36,1.97.26.47.61.36,1.5-.25,1.97l-20.92,16.11c-.25.2-.56.29-.86.29Z"/><path class="cls-2" d="M283.73,99.87c-.41,0-.81-.17-1.09-.51-.49-.6-.4-1.48.2-1.97l22.16-18.18c.6-.49,1.48-.4,1.97.19.49.6.4,1.48-.2,1.97l-22.16,18.18c-.26.21-.58.32-.89.32Z"/><path class="cls-2" d="M283.4,109.53c-.44,0-.88-.21-1.15-.6-.44-.64-.29-1.51.35-1.95l22.28-15.52c.64-.44,1.51-.29,1.95.35.44.64.29,1.51-.35,1.95l-22.28,15.52c-.24.17-.52.25-.8.25Z"/><path class="cls-2" d="M284.23,116.35c-.48,0-.95-.25-1.21-.69-.39-.67-.18-1.53.49-1.92l21.73-12.87c.67-.39,1.53-.17,1.92.49.39.67.18,1.53-.49,1.92l-21.73,12.87c-.22.13-.47.2-.71.2Z"/><path class="cls-2" d="M295.45,116.92c-.45,0-.9-.22-1.17-.62-.43-.64-.26-1.52.39-1.95l10.03-6.71c.65-.43,1.52-.26,1.95.39.43.64.26,1.52-.39,1.95l-10.03,6.71c-.24.16-.51.24-.78.24Z"/><path class="cls-2" d="M347.58,118.13h-106.59c-.97,0-1.75-.79-1.75-1.75V14.56c0-.97.79-1.75,1.75-1.75s1.75.79,1.75,1.75v100.06h104.84c.97,0,1.75.79,1.75,1.75s-.79,1.75-1.75,1.75Z"/><path class="cls-2" d="M305.92,118.13h-23.02c-.97,0-1.75-.79-1.75-1.75V45.4c0-.97.79-1.75,1.75-1.75h23.02c.97,0,1.75.79,1.75,1.75v70.97c0,.97-.79,1.75-1.75,1.75ZM284.66,114.62h19.51V47.16h-19.51v67.46Z"/><path class="cls-2" d="M245.21,37.51c-.94,0-1.72-.75-1.75-1.7-.03-.97.73-1.78,1.7-1.81,29.98-.93,59.08-12.14,81.93-31.56.74-.63,1.85-.54,2.47.2.63.74.54,1.85-.2,2.47-23.46,19.94-53.32,31.44-84.1,32.4-.02,0-.04,0-.05,0Z"/><path class="cls-2" d="M324.96,21.34c-.17,0-.33-.02-.5-.07-.93-.28-1.46-1.25-1.18-2.18l4.6-15.46-18.88.89c-.96.05-1.79-.7-1.84-1.67-.05-.97.7-1.79,1.67-1.84L330.18,0c.59-.02,1.11.22,1.47.67.35.45.46,1.04.3,1.58l-5.31,17.83c-.23.76-.93,1.25-1.68,1.25Z"/><path class="cls-2" d="M404.17,210.8c-16.2,0-29.38-13.18-29.38-29.38s13.18-29.38,29.38-29.38,29.38,13.18,29.38,29.38-13.18,29.38-29.38,29.38ZM404.17,155.55c-14.27,0-25.87,11.61-25.87,25.87s11.61,25.87,25.87,25.87,25.87-11.61,25.87-25.87-11.61-25.87-25.87-25.87Z"/><path class="cls-3" d="M386.44,178.73s8.72,12.58,14.8,21.05c0,0,18.4-28.88,32.82-36.72,0,0-14.75,5.62-33.69,21.55,0,0-4.48-5.07-13.93-5.88Z"/><path class="cls-2" d="M375.69,166.53c-.33,0-.67-.09-.97-.29l-10.4-6.91c-.81-.54-1.03-1.62-.49-2.43.54-.81,1.62-1.03,2.43-.49l10.4,6.91c.81.54,1.03,1.63.49,2.43-.34.51-.89.78-1.46.78Z"/><path class="cls-2" d="M363.86,172.67c-.92,0-1.69-.71-1.75-1.64-.06-.97.67-1.8,1.64-1.86l6.92-.44c.98-.05,1.8.67,1.86,1.64.06.97-.67,1.8-1.64,1.86l-6.92.44s-.07,0-.11,0Z"/><path class="cls-2" d="M380.53,160.79c-.65,0-1.27-.36-1.57-.98l-3.2-6.44c-.43-.87-.08-1.92.79-2.35.87-.43,1.92-.08,2.35.79l3.2,6.45c.43.87.08,1.92-.79,2.35-.25.12-.52.18-.78.18Z"/><path class="cls-2" d="M361.96,84.47c-.13,0-.27-.02-.4-.06-2.21-.66-4.47-1.3-6.71-1.9-.75-.2-1.19-.97-.99-1.72.2-.75.98-1.19,1.72-.99,2.27.61,4.55,1.25,6.79,1.92.74.22,1.16,1,.94,1.75-.18.61-.74,1-1.34,1Z"/><path class="cls-2" d="M490.27,179.59c-.45,0-.9-.22-1.17-.62-2.49-3.73-5.11-7.44-7.8-11.01-.47-.62-.34-1.5.28-1.97.62-.47,1.5-.34,1.97.28,2.72,3.61,5.38,7.36,7.9,11.14.43.64.26,1.52-.39,1.95-.24.16-.51.24-.78.24ZM473.94,157.91c-.4,0-.79-.17-1.07-.5-2.88-3.41-5.92-6.79-9.01-10.04-.53-.56-.51-1.45.05-1.98.56-.53,1.45-.51,1.98.05,3.13,3.29,6.2,6.71,9.12,10.16.5.59.43,1.48-.16,1.98-.26.22-.59.33-.91.33ZM455.24,138.24c-.34,0-.69-.13-.96-.38-3.27-3.06-6.67-6.07-10.11-8.95-.59-.5-.67-1.38-.18-1.98.5-.59,1.38-.68,1.98-.18,3.48,2.91,6.92,5.95,10.22,9.05.57.53.59,1.42.06,1.98-.28.29-.65.44-1.02.44ZM434.41,120.84c-.29,0-.58-.09-.83-.28-3.6-2.67-7.32-5.27-11.06-7.73-.65-.43-.83-1.3-.4-1.94.43-.65,1.3-.83,1.94-.4,3.79,2.49,7.56,5.12,11.2,7.82.62.46.75,1.34.29,1.96-.28.37-.7.57-1.13.57ZM411.72,105.94c-.24,0-.48-.06-.7-.19-3.89-2.24-7.89-4.4-11.88-6.4-.69-.35-.97-1.19-.62-1.88.35-.69,1.19-.97,1.88-.62,4.04,2.03,8.09,4.21,12.02,6.48.67.39.9,1.25.51,1.92-.26.45-.73.7-1.22.7ZM387.46,93.76c-.19,0-.37-.04-.56-.12-4.11-1.77-8.33-3.45-12.54-4.99-.73-.27-1.1-1.07-.84-1.8.26-.73,1.07-1.1,1.8-.84,4.26,1.55,8.53,3.25,12.69,5.05.71.31,1.04,1.13.73,1.84-.23.53-.75.85-1.29.85Z"/><path class="cls-2" d="M500.93,197.21c-.5,0-.98-.26-1.23-.73-1.09-2-2.25-4.04-3.44-6.07-.39-.67-.17-1.53.5-1.92.67-.39,1.53-.17,1.92.5,1.2,2.05,2.37,4.12,3.48,6.14.37.68.12,1.53-.56,1.9-.21.12-.44.17-.67.17Z"/><path class="cls-2" d="M97.19,181.28c-.26,0-.53-.07-.77-.23-.65-.42-.83-1.29-.41-1.94,1.28-1.96,2.61-3.93,3.95-5.85.44-.64,1.32-.79,1.95-.35.64.44.79,1.32.35,1.95-1.32,1.9-2.64,3.84-3.9,5.78-.27.41-.72.64-1.18.64Z"/><path class="cls-2" d="M109.52,164.15c-.3,0-.61-.1-.87-.3-.61-.48-.71-1.36-.23-1.97,2.91-3.69,5.98-7.34,9.12-10.86.51-.58,1.4-.63,1.98-.11.58.52.63,1.4.11,1.98-3.1,3.48-6.13,7.09-9.01,10.73-.28.35-.69.53-1.1.53ZM128.28,143.12c-.36,0-.72-.14-.99-.41-.55-.55-.54-1.44,0-1.99,3.34-3.32,6.82-6.58,10.34-9.7.58-.51,1.47-.46,1.98.12.51.58.46,1.47-.12,1.98-3.48,3.08-6.92,6.3-10.22,9.58-.27.27-.63.41-.99.41ZM149.4,124.47c-.42,0-.83-.18-1.11-.54-.48-.61-.37-1.49.24-1.97,3.71-2.9,7.55-5.73,11.42-8.4.64-.44,1.51-.28,1.95.36.44.64.28,1.51-.36,1.95-3.82,2.64-7.62,5.43-11.29,8.3-.26.2-.56.3-.86.3ZM172.59,108.46c-.47,0-.94-.24-1.2-.68-.4-.66-.19-1.53.47-1.93,4.03-2.44,8.18-4.79,12.34-6.97.69-.36,1.54-.1,1.9.59.36.69.1,1.53-.59,1.9-4.11,2.16-8.22,4.48-12.2,6.89-.23.14-.48.2-.72.2ZM197.52,95.35c-.53,0-1.04-.31-1.28-.83-.32-.71,0-1.54.7-1.86,4.29-1.94,8.69-3.77,13.09-5.44.72-.27,1.54.09,1.81.81.28.72-.09,1.54-.81,1.81-4.34,1.65-8.7,3.46-12.93,5.38-.19.08-.38.13-.58.13Z"/><path class="cls-2" d="M223.88,85.31c-.6,0-1.15-.38-1.34-.98-.23-.74.18-1.53.92-1.76,2.25-.7,4.53-1.38,6.77-2.01.75-.21,1.52.23,1.73.97.21.75-.23,1.52-.97,1.73-2.22.62-4.47,1.29-6.69,1.98-.14.04-.28.07-.42.07Z"/><path class="cls-2" d="M500.93,39.03c-.97,0-1.75-.79-1.75-1.75v-17.63c0-.97.79-1.75,1.75-1.75s1.75.79,1.75,1.75v17.63c0,.97-.79,1.75-1.75,1.75Z"/><path class="cls-2" d="M509.74,30.22h-17.63c-.97,0-1.75-.79-1.75-1.75s.79-1.75,1.75-1.75h17.63c.97,0,1.75.79,1.75,1.75s-.79,1.75-1.75,1.75Z"/><path class="cls-2" d="M47.83,176.9c-1.74,0-3.54-.66-5.12-2.22-3.47-3.44-2.58-7.96.09-10.66,2.67-2.7,7.19-3.63,10.66-.19h0c3.47,3.44,2.58,7.96-.09,10.66-1.46,1.47-3.46,2.42-5.55,2.42ZM48.34,165.12c-1.27,0-2.4.71-3.05,1.37-1.08,1.09-2.32,3.51-.11,5.7,2.2,2.18,4.62.92,5.7-.17,1.08-1.09,2.32-3.51.11-5.7-.88-.88-1.8-1.2-2.66-1.2Z"/><path class="cls-2" d="M54.4,135.29c-2.63,0-5.33-.99-7.71-3.35-2.99-2.96-4.08-6.71-3.07-10.55,1.1-4.16,4.62-7.72,8.77-8.85,3.83-1.05,7.59.01,10.58,2.97h0c5.24,5.19,3.88,12.03-.16,16.11-2.21,2.23-5.25,3.66-8.41,3.66ZM55.24,115.66c-.71,0-1.36.11-1.93.27-2.98.81-5.52,3.37-6.3,6.36-.48,1.82-.49,4.54,2.15,7.16,3.77,3.73,8.42,2.46,11.16-.29,2.82-2.85,3.97-7.4.18-11.15h0c-1.82-1.8-3.68-2.34-5.25-2.34Z"/><path class="cls-2" d="M93.75,138.96c-2.63,0-5.33-.99-7.71-3.35-2.99-2.96-4.08-6.71-3.07-10.55,1.1-4.16,4.62-7.72,8.77-8.85,3.83-1.05,7.59.01,10.58,2.97h0c5.24,5.19,3.88,12.03-.16,16.11-2.21,2.23-5.25,3.66-8.41,3.66ZM94.59,119.34c-.71,0-1.36.11-1.93.27-2.98.81-5.52,3.37-6.3,6.36-.48,1.82-.49,4.54,2.15,7.16,3.77,3.73,8.42,2.46,11.16-.29,2.82-2.85,3.97-7.4.18-11.15-1.82-1.8-3.68-2.34-5.25-2.34Z"/><path class="cls-2" d="M520.32,148.7c-.97,0-1.75-.79-1.75-1.75v-17.63c0-.97.79-1.75,1.75-1.75s1.75.79,1.75,1.75v17.63c0,.97-.79,1.75-1.75,1.75Z"/><path class="cls-2" d="M529.14,139.88h-17.63c-.97,0-1.75-.79-1.75-1.75s.79-1.75,1.75-1.75h17.63c.97,0,1.75.79,1.75,1.75s-.79,1.75-1.75,1.75Z"/><path class="cls-2" d="M517.9,101.75c-4.88,0-7.44-3.84-7.44-7.63s2.55-7.64,7.44-7.64,7.44,3.84,7.44,7.63-2.56,7.64-7.44,7.64ZM517.9,89.98c-3.1,0-3.93,2.6-3.93,4.13s.83,4.13,3.93,4.13,3.93-2.6,3.93-4.13-.83-4.13-3.93-4.13Z"/><path class="cls-2" d="M549.53,127.48c-7.37,0-11.23-5.81-11.23-11.56,0-2.99.99-5.79,2.79-7.89,2.07-2.41,4.98-3.68,8.44-3.68s6.37,1.27,8.44,3.67c1.8,2.09,2.79,4.89,2.79,7.88,0,5.75-3.86,11.57-11.23,11.57ZM549.53,107.87c-2.4,0-4.4.85-5.77,2.46-1.24,1.44-1.95,3.48-1.95,5.6,0,4.01,2.39,8.05,7.72,8.05,2.4,0,4.4-.85,5.77-2.46,1.24-1.44,1.95-3.48,1.95-5.6,0-4.01-2.39-8.05-7.72-8.05Z"/><path class="cls-1" d="M209.65,270.78c15.91,4,33.54-5.93,39.3-22.15,5.75-16.21-2.51-32.66-18.42-36.66-15.93-4-33.56,5.94-39.31,22.15-5.76,16.22,2.51,32.66,18.44,36.66h0Z"/><path class="cls-2" d="M214.5,270.34c-.12,0-.23-.01-.35-.04l-7.84-1.97c-.38-.1-.71-.35-.9-.7-.19-.35-.22-.76-.09-1.13l1.66-4.68c-2.72-1.07-5.08-2.51-7.03-4.29l-.51-.46c-.42-.38-.58-.98-.39-1.51l3.53-9.93c.15-.43.51-.77.96-.89.44-.12.92-.02,1.27.28l1.32,1.11c1.99,1.66,3.73,2.93,5.16,3.76,1.37.78,2.71,1.35,3.88,1.65,1.55.39,2.41.21,2.78.08.29-.11.59-.3.83-.98.1-.29.08-.46.04-.58-.07-.22-.26-.64-.76-1.27-.24-.3-1.11-1.26-3.64-3.48-2.08-1.83-3.54-3.46-4.46-4.97-.94-1.54-1.55-3.26-1.81-5.11-.27-1.89-.01-3.96.77-6.15,1.44-4.05,3.98-6.95,7.57-8.63,1.74-.81,3.64-1.28,5.66-1.39l2.03-5.71c.24-.68.96-1.07,1.66-.89l7.84,1.97c.38.1.71.35.89.7.19.35.22.76.09,1.13l-1.78,5.02c.53.25,1.04.51,1.53.79,1.66.94,3.39,2.14,5.14,3.58l.86.7c.29.24.47.58.51.96.03.38-.08.75-.33,1.04l-6.36,7.49c-.49.57-1.34.66-1.94.2l-.89-.7c-1.49-1.19-2.86-2.15-3.97-2.78-1.01-.55-2.02-.94-3.05-1.2-.88-.22-1.56-.22-2.02,0-.4.2-.62.46-.79.92-.08.21-.1.39-.08.54.05.18.18.5.53.94.24.29,1.07,1.17,3.78,3.6,3.21,2.85,5.18,5.44,6.02,7.9.86,2.59.75,5.42-.32,8.43-1.47,4.15-4.16,7.1-7.99,8.77-1.75.76-3.68,1.21-5.74,1.33l-2,5.63c-.2.57-.73.93-1.31.93ZM208.48,265.98l5.11,1.28,1.89-5.33c.2-.56.72-.93,1.31-.93,2.06-.02,3.95-.4,5.63-1.13,3.09-1.35,5.27-3.75,6.47-7.14.86-2.41.96-4.63.3-6.59-.67-1.96-2.43-4.22-5.23-6.71-2.18-1.95-3.56-3.28-4.1-3.94-.54-.69-.9-1.37-1.07-2.03,0-.03-.01-.05-.02-.08-.13-.66-.07-1.35.18-2.06.41-1.16,1.13-1.98,2.2-2.51,1.09-.53,2.38-.6,3.94-.2,1.24.31,2.49.81,3.72,1.47,1.22.69,2.65,1.68,4.17,2.89l4.56-5.37c-1.54-1.25-3.06-2.29-4.51-3.11-.75-.43-1.56-.82-2.42-1.15-.71-.28-1.06-1.06-.81-1.78l1.71-4.81-5.11-1.28-1.92,5.42c-.2.56-.72.93-1.31.93-.04,0-.07,0-.1,0-1.98.01-3.74.39-5.39,1.16-2.88,1.35-4.94,3.71-6.11,7.03-.63,1.76-.84,3.38-.63,4.82.21,1.47.69,2.83,1.43,4.04.77,1.27,2.05,2.69,3.91,4.33,1.35,1.19,3.14,2.83,3.96,3.82.65.82,1.07,1.55,1.28,2.25.22.76.18,1.53-.09,2.3-.48,1.34-1.32,2.24-2.5,2.68-1.18.44-2.72.45-4.44.01-1.42-.35-3-1.02-4.59-1.93-1.52-.88-3.32-2.17-5.34-3.85l-2.53,7.14c1.95,1.73,4.37,3.09,7.2,4.04.36.12.65.38.81.72.16.34.19.73.06,1.08l-1.61,4.54Z"/><path class="cls-2" d="M214.5,270.34c-.12,0-.23-.01-.35-.04l-7.84-1.97c-.38-.1-.71-.35-.9-.7-.19-.35-.22-.76-.09-1.13l1.66-4.68c-2.72-1.07-5.08-2.51-7.03-4.29l-.51-.46c-.42-.38-.58-.98-.39-1.51l3.53-9.93c.15-.43.51-.77.96-.89.44-.12.92-.02,1.27.28l1.32,1.11c1.99,1.66,3.73,2.93,5.16,3.76,1.37.78,2.71,1.35,3.88,1.65,1.55.39,2.41.21,2.78.08.29-.11.59-.3.83-.98.1-.29.08-.46.04-.58-.07-.22-.26-.64-.76-1.27-.24-.3-1.11-1.26-3.64-3.48-2.08-1.83-3.54-3.46-4.46-4.97-.94-1.54-1.55-3.26-1.81-5.11-.27-1.89-.01-3.96.77-6.15,1.44-4.05,3.98-6.95,7.57-8.63,1.74-.81,3.64-1.28,5.66-1.39l2.03-5.71c.24-.68.96-1.07,1.66-.89l7.84,1.97c.38.1.71.35.89.7.19.35.22.76.09,1.13l-1.78,5.02c.53.25,1.04.51,1.53.79,1.66.94,3.39,2.14,5.14,3.58l.86.7c.29.24.47.58.51.96.03.37-.08.75-.33,1.03l-6.36,7.49c-.49.57-1.34.66-1.94.2l-.89-.7c-1.49-1.19-2.86-2.15-3.97-2.78-1.01-.55-2.02-.94-3.05-1.2-.88-.22-1.56-.22-2.02,0-.4.2-.62.46-.79.92-.08.23-.1.42-.07.58.02.09.15.43.52.9.24.29,1.07,1.17,3.78,3.6,3.21,2.85,5.18,5.44,6.02,7.9.86,2.59.75,5.42-.32,8.43-1.47,4.15-4.16,7.1-7.99,8.77-1.75.76-3.68,1.21-5.74,1.33l-2,5.63c-.2.57-.73.93-1.31.93ZM208.48,265.98l5.11,1.28,1.89-5.33c.2-.56.72-.93,1.31-.93,2.06-.02,3.95-.4,5.63-1.13,3.09-1.35,5.27-3.75,6.47-7.14.86-2.41.96-4.63.3-6.59-.67-1.96-2.43-4.22-5.23-6.71-2.18-1.95-3.56-3.28-4.1-3.94-.54-.69-.9-1.37-1.07-2.03-.15-.74-.09-1.43.16-2.14.41-1.16,1.13-1.98,2.2-2.51,1.09-.53,2.38-.6,3.94-.2,1.24.31,2.5.81,3.72,1.47,1.22.69,2.65,1.68,4.17,2.89l4.56-5.37c-1.54-1.25-3.06-2.29-4.51-3.11-.75-.43-1.56-.82-2.42-1.15-.71-.28-1.06-1.06-.81-1.78l1.71-4.81-5.11-1.28-1.92,5.42c-.2.56-.72.93-1.31.93-.04,0-.07,0-.1,0-1.98.01-3.74.39-5.39,1.16-2.88,1.35-4.94,3.71-6.11,7.03-.63,1.76-.84,3.38-.63,4.82.21,1.47.69,2.83,1.43,4.04.77,1.27,2.05,2.69,3.91,4.33,1.35,1.19,3.14,2.82,3.96,3.82.65.82,1.07,1.55,1.28,2.25.22.76.18,1.53-.09,2.31-.48,1.34-1.32,2.24-2.5,2.67-1.18.44-2.72.45-4.44.01-1.42-.35-3-1.02-4.59-1.93-1.52-.88-3.32-2.17-5.34-3.85l-2.53,7.14c1.95,1.73,4.37,3.09,7.2,4.04.36.12.65.38.81.72.16.34.19.73.06,1.08l-1.61,4.54Z"/><path class="cls-2" d="M219.57,285.44c-.52,0-1.03-.29-1.27-.79l-2.2-4.5c-.34-.7-.05-1.54.64-1.88.7-.34,1.54-.05,1.88.64l2.2,4.5c.34.7.05,1.54-.64,1.88-.2.1-.4.14-.61.14Z"/><path class="cls-2" d="M230.8,283.77c-.51,0-1.01-.28-1.26-.76l-2.64-5.15c-.35-.69-.08-1.54.61-1.89.69-.35,1.54-.08,1.89.61l2.64,5.15c.35.69.08,1.54-.61,1.89-.2.1-.42.15-.63.15Z"/><path class="cls-2" d="M239.94,279.57c-.43,0-.86-.19-1.13-.56l-3.02-4.02c-.46-.62-.34-1.5.28-1.96.62-.47,1.5-.34,1.96.28l3.02,4.02c.46.62.34,1.5-.28,1.96-.25.19-.54.28-.83.28Z"/><path class="cls-2" d="M247.6,274.22c-.48,0-.94-.24-1.21-.67l-2.59-4.25c-.4-.66-.2-1.53.47-1.93.66-.4,1.53-.19,1.93.47l2.59,4.25c.4.66.2,1.53-.47,1.93-.23.14-.47.2-.72.21Z"/><path class="cls-2" d="M252.73,269.36c-.45,0-.9-.21-1.17-.62l-3.02-4.45c-.43-.64-.27-1.51.37-1.95.64-.44,1.51-.27,1.95.37l3.02,4.45c.43.64.27,1.52-.37,1.95-.24.16-.51.24-.78.24Z"/><path class="cls-2" d="M257.34,261.61c-.51,0-1-.27-1.25-.75l-2.38-4.49c-.36-.69-.1-1.53.58-1.9.69-.36,1.53-.1,1.9.58l2.38,4.49c.36.69.1,1.53-.58,1.9-.21.11-.43.16-.65.16Z"/><path class="cls-2" d="M260.34,255.99c-.42,0-.83-.18-1.11-.53l-2.87-3.6c-.48-.61-.38-1.49.22-1.97.61-.49,1.49-.38,1.97.22l2.87,3.6c.48.61.38,1.49-.22,1.97-.26.2-.56.3-.86.31Z"/><path class="cls-2" d="M261.89,248.49c-.44,0-.87-.2-1.15-.58l-2.83-3.91c-.45-.63-.31-1.51.32-1.96.63-.45,1.51-.31,1.96.32l2.83,3.91c.45.63.31,1.51-.32,1.96-.25.18-.53.26-.81.27Z"/><path class="cls-2" d="M194.65,242.3c-.05,0-.11,0-.16,0-.77-.08-1.33-.78-1.24-1.55.95-8.72,6.34-16.72,14.06-20.89.68-.37,1.53-.11,1.9.57.37.68.11,1.53-.57,1.9-6.92,3.73-11.75,10.9-12.61,18.72-.08.72-.68,1.25-1.38,1.25Z"/><path class="cls-2" d="M220.8,286.01c-3.24.02-6.49-.35-9.68-1.15-7.06-1.77-13.24-5.51-17.89-10.8l-4.47-5.09c-.64-.73-.57-1.84.16-2.47.73-.64,1.84-.57,2.48.16h0c4.18,4.75,9.74,8.11,16.1,9.71,19.01,4.77,40.08-7.12,46.96-26.52,4.32-12.16,2.2-24.77-5.67-33.74h-.01s0-.01,0-.01c-.64-.73-.57-1.84.16-2.47.73-.64,1.84-.57,2.48.16h0s0,0,0,0l4.47,5.09c8.73,9.94,11.1,23.86,6.35,37.24-6.32,17.81-23.7,29.78-41.44,29.9ZM207.38,279.95c1.47.61,3,1.12,4.59,1.51,19.01,4.78,40.08-7.12,46.96-26.52,2.54-7.16,2.85-14.48,1.07-21.12.53,5.59-.19,11.44-2.24,17.2-7.38,20.81-29.86,33.65-50.38,28.93Z"/><path class="cls-2" d="M216.33,280.92c-3.24.02-6.49-.35-9.69-1.15-9.78-2.46-17.73-8.59-22.38-17.28-4.96-9.25-5.62-20.18-1.86-30.75,7.47-21.06,30.41-33.96,51.14-28.75h0c9.77,2.46,17.71,8.59,22.36,17.27,4.96,9.25,5.62,20.18,1.86,30.76-6.32,17.81-23.7,29.78-41.44,29.9ZM223.82,205.34c-16.3.11-32.29,11.15-38.11,27.57-3.42,9.64-2.83,19.55,1.65,27.93,4.18,7.8,11.33,13.32,20.14,15.53,19.01,4.78,40.08-7.12,46.96-26.52,3.42-9.64,2.83-19.56-1.65-27.93-4.18-7.8-11.33-13.31-20.13-15.52h0c-2.92-.73-5.9-1.07-8.86-1.05Z"/><path class="cls-1" d="M371.97,284.83v10.76c0,2.78-2.61,5.37-7.1,7.54v9.03c0,1.75-1.05,3.43-2.93,4.97-.3.24-.61.48-.95.72.33-.23.66-.46.95-.7,1.88,1.54,2.92,3.21,2.92,4.96v10.77c0,6.16-12.75,11.36-30.32,13.1-3.04.3-6.22.49-9.51.57-1.1.02-2.19.04-3.31.04-23.82,0-43.15-6.13-43.15-13.71v-10.77c0-1.75,1.04-3.42,2.93-4.96.79.64,1.72,1.25,2.78,1.84-1.06-.6-1.99-1.2-2.78-1.85-1.88-1.54-2.92-3.22-2.92-4.97v-10.77c0-2.78,2.61-5.36,7.1-7.54v-9.02c0-.15.01-.29.02-.43-3.47-1.97-5.43-4.23-5.43-6.66v-10.77c0-1.75,1.04-3.42,2.92-4.96-1.88-1.54-2.92-3.22-2.92-4.97v-10.77c0-1.44.71-2.85,2.03-4.16-.2-.54-.31-1.08-.31-1.64v-10.77c.02-7.57,19.34-13.72,43.15-13.72s43.12,6.15,43.14,13.72v10.77c0,1.45-.69,2.85-2.01,4.16.2.54.31,1.08.31,1.64v10.77c0,1.75-1.03,3.42-2.92,4.97,1.89,1.55,2.92,3.22,2.92,4.96v10.77c0,.15-.01.3-.02.43,3.46,1.97,5.42,4.24,5.42,6.66Z"/><path class="cls-2" d="M284.47,319.22c-.11,0-.22-.01-.34-.04-.75-.18-1.21-.94-1.03-1.7.65-2.66.67-5.48.06-8.15-.17-.76.3-1.51,1.05-1.68.76-.17,1.51.3,1.68,1.05.71,3.09.69,6.36-.07,9.45-.16.64-.73,1.07-1.36,1.07Z"/><path class="cls-2" d="M291.5,322.13c-.75,0-1.37-.59-1.4-1.35l-.32-8.62c-.03-.78.57-1.43,1.35-1.46.82-.05,1.43.57,1.46,1.35l.32,8.62c.03.78-.57,1.43-1.35,1.46-.02,0-.04,0-.05,0Z"/><path class="cls-2" d="M299.47,324.01c-.75,0-1.37-.6-1.4-1.35l-.3-8.71c-.03-.77.58-1.43,1.35-1.45.79-.03,1.43.58,1.45,1.35l.3,8.71c.03.77-.58,1.43-1.35,1.45-.02,0-.03,0-.05,0Z"/><path class="cls-2" d="M307.98,324.75h0c-.78,0-1.4-.64-1.4-1.41l.05-7.68c0-.77.63-1.4,1.4-1.4h0c.78,0,1.4.64,1.4,1.41l-.05,7.68c0,.77-.63,1.4-1.4,1.4Z"/><path class="cls-2" d="M316.38,325.41c-.72,0-1.34-.56-1.4-1.29l-.63-7.77c-.06-.77.51-1.45,1.29-1.51.79-.06,1.45.51,1.51,1.29l.63,7.77c.06.77-.51,1.45-1.29,1.51-.04,0-.08,0-.12,0Z"/><path class="cls-2" d="M324.99,325.97h-.02c-.77,0-1.4-.65-1.39-1.42l.1-8.34c0-.77.64-1.39,1.4-1.39h.02c.78,0,1.4.65,1.39,1.42l-.1,8.34c0,.77-.64,1.39-1.4,1.39Z"/><path class="cls-2" d="M334.54,326.71c-.68,0-1.28-.5-1.39-1.2-.47-3.17-.66-6.41-.55-9.62.02-.78.69-1.39,1.45-1.36.77.02,1.38.67,1.36,1.45-.1,3.04.08,6.11.52,9.11.11.77-.42,1.48-1.18,1.6-.07,0-.14.02-.21.02Z"/><path class="cls-2" d="M341.19,324.85c-.76,0-1.39-.61-1.4-1.38l-.15-8.06c-.01-.78.6-1.41,1.38-1.43h.03c.76,0,1.39.61,1.4,1.38l.15,8.06c.01.78-.6,1.41-1.38,1.43h-.03Z"/><path class="cls-2" d="M349.25,323.43c-.07,0-.14,0-.21-.02-.77-.12-1.29-.83-1.18-1.6.39-2.6.54-5.25.43-7.88-.03-.77.57-1.43,1.34-1.46.77-.05,1.43.57,1.46,1.34.12,2.81-.04,5.64-.46,8.42-.11.69-.7,1.19-1.39,1.19Z"/><path class="cls-2" d="M355.82,320.53c-.72,0-1.34-.56-1.4-1.29l-.59-7.5c-.06-.77.52-1.45,1.29-1.51.77-.05,1.45.52,1.51,1.29l.59,7.5c.06.77-.52,1.45-1.29,1.51-.04,0-.08,0-.11,0Z"/><path class="cls-2" d="M360.35,317.91s-.03,0-.05,0c-.78-.02-1.38-.67-1.36-1.45l.22-6.93c.02-.76.65-1.36,1.4-1.36.02,0,.03,0,.05,0,.78.02,1.38.67,1.36,1.45l-.22,6.93c-.02.76-.65,1.36-1.4,1.36Z"/><path class="cls-2" d="M321.71,316.87c-1.12,0-2.24-.01-3.35-.04-.57-.02-1.12-.03-1.67-.05h-.13c-1.06-.05-2.11-.08-3.14-.15l-.25-.02c-.92-.06-1.85-.13-2.75-.2l-.51-.05c-.4-.04-.8-.07-1.19-.12l-1.67-.17c-.32-.03-.63-.07-.96-.12l-.49-.06c-.36-.05-.71-.09-1.06-.15-.54-.06-1.15-.14-1.75-.24-.46-.06-.95-.15-1.43-.23-2.54-.42-4.99-.93-7.25-1.51l-.52-.14c-.22-.06-.45-.12-.66-.19-1.18-.31-2.4-.69-3.57-1.11-.37-.12-.79-.28-1.2-.43l-.28-.1c-.18-.07-.31-.12-.42-.17-.44-.17-.86-.34-1.27-.52-.63-.28-1.19-.54-1.73-.81l-.74-.39c-.35-.19-.68-.37-1-.57-.18-.1-.39-.23-.58-.37-.21-.12-.41-.26-.61-.4-.12-.07-.32-.21-.52-.36-2.78-2.09-4.18-4.37-4.18-6.82s1.4-5.88,8.1-9.12c.54-.26,1.18-.23,1.7.09.51.32.82.88.82,1.49v1.74c0,5.65,17,11.96,41.39,11.96,4.34,0,8.59-.21,12.65-.61,9.01-.88,16.9-2.72,22.22-5.19.6-.28,1.32-.19,1.84.23.52.42.76,1.1.61,1.75-.05.21-.13.41-.24.6-.13.27-.29.54-.46.8-.19.3-.43.62-.7.94-.17.2-.35.39-.53.59-.34.34-.66.65-1.02.94-.28.23-.49.4-.71.57-2.04,1.51-4.72,2.85-7.98,4-.15.05-.31.11-.49.17-.24.09-.55.2-.88.29-.51.17-1.11.35-1.72.53l-.42.12c-.18.05-.36.1-.54.15-2.46.69-5.29,1.31-8.39,1.83l-1.36.23c-.58.09-1.12.16-1.68.23-1.01.15-2.08.28-3.18.41-.41.04-.8.09-1.22.12-.55.06-1.17.12-1.79.16-.87.08-1.8.14-2.73.21-1.14.07-2.19.11-3.25.15h-.15c-.52.03-1.06.05-1.6.06-1.12.03-2.25.04-3.4.04ZM284.03,296.77c-2.41,1.53-3.7,3.13-3.7,4.63,0,1.59,1.5,3.05,2.75,3.99.13.1.24.18.36.25.22.15.35.25.5.33.04.03.09.05.13.08.14.09.28.19.43.27.31.19.6.35.9.51l.61.32c.49.24,1.01.49,1.57.73.37.16.79.33,1.22.5.05.02.1.04.15.07,0,0,.17.06.17.06l.27.1c.36.13.72.27,1.1.39,1.13.4,2.25.75,3.38,1.05.24.07.44.12.63.18l.52.14c2.12.55,4.46,1.03,6.92,1.44.46.08.91.16,1.36.22.59.09,1.14.17,1.7.24.39.06.7.1,1.02.14l.54.07c.3.04.58.07.85.1l1.67.17c.41.05.77.08,1.13.12l.5.05c.86.07,1.77.13,2.68.2l.24.02c.99.06,2.02.1,3.04.14h.15c.54.03,1.07.05,1.61.06,2.18.05,4.42.05,6.57,0,.51-.01,1.02-.03,1.53-.05h.17c1.03-.05,2.05-.08,3.05-.15.99-.07,1.9-.14,2.79-.21.6-.04,1.17-.09,1.74-.16.44-.03.8-.07,1.15-.11,1.05-.12,2.08-.25,3.09-.4.56-.07,1.07-.13,1.58-.21l1.34-.22c2.99-.5,5.7-1.09,8.07-1.76l.92-.26c.53-.16,1.09-.33,1.64-.51.32-.09.54-.17.76-.25l.46-.16c.46-.16.9-.32,1.33-.49-3.89.9-8.23,1.6-12.83,2.05-4.17.42-8.54.63-12.99.63-20.9,0-43.07-5-44.79-14.3Z"/><path class="cls-2" d="M321.71,327.63c-18.3,0-34.52-3.58-41.32-9.13-2.37-1.93-3.57-4.06-3.57-6.33v-10.77c0-.97.79-1.75,1.75-1.75s1.75.79,1.75,1.75c0,1.59,1.5,3.05,2.75,3.99.13.1.24.18.36.25.22.15.35.25.5.33.04.03.09.05.13.08.14.09.28.19.43.27.31.19.6.35.9.51l.61.32c.49.24,1.01.49,1.57.73l.19.08c.32.14.66.28.99.4.07.02.13.05.19.08,0,0,.17.06.17.06.46.18.91.34,1.37.49,1.15.4,2.28.75,3.4,1.06.23.07.42.12.62.17l.52.14c2.12.55,4.46,1.03,6.92,1.44l.19.03c.39.07.78.13,1.17.19.59.09,1.14.17,1.7.24.55.09,1.03.15,1.51.2.35.05.62.08.9.11l.87.1c.25.03.5.05.75.07.45.05.81.09,1.18.12l.5.05c.86.07,1.77.13,2.68.2l.24.02c.99.06,2.02.1,3.04.14h.15c.54.03,1.07.05,1.61.06,2.18.05,4.42.05,6.57,0,.51-.01,1.02-.03,1.53-.05h.17c1.03-.05,2.05-.08,3.05-.15.95-.05,1.88-.13,2.79-.21.6-.04,1.17-.09,1.74-.16.44-.03.8-.07,1.15-.11,1.05-.12,2.08-.25,3.09-.4.56-.07,1.07-.13,1.58-.21.45-.07.88-.14,1.32-.22,3.01-.51,5.72-1.1,8.09-1.76l.92-.26c.53-.16,1.09-.33,1.64-.51.32-.09.54-.17.76-.25l.46-.16c2.95-1.04,5.32-2.21,7.06-3.5.18-.13.38-.29.56-.44.29-.24.53-.47.75-.69.1-.11.25-.26.38-.42.16-.19.3-.38.42-.57.11-.17.2-.31.27-.47.01-.03.03-.05.04-.08.17-.42.49-.76.91-.95.11-.05.22-.1.32-.15.55-.3,1.2-.28,1.74.03.53.32.86.89.86,1.51v9.03c0,2.27-1.2,4.4-3.57,6.34-5.08,4.13-15.4,7.23-28.33,8.5-3.02.31-6.27.5-9.66.59-1.11.03-2.21.04-3.35.04ZM280.32,307.68v4.48c0,1.45,1.24,2.77,2.28,3.61,6.12,4.99,21.84,8.34,39.11,8.34,1.1,0,2.18-.01,3.26-.04,3.3-.08,6.46-.27,9.4-.57,12.08-1.19,21.97-4.08,26.46-7.73,1.04-.85,2.28-2.16,2.28-3.61v-4.48c-.18.15-.41.33-.63.5-2.04,1.51-4.72,2.85-7.98,4-.15.05-.31.11-.49.17-.24.09-.55.2-.88.29-.51.17-1.11.35-1.72.53l-.42.12c-.18.05-.36.1-.54.15-2.46.69-5.29,1.31-8.39,1.83-.48.08-.94.17-1.41.24-.53.08-1.07.15-1.63.22-1.01.15-2.08.28-3.18.41-.41.04-.8.09-1.22.12-.55.06-1.17.12-1.79.16-.91.08-1.87.16-2.85.22-1.02.06-2.08.1-3.13.14h-.15c-.52.03-1.06.05-1.6.06-2.22.05-4.51.05-6.75,0-.57-.02-1.12-.03-1.67-.05h-.13c-1.06-.05-2.11-.08-3.14-.15l-.25-.02c-.92-.06-1.85-.13-2.75-.2l-.51-.05c-.4-.04-.8-.07-1.19-.12-.19,0-.49-.04-.79-.07l-.88-.1c-.32-.03-.63-.07-.96-.12-.48-.05-1.02-.12-1.55-.21-.54-.06-1.15-.14-1.75-.24-.39-.05-.81-.13-1.24-.2l-.18-.03c-2.55-.42-5-.93-7.26-1.51l-.52-.14c-.22-.06-.45-.12-.66-.19-1.16-.32-2.36-.69-3.55-1.1-.5-.16-1.03-.35-1.53-.55-.14-.05-.25-.09-.36-.14-.37-.14-.73-.29-1.08-.44l-.21-.09c-.63-.28-1.19-.54-1.73-.81l-.74-.39c-.35-.19-.68-.37-1-.57-.18-.1-.39-.23-.58-.37-.21-.12-.41-.26-.61-.4-.12-.07-.32-.21-.52-.36-.23-.18-.46-.35-.67-.53Z"/><path class="cls-2" d="M291.57,302.66c-.11,0-.22-.01-.34-.04-.75-.18-1.21-.94-1.03-1.7.65-2.66.67-5.48.06-8.15-.17-.76.3-1.51,1.05-1.68.75-.18,1.51.3,1.68,1.05.71,3.09.69,6.36-.07,9.45-.16.64-.73,1.07-1.36,1.07Z"/><path class="cls-2" d="M298.6,305.56c-.75,0-1.37-.59-1.4-1.35l-.32-8.62c-.03-.78.57-1.43,1.35-1.46.83-.07,1.43.57,1.46,1.35l.32,8.62c.03.78-.57,1.43-1.35,1.46-.02,0-.04,0-.05,0Z"/><path class="cls-2" d="M306.57,307.44c-.75,0-1.37-.6-1.4-1.35l-.31-8.71c-.03-.77.58-1.43,1.35-1.45.76-.06,1.42.58,1.45,1.35l.31,8.71c.03.77-.58,1.42-1.35,1.45-.02,0-.03,0-.05,0Z"/><path class="cls-2" d="M315.08,308.19h0c-.78,0-1.4-.64-1.4-1.41l.05-7.68c0-.77.63-1.4,1.4-1.4h0c.78,0,1.4.64,1.4,1.41l-.05,7.68c0,.77-.63,1.4-1.4,1.4Z"/><path class="cls-2" d="M323.48,308.84c-.72,0-1.34-.56-1.4-1.29l-.63-7.77c-.06-.77.51-1.45,1.29-1.51.8-.06,1.45.51,1.51,1.29l.63,7.77c.06.77-.51,1.45-1.29,1.51-.04,0-.08,0-.12,0Z"/><path class="cls-2" d="M332.1,309.4h-.02c-.77,0-1.4-.65-1.39-1.42l.1-8.34c0-.77.64-1.39,1.4-1.39h.02c.78,0,1.4.65,1.39,1.42l-.1,8.34c0,.77-.64,1.39-1.4,1.39Z"/><path class="cls-2" d="M341.64,310.15c-.68,0-1.28-.5-1.39-1.2-.47-3.17-.66-6.41-.55-9.62.03-.78.7-1.41,1.45-1.36.77.02,1.38.67,1.36,1.45-.1,3.04.08,6.11.52,9.11.11.77-.42,1.48-1.18,1.6-.07,0-.14.02-.21.02Z"/><path class="cls-2" d="M348.29,308.28c-.76,0-1.39-.61-1.4-1.38l-.15-8.06c-.01-.78.6-1.41,1.38-1.43h.03c.76,0,1.39.61,1.4,1.38l.15,8.06c.01.78-.6,1.41-1.38,1.43h-.03Z"/><path class="cls-2" d="M356.36,306.87c-.07,0-.14,0-.21-.02-.77-.12-1.29-.83-1.18-1.6.39-2.6.54-5.25.43-7.88-.03-.77.57-1.43,1.34-1.46.77-.04,1.43.57,1.46,1.34.12,2.81-.04,5.64-.46,8.42-.11.69-.7,1.19-1.39,1.19Z"/><path class="cls-2" d="M362.92,303.97c-.72,0-1.34-.56-1.4-1.29l-.59-7.5c-.06-.77.52-1.45,1.29-1.51.79-.05,1.45.52,1.51,1.29l.59,7.5c.06.77-.52,1.45-1.29,1.51-.04,0-.08,0-.11,0Z"/><path class="cls-2" d="M367.45,301.35s-.03,0-.05,0c-.78-.02-1.38-.67-1.36-1.45l.22-6.93c.02-.76.65-1.36,1.4-1.36.02,0,.03,0,.05,0,.78.02,1.38.67,1.36,1.45l-.22,6.93c-.02.76-.65,1.36-1.4,1.36Z"/><path class="cls-2" d="M328.82,300.3c-.65,0-1.28,0-1.91-.01h-.02c-.46,0-.94-.01-1.43-.03-1.1-.03-2.2-.07-3.28-.12-.7-.03-1.42-.07-2.14-.12-.31,0-.68-.04-1.05-.06l-1.58-.12c-1.06-.1-2.08-.19-3.08-.3l-1.99-.25c-.83-.11-1.64-.22-2.44-.34-.88-.14-1.73-.28-2.56-.43-.55-.09-1.11-.19-1.66-.3l-1.2-.26c-.5-.09-1.02-.21-1.54-.34-.75-.17-1.49-.35-2.21-.55-1.37-.36-2.74-.77-4.17-1.26l-.92-.33c-.7-.27-1.33-.52-1.94-.76-1.12-.47-2.19-.98-3.17-1.53-.22-.11-.47-.26-.71-.42l-.07-.04c-.18-.1-.34-.2-.51-.31-.4-.25-.78-.52-1.14-.78-2.78-2.09-4.18-4.37-4.18-6.81,0-.21.02-.42.04-.61.06-.59.41-1.11.94-1.38.53-.27,1.16-.26,1.67.04,7.38,4.21,21.5,6.82,36.85,6.82,4.34,0,8.59-.21,12.65-.61,18.33-1.8,28.33-6.94,28.73-11.08.06-.59.41-1.11.94-1.39.53-.27,1.16-.26,1.68.03,5.21,2.97,6.3,6.09,6.3,8.18,0,2.45-1.4,4.74-4.17,6.8-.33.24-.63.45-.97.67l-.18.11c-.24.16-.49.32-.76.46-.23.15-.59.35-.96.55l-.22.12c-.41.21-.79.39-1.19.58l-.39.18c-.28.13-.57.26-.87.38,0,0-.06.03-.17.08,0,0-.17.07-.17.07-.78.32-1.62.63-2.48.93-.51.17-1.01.34-1.51.5-.03,0-.06.02-.09.03-1.01.32-2.03.62-3.04.87-.05.01-.1.02-.15.03-.49.13-1,.25-1.51.38-.57.14-1.15.26-1.73.39-.58.12-1.18.25-1.79.36l-1.29.25c-.32.06-.64.12-.98.16-1.14.2-2.39.39-3.67.55l-1.66.2c-.14.01-.23.02-.33.04-.04,0-.15.02-.19.02-.25.03-.51.05-.78.07-.43.05-.88.11-1.33.14-.05,0-.1,0-.15,0,0,0,0,0-.01,0h0s-.02,0-.04,0c-.5.05-.91.08-1.31.11-1.77.15-3.69.27-5.81.34-.49.03-1.04.04-1.58.06h-.29c-.45.01-.95.03-1.47.03-.52.01-1.09.01-1.66.01ZM289.15,287.95c.34.32.69.61,1.03.86.29.21.61.43.96.66.13.08.26.16.39.24l.14.08c.2.12.34.21.5.29.94.52,1.89.97,2.88,1.39.57.23,1.17.47,1.8.71l.87.31c1.34.46,2.63.85,3.93,1.19.69.19,1.4.36,2.14.53.48.12.93.22,1.39.31l1.22.26c.52.11,1.04.2,1.57.29.81.15,1.64.28,2.48.42.76.12,1.55.22,2.35.33l1.94.24c.96.1,1.97.2,2.98.29l1.53.12c.34.02.68.05,1.01.06.73.06,1.41.1,2.09.12,1.07.05,2.14.09,3.21.12.47.01.93.03,1.4.03.66.01,1.29.03,1.92.01.52,0,1.05,0,1.57-.01.53,0,1-.01,1.46-.02h.29c.46-.01.97-.03,1.47-.05,2.1-.07,3.96-.18,5.71-.33.43-.03.81-.06,1.19-.1.06,0,.22-.01.29-.02h0c.42-.04.82-.09,1.23-.13.04,0,.18-.02.21-.02.2-.01.39-.03.59-.05.13-.02.32-.05.52-.06l1.59-.19c1.22-.16,2.42-.34,3.59-.54.35-.05.62-.09.88-.14l1.27-.24c.59-.11,1.15-.22,1.7-.34.55-.12,1.1-.24,1.64-.37.54-.13,1.08-.27,1.6-.4.05-.01.1-.02.15-.03.93-.24,1.87-.51,2.8-.81.05-.01.09-.03.14-.04.44-.13.87-.28,1.29-.42.79-.28,1.57-.57,2.3-.87-.02,0,.05-.03.16-.07.04-.02.13-.06.17-.07.26-.11.52-.22.77-.34l.32-.14c.39-.18.72-.34,1.05-.51l.18-.1c.31-.17.61-.33.91-.52.29-.15.44-.26.6-.36l.18-.12c.27-.18.53-.36.8-.55,1.23-.92,2.73-2.37,2.73-3.96,0-1.26-.94-2.62-2.7-3.94-3.51,6.66-17.82,10.38-31.1,11.69-4.17.42-8.54.63-12.99.63-13.37,0-25.93-1.96-34.27-5.25Z"/><path class="cls-2" d="M328.82,311.06c-21.76,0-44.89-5.42-44.89-15.46v-10.77c0-.97.79-1.75,1.75-1.75s1.75.79,1.75,1.75c0,1.59,1.5,3.05,2.75,3.99.29.21.61.43.96.66.15.1.3.19.45.28.05.02.09.05.14.08.14.09.28.18.44.25.94.52,1.89.97,2.88,1.39.57.23,1.17.47,1.8.71l.87.31c1.34.46,2.63.85,3.93,1.19.66.18,1.34.34,2.03.5,0,0,.13.03.14.03.45.11.9.21,1.36.3.46.11.84.18,1.22.26.52.11,1.04.2,1.57.29.82.15,1.62.29,2.46.41.79.12,1.58.23,2.37.33l1.94.24c.96.1,1.97.2,2.98.29l1.53.12c.34.02.67.05,1,.06.73.06,1.41.1,2.09.12,1.07.05,2.14.09,3.21.12.46.01.93.03,1.4.03.66.01,1.29.03,1.92.01.52,0,1.05,0,1.57-.01.51,0,1-.01,1.46-.02h.29c.46-.01.97-.03,1.47-.05,2.1-.07,3.96-.18,5.71-.33.43-.03.81-.06,1.19-.1.06,0,.22,0,.29-.02h0c.44-.04.89-.1,1.34-.15.31-.02.5-.04.7-.06l.2-.02c.11-.02.21-.03.32-.04l1.59-.19c1.22-.16,2.42-.34,3.59-.54.33-.05.61-.09.88-.14l1.26-.24c.6-.11,1.16-.23,1.71-.35.55-.12,1.1-.24,1.64-.37.56-.12,1.06-.25,1.56-.39.06-.02.13-.03.19-.04.93-.24,1.87-.51,2.8-.81.05-.01.09-.03.14-.04.44-.13.87-.28,1.29-.42.81-.27,1.57-.57,2.31-.87,0,0,0,0,0,0,0,0,.08-.04.16-.07.04-.02.13-.06.17-.07.36-.15.71-.3,1.04-.46.38-.17.7-.33,1.02-.49l.26-.14c.31-.17.61-.33.91-.52.33-.18.53-.31.72-.44.33-.21.59-.4.85-.59,1.23-.92,2.73-2.37,2.73-3.96,0-.97.79-1.75,1.75-1.75s1.75.79,1.75,1.75v10.77c0,2.38-1.4,5.89-8.1,9.12-.11.06-.3.15-.49.23-5.65,2.62-13.94,4.57-23.33,5.49-4.17.42-8.54.63-12.99.63ZM287.43,291.11v4.49c0,5.65,17,11.96,41.39,11.96,4.34,0,8.59-.21,12.65-.61,9.01-.88,16.9-2.72,22.22-5.19.13-.06.23-.1.34-.16,4.02-1.94,6.19-4.06,6.19-6v-4.49c-.21.18-.43.35-.66.52-.33.24-.63.45-.97.67-.28.19-.59.39-.94.57-.23.15-.59.35-.96.55l-.22.12s-.15.08-.17.09c-.36.18-.73.36-1.1.53-.35.17-.76.35-1.18.52,0,0-.06.03-.17.08,0,0-.17.08-.18.08-.8.32-1.63.64-2.49.94-.48.16-.99.33-1.49.49-.03,0-.06.02-.09.03-1.01.32-2.03.62-3.04.87-.04,0-.08.02-.12.02-.52.14-1.04.27-1.58.39-.53.13-1.12.25-1.7.38-.58.12-1.18.25-1.79.36l-1.29.25c-.31.06-.65.12-.97.16-1.15.2-2.4.39-3.68.55l-2.12.26c-.3.03-.56.06-.83.07-.36.05-.85.1-1.33.14-.05,0-.1,0-.15,0,0,0,0,0-.01,0h0s-.02,0-.04,0c-.5.05-.91.08-1.31.11-1.77.15-3.69.27-5.81.34-.49.03-1.04.04-1.58.06h-.29c-.45.01-.97.03-1.47.03-1.13.03-2.38.02-3.57,0h-.02c-.46,0-.95-.01-1.43-.03-1.1-.03-2.2-.07-3.28-.12-.7-.03-1.42-.07-2.14-.12-.31,0-.68-.04-1.05-.06l-1.58-.12c-1.06-.1-2.08-.19-3.09-.3l-1.99-.25c-.83-.11-1.64-.22-2.44-.34-.86-.12-1.71-.27-2.55-.42-.56-.1-1.12-.19-1.66-.31-.42-.08-.85-.17-1.26-.27-.44-.08-.96-.2-1.48-.33-.81-.19-1.53-.36-2.21-.55-1.37-.36-2.74-.77-4.17-1.26l-.95-.33c-.68-.26-1.31-.51-1.92-.76-1.12-.47-2.19-.98-3.17-1.53-.2-.1-.43-.23-.65-.37-.22-.12-.44-.26-.64-.39-.4-.25-.78-.52-1.14-.78-.23-.18-.46-.35-.67-.53Z"/><path class="cls-2" d="M356.11,297.2c-.78,0-1.49-.52-1.7-1.31-.24-.93.31-1.89,1.24-2.14,1.03-.28,2.01-.55,2.96-.85.92-.3,1.91.21,2.2,1.13.3.92-.21,1.91-1.13,2.21-1.04.34-2.1.64-3.14.91-.15.04-.29.05-.43.05Z"/><path class="cls-2" d="M360.6,295.85c-.73,0-1.41-.45-1.66-1.18-.32-.91.16-1.9,1.07-2.23.58-.21,1.15-.41,1.7-.62.21-.08.42-.17.63-.25.89-.36,1.92.07,2.28.96.36.89-.06,1.92-.96,2.28-.22.09-.45.18-.68.27-.59.23-1.2.46-1.83.67-.19.06-.38.09-.56.09Z"/><path class="cls-2" d="M284.47,339.93c-.11,0-.22-.01-.34-.04-.75-.18-1.21-.94-1.03-1.7.65-2.66.67-5.48.06-8.15-.17-.76.3-1.51,1.05-1.68.76-.18,1.51.3,1.68,1.05.71,3.1.69,6.36-.07,9.45-.16.64-.73,1.07-1.36,1.07Z"/><path class="cls-2" d="M291.5,342.84c-.75,0-1.37-.59-1.4-1.35l-.32-8.62c-.03-.78.57-1.43,1.35-1.46.82-.04,1.43.57,1.46,1.35l.32,8.62c.03.78-.57,1.43-1.35,1.46-.02,0-.04,0-.05,0Z"/><path class="cls-2" d="M299.47,344.71c-.75,0-1.37-.6-1.4-1.35l-.3-8.71c-.03-.77.58-1.43,1.35-1.45.79-.05,1.43.58,1.45,1.35l.3,8.71c.03.77-.58,1.43-1.35,1.45-.02,0-.03,0-.05,0Z"/><path class="cls-2" d="M307.98,345.46h0c-.78,0-1.4-.64-1.4-1.41l.05-7.68c0-.77.68-1.44,1.41-1.4.78,0,1.4.64,1.4,1.41l-.05,7.68c0,.77-.63,1.4-1.4,1.4Z"/><path class="cls-2" d="M316.38,346.12c-.72,0-1.34-.56-1.4-1.29l-.63-7.77c-.06-.77.51-1.45,1.29-1.51.79-.05,1.45.52,1.51,1.29l.63,7.77c.06.77-.51,1.45-1.29,1.51-.04,0-.08,0-.12,0Z"/><path class="cls-2" d="M324.99,346.68h-.02c-.77,0-1.4-.65-1.39-1.42l.1-8.34c0-.77.64-1.39,1.4-1.39h.02c.78,0,1.4.65,1.39,1.42l-.1,8.34c0,.77-.64,1.39-1.4,1.39Z"/><path class="cls-2" d="M334.54,347.42c-.68,0-1.28-.5-1.39-1.2-.47-3.17-.66-6.41-.55-9.62.02-.78.69-1.4,1.45-1.36.77.02,1.38.67,1.36,1.45-.1,3.04.08,6.11.52,9.11.11.77-.42,1.48-1.18,1.6-.07,0-.14.02-.21.02Z"/><path class="cls-2" d="M341.19,345.55c-.76,0-1.39-.61-1.4-1.38l-.15-8.06c-.01-.78.6-1.41,1.38-1.43h.03c.76,0,1.39.61,1.4,1.38l.15,8.06c.01.78-.6,1.41-1.38,1.43h-.03Z"/><path class="cls-2" d="M349.25,344.14c-.07,0-.14,0-.21-.02-.77-.12-1.29-.83-1.18-1.6.39-2.6.54-5.25.43-7.88-.03-.77.57-1.43,1.34-1.46.77-.05,1.43.57,1.46,1.34.12,2.81-.04,5.64-.46,8.42-.11.69-.7,1.19-1.39,1.19Z"/><path class="cls-2" d="M355.82,341.24c-.72,0-1.34-.56-1.4-1.29l-.59-7.5c-.06-.77.52-1.45,1.29-1.51.77-.06,1.45.52,1.51,1.29l.59,7.5c.06.77-.52,1.45-1.29,1.51-.04,0-.08,0-.11,0Z"/><path class="cls-2" d="M360.35,338.62s-.03,0-.05,0c-.78-.02-1.38-.67-1.36-1.45l.22-6.93c.02-.76.65-1.36,1.4-1.36.02,0,.03,0,.05,0,.78.02,1.38.67,1.36,1.45l-.22,6.93c-.02.76-.65,1.36-1.4,1.36Z"/><path class="cls-2" d="M321.71,337.58c-17.66,0-33.65-3.41-40.74-8.68-2.76-2.07-4.16-4.36-4.16-6.8,0-2.26,1.2-4.39,3.57-6.32.65-.53,1.57-.52,2.22,0,6.12,4.99,21.83,8.34,39.1,8.34s33-3.35,39.12-8.34c.65-.53,1.57-.53,2.22,0,2.37,1.93,3.57,4.06,3.57,6.32,0,2.44-1.4,4.73-4.15,6.8-7.11,5.28-23.1,8.68-40.75,8.68ZM281.61,319.42c-.86.92-1.29,1.82-1.29,2.69,0,1.59,1.5,3.05,2.75,3.99,6.41,4.77,21.94,7.98,38.64,7.98s32.22-3.21,38.66-7.99c1.25-.93,2.74-2.39,2.74-3.98,0-.87-.43-1.77-1.29-2.69-7.4,5.02-22.83,8.22-40.11,8.22s-32.7-3.19-40.09-8.22Z"/><path class="cls-2" d="M321.71,348.34c-21.77,0-44.9-5.42-44.9-15.46v-10.77c0-.97.79-1.75,1.75-1.75s1.75.79,1.75,1.75c0,1.6,1.5,3.05,2.75,3.99,6.42,4.77,21.96,7.98,38.64,7.98s32.22-3.21,38.65-7.98c1.25-.94,2.75-2.39,2.75-3.99,0-.97.79-1.75,1.75-1.75s1.75.79,1.75,1.75v10.77c0,10.04-23.14,15.46-44.9,15.46ZM280.32,328.39v4.49c0,5.65,17,11.95,41.39,11.95s41.39-6.3,41.39-11.95v-4.49c-.21.17-.43.34-.65.51-7.1,5.27-23.09,8.68-40.74,8.68s-33.64-3.41-40.74-8.68c-.23-.17-.45-.34-.66-.52Z"/><path class="cls-2" d="M286.18,264.08c-.11,0-.22-.01-.34-.04-.75-.18-1.21-.95-1.03-1.7.65-2.66.67-5.48.06-8.15-.17-.76.3-1.51,1.05-1.68.75-.17,1.51.3,1.68,1.05.71,3.1.69,6.36-.07,9.45-.16.64-.73,1.07-1.36,1.07Z"/><path class="cls-2" d="M293.21,266.99c-.75,0-1.37-.59-1.4-1.35l-.32-8.62c-.03-.77.58-1.43,1.35-1.45.77-.06,1.43.58,1.45,1.35l.32,8.62c.03.78-.57,1.43-1.35,1.46-.02,0-.04,0-.05,0Z"/><path class="cls-2" d="M301.18,268.86c-.75,0-1.37-.6-1.4-1.35l-.3-8.71c-.03-.77.58-1.43,1.35-1.45.77-.06,1.43.58,1.45,1.35l.3,8.71c.03.77-.58,1.43-1.35,1.45-.02,0-.03,0-.05,0Z"/><path class="cls-2" d="M309.69,269.59h0c-.77,0-1.4-.62-1.4-1.39l.04-7.68c0-.77.63-1.4,1.4-1.4h0c.78,0,1.4.64,1.4,1.41l-.04,7.64c0,.77-.63,1.42-1.4,1.42Z"/><path class="cls-2" d="M318.09,270.27c-.72,0-1.34-.56-1.4-1.29l-.63-7.77c-.06-.77.51-1.45,1.29-1.51.8-.05,1.45.52,1.51,1.29l.63,7.77c.06.77-.51,1.45-1.29,1.51-.04,0-.08,0-.11,0Z"/><path class="cls-2" d="M326.7,270.83h-.02c-.77,0-1.4-.65-1.39-1.42l.1-8.34c0-.77.64-1.39,1.4-1.39h.02c.77,0,1.4.65,1.39,1.42l-.1,8.34c0,.77-.64,1.39-1.4,1.39Z"/><path class="cls-2" d="M336.25,271.57c-.68,0-1.28-.5-1.39-1.2-.47-3.18-.66-6.42-.55-9.62.02-.78.68-1.41,1.45-1.36.77.02,1.38.67,1.36,1.45-.1,3.03.08,6.1.52,9.11.11.77-.42,1.48-1.18,1.6-.07,0-.14.02-.21.02Z"/><path class="cls-2" d="M342.9,269.71c-.76,0-1.39-.61-1.4-1.38l-.15-8.06c-.01-.78.6-1.41,1.38-1.43h.03c.76,0,1.39.61,1.4,1.38l.15,8.06c.01.78-.6,1.41-1.38,1.43h-.03Z"/><path class="cls-2" d="M350.96,268.29c-.07,0-.14,0-.21-.02-.77-.12-1.29-.83-1.18-1.6.39-2.6.54-5.25.43-7.88-.03-.77.57-1.43,1.34-1.46.73-.04,1.43.57,1.46,1.34.12,2.81-.04,5.64-.46,8.42-.1.69-.7,1.19-1.39,1.19Z"/><path class="cls-2" d="M357.52,265.39c-.72,0-1.34-.56-1.4-1.29l-.59-7.5c-.06-.77.52-1.45,1.29-1.51.77-.06,1.45.52,1.51,1.29l.59,7.5c.06.77-.52,1.45-1.29,1.51-.04,0-.08,0-.11,0Z"/><path class="cls-2" d="M362.05,262.77s-.03,0-.05,0c-.78-.02-1.38-.67-1.36-1.45l.23-6.93c.02-.76.65-1.36,1.4-1.36.02,0,.03,0,.05,0,.78.02,1.38.67,1.36,1.45l-.23,6.93c-.02.76-.65,1.36-1.4,1.36Z"/><path class="cls-2" d="M323.42,261.74c-17.66,0-33.65-3.41-40.74-8.68-2.77-2.06-4.17-4.35-4.17-6.8,0-1.89.85-3.71,2.54-5.39.42-.42,1.03-.6,1.62-.47.58.13,1.06.54,1.27,1.11.37,1,1.34,2.08,2.8,3.13,6.65,4.73,21.72,7.78,38.4,7.78,4.34,0,8.59-.21,12.65-.61.02,0,.05,0,.07,0,4.22-.41,8.15-1.03,11.68-1.83,7.4-1.65,12.89-3.99,15.49-6.59.42-.42,1.03-.6,1.61-.48.58.12,1.06.54,1.27,1.1.28.75.42,1.51.42,2.26,0,2.45-1.4,4.74-4.17,6.8-7.09,5.27-23.08,8.68-40.74,8.68ZM282.2,245.27c-.12.34-.18.67-.18.99,0,1.6,1.5,3.05,2.76,3.99,6.42,4.77,21.95,7.98,38.64,7.98s32.22-3.21,38.64-7.98c.6-.45,1.26-1.02,1.78-1.66-4.04,2.34-9.32,3.87-13.54,4.81-3.69.84-7.79,1.48-12.17,1.91-.02,0-.04,0-.06,0-4.15.41-8.51.62-12.94.62-17.36,0-33.23-3.31-40.44-8.44-.99-.72-1.83-1.46-2.49-2.22Z"/><path class="cls-2" d="M323.42,272.5c-18.31,0-34.53-3.58-41.34-9.13-2.95-2.4-3.57-4.77-3.57-6.33v-10.77c0-.97.79-1.75,1.75-1.75s1.75.79,1.75,1.75c0,1.6,1.5,3.05,2.76,3.99,2.37,1.76,6.11,3.38,10.81,4.68,7.69,2.13,17.57,3.31,27.83,3.31s20.14-1.17,27.83-3.31c4.73-1.3,8.46-2.92,10.81-4.68,1.26-.94,2.76-2.39,2.76-3.99,0-.97.79-1.75,1.75-1.75s1.75.79,1.75,1.75v10.77c0,2.26-1.19,4.39-3.55,6.33-5.04,4.13-15.38,7.23-28.35,8.51-.02,0-.05,0-.07,0-4.16.41-8.51.62-12.94.62ZM282.02,252.54v4.49c0,1.45,1.24,2.77,2.28,3.61,6.12,4.99,21.84,8.34,39.12,8.34,4.33,0,8.58-.21,12.65-.61.02,0,.05,0,.07,0,12.09-1.2,21.97-4.09,26.41-7.72,1.5-1.23,2.27-2.45,2.27-3.62v-4.49c-.21.18-.43.35-.66.52-2.73,2.04-6.76,3.81-11.97,5.25-7.98,2.21-18.19,3.43-28.76,3.43s-20.79-1.22-28.77-3.43c-5.18-1.43-9.21-3.19-11.97-5.24-.23-.17-.45-.35-.66-.52Z"/><path class="cls-2" d="M325.13,239.93c-21.43,0-32.41-4.72-35.26-6.16-2.17-1.12-3.52-2.17-4.11-3.22-.31-.54-.3-1.21.02-1.75,2.21-3.76,16.25-9.33,39.35-9.33s37.17,5.58,39.36,9.34c.31.54.32,1.2,0,1.74-.59,1.05-1.93,2.1-4.1,3.21-2.85,1.45-13.8,6.17-35.27,6.17ZM289.82,229.69c.39.26.92.59,1.65.96,2.67,1.35,13.01,5.78,33.67,5.78s31.01-4.43,33.67-5.78c.72-.37,1.26-.69,1.64-.96-3.37-2.26-14.78-6.71-35.32-6.71s-31.93,4.45-35.31,6.71Z"/><path class="cls-2" d="M287.89,247.52c-.11,0-.22-.01-.34-.04-.75-.18-1.21-.94-1.03-1.7.65-2.66.67-5.48.06-8.15-.17-.76.3-1.51,1.05-1.68.75-.17,1.51.3,1.68,1.05.71,3.1.69,6.36-.07,9.45-.16.64-.73,1.07-1.36,1.07Z"/><path class="cls-2" d="M294.92,250.42c-.75,0-1.37-.59-1.4-1.35l-.32-8.62c-.03-.78.57-1.43,1.35-1.46.82-.07,1.43.57,1.46,1.35l.32,8.62c.03.78-.57,1.43-1.35,1.46-.02,0-.04,0-.05,0Z"/><path class="cls-2" d="M302.89,252.3c-.75,0-1.37-.6-1.4-1.35l-.3-8.71c-.03-.77.58-1.43,1.35-1.45.76-.05,1.42.58,1.45,1.35l.3,8.71c.03.77-.58,1.43-1.35,1.45-.02,0-.03,0-.05,0Z"/><path class="cls-2" d="M311.4,253.05h0c-.78,0-1.4-.64-1.4-1.41l.05-7.68c0-.77.63-1.4,1.4-1.4h0c.78,0,1.4.64,1.4,1.41l-.05,7.68c0,.77-.63,1.4-1.4,1.4Z"/><path class="cls-2" d="M319.8,253.71c-.72,0-1.34-.56-1.4-1.29l-.63-7.77c-.06-.77.51-1.45,1.29-1.51.76-.05,1.45.51,1.51,1.29l.63,7.77c.06.77-.51,1.45-1.29,1.51-.04,0-.08,0-.11,0Z"/><path class="cls-2" d="M328.41,254.26h-.02c-.77,0-1.4-.65-1.39-1.42l.1-8.34c0-.77.58-1.37,1.42-1.39.78,0,1.4.65,1.39,1.42l-.1,8.34c0,.77-.64,1.39-1.4,1.39Z"/><path class="cls-2" d="M337.96,254.99c-.78,0-1.4-.6-1.4-1.38v-.05c0-.78.63-1.4,1.4-1.4s1.4.63,1.4,1.4-.63,1.43-1.4,1.43Z"/><path class="cls-2" d="M337.95,254.96c-.69,0-1.29-.5-1.39-1.2-.46-3.24-.65-6.45-.54-9.56.03-.77.63-1.4,1.45-1.35.77.03,1.38.68,1.35,1.45-.1,2.94.07,5.99.51,9.07.11.77-.42,1.48-1.19,1.59-.07,0-.14.01-.2.01Z"/><path class="cls-2" d="M344.61,253.14c-.76,0-1.39-.61-1.4-1.38l-.15-8.06c-.01-.78.6-1.41,1.38-1.43h.03c.76,0,1.39.61,1.4,1.38l.15,8.06c.01.78-.6,1.41-1.38,1.43h-.03Z"/><path class="cls-2" d="M352.67,251.73c-.07,0-.14,0-.21-.02-.77-.12-1.29-.83-1.18-1.6.39-2.6.54-5.25.43-7.88-.03-.77.57-1.43,1.34-1.46.79-.05,1.43.57,1.46,1.34.12,2.81-.04,5.64-.46,8.42-.11.69-.7,1.19-1.39,1.19Z"/><path class="cls-2" d="M359.24,248.83c-.72,0-1.34-.56-1.4-1.29l-.59-7.5c-.06-.77.52-1.45,1.29-1.51.76-.06,1.45.52,1.51,1.29l.59,7.5c.06.77-.52,1.45-1.29,1.51-.04,0-.08,0-.11,0Z"/><path class="cls-2" d="M363.76,246.21s-.03,0-.05,0c-.78-.02-1.38-.67-1.36-1.45l.22-6.93c.02-.76.65-1.36,1.4-1.36.02,0,.03,0,.05,0,.78.02,1.38.67,1.36,1.45l-.22,6.93c-.02.76-.65,1.36-1.4,1.36Z"/><path class="cls-2" d="M325.14,245.17c-17.65,0-33.64-3.4-40.75-8.67-2.76-2.07-4.16-4.35-4.16-6.8,0-10.05,23.14-15.48,44.9-15.48s44.89,5.42,44.89,15.48c0,2.45-1.4,4.74-4.15,6.8-7.11,5.27-23.1,8.68-40.74,8.68ZM325.14,217.73c-24.39,0-41.4,6.31-41.4,11.97,0,1.6,1.49,3.05,2.75,3.99,6.43,4.77,21.97,7.98,38.65,7.98s32.2-3.21,38.64-7.98c1.25-.93,2.74-2.39,2.74-3.98,0-5.66-17-11.97-41.38-11.97Z"/><path class="cls-2" d="M325.13,255.93c-17.36,0-33.23-3.31-40.44-8.44-2.07-1.49-3.43-3.09-4.05-4.77-.28-.74-.42-1.5-.42-2.25v-10.77c0-.97.79-1.75,1.75-1.75s1.75.79,1.75,1.75c0,1.6,1.5,3.05,2.76,3.99,1.11.82,2.5,1.61,4.14,2.34,2.3,1.04,5.06,1.96,8.21,2.75,7.55,1.9,16.64,2.9,26.3,2.9,8.9,0,17.39-.86,24.54-2.49,3.09-.69,5.89-1.52,8.33-2.47,2.34-.91,4.29-1.93,5.79-3.03,1.25-.93,2.75-2.38,2.75-3.98,0-.97.79-1.75,1.75-1.75s1.75.79,1.75,1.75v10.77c0,1.91-.86,3.73-2.54,5.4-3.91,3.93-11.51,6.26-17.19,7.53-3.69.84-7.79,1.48-12.17,1.91-.02,0-.04,0-.06,0-4.15.41-8.51.62-12.94.62ZM283.73,235.97v4.49c0,.33.07.68.2,1.03.37,1.01,1.34,2.09,2.81,3.14,6.65,4.73,21.72,7.78,38.4,7.78,4.34,0,8.59-.21,12.65-.61.02,0,.05,0,.07,0,4.22-.41,8.15-1.03,11.68-1.83,7.4-1.65,12.89-3.99,15.49-6.59,1.01-1,1.51-1.97,1.51-2.92v-4.49c-.21.18-.43.35-.66.52-1.75,1.29-3.97,2.46-6.6,3.48-2.59,1.01-5.57,1.9-8.83,2.62-7.39,1.69-16.14,2.58-25.31,2.58-9.94,0-19.33-1.04-27.15-3.01-3.35-.83-6.31-1.82-8.79-2.95-1.87-.83-3.48-1.74-4.8-2.72-.23-.17-.45-.35-.66-.52Z"/><path class="cls-2" d="M286.18,284.79c-.11,0-.22-.01-.34-.04-.75-.18-1.21-.95-1.03-1.7.65-2.66.67-5.48.06-8.15-.17-.76.3-1.51,1.05-1.68.75-.18,1.51.3,1.68,1.05.71,3.1.69,6.36-.07,9.45-.16.64-.73,1.07-1.36,1.07Z"/><path class="cls-2" d="M293.21,287.7c-.75,0-1.37-.59-1.4-1.35l-.32-8.62c-.03-.77.58-1.43,1.35-1.45.77-.04,1.43.58,1.45,1.35l.32,8.62c.03.78-.57,1.43-1.35,1.46-.02,0-.04,0-.05,0Z"/><path class="cls-2" d="M301.18,289.57c-.75,0-1.37-.6-1.4-1.35l-.3-8.71c-.03-.77.58-1.43,1.35-1.45.77-.07,1.43.58,1.45,1.35l.3,8.71c.03.77-.58,1.43-1.35,1.45-.02,0-.03,0-.05,0Z"/><path class="cls-2" d="M309.69,290.32h0c-.78,0-1.4-.64-1.4-1.41l.04-7.68c0-.77.63-1.4,1.4-1.4h0c.78,0,1.4.64,1.4,1.41l-.04,7.68c0,.77-.63,1.4-1.4,1.4Z"/><path class="cls-2" d="M318.09,290.98c-.72,0-1.34-.56-1.4-1.29l-.63-7.77c-.06-.77.51-1.45,1.29-1.51.8-.05,1.45.52,1.51,1.29l.63,7.77c.06.77-.51,1.45-1.29,1.51-.04,0-.08,0-.11,0Z"/><path class="cls-2" d="M326.7,291.54h-.02c-.77,0-1.4-.65-1.39-1.42l.1-8.34c0-.77.64-1.39,1.4-1.39h.02c.77,0,1.4.65,1.39,1.42l-.1,8.34c0,.77-.64,1.39-1.4,1.39Z"/><path class="cls-2" d="M336.25,292.28c-.68,0-1.28-.5-1.39-1.2-.47-3.18-.66-6.42-.55-9.62.02-.78.68-1.42,1.45-1.36.77.02,1.38.67,1.36,1.45-.1,3.03.08,6.1.52,9.11.11.77-.42,1.48-1.18,1.6-.07,0-.14.02-.21.02Z"/><path class="cls-2" d="M342.9,290.42c-.76,0-1.39-.61-1.4-1.38l-.15-8.06c-.01-.78.6-1.41,1.38-1.43h.03c.76,0,1.39.61,1.4,1.38l.15,8.06c.01.78-.6,1.41-1.38,1.43h-.03Z"/><path class="cls-2" d="M350.96,289c-.07,0-.14,0-.21-.02-.77-.12-1.29-.83-1.18-1.6.39-2.6.54-5.25.43-7.88-.03-.77.57-1.43,1.34-1.46.73-.04,1.43.57,1.46,1.34.12,2.81-.04,5.64-.46,8.41-.1.69-.7,1.19-1.39,1.19Z"/><path class="cls-2" d="M357.52,286.1c-.72,0-1.34-.56-1.4-1.29l-.59-7.5c-.06-.77.52-1.45,1.29-1.51.77-.05,1.45.52,1.51,1.29l.59,7.5c.06.77-.52,1.45-1.29,1.51-.04,0-.08,0-.11,0Z"/><path class="cls-2" d="M362.05,283.48s-.03,0-.05,0c-.78-.02-1.38-.67-1.36-1.45l.23-6.93c.03-.78.75-1.39,1.45-1.36.78.02,1.38.67,1.36,1.45l-.23,6.93c-.02.76-.65,1.36-1.4,1.36Z"/><path class="cls-2" d="M323.42,282.45c-17.66,0-33.65-3.41-40.74-8.68-2.77-2.06-4.17-4.35-4.17-6.8,0-2.26,1.2-4.39,3.57-6.32.65-.53,1.57-.53,2.22,0,6.12,4.99,21.84,8.34,39.12,8.34,4.33,0,8.58-.21,12.65-.61.02,0,.05,0,.07,0,12.09-1.2,21.97-4.09,26.41-7.72.65-.53,1.58-.53,2.22,0,2.36,1.94,3.55,4.06,3.55,6.32,0,2.45-1.4,4.74-4.17,6.8-7.09,5.27-23.08,8.68-40.74,8.68ZM283.31,264.28c-.86.92-1.29,1.82-1.29,2.69,0,1.6,1.5,3.05,2.76,3.99,6.42,4.77,21.95,7.98,38.64,7.98s32.22-3.21,38.64-7.98c1.26-.94,2.76-2.39,2.76-3.99,0-.87-.43-1.77-1.28-2.68-5.39,3.66-15.12,6.4-27.11,7.59-.02,0-.05,0-.07,0-4.16.41-8.51.62-12.94.62-17.28,0-32.71-3.19-40.11-8.22Z"/><path class="cls-2" d="M323.42,293.2c-15.93,0-30.72-2.79-38.59-7.28-4.19-2.38-6.32-5.14-6.32-8.18v-10.77c0-.97.79-1.75,1.75-1.75s1.75.79,1.75,1.75c0,1.6,1.5,3.05,2.76,3.99,2.12,1.58,5.36,3.05,9.35,4.26,7.88,2.4,18.28,3.73,29.29,3.73,13.7,0,26.58-2.1,34.46-5.62,1.67-.74,3.07-1.54,4.19-2.37,1.26-.94,2.76-2.39,2.76-3.99,0-.97.79-1.75,1.75-1.75s1.75.79,1.75,1.75v10.77c0,.21-.02.42-.04.61-.93,9.65-23.82,14.86-44.87,14.86ZM282.02,273.25v4.49c0,1.65,1.61,3.47,4.55,5.13,7.38,4.21,21.5,6.82,36.85,6.82,23.72,0,40.84-6.16,41.38-11.69,0-.09.02-.18.02-.26v-4.49c-.21.18-.43.35-.66.52-1.32.98-2.95,1.91-4.85,2.76-8.3,3.71-21.72,5.92-35.89,5.92-11.34,0-22.11-1.38-30.3-3.88-4.44-1.34-7.95-2.96-10.43-4.8-.23-.17-.45-.35-.66-.52Z"/><path class="cls-2" d="M282.63,221.13c-.49,0-.98-.21-1.33-.61l-7.87-9.12c-.63-.73-.55-1.84.18-2.47.73-.64,1.84-.55,2.47.18l7.87,9.12c.63.73.55,1.84-.18,2.47-.33.29-.74.43-1.14.43Z"/><path class="cls-2" d="M288.23,219.37c-.74,0-1.43-.47-1.67-1.22l-3.58-11.09c-.3-.92.21-1.91,1.13-2.21.92-.3,1.91.21,2.21,1.13l3.58,11.09c.3.92-.21,1.91-1.13,2.21-.18.06-.36.09-.54.09Z"/><path class="cls-2" d="M294.1,216.48c-.9,0-1.67-.69-1.75-1.6l-.62-7.25c-.08-.96.63-1.81,1.6-1.9.98-.11,1.81.63,1.9,1.6l.62,7.24c.08.96-.63,1.82-1.6,1.9-.05,0-.1,0-.15,0Z"/><path class="cls-2" d="M278.57,226.16c-.22,0-.45-.04-.67-.13l-10.61-4.39c-.89-.37-1.32-1.4-.95-2.29.37-.89,1.4-1.32,2.29-.95l10.61,4.39c.89.37,1.32,1.4.95,2.29-.28.68-.93,1.08-1.62,1.08Z"/><path class="cls-1" d="M227.53,322.72c.67,2.88.64,5.92-.06,8.8"/><path class="cls-1" d="M251.02,329.36c-.02,2.56-.03,5.12-.04,7.68"/><path class="cls-1" d="M258.75,329.93c.21,2.59.42,5.18.63,7.77"/><path class="cls-1" d="M284.04,329.07c.05,2.69.1,5.37.15,8.06"/><path class="cls-1" d="M292.7,327.57c.11,2.72-.04,5.45-.45,8.15"/><path class="cls-1" d="M298.22,325.32c.2,2.5.4,5,.59,7.5"/><path class="cls-1" d="M303.57,323.27c-.08,2.31-.15,4.62-.23,6.93"/><path class="cls-1" d="M229.25,306.15c.66,2.88.64,5.92-.07,8.8"/><path class="cls-1" d="M243.88,311.01c.1,2.9.2,5.81.3,8.71"/><path class="cls-1" d="M252.73,312.79c-.01,2.56-.03,5.12-.04,7.68"/><path class="cls-1" d="M260.46,313.36c.21,2.59.42,5.18.63,7.77"/><path class="cls-1" d="M285.75,312.51c.05,2.69.1,5.37.15,8.06"/><path class="cls-1" d="M294.41,311.01c.11,2.72-.04,5.45-.45,8.15"/><path class="cls-1" d="M299.93,308.75c.2,2.5.4,5,.59,7.5"/><path class="cls-1" d="M305.28,306.7c-.08,2.31-.15,4.62-.23,6.93"/><path class="cls-1" d="M227.53,343.42c.66,2.88.64,5.92-.06,8.8"/><path class="cls-1" d="M251.02,350.06c-.02,2.56-.03,5.12-.04,7.68"/><path class="cls-1" d="M258.75,350.64c.21,2.59.42,5.18.63,7.77"/><path class="cls-1" d="M284.04,349.78c.05,2.69.1,5.37.15,8.06"/><path class="cls-1" d="M292.7,348.28c.11,2.72-.04,5.45-.45,8.15"/><path class="cls-1" d="M303.57,343.98c-.08,2.31-.15,4.62-.23,6.93"/><path class="cls-1" d="M309.57,309.3c0,1.45-.7,2.85-2.01,4.15.2.55.31,1.1.31,1.64v10.77c0,1.75-1.03,3.42-2.92,4.97,1.89,1.56,2.92,3.23,2.92,4.97v10.77c0,.14-.02.29-.04.43-.27,2.88-3.35,5.54-8.39,7.7-5.39,2.32-13.04,4.09-21.9,4.96-3.04.3-6.22.5-9.51.57-1.08.04-2.19.05-3.31.05-8.23,0-15.93-.74-22.49-2.01-2.94-.57-5.65-1.25-8.07-2.03-2.8-.88-5.22-1.91-7.16-3.02-3.47-1.97-5.43-4.23-5.43-6.65v-10.77c0-1.75,1.04-3.43,2.92-4.97-1.88-1.53-2.92-3.22-2.92-4.97v-10.77c0-1.44.71-2.84,2.01-4.15-.2-.54-.31-1.1-.31-1.64v-10.77c0,.61.12,1.19.36,1.76-.23-.58-.35-1.17-.35-1.76,0-7.56,19.33-13.72,43.15-13.72s43.13,6.16,43.13,13.72c0,.6-.12,1.18-.35,1.76.24-.57.36-1.16.36-1.76v10.77Z"/><path class="cls-2" d="M227.47,332.91c-.11,0-.22-.01-.34-.04-.75-.18-1.21-.94-1.03-1.7.65-2.66.67-5.48.06-8.15-.17-.76.3-1.51,1.05-1.68.76-.18,1.51.3,1.68,1.05.71,3.1.69,6.36-.07,9.45-.16.64-.73,1.07-1.36,1.07Z"/><path class="cls-2" d="M234.5,335.82c-.75,0-1.37-.59-1.4-1.35l-.32-8.62c-.03-.78.57-1.43,1.35-1.46.82-.04,1.43.57,1.46,1.35l.32,8.62c.03.78-.57,1.43-1.35,1.46-.02,0-.04,0-.05,0Z"/><path class="cls-2" d="M242.47,337.7c-.75,0-1.37-.6-1.4-1.35l-.3-8.71c-.03-.77.58-1.43,1.35-1.45.76-.08,1.43.58,1.45,1.35l.3,8.71c.03.77-.58,1.43-1.35,1.45-.02,0-.03,0-.05,0Z"/><path class="cls-2" d="M250.98,338.44h0c-.78,0-1.4-.64-1.4-1.41l.05-7.68c0-.77.63-1.4,1.4-1.4h0c.78,0,1.4.64,1.4,1.41l-.05,7.68c0,.77-.63,1.4-1.4,1.4Z"/><path class="cls-2" d="M259.38,339.1c-.72,0-1.34-.56-1.4-1.29l-.63-7.77c-.06-.77.51-1.45,1.29-1.51.77-.05,1.45.51,1.51,1.29l.63,7.77c.06.77-.51,1.45-1.29,1.51-.04,0-.08,0-.11,0Z"/><path class="cls-2" d="M267.99,339.66h-.02c-.77,0-1.4-.65-1.39-1.42l.1-8.34c0-.77.64-1.39,1.4-1.39h.02c.78,0,1.4.65,1.39,1.42l-.1,8.34c0,.77-.64,1.39-1.4,1.39Z"/><path class="cls-2" d="M277.54,340.4c-.68,0-1.28-.5-1.39-1.2-.47-3.18-.66-6.42-.55-9.62.03-.77.7-1.43,1.45-1.35.77.03,1.38.67,1.35,1.45-.1,3.03.07,6.1.52,9.11.11.77-.42,1.48-1.18,1.6-.07,0-.14.02-.21.02Z"/><path class="cls-2" d="M284.19,338.54c-.76,0-1.39-.61-1.4-1.38l-.15-8.06c-.01-.78.6-1.41,1.38-1.43h.03c.76,0,1.39.61,1.4,1.38l.15,8.06c.01.77-.6,1.41-1.38,1.43h-.03Z"/><path class="cls-2" d="M292.25,337.12c-.07,0-.14,0-.21-.02-.77-.12-1.29-.83-1.18-1.6.39-2.6.54-5.25.43-7.88-.03-.77.57-1.43,1.34-1.46.77-.05,1.43.57,1.46,1.34.12,2.81-.04,5.64-.46,8.42-.11.69-.7,1.19-1.39,1.19Z"/><path class="cls-2" d="M298.82,334.22c-.72,0-1.34-.56-1.4-1.29l-.59-7.5c-.06-.77.52-1.45,1.29-1.51.76-.06,1.45.52,1.51,1.29l.59,7.5c.06.77-.52,1.45-1.29,1.51-.04,0-.08,0-.11,0Z"/><path class="cls-2" d="M303.35,331.6s-.03,0-.05,0c-.77-.02-1.38-.67-1.36-1.45l.22-6.93c.02-.76.65-1.36,1.4-1.36.02,0,.03,0,.05,0,.78.02,1.38.67,1.36,1.45l-.22,6.93c-.02.76-.65,1.36-1.4,1.36Z"/><path class="cls-2" d="M264.71,330.57c-17.66,0-33.65-3.41-40.74-8.68-2.77-2.06-4.17-4.35-4.17-6.8,0-1.9.85-3.71,2.54-5.39.42-.42,1.03-.6,1.62-.47.58.13,1.06.54,1.27,1.11.37,1,1.34,2.08,2.8,3.13,6.64,4.73,21.72,7.78,38.39,7.78,4.34,0,8.59-.21,12.65-.61.02,0,.05,0,.07,0,4.21-.41,8.14-1.03,11.68-1.83,7.4-1.65,12.89-3.99,15.49-6.59.42-.42,1.03-.61,1.61-.48.58.13,1.06.54,1.27,1.1.28.75.42,1.51.42,2.26,0,2.45-1.4,4.74-4.17,6.8-7.09,5.27-23.08,8.68-40.74,8.68ZM223.5,314.1c-.12.34-.18.67-.18.99,0,1.6,1.5,3.05,2.76,3.99,6.42,4.77,21.95,7.98,38.64,7.98s32.22-3.21,38.64-7.98c.6-.45,1.26-1.02,1.78-1.66-4.04,2.34-9.32,3.87-13.54,4.81-3.69.84-7.79,1.48-12.17,1.91-.02,0-.04,0-.06,0-4.15.41-8.51.62-12.94.62-17.36,0-33.23-3.31-40.44-8.44-.99-.72-1.83-1.46-2.49-2.22Z"/><path class="cls-2" d="M264.71,341.33c-18.31,0-34.53-3.58-41.34-9.13-2.95-2.4-3.57-4.77-3.57-6.33v-10.77c0-.97.79-1.75,1.75-1.75s1.75.79,1.75,1.75c0,1.6,1.5,3.05,2.76,3.99,2.37,1.76,6.11,3.38,10.81,4.68,7.69,2.13,17.57,3.31,27.83,3.31s20.14-1.17,27.83-3.31c4.73-1.3,8.46-2.92,10.81-4.68,1.26-.94,2.76-2.39,2.76-3.99,0-.97.79-1.75,1.75-1.75s1.75.79,1.75,1.75v10.77c0,2.26-1.19,4.39-3.55,6.33-5.04,4.13-15.37,7.23-28.35,8.51-.02,0-.04,0-.06,0-4.16.41-8.52.62-12.94.62ZM223.31,321.37v4.49c0,1.45,1.24,2.77,2.28,3.61,6.12,4.99,21.84,8.34,39.12,8.34,4.33,0,8.58-.21,12.65-.61.02,0,.04,0,.07,0,12.1-1.2,21.97-4.09,26.42-7.72,1.5-1.23,2.27-2.45,2.27-3.62v-4.49c-.21.18-.43.35-.66.52-2.73,2.04-6.76,3.81-11.97,5.25-7.98,2.21-18.19,3.43-28.76,3.43s-20.79-1.22-28.77-3.43c-5.18-1.43-9.21-3.19-11.97-5.24-.23-.17-.45-.35-.66-.52Z"/><path class="cls-2" d="M266.42,308.76c-21.44,0-32.41-4.72-35.26-6.16-2.17-1.12-3.51-2.17-4.11-3.22-.31-.55-.3-1.21.02-1.75,2.21-3.76,16.25-9.33,39.35-9.33s37.17,5.58,39.36,9.34c.31.54.32,1.2.01,1.74-.59,1.05-1.93,2.1-4.1,3.21-2.85,1.45-13.8,6.17-35.27,6.17ZM231.11,298.52c.39.26.92.59,1.65.96,2.67,1.35,13.01,5.78,33.67,5.78s31.01-4.43,33.68-5.78c.72-.37,1.26-.69,1.64-.96-3.37-2.26-14.78-6.71-35.32-6.71s-31.93,4.45-35.31,6.71Z"/><path class="cls-2" d="M229.18,316.35c-.11,0-.22-.01-.34-.04-.75-.18-1.21-.94-1.03-1.7.65-2.66.67-5.48.06-8.15-.17-.76.3-1.51,1.05-1.68.76-.17,1.51.3,1.68,1.05.71,3.1.69,6.36-.07,9.45-.16.64-.73,1.07-1.36,1.07Z"/><path class="cls-2" d="M236.21,319.25c-.75,0-1.37-.59-1.4-1.35l-.32-8.62c-.03-.78.57-1.43,1.35-1.46.82-.07,1.43.57,1.46,1.35l.32,8.62c.03.77-.58,1.43-1.35,1.45-.02,0-.04,0-.05,0Z"/><path class="cls-2" d="M244.18,321.13c-.75,0-1.37-.6-1.4-1.35l-.3-8.71c-.03-.77.58-1.43,1.35-1.45.78-.04,1.43.58,1.45,1.35l.3,8.71c.03.77-.58,1.43-1.35,1.45-.02,0-.03,0-.05,0Z"/><path class="cls-2" d="M252.69,321.88h0c-.78,0-1.4-.64-1.4-1.41l.05-7.68c0-.77.63-1.4,1.4-1.4h0c.78,0,1.4.64,1.4,1.41l-.05,7.68c0,.77-.63,1.4-1.4,1.4Z"/><path class="cls-2" d="M261.09,322.54c-.72,0-1.34-.56-1.4-1.29l-.63-7.77c-.06-.77.51-1.45,1.29-1.51.79-.06,1.45.51,1.51,1.29l.63,7.77c.06.77-.51,1.45-1.29,1.51-.04,0-.08,0-.12,0Z"/><path class="cls-2" d="M269.7,323.09h-.02c-.78,0-1.4-.65-1.39-1.42l.1-8.34c0-.77.64-1.39,1.4-1.39h.02c.77,0,1.4.65,1.39,1.42l-.1,8.34c0,.77-.64,1.39-1.4,1.39Z"/><path class="cls-2" d="M279.26,323.81c-.78,0-1.4-.6-1.4-1.38v-.05c0-.78.63-1.4,1.4-1.4s1.4.63,1.4,1.4-.63,1.43-1.4,1.43Z"/><path class="cls-2" d="M279.24,323.79c-.69,0-1.29-.5-1.39-1.2-.47-3.23-.65-6.45-.54-9.56.03-.77.62-1.39,1.45-1.35.77.03,1.38.68,1.35,1.45-.1,2.95.07,6,.51,9.07.11.77-.42,1.48-1.19,1.59-.07,0-.14.01-.2.01Z"/><path class="cls-2" d="M285.9,321.97c-.76,0-1.39-.61-1.4-1.38l-.15-8.06c-.01-.77.6-1.41,1.38-1.43h.03c.76,0,1.39.61,1.4,1.38l.15,8.06c.01.78-.6,1.41-1.38,1.43h-.03Z"/><path class="cls-2" d="M293.97,320.56c-.07,0-.14,0-.21-.02-.77-.12-1.29-.83-1.18-1.6.39-2.6.54-5.25.43-7.88-.03-.77.57-1.43,1.34-1.46.73-.04,1.43.57,1.46,1.34.12,2.81-.04,5.64-.46,8.42-.1.69-.7,1.19-1.39,1.19Z"/><path class="cls-2" d="M300.53,317.66c-.72,0-1.34-.56-1.4-1.29l-.59-7.5c-.06-.77.52-1.45,1.29-1.51.79-.06,1.45.52,1.51,1.29l.59,7.5c.06.77-.52,1.45-1.29,1.51-.04,0-.08,0-.11,0Z"/><path class="cls-2" d="M305.06,315.04s-.03,0-.05,0c-.78-.02-1.38-.67-1.36-1.45l.22-6.93c.02-.78.67-1.44,1.45-1.36.77.02,1.38.67,1.36,1.45l-.22,6.93c-.02.76-.65,1.36-1.4,1.36Z"/><path class="cls-2" d="M266.43,314c-17.65,0-33.64-3.4-40.75-8.67-2.76-2.07-4.16-4.35-4.16-6.8,0-10.05,23.14-15.48,44.91-15.48s44.89,5.42,44.89,15.48c0,2.45-1.4,4.74-4.15,6.8-7.11,5.27-23.1,8.68-40.74,8.68ZM266.43,286.56c-24.4,0-41.4,6.31-41.4,11.97,0,1.6,1.49,3.05,2.75,3.99,6.43,4.77,21.97,7.98,38.65,7.98s32.2-3.21,38.64-7.98c1.25-.93,2.74-2.39,2.74-3.98,0-5.66-16.99-11.97-41.38-11.97Z"/><path class="cls-2" d="M266.42,324.76c-17.36,0-33.23-3.31-40.44-8.44-2.07-1.49-3.43-3.09-4.05-4.77-.28-.74-.42-1.5-.42-2.25v-10.77c0-.97.79-1.75,1.75-1.75s1.75.79,1.75,1.75c0,1.6,1.5,3.05,2.76,3.99,1.11.82,2.5,1.61,4.14,2.34,2.3,1.04,5.06,1.96,8.21,2.75,7.55,1.9,16.64,2.9,26.3,2.9,8.9,0,17.39-.86,24.54-2.49,3.1-.69,5.9-1.52,8.32-2.47,2.35-.91,4.29-1.93,5.79-3.03,1.25-.93,2.75-2.39,2.75-3.98,0-.97.79-1.75,1.75-1.75s1.75.79,1.75,1.75v10.77c0,1.91-.86,3.73-2.54,5.4-3.91,3.93-11.51,6.26-17.19,7.53-3.69.84-7.79,1.48-12.17,1.91-.02,0-.04,0-.06,0-4.15.41-8.51.62-12.94.62ZM225.02,304.8v4.49c0,.33.07.68.2,1.03.37,1,1.34,2.08,2.81,3.14,6.64,4.73,21.72,7.78,38.39,7.78,4.34,0,8.59-.21,12.65-.61.02,0,.05,0,.07,0,4.21-.41,8.14-1.03,11.68-1.83,7.4-1.65,12.89-3.99,15.49-6.59,1-1,1.51-1.97,1.51-2.92v-4.49c-.21.18-.43.35-.66.52-1.75,1.29-3.97,2.46-6.6,3.48-2.59,1.01-5.56,1.9-8.83,2.62-7.39,1.69-16.14,2.58-25.31,2.58-9.94,0-19.33-1.04-27.15-3.01-3.35-.83-6.31-1.82-8.79-2.95-1.87-.83-3.48-1.74-4.8-2.72-.23-.17-.45-.35-.66-.52Z"/><path class="cls-2" d="M227.47,353.62c-.11,0-.22-.01-.34-.04-.75-.18-1.21-.94-1.03-1.7.65-2.66.67-5.48.06-8.15-.17-.76.3-1.51,1.05-1.68.76-.18,1.51.3,1.68,1.05.71,3.09.69,6.36-.07,9.45-.16.64-.73,1.07-1.36,1.07Z"/><path class="cls-2" d="M234.5,356.53c-.75,0-1.37-.59-1.4-1.35l-.32-8.62c-.03-.78.57-1.43,1.35-1.46.82-.09,1.43.57,1.46,1.35l.32,8.62c.03.78-.57,1.43-1.35,1.46-.02,0-.04,0-.05,0Z"/><path class="cls-2" d="M242.47,358.4c-.75,0-1.37-.6-1.4-1.35l-.3-8.71c-.03-.77.58-1.43,1.35-1.45.76-.09,1.43.58,1.45,1.35l.3,8.71c.03.77-.58,1.43-1.35,1.45-.02,0-.03,0-.05,0Z"/><path class="cls-2" d="M250.98,359.15h0c-.78,0-1.4-.64-1.4-1.41l.05-7.68c0-.77.63-1.4,1.4-1.4h0c.78,0,1.4.64,1.4,1.41l-.05,7.68c0,.77-.63,1.4-1.4,1.4Z"/><path class="cls-2" d="M259.38,359.81c-.72,0-1.34-.56-1.4-1.29l-.63-7.77c-.06-.77.51-1.45,1.29-1.51.77-.05,1.45.51,1.51,1.29l.63,7.77c.06.77-.51,1.45-1.29,1.51-.04,0-.08,0-.11,0Z"/><path class="cls-2" d="M267.99,360.37h-.02c-.77,0-1.4-.65-1.39-1.42l.1-8.34c0-.77.64-1.39,1.4-1.39h.02c.78,0,1.4.65,1.39,1.42l-.1,8.34c0,.77-.64,1.39-1.4,1.39Z"/><path class="cls-2" d="M277.54,361.11c-.68,0-1.28-.5-1.39-1.2-.47-3.18-.66-6.42-.55-9.62.03-.77.7-1.38,1.45-1.35.77.03,1.38.67,1.35,1.45-.1,3.03.07,6.1.52,9.11.11.77-.42,1.48-1.18,1.6-.07,0-.14.02-.21.02Z"/><path class="cls-2" d="M284.19,359.25c-.76,0-1.39-.61-1.4-1.38l-.15-8.06c-.01-.78.6-1.41,1.38-1.43h.03c.76,0,1.39.61,1.4,1.38l.15,8.06c.01.77-.6,1.41-1.38,1.43h-.03Z"/><path class="cls-2" d="M292.25,357.83c-.07,0-.14,0-.21-.02-.77-.12-1.29-.83-1.18-1.6.39-2.6.54-5.25.43-7.88-.03-.77.57-1.43,1.34-1.46.77-.06,1.43.57,1.46,1.34.12,2.81-.04,5.64-.46,8.42-.11.69-.7,1.19-1.39,1.19Z"/><path class="cls-2" d="M298.82,354.93c-.72,0-1.34-.56-1.4-1.29l-.59-7.5c-.06-.77.52-1.45,1.29-1.51.76-.05,1.45.52,1.51,1.29l.59,7.5c.06.77-.52,1.45-1.29,1.51-.04,0-.08,0-.11,0Z"/><path class="cls-2" d="M303.35,352.31s-.03,0-.05,0c-.77-.02-1.38-.67-1.36-1.45l.22-6.93c.02-.76.65-1.36,1.4-1.36.02,0,.03,0,.05,0,.78.02,1.38.67,1.36,1.45l-.22,6.93c-.02.76-.65,1.36-1.4,1.36Z"/><path class="cls-2" d="M264.71,351.28c-17.66,0-33.65-3.41-40.74-8.68-2.77-2.06-4.17-4.35-4.17-6.8,0-2.26,1.2-4.39,3.57-6.32.65-.53,1.57-.53,2.22,0,6.12,4.99,21.84,8.34,39.12,8.34,4.33,0,8.58-.21,12.65-.61.02,0,.04,0,.07,0,12.1-1.2,21.97-4.09,26.42-7.72.64-.53,1.58-.53,2.22,0,2.36,1.94,3.55,4.06,3.55,6.32,0,2.45-1.4,4.74-4.17,6.8-7.09,5.27-23.08,8.68-40.74,8.68ZM224.6,333.11c-.86.92-1.29,1.82-1.29,2.69,0,1.6,1.5,3.05,2.76,3.99,6.42,4.77,21.95,7.98,38.64,7.98s32.22-3.21,38.64-7.98c1.26-.94,2.76-2.39,2.76-3.99,0-.87-.43-1.77-1.28-2.68-5.39,3.66-15.12,6.4-27.11,7.58-.02,0-.04,0-.06,0-4.16.41-8.52.62-12.94.62-17.28,0-32.71-3.19-40.11-8.22Z"/><path class="cls-2" d="M264.71,362.04c-15.93,0-30.71-2.79-38.59-7.28-4.19-2.38-6.32-5.14-6.32-8.18v-10.77c0-.97.79-1.75,1.75-1.75s1.75.79,1.75,1.75c0,1.6,1.5,3.05,2.76,3.99,2.12,1.57,5.36,3.05,9.35,4.26,7.88,2.4,18.28,3.73,29.29,3.73,13.7,0,26.58-2.1,34.46-5.62,1.67-.74,3.08-1.54,4.18-2.37,1.26-.94,2.76-2.39,2.76-3.99,0-.97.79-1.75,1.75-1.75s1.75.79,1.75,1.75v10.77c0,.21-.02.42-.04.61-.93,9.65-23.82,14.86-44.87,14.86ZM223.31,342.08v4.49c0,1.65,1.61,3.47,4.54,5.13,7.38,4.21,21.5,6.82,36.85,6.82,23.72,0,40.84-6.16,41.38-11.69,0-.09.02-.18.02-.26v-4.49c-.21.18-.43.35-.66.52-1.32.98-2.95,1.91-4.85,2.76-8.31,3.71-21.72,5.92-35.89,5.92-11.34,0-22.11-1.38-30.3-3.88-4.44-1.34-7.95-2.96-10.43-4.8-.23-.17-.45-.35-.66-.52Z"/><path class="cls-2" d="M184.02,209.26c-.49,0-.98-.21-1.33-.61l-7.87-9.12c-.63-.73-.55-1.84.18-2.47.73-.64,1.84-.55,2.47.18l7.87,9.12c.63.73.55,1.84-.18,2.47-.33.29-.74.43-1.14.43Z"/><path class="cls-2" d="M189.62,207.49c-.74,0-1.43-.47-1.67-1.22l-3.58-11.09c-.3-.92.21-1.91,1.13-2.21.92-.3,1.91.21,2.21,1.13l3.58,11.09c.3.92-.21,1.91-1.13,2.21-.18.06-.36.09-.54.09Z"/><path class="cls-2" d="M195.5,204.6c-.9,0-1.67-.69-1.75-1.6l-.62-7.25c-.08-.96.63-1.81,1.6-1.9.98-.11,1.81.63,1.9,1.6l.62,7.24c.08.96-.63,1.82-1.6,1.9-.05,0-.1,0-.15,0Z"/><path class="cls-2" d="M179.96,214.28c-.22,0-.45-.04-.67-.13l-10.61-4.39c-.89-.37-1.32-1.4-.95-2.29.37-.89,1.4-1.32,2.29-.95l10.61,4.39c.89.37,1.32,1.4.95,2.29-.28.68-.93,1.08-1.62,1.08Z"/></g></svg>