<?xml version="1.0" encoding="UTF-8"?><svg xmlns="http://www.w3.org/2000/svg" viewBox="0 0 475.88 344.56"><defs><style>.cls-1{fill:#e5953d;}.cls-1,.cls-2,.cls-3,.cls-4,.cls-5,.cls-6,.cls-7,.cls-8,.cls-9,.cls-10{stroke-width:0px;}.cls-2{fill:#bbadaa;}.cls-2,.cls-4{mix-blend-mode:multiply;}.cls-3{fill:none;}.cls-4{opacity:.2;}.cls-4,.cls-5{fill:#1d1d1b;}.cls-6{fill:#fffdf9;}.cls-7{fill:#526aab;}.cls-11{isolation:isolate;}.cls-8{fill:#fff;}.cls-9{fill:#f8d44c;}.cls-10{fill:#62aee0;}</style></defs><g class="cls-11"><g id="Capa_2"><g id="Capa_1-2"><path class="cls-2" d="M472.78,16.88c3.41-5.28-1.41-11.98-7.49-10.42-18.54,4.74-53.83,17.59-101.97,52.21l3.84,5.34L39.17,299.95l-21.07,18.53,3.06,4.27-14.23,11.26.62.86-6.96,5c-.64.46-.78,1.35-.32,1.99l1.52,2.1c.46.64,1.34.79,1.98.33l6.96-5,.61.85,15.21-9.92,3.06,4.27,24.28-14.08L381.88,84.47l3.5,4.87c-37.15,26.73-55.57,41.92-64.67,50.33-1.92,1.76.3,4.8,2.55,3.49,27.35-15.92,67.59-46.2,67.59-46.2,48.14-34.63,71.54-64,81.93-80.07Z"/><polygon class="cls-3" points="379.74 71.07 379.86 71.25 384.5 77.68 379.87 71.24 379.74 71.07"/><path class="cls-9" d="M5.95,331.24c-.63.45-.77,1.34-.32,1.98l1.51,2.08c.45.63,1.33.78,1.97.33l6.91-4.96-3.15-4.39-6.91,4.96Z"/><polygon class="cls-1" points="66.18 299.22 65.08 297.69 59.73 290.24 58.62 288.72 48.15 297.02 26.38 314.25 12.25 325.43 12.87 326.28 16.02 330.67 16.63 331.51 31.73 321.67 54.98 306.52 66.18 299.22"/><polygon class="cls-4" points="16.02 330.67 12.87 326.28 9.86 328.44 12.99 332.84 16.02 330.67"/><polygon class="cls-4" points="31.73 321.67 26.38 314.25 22.98 316.94 28.11 324.02 31.73 321.67"/><line class="cls-5" x1="59.73" y1="290.24" x2="58.62" y2="288.72"/><path class="cls-10" d="M474.75,10.57c3.39-5.24-1.4-11.89-7.44-10.35-18.41,4.7-53.45,17.47-101.24,51.84l3.81,5.3,4.63,6.44,5.23,7.26.13.17,4.63,6.44,3.48,4.83c-36.89,26.54-55.17,41.62-64.21,49.97-1.9,1.75.3,4.77,2.53,3.46,27.15-15.81,67.11-45.87,67.11-45.87,47.8-34.38,71.02-63.54,81.34-79.49Z"/><polygon class="cls-8" points="295.31 132.07 379.86 71.25 379.74 71.07 374.52 63.81 289.96 124.63 295.31 132.07"/><polygon class="cls-7" points="59.73 290.24 65.08 297.69 295.31 132.07 289.96 124.63 59.73 290.24"/><polyline class="cls-6" points="31.73 321.67 34.77 325.9 58.87 311.92 384.5 77.68 379.86 71.25 295.31 132.07 65.08 297.69 66.18 299.22 54.98 306.52"/><polyline class="cls-6" points="48.15 297.02 58.62 288.72 59.73 290.24 289.96 124.63 374.52 63.81 369.89 57.37 44.26 291.61 23.34 310.01 26.38 314.25"/><polygon class="cls-4" points="384.5 77.68 379.86 71.25 379.74 71.07 374.52 63.81 369.89 57.37 358.35 65.67 373.04 85.92 384.5 77.68"/></g></g></g></svg>