<svg xmlns="http://www.w3.org/2000/svg" xmlns:xlink="http://www.w3.org/1999/xlink" width="960" zoomAndPan="magnify" viewBox="0 0 720 809.999993" height="1080" preserveAspectRatio="xMidYMid meet" version="1.0"><defs><clipPath id="17abe57888"><path d="M 0 0 L 719.796875 0 L 719.796875 810 L 0 810 Z M 0 0 " clip-rule="nonzero"/></clipPath></defs><g clip-path="url(#17abe57888)"><path fill="#1b1b1e" d="M 719.847656 20.988281 C 719.847656 8.414062 709.65625 -1.78125 697.089844 -1.78125 L -49.738281 -1.78125 C -50.242188 -2.09375 -50.78125 -2.367188 -51.308594 -2.648438 C -51.488281 -2.738281 -51.648438 -2.855469 -51.816406 -2.9375 C -51.839844 -2.960938 -51.863281 -2.960938 -51.894531 -2.976562 C -52.730469 -3.386719 -53.589844 -3.746094 -54.46875 -4.058594 C -54.496094 -4.058594 -54.511719 -4.085938 -54.535156 -4.085938 C -54.535156 -4.085938 -54.558594 -4.085938 -54.558594 -4.101562 C -55.367188 -4.363281 -56.1875 -4.605469 -57.027344 -4.78125 C -57.101562 -4.804688 -57.171875 -4.839844 -57.238281 -4.855469 C -57.949219 -5 -58.671875 -5.109375 -59.402344 -5.191406 C -59.457031 -5.207031 -59.5 -5.222656 -59.546875 -5.222656 C -60.332031 -5.304688 -61.117188 -5.351562 -61.921875 -5.351562 L -67.605469 -5.351562 C -68.398438 -5.351562 -69.1875 -5.304688 -69.964844 -5.222656 C -70.019531 -5.222656 -70.058594 -5.199219 -70.109375 -5.191406 C -70.847656 -5.117188 -71.566406 -5 -72.273438 -4.855469 C -72.355469 -4.839844 -72.425781 -4.789062 -72.507812 -4.78125 C -73.300781 -4.605469 -74.070312 -4.378906 -74.824219 -4.125 C -74.878906 -4.109375 -74.9375 -4.101562 -74.976562 -4.09375 C -74.976562 -4.09375 -74.992188 -4.074219 -74.992188 -4.066406 C -75.914062 -3.761719 -76.8125 -3.386719 -77.671875 -2.960938 C -77.679688 -2.953125 -77.6875 -2.9375 -77.6875 -2.9375 C -77.734375 -2.914062 -77.773438 -2.882812 -77.824219 -2.855469 C -78.496094 -2.519531 -79.136719 -2.167969 -79.773438 -1.773438 L -758.34375 -1.773438 C -770.910156 -1.773438 -781.105469 8.414062 -781.105469 20.996094 L -781.105469 904.746094 C -781.105469 917.3125 -770.917969 927.5 -758.34375 927.5 L -79.773438 927.5 C -79.105469 927.925781 -78.410156 928.3125 -77.703125 928.671875 L -77.6875 928.671875 C -77.6875 928.671875 -77.6875 928.6875 -77.679688 928.6875 C -75.976562 929.523438 -74.183594 930.164062 -72.28125 930.5625 C -71.589844 930.714844 -70.886719 930.820312 -70.171875 930.902344 C -70.109375 930.917969 -70.035156 930.933594 -69.964844 930.933594 C -69.1875 931.011719 -68.398438 931.0625 -67.605469 931.0625 L -61.921875 931.0625 C -61.117188 931.0625 -60.332031 931.011719 -59.554688 930.933594 C -59.480469 930.933594 -59.417969 930.910156 -59.347656 930.902344 C -58.640625 930.820312 -57.933594 930.726562 -57.246094 930.5625 C -56.332031 930.386719 -55.449219 930.113281 -54.566406 929.820312 C -54.566406 929.800781 -54.542969 929.800781 -54.542969 929.800781 C -54.519531 929.800781 -54.503906 929.792969 -54.476562 929.792969 C -53.570312 929.464844 -52.691406 929.105469 -51.839844 928.679688 C -51.839844 928.679688 -51.824219 928.679688 -51.824219 928.664062 C -51.109375 928.300781 -50.421875 927.917969 -49.746094 927.492188 L 697.082031 927.492188 C 709.648438 927.492188 719.839844 917.304688 719.839844 904.738281 L 719.839844 20.988281 Z M 719.847656 20.988281 " fill-opacity="1" fill-rule="nonzero"/></g><path fill="#35393e" d="M -39.160156 18.359375 L -36.796875 18.359375 C -36.007812 18.359375 -35.367188 19.007812 -35.367188 19.792969 C -35.367188 20.578125 -36.007812 21.222656 -36.796875 21.222656 L -39.160156 21.222656 L -39.160156 44.691406 L 575.738281 44.691406 C 578.878906 44.691406 581.421875 47.226562 581.421875 50.378906 L 581.421875 875.355469 C 581.421875 878.484375 578.878906 881.042969 575.738281 881.042969 L -39.160156 881.042969 L -39.160156 904.511719 L -38.632812 904.511719 C -37.84375 904.511719 -37.203125 905.148438 -37.203125 905.941406 C -37.203125 906.734375 -37.84375 907.375 -38.632812 907.375 L -39.160156 907.375 L -39.160156 908.308594 C -39.160156 910.722656 -39.546875 913.054688 -40.242188 915.246094 L 679.300781 915.246094 C 691.546875 915.246094 701.457031 905.308594 701.457031 893.082031 L 701.457031 32.644531 C 701.457031 20.402344 691.546875 10.480469 679.300781 10.480469 L -40.242188 10.480469 C -39.546875 12.671875 -39.160156 15.003906 -39.160156 17.417969 Z M -39.160156 18.359375 " fill-opacity="1" fill-rule="nonzero"/><path fill="#181b1e" d="M 660.777344 560.460938 L 658.777344 560.460938 L 658.777344 717.140625 L 644.601562 785.394531 L 642.28125 785.394531 L 642.28125 797.019531 C 642.28125 797.546875 642.1875 798.0625 642.011719 798.535156 C 642.011719 798.535156 641.992188 798.566406 641.992188 798.589844 C 641.984375 798.597656 641.96875 798.621094 641.96875 798.636719 C 641.96875 798.664062 641.96875 798.6875 641.953125 798.695312 C 641.914062 798.78125 641.851562 798.847656 641.800781 798.925781 C 641.992188 799.09375 642.164062 799.121094 642.308594 798.894531 C 643.09375 797.667969 645.3125 786.886719 645.347656 786.773438 L 660.785156 724.132812 L 660.785156 569.8125 L 673.542969 569.8125 L 673.542969 311.871094 L 667.527344 311.871094 L 667.527344 560.460938 Z M 660.777344 560.460938 " fill-opacity="1" fill-rule="nonzero"/><path fill="#181b1e" d="M 656.035156 91.949219 L 656.035156 95.375 L 658.777344 95.375 L 658.777344 113.117188 L 660.351562 113.117188 L 660.351562 140.289062 L 658.777344 140.289062 L 658.777344 307.84375 L 660.777344 307.84375 L 660.777344 91.121094 C 660.777344 90.640625 660.726562 90.167969 660.640625 89.71875 L 660.617188 89.46875 L 660.535156 89.230469 L 660.292969 88.460938 L 660.117188 87.929688 L 660.0625 87.835938 C 659.628906 86.886719 659.035156 86.039062 658.289062 85.339844 C 657.640625 84.707031 656.871094 84.21875 656.035156 83.832031 L 656.035156 91.964844 Z M 656.035156 91.949219 " fill-opacity="1" fill-rule="nonzero"/><path fill="#6d9dc5" d="M 657.28125 140.289062 L 650.703125 140.289062 L 650.703125 307.851562 L 658.777344 307.851562 L 658.777344 140.289062 Z M 657.28125 140.289062 " fill-opacity="1" fill-rule="nonzero"/><path fill="#6d9dc5" d="M 620.003906 307.851562 L 625.082031 307.851562 L 625.082031 140.289062 L 617.003906 140.289062 L 617.003906 307.851562 Z M 620.003906 307.851562 " fill-opacity="1" fill-rule="nonzero"/><path fill="#6898be" d="M 650.09375 140.289062 L 648.625 140.289062 L 648.625 307.851562 L 650.703125 307.851562 L 650.703125 140.289062 Z M 650.09375 140.289062 " fill-opacity="1" fill-rule="nonzero"/><path fill="#6898be" d="M 625.683594 140.289062 L 625.082031 140.289062 L 625.082031 307.851562 L 627.15625 307.851562 L 627.15625 140.289062 Z M 625.683594 140.289062 " fill-opacity="1" fill-rule="nonzero"/><path fill="#5f91b7" d="M 648.625 140.289062 L 646.550781 140.289062 L 646.550781 307.851562 L 648.625 307.851562 Z M 648.625 140.289062 " fill-opacity="1" fill-rule="nonzero"/><path fill="#5f91b7" d="M 628.359375 140.289062 L 627.15625 140.289062 L 627.15625 307.851562 L 629.226562 307.851562 L 629.226562 140.289062 Z M 628.359375 140.289062 " fill-opacity="1" fill-rule="nonzero"/><path fill="#588aaf" d="M 644.746094 140.289062 L 644.480469 140.289062 L 644.480469 307.851562 L 646.550781 307.851562 L 646.550781 140.289062 Z M 644.746094 140.289062 " fill-opacity="1" fill-rule="nonzero"/><path fill="#588aaf" d="M 631.039062 140.289062 L 629.226562 140.289062 L 629.226562 307.851562 L 631.296875 307.851562 L 631.296875 140.289062 Z M 631.039062 140.289062 " fill-opacity="1" fill-rule="nonzero"/><path fill="#5284a8" d="M 642.066406 140.289062 L 631.296875 140.289062 L 631.296875 307.851562 L 644.480469 307.851562 L 644.480469 140.289062 Z M 642.066406 140.289062 " fill-opacity="1" fill-rule="nonzero"/><path fill="#6d9dc5" d="M 618.503906 113.117188 L 625.082031 113.117188 L 625.082031 95.375 L 617.003906 95.375 L 617.003906 113.117188 Z M 618.503906 113.117188 " fill-opacity="1" fill-rule="nonzero"/><path fill="#6d9dc5" d="M 652.773438 113.117188 L 658.777344 113.117188 L 658.777344 95.375 L 650.703125 95.375 L 650.703125 113.117188 Z M 652.773438 113.117188 " fill-opacity="1" fill-rule="nonzero"/><path fill="#6898be" d="M 627.15625 113.117188 L 627.15625 95.375 L 625.082031 95.375 L 625.082031 113.117188 Z M 627.15625 113.117188 " fill-opacity="1" fill-rule="nonzero"/><path fill="#6898be" d="M 650.09375 113.117188 L 650.703125 113.117188 L 650.703125 95.375 L 648.625 95.375 L 648.625 113.117188 Z M 650.09375 113.117188 " fill-opacity="1" fill-rule="nonzero"/><path fill="#5f91b7" d="M 628.359375 113.117188 L 629.226562 113.117188 L 629.226562 95.375 L 627.15625 95.375 L 627.15625 113.117188 Z M 628.359375 113.117188 " fill-opacity="1" fill-rule="nonzero"/><path fill="#5f91b7" d="M 647.421875 113.117188 L 648.625 113.117188 L 648.625 95.375 L 646.550781 95.375 L 646.550781 113.117188 Z M 647.421875 113.117188 " fill-opacity="1" fill-rule="nonzero"/><path fill="#588aaf" d="M 644.746094 113.117188 L 646.550781 113.117188 L 646.550781 95.375 L 644.480469 95.375 L 644.480469 113.117188 Z M 644.746094 113.117188 " fill-opacity="1" fill-rule="nonzero"/><path fill="#588aaf" d="M 631.039062 113.117188 L 631.296875 113.117188 L 631.296875 95.375 L 629.226562 95.375 L 629.226562 113.117188 Z M 631.039062 113.117188 " fill-opacity="1" fill-rule="nonzero"/><path fill="#5284a8" d="M 633.710938 113.117188 L 644.480469 113.117188 L 644.480469 95.375 L 631.296875 95.375 L 631.296875 113.117188 Z M 633.710938 113.117188 " fill-opacity="1" fill-rule="nonzero"/><path fill="#6d9dc5" d="M 618.503906 717.128906 L 625.082031 717.128906 L 625.082031 560.460938 L 617.003906 560.460938 L 617.003906 717.128906 Z M 618.503906 717.128906 " fill-opacity="1" fill-rule="nonzero"/><path fill="#6d9dc5" d="M 654.273438 560.460938 L 650.703125 560.460938 L 650.703125 717.128906 L 658.777344 717.128906 L 658.777344 560.460938 Z M 654.273438 560.460938 " fill-opacity="1" fill-rule="nonzero"/><path fill="#6898be" d="M 648.625 560.460938 L 648.625 717.128906 L 650.703125 717.128906 L 650.703125 560.460938 Z M 648.625 560.460938 " fill-opacity="1" fill-rule="nonzero"/><path fill="#6898be" d="M 627.15625 560.460938 L 625.082031 560.460938 L 625.082031 717.128906 L 627.15625 717.128906 Z M 627.15625 560.460938 " fill-opacity="1" fill-rule="nonzero"/><path fill="#5f91b7" d="M 646.621094 717.128906 L 648.625 717.128906 L 648.625 560.460938 L 646.550781 560.460938 L 646.550781 717.128906 Z M 646.621094 717.128906 " fill-opacity="1" fill-rule="nonzero"/><path fill="#5f91b7" d="M 627.480469 717.128906 L 629.226562 717.128906 L 629.226562 560.460938 L 627.15625 560.460938 L 627.15625 717.128906 Z M 627.480469 717.128906 " fill-opacity="1" fill-rule="nonzero"/><path fill="#588aaf" d="M 644.496094 717.128906 L 646.550781 717.128906 L 646.550781 560.460938 L 644.480469 560.460938 L 644.480469 717.128906 Z M 644.496094 717.128906 " fill-opacity="1" fill-rule="nonzero"/><path fill="#588aaf" d="M 629.242188 717.128906 L 631.296875 717.128906 L 631.296875 560.460938 L 629.226562 560.460938 L 629.226562 717.128906 Z M 629.242188 717.128906 " fill-opacity="1" fill-rule="nonzero"/><path fill="#5284a8" d="M 641.960938 717.128906 L 644.480469 717.128906 L 644.480469 560.460938 L 631.296875 560.460938 L 631.296875 717.128906 Z M 641.960938 717.128906 " fill-opacity="1" fill-rule="nonzero"/><path fill="#bac0c5" d="M 641.960938 798.628906 C 641.960938 798.628906 641.976562 798.589844 641.984375 798.582031 C 641.984375 798.558594 642.003906 798.535156 642.003906 798.527344 C 642.179688 798.050781 642.273438 797.539062 642.273438 797.011719 L 642.273438 785.386719 L 642.15625 785.386719 L 651.160156 717.128906 L 648.84375 717.128906 L 641.402344 785.386719 L 641.945312 785.386719 L 641.945312 794.652344 C 641.945312 795.042969 641.882812 797.730469 641.777344 797.933594 C 641.714844 799.015625 641.144531 799.921875 640.324219 800.554688 C 640.308594 800.59375 640.300781 800.652344 640.277344 800.683594 C 640.414062 800.585938 640.519531 800.457031 640.648438 800.363281 C 640.765625 800.257812 640.917969 800.1875 641.039062 800.058594 C 641.0625 800.042969 641.085938 800 641.113281 799.976562 C 641.136719 799.960938 641.160156 799.9375 641.191406 799.90625 C 641.214844 799.867188 641.238281 799.847656 641.257812 799.816406 C 641.441406 799.59375 641.554688 799.335938 641.695312 799.085938 C 641.730469 799.046875 641.769531 798.992188 641.792969 798.933594 C 641.832031 798.855469 641.90625 798.789062 641.945312 798.703125 C 641.945312 798.695312 641.953125 798.671875 641.960938 798.644531 Z M 641.960938 798.628906 " fill-opacity="1" fill-rule="nonzero"/><path fill="#bac0c5" d="M 636.109375 797.011719 L 636.109375 785.386719 L 634.367188 785.386719 L 626.933594 717.128906 L 624.617188 717.128906 L 633.621094 785.386719 L 633.5 785.386719 L 633.5 797.011719 C 633.5 799.441406 635.457031 801.40625 637.886719 801.40625 C 637.960938 801.40625 638.023438 801.367188 638.097656 801.367188 L 638.144531 801.367188 C 638.207031 801.367188 638.265625 801.332031 638.335938 801.324219 C 638.351562 801.324219 638.371094 801.339844 638.394531 801.339844 C 638.457031 801.332031 638.503906 801.292969 638.578125 801.277344 C 638.601562 801.277344 638.617188 801.308594 638.640625 801.308594 C 638.707031 801.300781 638.753906 801.261719 638.816406 801.246094 C 638.851562 801.246094 638.867188 801.261719 638.898438 801.277344 C 638.914062 801.269531 638.921875 801.261719 638.9375 801.261719 C 637.328125 800.796875 636.117188 799.070312 636.117188 797.011719 Z M 636.109375 797.011719 " fill-opacity="1" fill-rule="nonzero"/><path fill="#bac0c5" d="M 640.054688 800.796875 C 640.054688 800.796875 640.003906 800.820312 639.988281 800.828125 C 639.949219 800.859375 639.894531 800.859375 639.851562 800.890625 C 639.835938 800.890625 639.828125 800.898438 639.8125 800.917969 C 639.734375 800.964844 639.628906 800.972656 639.546875 801.011719 C 639.46875 801.0625 639.402344 801.078125 639.332031 801.09375 C 639.453125 801.050781 639.589844 801.027344 639.707031 800.964844 C 639.757812 800.964844 639.804688 800.917969 639.851562 800.890625 C 639.902344 800.875 639.949219 800.84375 639.988281 800.820312 C 640.039062 800.796875 640.078125 800.78125 640.117188 800.753906 C 640.164062 800.730469 640.214844 800.707031 640.261719 800.683594 C 640.199219 800.714844 640.132812 800.738281 640.070312 800.765625 C 640.070312 800.765625 640.0625 800.773438 640.054688 800.78125 Z M 640.054688 800.796875 " fill-opacity="1" fill-rule="nonzero"/><path fill="#a5abaf" d="M 639.988281 800.835938 C 639.988281 800.835938 640.039062 800.8125 640.054688 800.804688 C 640.054688 800.804688 640.0625 800.789062 640.070312 800.789062 C 640.003906 800.820312 639.949219 800.84375 639.886719 800.867188 C 639.867188 800.875 639.859375 800.890625 639.851562 800.898438 C 639.886719 800.867188 639.949219 800.867188 639.988281 800.835938 Z M 639.988281 800.835938 " fill-opacity="1" fill-rule="nonzero"/><path fill="#a5abaf" d="M 636.726562 797.011719 L 636.726562 785.386719 L 636.109375 785.386719 L 636.109375 797.011719 C 636.109375 799.070312 637.3125 800.796875 638.929688 801.261719 C 638.929688 801.261719 638.960938 801.253906 638.980469 801.253906 C 637.6875 800.773438 636.734375 799.046875 636.734375 797.011719 Z M 636.726562 797.011719 " fill-opacity="1" fill-rule="nonzero"/><path fill="#a5abaf" d="M 641.273438 798.855469 C 641.175781 799.488281 640.832031 800.042969 640.359375 800.484375 C 640.351562 800.507812 640.351562 800.539062 640.324219 800.546875 C 641.144531 799.914062 641.714844 799.007812 641.777344 797.925781 C 641.882812 797.722656 641.945312 795.035156 641.945312 794.644531 L 641.945312 785.378906 L 641.625 785.378906 L 641.625 795.429688 C 641.625 796.207031 641.480469 798.445312 641.273438 798.847656 Z M 641.273438 798.855469 " fill-opacity="1" fill-rule="nonzero"/><path fill="#91979a" d="M 639.8125 800.925781 C 639.8125 800.925781 639.835938 800.898438 639.851562 800.898438 C 639.851562 800.898438 639.867188 800.882812 639.886719 800.867188 C 639.660156 800.980469 639.4375 801.09375 639.195312 801.171875 C 639.242188 801.15625 639.285156 801.140625 639.332031 801.109375 C 639.402344 801.09375 639.46875 801.070312 639.546875 801.027344 C 639.628906 800.988281 639.734375 800.980469 639.8125 800.933594 Z M 639.8125 800.925781 " fill-opacity="1" fill-rule="nonzero"/><path fill="#91979a" d="M 637.34375 797.011719 L 637.34375 785.386719 L 636.726562 785.386719 L 636.726562 797.011719 C 636.726562 799.046875 637.679688 800.765625 638.972656 801.253906 C 638.972656 801.253906 639.003906 801.238281 639.011719 801.230469 C 638.046875 800.738281 637.34375 799.046875 637.34375 797.011719 Z M 637.34375 797.011719 " fill-opacity="1" fill-rule="nonzero"/><path fill="#91979a" d="M 641.289062 796.222656 C 641.289062 797.378906 641.085938 799.191406 640.78125 799.769531 C 640.71875 799.921875 640.582031 800.011719 640.503906 800.152344 C 640.453125 800.265625 640.414062 800.386719 640.359375 800.484375 C 640.832031 800.042969 641.175781 799.488281 641.273438 798.855469 C 641.480469 798.453125 641.625 796.214844 641.625 795.4375 L 641.625 785.386719 L 641.289062 785.386719 Z M 641.289062 796.222656 " fill-opacity="1" fill-rule="nonzero"/><path fill="#808588" d="M 637.960938 785.386719 L 637.34375 785.386719 L 637.34375 797.011719 C 637.34375 799.046875 638.046875 800.738281 639.011719 801.230469 L 639.035156 801.230469 C 639.035156 801.230469 639.035156 801.222656 639.050781 801.222656 C 638.417969 800.699219 637.953125 799.03125 637.953125 797.019531 L 637.953125 785.394531 Z M 637.960938 785.386719 " fill-opacity="1" fill-rule="nonzero"/><path fill="#808588" d="M 641.289062 796.222656 L 641.289062 785.386719 L 640.96875 785.386719 L 640.96875 797.011719 C 640.96875 798.246094 640.78125 799.351562 640.503906 800.152344 C 640.582031 800.019531 640.71875 799.921875 640.78125 799.769531 C 641.085938 799.183594 641.289062 797.371094 641.289062 796.222656 Z M 641.289062 796.222656 " fill-opacity="1" fill-rule="nonzero"/><path fill="#6e7477" d="M 640.359375 800.484375 C 640.40625 800.378906 640.453125 800.265625 640.503906 800.152344 C 640.78125 799.359375 640.96875 798.253906 640.96875 797.011719 L 640.96875 785.386719 L 639.179688 785.386719 L 641.898438 717.128906 L 633.886719 717.128906 L 636.605469 785.386719 L 637.960938 785.386719 L 637.960938 797.011719 C 637.960938 799.03125 638.425781 800.691406 639.058594 801.210938 C 639.105469 801.203125 639.140625 801.171875 639.195312 801.164062 C 639.4375 801.085938 639.660156 800.972656 639.886719 800.859375 C 639.949219 800.828125 640.003906 800.804688 640.070312 800.78125 C 640.132812 800.746094 640.207031 800.730469 640.261719 800.699219 C 640.261719 800.699219 640.261719 800.691406 640.277344 800.691406 C 640.292969 800.691406 640.277344 800.691406 640.277344 800.691406 C 640.300781 800.660156 640.308594 800.601562 640.324219 800.5625 C 640.34375 800.554688 640.34375 800.523438 640.359375 800.5 Z M 640.359375 800.484375 " fill-opacity="1" fill-rule="nonzero"/><path fill="#e8ecee" d="M 618.503906 717.128906 L 617.003906 717.128906 L 631.183594 785.386719 L 631.792969 785.386719 L 618.90625 717.128906 Z M 618.503906 717.128906 " fill-opacity="1" fill-rule="nonzero"/><path fill="#e8ecee" d="M 657.28125 717.128906 L 656.878906 717.128906 L 643.992188 785.386719 L 644.601562 785.386719 L 658.777344 717.128906 Z M 657.28125 717.128906 " fill-opacity="1" fill-rule="nonzero"/><path fill="#dce0e4" d="M 620.003906 717.128906 L 618.90625 717.128906 L 631.792969 785.386719 L 632.402344 785.386719 L 620.804688 717.128906 Z M 620.003906 717.128906 " fill-opacity="1" fill-rule="nonzero"/><path fill="#dce0e4" d="M 656.164062 717.128906 L 654.96875 717.128906 L 643.375 785.386719 L 643.992188 785.386719 L 656.878906 717.128906 Z M 656.164062 717.128906 " fill-opacity="1" fill-rule="nonzero"/><path fill="#d0d5d9" d="M 622.53125 717.128906 L 620.804688 717.128906 L 632.402344 785.386719 L 633.011719 785.386719 L 622.707031 717.128906 Z M 622.53125 717.128906 " fill-opacity="1" fill-rule="nonzero"/><path fill="#d0d5d9" d="M 654.867188 717.128906 L 653.078125 717.128906 L 642.765625 785.386719 L 643.375 785.386719 L 654.96875 717.128906 Z M 654.867188 717.128906 " fill-opacity="1" fill-rule="nonzero"/><path fill="#c5cacf" d="M 652.773438 717.128906 L 651.160156 717.128906 L 642.15625 785.386719 L 642.765625 785.386719 L 653.078125 717.128906 Z M 652.773438 717.128906 " fill-opacity="1" fill-rule="nonzero"/><path fill="#c5cacf" d="M 624.617188 717.128906 L 622.707031 717.128906 L 633.011719 785.386719 L 633.621094 785.386719 Z M 624.617188 717.128906 " fill-opacity="1" fill-rule="nonzero"/><path fill="#a5abaf" d="M 629.226562 717.128906 L 626.933594 717.128906 L 634.367188 785.386719 L 635.113281 785.386719 L 629.242188 717.128906 Z M 629.226562 717.128906 " fill-opacity="1" fill-rule="nonzero"/><path fill="#a5abaf" d="M 648.296875 717.128906 L 646.53125 717.128906 L 640.664062 785.386719 L 641.410156 785.386719 L 648.84375 717.128906 Z M 648.296875 717.128906 " fill-opacity="1" fill-rule="nonzero"/><path fill="#91979a" d="M 631.390625 717.128906 L 629.242188 717.128906 L 635.113281 785.386719 L 635.859375 785.386719 L 631.570312 717.128906 Z M 631.390625 717.128906 " fill-opacity="1" fill-rule="nonzero"/><path fill="#91979a" d="M 646.476562 717.128906 L 644.214844 717.128906 L 639.917969 785.386719 L 640.664062 785.386719 L 646.53125 717.128906 Z M 646.476562 717.128906 " fill-opacity="1" fill-rule="nonzero"/><path fill="#808588" d="M 644.070312 717.128906 L 641.898438 717.128906 L 639.179688 785.386719 L 639.917969 785.386719 L 644.214844 717.128906 Z M 644.070312 717.128906 " fill-opacity="1" fill-rule="nonzero"/><path fill="#808588" d="M 633.8125 717.128906 L 631.570312 717.128906 L 635.859375 785.386719 L 636.605469 785.386719 L 633.886719 717.128906 Z M 633.8125 717.128906 " fill-opacity="1" fill-rule="nonzero"/><path fill="#d0d5d9" d="M 617.335938 113.117188 L 615.433594 113.117188 L 615.433594 140.289062 L 617.335938 140.289062 Z M 617.335938 113.117188 " fill-opacity="1" fill-rule="nonzero"/><path fill="#d0d5d9" d="M 658.449219 140.289062 L 660.34375 140.289062 L 660.34375 113.117188 L 658.449219 113.117188 Z M 658.449219 140.289062 " fill-opacity="1" fill-rule="nonzero"/><path fill="#c8cdd1" d="M 618.503906 113.117188 L 617.335938 113.117188 L 617.335938 140.289062 L 619.226562 140.289062 L 619.226562 113.117188 Z M 618.503906 113.117188 " fill-opacity="1" fill-rule="nonzero"/><path fill="#c8cdd1" d="M 657.28125 140.289062 L 658.449219 140.289062 L 658.449219 113.117188 L 656.558594 113.117188 L 656.558594 140.289062 Z M 657.28125 140.289062 " fill-opacity="1" fill-rule="nonzero"/><path fill="#bfc4c9" d="M 620.003906 113.117188 L 619.226562 113.117188 L 619.226562 140.289062 L 621.109375 140.289062 L 621.109375 113.117188 Z M 620.003906 113.117188 " fill-opacity="1" fill-rule="nonzero"/><path fill="#bfc4c9" d="M 655.78125 140.289062 L 656.558594 140.289062 L 656.558594 113.117188 L 654.664062 113.117188 L 654.664062 140.289062 Z M 655.78125 140.289062 " fill-opacity="1" fill-rule="nonzero"/><path fill="#b6bbc2" d="M 621.503906 113.117188 L 621.109375 113.117188 L 621.109375 140.289062 L 623.003906 140.289062 L 623.003906 113.117188 Z M 621.503906 113.117188 " fill-opacity="1" fill-rule="nonzero"/><path fill="#b6bbc2" d="M 654.273438 140.289062 L 654.664062 140.289062 L 654.664062 113.117188 L 652.773438 113.117188 L 652.773438 140.289062 Z M 654.273438 140.289062 " fill-opacity="1" fill-rule="nonzero"/><path fill="#acb3b9" d="M 625.683594 113.117188 L 623.003906 113.117188 L 623.003906 140.289062 L 625.683594 140.289062 Z M 625.683594 113.117188 " fill-opacity="1" fill-rule="nonzero"/><path fill="#acb3b9" d="M 650.703125 140.289062 L 652.773438 140.289062 L 652.773438 113.117188 L 650.09375 113.117188 L 650.09375 140.289062 Z M 650.703125 140.289062 " fill-opacity="1" fill-rule="nonzero"/><path fill="#9ba1a8" d="M 627.15625 113.117188 L 625.683594 113.117188 L 625.683594 140.289062 L 628.359375 140.289062 L 628.359375 113.117188 Z M 627.15625 113.117188 " fill-opacity="1" fill-rule="nonzero"/><path fill="#9ba1a8" d="M 650.09375 113.117188 L 647.421875 113.117188 L 647.421875 140.289062 L 650.09375 140.289062 Z M 650.09375 113.117188 " fill-opacity="1" fill-rule="nonzero"/><path fill="#8b9097" d="M 629.226562 113.117188 L 628.359375 113.117188 L 628.359375 140.289062 L 631.039062 140.289062 L 631.039062 113.117188 Z M 629.226562 113.117188 " fill-opacity="1" fill-rule="nonzero"/><path fill="#8b9097" d="M 646.550781 113.117188 L 644.746094 113.117188 L 644.746094 140.289062 L 647.421875 140.289062 L 647.421875 113.117188 Z M 646.550781 113.117188 " fill-opacity="1" fill-rule="nonzero"/><path fill="#7c8188" d="M 631.296875 113.117188 L 631.039062 113.117188 L 631.039062 140.289062 L 633.710938 140.289062 L 633.710938 113.117188 Z M 631.296875 113.117188 " fill-opacity="1" fill-rule="nonzero"/><path fill="#7c8188" d="M 644.480469 113.117188 L 642.066406 113.117188 L 642.066406 140.289062 L 644.746094 140.289062 L 644.746094 113.117188 Z M 644.480469 113.117188 " fill-opacity="1" fill-rule="nonzero"/><path fill="#6d737a" d="M 633.710938 113.117188 L 642.074219 113.117188 L 642.074219 140.289062 L 633.710938 140.289062 Z M 633.710938 113.117188 " fill-opacity="1" fill-rule="nonzero"/><path fill="#6d737a" d="M 612.691406 117.3125 L 615.433594 117.3125 L 615.433594 135.054688 L 612.691406 135.054688 Z M 612.691406 117.3125 " fill-opacity="1" fill-rule="nonzero"/><path fill="#dae0e6" d="M 612.691406 109.996094 L 608.511719 109.996094 L 608.511719 289.652344 C 608.511719 293.046875 605.769531 295.789062 602.378906 295.789062 L 601.992188 295.757812 C 603.105469 297.03125 604.71875 297.882812 606.554688 297.882812 C 609.941406 297.882812 612.691406 295.132812 612.691406 291.738281 L 612.691406 109.980469 Z M 612.691406 109.996094 " fill-opacity="1" fill-rule="nonzero"/><path fill="#9da6ae" d="M 608.511719 289.660156 L 608.511719 110.003906 L 600.421875 110.003906 L 600.421875 291.761719 C 600.421875 292.15625 600.46875 292.550781 600.542969 292.917969 C 600.589844 293.183594 600.675781 293.433594 600.757812 293.679688 C 600.789062 293.785156 600.8125 293.871094 600.847656 293.96875 C 600.972656 294.289062 601.132812 294.59375 601.3125 294.898438 C 601.496094 295.203125 601.703125 295.5 601.945312 295.773438 L 601.992188 295.773438 C 601.992188 295.773438 602.378906 295.8125 602.378906 295.8125 C 605.769531 295.8125 608.511719 293.070312 608.511719 289.679688 Z M 608.511719 289.660156 " fill-opacity="1" fill-rule="nonzero"/><path fill="#6d9dc5" d="M 656.035156 83.816406 L 656.035156 83.09375 L 619.738281 83.09375 L 619.738281 88.8125 L 656.035156 88.8125 Z M 656.035156 83.816406 " fill-opacity="1" fill-rule="nonzero"/><path fill="#5f91b7" d="M 619.738281 88.8125 L 656.035156 88.8125 L 656.035156 91.949219 L 619.738281 91.949219 Z M 619.738281 88.8125 " fill-opacity="1" fill-rule="nonzero"/><path fill="#5284a8" d="M 620.917969 95.375 L 656.035156 95.375 L 656.035156 91.949219 L 619.738281 91.949219 L 619.738281 95.375 Z M 620.917969 95.375 " fill-opacity="1" fill-rule="nonzero"/><path fill="#c8cdd1" d="M 627.710938 83.09375 L 631.296875 83.09375 L 631.296875 57.917969 L 625.363281 57.917969 L 625.363281 83.09375 Z M 627.710938 83.09375 " fill-opacity="1" fill-rule="nonzero"/><path fill="#c8cdd1" d="M 648.074219 57.917969 L 644.480469 57.917969 L 644.480469 83.09375 L 650.421875 83.09375 L 650.421875 57.917969 Z M 648.074219 57.917969 " fill-opacity="1" fill-rule="nonzero"/><path fill="#aeb3b9" d="M 631.296875 57.917969 L 632.539062 57.917969 L 632.539062 83.101562 L 631.296875 83.101562 Z M 631.296875 57.917969 " fill-opacity="1" fill-rule="nonzero"/><path fill="#aeb3b9" d="M 643.246094 57.917969 L 644.488281 57.917969 L 644.488281 83.101562 L 643.246094 83.101562 Z M 643.246094 57.917969 " fill-opacity="1" fill-rule="nonzero"/><path fill="#979ca2" d="M 632.539062 57.917969 L 633.78125 57.917969 L 633.78125 83.101562 L 632.539062 83.101562 Z M 632.539062 57.917969 " fill-opacity="1" fill-rule="nonzero"/><path fill="#979ca2" d="M 642.003906 57.917969 L 643.246094 57.917969 L 643.246094 83.101562 L 642.003906 83.101562 Z M 642.003906 57.917969 " fill-opacity="1" fill-rule="nonzero"/><path fill="#81868c" d="M 640.765625 57.917969 L 642.003906 57.917969 L 642.003906 83.101562 L 640.765625 83.101562 Z M 640.765625 57.917969 " fill-opacity="1" fill-rule="nonzero"/><path fill="#81868c" d="M 633.78125 57.917969 L 635.023438 57.917969 L 635.023438 83.101562 L 633.78125 83.101562 Z M 633.78125 57.917969 " fill-opacity="1" fill-rule="nonzero"/><path fill="#9ba1a8" d="M 652.773438 55.414062 L 652.773438 51.820312 L 623.003906 51.820312 L 623.003906 55.414062 Z M 652.773438 55.414062 " fill-opacity="1" fill-rule="nonzero"/><path fill="#c8cdd1" d="M 623.003906 50.191406 L 652.773438 50.191406 L 652.773438 51.820312 L 623.003906 51.820312 Z M 623.003906 50.191406 " fill-opacity="1" fill-rule="nonzero"/><path fill="#6d737a" d="M 627.710938 57.917969 L 635.015625 57.917969 L 635.015625 83.09375 L 640.765625 83.09375 L 640.765625 57.917969 L 650.421875 57.917969 L 650.421875 55.414062 L 625.363281 55.414062 L 625.363281 57.917969 Z M 627.710938 57.917969 " fill-opacity="1" fill-rule="nonzero"/><path fill="#f7f8f8" d="M -37.675781 64.117188 C -32.703125 64.117188 -28.671875 68.152344 -28.671875 73.125 C -28.671875 78.097656 -32.707031 82.140625 -37.675781 82.140625 C -40.371094 82.140625 -42.753906 80.929688 -44.414062 79.058594 L -57.589844 79.058594 L -57.589844 105.617188 L -44.414062 105.617188 C -42.753906 103.730469 -40.371094 102.527344 -37.675781 102.527344 C -32.703125 102.527344 -28.671875 106.5625 -28.671875 111.535156 C -28.671875 116.507812 -32.707031 120.542969 -37.675781 120.542969 C -40.371094 120.542969 -42.753906 119.339844 -44.414062 117.472656 L -57.589844 117.472656 L -57.589844 144.027344 L -44.414062 144.027344 C -42.753906 142.160156 -40.371094 140.941406 -37.675781 140.941406 C -32.703125 140.941406 -28.671875 144.972656 -28.671875 149.964844 C -28.671875 154.953125 -32.707031 158.972656 -37.675781 158.972656 C -40.371094 158.972656 -42.753906 157.757812 -44.414062 155.882812 L -57.589844 155.882812 L -57.589844 182.421875 L -44.414062 182.421875 C -42.753906 180.546875 -40.371094 179.34375 -37.675781 179.34375 C -32.703125 179.34375 -28.671875 183.378906 -28.671875 188.359375 C -28.671875 193.339844 -32.707031 197.367188 -37.675781 197.367188 C -40.371094 197.367188 -42.753906 196.164062 -44.414062 194.292969 L -57.589844 194.292969 L -57.589844 220.84375 L -44.414062 220.84375 C -42.753906 218.972656 -40.371094 217.753906 -37.675781 217.753906 C -32.703125 217.753906 -28.671875 221.789062 -28.671875 226.761719 C -28.671875 231.734375 -32.707031 235.777344 -37.675781 235.777344 C -40.371094 235.777344 -42.753906 234.574219 -44.414062 232.699219 L -57.589844 232.699219 L -57.589844 259.253906 L -44.414062 259.253906 C -42.753906 257.378906 -40.371094 256.183594 -37.675781 256.183594 C -32.703125 256.183594 -28.671875 260.210938 -28.671875 265.183594 C -28.671875 270.15625 -32.707031 274.199219 -37.675781 274.199219 C -40.371094 274.199219 -42.753906 272.988281 -44.414062 271.117188 L -57.589844 271.117188 L -57.589844 297.675781 L -44.414062 297.675781 C -42.753906 295.804688 -40.371094 294.585938 -37.675781 294.585938 C -32.703125 294.585938 -28.671875 298.621094 -28.671875 303.601562 C -28.671875 308.582031 -32.707031 312.609375 -37.675781 312.609375 C -40.371094 312.609375 -42.753906 311.398438 -44.414062 309.519531 L -57.589844 309.519531 L -57.589844 336.0625 L -44.414062 336.0625 C -42.753906 334.203125 -40.371094 332.992188 -37.675781 332.992188 C -32.703125 332.992188 -28.671875 337.023438 -28.671875 342.003906 C -28.671875 346.988281 -32.707031 351.011719 -37.675781 351.011719 C -40.371094 351.011719 -42.753906 349.808594 -44.414062 347.941406 L -57.589844 347.941406 L -57.589844 374.496094 L -44.414062 374.496094 C -42.753906 372.621094 -40.371094 371.410156 -37.675781 371.410156 C -32.703125 371.410156 -28.671875 375.445312 -28.671875 380.433594 C -28.671875 385.421875 -32.707031 389.433594 -37.675781 389.433594 C -40.371094 389.433594 -42.753906 388.230469 -44.40625 386.359375 L -57.589844 386.359375 L -57.589844 412.910156 L -44.414062 412.910156 C -42.753906 411.039062 -40.371094 409.828125 -37.675781 409.828125 C -32.703125 409.828125 -28.671875 413.855469 -28.671875 418.835938 C -28.671875 423.816406 -32.707031 427.835938 -37.675781 427.835938 C -40.371094 427.835938 -42.753906 426.632812 -44.414062 424.757812 L -57.589844 424.757812 L -57.589844 451.3125 L -44.414062 451.3125 C -42.753906 449.4375 -40.371094 448.234375 -37.675781 448.234375 C -32.703125 448.234375 -28.671875 452.257812 -28.671875 457.242188 C -28.671875 462.222656 -32.707031 466.253906 -37.675781 466.253906 C -40.371094 466.253906 -42.753906 465.042969 -44.414062 463.160156 L -57.589844 463.160156 L -57.589844 489.707031 L -44.414062 489.707031 C -42.753906 487.847656 -40.371094 486.628906 -37.675781 486.628906 C -32.703125 486.628906 -28.671875 490.664062 -28.671875 495.636719 C -28.671875 500.609375 -32.707031 504.644531 -37.675781 504.644531 C -40.371094 504.644531 -42.753906 503.457031 -44.414062 501.578125 L -57.589844 501.578125 L -57.589844 528.121094 L -44.414062 528.121094 C -42.753906 526.25 -40.371094 525.03125 -37.675781 525.03125 C -32.703125 525.03125 -28.671875 529.074219 -28.671875 534.054688 C -28.671875 539.035156 -32.707031 543.0625 -37.675781 543.0625 C -40.371094 543.0625 -42.753906 541.851562 -44.40625 539.976562 L -57.589844 539.976562 L -57.589844 566.53125 L -44.414062 566.53125 C -42.753906 564.65625 -40.371094 563.460938 -37.675781 563.460938 C -32.703125 563.460938 -28.671875 567.488281 -28.671875 572.46875 C -28.671875 577.449219 -32.707031 581.464844 -37.675781 581.464844 C -40.371094 581.464844 -42.753906 580.273438 -44.40625 578.394531 L -57.589844 578.394531 L -57.589844 604.945312 L -44.414062 604.945312 C -42.753906 603.074219 -40.371094 601.863281 -37.675781 601.863281 C -32.703125 601.863281 -28.671875 605.890625 -28.671875 610.871094 C -28.671875 615.851562 -32.707031 619.886719 -37.675781 619.886719 C -40.371094 619.886719 -42.753906 618.683594 -44.414062 616.789062 L -57.589844 616.789062 L -57.589844 643.347656 L -44.414062 643.347656 C -42.753906 641.476562 -40.371094 640.265625 -37.675781 640.265625 C -32.703125 640.265625 -28.671875 644.292969 -28.671875 649.273438 C -28.671875 654.253906 -32.707031 658.289062 -37.675781 658.289062 C -40.371094 658.289062 -42.753906 657.078125 -44.414062 655.210938 L -57.589844 655.210938 L -57.589844 681.75 L -44.40625 681.75 C -42.753906 679.882812 -40.371094 678.671875 -37.675781 678.671875 C -32.703125 678.671875 -28.671875 682.6875 -28.671875 687.679688 C -28.671875 692.667969 -32.707031 696.683594 -37.675781 696.683594 C -40.371094 696.683594 -42.753906 695.472656 -44.414062 693.613281 L -57.589844 693.613281 L -57.589844 720.152344 L -44.414062 720.152344 C -42.753906 718.285156 -40.371094 717.082031 -37.675781 717.082031 C -32.703125 717.082031 -28.671875 721.117188 -28.671875 726.089844 C -28.671875 731.0625 -32.707031 735.097656 -37.675781 735.097656 C -40.371094 735.097656 -42.753906 733.894531 -44.40625 732.023438 L -57.589844 732.023438 L -57.589844 758.566406 L -44.414062 758.566406 C -42.753906 756.6875 -40.371094 755.492188 -37.675781 755.492188 C -32.703125 755.492188 -28.671875 759.511719 -28.671875 764.5 C -28.671875 769.488281 -32.707031 773.507812 -37.675781 773.507812 C -40.371094 773.507812 -42.753906 772.304688 -44.414062 770.421875 L -57.589844 770.421875 L -57.589844 796.96875 L -44.414062 796.96875 C -42.753906 795.101562 -40.371094 793.890625 -37.675781 793.890625 C -32.703125 793.890625 -28.671875 797.914062 -28.671875 802.898438 C -28.671875 807.878906 -32.707031 811.914062 -37.675781 811.914062 C -40.371094 811.914062 -42.753906 810.710938 -44.414062 808.839844 L -57.589844 808.839844 L -57.589844 835.382812 L -44.414062 835.382812 C -42.753906 833.511719 -40.371094 832.292969 -37.675781 832.292969 C -32.703125 832.292969 -28.671875 836.328125 -28.671875 841.308594 C -28.671875 846.289062 -32.707031 850.324219 -37.675781 850.324219 C -40.371094 850.324219 -42.753906 849.105469 -44.414062 847.242188 L -57.589844 847.242188 L -57.589844 881.089844 L 575.738281 881.089844 C 578.878906 881.089844 581.421875 878.539062 581.421875 875.40625 L 581.421875 50.371094 C 581.421875 47.226562 578.878906 44.683594 575.738281 44.683594 L -57.589844 44.683594 L -57.589844 67.203125 L -44.40625 67.203125 C -42.753906 65.335938 -40.371094 64.117188 -37.675781 64.117188 Z M -10.1875 119.125 L 528.332031 119.125 L 528.332031 121.964844 L -10.1875 121.964844 Z M -10.1875 162.742188 L 528.332031 162.742188 L 528.332031 165.578125 L -10.1875 165.578125 Z M -10.1875 206.351562 L 528.332031 206.351562 L 528.332031 209.1875 L -10.1875 209.1875 Z M -10.1875 249.96875 L 528.332031 249.96875 L 528.332031 252.804688 L -10.1875 252.804688 Z M -10.1875 293.585938 L 528.332031 293.585938 L 528.332031 296.421875 L -10.1875 296.421875 Z M -10.1875 337.191406 L 528.332031 337.191406 L 528.332031 340.03125 L -10.1875 340.03125 Z M -10.1875 380.816406 L 528.332031 380.816406 L 528.332031 383.648438 L -10.1875 383.648438 Z M -10.1875 424.417969 L 528.332031 424.417969 L 528.332031 427.265625 L -10.1875 427.265625 Z M -10.1875 468.027344 L 528.332031 468.027344 L 528.332031 470.875 L -10.1875 470.875 Z M -10.1875 511.652344 L 528.332031 511.652344 L 528.332031 514.507812 L -10.1875 514.507812 Z M -10.1875 555.269531 L 528.332031 555.269531 L 528.332031 558.125 L -10.1875 558.125 Z M -10.1875 598.878906 L 528.332031 598.878906 L 528.332031 601.71875 L -10.1875 601.71875 Z M -10.1875 642.503906 L 528.332031 642.503906 L 528.332031 645.34375 L -10.1875 645.34375 Z M -10.1875 686.113281 L 528.332031 686.113281 L 528.332031 688.953125 L -10.1875 688.953125 Z M -10.1875 729.730469 L 528.332031 729.730469 L 528.332031 732.5625 L -10.1875 732.5625 Z M -10.1875 773.339844 L 528.332031 773.339844 L 528.332031 776.1875 L -10.1875 776.1875 Z M -10.1875 816.964844 L 528.332031 816.964844 L 528.332031 819.804688 L -10.1875 819.804688 Z M -10.1875 816.964844 " fill-opacity="1" fill-rule="nonzero"/><path fill="#f7f8f8" d="M -10.1875 119.125 L 528.332031 119.125 L 528.332031 121.964844 L -10.1875 121.964844 Z M -10.1875 119.125 " fill-opacity="1" fill-rule="nonzero"/><path fill="#f7f8f8" d="M -10.1875 162.742188 L 528.332031 162.742188 L 528.332031 165.578125 L -10.1875 165.578125 Z M -10.1875 162.742188 " fill-opacity="1" fill-rule="nonzero"/><path fill="#f7f8f8" d="M -10.1875 206.351562 L 528.332031 206.351562 L 528.332031 209.1875 L -10.1875 209.1875 Z M -10.1875 206.351562 " fill-opacity="1" fill-rule="nonzero"/><path fill="#f7f8f8" d="M -10.1875 249.96875 L 528.332031 249.96875 L 528.332031 252.804688 L -10.1875 252.804688 Z M -10.1875 249.96875 " fill-opacity="1" fill-rule="nonzero"/><path fill="#f7f8f8" d="M -10.1875 293.585938 L 528.332031 293.585938 L 528.332031 296.421875 L -10.1875 296.421875 Z M -10.1875 293.585938 " fill-opacity="1" fill-rule="nonzero"/><path fill="#f7f8f8" d="M -10.1875 337.191406 L 528.332031 337.191406 L 528.332031 340.03125 L -10.1875 340.03125 Z M -10.1875 337.191406 " fill-opacity="1" fill-rule="nonzero"/><path fill="#f7f8f8" d="M -10.1875 380.816406 L 528.332031 380.816406 L 528.332031 383.648438 L -10.1875 383.648438 Z M -10.1875 380.816406 " fill-opacity="1" fill-rule="nonzero"/><path fill="#f7f8f8" d="M -10.1875 424.417969 L 528.332031 424.417969 L 528.332031 427.265625 L -10.1875 427.265625 Z M -10.1875 424.417969 " fill-opacity="1" fill-rule="nonzero"/><path fill="#f7f8f8" d="M -10.1875 468.027344 L 528.332031 468.027344 L 528.332031 470.875 L -10.1875 470.875 Z M -10.1875 468.027344 " fill-opacity="1" fill-rule="nonzero"/><path fill="#f7f8f8" d="M -10.1875 511.652344 L 528.332031 511.652344 L 528.332031 514.507812 L -10.1875 514.507812 Z M -10.1875 511.652344 " fill-opacity="1" fill-rule="nonzero"/><path fill="#f7f8f8" d="M -10.1875 555.269531 L 528.332031 555.269531 L 528.332031 558.125 L -10.1875 558.125 Z M -10.1875 555.269531 " fill-opacity="1" fill-rule="nonzero"/><path fill="#f7f8f8" d="M -10.1875 598.878906 L 528.332031 598.878906 L 528.332031 601.71875 L -10.1875 601.71875 Z M -10.1875 598.878906 " fill-opacity="1" fill-rule="nonzero"/><path fill="#f7f8f8" d="M -10.1875 642.503906 L 528.332031 642.503906 L 528.332031 645.34375 L -10.1875 645.34375 Z M -10.1875 642.503906 " fill-opacity="1" fill-rule="nonzero"/><path fill="#f7f8f8" d="M -10.1875 686.113281 L 528.332031 686.113281 L 528.332031 688.953125 L -10.1875 688.953125 Z M -10.1875 686.113281 " fill-opacity="1" fill-rule="nonzero"/><path fill="#f7f8f8" d="M -10.1875 729.730469 L 528.332031 729.730469 L 528.332031 732.5625 L -10.1875 732.5625 Z M -10.1875 729.730469 " fill-opacity="1" fill-rule="nonzero"/><path fill="#f7f8f8" d="M -10.1875 773.339844 L 528.332031 773.339844 L 528.332031 776.1875 L -10.1875 776.1875 Z M -10.1875 773.339844 " fill-opacity="1" fill-rule="nonzero"/><path fill="#262a2f" d="M 607.679688 560.445312 L 602.191406 560.445312 L 602.191406 307.851562 L 596.699219 307.851562 L 596.699219 560.460938 L 607.679688 560.460938 Z M 607.679688 560.445312 " fill-opacity="1" fill-rule="nonzero"/><path fill="#262a2f" d="M 656.535156 560.445312 L 656.535156 560.460938 L 667.519531 560.460938 L 667.519531 307.851562 L 662.027344 307.851562 L 662.027344 560.445312 Z M 656.535156 560.445312 " fill-opacity="1" fill-rule="nonzero"/><path fill="#30353a" d="M 657.28125 307.851562 L 647.480469 307.851562 L 656.535156 307.851562 L 656.535156 560.445312 L 662.027344 560.445312 L 662.027344 307.851562 Z M 657.28125 307.851562 " fill-opacity="1" fill-rule="nonzero"/><path fill="#30353a" d="M 607.679688 560.445312 L 607.679688 307.851562 L 616.742188 307.851562 L 602.191406 307.851562 L 602.191406 560.445312 Z M 607.679688 560.445312 " fill-opacity="1" fill-rule="nonzero"/><path fill="#393f44" d="M 607.679688 307.851562 L 607.679688 560.460938 L 613.179688 560.460938 L 613.179688 307.851562 Z M 607.679688 307.851562 " fill-opacity="1" fill-rule="nonzero"/><path fill="#393f44" d="M 652.773438 560.460938 L 656.535156 560.460938 L 656.535156 307.851562 L 651.039062 307.851562 L 651.039062 560.460938 Z M 652.773438 560.460938 " fill-opacity="1" fill-rule="nonzero"/><path fill="#42494f" d="M 620.003906 560.460938 L 620.300781 560.460938 L 620.300781 560.445312 L 616.742188 560.445312 L 616.742188 307.851562 L 613.179688 307.851562 L 613.179688 560.460938 Z M 620.003906 560.460938 " fill-opacity="1" fill-rule="nonzero"/><path fill="#42494f" d="M 644.480469 560.460938 L 651.039062 560.460938 L 651.039062 307.851562 L 647.480469 307.851562 L 647.480469 560.445312 L 643.910156 560.445312 L 643.910156 560.460938 Z M 644.480469 560.460938 " fill-opacity="1" fill-rule="nonzero"/><path fill="#51585e" d="M 616.742188 560.445312 L 620.300781 560.445312 L 620.300781 307.851562 L 643.910156 307.851562 L 643.910156 560.445312 L 647.480469 560.445312 L 647.480469 307.851562 L 616.742188 307.851562 Z M 616.742188 560.445312 " fill-opacity="1" fill-rule="nonzero"/><path fill="#60686e" d="M 621.503906 560.460938 L 623.871094 560.460938 L 623.871094 307.851562 L 620.300781 307.851562 L 620.300781 560.460938 Z M 621.503906 560.460938 " fill-opacity="1" fill-rule="nonzero"/><path fill="#60686e" d="M 643.910156 560.460938 L 643.910156 307.851562 L 640.351562 307.851562 L 640.351562 560.460938 Z M 643.910156 560.460938 " fill-opacity="1" fill-rule="nonzero"/><path fill="#707a7f" d="M 625.082031 560.460938 L 640.351562 560.460938 L 640.351562 307.851562 L 623.871094 307.851562 L 623.871094 560.460938 Z M 625.082031 560.460938 " fill-opacity="1" fill-rule="nonzero"/></svg>