<svg xmlns="http://www.w3.org/2000/svg" xmlns:xlink="http://www.w3.org/1999/xlink" width="960" zoomAndPan="magnify" viewBox="0 0 720 809.999993" height="1080" preserveAspectRatio="xMidYMid meet" version="1.0"><path fill="#1b1b1e" d="M 1499.929688 20.988281 C 1499.929688 8.414062 1489.738281 -1.78125 1477.171875 -1.78125 L 730.34375 -1.78125 C 729.839844 -2.09375 729.300781 -2.367188 728.773438 -2.648438 C 728.597656 -2.738281 728.433594 -2.855469 728.265625 -2.9375 C 728.242188 -2.960938 728.21875 -2.960938 728.1875 -2.976562 C 727.351562 -3.386719 726.496094 -3.746094 725.613281 -4.058594 C 725.589844 -4.058594 725.574219 -4.085938 725.546875 -4.085938 C 725.546875 -4.085938 725.523438 -4.085938 725.523438 -4.101562 C 724.714844 -4.363281 723.894531 -4.605469 723.054688 -4.78125 C 722.980469 -4.804688 722.910156 -4.839844 722.847656 -4.855469 C 722.132812 -5 721.410156 -5.109375 720.679688 -5.191406 C 720.625 -5.207031 720.585938 -5.222656 720.535156 -5.222656 C 719.75 -5.304688 718.964844 -5.351562 718.164062 -5.351562 L 712.476562 -5.351562 C 711.683594 -5.351562 710.898438 -5.304688 710.117188 -5.222656 C 710.0625 -5.222656 710.023438 -5.199219 709.972656 -5.191406 C 709.238281 -5.117188 708.515625 -5 707.808594 -4.855469 C 707.730469 -4.839844 707.65625 -4.789062 707.578125 -4.78125 C 706.78125 -4.605469 706.011719 -4.382812 705.257812 -4.125 C 705.203125 -4.109375 705.148438 -4.101562 705.105469 -4.09375 C 705.105469 -4.09375 705.089844 -4.074219 705.089844 -4.066406 C 704.167969 -3.761719 703.269531 -3.386719 702.410156 -2.960938 C 702.402344 -2.953125 702.394531 -2.9375 702.394531 -2.9375 C 702.347656 -2.914062 702.308594 -2.882812 702.257812 -2.855469 C 701.585938 -2.519531 700.945312 -2.167969 700.3125 -1.773438 L 21.738281 -1.773438 C 9.171875 -1.773438 -1.019531 8.414062 -1.019531 20.996094 L -1.019531 904.746094 C -1.019531 917.3125 9.164062 927.5 21.738281 927.5 L 700.3125 927.5 C 700.976562 927.925781 701.675781 928.308594 702.378906 928.671875 L 702.394531 928.671875 C 702.394531 928.671875 702.394531 928.6875 702.402344 928.6875 C 704.105469 929.523438 705.902344 930.164062 707.800781 930.5625 C 708.492188 930.714844 709.195312 930.820312 709.910156 930.902344 C 709.972656 930.917969 710.046875 930.933594 710.117188 930.933594 C 710.898438 931.011719 711.683594 931.0625 712.476562 931.0625 L 718.164062 931.0625 C 718.964844 931.0625 719.75 931.011719 720.527344 930.933594 C 720.601562 930.933594 720.664062 930.910156 720.738281 930.902344 C 721.441406 930.820312 722.148438 930.726562 722.835938 930.5625 C 723.753906 930.386719 724.632812 930.113281 725.515625 929.816406 C 725.515625 929.800781 725.539062 929.800781 725.539062 929.800781 C 725.566406 929.800781 725.582031 929.792969 725.605469 929.792969 C 726.511719 929.464844 727.394531 929.105469 728.242188 928.679688 C 728.242188 928.679688 728.257812 928.679688 728.257812 928.664062 C 728.972656 928.300781 729.664062 927.917969 730.335938 927.492188 L 1477.164062 927.492188 C 1489.730469 927.492188 1499.921875 917.304688 1499.921875 904.738281 L 1499.921875 20.988281 Z M 1499.929688 20.988281 " fill-opacity="1" fill-rule="nonzero"/><path fill="#35393e" d="M 420.949219 10.480469 L 39.527344 10.480469 C 27.289062 10.480469 17.367188 20.402344 17.367188 32.644531 L 17.367188 893.074219 C 17.367188 905.296875 27.289062 915.238281 39.527344 915.238281 L 420.949219 915.238281 L 420.949219 881.035156 L 79.695312 881.035156 C 76.558594 881.035156 74 878.484375 74 875.347656 L 74 50.367188 C 74 47.226562 76.550781 44.683594 79.695312 44.683594 L 689.726562 44.683594 L 689.726562 17.417969 C 689.726562 15.003906 690.117188 12.671875 690.808594 10.480469 Z M 420.949219 10.480469 " fill-opacity="1" fill-rule="nonzero"/><path fill="#bfc5cd" d="M 689.726562 44.683594 L 696.878906 44.683594 L 696.878906 0.890625 C 696.398438 1.339844 695.933594 1.820312 695.492188 2.316406 C 695.492188 2.324219 695.484375 2.324219 695.484375 2.339844 C 693.40625 4.675781 691.792969 7.433594 690.816406 10.480469 C 690.117188 12.671875 689.734375 15.003906 689.734375 17.417969 L 689.734375 44.683594 Z M 689.726562 44.683594 " fill-opacity="1" fill-rule="nonzero"/><path fill="#afb7bf" d="M 698.28125 44.683594 L 698.28125 -0.347656 C 697.800781 0.046875 697.335938 0.464844 696.878906 0.890625 L 696.878906 44.683594 Z M 698.28125 44.683594 " fill-opacity="1" fill-rule="nonzero"/><path fill="#a1a8b1" d="M 699.675781 44.683594 L 699.675781 -1.398438 C 699.210938 -1.066406 698.769531 -0.722656 698.3125 -0.363281 C 698.296875 -0.363281 698.28125 -0.355469 698.273438 -0.339844 L 698.273438 44.691406 L 699.667969 44.691406 Z M 699.675781 44.683594 " fill-opacity="1" fill-rule="nonzero"/><path fill="#929aa3" d="M 699.675781 -1.398438 L 699.675781 44.683594 L 702.386719 44.683594 L 702.386719 -2.945312 C 702.339844 -2.921875 702.300781 -2.890625 702.25 -2.863281 C 701.488281 -2.488281 700.769531 -2.0625 700.0625 -1.613281 C 699.933594 -1.535156 699.804688 -1.476562 699.675781 -1.40625 Z M 699.675781 -1.398438 " fill-opacity="1" fill-rule="nonzero"/><path fill="#7e858d" d="M 705.097656 44.683594 L 705.097656 -4.09375 C 705.097656 -4.09375 705.082031 -4.074219 705.082031 -4.066406 C 704.160156 -3.761719 703.261719 -3.386719 702.402344 -2.960938 C 702.394531 -2.953125 702.386719 -2.9375 702.386719 -2.9375 L 702.386719 44.691406 L 705.097656 44.691406 Z M 705.097656 44.683594 " fill-opacity="1" fill-rule="nonzero"/><path fill="#6b737b" d="M 707.800781 44.683594 L 707.800781 -4.847656 C 707.722656 -4.828125 707.648438 -4.78125 707.570312 -4.773438 C 706.773438 -4.597656 706.003906 -4.371094 705.25 -4.117188 C 705.195312 -4.101562 705.136719 -4.09375 705.097656 -4.085938 L 705.097656 44.691406 L 707.800781 44.691406 Z M 707.800781 44.683594 " fill-opacity="1" fill-rule="nonzero"/><path fill="#586168" d="M 713.015625 44.683594 L 713.015625 67.203125 L 722.492188 67.203125 L 722.492188 44.683594 L 722.847656 44.683594 L 722.847656 -4.847656 C 722.132812 -4.992188 721.410156 -5.101562 720.679688 -5.183594 C 720.625 -5.199219 720.585938 -5.214844 720.535156 -5.214844 C 719.75 -5.296875 718.964844 -5.34375 718.164062 -5.34375 L 712.476562 -5.34375 C 711.683594 -5.34375 710.898438 -5.296875 710.117188 -5.214844 C 710.0625 -5.214844 710.023438 -5.191406 709.972656 -5.183594 C 709.238281 -5.109375 708.515625 -4.992188 707.808594 -4.847656 L 707.808594 44.683594 L 713.023438 44.683594 Z M 713.015625 44.683594 " fill-opacity="1" fill-rule="nonzero"/><path fill="#586168" d="M 713.015625 731.96875 L 722.492188 731.96875 L 722.492188 758.511719 L 713.015625 758.511719 Z M 713.015625 731.96875 " fill-opacity="1" fill-rule="nonzero"/><path fill="#586168" d="M 713.015625 271.085938 L 722.492188 271.085938 L 722.492188 297.640625 L 713.015625 297.640625 Z M 713.015625 271.085938 " fill-opacity="1" fill-rule="nonzero"/><path fill="#586168" d="M 713.015625 693.566406 L 722.492188 693.566406 L 722.492188 720.105469 L 713.015625 720.105469 Z M 713.015625 693.566406 " fill-opacity="1" fill-rule="nonzero"/><path fill="#586168" d="M 713.015625 539.925781 L 722.492188 539.925781 L 722.492188 566.484375 L 713.015625 566.484375 Z M 713.015625 539.925781 " fill-opacity="1" fill-rule="nonzero"/><path fill="#586168" d="M 713.015625 232.675781 L 722.492188 232.675781 L 722.492188 259.230469 L 713.015625 259.230469 Z M 713.015625 232.675781 " fill-opacity="1" fill-rule="nonzero"/><path fill="#586168" d="M 713.015625 194.277344 L 722.492188 194.277344 L 722.492188 220.828125 L 713.015625 220.828125 Z M 713.015625 194.277344 " fill-opacity="1" fill-rule="nonzero"/><path fill="#586168" d="M 713.015625 347.902344 L 722.492188 347.902344 L 722.492188 374.457031 L 713.015625 374.457031 Z M 713.015625 347.902344 " fill-opacity="1" fill-rule="nonzero"/><path fill="#586168" d="M 713.015625 309.488281 L 722.492188 309.488281 L 722.492188 336.03125 L 713.015625 336.03125 Z M 713.015625 309.488281 " fill-opacity="1" fill-rule="nonzero"/><path fill="#586168" d="M 713.015625 155.867188 L 722.492188 155.867188 L 722.492188 182.40625 L 713.015625 182.40625 Z M 713.015625 155.867188 " fill-opacity="1" fill-rule="nonzero"/><path fill="#586168" d="M 713.015625 117.464844 L 722.492188 117.464844 L 722.492188 144.019531 L 713.015625 144.019531 Z M 713.015625 117.464844 " fill-opacity="1" fill-rule="nonzero"/><path fill="#586168" d="M 713.015625 424.707031 L 722.492188 424.707031 L 722.492188 451.265625 L 713.015625 451.265625 Z M 713.015625 424.707031 " fill-opacity="1" fill-rule="nonzero"/><path fill="#586168" d="M 713.015625 79.050781 L 722.492188 79.050781 L 722.492188 105.609375 L 713.015625 105.609375 Z M 713.015625 79.050781 " fill-opacity="1" fill-rule="nonzero"/><path fill="#586168" d="M 713.015625 770.363281 L 722.492188 770.363281 L 722.492188 796.914062 L 713.015625 796.914062 Z M 713.015625 770.363281 " fill-opacity="1" fill-rule="nonzero"/><path fill="#586168" d="M 713.015625 386.304688 L 722.492188 386.304688 L 722.492188 412.851562 L 713.015625 412.851562 Z M 713.015625 386.304688 " fill-opacity="1" fill-rule="nonzero"/><path fill="#586168" d="M 713.015625 808.785156 L 722.492188 808.785156 L 722.492188 835.324219 L 713.015625 835.324219 Z M 713.015625 808.785156 " fill-opacity="1" fill-rule="nonzero"/><path fill="#586168" d="M 713.015625 616.734375 L 722.492188 616.734375 L 722.492188 643.292969 L 713.015625 643.292969 Z M 713.015625 616.734375 " fill-opacity="1" fill-rule="nonzero"/><path fill="#586168" d="M 713.015625 463.113281 L 722.492188 463.113281 L 722.492188 489.660156 L 713.015625 489.660156 Z M 713.015625 463.113281 " fill-opacity="1" fill-rule="nonzero"/><path fill="#586168" d="M 713.015625 501.53125 L 722.492188 501.53125 L 722.492188 528.074219 L 713.015625 528.074219 Z M 713.015625 501.53125 " fill-opacity="1" fill-rule="nonzero"/><path fill="#586168" d="M 713.015625 655.160156 L 722.492188 655.160156 L 722.492188 681.703125 L 713.015625 681.703125 Z M 713.015625 655.160156 " fill-opacity="1" fill-rule="nonzero"/><path fill="#586168" d="M 713.015625 578.339844 L 722.492188 578.339844 L 722.492188 604.886719 L 713.015625 604.886719 Z M 713.015625 578.339844 " fill-opacity="1" fill-rule="nonzero"/><path fill="#f7f8f8" d="M 74 50.367188 L 74 875.347656 C 74 878.476562 76.550781 881.035156 79.695312 881.035156 L 370.050781 881.035156 L 370.050781 819.8125 L 127.097656 819.8125 L 127.097656 816.972656 L 370.042969 816.972656 L 370.042969 776.195312 L 127.097656 776.195312 L 127.097656 773.347656 L 370.042969 773.347656 L 370.042969 732.570312 L 127.097656 732.570312 L 127.097656 729.738281 L 370.042969 729.738281 L 370.042969 688.960938 L 127.097656 688.960938 L 127.097656 686.121094 L 370.042969 686.121094 L 370.042969 645.351562 L 127.097656 645.351562 L 127.097656 642.511719 L 370.042969 642.511719 L 370.042969 601.734375 L 127.097656 601.734375 L 127.097656 598.894531 L 370.042969 598.894531 L 370.042969 558.132812 L 127.097656 558.132812 L 127.097656 555.277344 L 370.042969 555.277344 L 370.042969 514.523438 L 127.097656 514.523438 L 127.097656 511.667969 L 370.042969 511.667969 L 370.042969 470.890625 L 127.097656 470.890625 L 127.097656 468.042969 L 370.042969 468.042969 L 370.042969 427.28125 L 127.097656 427.28125 L 127.097656 424.433594 L 370.042969 424.433594 L 370.042969 383.664062 L 127.097656 383.664062 L 127.097656 380.835938 L 370.042969 380.835938 L 370.042969 340.046875 L 127.097656 340.046875 L 127.097656 337.210938 L 370.042969 337.210938 L 370.042969 296.4375 L 127.097656 296.4375 L 127.097656 293.601562 L 370.042969 293.601562 L 370.042969 252.832031 L 127.097656 252.832031 L 127.097656 249.992188 L 370.042969 249.992188 L 370.042969 209.214844 L 127.097656 209.214844 L 127.097656 206.375 L 370.042969 206.375 L 370.042969 165.605469 L 127.097656 165.605469 L 127.097656 162.765625 L 370.042969 162.765625 L 370.042969 121.996094 L 127.097656 121.996094 L 127.097656 119.15625 L 370.042969 119.15625 L 370.042969 44.714844 L 79.695312 44.714844 C 76.558594 44.714844 74 47.25 74 50.402344 Z M 74 50.367188 " fill-opacity="1" fill-rule="nonzero"/><path fill="#f7f8f8" d="M 695.484375 881.035156 L 713.015625 881.035156 L 713.015625 847.1875 L 699.835938 847.1875 C 698.1875 849.050781 695.789062 850.269531 693.101562 850.269531 C 688.128906 850.269531 684.09375 846.234375 684.09375 841.253906 C 684.09375 836.273438 688.121094 832.238281 693.101562 832.238281 C 695.789062 832.238281 698.1875 833.449219 699.835938 835.324219 L 713.015625 835.324219 L 713.015625 808.785156 L 699.835938 808.785156 C 698.1875 810.652344 695.789062 811.855469 693.101562 811.855469 C 688.128906 811.855469 684.09375 807.820312 684.09375 802.839844 C 684.09375 797.859375 688.121094 793.832031 693.101562 793.832031 C 695.804688 793.832031 698.1875 795.035156 699.835938 796.914062 L 713.015625 796.914062 L 713.015625 770.363281 L 699.835938 770.363281 C 698.1875 772.25 695.789062 773.453125 693.101562 773.453125 C 688.128906 773.453125 684.09375 769.417969 684.09375 764.445312 C 684.09375 759.472656 688.121094 755.4375 693.101562 755.4375 C 695.789062 755.4375 698.1875 756.632812 699.835938 758.511719 L 713.015625 758.511719 L 713.015625 731.96875 L 699.835938 731.96875 C 698.175781 733.839844 695.789062 735.042969 693.101562 735.042969 C 688.128906 735.042969 684.09375 731.007812 684.09375 726.035156 C 684.09375 721.0625 688.121094 717.027344 693.101562 717.027344 C 695.804688 717.027344 698.1875 718.230469 699.835938 720.097656 L 713.015625 720.097656 L 713.015625 693.558594 L 699.835938 693.558594 C 698.1875 695.417969 695.789062 696.628906 693.101562 696.628906 C 688.128906 696.628906 684.09375 692.601562 684.09375 687.621094 C 684.09375 682.640625 688.121094 678.613281 693.101562 678.613281 C 695.789062 678.613281 698.175781 679.816406 699.835938 681.695312 L 713.015625 681.695312 L 713.015625 655.152344 L 699.835938 655.152344 C 698.1875 657.023438 695.789062 658.234375 693.101562 658.234375 C 688.128906 658.234375 684.09375 654.199219 684.09375 649.21875 C 684.09375 644.238281 688.121094 640.210938 693.101562 640.210938 C 695.804688 640.210938 698.1875 641.414062 699.835938 643.292969 L 713.015625 643.292969 L 713.015625 616.734375 L 699.835938 616.734375 C 698.1875 618.621094 695.789062 619.832031 693.101562 619.832031 C 688.128906 619.832031 684.09375 615.796875 684.09375 610.816406 C 684.09375 605.835938 688.121094 601.808594 693.101562 601.808594 C 695.804688 601.808594 698.1875 603.011719 699.835938 604.886719 L 713.015625 604.886719 L 713.015625 578.339844 L 699.835938 578.339844 C 698.175781 580.214844 695.789062 581.410156 693.101562 581.410156 C 688.128906 581.410156 684.09375 577.382812 684.09375 572.410156 C 684.09375 567.4375 688.121094 563.402344 693.101562 563.402344 C 695.789062 563.402344 698.1875 564.597656 699.835938 566.476562 L 713.015625 566.476562 L 713.015625 539.917969 L 699.835938 539.917969 C 698.175781 541.789062 695.789062 543.007812 693.101562 543.007812 C 688.128906 543.007812 684.09375 538.972656 684.09375 534 C 684.09375 529.027344 688.121094 524.976562 693.101562 524.976562 C 695.789062 524.976562 698.1875 526.195312 699.835938 528.066406 L 713.015625 528.066406 L 713.015625 501.523438 L 699.835938 501.523438 C 698.1875 503.402344 695.789062 504.585938 693.101562 504.585938 C 688.128906 504.585938 684.09375 500.554688 684.09375 495.582031 C 684.09375 490.609375 688.121094 486.574219 693.101562 486.574219 C 695.804688 486.574219 698.1875 487.785156 699.835938 489.652344 L 713.015625 489.652344 L 713.015625 463.105469 L 699.835938 463.105469 C 698.1875 464.988281 695.789062 466.199219 693.101562 466.199219 C 688.128906 466.199219 684.09375 462.164062 684.09375 457.183594 C 684.09375 452.203125 688.121094 448.175781 693.101562 448.175781 C 695.789062 448.175781 698.1875 449.378906 699.835938 451.257812 L 713.015625 451.257812 L 713.015625 424.699219 L 699.835938 424.699219 C 698.1875 426.578125 695.789062 427.78125 693.101562 427.78125 C 688.128906 427.78125 684.09375 423.753906 684.09375 418.78125 C 684.09375 413.808594 688.121094 409.773438 693.101562 409.773438 C 695.804688 409.773438 698.1875 410.976562 699.835938 412.855469 L 713.015625 412.855469 L 713.015625 386.304688 L 699.835938 386.304688 C 698.175781 388.175781 695.789062 389.378906 693.101562 389.378906 C 688.128906 389.378906 684.09375 385.351562 684.09375 380.378906 C 684.09375 375.40625 688.121094 371.355469 693.101562 371.355469 C 695.804688 371.355469 698.1875 372.566406 699.835938 374.441406 L 713.015625 374.441406 L 713.015625 347.886719 L 699.835938 347.886719 C 698.1875 349.753906 695.789062 350.957031 693.101562 350.957031 C 688.128906 350.957031 684.09375 346.921875 684.09375 341.949219 C 684.09375 336.976562 688.121094 332.933594 693.101562 332.933594 C 695.789062 332.933594 698.1875 334.144531 699.835938 336.007812 L 713.015625 336.007812 L 713.015625 309.464844 L 699.835938 309.464844 C 698.1875 311.335938 695.804688 312.554688 693.101562 312.554688 C 688.128906 312.554688 684.09375 308.519531 684.09375 303.546875 C 684.09375 298.574219 688.121094 294.53125 693.101562 294.53125 C 695.789062 294.53125 698.1875 295.742188 699.835938 297.617188 L 713.015625 297.617188 L 713.015625 271.0625 L 699.835938 271.0625 C 698.1875 272.929688 695.789062 274.140625 693.101562 274.140625 C 688.128906 274.140625 684.09375 270.117188 684.09375 265.125 C 684.09375 260.136719 688.121094 256.128906 693.101562 256.128906 C 695.789062 256.128906 698.1875 257.324219 699.835938 259.199219 L 713.015625 259.199219 L 713.015625 232.640625 L 699.835938 232.640625 C 698.1875 234.519531 695.804688 235.722656 693.101562 235.722656 C 688.128906 235.722656 684.09375 231.695312 684.09375 226.707031 C 684.09375 221.71875 688.121094 217.699219 693.101562 217.699219 C 695.804688 217.699219 698.1875 218.910156 699.835938 220.789062 L 713.015625 220.789062 L 713.015625 194.238281 L 699.835938 194.238281 C 698.1875 196.109375 695.804688 197.3125 693.101562 197.3125 C 688.128906 197.3125 684.09375 193.277344 684.09375 188.304688 C 684.09375 183.332031 688.121094 179.289062 693.101562 179.289062 C 695.789062 179.289062 698.1875 180.492188 699.835938 182.367188 L 713.015625 182.367188 L 713.015625 155.828125 L 699.835938 155.828125 C 698.1875 157.695312 695.789062 158.914062 693.101562 158.914062 C 688.128906 158.914062 684.09375 154.878906 684.09375 149.90625 C 684.09375 144.933594 688.121094 140.882812 693.101562 140.882812 C 695.804688 140.882812 698.1875 142.105469 699.835938 143.972656 L 713.015625 143.972656 L 713.015625 117.414062 L 699.835938 117.414062 C 698.1875 119.285156 695.789062 120.488281 693.101562 120.488281 C 688.128906 120.488281 684.09375 116.46875 684.09375 111.480469 C 684.09375 106.492188 688.121094 102.472656 693.101562 102.472656 C 695.789062 102.472656 698.1875 103.675781 699.835938 105.5625 L 713.015625 105.5625 L 713.015625 79.003906 L 699.835938 79.003906 C 698.1875 80.871094 695.789062 82.082031 693.101562 82.082031 C 688.128906 82.082031 684.09375 78.058594 684.09375 73.070312 C 684.09375 68.078125 688.121094 64.0625 693.101562 64.0625 C 695.789062 64.0625 698.175781 65.273438 699.835938 67.148438 L 713.015625 67.148438 L 713.015625 44.625 L 363.339844 44.625 L 363.339844 119.066406 L 665.609375 119.066406 L 665.609375 121.90625 L 363.339844 121.90625 L 363.339844 162.675781 L 665.609375 162.675781 L 665.609375 165.515625 L 363.339844 165.515625 L 363.339844 206.285156 L 665.609375 206.285156 L 665.609375 209.125 L 363.339844 209.125 L 363.339844 249.902344 L 665.609375 249.902344 L 665.609375 252.742188 L 363.339844 252.742188 L 363.339844 293.511719 L 665.609375 293.511719 L 665.609375 296.351562 L 363.339844 296.351562 L 363.339844 337.121094 L 665.609375 337.121094 L 665.609375 339.960938 L 363.339844 339.960938 L 363.339844 380.746094 L 665.609375 380.746094 L 665.609375 383.578125 L 363.339844 383.578125 L 363.339844 424.347656 L 665.609375 424.347656 L 665.609375 427.195312 L 363.339844 427.195312 L 363.339844 467.957031 L 665.609375 467.957031 L 665.609375 470.804688 L 363.339844 470.804688 L 363.339844 511.582031 L 665.609375 511.582031 L 665.609375 514.4375 L 363.339844 514.4375 L 363.339844 555.191406 L 665.609375 555.191406 L 665.609375 558.046875 L 363.339844 558.046875 L 363.339844 598.808594 L 665.609375 598.808594 L 665.609375 601.648438 L 363.339844 601.648438 L 363.339844 642.425781 L 665.609375 642.425781 L 665.609375 645.265625 L 363.339844 645.265625 L 363.339844 686.035156 L 665.609375 686.035156 L 665.609375 688.875 L 363.339844 688.875 L 363.339844 729.652344 L 665.609375 729.652344 L 665.609375 732.484375 L 363.339844 732.484375 L 363.339844 773.261719 L 665.609375 773.261719 L 665.609375 776.109375 L 363.339844 776.109375 L 363.339844 816.886719 L 665.609375 816.886719 L 665.609375 819.726562 L 363.339844 819.726562 L 363.339844 880.949219 L 695.476562 880.949219 Z M 695.484375 881.035156 " fill-opacity="1" fill-rule="nonzero"/><path fill="#f7f8f8" d="M 363.347656 119.125 L 665.617188 119.125 L 665.617188 121.960938 L 363.347656 121.960938 Z M 363.347656 119.125 " fill-opacity="1" fill-rule="nonzero"/><path fill="#f7f8f8" d="M 127.097656 119.125 L 370.042969 119.125 L 370.042969 121.960938 L 127.097656 121.960938 Z M 127.097656 119.125 " fill-opacity="1" fill-rule="nonzero"/><path fill="#f7f8f8" d="M 127.097656 162.742188 L 370.042969 162.742188 L 370.042969 165.578125 L 127.097656 165.578125 Z M 127.097656 162.742188 " fill-opacity="1" fill-rule="nonzero"/><path fill="#f7f8f8" d="M 363.347656 162.742188 L 665.617188 162.742188 L 665.617188 165.578125 L 363.347656 165.578125 Z M 363.347656 162.742188 " fill-opacity="1" fill-rule="nonzero"/><path fill="#f7f8f8" d="M 363.347656 206.351562 L 665.617188 206.351562 L 665.617188 209.1875 L 363.347656 209.1875 Z M 363.347656 206.351562 " fill-opacity="1" fill-rule="nonzero"/><path fill="#f7f8f8" d="M 127.097656 206.351562 L 370.042969 206.351562 L 370.042969 209.1875 L 127.097656 209.1875 Z M 127.097656 206.351562 " fill-opacity="1" fill-rule="nonzero"/><path fill="#f7f8f8" d="M 127.097656 249.96875 L 370.042969 249.96875 L 370.042969 252.804688 L 127.097656 252.804688 Z M 127.097656 249.96875 " fill-opacity="1" fill-rule="nonzero"/><path fill="#f7f8f8" d="M 363.347656 249.96875 L 665.617188 249.96875 L 665.617188 252.804688 L 363.347656 252.804688 Z M 363.347656 249.96875 " fill-opacity="1" fill-rule="nonzero"/><path fill="#f7f8f8" d="M 127.097656 293.585938 L 370.042969 293.585938 L 370.042969 296.421875 L 127.097656 296.421875 Z M 127.097656 293.585938 " fill-opacity="1" fill-rule="nonzero"/><path fill="#f7f8f8" d="M 363.347656 293.585938 L 665.617188 293.585938 L 665.617188 296.421875 L 363.347656 296.421875 Z M 363.347656 293.585938 " fill-opacity="1" fill-rule="nonzero"/><path fill="#f7f8f8" d="M 127.097656 337.191406 L 370.042969 337.191406 L 370.042969 340.03125 L 127.097656 340.03125 Z M 127.097656 337.191406 " fill-opacity="1" fill-rule="nonzero"/><path fill="#f7f8f8" d="M 363.347656 337.191406 L 665.617188 337.191406 L 665.617188 340.03125 L 363.347656 340.03125 Z M 363.347656 337.191406 " fill-opacity="1" fill-rule="nonzero"/><path fill="#f7f8f8" d="M 127.097656 380.816406 L 370.042969 380.816406 L 370.042969 383.648438 L 127.097656 383.648438 Z M 127.097656 380.816406 " fill-opacity="1" fill-rule="nonzero"/><path fill="#f7f8f8" d="M 363.347656 380.816406 L 665.617188 380.816406 L 665.617188 383.648438 L 363.347656 383.648438 Z M 363.347656 380.816406 " fill-opacity="1" fill-rule="nonzero"/><path fill="#f7f8f8" d="M 127.097656 424.417969 L 370.042969 424.417969 L 370.042969 427.265625 L 127.097656 427.265625 Z M 127.097656 424.417969 " fill-opacity="1" fill-rule="nonzero"/><path fill="#f7f8f8" d="M 363.347656 424.417969 L 665.617188 424.417969 L 665.617188 427.265625 L 363.347656 427.265625 Z M 363.347656 424.417969 " fill-opacity="1" fill-rule="nonzero"/><path fill="#f7f8f8" d="M 127.097656 468.027344 L 370.042969 468.027344 L 370.042969 470.875 L 127.097656 470.875 Z M 127.097656 468.027344 " fill-opacity="1" fill-rule="nonzero"/><path fill="#f7f8f8" d="M 363.347656 468.027344 L 665.617188 468.027344 L 665.617188 470.875 L 363.347656 470.875 Z M 363.347656 468.027344 " fill-opacity="1" fill-rule="nonzero"/><path fill="#f7f8f8" d="M 127.097656 511.652344 L 370.042969 511.652344 L 370.042969 514.507812 L 127.097656 514.507812 Z M 127.097656 511.652344 " fill-opacity="1" fill-rule="nonzero"/><path fill="#f7f8f8" d="M 363.347656 511.652344 L 665.617188 511.652344 L 665.617188 514.507812 L 363.347656 514.507812 Z M 363.347656 511.652344 " fill-opacity="1" fill-rule="nonzero"/><path fill="#f7f8f8" d="M 363.347656 555.269531 L 665.617188 555.269531 L 665.617188 558.125 L 363.347656 558.125 Z M 363.347656 555.269531 " fill-opacity="1" fill-rule="nonzero"/><path fill="#f7f8f8" d="M 127.097656 555.269531 L 370.042969 555.269531 L 370.042969 558.125 L 127.097656 558.125 Z M 127.097656 555.269531 " fill-opacity="1" fill-rule="nonzero"/><path fill="#f7f8f8" d="M 127.097656 598.878906 L 370.042969 598.878906 L 370.042969 601.71875 L 127.097656 601.71875 Z M 127.097656 598.878906 " fill-opacity="1" fill-rule="nonzero"/><path fill="#f7f8f8" d="M 363.347656 598.878906 L 665.617188 598.878906 L 665.617188 601.71875 L 363.347656 601.71875 Z M 363.347656 598.878906 " fill-opacity="1" fill-rule="nonzero"/><path fill="#f7f8f8" d="M 363.347656 642.503906 L 665.617188 642.503906 L 665.617188 645.34375 L 363.347656 645.34375 Z M 363.347656 642.503906 " fill-opacity="1" fill-rule="nonzero"/><path fill="#f7f8f8" d="M 127.097656 642.503906 L 370.042969 642.503906 L 370.042969 645.34375 L 127.097656 645.34375 Z M 127.097656 642.503906 " fill-opacity="1" fill-rule="nonzero"/><path fill="#f7f8f8" d="M 363.347656 686.113281 L 665.617188 686.113281 L 665.617188 688.953125 L 363.347656 688.953125 Z M 363.347656 686.113281 " fill-opacity="1" fill-rule="nonzero"/><path fill="#f7f8f8" d="M 127.097656 686.113281 L 370.042969 686.113281 L 370.042969 688.953125 L 127.097656 688.953125 Z M 127.097656 686.113281 " fill-opacity="1" fill-rule="nonzero"/><path fill="#f7f8f8" d="M 127.097656 729.730469 L 370.042969 729.730469 L 370.042969 732.5625 L 127.097656 732.5625 Z M 127.097656 729.730469 " fill-opacity="1" fill-rule="nonzero"/><path fill="#f7f8f8" d="M 363.347656 729.730469 L 665.617188 729.730469 L 665.617188 732.5625 L 363.347656 732.5625 Z M 363.347656 729.730469 " fill-opacity="1" fill-rule="nonzero"/><path fill="#f7f8f8" d="M 363.347656 773.339844 L 665.617188 773.339844 L 665.617188 776.1875 L 363.347656 776.1875 Z M 363.347656 773.339844 " fill-opacity="1" fill-rule="nonzero"/><path fill="#f7f8f8" d="M 127.097656 773.339844 L 370.042969 773.339844 L 370.042969 776.1875 L 127.097656 776.1875 Z M 127.097656 773.339844 " fill-opacity="1" fill-rule="nonzero"/><path fill="#232d34" d="M 692.292969 76.695312 C 691.980469 76.246094 691.738281 75.761719 691.554688 75.242188 C 691.523438 75.152344 691.496094 75.074219 691.472656 75 C 691.457031 74.9375 691.457031 74.855469 691.441406 74.800781 L 691.417969 74.800781 C 691.289062 74.34375 691.207031 73.871094 691.207031 73.363281 L 691.207031 72.898438 C 691.207031 72.410156 691.289062 71.929688 691.410156 71.472656 L 691.433594 71.472656 C 691.449219 71.398438 691.449219 71.335938 691.464844 71.269531 C 691.496094 71.183594 691.523438 71.09375 691.554688 71.023438 C 691.730469 70.507812 691.980469 70.027344 692.292969 69.585938 C 693.324219 68.160156 695 67.222656 696.894531 67.222656 L 699.835938 67.222656 C 698.175781 65.351562 695.789062 64.132812 693.101562 64.132812 C 688.128906 64.132812 684.09375 68.167969 684.09375 73.140625 C 684.09375 78.113281 688.121094 82.15625 693.101562 82.15625 C 695.789062 82.15625 698.1875 80.945312 699.835938 79.074219 L 696.894531 79.074219 C 695 79.074219 693.324219 78.144531 692.292969 76.71875 Z M 692.292969 76.695312 " fill-opacity="1" fill-rule="nonzero"/><path fill="#232d34" d="M 692.324219 115.089844 L 692.300781 115.089844 C 691.988281 114.65625 691.746094 114.167969 691.5625 113.652344 C 691.53125 113.574219 691.503906 113.5 691.480469 113.414062 C 691.457031 113.339844 691.464844 113.277344 691.449219 113.210938 L 691.425781 113.210938 C 691.296875 112.746094 691.214844 112.28125 691.214844 111.785156 L 691.214844 111.304688 C 691.214844 110.8125 691.296875 110.332031 691.417969 109.875 L 691.441406 109.875 C 691.457031 109.804688 691.457031 109.738281 691.472656 109.667969 C 691.503906 109.59375 691.53125 109.515625 691.5625 109.433594 C 691.738281 108.914062 691.988281 108.433594 692.300781 107.992188 C 693.332031 106.554688 695.011719 105.625 696.902344 105.625 L 699.847656 105.625 C 698.195312 103.738281 695.796875 102.535156 693.109375 102.535156 C 688.136719 102.535156 684.101562 106.570312 684.101562 111.542969 C 684.101562 116.515625 688.128906 120.550781 693.109375 120.550781 C 695.796875 120.550781 698.195312 119.347656 699.847656 117.480469 L 696.902344 117.480469 C 695.011719 117.480469 693.351562 116.53125 692.324219 115.105469 Z M 692.324219 115.089844 " fill-opacity="1" fill-rule="nonzero"/><path fill="#232d34" d="M 692.324219 153.5 L 692.300781 153.5 C 691.988281 153.050781 691.746094 152.578125 691.5625 152.058594 C 691.53125 151.976562 691.503906 151.90625 691.480469 151.816406 C 691.457031 151.742188 691.464844 151.679688 691.449219 151.601562 L 691.425781 151.601562 C 691.296875 151.140625 691.214844 150.691406 691.214844 150.1875 L 691.214844 149.707031 C 691.214844 149.210938 691.296875 148.734375 691.417969 148.285156 L 691.441406 148.285156 C 691.457031 148.214844 691.457031 148.152344 691.472656 148.085938 C 691.503906 148.007812 691.53125 147.917969 691.5625 147.828125 C 691.738281 147.316406 691.988281 146.835938 692.300781 146.386719 L 692.324219 146.386719 C 693.351562 144.957031 695.011719 144.027344 696.902344 144.027344 L 699.847656 144.027344 C 698.195312 142.160156 695.8125 140.941406 693.109375 140.941406 C 688.136719 140.941406 684.101562 144.972656 684.101562 149.964844 C 684.101562 154.953125 688.128906 158.972656 693.109375 158.972656 C 695.796875 158.972656 698.195312 157.757812 699.847656 155.882812 L 696.902344 155.882812 C 695.011719 155.882812 693.351562 154.945312 692.324219 153.515625 Z M 692.324219 153.5 " fill-opacity="1" fill-rule="nonzero"/><path fill="#232d34" d="M 692.324219 191.914062 L 692.300781 191.914062 C 691.988281 191.464844 691.746094 190.980469 691.5625 190.460938 C 691.53125 190.378906 691.503906 190.292969 691.480469 190.21875 C 691.464844 190.148438 691.464844 190.089844 691.449219 190.019531 L 691.425781 190.019531 C 691.296875 189.546875 691.214844 189.082031 691.214844 188.589844 L 691.214844 188.117188 C 691.214844 187.613281 691.296875 187.15625 691.417969 186.683594 L 691.441406 186.683594 C 691.457031 186.617188 691.457031 186.539062 691.472656 186.480469 C 691.503906 186.394531 691.53125 186.3125 691.554688 186.226562 C 691.738281 185.71875 691.980469 185.222656 692.292969 184.789062 L 692.316406 184.789062 C 693.34375 183.363281 695 182.414062 696.894531 182.414062 L 699.835938 182.414062 C 698.1875 180.539062 695.789062 179.335938 693.101562 179.335938 C 688.128906 179.335938 684.09375 183.371094 684.09375 188.351562 C 684.09375 193.332031 688.121094 197.359375 693.101562 197.359375 C 695.804688 197.359375 698.1875 196.15625 699.835938 194.285156 L 696.894531 194.285156 C 695.003906 194.285156 693.34375 193.339844 692.316406 191.921875 Z M 692.324219 191.914062 " fill-opacity="1" fill-rule="nonzero"/><path fill="#232d34" d="M 692.292969 230.316406 L 692.292969 230.300781 C 691.980469 229.867188 691.738281 229.378906 691.554688 228.863281 C 691.523438 228.785156 691.496094 228.703125 691.472656 228.632812 C 691.449219 228.550781 691.457031 228.480469 691.441406 228.421875 L 691.417969 228.421875 C 691.289062 227.964844 691.207031 227.484375 691.207031 226.980469 L 691.207031 226.515625 C 691.207031 226.023438 691.289062 225.542969 691.410156 225.085938 L 691.433594 225.085938 C 691.449219 225.015625 691.449219 224.957031 691.464844 224.878906 C 691.496094 224.796875 691.523438 224.726562 691.546875 224.636719 C 691.730469 224.132812 691.96875 223.644531 692.285156 223.210938 L 692.308594 223.210938 C 693.332031 221.78125 694.992188 220.828125 696.886719 220.828125 L 699.828125 220.828125 C 698.175781 218.957031 695.796875 217.738281 693.09375 217.738281 C 688.121094 217.738281 684.085938 221.773438 684.085938 226.746094 C 684.085938 231.71875 688.113281 235.761719 693.09375 235.761719 C 695.796875 235.761719 698.175781 234.558594 699.828125 232.683594 L 696.886719 232.683594 C 694.992188 232.683594 693.316406 231.75 692.285156 230.324219 Z M 692.292969 230.316406 " fill-opacity="1" fill-rule="nonzero"/><path fill="#232d34" d="M 692.292969 268.710938 C 691.980469 268.277344 691.738281 267.789062 691.554688 267.269531 C 691.523438 267.195312 691.496094 267.117188 691.472656 267.027344 C 691.457031 266.972656 691.457031 266.890625 691.441406 266.828125 L 691.417969 266.828125 C 691.289062 266.371094 691.207031 265.894531 691.207031 265.40625 L 691.207031 264.925781 C 691.207031 264.4375 691.289062 263.964844 691.410156 263.515625 L 691.433594 263.515625 C 691.449219 263.433594 691.449219 263.371094 691.464844 263.289062 C 691.496094 263.226562 691.523438 263.136719 691.546875 263.058594 C 691.730469 262.535156 691.96875 262.054688 692.285156 261.621094 L 692.308594 261.621094 C 693.332031 260.183594 694.992188 259.246094 696.886719 259.246094 L 699.828125 259.246094 C 698.175781 257.371094 695.78125 256.175781 693.09375 256.175781 C 688.121094 256.175781 684.085938 260.203125 684.085938 265.175781 C 684.085938 270.148438 688.113281 274.191406 693.09375 274.191406 C 695.78125 274.191406 698.175781 272.980469 699.828125 271.109375 L 696.886719 271.109375 C 694.992188 271.109375 693.316406 270.179688 692.285156 268.734375 Z M 692.292969 268.710938 " fill-opacity="1" fill-rule="nonzero"/><path fill="#232d34" d="M 692.300781 307.125 L 692.292969 307.125 C 691.980469 306.683594 691.738281 306.199219 691.554688 305.679688 C 691.523438 305.597656 691.496094 305.527344 691.472656 305.4375 C 691.457031 305.367188 691.457031 305.300781 691.441406 305.238281 L 691.417969 305.238281 C 691.289062 304.78125 691.207031 304.316406 691.207031 303.800781 L 691.207031 303.335938 C 691.207031 302.847656 691.289062 302.367188 691.410156 301.910156 L 691.433594 301.910156 C 691.449219 301.835938 691.449219 301.773438 691.464844 301.710938 C 691.496094 301.628906 691.523438 301.546875 691.546875 301.46875 C 691.730469 300.945312 691.96875 300.464844 692.285156 300.03125 L 692.308594 300.03125 C 693.332031 298.589844 694.992188 297.660156 696.886719 297.660156 L 699.828125 297.660156 C 698.175781 295.789062 695.78125 294.570312 693.09375 294.570312 C 688.121094 294.570312 684.085938 298.605469 684.085938 303.585938 C 684.085938 308.566406 688.113281 312.59375 693.09375 312.59375 C 695.796875 312.59375 698.175781 311.382812 699.828125 309.503906 L 696.886719 309.503906 C 694.992188 309.503906 693.316406 308.574219 692.292969 307.140625 Z M 692.300781 307.125 " fill-opacity="1" fill-rule="nonzero"/><path fill="#232d34" d="M 692.324219 345.535156 L 692.300781 345.535156 C 691.988281 345.09375 691.746094 344.605469 691.5625 344.089844 C 691.53125 344.011719 691.503906 343.9375 691.480469 343.851562 C 691.457031 343.785156 691.464844 343.714844 691.449219 343.648438 L 691.425781 343.648438 C 691.296875 343.191406 691.214844 342.71875 691.214844 342.222656 L 691.214844 341.742188 C 691.214844 341.25 691.296875 340.777344 691.417969 340.320312 L 691.441406 340.320312 C 691.457031 340.242188 691.457031 340.175781 691.472656 340.113281 C 691.503906 340.023438 691.53125 339.945312 691.554688 339.871094 C 691.738281 339.351562 691.980469 338.851562 692.292969 338.429688 L 692.316406 338.429688 C 693.34375 336.992188 695 336.039062 696.894531 336.039062 L 699.835938 336.039062 C 698.1875 334.175781 695.789062 332.964844 693.101562 332.964844 C 688.128906 332.964844 684.09375 337 684.09375 341.980469 C 684.09375 346.960938 688.121094 350.988281 693.101562 350.988281 C 695.789062 350.988281 698.1875 349.785156 699.835938 347.917969 L 696.894531 347.917969 C 695.003906 347.917969 693.34375 346.980469 692.316406 345.550781 Z M 692.324219 345.535156 " fill-opacity="1" fill-rule="nonzero"/><path fill="#232d34" d="M 692.324219 383.9375 L 692.300781 383.9375 C 691.988281 383.496094 691.746094 383.007812 691.5625 382.496094 C 691.53125 382.414062 691.503906 382.34375 691.480469 382.261719 C 691.464844 382.183594 691.464844 382.117188 691.449219 382.054688 L 691.425781 382.054688 C 691.296875 381.597656 691.214844 381.125 691.214844 380.617188 L 691.214844 380.152344 C 691.214844 379.664062 691.296875 379.175781 691.417969 378.71875 L 691.441406 378.71875 C 691.457031 378.660156 691.457031 378.589844 691.472656 378.515625 C 691.503906 378.429688 691.53125 378.347656 691.554688 378.285156 C 691.738281 377.761719 691.980469 377.273438 692.292969 376.839844 L 692.316406 376.839844 C 693.34375 375.414062 695 374.464844 696.894531 374.464844 L 699.835938 374.464844 C 698.1875 372.589844 695.804688 371.378906 693.101562 371.378906 C 688.128906 371.378906 684.09375 375.414062 684.09375 380.402344 C 684.09375 385.390625 688.121094 389.402344 693.101562 389.402344 C 695.789062 389.402344 698.175781 388.199219 699.835938 386.328125 L 696.894531 386.328125 C 695.003906 386.328125 693.34375 385.390625 692.316406 383.960938 Z M 692.324219 383.9375 " fill-opacity="1" fill-rule="nonzero"/><path fill="#232d34" d="M 692.292969 422.34375 L 692.292969 422.324219 C 691.980469 421.894531 691.738281 421.410156 691.554688 420.898438 C 691.523438 420.808594 691.496094 420.730469 691.472656 420.640625 C 691.457031 420.585938 691.457031 420.503906 691.441406 420.441406 L 691.417969 420.441406 C 691.289062 419.984375 691.207031 419.503906 691.207031 419.011719 L 691.207031 418.53125 C 691.207031 418.042969 691.289062 417.5625 691.410156 417.113281 L 691.433594 417.113281 C 691.449219 417.03125 691.449219 416.96875 691.464844 416.902344 C 691.496094 416.824219 691.523438 416.742188 691.546875 416.65625 C 691.730469 416.140625 691.96875 415.652344 692.285156 415.21875 L 692.308594 415.21875 C 693.332031 413.792969 694.992188 412.84375 696.886719 412.84375 L 699.828125 412.84375 C 698.175781 410.976562 695.796875 409.765625 693.09375 409.765625 C 688.121094 409.765625 684.085938 413.792969 684.085938 418.773438 C 684.085938 423.753906 688.113281 427.773438 693.09375 427.773438 C 695.78125 427.773438 698.175781 426.570312 699.828125 424.691406 L 696.886719 424.691406 C 694.992188 424.691406 693.316406 423.761719 692.285156 422.332031 Z M 692.292969 422.34375 " fill-opacity="1" fill-rule="nonzero"/><path fill="#232d34" d="M 692.324219 460.753906 L 692.300781 460.753906 C 691.988281 460.320312 691.746094 459.824219 691.5625 459.300781 C 691.53125 459.230469 691.503906 459.148438 691.472656 459.0625 C 691.457031 458.996094 691.457031 458.925781 691.441406 458.859375 L 691.417969 458.859375 C 691.289062 458.402344 691.207031 457.9375 691.207031 457.441406 L 691.207031 456.960938 C 691.207031 456.460938 691.289062 455.988281 691.410156 455.53125 L 691.433594 455.53125 C 691.449219 455.46875 691.449219 455.402344 691.464844 455.332031 C 691.496094 455.234375 691.523438 455.164062 691.546875 455.089844 C 691.730469 454.578125 691.96875 454.089844 692.285156 453.65625 L 692.308594 453.65625 C 693.332031 452.226562 694.992188 451.28125 696.886719 451.28125 L 699.828125 451.28125 C 698.175781 449.402344 695.78125 448.199219 693.09375 448.199219 C 688.121094 448.199219 684.085938 452.226562 684.085938 457.207031 C 684.085938 462.1875 688.113281 466.222656 693.09375 466.222656 C 695.78125 466.222656 698.175781 465.011719 699.828125 463.128906 L 696.886719 463.128906 C 695.003906 463.128906 693.332031 462.199219 692.308594 460.769531 Z M 692.324219 460.753906 " fill-opacity="1" fill-rule="nonzero"/><path fill="#232d34" d="M 692.324219 499.140625 L 692.300781 499.140625 C 691.988281 498.714844 691.746094 498.21875 691.5625 497.707031 C 691.53125 497.632812 691.503906 497.554688 691.472656 497.464844 C 691.457031 497.394531 691.457031 497.328125 691.441406 497.265625 L 691.417969 497.265625 C 691.289062 496.800781 691.207031 496.34375 691.207031 495.835938 L 691.207031 495.355469 C 691.207031 494.867188 691.289062 494.394531 691.410156 493.945312 L 691.433594 493.945312 C 691.449219 493.863281 691.449219 493.800781 691.464844 493.734375 C 691.496094 493.640625 691.523438 493.566406 691.554688 493.488281 C 691.730469 492.972656 691.980469 492.484375 692.292969 492.050781 C 693.324219 490.605469 695 489.660156 696.894531 489.660156 L 699.835938 489.660156 C 698.1875 487.800781 695.804688 486.582031 693.101562 486.582031 C 688.128906 486.582031 684.09375 490.613281 684.09375 495.589844 C 684.09375 500.5625 688.121094 504.59375 693.101562 504.59375 C 695.789062 504.59375 698.1875 503.410156 699.835938 501.53125 L 696.894531 501.53125 C 695 501.53125 693.34375 500.585938 692.316406 499.140625 Z M 692.324219 499.140625 " fill-opacity="1" fill-rule="nonzero"/><path fill="#232d34" d="M 692.324219 537.570312 L 692.300781 537.570312 C 691.988281 537.136719 691.746094 536.636719 691.5625 536.125 C 691.53125 536.035156 691.503906 535.957031 691.472656 535.875 C 691.449219 535.796875 691.457031 535.730469 691.441406 535.667969 L 691.417969 535.667969 C 691.289062 535.210938 691.207031 534.738281 691.207031 534.242188 L 691.207031 533.757812 C 691.207031 533.269531 691.289062 532.796875 691.410156 532.347656 L 691.433594 532.347656 C 691.449219 532.273438 691.449219 532.195312 691.464844 532.128906 C 691.496094 532.042969 691.523438 531.960938 691.546875 531.898438 C 691.730469 531.375 691.96875 530.878906 692.285156 530.445312 L 692.308594 530.445312 C 693.332031 529.027344 694.992188 528.074219 696.886719 528.074219 L 699.828125 528.074219 C 698.175781 526.203125 695.78125 524.984375 693.09375 524.984375 C 688.121094 524.984375 684.085938 529.027344 684.085938 534.007812 C 684.085938 538.988281 688.113281 543.015625 693.09375 543.015625 C 695.78125 543.015625 698.167969 541.804688 699.828125 539.925781 L 696.886719 539.925781 C 695.003906 539.925781 693.332031 538.988281 692.308594 537.570312 Z M 692.324219 537.570312 " fill-opacity="1" fill-rule="nonzero"/><path fill="#232d34" d="M 692.292969 575.964844 C 691.980469 575.53125 691.738281 575.042969 691.554688 574.527344 C 691.523438 574.441406 691.496094 574.367188 691.472656 574.28125 C 691.457031 574.214844 691.457031 574.144531 691.441406 574.078125 L 691.417969 574.078125 C 691.289062 573.621094 691.207031 573.140625 691.207031 572.652344 L 691.207031 572.171875 C 691.207031 571.679688 691.289062 571.207031 691.410156 570.75 L 691.433594 570.75 C 691.449219 570.6875 691.449219 570.605469 691.464844 570.542969 C 691.496094 570.46875 691.523438 570.390625 691.546875 570.300781 C 691.730469 569.796875 691.96875 569.300781 692.285156 568.867188 L 692.308594 568.867188 C 693.332031 567.4375 694.992188 566.492188 696.886719 566.492188 L 699.828125 566.492188 C 698.175781 564.613281 695.78125 563.421875 693.09375 563.421875 C 688.121094 563.421875 684.085938 567.445312 684.085938 572.425781 C 684.085938 577.410156 688.113281 581.425781 693.09375 581.425781 C 695.78125 581.425781 698.167969 580.230469 699.828125 578.355469 L 696.886719 578.355469 C 694.992188 578.355469 693.316406 577.417969 692.285156 575.988281 Z M 692.292969 575.964844 " fill-opacity="1" fill-rule="nonzero"/><path fill="#232d34" d="M 692.324219 614.375 L 692.300781 614.375 C 691.988281 613.941406 691.746094 613.453125 691.5625 612.933594 C 691.53125 612.851562 691.503906 612.773438 691.480469 612.699219 C 691.464844 612.628906 691.464844 612.554688 691.449219 612.492188 L 691.425781 612.492188 C 691.296875 612.035156 691.214844 611.5625 691.214844 611.0625 L 691.214844 610.589844 C 691.214844 610.09375 691.296875 609.613281 691.417969 609.15625 C 691.441406 609.089844 691.457031 609.019531 691.472656 608.953125 C 691.503906 608.875 691.53125 608.792969 691.554688 608.707031 C 691.738281 608.191406 691.980469 607.703125 692.292969 607.269531 L 692.316406 607.269531 C 693.34375 605.84375 695 604.894531 696.894531 604.894531 L 699.835938 604.894531 C 698.1875 603.027344 695.804688 601.816406 693.101562 601.816406 C 688.128906 601.816406 684.09375 605.84375 684.09375 610.824219 C 684.09375 615.804688 688.121094 619.839844 693.101562 619.839844 C 695.789062 619.839844 698.1875 618.636719 699.835938 616.742188 L 696.894531 616.742188 C 695.003906 616.742188 693.34375 615.8125 692.316406 614.382812 Z M 692.324219 614.375 " fill-opacity="1" fill-rule="nonzero"/><path fill="#232d34" d="M 692.292969 652.78125 C 691.980469 652.347656 691.738281 651.855469 691.554688 651.328125 C 691.523438 651.253906 691.496094 651.175781 691.472656 651.09375 C 691.457031 651.03125 691.457031 650.949219 691.441406 650.886719 L 691.417969 650.886719 C 691.289062 650.4375 691.207031 649.964844 691.207031 649.46875 L 691.207031 648.984375 C 691.207031 648.488281 691.289062 648.023438 691.410156 647.566406 L 691.433594 647.566406 C 691.449219 647.492188 691.449219 647.421875 691.464844 647.359375 C 691.496094 647.285156 691.523438 647.1875 691.546875 647.117188 C 691.730469 646.605469 691.96875 646.113281 692.285156 645.679688 L 692.308594 645.679688 C 693.332031 644.253906 694.992188 643.308594 696.886719 643.308594 L 699.828125 643.308594 C 698.175781 641.4375 695.796875 640.226562 693.09375 640.226562 C 688.121094 640.226562 684.085938 644.253906 684.085938 649.234375 C 684.085938 654.214844 688.113281 658.25 693.09375 658.25 C 695.78125 658.25 698.175781 657.039062 699.828125 655.167969 L 696.886719 655.167969 C 694.992188 655.167969 693.316406 654.222656 692.285156 652.796875 Z M 692.292969 652.78125 " fill-opacity="1" fill-rule="nonzero"/><path fill="#232d34" d="M 692.324219 691.183594 L 692.300781 691.183594 C 691.988281 690.734375 691.746094 690.253906 691.5625 689.746094 C 691.53125 689.660156 691.503906 689.578125 691.480469 689.5 C 691.464844 689.433594 691.464844 689.355469 691.449219 689.289062 L 691.425781 689.289062 C 691.296875 688.832031 691.214844 688.367188 691.214844 687.863281 L 691.214844 687.398438 C 691.214844 686.898438 691.296875 686.425781 691.417969 685.960938 L 691.441406 685.960938 C 691.457031 685.90625 691.457031 685.832031 691.472656 685.761719 C 691.503906 685.679688 691.53125 685.609375 691.554688 685.527344 C 691.738281 685.007812 691.980469 684.519531 692.292969 684.085938 L 692.316406 684.085938 C 693.34375 682.648438 695 681.710938 696.894531 681.710938 L 699.835938 681.710938 C 698.175781 679.84375 695.789062 678.628906 693.101562 678.628906 C 688.128906 678.628906 684.09375 682.648438 684.09375 687.636719 C 684.09375 692.628906 688.121094 696.644531 693.101562 696.644531 C 695.789062 696.644531 698.1875 695.433594 699.835938 693.574219 L 696.894531 693.574219 C 695.003906 693.574219 693.34375 692.628906 692.316406 691.199219 Z M 692.324219 691.183594 " fill-opacity="1" fill-rule="nonzero"/><path fill="#232d34" d="M 692.324219 729.609375 L 692.300781 729.609375 C 691.988281 729.160156 691.746094 728.671875 691.5625 728.160156 C 691.53125 728.070312 691.503906 727.992188 691.480469 727.917969 C 691.457031 727.855469 691.464844 727.773438 691.449219 727.703125 L 691.425781 727.703125 C 691.296875 727.246094 691.214844 726.78125 691.214844 726.273438 L 691.214844 725.808594 C 691.214844 725.304688 691.296875 724.839844 691.417969 724.382812 L 691.441406 724.382812 C 691.457031 724.308594 691.457031 724.230469 691.472656 724.179688 C 691.503906 724.09375 691.53125 724.011719 691.5625 723.933594 C 691.738281 723.417969 691.988281 722.921875 692.300781 722.488281 L 692.324219 722.488281 C 693.351562 721.070312 695.011719 720.113281 696.902344 720.113281 L 699.847656 720.113281 C 698.195312 718.246094 695.8125 717.042969 693.109375 717.042969 C 688.136719 717.042969 684.101562 721.078125 684.101562 726.050781 C 684.101562 731.023438 688.128906 735.058594 693.109375 735.058594 C 695.796875 735.058594 698.1875 733.855469 699.847656 731.984375 L 696.902344 731.984375 C 695.011719 731.984375 693.351562 731.039062 692.324219 729.628906 Z M 692.324219 729.609375 " fill-opacity="1" fill-rule="nonzero"/><path fill="#232d34" d="M 692.324219 768 L 692.300781 768 C 691.988281 767.558594 691.746094 767.078125 691.5625 766.546875 C 691.53125 766.476562 691.503906 766.394531 691.480469 766.3125 C 691.457031 766.242188 691.464844 766.171875 691.449219 766.097656 L 691.425781 766.097656 C 691.296875 765.640625 691.214844 765.175781 691.214844 764.671875 L 691.214844 764.203125 C 691.214844 763.699219 691.296875 763.234375 691.417969 762.761719 L 691.441406 762.761719 C 691.457031 762.703125 691.457031 762.625 691.472656 762.558594 C 691.503906 762.480469 691.53125 762.398438 691.554688 762.3125 C 691.738281 761.804688 691.980469 761.308594 692.292969 760.875 L 692.316406 760.875 C 693.34375 759.449219 695 758.503906 696.894531 758.503906 L 699.835938 758.503906 C 698.1875 756.625 695.789062 755.429688 693.101562 755.429688 C 688.128906 755.429688 684.09375 759.449219 684.09375 764.4375 C 684.09375 769.425781 688.121094 773.445312 693.101562 773.445312 C 695.789062 773.445312 698.1875 772.242188 699.835938 770.355469 L 696.894531 770.355469 C 695.003906 770.355469 693.34375 769.417969 692.316406 767.992188 Z M 692.324219 768 " fill-opacity="1" fill-rule="nonzero"/><path fill="#232d34" d="M 692.324219 806.402344 L 692.300781 806.402344 C 691.988281 805.96875 691.746094 805.480469 691.5625 804.957031 C 691.53125 804.878906 691.503906 804.804688 691.480469 804.726562 C 691.457031 804.652344 691.464844 804.582031 691.449219 804.515625 L 691.425781 804.515625 C 691.296875 804.066406 691.214844 803.59375 691.214844 803.089844 L 691.214844 802.617188 C 691.214844 802.117188 691.296875 801.652344 691.417969 801.195312 L 691.441406 801.195312 C 691.457031 801.125 691.457031 801.058594 691.472656 800.980469 C 691.503906 800.898438 691.53125 800.8125 691.5625 800.730469 C 691.738281 800.21875 691.988281 799.730469 692.300781 799.296875 C 693.332031 797.867188 695.011719 796.921875 696.902344 796.921875 L 699.847656 796.921875 C 698.195312 795.050781 695.8125 793.839844 693.109375 793.839844 C 688.136719 793.839844 684.101562 797.867188 684.101562 802.847656 C 684.101562 807.828125 688.128906 811.863281 693.109375 811.863281 C 695.796875 811.863281 698.195312 810.660156 699.847656 808.792969 L 696.902344 808.792969 C 695.019531 808.792969 693.351562 807.855469 692.324219 806.410156 Z M 692.324219 806.402344 " fill-opacity="1" fill-rule="nonzero"/><path fill="#bfc5cd" d="M 696.902344 67.203125 C 695.011719 67.203125 693.332031 68.144531 692.300781 69.570312 L 744.175781 69.570312 C 743.144531 68.144531 741.46875 67.203125 739.566406 67.203125 Z M 696.902344 67.203125 " fill-opacity="1" fill-rule="nonzero"/><path fill="#bfc5cd" d="M 735.667969 79.050781 L 739.566406 79.050781 C 741.46875 79.050781 743.117188 78.105469 744.144531 76.695312 L 692.300781 76.695312 C 693.332031 78.121094 695.011719 79.050781 696.902344 79.050781 L 735.675781 79.050781 Z M 735.667969 79.050781 " fill-opacity="1" fill-rule="nonzero"/><path fill="#929aa3" d="M 691.472656 71.261719 C 691.449219 71.335938 691.457031 71.398438 691.441406 71.464844 L 745.019531 71.464844 C 745.003906 71.390625 745.003906 71.328125 744.988281 71.261719 C 744.964844 71.175781 744.929688 71.085938 744.90625 71.015625 C 744.730469 70.5 744.484375 70.019531 744.167969 69.585938 C 744.167969 69.585938 692.292969 69.578125 692.292969 69.578125 C 691.980469 70.019531 691.738281 70.5 691.554688 71.015625 C 691.523438 71.085938 691.496094 71.175781 691.464844 71.261719 Z M 691.472656 71.261719 " fill-opacity="1" fill-rule="nonzero"/><path fill="#929aa3" d="M 744.90625 75.242188 C 744.941406 75.152344 744.964844 75.074219 744.988281 75 C 745.003906 74.9375 745.003906 74.855469 745.019531 74.800781 L 691.441406 74.800781 C 691.457031 74.855469 691.457031 74.9375 691.472656 75 C 691.503906 75.082031 691.53125 75.160156 691.554688 75.242188 C 691.738281 75.761719 691.980469 76.253906 692.292969 76.695312 L 744.160156 76.695312 C 744.480469 76.246094 744.722656 75.753906 744.90625 75.242188 Z M 744.90625 75.242188 " fill-opacity="1" fill-rule="nonzero"/><path fill="#798088" d="M 745.050781 74.792969 L 745.050781 74.777344 C 745.164062 74.335938 745.253906 73.855469 745.253906 73.347656 L 745.253906 72.882812 C 745.253906 72.394531 745.164062 71.921875 745.058594 71.472656 C 745.058594 71.472656 745.058594 71.457031 745.058594 71.457031 L 691.425781 71.457031 C 691.304688 71.914062 691.226562 72.386719 691.226562 72.882812 L 691.226562 73.347656 C 691.226562 73.855469 691.304688 74.335938 691.433594 74.785156 L 745.066406 74.785156 Z M 745.050781 74.792969 " fill-opacity="1" fill-rule="nonzero"/><path fill="#bfc5cd" d="M 691.441406 113.203125 C 691.457031 113.277344 691.457031 113.339844 691.472656 113.40625 C 691.449219 113.332031 691.457031 113.269531 691.441406 113.203125 Z M 691.441406 113.203125 " fill-opacity="1" fill-rule="nonzero"/><path fill="#bfc5cd" d="M 692.292969 107.984375 L 744.167969 107.984375 C 743.136719 106.546875 741.460938 105.617188 739.558594 105.617188 L 696.894531 105.617188 C 695 105.617188 693.324219 106.546875 692.292969 107.984375 Z M 692.292969 107.984375 " fill-opacity="1" fill-rule="nonzero"/><path fill="#bfc5cd" d="M 735.667969 117.464844 L 739.566406 117.464844 C 741.46875 117.464844 743.117188 116.515625 744.144531 115.089844 L 692.324219 115.089844 C 693.359375 116.515625 695.011719 117.464844 696.902344 117.464844 L 735.675781 117.464844 Z M 735.667969 117.464844 " fill-opacity="1" fill-rule="nonzero"/><path fill="#929aa3" d="M 744.988281 109.667969 C 744.964844 109.585938 744.941406 109.507812 744.90625 109.410156 C 744.730469 108.90625 744.484375 108.421875 744.167969 107.984375 L 692.292969 107.984375 C 691.980469 108.421875 691.738281 108.90625 691.554688 109.425781 C 691.523438 109.507812 691.496094 109.59375 691.464844 109.660156 C 691.441406 109.738281 691.449219 109.804688 691.433594 109.867188 L 745.011719 109.867188 C 744.996094 109.796875 744.996094 109.730469 744.980469 109.667969 Z M 744.988281 109.667969 " fill-opacity="1" fill-rule="nonzero"/><path fill="#929aa3" d="M 744.90625 113.644531 C 744.941406 113.566406 744.964844 113.476562 744.988281 113.40625 C 745.003906 113.332031 745.003906 113.269531 745.019531 113.203125 L 691.441406 113.203125 C 691.457031 113.277344 691.457031 113.339844 691.472656 113.40625 C 691.503906 113.492188 691.53125 113.566406 691.554688 113.644531 C 691.738281 114.160156 691.980469 114.648438 692.292969 115.082031 L 744.160156 115.082031 C 744.480469 114.648438 744.730469 114.160156 744.90625 113.644531 Z M 744.90625 113.644531 " fill-opacity="1" fill-rule="nonzero"/><path fill="#798088" d="M 745.019531 113.203125 L 745.050781 113.203125 C 745.164062 112.738281 745.253906 112.273438 745.253906 111.777344 L 745.253906 111.296875 C 745.253906 110.804688 745.164062 110.324219 745.058594 109.875 C 745.058594 109.875 745.058594 109.867188 745.058594 109.867188 L 691.425781 109.867188 C 691.304688 110.324219 691.226562 110.796875 691.226562 111.296875 L 691.226562 111.777344 C 691.226562 112.265625 691.304688 112.738281 691.433594 113.203125 L 745.035156 113.203125 Z M 745.019531 113.203125 " fill-opacity="1" fill-rule="nonzero"/><path fill="#bfc5cd" d="M 691.441406 151.601562 C 691.457031 151.679688 691.457031 151.742188 691.472656 151.816406 C 691.449219 151.742188 691.457031 151.679688 691.441406 151.601562 Z M 691.441406 151.601562 " fill-opacity="1" fill-rule="nonzero"/><path fill="#bfc5cd" d="M 692.324219 146.378906 L 744.179688 146.378906 C 743.144531 144.949219 741.46875 144.019531 739.566406 144.019531 L 696.902344 144.019531 C 695.011719 144.019531 693.351562 144.949219 692.324219 146.378906 Z M 692.324219 146.378906 " fill-opacity="1" fill-rule="nonzero"/><path fill="#bfc5cd" d="M 735.667969 155.867188 L 739.566406 155.867188 C 741.46875 155.867188 743.117188 154.929688 744.144531 153.5 L 692.324219 153.5 C 693.359375 154.929688 695.011719 155.867188 696.902344 155.867188 L 735.675781 155.867188 Z M 735.667969 155.867188 " fill-opacity="1" fill-rule="nonzero"/><path fill="#929aa3" d="M 744.988281 148.078125 C 744.964844 148 744.941406 147.910156 744.90625 147.820312 C 744.730469 147.308594 744.484375 146.828125 744.167969 146.378906 L 692.292969 146.378906 C 691.980469 146.828125 691.738281 147.308594 691.554688 147.820312 C 691.523438 147.910156 691.496094 148 691.464844 148.078125 C 691.441406 148.144531 691.449219 148.214844 691.433594 148.277344 L 745.011719 148.277344 C 744.996094 148.207031 744.996094 148.144531 744.980469 148.078125 Z M 744.988281 148.078125 " fill-opacity="1" fill-rule="nonzero"/><path fill="#929aa3" d="M 744.90625 152.058594 C 744.941406 151.976562 744.964844 151.90625 744.988281 151.816406 C 745.003906 151.742188 745.003906 151.679688 745.019531 151.601562 L 691.441406 151.601562 C 691.457031 151.679688 691.457031 151.742188 691.472656 151.816406 C 691.503906 151.90625 691.53125 151.984375 691.554688 152.058594 C 691.738281 152.578125 691.980469 153.058594 692.292969 153.5 L 744.160156 153.5 C 744.480469 153.066406 744.730469 152.578125 744.90625 152.058594 Z M 744.90625 152.058594 " fill-opacity="1" fill-rule="nonzero"/><path fill="#798088" d="M 745.019531 151.601562 L 745.050781 151.601562 C 745.164062 151.140625 745.253906 150.691406 745.253906 150.1875 L 745.253906 149.707031 C 745.253906 149.21875 745.164062 148.734375 745.058594 148.296875 C 745.058594 148.296875 745.027344 148.289062 745.027344 148.289062 L 691.425781 148.289062 C 691.304688 148.746094 691.226562 149.210938 691.226562 149.707031 L 691.226562 150.1875 C 691.226562 150.695312 691.304688 151.152344 691.433594 151.601562 L 745.035156 151.601562 Z M 745.019531 151.601562 " fill-opacity="1" fill-rule="nonzero"/><path fill="#bfc5cd" d="M 692.324219 184.78125 L 744.179688 184.78125 C 743.144531 183.355469 741.46875 182.40625 739.566406 182.40625 L 696.902344 182.40625 C 695.011719 182.40625 693.351562 183.355469 692.324219 184.78125 Z M 692.324219 184.78125 " fill-opacity="1" fill-rule="nonzero"/><path fill="#bfc5cd" d="M 735.667969 194.277344 L 739.566406 194.277344 C 741.46875 194.277344 743.117188 193.332031 744.144531 191.914062 L 692.324219 191.914062 C 693.359375 193.332031 695.011719 194.277344 696.902344 194.277344 L 735.675781 194.277344 Z M 735.667969 194.277344 " fill-opacity="1" fill-rule="nonzero"/><path fill="#929aa3" d="M 744.988281 186.480469 C 744.964844 186.402344 744.941406 186.3125 744.90625 186.226562 C 744.730469 185.71875 744.484375 185.222656 744.167969 184.796875 L 744.167969 184.78125 L 692.292969 184.78125 C 691.980469 185.214844 691.738281 185.710938 691.554688 186.21875 C 691.523438 186.304688 691.496094 186.386719 691.472656 186.472656 C 691.449219 186.53125 691.457031 186.609375 691.441406 186.675781 L 745.019531 186.675781 C 745.003906 186.609375 745.003906 186.546875 744.988281 186.472656 Z M 744.988281 186.480469 " fill-opacity="1" fill-rule="nonzero"/><path fill="#929aa3" d="M 744.90625 190.460938 C 744.941406 190.378906 744.964844 190.292969 744.988281 190.21875 C 745.003906 190.148438 745.003906 190.089844 745.019531 190.019531 L 691.441406 190.019531 C 691.457031 190.089844 691.457031 190.148438 691.472656 190.21875 C 691.503906 190.300781 691.53125 190.386719 691.554688 190.460938 C 691.738281 190.972656 691.980469 191.464844 692.292969 191.914062 L 744.160156 191.914062 C 744.480469 191.480469 744.730469 190.980469 744.90625 190.460938 Z M 744.90625 190.460938 " fill-opacity="1" fill-rule="nonzero"/><path fill="#798088" d="M 745.050781 190.019531 C 745.164062 189.546875 745.253906 189.082031 745.253906 188.589844 L 745.253906 188.117188 C 745.253906 187.621094 745.164062 187.15625 745.058594 186.699219 C 745.058594 186.699219 745.058594 186.695312 745.058594 186.683594 L 691.425781 186.683594 C 691.304688 187.15625 691.226562 187.613281 691.226562 188.117188 L 691.226562 188.589844 C 691.226562 189.082031 691.304688 189.554688 691.433594 190.019531 L 745.066406 190.019531 Z M 745.050781 190.019531 " fill-opacity="1" fill-rule="nonzero"/><path fill="#bfc5cd" d="M 691.441406 228.421875 C 691.457031 228.488281 691.457031 228.550781 691.472656 228.632812 C 691.457031 228.550781 691.457031 228.480469 691.441406 228.421875 Z M 691.441406 228.421875 " fill-opacity="1" fill-rule="nonzero"/><path fill="#bfc5cd" d="M 692.324219 223.203125 L 744.179688 223.203125 C 743.144531 221.765625 741.46875 220.820312 739.566406 220.820312 L 696.902344 220.820312 C 695.011719 220.820312 693.351562 221.765625 692.324219 223.203125 Z M 692.324219 223.203125 " fill-opacity="1" fill-rule="nonzero"/><path fill="#bfc5cd" d="M 735.667969 232.675781 L 739.566406 232.675781 C 741.46875 232.675781 743.144531 231.742188 744.160156 230.316406 L 692.292969 230.316406 C 693.324219 231.742188 695 232.675781 696.894531 232.675781 Z M 735.667969 232.675781 " fill-opacity="1" fill-rule="nonzero"/><path fill="#929aa3" d="M 744.988281 228.625 C 745.003906 228.550781 745.003906 228.488281 745.019531 228.421875 L 691.441406 228.421875 C 691.457031 228.488281 691.457031 228.550781 691.472656 228.632812 C 691.503906 228.703125 691.53125 228.785156 691.554688 228.863281 C 691.738281 229.378906 691.980469 229.867188 692.292969 230.300781 L 692.292969 230.316406 L 744.160156 230.316406 C 744.480469 229.867188 744.730469 229.386719 744.90625 228.863281 C 744.941406 228.785156 744.964844 228.703125 744.988281 228.625 Z M 744.988281 228.625 " fill-opacity="1" fill-rule="nonzero"/><path fill="#929aa3" d="M 744.988281 224.886719 C 744.964844 224.789062 744.941406 224.71875 744.90625 224.628906 C 744.730469 224.117188 744.484375 223.632812 744.167969 223.203125 L 692.292969 223.203125 C 691.980469 223.632812 691.738281 224.125 691.554688 224.628906 C 691.523438 224.71875 691.496094 224.789062 691.472656 224.871094 C 691.449219 224.949219 691.457031 225.015625 691.441406 225.078125 L 745.019531 225.078125 C 745.003906 225.007812 745.003906 224.949219 744.988281 224.878906 Z M 744.988281 224.886719 " fill-opacity="1" fill-rule="nonzero"/><path fill="#798088" d="M 745.019531 228.421875 L 745.058594 228.421875 C 745.171875 227.964844 745.261719 227.484375 745.261719 226.980469 L 745.261719 226.515625 C 745.261719 226.023438 745.171875 225.550781 745.058594 225.09375 L 745.058594 225.078125 L 691.425781 225.078125 C 691.304688 225.535156 691.226562 226.015625 691.226562 226.507812 L 691.226562 226.972656 C 691.226562 227.476562 691.304688 227.957031 691.433594 228.414062 L 745.027344 228.414062 Z M 745.019531 228.421875 " fill-opacity="1" fill-rule="nonzero"/><path fill="#bfc5cd" d="M 692.324219 261.605469 L 744.144531 261.605469 C 743.117188 260.167969 741.46875 259.230469 739.566406 259.230469 L 696.902344 259.230469 C 695.011719 259.230469 693.351562 260.167969 692.324219 261.605469 Z M 692.324219 261.605469 " fill-opacity="1" fill-rule="nonzero"/><path fill="#bfc5cd" d="M 735.667969 271.085938 L 739.566406 271.085938 C 741.46875 271.085938 743.117188 270.148438 744.144531 268.710938 L 692.300781 268.710938 C 693.332031 270.148438 695.011719 271.085938 696.902344 271.085938 L 735.675781 271.085938 Z M 735.667969 271.085938 " fill-opacity="1" fill-rule="nonzero"/><path fill="#929aa3" d="M 744.988281 263.304688 C 744.964844 263.21875 744.941406 263.128906 744.90625 263.046875 C 744.730469 262.527344 744.484375 262.046875 744.167969 261.613281 L 692.292969 261.613281 C 691.980469 262.054688 691.738281 262.527344 691.554688 263.046875 C 691.523438 263.128906 691.496094 263.21875 691.472656 263.28125 C 691.449219 263.363281 691.457031 263.425781 691.441406 263.507812 L 745.019531 263.507812 C 745.003906 263.425781 745.003906 263.363281 744.988281 263.304688 Z M 744.988281 263.304688 " fill-opacity="1" fill-rule="nonzero"/><path fill="#929aa3" d="M 744.90625 267.285156 C 744.941406 267.195312 744.964844 267.105469 744.988281 267.027344 C 745.003906 266.964844 745.003906 266.890625 745.019531 266.828125 L 691.441406 266.828125 C 691.457031 266.898438 691.457031 266.980469 691.472656 267.027344 C 691.503906 267.117188 691.53125 267.195312 691.554688 267.269531 C 691.738281 267.78125 691.980469 268.277344 692.292969 268.710938 L 744.160156 268.710938 C 744.480469 268.277344 744.730469 267.789062 744.90625 267.285156 Z M 744.90625 267.285156 " fill-opacity="1" fill-rule="nonzero"/><path fill="#798088" d="M 745.050781 266.828125 C 745.164062 266.363281 745.253906 265.894531 745.253906 265.40625 L 745.253906 264.925781 C 745.253906 264.4375 745.164062 263.964844 745.050781 263.515625 L 691.417969 263.515625 C 691.296875 263.972656 691.214844 264.4375 691.214844 264.925781 L 691.214844 265.40625 C 691.214844 265.894531 691.296875 266.378906 691.425781 266.828125 L 745.058594 266.828125 Z M 745.050781 266.828125 " fill-opacity="1" fill-rule="nonzero"/><path fill="#bfc5cd" d="M 692.324219 300.015625 L 744.144531 300.015625 C 743.117188 298.574219 741.46875 297.640625 739.566406 297.640625 L 696.902344 297.640625 C 695.011719 297.640625 693.351562 298.574219 692.324219 300.015625 Z M 692.324219 300.015625 " fill-opacity="1" fill-rule="nonzero"/><path fill="#bfc5cd" d="M 735.667969 309.488281 L 739.566406 309.488281 C 741.46875 309.488281 743.144531 308.558594 744.160156 307.125 L 692.308594 307.125 C 693.34375 308.558594 695.011719 309.488281 696.902344 309.488281 L 735.675781 309.488281 Z M 735.667969 309.488281 " fill-opacity="1" fill-rule="nonzero"/><path fill="#929aa3" d="M 744.90625 305.679688 C 744.941406 305.597656 744.964844 305.511719 744.988281 305.4375 C 745.003906 305.367188 745.003906 305.300781 745.019531 305.238281 L 691.441406 305.238281 C 691.457031 305.308594 691.457031 305.375 691.472656 305.4375 C 691.503906 305.527344 691.53125 305.597656 691.554688 305.679688 C 691.738281 306.199219 691.980469 306.683594 692.292969 307.125 L 744.160156 307.125 C 744.480469 306.683594 744.730469 306.199219 744.90625 305.679688 Z M 744.90625 305.679688 " fill-opacity="1" fill-rule="nonzero"/><path fill="#929aa3" d="M 744.988281 301.699219 C 744.964844 301.621094 744.941406 301.539062 744.90625 301.445312 C 744.730469 300.9375 744.484375 300.457031 744.167969 300.023438 L 692.292969 300.023438 C 691.980469 300.457031 691.738281 300.9375 691.554688 301.460938 C 691.523438 301.539062 691.496094 301.628906 691.472656 301.699219 C 691.449219 301.773438 691.457031 301.835938 691.441406 301.902344 L 745.019531 301.902344 C 745.003906 301.84375 745.003906 301.765625 744.988281 301.699219 Z M 744.988281 301.699219 " fill-opacity="1" fill-rule="nonzero"/><path fill="#798088" d="M 745.050781 305.230469 C 745.164062 304.765625 745.253906 304.300781 745.253906 303.792969 L 745.253906 303.328125 C 745.253906 302.839844 745.164062 302.367188 745.050781 301.917969 L 745.050781 301.902344 L 691.417969 301.902344 C 691.296875 302.359375 691.214844 302.832031 691.214844 303.328125 L 691.214844 303.792969 C 691.214844 304.308594 691.296875 304.78125 691.425781 305.230469 L 745.058594 305.230469 Z M 745.050781 305.230469 " fill-opacity="1" fill-rule="nonzero"/><path fill="#bfc5cd" d="M 691.441406 343.640625 C 691.457031 343.714844 691.457031 343.785156 691.472656 343.84375 C 691.457031 343.777344 691.457031 343.707031 691.441406 343.640625 Z M 691.441406 343.640625 " fill-opacity="1" fill-rule="nonzero"/><path fill="#bfc5cd" d="M 692.324219 338.421875 L 744.179688 338.421875 C 743.144531 336.984375 741.46875 336.03125 739.566406 336.03125 L 696.902344 336.03125 C 695.011719 336.03125 693.351562 336.976562 692.324219 338.421875 Z M 692.324219 338.421875 " fill-opacity="1" fill-rule="nonzero"/><path fill="#bfc5cd" d="M 735.667969 347.902344 L 739.566406 347.902344 C 741.46875 347.902344 743.117188 346.960938 744.144531 345.535156 L 692.324219 345.535156 C 693.359375 346.960938 695.011719 347.902344 696.902344 347.902344 L 735.675781 347.902344 Z M 735.667969 347.902344 " fill-opacity="1" fill-rule="nonzero"/><path fill="#929aa3" d="M 744.988281 340.105469 C 744.964844 340.015625 744.941406 339.9375 744.90625 339.855469 C 744.730469 339.34375 744.484375 338.84375 744.167969 338.421875 L 692.292969 338.421875 C 691.980469 338.84375 691.738281 339.335938 691.554688 339.863281 C 691.523438 339.9375 691.496094 340.015625 691.472656 340.105469 C 691.449219 340.167969 691.457031 340.242188 691.441406 340.3125 L 745.019531 340.3125 C 745.003906 340.234375 745.003906 340.167969 744.988281 340.105469 Z M 744.988281 340.105469 " fill-opacity="1" fill-rule="nonzero"/><path fill="#929aa3" d="M 744.90625 344.082031 C 744.941406 344.003906 744.964844 343.929688 744.988281 343.84375 C 745.003906 343.777344 745.003906 343.707031 745.019531 343.640625 L 691.441406 343.640625 C 691.457031 343.714844 691.457031 343.785156 691.472656 343.84375 C 691.503906 343.929688 691.53125 344.011719 691.554688 344.082031 C 691.738281 344.597656 691.980469 345.085938 692.292969 345.527344 L 744.160156 345.527344 C 744.480469 345.085938 744.730469 344.597656 744.90625 344.082031 Z M 744.90625 344.082031 " fill-opacity="1" fill-rule="nonzero"/><path fill="#798088" d="M 745.019531 343.640625 L 745.058594 343.640625 C 745.171875 343.175781 745.261719 342.710938 745.261719 342.214844 L 745.261719 341.734375 C 745.261719 341.242188 745.171875 340.769531 745.066406 340.3125 L 691.425781 340.3125 C 691.304688 340.769531 691.226562 341.234375 691.226562 341.734375 L 691.226562 342.214844 C 691.226562 342.703125 691.304688 343.183594 691.433594 343.640625 L 745.027344 343.640625 Z M 745.019531 343.640625 " fill-opacity="1" fill-rule="nonzero"/><path fill="#bfc5cd" d="M 691.472656 378.507812 C 691.449219 378.582031 691.457031 378.652344 691.441406 378.707031 C 691.457031 378.652344 691.457031 378.582031 691.472656 378.507812 Z M 691.472656 378.507812 " fill-opacity="1" fill-rule="nonzero"/><path fill="#bfc5cd" d="M 692.324219 376.824219 L 744.144531 376.824219 C 743.117188 375.394531 741.46875 374.449219 739.566406 374.449219 L 696.902344 374.449219 C 695.011719 374.449219 693.351562 375.394531 692.324219 376.824219 Z M 692.324219 376.824219 " fill-opacity="1" fill-rule="nonzero"/><path fill="#bfc5cd" d="M 735.675781 386.304688 L 739.566406 386.304688 C 741.46875 386.304688 743.117188 385.367188 744.144531 383.9375 L 692.324219 383.9375 C 693.351562 385.367188 695.011719 386.304688 696.902344 386.304688 L 735.683594 386.304688 Z M 735.675781 386.304688 " fill-opacity="1" fill-rule="nonzero"/><path fill="#929aa3" d="M 745.019531 378.707031 C 745.003906 378.652344 745.003906 378.582031 744.988281 378.507812 C 744.964844 378.421875 744.941406 378.339844 744.90625 378.25 C 744.730469 377.753906 744.484375 377.257812 744.167969 376.824219 L 692.292969 376.824219 C 691.980469 377.257812 691.738281 377.746094 691.554688 378.269531 C 691.523438 378.339844 691.496094 378.421875 691.472656 378.5 C 691.449219 378.574219 691.457031 378.644531 691.441406 378.699219 L 745.019531 378.699219 Z M 745.019531 378.707031 " fill-opacity="1" fill-rule="nonzero"/><path fill="#929aa3" d="M 744.90625 382.496094 C 744.941406 382.414062 744.964844 382.34375 744.988281 382.261719 C 745.003906 382.183594 745.003906 382.117188 745.019531 382.054688 L 691.441406 382.054688 C 691.457031 382.125 691.457031 382.191406 691.472656 382.261719 C 691.503906 382.34375 691.53125 382.414062 691.554688 382.496094 C 691.738281 383.007812 691.980469 383.496094 692.292969 383.9375 L 744.160156 383.9375 C 744.480469 383.496094 744.730469 383.015625 744.90625 382.496094 Z M 744.90625 382.496094 " fill-opacity="1" fill-rule="nonzero"/><path fill="#798088" d="M 745.050781 382.046875 C 745.164062 381.589844 745.253906 381.105469 745.253906 380.609375 L 745.253906 380.144531 C 745.253906 379.65625 745.164062 379.183594 745.058594 378.726562 C 745.058594 378.726562 745.058594 378.71875 745.058594 378.707031 L 691.425781 378.707031 C 691.304688 379.164062 691.226562 379.648438 691.226562 380.144531 L 691.226562 380.609375 C 691.226562 381.113281 691.304688 381.597656 691.433594 382.046875 L 745.066406 382.046875 Z M 745.050781 382.046875 " fill-opacity="1" fill-rule="nonzero"/><path fill="#bfc5cd" d="M 692.324219 415.234375 L 744.144531 415.234375 C 743.117188 413.808594 741.46875 412.863281 739.566406 412.863281 L 696.902344 412.863281 C 695.011719 412.863281 693.351562 413.808594 692.324219 415.234375 Z M 692.324219 415.234375 " fill-opacity="1" fill-rule="nonzero"/><path fill="#bfc5cd" d="M 735.667969 424.707031 L 739.566406 424.707031 C 741.46875 424.707031 743.117188 423.777344 744.144531 422.351562 L 692.300781 422.351562 C 693.332031 423.777344 695.011719 424.707031 696.902344 424.707031 L 735.675781 424.707031 Z M 735.667969 424.707031 " fill-opacity="1" fill-rule="nonzero"/><path fill="#929aa3" d="M 744.988281 416.9375 C 744.964844 416.839844 744.941406 416.75 744.90625 416.679688 C 744.730469 416.164062 744.484375 415.675781 744.167969 415.242188 L 692.292969 415.242188 C 691.980469 415.675781 691.738281 416.167969 691.554688 416.679688 C 691.523438 416.765625 691.496094 416.847656 691.472656 416.929688 C 691.449219 416.992188 691.457031 417.054688 691.441406 417.136719 L 745.019531 417.136719 C 745.003906 417.074219 745.003906 416.992188 744.988281 416.945312 Z M 744.988281 416.9375 " fill-opacity="1" fill-rule="nonzero"/><path fill="#929aa3" d="M 744.90625 420.90625 C 744.941406 420.816406 744.964844 420.738281 744.988281 420.648438 C 745.003906 420.59375 745.003906 420.511719 745.019531 420.449219 L 691.441406 420.449219 C 691.457031 420.511719 691.457031 420.59375 691.472656 420.648438 C 691.503906 420.738281 691.53125 420.816406 691.554688 420.90625 C 691.738281 421.417969 691.980469 421.902344 692.292969 422.335938 L 692.292969 422.351562 L 744.160156 422.351562 C 744.480469 421.917969 744.722656 421.410156 744.90625 420.914062 Z M 744.90625 420.90625 " fill-opacity="1" fill-rule="nonzero"/><path fill="#798088" d="M 745.050781 420.457031 C 745.164062 419.992188 745.253906 419.519531 745.253906 419.03125 L 745.253906 418.546875 C 745.253906 418.058594 745.164062 417.59375 745.058594 417.128906 L 691.417969 417.128906 C 691.296875 417.578125 691.214844 418.058594 691.214844 418.546875 L 691.214844 419.03125 C 691.214844 419.519531 691.296875 420 691.425781 420.457031 L 745.058594 420.457031 Z M 745.050781 420.457031 " fill-opacity="1" fill-rule="nonzero"/><path fill="#bfc5cd" d="M 692.324219 453.640625 L 744.144531 453.640625 C 743.117188 452.210938 741.46875 451.265625 739.566406 451.265625 L 696.902344 451.265625 C 695.011719 451.265625 693.351562 452.210938 692.324219 453.640625 Z M 692.324219 453.640625 " fill-opacity="1" fill-rule="nonzero"/><path fill="#bfc5cd" d="M 735.667969 463.113281 L 739.566406 463.113281 C 741.46875 463.113281 743.117188 462.179688 744.144531 460.753906 L 692.324219 460.753906 C 693.359375 462.179688 695.019531 463.113281 696.902344 463.113281 L 735.675781 463.113281 Z M 735.667969 463.113281 " fill-opacity="1" fill-rule="nonzero"/><path fill="#929aa3" d="M 744.988281 455.324219 C 744.964844 455.242188 744.941406 455.15625 744.90625 455.082031 C 744.730469 454.554688 744.484375 454.082031 744.167969 453.648438 L 692.292969 453.648438 C 691.980469 454.082031 691.738281 454.570312 691.554688 455.082031 C 691.523438 455.164062 691.496094 455.234375 691.472656 455.324219 C 691.449219 455.394531 691.457031 455.460938 691.441406 455.523438 L 745.019531 455.523438 C 745.003906 455.46875 745.003906 455.394531 744.988281 455.324219 Z M 744.988281 455.324219 " fill-opacity="1" fill-rule="nonzero"/><path fill="#929aa3" d="M 744.90625 459.316406 C 744.941406 459.230469 744.964844 459.148438 744.988281 459.0625 C 745.003906 458.996094 745.003906 458.925781 745.019531 458.859375 L 691.441406 458.859375 C 691.457031 458.933594 691.457031 458.996094 691.472656 459.0625 C 691.503906 459.148438 691.53125 459.230469 691.5625 459.300781 C 691.738281 459.824219 691.988281 460.320312 692.300781 460.753906 L 744.167969 460.753906 C 744.492188 460.320312 744.730469 459.824219 744.914062 459.316406 Z M 744.90625 459.316406 " fill-opacity="1" fill-rule="nonzero"/><path fill="#798088" d="M 745.050781 458.851562 C 745.164062 458.386719 745.253906 457.929688 745.253906 457.433594 L 745.253906 456.953125 C 745.253906 456.453125 745.164062 455.988281 745.058594 455.53125 C 745.058594 455.53125 745.058594 455.515625 745.058594 455.515625 L 691.425781 455.515625 C 691.304688 455.972656 691.226562 456.445312 691.226562 456.945312 L 691.226562 457.425781 C 691.226562 457.921875 691.304688 458.394531 691.433594 458.84375 L 745.066406 458.84375 Z M 745.050781 458.851562 " fill-opacity="1" fill-rule="nonzero"/><path fill="#bfc5cd" d="M 692.292969 492.050781 L 744.167969 492.050781 C 743.136719 490.605469 741.460938 489.660156 739.558594 489.660156 L 696.894531 489.660156 C 695 489.660156 693.324219 490.597656 692.292969 492.050781 Z M 692.292969 492.050781 " fill-opacity="1" fill-rule="nonzero"/><path fill="#bfc5cd" d="M 735.667969 501.53125 L 739.566406 501.53125 C 741.46875 501.53125 743.117188 500.585938 744.144531 499.140625 L 692.324219 499.140625 C 693.359375 500.585938 695.011719 501.53125 696.902344 501.53125 L 735.675781 501.53125 Z M 735.667969 501.53125 " fill-opacity="1" fill-rule="nonzero"/><path fill="#929aa3" d="M 744.988281 493.726562 C 744.964844 493.648438 744.941406 493.558594 744.90625 493.480469 C 744.730469 492.964844 744.484375 492.476562 744.167969 492.042969 L 692.292969 492.042969 C 691.980469 492.476562 691.738281 492.964844 691.554688 493.480469 C 691.523438 493.558594 691.496094 493.632812 691.464844 493.726562 C 691.441406 493.800781 691.449219 493.855469 691.433594 493.9375 L 745.011719 493.9375 C 744.996094 493.863281 744.996094 493.792969 744.980469 493.726562 Z M 744.988281 493.726562 " fill-opacity="1" fill-rule="nonzero"/><path fill="#929aa3" d="M 744.90625 497.722656 C 744.941406 497.632812 744.964844 497.546875 744.988281 497.464844 C 745.003906 497.394531 745.003906 497.328125 745.019531 497.265625 L 691.441406 497.265625 C 691.457031 497.335938 691.457031 497.402344 691.472656 497.464844 C 691.503906 497.554688 691.53125 497.632812 691.5625 497.707031 C 691.738281 498.21875 691.988281 498.714844 692.300781 499.140625 L 744.167969 499.140625 C 744.492188 498.714844 744.730469 498.21875 744.914062 497.722656 Z M 744.90625 497.722656 " fill-opacity="1" fill-rule="nonzero"/><path fill="#798088" d="M 745.050781 497.257812 C 745.164062 496.792969 745.253906 496.332031 745.253906 495.828125 L 745.253906 495.347656 C 745.253906 494.859375 745.164062 494.386719 745.050781 493.9375 L 691.417969 493.9375 C 691.296875 494.394531 691.214844 494.859375 691.214844 495.347656 L 691.214844 495.828125 C 691.214844 496.332031 691.296875 496.792969 691.425781 497.257812 L 745.058594 497.257812 Z M 745.050781 497.257812 " fill-opacity="1" fill-rule="nonzero"/><path fill="#bfc5cd" d="M 691.441406 535.667969 C 691.457031 535.738281 691.457031 535.804688 691.472656 535.875 C 691.449219 535.796875 691.457031 535.714844 691.441406 535.667969 Z M 691.441406 535.667969 " fill-opacity="1" fill-rule="nonzero"/><path fill="#bfc5cd" d="M 692.324219 530.445312 L 744.179688 530.445312 C 743.144531 529.027344 741.46875 528.074219 739.566406 528.074219 L 696.902344 528.074219 C 695.011719 528.074219 693.351562 529.019531 692.324219 530.445312 Z M 692.324219 530.445312 " fill-opacity="1" fill-rule="nonzero"/><path fill="#bfc5cd" d="M 735.675781 539.925781 L 739.566406 539.925781 C 741.46875 539.925781 743.117188 538.988281 744.144531 537.570312 L 692.324219 537.570312 C 693.359375 538.988281 695.019531 539.925781 696.902344 539.925781 L 735.683594 539.925781 Z M 735.675781 539.925781 " fill-opacity="1" fill-rule="nonzero"/><path fill="#929aa3" d="M 744.988281 532.128906 C 744.964844 532.042969 744.941406 531.960938 744.90625 531.890625 C 744.730469 531.367188 744.484375 530.878906 744.167969 530.445312 L 692.292969 530.445312 C 691.980469 530.878906 691.738281 531.375 691.554688 531.898438 C 691.523438 531.960938 691.496094 532.042969 691.472656 532.128906 C 691.449219 532.195312 691.457031 532.273438 691.441406 532.347656 L 745.019531 532.347656 C 745.003906 532.273438 745.003906 532.195312 744.988281 532.128906 Z M 744.988281 532.128906 " fill-opacity="1" fill-rule="nonzero"/><path fill="#929aa3" d="M 744.90625 536.125 C 744.941406 536.035156 744.964844 535.957031 744.988281 535.867188 C 745.003906 535.796875 745.003906 535.714844 745.019531 535.667969 L 691.441406 535.667969 C 691.457031 535.722656 691.457031 535.804688 691.472656 535.875 C 691.503906 535.957031 691.53125 536.035156 691.5625 536.125 C 691.738281 536.636719 691.988281 537.136719 692.300781 537.570312 L 744.167969 537.570312 C 744.492188 537.136719 744.730469 536.636719 744.914062 536.125 Z M 744.90625 536.125 " fill-opacity="1" fill-rule="nonzero"/><path fill="#798088" d="M 745.019531 535.667969 L 745.050781 535.667969 C 745.164062 535.210938 745.253906 534.738281 745.253906 534.238281 L 745.253906 533.757812 C 745.253906 533.269531 745.164062 532.796875 745.058594 532.347656 L 691.417969 532.347656 C 691.296875 532.804688 691.214844 533.269531 691.214844 533.757812 L 691.214844 534.238281 C 691.214844 534.730469 691.296875 535.210938 691.425781 535.667969 L 745.027344 535.667969 Z M 745.019531 535.667969 " fill-opacity="1" fill-rule="nonzero"/><path fill="#bfc5cd" d="M 692.324219 568.859375 L 744.179688 568.859375 C 743.144531 567.429688 741.46875 566.484375 739.566406 566.484375 L 696.902344 566.484375 C 695.011719 566.484375 693.351562 567.429688 692.324219 568.859375 Z M 692.324219 568.859375 " fill-opacity="1" fill-rule="nonzero"/><path fill="#bfc5cd" d="M 735.675781 578.339844 L 739.566406 578.339844 C 741.46875 578.339844 743.117188 577.398438 744.144531 575.972656 L 692.300781 575.972656 C 693.332031 577.398438 695.011719 578.339844 696.902344 578.339844 L 735.683594 578.339844 Z M 735.675781 578.339844 " fill-opacity="1" fill-rule="nonzero"/><path fill="#929aa3" d="M 744.988281 570.550781 C 744.964844 570.460938 744.941406 570.382812 744.90625 570.292969 C 744.730469 569.789062 744.484375 569.292969 744.167969 568.859375 L 692.292969 568.859375 C 691.980469 569.292969 691.738281 569.789062 691.554688 570.292969 C 691.523438 570.382812 691.496094 570.460938 691.472656 570.535156 C 691.449219 570.605469 691.457031 570.6875 691.441406 570.742188 L 745.019531 570.742188 C 745.003906 570.679688 745.003906 570.597656 744.988281 570.550781 Z M 744.988281 570.550781 " fill-opacity="1" fill-rule="nonzero"/><path fill="#929aa3" d="M 744.90625 574.527344 C 744.941406 574.441406 744.964844 574.367188 744.988281 574.28125 C 745.003906 574.214844 745.003906 574.144531 745.019531 574.078125 L 691.441406 574.078125 C 691.457031 574.152344 691.457031 574.222656 691.472656 574.28125 C 691.503906 574.367188 691.53125 574.441406 691.554688 574.527344 C 691.738281 575.042969 691.980469 575.53125 692.292969 575.964844 L 744.160156 575.964844 C 744.480469 575.53125 744.730469 575.042969 744.90625 574.527344 Z M 744.90625 574.527344 " fill-opacity="1" fill-rule="nonzero"/><path fill="#798088" d="M 745.050781 574.070312 C 745.164062 573.613281 745.253906 573.132812 745.253906 572.644531 L 745.253906 572.164062 C 745.253906 571.671875 745.164062 571.199219 745.058594 570.742188 L 691.417969 570.742188 C 691.296875 571.207031 691.214844 571.671875 691.214844 572.164062 L 691.214844 572.644531 C 691.214844 573.132812 691.296875 573.613281 691.425781 574.070312 L 745.058594 574.070312 Z M 745.050781 574.070312 " fill-opacity="1" fill-rule="nonzero"/><path fill="#bfc5cd" d="M 691.472656 608.945312 C 691.449219 609.011719 691.433594 609.082031 691.417969 609.148438 L 691.441406 609.148438 C 691.457031 609.089844 691.457031 609.011719 691.472656 608.945312 Z M 691.472656 608.945312 " fill-opacity="1" fill-rule="nonzero"/><path fill="#bfc5cd" d="M 692.324219 607.261719 L 744.179688 607.261719 C 743.144531 605.832031 741.46875 604.886719 739.566406 604.886719 L 696.902344 604.886719 C 695.011719 604.886719 693.351562 605.832031 692.324219 607.261719 Z M 692.324219 607.261719 " fill-opacity="1" fill-rule="nonzero"/><path fill="#bfc5cd" d="M 735.667969 616.734375 L 739.566406 616.734375 C 741.46875 616.734375 743.117188 615.804688 744.144531 614.375 L 692.324219 614.375 C 693.351562 615.804688 695.011719 616.734375 696.902344 616.734375 L 735.675781 616.734375 Z M 735.667969 616.734375 " fill-opacity="1" fill-rule="nonzero"/><path fill="#929aa3" d="M 745.019531 609.148438 C 745.003906 609.089844 745.003906 609.011719 744.988281 608.945312 C 744.964844 608.867188 744.941406 608.777344 744.90625 608.699219 C 744.730469 608.183594 744.484375 607.695312 744.167969 607.261719 L 692.292969 607.261719 C 691.980469 607.695312 691.738281 608.183594 691.554688 608.699219 C 691.523438 608.785156 691.496094 608.867188 691.472656 608.945312 C 691.449219 609.011719 691.457031 609.089844 691.441406 609.148438 Z M 745.019531 609.148438 " fill-opacity="1" fill-rule="nonzero"/><path fill="#929aa3" d="M 744.90625 612.933594 C 744.941406 612.851562 744.964844 612.773438 744.988281 612.691406 C 745.003906 612.628906 745.003906 612.554688 745.019531 612.492188 L 691.441406 612.492188 C 691.457031 612.554688 691.457031 612.636719 691.472656 612.699219 C 691.503906 612.78125 691.53125 612.851562 691.554688 612.933594 C 691.738281 613.453125 691.980469 613.941406 692.292969 614.375 L 744.160156 614.375 C 744.480469 613.941406 744.730469 613.453125 744.90625 612.933594 Z M 744.90625 612.933594 " fill-opacity="1" fill-rule="nonzero"/><path fill="#798088" d="M 745.050781 612.484375 C 745.164062 612.027344 745.253906 611.554688 745.253906 611.054688 L 745.253906 610.582031 C 745.253906 610.085938 745.164062 609.621094 745.058594 609.171875 C 745.058594 609.15625 745.058594 609.15625 745.058594 609.148438 L 691.425781 609.148438 C 691.304688 609.605469 691.226562 610.085938 691.226562 610.582031 L 691.226562 611.054688 C 691.226562 611.554688 691.304688 612.027344 691.433594 612.484375 L 745.066406 612.484375 Z M 745.050781 612.484375 " fill-opacity="1" fill-rule="nonzero"/><path fill="#bfc5cd" d="M 691.472656 647.351562 C 691.449219 647.421875 691.457031 647.484375 691.441406 647.558594 C 691.457031 647.484375 691.457031 647.414062 691.472656 647.351562 Z M 691.472656 647.351562 " fill-opacity="1" fill-rule="nonzero"/><path fill="#bfc5cd" d="M 692.324219 645.671875 L 744.144531 645.671875 C 743.117188 644.246094 741.46875 643.300781 739.566406 643.300781 L 696.902344 643.300781 C 695.011719 643.300781 693.351562 644.246094 692.324219 645.671875 Z M 692.324219 645.671875 " fill-opacity="1" fill-rule="nonzero"/><path fill="#bfc5cd" d="M 735.667969 655.160156 L 739.566406 655.160156 C 741.46875 655.160156 743.117188 654.214844 744.144531 652.789062 L 692.300781 652.789062 C 693.332031 654.214844 695.011719 655.160156 696.902344 655.160156 L 735.675781 655.160156 Z M 735.667969 655.160156 " fill-opacity="1" fill-rule="nonzero"/><path fill="#929aa3" d="M 745.019531 647.566406 C 745.003906 647.503906 745.003906 647.421875 744.988281 647.367188 C 744.964844 647.285156 744.941406 647.1875 744.90625 647.117188 C 744.730469 646.605469 744.484375 646.113281 744.167969 645.679688 L 692.292969 645.679688 C 691.980469 646.113281 691.738281 646.605469 691.554688 647.117188 C 691.523438 647.195312 691.496094 647.285156 691.472656 647.359375 C 691.449219 647.429688 691.457031 647.492188 691.441406 647.566406 Z M 745.019531 647.566406 " fill-opacity="1" fill-rule="nonzero"/><path fill="#929aa3" d="M 744.90625 651.328125 C 744.941406 651.253906 744.964844 651.175781 744.988281 651.09375 C 745.003906 651.03125 745.003906 650.949219 745.019531 650.886719 L 691.441406 650.886719 C 691.457031 650.960938 691.457031 651.03125 691.472656 651.09375 C 691.503906 651.175781 691.53125 651.253906 691.554688 651.328125 C 691.738281 651.855469 691.980469 652.347656 692.292969 652.78125 L 744.160156 652.78125 C 744.480469 652.347656 744.722656 651.855469 744.90625 651.328125 Z M 744.90625 651.328125 " fill-opacity="1" fill-rule="nonzero"/><path fill="#798088" d="M 745.050781 650.886719 C 745.164062 650.429688 745.253906 649.957031 745.253906 649.46875 L 745.253906 648.984375 C 745.253906 648.488281 745.164062 648.023438 745.058594 647.566406 L 691.417969 647.566406 C 691.296875 648.023438 691.214844 648.488281 691.214844 648.984375 L 691.214844 649.46875 C 691.214844 649.964844 691.296875 650.445312 691.425781 650.886719 L 745.058594 650.886719 Z M 745.050781 650.886719 " fill-opacity="1" fill-rule="nonzero"/><path fill="#bfc5cd" d="M 692.324219 684.078125 L 744.144531 684.078125 C 743.117188 682.640625 741.46875 681.703125 739.566406 681.703125 L 696.902344 681.703125 C 695.011719 681.703125 693.351562 682.640625 692.324219 684.078125 Z M 692.324219 684.078125 " fill-opacity="1" fill-rule="nonzero"/><path fill="#bfc5cd" d="M 735.667969 693.566406 L 739.566406 693.566406 C 741.46875 693.566406 743.117188 692.617188 744.144531 691.191406 L 692.324219 691.191406 C 693.359375 692.617188 695.011719 693.566406 696.902344 693.566406 L 735.675781 693.566406 Z M 735.667969 693.566406 " fill-opacity="1" fill-rule="nonzero"/><path fill="#929aa3" d="M 744.988281 685.769531 C 744.964844 685.679688 744.941406 685.609375 744.90625 685.519531 C 744.730469 685.007812 744.484375 684.519531 744.167969 684.085938 L 692.292969 684.085938 C 691.980469 684.519531 691.738281 685.007812 691.554688 685.527344 C 691.523438 685.609375 691.496094 685.679688 691.472656 685.761719 C 691.449219 685.832031 691.457031 685.90625 691.441406 685.960938 L 745.019531 685.960938 C 745.003906 685.90625 745.003906 685.832031 744.988281 685.769531 Z M 744.988281 685.769531 " fill-opacity="1" fill-rule="nonzero"/><path fill="#929aa3" d="M 744.90625 689.753906 C 744.941406 689.667969 744.964844 689.585938 744.988281 689.507812 C 745.003906 689.441406 745.003906 689.363281 745.019531 689.296875 L 691.441406 689.296875 C 691.457031 689.363281 691.457031 689.441406 691.472656 689.507812 C 691.503906 689.585938 691.53125 689.667969 691.554688 689.753906 C 691.738281 690.253906 691.980469 690.742188 692.292969 691.191406 L 744.160156 691.191406 C 744.480469 690.742188 744.730469 690.269531 744.90625 689.753906 Z M 744.90625 689.753906 " fill-opacity="1" fill-rule="nonzero"/><path fill="#798088" d="M 745.050781 689.289062 C 745.164062 688.832031 745.253906 688.367188 745.253906 687.863281 L 745.253906 687.398438 C 745.253906 686.898438 745.164062 686.425781 745.058594 685.984375 C 745.058594 685.96875 745.058594 685.960938 745.058594 685.960938 L 691.425781 685.960938 C 691.304688 686.425781 691.226562 686.898438 691.226562 687.398438 L 691.226562 687.863281 C 691.226562 688.367188 691.304688 688.832031 691.433594 689.289062 L 745.066406 689.289062 Z M 745.050781 689.289062 " fill-opacity="1" fill-rule="nonzero"/><path fill="#bfc5cd" d="M 691.441406 727.695312 C 691.457031 727.765625 691.457031 727.847656 691.472656 727.910156 C 691.449219 727.847656 691.457031 727.765625 691.441406 727.695312 Z M 691.441406 727.695312 " fill-opacity="1" fill-rule="nonzero"/><path fill="#bfc5cd" d="M 692.324219 722.480469 L 744.179688 722.480469 C 743.144531 721.0625 741.46875 720.105469 739.566406 720.105469 L 696.902344 720.105469 C 695.011719 720.105469 693.351562 721.054688 692.324219 722.480469 Z M 692.324219 722.480469 " fill-opacity="1" fill-rule="nonzero"/><path fill="#bfc5cd" d="M 735.675781 731.96875 L 739.566406 731.96875 C 741.46875 731.96875 743.117188 731.023438 744.144531 729.609375 L 692.324219 729.609375 C 693.351562 731.023438 695.011719 731.96875 696.902344 731.96875 L 735.683594 731.96875 Z M 735.675781 731.96875 " fill-opacity="1" fill-rule="nonzero"/><path fill="#929aa3" d="M 744.988281 724.171875 C 744.964844 724.085938 744.929688 723.996094 744.90625 723.910156 C 744.730469 723.402344 744.484375 722.90625 744.167969 722.472656 L 692.292969 722.472656 C 691.980469 722.90625 691.738281 723.402344 691.554688 723.917969 C 691.523438 723.996094 691.496094 724.078125 691.464844 724.164062 C 691.441406 724.222656 691.449219 724.300781 691.433594 724.367188 L 745.011719 724.367188 C 744.996094 724.292969 744.996094 724.230469 744.980469 724.164062 Z M 744.988281 724.171875 " fill-opacity="1" fill-rule="nonzero"/><path fill="#929aa3" d="M 744.90625 728.160156 C 744.941406 728.070312 744.964844 727.992188 744.988281 727.917969 C 745.003906 727.855469 745.003906 727.773438 745.019531 727.703125 L 691.441406 727.703125 C 691.457031 727.773438 691.457031 727.855469 691.472656 727.917969 C 691.503906 728 691.53125 728.078125 691.554688 728.160156 C 691.738281 728.671875 691.980469 729.171875 692.292969 729.609375 L 744.160156 729.609375 C 744.480469 729.160156 744.730469 728.671875 744.90625 728.160156 Z M 744.90625 728.160156 " fill-opacity="1" fill-rule="nonzero"/><path fill="#798088" d="M 745.019531 727.695312 L 745.050781 727.695312 C 745.164062 727.238281 745.253906 726.773438 745.253906 726.265625 L 745.253906 725.800781 C 745.253906 725.296875 745.164062 724.832031 745.058594 724.382812 C 745.058594 724.382812 745.027344 724.375 745.027344 724.375 L 691.425781 724.375 C 691.304688 724.832031 691.226562 725.296875 691.226562 725.800781 L 691.226562 726.265625 C 691.226562 726.773438 691.304688 727.238281 691.433594 727.695312 L 745.035156 727.695312 Z M 745.019531 727.695312 " fill-opacity="1" fill-rule="nonzero"/><path fill="#bfc5cd" d="M 691.441406 766.105469 C 691.457031 766.179688 691.457031 766.25 691.472656 766.324219 C 691.457031 766.25 691.457031 766.179688 691.441406 766.105469 Z M 691.441406 766.105469 " fill-opacity="1" fill-rule="nonzero"/><path fill="#bfc5cd" d="M 692.324219 760.882812 L 744.179688 760.882812 C 743.144531 759.449219 741.46875 758.511719 739.566406 758.511719 L 696.902344 758.511719 C 695.011719 758.511719 693.351562 759.457031 692.324219 760.882812 Z M 692.324219 760.882812 " fill-opacity="1" fill-rule="nonzero"/><path fill="#bfc5cd" d="M 735.667969 770.363281 L 739.566406 770.363281 C 741.46875 770.363281 743.117188 769.425781 744.144531 768 L 692.324219 768 C 693.351562 769.425781 695.011719 770.363281 696.902344 770.363281 L 735.675781 770.363281 Z M 735.667969 770.363281 " fill-opacity="1" fill-rule="nonzero"/><path fill="#929aa3" d="M 744.988281 762.570312 C 744.964844 762.488281 744.941406 762.40625 744.90625 762.320312 C 744.730469 761.796875 744.484375 761.316406 744.167969 760.882812 L 692.292969 760.882812 C 691.980469 761.316406 691.738281 761.816406 691.554688 762.320312 C 691.523438 762.40625 691.496094 762.488281 691.472656 762.570312 C 691.449219 762.632812 691.457031 762.714844 691.441406 762.769531 L 745.019531 762.769531 C 745.003906 762.714844 745.003906 762.632812 744.988281 762.570312 Z M 744.988281 762.570312 " fill-opacity="1" fill-rule="nonzero"/><path fill="#929aa3" d="M 744.90625 766.5625 C 744.941406 766.484375 744.964844 766.394531 744.988281 766.324219 C 745.003906 766.25 745.003906 766.179688 745.019531 766.105469 L 691.441406 766.105469 C 691.457031 766.179688 691.457031 766.25 691.472656 766.324219 C 691.503906 766.402344 691.53125 766.484375 691.554688 766.554688 C 691.738281 767.078125 691.980469 767.566406 692.292969 768.007812 L 744.160156 768.007812 C 744.480469 767.566406 744.730469 767.085938 744.90625 766.570312 Z M 744.90625 766.5625 " fill-opacity="1" fill-rule="nonzero"/><path fill="#798088" d="M 745.019531 766.105469 L 745.050781 766.105469 C 745.164062 765.648438 745.253906 765.183594 745.253906 764.679688 L 745.253906 764.210938 C 745.253906 763.707031 745.164062 763.242188 745.058594 762.792969 C 745.058594 762.792969 745.058594 762.785156 745.058594 762.769531 L 691.425781 762.769531 C 691.304688 763.242188 691.226562 763.707031 691.226562 764.210938 L 691.226562 764.679688 C 691.226562 765.175781 691.304688 765.648438 691.433594 766.105469 L 745.035156 766.105469 Z M 745.019531 766.105469 " fill-opacity="1" fill-rule="nonzero"/><path fill="#bfc5cd" d="M 691.441406 804.507812 C 691.457031 804.574219 691.457031 804.652344 691.472656 804.71875 C 691.449219 804.644531 691.457031 804.574219 691.441406 804.507812 Z M 691.441406 804.507812 " fill-opacity="1" fill-rule="nonzero"/><path fill="#bfc5cd" d="M 692.292969 799.296875 L 744.167969 799.296875 C 743.136719 797.867188 741.460938 796.921875 739.558594 796.921875 L 696.894531 796.921875 C 695 796.921875 693.324219 797.867188 692.292969 799.296875 Z M 692.292969 799.296875 " fill-opacity="1" fill-rule="nonzero"/><path fill="#bfc5cd" d="M 735.667969 808.785156 L 739.566406 808.785156 C 741.46875 808.785156 743.117188 807.847656 744.144531 806.402344 L 692.324219 806.402344 C 693.359375 807.839844 695.019531 808.785156 696.902344 808.785156 L 735.675781 808.785156 Z M 735.667969 808.785156 " fill-opacity="1" fill-rule="nonzero"/><path fill="#929aa3" d="M 744.988281 800.988281 C 744.964844 800.898438 744.929688 800.8125 744.90625 800.714844 C 744.730469 800.210938 744.484375 799.722656 744.167969 799.289062 L 692.292969 799.289062 C 691.980469 799.722656 691.738281 800.210938 691.554688 800.722656 C 691.523438 800.804688 691.496094 800.890625 691.464844 800.972656 C 691.441406 801.050781 691.449219 801.117188 691.433594 801.1875 L 745.011719 801.1875 C 744.996094 801.117188 744.996094 801.050781 744.980469 800.988281 Z M 744.988281 800.988281 " fill-opacity="1" fill-rule="nonzero"/><path fill="#929aa3" d="M 744.90625 804.957031 C 744.941406 804.878906 744.964844 804.804688 744.988281 804.726562 C 745.003906 804.652344 745.003906 804.582031 745.019531 804.515625 L 691.441406 804.515625 C 691.457031 804.582031 691.457031 804.660156 691.472656 804.726562 C 691.503906 804.8125 691.53125 804.878906 691.554688 804.957031 C 691.738281 805.480469 691.980469 805.96875 692.292969 806.402344 L 744.160156 806.402344 C 744.480469 805.96875 744.730469 805.480469 744.90625 804.957031 Z M 744.90625 804.957031 " fill-opacity="1" fill-rule="nonzero"/><path fill="#798088" d="M 745.019531 804.507812 L 745.050781 804.507812 C 745.164062 804.058594 745.253906 803.585938 745.253906 803.082031 L 745.253906 802.609375 C 745.253906 802.109375 745.164062 801.652344 745.058594 801.1875 L 691.417969 801.1875 C 691.296875 801.644531 691.214844 802.109375 691.214844 802.609375 L 691.214844 803.082031 C 691.214844 803.578125 691.296875 804.058594 691.425781 804.507812 L 745.027344 804.507812 Z M 745.019531 804.507812 " fill-opacity="1" fill-rule="nonzero"/></svg>