<svg xmlns="http://www.w3.org/2000/svg" xmlns:xlink="http://www.w3.org/1999/xlink" width="960" zoomAndPan="magnify" viewBox="0 0 720 809.999993" height="1080" preserveAspectRatio="xMidYMid meet" version="1.0"><path fill="#1b1b1e" d="M 0.148438 20.988281 C 0.148438 8.414062 10.34375 -1.78125 22.910156 -1.78125 L 769.734375 -1.78125 C 770.242188 -2.09375 770.777344 -2.367188 771.308594 -2.648438 C 771.484375 -2.738281 771.644531 -2.855469 771.8125 -2.9375 C 771.835938 -2.960938 771.863281 -2.960938 771.894531 -2.976562 C 772.726562 -3.386719 773.585938 -3.746094 774.46875 -4.058594 C 774.492188 -4.058594 774.507812 -4.085938 774.53125 -4.085938 C 774.53125 -4.085938 774.554688 -4.085938 774.554688 -4.101562 C 775.367188 -4.363281 776.183594 -4.605469 777.027344 -4.78125 C 777.097656 -4.804688 777.171875 -4.839844 777.234375 -4.855469 C 777.949219 -5 778.671875 -5.109375 779.398438 -5.191406 C 779.457031 -5.207031 779.496094 -5.222656 779.542969 -5.222656 C 780.332031 -5.304688 781.117188 -5.351562 781.917969 -5.351562 L 787.605469 -5.351562 C 788.398438 -5.351562 789.183594 -5.304688 789.960938 -5.222656 C 790.019531 -5.222656 790.058594 -5.199219 790.105469 -5.191406 C 790.84375 -5.117188 791.566406 -5 792.269531 -4.855469 C 792.351562 -4.839844 792.421875 -4.789062 792.503906 -4.78125 C 793.296875 -4.605469 794.066406 -4.378906 794.820312 -4.125 C 794.878906 -4.109375 794.933594 -4.101562 794.972656 -4.09375 C 794.972656 -4.09375 794.988281 -4.074219 794.988281 -4.066406 C 795.914062 -3.761719 796.808594 -3.386719 797.667969 -2.960938 C 797.675781 -2.953125 797.683594 -2.9375 797.683594 -2.9375 C 797.734375 -2.914062 797.773438 -2.882812 797.820312 -2.855469 C 798.496094 -2.519531 799.136719 -2.167969 799.769531 -1.773438 L 1478.34375 -1.773438 C 1490.910156 -1.773438 1501.101562 8.414062 1501.101562 20.996094 L 1501.101562 904.746094 C 1501.101562 917.3125 1490.917969 927.5 1478.34375 927.5 L 799.769531 927.5 C 799.105469 927.925781 798.40625 928.3125 797.699219 928.671875 L 797.683594 928.671875 C 797.683594 928.671875 797.683594 928.6875 797.675781 928.6875 C 795.976562 929.523438 794.179688 930.164062 792.277344 930.5625 C 791.589844 930.714844 790.882812 930.820312 790.171875 930.902344 C 790.105469 930.917969 790.035156 930.933594 789.960938 930.933594 C 789.183594 931.011719 788.398438 931.0625 787.605469 931.0625 L 781.917969 931.0625 C 781.117188 931.0625 780.328125 931.011719 779.550781 930.933594 C 779.480469 930.933594 779.414062 930.910156 779.34375 930.902344 C 778.636719 930.820312 777.933594 930.726562 777.242188 930.5625 C 776.328125 930.386719 775.445312 930.113281 774.5625 929.820312 C 774.5625 929.800781 774.539062 929.800781 774.539062 929.800781 C 774.515625 929.800781 774.5 929.792969 774.476562 929.792969 C 773.570312 929.464844 772.6875 929.105469 771.835938 928.679688 C 771.835938 928.679688 771.820312 928.679688 771.820312 928.664062 C 771.109375 928.300781 770.417969 927.917969 769.742188 927.492188 L 22.917969 927.492188 C 10.351562 927.492188 0.15625 917.304688 0.15625 904.738281 L 0.15625 20.988281 Z M 0.148438 20.988281 " fill-opacity="1" fill-rule="nonzero"/><path fill="#35393e" d="M 759.160156 18.359375 L 756.792969 18.359375 C 756.007812 18.359375 755.367188 19.007812 755.367188 19.792969 C 755.367188 20.578125 756.007812 21.222656 756.792969 21.222656 L 759.160156 21.222656 L 759.160156 44.691406 L 144.261719 44.691406 C 141.117188 44.691406 138.574219 47.226562 138.574219 50.378906 L 138.574219 875.355469 C 138.574219 878.484375 141.117188 881.042969 144.261719 881.042969 L 759.160156 881.042969 L 759.160156 904.511719 L 758.628906 904.511719 C 757.84375 904.511719 757.203125 905.148438 757.203125 905.941406 C 757.203125 906.734375 757.84375 907.375 758.628906 907.375 L 759.160156 907.375 L 759.160156 908.308594 C 759.160156 910.722656 759.542969 913.054688 760.242188 915.246094 L 40.695312 915.246094 C 28.449219 915.246094 18.539062 905.308594 18.539062 893.082031 L 18.539062 32.644531 C 18.539062 20.402344 28.449219 10.480469 40.695312 10.480469 L 760.242188 10.480469 C 759.542969 12.671875 759.160156 15.003906 759.160156 17.417969 Z M 759.160156 18.359375 " fill-opacity="1" fill-rule="nonzero"/><path fill="#181b1e" d="M 59.222656 560.460938 L 61.21875 560.460938 L 61.21875 717.140625 L 75.398438 785.394531 L 77.714844 785.394531 L 77.714844 797.019531 C 77.714844 797.546875 77.8125 798.0625 77.988281 798.535156 C 77.988281 798.535156 78.003906 798.566406 78.003906 798.589844 C 78.011719 798.597656 78.027344 798.621094 78.027344 798.636719 C 78.027344 798.664062 78.027344 798.6875 78.042969 798.695312 C 78.082031 798.78125 78.148438 798.847656 78.195312 798.925781 C 78.003906 799.09375 77.835938 799.121094 77.691406 798.894531 C 76.90625 797.667969 74.683594 786.886719 74.652344 786.773438 L 59.214844 724.132812 L 59.214844 569.8125 L 46.453125 569.8125 L 46.453125 311.871094 L 52.46875 311.871094 L 52.46875 560.460938 Z M 59.222656 560.460938 " fill-opacity="1" fill-rule="nonzero"/><path fill="#181b1e" d="M 63.960938 91.949219 L 63.960938 95.375 L 61.21875 95.375 L 61.21875 113.117188 L 59.648438 113.117188 L 59.648438 140.289062 L 61.21875 140.289062 L 61.21875 307.84375 L 59.222656 307.84375 L 59.222656 91.121094 C 59.222656 90.640625 59.269531 90.167969 59.359375 89.71875 L 59.382812 89.46875 L 59.460938 89.230469 L 59.703125 88.460938 L 59.878906 87.929688 L 59.9375 87.835938 C 60.367188 86.886719 60.960938 86.039062 61.707031 85.339844 C 62.359375 84.707031 63.128906 84.21875 63.960938 83.832031 L 63.960938 91.964844 Z M 63.960938 91.949219 " fill-opacity="1" fill-rule="nonzero"/><path fill="#6d9dc5" d="M 62.71875 140.289062 L 69.292969 140.289062 L 69.292969 307.851562 L 61.21875 307.851562 L 61.21875 140.289062 Z M 62.71875 140.289062 " fill-opacity="1" fill-rule="nonzero"/><path fill="#6d9dc5" d="M 99.992188 307.851562 L 94.917969 307.851562 L 94.917969 140.289062 L 102.992188 140.289062 L 102.992188 307.851562 Z M 99.992188 307.851562 " fill-opacity="1" fill-rule="nonzero"/><path fill="#6898be" d="M 69.902344 140.289062 L 71.371094 140.289062 L 71.371094 307.851562 L 69.292969 307.851562 L 69.292969 140.289062 Z M 69.902344 140.289062 " fill-opacity="1" fill-rule="nonzero"/><path fill="#6898be" d="M 94.316406 140.289062 L 94.917969 140.289062 L 94.917969 307.851562 L 92.839844 307.851562 L 92.839844 140.289062 Z M 94.316406 140.289062 " fill-opacity="1" fill-rule="nonzero"/><path fill="#5f91b7" d="M 71.371094 140.289062 L 73.449219 140.289062 L 73.449219 307.851562 L 71.371094 307.851562 Z M 71.371094 140.289062 " fill-opacity="1" fill-rule="nonzero"/><path fill="#5f91b7" d="M 91.636719 140.289062 L 92.839844 140.289062 L 92.839844 307.851562 L 90.769531 307.851562 L 90.769531 140.289062 Z M 91.636719 140.289062 " fill-opacity="1" fill-rule="nonzero"/><path fill="#588aaf" d="M 75.253906 140.289062 L 75.515625 140.289062 L 75.515625 307.851562 L 73.449219 307.851562 L 73.449219 140.289062 Z M 75.253906 140.289062 " fill-opacity="1" fill-rule="nonzero"/><path fill="#588aaf" d="M 88.957031 140.289062 L 90.769531 140.289062 L 90.769531 307.851562 L 88.703125 307.851562 L 88.703125 140.289062 Z M 88.957031 140.289062 " fill-opacity="1" fill-rule="nonzero"/><path fill="#5284a8" d="M 77.929688 140.289062 L 88.703125 140.289062 L 88.703125 307.851562 L 75.515625 307.851562 L 75.515625 140.289062 Z M 77.929688 140.289062 " fill-opacity="1" fill-rule="nonzero"/><path fill="#6d9dc5" d="M 101.492188 113.117188 L 94.917969 113.117188 L 94.917969 95.375 L 102.992188 95.375 L 102.992188 113.117188 Z M 101.492188 113.117188 " fill-opacity="1" fill-rule="nonzero"/><path fill="#6d9dc5" d="M 67.226562 113.117188 L 61.21875 113.117188 L 61.21875 95.375 L 69.292969 95.375 L 69.292969 113.117188 Z M 67.226562 113.117188 " fill-opacity="1" fill-rule="nonzero"/><path fill="#6898be" d="M 92.839844 113.117188 L 92.839844 95.375 L 94.917969 95.375 L 94.917969 113.117188 Z M 92.839844 113.117188 " fill-opacity="1" fill-rule="nonzero"/><path fill="#6898be" d="M 69.902344 113.117188 L 69.292969 113.117188 L 69.292969 95.375 L 71.371094 95.375 L 71.371094 113.117188 Z M 69.902344 113.117188 " fill-opacity="1" fill-rule="nonzero"/><path fill="#5f91b7" d="M 91.636719 113.117188 L 90.769531 113.117188 L 90.769531 95.375 L 92.839844 95.375 L 92.839844 113.117188 Z M 91.636719 113.117188 " fill-opacity="1" fill-rule="nonzero"/><path fill="#5f91b7" d="M 72.574219 113.117188 L 71.371094 113.117188 L 71.371094 95.375 L 73.449219 95.375 L 73.449219 113.117188 Z M 72.574219 113.117188 " fill-opacity="1" fill-rule="nonzero"/><path fill="#588aaf" d="M 75.253906 113.117188 L 73.449219 113.117188 L 73.449219 95.375 L 75.515625 95.375 L 75.515625 113.117188 Z M 75.253906 113.117188 " fill-opacity="1" fill-rule="nonzero"/><path fill="#588aaf" d="M 88.957031 113.117188 L 88.703125 113.117188 L 88.703125 95.375 L 90.769531 95.375 L 90.769531 113.117188 Z M 88.957031 113.117188 " fill-opacity="1" fill-rule="nonzero"/><path fill="#5284a8" d="M 86.289062 113.117188 L 75.515625 113.117188 L 75.515625 95.375 L 88.703125 95.375 L 88.703125 113.117188 Z M 86.289062 113.117188 " fill-opacity="1" fill-rule="nonzero"/><path fill="#6d9dc5" d="M 101.492188 717.128906 L 94.917969 717.128906 L 94.917969 560.460938 L 102.992188 560.460938 L 102.992188 717.128906 Z M 101.492188 717.128906 " fill-opacity="1" fill-rule="nonzero"/><path fill="#6d9dc5" d="M 65.726562 560.460938 L 69.292969 560.460938 L 69.292969 717.128906 L 61.21875 717.128906 L 61.21875 560.460938 Z M 65.726562 560.460938 " fill-opacity="1" fill-rule="nonzero"/><path fill="#6898be" d="M 71.371094 560.460938 L 71.371094 717.128906 L 69.292969 717.128906 L 69.292969 560.460938 Z M 71.371094 560.460938 " fill-opacity="1" fill-rule="nonzero"/><path fill="#6898be" d="M 92.839844 560.460938 L 94.917969 560.460938 L 94.917969 717.128906 L 92.839844 717.128906 Z M 92.839844 560.460938 " fill-opacity="1" fill-rule="nonzero"/><path fill="#5f91b7" d="M 73.375 717.128906 L 71.371094 717.128906 L 71.371094 560.460938 L 73.449219 560.460938 L 73.449219 717.128906 Z M 73.375 717.128906 " fill-opacity="1" fill-rule="nonzero"/><path fill="#5f91b7" d="M 92.519531 717.128906 L 90.769531 717.128906 L 90.769531 560.460938 L 92.839844 560.460938 L 92.839844 717.128906 Z M 92.519531 717.128906 " fill-opacity="1" fill-rule="nonzero"/><path fill="#588aaf" d="M 75.5 717.128906 L 73.449219 717.128906 L 73.449219 560.460938 L 75.515625 560.460938 L 75.515625 717.128906 Z M 75.5 717.128906 " fill-opacity="1" fill-rule="nonzero"/><path fill="#588aaf" d="M 90.753906 717.128906 L 88.703125 717.128906 L 88.703125 560.460938 L 90.769531 560.460938 L 90.769531 717.128906 Z M 90.753906 717.128906 " fill-opacity="1" fill-rule="nonzero"/><path fill="#5284a8" d="M 78.035156 717.128906 L 75.515625 717.128906 L 75.515625 560.460938 L 88.703125 560.460938 L 88.703125 717.128906 Z M 78.035156 717.128906 " fill-opacity="1" fill-rule="nonzero"/><path fill="#bac0c5" d="M 78.035156 798.628906 C 78.035156 798.628906 78.019531 798.589844 78.011719 798.582031 C 78.011719 798.558594 77.996094 798.535156 77.996094 798.527344 C 77.820312 798.050781 77.722656 797.539062 77.722656 797.011719 L 77.722656 785.386719 L 77.84375 785.386719 L 68.835938 717.128906 L 71.15625 717.128906 L 78.597656 785.386719 L 78.050781 785.386719 L 78.050781 794.652344 C 78.050781 795.042969 78.117188 797.730469 78.21875 797.933594 C 78.285156 799.015625 78.855469 799.921875 79.671875 800.554688 C 79.6875 800.59375 79.695312 800.652344 79.71875 800.683594 C 79.582031 800.585938 79.480469 800.457031 79.351562 800.363281 C 79.230469 800.257812 79.078125 800.1875 78.957031 800.058594 C 78.933594 800.042969 78.910156 800 78.886719 799.976562 C 78.863281 799.960938 78.835938 799.9375 78.804688 799.90625 C 78.78125 799.867188 78.757812 799.847656 78.742188 799.816406 C 78.558594 799.59375 78.445312 799.335938 78.300781 799.085938 C 78.269531 799.046875 78.226562 798.992188 78.203125 798.933594 C 78.164062 798.855469 78.09375 798.789062 78.050781 798.703125 C 78.050781 798.695312 78.042969 798.671875 78.035156 798.644531 Z M 78.035156 798.628906 " fill-opacity="1" fill-rule="nonzero"/><path fill="#bac0c5" d="M 83.890625 797.011719 L 83.890625 785.386719 L 85.628906 785.386719 L 93.0625 717.128906 L 95.382812 717.128906 L 86.375 785.386719 L 86.496094 785.386719 L 86.496094 797.011719 C 86.496094 799.441406 84.539062 801.40625 82.109375 801.40625 C 82.039062 801.40625 81.972656 801.367188 81.902344 801.367188 L 81.851562 801.367188 C 81.789062 801.367188 81.734375 801.332031 81.660156 801.324219 C 81.644531 801.324219 81.628906 801.339844 81.605469 801.339844 C 81.539062 801.332031 81.492188 801.292969 81.421875 801.277344 C 81.394531 801.277344 81.378906 801.308594 81.355469 801.308594 C 81.292969 801.300781 81.242188 801.261719 81.179688 801.246094 C 81.148438 801.246094 81.132812 801.261719 81.097656 801.277344 C 81.082031 801.269531 81.074219 801.261719 81.058594 801.261719 C 82.671875 800.796875 83.882812 799.070312 83.882812 797.011719 Z M 83.890625 797.011719 " fill-opacity="1" fill-rule="nonzero"/><path fill="#bac0c5" d="M 79.945312 800.796875 C 79.945312 800.796875 79.992188 800.820312 80.007812 800.828125 C 80.046875 800.859375 80.105469 800.859375 80.144531 800.890625 C 80.160156 800.890625 80.167969 800.898438 80.183594 800.917969 C 80.265625 800.964844 80.371094 800.972656 80.449219 801.011719 C 80.53125 801.0625 80.59375 801.078125 80.667969 801.09375 C 80.546875 801.050781 80.410156 801.027344 80.289062 800.964844 C 80.242188 800.964844 80.191406 800.917969 80.144531 800.890625 C 80.097656 800.875 80.046875 800.84375 80.007812 800.820312 C 79.960938 800.796875 79.921875 800.78125 79.878906 800.753906 C 79.832031 800.730469 79.785156 800.707031 79.734375 800.683594 C 79.800781 800.714844 79.863281 800.738281 79.929688 800.765625 C 79.929688 800.765625 79.9375 800.773438 79.945312 800.78125 Z M 79.945312 800.796875 " fill-opacity="1" fill-rule="nonzero"/><path fill="#a5abaf" d="M 80.007812 800.835938 C 80.007812 800.835938 79.960938 800.8125 79.945312 800.804688 C 79.945312 800.804688 79.9375 800.789062 79.929688 800.789062 C 79.992188 800.820312 80.046875 800.84375 80.113281 800.867188 C 80.128906 800.875 80.136719 800.890625 80.144531 800.898438 C 80.113281 800.867188 80.046875 800.867188 80.007812 800.835938 Z M 80.007812 800.835938 " fill-opacity="1" fill-rule="nonzero"/><path fill="#a5abaf" d="M 83.273438 797.011719 L 83.273438 785.386719 L 83.890625 785.386719 L 83.890625 797.011719 C 83.890625 799.070312 82.6875 800.796875 81.066406 801.261719 C 81.066406 801.261719 81.035156 801.253906 81.019531 801.253906 C 82.308594 800.773438 83.265625 799.046875 83.265625 797.011719 Z M 83.273438 797.011719 " fill-opacity="1" fill-rule="nonzero"/><path fill="#a5abaf" d="M 78.726562 798.855469 C 78.820312 799.488281 79.167969 800.042969 79.640625 800.484375 C 79.648438 800.507812 79.648438 800.539062 79.671875 800.546875 C 78.855469 799.914062 78.285156 799.007812 78.21875 797.925781 C 78.117188 797.722656 78.050781 795.035156 78.050781 794.644531 L 78.050781 785.378906 L 78.371094 785.378906 L 78.371094 795.429688 C 78.371094 796.207031 78.515625 798.445312 78.726562 798.847656 Z M 78.726562 798.855469 " fill-opacity="1" fill-rule="nonzero"/><path fill="#91979a" d="M 80.183594 800.925781 C 80.183594 800.925781 80.160156 800.898438 80.144531 800.898438 C 80.144531 800.898438 80.128906 800.882812 80.113281 800.867188 C 80.335938 800.980469 80.5625 801.09375 80.800781 801.171875 C 80.753906 801.15625 80.714844 801.140625 80.664062 801.109375 C 80.59375 801.09375 80.53125 801.070312 80.449219 801.027344 C 80.371094 800.988281 80.265625 800.980469 80.183594 800.933594 Z M 80.183594 800.925781 " fill-opacity="1" fill-rule="nonzero"/><path fill="#91979a" d="M 82.65625 797.011719 L 82.65625 785.386719 L 83.273438 785.386719 L 83.273438 797.011719 C 83.273438 799.046875 82.316406 800.765625 81.027344 801.253906 C 81.027344 801.253906 80.996094 801.238281 80.988281 801.230469 C 81.949219 800.738281 82.65625 799.046875 82.65625 797.011719 Z M 82.65625 797.011719 " fill-opacity="1" fill-rule="nonzero"/><path fill="#91979a" d="M 78.710938 796.222656 C 78.710938 797.378906 78.910156 799.191406 79.214844 799.769531 C 79.277344 799.921875 79.414062 800.011719 79.496094 800.152344 C 79.542969 800.265625 79.582031 800.386719 79.640625 800.484375 C 79.167969 800.042969 78.820312 799.488281 78.726562 798.855469 C 78.515625 798.453125 78.371094 796.214844 78.371094 795.4375 L 78.371094 785.386719 L 78.710938 785.386719 Z M 78.710938 796.222656 " fill-opacity="1" fill-rule="nonzero"/><path fill="#808588" d="M 82.039062 785.386719 L 82.65625 785.386719 L 82.65625 797.011719 C 82.65625 799.046875 81.949219 800.738281 80.988281 801.230469 L 80.964844 801.230469 C 80.964844 801.230469 80.964844 801.222656 80.945312 801.222656 C 81.582031 800.699219 82.046875 799.03125 82.046875 797.019531 L 82.046875 785.394531 Z M 82.039062 785.386719 " fill-opacity="1" fill-rule="nonzero"/><path fill="#808588" d="M 78.710938 796.222656 L 78.710938 785.386719 L 79.03125 785.386719 L 79.03125 797.011719 C 79.03125 798.246094 79.214844 799.351562 79.496094 800.152344 C 79.414062 800.019531 79.277344 799.921875 79.214844 799.769531 C 78.910156 799.183594 78.710938 797.371094 78.710938 796.222656 Z M 78.710938 796.222656 " fill-opacity="1" fill-rule="nonzero"/><path fill="#6e7477" d="M 79.640625 800.484375 C 79.589844 800.378906 79.542969 800.265625 79.496094 800.152344 C 79.214844 799.359375 79.03125 798.253906 79.03125 797.011719 L 79.03125 785.386719 L 80.820312 785.386719 L 78.101562 717.128906 L 86.113281 717.128906 L 83.394531 785.386719 L 82.039062 785.386719 L 82.039062 797.011719 C 82.039062 799.03125 81.574219 800.691406 80.9375 801.210938 C 80.890625 801.203125 80.859375 801.171875 80.800781 801.164062 C 80.5625 801.085938 80.335938 800.972656 80.113281 800.859375 C 80.046875 800.828125 79.992188 800.804688 79.929688 800.78125 C 79.863281 800.746094 79.792969 800.730469 79.734375 800.699219 C 79.734375 800.699219 79.734375 800.691406 79.71875 800.691406 C 79.703125 800.691406 79.71875 800.691406 79.71875 800.691406 C 79.695312 800.660156 79.6875 800.601562 79.671875 800.5625 C 79.65625 800.554688 79.65625 800.523438 79.640625 800.5 Z M 79.640625 800.484375 " fill-opacity="1" fill-rule="nonzero"/><path fill="#e8ecee" d="M 101.492188 717.128906 L 102.992188 717.128906 L 88.8125 785.386719 L 88.203125 785.386719 L 101.09375 717.128906 Z M 101.492188 717.128906 " fill-opacity="1" fill-rule="nonzero"/><path fill="#e8ecee" d="M 62.71875 717.128906 L 63.121094 717.128906 L 76.007812 785.386719 L 75.398438 785.386719 L 61.21875 717.128906 Z M 62.71875 717.128906 " fill-opacity="1" fill-rule="nonzero"/><path fill="#dce0e4" d="M 99.992188 717.128906 L 101.09375 717.128906 L 88.203125 785.386719 L 87.59375 785.386719 L 99.191406 717.128906 Z M 99.992188 717.128906 " fill-opacity="1" fill-rule="nonzero"/><path fill="#dce0e4" d="M 63.832031 717.128906 L 65.027344 717.128906 L 76.625 785.386719 L 76.007812 785.386719 L 63.121094 717.128906 Z M 63.832031 717.128906 " fill-opacity="1" fill-rule="nonzero"/><path fill="#d0d5d9" d="M 97.46875 717.128906 L 99.191406 717.128906 L 87.59375 785.386719 L 86.984375 785.386719 L 97.289062 717.128906 Z M 97.46875 717.128906 " fill-opacity="1" fill-rule="nonzero"/><path fill="#d0d5d9" d="M 65.132812 717.128906 L 66.921875 717.128906 L 77.234375 785.386719 L 76.625 785.386719 L 65.027344 717.128906 Z M 65.132812 717.128906 " fill-opacity="1" fill-rule="nonzero"/><path fill="#c5cacf" d="M 67.226562 717.128906 L 68.835938 717.128906 L 77.84375 785.386719 L 77.234375 785.386719 L 66.921875 717.128906 Z M 67.226562 717.128906 " fill-opacity="1" fill-rule="nonzero"/><path fill="#c5cacf" d="M 95.382812 717.128906 L 97.289062 717.128906 L 86.984375 785.386719 L 86.375 785.386719 Z M 95.382812 717.128906 " fill-opacity="1" fill-rule="nonzero"/><path fill="#a5abaf" d="M 90.769531 717.128906 L 93.0625 717.128906 L 85.628906 785.386719 L 84.882812 785.386719 L 90.753906 717.128906 Z M 90.769531 717.128906 " fill-opacity="1" fill-rule="nonzero"/><path fill="#a5abaf" d="M 71.699219 717.128906 L 73.464844 717.128906 L 79.335938 785.386719 L 78.589844 785.386719 L 71.15625 717.128906 Z M 71.699219 717.128906 " fill-opacity="1" fill-rule="nonzero"/><path fill="#91979a" d="M 88.605469 717.128906 L 90.753906 717.128906 L 84.882812 785.386719 L 84.136719 785.386719 L 88.429688 717.128906 Z M 88.605469 717.128906 " fill-opacity="1" fill-rule="nonzero"/><path fill="#91979a" d="M 73.519531 717.128906 L 75.78125 717.128906 L 80.082031 785.386719 L 79.335938 785.386719 L 73.464844 717.128906 Z M 73.519531 717.128906 " fill-opacity="1" fill-rule="nonzero"/><path fill="#808588" d="M 75.925781 717.128906 L 78.101562 717.128906 L 80.820312 785.386719 L 80.082031 785.386719 L 75.78125 717.128906 Z M 75.925781 717.128906 " fill-opacity="1" fill-rule="nonzero"/><path fill="#808588" d="M 86.183594 717.128906 L 88.429688 717.128906 L 84.136719 785.386719 L 83.394531 785.386719 L 86.113281 717.128906 Z M 86.183594 717.128906 " fill-opacity="1" fill-rule="nonzero"/><path fill="#d0d5d9" d="M 102.664062 113.117188 L 104.5625 113.117188 L 104.5625 140.289062 L 102.664062 140.289062 Z M 102.664062 113.117188 " fill-opacity="1" fill-rule="nonzero"/><path fill="#d0d5d9" d="M 61.546875 140.289062 L 59.65625 140.289062 L 59.65625 113.117188 L 61.546875 113.117188 Z M 61.546875 140.289062 " fill-opacity="1" fill-rule="nonzero"/><path fill="#c8cdd1" d="M 101.492188 113.117188 L 102.664062 113.117188 L 102.664062 140.289062 L 100.769531 140.289062 L 100.769531 113.117188 Z M 101.492188 113.117188 " fill-opacity="1" fill-rule="nonzero"/><path fill="#c8cdd1" d="M 62.71875 140.289062 L 61.546875 140.289062 L 61.546875 113.117188 L 63.441406 113.117188 L 63.441406 140.289062 Z M 62.71875 140.289062 " fill-opacity="1" fill-rule="nonzero"/><path fill="#bfc4c9" d="M 99.992188 113.117188 L 100.769531 113.117188 L 100.769531 140.289062 L 98.886719 140.289062 L 98.886719 113.117188 Z M 99.992188 113.117188 " fill-opacity="1" fill-rule="nonzero"/><path fill="#bfc4c9" d="M 64.21875 140.289062 L 63.441406 140.289062 L 63.441406 113.117188 L 65.332031 113.117188 L 65.332031 140.289062 Z M 64.21875 140.289062 " fill-opacity="1" fill-rule="nonzero"/><path fill="#b6bbc2" d="M 98.492188 113.117188 L 98.886719 113.117188 L 98.886719 140.289062 L 96.992188 140.289062 L 96.992188 113.117188 Z M 98.492188 113.117188 " fill-opacity="1" fill-rule="nonzero"/><path fill="#b6bbc2" d="M 65.726562 140.289062 L 65.332031 140.289062 L 65.332031 113.117188 L 67.226562 113.117188 L 67.226562 140.289062 Z M 65.726562 140.289062 " fill-opacity="1" fill-rule="nonzero"/><path fill="#acb3b9" d="M 94.316406 113.117188 L 96.992188 113.117188 L 96.992188 140.289062 L 94.316406 140.289062 Z M 94.316406 113.117188 " fill-opacity="1" fill-rule="nonzero"/><path fill="#acb3b9" d="M 69.292969 140.289062 L 67.226562 140.289062 L 67.226562 113.117188 L 69.902344 113.117188 L 69.902344 140.289062 Z M 69.292969 140.289062 " fill-opacity="1" fill-rule="nonzero"/><path fill="#9ba1a8" d="M 92.839844 113.117188 L 94.316406 113.117188 L 94.316406 140.289062 L 91.636719 140.289062 L 91.636719 113.117188 Z M 92.839844 113.117188 " fill-opacity="1" fill-rule="nonzero"/><path fill="#9ba1a8" d="M 69.902344 113.117188 L 72.574219 113.117188 L 72.574219 140.289062 L 69.902344 140.289062 Z M 69.902344 113.117188 " fill-opacity="1" fill-rule="nonzero"/><path fill="#8b9097" d="M 90.769531 113.117188 L 91.636719 113.117188 L 91.636719 140.289062 L 88.957031 140.289062 L 88.957031 113.117188 Z M 90.769531 113.117188 " fill-opacity="1" fill-rule="nonzero"/><path fill="#8b9097" d="M 73.449219 113.117188 L 75.253906 113.117188 L 75.253906 140.289062 L 72.574219 140.289062 L 72.574219 113.117188 Z M 73.449219 113.117188 " fill-opacity="1" fill-rule="nonzero"/><path fill="#7c8188" d="M 88.703125 113.117188 L 88.957031 113.117188 L 88.957031 140.289062 L 86.289062 140.289062 L 86.289062 113.117188 Z M 88.703125 113.117188 " fill-opacity="1" fill-rule="nonzero"/><path fill="#7c8188" d="M 75.515625 113.117188 L 77.929688 113.117188 L 77.929688 140.289062 L 75.253906 140.289062 L 75.253906 113.117188 Z M 75.515625 113.117188 " fill-opacity="1" fill-rule="nonzero"/><path fill="#6d737a" d="M 86.289062 113.117188 L 77.921875 113.117188 L 77.921875 140.289062 L 86.289062 140.289062 Z M 86.289062 113.117188 " fill-opacity="1" fill-rule="nonzero"/><path fill="#6d737a" d="M 107.308594 117.3125 L 104.5625 117.3125 L 104.5625 135.054688 L 107.308594 135.054688 Z M 107.308594 117.3125 " fill-opacity="1" fill-rule="nonzero"/><path fill="#dae0e6" d="M 107.308594 109.996094 L 111.484375 109.996094 L 111.484375 289.652344 C 111.484375 293.046875 114.226562 295.789062 117.621094 295.789062 L 118.003906 295.757812 C 116.890625 297.03125 115.277344 297.882812 113.441406 297.882812 C 110.058594 297.882812 107.308594 295.132812 107.308594 291.738281 L 107.308594 109.980469 Z M 107.308594 109.996094 " fill-opacity="1" fill-rule="nonzero"/><path fill="#9da6ae" d="M 111.484375 289.660156 L 111.484375 110.003906 L 119.578125 110.003906 L 119.578125 291.761719 C 119.578125 292.15625 119.527344 292.550781 119.457031 292.917969 C 119.410156 293.183594 119.320312 293.433594 119.238281 293.679688 C 119.207031 293.785156 119.183594 293.871094 119.152344 293.96875 C 119.023438 294.289062 118.863281 294.59375 118.6875 294.898438 C 118.503906 295.203125 118.292969 295.5 118.054688 295.773438 L 118.003906 295.773438 C 118.003906 295.773438 117.621094 295.8125 117.621094 295.8125 C 114.226562 295.8125 111.484375 293.070312 111.484375 289.679688 Z M 111.484375 289.660156 " fill-opacity="1" fill-rule="nonzero"/><path fill="#6d9dc5" d="M 63.960938 83.816406 L 63.960938 83.09375 L 100.257812 83.09375 L 100.257812 88.8125 L 63.960938 88.8125 Z M 63.960938 83.816406 " fill-opacity="1" fill-rule="nonzero"/><path fill="#5f91b7" d="M 100.257812 88.8125 L 63.960938 88.8125 L 63.960938 91.949219 L 100.257812 91.949219 Z M 100.257812 88.8125 " fill-opacity="1" fill-rule="nonzero"/><path fill="#5284a8" d="M 99.078125 95.375 L 63.960938 95.375 L 63.960938 91.949219 L 100.257812 91.949219 L 100.257812 95.375 Z M 99.078125 95.375 " fill-opacity="1" fill-rule="nonzero"/><path fill="#c8cdd1" d="M 92.285156 83.09375 L 88.703125 83.09375 L 88.703125 57.917969 L 94.636719 57.917969 L 94.636719 83.09375 Z M 92.285156 83.09375 " fill-opacity="1" fill-rule="nonzero"/><path fill="#c8cdd1" d="M 71.925781 57.917969 L 75.515625 57.917969 L 75.515625 83.09375 L 69.574219 83.09375 L 69.574219 57.917969 Z M 71.925781 57.917969 " fill-opacity="1" fill-rule="nonzero"/><path fill="#aeb3b9" d="M 88.703125 57.917969 L 87.457031 57.917969 L 87.457031 83.101562 L 88.703125 83.101562 Z M 88.703125 57.917969 " fill-opacity="1" fill-rule="nonzero"/><path fill="#aeb3b9" d="M 76.753906 57.917969 L 75.507812 57.917969 L 75.507812 83.101562 L 76.753906 83.101562 Z M 76.753906 57.917969 " fill-opacity="1" fill-rule="nonzero"/><path fill="#979ca2" d="M 87.457031 57.917969 L 86.214844 57.917969 L 86.214844 83.101562 L 87.457031 83.101562 Z M 87.457031 57.917969 " fill-opacity="1" fill-rule="nonzero"/><path fill="#979ca2" d="M 77.996094 57.917969 L 76.753906 57.917969 L 76.753906 83.101562 L 77.996094 83.101562 Z M 77.996094 57.917969 " fill-opacity="1" fill-rule="nonzero"/><path fill="#81868c" d="M 79.230469 57.917969 L 77.996094 57.917969 L 77.996094 83.101562 L 79.230469 83.101562 Z M 79.230469 57.917969 " fill-opacity="1" fill-rule="nonzero"/><path fill="#81868c" d="M 86.214844 57.917969 L 84.972656 57.917969 L 84.972656 83.101562 L 86.214844 83.101562 Z M 86.214844 57.917969 " fill-opacity="1" fill-rule="nonzero"/><path fill="#9ba1a8" d="M 67.226562 55.414062 L 67.226562 51.820312 L 96.992188 51.820312 L 96.992188 55.414062 Z M 67.226562 55.414062 " fill-opacity="1" fill-rule="nonzero"/><path fill="#c8cdd1" d="M 96.992188 50.191406 L 67.226562 50.191406 L 67.226562 51.820312 L 96.992188 51.820312 Z M 96.992188 50.191406 " fill-opacity="1" fill-rule="nonzero"/><path fill="#6d737a" d="M 92.285156 57.917969 L 84.980469 57.917969 L 84.980469 83.09375 L 79.230469 83.09375 L 79.230469 57.917969 L 69.574219 57.917969 L 69.574219 55.414062 L 94.636719 55.414062 L 94.636719 57.917969 Z M 92.285156 57.917969 " fill-opacity="1" fill-rule="nonzero"/><path fill="#f7f8f8" d="M 757.675781 64.117188 C 752.703125 64.117188 748.667969 68.152344 748.667969 73.125 C 748.667969 78.097656 752.703125 82.140625 757.675781 82.140625 C 760.371094 82.140625 762.75 80.929688 764.410156 79.058594 L 777.585938 79.058594 L 777.585938 105.617188 L 764.410156 105.617188 C 762.75 103.730469 760.371094 102.527344 757.675781 102.527344 C 752.703125 102.527344 748.667969 106.5625 748.667969 111.535156 C 748.667969 116.507812 752.703125 120.542969 757.675781 120.542969 C 760.371094 120.542969 762.75 119.339844 764.410156 117.472656 L 777.585938 117.472656 L 777.585938 144.027344 L 764.410156 144.027344 C 762.75 142.160156 760.371094 140.941406 757.675781 140.941406 C 752.703125 140.941406 748.667969 144.972656 748.667969 149.964844 C 748.667969 154.953125 752.703125 158.972656 757.675781 158.972656 C 760.371094 158.972656 762.75 157.757812 764.410156 155.882812 L 777.585938 155.882812 L 777.585938 182.421875 L 764.410156 182.421875 C 762.75 180.546875 760.371094 179.34375 757.675781 179.34375 C 752.703125 179.34375 748.667969 183.378906 748.667969 188.359375 C 748.667969 193.339844 752.703125 197.367188 757.675781 197.367188 C 760.371094 197.367188 762.75 196.164062 764.410156 194.292969 L 777.585938 194.292969 L 777.585938 220.84375 L 764.410156 220.84375 C 762.75 218.972656 760.371094 217.753906 757.675781 217.753906 C 752.703125 217.753906 748.667969 221.789062 748.667969 226.761719 C 748.667969 231.734375 752.703125 235.777344 757.675781 235.777344 C 760.371094 235.777344 762.75 234.574219 764.410156 232.699219 L 777.585938 232.699219 L 777.585938 259.253906 L 764.410156 259.253906 C 762.75 257.378906 760.371094 256.183594 757.675781 256.183594 C 752.703125 256.183594 748.667969 260.210938 748.667969 265.183594 C 748.667969 270.15625 752.703125 274.199219 757.675781 274.199219 C 760.371094 274.199219 762.75 272.988281 764.410156 271.117188 L 777.585938 271.117188 L 777.585938 297.675781 L 764.410156 297.675781 C 762.75 295.804688 760.371094 294.585938 757.675781 294.585938 C 752.703125 294.585938 748.667969 298.621094 748.667969 303.601562 C 748.667969 308.582031 752.703125 312.609375 757.675781 312.609375 C 760.371094 312.609375 762.75 311.398438 764.410156 309.519531 L 777.585938 309.519531 L 777.585938 336.0625 L 764.410156 336.0625 C 762.75 334.203125 760.371094 332.992188 757.675781 332.992188 C 752.703125 332.992188 748.667969 337.023438 748.667969 342.003906 C 748.667969 346.988281 752.703125 351.011719 757.675781 351.011719 C 760.371094 351.011719 762.75 349.808594 764.410156 347.941406 L 777.585938 347.941406 L 777.585938 374.496094 L 764.410156 374.496094 C 762.75 372.621094 760.371094 371.410156 757.675781 371.410156 C 752.703125 371.410156 748.667969 375.445312 748.667969 380.433594 C 748.667969 385.421875 752.703125 389.433594 757.675781 389.433594 C 760.371094 389.433594 762.75 388.230469 764.402344 386.359375 L 777.585938 386.359375 L 777.585938 412.910156 L 764.410156 412.910156 C 762.75 411.039062 760.371094 409.828125 757.675781 409.828125 C 752.703125 409.828125 748.667969 413.855469 748.667969 418.835938 C 748.667969 423.816406 752.703125 427.835938 757.675781 427.835938 C 760.371094 427.835938 762.75 426.632812 764.410156 424.757812 L 777.585938 424.757812 L 777.585938 451.3125 L 764.410156 451.3125 C 762.75 449.4375 760.371094 448.234375 757.675781 448.234375 C 752.703125 448.234375 748.667969 452.257812 748.667969 457.242188 C 748.667969 462.222656 752.703125 466.253906 757.675781 466.253906 C 760.371094 466.253906 762.75 465.042969 764.410156 463.160156 L 777.585938 463.160156 L 777.585938 489.707031 L 764.410156 489.707031 C 762.75 487.847656 760.371094 486.628906 757.675781 486.628906 C 752.703125 486.628906 748.667969 490.664062 748.667969 495.636719 C 748.667969 500.609375 752.703125 504.644531 757.675781 504.644531 C 760.371094 504.644531 762.75 503.457031 764.410156 501.578125 L 777.585938 501.578125 L 777.585938 528.121094 L 764.410156 528.121094 C 762.75 526.25 760.371094 525.03125 757.675781 525.03125 C 752.703125 525.03125 748.667969 529.074219 748.667969 534.054688 C 748.667969 539.035156 752.703125 543.0625 757.675781 543.0625 C 760.371094 543.0625 762.75 541.851562 764.402344 539.976562 L 777.585938 539.976562 L 777.585938 566.53125 L 764.410156 566.53125 C 762.75 564.65625 760.371094 563.460938 757.675781 563.460938 C 752.703125 563.460938 748.667969 567.488281 748.667969 572.46875 C 748.667969 577.449219 752.703125 581.464844 757.675781 581.464844 C 760.371094 581.464844 762.75 580.273438 764.402344 578.394531 L 777.585938 578.394531 L 777.585938 604.945312 L 764.410156 604.945312 C 762.75 603.074219 760.371094 601.863281 757.675781 601.863281 C 752.703125 601.863281 748.667969 605.890625 748.667969 610.871094 C 748.667969 615.851562 752.703125 619.886719 757.675781 619.886719 C 760.371094 619.886719 762.75 618.683594 764.410156 616.789062 L 777.585938 616.789062 L 777.585938 643.347656 L 764.410156 643.347656 C 762.75 641.476562 760.371094 640.265625 757.675781 640.265625 C 752.703125 640.265625 748.667969 644.292969 748.667969 649.273438 C 748.667969 654.253906 752.703125 658.289062 757.675781 658.289062 C 760.371094 658.289062 762.75 657.078125 764.410156 655.210938 L 777.585938 655.210938 L 777.585938 681.75 L 764.402344 681.75 C 762.75 679.882812 760.371094 678.671875 757.675781 678.671875 C 752.703125 678.671875 748.667969 682.6875 748.667969 687.679688 C 748.667969 692.667969 752.703125 696.683594 757.675781 696.683594 C 760.371094 696.683594 762.75 695.472656 764.410156 693.613281 L 777.585938 693.613281 L 777.585938 720.152344 L 764.410156 720.152344 C 762.75 718.285156 760.371094 717.082031 757.675781 717.082031 C 752.703125 717.082031 748.667969 721.117188 748.667969 726.089844 C 748.667969 731.0625 752.703125 735.097656 757.675781 735.097656 C 760.371094 735.097656 762.75 733.894531 764.402344 732.023438 L 777.585938 732.023438 L 777.585938 758.566406 L 764.410156 758.566406 C 762.75 756.6875 760.371094 755.492188 757.675781 755.492188 C 752.703125 755.492188 748.667969 759.511719 748.667969 764.5 C 748.667969 769.488281 752.703125 773.507812 757.675781 773.507812 C 760.371094 773.507812 762.75 772.304688 764.410156 770.421875 L 777.585938 770.421875 L 777.585938 796.96875 L 764.410156 796.96875 C 762.75 795.101562 760.371094 793.890625 757.675781 793.890625 C 752.703125 793.890625 748.667969 797.914062 748.667969 802.898438 C 748.667969 807.878906 752.703125 811.914062 757.675781 811.914062 C 760.371094 811.914062 762.75 810.710938 764.410156 808.839844 L 777.585938 808.839844 L 777.585938 835.382812 L 764.410156 835.382812 C 762.75 833.511719 760.371094 832.292969 757.675781 832.292969 C 752.703125 832.292969 748.667969 836.328125 748.667969 841.308594 C 748.667969 846.289062 752.703125 850.324219 757.675781 850.324219 C 760.371094 850.324219 762.75 849.105469 764.410156 847.242188 L 777.585938 847.242188 L 777.585938 881.089844 L 144.261719 881.089844 C 141.117188 881.089844 138.574219 878.539062 138.574219 875.40625 L 138.574219 50.371094 C 138.574219 47.226562 141.117188 44.683594 144.261719 44.683594 L 777.585938 44.683594 L 777.585938 67.203125 L 764.402344 67.203125 C 762.75 65.335938 760.371094 64.117188 757.675781 64.117188 Z M 730.183594 119.125 L 191.664062 119.125 L 191.664062 121.964844 L 730.183594 121.964844 Z M 730.183594 162.742188 L 191.664062 162.742188 L 191.664062 165.578125 L 730.183594 165.578125 Z M 730.183594 206.351562 L 191.664062 206.351562 L 191.664062 209.1875 L 730.183594 209.1875 Z M 730.183594 249.96875 L 191.664062 249.96875 L 191.664062 252.804688 L 730.183594 252.804688 Z M 730.183594 293.585938 L 191.664062 293.585938 L 191.664062 296.421875 L 730.183594 296.421875 Z M 730.183594 337.191406 L 191.664062 337.191406 L 191.664062 340.03125 L 730.183594 340.03125 Z M 730.183594 380.816406 L 191.664062 380.816406 L 191.664062 383.648438 L 730.183594 383.648438 Z M 730.183594 424.417969 L 191.664062 424.417969 L 191.664062 427.265625 L 730.183594 427.265625 Z M 730.183594 468.027344 L 191.664062 468.027344 L 191.664062 470.875 L 730.183594 470.875 Z M 730.183594 511.652344 L 191.664062 511.652344 L 191.664062 514.507812 L 730.183594 514.507812 Z M 730.183594 555.269531 L 191.664062 555.269531 L 191.664062 558.125 L 730.183594 558.125 Z M 730.183594 598.878906 L 191.664062 598.878906 L 191.664062 601.71875 L 730.183594 601.71875 Z M 730.183594 642.503906 L 191.664062 642.503906 L 191.664062 645.34375 L 730.183594 645.34375 Z M 730.183594 686.113281 L 191.664062 686.113281 L 191.664062 688.953125 L 730.183594 688.953125 Z M 730.183594 729.730469 L 191.664062 729.730469 L 191.664062 732.5625 L 730.183594 732.5625 Z M 730.183594 773.339844 L 191.664062 773.339844 L 191.664062 776.1875 L 730.183594 776.1875 Z M 730.183594 816.964844 L 191.664062 816.964844 L 191.664062 819.804688 L 730.183594 819.804688 Z M 730.183594 816.964844 " fill-opacity="1" fill-rule="nonzero"/><path fill="#f7f8f8" d="M 730.183594 119.125 L 191.664062 119.125 L 191.664062 121.964844 L 730.183594 121.964844 Z M 730.183594 119.125 " fill-opacity="1" fill-rule="nonzero"/><path fill="#f7f8f8" d="M 730.183594 162.742188 L 191.664062 162.742188 L 191.664062 165.578125 L 730.183594 165.578125 Z M 730.183594 162.742188 " fill-opacity="1" fill-rule="nonzero"/><path fill="#f7f8f8" d="M 730.183594 206.351562 L 191.664062 206.351562 L 191.664062 209.1875 L 730.183594 209.1875 Z M 730.183594 206.351562 " fill-opacity="1" fill-rule="nonzero"/><path fill="#f7f8f8" d="M 730.183594 249.96875 L 191.664062 249.96875 L 191.664062 252.804688 L 730.183594 252.804688 Z M 730.183594 249.96875 " fill-opacity="1" fill-rule="nonzero"/><path fill="#f7f8f8" d="M 730.183594 293.585938 L 191.664062 293.585938 L 191.664062 296.421875 L 730.183594 296.421875 Z M 730.183594 293.585938 " fill-opacity="1" fill-rule="nonzero"/><path fill="#f7f8f8" d="M 730.183594 337.191406 L 191.664062 337.191406 L 191.664062 340.03125 L 730.183594 340.03125 Z M 730.183594 337.191406 " fill-opacity="1" fill-rule="nonzero"/><path fill="#f7f8f8" d="M 730.183594 380.816406 L 191.664062 380.816406 L 191.664062 383.648438 L 730.183594 383.648438 Z M 730.183594 380.816406 " fill-opacity="1" fill-rule="nonzero"/><path fill="#f7f8f8" d="M 730.183594 424.417969 L 191.664062 424.417969 L 191.664062 427.265625 L 730.183594 427.265625 Z M 730.183594 424.417969 " fill-opacity="1" fill-rule="nonzero"/><path fill="#f7f8f8" d="M 730.183594 468.027344 L 191.664062 468.027344 L 191.664062 470.875 L 730.183594 470.875 Z M 730.183594 468.027344 " fill-opacity="1" fill-rule="nonzero"/><path fill="#f7f8f8" d="M 730.183594 511.652344 L 191.664062 511.652344 L 191.664062 514.507812 L 730.183594 514.507812 Z M 730.183594 511.652344 " fill-opacity="1" fill-rule="nonzero"/><path fill="#f7f8f8" d="M 730.183594 555.269531 L 191.664062 555.269531 L 191.664062 558.125 L 730.183594 558.125 Z M 730.183594 555.269531 " fill-opacity="1" fill-rule="nonzero"/><path fill="#f7f8f8" d="M 730.183594 598.878906 L 191.664062 598.878906 L 191.664062 601.71875 L 730.183594 601.71875 Z M 730.183594 598.878906 " fill-opacity="1" fill-rule="nonzero"/><path fill="#f7f8f8" d="M 730.183594 642.503906 L 191.664062 642.503906 L 191.664062 645.34375 L 730.183594 645.34375 Z M 730.183594 642.503906 " fill-opacity="1" fill-rule="nonzero"/><path fill="#f7f8f8" d="M 730.183594 686.113281 L 191.664062 686.113281 L 191.664062 688.953125 L 730.183594 688.953125 Z M 730.183594 686.113281 " fill-opacity="1" fill-rule="nonzero"/><path fill="#f7f8f8" d="M 730.183594 729.730469 L 191.664062 729.730469 L 191.664062 732.5625 L 730.183594 732.5625 Z M 730.183594 729.730469 " fill-opacity="1" fill-rule="nonzero"/><path fill="#f7f8f8" d="M 730.183594 773.339844 L 191.664062 773.339844 L 191.664062 776.1875 L 730.183594 776.1875 Z M 730.183594 773.339844 " fill-opacity="1" fill-rule="nonzero"/><path fill="#262a2f" d="M 112.320312 560.445312 L 117.804688 560.445312 L 117.804688 307.851562 L 123.296875 307.851562 L 123.296875 560.460938 L 112.320312 560.460938 Z M 112.320312 560.445312 " fill-opacity="1" fill-rule="nonzero"/><path fill="#262a2f" d="M 63.464844 560.445312 L 63.464844 560.460938 L 52.476562 560.460938 L 52.476562 307.851562 L 57.972656 307.851562 L 57.972656 560.445312 Z M 63.464844 560.445312 " fill-opacity="1" fill-rule="nonzero"/><path fill="#30353a" d="M 62.71875 307.851562 L 72.519531 307.851562 L 63.464844 307.851562 L 63.464844 560.445312 L 57.972656 560.445312 L 57.972656 307.851562 Z M 62.71875 307.851562 " fill-opacity="1" fill-rule="nonzero"/><path fill="#30353a" d="M 112.320312 560.445312 L 112.320312 307.851562 L 103.257812 307.851562 L 117.804688 307.851562 L 117.804688 560.445312 Z M 112.320312 560.445312 " fill-opacity="1" fill-rule="nonzero"/><path fill="#393f44" d="M 112.320312 307.851562 L 112.320312 560.460938 L 106.816406 560.460938 L 106.816406 307.851562 Z M 112.320312 307.851562 " fill-opacity="1" fill-rule="nonzero"/><path fill="#393f44" d="M 67.226562 560.460938 L 63.464844 560.460938 L 63.464844 307.851562 L 68.957031 307.851562 L 68.957031 560.460938 Z M 67.226562 560.460938 " fill-opacity="1" fill-rule="nonzero"/><path fill="#42494f" d="M 99.992188 560.460938 L 99.695312 560.460938 L 99.695312 560.445312 L 103.257812 560.445312 L 103.257812 307.851562 L 106.816406 307.851562 L 106.816406 560.460938 Z M 99.992188 560.460938 " fill-opacity="1" fill-rule="nonzero"/><path fill="#42494f" d="M 75.515625 560.460938 L 68.957031 560.460938 L 68.957031 307.851562 L 72.519531 307.851562 L 72.519531 560.445312 L 76.085938 560.445312 L 76.085938 560.460938 Z M 75.515625 560.460938 " fill-opacity="1" fill-rule="nonzero"/><path fill="#51585e" d="M 103.257812 560.445312 L 99.695312 560.445312 L 99.695312 307.851562 L 76.085938 307.851562 L 76.085938 560.445312 L 72.519531 560.445312 L 72.519531 307.851562 L 103.257812 307.851562 Z M 103.257812 560.445312 " fill-opacity="1" fill-rule="nonzero"/><path fill="#60686e" d="M 98.492188 560.460938 L 96.128906 560.460938 L 96.128906 307.851562 L 99.695312 307.851562 L 99.695312 560.460938 Z M 98.492188 560.460938 " fill-opacity="1" fill-rule="nonzero"/><path fill="#60686e" d="M 76.085938 560.460938 L 76.085938 307.851562 L 79.648438 307.851562 L 79.648438 560.460938 Z M 76.085938 560.460938 " fill-opacity="1" fill-rule="nonzero"/><path fill="#707a7f" d="M 94.917969 560.460938 L 79.648438 560.460938 L 79.648438 307.851562 L 96.128906 307.851562 L 96.128906 560.460938 Z M 94.917969 560.460938 " fill-opacity="1" fill-rule="nonzero"/></svg>