<svg xmlns="http://www.w3.org/2000/svg" xmlns:xlink="http://www.w3.org/1999/xlink" width="960" zoomAndPan="magnify" viewBox="0 0 720 809.999993" height="1080" preserveAspectRatio="xMidYMid meet" version="1.0"><defs><clipPath id="91adadd2fe"><path d="M 0 0 L 719.796875 0 L 719.796875 810 L 0 810 Z M 0 0 " clip-rule="nonzero"/></clipPath></defs><g clip-path="url(#91adadd2fe)"><path fill="#1b1b1e" d="M -779.933594 20.988281 C -779.933594 8.414062 -769.738281 -1.78125 -757.171875 -1.78125 L -10.347656 -1.78125 C -9.839844 -2.09375 -9.304688 -2.367188 -8.773438 -2.648438 C -8.597656 -2.738281 -8.4375 -2.855469 -8.269531 -2.9375 C -8.246094 -2.960938 -8.222656 -2.960938 -8.1875 -2.976562 C -7.355469 -3.386719 -6.496094 -3.746094 -5.613281 -4.058594 C -5.589844 -4.058594 -5.574219 -4.085938 -5.550781 -4.085938 C -5.550781 -4.085938 -5.527344 -4.085938 -5.527344 -4.101562 C -4.714844 -4.363281 -3.898438 -4.605469 -3.054688 -4.78125 C -2.984375 -4.804688 -2.914062 -4.839844 -2.847656 -4.855469 C -2.132812 -5 -1.414062 -5.109375 -0.683594 -5.191406 C -0.625 -5.207031 -0.585938 -5.222656 -0.539062 -5.222656 C 0.246094 -5.304688 1.035156 -5.351562 1.835938 -5.351562 L 7.519531 -5.351562 C 8.316406 -5.351562 9.101562 -5.304688 9.878906 -5.222656 C 9.933594 -5.222656 9.976562 -5.199219 10.023438 -5.191406 C 10.761719 -5.117188 11.484375 -5 12.1875 -4.855469 C 12.269531 -4.839844 12.339844 -4.789062 12.421875 -4.78125 C 13.214844 -4.605469 13.984375 -4.382812 14.738281 -4.125 C 14.796875 -4.109375 14.851562 -4.101562 14.890625 -4.09375 C 14.890625 -4.09375 14.90625 -4.074219 14.90625 -4.066406 C 15.828125 -3.761719 16.726562 -3.386719 17.585938 -2.960938 C 17.59375 -2.953125 17.601562 -2.9375 17.601562 -2.9375 C 17.648438 -2.914062 17.691406 -2.882812 17.738281 -2.855469 C 18.410156 -2.519531 19.054688 -2.167969 19.6875 -1.773438 L 698.257812 -1.773438 C 710.824219 -1.773438 721.019531 8.414062 721.019531 20.996094 L 721.019531 904.746094 C 721.019531 917.3125 710.835938 927.5 698.257812 927.5 L 19.6875 927.5 C 19.019531 927.925781 18.324219 928.308594 17.617188 928.671875 L 17.601562 928.671875 C 17.601562 928.671875 17.601562 928.6875 17.59375 928.6875 C 15.894531 929.523438 14.097656 930.164062 12.195312 930.5625 C 11.507812 930.714844 10.800781 930.820312 10.085938 930.902344 C 10.023438 930.917969 9.949219 930.933594 9.878906 930.933594 C 9.101562 931.011719 8.316406 931.0625 7.519531 931.0625 L 1.835938 931.0625 C 1.035156 931.0625 0.246094 931.011719 -0.53125 930.933594 C -0.601562 930.933594 -0.667969 930.910156 -0.738281 930.902344 C -1.445312 930.820312 -2.152344 930.726562 -2.839844 930.5625 C -3.753906 930.386719 -4.636719 930.113281 -5.519531 929.816406 C -5.519531 929.800781 -5.542969 929.800781 -5.542969 929.800781 C -5.566406 929.800781 -5.582031 929.792969 -5.605469 929.792969 C -6.511719 929.464844 -7.394531 929.105469 -8.246094 928.679688 C -8.246094 928.679688 -8.261719 928.679688 -8.261719 928.664062 C -8.976562 928.300781 -9.664062 927.917969 -10.339844 927.492188 L -757.164062 927.492188 C -769.730469 927.492188 -779.925781 917.304688 -779.925781 904.738281 L -779.925781 20.988281 Z M -779.933594 20.988281 " fill-opacity="1" fill-rule="nonzero"/></g><path fill="#35393e" d="M 299.046875 10.480469 L 680.472656 10.480469 C 692.710938 10.480469 702.628906 20.402344 702.628906 32.644531 L 702.628906 893.074219 C 702.628906 905.296875 692.710938 915.238281 680.472656 915.238281 L 299.046875 915.238281 L 299.046875 881.035156 L 640.300781 881.035156 C 643.4375 881.035156 645.996094 878.484375 645.996094 875.347656 L 645.996094 50.367188 C 645.996094 47.226562 643.445312 44.683594 640.300781 44.683594 L 30.273438 44.683594 L 30.273438 17.417969 C 30.273438 15.003906 29.878906 12.671875 29.191406 10.480469 Z M 299.046875 10.480469 " fill-opacity="1" fill-rule="nonzero"/><path fill="#bfc5cd" d="M 30.273438 44.683594 L 23.121094 44.683594 L 23.121094 0.890625 C 23.601562 1.339844 24.066406 1.820312 24.507812 2.316406 C 24.507812 2.324219 24.515625 2.324219 24.515625 2.339844 C 26.589844 4.675781 28.203125 7.433594 29.183594 10.480469 C 29.878906 12.671875 30.265625 15.003906 30.265625 17.417969 L 30.265625 44.683594 Z M 30.273438 44.683594 " fill-opacity="1" fill-rule="nonzero"/><path fill="#afb7bf" d="M 21.714844 44.683594 L 21.714844 -0.347656 C 22.195312 0.046875 22.660156 0.464844 23.121094 0.890625 L 23.121094 44.683594 Z M 21.714844 44.683594 " fill-opacity="1" fill-rule="nonzero"/><path fill="#a1a8b1" d="M 20.320312 44.683594 L 20.320312 -1.398438 C 20.785156 -1.066406 21.226562 -0.722656 21.683594 -0.363281 C 21.699219 -0.363281 21.714844 -0.355469 21.722656 -0.339844 L 21.722656 44.691406 L 20.328125 44.691406 Z M 20.320312 44.683594 " fill-opacity="1" fill-rule="nonzero"/><path fill="#929aa3" d="M 20.320312 -1.398438 L 20.320312 44.683594 L 17.609375 44.683594 L 17.609375 -2.945312 C 17.65625 -2.921875 17.699219 -2.890625 17.746094 -2.863281 C 18.507812 -2.488281 19.230469 -2.0625 19.933594 -1.613281 C 20.0625 -1.535156 20.191406 -1.476562 20.320312 -1.40625 Z M 20.320312 -1.398438 " fill-opacity="1" fill-rule="nonzero"/><path fill="#7e858d" d="M 14.898438 44.683594 L 14.898438 -4.09375 C 14.898438 -4.09375 14.914062 -4.074219 14.914062 -4.066406 C 15.835938 -3.761719 16.734375 -3.386719 17.59375 -2.960938 C 17.601562 -2.953125 17.609375 -2.9375 17.609375 -2.9375 L 17.609375 44.691406 L 14.898438 44.691406 Z M 14.898438 44.683594 " fill-opacity="1" fill-rule="nonzero"/><path fill="#6b737b" d="M 12.195312 44.683594 L 12.195312 -4.847656 C 12.277344 -4.832031 12.347656 -4.78125 12.429688 -4.773438 C 13.222656 -4.597656 13.992188 -4.371094 14.746094 -4.117188 C 14.804688 -4.101562 14.859375 -4.09375 14.898438 -4.085938 L 14.898438 44.691406 L 12.195312 44.691406 Z M 12.195312 44.683594 " fill-opacity="1" fill-rule="nonzero"/><path fill="#586168" d="M 6.984375 44.683594 L 6.984375 67.203125 L -2.496094 67.203125 L -2.496094 44.683594 L -2.847656 44.683594 L -2.847656 -4.847656 C -2.132812 -4.992188 -1.414062 -5.101562 -0.683594 -5.183594 C -0.625 -5.199219 -0.585938 -5.214844 -0.539062 -5.214844 C 0.246094 -5.296875 1.035156 -5.34375 1.835938 -5.34375 L 7.519531 -5.34375 C 8.316406 -5.34375 9.101562 -5.296875 9.878906 -5.214844 C 9.933594 -5.214844 9.976562 -5.191406 10.023438 -5.183594 C 10.761719 -5.109375 11.484375 -4.992188 12.1875 -4.847656 L 12.1875 44.683594 L 6.976562 44.683594 Z M 6.984375 44.683594 " fill-opacity="1" fill-rule="nonzero"/><path fill="#586168" d="M 6.984375 731.96875 L -2.496094 731.96875 L -2.496094 758.511719 L 6.984375 758.511719 Z M 6.984375 731.96875 " fill-opacity="1" fill-rule="nonzero"/><path fill="#586168" d="M 6.984375 271.085938 L -2.496094 271.085938 L -2.496094 297.640625 L 6.984375 297.640625 Z M 6.984375 271.085938 " fill-opacity="1" fill-rule="nonzero"/><path fill="#586168" d="M 6.984375 693.566406 L -2.496094 693.566406 L -2.496094 720.105469 L 6.984375 720.105469 Z M 6.984375 693.566406 " fill-opacity="1" fill-rule="nonzero"/><path fill="#586168" d="M 6.984375 539.925781 L -2.496094 539.925781 L -2.496094 566.484375 L 6.984375 566.484375 Z M 6.984375 539.925781 " fill-opacity="1" fill-rule="nonzero"/><path fill="#586168" d="M 6.984375 232.675781 L -2.496094 232.675781 L -2.496094 259.230469 L 6.984375 259.230469 Z M 6.984375 232.675781 " fill-opacity="1" fill-rule="nonzero"/><path fill="#586168" d="M 6.984375 194.277344 L -2.496094 194.277344 L -2.496094 220.828125 L 6.984375 220.828125 Z M 6.984375 194.277344 " fill-opacity="1" fill-rule="nonzero"/><path fill="#586168" d="M 6.984375 347.902344 L -2.496094 347.902344 L -2.496094 374.457031 L 6.984375 374.457031 Z M 6.984375 347.902344 " fill-opacity="1" fill-rule="nonzero"/><path fill="#586168" d="M 6.984375 309.488281 L -2.496094 309.488281 L -2.496094 336.03125 L 6.984375 336.03125 Z M 6.984375 309.488281 " fill-opacity="1" fill-rule="nonzero"/><path fill="#586168" d="M 6.984375 155.867188 L -2.496094 155.867188 L -2.496094 182.40625 L 6.984375 182.40625 Z M 6.984375 155.867188 " fill-opacity="1" fill-rule="nonzero"/><path fill="#586168" d="M 6.984375 117.464844 L -2.496094 117.464844 L -2.496094 144.019531 L 6.984375 144.019531 Z M 6.984375 117.464844 " fill-opacity="1" fill-rule="nonzero"/><path fill="#586168" d="M 6.984375 424.707031 L -2.496094 424.707031 L -2.496094 451.265625 L 6.984375 451.265625 Z M 6.984375 424.707031 " fill-opacity="1" fill-rule="nonzero"/><path fill="#586168" d="M 6.984375 79.050781 L -2.496094 79.050781 L -2.496094 105.609375 L 6.984375 105.609375 Z M 6.984375 79.050781 " fill-opacity="1" fill-rule="nonzero"/><path fill="#586168" d="M 6.984375 770.363281 L -2.496094 770.363281 L -2.496094 796.914062 L 6.984375 796.914062 Z M 6.984375 770.363281 " fill-opacity="1" fill-rule="nonzero"/><path fill="#586168" d="M 6.984375 386.304688 L -2.496094 386.304688 L -2.496094 412.851562 L 6.984375 412.851562 Z M 6.984375 386.304688 " fill-opacity="1" fill-rule="nonzero"/><path fill="#586168" d="M 6.984375 808.785156 L -2.496094 808.785156 L -2.496094 835.324219 L 6.984375 835.324219 Z M 6.984375 808.785156 " fill-opacity="1" fill-rule="nonzero"/><path fill="#586168" d="M 6.984375 616.734375 L -2.496094 616.734375 L -2.496094 643.292969 L 6.984375 643.292969 Z M 6.984375 616.734375 " fill-opacity="1" fill-rule="nonzero"/><path fill="#586168" d="M 6.984375 463.113281 L -2.496094 463.113281 L -2.496094 489.660156 L 6.984375 489.660156 Z M 6.984375 463.113281 " fill-opacity="1" fill-rule="nonzero"/><path fill="#586168" d="M 6.984375 501.53125 L -2.496094 501.53125 L -2.496094 528.070312 L 6.984375 528.070312 Z M 6.984375 501.53125 " fill-opacity="1" fill-rule="nonzero"/><path fill="#586168" d="M 6.984375 655.160156 L -2.496094 655.160156 L -2.496094 681.703125 L 6.984375 681.703125 Z M 6.984375 655.160156 " fill-opacity="1" fill-rule="nonzero"/><path fill="#586168" d="M 6.984375 578.339844 L -2.496094 578.339844 L -2.496094 604.886719 L 6.984375 604.886719 Z M 6.984375 578.339844 " fill-opacity="1" fill-rule="nonzero"/><path fill="#f7f8f8" d="M 645.996094 50.367188 L 645.996094 875.347656 C 645.996094 878.476562 643.445312 881.035156 640.300781 881.035156 L 349.945312 881.035156 L 349.945312 819.8125 L 592.898438 819.8125 L 592.898438 816.972656 L 349.957031 816.972656 L 349.957031 776.195312 L 592.898438 776.195312 L 592.898438 773.347656 L 349.957031 773.347656 L 349.957031 732.570312 L 592.898438 732.570312 L 592.898438 729.738281 L 349.957031 729.738281 L 349.957031 688.960938 L 592.898438 688.960938 L 592.898438 686.121094 L 349.957031 686.121094 L 349.957031 645.351562 L 592.898438 645.351562 L 592.898438 642.511719 L 349.957031 642.511719 L 349.957031 601.734375 L 592.898438 601.734375 L 592.898438 598.894531 L 349.957031 598.894531 L 349.957031 558.132812 L 592.898438 558.132812 L 592.898438 555.277344 L 349.957031 555.277344 L 349.957031 514.523438 L 592.898438 514.523438 L 592.898438 511.667969 L 349.957031 511.667969 L 349.957031 470.890625 L 592.898438 470.890625 L 592.898438 468.042969 L 349.957031 468.042969 L 349.957031 427.28125 L 592.898438 427.28125 L 592.898438 424.433594 L 349.957031 424.433594 L 349.957031 383.664062 L 592.898438 383.664062 L 592.898438 380.835938 L 349.957031 380.835938 L 349.957031 340.046875 L 592.898438 340.046875 L 592.898438 337.210938 L 349.957031 337.210938 L 349.957031 296.4375 L 592.898438 296.4375 L 592.898438 293.601562 L 349.957031 293.601562 L 349.957031 252.832031 L 592.898438 252.832031 L 592.898438 249.992188 L 349.957031 249.992188 L 349.957031 209.214844 L 592.898438 209.214844 L 592.898438 206.375 L 349.957031 206.375 L 349.957031 165.605469 L 592.898438 165.605469 L 592.898438 162.765625 L 349.957031 162.765625 L 349.957031 121.996094 L 592.898438 121.996094 L 592.898438 119.15625 L 349.957031 119.15625 L 349.957031 44.714844 L 640.300781 44.714844 C 643.4375 44.714844 645.996094 47.25 645.996094 50.402344 Z M 645.996094 50.367188 " fill-opacity="1" fill-rule="nonzero"/><path fill="#f7f8f8" d="M 24.515625 881.035156 L 6.984375 881.035156 L 6.984375 847.1875 L 20.160156 847.1875 C 21.8125 849.050781 24.210938 850.269531 26.894531 850.269531 C 31.867188 850.269531 35.902344 846.234375 35.902344 841.253906 C 35.902344 836.273438 31.875 832.238281 26.894531 832.238281 C 24.210938 832.238281 21.8125 833.449219 20.160156 835.324219 L 6.984375 835.324219 L 6.984375 808.785156 L 20.160156 808.785156 C 21.8125 810.652344 24.210938 811.855469 26.894531 811.855469 C 31.867188 811.855469 35.902344 807.820312 35.902344 802.839844 C 35.902344 797.859375 31.875 793.832031 26.894531 793.832031 C 24.195312 793.832031 21.8125 795.035156 20.160156 796.914062 L 6.984375 796.914062 L 6.984375 770.363281 L 20.160156 770.363281 C 21.8125 772.25 24.210938 773.453125 26.894531 773.453125 C 31.867188 773.453125 35.902344 769.417969 35.902344 764.445312 C 35.902344 759.472656 31.875 755.4375 26.894531 755.4375 C 24.210938 755.4375 21.8125 756.632812 20.160156 758.511719 L 6.984375 758.511719 L 6.984375 731.96875 L 20.160156 731.96875 C 21.820312 733.839844 24.210938 735.042969 26.894531 735.042969 C 31.867188 735.042969 35.902344 731.007812 35.902344 726.035156 C 35.902344 721.0625 31.875 717.027344 26.894531 717.027344 C 24.195312 717.027344 21.8125 718.230469 20.160156 720.097656 L 6.984375 720.097656 L 6.984375 693.558594 L 20.160156 693.558594 C 21.8125 695.417969 24.210938 696.628906 26.894531 696.628906 C 31.867188 696.628906 35.902344 692.601562 35.902344 687.621094 C 35.902344 682.640625 31.875 678.613281 26.894531 678.613281 C 24.210938 678.613281 21.820312 679.816406 20.160156 681.695312 L 6.984375 681.695312 L 6.984375 655.152344 L 20.160156 655.152344 C 21.8125 657.023438 24.210938 658.234375 26.894531 658.234375 C 31.867188 658.234375 35.902344 654.199219 35.902344 649.21875 C 35.902344 644.238281 31.875 640.210938 26.894531 640.210938 C 24.195312 640.210938 21.8125 641.414062 20.160156 643.292969 L 6.984375 643.292969 L 6.984375 616.734375 L 20.160156 616.734375 C 21.8125 618.621094 24.210938 619.832031 26.894531 619.832031 C 31.867188 619.832031 35.902344 615.796875 35.902344 610.816406 C 35.902344 605.835938 31.875 601.808594 26.894531 601.808594 C 24.195312 601.808594 21.8125 603.011719 20.160156 604.886719 L 6.984375 604.886719 L 6.984375 578.339844 L 20.160156 578.339844 C 21.820312 580.214844 24.210938 581.410156 26.894531 581.410156 C 31.867188 581.410156 35.902344 577.382812 35.902344 572.410156 C 35.902344 567.4375 31.875 563.402344 26.894531 563.402344 C 24.210938 563.402344 21.8125 564.597656 20.160156 566.476562 L 6.984375 566.476562 L 6.984375 539.917969 L 20.160156 539.917969 C 21.820312 541.789062 24.210938 543.007812 26.894531 543.007812 C 31.867188 543.007812 35.902344 538.972656 35.902344 534 C 35.902344 529.027344 31.875 524.976562 26.894531 524.976562 C 24.210938 524.976562 21.8125 526.195312 20.160156 528.066406 L 6.984375 528.066406 L 6.984375 501.523438 L 20.160156 501.523438 C 21.8125 503.402344 24.210938 504.585938 26.894531 504.585938 C 31.867188 504.585938 35.902344 500.554688 35.902344 495.582031 C 35.902344 490.609375 31.875 486.574219 26.894531 486.574219 C 24.195312 486.574219 21.8125 487.785156 20.160156 489.652344 L 6.984375 489.652344 L 6.984375 463.105469 L 20.160156 463.105469 C 21.8125 464.988281 24.210938 466.199219 26.894531 466.199219 C 31.867188 466.199219 35.902344 462.164062 35.902344 457.183594 C 35.902344 452.203125 31.875 448.175781 26.894531 448.175781 C 24.210938 448.175781 21.8125 449.378906 20.160156 451.257812 L 6.984375 451.257812 L 6.984375 424.699219 L 20.160156 424.699219 C 21.8125 426.578125 24.210938 427.78125 26.894531 427.78125 C 31.867188 427.78125 35.902344 423.753906 35.902344 418.78125 C 35.902344 413.808594 31.875 409.773438 26.894531 409.773438 C 24.195312 409.773438 21.8125 410.976562 20.160156 412.855469 L 6.984375 412.855469 L 6.984375 386.304688 L 20.160156 386.304688 C 21.820312 388.175781 24.210938 389.378906 26.894531 389.378906 C 31.867188 389.378906 35.902344 385.351562 35.902344 380.378906 C 35.902344 375.40625 31.875 371.355469 26.894531 371.355469 C 24.195312 371.355469 21.8125 372.566406 20.160156 374.441406 L 6.984375 374.441406 L 6.984375 347.886719 L 20.160156 347.886719 C 21.8125 349.753906 24.210938 350.957031 26.894531 350.957031 C 31.867188 350.957031 35.902344 346.921875 35.902344 341.949219 C 35.902344 336.976562 31.875 332.933594 26.894531 332.933594 C 24.210938 332.933594 21.8125 334.144531 20.160156 336.007812 L 6.984375 336.007812 L 6.984375 309.464844 L 20.160156 309.464844 C 21.8125 311.335938 24.195312 312.554688 26.894531 312.554688 C 31.867188 312.554688 35.902344 308.519531 35.902344 303.546875 C 35.902344 298.574219 31.875 294.53125 26.894531 294.53125 C 24.210938 294.53125 21.8125 295.742188 20.160156 297.617188 L 6.984375 297.617188 L 6.984375 271.0625 L 20.160156 271.0625 C 21.8125 272.929688 24.210938 274.140625 26.894531 274.140625 C 31.867188 274.140625 35.902344 270.117188 35.902344 265.125 C 35.902344 260.136719 31.875 256.128906 26.894531 256.128906 C 24.210938 256.128906 21.8125 257.324219 20.160156 259.199219 L 6.984375 259.199219 L 6.984375 232.640625 L 20.160156 232.640625 C 21.8125 234.519531 24.195312 235.722656 26.894531 235.722656 C 31.867188 235.722656 35.902344 231.695312 35.902344 226.707031 C 35.902344 221.71875 31.875 217.699219 26.894531 217.699219 C 24.195312 217.699219 21.8125 218.910156 20.160156 220.789062 L 6.984375 220.789062 L 6.984375 194.238281 L 20.160156 194.238281 C 21.8125 196.109375 24.195312 197.3125 26.894531 197.3125 C 31.867188 197.3125 35.902344 193.277344 35.902344 188.304688 C 35.902344 183.332031 31.875 179.289062 26.894531 179.289062 C 24.210938 179.289062 21.8125 180.492188 20.160156 182.367188 L 6.984375 182.367188 L 6.984375 155.828125 L 20.160156 155.828125 C 21.8125 157.695312 24.210938 158.914062 26.894531 158.914062 C 31.867188 158.914062 35.902344 154.878906 35.902344 149.90625 C 35.902344 144.933594 31.875 140.882812 26.894531 140.882812 C 24.195312 140.882812 21.8125 142.105469 20.160156 143.972656 L 6.984375 143.972656 L 6.984375 117.414062 L 20.160156 117.414062 C 21.8125 119.285156 24.210938 120.488281 26.894531 120.488281 C 31.867188 120.488281 35.902344 116.46875 35.902344 111.480469 C 35.902344 106.492188 31.875 102.472656 26.894531 102.472656 C 24.210938 102.472656 21.8125 103.675781 20.160156 105.5625 L 6.984375 105.5625 L 6.984375 79.003906 L 20.160156 79.003906 C 21.8125 80.871094 24.210938 82.082031 26.894531 82.082031 C 31.867188 82.082031 35.902344 78.058594 35.902344 73.070312 C 35.902344 68.078125 31.875 64.0625 26.894531 64.0625 C 24.210938 64.0625 21.820312 65.273438 20.160156 67.148438 L 6.984375 67.148438 L 6.984375 44.625 L 356.660156 44.625 L 356.660156 119.066406 L 54.386719 119.066406 L 54.386719 121.90625 L 356.660156 121.90625 L 356.660156 162.675781 L 54.386719 162.675781 L 54.386719 165.515625 L 356.660156 165.515625 L 356.660156 206.285156 L 54.386719 206.285156 L 54.386719 209.125 L 356.660156 209.125 L 356.660156 249.902344 L 54.386719 249.902344 L 54.386719 252.742188 L 356.660156 252.742188 L 356.660156 293.511719 L 54.386719 293.511719 L 54.386719 296.351562 L 356.660156 296.351562 L 356.660156 337.121094 L 54.386719 337.121094 L 54.386719 339.960938 L 356.660156 339.960938 L 356.660156 380.746094 L 54.386719 380.746094 L 54.386719 383.578125 L 356.660156 383.578125 L 356.660156 424.347656 L 54.386719 424.347656 L 54.386719 427.195312 L 356.660156 427.195312 L 356.660156 467.957031 L 54.386719 467.957031 L 54.386719 470.804688 L 356.660156 470.804688 L 356.660156 511.582031 L 54.386719 511.582031 L 54.386719 514.4375 L 356.660156 514.4375 L 356.660156 555.191406 L 54.386719 555.191406 L 54.386719 558.046875 L 356.660156 558.046875 L 356.660156 598.808594 L 54.386719 598.808594 L 54.386719 601.648438 L 356.660156 601.648438 L 356.660156 642.425781 L 54.386719 642.425781 L 54.386719 645.265625 L 356.660156 645.265625 L 356.660156 686.035156 L 54.386719 686.035156 L 54.386719 688.875 L 356.660156 688.875 L 356.660156 729.652344 L 54.386719 729.652344 L 54.386719 732.484375 L 356.660156 732.484375 L 356.660156 773.261719 L 54.386719 773.261719 L 54.386719 776.109375 L 356.660156 776.109375 L 356.660156 816.886719 L 54.386719 816.886719 L 54.386719 819.726562 L 356.660156 819.726562 L 356.660156 880.949219 L 24.523438 880.949219 Z M 24.515625 881.035156 " fill-opacity="1" fill-rule="nonzero"/><path fill="#f7f8f8" d="M 356.652344 119.125 L 54.378906 119.125 L 54.378906 121.960938 L 356.652344 121.960938 Z M 356.652344 119.125 " fill-opacity="1" fill-rule="nonzero"/><path fill="#f7f8f8" d="M 592.898438 119.125 L 349.957031 119.125 L 349.957031 121.960938 L 592.898438 121.960938 Z M 592.898438 119.125 " fill-opacity="1" fill-rule="nonzero"/><path fill="#f7f8f8" d="M 592.898438 162.742188 L 349.957031 162.742188 L 349.957031 165.578125 L 592.898438 165.578125 Z M 592.898438 162.742188 " fill-opacity="1" fill-rule="nonzero"/><path fill="#f7f8f8" d="M 356.652344 162.742188 L 54.378906 162.742188 L 54.378906 165.578125 L 356.652344 165.578125 Z M 356.652344 162.742188 " fill-opacity="1" fill-rule="nonzero"/><path fill="#f7f8f8" d="M 356.652344 206.351562 L 54.378906 206.351562 L 54.378906 209.1875 L 356.652344 209.1875 Z M 356.652344 206.351562 " fill-opacity="1" fill-rule="nonzero"/><path fill="#f7f8f8" d="M 592.898438 206.351562 L 349.957031 206.351562 L 349.957031 209.1875 L 592.898438 209.1875 Z M 592.898438 206.351562 " fill-opacity="1" fill-rule="nonzero"/><path fill="#f7f8f8" d="M 592.898438 249.96875 L 349.957031 249.96875 L 349.957031 252.804688 L 592.898438 252.804688 Z M 592.898438 249.96875 " fill-opacity="1" fill-rule="nonzero"/><path fill="#f7f8f8" d="M 356.652344 249.96875 L 54.378906 249.96875 L 54.378906 252.804688 L 356.652344 252.804688 Z M 356.652344 249.96875 " fill-opacity="1" fill-rule="nonzero"/><path fill="#f7f8f8" d="M 592.898438 293.585938 L 349.957031 293.585938 L 349.957031 296.421875 L 592.898438 296.421875 Z M 592.898438 293.585938 " fill-opacity="1" fill-rule="nonzero"/><path fill="#f7f8f8" d="M 356.652344 293.585938 L 54.378906 293.585938 L 54.378906 296.421875 L 356.652344 296.421875 Z M 356.652344 293.585938 " fill-opacity="1" fill-rule="nonzero"/><path fill="#f7f8f8" d="M 592.898438 337.191406 L 349.957031 337.191406 L 349.957031 340.03125 L 592.898438 340.03125 Z M 592.898438 337.191406 " fill-opacity="1" fill-rule="nonzero"/><path fill="#f7f8f8" d="M 356.652344 337.191406 L 54.378906 337.191406 L 54.378906 340.03125 L 356.652344 340.03125 Z M 356.652344 337.191406 " fill-opacity="1" fill-rule="nonzero"/><path fill="#f7f8f8" d="M 592.898438 380.816406 L 349.957031 380.816406 L 349.957031 383.648438 L 592.898438 383.648438 Z M 592.898438 380.816406 " fill-opacity="1" fill-rule="nonzero"/><path fill="#f7f8f8" d="M 356.652344 380.816406 L 54.378906 380.816406 L 54.378906 383.648438 L 356.652344 383.648438 Z M 356.652344 380.816406 " fill-opacity="1" fill-rule="nonzero"/><path fill="#f7f8f8" d="M 592.898438 424.417969 L 349.957031 424.417969 L 349.957031 427.265625 L 592.898438 427.265625 Z M 592.898438 424.417969 " fill-opacity="1" fill-rule="nonzero"/><path fill="#f7f8f8" d="M 356.652344 424.417969 L 54.378906 424.417969 L 54.378906 427.265625 L 356.652344 427.265625 Z M 356.652344 424.417969 " fill-opacity="1" fill-rule="nonzero"/><path fill="#f7f8f8" d="M 592.898438 468.027344 L 349.957031 468.027344 L 349.957031 470.875 L 592.898438 470.875 Z M 592.898438 468.027344 " fill-opacity="1" fill-rule="nonzero"/><path fill="#f7f8f8" d="M 356.652344 468.027344 L 54.378906 468.027344 L 54.378906 470.875 L 356.652344 470.875 Z M 356.652344 468.027344 " fill-opacity="1" fill-rule="nonzero"/><path fill="#f7f8f8" d="M 592.898438 511.652344 L 349.957031 511.652344 L 349.957031 514.507812 L 592.898438 514.507812 Z M 592.898438 511.652344 " fill-opacity="1" fill-rule="nonzero"/><path fill="#f7f8f8" d="M 356.652344 511.652344 L 54.378906 511.652344 L 54.378906 514.507812 L 356.652344 514.507812 Z M 356.652344 511.652344 " fill-opacity="1" fill-rule="nonzero"/><path fill="#f7f8f8" d="M 356.652344 555.269531 L 54.378906 555.269531 L 54.378906 558.125 L 356.652344 558.125 Z M 356.652344 555.269531 " fill-opacity="1" fill-rule="nonzero"/><path fill="#f7f8f8" d="M 592.898438 555.269531 L 349.957031 555.269531 L 349.957031 558.125 L 592.898438 558.125 Z M 592.898438 555.269531 " fill-opacity="1" fill-rule="nonzero"/><path fill="#f7f8f8" d="M 592.898438 598.878906 L 349.957031 598.878906 L 349.957031 601.71875 L 592.898438 601.71875 Z M 592.898438 598.878906 " fill-opacity="1" fill-rule="nonzero"/><path fill="#f7f8f8" d="M 356.652344 598.878906 L 54.378906 598.878906 L 54.378906 601.71875 L 356.652344 601.71875 Z M 356.652344 598.878906 " fill-opacity="1" fill-rule="nonzero"/><path fill="#f7f8f8" d="M 356.652344 642.503906 L 54.378906 642.503906 L 54.378906 645.34375 L 356.652344 645.34375 Z M 356.652344 642.503906 " fill-opacity="1" fill-rule="nonzero"/><path fill="#f7f8f8" d="M 592.898438 642.503906 L 349.957031 642.503906 L 349.957031 645.34375 L 592.898438 645.34375 Z M 592.898438 642.503906 " fill-opacity="1" fill-rule="nonzero"/><path fill="#f7f8f8" d="M 356.652344 686.113281 L 54.378906 686.113281 L 54.378906 688.953125 L 356.652344 688.953125 Z M 356.652344 686.113281 " fill-opacity="1" fill-rule="nonzero"/><path fill="#f7f8f8" d="M 592.898438 686.113281 L 349.957031 686.113281 L 349.957031 688.953125 L 592.898438 688.953125 Z M 592.898438 686.113281 " fill-opacity="1" fill-rule="nonzero"/><path fill="#f7f8f8" d="M 592.898438 729.730469 L 349.957031 729.730469 L 349.957031 732.5625 L 592.898438 732.5625 Z M 592.898438 729.730469 " fill-opacity="1" fill-rule="nonzero"/><path fill="#f7f8f8" d="M 356.652344 729.730469 L 54.378906 729.730469 L 54.378906 732.5625 L 356.652344 732.5625 Z M 356.652344 729.730469 " fill-opacity="1" fill-rule="nonzero"/><path fill="#f7f8f8" d="M 356.652344 773.339844 L 54.378906 773.339844 L 54.378906 776.1875 L 356.652344 776.1875 Z M 356.652344 773.339844 " fill-opacity="1" fill-rule="nonzero"/><path fill="#f7f8f8" d="M 592.898438 773.339844 L 349.957031 773.339844 L 349.957031 776.1875 L 592.898438 776.1875 Z M 592.898438 773.339844 " fill-opacity="1" fill-rule="nonzero"/><path fill="#232d34" d="M 27.707031 76.695312 C 28.019531 76.246094 28.257812 75.761719 28.445312 75.242188 C 28.476562 75.152344 28.5 75.074219 28.523438 75 C 28.539062 74.9375 28.539062 74.855469 28.554688 74.800781 L 28.582031 74.800781 C 28.707031 74.34375 28.789062 73.871094 28.789062 73.363281 L 28.789062 72.898438 C 28.789062 72.410156 28.707031 71.929688 28.589844 71.472656 L 28.5625 71.472656 C 28.546875 71.398438 28.546875 71.335938 28.53125 71.269531 C 28.5 71.183594 28.476562 71.09375 28.445312 71.023438 C 28.269531 70.507812 28.019531 70.027344 27.707031 69.585938 C 26.671875 68.160156 24.996094 67.222656 23.101562 67.222656 L 20.160156 67.222656 C 21.820312 65.351562 24.210938 64.132812 26.894531 64.132812 C 31.867188 64.132812 35.902344 68.167969 35.902344 73.140625 C 35.902344 78.113281 31.875 82.15625 26.894531 82.15625 C 24.210938 82.15625 21.8125 80.945312 20.160156 79.074219 L 23.101562 79.074219 C 24.996094 79.074219 26.671875 78.144531 27.707031 76.71875 Z M 27.707031 76.695312 " fill-opacity="1" fill-rule="nonzero"/><path fill="#232d34" d="M 27.675781 115.089844 L 27.699219 115.089844 C 28.011719 114.65625 28.25 114.167969 28.4375 113.652344 C 28.46875 113.574219 28.492188 113.5 28.515625 113.414062 C 28.539062 113.339844 28.53125 113.277344 28.546875 113.210938 L 28.574219 113.210938 C 28.699219 112.746094 28.78125 112.28125 28.78125 111.785156 L 28.78125 111.304688 C 28.78125 110.8125 28.699219 110.332031 28.582031 109.875 L 28.554688 109.875 C 28.539062 109.804688 28.539062 109.738281 28.523438 109.667969 C 28.492188 109.59375 28.46875 109.515625 28.4375 109.433594 C 28.257812 108.914062 28.011719 108.433594 27.699219 107.992188 C 26.664062 106.554688 24.988281 105.625 23.09375 105.625 L 20.152344 105.625 C 21.804688 103.738281 24.203125 102.535156 26.886719 102.535156 C 31.859375 102.535156 35.894531 106.570312 35.894531 111.542969 C 35.894531 116.515625 31.867188 120.550781 26.886719 120.550781 C 24.203125 120.550781 21.804688 119.347656 20.152344 117.480469 L 23.09375 117.480469 C 24.988281 117.480469 26.648438 116.53125 27.675781 115.105469 Z M 27.675781 115.089844 " fill-opacity="1" fill-rule="nonzero"/><path fill="#232d34" d="M 27.675781 153.5 L 27.699219 153.5 C 28.011719 153.050781 28.25 152.578125 28.4375 152.058594 C 28.46875 151.976562 28.492188 151.90625 28.515625 151.816406 C 28.539062 151.742188 28.53125 151.679688 28.546875 151.601562 L 28.574219 151.601562 C 28.699219 151.140625 28.78125 150.691406 28.78125 150.1875 L 28.78125 149.707031 C 28.78125 149.210938 28.699219 148.734375 28.582031 148.285156 L 28.554688 148.285156 C 28.539062 148.214844 28.539062 148.152344 28.523438 148.085938 C 28.492188 148.007812 28.46875 147.917969 28.4375 147.828125 C 28.257812 147.316406 28.011719 146.835938 27.699219 146.386719 L 27.675781 146.386719 C 26.648438 144.957031 24.988281 144.027344 23.09375 144.027344 L 20.152344 144.027344 C 21.804688 142.160156 24.1875 140.941406 26.886719 140.941406 C 31.859375 140.941406 35.894531 144.972656 35.894531 149.964844 C 35.894531 154.953125 31.867188 158.972656 26.886719 158.972656 C 24.203125 158.972656 21.804688 157.757812 20.152344 155.882812 L 23.09375 155.882812 C 24.988281 155.882812 26.648438 154.945312 27.675781 153.515625 Z M 27.675781 153.5 " fill-opacity="1" fill-rule="nonzero"/><path fill="#232d34" d="M 27.675781 191.914062 L 27.699219 191.914062 C 28.011719 191.464844 28.25 190.980469 28.4375 190.460938 C 28.46875 190.378906 28.492188 190.292969 28.515625 190.21875 C 28.53125 190.148438 28.53125 190.089844 28.546875 190.019531 L 28.574219 190.019531 C 28.699219 189.546875 28.78125 189.082031 28.78125 188.589844 L 28.78125 188.117188 C 28.78125 187.613281 28.699219 187.15625 28.582031 186.683594 L 28.554688 186.683594 C 28.539062 186.617188 28.539062 186.539062 28.523438 186.480469 C 28.492188 186.394531 28.46875 186.3125 28.445312 186.226562 C 28.257812 185.71875 28.019531 185.222656 27.707031 184.789062 L 27.683594 184.789062 C 26.65625 183.363281 24.996094 182.414062 23.101562 182.414062 L 20.160156 182.414062 C 21.8125 180.539062 24.210938 179.335938 26.894531 179.335938 C 31.867188 179.335938 35.902344 183.371094 35.902344 188.351562 C 35.902344 193.332031 31.875 197.359375 26.894531 197.359375 C 24.195312 197.359375 21.8125 196.15625 20.160156 194.285156 L 23.101562 194.285156 C 24.996094 194.285156 26.65625 193.339844 27.683594 191.921875 Z M 27.675781 191.914062 " fill-opacity="1" fill-rule="nonzero"/><path fill="#232d34" d="M 27.707031 230.316406 L 27.707031 230.300781 C 28.019531 229.867188 28.257812 229.378906 28.445312 228.863281 C 28.476562 228.785156 28.5 228.703125 28.523438 228.632812 C 28.546875 228.550781 28.539062 228.480469 28.554688 228.421875 L 28.582031 228.421875 C 28.707031 227.964844 28.789062 227.484375 28.789062 226.980469 L 28.789062 226.515625 C 28.789062 226.023438 28.707031 225.542969 28.589844 225.085938 L 28.5625 225.085938 C 28.546875 225.015625 28.546875 224.957031 28.53125 224.878906 C 28.5 224.796875 28.476562 224.726562 28.453125 224.636719 C 28.269531 224.132812 28.027344 223.644531 27.714844 223.210938 L 27.691406 223.210938 C 26.664062 221.78125 25.003906 220.828125 23.109375 220.828125 L 20.167969 220.828125 C 21.820312 218.957031 24.203125 217.738281 26.90625 217.738281 C 31.875 217.738281 35.910156 221.773438 35.910156 226.746094 C 35.910156 231.71875 31.882812 235.761719 26.90625 235.761719 C 24.203125 235.761719 21.820312 234.558594 20.167969 232.683594 L 23.109375 232.683594 C 25.003906 232.683594 26.679688 231.75 27.714844 230.324219 Z M 27.707031 230.316406 " fill-opacity="1" fill-rule="nonzero"/><path fill="#232d34" d="M 27.707031 268.710938 C 28.019531 268.277344 28.257812 267.789062 28.445312 267.269531 C 28.476562 267.195312 28.5 267.117188 28.523438 267.027344 C 28.539062 266.972656 28.539062 266.890625 28.554688 266.828125 L 28.582031 266.828125 C 28.707031 266.371094 28.789062 265.894531 28.789062 265.40625 L 28.789062 264.925781 C 28.789062 264.4375 28.707031 263.964844 28.589844 263.515625 L 28.5625 263.515625 C 28.546875 263.433594 28.546875 263.371094 28.53125 263.289062 C 28.5 263.226562 28.476562 263.136719 28.453125 263.058594 C 28.269531 262.535156 28.027344 262.054688 27.714844 261.621094 L 27.691406 261.621094 C 26.664062 260.183594 25.003906 259.246094 23.109375 259.246094 L 20.167969 259.246094 C 21.820312 257.371094 24.21875 256.175781 26.90625 256.175781 C 31.875 256.175781 35.910156 260.203125 35.910156 265.175781 C 35.910156 270.148438 31.882812 274.191406 26.90625 274.191406 C 24.21875 274.191406 21.820312 272.980469 20.167969 271.109375 L 23.109375 271.109375 C 25.003906 271.109375 26.679688 270.179688 27.714844 268.734375 Z M 27.707031 268.710938 " fill-opacity="1" fill-rule="nonzero"/><path fill="#232d34" d="M 27.699219 307.125 L 27.707031 307.125 C 28.019531 306.683594 28.257812 306.199219 28.445312 305.679688 C 28.476562 305.597656 28.5 305.527344 28.523438 305.4375 C 28.539062 305.367188 28.539062 305.300781 28.554688 305.238281 L 28.582031 305.238281 C 28.707031 304.78125 28.789062 304.316406 28.789062 303.800781 L 28.789062 303.335938 C 28.789062 302.847656 28.707031 302.367188 28.589844 301.910156 L 28.5625 301.910156 C 28.546875 301.835938 28.546875 301.773438 28.53125 301.710938 C 28.5 301.628906 28.476562 301.546875 28.453125 301.46875 C 28.269531 300.945312 28.027344 300.464844 27.714844 300.03125 L 27.691406 300.03125 C 26.664062 298.589844 25.003906 297.660156 23.109375 297.660156 L 20.167969 297.660156 C 21.820312 295.789062 24.21875 294.570312 26.90625 294.570312 C 31.875 294.570312 35.910156 298.605469 35.910156 303.585938 C 35.910156 308.566406 31.882812 312.59375 26.90625 312.59375 C 24.203125 312.59375 21.820312 311.382812 20.167969 309.503906 L 23.109375 309.503906 C 25.003906 309.503906 26.679688 308.574219 27.707031 307.140625 Z M 27.699219 307.125 " fill-opacity="1" fill-rule="nonzero"/><path fill="#232d34" d="M 27.675781 345.535156 L 27.699219 345.535156 C 28.011719 345.09375 28.25 344.605469 28.4375 344.089844 C 28.46875 344.011719 28.492188 343.9375 28.515625 343.851562 C 28.539062 343.785156 28.53125 343.714844 28.546875 343.648438 L 28.574219 343.648438 C 28.699219 343.191406 28.78125 342.71875 28.78125 342.222656 L 28.78125 341.742188 C 28.78125 341.25 28.699219 340.777344 28.582031 340.320312 L 28.554688 340.320312 C 28.539062 340.242188 28.539062 340.175781 28.523438 340.113281 C 28.492188 340.023438 28.46875 339.945312 28.445312 339.871094 C 28.257812 339.351562 28.019531 338.851562 27.707031 338.429688 L 27.683594 338.429688 C 26.65625 336.992188 24.996094 336.039062 23.101562 336.039062 L 20.160156 336.039062 C 21.8125 334.175781 24.210938 332.964844 26.894531 332.964844 C 31.867188 332.964844 35.902344 337 35.902344 341.980469 C 35.902344 346.960938 31.875 350.988281 26.894531 350.988281 C 24.210938 350.988281 21.8125 349.785156 20.160156 347.917969 L 23.101562 347.917969 C 24.996094 347.917969 26.65625 346.980469 27.683594 345.550781 Z M 27.675781 345.535156 " fill-opacity="1" fill-rule="nonzero"/><path fill="#232d34" d="M 27.675781 383.9375 L 27.699219 383.9375 C 28.011719 383.496094 28.25 383.007812 28.4375 382.496094 C 28.46875 382.414062 28.492188 382.34375 28.515625 382.261719 C 28.53125 382.183594 28.53125 382.117188 28.546875 382.054688 L 28.574219 382.054688 C 28.699219 381.597656 28.78125 381.125 28.78125 380.617188 L 28.78125 380.152344 C 28.78125 379.664062 28.699219 379.175781 28.582031 378.71875 L 28.554688 378.71875 C 28.539062 378.660156 28.539062 378.589844 28.523438 378.515625 C 28.492188 378.429688 28.46875 378.347656 28.445312 378.285156 C 28.257812 377.761719 28.019531 377.273438 27.707031 376.839844 L 27.683594 376.839844 C 26.65625 375.414062 24.996094 374.464844 23.101562 374.464844 L 20.160156 374.464844 C 21.8125 372.589844 24.195312 371.378906 26.894531 371.378906 C 31.867188 371.378906 35.902344 375.414062 35.902344 380.402344 C 35.902344 385.390625 31.875 389.402344 26.894531 389.402344 C 24.210938 389.402344 21.820312 388.199219 20.160156 386.328125 L 23.101562 386.328125 C 24.996094 386.328125 26.65625 385.390625 27.683594 383.960938 Z M 27.675781 383.9375 " fill-opacity="1" fill-rule="nonzero"/><path fill="#232d34" d="M 27.707031 422.34375 L 27.707031 422.324219 C 28.019531 421.894531 28.257812 421.410156 28.445312 420.898438 C 28.476562 420.808594 28.5 420.730469 28.523438 420.640625 C 28.539062 420.585938 28.539062 420.503906 28.554688 420.441406 L 28.582031 420.441406 C 28.707031 419.984375 28.789062 419.503906 28.789062 419.011719 L 28.789062 418.53125 C 28.789062 418.042969 28.707031 417.5625 28.589844 417.113281 L 28.5625 417.113281 C 28.546875 417.03125 28.546875 416.96875 28.53125 416.902344 C 28.5 416.824219 28.476562 416.742188 28.453125 416.65625 C 28.269531 416.140625 28.027344 415.652344 27.714844 415.21875 L 27.691406 415.21875 C 26.664062 413.792969 25.003906 412.84375 23.109375 412.84375 L 20.167969 412.84375 C 21.820312 410.976562 24.203125 409.765625 26.90625 409.765625 C 31.875 409.765625 35.910156 413.792969 35.910156 418.773438 C 35.910156 423.753906 31.882812 427.773438 26.90625 427.773438 C 24.21875 427.773438 21.820312 426.570312 20.167969 424.691406 L 23.109375 424.691406 C 25.003906 424.691406 26.679688 423.761719 27.714844 422.332031 Z M 27.707031 422.34375 " fill-opacity="1" fill-rule="nonzero"/><path fill="#232d34" d="M 27.675781 460.753906 L 27.699219 460.753906 C 28.011719 460.320312 28.25 459.824219 28.4375 459.300781 C 28.46875 459.230469 28.492188 459.148438 28.523438 459.0625 C 28.539062 458.996094 28.539062 458.925781 28.554688 458.859375 L 28.582031 458.859375 C 28.707031 458.402344 28.789062 457.9375 28.789062 457.441406 L 28.789062 456.960938 C 28.789062 456.460938 28.707031 455.988281 28.589844 455.53125 L 28.5625 455.53125 C 28.546875 455.46875 28.546875 455.402344 28.53125 455.332031 C 28.5 455.234375 28.476562 455.164062 28.453125 455.089844 C 28.269531 454.578125 28.027344 454.089844 27.714844 453.65625 L 27.691406 453.65625 C 26.664062 452.226562 25.003906 451.28125 23.109375 451.28125 L 20.167969 451.28125 C 21.820312 449.402344 24.21875 448.199219 26.90625 448.199219 C 31.875 448.199219 35.910156 452.226562 35.910156 457.207031 C 35.910156 462.1875 31.882812 466.222656 26.90625 466.222656 C 24.21875 466.222656 21.820312 465.011719 20.167969 463.128906 L 23.109375 463.128906 C 24.996094 463.128906 26.664062 462.199219 27.691406 460.769531 Z M 27.675781 460.753906 " fill-opacity="1" fill-rule="nonzero"/><path fill="#232d34" d="M 27.675781 499.140625 L 27.699219 499.140625 C 28.011719 498.714844 28.25 498.21875 28.4375 497.707031 C 28.46875 497.632812 28.492188 497.554688 28.523438 497.464844 C 28.539062 497.394531 28.539062 497.328125 28.554688 497.265625 L 28.582031 497.265625 C 28.707031 496.800781 28.789062 496.34375 28.789062 495.835938 L 28.789062 495.355469 C 28.789062 494.867188 28.707031 494.394531 28.589844 493.945312 L 28.5625 493.945312 C 28.546875 493.863281 28.546875 493.800781 28.53125 493.734375 C 28.5 493.640625 28.476562 493.566406 28.445312 493.488281 C 28.269531 492.972656 28.019531 492.484375 27.707031 492.050781 C 26.671875 490.605469 24.996094 489.660156 23.101562 489.660156 L 20.160156 489.660156 C 21.8125 487.800781 24.195312 486.582031 26.894531 486.582031 C 31.867188 486.582031 35.902344 490.613281 35.902344 495.589844 C 35.902344 500.5625 31.875 504.59375 26.894531 504.59375 C 24.210938 504.59375 21.8125 503.410156 20.160156 501.53125 L 23.101562 501.53125 C 24.996094 501.53125 26.65625 500.585938 27.683594 499.140625 Z M 27.675781 499.140625 " fill-opacity="1" fill-rule="nonzero"/><path fill="#232d34" d="M 27.675781 537.570312 L 27.699219 537.570312 C 28.011719 537.136719 28.25 536.636719 28.4375 536.125 C 28.46875 536.035156 28.492188 535.957031 28.523438 535.875 C 28.546875 535.796875 28.539062 535.730469 28.554688 535.667969 L 28.582031 535.667969 C 28.707031 535.210938 28.789062 534.738281 28.789062 534.242188 L 28.789062 533.757812 C 28.789062 533.269531 28.707031 532.796875 28.589844 532.347656 L 28.5625 532.347656 C 28.546875 532.273438 28.546875 532.195312 28.53125 532.128906 C 28.5 532.042969 28.476562 531.960938 28.453125 531.898438 C 28.269531 531.375 28.027344 530.878906 27.714844 530.445312 L 27.691406 530.445312 C 26.664062 529.027344 25.003906 528.070312 23.109375 528.070312 L 20.167969 528.070312 C 21.820312 526.203125 24.21875 524.984375 26.90625 524.984375 C 31.875 524.984375 35.910156 529.027344 35.910156 534.007812 C 35.910156 538.988281 31.882812 543.015625 26.90625 543.015625 C 24.21875 543.015625 21.828125 541.804688 20.167969 539.925781 L 23.109375 539.925781 C 24.996094 539.925781 26.664062 538.988281 27.691406 537.570312 Z M 27.675781 537.570312 " fill-opacity="1" fill-rule="nonzero"/><path fill="#232d34" d="M 27.707031 575.964844 C 28.019531 575.53125 28.257812 575.042969 28.445312 574.527344 C 28.476562 574.441406 28.5 574.367188 28.523438 574.28125 C 28.539062 574.214844 28.539062 574.144531 28.554688 574.078125 L 28.582031 574.078125 C 28.707031 573.621094 28.789062 573.140625 28.789062 572.652344 L 28.789062 572.171875 C 28.789062 571.679688 28.707031 571.207031 28.589844 570.75 L 28.5625 570.75 C 28.546875 570.6875 28.546875 570.605469 28.53125 570.542969 C 28.5 570.46875 28.476562 570.390625 28.453125 570.300781 C 28.269531 569.796875 28.027344 569.300781 27.714844 568.867188 L 27.691406 568.867188 C 26.664062 567.4375 25.003906 566.492188 23.109375 566.492188 L 20.167969 566.492188 C 21.820312 564.613281 24.21875 563.421875 26.90625 563.421875 C 31.875 563.421875 35.910156 567.445312 35.910156 572.425781 C 35.910156 577.40625 31.882812 581.425781 26.90625 581.425781 C 24.21875 581.425781 21.828125 580.230469 20.167969 578.355469 L 23.109375 578.355469 C 25.003906 578.355469 26.679688 577.417969 27.714844 575.988281 Z M 27.707031 575.964844 " fill-opacity="1" fill-rule="nonzero"/><path fill="#232d34" d="M 27.675781 614.375 L 27.699219 614.375 C 28.011719 613.941406 28.25 613.453125 28.4375 612.933594 C 28.46875 612.851562 28.492188 612.773438 28.515625 612.699219 C 28.53125 612.628906 28.53125 612.554688 28.546875 612.492188 L 28.574219 612.492188 C 28.699219 612.035156 28.78125 611.5625 28.78125 611.0625 L 28.78125 610.589844 C 28.78125 610.09375 28.699219 609.613281 28.582031 609.15625 C 28.554688 609.089844 28.539062 609.019531 28.523438 608.953125 C 28.492188 608.875 28.46875 608.792969 28.445312 608.707031 C 28.257812 608.191406 28.019531 607.703125 27.707031 607.269531 L 27.683594 607.269531 C 26.65625 605.84375 24.996094 604.894531 23.101562 604.894531 L 20.160156 604.894531 C 21.8125 603.027344 24.195312 601.816406 26.894531 601.816406 C 31.867188 601.816406 35.902344 605.84375 35.902344 610.824219 C 35.902344 615.804688 31.875 619.839844 26.894531 619.839844 C 24.210938 619.839844 21.8125 618.636719 20.160156 616.742188 L 23.101562 616.742188 C 24.996094 616.742188 26.65625 615.8125 27.683594 614.382812 Z M 27.675781 614.375 " fill-opacity="1" fill-rule="nonzero"/><path fill="#232d34" d="M 27.707031 652.78125 C 28.019531 652.347656 28.257812 651.855469 28.445312 651.328125 C 28.476562 651.253906 28.5 651.175781 28.523438 651.09375 C 28.539062 651.03125 28.539062 650.949219 28.554688 650.886719 L 28.582031 650.886719 C 28.707031 650.4375 28.789062 649.964844 28.789062 649.46875 L 28.789062 648.984375 C 28.789062 648.488281 28.707031 648.023438 28.589844 647.566406 L 28.5625 647.566406 C 28.546875 647.492188 28.546875 647.421875 28.53125 647.359375 C 28.5 647.285156 28.476562 647.1875 28.453125 647.117188 C 28.269531 646.605469 28.027344 646.113281 27.714844 645.679688 L 27.691406 645.679688 C 26.664062 644.253906 25.003906 643.308594 23.109375 643.308594 L 20.167969 643.308594 C 21.820312 641.4375 24.203125 640.226562 26.90625 640.226562 C 31.875 640.226562 35.910156 644.253906 35.910156 649.234375 C 35.910156 654.214844 31.882812 658.25 26.90625 658.25 C 24.21875 658.25 21.820312 657.039062 20.167969 655.167969 L 23.109375 655.167969 C 25.003906 655.167969 26.679688 654.222656 27.714844 652.796875 Z M 27.707031 652.78125 " fill-opacity="1" fill-rule="nonzero"/><path fill="#232d34" d="M 27.675781 691.183594 L 27.699219 691.183594 C 28.011719 690.734375 28.25 690.253906 28.4375 689.746094 C 28.46875 689.660156 28.492188 689.578125 28.515625 689.5 C 28.53125 689.433594 28.53125 689.355469 28.546875 689.289062 L 28.574219 689.289062 C 28.699219 688.832031 28.78125 688.367188 28.78125 687.863281 L 28.78125 687.398438 C 28.78125 686.898438 28.699219 686.425781 28.582031 685.960938 L 28.554688 685.960938 C 28.539062 685.90625 28.539062 685.832031 28.523438 685.761719 C 28.492188 685.679688 28.46875 685.609375 28.445312 685.527344 C 28.257812 685.007812 28.019531 684.519531 27.707031 684.085938 L 27.683594 684.085938 C 26.65625 682.648438 24.996094 681.710938 23.101562 681.710938 L 20.160156 681.710938 C 21.820312 679.84375 24.210938 678.628906 26.894531 678.628906 C 31.867188 678.628906 35.902344 682.648438 35.902344 687.636719 C 35.902344 692.628906 31.875 696.644531 26.894531 696.644531 C 24.210938 696.644531 21.8125 695.433594 20.160156 693.574219 L 23.101562 693.574219 C 24.996094 693.574219 26.65625 692.628906 27.683594 691.199219 Z M 27.675781 691.183594 " fill-opacity="1" fill-rule="nonzero"/><path fill="#232d34" d="M 27.675781 729.609375 L 27.699219 729.609375 C 28.011719 729.160156 28.25 728.671875 28.4375 728.160156 C 28.46875 728.070312 28.492188 727.992188 28.515625 727.917969 C 28.539062 727.855469 28.53125 727.773438 28.546875 727.703125 L 28.574219 727.703125 C 28.699219 727.246094 28.78125 726.78125 28.78125 726.273438 L 28.78125 725.808594 C 28.78125 725.304688 28.699219 724.839844 28.582031 724.382812 L 28.554688 724.382812 C 28.539062 724.308594 28.539062 724.230469 28.523438 724.179688 C 28.492188 724.09375 28.46875 724.011719 28.4375 723.933594 C 28.257812 723.417969 28.011719 722.921875 27.699219 722.488281 L 27.675781 722.488281 C 26.648438 721.070312 24.988281 720.113281 23.09375 720.113281 L 20.152344 720.113281 C 21.804688 718.246094 24.1875 717.042969 26.886719 717.042969 C 31.859375 717.042969 35.894531 721.078125 35.894531 726.050781 C 35.894531 731.023438 31.867188 735.058594 26.886719 735.058594 C 24.203125 735.058594 21.8125 733.855469 20.152344 731.984375 L 23.09375 731.984375 C 24.988281 731.984375 26.648438 731.039062 27.675781 729.628906 Z M 27.675781 729.609375 " fill-opacity="1" fill-rule="nonzero"/><path fill="#232d34" d="M 27.675781 768 L 27.699219 768 C 28.011719 767.558594 28.25 767.078125 28.4375 766.546875 C 28.46875 766.476562 28.492188 766.394531 28.515625 766.3125 C 28.539062 766.242188 28.53125 766.167969 28.546875 766.097656 L 28.574219 766.097656 C 28.699219 765.640625 28.78125 765.175781 28.78125 764.671875 L 28.78125 764.203125 C 28.78125 763.699219 28.699219 763.234375 28.582031 762.761719 L 28.554688 762.761719 C 28.539062 762.703125 28.539062 762.625 28.523438 762.558594 C 28.492188 762.480469 28.46875 762.398438 28.445312 762.3125 C 28.257812 761.804688 28.019531 761.308594 27.707031 760.875 L 27.683594 760.875 C 26.65625 759.449219 24.996094 758.503906 23.101562 758.503906 L 20.160156 758.503906 C 21.8125 756.625 24.210938 755.429688 26.894531 755.429688 C 31.867188 755.429688 35.902344 759.449219 35.902344 764.4375 C 35.902344 769.425781 31.875 773.445312 26.894531 773.445312 C 24.210938 773.445312 21.8125 772.242188 20.160156 770.355469 L 23.101562 770.355469 C 24.996094 770.355469 26.65625 769.417969 27.683594 767.992188 Z M 27.675781 768 " fill-opacity="1" fill-rule="nonzero"/><path fill="#232d34" d="M 27.675781 806.402344 L 27.699219 806.402344 C 28.011719 805.96875 28.25 805.480469 28.4375 804.957031 C 28.46875 804.878906 28.492188 804.804688 28.515625 804.726562 C 28.539062 804.652344 28.53125 804.582031 28.546875 804.515625 L 28.574219 804.515625 C 28.699219 804.066406 28.78125 803.59375 28.78125 803.089844 L 28.78125 802.617188 C 28.78125 802.117188 28.699219 801.652344 28.582031 801.195312 L 28.554688 801.195312 C 28.539062 801.125 28.539062 801.058594 28.523438 800.980469 C 28.492188 800.898438 28.46875 800.8125 28.4375 800.730469 C 28.257812 800.21875 28.011719 799.730469 27.699219 799.296875 C 26.664062 797.867188 24.988281 796.921875 23.09375 796.921875 L 20.152344 796.921875 C 21.804688 795.050781 24.1875 793.839844 26.886719 793.839844 C 31.859375 793.839844 35.894531 797.867188 35.894531 802.847656 C 35.894531 807.828125 31.867188 811.863281 26.886719 811.863281 C 24.203125 811.863281 21.804688 810.660156 20.152344 808.792969 L 23.09375 808.792969 C 24.980469 808.792969 26.648438 807.855469 27.675781 806.410156 Z M 27.675781 806.402344 " fill-opacity="1" fill-rule="nonzero"/><path fill="#bfc5cd" d="M 23.09375 67.203125 C 24.988281 67.203125 26.664062 68.144531 27.699219 69.570312 L -24.179688 69.570312 C -23.144531 68.144531 -21.46875 67.203125 -19.570312 67.203125 Z M 23.09375 67.203125 " fill-opacity="1" fill-rule="nonzero"/><path fill="#bfc5cd" d="M -15.671875 79.050781 L -19.570312 79.050781 C -21.46875 79.050781 -23.121094 78.105469 -24.148438 76.695312 L 27.699219 76.695312 C 26.664062 78.121094 24.988281 79.050781 23.09375 79.050781 L -15.679688 79.050781 Z M -15.671875 79.050781 " fill-opacity="1" fill-rule="nonzero"/><path fill="#929aa3" d="M 28.523438 71.261719 C 28.546875 71.335938 28.539062 71.398438 28.554688 71.464844 L -25.023438 71.464844 C -25.007812 71.390625 -25.007812 71.328125 -24.988281 71.261719 C -24.964844 71.175781 -24.933594 71.085938 -24.910156 71.015625 C -24.734375 70.5 -24.484375 70.019531 -24.171875 69.585938 C -24.171875 69.585938 27.707031 69.578125 27.707031 69.578125 C 28.019531 70.019531 28.257812 70.5 28.445312 71.015625 C 28.476562 71.085938 28.5 71.175781 28.53125 71.261719 Z M 28.523438 71.261719 " fill-opacity="1" fill-rule="nonzero"/><path fill="#929aa3" d="M -24.910156 75.242188 C -24.941406 75.152344 -24.964844 75.074219 -24.988281 75 C -25.007812 74.9375 -25.007812 74.855469 -25.023438 74.800781 L 28.554688 74.800781 C 28.539062 74.855469 28.539062 74.9375 28.523438 75 C 28.492188 75.082031 28.46875 75.160156 28.445312 75.242188 C 28.257812 75.761719 28.019531 76.253906 27.707031 76.695312 L -24.164062 76.695312 C -24.484375 76.246094 -24.726562 75.753906 -24.910156 75.242188 Z M -24.910156 75.242188 " fill-opacity="1" fill-rule="nonzero"/><path fill="#798088" d="M -25.054688 74.792969 L -25.054688 74.777344 C -25.167969 74.335938 -25.253906 73.855469 -25.253906 73.347656 L -25.253906 72.882812 C -25.253906 72.394531 -25.167969 71.921875 -25.0625 71.472656 C -25.0625 71.472656 -25.0625 71.457031 -25.0625 71.457031 L 28.574219 71.457031 C 28.691406 71.914062 28.773438 72.386719 28.773438 72.882812 L 28.773438 73.347656 C 28.773438 73.855469 28.691406 74.335938 28.5625 74.785156 L -25.070312 74.785156 Z M -25.054688 74.792969 " fill-opacity="1" fill-rule="nonzero"/><path fill="#bfc5cd" d="M 28.554688 113.203125 C 28.539062 113.277344 28.539062 113.339844 28.523438 113.40625 C 28.546875 113.332031 28.539062 113.269531 28.554688 113.203125 Z M 28.554688 113.203125 " fill-opacity="1" fill-rule="nonzero"/><path fill="#bfc5cd" d="M 27.707031 107.984375 L -24.171875 107.984375 C -23.136719 106.546875 -21.460938 105.617188 -19.5625 105.617188 L 23.101562 105.617188 C 24.996094 105.617188 26.671875 106.546875 27.707031 107.984375 Z M 27.707031 107.984375 " fill-opacity="1" fill-rule="nonzero"/><path fill="#bfc5cd" d="M -15.671875 117.464844 L -19.570312 117.464844 C -21.46875 117.464844 -23.121094 116.515625 -24.148438 115.089844 L 27.675781 115.089844 C 26.640625 116.515625 24.988281 117.464844 23.09375 117.464844 L -15.679688 117.464844 Z M -15.671875 117.464844 " fill-opacity="1" fill-rule="nonzero"/><path fill="#929aa3" d="M -24.988281 109.667969 C -24.964844 109.585938 -24.941406 109.507812 -24.910156 109.410156 C -24.734375 108.90625 -24.484375 108.421875 -24.171875 107.984375 L 27.707031 107.984375 C 28.019531 108.421875 28.257812 108.90625 28.445312 109.425781 C 28.476562 109.507812 28.5 109.59375 28.53125 109.660156 C 28.554688 109.738281 28.546875 109.804688 28.5625 109.867188 L -25.015625 109.867188 C -25 109.796875 -25 109.730469 -24.980469 109.667969 Z M -24.988281 109.667969 " fill-opacity="1" fill-rule="nonzero"/><path fill="#929aa3" d="M -24.910156 113.644531 C -24.941406 113.566406 -24.964844 113.476562 -24.988281 113.40625 C -25.007812 113.332031 -25.007812 113.269531 -25.023438 113.203125 L 28.554688 113.203125 C 28.539062 113.277344 28.539062 113.339844 28.523438 113.40625 C 28.492188 113.492188 28.46875 113.566406 28.445312 113.644531 C 28.257812 114.160156 28.019531 114.648438 27.707031 115.082031 L -24.164062 115.082031 C -24.484375 114.648438 -24.734375 114.160156 -24.910156 113.644531 Z M -24.910156 113.644531 " fill-opacity="1" fill-rule="nonzero"/><path fill="#798088" d="M -25.023438 113.203125 L -25.054688 113.203125 C -25.167969 112.738281 -25.253906 112.273438 -25.253906 111.777344 L -25.253906 111.296875 C -25.253906 110.804688 -25.167969 110.324219 -25.0625 109.875 C -25.0625 109.875 -25.0625 109.867188 -25.0625 109.867188 L 28.574219 109.867188 C 28.691406 110.324219 28.773438 110.796875 28.773438 111.296875 L 28.773438 111.777344 C 28.773438 112.265625 28.691406 112.738281 28.5625 113.203125 L -25.039062 113.203125 Z M -25.023438 113.203125 " fill-opacity="1" fill-rule="nonzero"/><path fill="#bfc5cd" d="M 28.554688 151.601562 C 28.539062 151.679688 28.539062 151.742188 28.523438 151.816406 C 28.546875 151.742188 28.539062 151.679688 28.554688 151.601562 Z M 28.554688 151.601562 " fill-opacity="1" fill-rule="nonzero"/><path fill="#bfc5cd" d="M 27.675781 146.378906 L -24.179688 146.378906 C -23.144531 144.949219 -21.46875 144.019531 -19.570312 144.019531 L 23.09375 144.019531 C 24.988281 144.019531 26.648438 144.949219 27.675781 146.378906 Z M 27.675781 146.378906 " fill-opacity="1" fill-rule="nonzero"/><path fill="#bfc5cd" d="M -15.671875 155.867188 L -19.570312 155.867188 C -21.46875 155.867188 -23.121094 154.929688 -24.148438 153.5 L 27.675781 153.5 C 26.640625 154.929688 24.988281 155.867188 23.09375 155.867188 L -15.679688 155.867188 Z M -15.671875 155.867188 " fill-opacity="1" fill-rule="nonzero"/><path fill="#929aa3" d="M -24.988281 148.078125 C -24.964844 148 -24.941406 147.910156 -24.910156 147.820312 C -24.734375 147.308594 -24.484375 146.828125 -24.171875 146.378906 L 27.707031 146.378906 C 28.019531 146.828125 28.257812 147.308594 28.445312 147.820312 C 28.476562 147.910156 28.5 148 28.53125 148.078125 C 28.554688 148.144531 28.546875 148.214844 28.5625 148.277344 L -25.015625 148.277344 C -25 148.207031 -25 148.144531 -24.980469 148.078125 Z M -24.988281 148.078125 " fill-opacity="1" fill-rule="nonzero"/><path fill="#929aa3" d="M -24.910156 152.058594 C -24.941406 151.976562 -24.964844 151.90625 -24.988281 151.816406 C -25.007812 151.742188 -25.007812 151.679688 -25.023438 151.601562 L 28.554688 151.601562 C 28.539062 151.679688 28.539062 151.742188 28.523438 151.816406 C 28.492188 151.90625 28.46875 151.984375 28.445312 152.058594 C 28.257812 152.578125 28.019531 153.058594 27.707031 153.5 L -24.164062 153.5 C -24.484375 153.066406 -24.734375 152.578125 -24.910156 152.058594 Z M -24.910156 152.058594 " fill-opacity="1" fill-rule="nonzero"/><path fill="#798088" d="M -25.023438 151.601562 L -25.054688 151.601562 C -25.167969 151.140625 -25.253906 150.691406 -25.253906 150.1875 L -25.253906 149.707031 C -25.253906 149.21875 -25.167969 148.734375 -25.0625 148.296875 C -25.0625 148.296875 -25.03125 148.289062 -25.03125 148.289062 L 28.574219 148.289062 C 28.691406 148.746094 28.773438 149.210938 28.773438 149.707031 L 28.773438 150.1875 C 28.773438 150.695312 28.691406 151.152344 28.5625 151.601562 L -25.039062 151.601562 Z M -25.023438 151.601562 " fill-opacity="1" fill-rule="nonzero"/><path fill="#bfc5cd" d="M 27.675781 184.78125 L -24.179688 184.78125 C -23.144531 183.355469 -21.46875 182.40625 -19.570312 182.40625 L 23.09375 182.40625 C 24.988281 182.40625 26.648438 183.355469 27.675781 184.78125 Z M 27.675781 184.78125 " fill-opacity="1" fill-rule="nonzero"/><path fill="#bfc5cd" d="M -15.671875 194.277344 L -19.570312 194.277344 C -21.46875 194.277344 -23.121094 193.332031 -24.148438 191.914062 L 27.675781 191.914062 C 26.640625 193.332031 24.988281 194.277344 23.09375 194.277344 L -15.679688 194.277344 Z M -15.671875 194.277344 " fill-opacity="1" fill-rule="nonzero"/><path fill="#929aa3" d="M -24.988281 186.480469 C -24.964844 186.402344 -24.941406 186.3125 -24.910156 186.226562 C -24.734375 185.71875 -24.484375 185.222656 -24.171875 184.796875 L -24.171875 184.78125 L 27.707031 184.78125 C 28.019531 185.214844 28.257812 185.710938 28.445312 186.21875 C 28.476562 186.304688 28.5 186.386719 28.523438 186.472656 C 28.546875 186.53125 28.539062 186.609375 28.554688 186.675781 L -25.023438 186.675781 C -25.007812 186.609375 -25.007812 186.546875 -24.988281 186.472656 Z M -24.988281 186.480469 " fill-opacity="1" fill-rule="nonzero"/><path fill="#929aa3" d="M -24.910156 190.460938 C -24.941406 190.378906 -24.964844 190.292969 -24.988281 190.21875 C -25.007812 190.148438 -25.007812 190.089844 -25.023438 190.019531 L 28.554688 190.019531 C 28.539062 190.089844 28.539062 190.148438 28.523438 190.21875 C 28.492188 190.300781 28.46875 190.386719 28.445312 190.460938 C 28.257812 190.972656 28.019531 191.464844 27.707031 191.914062 L -24.164062 191.914062 C -24.484375 191.480469 -24.734375 190.980469 -24.910156 190.460938 Z M -24.910156 190.460938 " fill-opacity="1" fill-rule="nonzero"/><path fill="#798088" d="M -25.054688 190.019531 C -25.167969 189.546875 -25.253906 189.082031 -25.253906 188.589844 L -25.253906 188.117188 C -25.253906 187.621094 -25.167969 187.15625 -25.0625 186.699219 C -25.0625 186.699219 -25.0625 186.695312 -25.0625 186.683594 L 28.574219 186.683594 C 28.691406 187.15625 28.773438 187.613281 28.773438 188.117188 L 28.773438 188.589844 C 28.773438 189.082031 28.691406 189.554688 28.5625 190.019531 L -25.070312 190.019531 Z M -25.054688 190.019531 " fill-opacity="1" fill-rule="nonzero"/><path fill="#bfc5cd" d="M 28.554688 228.421875 C 28.539062 228.488281 28.539062 228.550781 28.523438 228.632812 C 28.539062 228.550781 28.539062 228.480469 28.554688 228.421875 Z M 28.554688 228.421875 " fill-opacity="1" fill-rule="nonzero"/><path fill="#bfc5cd" d="M 27.675781 223.203125 L -24.179688 223.203125 C -23.144531 221.765625 -21.46875 220.820312 -19.570312 220.820312 L 23.09375 220.820312 C 24.988281 220.820312 26.648438 221.765625 27.675781 223.203125 Z M 27.675781 223.203125 " fill-opacity="1" fill-rule="nonzero"/><path fill="#bfc5cd" d="M -15.671875 232.675781 L -19.570312 232.675781 C -21.46875 232.675781 -23.144531 231.742188 -24.164062 230.316406 L 27.707031 230.316406 C 26.671875 231.742188 24.996094 232.675781 23.101562 232.675781 Z M -15.671875 232.675781 " fill-opacity="1" fill-rule="nonzero"/><path fill="#929aa3" d="M -24.988281 228.625 C -25.007812 228.550781 -25.007812 228.488281 -25.023438 228.421875 L 28.554688 228.421875 C 28.539062 228.488281 28.539062 228.550781 28.523438 228.632812 C 28.492188 228.703125 28.46875 228.785156 28.445312 228.863281 C 28.257812 229.378906 28.019531 229.867188 27.707031 230.300781 L 27.707031 230.316406 L -24.164062 230.316406 C -24.484375 229.867188 -24.734375 229.386719 -24.910156 228.863281 C -24.941406 228.785156 -24.964844 228.703125 -24.988281 228.625 Z M -24.988281 228.625 " fill-opacity="1" fill-rule="nonzero"/><path fill="#929aa3" d="M -24.988281 224.886719 C -24.964844 224.789062 -24.941406 224.71875 -24.910156 224.628906 C -24.734375 224.117188 -24.484375 223.632812 -24.171875 223.203125 L 27.707031 223.203125 C 28.019531 223.632812 28.257812 224.125 28.445312 224.628906 C 28.476562 224.71875 28.5 224.789062 28.523438 224.871094 C 28.546875 224.949219 28.539062 225.015625 28.554688 225.078125 L -25.023438 225.078125 C -25.007812 225.007812 -25.007812 224.949219 -24.988281 224.878906 Z M -24.988281 224.886719 " fill-opacity="1" fill-rule="nonzero"/><path fill="#798088" d="M -25.023438 228.421875 L -25.0625 228.421875 C -25.175781 227.964844 -25.261719 227.484375 -25.261719 226.980469 L -25.261719 226.515625 C -25.261719 226.023438 -25.175781 225.550781 -25.0625 225.09375 L -25.0625 225.078125 L 28.574219 225.078125 C 28.691406 225.535156 28.773438 226.015625 28.773438 226.507812 L 28.773438 226.972656 C 28.773438 227.476562 28.691406 227.957031 28.5625 228.414062 L -25.03125 228.414062 Z M -25.023438 228.421875 " fill-opacity="1" fill-rule="nonzero"/><path fill="#bfc5cd" d="M 27.675781 261.605469 L -24.148438 261.605469 C -23.121094 260.167969 -21.46875 259.230469 -19.570312 259.230469 L 23.09375 259.230469 C 24.988281 259.230469 26.648438 260.167969 27.675781 261.605469 Z M 27.675781 261.605469 " fill-opacity="1" fill-rule="nonzero"/><path fill="#bfc5cd" d="M -15.671875 271.085938 L -19.570312 271.085938 C -21.46875 271.085938 -23.121094 270.148438 -24.148438 268.710938 L 27.699219 268.710938 C 26.664062 270.148438 24.988281 271.085938 23.09375 271.085938 L -15.679688 271.085938 Z M -15.671875 271.085938 " fill-opacity="1" fill-rule="nonzero"/><path fill="#929aa3" d="M -24.988281 263.304688 C -24.964844 263.21875 -24.941406 263.128906 -24.910156 263.046875 C -24.734375 262.527344 -24.484375 262.046875 -24.171875 261.613281 L 27.707031 261.613281 C 28.019531 262.054688 28.257812 262.527344 28.445312 263.046875 C 28.476562 263.128906 28.5 263.21875 28.523438 263.28125 C 28.546875 263.363281 28.539062 263.425781 28.554688 263.507812 L -25.023438 263.507812 C -25.007812 263.425781 -25.007812 263.363281 -24.988281 263.304688 Z M -24.988281 263.304688 " fill-opacity="1" fill-rule="nonzero"/><path fill="#929aa3" d="M -24.910156 267.285156 C -24.941406 267.195312 -24.964844 267.105469 -24.988281 267.027344 C -25.007812 266.964844 -25.007812 266.890625 -25.023438 266.828125 L 28.554688 266.828125 C 28.539062 266.898438 28.539062 266.980469 28.523438 267.027344 C 28.492188 267.117188 28.46875 267.195312 28.445312 267.269531 C 28.257812 267.78125 28.019531 268.277344 27.707031 268.710938 L -24.164062 268.710938 C -24.484375 268.277344 -24.734375 267.789062 -24.910156 267.285156 Z M -24.910156 267.285156 " fill-opacity="1" fill-rule="nonzero"/><path fill="#798088" d="M -25.054688 266.828125 C -25.167969 266.363281 -25.253906 265.894531 -25.253906 265.40625 L -25.253906 264.925781 C -25.253906 264.4375 -25.167969 263.964844 -25.054688 263.515625 L 28.582031 263.515625 C 28.699219 263.972656 28.78125 264.4375 28.78125 264.925781 L 28.78125 265.40625 C 28.78125 265.894531 28.699219 266.378906 28.574219 266.828125 L -25.0625 266.828125 Z M -25.054688 266.828125 " fill-opacity="1" fill-rule="nonzero"/><path fill="#bfc5cd" d="M 27.675781 300.015625 L -24.148438 300.015625 C -23.121094 298.574219 -21.46875 297.640625 -19.570312 297.640625 L 23.09375 297.640625 C 24.988281 297.640625 26.648438 298.574219 27.675781 300.015625 Z M 27.675781 300.015625 " fill-opacity="1" fill-rule="nonzero"/><path fill="#bfc5cd" d="M -15.671875 309.488281 L -19.570312 309.488281 C -21.46875 309.488281 -23.144531 308.558594 -24.164062 307.125 L 27.691406 307.125 C 26.65625 308.558594 24.988281 309.488281 23.09375 309.488281 L -15.679688 309.488281 Z M -15.671875 309.488281 " fill-opacity="1" fill-rule="nonzero"/><path fill="#929aa3" d="M -24.910156 305.679688 C -24.941406 305.597656 -24.964844 305.511719 -24.988281 305.4375 C -25.007812 305.367188 -25.007812 305.300781 -25.023438 305.238281 L 28.554688 305.238281 C 28.539062 305.308594 28.539062 305.375 28.523438 305.4375 C 28.492188 305.527344 28.46875 305.597656 28.445312 305.679688 C 28.257812 306.199219 28.019531 306.683594 27.707031 307.125 L -24.164062 307.125 C -24.484375 306.683594 -24.734375 306.199219 -24.910156 305.679688 Z M -24.910156 305.679688 " fill-opacity="1" fill-rule="nonzero"/><path fill="#929aa3" d="M -24.988281 301.699219 C -24.964844 301.621094 -24.941406 301.539062 -24.910156 301.445312 C -24.734375 300.9375 -24.484375 300.457031 -24.171875 300.023438 L 27.707031 300.023438 C 28.019531 300.457031 28.257812 300.9375 28.445312 301.460938 C 28.476562 301.539062 28.5 301.628906 28.523438 301.699219 C 28.546875 301.773438 28.539062 301.835938 28.554688 301.902344 L -25.023438 301.902344 C -25.007812 301.84375 -25.007812 301.765625 -24.988281 301.699219 Z M -24.988281 301.699219 " fill-opacity="1" fill-rule="nonzero"/><path fill="#798088" d="M -25.054688 305.230469 C -25.167969 304.765625 -25.253906 304.300781 -25.253906 303.792969 L -25.253906 303.328125 C -25.253906 302.839844 -25.167969 302.367188 -25.054688 301.917969 L -25.054688 301.902344 L 28.582031 301.902344 C 28.699219 302.359375 28.78125 302.832031 28.78125 303.328125 L 28.78125 303.792969 C 28.78125 304.308594 28.699219 304.78125 28.574219 305.230469 L -25.0625 305.230469 Z M -25.054688 305.230469 " fill-opacity="1" fill-rule="nonzero"/><path fill="#bfc5cd" d="M 28.554688 343.640625 C 28.539062 343.714844 28.539062 343.785156 28.523438 343.84375 C 28.539062 343.777344 28.539062 343.707031 28.554688 343.640625 Z M 28.554688 343.640625 " fill-opacity="1" fill-rule="nonzero"/><path fill="#bfc5cd" d="M 27.675781 338.421875 L -24.179688 338.421875 C -23.144531 336.984375 -21.46875 336.03125 -19.570312 336.03125 L 23.09375 336.03125 C 24.988281 336.03125 26.648438 336.976562 27.675781 338.421875 Z M 27.675781 338.421875 " fill-opacity="1" fill-rule="nonzero"/><path fill="#bfc5cd" d="M -15.671875 347.902344 L -19.570312 347.902344 C -21.46875 347.902344 -23.121094 346.960938 -24.148438 345.535156 L 27.675781 345.535156 C 26.640625 346.960938 24.988281 347.902344 23.09375 347.902344 L -15.679688 347.902344 Z M -15.671875 347.902344 " fill-opacity="1" fill-rule="nonzero"/><path fill="#929aa3" d="M -24.988281 340.105469 C -24.964844 340.015625 -24.941406 339.9375 -24.910156 339.855469 C -24.734375 339.34375 -24.484375 338.84375 -24.171875 338.421875 L 27.707031 338.421875 C 28.019531 338.84375 28.257812 339.335938 28.445312 339.863281 C 28.476562 339.9375 28.5 340.015625 28.523438 340.105469 C 28.546875 340.167969 28.539062 340.242188 28.554688 340.3125 L -25.023438 340.3125 C -25.007812 340.234375 -25.007812 340.167969 -24.988281 340.105469 Z M -24.988281 340.105469 " fill-opacity="1" fill-rule="nonzero"/><path fill="#929aa3" d="M -24.910156 344.082031 C -24.941406 344.003906 -24.964844 343.929688 -24.988281 343.84375 C -25.007812 343.777344 -25.007812 343.707031 -25.023438 343.640625 L 28.554688 343.640625 C 28.539062 343.714844 28.539062 343.785156 28.523438 343.84375 C 28.492188 343.929688 28.46875 344.011719 28.445312 344.082031 C 28.257812 344.597656 28.019531 345.085938 27.707031 345.527344 L -24.164062 345.527344 C -24.484375 345.085938 -24.734375 344.597656 -24.910156 344.082031 Z M -24.910156 344.082031 " fill-opacity="1" fill-rule="nonzero"/><path fill="#798088" d="M -25.023438 343.640625 L -25.0625 343.640625 C -25.175781 343.175781 -25.261719 342.710938 -25.261719 342.214844 L -25.261719 341.734375 C -25.261719 341.242188 -25.175781 340.769531 -25.070312 340.3125 L 28.574219 340.3125 C 28.691406 340.769531 28.773438 341.234375 28.773438 341.734375 L 28.773438 342.214844 C 28.773438 342.703125 28.691406 343.183594 28.5625 343.640625 L -25.03125 343.640625 Z M -25.023438 343.640625 " fill-opacity="1" fill-rule="nonzero"/><path fill="#bfc5cd" d="M 28.523438 378.507812 C 28.546875 378.582031 28.539062 378.652344 28.554688 378.707031 C 28.539062 378.652344 28.539062 378.582031 28.523438 378.507812 Z M 28.523438 378.507812 " fill-opacity="1" fill-rule="nonzero"/><path fill="#bfc5cd" d="M 27.675781 376.824219 L -24.148438 376.824219 C -23.121094 375.394531 -21.46875 374.449219 -19.570312 374.449219 L 23.09375 374.449219 C 24.988281 374.449219 26.648438 375.394531 27.675781 376.824219 Z M 27.675781 376.824219 " fill-opacity="1" fill-rule="nonzero"/><path fill="#bfc5cd" d="M -15.679688 386.304688 L -19.570312 386.304688 C -21.46875 386.304688 -23.121094 385.367188 -24.148438 383.9375 L 27.675781 383.9375 C 26.648438 385.367188 24.988281 386.304688 23.09375 386.304688 L -15.6875 386.304688 Z M -15.679688 386.304688 " fill-opacity="1" fill-rule="nonzero"/><path fill="#929aa3" d="M -25.023438 378.707031 C -25.007812 378.652344 -25.007812 378.582031 -24.988281 378.507812 C -24.964844 378.421875 -24.941406 378.339844 -24.910156 378.25 C -24.734375 377.753906 -24.484375 377.257812 -24.171875 376.824219 L 27.707031 376.824219 C 28.019531 377.257812 28.257812 377.746094 28.445312 378.269531 C 28.476562 378.339844 28.5 378.421875 28.523438 378.5 C 28.546875 378.574219 28.539062 378.644531 28.554688 378.699219 L -25.023438 378.699219 Z M -25.023438 378.707031 " fill-opacity="1" fill-rule="nonzero"/><path fill="#929aa3" d="M -24.910156 382.496094 C -24.941406 382.414062 -24.964844 382.34375 -24.988281 382.261719 C -25.007812 382.183594 -25.007812 382.117188 -25.023438 382.054688 L 28.554688 382.054688 C 28.539062 382.125 28.539062 382.191406 28.523438 382.261719 C 28.492188 382.34375 28.46875 382.414062 28.445312 382.496094 C 28.257812 383.007812 28.019531 383.496094 27.707031 383.9375 L -24.164062 383.9375 C -24.484375 383.496094 -24.734375 383.015625 -24.910156 382.496094 Z M -24.910156 382.496094 " fill-opacity="1" fill-rule="nonzero"/><path fill="#798088" d="M -25.054688 382.046875 C -25.167969 381.589844 -25.253906 381.105469 -25.253906 380.609375 L -25.253906 380.144531 C -25.253906 379.65625 -25.167969 379.183594 -25.0625 378.726562 C -25.0625 378.726562 -25.0625 378.71875 -25.0625 378.707031 L 28.574219 378.707031 C 28.691406 379.164062 28.773438 379.648438 28.773438 380.144531 L 28.773438 380.609375 C 28.773438 381.113281 28.691406 381.597656 28.5625 382.046875 L -25.070312 382.046875 Z M -25.054688 382.046875 " fill-opacity="1" fill-rule="nonzero"/><path fill="#bfc5cd" d="M 27.675781 415.234375 L -24.148438 415.234375 C -23.121094 413.808594 -21.46875 412.863281 -19.570312 412.863281 L 23.09375 412.863281 C 24.988281 412.863281 26.648438 413.808594 27.675781 415.234375 Z M 27.675781 415.234375 " fill-opacity="1" fill-rule="nonzero"/><path fill="#bfc5cd" d="M -15.671875 424.707031 L -19.570312 424.707031 C -21.46875 424.707031 -23.121094 423.777344 -24.148438 422.351562 L 27.699219 422.351562 C 26.664062 423.777344 24.988281 424.707031 23.09375 424.707031 L -15.679688 424.707031 Z M -15.671875 424.707031 " fill-opacity="1" fill-rule="nonzero"/><path fill="#929aa3" d="M -24.988281 416.9375 C -24.964844 416.839844 -24.941406 416.75 -24.910156 416.679688 C -24.734375 416.164062 -24.484375 415.675781 -24.171875 415.242188 L 27.707031 415.242188 C 28.019531 415.675781 28.257812 416.164062 28.445312 416.679688 C 28.476562 416.765625 28.5 416.847656 28.523438 416.929688 C 28.546875 416.992188 28.539062 417.054688 28.554688 417.136719 L -25.023438 417.136719 C -25.007812 417.074219 -25.007812 416.992188 -24.988281 416.945312 Z M -24.988281 416.9375 " fill-opacity="1" fill-rule="nonzero"/><path fill="#929aa3" d="M -24.910156 420.90625 C -24.941406 420.816406 -24.964844 420.738281 -24.988281 420.648438 C -25.007812 420.59375 -25.007812 420.511719 -25.023438 420.449219 L 28.554688 420.449219 C 28.539062 420.511719 28.539062 420.59375 28.523438 420.648438 C 28.492188 420.738281 28.46875 420.816406 28.445312 420.90625 C 28.257812 421.417969 28.019531 421.902344 27.707031 422.335938 L 27.707031 422.351562 L -24.164062 422.351562 C -24.484375 421.917969 -24.726562 421.410156 -24.910156 420.914062 Z M -24.910156 420.90625 " fill-opacity="1" fill-rule="nonzero"/><path fill="#798088" d="M -25.054688 420.457031 C -25.167969 419.992188 -25.253906 419.519531 -25.253906 419.03125 L -25.253906 418.546875 C -25.253906 418.058594 -25.167969 417.59375 -25.0625 417.128906 L 28.582031 417.128906 C 28.699219 417.578125 28.78125 418.058594 28.78125 418.546875 L 28.78125 419.03125 C 28.78125 419.519531 28.699219 420 28.574219 420.457031 L -25.0625 420.457031 Z M -25.054688 420.457031 " fill-opacity="1" fill-rule="nonzero"/><path fill="#bfc5cd" d="M 27.675781 453.640625 L -24.148438 453.640625 C -23.121094 452.210938 -21.46875 451.265625 -19.570312 451.265625 L 23.09375 451.265625 C 24.988281 451.265625 26.648438 452.210938 27.675781 453.640625 Z M 27.675781 453.640625 " fill-opacity="1" fill-rule="nonzero"/><path fill="#bfc5cd" d="M -15.671875 463.113281 L -19.570312 463.113281 C -21.46875 463.113281 -23.121094 462.179688 -24.148438 460.753906 L 27.675781 460.753906 C 26.640625 462.179688 24.980469 463.113281 23.09375 463.113281 L -15.679688 463.113281 Z M -15.671875 463.113281 " fill-opacity="1" fill-rule="nonzero"/><path fill="#929aa3" d="M -24.988281 455.324219 C -24.964844 455.242188 -24.941406 455.15625 -24.910156 455.082031 C -24.734375 454.554688 -24.484375 454.082031 -24.171875 453.648438 L 27.707031 453.648438 C 28.019531 454.082031 28.257812 454.570312 28.445312 455.082031 C 28.476562 455.164062 28.5 455.234375 28.523438 455.324219 C 28.546875 455.394531 28.539062 455.460938 28.554688 455.523438 L -25.023438 455.523438 C -25.007812 455.46875 -25.007812 455.394531 -24.988281 455.324219 Z M -24.988281 455.324219 " fill-opacity="1" fill-rule="nonzero"/><path fill="#929aa3" d="M -24.910156 459.316406 C -24.941406 459.230469 -24.964844 459.148438 -24.988281 459.0625 C -25.007812 458.996094 -25.007812 458.925781 -25.023438 458.859375 L 28.554688 458.859375 C 28.539062 458.933594 28.539062 458.996094 28.523438 459.0625 C 28.492188 459.148438 28.46875 459.230469 28.4375 459.300781 C 28.257812 459.824219 28.011719 460.320312 27.699219 460.753906 L -24.171875 460.753906 C -24.492188 460.320312 -24.734375 459.824219 -24.917969 459.316406 Z M -24.910156 459.316406 " fill-opacity="1" fill-rule="nonzero"/><path fill="#798088" d="M -25.054688 458.851562 C -25.167969 458.386719 -25.253906 457.929688 -25.253906 457.433594 L -25.253906 456.953125 C -25.253906 456.453125 -25.167969 455.988281 -25.0625 455.53125 C -25.0625 455.53125 -25.0625 455.515625 -25.0625 455.515625 L 28.574219 455.515625 C 28.691406 455.972656 28.773438 456.445312 28.773438 456.945312 L 28.773438 457.425781 C 28.773438 457.921875 28.691406 458.394531 28.5625 458.84375 L -25.070312 458.84375 Z M -25.054688 458.851562 " fill-opacity="1" fill-rule="nonzero"/><path fill="#bfc5cd" d="M 27.707031 492.050781 L -24.171875 492.050781 C -23.136719 490.605469 -21.460938 489.660156 -19.5625 489.660156 L 23.101562 489.660156 C 24.996094 489.660156 26.671875 490.597656 27.707031 492.050781 Z M 27.707031 492.050781 " fill-opacity="1" fill-rule="nonzero"/><path fill="#bfc5cd" d="M -15.671875 501.53125 L -19.570312 501.53125 C -21.46875 501.53125 -23.121094 500.585938 -24.148438 499.140625 L 27.675781 499.140625 C 26.640625 500.585938 24.988281 501.53125 23.09375 501.53125 L -15.679688 501.53125 Z M -15.671875 501.53125 " fill-opacity="1" fill-rule="nonzero"/><path fill="#929aa3" d="M -24.988281 493.726562 C -24.964844 493.648438 -24.941406 493.558594 -24.910156 493.480469 C -24.734375 492.964844 -24.484375 492.476562 -24.171875 492.042969 L 27.707031 492.042969 C 28.019531 492.476562 28.257812 492.964844 28.445312 493.480469 C 28.476562 493.558594 28.5 493.632812 28.53125 493.726562 C 28.554688 493.800781 28.546875 493.855469 28.5625 493.9375 L -25.015625 493.9375 C -25 493.863281 -25 493.792969 -24.980469 493.726562 Z M -24.988281 493.726562 " fill-opacity="1" fill-rule="nonzero"/><path fill="#929aa3" d="M -24.910156 497.722656 C -24.941406 497.632812 -24.964844 497.546875 -24.988281 497.464844 C -25.007812 497.394531 -25.007812 497.328125 -25.023438 497.265625 L 28.554688 497.265625 C 28.539062 497.335938 28.539062 497.402344 28.523438 497.464844 C 28.492188 497.554688 28.46875 497.632812 28.4375 497.707031 C 28.257812 498.21875 28.011719 498.714844 27.699219 499.140625 L -24.171875 499.140625 C -24.492188 498.714844 -24.734375 498.21875 -24.917969 497.722656 Z M -24.910156 497.722656 " fill-opacity="1" fill-rule="nonzero"/><path fill="#798088" d="M -25.054688 497.257812 C -25.167969 496.792969 -25.253906 496.332031 -25.253906 495.828125 L -25.253906 495.347656 C -25.253906 494.859375 -25.167969 494.386719 -25.054688 493.9375 L 28.582031 493.9375 C 28.699219 494.394531 28.78125 494.859375 28.78125 495.347656 L 28.78125 495.828125 C 28.78125 496.332031 28.699219 496.792969 28.574219 497.257812 L -25.0625 497.257812 Z M -25.054688 497.257812 " fill-opacity="1" fill-rule="nonzero"/><path fill="#bfc5cd" d="M 28.554688 535.667969 C 28.539062 535.738281 28.539062 535.804688 28.523438 535.875 C 28.546875 535.796875 28.539062 535.714844 28.554688 535.667969 Z M 28.554688 535.667969 " fill-opacity="1" fill-rule="nonzero"/><path fill="#bfc5cd" d="M 27.675781 530.445312 L -24.179688 530.445312 C -23.144531 529.027344 -21.46875 528.070312 -19.570312 528.070312 L 23.09375 528.070312 C 24.988281 528.070312 26.648438 529.019531 27.675781 530.445312 Z M 27.675781 530.445312 " fill-opacity="1" fill-rule="nonzero"/><path fill="#bfc5cd" d="M -15.679688 539.925781 L -19.570312 539.925781 C -21.46875 539.925781 -23.121094 538.988281 -24.148438 537.570312 L 27.675781 537.570312 C 26.640625 538.988281 24.980469 539.925781 23.09375 539.925781 L -15.6875 539.925781 Z M -15.679688 539.925781 " fill-opacity="1" fill-rule="nonzero"/><path fill="#929aa3" d="M -24.988281 532.128906 C -24.964844 532.042969 -24.941406 531.960938 -24.910156 531.890625 C -24.734375 531.367188 -24.484375 530.878906 -24.171875 530.445312 L 27.707031 530.445312 C 28.019531 530.878906 28.257812 531.375 28.445312 531.898438 C 28.476562 531.960938 28.5 532.042969 28.523438 532.128906 C 28.546875 532.195312 28.539062 532.273438 28.554688 532.347656 L -25.023438 532.347656 C -25.007812 532.273438 -25.007812 532.195312 -24.988281 532.128906 Z M -24.988281 532.128906 " fill-opacity="1" fill-rule="nonzero"/><path fill="#929aa3" d="M -24.910156 536.125 C -24.941406 536.035156 -24.964844 535.957031 -24.988281 535.867188 C -25.007812 535.796875 -25.007812 535.714844 -25.023438 535.667969 L 28.554688 535.667969 C 28.539062 535.722656 28.539062 535.804688 28.523438 535.875 C 28.492188 535.957031 28.46875 536.035156 28.4375 536.125 C 28.257812 536.636719 28.011719 537.136719 27.699219 537.570312 L -24.171875 537.570312 C -24.492188 537.136719 -24.734375 536.636719 -24.917969 536.125 Z M -24.910156 536.125 " fill-opacity="1" fill-rule="nonzero"/><path fill="#798088" d="M -25.023438 535.667969 L -25.054688 535.667969 C -25.167969 535.210938 -25.253906 534.738281 -25.253906 534.238281 L -25.253906 533.757812 C -25.253906 533.269531 -25.167969 532.796875 -25.0625 532.347656 L 28.582031 532.347656 C 28.699219 532.804688 28.78125 533.269531 28.78125 533.757812 L 28.78125 534.238281 C 28.78125 534.730469 28.699219 535.210938 28.574219 535.667969 L -25.03125 535.667969 Z M -25.023438 535.667969 " fill-opacity="1" fill-rule="nonzero"/><path fill="#bfc5cd" d="M 27.675781 568.859375 L -24.179688 568.859375 C -23.144531 567.429688 -21.46875 566.484375 -19.570312 566.484375 L 23.09375 566.484375 C 24.988281 566.484375 26.648438 567.429688 27.675781 568.859375 Z M 27.675781 568.859375 " fill-opacity="1" fill-rule="nonzero"/><path fill="#bfc5cd" d="M -15.679688 578.339844 L -19.570312 578.339844 C -21.46875 578.339844 -23.121094 577.398438 -24.148438 575.972656 L 27.699219 575.972656 C 26.664062 577.398438 24.988281 578.339844 23.09375 578.339844 L -15.6875 578.339844 Z M -15.679688 578.339844 " fill-opacity="1" fill-rule="nonzero"/><path fill="#929aa3" d="M -24.988281 570.550781 C -24.964844 570.460938 -24.941406 570.382812 -24.910156 570.292969 C -24.734375 569.789062 -24.484375 569.292969 -24.171875 568.859375 L 27.707031 568.859375 C 28.019531 569.292969 28.257812 569.789062 28.445312 570.292969 C 28.476562 570.382812 28.5 570.460938 28.523438 570.535156 C 28.546875 570.605469 28.539062 570.6875 28.554688 570.742188 L -25.023438 570.742188 C -25.007812 570.679688 -25.007812 570.597656 -24.988281 570.550781 Z M -24.988281 570.550781 " fill-opacity="1" fill-rule="nonzero"/><path fill="#929aa3" d="M -24.910156 574.527344 C -24.941406 574.441406 -24.964844 574.367188 -24.988281 574.28125 C -25.007812 574.214844 -25.007812 574.144531 -25.023438 574.078125 L 28.554688 574.078125 C 28.539062 574.152344 28.539062 574.222656 28.523438 574.28125 C 28.492188 574.367188 28.46875 574.441406 28.445312 574.527344 C 28.257812 575.042969 28.019531 575.53125 27.707031 575.964844 L -24.164062 575.964844 C -24.484375 575.53125 -24.734375 575.042969 -24.910156 574.527344 Z M -24.910156 574.527344 " fill-opacity="1" fill-rule="nonzero"/><path fill="#798088" d="M -25.054688 574.070312 C -25.167969 573.613281 -25.253906 573.132812 -25.253906 572.644531 L -25.253906 572.164062 C -25.253906 571.671875 -25.167969 571.199219 -25.0625 570.742188 L 28.582031 570.742188 C 28.699219 571.207031 28.78125 571.671875 28.78125 572.164062 L 28.78125 572.644531 C 28.78125 573.132812 28.699219 573.613281 28.574219 574.070312 L -25.0625 574.070312 Z M -25.054688 574.070312 " fill-opacity="1" fill-rule="nonzero"/><path fill="#bfc5cd" d="M 28.523438 608.945312 C 28.546875 609.011719 28.5625 609.082031 28.582031 609.148438 L 28.554688 609.148438 C 28.539062 609.089844 28.539062 609.011719 28.523438 608.945312 Z M 28.523438 608.945312 " fill-opacity="1" fill-rule="nonzero"/><path fill="#bfc5cd" d="M 27.675781 607.261719 L -24.179688 607.261719 C -23.144531 605.832031 -21.46875 604.886719 -19.570312 604.886719 L 23.09375 604.886719 C 24.988281 604.886719 26.648438 605.832031 27.675781 607.261719 Z M 27.675781 607.261719 " fill-opacity="1" fill-rule="nonzero"/><path fill="#bfc5cd" d="M -15.671875 616.734375 L -19.570312 616.734375 C -21.46875 616.734375 -23.121094 615.804688 -24.148438 614.375 L 27.675781 614.375 C 26.648438 615.804688 24.988281 616.734375 23.09375 616.734375 L -15.679688 616.734375 Z M -15.671875 616.734375 " fill-opacity="1" fill-rule="nonzero"/><path fill="#929aa3" d="M -25.023438 609.148438 C -25.007812 609.089844 -25.007812 609.011719 -24.988281 608.945312 C -24.964844 608.867188 -24.941406 608.777344 -24.910156 608.699219 C -24.734375 608.183594 -24.484375 607.695312 -24.171875 607.261719 L 27.707031 607.261719 C 28.019531 607.695312 28.257812 608.183594 28.445312 608.699219 C 28.476562 608.785156 28.5 608.867188 28.523438 608.945312 C 28.546875 609.011719 28.539062 609.089844 28.554688 609.148438 Z M -25.023438 609.148438 " fill-opacity="1" fill-rule="nonzero"/><path fill="#929aa3" d="M -24.910156 612.933594 C -24.941406 612.851562 -24.964844 612.773438 -24.988281 612.691406 C -25.007812 612.628906 -25.007812 612.554688 -25.023438 612.492188 L 28.554688 612.492188 C 28.539062 612.554688 28.539062 612.636719 28.523438 612.699219 C 28.492188 612.78125 28.46875 612.851562 28.445312 612.933594 C 28.257812 613.453125 28.019531 613.941406 27.707031 614.375 L -24.164062 614.375 C -24.484375 613.941406 -24.734375 613.453125 -24.910156 612.933594 Z M -24.910156 612.933594 " fill-opacity="1" fill-rule="nonzero"/><path fill="#798088" d="M -25.054688 612.484375 C -25.167969 612.027344 -25.253906 611.554688 -25.253906 611.054688 L -25.253906 610.582031 C -25.253906 610.085938 -25.167969 609.621094 -25.0625 609.171875 C -25.0625 609.15625 -25.0625 609.15625 -25.0625 609.144531 L 28.574219 609.144531 C 28.691406 609.605469 28.773438 610.085938 28.773438 610.582031 L 28.773438 611.054688 C 28.773438 611.550781 28.691406 612.027344 28.5625 612.484375 L -25.070312 612.484375 Z M -25.054688 612.484375 " fill-opacity="1" fill-rule="nonzero"/><path fill="#bfc5cd" d="M 28.523438 647.351562 C 28.546875 647.421875 28.539062 647.484375 28.554688 647.558594 C 28.539062 647.484375 28.539062 647.414062 28.523438 647.351562 Z M 28.523438 647.351562 " fill-opacity="1" fill-rule="nonzero"/><path fill="#bfc5cd" d="M 27.675781 645.671875 L -24.148438 645.671875 C -23.121094 644.246094 -21.46875 643.300781 -19.570312 643.300781 L 23.09375 643.300781 C 24.988281 643.300781 26.648438 644.246094 27.675781 645.671875 Z M 27.675781 645.671875 " fill-opacity="1" fill-rule="nonzero"/><path fill="#bfc5cd" d="M -15.671875 655.160156 L -19.570312 655.160156 C -21.46875 655.160156 -23.121094 654.214844 -24.148438 652.789062 L 27.699219 652.789062 C 26.664062 654.214844 24.988281 655.160156 23.09375 655.160156 L -15.679688 655.160156 Z M -15.671875 655.160156 " fill-opacity="1" fill-rule="nonzero"/><path fill="#929aa3" d="M -25.023438 647.566406 C -25.007812 647.503906 -25.007812 647.421875 -24.988281 647.367188 C -24.964844 647.285156 -24.941406 647.1875 -24.910156 647.117188 C -24.734375 646.605469 -24.484375 646.113281 -24.171875 645.679688 L 27.707031 645.679688 C 28.019531 646.113281 28.257812 646.605469 28.445312 647.117188 C 28.476562 647.195312 28.5 647.285156 28.523438 647.359375 C 28.546875 647.429688 28.539062 647.492188 28.554688 647.566406 Z M -25.023438 647.566406 " fill-opacity="1" fill-rule="nonzero"/><path fill="#929aa3" d="M -24.910156 651.328125 C -24.941406 651.253906 -24.964844 651.175781 -24.988281 651.09375 C -25.007812 651.03125 -25.007812 650.949219 -25.023438 650.886719 L 28.554688 650.886719 C 28.539062 650.960938 28.539062 651.03125 28.523438 651.09375 C 28.492188 651.175781 28.46875 651.253906 28.445312 651.328125 C 28.257812 651.855469 28.019531 652.347656 27.707031 652.78125 L -24.164062 652.78125 C -24.484375 652.347656 -24.726562 651.855469 -24.910156 651.328125 Z M -24.910156 651.328125 " fill-opacity="1" fill-rule="nonzero"/><path fill="#798088" d="M -25.054688 650.886719 C -25.167969 650.429688 -25.253906 649.957031 -25.253906 649.46875 L -25.253906 648.984375 C -25.253906 648.488281 -25.167969 648.023438 -25.0625 647.566406 L 28.582031 647.566406 C 28.699219 648.023438 28.78125 648.488281 28.78125 648.984375 L 28.78125 649.46875 C 28.78125 649.964844 28.699219 650.445312 28.574219 650.886719 L -25.0625 650.886719 Z M -25.054688 650.886719 " fill-opacity="1" fill-rule="nonzero"/><path fill="#bfc5cd" d="M 27.675781 684.078125 L -24.148438 684.078125 C -23.121094 682.640625 -21.46875 681.703125 -19.570312 681.703125 L 23.09375 681.703125 C 24.988281 681.703125 26.648438 682.640625 27.675781 684.078125 Z M 27.675781 684.078125 " fill-opacity="1" fill-rule="nonzero"/><path fill="#bfc5cd" d="M -15.671875 693.566406 L -19.570312 693.566406 C -21.46875 693.566406 -23.121094 692.617188 -24.148438 691.191406 L 27.675781 691.191406 C 26.640625 692.617188 24.988281 693.566406 23.09375 693.566406 L -15.679688 693.566406 Z M -15.671875 693.566406 " fill-opacity="1" fill-rule="nonzero"/><path fill="#929aa3" d="M -24.988281 685.769531 C -24.964844 685.679688 -24.941406 685.609375 -24.910156 685.519531 C -24.734375 685.007812 -24.484375 684.519531 -24.171875 684.085938 L 27.707031 684.085938 C 28.019531 684.519531 28.257812 685.007812 28.445312 685.527344 C 28.476562 685.609375 28.5 685.679688 28.523438 685.761719 C 28.546875 685.832031 28.539062 685.90625 28.554688 685.960938 L -25.023438 685.960938 C -25.007812 685.90625 -25.007812 685.832031 -24.988281 685.769531 Z M -24.988281 685.769531 " fill-opacity="1" fill-rule="nonzero"/><path fill="#929aa3" d="M -24.910156 689.753906 C -24.941406 689.667969 -24.964844 689.585938 -24.988281 689.507812 C -25.007812 689.441406 -25.007812 689.363281 -25.023438 689.296875 L 28.554688 689.296875 C 28.539062 689.363281 28.539062 689.441406 28.523438 689.507812 C 28.492188 689.585938 28.46875 689.667969 28.445312 689.753906 C 28.257812 690.253906 28.019531 690.742188 27.707031 691.191406 L -24.164062 691.191406 C -24.484375 690.742188 -24.734375 690.269531 -24.910156 689.753906 Z M -24.910156 689.753906 " fill-opacity="1" fill-rule="nonzero"/><path fill="#798088" d="M -25.054688 689.289062 C -25.167969 688.832031 -25.253906 688.367188 -25.253906 687.863281 L -25.253906 687.398438 C -25.253906 686.898438 -25.167969 686.425781 -25.0625 685.984375 C -25.0625 685.96875 -25.0625 685.960938 -25.0625 685.960938 L 28.574219 685.960938 C 28.691406 686.425781 28.773438 686.898438 28.773438 687.398438 L 28.773438 687.863281 C 28.773438 688.367188 28.691406 688.832031 28.5625 689.289062 L -25.070312 689.289062 Z M -25.054688 689.289062 " fill-opacity="1" fill-rule="nonzero"/><path fill="#bfc5cd" d="M 28.554688 727.695312 C 28.539062 727.765625 28.539062 727.847656 28.523438 727.910156 C 28.546875 727.847656 28.539062 727.765625 28.554688 727.695312 Z M 28.554688 727.695312 " fill-opacity="1" fill-rule="nonzero"/><path fill="#bfc5cd" d="M 27.675781 722.480469 L -24.179688 722.480469 C -23.144531 721.0625 -21.46875 720.105469 -19.570312 720.105469 L 23.09375 720.105469 C 24.988281 720.105469 26.648438 721.054688 27.675781 722.480469 Z M 27.675781 722.480469 " fill-opacity="1" fill-rule="nonzero"/><path fill="#bfc5cd" d="M -15.679688 731.96875 L -19.570312 731.96875 C -21.46875 731.96875 -23.121094 731.023438 -24.148438 729.609375 L 27.675781 729.609375 C 26.648438 731.023438 24.988281 731.96875 23.09375 731.96875 L -15.6875 731.96875 Z M -15.679688 731.96875 " fill-opacity="1" fill-rule="nonzero"/><path fill="#929aa3" d="M -24.988281 724.171875 C -24.964844 724.085938 -24.933594 723.996094 -24.910156 723.910156 C -24.734375 723.402344 -24.484375 722.90625 -24.171875 722.472656 L 27.707031 722.472656 C 28.019531 722.90625 28.257812 723.402344 28.445312 723.917969 C 28.476562 723.996094 28.5 724.078125 28.53125 724.164062 C 28.554688 724.222656 28.546875 724.300781 28.5625 724.367188 L -25.015625 724.367188 C -25 724.292969 -25 724.230469 -24.980469 724.164062 Z M -24.988281 724.171875 " fill-opacity="1" fill-rule="nonzero"/><path fill="#929aa3" d="M -24.910156 728.160156 C -24.941406 728.070312 -24.964844 727.992188 -24.988281 727.917969 C -25.007812 727.855469 -25.007812 727.773438 -25.023438 727.703125 L 28.554688 727.703125 C 28.539062 727.773438 28.539062 727.855469 28.523438 727.917969 C 28.492188 728 28.46875 728.078125 28.445312 728.160156 C 28.257812 728.671875 28.019531 729.171875 27.707031 729.609375 L -24.164062 729.609375 C -24.484375 729.160156 -24.734375 728.671875 -24.910156 728.160156 Z M -24.910156 728.160156 " fill-opacity="1" fill-rule="nonzero"/><path fill="#798088" d="M -25.023438 727.695312 L -25.054688 727.695312 C -25.167969 727.238281 -25.253906 726.773438 -25.253906 726.265625 L -25.253906 725.800781 C -25.253906 725.296875 -25.167969 724.832031 -25.0625 724.382812 C -25.0625 724.382812 -25.03125 724.375 -25.03125 724.375 L 28.574219 724.375 C 28.691406 724.832031 28.773438 725.296875 28.773438 725.800781 L 28.773438 726.265625 C 28.773438 726.773438 28.691406 727.238281 28.5625 727.695312 L -25.039062 727.695312 Z M -25.023438 727.695312 " fill-opacity="1" fill-rule="nonzero"/><path fill="#bfc5cd" d="M 28.554688 766.105469 C 28.539062 766.179688 28.539062 766.25 28.523438 766.324219 C 28.539062 766.25 28.539062 766.179688 28.554688 766.105469 Z M 28.554688 766.105469 " fill-opacity="1" fill-rule="nonzero"/><path fill="#bfc5cd" d="M 27.675781 760.882812 L -24.179688 760.882812 C -23.144531 759.449219 -21.46875 758.511719 -19.570312 758.511719 L 23.09375 758.511719 C 24.988281 758.511719 26.648438 759.457031 27.675781 760.882812 Z M 27.675781 760.882812 " fill-opacity="1" fill-rule="nonzero"/><path fill="#bfc5cd" d="M -15.671875 770.363281 L -19.570312 770.363281 C -21.46875 770.363281 -23.121094 769.425781 -24.148438 768 L 27.675781 768 C 26.648438 769.425781 24.988281 770.363281 23.09375 770.363281 L -15.679688 770.363281 Z M -15.671875 770.363281 " fill-opacity="1" fill-rule="nonzero"/><path fill="#929aa3" d="M -24.988281 762.570312 C -24.964844 762.488281 -24.941406 762.40625 -24.910156 762.320312 C -24.734375 761.796875 -24.484375 761.316406 -24.171875 760.882812 L 27.707031 760.882812 C 28.019531 761.316406 28.257812 761.816406 28.445312 762.320312 C 28.476562 762.40625 28.5 762.488281 28.523438 762.570312 C 28.546875 762.632812 28.539062 762.714844 28.554688 762.769531 L -25.023438 762.769531 C -25.007812 762.714844 -25.007812 762.632812 -24.988281 762.570312 Z M -24.988281 762.570312 " fill-opacity="1" fill-rule="nonzero"/><path fill="#929aa3" d="M -24.910156 766.5625 C -24.941406 766.484375 -24.964844 766.394531 -24.988281 766.324219 C -25.007812 766.25 -25.007812 766.179688 -25.023438 766.105469 L 28.554688 766.105469 C 28.539062 766.179688 28.539062 766.25 28.523438 766.324219 C 28.492188 766.402344 28.46875 766.484375 28.445312 766.554688 C 28.257812 767.078125 28.019531 767.566406 27.707031 768.007812 L -24.164062 768.007812 C -24.484375 767.566406 -24.734375 767.085938 -24.910156 766.570312 Z M -24.910156 766.5625 " fill-opacity="1" fill-rule="nonzero"/><path fill="#798088" d="M -25.023438 766.105469 L -25.054688 766.105469 C -25.167969 765.648438 -25.253906 765.183594 -25.253906 764.679688 L -25.253906 764.210938 C -25.253906 763.707031 -25.167969 763.242188 -25.0625 762.792969 C -25.0625 762.792969 -25.0625 762.785156 -25.0625 762.769531 L 28.574219 762.769531 C 28.691406 763.242188 28.773438 763.707031 28.773438 764.210938 L 28.773438 764.679688 C 28.773438 765.175781 28.691406 765.648438 28.5625 766.105469 L -25.039062 766.105469 Z M -25.023438 766.105469 " fill-opacity="1" fill-rule="nonzero"/><path fill="#bfc5cd" d="M 28.554688 804.507812 C 28.539062 804.574219 28.539062 804.652344 28.523438 804.71875 C 28.546875 804.644531 28.539062 804.574219 28.554688 804.507812 Z M 28.554688 804.507812 " fill-opacity="1" fill-rule="nonzero"/><path fill="#bfc5cd" d="M 27.707031 799.296875 L -24.171875 799.296875 C -23.136719 797.867188 -21.460938 796.921875 -19.5625 796.921875 L 23.101562 796.921875 C 24.996094 796.921875 26.671875 797.867188 27.707031 799.296875 Z M 27.707031 799.296875 " fill-opacity="1" fill-rule="nonzero"/><path fill="#bfc5cd" d="M -15.671875 808.785156 L -19.570312 808.785156 C -21.46875 808.785156 -23.121094 807.847656 -24.148438 806.402344 L 27.675781 806.402344 C 26.640625 807.839844 24.980469 808.785156 23.09375 808.785156 L -15.679688 808.785156 Z M -15.671875 808.785156 " fill-opacity="1" fill-rule="nonzero"/><path fill="#929aa3" d="M -24.988281 800.988281 C -24.964844 800.898438 -24.933594 800.8125 -24.910156 800.714844 C -24.734375 800.210938 -24.484375 799.722656 -24.171875 799.289062 L 27.707031 799.289062 C 28.019531 799.722656 28.257812 800.210938 28.445312 800.722656 C 28.476562 800.804688 28.5 800.890625 28.53125 800.972656 C 28.554688 801.050781 28.546875 801.117188 28.5625 801.1875 L -25.015625 801.1875 C -25 801.117188 -25 801.050781 -24.980469 800.988281 Z M -24.988281 800.988281 " fill-opacity="1" fill-rule="nonzero"/><path fill="#929aa3" d="M -24.910156 804.957031 C -24.941406 804.878906 -24.964844 804.804688 -24.988281 804.726562 C -25.007812 804.652344 -25.007812 804.582031 -25.023438 804.515625 L 28.554688 804.515625 C 28.539062 804.582031 28.539062 804.660156 28.523438 804.726562 C 28.492188 804.8125 28.46875 804.878906 28.445312 804.957031 C 28.257812 805.480469 28.019531 805.96875 27.707031 806.402344 L -24.164062 806.402344 C -24.484375 805.96875 -24.734375 805.480469 -24.910156 804.957031 Z M -24.910156 804.957031 " fill-opacity="1" fill-rule="nonzero"/><path fill="#798088" d="M -25.023438 804.507812 L -25.054688 804.507812 C -25.167969 804.058594 -25.253906 803.585938 -25.253906 803.082031 L -25.253906 802.609375 C -25.253906 802.109375 -25.167969 801.652344 -25.0625 801.1875 L 28.582031 801.1875 C 28.699219 801.644531 28.78125 802.109375 28.78125 802.609375 L 28.78125 803.082031 C 28.78125 803.578125 28.699219 804.058594 28.574219 804.507812 L -25.03125 804.507812 Z M -25.023438 804.507812 " fill-opacity="1" fill-rule="nonzero"/></svg>