<?xml version="1.0" encoding="UTF-8"?>
<svg xmlns="http://www.w3.org/2000/svg" xmlns:xlink="http://www.w3.org/1999/xlink" viewBox="0 0 297.31 184.04">
  <defs>
    <style>
      .cls-1 {
        fill: #fadfb6;
      }

      .cls-2 {
        fill: #deb481;
      }

      .cls-3 {
        fill: #d4ecf0;
      }

      .cls-4 {
        fill: #3765ae;
      }

      .cls-5 {
        fill: url(#linear-gradient);
        mix-blend-mode: multiply;
      }

      .cls-6 {
        isolation: isolate;
      }
    </style>
    <linearGradient id="linear-gradient" x1="117.14" y1="238.68" x2="136.39" y2="-307.32" gradientUnits="userSpaceOnUse">
      <stop offset="0" stop-color="#fff"/>
      <stop offset="1" stop-color="#231f20"/>
    </linearGradient>
  </defs>
  <g class="cls-6">
    <g id="Capa_2" data-name="Capa 2">
      <g id="Capa_1-2" data-name="Capa 1">
        <g>
          <path class="cls-5" d="m8.89,40.48h210.79s-15.22,71.78,19.1,143.57H13.45S-8.18,125.16,8.89,40.48Z"/>
          <path class="cls-2" d="m5.63,13.05h216.37s-15.22,71.78,19.1,143.57H15.78S-11.45,97.73,5.63,13.05Z"/>
          <path class="cls-1" d="m4.84,13.05h216.37s-15.22,71.78,19.1,143.57l-215.52-3.77S-12.23,97.73,4.84,13.05Z"/>
        </g>
        <g>
          <path class="cls-4" d="m27.61,37.13h.86v7.77h3.31v.84h-4.17v-8.61Z"/>
          <path class="cls-4" d="m38.26,39.37h.8v6.37h-.8v-1.09c-.7.84-1.57,1.25-2.57,1.25-1.86,0-3.26-1.55-3.26-3.36s1.44-3.33,3.29-3.33c1.03,0,1.91.44,2.54,1.33v-1.16Zm-4.99,3.19c0,1.38,1.08,2.59,2.51,2.59,1.31,0,2.54-.98,2.54-2.57,0-1.48-1.1-2.59-2.53-2.59s-2.52,1.2-2.52,2.57Z"/>
          <path class="cls-4" d="m40.54,44.41c.41.46.85.71,1.33.71.62,0,1.17-.46,1.17-1.05,0-.37-.22-.72-.53-.89-1.46-.82-2.21-1.16-2.21-2.28,0-1.01.78-1.69,1.75-1.69.7,0,1.22.34,1.76.86l-.53.54c-.38-.37-.77-.61-1.28-.61s-.96.37-.96.85c0,.32.2.68.49.85,1.46.85,2.28,1.18,2.28,2.33,0,1-.77,1.88-1.92,1.88-.71,0-1.43-.32-1.88-.91l.52-.59Z"/>
          <path class="cls-4" d="m58.7,39.24c-.76-1-1.83-1.49-3.07-1.49-2.04,0-3.75,1.51-3.75,3.71s1.63,3.69,3.8,3.69c1.2,0,2.22-.49,3.02-1.43l.68.52c-.89,1.12-2.2,1.7-3.77,1.7-2.88,0-4.64-2.03-4.64-4.56s1.97-4.47,4.64-4.47c1.58,0,2.92.62,3.77,1.81l-.68.52Z"/>
          <path class="cls-4" d="m67.03,42.57c0,1.81-1.4,3.33-3.32,3.33s-3.32-1.52-3.32-3.33,1.42-3.37,3.32-3.37,3.32,1.55,3.32,3.37Zm-5.8.01c0,1.39,1.04,2.53,2.48,2.53s2.48-1.14,2.48-2.53-1.13-2.59-2.48-2.59-2.48,1.18-2.48,2.59Z"/>
          <path class="cls-4" d="m74.59,42.57c0,1.81-1.4,3.33-3.32,3.33s-3.32-1.52-3.32-3.33,1.42-3.37,3.32-3.37,3.32,1.55,3.32,3.37Zm-5.8.01c0,1.39,1.04,2.53,2.48,2.53s2.48-1.14,2.48-2.53-1.13-2.59-2.48-2.59-2.48,1.18-2.48,2.59Z"/>
          <path class="cls-4" d="m76.63,40.53c.64-.89,1.51-1.33,2.53-1.33,1.86,0,3.3,1.52,3.3,3.33s-1.4,3.36-3.27,3.36c-1,0-1.86-.41-2.55-1.25v3.42h-.82v-8.7h.82v1.16Zm-.06,2.05c0,1.58,1.22,2.57,2.53,2.57,1.42,0,2.52-1.2,2.52-2.59s-1.06-2.57-2.52-2.57-2.53,1.12-2.53,2.59Z"/>
          <path class="cls-4" d="m84.23,42.62c.04,1.46,1.03,2.53,2.4,2.53s1.97-.75,2.43-1.52l.68.36c-.65,1.27-1.64,1.91-3.03,1.91-2.11,0-3.32-1.62-3.32-3.32s1.28-3.37,3.27-3.37c1.81,0,3.27,1.31,3.3,3.42h-5.73Zm4.83-.72c-.34-1.32-1.28-1.91-2.39-1.91s-1.99.61-2.36,1.91h4.75Z"/>
          <path class="cls-4" d="m91.73,40.29c.48-.7,1-1.09,1.64-1.09.37,0,.56.12.73.22l-.43.7c-.1-.05-.25-.12-.43-.12-.6,0-1.14.52-1.38,1.39-.11.41-.13,1.07-.13,1.93v2.42h-.86v-6.37h.86v.92Z"/>
          <path class="cls-4" d="m100.04,39.37h.8v6.37h-.8v-1.09c-.7.84-1.57,1.25-2.57,1.25-1.86,0-3.26-1.55-3.26-3.36s1.44-3.33,3.29-3.33c1.03,0,1.91.44,2.54,1.33v-1.16Zm-4.99,3.19c0,1.38,1.08,2.59,2.51,2.59,1.31,0,2.54-.98,2.54-2.57,0-1.48-1.1-2.59-2.53-2.59s-2.52,1.2-2.52,2.57Z"/>
          <path class="cls-4" d="m103.13,36.99h.82v2.38h1.31v.72h-1.31v5.65h-.82v-5.65h-1.13v-.72h1.13v-2.38Z"/>
          <path class="cls-4" d="m107.14,37.41c0,.37-.31.68-.68.68s-.67-.31-.67-.68.31-.67.67-.67.68.3.68.67Zm-1.08,1.96h.82v6.37h-.82v-6.37Z"/>
          <path class="cls-4" d="m107.67,39.37h.88l2.13,4.63,2.11-4.63h.88l-2.91,6.37h-.14l-2.94-6.37Z"/>
          <path class="cls-4" d="m120.15,39.37h.8v6.37h-.8v-1.09c-.7.84-1.57,1.25-2.57,1.25-1.86,0-3.26-1.55-3.26-3.36s1.44-3.33,3.29-3.33c1.03,0,1.91.44,2.54,1.33v-1.16Zm-4.99,3.19c0,1.38,1.08,2.59,2.51,2.59,1.31,0,2.54-.98,2.54-2.57,0-1.48-1.1-2.59-2.53-2.59s-2.52,1.2-2.52,2.57Z"/>
          <path class="cls-4" d="m122.43,44.41c.41.46.85.71,1.33.71.62,0,1.17-.46,1.17-1.05,0-.37-.22-.72-.53-.89-1.46-.82-2.21-1.16-2.21-2.28,0-1.01.78-1.69,1.75-1.69.7,0,1.22.34,1.76.86l-.53.54c-.38-.37-.77-.61-1.28-.61s-.96.37-.96.85c0,.32.2.68.49.85,1.46.85,2.28,1.18,2.28,2.33,0,1-.77,1.88-1.92,1.88-.71,0-1.43-.32-1.88-.91l.52-.59Z"/>
          <path class="cls-4" d="m133.04,44.41c.41.46.85.71,1.33.71.62,0,1.17-.46,1.17-1.05,0-.37-.22-.72-.53-.89-1.46-.82-2.21-1.16-2.21-2.28,0-1.01.78-1.69,1.75-1.69.7,0,1.22.34,1.76.86l-.53.54c-.38-.37-.77-.61-1.28-.61s-.96.37-.96.85c0,.32.2.68.49.85,1.46.85,2.28,1.18,2.28,2.33,0,1-.77,1.88-1.92,1.88-.71,0-1.43-.32-1.88-.91l.52-.59Z"/>
          <path class="cls-4" d="m138.01,42.62c.04,1.46,1.03,2.53,2.4,2.53s1.97-.75,2.43-1.52l.68.36c-.65,1.27-1.64,1.91-3.03,1.91-2.11,0-3.32-1.62-3.32-3.32s1.28-3.37,3.27-3.37c1.81,0,3.27,1.31,3.3,3.42h-5.73Zm4.83-.72c-.33-1.32-1.28-1.91-2.39-1.91s-1.99.61-2.36,1.91h4.75Z"/>
          <path class="cls-4" d="m152.1,45.74h-.82v-8.83h.82v3.55c.7-.84,1.56-1.26,2.55-1.26,1.86,0,3.27,1.55,3.27,3.36s-1.44,3.35-3.3,3.35c-1.03,0-1.88-.46-2.53-1.34v1.18Zm4.99-3.2c0-1.38-1.09-2.59-2.52-2.59-1.31,0-2.53.97-2.53,2.57,0,1.48,1.09,2.6,2.53,2.6s2.52-1.21,2.52-2.58Z"/>
          <path class="cls-4" d="m164.65,39.37h.8v6.37h-.8v-1.09c-.7.84-1.57,1.25-2.57,1.25-1.86,0-3.26-1.55-3.26-3.36s1.44-3.33,3.29-3.33c1.03,0,1.91.44,2.54,1.33v-1.16Zm-4.99,3.19c0,1.38,1.08,2.59,2.51,2.59,1.31,0,2.54-.98,2.54-2.57,0-1.48-1.1-2.59-2.53-2.59s-2.52,1.2-2.52,2.57Z"/>
          <path class="cls-4" d="m166.92,44.41c.41.46.85.71,1.33.71.62,0,1.17-.46,1.17-1.05,0-.37-.22-.72-.53-.89-1.46-.82-2.21-1.16-2.21-2.28,0-1.01.78-1.69,1.75-1.69.7,0,1.22.34,1.76.86l-.53.54c-.38-.37-.77-.61-1.28-.61s-.96.37-.96.85c0,.32.2.68.49.85,1.46.85,2.28,1.18,2.28,2.33,0,1-.77,1.88-1.92,1.88-.71,0-1.43-.32-1.88-.91l.52-.59Z"/>
          <path class="cls-4" d="m176.91,39.37h.8v6.37h-.8v-1.09c-.7.84-1.57,1.25-2.57,1.25-1.86,0-3.26-1.55-3.26-3.36s1.44-3.33,3.29-3.33c1.03,0,1.91.44,2.54,1.33v-1.16Zm-4.99,3.19c0,1.38,1.08,2.59,2.51,2.59,1.31,0,2.54-.98,2.54-2.57,0-1.48-1.1-2.59-2.53-2.59s-2.52,1.2-2.52,2.57Z"/>
          <path class="cls-4" d="m180.08,40.51c.66-.86,1.45-1.31,2.39-1.31,1.39,0,2.36.96,2.36,2.96v3.57h-.82v-3.47c0-1.5-.47-2.33-1.7-2.33-.68,0-1.25.3-1.68.86-.48.62-.55,1.25-.55,2.25v2.67h-.82v-6.37h.82v1.14Z"/>
          <path class="cls-4" d="m28.01,55.12c.04,1.46,1.03,2.53,2.4,2.53s1.97-.75,2.43-1.52l.68.36c-.65,1.27-1.64,1.91-3.03,1.91-2.11,0-3.32-1.62-3.32-3.32s1.28-3.37,3.27-3.37c1.81,0,3.27,1.31,3.3,3.42h-5.73Zm4.83-.72c-.34-1.32-1.28-1.91-2.39-1.91s-1.99.61-2.36,1.91h4.75Z"/>
          <path class="cls-4" d="m35.78,53.01c.66-.86,1.45-1.31,2.39-1.31,1.39,0,2.36.96,2.36,2.96v3.57h-.82v-3.47c0-1.5-.47-2.33-1.7-2.33-.68,0-1.25.3-1.68.86-.48.62-.55,1.25-.55,2.25v2.67h-.82v-6.37h.82v1.14Z"/>
          <path class="cls-4" d="m49.22,49.41h.82v8.83h-.82v-8.83Z"/>
          <path class="cls-4" d="m56.98,51.87h.8v6.37h-.8v-1.09c-.7.84-1.57,1.25-2.57,1.25-1.86,0-3.26-1.55-3.26-3.36s1.44-3.33,3.29-3.33c1.03,0,1.91.44,2.54,1.33v-1.16Zm-4.99,3.19c0,1.38,1.08,2.59,2.51,2.59,1.31,0,2.54-.98,2.54-2.57,0-1.48-1.1-2.59-2.53-2.59s-2.52,1.2-2.52,2.57Z"/>
          <path class="cls-4" d="m67.52,53.03c.64-.89,1.51-1.33,2.53-1.33,1.86,0,3.3,1.52,3.3,3.33s-1.4,3.36-3.27,3.36c-1,0-1.86-.41-2.55-1.25v3.42h-.82v-8.7h.82v1.16Zm-.06,2.05c0,1.58,1.22,2.57,2.53,2.57,1.42,0,2.52-1.2,2.52-2.59s-1.06-2.57-2.52-2.57-2.53,1.12-2.53,2.59Z"/>
          <path class="cls-4" d="m75.12,52.79c.48-.7,1-1.09,1.64-1.09.37,0,.56.12.73.22l-.43.7c-.1-.05-.25-.12-.43-.12-.6,0-1.14.52-1.38,1.39-.11.41-.13,1.07-.13,1.93v2.42h-.86v-6.37h.86v.92Z"/>
          <path class="cls-4" d="m78.38,55.12c.04,1.46,1.03,2.53,2.4,2.53s1.97-.75,2.43-1.52l.68.36c-.65,1.27-1.64,1.91-3.03,1.91-2.11,0-3.32-1.62-3.32-3.32s1.28-3.37,3.27-3.37c1.81,0,3.27,1.31,3.3,3.42h-5.73Zm4.83-.72c-.33-1.32-1.28-1.91-2.39-1.91s-1.99.61-2.36,1.91h4.75Z"/>
          <path class="cls-4" d="m86.17,53.03c.64-.89,1.51-1.33,2.53-1.33,1.86,0,3.3,1.52,3.3,3.33s-1.4,3.36-3.27,3.36c-1,0-1.86-.41-2.55-1.25v3.42h-.82v-8.7h.82v1.16Zm-.06,2.05c0,1.58,1.22,2.57,2.53,2.57,1.42,0,2.52-1.2,2.52-2.59s-1.06-2.57-2.52-2.57-2.53,1.12-2.53,2.59Z"/>
          <path class="cls-4" d="m99.57,55.07c0,1.81-1.4,3.33-3.32,3.33s-3.32-1.52-3.32-3.33,1.42-3.37,3.32-3.37,3.32,1.55,3.32,3.37Zm-5.8.01c0,1.39,1.04,2.53,2.48,2.53s2.48-1.14,2.48-2.53-1.13-2.59-2.48-2.59-2.48,1.18-2.48,2.59Z"/>
          <path class="cls-4" d="m101.6,53.01c.66-.86,1.45-1.31,2.39-1.31,1.39,0,2.36.96,2.36,2.96v3.57h-.82v-3.47c0-1.5-.47-2.33-1.7-2.33-.68,0-1.25.3-1.68.86-.48.62-.55,1.25-.55,2.25v2.67h-.82v-6.37h.82v1.14Z"/>
          <path class="cls-4" d="m113.36,57.15c-.7.84-1.57,1.25-2.57,1.25-1.86,0-3.26-1.55-3.26-3.36s1.44-3.33,3.29-3.33c1.03,0,1.91.44,2.54,1.33v-3.62h.82v8.83h-.82v-1.09Zm-4.99-2.09c0,1.38,1.08,2.59,2.51,2.59,1.31,0,2.53-.98,2.53-2.57,0-1.48-1.09-2.59-2.52-2.59s-2.52,1.2-2.52,2.57Z"/>
          <path class="cls-4" d="m116.27,55.12c.04,1.46,1.03,2.53,2.4,2.53s1.97-.75,2.43-1.52l.68.36c-.65,1.27-1.64,1.91-3.03,1.91-2.11,0-3.32-1.62-3.32-3.32s1.28-3.37,3.27-3.37c1.81,0,3.27,1.31,3.3,3.42h-5.73Zm4.83-.72c-.34-1.32-1.28-1.91-2.39-1.91s-1.99.61-2.36,1.91h4.75Z"/>
          <path class="cls-4" d="m123.77,52.79c.48-.7,1-1.09,1.64-1.09.37,0,.56.12.73.22l-.43.7c-.1-.05-.25-.12-.43-.12-.6,0-1.14.52-1.38,1.39-.11.41-.13,1.07-.13,1.93v2.42h-.86v-6.37h.86v.92Z"/>
          <path class="cls-4" d="m132.08,51.87h.8v6.37h-.8v-1.09c-.7.84-1.57,1.25-2.57,1.25-1.86,0-3.26-1.55-3.26-3.36s1.44-3.33,3.29-3.33c1.03,0,1.91.44,2.54,1.33v-1.16Zm-4.99,3.19c0,1.38,1.08,2.59,2.51,2.59,1.31,0,2.54-.98,2.54-2.57,0-1.48-1.1-2.59-2.53-2.59s-2.52,1.2-2.52,2.57Z"/>
          <path class="cls-4" d="m135.25,53.01c.66-.86,1.45-1.31,2.39-1.31,1.39,0,2.36.96,2.36,2.96v3.57h-.82v-3.47c0-1.5-.47-2.33-1.7-2.33-.68,0-1.25.3-1.68.86-.48.62-.55,1.25-.55,2.25v2.67h-.82v-6.37h.82v1.14Z"/>
          <path class="cls-4" d="m147.64,56.95c-.62.95-1.7,1.44-2.99,1.44-2.1,0-3.5-1.51-3.5-3.29,0-1.87,1.46-3.41,3.56-3.41,1.22,0,2.34.5,2.93,1.49l-.66.41c-.56-.74-1.34-1.1-2.3-1.1-1.62,0-2.69,1.19-2.69,2.55s1.06,2.6,2.7,2.6c.92,0,1.69-.37,2.29-1.12l.66.42Z"/>
          <path class="cls-4" d="m149.89,49.91c0,.37-.31.68-.68.68s-.67-.31-.67-.68.31-.67.67-.67.68.3.68.67Zm-1.08,1.96h.82v6.37h-.82v-6.37Z"/>
          <path class="cls-4" d="m156.56,51.87h.8v6.37h-.8v-1.09c-.7.84-1.57,1.25-2.57,1.25-1.86,0-3.26-1.55-3.26-3.36s1.44-3.33,3.29-3.33c1.03,0,1.91.44,2.54,1.33v-1.16Zm-4.99,3.19c0,1.38,1.08,2.59,2.51,2.59,1.31,0,2.54-.98,2.54-2.57,0-1.48-1.1-2.59-2.53-2.59s-2.52,1.2-2.52,2.57Z"/>
          <path class="cls-4" d="m171.82,57.15c-.7.84-1.57,1.25-2.57,1.25-1.86,0-3.26-1.55-3.26-3.36s1.44-3.33,3.29-3.33c1.03,0,1.91.44,2.54,1.33v-3.62h.82v8.83h-.82v-1.09Zm-4.99-2.09c0,1.38,1.08,2.59,2.51,2.59,1.31,0,2.53-.98,2.53-2.57,0-1.48-1.09-2.59-2.52-2.59s-2.52,1.2-2.52,2.57Z"/>
          <path class="cls-4" d="m174.73,55.12c.04,1.46,1.03,2.53,2.4,2.53s1.97-.75,2.43-1.52l.68.36c-.65,1.27-1.64,1.91-3.03,1.91-2.11,0-3.32-1.62-3.32-3.32s1.28-3.37,3.27-3.37c1.81,0,3.27,1.31,3.3,3.42h-5.73Zm4.83-.72c-.33-1.32-1.28-1.91-2.39-1.91s-1.99.61-2.36,1.91h4.75Z"/>
          <path class="cls-4" d="m27.35,61.91h.82v8.83h-.82v-8.83Z"/>
          <path class="cls-4" d="m35.91,67.57c0,1.81-1.4,3.33-3.32,3.33s-3.32-1.52-3.32-3.33,1.42-3.37,3.32-3.37,3.32,1.55,3.32,3.37Zm-5.8.01c0,1.39,1.04,2.53,2.48,2.53s2.48-1.14,2.48-2.53-1.13-2.59-2.48-2.59-2.48,1.18-2.48,2.59Z"/>
          <path class="cls-4" d="m37.05,69.41c.41.46.85.71,1.33.71.62,0,1.17-.46,1.17-1.05,0-.37-.22-.72-.53-.89-1.46-.82-2.21-1.16-2.21-2.28,0-1.01.78-1.69,1.75-1.69.7,0,1.22.34,1.76.86l-.53.54c-.38-.37-.77-.61-1.28-.61s-.96.37-.96.85c0,.32.2.68.49.85,1.46.85,2.28,1.18,2.28,2.33,0,1-.77,1.88-1.92,1.88-.71,0-1.43-.32-1.88-.91l.52-.59Z"/>
          <path class="cls-4" d="m54.35,64.37h.88l2.13,4.63,2.11-4.63h.88l-2.91,6.37h-.14l-2.94-6.37Z"/>
          <path class="cls-4" d="m66.84,64.37h.8v6.37h-.8v-1.09c-.7.84-1.57,1.25-2.57,1.25-1.86,0-3.26-1.55-3.26-3.36s1.44-3.33,3.29-3.33c1.03,0,1.91.44,2.54,1.33v-1.16Zm-4.99,3.19c0,1.38,1.08,2.59,2.51,2.59,1.31,0,2.54-.98,2.54-2.57,0-1.48-1.1-2.59-2.53-2.59s-2.52,1.2-2.52,2.57Z"/>
          <path class="cls-4" d="m69.07,61.91h.82v8.83h-.82v-8.83Z"/>
          <path class="cls-4" d="m77.64,67.57c0,1.81-1.4,3.33-3.32,3.33s-3.32-1.52-3.32-3.33,1.42-3.37,3.32-3.37,3.32,1.55,3.32,3.37Zm-5.8.01c0,1.39,1.04,2.53,2.48,2.53s2.48-1.14,2.48-2.53-1.13-2.59-2.48-2.59-2.48,1.18-2.48,2.59Z"/>
          <path class="cls-4" d="m79.39,65.29c.48-.7,1-1.09,1.64-1.09.37,0,.56.12.73.22l-.43.7c-.1-.05-.25-.12-.43-.12-.6,0-1.14.52-1.38,1.39-.11.41-.13,1.07-.13,1.93v2.42h-.86v-6.37h.86v.92Z"/>
          <path class="cls-4" d="m82.66,67.62c.04,1.46,1.03,2.53,2.4,2.53s1.97-.75,2.43-1.52l.68.36c-.65,1.27-1.64,1.91-3.03,1.91-2.11,0-3.32-1.62-3.32-3.32s1.28-3.37,3.27-3.37c1.81,0,3.27,1.31,3.3,3.42h-5.73Zm4.83-.72c-.33-1.32-1.28-1.91-2.39-1.91s-1.99.61-2.36,1.91h4.75Z"/>
          <path class="cls-4" d="m89.53,69.41c.41.46.85.71,1.33.71.62,0,1.17-.46,1.17-1.05,0-.37-.22-.72-.53-.89-1.46-.82-2.21-1.16-2.21-2.28,0-1.01.78-1.69,1.75-1.69.7,0,1.22.34,1.76.86l-.53.54c-.38-.37-.77-.61-1.28-.61s-.96.37-.96.85c0,.32.2.68.49.85,1.46.85,2.28,1.18,2.28,2.33,0,1-.77,1.88-1.92,1.88-.71,0-1.43-.32-1.88-.91l.52-.59Z"/>
          <path class="cls-4" d="m108.26,65.53c.64-.89,1.51-1.33,2.53-1.33,1.86,0,3.3,1.52,3.3,3.33s-1.4,3.36-3.27,3.36c-1,0-1.86-.41-2.55-1.25v3.42h-.82v-8.7h.82v1.16Zm-.06,2.05c0,1.58,1.22,2.57,2.53,2.57,1.42,0,2.52-1.2,2.52-2.59s-1.06-2.57-2.52-2.57-2.53,1.12-2.53,2.59Z"/>
          <path class="cls-4" d="m115.86,65.29c.48-.7,1-1.09,1.64-1.09.37,0,.56.12.73.22l-.43.7c-.1-.05-.25-.12-.43-.12-.6,0-1.14.52-1.38,1.39-.11.41-.13,1.07-.13,1.93v2.42h-.86v-6.37h.86v.92Z"/>
          <path class="cls-4" d="m124.93,67.57c0,1.81-1.4,3.33-3.32,3.33s-3.32-1.52-3.32-3.33,1.42-3.37,3.32-3.37,3.32,1.55,3.32,3.37Zm-5.8.01c0,1.39,1.04,2.53,2.48,2.53s2.48-1.14,2.48-2.53-1.13-2.59-2.48-2.59-2.48,1.18-2.48,2.59Z"/>
          <path class="cls-4" d="m126.97,65.53c.64-.89,1.51-1.33,2.53-1.33,1.86,0,3.3,1.52,3.3,3.33s-1.4,3.36-3.27,3.36c-1,0-1.86-.41-2.55-1.25v3.42h-.82v-8.7h.82v1.16Zm-.06,2.05c0,1.58,1.22,2.57,2.53,2.57,1.42,0,2.52-1.2,2.52-2.59s-1.06-2.57-2.52-2.57-2.53,1.12-2.53,2.59Z"/>
          <path class="cls-4" d="m135,62.41c0,.37-.31.68-.68.68s-.67-.31-.67-.68.31-.67.67-.67.68.3.68.67Zm-1.08,1.96h.82v6.37h-.82v-6.37Z"/>
          <path class="cls-4" d="m142.47,67.57c0,1.81-1.4,3.33-3.32,3.33s-3.32-1.52-3.32-3.33,1.42-3.37,3.32-3.37,3.32,1.55,3.32,3.37Zm-5.8.01c0,1.39,1.04,2.53,2.48,2.53s2.48-1.14,2.48-2.53-1.13-2.59-2.48-2.59-2.48,1.18-2.48,2.59Z"/>
          <path class="cls-4" d="m143.6,69.41c.41.46.85.71,1.33.71.62,0,1.17-.46,1.17-1.05,0-.37-.22-.72-.53-.89-1.46-.82-2.21-1.16-2.21-2.28,0-1.01.78-1.69,1.75-1.69.7,0,1.22.34,1.76.86l-.53.54c-.38-.37-.77-.61-1.28-.61s-.96.37-.96.85c0,.32.2.68.49.85,1.46.85,2.28,1.18,2.28,2.33,0,1-.77,1.88-1.92,1.88-.71,0-1.43-.32-1.88-.91l.52-.59Z"/>
          <path class="cls-4" d="m167.06,69.65c-.7.84-1.57,1.25-2.57,1.25-1.86,0-3.26-1.55-3.26-3.36s1.44-3.33,3.29-3.33c1.03,0,1.91.44,2.54,1.33v-3.62h.82v8.83h-.82v-1.09Zm-4.99-2.09c0,1.38,1.08,2.59,2.51,2.59,1.31,0,2.53-.98,2.53-2.57,0-1.48-1.09-2.59-2.52-2.59s-2.52,1.2-2.52,2.57Z"/>
          <path class="cls-4" d="m169.97,67.62c.04,1.46,1.03,2.53,2.4,2.53s1.97-.75,2.43-1.52l.68.36c-.65,1.27-1.64,1.91-3.03,1.91-2.11,0-3.32-1.62-3.32-3.32s1.28-3.37,3.27-3.37c1.81,0,3.27,1.31,3.3,3.42h-5.73Zm4.83-.72c-.33-1.32-1.28-1.91-2.39-1.91s-1.99.61-2.36,1.91h4.75Z"/>
          <path class="cls-4" d="m176.81,61.91h.82v8.83h-.82v-8.83Z"/>
          <path class="cls-4" d="m34.94,76.74c-.76-1-1.83-1.49-3.07-1.49-2.04,0-3.75,1.51-3.75,3.71s1.63,3.69,3.8,3.69c1.2,0,2.22-.49,3.02-1.43l.68.52c-.89,1.12-2.2,1.7-3.77,1.7-2.88,0-4.64-2.03-4.64-4.56s1.97-4.47,4.64-4.47c1.58,0,2.92.62,3.77,1.81l-.68.52Z"/>
          <path class="cls-4" d="m43.27,80.07c0,1.81-1.4,3.33-3.32,3.33s-3.32-1.52-3.32-3.33,1.42-3.37,3.32-3.37,3.32,1.55,3.32,3.37Zm-5.8.01c0,1.39,1.04,2.53,2.48,2.53s2.48-1.14,2.48-2.53-1.13-2.59-2.48-2.59-2.48,1.18-2.48,2.59Z"/>
          <path class="cls-4" d="m50.83,80.07c0,1.81-1.4,3.33-3.32,3.33s-3.32-1.52-3.32-3.33,1.42-3.37,3.32-3.37,3.32,1.55,3.32,3.37Zm-5.8.01c0,1.39,1.04,2.53,2.48,2.53s2.48-1.14,2.48-2.53-1.13-2.59-2.48-2.59-2.48,1.18-2.48,2.59Z"/>
          <path class="cls-4" d="m52.87,78.03c.64-.89,1.51-1.33,2.53-1.33,1.86,0,3.3,1.52,3.3,3.33s-1.4,3.36-3.27,3.36c-1,0-1.86-.41-2.55-1.25v3.42h-.82v-8.7h.82v1.16Zm-.06,2.05c0,1.58,1.22,2.57,2.53,2.57,1.42,0,2.52-1.2,2.52-2.59s-1.06-2.57-2.52-2.57-2.53,1.12-2.53,2.59Z"/>
          <path class="cls-4" d="m60.47,80.12c.04,1.46,1.03,2.53,2.4,2.53s1.97-.75,2.43-1.52l.68.36c-.65,1.27-1.64,1.91-3.03,1.91-2.11,0-3.32-1.62-3.32-3.32s1.28-3.37,3.27-3.37c1.81,0,3.27,1.31,3.3,3.42h-5.73Zm4.83-.72c-.33-1.32-1.28-1.91-2.39-1.91s-1.99.61-2.36,1.91h4.75Z"/>
          <path class="cls-4" d="m67.97,77.79c.48-.7,1-1.09,1.64-1.09.37,0,.56.12.73.22l-.43.7c-.1-.05-.25-.12-.43-.12-.6,0-1.14.52-1.38,1.39-.11.41-.13,1.07-.13,1.93v2.42h-.86v-6.37h.86v.92Z"/>
          <path class="cls-4" d="m76.28,76.87h.8v6.37h-.8v-1.09c-.7.84-1.57,1.25-2.57,1.25-1.86,0-3.26-1.55-3.26-3.36s1.44-3.33,3.29-3.33c1.03,0,1.91.44,2.54,1.33v-1.16Zm-4.99,3.19c0,1.38,1.08,2.59,2.51,2.59,1.31,0,2.54-.98,2.54-2.57,0-1.48-1.1-2.59-2.53-2.59s-2.52,1.2-2.52,2.57Z"/>
          <path class="cls-4" d="m79.37,74.49h.82v2.38h1.31v.72h-1.31v5.65h-.82v-5.65h-1.13v-.72h1.13v-2.38Z"/>
          <path class="cls-4" d="m83.38,74.91c0,.37-.31.68-.68.68s-.67-.31-.67-.68.31-.67.67-.67.68.3.68.67Zm-1.08,1.96h.82v6.37h-.82v-6.37Z"/>
          <path class="cls-4" d="m83.91,76.87h.88l2.13,4.63,2.11-4.63h.88l-2.91,6.37h-.14l-2.94-6.37Z"/>
          <path class="cls-4" d="m91.82,74.91c0,.37-.31.68-.68.68s-.67-.31-.67-.68.31-.67.67-.67.68.3.68.67Zm-1.08,1.96h.82v6.37h-.82v-6.37Z"/>
          <path class="cls-4" d="m92.87,81.91c.41.46.85.71,1.33.71.62,0,1.17-.46,1.17-1.05,0-.37-.22-.72-.53-.89-1.46-.82-2.21-1.16-2.21-2.28,0-1.01.78-1.69,1.75-1.69.7,0,1.22.34,1.76.86l-.53.54c-.38-.37-.77-.61-1.28-.61s-.96.37-.96.85c0,.32.2.68.49.85,1.46.85,2.28,1.18,2.28,2.33,0,1-.77,1.88-1.92,1.88-.71,0-1.43-.32-1.88-.91l.52-.59Z"/>
          <path class="cls-4" d="m102.46,83.24h-.82v-3.26c0-.49-.05-.9-.06-1.19-.04-.7-.6-1.3-1.44-1.3-.56,0-1.13.28-1.49.74-.46.59-.54,1.34-.54,2.3v2.7h-.82v-6.37h.82v1.09c.56-.82,1.27-1.26,2.18-1.26.97,0,1.67.5,2.02,1.54.56-1.02,1.4-1.54,2.34-1.54,1.32,0,2.17.95,2.17,2.76v3.78h-.82v-3.48c0-.47-.06-.84-.07-1.08-.04-.56-.58-1.19-1.44-1.19-.79,0-1.49.48-1.81,1.3-.2.52-.23,1.08-.23,1.67v2.78Z"/>
          <path class="cls-4" d="m114.61,80.07c0,1.81-1.4,3.33-3.32,3.33s-3.32-1.52-3.32-3.33,1.42-3.37,3.32-3.37,3.32,1.55,3.32,3.37Zm-5.8.01c0,1.39,1.04,2.53,2.48,2.53s2.48-1.14,2.48-2.53-1.13-2.59-2.48-2.59-2.48,1.18-2.48,2.59Z"/>
          <path class="cls-4" d="m125.41,81.95c-.62.95-1.7,1.44-2.99,1.44-2.1,0-3.5-1.51-3.5-3.29,0-1.87,1.46-3.41,3.56-3.41,1.22,0,2.34.5,2.93,1.49l-.66.41c-.56-.74-1.34-1.1-2.3-1.1-1.62,0-2.69,1.19-2.69,2.55s1.06,2.6,2.7,2.6c.92,0,1.69-.37,2.29-1.12l.66.42Z"/>
          <path class="cls-4" d="m133.03,80.07c0,1.81-1.4,3.33-3.32,3.33s-3.32-1.52-3.32-3.33,1.42-3.37,3.32-3.37,3.32,1.55,3.32,3.37Zm-5.8.01c0,1.39,1.04,2.53,2.48,2.53s2.48-1.14,2.48-2.53-1.13-2.59-2.48-2.59-2.48,1.18-2.48,2.59Z"/>
          <path class="cls-4" d="m139.39,83.24h-.82v-3.26c0-.49-.05-.9-.06-1.19-.04-.7-.6-1.3-1.44-1.3-.56,0-1.13.28-1.49.74-.46.59-.54,1.34-.54,2.3v2.7h-.82v-6.37h.82v1.09c.56-.82,1.27-1.26,2.18-1.26.97,0,1.67.5,2.02,1.54.56-1.02,1.4-1.54,2.34-1.54,1.32,0,2.17.95,2.17,2.76v3.78h-.82v-3.48c0-.47-.06-.84-.07-1.08-.04-.56-.58-1.19-1.44-1.19-.79,0-1.49.48-1.81,1.3-.2.52-.23,1.08-.23,1.67v2.78Z"/>
          <path class="cls-4" d="m151.54,80.07c0,1.81-1.4,3.33-3.32,3.33s-3.32-1.52-3.32-3.33,1.42-3.37,3.32-3.37,3.32,1.55,3.32,3.37Zm-5.8.01c0,1.39,1.04,2.53,2.48,2.53s2.48-1.14,2.48-2.53-1.13-2.59-2.48-2.59-2.48,1.18-2.48,2.59Z"/>
          <path class="cls-4" d="m156.06,81.91c.41.46.85.71,1.33.71.62,0,1.17-.46,1.17-1.05,0-.37-.22-.72-.53-.89-1.46-.82-2.21-1.16-2.21-2.28,0-1.01.78-1.69,1.75-1.69.7,0,1.22.34,1.76.86l-.53.54c-.38-.37-.77-.61-1.28-.61s-.96.37-.96.85c0,.32.2.68.49.85,1.46.85,2.28,1.18,2.28,2.33,0,1-.77,1.88-1.92,1.88-.71,0-1.43-.32-1.88-.91l.52-.59Z"/>
          <path class="cls-4" d="m166.85,80.07c0,1.81-1.4,3.33-3.32,3.33s-3.32-1.52-3.32-3.33,1.42-3.37,3.32-3.37,3.32,1.55,3.32,3.37Zm-5.8.01c0,1.39,1.04,2.53,2.48,2.53s2.48-1.14,2.48-2.53-1.13-2.59-2.48-2.59-2.48,1.18-2.48,2.59Z"/>
          <path class="cls-4" d="m168.88,78.01c.66-.86,1.45-1.31,2.39-1.31,1.39,0,2.36.96,2.36,2.96v3.57h-.82v-3.47c0-1.5-.47-2.33-1.7-2.33-.68,0-1.25.3-1.68.86-.48.62-.55,1.25-.55,2.25v2.67h-.82v-6.37h.82v1.14Z"/>
          <path class="cls-4" d="m176.7,77.43c0,.41-.32.73-.72.73s-.72-.34-.72-.73.32-.73.72-.73.72.32.72.73Zm0,5.24c0,.41-.32.73-.72.73s-.72-.34-.72-.73.32-.73.72-.73.72.32.72.73Z"/>
          <path class="cls-4" d="m28.3,90.53c.64-.89,1.51-1.33,2.53-1.33,1.86,0,3.3,1.52,3.3,3.33s-1.4,3.36-3.27,3.36c-1,0-1.86-.41-2.55-1.25v3.42h-.82v-8.7h.82v1.16Zm-.06,2.05c0,1.58,1.22,2.57,2.53,2.57,1.42,0,2.52-1.2,2.52-2.59s-1.06-2.57-2.52-2.57-2.53,1.12-2.53,2.59Z"/>
          <path class="cls-4" d="m40.89,89.37h.8v6.37h-.8v-1.09c-.7.84-1.57,1.25-2.57,1.25-1.86,0-3.26-1.55-3.26-3.36s1.44-3.33,3.29-3.33c1.03,0,1.91.44,2.54,1.33v-1.16Zm-4.99,3.19c0,1.38,1.08,2.59,2.51,2.59,1.31,0,2.54-.98,2.54-2.57,0-1.48-1.1-2.59-2.53-2.59s-2.52,1.2-2.52,2.57Z"/>
          <path class="cls-4" d="m43.79,90.29c.48-.7,1-1.09,1.64-1.09.37,0,.56.12.73.22l-.43.7c-.1-.05-.25-.12-.43-.12-.6,0-1.14.52-1.38,1.39-.11.41-.13,1.07-.13,1.93v2.42h-.86v-6.37h.86v.92Z"/>
          <path class="cls-4" d="m47.29,86.99h.82v2.38h1.31v.72h-1.31v5.65h-.82v-5.65h-1.13v-.72h1.13v-2.38Z"/>
          <path class="cls-4" d="m51.3,87.41c0,.37-.31.68-.68.68s-.67-.31-.67-.68.31-.67.67-.67.68.3.68.67Zm-1.08,1.96h.82v6.37h-.82v-6.37Z"/>
          <path class="cls-4" d="m58.62,94.45c-.62.95-1.7,1.44-2.99,1.44-2.1,0-3.5-1.51-3.5-3.29,0-1.87,1.46-3.41,3.56-3.41,1.22,0,2.34.5,2.93,1.49l-.66.41c-.56-.74-1.34-1.1-2.3-1.1-1.62,0-2.69,1.19-2.69,2.55s1.06,2.6,2.7,2.6c.92,0,1.69-.37,2.29-1.12l.66.42Z"/>
          <path class="cls-4" d="m60.86,87.41c0,.37-.31.68-.68.68s-.67-.31-.67-.68.31-.67.67-.67.68.3.68.67Zm-1.08,1.96h.82v6.37h-.82v-6.37Z"/>
          <path class="cls-4" d="m62.82,90.53c.64-.89,1.51-1.33,2.53-1.33,1.86,0,3.3,1.52,3.3,3.33s-1.4,3.36-3.27,3.36c-1,0-1.86-.41-2.55-1.25v3.42h-.82v-8.7h.82v1.16Zm-.06,2.05c0,1.58,1.22,2.57,2.53,2.57,1.42,0,2.52-1.2,2.52-2.59s-1.06-2.57-2.52-2.57-2.53,1.12-2.53,2.59Z"/>
          <path class="cls-4" d="m75.42,89.37h.8v6.37h-.8v-1.09c-.7.84-1.57,1.25-2.57,1.25-1.86,0-3.26-1.55-3.26-3.36s1.44-3.33,3.29-3.33c1.03,0,1.91.44,2.54,1.33v-1.16Zm-4.99,3.19c0,1.38,1.08,2.59,2.51,2.59,1.31,0,2.54-.98,2.54-2.57,0-1.48-1.1-2.59-2.53-2.59s-2.52,1.2-2.52,2.57Z"/>
          <path class="cls-4" d="m83.96,94.45c-.62.95-1.7,1.44-2.99,1.44-2.1,0-3.5-1.51-3.5-3.29,0-1.87,1.46-3.41,3.56-3.41,1.22,0,2.34.5,2.93,1.49l-.66.41c-.56-.74-1.34-1.1-2.3-1.1-1.62,0-2.69,1.19-2.69,2.55s1.06,2.6,2.7,2.6c.92,0,1.69-.37,2.29-1.12l.66.42Z"/>
          <path class="cls-4" d="m86.21,87.41c0,.37-.31.68-.68.68s-.67-.31-.67-.68.31-.67.67-.67.68.3.68.67Zm-1.08,1.96h.82v6.37h-.82v-6.37Z"/>
          <path class="cls-4" d="m93.68,92.57c0,1.81-1.4,3.33-3.32,3.33s-3.32-1.52-3.32-3.33,1.42-3.37,3.32-3.37,3.32,1.55,3.32,3.37Zm-5.8.01c0,1.39,1.04,2.53,2.48,2.53s2.48-1.14,2.48-2.53-1.13-2.59-2.48-2.59-2.48,1.18-2.48,2.59Zm2.88-6.21h1.26l-1.74,1.81h-.8l1.28-1.81Z"/>
          <path class="cls-4" d="m95.71,90.51c.66-.86,1.45-1.31,2.39-1.31,1.39,0,2.36.96,2.36,2.96v3.57h-.82v-3.47c0-1.5-.47-2.33-1.7-2.33-.68,0-1.25.3-1.68.86-.48.62-.55,1.25-.55,2.25v2.67h-.82v-6.37h.82v1.14Z"/>
          <path class="cls-4" d="m102.74,94.15l.78.37-1.19,2.22-.58-.24.98-2.35Z"/>
          <path class="cls-4" d="m111.49,87.41c0,.37-.31.68-.68.68s-.67-.31-.67-.68.31-.67.67-.67.68.3.68.67Zm-1.08,1.96h.82v6.37h-.82v-6.37Z"/>
          <path class="cls-4" d="m117.77,95.74h-.82v-3.26c0-.49-.05-.9-.06-1.19-.04-.7-.6-1.3-1.44-1.3-.56,0-1.13.28-1.49.74-.46.59-.54,1.34-.54,2.3v2.7h-.82v-6.37h.82v1.09c.56-.82,1.27-1.26,2.18-1.26.97,0,1.67.5,2.02,1.54.56-1.02,1.4-1.54,2.34-1.54,1.32,0,2.17.95,2.17,2.76v3.78h-.82v-3.48c0-.47-.06-.84-.07-1.08-.04-.56-.58-1.19-1.44-1.19-.79,0-1.49.48-1.81,1.3-.2.52-.23,1.08-.23,1.67v2.78Z"/>
          <path class="cls-4" d="m124.41,90.53c.64-.89,1.51-1.33,2.53-1.33,1.86,0,3.3,1.52,3.3,3.33s-1.4,3.36-3.27,3.36c-1,0-1.86-.41-2.55-1.25v3.42h-.82v-8.7h.82v1.16Zm-.06,2.05c0,1.58,1.22,2.57,2.53,2.57,1.42,0,2.52-1.2,2.52-2.59s-1.06-2.57-2.52-2.57-2.53,1.12-2.53,2.59Z"/>
          <path class="cls-4" d="m131.34,86.91h.82v8.83h-.82v-8.83Z"/>
          <path class="cls-4" d="m134.53,87.41c0,.37-.31.68-.68.68s-.67-.31-.67-.68.31-.67.67-.67.68.3.68.67Zm-1.08,1.96h.82v6.37h-.82v-6.37Z"/>
          <path class="cls-4" d="m141.85,94.45c-.62.95-1.7,1.44-2.99,1.44-2.1,0-3.5-1.51-3.5-3.29,0-1.87,1.46-3.41,3.56-3.41,1.22,0,2.34.5,2.93,1.49l-.66.41c-.56-.74-1.34-1.1-2.3-1.1-1.62,0-2.69,1.19-2.69,2.55s1.06,2.6,2.7,2.6c.92,0,1.69-.37,2.29-1.12l.66.42Z"/>
          <path class="cls-4" d="m148.67,89.37h.8v6.37h-.8v-1.09c-.7.84-1.57,1.25-2.57,1.25-1.86,0-3.26-1.55-3.26-3.36s1.44-3.33,3.29-3.33c1.03,0,1.91.44,2.54,1.33v-1.16Zm-4.99,3.19c0,1.38,1.08,2.59,2.51,2.59,1.31,0,2.54-.98,2.54-2.57,0-1.48-1.1-2.59-2.53-2.59s-2.52,1.2-2.52,2.57Z"/>
          <path class="cls-4" d="m157.21,94.45c-.62.95-1.7,1.44-2.99,1.44-2.1,0-3.5-1.51-3.5-3.29,0-1.87,1.46-3.41,3.56-3.41,1.22,0,2.34.5,2.93,1.49l-.66.41c-.56-.74-1.34-1.1-2.3-1.1-1.62,0-2.69,1.19-2.69,2.55s1.06,2.6,2.7,2.6c.92,0,1.69-.37,2.29-1.12l.66.42Z"/>
          <path class="cls-4" d="m159.46,87.41c0,.37-.31.68-.68.68s-.67-.31-.67-.68.31-.67.67-.67.68.3.68.67Zm-1.08,1.96h.82v6.37h-.82v-6.37Z"/>
          <path class="cls-4" d="m166.93,92.57c0,1.81-1.4,3.33-3.32,3.33s-3.32-1.52-3.32-3.33,1.42-3.37,3.32-3.37,3.32,1.55,3.32,3.37Zm-5.8.01c0,1.39,1.04,2.53,2.48,2.53s2.48-1.14,2.48-2.53-1.13-2.59-2.48-2.59-2.48,1.18-2.48,2.59Zm2.88-6.21h1.26l-1.74,1.81h-.8l1.28-1.81Z"/>
          <path class="cls-4" d="m168.96,90.51c.66-.86,1.45-1.31,2.39-1.31,1.39,0,2.36.96,2.36,2.96v3.57h-.82v-3.47c0-1.5-.47-2.33-1.7-2.33-.68,0-1.25.3-1.68.86-.48.62-.55,1.25-.55,2.25v2.67h-.82v-6.37h.82v1.14Z"/>
          <path class="cls-4" d="m176,94.15l.78.37-1.19,2.22-.58-.24.98-2.35Z"/>
          <path class="cls-4" d="m33.66,106.95c-.62.95-1.7,1.44-2.99,1.44-2.1,0-3.5-1.51-3.5-3.29,0-1.87,1.46-3.41,3.56-3.41,1.22,0,2.34.5,2.93,1.49l-.66.41c-.56-.74-1.34-1.1-2.3-1.1-1.62,0-2.69,1.19-2.69,2.55s1.06,2.6,2.7,2.6c.92,0,1.69-.37,2.29-1.12l.66.42Z"/>
          <path class="cls-4" d="m41.28,105.07c0,1.81-1.4,3.33-3.32,3.33s-3.32-1.52-3.32-3.33,1.42-3.37,3.32-3.37,3.32,1.55,3.32,3.37Zm-5.8.01c0,1.39,1.04,2.53,2.48,2.53s2.48-1.14,2.48-2.53-1.13-2.59-2.48-2.59-2.48,1.18-2.48,2.59Z"/>
          <path class="cls-4" d="m48.84,105.07c0,1.81-1.4,3.33-3.32,3.33s-3.32-1.52-3.32-3.33,1.42-3.37,3.32-3.37,3.32,1.55,3.32,3.37Zm-5.8.01c0,1.39,1.04,2.53,2.48,2.53s2.48-1.14,2.48-2.53-1.13-2.59-2.48-2.59-2.48,1.18-2.48,2.59Z"/>
          <path class="cls-4" d="m50.88,103.03c.64-.89,1.51-1.33,2.53-1.33,1.86,0,3.3,1.52,3.3,3.33s-1.4,3.36-3.27,3.36c-1,0-1.86-.41-2.55-1.25v3.42h-.82v-8.7h.82v1.16Zm-.06,2.05c0,1.58,1.22,2.57,2.53,2.57,1.42,0,2.52-1.2,2.52-2.59s-1.06-2.57-2.52-2.57-2.53,1.12-2.53,2.59Z"/>
          <path class="cls-4" d="m58.48,105.12c.04,1.46,1.03,2.53,2.4,2.53s1.97-.75,2.43-1.52l.68.36c-.65,1.27-1.64,1.91-3.03,1.91-2.11,0-3.32-1.62-3.32-3.32s1.28-3.37,3.27-3.37c1.81,0,3.27,1.31,3.3,3.42h-5.73Zm4.83-.72c-.33-1.32-1.28-1.91-2.39-1.91s-1.99.61-2.36,1.91h4.75Z"/>
          <path class="cls-4" d="m65.98,102.79c.48-.7,1-1.09,1.64-1.09.37,0,.56.12.73.22l-.43.7c-.1-.05-.25-.12-.43-.12-.6,0-1.14.52-1.38,1.39-.11.41-.13,1.07-.13,1.93v2.42h-.86v-6.37h.86v.92Z"/>
          <path class="cls-4" d="m74.29,101.87h.8v6.37h-.8v-1.09c-.7.84-1.57,1.25-2.57,1.25-1.86,0-3.26-1.55-3.26-3.36s1.44-3.33,3.29-3.33c1.03,0,1.91.44,2.54,1.33v-1.16Zm-4.99,3.19c0,1.38,1.08,2.59,2.51,2.59,1.31,0,2.54-.98,2.54-2.57,0-1.48-1.1-2.59-2.53-2.59s-2.52,1.2-2.52,2.57Z"/>
          <path class="cls-4" d="m82.83,106.95c-.62.95-1.7,1.44-2.99,1.44-2.1,0-3.5-1.51-3.5-3.29,0-1.87,1.46-3.41,3.56-3.41,1.22,0,2.34.5,2.93,1.49l-.66.41c-.56-.74-1.34-1.1-2.3-1.1-1.62,0-2.69,1.19-2.69,2.55s1.06,2.6,2.7,2.6c.92,0,1.69-.37,2.29-1.12l.66.42Z"/>
          <path class="cls-4" d="m85.08,99.91c0,.37-.31.68-.68.68s-.67-.31-.67-.68.31-.67.67-.67.68.3.68.67Zm-1.08,1.96h.82v6.37h-.82v-6.37Z"/>
          <path class="cls-4" d="m92.55,105.07c0,1.81-1.4,3.33-3.32,3.33s-3.32-1.52-3.32-3.33,1.42-3.37,3.32-3.37,3.32,1.55,3.32,3.37Zm-5.8.01c0,1.39,1.04,2.53,2.48,2.53s2.48-1.14,2.48-2.53-1.13-2.59-2.48-2.59-2.48,1.18-2.48,2.59Zm2.88-6.21h1.26l-1.74,1.81h-.8l1.28-1.81Z"/>
          <path class="cls-4" d="m94.59,103.01c.66-.86,1.45-1.31,2.39-1.31,1.39,0,2.36.96,2.36,2.96v3.57h-.82v-3.47c0-1.5-.47-2.33-1.7-2.33-.68,0-1.25.3-1.68.86-.48.62-.55,1.25-.55,2.25v2.67h-.82v-6.37h.82v1.14Z"/>
          <path class="cls-4" d="m101.62,106.65l.78.37-1.19,2.22-.58-.24.98-2.35Z"/>
          <path class="cls-4" d="m108,106.91c.41.46.85.71,1.33.71.62,0,1.17-.46,1.17-1.05,0-.37-.22-.72-.53-.89-1.46-.82-2.21-1.16-2.21-2.28,0-1.01.78-1.69,1.75-1.69.7,0,1.22.34,1.76.86l-.53.54c-.38-.37-.77-.61-1.28-.61s-.96.37-.96.85c0,.32.2.68.49.85,1.46.85,2.28,1.18,2.28,2.33,0,1-.77,1.88-1.92,1.88-.71,0-1.43-.32-1.88-.91l.52-.59Z"/>
          <path class="cls-4" d="m118.79,105.07c0,1.81-1.4,3.33-3.32,3.33s-3.32-1.52-3.32-3.33,1.42-3.37,3.32-3.37,3.32,1.55,3.32,3.37Zm-5.8.01c0,1.39,1.04,2.53,2.48,2.53s2.48-1.14,2.48-2.53-1.13-2.59-2.48-2.59-2.48,1.18-2.48,2.59Z"/>
          <path class="cls-4" d="m119.88,99.41h.82v8.83h-.82v-8.83Z"/>
          <path class="cls-4" d="m123.07,99.91c0,.37-.31.68-.68.68s-.67-.31-.67-.68.31-.67.67-.67.68.3.68.67Zm-1.08,1.96h.82v6.37h-.82v-6.37Z"/>
          <path class="cls-4" d="m129.76,107.15c-.7.84-1.57,1.25-2.57,1.25-1.86,0-3.26-1.55-3.26-3.36s1.44-3.33,3.29-3.33c1.03,0,1.91.44,2.54,1.33v-3.62h.82v8.83h-.82v-1.09Zm-4.99-2.09c0,1.38,1.08,2.59,2.51,2.59,1.31,0,2.53-.98,2.53-2.57,0-1.48-1.09-2.59-2.52-2.59s-2.52,1.2-2.52,2.57Z"/>
          <path class="cls-4" d="m137.66,101.87h.8v6.37h-.8v-1.09c-.7.84-1.57,1.25-2.57,1.25-1.86,0-3.26-1.55-3.26-3.36s1.44-3.33,3.29-3.33c1.03,0,1.91.44,2.54,1.33v-1.16Zm-4.99,3.19c0,1.38,1.08,2.59,2.51,2.59,1.31,0,2.54-.98,2.54-2.57,0-1.48-1.1-2.59-2.53-2.59s-2.52,1.2-2.52,2.57Z"/>
          <path class="cls-4" d="m140.56,102.79c.48-.7,1-1.09,1.64-1.09.37,0,.56.12.73.22l-.43.7c-.1-.05-.25-.12-.43-.12-.6,0-1.14.52-1.38,1.39-.11.41-.13,1.07-.13,1.93v2.42h-.86v-6.37h.86v.92Z"/>
          <path class="cls-4" d="m144.3,99.91c0,.37-.31.68-.68.68s-.67-.31-.67-.68.31-.67.67-.67.68.3.68.67Zm-1.08,1.96h.82v6.37h-.82v-6.37Z"/>
          <path class="cls-4" d="m150.99,107.15c-.7.84-1.57,1.25-2.57,1.25-1.86,0-3.26-1.55-3.26-3.36s1.44-3.33,3.29-3.33c1.03,0,1.91.44,2.54,1.33v-3.62h.82v8.83h-.82v-1.09Zm-4.99-2.09c0,1.38,1.08,2.59,2.51,2.59,1.31,0,2.53-.98,2.53-2.57,0-1.48-1.09-2.59-2.52-2.59s-2.52,1.2-2.52,2.57Z"/>
          <path class="cls-4" d="m158.89,101.87h.8v6.37h-.8v-1.09c-.7.84-1.57,1.25-2.57,1.25-1.86,0-3.26-1.55-3.26-3.36s1.44-3.33,3.29-3.33c1.03,0,1.91.44,2.54,1.33v-1.16Zm-4.99,3.19c0,1.38,1.08,2.59,2.51,2.59,1.31,0,2.54-.98,2.54-2.57,0-1.48-1.1-2.59-2.53-2.59s-2.52,1.2-2.52,2.57Z"/>
          <path class="cls-4" d="m166.8,107.15c-.7.84-1.57,1.25-2.57,1.25-1.86,0-3.26-1.55-3.26-3.36s1.44-3.33,3.29-3.33c1.03,0,1.91.44,2.54,1.33v-3.62h.82v8.83h-.82v-1.09Zm-4.99-2.09c0,1.38,1.08,2.59,2.51,2.59,1.31,0,2.53-.98,2.53-2.57,0-1.48-1.09-2.59-2.52-2.59s-2.52,1.2-2.52,2.57Z"/>
          <path class="cls-4" d="m172.76,101.87h.86l2.19,4.91,2.12-4.91h.88l-3.8,8.7h-.86l1.22-2.81-2.62-5.89Z"/>
          <path class="cls-4" d="m27.35,111.91h.82v8.83h-.82v-8.83Z"/>
          <path class="cls-4" d="m35.11,114.37h.8v6.37h-.8v-1.09c-.7.84-1.57,1.25-2.57,1.25-1.86,0-3.26-1.55-3.26-3.36s1.44-3.33,3.29-3.33c1.03,0,1.91.44,2.54,1.33v-1.16Zm-4.99,3.19c0,1.38,1.08,2.59,2.51,2.59,1.31,0,2.54-.98,2.54-2.57,0-1.48-1.1-2.59-2.53-2.59s-2.52,1.2-2.52,2.57Z"/>
          <path class="cls-4" d="m48.15,119.65c-.7.84-1.57,1.25-2.57,1.25-1.86,0-3.26-1.55-3.26-3.36s1.44-3.33,3.29-3.33c1.03,0,1.91.44,2.54,1.33v-3.62h.82v8.83h-.82v-1.09Zm-4.99-2.09c0,1.38,1.08,2.59,2.51,2.59,1.31,0,2.53-.98,2.53-2.57,0-1.48-1.09-2.59-2.52-2.59s-2.52,1.2-2.52,2.57Z"/>
          <path class="cls-4" d="m51.05,117.62c.04,1.46,1.03,2.53,2.4,2.53s1.97-.75,2.43-1.52l.68.36c-.65,1.27-1.64,1.91-3.03,1.91-2.11,0-3.32-1.62-3.32-3.32s1.28-3.37,3.27-3.37c1.81,0,3.27,1.31,3.3,3.42h-5.73Zm4.83-.72c-.33-1.32-1.28-1.91-2.39-1.91s-1.99.61-2.36,1.91h4.75Z"/>
          <path class="cls-4" d="m63.16,120.74h-.82v-3.26c0-.49-.05-.9-.06-1.19-.04-.7-.6-1.3-1.44-1.3-.56,0-1.13.28-1.49.74-.46.59-.54,1.34-.54,2.3v2.7h-.82v-6.37h.82v1.09c.56-.82,1.27-1.26,2.18-1.26.97,0,1.67.5,2.02,1.54.56-1.02,1.4-1.54,2.34-1.54,1.32,0,2.17.95,2.17,2.76v3.78h-.82v-3.48c0-.47-.06-.84-.07-1.08-.04-.56-.58-1.19-1.44-1.19-.79,0-1.49.48-1.81,1.3-.2.52-.23,1.08-.23,1.67v2.78Z"/>
          <path class="cls-4" d="m75.31,117.57c0,1.81-1.4,3.33-3.32,3.33s-3.32-1.52-3.32-3.33,1.42-3.37,3.32-3.37,3.32,1.55,3.32,3.37Zm-5.8.01c0,1.39,1.04,2.53,2.48,2.53s2.48-1.14,2.48-2.53-1.13-2.59-2.48-2.59-2.48,1.18-2.48,2.59Z"/>
          <path class="cls-4" d="m82.72,119.45c-.62.95-1.7,1.44-2.99,1.44-2.1,0-3.5-1.51-3.5-3.29,0-1.87,1.46-3.41,3.56-3.41,1.22,0,2.34.5,2.93,1.49l-.66.41c-.56-.74-1.34-1.1-2.3-1.1-1.62,0-2.69,1.19-2.69,2.55s1.06,2.6,2.7,2.6c.92,0,1.69-.37,2.29-1.12l.66.42Z"/>
          <path class="cls-4" d="m84.53,115.29c.48-.7,1-1.09,1.64-1.09.37,0,.56.12.73.22l-.43.7c-.1-.05-.25-.12-.43-.12-.6,0-1.14.52-1.38,1.39-.11.41-.13,1.07-.13,1.93v2.42h-.86v-6.37h.86v.92Z"/>
          <path class="cls-4" d="m92.84,114.37h.8v6.37h-.8v-1.09c-.7.84-1.57,1.25-2.57,1.25-1.86,0-3.26-1.55-3.26-3.36s1.44-3.33,3.29-3.33c1.03,0,1.91.44,2.54,1.33v-1.16Zm-4.99,3.19c0,1.38,1.08,2.59,2.51,2.59,1.31,0,2.54-.98,2.54-2.57,0-1.48-1.1-2.59-2.53-2.59s-2.52,1.2-2.52,2.57Z"/>
          <path class="cls-4" d="m101.39,119.45c-.62.95-1.7,1.44-2.99,1.44-2.1,0-3.5-1.51-3.5-3.29,0-1.87,1.46-3.41,3.56-3.41,1.22,0,2.34.5,2.93,1.49l-.66.41c-.56-.74-1.34-1.1-2.3-1.1-1.62,0-2.69,1.19-2.69,2.55s1.06,2.6,2.7,2.6c.92,0,1.69-.37,2.29-1.12l.66.42Z"/>
          <path class="cls-4" d="m103.63,112.41c0,.37-.31.68-.68.68s-.67-.31-.67-.68.31-.67.67-.67.68.3.68.67Zm-1.08,1.96h.82v6.37h-.82v-6.37Z"/>
          <path class="cls-4" d="m110.3,114.37h.8v6.37h-.8v-1.09c-.7.84-1.57,1.25-2.57,1.25-1.86,0-3.26-1.55-3.26-3.36s1.44-3.33,3.29-3.33c1.03,0,1.91.44,2.54,1.33v-1.16Zm-4.99,3.19c0,1.38,1.08,2.59,2.51,2.59,1.31,0,2.54-.98,2.54-2.57,0-1.48-1.1-2.59-2.53-2.59s-2.52,1.2-2.52,2.57Z"/>
          <path class="cls-4" d="m118.33,117.62c.04,1.46,1.03,2.53,2.4,2.53s1.97-.75,2.43-1.52l.68.36c-.65,1.27-1.64,1.91-3.03,1.91-2.11,0-3.32-1.62-3.32-3.32s1.28-3.37,3.27-3.37c1.81,0,3.27,1.31,3.3,3.42h-5.73Zm4.83-.72c-.34-1.32-1.28-1.91-2.39-1.91s-1.99.61-2.36,1.91h4.75Z"/>
          <path class="cls-4" d="m126.1,115.51c.66-.86,1.45-1.31,2.39-1.31,1.39,0,2.36.96,2.36,2.96v3.57h-.82v-3.47c0-1.5-.47-2.33-1.7-2.33-.68,0-1.25.3-1.68.86-.48.62-.55,1.25-.55,2.25v2.67h-.82v-6.37h.82v1.14Z"/>
          <path class="cls-4" d="m137.32,111.91h.82v8.83h-.82v-8.83Z"/>
          <path class="cls-4" d="m145.08,114.37h.8v6.37h-.8v-1.09c-.7.84-1.57,1.25-2.57,1.25-1.86,0-3.26-1.55-3.26-3.36s1.44-3.33,3.29-3.33c1.03,0,1.91.44,2.54,1.33v-1.16Zm-4.99,3.19c0,1.38,1.08,2.59,2.51,2.59,1.31,0,2.54-.98,2.54-2.57,0-1.48-1.1-2.59-2.53-2.59s-2.52,1.2-2.52,2.57Z"/>
          <path class="cls-4" d="m153.29,111.99h.82v2.38h1.31v.72h-1.31v5.65h-.82v-5.65h-1.13v-.72h1.13v-2.38Z"/>
          <path class="cls-4" d="m162.67,117.57c0,1.81-1.4,3.33-3.32,3.33s-3.32-1.52-3.32-3.33,1.42-3.37,3.32-3.37,3.32,1.55,3.32,3.37Zm-5.8.01c0,1.39,1.04,2.53,2.48,2.53s2.48-1.14,2.48-2.53-1.13-2.59-2.48-2.59-2.48,1.18-2.48,2.59Z"/>
          <path class="cls-4" d="m169.03,120.74h-.82v-3.26c0-.49-.05-.9-.06-1.19-.04-.7-.6-1.3-1.44-1.3-.56,0-1.13.28-1.49.74-.46.59-.54,1.34-.54,2.3v2.7h-.82v-6.37h.82v1.09c.56-.82,1.27-1.26,2.18-1.26.97,0,1.67.5,2.02,1.54.56-1.02,1.4-1.54,2.34-1.54,1.32,0,2.17.95,2.17,2.76v3.78h-.82v-3.48c0-.47-.06-.84-.07-1.08-.04-.56-.58-1.19-1.44-1.19-.79,0-1.49.48-1.81,1.3-.2.52-.23,1.08-.23,1.67v2.78Z"/>
          <path class="cls-4" d="m180.38,114.37h.8v6.37h-.8v-1.09c-.7.84-1.57,1.25-2.57,1.25-1.86,0-3.26-1.55-3.26-3.36s1.44-3.33,3.29-3.33c1.03,0,1.91.44,2.54,1.33v-1.16Zm-4.99,3.19c0,1.38,1.08,2.59,2.51,2.59,1.31,0,2.54-.98,2.54-2.57,0-1.48-1.1-2.59-2.53-2.59s-2.52,1.2-2.52,2.57Z"/>
          <path class="cls-4" d="m33.02,132.15c-.7.84-1.57,1.25-2.57,1.25-1.86,0-3.26-1.55-3.26-3.36s1.44-3.33,3.29-3.33c1.03,0,1.91.44,2.54,1.33v-3.62h.82v8.83h-.82v-1.09Zm-4.99-2.09c0,1.38,1.08,2.59,2.51,2.59,1.31,0,2.53-.98,2.53-2.57,0-1.48-1.09-2.59-2.52-2.59s-2.52,1.2-2.52,2.57Z"/>
          <path class="cls-4" d="m35.93,130.12c.04,1.46,1.03,2.53,2.4,2.53s1.97-.75,2.43-1.52l.68.36c-.65,1.27-1.64,1.91-3.03,1.91-2.11,0-3.32-1.62-3.32-3.32s1.28-3.37,3.27-3.37c1.81,0,3.27,1.31,3.3,3.42h-5.73Zm4.83-.72c-.34-1.32-1.28-1.91-2.39-1.91s-1.99.61-2.36,1.91h4.75Z"/>
          <path class="cls-4" d="m51.47,132.15c-.7.84-1.57,1.25-2.57,1.25-1.86,0-3.26-1.55-3.26-3.36s1.44-3.33,3.29-3.33c1.03,0,1.91.44,2.54,1.33v-3.62h.82v8.83h-.82v-1.09Zm-4.99-2.09c0,1.38,1.08,2.59,2.51,2.59,1.31,0,2.53-.98,2.53-2.57,0-1.48-1.09-2.59-2.52-2.59s-2.52,1.2-2.52,2.57Z"/>
          <path class="cls-4" d="m54.37,130.12c.04,1.46,1.03,2.53,2.4,2.53s1.97-.75,2.43-1.52l.68.36c-.65,1.27-1.64,1.91-3.03,1.91-2.11,0-3.32-1.62-3.32-3.32s1.28-3.37,3.27-3.37c1.81,0,3.27,1.31,3.3,3.42h-5.73Zm4.83-.72c-.34-1.32-1.28-1.91-2.39-1.91s-1.99.61-2.36,1.91h4.75Z"/>
          <path class="cls-4" d="m67.52,131.95c-.62.95-1.7,1.44-2.99,1.44-2.1,0-3.5-1.51-3.5-3.29,0-1.87,1.46-3.41,3.56-3.41,1.22,0,2.34.5,2.93,1.49l-.66.41c-.56-.74-1.34-1.1-2.3-1.1-1.62,0-2.69,1.19-2.69,2.55s1.06,2.6,2.7,2.6c.92,0,1.69-.37,2.29-1.12l.66.42Z"/>
          <path class="cls-4" d="m69.77,124.91c0,.37-.31.68-.68.68s-.67-.31-.67-.68.31-.67.67-.67.68.3.68.67Zm-1.08,1.96h.82v6.37h-.82v-6.37Z"/>
          <path class="cls-4" d="m70.81,131.91c.41.46.85.71,1.33.71.62,0,1.17-.46,1.17-1.05,0-.37-.22-.72-.53-.89-1.46-.82-2.21-1.16-2.21-2.28,0-1.01.78-1.69,1.75-1.69.7,0,1.22.34,1.76.86l-.53.54c-.38-.37-.77-.61-1.28-.61s-.96.37-.96.85c0,.32.2.68.49.85,1.46.85,2.28,1.18,2.28,2.33,0,1-.77,1.88-1.92,1.88-.71,0-1.43-.32-1.88-.91l.52-.59Z"/>
          <path class="cls-4" d="m76.22,124.91c0,.37-.31.68-.68.68s-.67-.31-.67-.68.31-.67.67-.67.68.3.68.67Zm-1.08,1.96h.82v6.37h-.82v-6.37Z"/>
          <path class="cls-4" d="m83.7,130.07c0,1.81-1.4,3.33-3.32,3.33s-3.32-1.52-3.32-3.33,1.42-3.37,3.32-3.37,3.32,1.55,3.32,3.37Zm-5.8.01c0,1.39,1.04,2.53,2.48,2.53s2.48-1.14,2.48-2.53-1.13-2.59-2.48-2.59-2.48,1.18-2.48,2.59Z"/>
          <path class="cls-4" d="m85.73,128.01c.66-.86,1.45-1.31,2.39-1.31,1.39,0,2.36.96,2.36,2.96v3.57h-.82v-3.47c0-1.5-.47-2.33-1.7-2.33-.68,0-1.25.3-1.68.86-.48.62-.55,1.25-.55,2.25v2.67h-.82v-6.37h.82v1.14Z"/>
          <path class="cls-4" d="m92.47,130.12c.04,1.46,1.03,2.53,2.4,2.53s1.97-.75,2.43-1.52l.68.36c-.65,1.27-1.64,1.91-3.03,1.91-2.11,0-3.32-1.62-3.32-3.32s1.28-3.37,3.27-3.37c1.81,0,3.27,1.31,3.3,3.42h-5.73Zm4.83-.72c-.34-1.32-1.28-1.91-2.39-1.91s-1.99.61-2.36,1.91h4.75Z"/>
          <path class="cls-4" d="m99.35,131.91c.41.46.85.71,1.33.71.62,0,1.17-.46,1.17-1.05,0-.37-.22-.72-.53-.89-1.46-.82-2.21-1.16-2.21-2.28,0-1.01.78-1.69,1.75-1.69.7,0,1.22.34,1.76.86l-.53.54c-.38-.37-.77-.61-1.28-.61s-.96.37-.96.85c0,.32.2.68.49.85,1.46.85,2.28,1.18,2.28,2.33,0,1-.77,1.88-1.92,1.88-.71,0-1.43-.32-1.88-.91l.52-.59Z"/>
          <path class="cls-4" d="m105.41,132.67c0,.41-.32.73-.72.73s-.72-.34-.72-.73.32-.73.72-.73.72.32.72.73Z"/>
        </g>
        <path class="cls-3" d="m297.31,4.45c-8.48-2.88-17.56-4.45-27.01-4.45-46.28,0-83.8,37.52-83.8,83.8s37.52,83.8,83.8,83.8c9.13,0,17.92-1.46,26.15-4.16.29-.1.57-.22.86-.34V4.45Z"/>
        <g>
          <path class="cls-4" d="m251.71,65.57c-4.9,2.75-8.16,7.41-9.61,12.65-3.08-4.13-7.23-8.73-10.99-8.16-3.83.58-3.97,4.95-3.77,8.16.47,7.29,4.92,13.77,8.81,19.68,4.13,6.27,8.6,12.17,14.21,17.13-.21.6-.41,1.21-.61,1.81-1,3.06,3.01,4.63,4.55,1.89,5.27-9.39,8.91-19.78,11.98-30.08,1.96-6.57,4.13-15.38-.58-21.41-3.59-4.59-9.26-4.34-14-1.68Zm8.91,20.73c-2.47,8.35-5.82,16.4-8.79,24.58-5.56-5.51-9.82-12.09-14.01-18.71-2.06-3.26-7.72-11.11-5.63-15.2-.04-3.12,1.09-2.73,3.38,1.17.55.62,1.1,1.23,1.65,1.85,1.62,1.88,3.06,3.89,4.47,5.93,1.11,1.61,4.23,1.02,4.29-1.11.16-5.46,2.26-10.95,7.03-14.08,11.96-7.86,9.16,10.35,7.62,15.57Z"/>
          <path class="cls-4" d="m237.93,125.72c-.12-1.83-1.49-3.14-3.25-3.42-2.29-.36-3.51,1.22-5.17,2.09-1.8-3.17-4.85-7.9-8.32-4.39-3.29,3.33-1.43,10.3.03,14.04,1.02,2.59,4.96,1.01,4.01-1.59-.55-1.51-.97-3.03-1.12-4.64-.08-.84.18-1.98.16-2.89.75,1.24,1.46,2.49,2.25,3.71.6.92,1.81,1.09,2.77.79,1.04-.33,1.82-.84,2.66-1.52,1.25-1.01,2.02-1.92.81.28-1.43,2.58-3.38,5.09-5.53,7.1-1.73,1.62.22,4.47,2.24,3.02,3.58-2.56,8.77-7.67,8.46-12.57Z"/>
          <path class="cls-4" d="m270.63,51.99c-1.91-.86-5.69-2.33-5.24-5.03.54-3.23,4.53.83,5.88,1.46,1.39.66,2.64-.65,2.6-1.97-.03-.97.91-4.23,2.01-2.16.46.86.33,2.39.18,3.3-.35,2.2-1.54,4.21-3.14,5.73-1.16,1.09.09,2.78,1.47,1.98,4.11-2.38,6.29-8.43,3.92-12.8-.93-1.71-2.68-2.45-4.56-1.8-1.25.43-2,1.27-2.52,2.28-3.16-2.35-7.93-2.82-9.9,1.23-2.83,5.81,2.98,9.95,7.6,11.91,2.64,1.12,4.32-2.93,1.71-4.11Z"/>
          <path class="cls-4" d="m274.94,115.08c-.52-.66-1.57-.73-2.09-.03-.74.99-1.24,2.02-1.51,3.15-2.08-.38-4.23-.29-6.04.94-2.08,1.42-3.03,3.88-2.22,6.29,1.54,4.56,6.81,6.31,11.24,5.45.49.62,1.7.71,2.23-.21.13-.23.25-.46.37-.69.67-.48.89-1.22.78-1.93,1.4-4.44.2-9.21-2.75-12.98Zm-6.27,10.85c-1.02-.72-2.57-2.15-1.03-3.62,1.16-1.11,3.57-.39,4.94-.19,1.01.15,2.26-.84,1.98-1.96-.11-.44-.17-.85-.18-1.23,1.14,2.26,1.43,4.84.97,7.34-.13.03-.26.07-.4.13-2.04.85-4.41.85-6.28-.46Z"/>
          <path class="cls-4" d="m214.76,75.7c1.17-3.93,3.23-6.97,5.73-9.63.09-.07.16-.15.23-.24,2.91-3.04,6.38-5.62,9.73-8.51,2.88-2.49,8.09-6.64,7.15-11.07-.81-3.81-5.12-3.94-8.27-3.28-.58.12-1.12.27-1.64.45.7-5.26-.37-10.39-5.72-7.96-3.04,1.38-4.51,6.38-5.28,9.23-1.65,6.13-.93,12.75.96,18.78-2.81,3.25-4.71,6.96-4.92,11.7-.05,1.1,1.66,1.79,2.03.55Zm5.53-31.45c.69-1.95,1.91-7.29,4.88-3.26.6.81.5,2.19.08,3.66-2,1.43-3.13,3.62-3.12,6.63,0,1.35,1.76,1.46,2.49.69.93-.99,1.85-3.09,2.47-5.49,2.54-1.36,6.35-.07,6.18,2.45-.06.87-3.61,4.01-3.83,4.21-2.24,2.1-4.76,3.84-7.1,5.8-.84.7-1.65,1.42-2.42,2.15-1.34-5.53-1.54-11.44.37-16.83Z"/>
        </g>
      </g>
    </g>
  </g>
</svg>