<?xml version="1.0" encoding="UTF-8"?>
<svg xmlns="http://www.w3.org/2000/svg" xmlns:xlink="http://www.w3.org/1999/xlink" viewBox="0 0 237.7 282.77">
  <defs>
    <style>
      .cls-1 {
        fill: #fadfb6;
      }

      .cls-2 {
        fill: #deb481;
      }

      .cls-3 {
        fill: #d4ecf0;
      }

      .cls-4 {
        fill: #3765ae;
      }

      .cls-5 {
        fill: url(#linear-gradient);
        mix-blend-mode: multiply;
      }

      .cls-6 {
        isolation: isolate;
      }
    </style>
    <linearGradient id="linear-gradient" x1="75.84" y1="388.59" x2="279.74" y2="-426.43" gradientUnits="userSpaceOnUse">
      <stop offset=".02" stop-color="#fff"/>
      <stop offset="1" stop-color="#231f20"/>
    </linearGradient>
  </defs>
  <g class="cls-6">
    <g id="Capa_2" data-name="Capa 2">
      <g id="Capa_1-2" data-name="Capa 1">
        <g>
          <path class="cls-5" d="m15.42,89.79h202.75s-13.46,115.95,19.53,192.16l-224.78.83S.08,210.11,15.42,89.79Z"/>
          <path class="cls-2" d="m15.42,89.79h204.43s-12.3,102.21,17.85,170.17l-207.73.74S1.4,197.08,15.42,89.79Z"/>
          <path class="cls-1" d="m15.42,89.79h204.43s-12.3,102.21,17.85,170.17l-196.39-13.25S1.4,197.08,15.42,89.79Z"/>
        </g>
        <g>
          <path class="cls-4" d="m121.66,115.64c-.76-1-1.83-1.49-3.07-1.49-2.04,0-3.75,1.51-3.75,3.71s1.63,3.69,3.8,3.69c1.2,0,2.22-.49,3.02-1.43l.68.52c-.89,1.12-2.2,1.7-3.77,1.7-2.88,0-4.64-2.03-4.64-4.56s1.97-4.47,4.64-4.47c1.58,0,2.92.62,3.77,1.81l-.68.52Z"/>
          <path class="cls-4" d="m129.98,118.98c0,1.81-1.4,3.33-3.32,3.33s-3.32-1.52-3.32-3.33,1.42-3.37,3.32-3.37,3.32,1.55,3.32,3.37Zm-5.8.01c0,1.39,1.04,2.53,2.48,2.53s2.48-1.14,2.48-2.53-1.13-2.59-2.48-2.59-2.48,1.17-2.48,2.59Z"/>
          <path class="cls-4" d="m132.02,116.92c.66-.86,1.45-1.31,2.39-1.31,1.39,0,2.36.96,2.36,2.96v3.57h-.82v-3.47c0-1.5-.47-2.33-1.7-2.33-.68,0-1.25.3-1.68.86-.48.62-.55,1.25-.55,2.25v2.67h-.82v-6.37h.82v1.14Z"/>
          <path class="cls-4" d="m144.41,120.86c-.62.95-1.7,1.44-2.99,1.44-2.1,0-3.5-1.51-3.5-3.29,0-1.87,1.46-3.41,3.56-3.41,1.22,0,2.34.5,2.93,1.49l-.66.41c-.56-.74-1.34-1.1-2.3-1.1-1.62,0-2.69,1.19-2.69,2.55s1.06,2.6,2.7,2.6c.92,0,1.69-.37,2.29-1.12l.66.42Z"/>
          <path class="cls-4" d="m146.22,119.03c.04,1.46,1.03,2.53,2.4,2.53s1.97-.75,2.43-1.52l.68.36c-.65,1.27-1.64,1.91-3.03,1.91-2.11,0-3.32-1.62-3.32-3.32s1.28-3.37,3.27-3.37c1.81,0,3.27,1.31,3.3,3.42h-5.73Zm4.83-.72c-.34-1.32-1.28-1.91-2.39-1.91s-1.99.61-2.36,1.91h4.75Z"/>
          <path class="cls-4" d="m158.74,121.05c-.7.84-1.57,1.25-2.57,1.25-1.86,0-3.26-1.55-3.26-3.36s1.44-3.33,3.29-3.33c1.03,0,1.91.44,2.54,1.33v-3.62h.82v8.83h-.82v-1.09Zm-4.99-2.09c0,1.38,1.08,2.59,2.51,2.59,1.31,0,2.53-.98,2.53-2.57,0-1.47-1.09-2.59-2.52-2.59s-2.52,1.2-2.52,2.57Z"/>
          <path class="cls-4" d="m161.64,119.03c.04,1.46,1.03,2.53,2.4,2.53s1.97-.75,2.43-1.52l.68.36c-.65,1.27-1.64,1.91-3.03,1.91-2.11,0-3.32-1.62-3.32-3.32s1.28-3.37,3.27-3.37c1.81,0,3.27,1.31,3.3,3.42h-5.73Zm4.83-.72c-.34-1.32-1.28-1.91-2.39-1.91s-1.99.61-2.36,1.91h4.75Z"/>
          <path class="cls-4" d="m169.42,116.92c.66-.86,1.45-1.31,2.39-1.31,1.39,0,2.36.96,2.36,2.96v3.57h-.82v-3.47c0-1.5-.47-2.33-1.7-2.33-.68,0-1.25.3-1.68.86-.48.62-.55,1.25-.55,2.25v2.67h-.82v-6.37h.82v1.14Z"/>
          <path class="cls-4" d="m185.22,115.78h.8v6.37h-.8v-1.09c-.7.84-1.57,1.25-2.57,1.25-1.86,0-3.26-1.55-3.26-3.36s1.44-3.33,3.29-3.33c1.03,0,1.91.44,2.54,1.33v-1.16Zm-4.99,3.19c0,1.38,1.08,2.59,2.51,2.59,1.31,0,2.54-.98,2.54-2.57,0-1.47-1.1-2.59-2.53-2.59s-2.52,1.2-2.52,2.57Z"/>
          <path class="cls-4" d="m191.52,113.32h.82v8.83h-.82v-8.83Z"/>
          <path class="cls-4" d="m199.28,115.78h.8v6.37h-.8v-1.09c-.7.84-1.57,1.25-2.57,1.25-1.86,0-3.26-1.55-3.26-3.36s1.44-3.33,3.29-3.33c1.03,0,1.91.44,2.54,1.33v-1.16Zm-4.99,3.19c0,1.38,1.08,2.59,2.51,2.59,1.31,0,2.54-.98,2.54-2.57,0-1.47-1.1-2.59-2.53-2.59s-2.52,1.2-2.52,2.57Z"/>
          <path class="cls-4" d="m201.55,120.81c.41.46.85.71,1.33.71.62,0,1.17-.46,1.17-1.06,0-.37-.22-.72-.53-.89-1.46-.82-2.21-1.16-2.21-2.28,0-1.01.78-1.69,1.75-1.69.7,0,1.22.34,1.76.86l-.53.54c-.38-.37-.77-.61-1.28-.61s-.96.37-.96.85c0,.32.2.68.49.85,1.46.85,2.28,1.18,2.28,2.33,0,1-.77,1.88-1.92,1.88-.71,0-1.43-.32-1.88-.91l.52-.59Z"/>
          <path class="cls-4" d="m96.73,129.94c.64-.89,1.51-1.33,2.53-1.33,1.86,0,3.3,1.52,3.3,3.33s-1.4,3.36-3.27,3.36c-1,0-1.86-.41-2.55-1.25v3.42h-.82v-8.7h.82v1.16Zm-.06,2.05c0,1.58,1.22,2.57,2.53,2.57,1.42,0,2.52-1.2,2.52-2.59s-1.06-2.57-2.52-2.57-2.53,1.12-2.53,2.59Z"/>
          <path class="cls-4" d="m104.32,132.03c.04,1.46,1.03,2.53,2.4,2.53s1.97-.75,2.43-1.52l.68.36c-.65,1.27-1.64,1.91-3.03,1.91-2.11,0-3.32-1.62-3.32-3.32s1.28-3.37,3.27-3.37c1.81,0,3.27,1.31,3.3,3.42h-5.73Zm4.83-.72c-.33-1.32-1.28-1.91-2.39-1.91s-1.99.61-2.36,1.91h4.75Z"/>
          <path class="cls-4" d="m111.82,129.7c.48-.7,1-1.09,1.64-1.09.37,0,.56.12.73.22l-.43.7c-.1-.05-.25-.12-.43-.12-.6,0-1.14.52-1.38,1.39-.11.41-.13,1.07-.13,1.93v2.42h-.86v-6.37h.86v.92Z"/>
          <path class="cls-4" d="m114.51,133.81c.41.46.85.71,1.33.71.62,0,1.17-.46,1.17-1.06,0-.37-.22-.72-.53-.89-1.46-.82-2.21-1.16-2.21-2.28,0-1.01.78-1.69,1.75-1.69.7,0,1.22.34,1.76.86l-.53.54c-.38-.37-.77-.61-1.28-.61s-.96.37-.96.85c0,.32.2.68.49.85,1.46.85,2.28,1.18,2.28,2.33,0,1-.77,1.88-1.92,1.88-.71,0-1.43-.32-1.88-.91l.52-.59Z"/>
          <path class="cls-4" d="m125.3,131.98c0,1.81-1.4,3.33-3.32,3.33s-3.32-1.52-3.32-3.33,1.42-3.37,3.32-3.37,3.32,1.55,3.32,3.37Zm-5.8.01c0,1.39,1.04,2.53,2.48,2.53s2.48-1.14,2.48-2.53-1.13-2.59-2.48-2.59-2.48,1.17-2.48,2.59Z"/>
          <path class="cls-4" d="m127.33,129.92c.66-.86,1.45-1.31,2.39-1.31,1.39,0,2.36.96,2.36,2.96v3.57h-.82v-3.47c0-1.5-.47-2.33-1.7-2.33-.68,0-1.25.3-1.68.86-.48.62-.55,1.25-.55,2.25v2.67h-.82v-6.37h.82v1.14Z"/>
          <path class="cls-4" d="m139.07,128.78h.8v6.37h-.8v-1.09c-.7.84-1.57,1.25-2.57,1.25-1.86,0-3.26-1.55-3.26-3.36s1.44-3.33,3.29-3.33c1.03,0,1.91.44,2.54,1.33v-1.16Zm-4.99,3.19c0,1.38,1.08,2.59,2.51,2.59,1.31,0,2.54-.98,2.54-2.57,0-1.47-1.1-2.59-2.53-2.59s-2.52,1.2-2.52,2.57Z"/>
          <path class="cls-4" d="m141.35,133.81c.41.46.85.71,1.33.71.62,0,1.17-.46,1.17-1.06,0-.37-.22-.72-.53-.89-1.46-.82-2.21-1.16-2.21-2.28,0-1.01.78-1.69,1.75-1.69.7,0,1.22.34,1.76.86l-.53.54c-.38-.37-.77-.61-1.28-.61s-.96.37-.96.85c0,.32.2.68.49.85,1.46.85,2.28,1.18,2.28,2.33,0,1-.77,1.88-1.92,1.88-.71,0-1.43-.32-1.88-.91l.52-.59Z"/>
          <path class="cls-4" d="m155.07,126.4h.82v2.38h1.31v.72h-1.31v5.65h-.82v-5.65h-1.13v-.72h1.13v-2.38Z"/>
          <path class="cls-4" d="m164.45,131.98c0,1.81-1.4,3.33-3.32,3.33s-3.32-1.52-3.32-3.33,1.42-3.37,3.32-3.37,3.32,1.55,3.32,3.37Zm-5.8.01c0,1.39,1.04,2.53,2.48,2.53s2.48-1.14,2.48-2.53-1.13-2.59-2.48-2.59-2.48,1.17-2.48,2.59Z"/>
          <path class="cls-4" d="m170.82,135.14h-.82v-3.26c0-.49-.05-.9-.06-1.19-.04-.7-.6-1.29-1.44-1.29-.56,0-1.13.28-1.49.74-.46.59-.54,1.34-.54,2.3v2.7h-.82v-6.37h.82v1.09c.56-.82,1.27-1.26,2.18-1.26.97,0,1.67.5,2.02,1.54.56-1.02,1.4-1.54,2.34-1.54,1.32,0,2.17.95,2.17,2.76v3.78h-.82v-3.48c0-.47-.06-.84-.07-1.08-.04-.56-.58-1.19-1.44-1.19-.79,0-1.49.48-1.81,1.29-.2.52-.23,1.08-.23,1.67v2.78Z"/>
          <path class="cls-4" d="m182.17,128.78h.8v6.37h-.8v-1.09c-.7.84-1.57,1.25-2.57,1.25-1.86,0-3.26-1.55-3.26-3.36s1.44-3.33,3.29-3.33c1.03,0,1.91.44,2.54,1.33v-1.16Zm-4.99,3.19c0,1.38,1.08,2.59,2.51,2.59,1.31,0,2.54-.98,2.54-2.57,0-1.47-1.1-2.59-2.53-2.59s-2.52,1.2-2.52,2.57Z"/>
          <path class="cls-4" d="m185.06,129.7c.48-.7,1-1.09,1.64-1.09.37,0,.56.12.73.22l-.43.7c-.1-.05-.25-.12-.43-.12-.6,0-1.14.52-1.38,1.39-.11.41-.13,1.07-.13,1.93v2.42h-.86v-6.37h.86v.92Z"/>
          <path class="cls-4" d="m196.93,132.03c.04,1.46,1.03,2.53,2.4,2.53s1.97-.75,2.43-1.52l.68.36c-.65,1.27-1.64,1.91-3.03,1.91-2.11,0-3.32-1.62-3.32-3.32s1.28-3.37,3.27-3.37c1.81,0,3.27,1.31,3.3,3.42h-5.73Zm4.83-.72c-.34-1.32-1.28-1.91-2.39-1.91s-1.99.61-2.36,1.91h4.75Z"/>
          <path class="cls-4" d="m203.77,126.32h.82v8.83h-.82v-8.83Z"/>
          <path class="cls-4" d="m55.79,146.86c-.62.95-1.7,1.44-2.99,1.44-2.1,0-3.5-1.51-3.5-3.29,0-1.87,1.46-3.41,3.56-3.41,1.22,0,2.34.5,2.93,1.49l-.66.41c-.56-.74-1.34-1.1-2.3-1.1-1.62,0-2.69,1.19-2.69,2.55s1.06,2.6,2.7,2.6c.92,0,1.69-.37,2.29-1.12l.66.42Z"/>
          <path class="cls-4" d="m63.41,144.98c0,1.81-1.4,3.33-3.32,3.33s-3.32-1.52-3.32-3.33,1.42-3.37,3.32-3.37,3.32,1.55,3.32,3.37Zm-5.8.01c0,1.39,1.04,2.53,2.48,2.53s2.48-1.14,2.48-2.53-1.13-2.59-2.48-2.59-2.48,1.17-2.48,2.59Z"/>
          <path class="cls-4" d="m65.44,142.92c.66-.86,1.45-1.31,2.39-1.31,1.39,0,2.36.96,2.36,2.96v3.57h-.82v-3.47c0-1.5-.47-2.33-1.7-2.33-.68,0-1.25.3-1.68.86-.48.62-.55,1.25-.55,2.25v2.67h-.82v-6.37h.82v1.14Z"/>
          <path class="cls-4" d="m72.37,139.4h.82v2.38h1.31v.72h-1.31v5.65h-.82v-5.65h-1.13v-.72h1.13v-2.38Z"/>
          <path class="cls-4" d="m75.95,142.7c.48-.7,1-1.09,1.64-1.09.37,0,.56.12.73.22l-.43.7c-.1-.05-.25-.12-.43-.12-.6,0-1.14.52-1.38,1.39-.11.41-.13,1.07-.13,1.93v2.42h-.86v-6.37h.86v.92Z"/>
          <path class="cls-4" d="m85.02,144.98c0,1.81-1.4,3.33-3.32,3.33s-3.32-1.52-3.32-3.33,1.42-3.37,3.32-3.37,3.32,1.55,3.32,3.37Zm-5.8.01c0,1.39,1.04,2.53,2.48,2.53s2.48-1.14,2.48-2.53-1.13-2.59-2.48-2.59-2.48,1.17-2.48,2.59Z"/>
          <path class="cls-4" d="m86.12,139.32h.82v8.83h-.82v-8.83Z"/>
          <path class="cls-4" d="m104.83,147.05c-.7.84-1.57,1.25-2.57,1.25-1.86,0-3.26-1.55-3.26-3.36s1.44-3.33,3.29-3.33c1.03,0,1.91.44,2.54,1.33v-3.62h.82v8.83h-.82v-1.09Zm-4.99-2.09c0,1.38,1.08,2.59,2.51,2.59,1.31,0,2.53-.98,2.53-2.57,0-1.47-1.09-2.59-2.52-2.59s-2.52,1.2-2.52,2.57Z"/>
          <path class="cls-4" d="m107.74,145.03c.04,1.46,1.03,2.53,2.4,2.53s1.97-.75,2.43-1.52l.68.36c-.65,1.27-1.64,1.91-3.03,1.91-2.11,0-3.32-1.62-3.32-3.32s1.28-3.37,3.27-3.37c1.81,0,3.27,1.31,3.3,3.42h-5.73Zm4.83-.72c-.33-1.32-1.28-1.91-2.39-1.91s-1.99.61-2.36,1.91h4.75Z"/>
          <path class="cls-4" d="m125.56,146.81c.41.46.85.71,1.33.71.62,0,1.17-.46,1.17-1.06,0-.37-.22-.72-.53-.89-1.46-.82-2.21-1.16-2.21-2.28,0-1.01.78-1.69,1.75-1.69.7,0,1.22.34,1.76.86l-.53.54c-.38-.37-.77-.61-1.28-.61s-.96.37-.96.85c0,.32.2.68.49.85,1.46.85,2.28,1.18,2.28,2.33,0,1-.77,1.88-1.92,1.88-.71,0-1.43-.32-1.88-.91l.52-.59Z"/>
          <path class="cls-4" d="m134.63,141.78h.86v3.3c0,2.15-.97,3.23-2.79,3.23s-2.81-1.08-2.81-3.23v-3.3h.86v3.11c0,.67,0,1.22.18,1.61.3.65.96,1.02,1.76,1.02.59,0,1.1-.22,1.44-.56.5-.54.49-1.15.49-2.06v-3.11Z"/>
          <path class="cls-4" d="m148.48,145.03c.04,1.46,1.03,2.53,2.4,2.53s1.97-.75,2.43-1.52l.68.36c-.65,1.27-1.64,1.91-3.03,1.91-2.11,0-3.32-1.62-3.32-3.32s1.28-3.37,3.27-3.37c1.81,0,3.27,1.31,3.3,3.42h-5.73Zm4.83-.72c-.34-1.32-1.28-1.91-2.39-1.91s-1.99.61-2.36,1.91h4.75Z"/>
          <path class="cls-4" d="m161.63,146.86c-.62.95-1.7,1.44-2.99,1.44-2.1,0-3.5-1.51-3.5-3.29,0-1.87,1.46-3.41,3.56-3.41,1.22,0,2.34.5,2.93,1.49l-.66.41c-.56-.74-1.34-1.1-2.3-1.1-1.62,0-2.69,1.19-2.69,2.55s1.06,2.6,2.7,2.6c.92,0,1.69-.37,2.29-1.12l.66.42Z"/>
          <path class="cls-4" d="m169.24,144.98c0,1.81-1.4,3.33-3.32,3.33s-3.32-1.52-3.32-3.33,1.42-3.37,3.32-3.37,3.32,1.55,3.32,3.37Zm-5.8.01c0,1.39,1.04,2.53,2.48,2.53s2.48-1.14,2.48-2.53-1.13-2.59-2.48-2.59-2.48,1.17-2.48,2.59Z"/>
          <path class="cls-4" d="m171.28,142.92c.66-.86,1.45-1.31,2.39-1.31,1.39,0,2.36.96,2.36,2.96v3.57h-.82v-3.47c0-1.5-.47-2.33-1.7-2.33-.68,0-1.25.3-1.68.86-.48.62-.55,1.25-.55,2.25v2.67h-.82v-6.37h.82v1.14Z"/>
          <path class="cls-4" d="m183.82,144.98c0,1.81-1.4,3.33-3.32,3.33s-3.32-1.52-3.32-3.33,1.42-3.37,3.32-3.37,3.32,1.55,3.32,3.37Zm-5.8.01c0,1.39,1.04,2.53,2.48,2.53s2.48-1.14,2.48-2.53-1.13-2.59-2.48-2.59-2.48,1.17-2.48,2.59Z"/>
          <path class="cls-4" d="m190.19,148.14h-.82v-3.26c0-.49-.05-.9-.06-1.19-.04-.7-.6-1.29-1.44-1.29-.56,0-1.13.28-1.49.74-.46.59-.54,1.34-.54,2.3v2.7h-.82v-6.37h.82v1.09c.56-.82,1.27-1.26,2.18-1.26.97,0,1.67.5,2.02,1.54.56-1.02,1.4-1.54,2.34-1.54,1.32,0,2.17.95,2.17,2.76v3.78h-.82v-3.48c0-.47-.06-.84-.07-1.08-.04-.56-.58-1.19-1.44-1.19-.79,0-1.49.48-1.81,1.29-.2.52-.23,1.08-.23,1.67v2.78Z"/>
          <path class="cls-4" d="m196.7,138.78h1.26l-1.74,1.81h-.8l1.28-1.81Zm-.82,3h.82v6.37h-.82v-6.37Z"/>
          <path class="cls-4" d="m203.64,141.78h.8v6.37h-.8v-1.09c-.7.84-1.57,1.25-2.57,1.25-1.86,0-3.26-1.55-3.26-3.36s1.44-3.33,3.29-3.33c1.03,0,1.91.44,2.54,1.33v-1.16Zm-4.99,3.19c0,1.38,1.08,2.59,2.51,2.59,1.31,0,2.54-.98,2.54-2.57,0-1.47-1.1-2.59-2.53-2.59s-2.52,1.2-2.52,2.57Z"/>
          <path class="cls-4" d="m50.43,155.94c.64-.89,1.51-1.33,2.53-1.33,1.86,0,3.3,1.52,3.3,3.33s-1.4,3.36-3.27,3.36c-1,0-1.86-.41-2.55-1.25v3.42h-.82v-8.7h.82v1.16Zm-.06,2.05c0,1.58,1.22,2.57,2.53,2.57,1.42,0,2.52-1.2,2.52-2.59s-1.06-2.57-2.52-2.57-2.53,1.12-2.53,2.59Z"/>
          <path class="cls-4" d="m58.02,155.7c.48-.7,1-1.09,1.64-1.09.37,0,.56.12.73.22l-.43.7c-.1-.05-.25-.12-.43-.12-.6,0-1.14.52-1.38,1.39-.11.41-.13,1.07-.13,1.93v2.42h-.86v-6.37h.86v.92Z"/>
          <path class="cls-4" d="m61.29,158.03c.04,1.46,1.03,2.53,2.4,2.53s1.97-.75,2.43-1.52l.68.36c-.65,1.27-1.64,1.91-3.03,1.91-2.11,0-3.32-1.62-3.32-3.32s1.28-3.37,3.27-3.37c1.81,0,3.27,1.31,3.3,3.42h-5.73Zm4.83-.72c-.33-1.32-1.28-1.91-2.39-1.91s-1.99.61-2.36,1.91h4.75Z"/>
          <path class="cls-4" d="m68.16,159.81c.41.46.85.71,1.33.71.62,0,1.17-.46,1.17-1.06,0-.37-.22-.72-.53-.89-1.46-.82-2.21-1.16-2.21-2.28,0-1.01.78-1.69,1.75-1.69.7,0,1.22.34,1.76.86l-.53.54c-.38-.37-.77-.61-1.28-.61s-.96.37-.96.85c0,.32.2.68.49.85,1.46.85,2.28,1.18,2.28,2.33,0,1-.77,1.88-1.92,1.88-.71,0-1.43-.32-1.88-.91l.52-.59Z"/>
          <path class="cls-4" d="m73.14,158.03c.04,1.46,1.03,2.53,2.4,2.53s1.97-.75,2.43-1.52l.68.36c-.65,1.27-1.64,1.91-3.03,1.91-2.11,0-3.32-1.62-3.32-3.32s1.28-3.37,3.27-3.37c1.81,0,3.27,1.31,3.3,3.42h-5.73Zm4.83-.72c-.33-1.32-1.28-1.91-2.39-1.91s-1.99.61-2.36,1.91h4.75Z"/>
          <path class="cls-4" d="m80.92,155.92c.66-.86,1.45-1.31,2.39-1.31,1.39,0,2.36.96,2.36,2.96v3.57h-.82v-3.47c0-1.5-.47-2.33-1.7-2.33-.68,0-1.25.3-1.68.86-.48.62-.55,1.25-.55,2.25v2.67h-.82v-6.37h.82v1.14Z"/>
          <path class="cls-4" d="m87.86,152.4h.82v2.38h1.31v.72h-1.31v5.65h-.82v-5.65h-1.13v-.72h1.13v-2.38Z"/>
          <path class="cls-4" d="m91.43,158.03c.04,1.46,1.03,2.53,2.4,2.53s1.97-.75,2.43-1.52l.68.36c-.65,1.27-1.64,1.91-3.03,1.91-2.11,0-3.32-1.62-3.32-3.32s1.28-3.37,3.27-3.37c1.81,0,3.27,1.31,3.3,3.42h-5.73Zm4.83-.72c-.34-1.32-1.28-1.91-2.39-1.91s-1.99.61-2.36,1.91h4.75Z"/>
          <path class="cls-4" d="m102.96,154.78h.86l2.19,4.91,2.12-4.91h.88l-3.8,8.7h-.86l1.22-2.81-2.62-5.89Z"/>
          <path class="cls-4" d="m115.41,153.78c0-1.03.25-1.64,1.3-1.64.35,0,.67.1.94.18v.8c-.19-.08-.44-.19-.77-.19-.67,0-.65.41-.65.98v.86h1.34v.72h-1.34v5.65h-.82v-5.65h-.84v-.72h.84v-1Z"/>
          <path class="cls-4" d="m123.13,154.78h.86v3.3c0,2.15-.97,3.23-2.79,3.23s-2.81-1.08-2.81-3.23v-3.3h.86v3.11c0,.67,0,1.22.18,1.61.3.65.96,1.02,1.76,1.02.59,0,1.1-.22,1.44-.56.5-.54.49-1.15.49-2.06v-3.11Z"/>
          <path class="cls-4" d="m126.22,152.4h.82v2.38h1.31v.72h-1.31v5.65h-.82v-5.65h-1.13v-.72h1.13v-2.38Z"/>
          <path class="cls-4" d="m133.89,154.78h.86v3.3c0,2.15-.97,3.23-2.79,3.23s-2.81-1.08-2.81-3.23v-3.3h.86v3.11c0,.67,0,1.22.18,1.61.3.65.96,1.02,1.76,1.02.59,0,1.1-.22,1.44-.56.5-.54.49-1.15.49-2.06v-3.11Z"/>
          <path class="cls-4" d="m136.8,155.7c.48-.7,1-1.09,1.64-1.09.37,0,.56.12.73.22l-.43.7c-.1-.05-.25-.12-.43-.12-.6,0-1.14.52-1.38,1.39-.11.41-.13,1.07-.13,1.93v2.42h-.86v-6.37h.86v.92Z"/>
          <path class="cls-4" d="m145.11,154.78h.8v6.37h-.8v-1.09c-.7.84-1.57,1.25-2.57,1.25-1.86,0-3.26-1.55-3.26-3.36s1.44-3.33,3.29-3.33c1.03,0,1.91.44,2.54,1.33v-1.16Zm-4.99,3.19c0,1.38,1.08,2.59,2.51,2.59,1.31,0,2.54-.98,2.54-2.57,0-1.47-1.1-2.59-2.53-2.59s-2.52,1.2-2.52,2.57Z"/>
          <path class="cls-4" d="m148.29,159.56l.78.37-1.19,2.22-.58-.24.98-2.35Z"/>
          <path class="cls-4" d="m161.28,154.78h.8v6.37h-.8v-1.09c-.7.84-1.57,1.25-2.57,1.25-1.86,0-3.26-1.55-3.26-3.36s1.44-3.33,3.29-3.33c1.03,0,1.91.44,2.54,1.33v-1.16Zm-4.99,3.19c0,1.38,1.08,2.59,2.51,2.59,1.31,0,2.54-.98,2.54-2.57,0-1.47-1.1-2.59-2.53-2.59s-2.52,1.2-2.52,2.57Z"/>
          <path class="cls-4" d="m163.52,152.32h.82v8.83h-.82v-8.83Z"/>
          <path class="cls-4" d="m171.81,155.92c.66-.86,1.45-1.31,2.39-1.31,1.39,0,2.36.96,2.36,2.96v3.57h-.82v-3.47c0-1.5-.47-2.33-1.7-2.33-.68,0-1.25.3-1.68.86-.48.62-.55,1.25-.55,2.25v2.67h-.82v-6.37h.82v1.14Z"/>
          <path class="cls-4" d="m184.36,157.98c0,1.81-1.4,3.33-3.32,3.33s-3.32-1.52-3.32-3.33,1.42-3.37,3.32-3.37,3.32,1.55,3.32,3.37Zm-5.8.01c0,1.39,1.04,2.53,2.48,2.53s2.48-1.14,2.48-2.53-1.13-2.59-2.48-2.59-2.48,1.17-2.48,2.59Z"/>
          <path class="cls-4" d="m190.74,159.81c.41.46.85.71,1.33.71.62,0,1.17-.46,1.17-1.06,0-.37-.22-.72-.53-.89-1.46-.82-2.21-1.16-2.21-2.28,0-1.01.78-1.69,1.75-1.69.7,0,1.22.34,1.76.86l-.53.54c-.38-.37-.77-.61-1.28-.61s-.96.37-.96.85c0,.32.2.68.49.85,1.46.85,2.28,1.18,2.28,2.33,0,1-.77,1.88-1.92,1.88-.71,0-1.43-.32-1.88-.91l.52-.59Z"/>
          <path class="cls-4" d="m195.72,158.03c.04,1.46,1.03,2.53,2.4,2.53s1.97-.75,2.43-1.52l.68.36c-.65,1.27-1.64,1.91-3.03,1.91-2.11,0-3.32-1.62-3.32-3.32s1.28-3.37,3.27-3.37c1.81,0,3.27,1.31,3.3,3.42h-5.73Zm4.83-.72c-.34-1.32-1.28-1.91-2.39-1.91s-1.99.61-2.36,1.91h4.75Z"/>
          <path class="cls-4" d="m203.22,155.7c.48-.7,1-1.09,1.64-1.09.37,0,.56.12.73.22l-.43.7c-.1-.05-.25-.12-.43-.12-.6,0-1.14.52-1.38,1.39-.11.41-.13,1.07-.13,1.93v2.42h-.86v-6.37h.86v.92Z"/>
          <path class="cls-4" d="m50.43,168.94c.64-.89,1.51-1.33,2.53-1.33,1.86,0,3.3,1.52,3.3,3.33s-1.4,3.36-3.27,3.36c-1,0-1.86-.41-2.55-1.25v3.42h-.82v-8.7h.82v1.16Zm-.06,2.05c0,1.58,1.22,2.57,2.53,2.57,1.42,0,2.52-1.2,2.52-2.59s-1.06-2.57-2.52-2.57-2.53,1.12-2.53,2.59Z"/>
          <path class="cls-4" d="m58.02,168.7c.48-.7,1-1.09,1.64-1.09.37,0,.56.12.73.22l-.43.7c-.1-.05-.25-.12-.43-.12-.6,0-1.14.52-1.38,1.39-.11.41-.13,1.07-.13,1.93v2.42h-.86v-6.37h.86v.92Z"/>
          <path class="cls-4" d="m67.09,170.98c0,1.81-1.4,3.33-3.32,3.33s-3.32-1.52-3.32-3.33,1.42-3.37,3.32-3.37,3.32,1.55,3.32,3.37Zm-5.8.01c0,1.39,1.04,2.53,2.48,2.53s2.48-1.14,2.48-2.53-1.13-2.59-2.48-2.59-2.48,1.17-2.48,2.59Z"/>
          <path class="cls-4" d="m69.14,168.94c.64-.89,1.51-1.33,2.53-1.33,1.86,0,3.3,1.52,3.3,3.33s-1.4,3.36-3.27,3.36c-1,0-1.86-.41-2.55-1.25v3.42h-.82v-8.7h.82v1.16Zm-.06,2.05c0,1.58,1.22,2.57,2.53,2.57,1.42,0,2.52-1.2,2.52-2.59s-1.06-2.57-2.52-2.57-2.53,1.12-2.53,2.59Z"/>
          <path class="cls-4" d="m77.16,165.82c0,.37-.31.68-.68.68s-.67-.31-.67-.68.31-.67.67-.67.68.3.68.67Zm-1.08,1.96h.82v6.37h-.82v-6.37Z"/>
          <path class="cls-4" d="m78.83,171.03c.04,1.46,1.03,2.53,2.4,2.53s1.97-.75,2.43-1.52l.68.36c-.65,1.27-1.64,1.91-3.03,1.91-2.11,0-3.32-1.62-3.32-3.32s1.28-3.37,3.27-3.37c1.81,0,3.27,1.31,3.3,3.42h-5.73Zm4.83-.72c-.34-1.32-1.28-1.91-2.39-1.91s-1.99.61-2.36,1.91h4.75Z"/>
          <path class="cls-4" d="m91.35,173.05c-.7.84-1.57,1.25-2.57,1.25-1.86,0-3.26-1.55-3.26-3.36s1.44-3.33,3.29-3.33c1.03,0,1.91.44,2.54,1.33v-3.62h.82v8.83h-.82v-1.09Zm-4.99-2.09c0,1.38,1.08,2.59,2.51,2.59,1.31,0,2.53-.98,2.53-2.57,0-1.47-1.09-2.59-2.52-2.59s-2.52,1.2-2.52,2.57Z"/>
          <path class="cls-4" d="m99.25,167.78h.8v6.37h-.8v-1.09c-.7.84-1.57,1.25-2.57,1.25-1.86,0-3.26-1.55-3.26-3.36s1.44-3.33,3.29-3.33c1.03,0,1.91.44,2.54,1.33v-1.16Zm-4.99,3.19c0,1.38,1.08,2.59,2.51,2.59,1.31,0,2.54-.98,2.54-2.57,0-1.47-1.1-2.59-2.53-2.59s-2.52,1.2-2.52,2.57Z"/>
          <path class="cls-4" d="m107.16,173.05c-.7.84-1.57,1.25-2.57,1.25-1.86,0-3.26-1.55-3.26-3.36s1.44-3.33,3.29-3.33c1.03,0,1.91.44,2.54,1.33v-3.62h.82v8.83h-.82v-1.09Zm-4.99-2.09c0,1.38,1.08,2.59,2.51,2.59,1.31,0,2.53-.98,2.53-2.57,0-1.47-1.09-2.59-2.52-2.59s-2.52,1.2-2.52,2.57Z"/>
          <path class="cls-4" d="m123.1,173.05c-.7.84-1.57,1.25-2.57,1.25-1.86,0-3.26-1.55-3.26-3.36s1.44-3.33,3.29-3.33c1.03,0,1.91.44,2.54,1.33v-3.62h.82v8.83h-.82v-1.09Zm-4.99-2.09c0,1.38,1.08,2.59,2.51,2.59,1.31,0,2.53-.98,2.53-2.57,0-1.47-1.09-2.59-2.52-2.59s-2.52,1.2-2.52,2.57Z"/>
          <path class="cls-4" d="m126.01,171.03c.04,1.46,1.03,2.53,2.4,2.53s1.97-.75,2.43-1.52l.68.36c-.65,1.27-1.64,1.91-3.03,1.91-2.11,0-3.32-1.62-3.32-3.32s1.28-3.37,3.27-3.37c1.81,0,3.27,1.31,3.3,3.42h-5.73Zm4.83-.72c-.33-1.32-1.28-1.91-2.39-1.91s-1.99.61-2.36,1.91h4.75Z"/>
          <path class="cls-4" d="m146.53,167.78h.8v6.37h-.8v-1.09c-.7.84-1.57,1.25-2.57,1.25-1.86,0-3.26-1.55-3.26-3.36s1.44-3.33,3.29-3.33c1.03,0,1.91.44,2.54,1.33v-1.16Zm-4.99,3.19c0,1.38,1.08,2.59,2.51,2.59,1.31,0,2.54-.98,2.54-2.57,0-1.47-1.1-2.59-2.53-2.59s-2.52,1.2-2.52,2.57Z"/>
          <path class="cls-4" d="m155.07,172.86c-.62.95-1.7,1.44-2.99,1.44-2.1,0-3.5-1.51-3.5-3.29,0-1.87,1.46-3.41,3.56-3.41,1.22,0,2.34.5,2.93,1.49l-.66.41c-.56-.74-1.34-1.1-2.3-1.1-1.62,0-2.69,1.19-2.69,2.55s1.06,2.6,2.7,2.6c.92,0,1.69-.37,2.29-1.12l.66.42Z"/>
          <path class="cls-4" d="m162.53,172.86c-.62.95-1.7,1.44-2.99,1.44-2.1,0-3.5-1.51-3.5-3.29,0-1.87,1.46-3.41,3.56-3.41,1.22,0,2.34.5,2.93,1.49l-.66.41c-.56-.74-1.34-1.1-2.3-1.1-1.62,0-2.69,1.19-2.69,2.55s1.06,2.6,2.7,2.6c.92,0,1.69-.37,2.29-1.12l.66.42Z"/>
          <path class="cls-4" d="m164.78,165.82c0,.37-.31.68-.68.68s-.67-.31-.67-.68.31-.67.67-.67.68.3.68.67Zm-1.08,1.96h.82v6.37h-.82v-6.37Z"/>
          <path class="cls-4" d="m172.25,170.98c0,1.81-1.4,3.33-3.32,3.33s-3.32-1.52-3.32-3.33,1.42-3.37,3.32-3.37,3.32,1.55,3.32,3.37Zm-5.8.01c0,1.39,1.04,2.53,2.48,2.53s2.48-1.14,2.48-2.53-1.13-2.59-2.48-2.59-2.48,1.17-2.48,2.59Z"/>
          <path class="cls-4" d="m174.29,168.92c.66-.86,1.45-1.31,2.39-1.31,1.39,0,2.36.96,2.36,2.96v3.57h-.82v-3.47c0-1.5-.47-2.33-1.7-2.33-.68,0-1.25.3-1.68.86-.48.62-.55,1.25-.55,2.25v2.67h-.82v-6.37h.82v1.14Z"/>
          <path class="cls-4" d="m181.46,165.82c0,.37-.31.68-.68.68s-.67-.31-.67-.68.31-.67.67-.67.68.3.68.67Zm-1.08,1.96h.82v6.37h-.82v-6.37Z"/>
          <path class="cls-4" d="m182.51,172.81c.41.46.85.71,1.33.71.62,0,1.17-.46,1.17-1.06,0-.37-.22-.72-.53-.89-1.46-.82-2.21-1.16-2.21-2.28,0-1.01.78-1.69,1.75-1.69.7,0,1.22.34,1.76.86l-.53.54c-.38-.37-.77-.61-1.28-.61s-.96.37-.96.85c0,.32.2.68.49.85,1.46.85,2.28,1.18,2.28,2.33,0,1-.77,1.88-1.92,1.88-.71,0-1.43-.32-1.88-.91l.52-.59Z"/>
          <path class="cls-4" d="m187.68,165.4h.82v2.38h1.31v.72h-1.31v5.65h-.82v-5.65h-1.13v-.72h1.13v-2.38Z"/>
          <path class="cls-4" d="m196.26,167.78h.8v6.37h-.8v-1.09c-.7.84-1.57,1.25-2.57,1.25-1.86,0-3.26-1.55-3.26-3.36s1.44-3.33,3.29-3.33c1.03,0,1.91.44,2.54,1.33v-1.16Zm-4.99,3.19c0,1.38,1.08,2.59,2.51,2.59,1.31,0,2.54-.98,2.54-2.57,0-1.47-1.1-2.59-2.53-2.59s-2.52,1.2-2.52,2.57Z"/>
          <path class="cls-4" d="m198.53,172.81c.41.46.85.71,1.33.71.62,0,1.17-.46,1.17-1.06,0-.37-.22-.72-.53-.89-1.46-.82-2.21-1.16-2.21-2.28,0-1.01.78-1.69,1.75-1.69.7,0,1.22.34,1.76.86l-.53.54c-.38-.37-.77-.61-1.28-.61s-.96.37-.96.85c0,.32.2.68.49.85,1.46.85,2.28,1.18,2.28,2.33,0,1-.77,1.88-1.92,1.88-.71,0-1.43-.32-1.88-.91l.52-.59Z"/>
          <path class="cls-4" d="m203.8,172.56l.78.37-1.19,2.22-.58-.24.98-2.35Z"/>
          <path class="cls-4" d="m49.48,178.32h.82v8.83h-.82v-8.83Z"/>
          <path class="cls-4" d="m58.04,183.98c0,1.81-1.4,3.33-3.32,3.33s-3.32-1.52-3.32-3.33,1.42-3.37,3.32-3.37,3.32,1.55,3.32,3.37Zm-5.8.01c0,1.39,1.04,2.53,2.48,2.53s2.48-1.14,2.48-2.53-1.13-2.59-2.48-2.59-2.48,1.18-2.48,2.59Z"/>
          <path class="cls-4" d="m59.18,185.81c.41.46.85.71,1.33.71.62,0,1.17-.46,1.17-1.05,0-.37-.22-.72-.53-.89-1.46-.82-2.21-1.16-2.21-2.28,0-1.01.78-1.69,1.75-1.69.7,0,1.22.34,1.76.86l-.53.54c-.38-.37-.77-.61-1.28-.61s-.96.37-.96.85c0,.32.2.68.49.85,1.46.85,2.28,1.18,2.28,2.33,0,1-.77,1.88-1.92,1.88-.71,0-1.43-.32-1.88-.91l.52-.59Z"/>
          <path class="cls-4" d="m67.75,187.14h-.82v-8.83h.82v3.55c.7-.84,1.56-1.26,2.55-1.26,1.86,0,3.27,1.55,3.27,3.36s-1.44,3.35-3.3,3.35c-1.03,0-1.88-.46-2.53-1.34v1.18Zm4.99-3.2c0-1.38-1.09-2.59-2.52-2.59-1.31,0-2.53.97-2.53,2.57,0,1.48,1.09,2.6,2.53,2.6s2.52-1.21,2.52-2.58Z"/>
          <path class="cls-4" d="m75.3,184.03c.04,1.46,1.03,2.53,2.4,2.53s1.97-.76,2.43-1.52l.68.36c-.65,1.27-1.64,1.91-3.03,1.91-2.11,0-3.32-1.62-3.32-3.32s1.28-3.37,3.27-3.37c1.81,0,3.27,1.31,3.3,3.42h-5.73Zm4.83-.72c-.34-1.32-1.28-1.91-2.39-1.91s-1.99.61-2.36,1.91h4.75Z"/>
          <path class="cls-4" d="m83.07,181.91c.66-.86,1.45-1.31,2.39-1.31,1.39,0,2.36.96,2.36,2.96v3.57h-.82v-3.47c0-1.5-.47-2.33-1.7-2.33-.68,0-1.25.3-1.68.86-.48.62-.55,1.25-.55,2.25v2.67h-.82v-6.37h.82v1.14Z"/>
          <path class="cls-4" d="m89.82,184.03c.04,1.46,1.03,2.53,2.4,2.53s1.97-.76,2.43-1.52l.68.36c-.65,1.27-1.64,1.91-3.03,1.91-2.11,0-3.32-1.62-3.32-3.32s1.28-3.37,3.27-3.37c1.81,0,3.27,1.31,3.3,3.42h-5.73Zm4.83-.72c-.34-1.32-1.28-1.91-2.39-1.91s-1.99.61-2.36,1.91h4.75Z"/>
          <path class="cls-4" d="m97.17,180.36c0-1.49.73-2.22,1.92-2.22,1.05,0,1.74.68,1.8,1.61h-.83c-.11-.53-.42-.82-.98-.82-.8,0-1.04.54-1.04,1.43v.42h1.31v.72h-1.31v5.65h-.86v-5.65h-.82v-.72h.82v-.42Zm2.9.42h.82v6.37h-.82v-6.37Z"/>
          <path class="cls-4" d="m108.51,185.86c-.62.95-1.7,1.44-2.99,1.44-2.1,0-3.5-1.51-3.5-3.29,0-1.87,1.46-3.41,3.56-3.41,1.22,0,2.34.5,2.93,1.49l-.66.41c-.56-.74-1.34-1.1-2.3-1.1-1.62,0-2.69,1.19-2.69,2.55s1.06,2.6,2.7,2.6c.92,0,1.69-.37,2.29-1.12l.66.42Z"/>
          <path class="cls-4" d="m110.76,178.82c0,.37-.31.68-.68.68s-.67-.31-.67-.68.31-.67.67-.67.68.3.68.67Zm-1.08,1.96h.82v6.37h-.82v-6.37Z"/>
          <path class="cls-4" d="m118.23,183.98c0,1.81-1.4,3.33-3.32,3.33s-3.32-1.52-3.32-3.33,1.42-3.37,3.32-3.37,3.32,1.55,3.32,3.37Zm-5.8.01c0,1.39,1.04,2.53,2.48,2.53s2.48-1.14,2.48-2.53-1.13-2.59-2.48-2.59-2.48,1.18-2.48,2.59Z"/>
          <path class="cls-4" d="m119.36,185.81c.41.46.85.71,1.33.71.62,0,1.17-.46,1.17-1.05,0-.37-.22-.72-.53-.89-1.46-.82-2.21-1.16-2.21-2.28,0-1.01.78-1.69,1.75-1.69.7,0,1.22.34,1.76.86l-.53.54c-.38-.37-.77-.61-1.28-.61s-.96.37-.96.85c0,.32.2.68.49.85,1.46.85,2.28,1.18,2.28,2.33,0,1-.77,1.88-1.92,1.88-.71,0-1.43-.32-1.88-.91l.52-.59Z"/>
          <path class="cls-4" d="m127.6,184.03c.04,1.46,1.03,2.53,2.4,2.53s1.97-.76,2.43-1.52l.68.36c-.65,1.27-1.64,1.91-3.03,1.91-2.11,0-3.32-1.62-3.32-3.32s1.28-3.37,3.27-3.37c1.81,0,3.27,1.31,3.3,3.42h-5.73Zm4.83-.72c-.33-1.32-1.28-1.91-2.39-1.91s-1.99.61-2.36,1.91h4.75Z"/>
          <path class="cls-4" d="m140.75,185.86c-.62.95-1.7,1.44-2.99,1.44-2.1,0-3.5-1.51-3.5-3.29,0-1.87,1.46-3.41,3.56-3.41,1.22,0,2.34.5,2.93,1.49l-.66.41c-.56-.74-1.34-1.1-2.3-1.1-1.62,0-2.69,1.19-2.69,2.55s1.06,2.6,2.7,2.6c.92,0,1.69-.37,2.29-1.12l.66.42Z"/>
          <path class="cls-4" d="m148.37,183.98c0,1.81-1.4,3.33-3.32,3.33s-3.32-1.52-3.32-3.33,1.42-3.37,3.32-3.37,3.32,1.55,3.32,3.37Zm-5.8.01c0,1.39,1.04,2.53,2.48,2.53s2.48-1.14,2.48-2.53-1.13-2.59-2.48-2.59-2.48,1.18-2.48,2.59Z"/>
          <path class="cls-4" d="m150.4,181.91c.66-.86,1.45-1.31,2.39-1.31,1.39,0,2.36.96,2.36,2.96v3.57h-.82v-3.47c0-1.5-.47-2.33-1.7-2.33-.68,0-1.25.3-1.68.86-.48.62-.55,1.25-.55,2.25v2.67h-.82v-6.37h.82v1.14Z"/>
          <path class="cls-4" d="m162.95,183.98c0,1.81-1.4,3.33-3.32,3.33s-3.32-1.52-3.32-3.33,1.42-3.37,3.32-3.37,3.32,1.55,3.32,3.37Zm-5.8.01c0,1.39,1.04,2.53,2.48,2.53s2.48-1.14,2.48-2.53-1.13-2.59-2.48-2.59-2.48,1.18-2.48,2.59Zm2.88-6.21h1.26l-1.74,1.81h-.8l1.28-1.81Z"/>
          <path class="cls-4" d="m169.31,187.14h-.82v-3.26c0-.49-.05-.9-.06-1.19-.04-.7-.6-1.3-1.44-1.3-.56,0-1.13.28-1.49.74-.46.59-.54,1.34-.54,2.3v2.7h-.82v-6.37h.82v1.09c.56-.82,1.27-1.26,2.18-1.26.97,0,1.67.5,2.02,1.54.56-1.02,1.4-1.54,2.34-1.54,1.32,0,2.17.95,2.17,2.76v3.78h-.82v-3.48c0-.47-.06-.84-.07-1.08-.04-.56-.58-1.19-1.44-1.19-.79,0-1.49.48-1.81,1.3-.2.52-.23,1.08-.23,1.67v2.78Z"/>
          <path class="cls-4" d="m176.09,178.82c0,.37-.31.68-.68.68s-.67-.31-.67-.68.31-.67.67-.67.68.3.68.67Zm-1.08,1.96h.82v6.37h-.82v-6.37Z"/>
          <path class="cls-4" d="m183.41,185.86c-.62.95-1.7,1.44-2.99,1.44-2.1,0-3.5-1.51-3.5-3.29,0-1.87,1.46-3.41,3.56-3.41,1.22,0,2.34.5,2.93,1.49l-.66.41c-.56-.74-1.34-1.1-2.3-1.1-1.62,0-2.69,1.19-2.69,2.55s1.06,2.6,2.7,2.6c.92,0,1.69-.37,2.29-1.12l.66.42Z"/>
          <path class="cls-4" d="m191.03,183.98c0,1.81-1.4,3.33-3.32,3.33s-3.32-1.52-3.32-3.33,1.42-3.37,3.32-3.37,3.32,1.55,3.32,3.37Zm-5.8.01c0,1.39,1.04,2.53,2.48,2.53s2.48-1.14,2.48-2.53-1.13-2.59-2.48-2.59-2.48,1.18-2.48,2.59Z"/>
          <path class="cls-4" d="m192.16,185.81c.41.46.85.71,1.33.71.62,0,1.17-.46,1.17-1.05,0-.37-.22-.72-.53-.89-1.46-.82-2.21-1.16-2.21-2.28,0-1.01.78-1.69,1.75-1.69.7,0,1.22.34,1.76.86l-.53.54c-.38-.37-.77-.61-1.28-.61s-.96.37-.96.85c0,.32.2.68.49.85,1.46.85,2.28,1.18,2.28,2.33,0,1-.77,1.88-1.92,1.88-.71,0-1.43-.32-1.88-.91l.52-.59Z"/>
          <path class="cls-4" d="m199.18,180.78h.86l2.19,4.91,2.12-4.91h.88l-3.8,8.7h-.86l1.22-2.81-2.62-5.89Z"/>
          <path class="cls-4" d="m49.52,198.81c.41.46.85.71,1.33.71.62,0,1.17-.46,1.17-1.05,0-.37-.22-.72-.53-.89-1.46-.82-2.21-1.16-2.21-2.28,0-1.01.78-1.69,1.75-1.69.7,0,1.22.34,1.76.86l-.53.54c-.38-.37-.77-.61-1.28-.61s-.96.37-.96.85c0,.32.2.68.49.85,1.46.85,2.28,1.18,2.28,2.33,0,1-.77,1.88-1.92,1.88-.71,0-1.43-.32-1.88-.91l.52-.59Z"/>
          <path class="cls-4" d="m60.3,196.98c0,1.81-1.4,3.33-3.32,3.33s-3.32-1.52-3.32-3.33,1.42-3.37,3.32-3.37,3.32,1.55,3.32,3.37Zm-5.8.01c0,1.39,1.04,2.53,2.48,2.53s2.48-1.14,2.48-2.53-1.13-2.59-2.48-2.59-2.48,1.18-2.48,2.59Z"/>
          <path class="cls-4" d="m67.71,198.86c-.62.95-1.7,1.44-2.99,1.44-2.1,0-3.5-1.51-3.5-3.29,0-1.87,1.46-3.41,3.56-3.41,1.22,0,2.34.5,2.93,1.49l-.66.41c-.56-.74-1.34-1.1-2.3-1.1-1.62,0-2.69,1.19-2.69,2.55s1.06,2.6,2.7,2.6c.92,0,1.69-.37,2.29-1.12l.66.42Z"/>
          <path class="cls-4" d="m69.95,191.82c0,.37-.31.68-.68.68s-.67-.31-.67-.68.31-.67.67-.67.68.3.68.67Zm-1.08,1.96h.82v6.37h-.82v-6.37Z"/>
          <path class="cls-4" d="m76.62,193.78h.8v6.37h-.8v-1.09c-.7.84-1.57,1.25-2.57,1.25-1.86,0-3.26-1.55-3.26-3.36s1.44-3.33,3.29-3.33c1.03,0,1.91.44,2.54,1.33v-1.16Zm-4.99,3.19c0,1.38,1.08,2.59,2.51,2.59,1.31,0,2.54-.98,2.54-2.57,0-1.48-1.1-2.59-2.53-2.59s-2.52,1.2-2.52,2.57Z"/>
          <path class="cls-4" d="m78.86,191.32h.82v8.83h-.82v-8.83Z"/>
          <path class="cls-4" d="m81.62,197.03c.04,1.46,1.03,2.53,2.4,2.53s1.97-.76,2.43-1.52l.68.36c-.65,1.27-1.64,1.91-3.03,1.91-2.11,0-3.32-1.62-3.32-3.32s1.28-3.37,3.27-3.37c1.81,0,3.27,1.31,3.3,3.42h-5.73Zm4.83-.72c-.34-1.32-1.28-1.91-2.39-1.91s-1.99.61-2.36,1.91h4.75Z"/>
          <path class="cls-4" d="m88.49,198.81c.41.46.85.71,1.33.71.62,0,1.17-.46,1.17-1.05,0-.37-.22-.72-.53-.89-1.46-.82-2.21-1.16-2.21-2.28,0-1.01.78-1.69,1.75-1.69.7,0,1.22.34,1.76.86l-.53.54c-.38-.37-.77-.61-1.28-.61s-.96.37-.96.85c0,.32.2.68.49.85,1.46.85,2.28,1.18,2.28,2.33,0,1-.77,1.88-1.92,1.88-.71,0-1.43-.32-1.88-.91l.52-.59Z"/>
          <path class="cls-4" d="m109.45,199.05c-.7.84-1.57,1.25-2.57,1.25-1.86,0-3.26-1.55-3.26-3.36s1.44-3.33,3.29-3.33c1.03,0,1.91.44,2.54,1.33v-3.62h.82v8.83h-.82v-1.09Zm-4.99-2.09c0,1.38,1.08,2.59,2.51,2.59,1.31,0,2.53-.98,2.53-2.57,0-1.48-1.09-2.59-2.52-2.59s-2.52,1.2-2.52,2.57Z"/>
          <path class="cls-4" d="m112.35,197.03c.04,1.46,1.03,2.53,2.4,2.53s1.97-.76,2.43-1.52l.68.36c-.65,1.27-1.64,1.91-3.03,1.91-2.11,0-3.32-1.62-3.32-3.32s1.28-3.37,3.27-3.37c1.81,0,3.27,1.31,3.3,3.42h-5.73Zm4.83-.72c-.34-1.32-1.28-1.91-2.39-1.91s-1.99.61-2.36,1.91h4.75Z"/>
          <path class="cls-4" d="m130.19,198.81c.41.46.85.71,1.33.71.62,0,1.17-.46,1.17-1.05,0-.37-.22-.72-.53-.89-1.46-.82-2.21-1.16-2.21-2.28,0-1.01.78-1.69,1.75-1.69.7,0,1.22.34,1.76.86l-.53.54c-.38-.37-.77-.61-1.28-.61s-.96.37-.96.85c0,.32.2.68.49.85,1.46.85,2.28,1.18,2.28,2.33,0,1-.77,1.88-1.92,1.88-.71,0-1.43-.32-1.88-.91l.52-.59Z"/>
          <path class="cls-4" d="m139.26,193.78h.86v3.3c0,2.15-.97,3.23-2.79,3.23s-2.81-1.08-2.81-3.23v-3.3h.86v3.11c0,.67,0,1.22.18,1.61.3.65.96,1.02,1.76,1.02.59,0,1.1-.22,1.44-.56.5-.54.49-1.15.49-2.06v-3.11Z"/>
          <path class="cls-4" d="m158.12,193.78h.8v6.37h-.8v-1.09c-.7.84-1.57,1.25-2.57,1.25-1.86,0-3.26-1.55-3.26-3.36s1.44-3.33,3.29-3.33c1.03,0,1.91.44,2.54,1.33v-1.16Zm-4.99,3.19c0,1.38,1.08,2.59,2.51,2.59,1.31,0,2.54-.98,2.54-2.57,0-1.48-1.1-2.59-2.53-2.59s-2.52,1.2-2.52,2.57Z"/>
          <path class="cls-4" d="m166.67,198.86c-.62.95-1.7,1.44-2.99,1.44-2.1,0-3.5-1.51-3.5-3.29,0-1.87,1.46-3.41,3.56-3.41,1.22,0,2.34.5,2.93,1.49l-.66.41c-.56-.74-1.34-1.1-2.3-1.1-1.62,0-2.69,1.19-2.69,2.55s1.06,2.6,2.7,2.6c.92,0,1.69-.37,2.29-1.12l.66.42Z"/>
          <path class="cls-4" d="m168.67,191.4h.82v2.38h1.31v.72h-1.31v5.65h-.82v-5.65h-1.13v-.72h1.13v-2.38Z"/>
          <path class="cls-4" d="m172.68,191.82c0,.37-.31.68-.68.68s-.67-.31-.67-.68.31-.67.67-.67.68.3.68.67Zm-1.08,1.96h.82v6.37h-.82v-6.37Z"/>
          <path class="cls-4" d="m173.21,193.78h.88l2.13,4.63,2.11-4.63h.88l-2.91,6.37h-.14l-2.94-6.37Z"/>
          <path class="cls-4" d="m181.13,191.82c0,.37-.31.68-.68.68s-.67-.31-.67-.68.31-.67.67-.67.68.3.68.67Zm-1.08,1.96h.82v6.37h-.82v-6.37Z"/>
          <path class="cls-4" d="m187.81,199.05c-.7.84-1.57,1.25-2.57,1.25-1.86,0-3.26-1.55-3.26-3.36s1.44-3.33,3.29-3.33c1.03,0,1.91.44,2.54,1.33v-3.62h.82v8.83h-.82v-1.09Zm-4.99-2.09c0,1.38,1.08,2.59,2.51,2.59,1.31,0,2.53-.98,2.53-2.57,0-1.48-1.09-2.59-2.52-2.59s-2.52,1.2-2.52,2.57Z"/>
          <path class="cls-4" d="m195.72,193.78h.8v6.37h-.8v-1.09c-.7.84-1.57,1.25-2.57,1.25-1.86,0-3.26-1.55-3.26-3.36s1.44-3.33,3.29-3.33c1.03,0,1.91.44,2.54,1.33v-1.16Zm-4.99,3.19c0,1.38,1.08,2.59,2.51,2.59,1.31,0,2.54-.98,2.54-2.57,0-1.48-1.1-2.59-2.53-2.59s-2.52,1.2-2.52,2.57Z"/>
          <path class="cls-4" d="m203.63,199.05c-.7.84-1.57,1.25-2.57,1.25-1.86,0-3.26-1.55-3.26-3.36s1.44-3.33,3.29-3.33c1.03,0,1.91.44,2.54,1.33v-3.62h.82v8.83h-.82v-1.09Zm-4.99-2.09c0,1.38,1.08,2.59,2.51,2.59,1.31,0,2.53-.98,2.53-2.57,0-1.48-1.09-2.59-2.52-2.59s-2.52,1.2-2.52,2.57Z"/>
          <path class="cls-4" d="m50.43,207.94c.64-.89,1.51-1.33,2.53-1.33,1.86,0,3.3,1.52,3.3,3.33s-1.4,3.36-3.27,3.36c-1,0-1.86-.41-2.55-1.25v3.42h-.82v-8.7h.82v1.16Zm-.06,2.05c0,1.58,1.22,2.57,2.53,2.57,1.42,0,2.52-1.2,2.52-2.59s-1.06-2.57-2.52-2.57-2.53,1.12-2.53,2.59Z"/>
          <path class="cls-4" d="m58.02,210.03c.04,1.46,1.03,2.53,2.4,2.53s1.97-.76,2.43-1.52l.68.36c-.65,1.27-1.64,1.91-3.03,1.91-2.11,0-3.32-1.62-3.32-3.32s1.28-3.37,3.27-3.37c1.81,0,3.27,1.31,3.3,3.42h-5.73Zm4.83-.72c-.34-1.32-1.28-1.91-2.39-1.91s-1.99.61-2.36,1.91h4.75Z"/>
          <path class="cls-4" d="m65.52,207.7c.48-.7,1-1.09,1.64-1.09.37,0,.56.12.73.22l-.43.7c-.1-.05-.25-.12-.43-.12-.6,0-1.14.52-1.38,1.39-.11.41-.13,1.07-.13,1.93v2.42h-.86v-6.37h.86v.92Z"/>
          <path class="cls-4" d="m73.78,213.14h-.82v-3.26c0-.49-.05-.9-.06-1.19-.04-.7-.6-1.3-1.44-1.3-.56,0-1.13.28-1.49.74-.46.59-.54,1.34-.54,2.3v2.7h-.82v-6.37h.82v1.09c.56-.82,1.27-1.26,2.18-1.26.97,0,1.67.5,2.02,1.54.56-1.02,1.4-1.54,2.34-1.54,1.32,0,2.17.95,2.17,2.76v3.78h-.82v-3.48c0-.47-.06-.84-.07-1.08-.04-.56-.58-1.19-1.44-1.19-.79,0-1.49.48-1.81,1.3-.2.52-.23,1.08-.23,1.67v2.78Z"/>
          <path class="cls-4" d="m85.13,206.78h.8v6.37h-.8v-1.09c-.7.84-1.57,1.25-2.57,1.25-1.86,0-3.26-1.55-3.26-3.36s1.44-3.33,3.29-3.33c1.03,0,1.91.44,2.54,1.33v-1.16Zm-4.99,3.19c0,1.38,1.08,2.59,2.51,2.59,1.31,0,2.54-.98,2.54-2.57,0-1.48-1.1-2.59-2.53-2.59s-2.52,1.2-2.52,2.57Z"/>
          <path class="cls-4" d="m88.3,207.91c.66-.86,1.45-1.31,2.39-1.31,1.39,0,2.36.96,2.36,2.96v3.57h-.82v-3.47c0-1.5-.47-2.33-1.7-2.33-.68,0-1.25.3-1.68.86-.48.62-.55,1.25-.55,2.25v2.67h-.82v-6.37h.82v1.14Z"/>
          <path class="cls-4" d="m95.04,210.03c.04,1.46,1.03,2.53,2.4,2.53s1.97-.76,2.43-1.52l.68.36c-.65,1.27-1.64,1.91-3.03,1.91-2.11,0-3.32-1.62-3.32-3.32s1.28-3.37,3.27-3.37c1.81,0,3.27,1.31,3.3,3.42h-5.73Zm4.83-.72c-.34-1.32-1.28-1.91-2.39-1.91s-1.99.61-2.36,1.91h4.75Z"/>
          <path class="cls-4" d="m108.19,211.86c-.62.95-1.7,1.44-2.99,1.44-2.1,0-3.5-1.51-3.5-3.29,0-1.87,1.46-3.41,3.56-3.41,1.22,0,2.34.5,2.93,1.49l-.66.41c-.56-.74-1.34-1.1-2.3-1.1-1.62,0-2.69,1.19-2.69,2.55s1.06,2.6,2.7,2.6c.92,0,1.69-.37,2.29-1.12l.66.42Z"/>
          <path class="cls-4" d="m110.01,210.03c.04,1.46,1.03,2.53,2.4,2.53s1.97-.76,2.43-1.52l.68.36c-.65,1.27-1.64,1.91-3.03,1.91-2.11,0-3.32-1.62-3.32-3.32s1.28-3.37,3.27-3.37c1.81,0,3.27,1.31,3.3,3.42h-5.73Zm4.83-.72c-.34-1.32-1.28-1.91-2.39-1.91s-1.99.61-2.36,1.91h4.75Z"/>
          <path class="cls-4" d="m117.78,207.91c.66-.86,1.45-1.31,2.39-1.31,1.39,0,2.36.96,2.36,2.96v3.57h-.82v-3.47c0-1.5-.47-2.33-1.7-2.33-.68,0-1.25.3-1.68.86-.48.62-.55,1.25-.55,2.25v2.67h-.82v-6.37h.82v1.14Z"/>
          <path class="cls-4" d="m151.09,210.03c.04,1.46,1.03,2.53,2.4,2.53s1.97-.76,2.43-1.52l.68.36c-.65,1.27-1.64,1.91-3.03,1.91-2.11,0-3.32-1.62-3.32-3.32s1.28-3.37,3.27-3.37c1.81,0,3.27,1.31,3.3,3.42h-5.73Zm4.83-.72c-.33-1.32-1.28-1.91-2.39-1.91s-1.99.61-2.36,1.91h4.75Z"/>
          <path class="cls-4" d="m158.87,207.91c.66-.86,1.45-1.31,2.39-1.31,1.39,0,2.36.96,2.36,2.96v3.57h-.82v-3.47c0-1.5-.47-2.33-1.7-2.33-.68,0-1.25.3-1.68.86-.48.62-.55,1.25-.55,2.25v2.67h-.82v-6.37h.82v1.14Z"/>
          <path class="cls-4" d="m191.52,204.32h.82v8.83h-.82v-8.83Z"/>
          <path class="cls-4" d="m199.28,206.78h.8v6.37h-.8v-1.09c-.7.84-1.57,1.25-2.57,1.25-1.86,0-3.26-1.55-3.26-3.36s1.44-3.33,3.29-3.33c1.03,0,1.91.44,2.54,1.33v-1.16Zm-4.99,3.19c0,1.38,1.08,2.59,2.51,2.59,1.31,0,2.54-.98,2.54-2.57,0-1.48-1.1-2.59-2.53-2.59s-2.52,1.2-2.52,2.57Z"/>
          <path class="cls-4" d="m201.55,211.81c.41.46.85.71,1.33.71.62,0,1.17-.46,1.17-1.05,0-.37-.22-.72-.53-.89-1.46-.82-2.21-1.16-2.21-2.28,0-1.01.78-1.69,1.75-1.69.7,0,1.22.34,1.76.86l-.53.54c-.38-.37-.77-.61-1.28-.61s-.96.37-.96.85c0,.32.2.68.49.85,1.46.85,2.28,1.18,2.28,2.33,0,1-.77,1.88-1.92,1.88-.71,0-1.43-.32-1.88-.91l.52-.59Z"/>
          <path class="cls-4" d="m55.79,224.86c-.62.95-1.7,1.44-2.99,1.44-2.1,0-3.5-1.51-3.5-3.29,0-1.87,1.46-3.41,3.56-3.41,1.22,0,2.34.5,2.93,1.49l-.66.41c-.56-.74-1.34-1.1-2.3-1.1-1.62,0-2.69,1.19-2.69,2.55s1.06,2.6,2.7,2.6c.92,0,1.69-.37,2.29-1.12l.66.42Z"/>
          <path class="cls-4" d="m63.41,222.98c0,1.81-1.4,3.33-3.32,3.33s-3.32-1.52-3.32-3.33,1.42-3.37,3.32-3.37,3.32,1.55,3.32,3.37Zm-5.8.01c0,1.39,1.04,2.53,2.48,2.53s2.48-1.14,2.48-2.53-1.13-2.59-2.48-2.59-2.48,1.18-2.48,2.59Z"/>
          <path class="cls-4" d="m69.77,226.14h-.82v-3.26c0-.49-.05-.9-.06-1.19-.04-.7-.6-1.3-1.44-1.3-.56,0-1.13.28-1.49.74-.46.59-.54,1.34-.54,2.3v2.7h-.82v-6.37h.82v1.09c.56-.82,1.27-1.26,2.18-1.26.97,0,1.67.5,2.02,1.54.56-1.02,1.4-1.54,2.34-1.54,1.32,0,2.17.95,2.17,2.76v3.78h-.82v-3.48c0-.47-.06-.84-.07-1.08-.04-.56-.58-1.19-1.44-1.19-.79,0-1.49.48-1.81,1.3-.2.52-.23,1.08-.23,1.67v2.78Z"/>
          <path class="cls-4" d="m80.21,219.78h.86v3.3c0,2.15-.97,3.23-2.79,3.23s-2.81-1.08-2.81-3.23v-3.3h.86v3.11c0,.67,0,1.22.18,1.61.3.65.96,1.02,1.76,1.02.59,0,1.1-.22,1.44-.56.5-.54.49-1.15.49-2.06v-3.11Z"/>
          <path class="cls-4" d="m83.39,220.91c.66-.86,1.45-1.31,2.39-1.31,1.39,0,2.36.96,2.36,2.96v3.57h-.82v-3.47c0-1.5-.47-2.33-1.7-2.33-.68,0-1.25.3-1.68.86-.48.62-.55,1.25-.55,2.25v2.67h-.82v-6.37h.82v1.14Z"/>
          <path class="cls-4" d="m90.57,217.82c0,.37-.31.68-.68.68s-.67-.31-.67-.68.31-.67.67-.67.68.3.68.67Zm-1.08,1.96h.82v6.37h-.82v-6.37Z"/>
          <path class="cls-4" d="m97.25,225.05c-.7.84-1.57,1.25-2.57,1.25-1.86,0-3.26-1.55-3.26-3.36s1.44-3.33,3.29-3.33c1.03,0,1.91.44,2.54,1.33v-3.62h.82v8.83h-.82v-1.09Zm-4.99-2.09c0,1.38,1.08,2.59,2.51,2.59,1.31,0,2.53-.98,2.53-2.57,0-1.48-1.09-2.59-2.52-2.59s-2.52,1.2-2.52,2.57Z"/>
          <path class="cls-4" d="m105.16,219.78h.8v6.37h-.8v-1.09c-.7.84-1.57,1.25-2.57,1.25-1.86,0-3.26-1.55-3.26-3.36s1.44-3.33,3.29-3.33c1.03,0,1.91.44,2.54,1.33v-1.16Zm-4.99,3.19c0,1.38,1.08,2.59,2.51,2.59,1.31,0,2.54-.98,2.54-2.57,0-1.48-1.1-2.59-2.53-2.59s-2.52,1.2-2.52,2.57Z"/>
          <path class="cls-4" d="m113.07,225.05c-.7.84-1.57,1.25-2.57,1.25-1.86,0-3.26-1.55-3.26-3.36s1.44-3.33,3.29-3.33c1.03,0,1.91.44,2.54,1.33v-3.62h.82v8.83h-.82v-1.09Zm-4.99-2.09c0,1.38,1.08,2.59,2.51,2.59,1.31,0,2.53-.98,2.53-2.57,0-1.48-1.09-2.59-2.52-2.59s-2.52,1.2-2.52,2.57Z"/>
          <path class="cls-4" d="m115.97,223.03c.04,1.46,1.03,2.53,2.4,2.53s1.97-.76,2.43-1.52l.68.36c-.65,1.27-1.64,1.91-3.03,1.91-2.11,0-3.32-1.62-3.32-3.32s1.28-3.37,3.27-3.37c1.81,0,3.27,1.31,3.3,3.42h-5.73Zm4.83-.72c-.33-1.32-1.28-1.91-2.39-1.91s-1.99.61-2.36,1.91h4.75Z"/>
          <path class="cls-4" d="m122.85,224.81c.41.46.85.71,1.33.71.62,0,1.17-.46,1.17-1.05,0-.37-.22-.72-.53-.89-1.46-.82-2.21-1.16-2.21-2.28,0-1.01.78-1.69,1.75-1.69.7,0,1.22.34,1.76.86l-.53.54c-.38-.37-.77-.61-1.28-.61s-.96.37-.96.85c0,.32.2.68.49.85,1.46.85,2.28,1.18,2.28,2.33,0,1-.77,1.88-1.92,1.88-.71,0-1.43-.32-1.88-.91l.52-.59Z"/>
          <path class="cls-4" d="m131.73,223.03c.04,1.46,1.03,2.53,2.4,2.53s1.97-.76,2.43-1.52l.68.36c-.65,1.27-1.64,1.91-3.03,1.91-2.11,0-3.32-1.62-3.32-3.32s1.28-3.37,3.27-3.37c1.81,0,3.27,1.31,3.3,3.42h-5.73Zm4.83-.72c-.34-1.32-1.28-1.91-2.39-1.91s-1.99.61-2.36,1.91h4.75Z"/>
          <path class="cls-4" d="m139.5,220.91c.66-.86,1.45-1.31,2.39-1.31,1.39,0,2.36.96,2.36,2.96v3.57h-.82v-3.47c0-1.5-.47-2.33-1.7-2.33-.68,0-1.25.3-1.68.86-.48.62-.55,1.25-.55,2.25v2.67h-.82v-6.37h.82v1.14Z"/>
          <path class="cls-4" d="m149.49,217.32h.82v8.83h-.82v-8.83Z"/>
          <path class="cls-4" d="m157.25,219.78h.8v6.37h-.8v-1.09c-.7.84-1.57,1.25-2.57,1.25-1.86,0-3.26-1.55-3.26-3.36s1.44-3.33,3.29-3.33c1.03,0,1.91.44,2.54,1.33v-1.16Zm-4.99,3.19c0,1.38,1.08,2.59,2.51,2.59,1.31,0,2.54-.98,2.54-2.57,0-1.48-1.1-2.59-2.53-2.59s-2.52,1.2-2.52,2.57Z"/>
          <path class="cls-4" d="m159.52,224.81c.41.46.85.71,1.33.71.62,0,1.17-.46,1.17-1.05,0-.37-.22-.72-.53-.89-1.46-.82-2.21-1.16-2.21-2.28,0-1.01.78-1.69,1.75-1.69.7,0,1.22.34,1.76.86l-.53.54c-.38-.37-.77-.61-1.28-.61s-.96.37-.96.85c0,.32.2.68.49.85,1.46.85,2.28,1.18,2.28,2.33,0,1-.77,1.88-1.92,1.88-.71,0-1.43-.32-1.88-.91l.52-.59Z"/>
          <path class="cls-4" d="m173.4,219.78h.82v8.7h-.82v-3.42c-.7.84-1.57,1.25-2.57,1.25-1.86,0-3.26-1.55-3.26-3.36s1.44-3.33,3.29-3.33c1.03,0,1.91.44,2.54,1.33v-1.16Zm-4.99,3.19c0,1.38,1.08,2.59,2.51,2.59,1.31,0,2.53-.98,2.53-2.57,0-1.48-1.09-2.59-2.52-2.59s-2.52,1.2-2.52,2.57Z"/>
          <path class="cls-4" d="m180.37,219.78h.86v3.3c0,2.15-.97,3.23-2.79,3.23s-2.81-1.08-2.81-3.23v-3.3h.86v3.11c0,.67,0,1.22.18,1.61.3.65.96,1.02,1.76,1.02.59,0,1.1-.22,1.44-.56.5-.54.49-1.15.49-2.06v-3.11Z"/>
          <path class="cls-4" d="m183.28,223.03c.04,1.46,1.03,2.53,2.4,2.53s1.97-.76,2.43-1.52l.68.36c-.65,1.27-1.64,1.91-3.03,1.91-2.11,0-3.32-1.62-3.32-3.32s1.28-3.37,3.27-3.37c1.81,0,3.27,1.31,3.3,3.42h-5.73Zm4.83-.72c-.33-1.32-1.28-1.91-2.39-1.91s-1.99.61-2.36,1.91h4.75Z"/>
          <path class="cls-4" d="m194.05,224.81c.41.46.85.71,1.33.71.62,0,1.17-.46,1.17-1.05,0-.37-.22-.72-.53-.89-1.46-.82-2.21-1.16-2.21-2.28,0-1.01.78-1.69,1.75-1.69.7,0,1.22.34,1.76.86l-.53.54c-.38-.37-.77-.61-1.28-.61s-.96.37-.96.85c0,.32.2.68.49.85,1.46.85,2.28,1.18,2.28,2.33,0,1-.77,1.88-1.92,1.88-.71,0-1.43-.32-1.88-.91l.52-.59Z"/>
          <path class="cls-4" d="m199.03,223.03c.04,1.46,1.03,2.53,2.4,2.53s1.97-.76,2.43-1.52l.68.36c-.65,1.27-1.64,1.91-3.03,1.91-2.11,0-3.32-1.62-3.32-3.32s1.28-3.37,3.27-3.37c1.81,0,3.27,1.31,3.3,3.42h-5.73Zm4.83-.72c-.34-1.32-1.28-1.91-2.39-1.91s-1.99.61-2.36,1.91h4.75Z"/>
          <path class="cls-4" d="m50.14,236.03c.04,1.46,1.03,2.53,2.4,2.53s1.97-.76,2.43-1.52l.68.36c-.65,1.27-1.64,1.91-3.03,1.91-2.11,0-3.32-1.62-3.32-3.32s1.28-3.37,3.27-3.37c1.81,0,3.27,1.31,3.3,3.42h-5.73Zm4.83-.72c-.33-1.32-1.28-1.91-2.39-1.91s-1.99.61-2.36,1.91h4.75Z"/>
          <path class="cls-4" d="m57.02,237.81c.41.46.85.71,1.33.71.62,0,1.17-.46,1.17-1.05,0-.37-.22-.72-.53-.89-1.46-.82-2.21-1.16-2.21-2.28,0-1.01.78-1.69,1.75-1.69.7,0,1.22.34,1.76.86l-.53.54c-.38-.37-.77-.61-1.28-.61s-.96.37-.96.85c0,.32.2.68.49.85,1.46.85,2.28,1.18,2.28,2.33,0,1-.77,1.88-1.92,1.88-.71,0-1.43-.32-1.88-.91l.52-.59Z"/>
          <path class="cls-4" d="m62.19,230.4h.82v2.38h1.31v.72h-1.31v5.65h-.82v-5.65h-1.13v-.72h1.13v-2.38Z"/>
          <path class="cls-4" d="m70.76,232.78h.8v6.37h-.8v-1.09c-.7.84-1.57,1.25-2.57,1.25-1.86,0-3.26-1.55-3.26-3.36s1.44-3.33,3.29-3.33c1.03,0,1.91.44,2.54,1.33v-1.16Zm-4.99,3.19c0,1.38,1.08,2.59,2.51,2.59,1.31,0,2.54-.98,2.54-2.57,0-1.48-1.1-2.59-2.53-2.59s-2.52,1.2-2.52,2.57Z"/>
          <path class="cls-4" d="m73.99,239.14h-.82v-8.83h.82v3.55c.7-.84,1.56-1.26,2.55-1.26,1.86,0,3.27,1.55,3.27,3.36s-1.44,3.35-3.3,3.35c-1.03,0-1.88-.46-2.53-1.34v1.18Zm4.99-3.2c0-1.38-1.09-2.59-2.52-2.59-1.31,0-2.53.97-2.53,2.57,0,1.48,1.09,2.6,2.53,2.6s2.52-1.21,2.52-2.58Z"/>
          <path class="cls-4" d="m80.88,230.32h.82v8.83h-.82v-8.83Z"/>
          <path class="cls-4" d="m83.64,236.03c.04,1.46,1.03,2.53,2.4,2.53s1.97-.76,2.43-1.52l.68.36c-.65,1.27-1.64,1.91-3.03,1.91-2.11,0-3.32-1.62-3.32-3.32s1.28-3.37,3.27-3.37c1.81,0,3.27,1.31,3.3,3.42h-5.73Zm4.83-.72c-.33-1.32-1.28-1.91-2.39-1.91s-1.99.61-2.36,1.91h4.75Z"/>
          <path class="cls-4" d="m96.79,237.86c-.62.95-1.7,1.44-2.99,1.44-2.1,0-3.5-1.51-3.5-3.29,0-1.87,1.46-3.41,3.56-3.41,1.22,0,2.34.5,2.93,1.49l-.66.41c-.56-.74-1.34-1.1-2.3-1.1-1.62,0-2.69,1.19-2.69,2.55s1.06,2.6,2.7,2.6c.92,0,1.69-.37,2.29-1.12l.66.42Z"/>
          <path class="cls-4" d="m98.61,236.03c.04,1.46,1.03,2.53,2.4,2.53s1.97-.76,2.43-1.52l.68.36c-.65,1.27-1.64,1.91-3.03,1.91-2.11,0-3.32-1.62-3.32-3.32s1.28-3.37,3.27-3.37c1.81,0,3.27,1.31,3.3,3.42h-5.73Zm4.83-.72c-.33-1.32-1.28-1.91-2.39-1.91s-1.99.61-2.36,1.91h4.75Z"/>
          <path class="cls-4" d="m106.38,233.91c.66-.86,1.45-1.31,2.39-1.31,1.39,0,2.36.96,2.36,2.96v3.57h-.82v-3.47c0-1.5-.47-2.33-1.7-2.33-.68,0-1.25.3-1.68.86-.48.62-.55,1.25-.55,2.25v2.67h-.82v-6.37h.82v1.14Z"/>
          <path class="cls-4" d="m114.2,238.58c0,.41-.32.73-.72.73s-.72-.34-.72-.73.32-.73.72-.73.72.32.72.73Z"/>
        </g>
        <g>
          <circle class="cls-3" cx="63.74" cy="63.74" r="63.74"/>
          <g>
            <path class="cls-4" d="m94.14,34.79c-1.05-.01-2.09-.01-3.14-.05-4.82-.15-9.47.79-14.06,2.14-.38.11-.66.54-.98.82.4.22.79.64,1.19.64,6.17.03,12.33,0,18.5,0,2.45,0,3.63-1.55,2.42-3.64-1.52-2.63-3.36-5.09-5.22-7.51-1.89-2.46-3.97-4.77-5.98-7.13-.3-.35-.66-.66-1.04-.94-.57-.42-1.13-1.02-1.88-.26-.69.7-.61,1.47-.14,2.2.44.68.96,1.3,1.46,1.93,2.14,2.64,4.3,5.28,6.44,7.92.2.24.37.51.63.88-2.51-1.29-4.82-2.63-7.24-3.71-10.73-4.79-21.94-5.8-33.47-4.04-5.6.86-11.13,2-16.32,4.38-1.23.56-2.43,1.25-3.5,2.05-.58.44-.88,1.26-1.3,1.91.12.13.24.25.36.38.7-.22,1.42-.41,2.11-.68,12.44-4.82,25.32-6.08,38.49-4.58,7.44.85,14.61,2.79,21.44,5.91.51.23.93.68,1.39,1.03-.06.11-.11.23-.17.34Z"/>
            <path class="cls-4" d="m34.93,99.37c1.05.01,2.09.01,3.14.05,4.82.15,9.47-.79,14.06-2.14.38-.11.66-.54.98-.82-.4-.22-.79-.64-1.19-.64-6.17-.03-12.33,0-18.5,0-2.45,0-3.63,1.55-2.42,3.64,1.52,2.63,3.36,5.09,5.22,7.51,1.89,2.46,3.97,4.77,5.98,7.13.3.35.66.66,1.04.94.57.42,1.13,1.02,1.88.26.69-.7.61-1.47.14-2.2-.44-.68-.96-1.3-1.46-1.93-2.14-2.64-4.3-5.28-6.44-7.92-.2-.24-.37-.51-.63-.88,2.51,1.29,4.82,2.63,7.24,3.71,10.73,4.79,21.94,5.8,33.47,4.04,5.6-.86,11.13-2,16.32-4.38,1.23-.56,2.43-1.25,3.5-2.05.58-.44.88-1.26,1.3-1.91-.12-.13-.24-.25-.36-.38-.7.22-1.42.41-2.11.68-12.44,4.82-25.32,6.08-38.49,4.58-7.44-.85-14.61-2.79-21.44-5.91-.51-.23-.93-.68-1.39-1.03.06-.11.11-.23.17-.34Z"/>
            <g>
              <path class="cls-4" d="m33.59,69.58c6.74,0,12.23-5.48,12.23-12.23s-5.48-12.23-12.23-12.23-12.23,5.48-12.23,12.23,5.48,12.23,12.23,12.23Zm0-21.19c4.94,0,8.97,4.02,8.97,8.97s-4.02,8.97-8.97,8.97-8.97-4.02-8.97-8.97,4.02-8.97,8.97-8.97Z"/>
              <path class="cls-4" d="m43.36,68.96c-.96.81-2.02,1.49-3.16,2.04,5.23,2.33,9.02,7.32,9.61,13.25H17.37c.59-5.93,4.38-10.92,9.61-13.25-1.14-.55-2.2-1.23-3.16-2.04-5.85,3.39-9.8,9.7-9.8,16.93v1.63h39.13v-1.63c0-7.23-3.95-13.54-9.8-16.93Z"/>
            </g>
            <g>
              <path class="cls-4" d="m95.67,69.58c6.74,0,12.23-5.48,12.23-12.23s-5.48-12.23-12.23-12.23-12.23,5.48-12.23,12.23,5.48,12.23,12.23,12.23Zm0-21.19c4.94,0,8.97,4.02,8.97,8.97s-4.02,8.97-8.97,8.97-8.97-4.02-8.97-8.97,4.02-8.97,8.97-8.97Z"/>
              <path class="cls-4" d="m105.44,68.96c-.96.81-2.02,1.49-3.16,2.04,5.23,2.33,9.02,7.32,9.61,13.25h-32.44c.59-5.93,4.38-10.92,9.61-13.25-1.14-.55-2.2-1.23-3.16-2.04-5.85,3.39-9.8,9.7-9.8,16.93v1.63h39.13v-1.63c0-7.23-3.95-13.54-9.8-16.93Z"/>
            </g>
          </g>
        </g>
      </g>
    </g>
  </g>
</svg>