<?xml version="1.0" encoding="UTF-8"?>
<svg xmlns="http://www.w3.org/2000/svg" xmlns:xlink="http://www.w3.org/1999/xlink" viewBox="0 0 307.56 195.55">
  <defs>
    <style>
      .cls-1, .cls-2 {
        fill: none;
      }

      .cls-3 {
        clip-path: url(#clippath);
      }

      .cls-4 {
        fill: #8acdcf;
      }

      .cls-5 {
        fill: #d4ecf0;
      }

      .cls-6 {
        fill: #3765ae;
      }

      .cls-7 {
        fill: url(#linear-gradient);
        mix-blend-mode: multiply;
      }

      .cls-8 {
        isolation: isolate;
      }

      .cls-2 {
        stroke: #3765ae;
        stroke-linecap: round;
        stroke-linejoin: round;
        stroke-width: 3px;
      }
    </style>
    <linearGradient id="linear-gradient" x1="129.45" y1="218.8" x2="169.53" y2="-233.24" gradientUnits="userSpaceOnUse">
      <stop offset=".02" stop-color="#fff"/>
      <stop offset="1" stop-color="#231f20"/>
    </linearGradient>
    <clipPath id="clippath">
      <rect class="cls-1" x="219.63" width="87.93" height="192.3"/>
    </clipPath>
  </defs>
  <g class="cls-8">
    <g id="Capa_2" data-name="Capa 2">
      <g id="Capa_1-2" data-name="Capa 1">
        <g>
          <path class="cls-7" d="m5.7,6.1h255.83s-17.64,92.51,13.26,189.44H10.9S-9.67,120.45,5.7,6.1Z"/>
          <path class="cls-4" d="m6.2.79h255.83s-13.7,91.4,17.2,175.55H15.34S-9.18,100.06,6.2.79Z"/>
        </g>
        <g>
          <path class="cls-6" d="m28.88,18.19h.86v7.77h3.31v.84h-4.17v-8.61Z"/>
          <path class="cls-6" d="m39.83,20.44h.8v6.37h-.8v-1.09c-.7.84-1.57,1.25-2.57,1.25-1.86,0-3.26-1.55-3.26-3.36s1.44-3.33,3.29-3.33c1.03,0,1.91.44,2.54,1.33v-1.16Zm-4.99,3.19c0,1.38,1.08,2.59,2.51,2.59,1.31,0,2.54-.98,2.54-2.57,0-1.47-1.1-2.59-2.53-2.59s-2.52,1.2-2.52,2.57Z"/>
          <path class="cls-6" d="m42.41,25.47c.41.46.85.71,1.33.71.62,0,1.17-.46,1.17-1.06,0-.37-.22-.72-.53-.89-1.46-.82-2.21-1.16-2.21-2.28,0-1.01.78-1.69,1.75-1.69.7,0,1.22.34,1.76.86l-.53.54c-.38-.37-.77-.61-1.28-.61s-.96.37-.96.85c0,.32.2.68.49.85,1.46.85,2.28,1.18,2.28,2.33,0,1-.77,1.88-1.92,1.88-.71,0-1.43-.32-1.88-.91l.52-.59Z"/>
          <path class="cls-6" d="m58.79,19.92c-.47-.61-.88-1.06-1.58-1.06-.74,0-1.16.53-1.16,1.09,0,.47.28.96.77,1.33,1.62,1.2,2.81,2.03,2.81,3.42,0,1.21-1.02,2.31-2.42,2.31-1.19,0-1.97-.66-2.6-1.82l.73-.44c.52.95,1.14,1.43,1.8,1.43.9,0,1.59-.66,1.59-1.46,0-.95-.89-1.49-2.84-3.07-.41-.32-.73-1.01-.73-1.66,0-1.19.92-2.01,2.09-2.01,1.05,0,1.69.64,2.25,1.4l-.7.54Z"/>
          <path class="cls-6" d="m67.67,23.64c0,1.81-1.4,3.33-3.32,3.33s-3.32-1.52-3.32-3.33,1.42-3.37,3.32-3.37,3.32,1.55,3.32,3.37Zm-5.8.01c0,1.39,1.04,2.53,2.48,2.53s2.48-1.14,2.48-2.53-1.13-2.59-2.48-2.59-2.48,1.17-2.48,2.59Z"/>
          <path class="cls-6" d="m75.38,25.52c-.62.95-1.7,1.44-2.99,1.44-2.1,0-3.5-1.51-3.5-3.29,0-1.87,1.46-3.41,3.56-3.41,1.22,0,2.34.5,2.93,1.49l-.66.41c-.56-.74-1.34-1.1-2.3-1.1-1.62,0-2.69,1.19-2.69,2.55s1.06,2.6,2.7,2.6c.92,0,1.69-.37,2.29-1.12l.66.42Z"/>
          <path class="cls-6" d="m77.92,18.48c0,.37-.31.68-.68.68s-.67-.31-.67-.68.31-.67.67-.67.68.3.68.67Zm-1.08,1.96h.82v6.37h-.82v-6.37Z"/>
          <path class="cls-6" d="m79.89,23.69c.04,1.46,1.03,2.53,2.4,2.53s1.97-.75,2.43-1.52l.68.36c-.65,1.27-1.64,1.91-3.03,1.91-2.11,0-3.32-1.62-3.32-3.32s1.28-3.37,3.27-3.37c1.81,0,3.27,1.31,3.3,3.42h-5.73Zm4.83-.72c-.34-1.32-1.28-1.91-2.39-1.91s-1.99.61-2.36,1.91h4.75Z"/>
          <path class="cls-6" d="m92.71,25.71c-.7.84-1.57,1.25-2.57,1.25-1.86,0-3.26-1.55-3.26-3.36s1.44-3.33,3.29-3.33c1.03,0,1.91.44,2.54,1.33v-3.62h.82v8.83h-.82v-1.09Zm-4.99-2.09c0,1.38,1.08,2.59,2.51,2.59,1.31,0,2.53-.98,2.53-2.57,0-1.47-1.09-2.59-2.52-2.59s-2.52,1.2-2.52,2.57Z"/>
          <path class="cls-6" d="m100.91,20.44h.8v6.37h-.8v-1.09c-.7.84-1.57,1.25-2.57,1.25-1.86,0-3.26-1.55-3.26-3.36s1.44-3.33,3.29-3.33c1.03,0,1.91.44,2.54,1.33v-1.16Zm-4.99,3.19c0,1.38,1.08,2.59,2.51,2.59,1.31,0,2.54-.98,2.54-2.57,0-1.47-1.1-2.59-2.53-2.59s-2.52,1.2-2.52,2.57Z"/>
          <path class="cls-6" d="m109.12,25.71c-.7.84-1.57,1.25-2.57,1.25-1.86,0-3.26-1.55-3.26-3.36s1.44-3.33,3.29-3.33c1.03,0,1.91.44,2.54,1.33v-3.62h.82v8.83h-.82v-1.09Zm-4.99-2.09c0,1.38,1.08,2.59,2.51,2.59,1.31,0,2.53-.98,2.53-2.57,0-1.47-1.09-2.59-2.52-2.59s-2.52,1.2-2.52,2.57Z"/>
          <path class="cls-6" d="m112.33,23.69c.04,1.46,1.03,2.53,2.4,2.53s1.97-.75,2.43-1.52l.68.36c-.65,1.27-1.64,1.91-3.03,1.91-2.11,0-3.32-1.62-3.32-3.32s1.28-3.37,3.27-3.37c1.81,0,3.27,1.31,3.3,3.42h-5.73Zm4.83-.72c-.34-1.32-1.28-1.91-2.39-1.91s-1.99.61-2.36,1.91h4.75Z"/>
          <path class="cls-6" d="m119.5,25.47c.41.46.85.71,1.33.71.62,0,1.17-.46,1.17-1.06,0-.37-.22-.72-.53-.89-1.46-.82-2.21-1.16-2.21-2.28,0-1.01.78-1.69,1.75-1.69.7,0,1.22.34,1.76.86l-.53.54c-.38-.37-.77-.61-1.28-.61s-.96.37-.96.85c0,.32.2.68.49.85,1.46.85,2.28,1.18,2.28,2.33,0,1-.77,1.88-1.92,1.88-.71,0-1.43-.32-1.88-.91l.52-.59Z"/>
          <path class="cls-6" d="m139.92,20.3c-.76-1-1.83-1.49-3.07-1.49-2.04,0-3.75,1.51-3.75,3.71s1.63,3.69,3.8,3.69c1.2,0,2.22-.49,3.02-1.43l.68.52c-.89,1.12-2.2,1.7-3.77,1.7-2.88,0-4.64-2.03-4.64-4.56s1.97-4.47,4.64-4.47c1.58,0,2.92.62,3.77,1.81l-.68.52Z"/>
          <path class="cls-6" d="m148.55,23.64c0,1.81-1.4,3.33-3.32,3.33s-3.32-1.52-3.32-3.33,1.42-3.37,3.32-3.37,3.32,1.55,3.32,3.37Zm-5.8.01c0,1.39,1.04,2.53,2.48,2.53s2.48-1.14,2.48-2.53-1.13-2.59-2.48-2.59-2.48,1.17-2.48,2.59Z"/>
          <path class="cls-6" d="m156.41,23.64c0,1.81-1.4,3.33-3.32,3.33s-3.32-1.52-3.32-3.33,1.42-3.37,3.32-3.37,3.32,1.55,3.32,3.37Zm-5.8.01c0,1.39,1.04,2.53,2.48,2.53s2.48-1.14,2.48-2.53-1.13-2.59-2.48-2.59-2.48,1.17-2.48,2.59Z"/>
          <path class="cls-6" d="m158.75,21.6c.64-.89,1.51-1.33,2.53-1.33,1.86,0,3.3,1.52,3.3,3.33s-1.4,3.36-3.27,3.36c-1,0-1.86-.41-2.55-1.25v3.42h-.82v-8.7h.82v1.16Zm-.06,2.05c0,1.58,1.22,2.57,2.53,2.57,1.42,0,2.52-1.2,2.52-2.59s-1.06-2.57-2.52-2.57-2.53,1.12-2.53,2.59Z"/>
          <path class="cls-6" d="m166.65,23.69c.04,1.46,1.03,2.53,2.4,2.53s1.97-.75,2.43-1.52l.68.36c-.65,1.27-1.64,1.91-3.03,1.91-2.11,0-3.32-1.62-3.32-3.32s1.28-3.37,3.27-3.37c1.81,0,3.27,1.31,3.3,3.42h-5.73Zm4.83-.72c-.34-1.32-1.28-1.91-2.39-1.91s-1.99.61-2.36,1.91h4.75Z"/>
          <path class="cls-6" d="m174.45,21.36c.48-.7,1-1.09,1.64-1.09.37,0,.56.12.73.22l-.43.7c-.1-.05-.25-.12-.43-.12-.6,0-1.14.52-1.38,1.39-.11.41-.13,1.07-.13,1.93v2.42h-.86v-6.37h.86v.92Z"/>
          <path class="cls-6" d="m183.06,20.44h.8v6.37h-.8v-1.09c-.7.84-1.57,1.25-2.57,1.25-1.86,0-3.26-1.55-3.26-3.36s1.44-3.33,3.29-3.33c1.03,0,1.91.44,2.54,1.33v-1.16Zm-4.99,3.19c0,1.38,1.08,2.59,2.51,2.59,1.31,0,2.54-.98,2.54-2.57,0-1.47-1.1-2.59-2.53-2.59s-2.52,1.2-2.52,2.57Z"/>
          <path class="cls-6" d="m186.45,18.06h.82v2.38h1.31v.72h-1.31v5.65h-.82v-5.65h-1.13v-.72h1.13v-2.38Z"/>
          <path class="cls-6" d="m190.76,18.48c0,.37-.31.68-.68.68s-.67-.31-.67-.68.31-.67.67-.67.68.3.68.67Zm-1.08,1.96h.82v6.37h-.82v-6.37Z"/>
          <path class="cls-6" d="m191.59,20.44h.88l2.13,4.63,2.11-4.63h.88l-2.91,6.37h-.14l-2.94-6.37Z"/>
          <path class="cls-6" d="m204.38,20.44h.8v6.37h-.8v-1.09c-.7.84-1.57,1.25-2.57,1.25-1.86,0-3.26-1.55-3.26-3.36s1.44-3.33,3.29-3.33c1.03,0,1.91.44,2.54,1.33v-1.16Zm-4.99,3.19c0,1.38,1.08,2.59,2.51,2.59,1.31,0,2.54-.98,2.54-2.57,0-1.47-1.1-2.59-2.53-2.59s-2.52,1.2-2.52,2.57Z"/>
          <path class="cls-6" d="m206.95,25.47c.41.46.85.71,1.33.71.62,0,1.17-.46,1.17-1.06,0-.37-.22-.72-.53-.89-1.46-.82-2.21-1.16-2.21-2.28,0-1.01.78-1.69,1.75-1.69.7,0,1.22.34,1.76.86l-.53.54c-.38-.37-.77-.61-1.28-.61s-.96.37-.96.85c0,.32.2.68.49.85,1.46.85,2.28,1.18,2.28,2.33,0,1-.77,1.88-1.92,1.88-.71,0-1.43-.32-1.88-.91l.52-.59Z"/>
          <path class="cls-6" d="m219.81,25.47c.41.46.85.71,1.33.71.62,0,1.17-.46,1.17-1.06,0-.37-.22-.72-.53-.89-1.46-.82-2.21-1.16-2.21-2.28,0-1.01.78-1.69,1.75-1.69.7,0,1.22.34,1.76.86l-.53.54c-.38-.37-.77-.61-1.28-.61s-.96.37-.96.85c0,.32.2.68.49.85,1.46.85,2.28,1.18,2.28,2.33,0,1-.77,1.88-1.92,1.88-.71,0-1.43-.32-1.88-.91l.52-.59Z"/>
          <path class="cls-6" d="m225.09,23.69c.04,1.46,1.03,2.53,2.4,2.53s1.97-.75,2.43-1.52l.68.36c-.65,1.27-1.64,1.91-3.03,1.91-2.11,0-3.32-1.62-3.32-3.32s1.28-3.37,3.27-3.37c1.81,0,3.27,1.31,3.3,3.42h-5.73Zm4.83-.72c-.34-1.32-1.28-1.91-2.39-1.91s-1.99.61-2.36,1.91h4.75Z"/>
          <path class="cls-6" d="m28.74,30.48h.82v3.6c.66-.86,1.44-1.31,2.39-1.31,1.38,0,2.35.97,2.35,2.88v3.66h-.82v-3.47c0-1.5-.46-2.33-1.69-2.33-.68,0-1.25.3-1.68.86-.47.61-.55,1.24-.55,2.25v2.67h-.82v-8.83Z"/>
          <path class="cls-6" d="m41.6,32.94h.8v6.37h-.8v-1.09c-.7.84-1.57,1.25-2.57,1.25-1.86,0-3.26-1.55-3.26-3.36s1.44-3.33,3.29-3.33c1.03,0,1.91.44,2.54,1.33v-1.16Zm-4.99,3.19c0,1.38,1.08,2.59,2.51,2.59,1.31,0,2.54-.98,2.54-2.57,0-1.48-1.1-2.59-2.53-2.59s-2.52,1.2-2.52,2.57Z"/>
          <path class="cls-6" d="m45.07,34.07c.66-.86,1.45-1.31,2.39-1.31,1.39,0,2.36.96,2.36,2.96v3.57h-.82v-3.47c0-1.5-.47-2.33-1.7-2.33-.68,0-1.25.3-1.68.86-.48.62-.55,1.25-.55,2.25v2.67h-.82v-6.37h.82v1.14Z"/>
          <path class="cls-6" d="m61.26,38.02c-.62.95-1.7,1.44-2.99,1.44-2.1,0-3.5-1.51-3.5-3.29,0-1.87,1.46-3.41,3.56-3.41,1.22,0,2.34.5,2.93,1.49l-.66.41c-.56-.74-1.34-1.1-2.3-1.1-1.62,0-2.69,1.19-2.69,2.55s1.06,2.6,2.7,2.6c.92,0,1.69-.37,2.29-1.12l.66.42Z"/>
          <path class="cls-6" d="m69.18,36.14c0,1.81-1.4,3.33-3.32,3.33s-3.32-1.52-3.32-3.33,1.42-3.37,3.32-3.37,3.32,1.55,3.32,3.37Zm-5.8.01c0,1.39,1.04,2.53,2.48,2.53s2.48-1.14,2.48-2.53-1.13-2.59-2.48-2.59-2.48,1.17-2.48,2.59Z"/>
          <path class="cls-6" d="m71.52,34.07c.66-.86,1.45-1.31,2.39-1.31,1.39,0,2.36.96,2.36,2.96v3.57h-.82v-3.47c0-1.5-.47-2.33-1.7-2.33-.68,0-1.25.3-1.68.86-.48.62-.55,1.25-.55,2.25v2.67h-.82v-6.37h.82v1.14Z"/>
          <path class="cls-6" d="m77.42,32.94h.88l2.13,4.63,2.11-4.63h.88l-2.91,6.37h-.14l-2.94-6.37Z"/>
          <path class="cls-6" d="m85.21,36.19c.04,1.46,1.03,2.53,2.4,2.53s1.97-.75,2.43-1.52l.68.36c-.65,1.27-1.64,1.91-3.03,1.91-2.11,0-3.32-1.62-3.32-3.32s1.28-3.37,3.27-3.37c1.81,0,3.27,1.31,3.3,3.42h-5.73Zm4.83-.72c-.34-1.32-1.28-1.91-2.39-1.91s-1.99.61-2.36,1.91h4.75Z"/>
          <path class="cls-6" d="m93.01,33.86c.48-.7,1-1.09,1.64-1.09.37,0,.56.12.73.22l-.43.7c-.1-.05-.25-.12-.43-.12-.6,0-1.14.52-1.38,1.39-.11.41-.13,1.07-.13,1.93v2.42h-.86v-6.37h.86v.92Z"/>
          <path class="cls-6" d="m96.81,30.56h.82v2.38h1.31v.72h-1.31v5.65h-.82v-5.65h-1.13v-.72h1.13v-2.38Z"/>
          <path class="cls-6" d="m101.12,30.98c0,.37-.31.68-.68.68s-.67-.31-.67-.68.31-.67.67-.67.68.3.68.67Zm-1.08,1.96h.82v6.37h-.82v-6.37Z"/>
          <path class="cls-6" d="m108.1,38.21c-.7.84-1.57,1.25-2.57,1.25-1.86,0-3.26-1.55-3.26-3.36s1.44-3.33,3.29-3.33c1.03,0,1.91.44,2.54,1.33v-3.62h.82v8.83h-.82v-1.09Zm-4.99-2.09c0,1.38,1.08,2.59,2.51,2.59,1.31,0,2.53-.98,2.53-2.57,0-1.48-1.09-2.59-2.52-2.59s-2.52,1.2-2.52,2.57Z"/>
          <path class="cls-6" d="m117.11,36.14c0,1.81-1.4,3.33-3.32,3.33s-3.32-1.52-3.32-3.33,1.42-3.37,3.32-3.37,3.32,1.55,3.32,3.37Zm-5.8.01c0,1.39,1.04,2.53,2.48,2.53s2.48-1.14,2.48-2.53-1.13-2.59-2.48-2.59-2.48,1.17-2.48,2.59Z"/>
          <path class="cls-6" d="m122.67,36.19c.04,1.46,1.03,2.53,2.4,2.53s1.97-.75,2.43-1.52l.68.36c-.65,1.27-1.64,1.91-3.03,1.91-2.11,0-3.32-1.62-3.32-3.32s1.28-3.37,3.27-3.37c1.81,0,3.27,1.31,3.3,3.42h-5.73Zm4.83-.72c-.33-1.32-1.28-1.91-2.39-1.91s-1.99.61-2.36,1.91h4.75Z"/>
          <path class="cls-6" d="m130.74,34.07c.66-.86,1.45-1.31,2.39-1.31,1.39,0,2.36.96,2.36,2.96v3.57h-.82v-3.47c0-1.5-.47-2.33-1.7-2.33-.68,0-1.25.3-1.68.86-.48.62-.55,1.25-.55,2.25v2.67h-.82v-6.37h.82v1.14Z"/>
          <path class="cls-6" d="m145.38,32.94h.86v3.3c0,2.15-.97,3.23-2.79,3.23s-2.81-1.08-2.81-3.23v-3.3h.86v3.11c0,.67,0,1.22.18,1.61.3.65.96,1.02,1.76,1.02.59,0,1.1-.22,1.44-.56.5-.54.49-1.15.49-2.06v-3.11Z"/>
          <path class="cls-6" d="m148.86,34.07c.66-.86,1.45-1.31,2.39-1.31,1.39,0,2.36.96,2.36,2.96v3.57h-.82v-3.47c0-1.5-.47-2.33-1.7-2.33-.68,0-1.25.3-1.68.86-.48.62-.55,1.25-.55,2.25v2.67h-.82v-6.37h.82v1.14Z"/>
          <path class="cls-6" d="m160.9,32.94h.8v6.37h-.8v-1.09c-.7.84-1.57,1.25-2.57,1.25-1.86,0-3.26-1.55-3.26-3.36s1.44-3.33,3.29-3.33c1.03,0,1.91.44,2.54,1.33v-1.16Zm-4.99,3.19c0,1.38,1.08,2.59,2.51,2.59,1.31,0,2.54-.98,2.54-2.57,0-1.48-1.1-2.59-2.53-2.59s-2.52,1.2-2.52,2.57Z"/>
          <path class="cls-6" d="m168.03,30.98c0,.37-.31.68-.68.68s-.67-.31-.67-.68.31-.67.67-.67.68.3.68.67Zm-1.08,1.96h.82v6.37h-.82v-6.37Z"/>
          <path class="cls-6" d="m174.61,39.3h-.82v-3.26c0-.49-.05-.9-.06-1.19-.04-.7-.6-1.29-1.44-1.29-.56,0-1.13.28-1.49.74-.46.59-.54,1.34-.54,2.3v2.7h-.82v-6.37h.82v1.09c.56-.82,1.27-1.26,2.18-1.26.97,0,1.67.5,2.02,1.54.56-1.02,1.4-1.54,2.34-1.54,1.32,0,2.17.95,2.17,2.76v3.78h-.82v-3.48c0-.47-.06-.84-.07-1.08-.04-.56-.58-1.19-1.44-1.19-.79,0-1.49.48-1.81,1.29-.2.52-.23,1.08-.23,1.67v2.78Z"/>
          <path class="cls-6" d="m181.55,34.1c.64-.89,1.51-1.33,2.53-1.33,1.86,0,3.3,1.52,3.3,3.33s-1.4,3.36-3.27,3.36c-1,0-1.86-.41-2.55-1.25v3.42h-.82v-8.7h.82v1.16Zm-.06,2.05c0,1.58,1.22,2.57,2.53,2.57,1.42,0,2.52-1.2,2.52-2.59s-1.06-2.57-2.52-2.57-2.53,1.11-2.53,2.59Z"/>
          <path class="cls-6" d="m195.25,36.14c0,1.81-1.4,3.33-3.32,3.33s-3.32-1.52-3.32-3.33,1.42-3.37,3.32-3.37,3.32,1.55,3.32,3.37Zm-5.8.01c0,1.39,1.04,2.53,2.48,2.53s2.48-1.14,2.48-2.53-1.13-2.59-2.48-2.59-2.48,1.17-2.48,2.59Z"/>
          <path class="cls-6" d="m197.3,33.86c.48-.7,1-1.09,1.64-1.09.37,0,.56.12.73.22l-.43.7c-.1-.05-.25-.12-.43-.12-.6,0-1.14.52-1.38,1.39-.11.41-.13,1.07-.13,1.93v2.42h-.86v-6.37h.86v.92Z"/>
          <path class="cls-6" d="m201.11,30.56h.82v2.38h1.31v.72h-1.31v5.65h-.82v-5.65h-1.13v-.72h1.13v-2.38Z"/>
          <path class="cls-6" d="m209.98,32.94h.8v6.37h-.8v-1.09c-.7.84-1.57,1.25-2.57,1.25-1.86,0-3.26-1.55-3.26-3.36s1.44-3.33,3.29-3.33c1.03,0,1.91.44,2.54,1.33v-1.16Zm-4.99,3.19c0,1.38,1.08,2.59,2.51,2.59,1.31,0,2.54-.98,2.54-2.57,0-1.48-1.1-2.59-2.53-2.59s-2.52,1.2-2.52,2.57Z"/>
          <path class="cls-6" d="m213.45,34.07c.66-.86,1.45-1.31,2.39-1.31,1.39,0,2.36.96,2.36,2.96v3.57h-.82v-3.47c0-1.5-.47-2.33-1.7-2.33-.68,0-1.25.3-1.68.86-.48.62-.55,1.25-.55,2.25v2.67h-.82v-6.37h.82v1.14Z"/>
          <path class="cls-6" d="m220.69,30.56h.82v2.38h1.31v.72h-1.31v5.65h-.82v-5.65h-1.13v-.72h1.13v-2.38Z"/>
          <path class="cls-6" d="m224.57,36.19c.04,1.46,1.03,2.53,2.4,2.53s1.97-.75,2.43-1.52l.68.36c-.65,1.27-1.64,1.91-3.03,1.91-2.11,0-3.32-1.62-3.32-3.32s1.28-3.37,3.27-3.37c1.81,0,3.27,1.31,3.3,3.42h-5.73Zm4.83-.72c-.34-1.32-1.28-1.91-2.39-1.91s-1.99.61-2.36,1.91h4.75Z"/>
          <path class="cls-6" d="m28.14,45.44h.88l2.13,4.63,2.11-4.63h.88l-2.91,6.37h-.14l-2.94-6.37Z"/>
          <path class="cls-6" d="m36.09,42.44h1.26l-1.74,1.81h-.8l1.28-1.81Zm-.82,3h.82v6.37h-.82v-6.37Z"/>
          <path class="cls-6" d="m43.33,45.44h.8v6.37h-.8v-1.09c-.7.84-1.57,1.25-2.57,1.25-1.86,0-3.26-1.55-3.26-3.36s1.44-3.33,3.29-3.33c1.03,0,1.91.44,2.54,1.33v-1.16Zm-4.99,3.19c0,1.38,1.08,2.59,2.51,2.59,1.31,0,2.54-.98,2.54-2.57,0-1.48-1.1-2.59-2.53-2.59s-2.52,1.2-2.52,2.57Z"/>
          <path class="cls-6" d="m49.87,46.6c.64-.89,1.51-1.33,2.53-1.33,1.86,0,3.3,1.52,3.3,3.33s-1.4,3.36-3.27,3.36c-1,0-1.86-.41-2.55-1.25v3.42h-.82v-8.7h.82v1.16Zm-.06,2.05c0,1.58,1.22,2.57,2.53,2.57,1.42,0,2.52-1.2,2.52-2.59s-1.06-2.57-2.52-2.57-2.53,1.12-2.53,2.59Z"/>
          <path class="cls-6" d="m62.77,45.44h.8v6.37h-.8v-1.09c-.7.84-1.57,1.25-2.57,1.25-1.86,0-3.26-1.55-3.26-3.36s1.44-3.33,3.29-3.33c1.03,0,1.91.44,2.54,1.33v-1.16Zm-4.99,3.19c0,1.38,1.08,2.59,2.51,2.59,1.31,0,2.54-.98,2.54-2.57,0-1.48-1.1-2.59-2.53-2.59s-2.52,1.2-2.52,2.57Z"/>
          <path class="cls-6" d="m65.96,46.36c.48-.7,1-1.09,1.64-1.09.37,0,.56.12.73.22l-.43.7c-.1-.05-.25-.12-.43-.12-.6,0-1.14.52-1.38,1.39-.11.41-.13,1.07-.13,1.93v2.42h-.86v-6.37h.86v.92Z"/>
          <path class="cls-6" d="m74.58,45.44h.8v6.37h-.8v-1.09c-.7.84-1.57,1.25-2.57,1.25-1.86,0-3.26-1.55-3.26-3.36s1.44-3.33,3.29-3.33c1.03,0,1.91.44,2.54,1.33v-1.16Zm-4.99,3.19c0,1.38,1.08,2.59,2.51,2.59,1.31,0,2.54-.98,2.54-2.57,0-1.48-1.1-2.59-2.53-2.59s-2.52,1.2-2.52,2.57Z"/>
          <path class="cls-6" d="m80.83,48.69c.04,1.46,1.03,2.53,2.4,2.53s1.97-.75,2.43-1.52l.68.36c-.65,1.27-1.64,1.91-3.03,1.91-2.11,0-3.32-1.62-3.32-3.32s1.28-3.37,3.27-3.37c1.81,0,3.27,1.31,3.3,3.42h-5.73Zm4.83-.72c-.33-1.32-1.28-1.91-2.39-1.91s-1.99.61-2.36,1.91h4.75Z"/>
          <path class="cls-6" d="m88.91,46.57c.66-.86,1.45-1.31,2.39-1.31,1.39,0,2.36.96,2.36,2.96v3.57h-.82v-3.47c0-1.5-.47-2.33-1.7-2.33-.68,0-1.25.3-1.68.86-.48.62-.55,1.25-.55,2.25v2.67h-.82v-6.37h.82v1.14Z"/>
          <path class="cls-6" d="m101.6,50.52c-.62.95-1.7,1.44-2.99,1.44-2.1,0-3.5-1.51-3.5-3.29,0-1.87,1.46-3.41,3.56-3.41,1.22,0,2.34.5,2.93,1.49l-.66.41c-.56-.74-1.34-1.1-2.3-1.1-1.62,0-2.69,1.19-2.69,2.55s1.06,2.6,2.7,2.6c.92,0,1.69-.37,2.29-1.12l.66.42Z"/>
          <path class="cls-6" d="m108.72,45.44h.8v6.37h-.8v-1.09c-.7.84-1.57,1.25-2.57,1.25-1.86,0-3.26-1.55-3.26-3.36s1.44-3.33,3.29-3.33c1.03,0,1.91.44,2.54,1.33v-1.16Zm-4.99,3.19c0,1.38,1.08,2.59,2.51,2.59,1.31,0,2.54-.98,2.54-2.57,0-1.48-1.1-2.59-2.53-2.59s-2.52,1.2-2.52,2.57Z"/>
          <path class="cls-6" d="m116,45.44h.86v3.3c0,2.15-.97,3.23-2.79,3.23s-2.81-1.08-2.81-3.23v-3.3h.86v3.11c0,.67,0,1.22.18,1.61.3.65.96,1.02,1.76,1.02.59,0,1.1-.22,1.44-.56.5-.54.49-1.15.49-2.06v-3.11Z"/>
          <path class="cls-6" d="m118.14,45.44h4.69l-3.61,5.65h3.49v.72h-4.91l3.61-5.65h-3.27v-.72Z"/>
          <path class="cls-6" d="m129.31,45.44h.8v6.37h-.8v-1.09c-.7.84-1.57,1.25-2.57,1.25-1.86,0-3.26-1.55-3.26-3.36s1.44-3.33,3.29-3.33c1.03,0,1.91.44,2.54,1.33v-1.16Zm-4.99,3.19c0,1.38,1.08,2.59,2.51,2.59,1.31,0,2.54-.98,2.54-2.57,0-1.48-1.1-2.59-2.53-2.59s-2.52,1.2-2.52,2.57Z"/>
          <path class="cls-6" d="m132.5,46.36c.48-.7,1-1.09,1.64-1.09.37,0,.56.12.73.22l-.43.7c-.1-.05-.25-.12-.43-.12-.6,0-1.14.52-1.38,1.39-.11.41-.13,1.07-.13,1.93v2.42h-.86v-6.37h.86v.92Z"/>
          <path class="cls-6" d="m139.18,48.69c.04,1.46,1.03,2.53,2.4,2.53s1.97-.75,2.43-1.52l.68.36c-.65,1.27-1.64,1.91-3.03,1.91-2.11,0-3.32-1.62-3.32-3.32s1.28-3.37,3.27-3.37c1.81,0,3.27,1.31,3.3,3.42h-5.73Zm4.83-.72c-.34-1.32-1.28-1.91-2.39-1.91s-1.99.61-2.36,1.91h4.75Z"/>
          <path class="cls-6" d="m146.32,42.98h.82v8.83h-.82v-8.83Z"/>
          <path class="cls-6" d="m157.45,50.71c-.7.84-1.57,1.25-2.57,1.25-1.86,0-3.26-1.55-3.26-3.36s1.44-3.33,3.29-3.33c1.03,0,1.91.44,2.54,1.33v-3.62h.82v8.83h-.82v-1.09Zm-4.99-2.09c0,1.38,1.08,2.59,2.51,2.59,1.31,0,2.53-.98,2.53-2.57,0-1.48-1.09-2.59-2.52-2.59s-2.52,1.2-2.52,2.57Z"/>
          <path class="cls-6" d="m161.09,43.48c0,.37-.31.68-.68.68s-.67-.31-.67-.68.31-.67.67-.67.68.3.68.67Zm-1.08,1.96h.82v6.37h-.82v-6.37Z"/>
          <path class="cls-6" d="m163.33,46.57c.66-.86,1.45-1.31,2.39-1.31,1.39,0,2.36.96,2.36,2.96v3.57h-.82v-3.47c0-1.5-.47-2.33-1.7-2.33-.68,0-1.25.3-1.68.86-.48.62-.55,1.25-.55,2.25v2.67h-.82v-6.37h.82v1.14Z"/>
          <path class="cls-6" d="m175.38,45.44h.8v6.37h-.8v-1.09c-.7.84-1.57,1.25-2.57,1.25-1.86,0-3.26-1.55-3.26-3.36s1.44-3.33,3.29-3.33c1.03,0,1.91.44,2.54,1.33v-1.16Zm-4.99,3.19c0,1.38,1.08,2.59,2.51,2.59,1.31,0,2.54-.98,2.54-2.57,0-1.48-1.1-2.59-2.53-2.59s-2.52,1.2-2.52,2.57Z"/>
          <path class="cls-6" d="m183.18,51.8h-.82v-3.26c0-.49-.05-.9-.06-1.19-.04-.7-.6-1.3-1.44-1.3-.56,0-1.13.28-1.49.74-.46.59-.54,1.34-.54,2.3v2.7h-.82v-6.37h.82v1.09c.56-.82,1.27-1.26,2.18-1.26.97,0,1.67.5,2.02,1.54.56-1.02,1.4-1.54,2.34-1.54,1.32,0,2.17.95,2.17,2.76v3.78h-.82v-3.48c0-.47-.06-.84-.07-1.08-.04-.56-.58-1.19-1.44-1.19-.79,0-1.49.48-1.81,1.3-.2.52-.23,1.08-.23,1.67v2.78Z"/>
          <path class="cls-6" d="m190.26,43.48c0,.37-.31.68-.68.68s-.67-.31-.67-.68.31-.67.67-.67.68.3.68.67Zm-1.08,1.96h.82v6.37h-.82v-6.37Z"/>
          <path class="cls-6" d="m191.61,50.47c.41.46.85.71,1.33.71.62,0,1.17-.46,1.17-1.05,0-.37-.22-.72-.53-.89-1.46-.82-2.21-1.16-2.21-2.28,0-1.01.78-1.69,1.75-1.69.7,0,1.22.34,1.76.86l-.53.54c-.38-.37-.77-.61-1.28-.61s-.96.37-.96.85c0,.32.2.68.49.85,1.46.85,2.28,1.18,2.28,2.33,0,1-.77,1.88-1.92,1.88-.71,0-1.43-.32-1.88-.91l.52-.59Z"/>
          <path class="cls-6" d="m201.49,51.8h-.82v-3.26c0-.49-.05-.9-.06-1.19-.04-.7-.6-1.3-1.44-1.3-.56,0-1.13.28-1.49.74-.46.59-.54,1.34-.54,2.3v2.7h-.82v-6.37h.82v1.09c.56-.82,1.27-1.26,2.18-1.26.97,0,1.67.5,2.02,1.54.56-1.02,1.4-1.54,2.34-1.54,1.32,0,2.17.95,2.17,2.76v3.78h-.82v-3.48c0-.47-.06-.84-.07-1.08-.04-.56-.58-1.19-1.44-1.19-.79,0-1.49.48-1.81,1.3-.2.52-.23,1.08-.23,1.67v2.78Z"/>
          <path class="cls-6" d="m213.95,48.64c0,1.81-1.4,3.33-3.32,3.33s-3.32-1.52-3.32-3.33,1.42-3.37,3.32-3.37,3.32,1.55,3.32,3.37Zm-5.8.01c0,1.39,1.04,2.53,2.48,2.53s2.48-1.14,2.48-2.53-1.13-2.59-2.48-2.59-2.48,1.18-2.48,2.59Z"/>
          <path class="cls-6" d="m217.84,45.44h.86l2.19,4.91,2.12-4.91h.88l-3.8,8.7h-.86l1.22-2.81-2.62-5.89Z"/>
          <path class="cls-6" d="m29.28,61.19c.04,1.46,1.03,2.53,2.4,2.53s1.97-.75,2.43-1.52l.68.36c-.65,1.27-1.64,1.91-3.03,1.91-2.11,0-3.32-1.62-3.32-3.32s1.28-3.37,3.27-3.37c1.81,0,3.27,1.31,3.3,3.42h-5.73Zm4.83-.72c-.33-1.32-1.28-1.91-2.39-1.91s-1.99.61-2.36,1.91h4.75Z"/>
          <path class="cls-6" d="m36.42,55.48h.82v8.83h-.82v-8.83Z"/>
          <path class="cls-6" d="m46.59,61.19c.04,1.46,1.03,2.53,2.4,2.53s1.97-.75,2.43-1.52l.68.36c-.65,1.27-1.64,1.91-3.03,1.91-2.11,0-3.32-1.62-3.32-3.32s1.28-3.37,3.27-3.37c1.81,0,3.27,1.31,3.3,3.42h-5.73Zm4.83-.72c-.33-1.32-1.28-1.91-2.39-1.91s-1.99.61-2.36,1.91h4.75Z"/>
          <path class="cls-6" d="m53.77,62.97c.41.46.85.71,1.33.71.62,0,1.17-.46,1.17-1.05,0-.37-.22-.72-.53-.89-1.46-.82-2.21-1.16-2.21-2.28,0-1.01.78-1.69,1.75-1.69.7,0,1.22.34,1.76.86l-.53.54c-.38-.37-.77-.61-1.28-.61s-.96.37-.96.85c0,.32.2.68.49.85,1.46.85,2.28,1.18,2.28,2.33,0,1-.77,1.88-1.92,1.88-.71,0-1.43-.32-1.88-.91l.52-.59Z"/>
          <path class="cls-6" d="m59.33,59.1c.64-.89,1.51-1.33,2.53-1.33,1.86,0,3.3,1.52,3.3,3.33s-1.4,3.36-3.27,3.36c-1,0-1.86-.41-2.55-1.25v3.42h-.82v-8.7h.82v1.16Zm-.06,2.05c0,1.58,1.22,2.57,2.53,2.57,1.42,0,2.52-1.2,2.52-2.59s-1.06-2.57-2.52-2.57-2.53,1.12-2.53,2.59Z"/>
          <path class="cls-6" d="m67.4,54.94h1.26l-1.74,1.81h-.8l1.28-1.81Zm-.82,3h.82v6.37h-.82v-6.37Z"/>
          <path class="cls-6" d="m69.63,58.86c.48-.7,1-1.09,1.64-1.09.37,0,.56.12.73.22l-.43.7c-.1-.05-.25-.12-.43-.12-.6,0-1.14.52-1.38,1.39-.11.41-.13,1.07-.13,1.93v2.42h-.86v-6.37h.86v.92Z"/>
          <path class="cls-6" d="m73.67,55.98c0,.37-.31.68-.68.68s-.67-.31-.67-.68.31-.67.67-.67.68.3.68.67Zm-1.08,1.96h.82v6.37h-.82v-6.37Z"/>
          <path class="cls-6" d="m75.84,55.56h.82v2.38h1.31v.72h-1.31v5.65h-.82v-5.65h-1.13v-.72h1.13v-2.38Z"/>
          <path class="cls-6" d="m83.8,57.94h.86v3.3c0,2.15-.97,3.23-2.79,3.23s-2.81-1.08-2.81-3.23v-3.3h.86v3.11c0,.67,0,1.22.18,1.61.3.65.96,1.02,1.76,1.02.59,0,1.1-.22,1.44-.56.5-.54.49-1.15.49-2.06v-3.11Z"/>
          <path class="cls-6" d="m94.12,61.19c.04,1.46,1.03,2.53,2.4,2.53s1.97-.75,2.43-1.52l.68.36c-.65,1.27-1.64,1.91-3.03,1.91-2.11,0-3.32-1.62-3.32-3.32s1.28-3.37,3.27-3.37c1.81,0,3.27,1.31,3.3,3.42h-5.73Zm4.83-.72c-.34-1.32-1.28-1.91-2.39-1.91s-1.99.61-2.36,1.91h4.75Z"/>
          <path class="cls-6" d="m106.52,64.3h-.82v-3.26c0-.49-.05-.9-.06-1.19-.04-.7-.6-1.3-1.44-1.3-.56,0-1.13.28-1.49.74-.46.59-.54,1.34-.54,2.3v2.7h-.82v-6.37h.82v1.09c.56-.82,1.27-1.26,2.18-1.26.97,0,1.67.5,2.02,1.54.56-1.02,1.4-1.54,2.34-1.54,1.32,0,2.17.95,2.17,2.76v3.78h-.82v-3.48c0-.47-.06-.84-.07-1.08-.04-.56-.58-1.19-1.44-1.19-.79,0-1.49.48-1.81,1.3-.2.52-.23,1.08-.23,1.67v2.78Z"/>
          <path class="cls-6" d="m113.46,59.1c.64-.89,1.51-1.33,2.53-1.33,1.86,0,3.3,1.52,3.3,3.33s-1.4,3.36-3.27,3.36c-1,0-1.86-.41-2.55-1.25v3.42h-.82v-8.7h.82v1.16Zm-.06,2.05c0,1.58,1.22,2.57,2.53,2.57,1.42,0,2.52-1.2,2.52-2.59s-1.06-2.57-2.52-2.57-2.53,1.12-2.53,2.59Z"/>
          <path class="cls-6" d="m121.36,58.86c.48-.7,1-1.09,1.64-1.09.37,0,.56.12.73.22l-.43.7c-.1-.05-.25-.12-.43-.12-.6,0-1.14.52-1.38,1.39-.11.41-.13,1.07-.13,1.93v2.42h-.86v-6.37h.86v.92Z"/>
          <path class="cls-6" d="m124.92,61.19c.04,1.46,1.03,2.53,2.4,2.53s1.97-.75,2.43-1.52l.68.36c-.65,1.27-1.64,1.91-3.03,1.91-2.11,0-3.32-1.62-3.32-3.32s1.28-3.37,3.27-3.37c1.81,0,3.27,1.31,3.3,3.42h-5.73Zm4.83-.72c-.33-1.32-1.28-1.91-2.39-1.91s-1.99.61-2.36,1.91h4.75Z"/>
          <path class="cls-6" d="m133,59.07c.66-.86,1.45-1.31,2.39-1.31,1.39,0,2.36.96,2.36,2.96v3.57h-.82v-3.47c0-1.5-.47-2.33-1.7-2.33-.68,0-1.25.3-1.68.86-.48.62-.55,1.25-.55,2.25v2.67h-.82v-6.37h.82v1.14Z"/>
          <path class="cls-6" d="m145.06,63.21c-.7.84-1.57,1.25-2.57,1.25-1.86,0-3.26-1.55-3.26-3.36s1.44-3.33,3.29-3.33c1.03,0,1.91.44,2.54,1.33v-3.62h.82v8.83h-.82v-1.09Zm-4.99-2.09c0,1.38,1.08,2.59,2.51,2.59,1.31,0,2.53-.98,2.53-2.57,0-1.48-1.09-2.59-2.52-2.59s-2.52,1.2-2.52,2.57Z"/>
          <path class="cls-6" d="m148.26,61.19c.04,1.46,1.03,2.53,2.4,2.53s1.97-.75,2.43-1.52l.68.36c-.65,1.27-1.64,1.91-3.03,1.91-2.11,0-3.32-1.62-3.32-3.32s1.28-3.37,3.27-3.37c1.81,0,3.27,1.31,3.3,3.42h-5.73Zm4.83-.72c-.33-1.32-1.28-1.91-2.39-1.91s-1.99.61-2.36,1.91h4.75Z"/>
          <path class="cls-6" d="m161.08,63.21c-.7.84-1.57,1.25-2.57,1.25-1.86,0-3.26-1.55-3.26-3.36s1.44-3.33,3.29-3.33c1.03,0,1.91.44,2.54,1.33v-3.62h.82v8.83h-.82v-1.09Zm-4.99-2.09c0,1.38,1.08,2.59,2.51,2.59,1.31,0,2.53-.98,2.53-2.57,0-1.48-1.09-2.59-2.52-2.59s-2.52,1.2-2.52,2.57Z"/>
          <path class="cls-6" d="m170.09,61.14c0,1.81-1.4,3.33-3.32,3.33s-3.32-1.52-3.32-3.33,1.42-3.37,3.32-3.37,3.32,1.55,3.32,3.37Zm-5.8.01c0,1.39,1.04,2.53,2.48,2.53s2.48-1.14,2.48-2.53-1.13-2.59-2.48-2.59-2.48,1.18-2.48,2.59Z"/>
          <path class="cls-6" d="m172.14,58.86c.48-.7,1-1.09,1.64-1.09.37,0,.56.12.73.22l-.43.7c-.1-.05-.25-.12-.43-.12-.6,0-1.14.52-1.38,1.39-.11.41-.13,1.07-.13,1.93v2.42h-.86v-6.37h.86v.92Z"/>
          <path class="cls-6" d="m187.88,63.21c-.7.84-1.57,1.25-2.57,1.25-1.86,0-3.26-1.55-3.26-3.36s1.44-3.33,3.29-3.33c1.03,0,1.91.44,2.54,1.33v-3.62h.82v8.83h-.82v-1.09Zm-4.99-2.09c0,1.38,1.08,2.59,2.51,2.59,1.31,0,2.53-.98,2.53-2.57,0-1.48-1.09-2.59-2.52-2.59s-2.52,1.2-2.52,2.57Z"/>
          <path class="cls-6" d="m191.09,61.19c.04,1.46,1.03,2.53,2.4,2.53s1.97-.75,2.43-1.52l.68.36c-.65,1.27-1.64,1.91-3.03,1.91-2.11,0-3.32-1.62-3.32-3.32s1.28-3.37,3.27-3.37c1.81,0,3.27,1.31,3.3,3.42h-5.73Zm4.83-.72c-.34-1.32-1.28-1.91-2.39-1.91s-1.99.61-2.36,1.91h4.75Z"/>
          <path class="cls-6" d="m205.34,55.48h.82v8.83h-.82v-8.83Z"/>
          <path class="cls-6" d="m214.2,61.14c0,1.81-1.4,3.33-3.32,3.33s-3.32-1.52-3.32-3.33,1.42-3.37,3.32-3.37,3.32,1.55,3.32,3.37Zm-5.8.01c0,1.39,1.04,2.53,2.48,2.53s2.48-1.14,2.48-2.53-1.13-2.59-2.48-2.59-2.48,1.18-2.48,2.59Z"/>
          <path class="cls-6" d="m215.63,62.97c.41.46.85.71,1.33.71.62,0,1.17-.46,1.17-1.05,0-.37-.22-.72-.53-.89-1.46-.82-2.21-1.16-2.21-2.28,0-1.01.78-1.69,1.75-1.69.7,0,1.22.34,1.76.86l-.53.54c-.38-.37-.77-.61-1.28-.61s-.96.37-.96.85c0,.32.2.68.49.85,1.46.85,2.28,1.18,2.28,2.33,0,1-.77,1.88-1.92,1.88-.71,0-1.43-.32-1.88-.91l.52-.59Z"/>
          <path class="cls-6" d="m34.93,75.52c-.62.95-1.7,1.44-2.99,1.44-2.1,0-3.5-1.51-3.5-3.29,0-1.87,1.46-3.41,3.56-3.41,1.22,0,2.34.5,2.93,1.49l-.66.41c-.56-.74-1.34-1.1-2.3-1.1-1.62,0-2.69,1.19-2.69,2.55s1.06,2.6,2.7,2.6c.92,0,1.69-.37,2.29-1.12l.66.42Z"/>
          <path class="cls-6" d="m37.47,68.48c0,.37-.31.68-.68.68s-.67-.31-.67-.68.31-.67.67-.67.68.3.68.67Zm-1.08,1.96h.82v6.37h-.82v-6.37Z"/>
          <path class="cls-6" d="m43.53,70.44h.86v3.3c0,2.15-.97,3.23-2.79,3.23s-2.81-1.08-2.81-3.23v-3.3h.86v3.11c0,.67,0,1.22.18,1.61.3.65.96,1.02,1.76,1.02.59,0,1.1-.22,1.44-.56.5-.54.49-1.15.49-2.06v-3.11Z"/>
          <path class="cls-6" d="m51.75,75.71c-.7.84-1.57,1.25-2.57,1.25-1.86,0-3.26-1.55-3.26-3.36s1.44-3.33,3.29-3.33c1.03,0,1.91.44,2.54,1.33v-3.62h.82v8.83h-.82v-1.09Zm-4.99-2.09c0,1.38,1.08,2.59,2.51,2.59,1.31,0,2.53-.98,2.53-2.57,0-1.48-1.09-2.59-2.52-2.59s-2.52,1.2-2.52,2.57Z"/>
          <path class="cls-6" d="m59.96,70.44h.8v6.37h-.8v-1.09c-.7.84-1.57,1.25-2.57,1.25-1.86,0-3.26-1.55-3.26-3.36s1.44-3.33,3.29-3.33c1.03,0,1.91.44,2.54,1.33v-1.16Zm-4.99,3.19c0,1.38,1.08,2.59,2.51,2.59,1.31,0,2.54-.98,2.54-2.57,0-1.48-1.1-2.59-2.53-2.59s-2.52,1.2-2.52,2.57Z"/>
          <path class="cls-6" d="m68.17,75.71c-.7.84-1.57,1.25-2.57,1.25-1.86,0-3.26-1.55-3.26-3.36s1.44-3.33,3.29-3.33c1.03,0,1.91.44,2.54,1.33v-3.62h.82v8.83h-.82v-1.09Zm-4.99-2.09c0,1.38,1.08,2.59,2.51,2.59,1.31,0,2.53-.98,2.53-2.57,0-1.48-1.09-2.59-2.52-2.59s-2.52,1.2-2.52,2.57Z"/>
          <path class="cls-6" d="m76.37,70.44h.8v6.37h-.8v-1.09c-.7.84-1.57,1.25-2.57,1.25-1.86,0-3.26-1.55-3.26-3.36s1.44-3.33,3.29-3.33c1.03,0,1.91.44,2.54,1.33v-1.16Zm-4.99,3.19c0,1.38,1.08,2.59,2.51,2.59,1.31,0,2.54-.98,2.54-2.57,0-1.48-1.1-2.59-2.53-2.59s-2.52,1.2-2.52,2.57Z"/>
          <path class="cls-6" d="m79.85,71.57c.66-.86,1.45-1.31,2.39-1.31,1.39,0,2.36.96,2.36,2.96v3.57h-.82v-3.47c0-1.5-.47-2.33-1.7-2.33-.68,0-1.25.3-1.68.86-.48.62-.55,1.25-.55,2.25v2.67h-.82v-6.37h.82v1.14Z"/>
          <path class="cls-6" d="m92.69,73.64c0,1.81-1.4,3.33-3.32,3.33s-3.32-1.52-3.32-3.33,1.42-3.37,3.32-3.37,3.32,1.55,3.32,3.37Zm-5.8.01c0,1.39,1.04,2.53,2.48,2.53s2.48-1.14,2.48-2.53-1.13-2.59-2.48-2.59-2.48,1.18-2.48,2.59Z"/>
          <path class="cls-6" d="m94.13,75.47c.41.46.85.71,1.33.71.62,0,1.17-.46,1.17-1.05,0-.37-.22-.72-.53-.89-1.46-.82-2.21-1.16-2.21-2.28,0-1.01.78-1.69,1.75-1.69.7,0,1.22.34,1.76.86l-.53.54c-.38-.37-.77-.61-1.28-.61s-.96.37-.96.85c0,.32.2.68.49.85,1.46.85,2.28,1.18,2.28,2.33,0,1-.77,1.88-1.92,1.88-.71,0-1.43-.32-1.88-.91l.52-.59Z"/>
          <path class="cls-6" d="m99.69,75.22l.78.37-1.19,2.22-.58-.24.98-2.35Z"/>
          <path class="cls-6" d="m105.18,75.47c.41.46.85.71,1.33.71.62,0,1.17-.46,1.17-1.05,0-.37-.22-.72-.53-.89-1.46-.82-2.21-1.16-2.21-2.28,0-1.01.78-1.69,1.75-1.69.7,0,1.22.34,1.76.86l-.53.54c-.38-.37-.77-.61-1.28-.61s-.96.37-.96.85c0,.32.2.68.49.85,1.46.85,2.28,1.18,2.28,2.33,0,1-.77,1.88-1.92,1.88-.71,0-1.43-.32-1.88-.91l.52-.59Z"/>
          <path class="cls-6" d="m110.46,73.69c.04,1.46,1.03,2.53,2.4,2.53s1.97-.75,2.43-1.52l.68.36c-.65,1.27-1.64,1.91-3.03,1.91-2.11,0-3.32-1.62-3.32-3.32s1.28-3.37,3.27-3.37c1.81,0,3.27,1.31,3.3,3.42h-5.73Zm4.83-.72c-.34-1.32-1.28-1.91-2.39-1.91s-1.99.61-2.36,1.91h4.75Z"/>
          <path class="cls-6" d="m126.98,75.52c-.62.95-1.7,1.44-2.99,1.44-2.1,0-3.5-1.51-3.5-3.29,0-1.87,1.46-3.41,3.56-3.41,1.22,0,2.34.5,2.93,1.49l-.66.41c-.56-.74-1.34-1.1-2.3-1.1-1.62,0-2.69,1.19-2.69,2.55s1.06,2.6,2.7,2.6c.92,0,1.69-.37,2.29-1.12l.66.42Z"/>
          <path class="cls-6" d="m134.1,70.44h.8v6.37h-.8v-1.09c-.7.84-1.57,1.25-2.57,1.25-1.86,0-3.26-1.55-3.26-3.36s1.44-3.33,3.29-3.33c1.03,0,1.91.44,2.54,1.33v-1.16Zm-4.99,3.19c0,1.38,1.08,2.59,2.51,2.59,1.31,0,2.54-.98,2.54-2.57,0-1.48-1.1-2.59-2.53-2.59s-2.52,1.2-2.52,2.57Z"/>
          <path class="cls-6" d="m137.29,71.36c.48-.7,1-1.09,1.64-1.09.37,0,.56.12.73.22l-.43.7c-.1-.05-.25-.12-.43-.12-.6,0-1.14.52-1.38,1.39-.11.41-.13,1.07-.13,1.93v2.42h-.86v-6.37h.86v.92Z"/>
          <path class="cls-6" d="m145.9,70.44h.8v6.37h-.8v-1.09c-.7.84-1.57,1.25-2.57,1.25-1.86,0-3.26-1.55-3.26-3.36s1.44-3.33,3.29-3.33c1.03,0,1.91.44,2.54,1.33v-1.16Zm-4.99,3.19c0,1.38,1.08,2.59,2.51,2.59,1.31,0,2.54-.98,2.54-2.57,0-1.48-1.1-2.59-2.53-2.59s-2.52,1.2-2.52,2.57Z"/>
          <path class="cls-6" d="m154.75,75.52c-.62.95-1.7,1.44-2.99,1.44-2.1,0-3.5-1.51-3.5-3.29,0-1.87,1.46-3.41,3.56-3.41,1.22,0,2.34.5,2.93,1.49l-.66.41c-.56-.74-1.34-1.1-2.3-1.1-1.62,0-2.69,1.19-2.69,2.55s1.06,2.6,2.7,2.6c.92,0,1.69-.37,2.29-1.12l.66.42Z"/>
          <path class="cls-6" d="m157.06,68.06h.82v2.38h1.31v.72h-1.31v5.65h-.82v-5.65h-1.13v-.72h1.13v-2.38Z"/>
          <path class="cls-6" d="m160.93,73.69c.04,1.46,1.03,2.53,2.4,2.53s1.97-.75,2.43-1.52l.68.36c-.65,1.27-1.64,1.91-3.03,1.91-2.11,0-3.32-1.62-3.32-3.32s1.28-3.37,3.27-3.37c1.81,0,3.27,1.31,3.3,3.42h-5.73Zm4.83-.72c-.34-1.32-1.28-1.91-2.39-1.91s-1.99.61-2.36,1.91h4.75Z"/>
          <path class="cls-6" d="m168.73,71.36c.48-.7,1-1.09,1.64-1.09.37,0,.56.12.73.22l-.43.7c-.1-.05-.25-.12-.43-.12-.6,0-1.14.52-1.38,1.39-.11.41-.13,1.07-.13,1.93v2.42h-.86v-6.37h.86v.92Z"/>
          <path class="cls-6" d="m172.77,68.48c0,.37-.31.68-.68.68s-.67-.31-.67-.68.31-.67.67-.67.68.3.68.67Zm-1.08,1.96h.82v6.37h-.82v-6.37Z"/>
          <path class="cls-6" d="m173.68,70.44h4.69l-3.61,5.65h3.49v.72h-4.91l3.61-5.65h-3.27v-.72Z"/>
          <path class="cls-6" d="m184.84,70.44h.8v6.37h-.8v-1.09c-.7.84-1.57,1.25-2.57,1.25-1.86,0-3.26-1.55-3.26-3.36s1.44-3.33,3.29-3.33c1.03,0,1.91.44,2.54,1.33v-1.16Zm-4.99,3.19c0,1.38,1.08,2.59,2.51,2.59,1.31,0,2.54-.98,2.54-2.57,0-1.48-1.1-2.59-2.53-2.59s-2.52,1.2-2.52,2.57Z"/>
          <path class="cls-6" d="m188.31,71.57c.66-.86,1.45-1.31,2.39-1.31,1.39,0,2.36.96,2.36,2.96v3.57h-.82v-3.47c0-1.5-.47-2.33-1.7-2.33-.68,0-1.25.3-1.68.86-.48.62-.55,1.25-.55,2.25v2.67h-.82v-6.37h.82v1.14Z"/>
          <path class="cls-6" d="m198.72,71.6c.64-.89,1.51-1.33,2.53-1.33,1.86,0,3.3,1.52,3.3,3.33s-1.4,3.36-3.27,3.36c-1,0-1.86-.41-2.55-1.25v3.42h-.82v-8.7h.82v1.16Zm-.06,2.05c0,1.58,1.22,2.57,2.53,2.57,1.42,0,2.52-1.2,2.52-2.59s-1.06-2.57-2.52-2.57-2.53,1.12-2.53,2.59Z"/>
          <path class="cls-6" d="m212.42,73.64c0,1.81-1.4,3.33-3.32,3.33s-3.32-1.52-3.32-3.33,1.42-3.37,3.32-3.37,3.32,1.55,3.32,3.37Zm-5.8.01c0,1.39,1.04,2.53,2.48,2.53s2.48-1.14,2.48-2.53-1.13-2.59-2.48-2.59-2.48,1.18-2.48,2.59Z"/>
          <path class="cls-6" d="m214.47,71.36c.48-.7,1-1.09,1.64-1.09.37,0,.56.12.73.22l-.43.7c-.1-.05-.25-.12-.43-.12-.6,0-1.14.52-1.38,1.39-.11.41-.13,1.07-.13,1.93v2.42h-.86v-6.37h.86v.92Z"/>
          <path class="cls-6" d="m33.37,82.94h.86v3.3c0,2.15-.97,3.23-2.79,3.23s-2.81-1.08-2.81-3.23v-3.3h.86v3.11c0,.67,0,1.22.18,1.61.3.65.96,1.02,1.76,1.02.59,0,1.1-.22,1.44-.56.5-.54.49-1.15.49-2.06v-3.11Z"/>
          <path class="cls-6" d="m36.85,84.07c.66-.86,1.45-1.31,2.39-1.31,1.39,0,2.36.96,2.36,2.96v3.57h-.82v-3.47c0-1.5-.47-2.33-1.7-2.33-.68,0-1.25.3-1.68.86-.48.62-.55,1.25-.55,2.25v2.67h-.82v-6.37h.82v1.14Z"/>
          <path class="cls-6" d="m48.89,82.94h.8v6.37h-.8v-1.09c-.7.84-1.57,1.25-2.57,1.25-1.86,0-3.26-1.55-3.26-3.36s1.44-3.33,3.29-3.33c1.03,0,1.91.44,2.54,1.33v-1.16Zm-4.99,3.19c0,1.38,1.08,2.59,2.51,2.59,1.31,0,2.54-.98,2.54-2.57,0-1.48-1.1-2.59-2.53-2.59s-2.52,1.2-2.52,2.57Z"/>
          <path class="cls-6" d="m58.26,87.97c.41.46.85.71,1.33.71.62,0,1.17-.46,1.17-1.05,0-.37-.22-.72-.53-.89-1.46-.82-2.21-1.16-2.21-2.28,0-1.01.78-1.69,1.75-1.69.7,0,1.22.34,1.76.86l-.53.54c-.38-.37-.77-.61-1.28-.61s-.96.37-.96.85c0,.32.2.68.49.85,1.46.85,2.28,1.18,2.28,2.33,0,1-.77,1.88-1.92,1.88-.71,0-1.43-.32-1.88-.91l.52-.59Z"/>
          <path class="cls-6" d="m63.97,80.98c0,.37-.31.68-.68.68s-.67-.31-.67-.68.31-.67.67-.67.68.3.68.67Zm-1.08,1.96h.82v6.37h-.82v-6.37Z"/>
          <path class="cls-6" d="m71.72,88.01c0,1.04-.06,1.91-.58,2.61-.54.73-1.49,1.16-2.7,1.16-1.83,0-2.72-.74-3.29-1.98h.89c.48.84,1.22,1.24,2.35,1.24,1.05,0,1.83-.38,2.22-1.08.24-.44.28-.9.28-1.39v-.48c-.64.8-1.56,1.21-2.55,1.21-1.76,0-3.26-1.34-3.26-3.23s1.57-3.31,3.26-3.31c1.13,0,1.88.48,2.55,1.27v-1.1h.83v5.07Zm-5.81-1.88c0,1.27.9,2.39,2.58,2.39,1.39,0,2.43-.96,2.43-2.45s-1.14-2.51-2.46-2.51c-1.43,0-2.55,1.09-2.55,2.57Z"/>
          <path class="cls-6" d="m74.29,84.07c.66-.86,1.45-1.31,2.39-1.31,1.39,0,2.36.96,2.36,2.96v3.57h-.82v-3.47c0-1.5-.47-2.33-1.7-2.33-.68,0-1.25.3-1.68.86-.48.62-.55,1.25-.55,2.25v2.67h-.82v-6.37h.82v1.14Z"/>
          <path class="cls-6" d="m81.76,80.98c0,.37-.31.68-.68.68s-.67-.31-.67-.68.31-.67.67-.67.68.3.68.67Zm-1.08,1.96h.82v6.37h-.82v-6.37Z"/>
          <path class="cls-6" d="m83.59,82.52c0-1.49.73-2.22,1.92-2.22,1.05,0,1.74.68,1.8,1.61h-.83c-.11-.53-.42-.82-.98-.82-.8,0-1.04.54-1.04,1.43v.42h1.31v.72h-1.31v5.65h-.86v-5.65h-.82v-.72h.82v-.42Zm2.9.42h.82v6.37h-.82v-6.37Z"/>
          <path class="cls-6" d="m95.22,88.02c-.62.95-1.7,1.44-2.99,1.44-2.1,0-3.5-1.51-3.5-3.29,0-1.87,1.46-3.41,3.56-3.41,1.22,0,2.34.5,2.93,1.49l-.66.41c-.56-.74-1.34-1.1-2.3-1.1-1.62,0-2.69,1.19-2.69,2.55s1.06,2.6,2.7,2.6c.92,0,1.69-.37,2.29-1.12l.66.42Z"/>
          <path class="cls-6" d="m102.34,82.94h.8v6.37h-.8v-1.09c-.7.84-1.57,1.25-2.57,1.25-1.86,0-3.26-1.55-3.26-3.36s1.44-3.33,3.29-3.33c1.03,0,1.91.44,2.54,1.33v-1.16Zm-4.99,3.19c0,1.38,1.08,2.59,2.51,2.59,1.31,0,2.54-.98,2.54-2.57,0-1.48-1.1-2.59-2.53-2.59s-2.52,1.2-2.52,2.57Z"/>
          <path class="cls-6" d="m105.73,80.56h.82v2.38h1.31v.72h-1.31v5.65h-.82v-5.65h-1.13v-.72h1.13v-2.38Z"/>
          <path class="cls-6" d="m110.04,80.98c0,.37-.31.68-.68.68s-.67-.31-.67-.68.31-.67.67-.67.68.3.68.67Zm-1.08,1.96h.82v6.37h-.82v-6.37Z"/>
          <path class="cls-6" d="m110.86,82.94h.88l2.13,4.63,2.11-4.63h.88l-2.91,6.37h-.14l-2.94-6.37Z"/>
          <path class="cls-6" d="m123.65,82.94h.8v6.37h-.8v-1.09c-.7.84-1.57,1.25-2.57,1.25-1.86,0-3.26-1.55-3.26-3.36s1.44-3.33,3.29-3.33c1.03,0,1.91.44,2.54,1.33v-1.16Zm-4.99,3.19c0,1.38,1.08,2.59,2.51,2.59,1.31,0,2.54-.98,2.54-2.57,0-1.48-1.1-2.59-2.53-2.59s-2.52,1.2-2.52,2.57Z"/>
          <path class="cls-6" d="m133.93,84.1c.64-.89,1.51-1.33,2.53-1.33,1.86,0,3.3,1.52,3.3,3.33s-1.4,3.36-3.27,3.36c-1,0-1.86-.41-2.55-1.25v3.42h-.82v-8.7h.82v1.16Zm-.06,2.05c0,1.58,1.22,2.57,2.53,2.57,1.42,0,2.52-1.2,2.52-2.59s-1.06-2.57-2.52-2.57-2.53,1.12-2.53,2.59Z"/>
          <path class="cls-6" d="m147.63,86.14c0,1.81-1.4,3.33-3.32,3.33s-3.32-1.52-3.32-3.33,1.42-3.37,3.32-3.37,3.32,1.55,3.32,3.37Zm-5.8.01c0,1.39,1.04,2.53,2.48,2.53s2.48-1.14,2.48-2.53-1.13-2.59-2.48-2.59-2.48,1.18-2.48,2.59Z"/>
          <path class="cls-6" d="m149.87,80.56h.82v2.38h1.31v.72h-1.31v5.65h-.82v-5.65h-1.13v-.72h1.13v-2.38Z"/>
          <path class="cls-6" d="m153.75,86.19c.04,1.46,1.03,2.53,2.4,2.53s1.97-.75,2.43-1.52l.68.36c-.65,1.27-1.64,1.91-3.03,1.91-2.11,0-3.32-1.62-3.32-3.32s1.28-3.37,3.27-3.37c1.81,0,3.27,1.31,3.3,3.42h-5.73Zm4.83-.72c-.34-1.32-1.28-1.91-2.39-1.91s-1.99.61-2.36,1.91h4.75Z"/>
          <path class="cls-6" d="m161.82,84.07c.66-.86,1.45-1.31,2.39-1.31,1.39,0,2.36.96,2.36,2.96v3.57h-.82v-3.47c0-1.5-.47-2.33-1.7-2.33-.68,0-1.25.3-1.68.86-.48.62-.55,1.25-.55,2.25v2.67h-.82v-6.37h.82v1.14Z"/>
          <path class="cls-6" d="m174.52,88.02c-.62.95-1.7,1.44-2.99,1.44-2.1,0-3.5-1.51-3.5-3.29,0-1.87,1.46-3.41,3.56-3.41,1.22,0,2.34.5,2.93,1.49l-.66.41c-.56-.74-1.34-1.1-2.3-1.1-1.62,0-2.69,1.19-2.69,2.55s1.06,2.6,2.7,2.6c.92,0,1.69-.37,2.29-1.12l.66.42Z"/>
          <path class="cls-6" d="m177.06,80.98c0,.37-.31.68-.68.68s-.67-.31-.67-.68.31-.67.67-.67.68.3.68.67Zm-1.08,1.96h.82v6.37h-.82v-6.37Z"/>
          <path class="cls-6" d="m184.03,82.94h.8v6.37h-.8v-1.09c-.7.84-1.57,1.25-2.57,1.25-1.86,0-3.26-1.55-3.26-3.36s1.44-3.33,3.29-3.33c1.03,0,1.91.44,2.54,1.33v-1.16Zm-4.99,3.19c0,1.38,1.08,2.59,2.51,2.59,1.31,0,2.54-.98,2.54-2.57,0-1.48-1.1-2.59-2.53-2.59s-2.52,1.2-2.52,2.57Z"/>
          <path class="cls-6" d="m186.57,80.48h.82v8.83h-.82v-8.83Z"/>
          <path class="cls-6" d="m190.06,80.98c0,.37-.31.68-.68.68s-.67-.31-.67-.68.31-.67.67-.67.68.3.68.67Zm-1.08,1.96h.82v6.37h-.82v-6.37Z"/>
          <path class="cls-6" d="m197.04,88.21c-.7.84-1.57,1.25-2.57,1.25-1.86,0-3.26-1.55-3.26-3.36s1.44-3.33,3.29-3.33c1.03,0,1.91.44,2.54,1.33v-3.62h.82v8.83h-.82v-1.09Zm-4.99-2.09c0,1.38,1.08,2.59,2.51,2.59,1.31,0,2.53-.98,2.53-2.57,0-1.48-1.09-2.59-2.52-2.59s-2.52,1.2-2.52,2.57Z"/>
          <path class="cls-6" d="m205.25,82.94h.8v6.37h-.8v-1.09c-.7.84-1.57,1.25-2.57,1.25-1.86,0-3.26-1.55-3.26-3.36s1.44-3.33,3.29-3.33c1.03,0,1.91.44,2.54,1.33v-1.16Zm-4.99,3.19c0,1.38,1.08,2.59,2.51,2.59,1.31,0,2.54-.98,2.54-2.57,0-1.48-1.1-2.59-2.53-2.59s-2.52,1.2-2.52,2.57Z"/>
          <path class="cls-6" d="m213.46,88.21c-.7.84-1.57,1.25-2.57,1.25-1.86,0-3.26-1.55-3.26-3.36s1.44-3.33,3.29-3.33c1.03,0,1.91.44,2.54,1.33v-3.62h.82v8.83h-.82v-1.09Zm-4.99-2.09c0,1.38,1.08,2.59,2.51,2.59,1.31,0,2.53-.98,2.53-2.57,0-1.48-1.09-2.59-2.52-2.59s-2.52,1.2-2.52,2.57Z"/>
          <path class="cls-6" d="m29.28,98.69c.04,1.46,1.03,2.53,2.4,2.53s1.97-.75,2.43-1.52l.68.36c-.65,1.27-1.64,1.91-3.03,1.91-2.11,0-3.32-1.62-3.32-3.32s1.28-3.37,3.27-3.37c1.81,0,3.27,1.31,3.3,3.42h-5.73Zm4.83-.72c-.33-1.32-1.28-1.91-2.39-1.91s-1.99.61-2.36,1.91h4.75Z"/>
          <path class="cls-6" d="m37.35,96.57c.66-.86,1.45-1.31,2.39-1.31,1.39,0,2.36.96,2.36,2.96v3.57h-.82v-3.47c0-1.5-.47-2.33-1.7-2.33-.68,0-1.25.3-1.68.86-.48.62-.55,1.25-.55,2.25v2.67h-.82v-6.37h.82v1.14Z"/>
          <path class="cls-6" d="m59.33,100.52c-.62.95-1.7,1.44-2.99,1.44-2.1,0-3.5-1.51-3.5-3.29,0-1.87,1.46-3.41,3.56-3.41,1.22,0,2.34.5,2.93,1.49l-.66.41c-.56-.74-1.34-1.1-2.3-1.1-1.62,0-2.69,1.19-2.69,2.55s1.06,2.6,2.7,2.6c.92,0,1.69-.37,2.29-1.12l.66.42Z"/>
          <path class="cls-6" d="m65.54,95.44h.86v3.3c0,2.15-.97,3.23-2.79,3.23s-2.81-1.08-2.81-3.23v-3.3h.86v3.11c0,.67,0,1.22.18,1.61.3.65.96,1.02,1.76,1.02.59,0,1.1-.22,1.44-.56.5-.54.49-1.15.49-2.06v-3.11Z"/>
          <path class="cls-6" d="m73.74,95.44h.8v6.37h-.8v-1.09c-.7.84-1.57,1.25-2.57,1.25-1.86,0-3.26-1.55-3.26-3.36s1.44-3.33,3.29-3.33c1.03,0,1.91.44,2.54,1.33v-1.16Zm-4.99,3.19c0,1.38,1.08,2.59,2.51,2.59,1.31,0,2.54-.98,2.54-2.57,0-1.48-1.1-2.59-2.53-2.59s-2.52,1.2-2.52,2.57Z"/>
          <path class="cls-6" d="m77.22,96.57c.66-.86,1.45-1.31,2.39-1.31,1.39,0,2.36.96,2.36,2.96v3.57h-.82v-3.47c0-1.5-.47-2.33-1.7-2.33-.68,0-1.25.3-1.68.86-.48.62-.55,1.25-.55,2.25v2.67h-.82v-6.37h.82v1.14Z"/>
          <path class="cls-6" d="m84.45,93.06h.82v2.38h1.31v.72h-1.31v5.65h-.82v-5.65h-1.13v-.72h1.13v-2.38Z"/>
          <path class="cls-6" d="m94.13,98.64c0,1.81-1.4,3.33-3.32,3.33s-3.32-1.52-3.32-3.33,1.42-3.37,3.32-3.37,3.32,1.55,3.32,3.37Zm-5.8.01c0,1.39,1.04,2.53,2.48,2.53s2.48-1.14,2.48-2.53-1.13-2.59-2.48-2.59-2.48,1.18-2.48,2.59Z"/>
          <path class="cls-6" d="m110.48,95.44h.8v6.37h-.8v-1.09c-.7.84-1.57,1.25-2.57,1.25-1.86,0-3.26-1.55-3.26-3.36s1.44-3.33,3.29-3.33c1.03,0,1.91.44,2.54,1.33v-1.16Zm-4.99,3.19c0,1.38,1.08,2.59,2.51,2.59,1.31,0,2.54-.98,2.54-2.57,0-1.48-1.1-2.59-2.53-2.59s-2.52,1.2-2.52,2.57Z"/>
          <path class="cls-6" d="m128.74,100.51c0,1.04-.06,1.91-.58,2.61-.54.73-1.49,1.16-2.7,1.16-1.83,0-2.72-.74-3.29-1.98h.89c.48.84,1.22,1.24,2.35,1.24,1.05,0,1.83-.38,2.22-1.08.24-.44.28-.9.28-1.39v-.48c-.64.8-1.56,1.21-2.55,1.21-1.76,0-3.26-1.34-3.26-3.23s1.57-3.31,3.26-3.31c1.13,0,1.88.48,2.55,1.27v-1.1h.83v5.07Zm-5.81-1.88c0,1.27.9,2.39,2.58,2.39,1.39,0,2.43-.96,2.43-2.45s-1.14-2.51-2.46-2.51c-1.43,0-2.55,1.09-2.55,2.57Z"/>
          <path class="cls-6" d="m131.04,98.69c.04,1.46,1.03,2.53,2.4,2.53s1.97-.75,2.43-1.52l.68.36c-.65,1.27-1.64,1.91-3.03,1.91-2.11,0-3.32-1.62-3.32-3.32s1.28-3.37,3.27-3.37c1.81,0,3.27,1.31,3.3,3.42h-5.73Zm4.83-.72c-.33-1.32-1.28-1.91-2.39-1.91s-1.99.61-2.36,1.91h4.75Z"/>
          <path class="cls-6" d="m139.11,96.57c.66-.86,1.45-1.31,2.39-1.31,1.39,0,2.36.96,2.36,2.96v3.57h-.82v-3.47c0-1.5-.47-2.33-1.7-2.33-.68,0-1.25.3-1.68.86-.48.62-.55,1.25-.55,2.25v2.67h-.82v-6.37h.82v1.14Z"/>
          <path class="cls-6" d="m146.15,98.69c.04,1.46,1.03,2.53,2.4,2.53s1.97-.75,2.43-1.52l.68.36c-.65,1.27-1.64,1.91-3.03,1.91-2.11,0-3.32-1.62-3.32-3.32s1.28-3.37,3.27-3.37c1.81,0,3.27,1.31,3.3,3.42h-5.73Zm4.83-.72c-.33-1.32-1.28-1.91-2.39-1.91s-1.99.61-2.36,1.91h4.75Z"/>
          <path class="cls-6" d="m153.95,96.36c.48-.7,1-1.09,1.64-1.09.37,0,.56.12.73.22l-.43.7c-.1-.05-.25-.12-.43-.12-.6,0-1.14.52-1.38,1.39-.11.41-.13,1.07-.13,1.93v2.42h-.86v-6.37h.86v.92Z"/>
          <path class="cls-6" d="m162.57,95.44h.8v6.37h-.8v-1.09c-.7.84-1.57,1.25-2.57,1.25-1.86,0-3.26-1.55-3.26-3.36s1.44-3.33,3.29-3.33c1.03,0,1.91.44,2.54,1.33v-1.16Zm-4.99,3.19c0,1.38,1.08,2.59,2.51,2.59,1.31,0,2.54-.98,2.54-2.57,0-1.48-1.1-2.59-2.53-2.59s-2.52,1.2-2.52,2.57Z"/>
          <path class="cls-6" d="m171.41,100.52c-.62.95-1.7,1.44-2.99,1.44-2.1,0-3.5-1.51-3.5-3.29,0-1.87,1.46-3.41,3.56-3.41,1.22,0,2.34.5,2.93,1.49l-.66.41c-.56-.74-1.34-1.1-2.3-1.1-1.62,0-2.69,1.19-2.69,2.55s1.06,2.6,2.7,2.6c.92,0,1.69-.37,2.29-1.12l.66.42Z"/>
          <path class="cls-6" d="m173.96,93.48c0,.37-.31.68-.68.68s-.67-.31-.67-.68.31-.67.67-.67.68.3.68.67Zm-1.08,1.96h.82v6.37h-.82v-6.37Z"/>
          <path class="cls-6" d="m181.73,98.64c0,1.81-1.4,3.33-3.32,3.33s-3.32-1.52-3.32-3.33,1.42-3.37,3.32-3.37,3.32,1.55,3.32,3.37Zm-5.8.01c0,1.39,1.04,2.53,2.48,2.53s2.48-1.14,2.48-2.53-1.13-2.59-2.48-2.59-2.48,1.18-2.48,2.59Zm2.88-6.21h1.26l-1.74,1.81h-.8l1.28-1.81Z"/>
          <path class="cls-6" d="m184.06,96.57c.66-.86,1.45-1.31,2.39-1.31,1.39,0,2.36.96,2.36,2.96v3.57h-.82v-3.47c0-1.5-.47-2.33-1.7-2.33-.68,0-1.25.3-1.68.86-.48.62-.55,1.25-.55,2.25v2.67h-.82v-6.37h.82v1.14Z"/>
          <path class="cls-6" d="m205.41,100.71c-.7.84-1.57,1.25-2.57,1.25-1.86,0-3.26-1.55-3.26-3.36s1.44-3.33,3.29-3.33c1.03,0,1.91.44,2.54,1.33v-3.62h.82v8.83h-.82v-1.09Zm-4.99-2.09c0,1.38,1.08,2.59,2.51,2.59,1.31,0,2.53-.98,2.53-2.57,0-1.48-1.09-2.59-2.52-2.59s-2.52,1.2-2.52,2.57Z"/>
          <path class="cls-6" d="m208.61,98.69c.04,1.46,1.03,2.53,2.4,2.53s1.97-.75,2.43-1.52l.68.36c-.65,1.27-1.64,1.91-3.03,1.91-2.11,0-3.32-1.62-3.32-3.32s1.28-3.37,3.27-3.37c1.81,0,3.27,1.31,3.3,3.42h-5.73Zm4.83-.72c-.34-1.32-1.28-1.91-2.39-1.91s-1.99.61-2.36,1.91h4.75Z"/>
          <path class="cls-6" d="m29.28,111.19c.04,1.46,1.03,2.53,2.4,2.53s1.97-.75,2.43-1.52l.68.36c-.65,1.27-1.64,1.91-3.03,1.91-2.11,0-3.32-1.62-3.32-3.32s1.28-3.37,3.27-3.37c1.81,0,3.27,1.31,3.3,3.42h-5.73Zm4.83-.72c-.33-1.32-1.28-1.91-2.39-1.91s-1.99.61-2.36,1.91h4.75Z"/>
          <path class="cls-6" d="m41.68,114.3h-.82v-3.26c0-.49-.05-.9-.06-1.19-.04-.7-.6-1.3-1.44-1.3-.56,0-1.13.28-1.49.74-.46.59-.54,1.34-.54,2.3v2.7h-.82v-6.37h.82v1.09c.56-.82,1.27-1.26,2.18-1.26.97,0,1.67.5,2.02,1.54.56-1.02,1.4-1.54,2.34-1.54,1.32,0,2.17.95,2.17,2.76v3.78h-.82v-3.48c0-.47-.06-.84-.07-1.08-.04-.56-.58-1.19-1.44-1.19-.79,0-1.49.48-1.81,1.3-.2.52-.23,1.08-.23,1.67v2.78Z"/>
          <path class="cls-6" d="m48.62,109.1c.64-.89,1.51-1.33,2.53-1.33,1.86,0,3.3,1.52,3.3,3.33s-1.4,3.36-3.27,3.36c-1,0-1.86-.41-2.55-1.25v3.42h-.82v-8.7h.82v1.16Zm-.06,2.05c0,1.58,1.22,2.57,2.53,2.57,1.42,0,2.52-1.2,2.52-2.59s-1.06-2.57-2.52-2.57-2.53,1.12-2.53,2.59Z"/>
          <path class="cls-6" d="m55.86,105.48h.82v8.83h-.82v-8.83Z"/>
          <path class="cls-6" d="m58.92,111.19c.04,1.46,1.03,2.53,2.4,2.53s1.97-.75,2.43-1.52l.68.36c-.65,1.27-1.64,1.91-3.03,1.91-2.11,0-3.32-1.62-3.32-3.32s1.28-3.37,3.27-3.37c1.81,0,3.27,1.31,3.3,3.42h-5.73Zm4.83-.72c-.34-1.32-1.28-1.91-2.39-1.91s-1.99.61-2.36,1.91h4.75Z"/>
          <path class="cls-6" d="m72.52,111.14c0,1.81-1.4,3.33-3.32,3.33s-3.32-1.52-3.32-3.33,1.42-3.37,3.32-3.37,3.32,1.55,3.32,3.37Zm-5.8.01c0,1.39,1.04,2.53,2.48,2.53s2.48-1.14,2.48-2.53-1.13-2.59-2.48-2.59-2.48,1.18-2.48,2.59Z"/>
          <path class="cls-6" d="m78.48,107.94h.86l2.19,4.91,2.12-4.91h.88l-3.8,8.7h-.86l1.22-2.81-2.62-5.89Z"/>
          <path class="cls-6" d="m96.26,107.94h.8v6.37h-.8v-1.09c-.7.84-1.57,1.25-2.57,1.25-1.86,0-3.26-1.55-3.26-3.36s1.44-3.33,3.29-3.33c1.03,0,1.91.44,2.54,1.33v-1.16Zm-4.99,3.19c0,1.38,1.08,2.59,2.51,2.59,1.31,0,2.54-.98,2.54-2.57,0-1.48-1.1-2.59-2.53-2.59s-2.52,1.2-2.52,2.57Z"/>
          <path class="cls-6" d="m99.74,109.1c.64-.89,1.51-1.33,2.53-1.33,1.86,0,3.3,1.52,3.3,3.33s-1.4,3.36-3.27,3.36c-1,0-1.86-.41-2.55-1.25v3.42h-.82v-8.7h.82v1.16Zm-.06,2.05c0,1.58,1.22,2.57,2.53,2.57,1.42,0,2.52-1.2,2.52-2.59s-1.06-2.57-2.52-2.57-2.53,1.12-2.53,2.59Z"/>
          <path class="cls-6" d="m113.44,111.14c0,1.81-1.4,3.33-3.32,3.33s-3.32-1.52-3.32-3.33,1.42-3.37,3.32-3.37,3.32,1.55,3.32,3.37Zm-5.8.01c0,1.39,1.04,2.53,2.48,2.53s2.48-1.14,2.48-2.53-1.13-2.59-2.48-2.59-2.48,1.18-2.48,2.59Z"/>
          <path class="cls-6" d="m114.27,107.94h.86l2.19,4.91,2.12-4.91h.88l-3.8,8.7h-.86l1.22-2.81-2.62-5.89Z"/>
          <path class="cls-6" d="m127.73,111.14c0,1.81-1.4,3.33-3.32,3.33s-3.32-1.52-3.32-3.33,1.42-3.37,3.32-3.37,3.32,1.55,3.32,3.37Zm-5.8.01c0,1.39,1.04,2.53,2.48,2.53s2.48-1.14,2.48-2.53-1.13-2.59-2.48-2.59-2.48,1.18-2.48,2.59Z"/>
          <path class="cls-6" d="m139.91,107.94h.8v6.37h-.8v-1.09c-.7.84-1.57,1.25-2.57,1.25-1.86,0-3.26-1.55-3.26-3.36s1.44-3.33,3.29-3.33c1.03,0,1.91.44,2.54,1.33v-1.16Zm-4.99,3.19c0,1.38,1.08,2.59,2.51,2.59,1.31,0,2.54-.98,2.54-2.57,0-1.48-1.1-2.59-2.53-2.59s-2.52,1.2-2.52,2.57Z"/>
          <path class="cls-6" d="m147.57,105.48h.82v8.83h-.82v-8.83Z"/>
          <path class="cls-6" d="m155.63,107.94h.8v6.37h-.8v-1.09c-.7.84-1.57,1.25-2.57,1.25-1.86,0-3.26-1.55-3.26-3.36s1.44-3.33,3.29-3.33c1.03,0,1.91.44,2.54,1.33v-1.16Zm-4.99,3.19c0,1.38,1.08,2.59,2.51,2.59,1.31,0,2.54-.98,2.54-2.57,0-1.48-1.1-2.59-2.53-2.59s-2.52,1.2-2.52,2.57Z"/>
          <path class="cls-6" d="m169.6,113.02c-.62.95-1.7,1.44-2.99,1.44-2.1,0-3.5-1.51-3.5-3.29,0-1.87,1.46-3.41,3.56-3.41,1.22,0,2.34.5,2.93,1.49l-.66.41c-.56-.74-1.34-1.1-2.3-1.1-1.62,0-2.69,1.19-2.69,2.55s1.06,2.6,2.7,2.6c.92,0,1.69-.37,2.29-1.12l.66.42Z"/>
          <path class="cls-6" d="m171.71,108.86c.48-.7,1-1.09,1.64-1.09.37,0,.56.12.73.22l-.43.7c-.1-.05-.25-.12-.43-.12-.6,0-1.14.52-1.38,1.39-.11.41-.13,1.07-.13,1.93v2.42h-.86v-6.37h.86v.92Z"/>
          <path class="cls-6" d="m175.28,111.19c.04,1.46,1.03,2.53,2.4,2.53s1.97-.75,2.43-1.52l.68.36c-.65,1.27-1.64,1.91-3.03,1.91-2.11,0-3.32-1.62-3.32-3.32s1.28-3.37,3.27-3.37c1.81,0,3.27,1.31,3.3,3.42h-5.73Zm4.83-.72c-.34-1.32-1.28-1.91-2.39-1.91s-1.99.61-2.36,1.91h4.75Z"/>
          <path class="cls-6" d="m188.08,107.94h.8v6.37h-.8v-1.09c-.7.84-1.57,1.25-2.57,1.25-1.86,0-3.26-1.55-3.26-3.36s1.44-3.33,3.29-3.33c1.03,0,1.91.44,2.54,1.33v-1.16Zm-4.99,3.19c0,1.38,1.08,2.59,2.51,2.59,1.31,0,2.54-.98,2.54-2.57,0-1.48-1.1-2.59-2.53-2.59s-2.52,1.2-2.52,2.57Z"/>
          <path class="cls-6" d="m196.92,113.02c-.62.95-1.7,1.44-2.99,1.44-2.1,0-3.5-1.51-3.5-3.29,0-1.87,1.46-3.41,3.56-3.41,1.22,0,2.34.5,2.93,1.49l-.66.41c-.56-.74-1.34-1.1-2.3-1.1-1.62,0-2.69,1.19-2.69,2.55s1.06,2.6,2.7,2.6c.92,0,1.69-.37,2.29-1.12l.66.42Z"/>
          <path class="cls-6" d="m199.47,105.98c0,.37-.31.68-.68.68s-.67-.31-.67-.68.31-.67.67-.67.68.3.68.67Zm-1.08,1.96h.82v6.37h-.82v-6.37Z"/>
          <path class="cls-6" d="m207.24,111.14c0,1.81-1.4,3.33-3.32,3.33s-3.32-1.52-3.32-3.33,1.42-3.37,3.32-3.37,3.32,1.55,3.32,3.37Zm-5.8.01c0,1.39,1.04,2.53,2.48,2.53s2.48-1.14,2.48-2.53-1.13-2.59-2.48-2.59-2.48,1.18-2.48,2.59Zm2.88-6.21h1.26l-1.74,1.81h-.8l1.28-1.81Z"/>
          <path class="cls-6" d="m209.57,109.07c.66-.86,1.45-1.31,2.39-1.31,1.39,0,2.36.96,2.36,2.96v3.57h-.82v-3.47c0-1.5-.47-2.33-1.7-2.33-.68,0-1.25.3-1.68.86-.48.62-.55,1.25-.55,2.25v2.67h-.82v-6.37h.82v1.14Z"/>
          <path class="cls-6" d="m34.29,125.71c-.7.84-1.57,1.25-2.57,1.25-1.86,0-3.26-1.55-3.26-3.36s1.44-3.33,3.29-3.33c1.03,0,1.91.44,2.54,1.33v-3.62h.82v8.83h-.82v-1.09Zm-4.99-2.09c0,1.38,1.08,2.59,2.51,2.59,1.31,0,2.53-.98,2.53-2.57,0-1.48-1.09-2.59-2.52-2.59s-2.52,1.2-2.52,2.57Z"/>
          <path class="cls-6" d="m37.5,123.69c.04,1.46,1.03,2.53,2.4,2.53s1.97-.75,2.43-1.52l.68.36c-.65,1.27-1.64,1.91-3.03,1.91-2.11,0-3.32-1.62-3.32-3.32s1.28-3.37,3.27-3.37c1.81,0,3.27,1.31,3.3,3.42h-5.73Zm4.83-.72c-.34-1.32-1.28-1.91-2.39-1.91s-1.99.61-2.36,1.91h4.75Z"/>
          <path class="cls-6" d="m73.8,121.57c.66-.86,1.45-1.31,2.39-1.31,1.39,0,2.36.96,2.36,2.96v3.57h-.82v-3.47c0-1.5-.47-2.33-1.7-2.33-.68,0-1.25.3-1.68.86-.48.62-.55,1.25-.55,2.25v2.67h-.82v-6.37h.82v1.14Z"/>
          <path class="cls-6" d="m80.84,123.69c.04,1.46,1.03,2.53,2.4,2.53s1.97-.75,2.43-1.52l.68.36c-.65,1.27-1.64,1.91-3.03,1.91-2.11,0-3.32-1.62-3.32-3.32s1.28-3.37,3.27-3.37c1.81,0,3.27,1.31,3.3,3.42h-5.73Zm4.83-.72c-.33-1.32-1.28-1.91-2.39-1.91s-1.99.61-2.36,1.91h4.75Z"/>
          <path class="cls-6" d="m94.42,125.51c0,1.04-.06,1.91-.58,2.61-.54.73-1.49,1.16-2.7,1.16-1.83,0-2.72-.74-3.29-1.98h.89c.48.84,1.22,1.24,2.35,1.24,1.05,0,1.83-.38,2.22-1.08.24-.44.28-.9.28-1.39v-.48c-.64.8-1.56,1.21-2.55,1.21-1.76,0-3.26-1.34-3.26-3.23s1.57-3.31,3.26-3.31c1.13,0,1.88.48,2.55,1.27v-1.1h.83v5.07Zm-5.81-1.88c0,1.27.9,2.39,2.58,2.39,1.39,0,2.43-.96,2.43-2.45s-1.14-2.51-2.46-2.51c-1.43,0-2.55,1.09-2.55,2.57Z"/>
          <path class="cls-6" d="m102.52,123.64c0,1.81-1.4,3.33-3.32,3.33s-3.32-1.52-3.32-3.33,1.42-3.37,3.32-3.37,3.32,1.55,3.32,3.37Zm-5.8.01c0,1.39,1.04,2.53,2.48,2.53s2.48-1.14,2.48-2.53-1.13-2.59-2.48-2.59-2.48,1.18-2.48,2.59Z"/>
          <path class="cls-6" d="m110.23,125.52c-.62.95-1.7,1.44-2.99,1.44-2.1,0-3.5-1.51-3.5-3.29,0-1.87,1.46-3.41,3.56-3.41,1.22,0,2.34.5,2.93,1.49l-.66.41c-.56-.74-1.34-1.1-2.3-1.1-1.62,0-2.69,1.19-2.69,2.55s1.06,2.6,2.7,2.6c.92,0,1.69-.37,2.29-1.12l.66.42Z"/>
          <path class="cls-6" d="m112.77,118.48c0,.37-.31.68-.68.68s-.67-.31-.67-.68.31-.67.67-.67.68.3.68.67Zm-1.08,1.96h.82v6.37h-.82v-6.37Z"/>
          <path class="cls-6" d="m120.55,123.64c0,1.81-1.4,3.33-3.32,3.33s-3.32-1.52-3.32-3.33,1.42-3.37,3.32-3.37,3.32,1.55,3.32,3.37Zm-5.8.01c0,1.39,1.04,2.53,2.48,2.53s2.48-1.14,2.48-2.53-1.13-2.59-2.48-2.59-2.48,1.18-2.48,2.59Z"/>
          <path class="cls-6" d="m121.98,125.47c.41.46.85.71,1.33.71.62,0,1.17-.46,1.17-1.05,0-.37-.22-.72-.53-.89-1.46-.82-2.21-1.16-2.21-2.28,0-1.01.78-1.69,1.75-1.69.7,0,1.22.34,1.76.86l-.53.54c-.38-.37-.77-.61-1.28-.61s-.96.37-.96.85c0,.32.2.68.49.85,1.46.85,2.28,1.18,2.28,2.33,0,1-.77,1.88-1.92,1.88-.71,0-1.43-.32-1.88-.91l.52-.59Z"/>
          <path class="cls-6" d="m127.55,125.22l.78.37-1.19,2.22-.58-.24.98-2.35Z"/>
          <path class="cls-6" d="m158.81,123.69c.04,1.46,1.03,2.53,2.4,2.53s1.97-.75,2.43-1.52l.68.36c-.65,1.27-1.64,1.91-3.03,1.91-2.11,0-3.32-1.62-3.32-3.32s1.28-3.37,3.27-3.37c1.81,0,3.27,1.31,3.3,3.42h-5.73Zm4.83-.72c-.34-1.32-1.28-1.91-2.39-1.91s-1.99.61-2.36,1.91h4.75Z"/>
          <path class="cls-6" d="m171.21,126.8h-.82v-3.26c0-.49-.05-.9-.06-1.19-.04-.7-.6-1.3-1.44-1.3-.56,0-1.13.28-1.49.74-.46.59-.54,1.34-.54,2.3v2.7h-.82v-6.37h.82v1.09c.56-.82,1.27-1.26,2.18-1.26.97,0,1.67.5,2.02,1.54.56-1.02,1.4-1.54,2.34-1.54,1.32,0,2.17.95,2.17,2.76v3.78h-.82v-3.48c0-.47-.06-.84-.07-1.08-.04-.56-.58-1.19-1.44-1.19-.79,0-1.49.48-1.81,1.3-.2.52-.23,1.08-.23,1.67v2.78Z"/>
          <path class="cls-6" d="m178.15,121.6c.64-.89,1.51-1.33,2.53-1.33,1.86,0,3.3,1.52,3.3,3.33s-1.4,3.36-3.27,3.36c-1,0-1.86-.41-2.55-1.25v3.42h-.82v-8.7h.82v1.16Zm-.06,2.05c0,1.58,1.22,2.57,2.53,2.57,1.42,0,2.52-1.2,2.52-2.59s-1.06-2.57-2.52-2.57-2.53,1.12-2.53,2.59Z"/>
          <path class="cls-6" d="m186.05,121.36c.48-.7,1-1.09,1.64-1.09.37,0,.56.12.73.22l-.43.7c-.1-.05-.25-.12-.43-.12-.6,0-1.14.52-1.38,1.39-.11.41-.13,1.07-.13,1.93v2.42h-.86v-6.37h.86v.92Z"/>
          <path class="cls-6" d="m189.61,123.69c.04,1.46,1.03,2.53,2.4,2.53s1.97-.75,2.43-1.52l.68.36c-.65,1.27-1.64,1.91-3.03,1.91-2.11,0-3.32-1.62-3.32-3.32s1.28-3.37,3.27-3.37c1.81,0,3.27,1.31,3.3,3.42h-5.73Zm4.83-.72c-.33-1.32-1.28-1.91-2.39-1.91s-1.99.61-2.36,1.91h4.75Z"/>
          <path class="cls-6" d="m196.79,125.47c.41.46.85.71,1.33.71.62,0,1.17-.46,1.17-1.05,0-.37-.22-.72-.53-.89-1.46-.82-2.21-1.16-2.21-2.28,0-1.01.78-1.69,1.75-1.69.7,0,1.22.34,1.76.86l-.53.54c-.38-.37-.77-.61-1.28-.61s-.96.37-.96.85c0,.32.2.68.49.85,1.46.85,2.28,1.18,2.28,2.33,0,1-.77,1.88-1.92,1.88-.71,0-1.43-.32-1.88-.91l.52-.59Z"/>
          <path class="cls-6" d="m207.07,120.44h.8v6.37h-.8v-1.09c-.7.84-1.57,1.25-2.57,1.25-1.86,0-3.26-1.55-3.26-3.36s1.44-3.33,3.29-3.33c1.03,0,1.91.44,2.54,1.33v-1.16Zm-4.99,3.19c0,1.38,1.08,2.59,2.51,2.59,1.31,0,2.54-.98,2.54-2.57,0-1.48-1.1-2.59-2.53-2.59s-2.52,1.2-2.52,2.57Z"/>
          <path class="cls-6" d="m209.64,125.47c.41.46.85.71,1.33.71.62,0,1.17-.46,1.17-1.05,0-.37-.22-.72-.53-.89-1.46-.82-2.21-1.16-2.21-2.28,0-1.01.78-1.69,1.75-1.69.7,0,1.22.34,1.76.86l-.53.54c-.38-.37-.77-.61-1.28-.61s-.96.37-.96.85c0,.32.2.68.49.85,1.46.85,2.28,1.18,2.28,2.33,0,1-.77,1.88-1.92,1.88-.71,0-1.43-.32-1.88-.91l.52-.59Z"/>
          <path class="cls-6" d="m215.21,125.22l.78.37-1.19,2.22-.58-.24.98-2.35Z"/>
          <path class="cls-6" d="m34.93,138.02c-.62.95-1.7,1.44-2.99,1.44-2.1,0-3.5-1.51-3.5-3.29,0-1.87,1.46-3.41,3.56-3.41,1.22,0,2.34.5,2.93,1.49l-.66.41c-.56-.74-1.34-1.1-2.3-1.1-1.62,0-2.69,1.19-2.69,2.55s1.06,2.6,2.7,2.6c.92,0,1.69-.37,2.29-1.12l.66.42Z"/>
          <path class="cls-6" d="m42.85,136.14c0,1.81-1.4,3.33-3.32,3.33s-3.32-1.52-3.32-3.33,1.42-3.37,3.32-3.37,3.32,1.55,3.32,3.37Zm-5.8.01c0,1.39,1.04,2.53,2.48,2.53s2.48-1.14,2.48-2.53-1.13-2.59-2.48-2.59-2.48,1.18-2.48,2.59Z"/>
          <path class="cls-6" d="m49.51,139.3h-.82v-3.26c0-.49-.05-.9-.06-1.19-.04-.7-.6-1.3-1.44-1.3-.56,0-1.13.28-1.49.74-.46.59-.54,1.34-.54,2.3v2.7h-.82v-6.37h.82v1.09c.56-.82,1.27-1.26,2.18-1.26.97,0,1.67.5,2.02,1.54.56-1.02,1.4-1.54,2.34-1.54,1.32,0,2.17.95,2.17,2.76v3.78h-.82v-3.48c0-.47-.06-.84-.07-1.08-.04-.56-.58-1.19-1.44-1.19-.79,0-1.49.48-1.81,1.3-.2.52-.23,1.08-.23,1.67v2.78Z"/>
          <path class="cls-6" d="m56.16,136.19c.04,1.46,1.03,2.53,2.4,2.53s1.97-.75,2.43-1.52l.68.36c-.65,1.27-1.64,1.91-3.03,1.91-2.11,0-3.32-1.62-3.32-3.32s1.28-3.37,3.27-3.37c1.81,0,3.27,1.31,3.3,3.42h-5.73Zm4.83-.72c-.34-1.32-1.28-1.91-2.39-1.91s-1.99.61-2.36,1.91h4.75Z"/>
          <path class="cls-6" d="m63.96,133.86c.48-.7,1-1.09,1.64-1.09.37,0,.56.12.73.22l-.43.7c-.1-.05-.25-.12-.43-.12-.6,0-1.14.52-1.38,1.39-.11.41-.13,1.07-.13,1.93v2.42h-.86v-6.37h.86v.92Z"/>
          <path class="cls-6" d="m73.13,138.02c-.62.95-1.7,1.44-2.99,1.44-2.1,0-3.5-1.51-3.5-3.29,0-1.87,1.46-3.41,3.56-3.41,1.22,0,2.34.5,2.93,1.49l-.66.41c-.56-.74-1.34-1.1-2.3-1.1-1.62,0-2.69,1.19-2.69,2.55s1.06,2.6,2.7,2.6c.92,0,1.69-.37,2.29-1.12l.66.42Z"/>
          <path class="cls-6" d="m75.68,130.98c0,.37-.31.68-.68.68s-.67-.31-.67-.68.31-.67.67-.67.68.3.68.67Zm-1.08,1.96h.82v6.37h-.82v-6.37Z"/>
          <path class="cls-6" d="m83.45,136.14c0,1.81-1.4,3.33-3.32,3.33s-3.32-1.52-3.32-3.33,1.42-3.37,3.32-3.37,3.32,1.55,3.32,3.37Zm-5.8.01c0,1.39,1.04,2.53,2.48,2.53s2.48-1.14,2.48-2.53-1.13-2.59-2.48-2.59-2.48,1.18-2.48,2.59Z"/>
          <path class="cls-6" d="m84.89,137.97c.41.46.85.71,1.33.71.62,0,1.17-.46,1.17-1.05,0-.37-.22-.72-.53-.89-1.46-.82-2.21-1.16-2.21-2.28,0-1.01.78-1.69,1.75-1.69.7,0,1.22.34,1.76.86l-.53.54c-.38-.37-.77-.61-1.28-.61s-.96.37-.96.85c0,.32.2.68.49.85,1.46.85,2.28,1.18,2.28,2.33,0,1-.77,1.88-1.92,1.88-.71,0-1.43-.32-1.88-.91l.52-.59Z"/>
          <path class="cls-6" d="m103.07,132.94h.86l2.19,4.91,2.12-4.91h.88l-3.8,8.7h-.86l1.22-2.81-2.62-5.89Z"/>
          <path class="cls-6" d="m124.85,136.19c.04,1.46,1.03,2.53,2.4,2.53s1.97-.75,2.43-1.52l.68.36c-.65,1.27-1.64,1.91-3.03,1.91-2.11,0-3.32-1.62-3.32-3.32s1.28-3.37,3.27-3.37c1.81,0,3.27,1.31,3.3,3.42h-5.73Zm4.83-.72c-.34-1.32-1.28-1.91-2.39-1.91s-1.99.61-2.36,1.91h4.75Z"/>
          <path class="cls-6" d="m132.93,134.07c.66-.86,1.45-1.31,2.39-1.31,1.39,0,2.36.96,2.36,2.96v3.57h-.82v-3.47c0-1.5-.47-2.33-1.7-2.33-.68,0-1.25.3-1.68.86-.48.62-.55,1.25-.55,2.25v2.67h-.82v-6.37h.82v1.14Z"/>
          <path class="cls-6" d="m159.88,138.01c0,1.04-.06,1.91-.58,2.61-.54.73-1.49,1.16-2.7,1.16-1.83,0-2.72-.74-3.29-1.98h.89c.48.84,1.22,1.24,2.35,1.24,1.05,0,1.83-.38,2.22-1.08.24-.44.28-.9.28-1.39v-.48c-.64.8-1.56,1.21-2.55,1.21-1.76,0-3.26-1.34-3.26-3.23s1.57-3.31,3.26-3.31c1.13,0,1.88.48,2.55,1.27v-1.1h.83v5.07Zm-5.81-1.88c0,1.27.9,2.39,2.58,2.39,1.39,0,2.43-.96,2.43-2.45s-1.14-2.51-2.46-2.51c-1.43,0-2.55,1.09-2.55,2.57Z"/>
          <path class="cls-6" d="m162.17,136.19c.04,1.46,1.03,2.53,2.4,2.53s1.97-.75,2.43-1.52l.68.36c-.65,1.27-1.64,1.91-3.03,1.91-2.11,0-3.32-1.62-3.32-3.32s1.28-3.37,3.27-3.37c1.81,0,3.27,1.31,3.3,3.42h-5.73Zm4.83-.72c-.33-1.32-1.28-1.91-2.39-1.91s-1.99.61-2.36,1.91h4.75Z"/>
          <path class="cls-6" d="m170.25,134.07c.66-.86,1.45-1.31,2.39-1.31,1.39,0,2.36.96,2.36,2.96v3.57h-.82v-3.47c0-1.5-.47-2.33-1.7-2.33-.68,0-1.25.3-1.68.86-.48.62-.55,1.25-.55,2.25v2.67h-.82v-6.37h.82v1.14Z"/>
          <path class="cls-6" d="m177.29,136.19c.04,1.46,1.03,2.53,2.4,2.53s1.97-.75,2.43-1.52l.68.36c-.65,1.27-1.64,1.91-3.03,1.91-2.11,0-3.32-1.62-3.32-3.32s1.28-3.37,3.27-3.37c1.81,0,3.27,1.31,3.3,3.42h-5.73Zm4.83-.72c-.33-1.32-1.28-1.91-2.39-1.91s-1.99.61-2.36,1.91h4.75Z"/>
          <path class="cls-6" d="m185.09,133.86c.48-.7,1-1.09,1.64-1.09.37,0,.56.12.73.22l-.43.7c-.1-.05-.25-.12-.43-.12-.6,0-1.14.52-1.38,1.39-.11.41-.13,1.07-.13,1.93v2.42h-.86v-6.37h.86v.92Z"/>
          <path class="cls-6" d="m193.7,132.94h.8v6.37h-.8v-1.09c-.7.84-1.57,1.25-2.57,1.25-1.86,0-3.26-1.55-3.26-3.36s1.44-3.33,3.29-3.33c1.03,0,1.91.44,2.54,1.33v-1.16Zm-4.99,3.19c0,1.38,1.08,2.59,2.51,2.59,1.31,0,2.54-.98,2.54-2.57,0-1.48-1.1-2.59-2.53-2.59s-2.52,1.2-2.52,2.57Z"/>
          <path class="cls-6" d="m196.24,130.48h.82v8.83h-.82v-8.83Z"/>
          <path class="cls-6" d="m218.43,132.94h.8v6.37h-.8v-1.09c-.7.84-1.57,1.25-2.57,1.25-1.86,0-3.26-1.55-3.26-3.36s1.44-3.33,3.29-3.33c1.03,0,1.91.44,2.54,1.33v-1.16Zm-4.99,3.19c0,1.38,1.08,2.59,2.51,2.59,1.31,0,2.54-.98,2.54-2.57,0-1.48-1.1-2.59-2.53-2.59s-2.52,1.2-2.52,2.57Z"/>
          <path class="cls-6" d="m29.57,146.6c.64-.89,1.51-1.33,2.53-1.33,1.86,0,3.3,1.52,3.3,3.33s-1.4,3.36-3.27,3.36c-1,0-1.86-.41-2.55-1.25v3.42h-.82v-8.7h.82v1.16Zm-.06,2.05c0,1.58,1.22,2.57,2.53,2.57,1.42,0,2.52-1.2,2.52-2.59s-1.06-2.57-2.52-2.57-2.53,1.12-2.53,2.59Z"/>
          <path class="cls-6" d="m37.46,146.36c.48-.7,1-1.09,1.64-1.09.37,0,.56.12.73.22l-.43.7c-.1-.05-.25-.12-.43-.12-.6,0-1.14.52-1.38,1.39-.11.41-.13,1.07-.13,1.93v2.42h-.86v-6.37h.86v.92Z"/>
          <path class="cls-6" d="m46.83,148.64c0,1.81-1.4,3.33-3.32,3.33s-3.32-1.52-3.32-3.33,1.42-3.37,3.32-3.37,3.32,1.55,3.32,3.37Zm-5.8.01c0,1.39,1.04,2.53,2.48,2.53s2.48-1.14,2.48-2.53-1.13-2.59-2.48-2.59-2.48,1.18-2.48,2.59Z"/>
          <path class="cls-6" d="m54.54,150.52c-.62.95-1.7,1.44-2.99,1.44-2.1,0-3.5-1.51-3.5-3.29,0-1.87,1.46-3.41,3.56-3.41,1.22,0,2.34.5,2.93,1.49l-.66.41c-.56-.74-1.34-1.1-2.3-1.1-1.62,0-2.69,1.19-2.69,2.55s1.06,2.6,2.7,2.6c.92,0,1.69-.37,2.29-1.12l.66.42Z"/>
          <path class="cls-6" d="m60.74,145.44h.86v3.3c0,2.15-.97,3.23-2.79,3.23s-2.81-1.08-2.81-3.23v-3.3h.86v3.11c0,.67,0,1.22.18,1.61.3.65.96,1.02,1.76,1.02.59,0,1.1-.22,1.44-.56.5-.54.49-1.15.49-2.06v-3.11Z"/>
          <path class="cls-6" d="m63.95,146.36c.48-.7,1-1.09,1.64-1.09.37,0,.56.12.73.22l-.43.7c-.1-.05-.25-.12-.43-.12-.6,0-1.14.52-1.38,1.39-.11.41-.13,1.07-.13,1.93v2.42h-.86v-6.37h.86v.92Z"/>
          <path class="cls-6" d="m72.56,145.44h.8v6.37h-.8v-1.09c-.7.84-1.57,1.25-2.57,1.25-1.86,0-3.26-1.55-3.26-3.36s1.44-3.33,3.29-3.33c1.03,0,1.91.44,2.54,1.33v-1.16Zm-4.99,3.19c0,1.38,1.08,2.59,2.51,2.59,1.31,0,2.54-.98,2.54-2.57,0-1.48-1.1-2.59-2.53-2.59s-2.52,1.2-2.52,2.57Z"/>
          <path class="cls-6" d="m75.75,146.36c.48-.7,1-1.09,1.64-1.09.37,0,.56.12.73.22l-.43.7c-.1-.05-.25-.12-.43-.12-.6,0-1.14.52-1.38,1.39-.11.41-.13,1.07-.13,1.93v2.42h-.86v-6.37h.86v.92Z"/>
          <path class="cls-6" d="m86.14,145.44h.86v3.3c0,2.15-.97,3.23-2.79,3.23s-2.81-1.08-2.81-3.23v-3.3h.86v3.11c0,.67,0,1.22.18,1.61.3.65.96,1.02,1.76,1.02.59,0,1.1-.22,1.44-.56.5-.54.49-1.15.49-2.06v-3.11Z"/>
          <path class="cls-6" d="m89.62,146.57c.66-.86,1.45-1.31,2.39-1.31,1.39,0,2.36.96,2.36,2.96v3.57h-.82v-3.47c0-1.5-.47-2.33-1.7-2.33-.68,0-1.25.3-1.68.86-.48.62-.55,1.25-.55,2.25v2.67h-.82v-6.37h.82v1.14Z"/>
          <path class="cls-6" d="m103.95,151.8h-.82v-3.26c0-.49-.05-.9-.06-1.19-.04-.7-.6-1.3-1.44-1.3-.56,0-1.13.28-1.49.74-.46.59-.54,1.34-.54,2.3v2.7h-.82v-6.37h.82v1.09c.56-.82,1.27-1.26,2.18-1.26.97,0,1.67.5,2.02,1.54.56-1.02,1.4-1.54,2.34-1.54,1.32,0,2.17.95,2.17,2.76v3.78h-.82v-3.48c0-.47-.06-.84-.07-1.08-.04-.56-.58-1.19-1.44-1.19-.79,0-1.49.48-1.81,1.3-.2.52-.23,1.08-.23,1.67v2.78Z"/>
          <path class="cls-6" d="m110.6,148.69c.04,1.46,1.03,2.53,2.4,2.53s1.97-.75,2.43-1.52l.68.36c-.65,1.27-1.64,1.91-3.03,1.91-2.11,0-3.32-1.62-3.32-3.32s1.28-3.37,3.27-3.37c1.81,0,3.27,1.31,3.3,3.42h-5.73Zm4.83-.72c-.33-1.32-1.28-1.91-2.39-1.91s-1.99.61-2.36,1.91h4.75Z"/>
          <path class="cls-6" d="m117.78,145.44h.82v7.33c0,1.02-.36,1.55-1.09,1.55-.36,0-.67-.11-.92-.2v-.74c.14.07.34.16.59.16.38,0,.61-.25.61-.75v-7.33Zm1.08-1.96c0,.37-.31.68-.68.68s-.67-.31-.67-.68.3-.67.67-.67.68.3.68.67Z"/>
          <path class="cls-6" d="m126.64,148.64c0,1.81-1.4,3.33-3.32,3.33s-3.32-1.52-3.32-3.33,1.42-3.37,3.32-3.37,3.32,1.55,3.32,3.37Zm-5.8.01c0,1.39,1.04,2.53,2.48,2.53s2.48-1.14,2.48-2.53-1.13-2.59-2.48-2.59-2.48,1.18-2.48,2.59Z"/>
          <path class="cls-6" d="m128.7,146.36c.48-.7,1-1.09,1.64-1.09.37,0,.56.12.73.22l-.43.7c-.1-.05-.25-.12-.43-.12-.6,0-1.14.52-1.38,1.39-.11.41-.13,1.07-.13,1.93v2.42h-.86v-6.37h.86v.92Z"/>
          <path class="cls-6" d="m135.27,146.57c.66-.86,1.45-1.31,2.39-1.31,1.39,0,2.36.96,2.36,2.96v3.57h-.82v-3.47c0-1.5-.47-2.33-1.7-2.33-.68,0-1.25.3-1.68.86-.48.62-.55,1.25-.55,2.25v2.67h-.82v-6.37h.82v1.14Z"/>
          <path class="cls-6" d="m142.74,143.48c0,.37-.31.68-.68.68s-.67-.31-.67-.68.31-.67.67-.67.68.3.68.67Zm-1.08,1.96h.82v6.37h-.82v-6.37Z"/>
          <path class="cls-6" d="m143.57,145.44h.88l2.13,4.63,2.11-4.63h.88l-2.91,6.37h-.14l-2.94-6.37Z"/>
          <path class="cls-6" d="m151.36,148.69c.04,1.46,1.03,2.53,2.4,2.53s1.97-.75,2.43-1.52l.68.36c-.65,1.27-1.64,1.91-3.03,1.91-2.11,0-3.32-1.62-3.32-3.32s1.28-3.37,3.27-3.37c1.81,0,3.27,1.31,3.3,3.42h-5.73Zm4.83-.72c-.34-1.32-1.28-1.91-2.39-1.91s-1.99.61-2.36,1.91h4.75Z"/>
          <path class="cls-6" d="m158.5,142.98h.82v8.83h-.82v-8.83Z"/>
          <path class="cls-6" d="m169.26,150.71c-.7.84-1.57,1.25-2.57,1.25-1.86,0-3.26-1.55-3.26-3.36s1.44-3.33,3.29-3.33c1.03,0,1.91.44,2.54,1.33v-3.62h.82v8.83h-.82v-1.09Zm-4.99-2.09c0,1.38,1.08,2.59,2.51,2.59,1.31,0,2.53-.98,2.53-2.57,0-1.48-1.09-2.59-2.52-2.59s-2.52,1.2-2.52,2.57Z"/>
          <path class="cls-6" d="m172.46,148.69c.04,1.46,1.03,2.53,2.4,2.53s1.97-.75,2.43-1.52l.68.36c-.65,1.27-1.64,1.91-3.03,1.91-2.11,0-3.32-1.62-3.32-3.32s1.28-3.37,3.27-3.37c1.81,0,3.27,1.31,3.3,3.42h-5.73Zm4.83-.72c-.33-1.32-1.28-1.91-2.39-1.91s-1.99.61-2.36,1.91h4.75Z"/>
          <path class="cls-6" d="m181.8,145.44h.88l2.13,4.63,2.11-4.63h.88l-2.91,6.37h-.14l-2.94-6.37Z"/>
          <path class="cls-6" d="m190.02,143.48c0,.37-.31.68-.68.68s-.67-.31-.67-.68.31-.67.67-.67.68.3.68.67Zm-1.08,1.96h.82v6.37h-.82v-6.37Z"/>
          <path class="cls-6" d="m197,150.71c-.7.84-1.57,1.25-2.57,1.25-1.86,0-3.26-1.55-3.26-3.36s1.44-3.33,3.29-3.33c1.03,0,1.91.44,2.54,1.33v-3.62h.82v8.83h-.82v-1.09Zm-4.99-2.09c0,1.38,1.08,2.59,2.51,2.59,1.31,0,2.53-.98,2.53-2.57,0-1.48-1.09-2.59-2.52-2.59s-2.52,1.2-2.52,2.57Z"/>
          <path class="cls-6" d="m205.21,145.44h.8v6.37h-.8v-1.09c-.7.84-1.57,1.25-2.57,1.25-1.86,0-3.26-1.55-3.26-3.36s1.44-3.33,3.29-3.33c1.03,0,1.91.44,2.54,1.33v-1.16Zm-4.99,3.19c0,1.38,1.08,2.59,2.51,2.59,1.31,0,2.54-.98,2.54-2.57,0-1.48-1.1-2.59-2.53-2.59s-2.52,1.2-2.52,2.57Z"/>
          <path class="cls-6" d="m216.1,150.71c-.7.84-1.57,1.25-2.57,1.25-1.86,0-3.26-1.55-3.26-3.36s1.44-3.33,3.29-3.33c1.03,0,1.91.44,2.54,1.33v-3.62h.82v8.83h-.82v-1.09Zm-4.99-2.09c0,1.38,1.08,2.59,2.51,2.59,1.31,0,2.53-.98,2.53-2.57,0-1.48-1.09-2.59-2.52-2.59s-2.52,1.2-2.52,2.57Z"/>
          <path class="cls-6" d="m219.31,148.69c.04,1.46,1.03,2.53,2.4,2.53s1.97-.75,2.43-1.52l.68.36c-.65,1.27-1.64,1.91-3.03,1.91-2.11,0-3.32-1.62-3.32-3.32s1.28-3.37,3.27-3.37c1.81,0,3.27,1.31,3.3,3.42h-5.73Zm4.83-.72c-.33-1.32-1.28-1.91-2.39-1.91s-1.99.61-2.36,1.91h4.75Z"/>
          <path class="cls-6" d="m28.65,162.97c.41.46.85.71,1.33.71.62,0,1.17-.46,1.17-1.05,0-.37-.22-.72-.53-.89-1.46-.82-2.21-1.16-2.21-2.28,0-1.01.78-1.69,1.75-1.69.7,0,1.22.34,1.76.86l-.53.54c-.38-.37-.77-.61-1.28-.61s-.96.37-.96.85c0,.32.2.68.49.85,1.46.85,2.28,1.18,2.28,2.33,0,1-.77,1.88-1.92,1.88-.71,0-1.43-.32-1.88-.91l.52-.59Z"/>
          <path class="cls-6" d="m38.02,157.94h.86v3.3c0,2.15-.97,3.23-2.79,3.23s-2.81-1.08-2.81-3.23v-3.3h.86v3.11c0,.67,0,1.22.18,1.61.3.65.96,1.02,1.76,1.02.59,0,1.1-.22,1.44-.56.5-.54.49-1.15.49-2.06v-3.11Z"/>
          <path class="cls-6" d="m40.61,162.97c.41.46.85.71,1.33.71.62,0,1.17-.46,1.17-1.05,0-.37-.22-.72-.53-.89-1.46-.82-2.21-1.16-2.21-2.28,0-1.01.78-1.69,1.75-1.69.7,0,1.22.34,1.76.86l-.53.54c-.38-.37-.77-.61-1.28-.61s-.96.37-.96.85c0,.32.2.68.49.85,1.46.85,2.28,1.18,2.28,2.33,0,1-.77,1.88-1.92,1.88-.71,0-1.43-.32-1.88-.91l.52-.59Z"/>
          <path class="cls-6" d="m52.11,157.42c-.47-.61-.88-1.06-1.58-1.06-.74,0-1.16.53-1.16,1.09,0,.47.28.96.77,1.33,1.62,1.2,2.81,2.03,2.81,3.42,0,1.21-1.02,2.31-2.42,2.31-1.19,0-1.97-.66-2.6-1.82l.73-.44c.52.95,1.14,1.43,1.8,1.43.9,0,1.59-.66,1.59-1.46,0-.95-.89-1.49-2.84-3.07-.41-.32-.73-1.01-.73-1.66,0-1.19.92-2.01,2.09-2.01,1.05,0,1.69.64,2.25,1.4l-.7.54Z"/>
          <path class="cls-6" d="m60.99,161.14c0,1.81-1.4,3.33-3.32,3.33s-3.32-1.52-3.32-3.33,1.42-3.37,3.32-3.37,3.32,1.55,3.32,3.37Zm-5.8.01c0,1.39,1.04,2.53,2.48,2.53s2.48-1.14,2.48-2.53-1.13-2.59-2.48-2.59-2.48,1.18-2.48,2.59Z"/>
          <path class="cls-6" d="m68.7,163.02c-.62.95-1.7,1.44-2.99,1.44-2.1,0-3.5-1.51-3.5-3.29,0-1.87,1.46-3.41,3.56-3.41,1.22,0,2.34.5,2.93,1.49l-.66.41c-.56-.74-1.34-1.1-2.3-1.1-1.62,0-2.69,1.19-2.69,2.55s1.06,2.6,2.7,2.6c.92,0,1.69-.37,2.29-1.12l.66.42Z"/>
          <path class="cls-6" d="m71.24,155.98c0,.37-.31.68-.68.68s-.67-.31-.67-.68.31-.67.67-.67.68.3.68.67Zm-1.08,1.96h.82v6.37h-.82v-6.37Z"/>
          <path class="cls-6" d="m79.01,161.14c0,1.81-1.4,3.33-3.32,3.33s-3.32-1.52-3.32-3.33,1.42-3.37,3.32-3.37,3.32,1.55,3.32,3.37Zm-5.8.01c0,1.39,1.04,2.53,2.48,2.53s2.48-1.14,2.48-2.53-1.13-2.59-2.48-2.59-2.48,1.18-2.48,2.59Z"/>
          <path class="cls-6" d="m80.45,162.97c.41.46.85.71,1.33.71.62,0,1.17-.46,1.17-1.05,0-.37-.22-.72-.53-.89-1.46-.82-2.21-1.16-2.21-2.28,0-1.01.78-1.69,1.75-1.69.7,0,1.22.34,1.76.86l-.53.54c-.38-.37-.77-.61-1.28-.61s-.96.37-.96.85c0,.32.2.68.49.85,1.46.85,2.28,1.18,2.28,2.33,0,1-.77,1.88-1.92,1.88-.71,0-1.43-.32-1.88-.91l.52-.59Z"/>
          <path class="cls-6" d="m86.81,163.74c0,.41-.32.73-.72.73s-.72-.34-.72-.73.32-.73.72-.73.72.32.72.73Z"/>
        </g>
        <g class="cls-3">
          <g>
            <circle class="cls-5" cx="317.19" cy="95.45" r="92.38"/>
            <g>
              <circle class="cls-2" cx="297.83" cy="78.52" r="36.88"/>
              <g>
                <circle class="cls-2" cx="297.83" cy="78.52" r="26.07"/>
                <path class="cls-2" d="m320.45,67.92c0-.87-.04-1.72-.13-2.57-4.53-7.71-12.9-12.9-22.5-12.9-14.4,0-26.07,11.67-26.07,26.07,0,2.05.24,4.04.69,5.96,4.92,6.27,12.56,10.3,21.14,10.3,14.83,0,26.86-12.03,26.86-26.86Z"/>
              </g>
              <path class="cls-2" d="m340.02,73.49c-.7-.59-.85-1.61-.36-2.37.01-.02.02-.05.04-.07l2.94-4.37c.56-.83.34-1.92-.42-2.49l-4.78-2.1-.61-.26c-.88-.37-1.32-1.36-1.02-2.26l.37-1.13,1.26-3.87c.34-1.05-.32-2.15-1.39-2.36l-.99-.14-4.54-.57c-.95-.12-1.64-.94-1.6-1.89l.22-5.34c.01-.4-.11-.77-.32-1.07-.24-.21-.49-.42-.73-.62-.32-.15-.68-.22-1.06-.16l-.28.04-4.9.88c-.53.09-1.04-.05-1.44-.36-.41-.25-.72-.64-.84-1.14l-.67-2.8-.59-2.07c-.27-.95-1.23-1.48-2.14-1.28l-5.32,2.62c-.14.07-.28.11-.42.14-.75.17-1.54-.14-1.96-.82l-1.06-1.72-1.71-2.75c-.52-.83-1.57-1.08-2.39-.65l-2.37,2.09-2.05,1.89c-.54.5-1.31.61-1.95.34-.22-.08-.42-.2-.6-.37l-2.49-2.31-1.47-1.34c-.85-.69-2.12-.5-2.71.44l-2.89,4.63c-.5.81-1.54,1.09-2.39.66l-1.2-.62-3.49-1.69c-.98-.47-2.12.01-2.5,1l-.61,2.18-.88,3.27c-.25.92-1.16,1.5-2.1,1.33l-5.43-.98c-1.04-.04-1.93.78-1.91,1.85h0s.1,5.46.1,5.46c.02.95-.7,1.76-1.65,1.86l-1.04.11-4.21.47c-.94.11-1.6.9-1.62,1.79l1.17,4.11.52,1.68c.28.91-.18,1.88-1.06,2.24l-.58.24-4,1.76c-1,.44-1.39,1.7-.81,2.62l2.05,3.21.66.97c.1.14.16.29.21.45,0,.02.01.04.02.06.01.05.03.09.04.14.18.67-.04,1.42-.61,1.88l-4.19,3.42c-.23.23-.38.51-.46.8,0,.18,0,.36,0,.54,0,.13,0,.25,0,.38.08.31.25.6.5.85l4.28,3.51c.11.09.2.19.28.3.52.62.58,1.53.11,2.22l-2.35,3.41-.59.89c-.64.96-.24,2.26.82,2.7l1.05.44,3.86,1.54c.35.14.64.39.84.68.37.47.51,1.1.31,1.7l-1.04,3.2-.48,1.68c-.29,1,.31,2,1.27,2.26l1.14.14,4.62.42c.95.09,1.67.89,1.67,1.84,0,0-.13,4.19-.13,5.68,0,1.41.91,1.61,1.4,1.53l5.38-.9c.94-.16,1.84.43,2.08,1.36l1.35,5.31c.29.74,1.02,1.19,1.78,1.15l4.64-2.08.98-.47c.16-.08.32-.12.49-.15.02,0,.05,0,.07-.01.04,0,.08-.01.12-.02.72-.09,1.45.24,1.83.9l2.62,4.57c.57,1,1.91,1.23,2.78.48l4.14-3.56c.72-.62,1.8-.58,2.48.08l2.15,2.11,1.63,1.47c.74.67,1.84.61,2.51-.05l2.26-3.59.87-1.42c.44-.72,1.29-1.03,2.07-.81.11.03.23.07.33.13l4.72,2.34c.87.43,1.89.1,2.37-.68l1.66-5.72c.13-.45.43-.82.8-1.05.38-.24.85-.34,1.32-.25l3.03.58,2.12.39c.98.18,1.89-.45,2.11-1.37l.03-4v-1.9c-.02-.6.27-1.14.72-1.48.27-.21.6-.35.96-.38l5.24-.49c1.01-.09,1.72-.98,1.66-1.95l-1.64-5.52c-.15-.49-.07-.99.16-1.41.2-.41.54-.75,1-.93l2.9-1.11,1.87-.77c.86-.35,1.28-1.26,1.08-2.11l-3.37-5.15c-.52-.79-.35-1.84.38-2.43l4.1-3.31c.89-.72.91-2.08.03-2.82l-4.17-3.52Z"/>
              <path class="cls-2" d="m302.9,124.29l-1.63-1.47-2.15-2.11c-.68-.67-1.76-.7-2.48-.08l-4.14,3.56c-.87.75-2.21.52-2.78-.48l-2.62-4.57c-.38-.66-1.11-.99-1.83-.9-.04,0-.08.01-.12.02-.02,0-.05,0-.07.01-.17.03-.33.07-.49.15l-.98.47-4.64,2.08c-.76.04-1.49-.41-1.78-1.15l-1.35-5.31c-.24-.92-1.14-1.51-2.08-1.36l-.76.13-14.2,39.95,19.77-6.68c.84-.28,1.76.04,2.24.78l9.71,14.96,13.65-37.52c-.45.01-.91-.14-1.27-.47Z"/>
              <path class="cls-2" d="m323.8,113.56l-1.98-.38c-.47-.09-.94.01-1.32.25-.38.23-.67.6-.8,1.05l-1.66,5.72c-.48.78-1.5,1.12-2.37.68l-4.72-2.34c-.11-.05-.22-.1-.33-.13-.78-.22-1.63.09-2.07.81l-.87,1.42-2.26,3.59c-.33.33-.77.51-1.22.52l-5.71,15.68,8.04,21.17,9.49-15.1c.47-.75,1.39-1.08,2.23-.81l19.86,6.4-14.32-38.54Z"/>
            </g>
          </g>
        </g>
        <path class="cls-1" d="m307.56,8.17s-84.08,1.78-82.62,92.66c1.18,73.77,82.62,87.34,82.62,87.34V8.17Z"/>
      </g>
    </g>
  </g>
</svg>