<?xml version="1.0" encoding="UTF-8"?>
<svg xmlns="http://www.w3.org/2000/svg" xmlns:xlink="http://www.w3.org/1999/xlink" viewBox="0 0 286.01 323.95">
  <defs>
    <style>
      .cls-1 {
        fill: #fff;
      }

      .cls-2 {
        fill: #d4ecf0;
      }

      .cls-3 {
        fill: #3765ae;
      }

      .cls-4 {
        fill: #6d9dc6;
      }

      .cls-5 {
        fill: url(#linear-gradient);
        mix-blend-mode: multiply;
      }

      .cls-6 {
        isolation: isolate;
      }
    </style>
    <linearGradient id="linear-gradient" x1="132.36" y1="400.72" x2="159.75" y2="-376.38" gradientUnits="userSpaceOnUse">
      <stop offset="0" stop-color="#fff"/>
      <stop offset="1" stop-color="#231f20"/>
    </linearGradient>
  </defs>
  <g class="cls-6">
    <g id="Capa_2" data-name="Capa 2">
      <g id="Capa_1-2" data-name="Capa 1">
        <g>
          <path class="cls-5" d="m7.54,117.73h245.35s-17.48,124.85,21.94,206.21H12.78S-12.08,213.72,7.54,117.73Z"/>
          <path class="cls-3" d="m12.3,85.52h251.77s-17.48,134.42,21.94,222.03H23.96S-7.31,188.87,12.3,85.52Z"/>
          <path class="cls-4" d="m12.3,85.52h251.77s-17.48,134.42,21.94,222.03l-251.67-15.45S-7.31,188.87,12.3,85.52Z"/>
        </g>
        <g>
          <path class="cls-1" d="m40.18,101.09h.86v7.77h3.31v.84h-4.17v-8.61Z"/>
          <path class="cls-1" d="m51.13,103.33h.8v6.37h-.8v-1.09c-.7.84-1.57,1.25-2.57,1.25-1.86,0-3.26-1.55-3.26-3.36s1.44-3.33,3.29-3.33c1.03,0,1.91.44,2.54,1.33v-1.16Zm-4.99,3.19c0,1.38,1.08,2.59,2.51,2.59,1.31,0,2.54-.98,2.54-2.57,0-1.48-1.1-2.59-2.53-2.59s-2.52,1.2-2.52,2.57Z"/>
          <path class="cls-1" d="m53.7,108.37c.41.46.85.71,1.33.71.62,0,1.17-.46,1.17-1.06,0-.37-.22-.72-.53-.89-1.46-.82-2.21-1.16-2.21-2.28,0-1.01.78-1.69,1.75-1.69.7,0,1.22.34,1.76.86l-.53.54c-.38-.37-.77-.61-1.28-.61s-.96.37-.96.85c0,.32.2.68.49.85,1.46.85,2.28,1.18,2.28,2.33,0,1-.77,1.88-1.92,1.88-.71,0-1.43-.32-1.88-.91l.52-.59Z"/>
          <path class="cls-1" d="m83.37,103.2c-.76-1-1.83-1.49-3.07-1.49-2.04,0-3.75,1.51-3.75,3.71s1.63,3.69,3.8,3.69c1.2,0,2.22-.49,3.02-1.43l.68.52c-.89,1.12-2.2,1.7-3.77,1.7-2.88,0-4.64-2.03-4.64-4.56s1.97-4.47,4.64-4.47c1.58,0,2.92.62,3.77,1.81l-.68.52Z"/>
          <path class="cls-1" d="m92,106.53c0,1.81-1.4,3.33-3.32,3.33s-3.32-1.52-3.32-3.33,1.42-3.37,3.32-3.37,3.32,1.55,3.32,3.37Zm-5.8.01c0,1.39,1.04,2.53,2.48,2.53s2.48-1.14,2.48-2.53-1.13-2.59-2.48-2.59-2.48,1.18-2.48,2.59Z"/>
          <path class="cls-1" d="m99.86,106.53c0,1.81-1.4,3.33-3.32,3.33s-3.32-1.52-3.32-3.33,1.42-3.37,3.32-3.37,3.32,1.55,3.32,3.37Zm-5.8.01c0,1.39,1.04,2.53,2.48,2.53s2.48-1.14,2.48-2.53-1.13-2.59-2.48-2.59-2.48,1.18-2.48,2.59Z"/>
          <path class="cls-1" d="m102.2,104.49c.64-.89,1.51-1.33,2.53-1.33,1.86,0,3.3,1.52,3.3,3.33s-1.4,3.36-3.27,3.36c-1,0-1.86-.41-2.55-1.25v3.42h-.82v-8.7h.82v1.16Zm-.06,2.05c0,1.58,1.22,2.57,2.53,2.57,1.42,0,2.52-1.2,2.52-2.59s-1.06-2.57-2.52-2.57-2.53,1.12-2.53,2.59Z"/>
          <path class="cls-1" d="m110.1,106.58c.04,1.46,1.03,2.53,2.4,2.53s1.97-.76,2.43-1.52l.68.36c-.65,1.27-1.64,1.91-3.03,1.91-2.11,0-3.32-1.62-3.32-3.32s1.28-3.37,3.27-3.37c1.81,0,3.27,1.31,3.3,3.42h-5.73Zm4.83-.72c-.34-1.32-1.28-1.91-2.39-1.91s-1.99.61-2.36,1.91h4.75Z"/>
          <path class="cls-1" d="m117.9,104.25c.48-.7,1-1.09,1.64-1.09.37,0,.56.12.73.22l-.43.7c-.1-.05-.25-.12-.43-.12-.6,0-1.14.52-1.38,1.39-.11.41-.13,1.07-.13,1.93v2.42h-.86v-6.37h.86v.92Z"/>
          <path class="cls-1" d="m126.51,103.33h.8v6.37h-.8v-1.09c-.7.84-1.57,1.25-2.57,1.25-1.86,0-3.26-1.55-3.26-3.36s1.44-3.33,3.29-3.33c1.03,0,1.91.44,2.54,1.33v-1.16Zm-4.99,3.19c0,1.38,1.08,2.59,2.51,2.59,1.31,0,2.54-.98,2.54-2.57,0-1.48-1.1-2.59-2.53-2.59s-2.52,1.2-2.52,2.57Z"/>
          <path class="cls-1" d="m129.9,100.96h.82v2.37h1.31v.72h-1.31v5.65h-.82v-5.65h-1.13v-.72h1.13v-2.37Z"/>
          <path class="cls-1" d="m134.2,101.38c0,.37-.31.68-.68.68s-.67-.31-.67-.68.31-.67.67-.67.68.3.68.67Zm-1.08,1.95h.82v6.37h-.82v-6.37Z"/>
          <path class="cls-1" d="m135.03,103.33h.88l2.13,4.63,2.11-4.63h.88l-2.91,6.37h-.14l-2.94-6.37Z"/>
          <path class="cls-1" d="m147.82,103.33h.8v6.37h-.8v-1.09c-.7.84-1.57,1.25-2.57,1.25-1.86,0-3.26-1.55-3.26-3.36s1.44-3.33,3.29-3.33c1.03,0,1.91.44,2.54,1.33v-1.16Zm-4.99,3.19c0,1.38,1.08,2.59,2.51,2.59,1.31,0,2.54-.98,2.54-2.57,0-1.48-1.1-2.59-2.53-2.59s-2.52,1.2-2.52,2.57Z"/>
          <path class="cls-1" d="m150.39,108.37c.41.46.85.71,1.33.71.62,0,1.17-.46,1.17-1.06,0-.37-.22-.72-.53-.89-1.46-.82-2.21-1.16-2.21-2.28,0-1.01.78-1.69,1.75-1.69.7,0,1.22.34,1.76.86l-.53.54c-.38-.37-.77-.61-1.28-.61s-.96.37-.96.85c0,.32.2.68.49.85,1.46.85,2.28,1.18,2.28,2.33,0,1-.77,1.88-1.92,1.88-.71,0-1.43-.32-1.88-.91l.52-.59Z"/>
          <path class="cls-1" d="m155.96,108.12l.78.37-1.19,2.22-.58-.24.98-2.35Z"/>
          <path class="cls-1" d="m175.83,108.37c.41.46.85.71,1.33.71.62,0,1.17-.46,1.17-1.06,0-.37-.22-.72-.53-.89-1.46-.82-2.21-1.16-2.21-2.28,0-1.01.78-1.69,1.75-1.69.7,0,1.22.34,1.76.86l-.53.54c-.38-.37-.77-.61-1.28-.61s-.96.37-.96.85c0,.32.2.68.49.85,1.46.85,2.28,1.18,2.28,2.33,0,1-.77,1.88-1.92,1.88-.71,0-1.43-.32-1.88-.91l.52-.59Z"/>
          <path class="cls-1" d="m186.91,106.53c0,1.81-1.4,3.33-3.32,3.33s-3.32-1.52-3.32-3.33,1.42-3.37,3.32-3.37,3.32,1.55,3.32,3.37Zm-5.8.01c0,1.39,1.04,2.53,2.48,2.53s2.48-1.14,2.48-2.53-1.13-2.59-2.48-2.59-2.48,1.18-2.48,2.59Z"/>
          <path class="cls-1" d="m189.25,104.47c.66-.86,1.45-1.31,2.39-1.31,1.39,0,2.36.96,2.36,2.96v3.57h-.82v-3.47c0-1.5-.47-2.33-1.7-2.33-.68,0-1.25.3-1.68.86-.48.62-.55,1.25-.55,2.25v2.67h-.82v-6.37h.82v1.14Z"/>
          <path class="cls-1" d="m45.57,117.73h.8v6.37h-.8v-1.09c-.7.84-1.57,1.25-2.57,1.25-1.86,0-3.26-1.55-3.26-3.36s1.44-3.33,3.29-3.33c1.03,0,1.91.44,2.54,1.33v-1.16Zm-4.99,3.19c0,1.38,1.08,2.59,2.51,2.59,1.31,0,2.54-.98,2.54-2.57,0-1.48-1.1-2.59-2.53-2.59s-2.52,1.2-2.52,2.57Z"/>
          <path class="cls-1" d="m48.15,122.77c.41.46.85.71,1.33.71.62,0,1.17-.46,1.17-1.06,0-.37-.22-.72-.53-.89-1.46-.82-2.21-1.16-2.21-2.28,0-1.01.78-1.69,1.75-1.69.7,0,1.22.34,1.76.86l-.53.54c-.38-.37-.77-.61-1.28-.61s-.96.37-.96.85c0,.32.2.68.49.85,1.46.85,2.28,1.18,2.28,2.33,0,1-.77,1.88-1.92,1.88-.71,0-1.43-.32-1.88-.91l.52-.59Z"/>
          <path class="cls-1" d="m59.23,120.93c0,1.81-1.4,3.33-3.32,3.33s-3.32-1.52-3.32-3.33,1.42-3.37,3.32-3.37,3.32,1.55,3.32,3.37Zm-5.8.01c0,1.39,1.04,2.53,2.48,2.53s2.48-1.14,2.48-2.53-1.13-2.59-2.48-2.59-2.48,1.18-2.48,2.59Z"/>
          <path class="cls-1" d="m66.94,122.82c-.62.95-1.7,1.44-2.99,1.44-2.1,0-3.5-1.51-3.5-3.29,0-1.87,1.46-3.41,3.56-3.41,1.22,0,2.34.5,2.93,1.49l-.66.41c-.56-.74-1.34-1.1-2.3-1.1-1.62,0-2.69,1.19-2.69,2.55s1.06,2.6,2.7,2.6c.92,0,1.69-.37,2.29-1.12l.66.42Z"/>
          <path class="cls-1" d="m69.48,115.78c0,.37-.31.68-.68.68s-.67-.31-.67-.68.31-.67.67-.67.68.3.68.67Zm-1.08,1.95h.82v6.37h-.82v-6.37Z"/>
          <path class="cls-1" d="m76.45,117.73h.8v6.37h-.8v-1.09c-.7.84-1.57,1.25-2.57,1.25-1.86,0-3.26-1.55-3.26-3.36s1.44-3.33,3.29-3.33c1.03,0,1.91.44,2.54,1.33v-1.16Zm-4.99,3.19c0,1.38,1.08,2.59,2.51,2.59,1.31,0,2.54-.98,2.54-2.57,0-1.48-1.1-2.59-2.53-2.59s-2.52,1.2-2.52,2.57Z"/>
          <path class="cls-1" d="m85.29,122.82c-.62.95-1.7,1.44-2.99,1.44-2.1,0-3.5-1.51-3.5-3.29,0-1.87,1.46-3.41,3.56-3.41,1.22,0,2.34.5,2.93,1.49l-.66.41c-.56-.74-1.34-1.1-2.3-1.1-1.62,0-2.69,1.19-2.69,2.55s1.06,2.6,2.7,2.6c.92,0,1.69-.37,2.29-1.12l.66.42Z"/>
          <path class="cls-1" d="m87.84,115.78c0,.37-.31.68-.68.68s-.67-.31-.67-.68.31-.67.67-.67.68.3.68.67Zm-1.08,1.95h.82v6.37h-.82v-6.37Z"/>
          <path class="cls-1" d="m95.61,120.93c0,1.81-1.4,3.33-3.32,3.33s-3.32-1.52-3.32-3.33,1.42-3.37,3.32-3.37,3.32,1.55,3.32,3.37Zm-5.8.01c0,1.39,1.04,2.53,2.48,2.53s2.48-1.14,2.48-2.53-1.13-2.59-2.48-2.59-2.48,1.18-2.48,2.59Z"/>
          <path class="cls-1" d="m97.95,118.87c.66-.86,1.45-1.31,2.39-1.31,1.39,0,2.36.96,2.36,2.96v3.57h-.82v-3.47c0-1.5-.47-2.33-1.7-2.33-.68,0-1.25.3-1.68.86-.48.62-.55,1.25-.55,2.25v2.67h-.82v-6.37h.82v1.14Z"/>
          <path class="cls-1" d="m104.99,120.98c.04,1.46,1.03,2.53,2.4,2.53s1.97-.76,2.43-1.52l.68.36c-.65,1.27-1.64,1.91-3.03,1.91-2.11,0-3.32-1.62-3.32-3.32s1.28-3.37,3.27-3.37c1.81,0,3.27,1.31,3.3,3.42h-5.73Zm4.83-.72c-.33-1.32-1.28-1.91-2.39-1.91s-1.99.61-2.36,1.91h4.75Z"/>
          <path class="cls-1" d="m112.17,122.77c.41.46.85.71,1.33.71.62,0,1.17-.46,1.17-1.06,0-.37-.22-.72-.53-.89-1.46-.82-2.21-1.16-2.21-2.28,0-1.01.78-1.69,1.75-1.69.7,0,1.22.34,1.76.86l-.53.54c-.38-.37-.77-.61-1.28-.61s-.96.37-.96.85c0,.32.2.68.49.85,1.46.85,2.28,1.18,2.28,2.33,0,1-.77,1.88-1.92,1.88-.71,0-1.43-.32-1.88-.91l.52-.59Z"/>
          <path class="cls-1" d="m146.54,117.73h.8v6.37h-.8v-1.09c-.7.84-1.57,1.25-2.57,1.25-1.86,0-3.26-1.55-3.26-3.36s1.44-3.33,3.29-3.33c1.03,0,1.91.44,2.54,1.33v-1.16Zm-4.99,3.19c0,1.38,1.08,2.59,2.51,2.59,1.31,0,2.54-.98,2.54-2.57,0-1.48-1.1-2.59-2.53-2.59s-2.52,1.2-2.52,2.57Z"/>
          <path class="cls-1" d="m153.82,117.73h.86v3.3c0,2.15-.97,3.23-2.79,3.23s-2.81-1.08-2.81-3.23v-3.3h.86v3.11c0,.67,0,1.22.18,1.61.3.65.96,1.02,1.76,1.02.59,0,1.1-.22,1.44-.56.5-.54.49-1.15.49-2.06v-3.11Z"/>
          <path class="cls-1" d="m157.22,115.36h.82v2.37h1.31v.72h-1.31v5.65h-.82v-5.65h-1.13v-.72h1.13v-2.37Z"/>
          <path class="cls-1" d="m166.9,120.93c0,1.81-1.4,3.33-3.32,3.33s-3.32-1.52-3.32-3.33,1.42-3.37,3.32-3.37,3.32,1.55,3.32,3.37Zm-5.8.01c0,1.39,1.04,2.53,2.48,2.53s2.48-1.14,2.48-2.53-1.13-2.59-2.48-2.59-2.48,1.18-2.48,2.59Zm2.88-6.21h1.26l-1.74,1.81h-.8l1.28-1.81Z"/>
          <path class="cls-1" d="m169.23,118.87c.66-.86,1.45-1.31,2.39-1.31,1.39,0,2.36.96,2.36,2.96v3.57h-.82v-3.47c0-1.5-.47-2.33-1.7-2.33-.68,0-1.25.3-1.68.86-.48.62-.55,1.25-.55,2.25v2.67h-.82v-6.37h.82v1.14Z"/>
          <path class="cls-1" d="m182.08,120.93c0,1.81-1.4,3.33-3.32,3.33s-3.32-1.52-3.32-3.33,1.42-3.37,3.32-3.37,3.32,1.55,3.32,3.37Zm-5.8.01c0,1.39,1.04,2.53,2.48,2.53s2.48-1.14,2.48-2.53-1.13-2.59-2.48-2.59-2.48,1.18-2.48,2.59Z"/>
          <path class="cls-1" d="m188.74,124.1h-.82v-3.26c0-.49-.05-.9-.06-1.19-.04-.7-.6-1.29-1.44-1.29-.56,0-1.13.28-1.49.74-.46.59-.54,1.34-.54,2.3v2.7h-.82v-6.37h.82v1.09c.56-.82,1.27-1.26,2.18-1.26.97,0,1.67.5,2.02,1.54.56-1.02,1.4-1.54,2.34-1.54,1.32,0,2.17.95,2.17,2.76v3.78h-.82v-3.48c0-.47-.06-.84-.07-1.08-.04-.56-.58-1.19-1.44-1.19-.79,0-1.49.48-1.81,1.29-.2.52-.23,1.08-.23,1.67v2.78Z"/>
          <path class="cls-1" d="m200.39,117.73h.8v6.37h-.8v-1.09c-.7.84-1.57,1.25-2.57,1.25-1.86,0-3.26-1.55-3.26-3.36s1.44-3.33,3.29-3.33c1.03,0,1.91.44,2.54,1.33v-1.16Zm-4.99,3.19c0,1.38,1.08,2.59,2.51,2.59,1.31,0,2.54-.98,2.54-2.57,0-1.48-1.1-2.59-2.53-2.59s-2.52,1.2-2.52,2.57Z"/>
          <path class="cls-1" d="m202.96,122.77c.41.46.85.71,1.33.71.62,0,1.17-.46,1.17-1.06,0-.37-.22-.72-.53-.89-1.46-.82-2.21-1.16-2.21-2.28,0-1.01.78-1.69,1.75-1.69.7,0,1.22.34,1.76.86l-.53.54c-.38-.37-.77-.61-1.28-.61s-.96.37-.96.85c0,.32.2.68.49.85,1.46.85,2.28,1.18,2.28,2.33,0,1-.77,1.88-1.92,1.88-.71,0-1.43-.32-1.88-.91l.52-.59Z"/>
          <path class="cls-1" d="m237.34,123.01c-.7.84-1.57,1.25-2.57,1.25-1.86,0-3.26-1.55-3.26-3.36s1.44-3.33,3.29-3.33c1.03,0,1.91.44,2.54,1.33v-3.62h.82v8.83h-.82v-1.09Zm-4.99-2.09c0,1.38,1.08,2.59,2.51,2.59,1.31,0,2.53-.98,2.53-2.57,0-1.48-1.09-2.59-2.52-2.59s-2.52,1.2-2.52,2.57Z"/>
          <path class="cls-1" d="m240.55,120.98c.04,1.46,1.03,2.53,2.4,2.53s1.97-.76,2.43-1.52l.68.36c-.65,1.27-1.64,1.91-3.03,1.91-2.11,0-3.32-1.62-3.32-3.32s1.28-3.37,3.27-3.37c1.81,0,3.27,1.31,3.3,3.42h-5.73Zm4.83-.72c-.33-1.32-1.28-1.91-2.39-1.91s-1.99.61-2.36,1.91h4.75Z"/>
          <path class="cls-1" d="m40.86,133.29c.64-.89,1.51-1.33,2.53-1.33,1.86,0,3.3,1.52,3.3,3.33s-1.4,3.36-3.27,3.36c-1,0-1.86-.41-2.55-1.25v3.42h-.82v-8.7h.82v1.16Zm-.06,2.05c0,1.58,1.22,2.57,2.53,2.57,1.42,0,2.52-1.2,2.52-2.59s-1.06-2.57-2.52-2.57-2.53,1.12-2.53,2.59Z"/>
          <path class="cls-1" d="m48.76,135.38c.04,1.46,1.03,2.53,2.4,2.53s1.97-.76,2.43-1.52l.68.36c-.65,1.27-1.64,1.91-3.03,1.91-2.11,0-3.32-1.62-3.32-3.32s1.28-3.37,3.27-3.37c1.81,0,3.27,1.31,3.3,3.42h-5.73Zm4.83-.72c-.34-1.32-1.28-1.91-2.39-1.91s-1.99.61-2.36,1.91h4.75Z"/>
          <path class="cls-1" d="m56.56,133.05c.48-.7,1-1.09,1.64-1.09.37,0,.56.12.73.22l-.43.7c-.1-.05-.25-.12-.43-.12-.6,0-1.14.52-1.38,1.39-.11.41-.13,1.07-.13,1.93v2.42h-.86v-6.37h.86v.92Z"/>
          <path class="cls-1" d="m59.54,137.17c.41.46.85.71,1.33.71.62,0,1.17-.46,1.17-1.06,0-.37-.22-.72-.53-.89-1.46-.82-2.21-1.16-2.21-2.28,0-1.01.78-1.69,1.75-1.69.7,0,1.22.34,1.76.86l-.53.54c-.38-.37-.77-.61-1.28-.61s-.96.37-.96.85c0,.32.2.68.49.85,1.46.85,2.28,1.18,2.28,2.33,0,1-.77,1.88-1.92,1.88-.71,0-1.43-.32-1.88-.91l.52-.59Z"/>
          <path class="cls-1" d="m70.63,135.33c0,1.81-1.4,3.33-3.32,3.33s-3.32-1.52-3.32-3.33,1.42-3.37,3.32-3.37,3.32,1.55,3.32,3.37Zm-5.8.01c0,1.39,1.04,2.53,2.48,2.53s2.48-1.14,2.48-2.53-1.13-2.59-2.48-2.59-2.48,1.18-2.48,2.59Z"/>
          <path class="cls-1" d="m72.96,133.27c.66-.86,1.45-1.31,2.39-1.31,1.39,0,2.36.96,2.36,2.96v3.57h-.82v-3.47c0-1.5-.47-2.33-1.7-2.33-.68,0-1.25.3-1.68.86-.48.62-.55,1.25-.55,2.25v2.67h-.82v-6.37h.82v1.14Z"/>
          <path class="cls-1" d="m85.01,132.13h.8v6.37h-.8v-1.09c-.7.84-1.57,1.25-2.57,1.25-1.86,0-3.26-1.55-3.26-3.36s1.44-3.33,3.29-3.33c1.03,0,1.91.44,2.54,1.33v-1.16Zm-4.99,3.19c0,1.38,1.08,2.59,2.51,2.59,1.31,0,2.54-.98,2.54-2.57,0-1.48-1.1-2.59-2.53-2.59s-2.52,1.2-2.52,2.57Z"/>
          <path class="cls-1" d="m87.58,137.17c.41.46.85.71,1.33.71.62,0,1.17-.46,1.17-1.06,0-.37-.22-.72-.53-.89-1.46-.82-2.21-1.16-2.21-2.28,0-1.01.78-1.69,1.75-1.69.7,0,1.22.34,1.76.86l-.53.54c-.38-.37-.77-.61-1.28-.61s-.96.37-.96.85c0,.32.2.68.49.85,1.46.85,2.28,1.18,2.28,2.33,0,1-.77,1.88-1.92,1.88-.71,0-1.43-.32-1.88-.91l.52-.59Z"/>
          <path class="cls-1" d="m113.82,132.13h.82v8.7h-.82v-3.42c-.7.84-1.57,1.25-2.57,1.25-1.86,0-3.26-1.55-3.26-3.36s1.44-3.33,3.29-3.33c1.03,0,1.91.44,2.54,1.33v-1.16Zm-4.99,3.19c0,1.38,1.08,2.59,2.51,2.59,1.31,0,2.53-.98,2.53-2.57,0-1.48-1.09-2.59-2.52-2.59s-2.52,1.2-2.52,2.57Z"/>
          <path class="cls-1" d="m121.09,132.13h.86v3.3c0,2.15-.97,3.23-2.79,3.23s-2.81-1.08-2.81-3.23v-3.3h.86v3.11c0,.67,0,1.22.18,1.61.3.65.96,1.02,1.76,1.02.59,0,1.1-.22,1.44-.56.5-.54.49-1.15.49-2.06v-3.11Z"/>
          <path class="cls-1" d="m124.29,135.38c.04,1.46,1.03,2.53,2.4,2.53s1.97-.76,2.43-1.52l.68.36c-.65,1.27-1.64,1.91-3.03,1.91-2.11,0-3.32-1.62-3.32-3.32s1.28-3.37,3.27-3.37c1.81,0,3.27,1.31,3.3,3.42h-5.73Zm4.83-.72c-.33-1.32-1.28-1.91-2.39-1.91s-1.99.61-2.36,1.91h4.75Z"/>
          <path class="cls-1" d="m147.43,137.17c.41.46.85.71,1.33.71.62,0,1.17-.46,1.17-1.06,0-.37-.22-.72-.53-.89-1.46-.82-2.21-1.16-2.21-2.28,0-1.01.78-1.69,1.75-1.69.7,0,1.22.34,1.76.86l-.53.54c-.38-.37-.77-.61-1.28-.61s-.96.37-.96.85c0,.32.2.68.49.85,1.46.85,2.28,1.18,2.28,2.33,0,1-.77,1.88-1.92,1.88-.71,0-1.43-.32-1.88-.91l.52-.59Z"/>
          <path class="cls-1" d="m152.71,135.38c.04,1.46,1.03,2.53,2.4,2.53s1.97-.76,2.43-1.52l.68.36c-.65,1.27-1.64,1.91-3.03,1.91-2.11,0-3.32-1.62-3.32-3.32s1.28-3.37,3.27-3.37c1.81,0,3.27,1.31,3.3,3.42h-5.73Zm4.83-.72c-.33-1.32-1.28-1.91-2.39-1.91s-1.99.61-2.36,1.91h4.75Z"/>
          <path class="cls-1" d="m175.92,129.67h.82v3.6c.66-.86,1.44-1.31,2.39-1.31,1.38,0,2.35.97,2.35,2.88v3.66h-.82v-3.47c0-1.5-.46-2.33-1.69-2.33-.68,0-1.25.3-1.68.86-.47.61-.55,1.24-.55,2.25v2.67h-.82v-8.83Z"/>
          <path class="cls-1" d="m188.78,132.13h.8v6.37h-.8v-1.09c-.7.84-1.57,1.25-2.57,1.25-1.86,0-3.26-1.55-3.26-3.36s1.44-3.33,3.29-3.33c1.03,0,1.91.44,2.54,1.33v-1.16Zm-4.99,3.19c0,1.38,1.08,2.59,2.51,2.59,1.31,0,2.54-.98,2.54-2.57,0-1.48-1.1-2.59-2.53-2.59s-2.52,1.2-2.52,2.57Z"/>
          <path class="cls-1" d="m192.26,133.27c.66-.86,1.45-1.31,2.39-1.31,1.39,0,2.36.96,2.36,2.96v3.57h-.82v-3.47c0-1.5-.47-2.33-1.7-2.33-.68,0-1.25.3-1.68.86-.48.62-.55,1.25-.55,2.25v2.67h-.82v-6.37h.82v1.14Z"/>
          <path class="cls-1" d="m219.35,132.13h.86v3.3c0,2.15-.97,3.23-2.79,3.23s-2.81-1.08-2.81-3.23v-3.3h.86v3.11c0,.67,0,1.22.18,1.61.3.65.96,1.02,1.76,1.02.59,0,1.1-.22,1.44-.56.5-.54.49-1.15.49-2.06v-3.11Z"/>
          <path class="cls-1" d="m222.83,133.27c.66-.86,1.45-1.31,2.39-1.31,1.39,0,2.36.96,2.36,2.96v3.57h-.82v-3.47c0-1.5-.47-2.33-1.7-2.33-.68,0-1.25.3-1.68.86-.48.62-.55,1.25-.55,2.25v2.67h-.82v-6.37h.82v1.14Z"/>
          <path class="cls-1" d="m230.3,130.18c0,.37-.31.68-.68.68s-.67-.31-.67-.68.31-.67.67-.67.68.3.68.67Zm-1.08,1.95h.82v6.37h-.82v-6.37Z"/>
          <path class="cls-1" d="m237.28,137.41c-.7.84-1.57,1.25-2.57,1.25-1.86,0-3.26-1.55-3.26-3.36s1.44-3.33,3.29-3.33c1.03,0,1.91.44,2.54,1.33v-3.62h.82v8.83h-.82v-1.09Zm-4.99-2.09c0,1.38,1.08,2.59,2.51,2.59,1.31,0,2.53-.98,2.53-2.57,0-1.48-1.09-2.59-2.52-2.59s-2.52,1.2-2.52,2.57Z"/>
          <path class="cls-1" d="m246.3,135.33c0,1.81-1.4,3.33-3.32,3.33s-3.32-1.52-3.32-3.33,1.42-3.37,3.32-3.37,3.32,1.55,3.32,3.37Zm-5.8.01c0,1.39,1.04,2.53,2.48,2.53s2.48-1.14,2.48-2.53-1.13-2.59-2.48-2.59-2.48,1.18-2.48,2.59Z"/>
          <path class="cls-1" d="m39.43,146.53h.88l2.13,4.63,2.11-4.63h.88l-2.91,6.37h-.14l-2.94-6.37Z"/>
          <path class="cls-1" d="m53.02,149.73c0,1.81-1.4,3.33-3.32,3.33s-3.32-1.52-3.32-3.33,1.42-3.37,3.32-3.37,3.32,1.55,3.32,3.37Zm-5.8.01c0,1.39,1.04,2.53,2.48,2.53s2.48-1.14,2.48-2.53-1.13-2.59-2.48-2.59-2.48,1.18-2.48,2.59Z"/>
          <path class="cls-1" d="m54.42,144.07h.82v8.83h-.82v-8.83Z"/>
          <path class="cls-1" d="m61.57,146.53h.86v3.3c0,2.15-.97,3.23-2.79,3.23s-2.81-1.08-2.81-3.23v-3.3h.86v3.11c0,.67,0,1.22.18,1.61.3.65.96,1.02,1.76,1.02.59,0,1.1-.22,1.44-.56.5-.54.49-1.15.49-2.06v-3.11Z"/>
          <path class="cls-1" d="m65.05,147.67c.66-.86,1.45-1.31,2.39-1.31,1.39,0,2.36.96,2.36,2.96v3.57h-.82v-3.47c0-1.5-.47-2.33-1.7-2.33-.68,0-1.25.3-1.68.86-.48.62-.55,1.25-.55,2.25v2.67h-.82v-6.37h.82v1.14Z"/>
          <path class="cls-1" d="m72.29,144.16h.82v2.37h1.31v.72h-1.31v5.65h-.82v-5.65h-1.13v-.72h1.13v-2.37Z"/>
          <path class="cls-1" d="m81.17,146.53h.8v6.37h-.8v-1.09c-.7.84-1.57,1.25-2.57,1.25-1.86,0-3.26-1.55-3.26-3.36s1.44-3.33,3.29-3.33c1.03,0,1.91.44,2.54,1.33v-1.16Zm-4.99,3.19c0,1.38,1.08,2.59,2.51,2.59,1.31,0,2.54-.98,2.54-2.57,0-1.48-1.1-2.59-2.53-2.59s-2.52,1.2-2.52,2.57Z"/>
          <path class="cls-1" d="m84.36,147.45c.48-.7,1-1.09,1.64-1.09.37,0,.56.12.73.22l-.43.7c-.1-.05-.25-.12-.43-.12-.6,0-1.14.52-1.38,1.39-.11.41-.13,1.07-.13,1.93v2.42h-.86v-6.37h.86v.92Z"/>
          <path class="cls-1" d="m88.41,144.58c0,.37-.31.68-.68.68s-.67-.31-.67-.68.31-.67.67-.67.68.3.68.67Zm-1.08,1.95h.82v6.37h-.82v-6.37Z"/>
          <path class="cls-1" d="m95.38,146.53h.8v6.37h-.8v-1.09c-.7.84-1.57,1.25-2.57,1.25-1.86,0-3.26-1.55-3.26-3.36s1.44-3.33,3.29-3.33c1.03,0,1.91.44,2.54,1.33v-1.16Zm-4.99,3.19c0,1.38,1.08,2.59,2.51,2.59,1.31,0,2.54-.98,2.54-2.57,0-1.48-1.1-2.59-2.53-2.59s-2.52,1.2-2.52,2.57Z"/>
          <path class="cls-1" d="m103.18,152.9h-.82v-3.26c0-.49-.05-.9-.06-1.19-.04-.7-.6-1.29-1.44-1.29-.56,0-1.13.28-1.49.74-.46.59-.54,1.34-.54,2.3v2.7h-.82v-6.37h.82v1.09c.56-.82,1.27-1.26,2.18-1.26.97,0,1.67.5,2.02,1.54.56-1.02,1.4-1.54,2.34-1.54,1.32,0,2.17.95,2.17,2.76v3.78h-.82v-3.48c0-.47-.06-.84-.07-1.08-.04-.56-.58-1.19-1.44-1.19-.79,0-1.49.48-1.81,1.29-.2.52-.23,1.08-.23,1.67v2.78Z"/>
          <path class="cls-1" d="m109.83,149.78c.04,1.46,1.03,2.53,2.4,2.53s1.97-.76,2.43-1.52l.68.36c-.65,1.27-1.64,1.91-3.03,1.91-2.11,0-3.32-1.62-3.32-3.32s1.28-3.37,3.27-3.37c1.81,0,3.27,1.31,3.3,3.42h-5.73Zm4.83-.72c-.34-1.32-1.28-1.91-2.39-1.91s-1.99.61-2.36,1.91h4.75Z"/>
          <path class="cls-1" d="m117.9,147.67c.66-.86,1.45-1.31,2.39-1.31,1.39,0,2.36.96,2.36,2.96v3.57h-.82v-3.47c0-1.5-.47-2.33-1.7-2.33-.68,0-1.25.3-1.68.86-.48.62-.55,1.25-.55,2.25v2.67h-.82v-6.37h.82v1.14Z"/>
          <path class="cls-1" d="m125.14,144.16h.82v2.37h1.31v.72h-1.31v5.65h-.82v-5.65h-1.13v-.72h1.13v-2.37Z"/>
          <path class="cls-1" d="m129.02,149.78c.04,1.46,1.03,2.53,2.4,2.53s1.97-.76,2.43-1.52l.68.36c-.65,1.27-1.64,1.91-3.03,1.91-2.11,0-3.32-1.62-3.32-3.32s1.28-3.37,3.27-3.37c1.81,0,3.27,1.31,3.3,3.42h-5.73Zm4.83-.72c-.33-1.32-1.28-1.91-2.39-1.91s-1.99.61-2.36,1.91h4.75Z"/>
          <path class="cls-1" d="m141.88,147.69c.64-.89,1.51-1.33,2.53-1.33,1.86,0,3.3,1.52,3.3,3.33s-1.4,3.36-3.27,3.36c-1,0-1.86-.41-2.55-1.25v3.42h-.82v-8.7h.82v1.16Zm-.06,2.05c0,1.58,1.22,2.57,2.53,2.57,1.42,0,2.52-1.2,2.52-2.59s-1.06-2.57-2.52-2.57-2.53,1.12-2.53,2.59Z"/>
          <path class="cls-1" d="m154.78,146.53h.8v6.37h-.8v-1.09c-.7.84-1.57,1.25-2.57,1.25-1.86,0-3.26-1.55-3.26-3.36s1.44-3.33,3.29-3.33c1.03,0,1.91.44,2.54,1.33v-1.16Zm-4.99,3.19c0,1.38,1.08,2.59,2.51,2.59,1.31,0,2.54-.98,2.54-2.57,0-1.48-1.1-2.59-2.53-2.59s-2.52,1.2-2.52,2.57Z"/>
          <path class="cls-1" d="m157.97,147.45c.48-.7,1-1.09,1.64-1.09.37,0,.56.12.73.22l-.43.7c-.1-.05-.25-.12-.43-.12-.6,0-1.14.52-1.38,1.39-.11.41-.13,1.07-.13,1.93v2.42h-.86v-6.37h.86v.92Z"/>
          <path class="cls-1" d="m166.59,146.53h.8v6.37h-.8v-1.09c-.7.84-1.57,1.25-2.57,1.25-1.86,0-3.26-1.55-3.26-3.36s1.44-3.33,3.29-3.33c1.03,0,1.91.44,2.54,1.33v-1.16Zm-4.99,3.19c0,1.38,1.08,2.59,2.51,2.59,1.31,0,2.54-.98,2.54-2.57,0-1.48-1.1-2.59-2.53-2.59s-2.52,1.2-2.52,2.57Z"/>
          <path class="cls-1" d="m174.02,144.07h.82v3.6c.66-.86,1.44-1.31,2.39-1.31,1.38,0,2.35.97,2.35,2.88v3.66h-.82v-3.47c0-1.5-.46-2.33-1.69-2.33-.68,0-1.25.3-1.68.86-.47.61-.55,1.24-.55,2.25v2.67h-.82v-8.83Z"/>
          <path class="cls-1" d="m186.88,146.53h.8v6.37h-.8v-1.09c-.7.84-1.57,1.25-2.57,1.25-1.86,0-3.26-1.55-3.26-3.36s1.44-3.33,3.29-3.33c1.03,0,1.91.44,2.54,1.33v-1.16Zm-4.99,3.19c0,1.38,1.08,2.59,2.51,2.59,1.31,0,2.54-.98,2.54-2.57,0-1.48-1.1-2.59-2.53-2.59s-2.52,1.2-2.52,2.57Z"/>
          <path class="cls-1" d="m195.73,151.62c-.62.95-1.7,1.44-2.99,1.44-2.1,0-3.5-1.51-3.5-3.29,0-1.87,1.46-3.41,3.56-3.41,1.22,0,2.34.5,2.93,1.49l-.66.41c-.56-.74-1.34-1.1-2.3-1.1-1.62,0-2.69,1.19-2.69,2.55s1.06,2.6,2.7,2.6c.92,0,1.69-.37,2.29-1.12l.66.42Z"/>
          <path class="cls-1" d="m197.84,149.78c.04,1.46,1.03,2.53,2.4,2.53s1.97-.76,2.43-1.52l.68.36c-.65,1.27-1.64,1.91-3.03,1.91-2.11,0-3.32-1.62-3.32-3.32s1.28-3.37,3.27-3.37c1.81,0,3.27,1.31,3.3,3.42h-5.73Zm4.83-.72c-.34-1.32-1.28-1.91-2.39-1.91s-1.99.61-2.36,1.91h4.75Z"/>
          <path class="cls-1" d="m205.64,147.45c.48-.7,1-1.09,1.64-1.09.37,0,.56.12.73.22l-.43.7c-.1-.05-.25-.12-.43-.12-.6,0-1.14.52-1.38,1.39-.11.41-.13,1.07-.13,1.93v2.42h-.86v-6.37h.86v.92Z"/>
          <path class="cls-1" d="m213.87,145.53c0-1.03.25-1.64,1.3-1.64.35,0,.67.1.94.18v.8c-.19-.08-.44-.19-.77-.19-.67,0-.65.41-.65.98v.86h1.34v.72h-1.34v5.65h-.82v-5.65h-.84v-.72h.84v-1Z"/>
          <path class="cls-1" d="m217.8,147.45c.48-.7,1-1.09,1.64-1.09.37,0,.56.12.73.22l-.43.7c-.1-.05-.25-.12-.43-.12-.6,0-1.14.52-1.38,1.39-.11.41-.13,1.07-.13,1.93v2.42h-.86v-6.37h.86v.92Z"/>
          <path class="cls-1" d="m221.36,149.78c.04,1.46,1.03,2.53,2.4,2.53s1.97-.76,2.43-1.52l.68.36c-.65,1.27-1.64,1.91-3.03,1.91-2.11,0-3.32-1.62-3.32-3.32s1.28-3.37,3.27-3.37c1.81,0,3.27,1.31,3.3,3.42h-5.73Zm4.83-.72c-.34-1.32-1.28-1.91-2.39-1.91s-1.99.61-2.36,1.91h4.75Z"/>
          <path class="cls-1" d="m229.44,147.67c.66-.86,1.45-1.31,2.39-1.31,1.39,0,2.36.96,2.36,2.96v3.57h-.82v-3.47c0-1.5-.47-2.33-1.7-2.33-.68,0-1.25.3-1.68.86-.48.62-.55,1.25-.55,2.25v2.67h-.82v-6.37h.82v1.14Z"/>
          <path class="cls-1" d="m236.67,144.16h.82v2.37h1.31v.72h-1.31v5.65h-.82v-5.65h-1.13v-.72h1.13v-2.37Z"/>
          <path class="cls-1" d="m240.55,149.78c.04,1.46,1.03,2.53,2.4,2.53s1.97-.76,2.43-1.52l.68.36c-.65,1.27-1.64,1.91-3.03,1.91-2.11,0-3.32-1.62-3.32-3.32s1.28-3.37,3.27-3.37c1.81,0,3.27,1.31,3.3,3.42h-5.73Zm4.83-.72c-.34-1.32-1.28-1.91-2.39-1.91s-1.99.61-2.36,1.91h4.75Z"/>
          <path class="cls-1" d="m45.57,160.93h.8v6.37h-.8v-1.09c-.7.84-1.57,1.25-2.57,1.25-1.86,0-3.26-1.55-3.26-3.36s1.44-3.33,3.29-3.33c1.03,0,1.91.44,2.54,1.33v-1.16Zm-4.99,3.19c0,1.38,1.08,2.59,2.51,2.59,1.31,0,2.54-.98,2.54-2.57,0-1.48-1.1-2.59-2.53-2.59s-2.52,1.2-2.52,2.57Z"/>
          <path class="cls-1" d="m55.31,165.97c.41.46.85.71,1.33.71.62,0,1.17-.46,1.17-1.06,0-.37-.22-.72-.53-.89-1.46-.82-2.21-1.16-2.21-2.28,0-1.01.78-1.69,1.75-1.69.7,0,1.22.34,1.76.86l-.53.54c-.38-.37-.77-.61-1.28-.61s-.96.37-.96.85c0,.32.2.68.49.85,1.46.85,2.28,1.18,2.28,2.33,0,1-.77,1.88-1.92,1.88-.71,0-1.43-.32-1.88-.91l.52-.59Z"/>
          <path class="cls-1" d="m64.68,160.93h.86v3.3c0,2.15-.97,3.23-2.79,3.23s-2.81-1.08-2.81-3.23v-3.3h.86v3.11c0,.67,0,1.22.18,1.61.3.65.96,1.02,1.76,1.02.59,0,1.1-.22,1.44-.56.5-.54.49-1.15.49-2.06v-3.11Z"/>
          <path class="cls-1" d="m67.26,165.97c.41.46.85.71,1.33.71.62,0,1.17-.46,1.17-1.06,0-.37-.22-.72-.53-.89-1.46-.82-2.21-1.16-2.21-2.28,0-1.01.78-1.69,1.75-1.69.7,0,1.22.34,1.76.86l-.53.54c-.38-.37-.77-.61-1.28-.61s-.96.37-.96.85c0,.32.2.68.49.85,1.46.85,2.28,1.18,2.28,2.33,0,1-.77,1.88-1.92,1.88-.71,0-1.43-.32-1.88-.91l.52-.59Z"/>
          <path class="cls-1" d="m79.99,162.07c.66-.86,1.45-1.31,2.39-1.31,1.39,0,2.36.96,2.36,2.96v3.57h-.82v-3.47c0-1.5-.47-2.33-1.7-2.33-.68,0-1.25.3-1.68.86-.48.62-.55,1.25-.55,2.25v2.67h-.82v-6.37h.82v1.14Z"/>
          <path class="cls-1" d="m87.03,164.18c.04,1.46,1.03,2.53,2.4,2.53s1.97-.76,2.43-1.52l.68.36c-.65,1.27-1.64,1.91-3.03,1.91-2.11,0-3.32-1.62-3.32-3.32s1.28-3.37,3.27-3.37c1.81,0,3.27,1.31,3.3,3.42h-5.73Zm4.83-.72c-.33-1.32-1.28-1.91-2.39-1.91s-1.99.61-2.36,1.91h4.75Z"/>
          <path class="cls-1" d="m100.48,166.02c-.62.95-1.7,1.44-2.99,1.44-2.1,0-3.5-1.51-3.5-3.29,0-1.87,1.46-3.41,3.56-3.41,1.22,0,2.34.5,2.93,1.49l-.66.41c-.56-.74-1.34-1.1-2.3-1.1-1.62,0-2.69,1.19-2.69,2.55s1.06,2.6,2.7,2.6c.92,0,1.69-.37,2.29-1.12l.66.42Z"/>
          <path class="cls-1" d="m102.59,164.18c.04,1.46,1.03,2.53,2.4,2.53s1.97-.76,2.43-1.52l.68.36c-.65,1.27-1.64,1.91-3.03,1.91-2.11,0-3.32-1.62-3.32-3.32s1.28-3.37,3.27-3.37c1.81,0,3.27,1.31,3.3,3.42h-5.73Zm4.83-.72c-.34-1.32-1.28-1.91-2.39-1.91s-1.99.61-2.36,1.91h4.75Z"/>
          <path class="cls-1" d="m109.77,165.97c.41.46.85.71,1.33.71.62,0,1.17-.46,1.17-1.06,0-.37-.22-.72-.53-.89-1.46-.82-2.21-1.16-2.21-2.28,0-1.01.78-1.69,1.75-1.69.7,0,1.22.34,1.76.86l-.53.54c-.38-.37-.77-.61-1.28-.61s-.96.37-.96.85c0,.32.2.68.49.85,1.46.85,2.28,1.18,2.28,2.33,0,1-.77,1.88-1.92,1.88-.71,0-1.43-.32-1.88-.91l.52-.59Z"/>
          <path class="cls-1" d="m115.48,158.98c0,.37-.31.68-.68.68s-.67-.31-.67-.68.31-.67.67-.67.68.3.68.67Zm-1.08,1.95h.82v6.37h-.82v-6.37Z"/>
          <path class="cls-1" d="m122.46,166.21c-.7.84-1.57,1.25-2.57,1.25-1.86,0-3.26-1.55-3.26-3.36s1.44-3.33,3.29-3.33c1.03,0,1.91.44,2.54,1.33v-3.62h.82v8.83h-.82v-1.09Zm-4.99-2.09c0,1.38,1.08,2.59,2.51,2.59,1.31,0,2.53-.98,2.53-2.57,0-1.48-1.09-2.59-2.52-2.59s-2.52,1.2-2.52,2.57Z"/>
          <path class="cls-1" d="m130.67,160.93h.8v6.37h-.8v-1.09c-.7.84-1.57,1.25-2.57,1.25-1.86,0-3.26-1.55-3.26-3.36s1.44-3.33,3.29-3.33c1.03,0,1.91.44,2.54,1.33v-1.16Zm-4.99,3.19c0,1.38,1.08,2.59,2.51,2.59,1.31,0,2.54-.98,2.54-2.57,0-1.48-1.1-2.59-2.53-2.59s-2.52,1.2-2.52,2.57Z"/>
          <path class="cls-1" d="m138.88,166.21c-.7.84-1.57,1.25-2.57,1.25-1.86,0-3.26-1.55-3.26-3.36s1.44-3.33,3.29-3.33c1.03,0,1.91.44,2.54,1.33v-3.62h.82v8.83h-.82v-1.09Zm-4.99-2.09c0,1.38,1.08,2.59,2.51,2.59,1.31,0,2.53-.98,2.53-2.57,0-1.48-1.09-2.59-2.52-2.59s-2.52,1.2-2.52,2.57Z"/>
          <path class="cls-1" d="m142.08,164.18c.04,1.46,1.03,2.53,2.4,2.53s1.97-.76,2.43-1.52l.68.36c-.65,1.27-1.64,1.91-3.03,1.91-2.11,0-3.32-1.62-3.32-3.32s1.28-3.37,3.27-3.37c1.81,0,3.27,1.31,3.3,3.42h-5.73Zm4.83-.72c-.34-1.32-1.28-1.91-2.39-1.91s-1.99.61-2.36,1.91h4.75Z"/>
          <path class="cls-1" d="m149.26,165.97c.41.46.85.71,1.33.71.62,0,1.17-.46,1.17-1.06,0-.37-.22-.72-.53-.89-1.46-.82-2.21-1.16-2.21-2.28,0-1.01.78-1.69,1.75-1.69.7,0,1.22.34,1.76.86l-.53.54c-.38-.37-.77-.61-1.28-.61s-.96.37-.96.85c0,.32.2.68.49.85,1.46.85,2.28,1.18,2.28,2.33,0,1-.77,1.88-1.92,1.88-.71,0-1.43-.32-1.88-.91l.52-.59Z"/>
          <path class="cls-1" d="m160.48,160.93h.86l2.19,4.91,2.12-4.91h.88l-3.8,8.7h-.86l1.22-2.81-2.62-5.89Z"/>
          <path class="cls-1" d="m180.31,160.93h.8v6.37h-.8v-1.09c-.7.84-1.57,1.25-2.57,1.25-1.86,0-3.26-1.55-3.26-3.36s1.44-3.33,3.29-3.33c1.03,0,1.91.44,2.54,1.33v-1.16Zm-4.99,3.19c0,1.38,1.08,2.59,2.51,2.59,1.31,0,2.54-.98,2.54-2.57,0-1.48-1.1-2.59-2.53-2.59s-2.52,1.2-2.52,2.57Z"/>
          <path class="cls-1" d="m182.88,165.97c.41.46.85.71,1.33.71.62,0,1.17-.46,1.17-1.06,0-.37-.22-.72-.53-.89-1.46-.82-2.21-1.16-2.21-2.28,0-1.01.78-1.69,1.75-1.69.7,0,1.22.34,1.76.86l-.53.54c-.38-.37-.77-.61-1.28-.61s-.96.37-.96.85c0,.32.2.68.49.85,1.46.85,2.28,1.18,2.28,2.33,0,1-.77,1.88-1.92,1.88-.71,0-1.43-.32-1.88-.91l.52-.59Z"/>
          <path class="cls-1" d="m188.44,162.09c.64-.89,1.51-1.33,2.53-1.33,1.86,0,3.3,1.52,3.3,3.33s-1.4,3.36-3.27,3.36c-1,0-1.86-.41-2.55-1.25v3.42h-.82v-8.7h.82v1.16Zm-.06,2.05c0,1.58,1.22,2.57,2.53,2.57,1.42,0,2.52-1.2,2.52-2.59s-1.06-2.57-2.52-2.57-2.53,1.12-2.53,2.59Z"/>
          <path class="cls-1" d="m196.77,158.98c0,.37-.31.68-.68.68s-.67-.31-.67-.68.31-.67.67-.67.68.3.68.67Zm-1.08,1.95h.82v6.37h-.82v-6.37Z"/>
          <path class="cls-1" d="m198.74,161.85c.48-.7,1-1.09,1.64-1.09.37,0,.56.12.73.22l-.43.7c-.1-.05-.25-.12-.43-.12-.6,0-1.14.52-1.38,1.39-.11.41-.13,1.07-.13,1.93v2.42h-.86v-6.37h.86v.92Z"/>
          <path class="cls-1" d="m207.35,160.93h.8v6.37h-.8v-1.09c-.7.84-1.57,1.25-2.57,1.25-1.86,0-3.26-1.55-3.26-3.36s1.44-3.33,3.29-3.33c1.03,0,1.91.44,2.54,1.33v-1.16Zm-4.99,3.19c0,1.38,1.08,2.59,2.51,2.59,1.31,0,2.54-.98,2.54-2.57,0-1.48-1.1-2.59-2.53-2.59s-2.52,1.2-2.52,2.57Z"/>
          <path class="cls-1" d="m216.2,166.02c-.62.95-1.7,1.44-2.99,1.44-2.1,0-3.5-1.51-3.5-3.29,0-1.87,1.46-3.41,3.56-3.41,1.22,0,2.34.5,2.93,1.49l-.66.41c-.56-.74-1.34-1.1-2.3-1.1-1.62,0-2.69,1.19-2.69,2.55s1.06,2.6,2.7,2.6c.92,0,1.69-.37,2.29-1.12l.66.42Z"/>
          <path class="cls-1" d="m218.74,158.98c0,.37-.31.68-.68.68s-.67-.31-.67-.68.31-.67.67-.67.68.3.68.67Zm-1.08,1.95h.82v6.37h-.82v-6.37Z"/>
          <path class="cls-1" d="m226.52,164.13c0,1.81-1.4,3.33-3.32,3.33s-3.32-1.52-3.32-3.33,1.42-3.37,3.32-3.37,3.32,1.55,3.32,3.37Zm-5.8.01c0,1.39,1.04,2.53,2.48,2.53s2.48-1.14,2.48-2.53-1.13-2.59-2.48-2.59-2.48,1.18-2.48,2.59Z"/>
          <path class="cls-1" d="m228.85,162.07c.66-.86,1.45-1.31,2.39-1.31,1.39,0,2.36.96,2.36,2.96v3.57h-.82v-3.47c0-1.5-.47-2.33-1.7-2.33-.68,0-1.25.3-1.68.86-.48.62-.55,1.25-.55,2.25v2.67h-.82v-6.37h.82v1.14Z"/>
          <path class="cls-1" d="m235.89,164.18c.04,1.46,1.03,2.53,2.4,2.53s1.97-.76,2.43-1.52l.68.36c-.65,1.27-1.64,1.91-3.03,1.91-2.11,0-3.32-1.62-3.32-3.32s1.28-3.37,3.27-3.37c1.81,0,3.27,1.31,3.3,3.42h-5.73Zm4.83-.72c-.33-1.32-1.28-1.91-2.39-1.91s-1.99.61-2.36,1.91h4.75Z"/>
          <path class="cls-1" d="m243.07,165.97c.41.46.85.71,1.33.71.62,0,1.17-.46,1.17-1.06,0-.37-.22-.72-.53-.89-1.46-.82-2.21-1.16-2.21-2.28,0-1.01.78-1.69,1.75-1.69.7,0,1.22.34,1.76.86l-.53.54c-.38-.37-.77-.61-1.28-.61s-.96.37-.96.85c0,.32.2.68.49.85,1.46.85,2.28,1.18,2.28,2.33,0,1-.77,1.88-1.92,1.88-.71,0-1.43-.32-1.88-.91l.52-.59Z"/>
          <path class="cls-1" d="m40.57,178.58c.04,1.46,1.03,2.53,2.4,2.53s1.97-.76,2.43-1.52l.68.36c-.65,1.27-1.64,1.91-3.03,1.91-2.11,0-3.32-1.62-3.32-3.32s1.28-3.37,3.27-3.37c1.81,0,3.27,1.31,3.3,3.42h-5.73Zm4.83-.72c-.34-1.32-1.28-1.91-2.39-1.91s-1.99.61-2.36,1.91h4.75Z"/>
          <path class="cls-1" d="m54.02,180.42c-.62.95-1.7,1.44-2.99,1.44-2.1,0-3.5-1.51-3.5-3.29,0-1.87,1.46-3.41,3.56-3.41,1.22,0,2.34.5,2.93,1.49l-.66.41c-.56-.74-1.34-1.1-2.3-1.1-1.62,0-2.69,1.19-2.69,2.55s1.06,2.6,2.7,2.6c.92,0,1.69-.37,2.29-1.12l.66.42Z"/>
          <path class="cls-1" d="m61.94,178.53c0,1.81-1.4,3.33-3.32,3.33s-3.32-1.52-3.32-3.33,1.42-3.37,3.32-3.37,3.32,1.55,3.32,3.37Zm-5.8.01c0,1.39,1.04,2.53,2.48,2.53s2.48-1.14,2.48-2.53-1.13-2.59-2.48-2.59-2.48,1.18-2.48,2.59Z"/>
          <path class="cls-1" d="m64.27,176.47c.66-.86,1.45-1.31,2.39-1.31,1.39,0,2.36.96,2.36,2.96v3.57h-.82v-3.47c0-1.5-.47-2.33-1.7-2.33-.68,0-1.25.3-1.68.86-.48.62-.55,1.25-.55,2.25v2.67h-.82v-6.37h.82v1.14Z"/>
          <path class="cls-1" d="m77.12,178.53c0,1.81-1.4,3.33-3.32,3.33s-3.32-1.52-3.32-3.33,1.42-3.37,3.32-3.37,3.32,1.55,3.32,3.37Zm-5.8.01c0,1.39,1.04,2.53,2.48,2.53s2.48-1.14,2.48-2.53-1.13-2.59-2.48-2.59-2.48,1.18-2.48,2.59Zm2.88-6.21h1.26l-1.74,1.81h-.8l1.28-1.81Z"/>
          <path class="cls-1" d="m83.78,181.7h-.82v-3.26c0-.49-.05-.9-.06-1.19-.04-.7-.6-1.29-1.44-1.29-.56,0-1.13.28-1.49.74-.46.59-.54,1.34-.54,2.3v2.7h-.82v-6.37h.82v1.09c.56-.82,1.27-1.26,2.18-1.26.97,0,1.67.5,2.02,1.54.56-1.02,1.4-1.54,2.34-1.54,1.32,0,2.17.95,2.17,2.76v3.78h-.82v-3.48c0-.47-.06-.84-.07-1.08-.04-.56-.58-1.19-1.44-1.19-.79,0-1.49.48-1.81,1.29-.2.52-.23,1.08-.23,1.67v2.78Z"/>
          <path class="cls-1" d="m90.86,173.38c0,.37-.31.68-.68.68s-.67-.31-.67-.68.31-.67.67-.67.68.3.68.67Zm-1.08,1.95h.82v6.37h-.82v-6.37Z"/>
          <path class="cls-1" d="m98.48,180.42c-.62.95-1.7,1.44-2.99,1.44-2.1,0-3.5-1.51-3.5-3.29,0-1.87,1.46-3.41,3.56-3.41,1.22,0,2.34.5,2.93,1.49l-.66.41c-.56-.74-1.34-1.1-2.3-1.1-1.62,0-2.69,1.19-2.69,2.55s1.06,2.6,2.7,2.6c.92,0,1.69-.37,2.29-1.12l.66.42Z"/>
          <path class="cls-1" d="m105.6,175.33h.8v6.37h-.8v-1.09c-.7.84-1.57,1.25-2.57,1.25-1.86,0-3.26-1.55-3.26-3.36s1.44-3.33,3.29-3.33c1.03,0,1.91.44,2.54,1.33v-1.16Zm-4.99,3.19c0,1.38,1.08,2.59,2.51,2.59,1.31,0,2.54-.98,2.54-2.57,0-1.48-1.1-2.59-2.53-2.59s-2.52,1.2-2.52,2.57Z"/>
          <path class="cls-1" d="m108.17,180.37c.41.46.85.71,1.33.71.62,0,1.17-.46,1.17-1.06,0-.37-.22-.72-.53-.89-1.46-.82-2.21-1.16-2.21-2.28,0-1.01.78-1.69,1.75-1.69.7,0,1.22.34,1.76.86l-.53.54c-.38-.37-.77-.61-1.28-.61s-.96.37-.96.85c0,.32.2.68.49.85,1.46.85,2.28,1.18,2.28,2.33,0,1-.77,1.88-1.92,1.88-.71,0-1.43-.32-1.88-.91l.52-.59Z"/>
          <path class="cls-1" d="m113.74,180.12l.78.37-1.19,2.22-.58-.24.98-2.35Z"/>
          <path class="cls-1" d="m124.12,180.37c.41.46.85.71,1.33.71.62,0,1.17-.46,1.17-1.06,0-.37-.22-.72-.53-.89-1.46-.82-2.21-1.16-2.21-2.28,0-1.01.78-1.69,1.75-1.69.7,0,1.22.34,1.76.86l-.53.54c-.38-.37-.77-.61-1.28-.61s-.96.37-.96.85c0,.32.2.68.49.85,1.46.85,2.28,1.18,2.28,2.33,0,1-.77,1.88-1.92,1.88-.71,0-1.43-.32-1.88-.91l.52-.59Z"/>
          <path class="cls-1" d="m135.21,178.53c0,1.81-1.4,3.33-3.32,3.33s-3.32-1.52-3.32-3.33,1.42-3.37,3.32-3.37,3.32,1.55,3.32,3.37Zm-5.8.01c0,1.39,1.04,2.53,2.48,2.53s2.48-1.14,2.48-2.53-1.13-2.59-2.48-2.59-2.48,1.18-2.48,2.59Z"/>
          <path class="cls-1" d="m142.91,180.42c-.62.95-1.7,1.44-2.99,1.44-2.1,0-3.5-1.51-3.5-3.29,0-1.87,1.46-3.41,3.56-3.41,1.22,0,2.34.5,2.93,1.49l-.66.41c-.56-.74-1.34-1.1-2.3-1.1-1.62,0-2.69,1.19-2.69,2.55s1.06,2.6,2.7,2.6c.92,0,1.69-.37,2.29-1.12l.66.42Z"/>
          <path class="cls-1" d="m145.46,173.38c0,.37-.31.68-.68.68s-.67-.31-.67-.68.31-.67.67-.67.68.3.68.67Zm-1.08,1.95h.82v6.37h-.82v-6.37Z"/>
          <path class="cls-1" d="m152.43,175.33h.8v6.37h-.8v-1.09c-.7.84-1.57,1.25-2.57,1.25-1.86,0-3.26-1.55-3.26-3.36s1.44-3.33,3.29-3.33c1.03,0,1.91.44,2.54,1.33v-1.16Zm-4.99,3.19c0,1.38,1.08,2.59,2.51,2.59,1.31,0,2.54-.98,2.54-2.57,0-1.48-1.1-2.59-2.53-2.59s-2.52,1.2-2.52,2.57Z"/>
          <path class="cls-1" d="m154.97,172.87h.82v8.83h-.82v-8.83Z"/>
          <path class="cls-1" d="m158.02,178.58c.04,1.46,1.03,2.53,2.4,2.53s1.97-.76,2.43-1.52l.68.36c-.65,1.27-1.64,1.91-3.03,1.91-2.11,0-3.32-1.62-3.32-3.32s1.28-3.37,3.27-3.37c1.81,0,3.27,1.31,3.3,3.42h-5.73Zm4.83-.72c-.33-1.32-1.28-1.91-2.39-1.91s-1.99.61-2.36,1.91h4.75Z"/>
          <path class="cls-1" d="m165.2,180.37c.41.46.85.71,1.33.71.62,0,1.17-.46,1.17-1.06,0-.37-.22-.72-.53-.89-1.46-.82-2.21-1.16-2.21-2.28,0-1.01.78-1.69,1.75-1.69.7,0,1.22.34,1.76.86l-.53.54c-.38-.37-.77-.61-1.28-.61s-.96.37-.96.85c0,.32.2.68.49.85,1.46.85,2.28,1.18,2.28,2.33,0,1-.77,1.88-1.92,1.88-.71,0-1.43-.32-1.88-.91l.52-.59Z"/>
          <path class="cls-1" d="m177.23,175.33h.86l2.19,4.91,2.12-4.91h.88l-3.8,8.7h-.86l1.22-2.81-2.62-5.89Z"/>
          <path class="cls-1" d="m198.51,180.42c-.62.95-1.7,1.44-2.99,1.44-2.1,0-3.5-1.51-3.5-3.29,0-1.87,1.46-3.41,3.56-3.41,1.22,0,2.34.5,2.93,1.49l-.66.41c-.56-.74-1.34-1.1-2.3-1.1-1.62,0-2.69,1.19-2.69,2.55s1.06,2.6,2.7,2.6c.92,0,1.69-.37,2.29-1.12l.66.42Z"/>
          <path class="cls-1" d="m204.72,175.33h.86v3.3c0,2.15-.97,3.23-2.79,3.23s-2.81-1.08-2.81-3.23v-3.3h.86v3.11c0,.67,0,1.22.18,1.61.3.65.96,1.02,1.76,1.02.59,0,1.1-.22,1.44-.56.5-.54.49-1.15.49-2.06v-3.11Z"/>
          <path class="cls-1" d="m207.26,172.87h.82v8.83h-.82v-8.83Z"/>
          <path class="cls-1" d="m210.51,172.96h.82v2.37h1.31v.72h-1.31v5.65h-.82v-5.65h-1.13v-.72h1.13v-2.37Z"/>
          <path class="cls-1" d="m218.48,175.33h.86v3.3c0,2.15-.97,3.23-2.79,3.23s-2.81-1.08-2.81-3.23v-3.3h.86v3.11c0,.67,0,1.22.18,1.61.3.65.96,1.02,1.76,1.02.59,0,1.1-.22,1.44-.56.5-.54.49-1.15.49-2.06v-3.11Z"/>
          <path class="cls-1" d="m221.69,176.25c.48-.7,1-1.09,1.64-1.09.37,0,.56.12.73.22l-.43.7c-.1-.05-.25-.12-.43-.12-.6,0-1.14.52-1.38,1.39-.11.41-.13,1.07-.13,1.93v2.42h-.86v-6.37h.86v.92Z"/>
          <path class="cls-1" d="m230.3,175.33h.8v6.37h-.8v-1.09c-.7.84-1.57,1.25-2.57,1.25-1.86,0-3.26-1.55-3.26-3.36s1.44-3.33,3.29-3.33c1.03,0,1.91.44,2.54,1.33v-1.16Zm-4.99,3.19c0,1.38,1.08,2.59,2.51,2.59,1.31,0,2.54-.98,2.54-2.57,0-1.48-1.1-2.59-2.53-2.59s-2.52,1.2-2.52,2.57Z"/>
          <path class="cls-1" d="m232.84,172.87h.82v8.83h-.82v-8.83Z"/>
          <path class="cls-1" d="m235.9,178.58c.04,1.46,1.03,2.53,2.4,2.53s1.97-.76,2.43-1.52l.68.36c-.65,1.27-1.64,1.91-3.03,1.91-2.11,0-3.32-1.62-3.32-3.32s1.28-3.37,3.27-3.37c1.81,0,3.27,1.31,3.3,3.42h-5.73Zm4.83-.72c-.34-1.32-1.28-1.91-2.39-1.91s-1.99.61-2.36,1.91h4.75Z"/>
          <path class="cls-1" d="m243.07,180.37c.41.46.85.71,1.33.71.62,0,1.17-.46,1.17-1.06,0-.37-.22-.72-.53-.89-1.46-.82-2.21-1.16-2.21-2.28,0-1.01.78-1.69,1.75-1.69.7,0,1.22.34,1.76.86l-.53.54c-.38-.37-.77-.61-1.28-.61s-.96.37-.96.85c0,.32.2.68.49.85,1.46.85,2.28,1.18,2.28,2.33,0,1-.77,1.88-1.92,1.88-.71,0-1.43-.32-1.88-.91l.52-.59Z"/>
          <path class="cls-1" d="m46.22,194.82c-.62.95-1.7,1.44-2.99,1.44-2.1,0-3.5-1.51-3.5-3.29,0-1.87,1.46-3.41,3.56-3.41,1.22,0,2.34.5,2.93,1.49l-.66.41c-.56-.74-1.34-1.1-2.3-1.1-1.62,0-2.69,1.19-2.69,2.55s1.06,2.6,2.7,2.6c.92,0,1.69-.37,2.29-1.12l.66.42Z"/>
          <path class="cls-1" d="m54.14,192.93c0,1.81-1.4,3.33-3.32,3.33s-3.32-1.52-3.32-3.33,1.42-3.37,3.32-3.37,3.32,1.55,3.32,3.37Zm-5.8.01c0,1.39,1.04,2.53,2.48,2.53s2.48-1.14,2.48-2.53-1.13-2.59-2.48-2.59-2.48,1.18-2.48,2.59Z"/>
          <path class="cls-1" d="m60.8,196.1h-.82v-3.26c0-.49-.05-.9-.06-1.19-.04-.7-.6-1.29-1.44-1.29-.56,0-1.13.28-1.49.74-.46.59-.54,1.34-.54,2.3v2.7h-.82v-6.37h.82v1.09c.56-.82,1.27-1.26,2.18-1.26.97,0,1.67.5,2.02,1.54.56-1.02,1.4-1.54,2.34-1.54,1.32,0,2.17.95,2.17,2.76v3.78h-.82v-3.48c0-.47-.06-.84-.07-1.08-.04-.56-.58-1.19-1.44-1.19-.79,0-1.49.48-1.81,1.29-.2.52-.23,1.08-.23,1.67v2.78Z"/>
          <path class="cls-1" d="m71.54,189.73h.86v3.3c0,2.15-.97,3.23-2.79,3.23s-2.81-1.08-2.81-3.23v-3.3h.86v3.11c0,.67,0,1.22.18,1.61.3.65.96,1.02,1.76,1.02.59,0,1.1-.22,1.44-.56.5-.54.49-1.15.49-2.06v-3.11Z"/>
          <path class="cls-1" d="m75.02,190.87c.66-.86,1.45-1.31,2.39-1.31,1.39,0,2.36.96,2.36,2.96v3.57h-.82v-3.47c0-1.5-.47-2.33-1.7-2.33-.68,0-1.25.3-1.68.86-.48.62-.55,1.25-.55,2.25v2.67h-.82v-6.37h.82v1.14Z"/>
          <path class="cls-1" d="m82.07,192.98c.04,1.46,1.03,2.53,2.4,2.53s1.97-.76,2.43-1.52l.68.36c-.65,1.27-1.64,1.91-3.03,1.91-2.11,0-3.32-1.62-3.32-3.32s1.28-3.37,3.27-3.37c1.81,0,3.27,1.31,3.3,3.42h-5.73Zm4.83-.72c-.33-1.32-1.28-1.91-2.39-1.91s-1.99.61-2.36,1.91h4.75Z"/>
          <path class="cls-1" d="m89.24,194.77c.41.46.85.71,1.33.71.62,0,1.17-.46,1.17-1.06,0-.37-.22-.72-.53-.89-1.46-.82-2.21-1.16-2.21-2.28,0-1.01.78-1.69,1.75-1.69.7,0,1.22.34,1.76.86l-.53.54c-.38-.37-.77-.61-1.28-.61s-.96.37-.96.85c0,.32.2.68.49.85,1.46.85,2.28,1.18,2.28,2.33,0,1-.77,1.88-1.92,1.88-.71,0-1.43-.32-1.88-.91l.52-.59Z"/>
          <path class="cls-1" d="m94.81,194.52l.78.37-1.19,2.22-.58-.24.98-2.35Z"/>
          <path class="cls-1" d="m111.76,190.89c.64-.89,1.51-1.33,2.53-1.33,1.86,0,3.3,1.52,3.3,3.33s-1.4,3.36-3.27,3.36c-1,0-1.86-.41-2.55-1.25v3.42h-.82v-8.7h.82v1.16Zm-.06,2.05c0,1.58,1.22,2.57,2.53,2.57,1.42,0,2.52-1.2,2.52-2.59s-1.06-2.57-2.52-2.57-2.53,1.12-2.53,2.59Z"/>
          <path class="cls-1" d="m125.46,192.93c0,1.81-1.4,3.33-3.32,3.33s-3.32-1.52-3.32-3.33,1.42-3.37,3.32-3.37,3.32,1.55,3.32,3.37Zm-5.8.01c0,1.39,1.04,2.53,2.48,2.53s2.48-1.14,2.48-2.53-1.13-2.59-2.48-2.59-2.48,1.18-2.48,2.59Z"/>
          <path class="cls-1" d="m127.51,190.65c.48-.7,1-1.09,1.64-1.09.37,0,.56.12.73.22l-.43.7c-.1-.05-.25-.12-.43-.12-.6,0-1.14.52-1.38,1.39-.11.41-.13,1.07-.13,1.93v2.42h-.86v-6.37h.86v.92Z"/>
          <path class="cls-1" d="m149.35,196.1h-.82v-3.26c0-.49-.05-.9-.06-1.19-.04-.7-.6-1.29-1.44-1.29-.56,0-1.13.28-1.49.74-.46.59-.54,1.34-.54,2.3v2.7h-.82v-6.37h.82v1.09c.56-.82,1.27-1.26,2.18-1.26.97,0,1.67.5,2.02,1.54.56-1.02,1.4-1.54,2.34-1.54,1.32,0,2.17.95,2.17,2.76v3.78h-.82v-3.48c0-.47-.06-.84-.07-1.08-.04-.56-.58-1.19-1.44-1.19-.79,0-1.49.48-1.81,1.29-.2.52-.23,1.08-.23,1.67v2.78Z"/>
          <path class="cls-1" d="m156,192.98c.04,1.46,1.03,2.53,2.4,2.53s1.97-.76,2.43-1.52l.68.36c-.65,1.27-1.64,1.91-3.03,1.91-2.11,0-3.32-1.62-3.32-3.32s1.28-3.37,3.27-3.37c1.81,0,3.27,1.31,3.3,3.42h-5.73Zm4.83-.72c-.34-1.32-1.28-1.91-2.39-1.91s-1.99.61-2.36,1.91h4.75Z"/>
          <path class="cls-1" d="m168.81,195.01c-.7.84-1.57,1.25-2.57,1.25-1.86,0-3.26-1.55-3.26-3.36s1.44-3.33,3.29-3.33c1.03,0,1.91.44,2.54,1.33v-3.62h.82v8.83h-.82v-1.09Zm-4.99-2.09c0,1.38,1.08,2.59,2.51,2.59,1.31,0,2.53-.98,2.53-2.57,0-1.48-1.09-2.59-2.52-2.59s-2.52,1.2-2.52,2.57Z"/>
          <path class="cls-1" d="m172.45,187.78c0,.37-.31.68-.68.68s-.67-.31-.67-.68.31-.67.67-.67.68.3.68.67Zm-1.08,1.95h.82v6.37h-.82v-6.37Z"/>
          <path class="cls-1" d="m180.22,192.93c0,1.81-1.4,3.33-3.32,3.33s-3.32-1.52-3.32-3.33,1.42-3.37,3.32-3.37,3.32,1.55,3.32,3.37Zm-5.8.01c0,1.39,1.04,2.53,2.48,2.53s2.48-1.14,2.48-2.53-1.13-2.59-2.48-2.59-2.48,1.18-2.48,2.59Z"/>
          <path class="cls-1" d="m200.91,195.01c-.7.84-1.57,1.25-2.57,1.25-1.86,0-3.26-1.55-3.26-3.36s1.44-3.33,3.29-3.33c1.03,0,1.91.44,2.54,1.33v-3.62h.82v8.83h-.82v-1.09Zm-4.99-2.09c0,1.38,1.08,2.59,2.51,2.59,1.31,0,2.53-.98,2.53-2.57,0-1.48-1.09-2.59-2.52-2.59s-2.52,1.2-2.52,2.57Z"/>
          <path class="cls-1" d="m204.12,192.98c.04,1.46,1.03,2.53,2.4,2.53s1.97-.76,2.43-1.52l.68.36c-.65,1.27-1.64,1.91-3.03,1.91-2.11,0-3.32-1.62-3.32-3.32s1.28-3.37,3.27-3.37c1.81,0,3.27,1.31,3.3,3.42h-5.73Zm4.83-.72c-.34-1.32-1.28-1.91-2.39-1.91s-1.99.61-2.36,1.91h4.75Z"/>
          <path class="cls-1" d="m229.63,189.73h.86v3.3c0,2.15-.97,3.23-2.79,3.23s-2.81-1.08-2.81-3.23v-3.3h.86v3.11c0,.67,0,1.22.18,1.61.3.65.96,1.02,1.76,1.02.59,0,1.1-.22,1.44-.56.5-.54.49-1.15.49-2.06v-3.11Z"/>
          <path class="cls-1" d="m233.11,190.87c.66-.86,1.45-1.31,2.39-1.31,1.39,0,2.36.96,2.36,2.96v3.57h-.82v-3.47c0-1.5-.47-2.33-1.7-2.33-.68,0-1.25.3-1.68.86-.48.62-.55,1.25-.55,2.25v2.67h-.82v-6.37h.82v1.14Z"/>
          <path class="cls-1" d="m245.15,189.73h.8v6.37h-.8v-1.09c-.7.84-1.57,1.25-2.57,1.25-1.86,0-3.26-1.55-3.26-3.36s1.44-3.33,3.29-3.33c1.03,0,1.91.44,2.54,1.33v-1.16Zm-4.99,3.19c0,1.38,1.08,2.59,2.51,2.59,1.31,0,2.54-.98,2.54-2.57,0-1.48-1.1-2.59-2.53-2.59s-2.52,1.2-2.52,2.57Z"/>
          <path class="cls-1" d="m40.57,207.38c.04,1.46,1.03,2.53,2.4,2.53s1.97-.76,2.43-1.52l.68.36c-.65,1.27-1.64,1.91-3.03,1.91-2.11,0-3.32-1.62-3.32-3.32s1.28-3.37,3.27-3.37c1.81,0,3.27,1.31,3.3,3.42h-5.73Zm4.83-.72c-.34-1.32-1.28-1.91-2.39-1.91s-1.99.61-2.36,1.91h4.75Z"/>
          <path class="cls-1" d="m52.98,210.5h-.82v-3.26c0-.49-.05-.9-.06-1.19-.04-.7-.6-1.29-1.44-1.29-.56,0-1.13.28-1.49.74-.46.59-.54,1.34-.54,2.3v2.7h-.82v-6.37h.82v1.09c.56-.82,1.27-1.26,2.18-1.26.97,0,1.67.5,2.02,1.54.56-1.02,1.4-1.54,2.34-1.54,1.32,0,2.17.95,2.17,2.76v3.78h-.82v-3.48c0-.47-.06-.84-.07-1.08-.04-.56-.58-1.19-1.44-1.19-.79,0-1.49.48-1.81,1.29-.2.52-.23,1.08-.23,1.67v2.78Z"/>
          <path class="cls-1" d="m59.92,205.29c.64-.89,1.51-1.33,2.53-1.33,1.86,0,3.3,1.52,3.3,3.33s-1.4,3.36-3.27,3.36c-1,0-1.86-.41-2.55-1.25v3.42h-.82v-8.7h.82v1.16Zm-.06,2.05c0,1.58,1.22,2.57,2.53,2.57,1.42,0,2.52-1.2,2.52-2.59s-1.06-2.57-2.52-2.57-2.53,1.12-2.53,2.59Z"/>
          <path class="cls-1" d="m67.81,205.05c.48-.7,1-1.09,1.64-1.09.37,0,.56.12.73.22l-.43.7c-.1-.05-.25-.12-.43-.12-.6,0-1.14.52-1.38,1.39-.11.41-.13,1.07-.13,1.93v2.42h-.86v-6.37h.86v.92Z"/>
          <path class="cls-1" d="m71.38,207.38c.04,1.46,1.03,2.53,2.4,2.53s1.97-.76,2.43-1.52l.68.36c-.65,1.27-1.64,1.91-3.03,1.91-2.11,0-3.32-1.62-3.32-3.32s1.28-3.37,3.27-3.37c1.81,0,3.27,1.31,3.3,3.42h-5.73Zm4.83-.72c-.33-1.32-1.28-1.91-2.39-1.91s-1.99.61-2.36,1.91h4.75Z"/>
          <path class="cls-1" d="m78.55,209.17c.41.46.85.71,1.33.71.62,0,1.17-.46,1.17-1.06,0-.37-.22-.72-.53-.89-1.46-.82-2.21-1.16-2.21-2.28,0-1.01.78-1.69,1.75-1.69.7,0,1.22.34,1.76.86l-.53.54c-.38-.37-.77-.61-1.28-.61s-.96.37-.96.85c0,.32.2.68.49.85,1.46.85,2.28,1.18,2.28,2.33,0,1-.77,1.88-1.92,1.88-.71,0-1.43-.32-1.88-.91l.52-.59Z"/>
          <path class="cls-1" d="m88.83,204.13h.8v6.37h-.8v-1.09c-.7.84-1.57,1.25-2.57,1.25-1.86,0-3.26-1.55-3.26-3.36s1.44-3.33,3.29-3.33c1.03,0,1.91.44,2.54,1.33v-1.16Zm-4.99,3.19c0,1.38,1.08,2.59,2.51,2.59,1.31,0,2.54-.98,2.54-2.57,0-1.48-1.1-2.59-2.53-2.59s-2.52,1.2-2.52,2.57Z"/>
          <path class="cls-1" d="m101.79,209.41c-.7.84-1.57,1.25-2.57,1.25-1.86,0-3.26-1.55-3.26-3.36s1.44-3.33,3.29-3.33c1.03,0,1.91.44,2.54,1.33v-3.62h.82v8.83h-.82v-1.09Zm-4.99-2.09c0,1.38,1.08,2.59,2.51,2.59,1.31,0,2.53-.98,2.53-2.57,0-1.48-1.09-2.59-2.52-2.59s-2.52,1.2-2.52,2.57Z"/>
          <path class="cls-1" d="m104.99,207.38c.04,1.46,1.03,2.53,2.4,2.53s1.97-.76,2.43-1.52l.68.36c-.65,1.27-1.64,1.91-3.03,1.91-2.11,0-3.32-1.62-3.32-3.32s1.28-3.37,3.27-3.37c1.81,0,3.27,1.31,3.3,3.42h-5.73Zm4.83-.72c-.34-1.32-1.28-1.91-2.39-1.91s-1.99.61-2.36,1.91h4.75Z"/>
          <path class="cls-1" d="m117.83,205.29c.64-.89,1.51-1.33,2.53-1.33,1.86,0,3.3,1.52,3.3,3.33s-1.4,3.36-3.27,3.36c-1,0-1.86-.41-2.55-1.25v3.42h-.82v-8.7h.82v1.16Zm-.06,2.05c0,1.58,1.22,2.57,2.53,2.57,1.42,0,2.52-1.2,2.52-2.59s-1.06-2.57-2.52-2.57-2.53,1.12-2.53,2.59Z"/>
          <path class="cls-1" d="m125.72,205.05c.48-.7,1-1.09,1.64-1.09.37,0,.56.12.73.22l-.43.7c-.1-.05-.25-.12-.43-.12-.6,0-1.14.52-1.38,1.39-.11.41-.13,1.07-.13,1.93v2.42h-.86v-6.37h.86v.92Z"/>
          <path class="cls-1" d="m135.09,207.33c0,1.81-1.4,3.33-3.32,3.33s-3.32-1.52-3.32-3.33,1.42-3.37,3.32-3.37,3.32,1.55,3.32,3.37Zm-5.8.01c0,1.39,1.04,2.53,2.48,2.53s2.48-1.14,2.48-2.53-1.13-2.59-2.48-2.59-2.48,1.18-2.48,2.59Z"/>
          <path class="cls-1" d="m137.43,205.29c.64-.89,1.51-1.33,2.53-1.33,1.86,0,3.3,1.52,3.3,3.33s-1.4,3.36-3.27,3.36c-1,0-1.86-.41-2.55-1.25v3.42h-.82v-8.7h.82v1.16Zm-.06,2.05c0,1.58,1.22,2.57,2.53,2.57,1.42,0,2.52-1.2,2.52-2.59s-1.06-2.57-2.52-2.57-2.53,1.12-2.53,2.59Z"/>
          <path class="cls-1" d="m145.76,202.18c0,.37-.31.68-.68.68s-.67-.31-.67-.68.31-.67.67-.67.68.3.68.67Zm-1.08,1.95h.82v6.37h-.82v-6.37Z"/>
          <path class="cls-1" d="m147.73,207.38c.04,1.46,1.03,2.53,2.4,2.53s1.97-.76,2.43-1.52l.68.36c-.65,1.27-1.64,1.91-3.03,1.91-2.11,0-3.32-1.62-3.32-3.32s1.28-3.37,3.27-3.37c1.81,0,3.27,1.31,3.3,3.42h-5.73Zm4.83-.72c-.33-1.32-1.28-1.91-2.39-1.91s-1.99.61-2.36,1.91h4.75Z"/>
          <path class="cls-1" d="m160.54,209.41c-.7.84-1.57,1.25-2.57,1.25-1.86,0-3.26-1.55-3.26-3.36s1.44-3.33,3.29-3.33c1.03,0,1.91.44,2.54,1.33v-3.62h.82v8.83h-.82v-1.09Zm-4.99-2.09c0,1.38,1.08,2.59,2.51,2.59,1.31,0,2.53-.98,2.53-2.57,0-1.48-1.09-2.59-2.52-2.59s-2.52,1.2-2.52,2.57Z"/>
          <path class="cls-1" d="m168.75,204.13h.8v6.37h-.8v-1.09c-.7.84-1.57,1.25-2.57,1.25-1.86,0-3.26-1.55-3.26-3.36s1.44-3.33,3.29-3.33c1.03,0,1.91.44,2.54,1.33v-1.16Zm-4.99,3.19c0,1.38,1.08,2.59,2.51,2.59,1.31,0,2.54-.98,2.54-2.57,0-1.48-1.1-2.59-2.53-2.59s-2.52,1.2-2.52,2.57Z"/>
          <path class="cls-1" d="m176.96,209.41c-.7.84-1.57,1.25-2.57,1.25-1.86,0-3.26-1.55-3.26-3.36s1.44-3.33,3.29-3.33c1.03,0,1.91.44,2.54,1.33v-3.62h.82v8.83h-.82v-1.09Zm-4.99-2.09c0,1.38,1.08,2.59,2.51,2.59,1.31,0,2.53-.98,2.53-2.57,0-1.48-1.09-2.59-2.52-2.59s-2.52,1.2-2.52,2.57Z"/>
          <path class="cls-1" d="m190.56,209.22c-.62.95-1.7,1.44-2.99,1.44-2.1,0-3.5-1.51-3.5-3.29,0-1.87,1.46-3.41,3.56-3.41,1.22,0,2.34.5,2.93,1.49l-.66.41c-.56-.74-1.34-1.1-2.3-1.1-1.62,0-2.69,1.19-2.69,2.55s1.06,2.6,2.7,2.6c.92,0,1.69-.37,2.29-1.12l.66.42Z"/>
          <path class="cls-1" d="m198.48,207.33c0,1.81-1.4,3.33-3.32,3.33s-3.32-1.52-3.32-3.33,1.42-3.37,3.32-3.37,3.32,1.55,3.32,3.37Zm-5.8.01c0,1.39,1.04,2.53,2.48,2.53s2.48-1.14,2.48-2.53-1.13-2.59-2.48-2.59-2.48,1.18-2.48,2.59Z"/>
          <path class="cls-1" d="m200.81,205.27c.66-.86,1.45-1.31,2.39-1.31,1.39,0,2.36.96,2.36,2.96v3.57h-.82v-3.47c0-1.5-.47-2.33-1.7-2.33-.68,0-1.25.3-1.68.86-.48.62-.55,1.25-.55,2.25v2.67h-.82v-6.37h.82v1.14Z"/>
          <path class="cls-1" d="m207.23,204.13h.82v7.33c0,1.02-.36,1.55-1.09,1.55-.36,0-.67-.11-.92-.2v-.74c.14.07.34.16.59.16.38,0,.61-.25.61-.76v-7.33Zm1.08-1.95c0,.37-.31.68-.68.68s-.67-.31-.67-.68.3-.67.67-.67.68.3.68.67Z"/>
          <path class="cls-1" d="m214.38,204.13h.86v3.3c0,2.15-.97,3.23-2.79,3.23s-2.81-1.08-2.81-3.23v-3.3h.86v3.11c0,.67,0,1.22.18,1.61.3.65.96,1.02,1.76,1.02.59,0,1.1-.22,1.44-.56.5-.54.49-1.15.49-2.06v-3.11Z"/>
          <path class="cls-1" d="m217.86,205.27c.66-.86,1.45-1.31,2.39-1.31,1.39,0,2.36.96,2.36,2.96v3.57h-.82v-3.47c0-1.5-.47-2.33-1.7-2.33-.68,0-1.25.3-1.68.86-.48.62-.55,1.25-.55,2.25v2.67h-.82v-6.37h.82v1.14Z"/>
          <path class="cls-1" d="m225.1,201.76h.82v2.37h1.31v.72h-1.31v5.65h-.82v-5.65h-1.13v-.72h1.13v-2.37Z"/>
          <path class="cls-1" d="m233.97,204.13h.8v6.37h-.8v-1.09c-.7.84-1.57,1.25-2.57,1.25-1.86,0-3.26-1.55-3.26-3.36s1.44-3.33,3.29-3.33c1.03,0,1.91.44,2.54,1.33v-1.16Zm-4.99,3.19c0,1.38,1.08,2.59,2.51,2.59,1.31,0,2.54-.98,2.54-2.57,0-1.48-1.1-2.59-2.53-2.59s-2.52,1.2-2.52,2.57Z"/>
          <path class="cls-1" d="m240.69,204.13h.86l2.19,4.91,2.12-4.91h.88l-3.8,8.7h-.86l1.22-2.81-2.62-5.89Z"/>
          <path class="cls-1" d="m45.59,223.81c-.7.84-1.57,1.25-2.57,1.25-1.86,0-3.26-1.55-3.26-3.36s1.44-3.33,3.29-3.33c1.03,0,1.91.44,2.54,1.33v-3.62h.82v8.83h-.82v-1.09Zm-4.99-2.09c0,1.38,1.08,2.59,2.51,2.59,1.31,0,2.53-.98,2.53-2.57,0-1.48-1.09-2.59-2.52-2.59s-2.52,1.2-2.52,2.57Z"/>
          <path class="cls-1" d="m48.79,221.78c.04,1.46,1.03,2.53,2.4,2.53s1.97-.76,2.43-1.52l.68.36c-.65,1.27-1.64,1.91-3.03,1.91-2.11,0-3.32-1.62-3.32-3.32s1.28-3.37,3.27-3.37c1.81,0,3.27,1.31,3.3,3.42h-5.73Zm4.83-.72c-.33-1.32-1.28-1.91-2.39-1.91s-1.99.61-2.36,1.91h4.75Z"/>
          <path class="cls-1" d="m61.2,224.9h-.82v-3.26c0-.49-.05-.9-.06-1.19-.04-.7-.6-1.29-1.44-1.29-.56,0-1.13.28-1.49.74-.46.59-.54,1.34-.54,2.3v2.7h-.82v-6.37h.82v1.09c.56-.82,1.27-1.26,2.18-1.26.97,0,1.67.5,2.02,1.54.56-1.02,1.4-1.54,2.34-1.54,1.32,0,2.17.95,2.17,2.76v3.78h-.82v-3.48c0-.47-.06-.84-.07-1.08-.04-.56-.58-1.19-1.44-1.19-.79,0-1.49.48-1.81,1.29-.2.52-.23,1.08-.23,1.67v2.78Z"/>
          <path class="cls-1" d="m73.65,221.73c0,1.81-1.4,3.33-3.32,3.33s-3.32-1.52-3.32-3.33,1.42-3.37,3.32-3.37,3.32,1.55,3.32,3.37Zm-5.8.01c0,1.39,1.04,2.53,2.48,2.53s2.48-1.14,2.48-2.53-1.13-2.59-2.48-2.59-2.48,1.18-2.48,2.59Z"/>
          <path class="cls-1" d="m81.36,223.62c-.62.95-1.7,1.44-2.99,1.44-2.1,0-3.5-1.51-3.5-3.29,0-1.87,1.46-3.41,3.56-3.41,1.22,0,2.34.5,2.93,1.49l-.66.41c-.56-.74-1.34-1.1-2.3-1.1-1.62,0-2.69,1.19-2.69,2.55s1.06,2.6,2.7,2.6c.92,0,1.69-.37,2.29-1.12l.66.42Z"/>
          <path class="cls-1" d="m83.47,219.45c.48-.7,1-1.09,1.64-1.09.37,0,.56.12.73.22l-.43.7c-.1-.05-.25-.12-.43-.12-.6,0-1.14.52-1.38,1.39-.11.41-.13,1.07-.13,1.93v2.42h-.86v-6.37h.86v.92Z"/>
          <path class="cls-1" d="m92.09,218.53h.8v6.37h-.8v-1.09c-.7.84-1.57,1.25-2.57,1.25-1.86,0-3.26-1.55-3.26-3.36s1.44-3.33,3.29-3.33c1.03,0,1.91.44,2.54,1.33v-1.16Zm-4.99,3.19c0,1.38,1.08,2.59,2.51,2.59,1.31,0,2.54-.98,2.54-2.57,0-1.48-1.1-2.59-2.53-2.59s-2.52,1.2-2.52,2.57Zm3.03-6.19h1.26l-1.74,1.81h-.8l1.28-1.81Z"/>
          <path class="cls-1" d="m95.47,216.16h.82v2.37h1.31v.72h-1.31v5.65h-.82v-5.65h-1.13v-.72h1.13v-2.37Z"/>
          <path class="cls-1" d="m99.78,216.58c0,.37-.31.68-.68.68s-.67-.31-.67-.68.31-.67.67-.67.68.3.68.67Zm-1.08,1.95h.82v6.37h-.82v-6.37Z"/>
          <path class="cls-1" d="m107.4,223.62c-.62.95-1.7,1.44-2.99,1.44-2.1,0-3.5-1.51-3.5-3.29,0-1.87,1.46-3.41,3.56-3.41,1.22,0,2.34.5,2.93,1.49l-.66.41c-.56-.74-1.34-1.1-2.3-1.1-1.62,0-2.69,1.19-2.69,2.55s1.06,2.6,2.7,2.6c.92,0,1.69-.37,2.29-1.12l.66.42Z"/>
          <path class="cls-1" d="m114.51,218.53h.8v6.37h-.8v-1.09c-.7.84-1.57,1.25-2.57,1.25-1.86,0-3.26-1.55-3.26-3.36s1.44-3.33,3.29-3.33c1.03,0,1.91.44,2.54,1.33v-1.16Zm-4.99,3.19c0,1.38,1.08,2.59,2.51,2.59,1.31,0,2.54-.98,2.54-2.57,0-1.48-1.1-2.59-2.53-2.59s-2.52,1.2-2.52,2.57Z"/>
          <path class="cls-1" d="m122.31,224.9h-.82v-3.26c0-.49-.05-.9-.06-1.19-.04-.7-.6-1.29-1.44-1.29-.56,0-1.13.28-1.49.74-.46.59-.54,1.34-.54,2.3v2.7h-.82v-6.37h.82v1.09c.56-.82,1.27-1.26,2.18-1.26.97,0,1.67.5,2.02,1.54.56-1.02,1.4-1.54,2.34-1.54,1.32,0,2.17.95,2.17,2.76v3.78h-.82v-3.48c0-.47-.06-.84-.07-1.08-.04-.56-.58-1.19-1.44-1.19-.79,0-1.49.48-1.81,1.29-.2.52-.23,1.08-.23,1.67v2.78Z"/>
          <path class="cls-1" d="m128.97,221.78c.04,1.46,1.03,2.53,2.4,2.53s1.97-.76,2.43-1.52l.68.36c-.65,1.27-1.64,1.91-3.03,1.91-2.11,0-3.32-1.62-3.32-3.32s1.28-3.37,3.27-3.37c1.81,0,3.27,1.31,3.3,3.42h-5.73Zm4.83-.72c-.34-1.32-1.28-1.91-2.39-1.91s-1.99.61-2.36,1.91h4.75Z"/>
          <path class="cls-1" d="m137.04,219.67c.66-.86,1.45-1.31,2.39-1.31,1.39,0,2.36.96,2.36,2.96v3.57h-.82v-3.47c0-1.5-.47-2.33-1.7-2.33-.68,0-1.25.3-1.68.86-.48.62-.55,1.25-.55,2.25v2.67h-.82v-6.37h.82v1.14Z"/>
          <path class="cls-1" d="m144.28,216.16h.82v2.37h1.31v.72h-1.31v5.65h-.82v-5.65h-1.13v-.72h1.13v-2.37Z"/>
          <path class="cls-1" d="m148.15,221.78c.04,1.46,1.03,2.53,2.4,2.53s1.97-.76,2.43-1.52l.68.36c-.65,1.27-1.64,1.91-3.03,1.91-2.11,0-3.32-1.62-3.32-3.32s1.28-3.37,3.27-3.37c1.81,0,3.27,1.31,3.3,3.42h-5.73Zm4.83-.72c-.33-1.32-1.28-1.91-2.39-1.91s-1.99.61-2.36,1.91h4.75Z"/>
          <path class="cls-1" d="m185.22,223.62c-.62.95-1.7,1.44-2.99,1.44-2.1,0-3.5-1.51-3.5-3.29,0-1.87,1.46-3.41,3.56-3.41,1.22,0,2.34.5,2.93,1.49l-.66.41c-.56-.74-1.34-1.1-2.3-1.1-1.62,0-2.69,1.19-2.69,2.55s1.06,2.6,2.7,2.6c.92,0,1.69-.37,2.29-1.12l.66.42Z"/>
          <path class="cls-1" d="m193.14,221.73c0,1.81-1.4,3.33-3.32,3.33s-3.32-1.52-3.32-3.33,1.42-3.37,3.32-3.37,3.32,1.55,3.32,3.37Zm-5.8.01c0,1.39,1.04,2.53,2.48,2.53s2.48-1.14,2.48-2.53-1.13-2.59-2.48-2.59-2.48,1.18-2.48,2.59Z"/>
          <path class="cls-1" d="m195.48,219.67c.66-.86,1.45-1.31,2.39-1.31,1.39,0,2.36.96,2.36,2.96v3.57h-.82v-3.47c0-1.5-.47-2.33-1.7-2.33-.68,0-1.25.3-1.68.86-.48.62-.55,1.25-.55,2.25v2.67h-.82v-6.37h.82v1.14Z"/>
          <path class="cls-1" d="m202.71,216.16h.82v2.37h1.31v.72h-1.31v5.65h-.82v-5.65h-1.13v-.72h1.13v-2.37Z"/>
          <path class="cls-1" d="m206.59,219.45c.48-.7,1-1.09,1.64-1.09.37,0,.56.12.73.22l-.43.7c-.1-.05-.25-.12-.43-.12-.6,0-1.14.52-1.38,1.39-.11.41-.13,1.07-.13,1.93v2.42h-.86v-6.37h.86v.92Z"/>
          <path class="cls-1" d="m215.96,221.73c0,1.81-1.4,3.33-3.32,3.33s-3.32-1.52-3.32-3.33,1.42-3.37,3.32-3.37,3.32,1.55,3.32,3.37Zm-5.8.01c0,1.39,1.04,2.53,2.48,2.53s2.48-1.14,2.48-2.53-1.13-2.59-2.48-2.59-2.48,1.18-2.48,2.59Z"/>
          <path class="cls-1" d="m217.35,216.07h.82v8.83h-.82v-8.83Z"/>
          <path class="cls-1" d="m225.41,218.53h.8v6.37h-.8v-1.09c-.7.84-1.57,1.25-2.57,1.25-1.86,0-3.26-1.55-3.26-3.36s1.44-3.33,3.29-3.33c1.03,0,1.91.44,2.54,1.33v-1.16Zm-4.99,3.19c0,1.38,1.08,2.59,2.51,2.59,1.31,0,2.54-.98,2.54-2.57,0-1.48-1.1-2.59-2.53-2.59s-2.52,1.2-2.52,2.57Z"/>
          <path class="cls-1" d="m233.62,223.81c-.7.84-1.57,1.25-2.57,1.25-1.86,0-3.26-1.55-3.26-3.36s1.44-3.33,3.29-3.33c1.03,0,1.91.44,2.54,1.33v-3.62h.82v8.83h-.82v-1.09Zm-4.99-2.09c0,1.38,1.08,2.59,2.51,2.59,1.31,0,2.53-.98,2.53-2.57,0-1.48-1.09-2.59-2.52-2.59s-2.52,1.2-2.52,2.57Z"/>
          <path class="cls-1" d="m241.83,218.53h.8v6.37h-.8v-1.09c-.7.84-1.57,1.25-2.57,1.25-1.86,0-3.26-1.55-3.26-3.36s1.44-3.33,3.29-3.33c1.03,0,1.91.44,2.54,1.33v-1.16Zm-4.99,3.19c0,1.38,1.08,2.59,2.51,2.59,1.31,0,2.54-.98,2.54-2.57,0-1.48-1.1-2.59-2.53-2.59s-2.52,1.2-2.52,2.57Z"/>
          <path class="cls-1" d="m245.31,223.32l.78.37-1.19,2.22-.58-.24.98-2.35Z"/>
          <path class="cls-1" d="m40.86,234.09c.64-.89,1.51-1.33,2.53-1.33,1.86,0,3.3,1.52,3.3,3.33s-1.4,3.36-3.27,3.36c-1,0-1.86-.41-2.55-1.25v3.42h-.82v-8.7h.82v1.16Zm-.06,2.05c0,1.58,1.22,2.57,2.53,2.57,1.42,0,2.52-1.2,2.52-2.59s-1.06-2.57-2.52-2.57-2.53,1.12-2.53,2.59Z"/>
          <path class="cls-1" d="m48.76,236.18c.04,1.46,1.03,2.53,2.4,2.53s1.97-.76,2.43-1.52l.68.36c-.65,1.27-1.64,1.91-3.03,1.91-2.11,0-3.32-1.62-3.32-3.32s1.28-3.37,3.27-3.37c1.81,0,3.27,1.31,3.3,3.42h-5.73Zm4.83-.72c-.34-1.32-1.28-1.91-2.39-1.91s-1.99.61-2.36,1.91h4.75Z"/>
          <path class="cls-1" d="m56.56,233.85c.48-.7,1-1.09,1.64-1.09.37,0,.56.12.73.22l-.43.7c-.1-.05-.25-.12-.43-.12-.6,0-1.14.52-1.38,1.39-.11.41-.13,1.07-.13,1.93v2.42h-.86v-6.37h.86v.92Z"/>
          <path class="cls-1" d="m65.11,239.3h-.82v-3.26c0-.49-.05-.9-.06-1.19-.04-.7-.6-1.29-1.44-1.29-.56,0-1.13.28-1.49.74-.46.59-.54,1.34-.54,2.3v2.7h-.82v-6.37h.82v1.09c.56-.82,1.27-1.26,2.18-1.26.97,0,1.67.5,2.02,1.54.56-1.02,1.4-1.54,2.34-1.54,1.32,0,2.17.95,2.17,2.76v3.78h-.82v-3.48c0-.47-.06-.84-.07-1.08-.04-.56-.58-1.19-1.44-1.19-.79,0-1.49.48-1.81,1.29-.2.52-.23,1.08-.23,1.67v2.78Z"/>
          <path class="cls-1" d="m72.19,230.98c0,.37-.31.68-.68.68s-.67-.31-.67-.68.31-.67.67-.67.68.3.68.67Zm-1.08,1.95h.82v6.37h-.82v-6.37Z"/>
          <path class="cls-1" d="m74.35,230.56h.82v2.37h1.31v.72h-1.31v5.65h-.82v-5.65h-1.13v-.72h1.13v-2.37Z"/>
          <path class="cls-1" d="m78.23,236.18c.04,1.46,1.03,2.53,2.4,2.53s1.97-.76,2.43-1.52l.68.36c-.65,1.27-1.64,1.91-3.03,1.91-2.11,0-3.32-1.62-3.32-3.32s1.28-3.37,3.27-3.37c1.81,0,3.27,1.31,3.3,3.42h-5.73Zm4.83-.72c-.33-1.32-1.28-1.91-2.39-1.91s-1.99.61-2.36,1.91h4.75Z"/>
          <path class="cls-1" d="m86.3,234.07c.66-.86,1.45-1.31,2.39-1.31,1.39,0,2.36.96,2.36,2.96v3.57h-.82v-3.47c0-1.5-.47-2.33-1.7-2.33-.68,0-1.25.3-1.68.86-.48.62-.55,1.25-.55,2.25v2.67h-.82v-6.37h.82v1.14Z"/>
          <path class="cls-1" d="m101.93,232.93h.8v6.37h-.8v-1.09c-.7.84-1.57,1.25-2.57,1.25-1.86,0-3.26-1.55-3.26-3.36s1.44-3.33,3.29-3.33c1.03,0,1.91.44,2.54,1.33v-1.16Zm-4.99,3.19c0,1.38,1.08,2.59,2.51,2.59,1.31,0,2.54-.98,2.54-2.57,0-1.48-1.1-2.59-2.53-2.59s-2.52,1.2-2.52,2.57Z"/>
          <path class="cls-1" d="m108.04,230.47h.82v8.83h-.82v-8.83Z"/>
          <path class="cls-1" d="m116.1,232.93h.8v6.37h-.8v-1.09c-.7.84-1.57,1.25-2.57,1.25-1.86,0-3.26-1.55-3.26-3.36s1.44-3.33,3.29-3.33c1.03,0,1.91.44,2.54,1.33v-1.16Zm-4.99,3.19c0,1.38,1.08,2.59,2.51,2.59,1.31,0,2.54-.98,2.54-2.57,0-1.48-1.1-2.59-2.53-2.59s-2.52,1.2-2.52,2.57Z"/>
          <path class="cls-1" d="m128.65,238c0,1.04-.06,1.91-.58,2.61-.54.73-1.49,1.16-2.7,1.16-1.83,0-2.72-.74-3.29-1.98h.89c.48.84,1.22,1.24,2.35,1.24,1.05,0,1.83-.38,2.22-1.08.24-.44.28-.9.28-1.39v-.48c-.64.8-1.56,1.21-2.55,1.21-1.76,0-3.26-1.34-3.26-3.23s1.57-3.31,3.26-3.31c1.13,0,1.88.48,2.55,1.27v-1.1h.83v5.07Zm-5.81-1.88c0,1.27.9,2.39,2.58,2.39,1.39,0,2.43-.96,2.43-2.45s-1.14-2.51-2.46-2.51c-1.43,0-2.55,1.09-2.55,2.57Z"/>
          <path class="cls-1" d="m130.95,236.18c.04,1.46,1.03,2.53,2.4,2.53s1.97-.76,2.43-1.52l.68.36c-.65,1.27-1.64,1.91-3.03,1.91-2.11,0-3.32-1.62-3.32-3.32s1.28-3.37,3.27-3.37c1.81,0,3.27,1.31,3.3,3.42h-5.73Zm4.83-.72c-.33-1.32-1.28-1.91-2.39-1.91s-1.99.61-2.36,1.91h4.75Z"/>
          <path class="cls-1" d="m139.02,234.07c.66-.86,1.45-1.31,2.39-1.31,1.39,0,2.36.96,2.36,2.96v3.57h-.82v-3.47c0-1.5-.47-2.33-1.7-2.33-.68,0-1.25.3-1.68.86-.48.62-.55,1.25-.55,2.25v2.67h-.82v-6.37h.82v1.14Z"/>
          <path class="cls-1" d="m146.26,230.56h.82v2.37h1.31v.72h-1.31v5.65h-.82v-5.65h-1.13v-.72h1.13v-2.37Z"/>
          <path class="cls-1" d="m150.14,236.18c.04,1.46,1.03,2.53,2.4,2.53s1.97-.76,2.43-1.52l.68.36c-.65,1.27-1.64,1.91-3.03,1.91-2.11,0-3.32-1.62-3.32-3.32s1.28-3.37,3.27-3.37c1.81,0,3.27,1.31,3.3,3.42h-5.73Zm4.83-.72c-.33-1.32-1.28-1.91-2.39-1.91s-1.99.61-2.36,1.91h4.75Z"/>
          <path class="cls-1" d="m158.22,237.72l.78.37-1.19,2.22-.58-.24.98-2.35Z"/>
          <path class="cls-1" d="m165.03,230.56h.82v2.37h1.31v.72h-1.31v5.65h-.82v-5.65h-1.13v-.72h1.13v-2.37Z"/>
          <path class="cls-1" d="m168.9,233.85c.48-.7,1-1.09,1.64-1.09.37,0,.56.12.73.22l-.43.7c-.1-.05-.25-.12-.43-.12-.6,0-1.14.52-1.38,1.39-.11.41-.13,1.07-.13,1.93v2.42h-.86v-6.37h.86v.92Z"/>
          <path class="cls-1" d="m177.52,232.93h.8v6.37h-.8v-1.09c-.7.84-1.57,1.25-2.57,1.25-1.86,0-3.26-1.55-3.26-3.36s1.44-3.33,3.29-3.33c1.03,0,1.91.44,2.54,1.33v-1.16Zm-4.99,3.19c0,1.38,1.08,2.59,2.51,2.59,1.31,0,2.54-.98,2.54-2.57,0-1.48-1.1-2.59-2.53-2.59s-2.52,1.2-2.52,2.57Z"/>
          <path class="cls-1" d="m181.05,239.3h-.82v-8.83h.82v3.55c.7-.84,1.56-1.26,2.55-1.26,1.86,0,3.27,1.55,3.27,3.36s-1.44,3.35-3.3,3.35c-1.03,0-1.88-.46-2.53-1.34v1.18Zm4.99-3.2c0-1.38-1.09-2.59-2.52-2.59-1.31,0-2.53.97-2.53,2.57,0,1.48,1.09,2.6,2.53,2.6s2.52-1.21,2.52-2.58Z"/>
          <path class="cls-1" d="m193.9,232.93h.8v6.37h-.8v-1.09c-.7.84-1.57,1.25-2.57,1.25-1.86,0-3.26-1.55-3.26-3.36s1.44-3.33,3.29-3.33c1.03,0,1.91.44,2.54,1.33v-1.16Zm-4.99,3.19c0,1.38,1.08,2.59,2.51,2.59,1.31,0,2.54-.98,2.54-2.57,0-1.48-1.1-2.59-2.53-2.59s-2.52,1.2-2.52,2.57Z"/>
          <path class="cls-1" d="m196.47,232.93h.82v7.33c0,1.02-.36,1.55-1.09,1.55-.36,0-.67-.11-.92-.2v-.74c.14.07.34.16.59.16.38,0,.61-.25.61-.76v-7.33Zm1.08-1.95c0,.37-.31.68-.68.68s-.67-.31-.67-.68.3-.67.67-.67.68.3.68.67Z"/>
          <path class="cls-1" d="m204.53,232.93h.8v6.37h-.8v-1.09c-.7.84-1.57,1.25-2.57,1.25-1.86,0-3.26-1.55-3.26-3.36s1.44-3.33,3.29-3.33c1.03,0,1.91.44,2.54,1.33v-1.16Zm-4.99,3.19c0,1.38,1.08,2.59,2.51,2.59,1.31,0,2.54-.98,2.54-2.57,0-1.48-1.1-2.59-2.53-2.59s-2.52,1.2-2.52,2.57Z"/>
          <path class="cls-1" d="m207.73,233.85c.48-.7,1-1.09,1.64-1.09.37,0,.56.12.73.22l-.43.7c-.1-.05-.25-.12-.43-.12-.6,0-1.14.52-1.38,1.39-.11.41-.13,1.07-.13,1.93v2.42h-.86v-6.37h.86v.92Z"/>
          <path class="cls-1" d="m219,232.93h.86v3.3c0,2.15-.97,3.23-2.79,3.23s-2.81-1.08-2.81-3.23v-3.3h.86v3.11c0,.67,0,1.22.18,1.61.3.65.96,1.02,1.76,1.02.59,0,1.1-.22,1.44-.56.5-.54.49-1.15.49-2.06v-3.11Z"/>
          <path class="cls-1" d="m222.49,234.07c.66-.86,1.45-1.31,2.39-1.31,1.39,0,2.36.96,2.36,2.96v3.57h-.82v-3.47c0-1.5-.47-2.33-1.7-2.33-.68,0-1.25.3-1.68.86-.48.62-.55,1.25-.55,2.25v2.67h-.82v-6.37h.82v1.14Z"/>
          <path class="cls-1" d="m229.96,230.98c0,.37-.31.68-.68.68s-.67-.31-.67-.68.31-.67.67-.67.68.3.68.67Zm-1.08,1.95h.82v6.37h-.82v-6.37Z"/>
          <path class="cls-1" d="m236.94,238.21c-.7.84-1.57,1.25-2.57,1.25-1.86,0-3.26-1.55-3.26-3.36s1.44-3.33,3.29-3.33c1.03,0,1.91.44,2.54,1.33v-3.62h.82v8.83h-.82v-1.09Zm-4.99-2.09c0,1.38,1.08,2.59,2.51,2.59,1.31,0,2.53-.98,2.53-2.57,0-1.48-1.09-2.59-2.52-2.59s-2.52,1.2-2.52,2.57Z"/>
          <path class="cls-1" d="m245.15,232.93h.8v6.37h-.8v-1.09c-.7.84-1.57,1.25-2.57,1.25-1.86,0-3.26-1.55-3.26-3.36s1.44-3.33,3.29-3.33c1.03,0,1.91.44,2.54,1.33v-1.16Zm-4.99,3.19c0,1.38,1.08,2.59,2.51,2.59,1.31,0,2.54-.98,2.54-2.57,0-1.48-1.1-2.59-2.53-2.59s-2.52,1.2-2.52,2.57Z"/>
          <path class="cls-1" d="m40.86,248.49c.64-.89,1.51-1.33,2.53-1.33,1.86,0,3.3,1.52,3.3,3.33s-1.4,3.36-3.27,3.36c-1,0-1.86-.41-2.55-1.25v3.42h-.82v-8.7h.82v1.16Zm-.06,2.05c0,1.58,1.22,2.57,2.53,2.57,1.42,0,2.52-1.2,2.52-2.59s-1.06-2.57-2.52-2.57-2.53,1.12-2.53,2.59Z"/>
          <path class="cls-1" d="m53.76,247.33h.8v6.37h-.8v-1.09c-.7.84-1.57,1.25-2.57,1.25-1.86,0-3.26-1.55-3.26-3.36s1.44-3.33,3.29-3.33c1.03,0,1.91.44,2.54,1.33v-1.16Zm-4.99,3.19c0,1.38,1.08,2.59,2.51,2.59,1.31,0,2.54-.98,2.54-2.57,0-1.48-1.1-2.59-2.53-2.59s-2.52,1.2-2.52,2.57Z"/>
          <path class="cls-1" d="m56.95,248.25c.48-.7,1-1.09,1.64-1.09.37,0,.56.12.73.22l-.43.7c-.1-.05-.25-.12-.43-.12-.6,0-1.14.52-1.38,1.39-.11.41-.13,1.07-.13,1.93v2.42h-.86v-6.37h.86v.92Z"/>
          <path class="cls-1" d="m65.57,247.33h.8v6.37h-.8v-1.09c-.7.84-1.57,1.25-2.57,1.25-1.86,0-3.26-1.55-3.26-3.36s1.44-3.33,3.29-3.33c1.03,0,1.91.44,2.54,1.33v-1.16Zm-4.99,3.19c0,1.38,1.08,2.59,2.51,2.59,1.31,0,2.54-.98,2.54-2.57,0-1.48-1.1-2.59-2.53-2.59s-2.52,1.2-2.52,2.57Z"/>
          <path class="cls-1" d="m84.66,252.42c-.62.95-1.7,1.44-2.99,1.44-2.1,0-3.5-1.51-3.5-3.29,0-1.87,1.46-3.41,3.56-3.41,1.22,0,2.34.5,2.93,1.49l-.66.41c-.56-.74-1.34-1.1-2.3-1.1-1.62,0-2.69,1.19-2.69,2.55s1.06,2.6,2.7,2.6c.92,0,1.69-.37,2.29-1.12l.66.42Z"/>
          <path class="cls-1" d="m86.77,248.25c.48-.7,1-1.09,1.64-1.09.37,0,.56.12.73.22l-.43.7c-.1-.05-.25-.12-.43-.12-.6,0-1.14.52-1.38,1.39-.11.41-.13,1.07-.13,1.93v2.42h-.86v-6.37h.86v.92Z"/>
          <path class="cls-1" d="m90.34,250.58c.04,1.46,1.03,2.53,2.4,2.53s1.97-.76,2.43-1.52l.68.36c-.65,1.27-1.64,1.91-3.03,1.91-2.11,0-3.32-1.62-3.32-3.32s1.28-3.37,3.27-3.37c1.81,0,3.27,1.31,3.3,3.42h-5.73Zm4.83-.72c-.34-1.32-1.28-1.91-2.39-1.91s-1.99.61-2.36,1.91h4.75Z"/>
          <path class="cls-1" d="m103.14,247.33h.8v6.37h-.8v-1.09c-.7.84-1.57,1.25-2.57,1.25-1.86,0-3.26-1.55-3.26-3.36s1.44-3.33,3.29-3.33c1.03,0,1.91.44,2.54,1.33v-1.16Zm-4.99,3.19c0,1.38,1.08,2.59,2.51,2.59,1.31,0,2.54-.98,2.54-2.57,0-1.48-1.1-2.59-2.53-2.59s-2.52,1.2-2.52,2.57Z"/>
          <path class="cls-1" d="m106.33,248.25c.48-.7,1-1.09,1.64-1.09.37,0,.56.12.73.22l-.43.7c-.1-.05-.25-.12-.43-.12-.6,0-1.14.52-1.38,1.39-.11.41-.13,1.07-.13,1.93v2.42h-.86v-6.37h.86v.92Z"/>
          <path class="cls-1" d="m120.19,250.58c.04,1.46,1.03,2.53,2.4,2.53s1.97-.76,2.43-1.52l.68.36c-.65,1.27-1.64,1.91-3.03,1.91-2.11,0-3.32-1.62-3.32-3.32s1.28-3.37,3.27-3.37c1.81,0,3.27,1.31,3.3,3.42h-5.73Zm4.83-.72c-.33-1.32-1.28-1.91-2.39-1.91s-1.99.61-2.36,1.91h4.75Z"/>
          <path class="cls-1" d="m132.6,253.7h-.82v-3.26c0-.49-.05-.9-.06-1.19-.04-.7-.6-1.29-1.44-1.29-.56,0-1.13.28-1.49.74-.46.59-.54,1.34-.54,2.3v2.7h-.82v-6.37h.82v1.09c.56-.82,1.27-1.26,2.18-1.26.97,0,1.67.5,2.02,1.54.56-1.02,1.4-1.54,2.34-1.54,1.32,0,2.17.95,2.17,2.76v3.78h-.82v-3.48c0-.47-.06-.84-.07-1.08-.04-.56-.58-1.19-1.44-1.19-.79,0-1.49.48-1.81,1.29-.2.52-.23,1.08-.23,1.67v2.78Z"/>
          <path class="cls-1" d="m139.53,248.49c.64-.89,1.51-1.33,2.53-1.33,1.86,0,3.3,1.52,3.3,3.33s-1.4,3.36-3.27,3.36c-1,0-1.86-.41-2.55-1.25v3.42h-.82v-8.7h.82v1.16Zm-.06,2.05c0,1.58,1.22,2.57,2.53,2.57,1.42,0,2.52-1.2,2.52-2.59s-1.06-2.57-2.52-2.57-2.53,1.12-2.53,2.59Z"/>
          <path class="cls-1" d="m147.43,248.25c.48-.7,1-1.09,1.64-1.09.37,0,.56.12.73.22l-.43.7c-.1-.05-.25-.12-.43-.12-.6,0-1.14.52-1.38,1.39-.11.41-.13,1.07-.13,1.93v2.42h-.86v-6.37h.86v.92Z"/>
          <path class="cls-1" d="m150.99,250.58c.04,1.46,1.03,2.53,2.4,2.53s1.97-.76,2.43-1.52l.68.36c-.65,1.27-1.64,1.91-3.03,1.91-2.11,0-3.32-1.62-3.32-3.32s1.28-3.37,3.27-3.37c1.81,0,3.27,1.31,3.3,3.42h-5.73Zm4.83-.72c-.34-1.32-1.28-1.91-2.39-1.91s-1.99.61-2.36,1.91h4.75Z"/>
          <path class="cls-1" d="m158.17,252.37c.41.46.85.71,1.33.71.62,0,1.17-.46,1.17-1.06,0-.37-.22-.72-.53-.89-1.46-.82-2.21-1.16-2.21-2.28,0-1.01.78-1.69,1.75-1.69.7,0,1.22.34,1.76.86l-.53.54c-.38-.37-.77-.61-1.28-.61s-.96.37-.96.85c0,.32.2.68.49.85,1.46.85,2.28,1.18,2.28,2.33,0,1-.77,1.88-1.92,1.88-.71,0-1.43-.32-1.88-.91l.52-.59Z"/>
          <path class="cls-1" d="m168.45,247.33h.8v6.37h-.8v-1.09c-.7.84-1.57,1.25-2.57,1.25-1.86,0-3.26-1.55-3.26-3.36s1.44-3.33,3.29-3.33c1.03,0,1.91.44,2.54,1.33v-1.16Zm-4.99,3.19c0,1.38,1.08,2.59,2.51,2.59,1.31,0,2.54-.98,2.54-2.57,0-1.48-1.1-2.59-2.53-2.59s-2.52,1.2-2.52,2.57Z"/>
          <path class="cls-1" d="m171.02,252.37c.41.46.85.71,1.33.71.62,0,1.17-.46,1.17-1.06,0-.37-.22-.72-.53-.89-1.46-.82-2.21-1.16-2.21-2.28,0-1.01.78-1.69,1.75-1.69.7,0,1.22.34,1.76.86l-.53.54c-.38-.37-.77-.61-1.28-.61s-.96.37-.96.85c0,.32.2.68.49.85,1.46.85,2.28,1.18,2.28,2.33,0,1-.77,1.88-1.92,1.88-.71,0-1.43-.32-1.88-.91l.52-.59Z"/>
          <path class="cls-1" d="m185.93,252.37c.41.46.85.71,1.33.71.62,0,1.17-.46,1.17-1.06,0-.37-.22-.72-.53-.89-1.46-.82-2.21-1.16-2.21-2.28,0-1.01.78-1.69,1.75-1.69.7,0,1.22.34,1.76.86l-.53.54c-.38-.37-.77-.61-1.28-.61s-.96.37-.96.85c0,.32.2.68.49.85,1.46.85,2.28,1.18,2.28,2.33,0,1-.77,1.88-1.92,1.88-.71,0-1.43-.32-1.88-.91l.52-.59Z"/>
          <path class="cls-1" d="m197.01,250.53c0,1.81-1.4,3.33-3.32,3.33s-3.32-1.52-3.32-3.33,1.42-3.37,3.32-3.37,3.32,1.55,3.32,3.37Zm-5.8.01c0,1.39,1.04,2.53,2.48,2.53s2.48-1.14,2.48-2.53-1.13-2.59-2.48-2.59-2.48,1.18-2.48,2.59Z"/>
          <path class="cls-1" d="m198.44,252.37c.41.46.85.71,1.33.71.62,0,1.17-.46,1.17-1.06,0-.37-.22-.72-.53-.89-1.46-.82-2.21-1.16-2.21-2.28,0-1.01.78-1.69,1.75-1.69.7,0,1.22.34,1.76.86l-.53.54c-.38-.37-.77-.61-1.28-.61s-.96.37-.96.85c0,.32.2.68.49.85,1.46.85,2.28,1.18,2.28,2.33,0,1-.77,1.88-1.92,1.88-.71,0-1.43-.32-1.88-.91l.52-.59Z"/>
          <path class="cls-1" d="m203.92,244.96h.82v2.37h1.31v.72h-1.31v5.65h-.82v-5.65h-1.13v-.72h1.13v-2.37Z"/>
          <path class="cls-1" d="m207.79,250.58c.04,1.46,1.03,2.53,2.4,2.53s1.97-.76,2.43-1.52l.68.36c-.65,1.27-1.64,1.91-3.03,1.91-2.11,0-3.32-1.62-3.32-3.32s1.28-3.37,3.27-3.37c1.81,0,3.27,1.31,3.3,3.42h-5.73Zm4.83-.72c-.33-1.32-1.28-1.91-2.39-1.91s-1.99.61-2.36,1.91h4.75Z"/>
          <path class="cls-1" d="m215.87,248.47c.66-.86,1.45-1.31,2.39-1.31,1.39,0,2.36.96,2.36,2.96v3.57h-.82v-3.47c0-1.5-.47-2.33-1.7-2.33-.68,0-1.25.3-1.68.86-.48.62-.55,1.25-.55,2.25v2.67h-.82v-6.37h.82v1.14Z"/>
          <path class="cls-1" d="m223.34,245.38c0,.37-.31.68-.68.68s-.67-.31-.67-.68.31-.67.67-.67.68.3.68.67Zm-1.08,1.95h.82v6.37h-.82v-6.37Z"/>
          <path class="cls-1" d="m225.65,253.7h-.82v-8.83h.82v3.55c.7-.84,1.56-1.26,2.55-1.26,1.86,0,3.27,1.55,3.27,3.36s-1.44,3.35-3.3,3.35c-1.03,0-1.88-.46-2.53-1.34v1.18Zm4.99-3.2c0-1.38-1.09-2.59-2.52-2.59-1.31,0-2.53.97-2.53,2.57,0,1.48,1.09,2.6,2.53,2.6s2.52-1.21,2.52-2.58Z"/>
          <path class="cls-1" d="m232.83,244.87h.82v8.83h-.82v-8.83Z"/>
          <path class="cls-1" d="m235.89,250.58c.04,1.46,1.03,2.53,2.4,2.53s1.97-.76,2.43-1.52l.68.36c-.65,1.27-1.64,1.91-3.03,1.91-2.11,0-3.32-1.62-3.32-3.32s1.28-3.37,3.27-3.37c1.81,0,3.27,1.31,3.3,3.42h-5.73Zm4.83-.72c-.33-1.32-1.28-1.91-2.39-1.91s-1.99.61-2.36,1.91h4.75Z"/>
          <path class="cls-1" d="m243.07,252.37c.41.46.85.71,1.33.71.62,0,1.17-.46,1.17-1.06,0-.37-.22-.72-.53-.89-1.46-.82-2.21-1.16-2.21-2.28,0-1.01.78-1.69,1.75-1.69.7,0,1.22.34,1.76.86l-.53.54c-.38-.37-.77-.61-1.28-.61s-.96.37-.96.85c0,.32.2.68.49.85,1.46.85,2.28,1.18,2.28,2.33,0,1-.77,1.88-1.92,1.88-.71,0-1.43-.32-1.88-.91l.52-.59Z"/>
          <path class="cls-1" d="m45.57,261.73h.82v8.7h-.82v-3.42c-.7.84-1.57,1.25-2.57,1.25-1.86,0-3.26-1.55-3.26-3.36s1.44-3.33,3.29-3.33c1.03,0,1.91.44,2.54,1.33v-1.16Zm-4.99,3.19c0,1.38,1.08,2.59,2.51,2.59,1.31,0,2.53-.98,2.53-2.57,0-1.48-1.09-2.59-2.52-2.59s-2.52,1.2-2.52,2.57Z"/>
          <path class="cls-1" d="m52.85,261.73h.86v3.3c0,2.15-.97,3.23-2.79,3.23s-2.81-1.08-2.81-3.23v-3.3h.86v3.11c0,.67,0,1.22.18,1.61.3.65.96,1.02,1.76,1.02.59,0,1.1-.22,1.44-.56.5-.54.49-1.15.49-2.06v-3.11Z"/>
          <path class="cls-1" d="m56.05,264.98c.04,1.46,1.03,2.53,2.4,2.53s1.97-.76,2.43-1.52l.68.36c-.65,1.27-1.64,1.91-3.03,1.91-2.11,0-3.32-1.62-3.32-3.32s1.28-3.37,3.27-3.37c1.81,0,3.27,1.31,3.3,3.42h-5.73Zm4.83-.72c-.33-1.32-1.28-1.91-2.39-1.91s-1.99.61-2.36,1.91h4.75Z"/>
          <path class="cls-1" d="m72.76,266.8c0,1.04-.06,1.91-.58,2.61-.54.73-1.49,1.16-2.7,1.16-1.83,0-2.72-.74-3.29-1.98h.89c.48.84,1.22,1.24,2.35,1.24,1.05,0,1.83-.38,2.22-1.08.24-.44.28-.9.28-1.39v-.48c-.64.8-1.56,1.21-2.55,1.21-1.76,0-3.26-1.34-3.26-3.23s1.57-3.31,3.26-3.31c1.13,0,1.88.48,2.55,1.27v-1.1h.83v5.07Zm-5.81-1.88c0,1.27.9,2.39,2.58,2.39,1.39,0,2.43-.96,2.43-2.45s-1.14-2.51-2.46-2.51c-1.43,0-2.55,1.09-2.55,2.57Z"/>
          <path class="cls-1" d="m75.06,264.98c.04,1.46,1.03,2.53,2.4,2.53s1.97-.76,2.43-1.52l.68.36c-.65,1.27-1.64,1.91-3.03,1.91-2.11,0-3.32-1.62-3.32-3.32s1.28-3.37,3.27-3.37c1.81,0,3.27,1.31,3.3,3.42h-5.73Zm4.83-.72c-.34-1.32-1.28-1.91-2.39-1.91s-1.99.61-2.36,1.91h4.75Z"/>
          <path class="cls-1" d="m83.13,262.87c.66-.86,1.45-1.31,2.39-1.31,1.39,0,2.36.96,2.36,2.96v3.57h-.82v-3.47c0-1.5-.47-2.33-1.7-2.33-.68,0-1.25.3-1.68.86-.48.62-.55,1.25-.55,2.25v2.67h-.82v-6.37h.82v1.14Z"/>
          <path class="cls-1" d="m90.18,264.98c.04,1.46,1.03,2.53,2.4,2.53s1.97-.76,2.43-1.52l.68.36c-.65,1.27-1.64,1.91-3.03,1.91-2.11,0-3.32-1.62-3.32-3.32s1.28-3.37,3.27-3.37c1.81,0,3.27,1.31,3.3,3.42h-5.73Zm4.83-.72c-.33-1.32-1.28-1.91-2.39-1.91s-1.99.61-2.36,1.91h4.75Z"/>
          <path class="cls-1" d="m97.98,262.65c.48-.7,1-1.09,1.64-1.09.37,0,.56.12.73.22l-.43.7c-.1-.05-.25-.12-.43-.12-.6,0-1.14.52-1.38,1.39-.11.41-.13,1.07-.13,1.93v2.42h-.86v-6.37h.86v.92Z"/>
          <path class="cls-1" d="m106.59,261.73h.8v6.37h-.8v-1.09c-.7.84-1.57,1.25-2.57,1.25-1.86,0-3.26-1.55-3.26-3.36s1.44-3.33,3.29-3.33c1.03,0,1.91.44,2.54,1.33v-1.16Zm-4.99,3.19c0,1.38,1.08,2.59,2.51,2.59,1.31,0,2.54-.98,2.54-2.57,0-1.48-1.1-2.59-2.53-2.59s-2.52,1.2-2.52,2.57Z"/>
          <path class="cls-1" d="m110.06,262.87c.66-.86,1.45-1.31,2.39-1.31,1.39,0,2.36.96,2.36,2.96v3.57h-.82v-3.47c0-1.5-.47-2.33-1.7-2.33-.68,0-1.25.3-1.68.86-.48.62-.55,1.25-.55,2.25v2.67h-.82v-6.37h.82v1.14Z"/>
          <path class="cls-1" d="m120.52,262.89c.64-.89,1.51-1.33,2.53-1.33,1.86,0,3.3,1.52,3.3,3.33s-1.4,3.36-3.27,3.36c-1,0-1.86-.41-2.55-1.25v3.42h-.82v-8.7h.82v1.16Zm-.06,2.05c0,1.58,1.22,2.57,2.53,2.57,1.42,0,2.52-1.2,2.52-2.59s-1.06-2.57-2.52-2.57-2.53,1.12-2.53,2.59Z"/>
          <path class="cls-1" d="m128.42,262.65c.48-.7,1-1.09,1.64-1.09.37,0,.56.12.73.22l-.43.7c-.1-.05-.25-.12-.43-.12-.6,0-1.14.52-1.38,1.39-.11.41-.13,1.07-.13,1.93v2.42h-.86v-6.37h.86v.92Z"/>
          <path class="cls-1" d="m137.79,264.93c0,1.81-1.4,3.33-3.32,3.33s-3.32-1.52-3.32-3.33,1.42-3.37,3.32-3.37,3.32,1.55,3.32,3.37Zm-5.8.01c0,1.39,1.04,2.53,2.48,2.53s2.48-1.14,2.48-2.53-1.13-2.59-2.48-2.59-2.48,1.18-2.48,2.59Z"/>
          <path class="cls-1" d="m139.22,266.77c.41.46.85.71,1.33.71.62,0,1.17-.46,1.17-1.06,0-.37-.22-.72-.53-.89-1.46-.82-2.21-1.16-2.21-2.28,0-1.01.78-1.69,1.75-1.69.7,0,1.22.34,1.76.86l-.53.54c-.38-.37-.77-.61-1.28-.61s-.96.37-.96.85c0,.32.2.68.49.85,1.46.85,2.28,1.18,2.28,2.33,0,1-.77,1.88-1.92,1.88-.71,0-1.43-.32-1.88-.91l.52-.59Z"/>
          <path class="cls-1" d="m144.79,262.89c.64-.89,1.51-1.33,2.53-1.33,1.86,0,3.3,1.52,3.3,3.33s-1.4,3.36-3.27,3.36c-1,0-1.86-.41-2.55-1.25v3.42h-.82v-8.7h.82v1.16Zm-.06,2.05c0,1.58,1.22,2.57,2.53,2.57,1.42,0,2.52-1.2,2.52-2.59s-1.06-2.57-2.52-2.57-2.53,1.12-2.53,2.59Z"/>
          <path class="cls-1" d="m152.69,264.98c.04,1.46,1.03,2.53,2.4,2.53s1.97-.76,2.43-1.52l.68.36c-.65,1.27-1.64,1.91-3.03,1.91-2.11,0-3.32-1.62-3.32-3.32s1.28-3.37,3.27-3.37c1.81,0,3.27,1.31,3.3,3.42h-5.73Zm4.83-.72c-.33-1.32-1.28-1.91-2.39-1.91s-1.99.61-2.36,1.91h4.75Z"/>
          <path class="cls-1" d="m160.48,262.65c.48-.7,1-1.09,1.64-1.09.37,0,.56.12.73.22l-.43.7c-.1-.05-.25-.12-.43-.12-.6,0-1.14.52-1.38,1.39-.11.41-.13,1.07-.13,1.93v2.42h-.86v-6.37h.86v.92Z"/>
          <path class="cls-1" d="m164.53,259.78c0,.37-.31.68-.68.68s-.67-.31-.67-.68.31-.67.67-.67.68.3.68.67Zm-1.08,1.95h.82v6.37h-.82v-6.37Z"/>
          <path class="cls-1" d="m171.51,267.01c-.7.84-1.57,1.25-2.57,1.25-1.86,0-3.26-1.55-3.26-3.36s1.44-3.33,3.29-3.33c1.03,0,1.91.44,2.54,1.33v-3.62h.82v8.83h-.82v-1.09Zm-4.99-2.09c0,1.38,1.08,2.59,2.51,2.59,1.31,0,2.53-.98,2.53-2.57,0-1.48-1.09-2.59-2.52-2.59s-2.52,1.2-2.52,2.57Z"/>
          <path class="cls-1" d="m179.72,261.73h.8v6.37h-.8v-1.09c-.7.84-1.57,1.25-2.57,1.25-1.86,0-3.26-1.55-3.26-3.36s1.44-3.33,3.29-3.33c1.03,0,1.91.44,2.54,1.33v-1.16Zm-4.99,3.19c0,1.38,1.08,2.59,2.51,2.59,1.31,0,2.54-.98,2.54-2.57,0-1.48-1.1-2.59-2.53-2.59s-2.52,1.2-2.52,2.57Z"/>
          <path class="cls-1" d="m187.93,267.01c-.7.84-1.57,1.25-2.57,1.25-1.86,0-3.26-1.55-3.26-3.36s1.44-3.33,3.29-3.33c1.03,0,1.91.44,2.54,1.33v-3.62h.82v8.83h-.82v-1.09Zm-4.99-2.09c0,1.38,1.08,2.59,2.51,2.59,1.31,0,2.53-.98,2.53-2.57,0-1.48-1.09-2.59-2.52-2.59s-2.52,1.2-2.52,2.57Z"/>
          <path class="cls-1" d="m193.04,261.73h.86l2.19,4.91,2.12-4.91h.88l-3.8,8.7h-.86l1.22-2.81-2.62-5.89Z"/>
          <path class="cls-1" d="m204.11,262.89c.64-.89,1.51-1.33,2.53-1.33,1.86,0,3.3,1.52,3.3,3.33s-1.4,3.36-3.27,3.36c-1,0-1.86-.41-2.55-1.25v3.42h-.82v-8.7h.82v1.16Zm-.06,2.05c0,1.58,1.22,2.57,2.53,2.57,1.42,0,2.52-1.2,2.52-2.59s-1.06-2.57-2.52-2.57-2.53,1.12-2.53,2.59Z"/>
          <path class="cls-1" d="m216.1,261.73h.86v3.3c0,2.15-.97,3.23-2.79,3.23s-2.81-1.08-2.81-3.23v-3.3h.86v3.11c0,.67,0,1.22.18,1.61.3.65.96,1.02,1.76,1.02.59,0,1.1-.22,1.44-.56.5-.54.49-1.15.49-2.06v-3.11Z"/>
          <path class="cls-1" d="m219.31,264.98c.04,1.46,1.03,2.53,2.4,2.53s1.97-.76,2.43-1.52l.68.36c-.65,1.27-1.64,1.91-3.03,1.91-2.11,0-3.32-1.62-3.32-3.32s1.28-3.37,3.27-3.37c1.81,0,3.27,1.31,3.3,3.42h-5.73Zm4.83-.72c-.33-1.32-1.28-1.91-2.39-1.91s-1.99.61-2.36,1.91h4.75Z"/>
          <path class="cls-1" d="m226.48,266.77c.41.46.85.71,1.33.71.62,0,1.17-.46,1.17-1.06,0-.37-.22-.72-.53-.89-1.46-.82-2.21-1.16-2.21-2.28,0-1.01.78-1.69,1.75-1.69.7,0,1.22.34,1.76.86l-.53.54c-.38-.37-.77-.61-1.28-.61s-.96.37-.96.85c0,.32.2.68.49.85,1.46.85,2.28,1.18,2.28,2.33,0,1-.77,1.88-1.92,1.88-.71,0-1.43-.32-1.88-.91l.52-.59Z"/>
          <path class="cls-1" d="m231.95,259.36h.82v2.37h1.31v.72h-1.31v5.65h-.82v-5.65h-1.13v-.72h1.13v-2.37Z"/>
          <path class="cls-1" d="m241.63,264.93c0,1.81-1.4,3.33-3.32,3.33s-3.32-1.52-3.32-3.33,1.42-3.37,3.32-3.37,3.32,1.55,3.32,3.37Zm-5.8.01c0,1.39,1.04,2.53,2.48,2.53s2.48-1.14,2.48-2.53-1.13-2.59-2.48-2.59-2.48,1.18-2.48,2.59Z"/>
          <path class="cls-1" d="m243.07,266.77c.41.46.85.71,1.33.71.62,0,1.17-.46,1.17-1.06,0-.37-.22-.72-.53-.89-1.46-.82-2.21-1.16-2.21-2.28,0-1.01.78-1.69,1.75-1.69.7,0,1.22.34,1.76.86l-.53.54c-.38-.37-.77-.61-1.28-.61s-.96.37-.96.85c0,.32.2.68.49.85,1.46.85,2.28,1.18,2.28,2.33,0,1-.77,1.88-1.92,1.88-.71,0-1.43-.32-1.88-.91l.52-.59Z"/>
          <path class="cls-1" d="m45.59,281.41c-.7.84-1.57,1.25-2.57,1.25-1.86,0-3.26-1.55-3.26-3.36s1.44-3.33,3.29-3.33c1.03,0,1.91.44,2.54,1.33v-3.62h.82v8.83h-.82v-1.09Zm-4.99-2.09c0,1.38,1.08,2.59,2.51,2.59,1.31,0,2.53-.98,2.53-2.57,0-1.48-1.09-2.59-2.52-2.59s-2.52,1.2-2.52,2.57Z"/>
          <path class="cls-1" d="m48.79,279.38c.04,1.46,1.03,2.53,2.4,2.53s1.97-.76,2.43-1.52l.68.36c-.65,1.27-1.64,1.91-3.03,1.91-2.11,0-3.32-1.62-3.32-3.32s1.28-3.37,3.27-3.37c1.81,0,3.27,1.31,3.3,3.42h-5.73Zm4.83-.72c-.33-1.32-1.28-1.91-2.39-1.91s-1.99.61-2.36,1.91h4.75Z"/>
          <path class="cls-1" d="m60.11,273.76h.82v2.37h1.31v.72h-1.31v5.65h-.82v-5.65h-1.13v-.72h1.13v-2.37Z"/>
          <path class="cls-1" d="m63.98,277.05c.48-.7,1-1.09,1.64-1.09.37,0,.56.12.73.22l-.43.7c-.1-.05-.25-.12-.43-.12-.6,0-1.14.52-1.38,1.39-.11.41-.13,1.07-.13,1.93v2.42h-.86v-6.37h.86v.92Z"/>
          <path class="cls-1" d="m72.6,276.13h.8v6.37h-.8v-1.09c-.7.84-1.57,1.25-2.57,1.25-1.86,0-3.26-1.55-3.26-3.36s1.44-3.33,3.29-3.33c1.03,0,1.91.44,2.54,1.33v-1.16Zm-4.99,3.19c0,1.38,1.08,2.59,2.51,2.59,1.31,0,2.54-.98,2.54-2.57,0-1.48-1.1-2.59-2.53-2.59s-2.52,1.2-2.52,2.57Z"/>
          <path class="cls-1" d="m76.13,282.5h-.82v-8.83h.82v3.55c.7-.84,1.56-1.26,2.55-1.26,1.86,0,3.27,1.55,3.27,3.36s-1.44,3.35-3.3,3.35c-1.03,0-1.88-.46-2.53-1.34v1.18Zm4.99-3.2c0-1.38-1.09-2.59-2.52-2.59-1.31,0-2.53.97-2.53,2.57,0,1.48,1.09,2.6,2.53,2.6s2.52-1.21,2.52-2.58Z"/>
          <path class="cls-1" d="m88.98,276.13h.8v6.37h-.8v-1.09c-.7.84-1.57,1.25-2.57,1.25-1.86,0-3.26-1.55-3.26-3.36s1.44-3.33,3.29-3.33c1.03,0,1.91.44,2.54,1.33v-1.16Zm-4.99,3.19c0,1.38,1.08,2.59,2.51,2.59,1.31,0,2.54-.98,2.54-2.57,0-1.48-1.1-2.59-2.53-2.59s-2.52,1.2-2.52,2.57Z"/>
          <path class="cls-1" d="m91.55,276.13h.82v7.33c0,1.02-.36,1.55-1.09,1.55-.36,0-.67-.11-.92-.2v-.74c.14.07.34.16.59.16.38,0,.61-.25.61-.76v-7.33Zm1.08-1.95c0,.37-.31.68-.68.68s-.67-.31-.67-.68.3-.67.67-.67.68.3.68.67Z"/>
          <path class="cls-1" d="m100.41,279.33c0,1.81-1.4,3.33-3.32,3.33s-3.32-1.52-3.32-3.33,1.42-3.37,3.32-3.37,3.32,1.55,3.32,3.37Zm-5.8.01c0,1.39,1.04,2.53,2.48,2.53s2.48-1.14,2.48-2.53-1.13-2.59-2.48-2.59-2.48,1.18-2.48,2.59Z"/>
          <path class="cls-1" d="m110.79,276.13h.8v6.37h-.8v-1.09c-.7.84-1.57,1.25-2.57,1.25-1.86,0-3.26-1.55-3.26-3.36s1.44-3.33,3.29-3.33c1.03,0,1.91.44,2.54,1.33v-1.16Zm-4.99,3.19c0,1.38,1.08,2.59,2.51,2.59,1.31,0,2.54-.98,2.54-2.57,0-1.48-1.1-2.59-2.53-2.59s-2.52,1.2-2.52,2.57Z"/>
          <path class="cls-1" d="m116.65,273.67h.82v8.83h-.82v-8.83Z"/>
          <path class="cls-1" d="m124.71,276.13h.8v6.37h-.8v-1.09c-.7.84-1.57,1.25-2.57,1.25-1.86,0-3.26-1.55-3.26-3.36s1.44-3.33,3.29-3.33c1.03,0,1.91.44,2.54,1.33v-1.16Zm-4.99,3.19c0,1.38,1.08,2.59,2.51,2.59,1.31,0,2.54-.98,2.54-2.57,0-1.48-1.1-2.59-2.53-2.59s-2.52,1.2-2.52,2.57Z"/>
          <path class="cls-1" d="m127.91,277.05c.48-.7,1-1.09,1.64-1.09.37,0,.56.12.73.22l-.43.7c-.1-.05-.25-.12-.43-.12-.6,0-1.14.52-1.38,1.39-.11.41-.13,1.07-.13,1.93v2.42h-.86v-6.37h.86v.92Z"/>
          <path class="cls-1" d="m137.31,281.2c0,1.04-.06,1.91-.58,2.61-.54.73-1.49,1.16-2.7,1.16-1.83,0-2.72-.74-3.29-1.98h.89c.48.84,1.22,1.24,2.35,1.24,1.05,0,1.83-.38,2.22-1.08.24-.44.28-.9.28-1.39v-.48c-.64.8-1.56,1.21-2.55,1.21-1.76,0-3.26-1.34-3.26-3.23s1.57-3.31,3.26-3.31c1.13,0,1.88.48,2.55,1.27v-1.1h.83v5.07Zm-5.81-1.88c0,1.27.9,2.39,2.58,2.39,1.39,0,2.43-.96,2.43-2.45s-1.14-2.51-2.46-2.51c-1.43,0-2.55,1.09-2.55,2.57Z"/>
          <path class="cls-1" d="m145.41,279.33c0,1.81-1.4,3.33-3.32,3.33s-3.32-1.52-3.32-3.33,1.42-3.37,3.32-3.37,3.32,1.55,3.32,3.37Zm-5.8.01c0,1.39,1.04,2.53,2.48,2.53s2.48-1.14,2.48-2.53-1.13-2.59-2.48-2.59-2.48,1.18-2.48,2.59Z"/>
          <path class="cls-1" d="m151.08,277.29c.64-.89,1.51-1.33,2.53-1.33,1.86,0,3.3,1.52,3.3,3.33s-1.4,3.36-3.27,3.36c-1,0-1.86-.41-2.55-1.25v3.42h-.82v-8.7h.82v1.16Zm-.06,2.05c0,1.58,1.22,2.57,2.53,2.57,1.42,0,2.52-1.2,2.52-2.59s-1.06-2.57-2.52-2.57-2.53,1.12-2.53,2.59Z"/>
          <path class="cls-1" d="m158.32,273.67h.82v8.83h-.82v-8.83Z"/>
          <path class="cls-1" d="m166.38,276.13h.8v6.37h-.8v-1.09c-.7.84-1.57,1.25-2.57,1.25-1.86,0-3.26-1.55-3.26-3.36s1.44-3.33,3.29-3.33c1.03,0,1.91.44,2.54,1.33v-1.16Zm-4.99,3.19c0,1.38,1.08,2.59,2.51,2.59,1.31,0,2.54-.98,2.54-2.57,0-1.48-1.1-2.59-2.53-2.59s-2.52,1.2-2.52,2.57Z"/>
          <path class="cls-1" d="m168.51,276.13h4.69l-3.61,5.65h3.49v.72h-4.91l3.61-5.65h-3.27v-.72Z"/>
          <path class="cls-1" d="m180.48,279.33c0,1.81-1.4,3.33-3.32,3.33s-3.32-1.52-3.32-3.33,1.42-3.37,3.32-3.37,3.32,1.55,3.32,3.37Zm-5.8.01c0,1.39,1.04,2.53,2.48,2.53s2.48-1.14,2.48-2.53-1.13-2.59-2.48-2.59-2.48,1.18-2.48,2.59Z"/>
          <path class="cls-1" d="m183.61,281.93c0,.41-.32.73-.72.73s-.72-.34-.72-.73.32-.73.72-.73.72.32.72.73Z"/>
        </g>
        <g>
          <circle class="cls-2" cx="233.8" cy="52.12" r="52.12"/>
          <g>
            <path class="cls-3" d="m240.48,63.82c3.27-2.17,5.43-5.88,5.43-10.08,0-6.67-5.43-12.1-12.1-12.1s-12.1,5.43-12.1,12.1c0,4.21,2.16,7.91,5.43,10.08-7.39,2.73-12.68,9.82-12.68,18.15h3.23c0-8.89,7.24-16.13,16.13-16.13s16.13,7.24,16.13,16.13h3.23c0-8.33-5.29-15.42-12.68-18.15Zm-6.67-1.21c-4.89,0-8.87-3.98-8.87-8.87s3.98-8.87,8.87-8.87,8.87,3.98,8.87,8.87-3.98,8.87-8.87,8.87Z"/>
            <path class="cls-3" d="m256.61,55.75c3.27-2.17,5.43-5.88,5.43-10.08,0-6.67-5.43-12.1-12.1-12.1-3.23,0-6.16,1.28-8.34,3.35-.8.77-1.5,1.64-2.07,2.61,1.01.41,1.96.91,2.85,1.51.57-.93,1.3-1.74,2.17-2.4,1.5-1.15,3.36-1.84,5.39-1.84,4.89,0,8.87,3.98,8.87,8.87,0,4.06-2.75,7.48-6.48,8.53-.76.21-1.56.34-2.4.34-.29,0-.57-.02-.85-.04-.06,1.16-.24,2.29-.54,3.37.46-.04.92-.1,1.39-.1.66,0,1.3.05,1.93.13,7.99.96,14.2,7.76,14.2,16h3.23c0-8.33-5.29-15.42-12.68-18.15Z"/>
            <path class="cls-3" d="m217.67,57.77c.47,0,.93.06,1.39.1-.3-1.08-.49-2.21-.54-3.37-.28.03-.56.04-.85.04-.83,0-1.63-.12-2.4-.34-3.73-1.05-6.48-4.47-6.48-8.53,0-4.89,3.98-8.87,8.87-8.87,2.03,0,3.89.69,5.39,1.84.86.66,1.59,1.48,2.17,2.4.89-.6,1.85-1.1,2.85-1.51-.57-.96-1.27-1.84-2.07-2.61-2.17-2.07-5.1-3.35-8.34-3.35-6.67,0-12.1,5.43-12.1,12.1,0,4.21,2.16,7.91,5.43,10.08-7.39,2.73-12.68,9.82-12.68,18.15h3.23c0-8.24,6.21-15.04,14.2-16,.63-.08,1.28-.13,1.93-.13Z"/>
            <path class="cls-3" d="m267.9,44.46c3.27-2.17,5.43-5.88,5.43-10.08,0-6.67-5.43-12.1-12.1-12.1-3.23,0-6.16,1.28-8.34,3.35-.8.77-1.5,1.64-2.07,2.61,1.01.41,1.96.91,2.85,1.51.57-.93,1.3-1.74,2.17-2.4,1.5-1.15,3.36-1.84,5.39-1.84,4.89,0,8.87,3.98,8.87,8.87,0,3.57-2.13,6.65-5.18,8.05.14.77.22,1.55.22,2.35,0,.73-.08,1.45-.19,2.15,7.11,1.68,12.42,8.06,12.42,15.67h3.23c0-8.33-5.29-15.42-12.68-18.15Z"/>
            <path class="cls-3" d="m202.48,44.78c0-.8.08-1.59.22-2.35-3.05-1.4-5.18-4.48-5.18-8.05,0-4.89,3.98-8.87,8.87-8.87,2.03,0,3.89.69,5.39,1.84.86.66,1.59,1.48,2.17,2.4.89-.6,1.85-1.1,2.85-1.51-.57-.96-1.27-1.84-2.07-2.61-2.17-2.07-5.11-3.35-8.34-3.35-6.67,0-12.1,5.43-12.1,12.1,0,4.21,2.16,7.91,5.43,10.08-7.39,2.73-12.68,9.82-12.68,18.15h3.23c0-7.61,5.31-13.99,12.42-15.67-.11-.7-.19-1.41-.19-2.15Z"/>
            <path class="cls-3" d="m233.8,25.51c4.31,0,7.88,3.11,8.67,7.19,1.77-1.06,3.04-1.3,3.04-1.3-1.33-5.23-6.07-9.12-11.71-9.12s-10.38,3.89-11.71,9.12c0,0,1.27.24,3.04,1.3.79-4.09,4.36-7.19,8.67-7.19Z"/>
          </g>
        </g>
      </g>
    </g>
  </g>
</svg>