<?xml version="1.0" encoding="UTF-8"?>
<svg xmlns="http://www.w3.org/2000/svg" xmlns:xlink="http://www.w3.org/1999/xlink" viewBox="0 0 221.8 206.37">
  <defs>
    <style>
      .cls-1 {
        fill: #029da4;
      }

      .cls-2 {
        fill: #8acdcf;
      }

      .cls-3 {
        fill: #3765ae;
      }

      .cls-4 {
        fill: url(#linear-gradient);
        mix-blend-mode: multiply;
      }

      .cls-5 {
        isolation: isolate;
      }
    </style>
    <linearGradient id="linear-gradient" x1="73.65" y1="274.41" x2="265.85" y2="-493.83" gradientUnits="userSpaceOnUse">
      <stop offset="0" stop-color="#fff"/>
      <stop offset="1" stop-color="#231f20"/>
    </linearGradient>
  </defs>
  <g class="cls-5">
    <g id="Capa_2" data-name="Capa 2">
      <g id="Capa_1-2" data-name="Capa 1">
        <g>
          <path class="cls-4" d="m7,23.56h195.63s-12.52,103.83,18.17,179.96l-216.12.83S-7.26,143.76,7,23.56Z"/>
          <path class="cls-1" d="m7,23.56h194.19s-11.44,101.12,16.6,161.81l-197.26.66S-6.03,119.39,7,23.56Z"/>
          <path class="cls-2" d="m7,23.56h198.19s-11.44,101.12,16.6,161.81l-193.31-8.73S-6.03,119.39,7,23.56Z"/>
        </g>
        <g>
          <path class="cls-3" d="m31.4,47.86h4.92v.84h-4.05v2.7h4.05v.84h-4.05v3.39h4.05v.84h-4.92v-8.61Z"/>
          <path class="cls-3" d="m37.57,47.64h.82v8.83h-.82v-8.83Z"/>
          <path class="cls-3" d="m49.91,55.14c.41.46.85.71,1.33.71.62,0,1.17-.46,1.17-1.06,0-.37-.22-.72-.53-.89-1.46-.82-2.21-1.16-2.21-2.28,0-1.01.78-1.69,1.75-1.69.7,0,1.22.34,1.76.86l-.53.54c-.38-.37-.77-.61-1.28-.61s-.96.37-.96.85c0,.32.2.68.49.85,1.46.85,2.28,1.18,2.28,2.33,0,1-.77,1.88-1.92,1.88-.71,0-1.43-.32-1.88-.91l.52-.59Z"/>
          <path class="cls-3" d="m55.62,48.15c0,.37-.31.68-.68.68s-.67-.31-.67-.68.31-.67.67-.67.68.3.68.67Zm-1.08,1.95h.82v6.37h-.82v-6.37Z"/>
          <path class="cls-3" d="m63.37,55.17c0,1.04-.06,1.91-.58,2.61-.54.73-1.49,1.16-2.7,1.16-1.83,0-2.72-.74-3.29-1.98h.89c.48.84,1.22,1.24,2.35,1.24,1.05,0,1.83-.38,2.22-1.08.24-.44.28-.9.28-1.39v-.48c-.64.8-1.56,1.21-2.55,1.21-1.76,0-3.26-1.34-3.26-3.23s1.57-3.31,3.26-3.31c1.13,0,1.88.48,2.55,1.27v-1.1h.83v5.07Zm-5.81-1.88c0,1.27.9,2.39,2.58,2.39,1.39,0,2.43-.96,2.43-2.45s-1.14-2.51-2.46-2.51c-1.43,0-2.55,1.09-2.55,2.57Z"/>
          <path class="cls-3" d="m65.94,51.24c.66-.86,1.45-1.31,2.39-1.31,1.39,0,2.36.96,2.36,2.96v3.57h-.82v-3.47c0-1.5-.47-2.33-1.7-2.33-.68,0-1.25.3-1.68.86-.48.62-.55,1.25-.55,2.25v2.67h-.82v-6.37h.82v1.14Z"/>
          <path class="cls-3" d="m73.41,48.15c0,.37-.31.68-.68.68s-.67-.31-.67-.68.31-.67.67-.67.68.3.68.67Zm-1.08,1.95h.82v6.37h-.82v-6.37Z"/>
          <path class="cls-3" d="m75.24,49.68c0-1.49.73-2.22,1.92-2.22,1.05,0,1.74.68,1.8,1.61h-.83c-.11-.53-.42-.82-.98-.82-.8,0-1.04.54-1.04,1.43v.42h1.31v.72h-1.31v5.65h-.86v-5.65h-.82v-.72h.82v-.42Zm2.9.42h.82v6.37h-.82v-6.37Z"/>
          <path class="cls-3" d="m86.88,55.19c-.62.95-1.7,1.44-2.99,1.44-2.1,0-3.5-1.51-3.5-3.29,0-1.87,1.46-3.41,3.56-3.41,1.22,0,2.34.5,2.93,1.49l-.66.41c-.56-.74-1.34-1.1-2.3-1.1-1.62,0-2.69,1.19-2.69,2.55s1.06,2.6,2.7,2.6c.92,0,1.69-.37,2.29-1.12l.66.42Z"/>
          <path class="cls-3" d="m93.99,50.1h.8v6.37h-.8v-1.09c-.7.84-1.57,1.25-2.57,1.25-1.86,0-3.26-1.55-3.26-3.36s1.44-3.33,3.29-3.33c1.03,0,1.91.44,2.54,1.33v-1.16Zm-4.99,3.19c0,1.38,1.08,2.59,2.51,2.59,1.31,0,2.54-.98,2.54-2.57,0-1.48-1.1-2.59-2.53-2.59s-2.52,1.2-2.52,2.57Z"/>
          <path class="cls-3" d="m102.2,55.38c-.7.84-1.57,1.25-2.57,1.25-1.86,0-3.26-1.55-3.26-3.36s1.44-3.33,3.29-3.33c1.03,0,1.91.44,2.54,1.33v-3.62h.82v8.83h-.82v-1.09Zm-4.99-2.09c0,1.38,1.08,2.59,2.51,2.59,1.31,0,2.53-.98,2.53-2.57,0-1.48-1.09-2.59-2.52-2.59s-2.52,1.2-2.52,2.57Z"/>
          <path class="cls-3" d="m111.21,53.3c0,1.81-1.4,3.33-3.32,3.33s-3.32-1.52-3.32-3.33,1.42-3.37,3.32-3.37,3.32,1.55,3.32,3.37Zm-5.8.01c0,1.39,1.04,2.53,2.48,2.53s2.48-1.14,2.48-2.53-1.13-2.59-2.48-2.59-2.48,1.18-2.48,2.59Z"/>
          <path class="cls-3" d="m123.17,53.35c.04,1.46,1.03,2.53,2.4,2.53s1.97-.76,2.43-1.52l.68.36c-.65,1.27-1.64,1.91-3.03,1.91-2.11,0-3.32-1.62-3.32-3.32s1.28-3.37,3.27-3.37c1.81,0,3.27,1.31,3.3,3.42h-5.73Zm4.83-.72c-.33-1.32-1.28-1.91-2.39-1.91s-1.99.61-2.36,1.91h4.75Z"/>
          <path class="cls-3" d="m131.16,47.73h.82v2.37h1.31v.72h-1.31v5.65h-.82v-5.65h-1.13v-.72h1.13v-2.37Z"/>
          <path class="cls-3" d="m135.47,48.15c0,.37-.31.68-.68.68s-.67-.31-.67-.68.31-.67.67-.67.68.3.68.67Zm-1.08,1.95h.82v6.37h-.82v-6.37Z"/>
          <path class="cls-3" d="m142.04,56.47h-.82v-3.26c0-.49-.05-.9-.06-1.19-.04-.7-.6-1.29-1.44-1.29-.56,0-1.13.28-1.49.74-.46.59-.54,1.34-.54,2.3v2.7h-.82v-6.37h.82v1.09c.56-.82,1.27-1.26,2.18-1.26.97,0,1.67.5,2.02,1.54.56-1.02,1.4-1.54,2.34-1.54,1.32,0,2.17.95,2.17,2.76v3.78h-.82v-3.48c0-.47-.06-.84-.07-1.08-.04-.56-.58-1.19-1.44-1.19-.79,0-1.49.48-1.81,1.29-.2.52-.23,1.08-.23,1.67v2.78Z"/>
          <path class="cls-3" d="m154.5,53.3c0,1.81-1.4,3.33-3.32,3.33s-3.32-1.52-3.32-3.33,1.42-3.37,3.32-3.37,3.32,1.55,3.32,3.37Zm-5.8.01c0,1.39,1.04,2.53,2.48,2.53s2.48-1.14,2.48-2.53-1.13-2.59-2.48-2.59-2.48,1.18-2.48,2.59Z"/>
          <path class="cls-3" d="m155.9,47.64h.82v8.83h-.82v-8.83Z"/>
          <path class="cls-3" d="m164.76,53.3c0,1.81-1.4,3.33-3.32,3.33s-3.32-1.52-3.32-3.33,1.42-3.37,3.32-3.37,3.32,1.55,3.32,3.37Zm-5.8.01c0,1.39,1.04,2.53,2.48,2.53s2.48-1.14,2.48-2.53-1.13-2.59-2.48-2.59-2.48,1.18-2.48,2.59Zm2.88-6.21h1.26l-1.74,1.81h-.8l1.28-1.81Z"/>
          <path class="cls-3" d="m172.6,55.17c0,1.04-.06,1.91-.58,2.61-.54.73-1.49,1.16-2.7,1.16-1.83,0-2.72-.74-3.29-1.98h.89c.48.84,1.22,1.24,2.35,1.24,1.05,0,1.83-.38,2.22-1.08.24-.44.28-.9.28-1.39v-.48c-.64.8-1.56,1.21-2.55,1.21-1.76,0-3.26-1.34-3.26-3.23s1.57-3.31,3.26-3.31c1.13,0,1.88.48,2.55,1.27v-1.1h.83v5.07Zm-5.81-1.88c0,1.27.9,2.39,2.58,2.39,1.39,0,2.43-.96,2.43-2.45s-1.14-2.51-2.46-2.51c-1.43,0-2.55,1.09-2.55,2.57Z"/>
          <path class="cls-3" d="m175.32,48.15c0,.37-.31.68-.68.68s-.67-.31-.67-.68.31-.67.67-.67.68.3.68.67Zm-1.08,1.95h.82v6.37h-.82v-6.37Z"/>
          <path class="cls-3" d="m182.94,55.19c-.62.95-1.7,1.44-2.99,1.44-2.1,0-3.5-1.51-3.5-3.29,0-1.87,1.46-3.41,3.56-3.41,1.22,0,2.34.5,2.93,1.49l-.66.41c-.56-.74-1.34-1.1-2.3-1.1-1.62,0-2.69,1.19-2.69,2.55s1.06,2.6,2.7,2.6c.92,0,1.69-.37,2.29-1.12l.66.42Z"/>
          <path class="cls-3" d="m190.86,53.3c0,1.81-1.4,3.33-3.32,3.33s-3.32-1.52-3.32-3.33,1.42-3.37,3.32-3.37,3.32,1.55,3.32,3.37Zm-5.8.01c0,1.39,1.04,2.53,2.48,2.53s2.48-1.14,2.48-2.53-1.13-2.59-2.48-2.59-2.48,1.18-2.48,2.59Z"/>
          <path class="cls-3" d="m32.08,65.66c.64-.89,1.51-1.33,2.53-1.33,1.86,0,3.3,1.52,3.3,3.33s-1.4,3.36-3.27,3.36c-1,0-1.86-.41-2.55-1.25v3.42h-.82v-8.7h.82v1.16Zm-.06,2.05c0,1.58,1.22,2.57,2.53,2.57,1.42,0,2.52-1.2,2.52-2.59s-1.06-2.57-2.52-2.57-2.53,1.12-2.53,2.59Z"/>
          <path class="cls-3" d="m39.98,65.42c.48-.7,1-1.09,1.64-1.09.37,0,.56.12.73.22l-.43.7c-.1-.05-.25-.12-.43-.12-.6,0-1.14.52-1.38,1.39-.11.41-.13,1.07-.13,1.93v2.42h-.86v-6.37h.86v.92Z"/>
          <path class="cls-3" d="m49.35,67.7c0,1.81-1.4,3.33-3.32,3.33s-3.32-1.52-3.32-3.33,1.42-3.37,3.32-3.37,3.32,1.55,3.32,3.37Zm-5.8.01c0,1.39,1.04,2.53,2.48,2.53s2.48-1.14,2.48-2.53-1.13-2.59-2.48-2.59-2.48,1.18-2.48,2.59Z"/>
          <path class="cls-3" d="m50.26,64.5h.88l2.13,4.63,2.11-4.63h.88l-2.91,6.37h-.14l-2.94-6.37Z"/>
          <path class="cls-3" d="m58.48,62.55c0,.37-.31.68-.68.68s-.67-.31-.67-.68.31-.67.67-.67.68.3.68.67Zm-1.08,1.95h.82v6.37h-.82v-6.37Z"/>
          <path class="cls-3" d="m60.45,67.75c.04,1.46,1.03,2.53,2.4,2.53s1.97-.76,2.43-1.52l.68.36c-.65,1.27-1.64,1.91-3.03,1.91-2.11,0-3.32-1.62-3.32-3.32s1.28-3.37,3.27-3.37c1.81,0,3.27,1.31,3.3,3.42h-5.73Zm4.83-.72c-.33-1.32-1.28-1.91-2.39-1.91s-1.99.61-2.36,1.91h4.75Z"/>
          <path class="cls-3" d="m68.53,65.64c.66-.86,1.45-1.31,2.39-1.31,1.39,0,2.36.96,2.36,2.96v3.57h-.82v-3.47c0-1.5-.47-2.33-1.7-2.33-.68,0-1.25.3-1.68.86-.48.62-.55,1.25-.55,2.25v2.67h-.82v-6.37h.82v1.14Z"/>
          <path class="cls-3" d="m75.57,67.75c.04,1.46,1.03,2.53,2.4,2.53s1.97-.76,2.43-1.52l.68.36c-.65,1.27-1.64,1.91-3.03,1.91-2.11,0-3.32-1.62-3.32-3.32s1.28-3.37,3.27-3.37c1.81,0,3.27,1.31,3.3,3.42h-5.73Zm4.83-.72c-.34-1.32-1.28-1.91-2.39-1.91s-1.99.61-2.36,1.91h4.75Z"/>
          <path class="cls-3" d="m91.38,69.78c-.7.84-1.57,1.25-2.57,1.25-1.86,0-3.26-1.55-3.26-3.36s1.44-3.33,3.29-3.33c1.03,0,1.91.44,2.54,1.33v-3.62h.82v8.83h-.82v-1.09Zm-4.99-2.09c0,1.38,1.08,2.59,2.51,2.59,1.31,0,2.53-.98,2.53-2.57,0-1.48-1.09-2.59-2.52-2.59s-2.52,1.2-2.52,2.57Z"/>
          <path class="cls-3" d="m94.59,67.75c.04,1.46,1.03,2.53,2.4,2.53s1.97-.76,2.43-1.52l.68.36c-.65,1.27-1.64,1.91-3.03,1.91-2.11,0-3.32-1.62-3.32-3.32s1.28-3.37,3.27-3.37c1.81,0,3.27,1.31,3.3,3.42h-5.73Zm4.83-.72c-.34-1.32-1.28-1.91-2.39-1.91s-1.99.61-2.36,1.91h4.75Z"/>
          <path class="cls-3" d="m101.73,62.04h.82v8.83h-.82v-8.83Z"/>
          <path class="cls-3" d="m107.13,62.04h.82v8.83h-.82v-8.83Z"/>
          <path class="cls-3" d="m115.19,64.5h.8v6.37h-.8v-1.09c-.7.84-1.57,1.25-2.57,1.25-1.86,0-3.26-1.55-3.26-3.36s1.44-3.33,3.29-3.33c1.03,0,1.91.44,2.54,1.33v-1.16Zm-4.99,3.19c0,1.38,1.08,2.59,2.51,2.59,1.31,0,2.54-.98,2.54-2.57,0-1.48-1.1-2.59-2.53-2.59s-2.52,1.2-2.52,2.57Z"/>
          <path class="cls-3" d="m118.57,62.13h.82v2.37h1.31v.72h-1.31v5.65h-.82v-5.65h-1.13v-.72h1.13v-2.37Z"/>
          <path class="cls-3" d="m122.62,61.5h1.26l-1.74,1.81h-.8l1.28-1.81Zm-.82,3h.82v6.37h-.82v-6.37Z"/>
          <path class="cls-3" d="m125.13,65.64c.66-.86,1.45-1.31,2.39-1.31,1.39,0,2.36.96,2.36,2.96v3.57h-.82v-3.47c0-1.5-.47-2.33-1.7-2.33-.68,0-1.25.3-1.68.86-.48.62-.55,1.25-.55,2.25v2.67h-.82v-6.37h.82v1.14Z"/>
          <path class="cls-3" d="m140.82,69.59c-.62.95-1.7,1.44-2.99,1.44-2.1,0-3.5-1.51-3.5-3.29,0-1.87,1.46-3.41,3.56-3.41,1.22,0,2.34.5,2.93,1.49l-.66.41c-.56-.74-1.34-1.1-2.3-1.1-1.62,0-2.69,1.19-2.69,2.55s1.06,2.6,2.7,2.6c.92,0,1.69-.37,2.29-1.12l.66.42Z"/>
          <path class="cls-3" d="m148.74,67.7c0,1.81-1.4,3.33-3.32,3.33s-3.32-1.52-3.32-3.33,1.42-3.37,3.32-3.37,3.32,1.55,3.32,3.37Zm-5.8.01c0,1.39,1.04,2.53,2.48,2.53s2.48-1.14,2.48-2.53-1.13-2.59-2.48-2.59-2.48,1.18-2.48,2.59Z"/>
          <path class="cls-3" d="m156.6,67.7c0,1.81-1.4,3.33-3.32,3.33s-3.32-1.52-3.32-3.33,1.42-3.37,3.32-3.37,3.32,1.55,3.32,3.37Zm-5.8.01c0,1.39,1.04,2.53,2.48,2.53s2.48-1.14,2.48-2.53-1.13-2.59-2.48-2.59-2.48,1.18-2.48,2.59Z"/>
          <path class="cls-3" d="m158.94,65.66c.64-.89,1.51-1.33,2.53-1.33,1.86,0,3.3,1.52,3.3,3.33s-1.4,3.36-3.27,3.36c-1,0-1.86-.41-2.55-1.25v3.42h-.82v-8.7h.82v1.16Zm-.06,2.05c0,1.58,1.22,2.57,2.53,2.57,1.42,0,2.52-1.2,2.52-2.59s-1.06-2.57-2.52-2.57-2.53,1.12-2.53,2.59Z"/>
          <path class="cls-3" d="m166.84,67.75c.04,1.46,1.03,2.53,2.4,2.53s1.97-.76,2.43-1.52l.68.36c-.65,1.27-1.64,1.91-3.03,1.91-2.11,0-3.32-1.62-3.32-3.32s1.28-3.37,3.27-3.37c1.81,0,3.27,1.31,3.3,3.42h-5.73Zm4.83-.72c-.33-1.32-1.28-1.91-2.39-1.91s-1.99.61-2.36,1.91h4.75Z"/>
          <path class="cls-3" d="m174.64,65.42c.48-.7,1-1.09,1.64-1.09.37,0,.56.12.73.22l-.43.7c-.1-.05-.25-.12-.43-.12-.6,0-1.14.52-1.38,1.39-.11.41-.13,1.07-.13,1.93v2.42h-.86v-6.37h.86v.92Z"/>
          <path class="cls-3" d="m183.25,64.5h.8v6.37h-.8v-1.09c-.7.84-1.57,1.25-2.57,1.25-1.86,0-3.26-1.55-3.26-3.36s1.44-3.33,3.29-3.33c1.03,0,1.91.44,2.54,1.33v-1.16Zm-4.99,3.19c0,1.38,1.08,2.59,2.51,2.59,1.31,0,2.54-.98,2.54-2.57,0-1.48-1.1-2.59-2.53-2.59s-2.52,1.2-2.52,2.57Z"/>
          <path class="cls-3" d="m186.64,62.13h.82v2.37h1.31v.72h-1.31v5.65h-.82v-5.65h-1.13v-.72h1.13v-2.37Z"/>
          <path class="cls-3" d="m190.94,62.55c0,.37-.31.68-.68.68s-.67-.31-.67-.68.31-.67.67-.67.68.3.68.67Zm-1.08,1.95h.82v6.37h-.82v-6.37Z"/>
          <path class="cls-3" d="m32.85,87.76c-.59-1.39-.96-3.33-.96-5.41,0-2.18.41-4.28,1.2-6.08h.95c-.76,1.54-1.25,3.69-1.25,5.98,0,2.09.35,4.05.96,5.5h-.9Z"/>
          <path class="cls-3" d="m41.24,84.18c-.7.84-1.57,1.25-2.57,1.25-1.86,0-3.26-1.55-3.26-3.36s1.44-3.33,3.29-3.33c1.03,0,1.91.44,2.54,1.33v-3.62h.82v8.83h-.82v-1.09Zm-4.99-2.09c0,1.38,1.08,2.59,2.51,2.59,1.31,0,2.53-.98,2.53-2.57,0-1.48-1.09-2.59-2.52-2.59s-2.52,1.2-2.52,2.57Z"/>
          <path class="cls-3" d="m44.44,82.15c.04,1.46,1.03,2.53,2.4,2.53s1.97-.76,2.43-1.52l.68.36c-.65,1.27-1.64,1.91-3.03,1.91-2.11,0-3.32-1.62-3.32-3.32s1.28-3.37,3.27-3.37c1.81,0,3.27,1.31,3.3,3.42h-5.73Zm4.83-.72c-.34-1.32-1.28-1.91-2.39-1.91s-1.99.61-2.36,1.91h4.75Z"/>
          <path class="cls-3" d="m62.89,83.99c-.62.95-1.7,1.44-2.99,1.44-2.1,0-3.5-1.51-3.5-3.29,0-1.87,1.46-3.41,3.56-3.41,1.22,0,2.34.5,2.93,1.49l-.66.41c-.56-.74-1.34-1.1-2.3-1.1-1.62,0-2.69,1.19-2.69,2.55s1.06,2.6,2.7,2.6c.92,0,1.69-.37,2.29-1.12l.66.42Z"/>
          <path class="cls-3" d="m69.1,78.9h.86v3.3c0,2.15-.97,3.23-2.79,3.23s-2.81-1.08-2.81-3.23v-3.3h.86v3.11c0,.67,0,1.22.18,1.61.3.65.96,1.02,1.76,1.02.59,0,1.1-.22,1.44-.56.5-.54.49-1.15.49-2.06v-3.11Z"/>
          <path class="cls-3" d="m76.91,85.27h-.82v-3.26c0-.49-.05-.9-.06-1.19-.04-.7-.6-1.29-1.44-1.29-.56,0-1.13.28-1.49.74-.46.59-.54,1.34-.54,2.3v2.7h-.82v-6.37h.82v1.09c.56-.82,1.27-1.26,2.18-1.26.97,0,1.67.5,2.02,1.54.56-1.02,1.4-1.54,2.34-1.54,1.32,0,2.17.95,2.17,2.76v3.78h-.82v-3.48c0-.47-.06-.84-.07-1.08-.04-.56-.58-1.19-1.44-1.19-.79,0-1.49.48-1.81,1.29-.2.52-.23,1.08-.23,1.67v2.78Z"/>
          <path class="cls-3" d="m83.85,83.69l.78.37-1.19,2.22-.58-.24.98-2.35Z"/>
          <path class="cls-3" d="m97.53,83.99c-.62.95-1.7,1.44-2.99,1.44-2.1,0-3.5-1.51-3.5-3.29,0-1.87,1.46-3.41,3.56-3.41,1.22,0,2.34.5,2.93,1.49l-.66.41c-.56-.74-1.34-1.1-2.3-1.1-1.62,0-2.69,1.19-2.69,2.55s1.06,2.6,2.7,2.6c.92,0,1.69-.37,2.29-1.12l.66.42Z"/>
          <path class="cls-3" d="m105.45,82.1c0,1.81-1.4,3.33-3.32,3.33s-3.32-1.52-3.32-3.33,1.42-3.37,3.32-3.37,3.32,1.55,3.32,3.37Zm-5.8.01c0,1.39,1.04,2.53,2.48,2.53s2.48-1.14,2.48-2.53-1.13-2.59-2.48-2.59-2.48,1.18-2.48,2.59Z"/>
          <path class="cls-3" d="m107.79,80.04c.66-.86,1.45-1.31,2.39-1.31,1.39,0,2.36.96,2.36,2.96v3.57h-.82v-3.47c0-1.5-.47-2.33-1.7-2.33-.68,0-1.25.3-1.68.86-.48.62-.55,1.25-.55,2.25v2.67h-.82v-6.37h.82v1.14Z"/>
          <path class="cls-3" d="m115.29,76.27c.58,1.38.94,3.31.94,5.4s-.4,4.29-1.18,6.09h-.95c.76-1.54,1.28-3.68,1.28-5.98,0-2.1-.38-4.05-1-5.5h.9Z"/>
          <path class="cls-3" d="m119.55,83.69l.78.37-1.19,2.22-.58-.24.98-2.35Z"/>
          <path class="cls-3" d="m132.59,78.9h.82v8.7h-.82v-3.42c-.7.84-1.57,1.25-2.57,1.25-1.86,0-3.26-1.55-3.26-3.36s1.44-3.33,3.29-3.33c1.03,0,1.91.44,2.54,1.33v-1.16Zm-4.99,3.19c0,1.38,1.08,2.59,2.51,2.59,1.31,0,2.53-.98,2.53-2.57,0-1.48-1.09-2.59-2.52-2.59s-2.52,1.2-2.52,2.57Z"/>
          <path class="cls-3" d="m139.86,78.9h.86v3.3c0,2.15-.97,3.23-2.79,3.23s-2.81-1.08-2.81-3.23v-3.3h.86v3.11c0,.67,0,1.22.18,1.61.3.65.96,1.02,1.76,1.02.59,0,1.1-.22,1.44-.56.5-.54.49-1.15.49-2.06v-3.11Z"/>
          <path class="cls-3" d="m143.07,82.15c.04,1.46,1.03,2.53,2.4,2.53s1.97-.76,2.43-1.52l.68.36c-.65,1.27-1.64,1.91-3.03,1.91-2.11,0-3.32-1.62-3.32-3.32s1.28-3.37,3.27-3.37c1.81,0,3.27,1.31,3.3,3.42h-5.73Zm4.83-.72c-.34-1.32-1.28-1.91-2.39-1.91s-1.99.61-2.36,1.91h4.75Z"/>
          <path class="cls-3" d="m160.87,78.9h.82v8.7h-.82v-3.42c-.7.84-1.57,1.25-2.57,1.25-1.86,0-3.26-1.55-3.26-3.36s1.44-3.33,3.29-3.33c1.03,0,1.91.44,2.54,1.33v-1.16Zm-4.99,3.19c0,1.38,1.08,2.59,2.51,2.59,1.31,0,2.53-.98,2.53-2.57,0-1.48-1.09-2.59-2.52-2.59s-2.52,1.2-2.52,2.57Z"/>
          <path class="cls-3" d="m168.14,78.9h.86v3.3c0,2.15-.97,3.23-2.79,3.23s-2.81-1.08-2.81-3.23v-3.3h.86v3.11c0,.67,0,1.22.18,1.61.3.65.96,1.02,1.76,1.02.59,0,1.1-.22,1.44-.56.5-.54.49-1.15.49-2.06v-3.11Z"/>
          <path class="cls-3" d="m171.78,76.94c0,.37-.31.68-.68.68s-.67-.31-.67-.68.31-.67.67-.67.68.3.68.67Zm-1.08,1.95h.82v6.37h-.82v-6.37Z"/>
          <path class="cls-3" d="m173.75,82.15c.04,1.46,1.03,2.53,2.4,2.53s1.97-.76,2.43-1.52l.68.36c-.65,1.27-1.64,1.91-3.03,1.91-2.11,0-3.32-1.62-3.32-3.32s1.28-3.37,3.27-3.37c1.81,0,3.27,1.31,3.3,3.42h-5.73Zm4.83-.72c-.33-1.32-1.28-1.91-2.39-1.91s-1.99.61-2.36,1.91h4.75Z"/>
          <path class="cls-3" d="m181.55,79.82c.48-.7,1-1.09,1.64-1.09.37,0,.56.12.73.22l-.43.7c-.1-.05-.25-.12-.43-.12-.6,0-1.14.52-1.38,1.39-.11.41-.13,1.07-.13,1.93v2.42h-.86v-6.37h.86v.92Z"/>
          <path class="cls-3" d="m185.11,82.15c.04,1.46,1.03,2.53,2.4,2.53s1.97-.76,2.43-1.52l.68.36c-.65,1.27-1.64,1.91-3.03,1.91-2.11,0-3.32-1.62-3.32-3.32s1.28-3.37,3.27-3.37c1.81,0,3.27,1.31,3.3,3.42h-5.73Zm4.83-.72c-.34-1.32-1.28-1.91-2.39-1.91s-1.99.61-2.36,1.91h4.75Z"/>
          <path class="cls-3" d="m36.81,98.58c-.7.84-1.57,1.25-2.57,1.25-1.86,0-3.26-1.55-3.26-3.36s1.44-3.33,3.29-3.33c1.03,0,1.91.44,2.54,1.33v-3.62h.82v8.83h-.82v-1.09Zm-4.99-2.09c0,1.38,1.08,2.59,2.51,2.59,1.31,0,2.53-.98,2.53-2.57,0-1.48-1.09-2.59-2.52-2.59s-2.52,1.2-2.52,2.57Z"/>
          <path class="cls-3" d="m40.01,96.55c.04,1.46,1.03,2.53,2.4,2.53s1.97-.76,2.43-1.52l.68.36c-.65,1.27-1.64,1.91-3.03,1.91-2.11,0-3.32-1.62-3.32-3.32s1.28-3.37,3.27-3.37c1.81,0,3.27,1.31,3.3,3.42h-5.73Zm4.83-.72c-.34-1.32-1.28-1.91-2.39-1.91s-1.99.61-2.36,1.91h4.75Z"/>
          <path class="cls-3" d="m53.46,98.38c-.62.95-1.7,1.44-2.99,1.44-2.1,0-3.5-1.51-3.5-3.29,0-1.87,1.46-3.41,3.56-3.41,1.22,0,2.34.5,2.93,1.49l-.66.41c-.56-.74-1.34-1.1-2.3-1.1-1.62,0-2.69,1.19-2.69,2.55s1.06,2.6,2.7,2.6c.92,0,1.69-.37,2.29-1.12l.66.42Z"/>
          <path class="cls-3" d="m56.01,91.34c0,.37-.31.68-.68.68s-.67-.31-.67-.68.31-.67.67-.67.68.3.68.67Zm-1.08,1.95h.82v6.37h-.82v-6.37Z"/>
          <path class="cls-3" d="m57.98,94.22c.48-.7,1-1.09,1.64-1.09.37,0,.56.12.73.22l-.43.7c-.1-.05-.25-.12-.43-.12-.6,0-1.14.52-1.38,1.39-.11.41-.13,1.07-.13,1.93v2.42h-.86v-6.37h.86v.92Z"/>
          <path class="cls-3" d="m64.76,93.3h.82v7.33c0,1.02-.36,1.55-1.09,1.55-.36,0-.67-.11-.92-.2v-.74c.14.07.34.16.59.16.38,0,.61-.25.61-.76v-7.33Zm1.08-1.95c0,.37-.31.68-.68.68s-.67-.31-.67-.68.3-.67.67-.67.68.3.68.67Z"/>
          <path class="cls-3" d="m71.91,93.3h.86v3.3c0,2.15-.97,3.23-2.79,3.23s-2.81-1.08-2.81-3.23v-3.3h.86v3.11c0,.67,0,1.22.18,1.61.3.65.96,1.02,1.76,1.02.59,0,1.1-.22,1.44-.56.5-.54.49-1.15.49-2.06v-3.11Z"/>
          <path class="cls-3" d="m75.4,94.44c.66-.86,1.45-1.31,2.39-1.31,1.39,0,2.36.96,2.36,2.96v3.57h-.82v-3.47c0-1.5-.47-2.33-1.7-2.33-.68,0-1.25.3-1.68.86-.48.62-.55,1.25-.55,2.25v2.67h-.82v-6.37h.82v1.14Z"/>
          <path class="cls-3" d="m82.63,90.92h.82v2.37h1.31v.72h-1.31v5.65h-.82v-5.65h-1.13v-.72h1.13v-2.37Z"/>
          <path class="cls-3" d="m92.31,96.5c0,1.81-1.4,3.33-3.32,3.33s-3.32-1.52-3.32-3.33,1.42-3.37,3.32-3.37,3.32,1.55,3.32,3.37Zm-5.8.01c0,1.39,1.04,2.53,2.48,2.53s2.48-1.14,2.48-2.53-1.13-2.59-2.48-2.59-2.48,1.18-2.48,2.59Z"/>
          <path class="cls-3" d="m103.17,93.3h.8v6.37h-.8v-1.09c-.7.84-1.57,1.25-2.57,1.25-1.86,0-3.26-1.55-3.26-3.36s1.44-3.33,3.29-3.33c1.03,0,1.91.44,2.54,1.33v-1.16Zm-4.99,3.19c0,1.38,1.08,2.59,2.51,2.59,1.31,0,2.54-.98,2.54-2.57,0-1.48-1.1-2.59-2.53-2.59s-2.52,1.2-2.52,2.57Z"/>
          <path class="cls-3" d="m108.94,93.3h.86l2.19,4.91,2.12-4.91h.88l-3.8,8.7h-.86l1.22-2.81-2.62-5.89Z"/>
          <path class="cls-3" d="m126.2,96.5c0,1.81-1.4,3.33-3.32,3.33s-3.32-1.52-3.32-3.33,1.42-3.37,3.32-3.37,3.32,1.55,3.32,3.37Zm-5.8.01c0,1.39,1.04,2.53,2.48,2.53s2.48-1.14,2.48-2.53-1.13-2.59-2.48-2.59-2.48,1.18-2.48,2.59Z"/>
          <path class="cls-3" d="m128.54,94.46c.64-.89,1.51-1.33,2.53-1.33,1.86,0,3.3,1.52,3.3,3.33s-1.4,3.36-3.27,3.36c-1,0-1.86-.41-2.55-1.25v3.42h-.82v-8.7h.82v1.16Zm-.06,2.05c0,1.58,1.22,2.57,2.53,2.57,1.42,0,2.52-1.2,2.52-2.59s-1.06-2.57-2.52-2.57-2.53,1.12-2.53,2.59Z"/>
          <path class="cls-3" d="m136.44,96.55c.04,1.46,1.03,2.53,2.4,2.53s1.97-.76,2.43-1.52l.68.36c-.65,1.27-1.64,1.91-3.03,1.91-2.11,0-3.32-1.62-3.32-3.32s1.28-3.37,3.27-3.37c1.81,0,3.27,1.31,3.3,3.42h-5.73Zm4.83-.72c-.33-1.32-1.28-1.91-2.39-1.91s-1.99.61-2.36,1.91h4.75Z"/>
          <path class="cls-3" d="m144.23,94.22c.48-.7,1-1.09,1.64-1.09.37,0,.56.12.73.22l-.43.7c-.1-.05-.25-.12-.43-.12-.6,0-1.14.52-1.38,1.39-.11.41-.13,1.07-.13,1.93v2.42h-.86v-6.37h.86v.92Z"/>
          <path class="cls-3" d="m152.85,93.3h.8v6.37h-.8v-1.09c-.7.84-1.57,1.25-2.57,1.25-1.86,0-3.26-1.55-3.26-3.36s1.44-3.33,3.29-3.33c1.03,0,1.91.44,2.54,1.33v-1.16Zm-4.99,3.19c0,1.38,1.08,2.59,2.51,2.59,1.31,0,2.54-.98,2.54-2.57,0-1.48-1.1-2.59-2.53-2.59s-2.52,1.2-2.52,2.57Z"/>
          <path class="cls-3" d="m156.24,90.92h.82v2.37h1.31v.72h-1.31v5.65h-.82v-5.65h-1.13v-.72h1.13v-2.37Z"/>
          <path class="cls-3" d="m160.54,91.34c0,.37-.31.68-.68.68s-.67-.31-.67-.68.31-.67.67-.67.68.3.68.67Zm-1.08,1.95h.82v6.37h-.82v-6.37Z"/>
          <path class="cls-3" d="m162.8,98.09l.78.37-1.19,2.22-.58-.24.98-2.35Zm.8-4.22c0,.41-.32.73-.72.73s-.72-.32-.72-.73.32-.73.72-.73.72.32.72.73Z"/>
          <path class="cls-3" d="m174.64,93.3h.82v8.7h-.82v-3.42c-.7.84-1.57,1.25-2.57,1.25-1.86,0-3.26-1.55-3.26-3.36s1.44-3.33,3.29-3.33c1.03,0,1.91.44,2.54,1.33v-1.16Zm-4.99,3.19c0,1.38,1.08,2.59,2.51,2.59,1.31,0,2.53-.98,2.53-2.57,0-1.48-1.09-2.59-2.52-2.59s-2.52,1.2-2.52,2.57Z"/>
          <path class="cls-3" d="m181.91,93.3h.86v3.3c0,2.15-.97,3.23-2.79,3.23s-2.81-1.08-2.81-3.23v-3.3h.86v3.11c0,.67,0,1.22.18,1.61.3.65.96,1.02,1.76,1.02.59,0,1.1-.22,1.44-.56.5-.54.49-1.15.49-2.06v-3.11Z"/>
          <path class="cls-3" d="m185.11,96.55c.04,1.46,1.03,2.53,2.4,2.53s1.97-.76,2.43-1.52l.68.36c-.65,1.27-1.64,1.91-3.03,1.91-2.11,0-3.32-1.62-3.32-3.32s1.28-3.37,3.27-3.37c1.81,0,3.27,1.31,3.3,3.42h-5.73Zm4.83-.72c-.34-1.32-1.28-1.91-2.39-1.91s-1.99.61-2.36,1.91h4.75Z"/>
          <path class="cls-3" d="m31.17,112.74c.41.46.85.71,1.33.71.62,0,1.17-.46,1.17-1.06,0-.37-.22-.72-.53-.89-1.46-.82-2.21-1.16-2.21-2.28,0-1.01.78-1.69,1.75-1.69.7,0,1.22.34,1.76.86l-.53.54c-.38-.37-.77-.61-1.28-.61s-.96.37-.96.85c0,.32.2.68.49.85,1.46.85,2.28,1.18,2.28,2.33,0,1-.77,1.88-1.92,1.88-.71,0-1.43-.32-1.88-.91l.52-.59Z"/>
          <path class="cls-3" d="m36.88,105.75c0,.37-.31.68-.68.68s-.67-.31-.67-.68.31-.67.67-.67.68.3.68.67Zm-1.08,1.95h.82v6.37h-.82v-6.37Z"/>
          <path class="cls-3" d="m44.63,112.77c0,1.04-.06,1.91-.58,2.61-.54.73-1.49,1.16-2.7,1.16-1.83,0-2.72-.74-3.29-1.98h.89c.48.84,1.22,1.24,2.35,1.24,1.05,0,1.83-.38,2.22-1.08.24-.44.28-.9.28-1.39v-.48c-.64.8-1.56,1.21-2.55,1.21-1.76,0-3.26-1.34-3.26-3.23s1.57-3.31,3.26-3.31c1.13,0,1.88.48,2.55,1.27v-1.1h.83v5.07Zm-5.81-1.88c0,1.27.9,2.39,2.58,2.39,1.39,0,2.43-.96,2.43-2.45s-1.14-2.51-2.46-2.51c-1.43,0-2.55,1.09-2.55,2.57Z"/>
          <path class="cls-3" d="m47.2,108.84c.66-.86,1.45-1.31,2.39-1.31,1.39,0,2.36.96,2.36,2.96v3.57h-.82v-3.47c0-1.5-.47-2.33-1.7-2.33-.68,0-1.25.3-1.68.86-.48.62-.55,1.25-.55,2.25v2.67h-.82v-6.37h.82v1.14Z"/>
          <path class="cls-3" d="m54.68,105.75c0,.37-.31.68-.68.68s-.67-.31-.67-.68.31-.67.67-.67.68.3.68.67Zm-1.08,1.95h.82v6.37h-.82v-6.37Z"/>
          <path class="cls-3" d="m56.5,107.28c0-1.49.73-2.22,1.92-2.22,1.05,0,1.74.68,1.8,1.61h-.83c-.11-.53-.42-.82-.98-.82-.8,0-1.04.54-1.04,1.43v.42h1.31v.72h-1.31v5.65h-.86v-5.65h-.82v-.72h.82v-.42Zm2.9.42h.82v6.37h-.82v-6.37Z"/>
          <path class="cls-3" d="m68.14,112.79c-.62.95-1.7,1.44-2.99,1.44-2.1,0-3.5-1.51-3.5-3.29,0-1.87,1.46-3.41,3.56-3.41,1.22,0,2.34.5,2.93,1.49l-.66.41c-.56-.74-1.34-1.1-2.3-1.1-1.62,0-2.69,1.19-2.69,2.55s1.06,2.6,2.7,2.6c.92,0,1.69-.37,2.29-1.12l.66.42Z"/>
          <path class="cls-3" d="m75.26,107.7h.8v6.37h-.8v-1.09c-.7.84-1.57,1.25-2.57,1.25-1.86,0-3.26-1.55-3.26-3.36s1.44-3.33,3.29-3.33c1.03,0,1.91.44,2.54,1.33v-1.16Zm-4.99,3.19c0,1.38,1.08,2.59,2.51,2.59,1.31,0,2.54-.98,2.54-2.57,0-1.48-1.1-2.59-2.53-2.59s-2.52,1.2-2.52,2.57Z"/>
          <path class="cls-3" d="m84.83,105.33h.82v2.37h1.31v.72h-1.31v5.65h-.82v-5.65h-1.13v-.72h1.13v-2.37Z"/>
          <path class="cls-3" d="m88.71,108.62c.48-.7,1-1.09,1.64-1.09.37,0,.56.12.73.22l-.43.7c-.1-.05-.25-.12-.43-.12-.6,0-1.14.52-1.38,1.39-.11.41-.13,1.07-.13,1.93v2.42h-.86v-6.37h.86v.92Z"/>
          <path class="cls-3" d="m97.32,107.7h.8v6.37h-.8v-1.09c-.7.84-1.57,1.25-2.57,1.25-1.86,0-3.26-1.55-3.26-3.36s1.44-3.33,3.29-3.33c1.03,0,1.91.44,2.54,1.33v-1.16Zm-4.99,3.19c0,1.38,1.08,2.59,2.51,2.59,1.31,0,2.54-.98,2.54-2.57,0-1.48-1.1-2.59-2.53-2.59s-2.52,1.2-2.52,2.57Z"/>
          <path class="cls-3" d="m100.85,114.07h-.82v-8.83h.82v3.55c.7-.84,1.56-1.26,2.55-1.26,1.86,0,3.27,1.55,3.27,3.36s-1.44,3.35-3.3,3.35c-1.03,0-1.88-.46-2.53-1.34v1.18Zm4.99-3.2c0-1.38-1.09-2.59-2.52-2.59-1.31,0-2.53.97-2.53,2.57,0,1.48,1.09,2.6,2.53,2.6s2.52-1.21,2.52-2.58Z"/>
          <path class="cls-3" d="m113.7,107.7h.8v6.37h-.8v-1.09c-.7.84-1.57,1.25-2.57,1.25-1.86,0-3.26-1.55-3.26-3.36s1.44-3.33,3.29-3.33c1.03,0,1.91.44,2.54,1.33v-1.16Zm-4.99,3.19c0,1.38,1.08,2.59,2.51,2.59,1.31,0,2.54-.98,2.54-2.57,0-1.48-1.1-2.59-2.53-2.59s-2.52,1.2-2.52,2.57Z"/>
          <path class="cls-3" d="m116.27,107.7h.82v7.33c0,1.02-.36,1.55-1.09,1.55-.36,0-.67-.11-.92-.2v-.74c.14.07.34.16.59.16.38,0,.61-.25.61-.76v-7.33Zm1.08-1.95c0,.37-.31.68-.68.68s-.67-.31-.67-.68.3-.67.67-.67.68.3.68.67Z"/>
          <path class="cls-3" d="m124.33,107.7h.8v6.37h-.8v-1.09c-.7.84-1.57,1.25-2.57,1.25-1.86,0-3.26-1.55-3.26-3.36s1.44-3.33,3.29-3.33c1.03,0,1.91.44,2.54,1.33v-1.16Zm-4.99,3.19c0,1.38,1.08,2.59,2.51,2.59,1.31,0,2.54-.98,2.54-2.57,0-1.48-1.1-2.59-2.53-2.59s-2.52,1.2-2.52,2.57Z"/>
          <path class="cls-3" d="m127.8,108.84c.66-.86,1.45-1.31,2.39-1.31,1.39,0,2.36.96,2.36,2.96v3.57h-.82v-3.47c0-1.5-.47-2.33-1.7-2.33-.68,0-1.25.3-1.68.86-.48.62-.55,1.25-.55,2.25v2.67h-.82v-6.37h.82v1.14Z"/>
          <path class="cls-3" d="m139.86,112.98c-.7.84-1.57,1.25-2.57,1.25-1.86,0-3.26-1.55-3.26-3.36s1.44-3.33,3.29-3.33c1.03,0,1.91.44,2.54,1.33v-3.62h.82v8.83h-.82v-1.09Zm-4.99-2.09c0,1.38,1.08,2.59,2.51,2.59,1.31,0,2.53-.98,2.53-2.57,0-1.48-1.09-2.59-2.52-2.59s-2.52,1.2-2.52,2.57Z"/>
          <path class="cls-3" d="m148.87,110.9c0,1.81-1.4,3.33-3.32,3.33s-3.32-1.52-3.32-3.33,1.42-3.37,3.32-3.37,3.32,1.55,3.32,3.37Zm-5.8.01c0,1.39,1.04,2.53,2.48,2.53s2.48-1.14,2.48-2.53-1.13-2.59-2.48-2.59-2.48,1.18-2.48,2.59Z"/>
          <path class="cls-3" d="m151.22,112.49l.78.37-1.19,2.22-.58-.24.98-2.35Z"/>
          <path class="cls-3" d="m165.46,112.98c-.7.84-1.57,1.25-2.57,1.25-1.86,0-3.26-1.55-3.26-3.36s1.44-3.33,3.29-3.33c1.03,0,1.91.44,2.54,1.33v-3.62h.82v8.83h-.82v-1.09Zm-4.99-2.09c0,1.38,1.08,2.59,2.51,2.59,1.31,0,2.53-.98,2.53-2.57,0-1.48-1.09-2.59-2.52-2.59s-2.52,1.2-2.52,2.57Z"/>
          <path class="cls-3" d="m168.66,110.95c.04,1.46,1.03,2.53,2.4,2.53s1.97-.76,2.43-1.52l.68.36c-.65,1.27-1.64,1.91-3.03,1.91-2.11,0-3.32-1.62-3.32-3.32s1.28-3.37,3.27-3.37c1.81,0,3.27,1.31,3.3,3.42h-5.73Zm4.83-.72c-.33-1.32-1.28-1.91-2.39-1.91s-1.99.61-2.36,1.91h4.75Z"/>
          <path class="cls-3" d="m181.99,105.24h.82v8.83h-.82v-8.83Z"/>
          <path class="cls-3" d="m190.86,110.9c0,1.81-1.4,3.33-3.32,3.33s-3.32-1.52-3.32-3.33,1.42-3.37,3.32-3.37,3.32,1.55,3.32,3.37Zm-5.8.01c0,1.39,1.04,2.53,2.48,2.53s2.48-1.14,2.48-2.53-1.13-2.59-2.48-2.59-2.48,1.18-2.48,2.59Z"/>
          <path class="cls-3" d="m36.8,122.1h.82v8.7h-.82v-3.42c-.7.84-1.57,1.25-2.57,1.25-1.86,0-3.26-1.55-3.26-3.36s1.44-3.33,3.29-3.33c1.03,0,1.91.44,2.54,1.33v-1.16Zm-4.99,3.19c0,1.38,1.08,2.59,2.51,2.59,1.31,0,2.53-.98,2.53-2.57,0-1.48-1.09-2.59-2.52-2.59s-2.52,1.2-2.52,2.57Z"/>
          <path class="cls-3" d="m44.07,122.1h.86v3.3c0,2.15-.97,3.23-2.79,3.23s-2.81-1.08-2.81-3.23v-3.3h.86v3.11c0,.67,0,1.22.18,1.61.3.65.96,1.02,1.76,1.02.59,0,1.1-.22,1.44-.56.5-.54.49-1.15.49-2.06v-3.11Z"/>
          <path class="cls-3" d="m47.27,125.35c.04,1.46,1.03,2.53,2.4,2.53s1.97-.76,2.43-1.52l.68.36c-.65,1.27-1.64,1.91-3.03,1.91-2.11,0-3.32-1.62-3.32-3.32s1.28-3.37,3.27-3.37c1.81,0,3.27,1.31,3.3,3.42h-5.73Zm4.83-.72c-.34-1.32-1.28-1.91-2.39-1.91s-1.99.61-2.36,1.91h4.75Z"/>
          <path class="cls-3" d="m69.39,123.26c.64-.89,1.51-1.33,2.53-1.33,1.86,0,3.3,1.52,3.3,3.33s-1.4,3.36-3.27,3.36c-1,0-1.86-.41-2.55-1.25v3.42h-.82v-8.7h.82v1.16Zm-.06,2.05c0,1.58,1.22,2.57,2.53,2.57,1.42,0,2.52-1.2,2.52-2.59s-1.06-2.57-2.52-2.57-2.53,1.12-2.53,2.59Z"/>
          <path class="cls-3" d="m83.09,125.3c0,1.81-1.4,3.33-3.32,3.33s-3.32-1.52-3.32-3.33,1.42-3.37,3.32-3.37,3.32,1.55,3.32,3.37Zm-5.8.01c0,1.39,1.04,2.53,2.48,2.53s2.48-1.14,2.48-2.53-1.13-2.59-2.48-2.59-2.48,1.18-2.48,2.59Z"/>
          <path class="cls-3" d="m90.16,127.38c-.7.84-1.57,1.25-2.57,1.25-1.86,0-3.26-1.55-3.26-3.36s1.44-3.33,3.29-3.33c1.03,0,1.91.44,2.54,1.33v-3.62h.82v8.83h-.82v-1.09Zm-4.99-2.09c0,1.38,1.08,2.59,2.51,2.59,1.31,0,2.53-.98,2.53-2.57,0-1.48-1.09-2.59-2.52-2.59s-2.52,1.2-2.52,2.57Z"/>
          <path class="cls-3" d="m93.37,125.35c.04,1.46,1.03,2.53,2.4,2.53s1.97-.76,2.43-1.52l.68.36c-.65,1.27-1.64,1.91-3.03,1.91-2.11,0-3.32-1.62-3.32-3.32s1.28-3.37,3.27-3.37c1.81,0,3.27,1.31,3.3,3.42h-5.73Zm4.83-.72c-.33-1.32-1.28-1.91-2.39-1.91s-1.99.61-2.36,1.91h4.75Z"/>
          <path class="cls-3" d="m105.77,128.47h-.82v-3.26c0-.49-.05-.9-.06-1.19-.04-.7-.6-1.29-1.44-1.29-.56,0-1.13.28-1.49.74-.46.59-.54,1.34-.54,2.3v2.7h-.82v-6.37h.82v1.09c.56-.82,1.27-1.26,2.18-1.26.97,0,1.67.5,2.02,1.54.56-1.02,1.4-1.54,2.34-1.54,1.32,0,2.17.95,2.17,2.76v3.78h-.82v-3.48c0-.47-.06-.84-.07-1.08-.04-.56-.58-1.19-1.44-1.19-.79,0-1.49.48-1.81,1.29-.2.52-.23,1.08-.23,1.67v2.78Z"/>
          <path class="cls-3" d="m118.23,125.3c0,1.81-1.4,3.33-3.32,3.33s-3.32-1.52-3.32-3.33,1.42-3.37,3.32-3.37,3.32,1.55,3.32,3.37Zm-5.8.01c0,1.39,1.04,2.53,2.48,2.53s2.48-1.14,2.48-2.53-1.13-2.59-2.48-2.59-2.48,1.18-2.48,2.59Z"/>
          <path class="cls-3" d="m119.66,127.14c.41.46.85.71,1.33.71.62,0,1.17-.46,1.17-1.06,0-.37-.22-.72-.53-.89-1.46-.82-2.21-1.16-2.21-2.28,0-1.01.78-1.69,1.75-1.69.7,0,1.22.34,1.76.86l-.53.54c-.38-.37-.77-.61-1.28-.61s-.96.37-.96.85c0,.32.2.68.49.85,1.46.85,2.28,1.18,2.28,2.33,0,1-.77,1.88-1.92,1.88-.71,0-1.43-.32-1.88-.91l.52-.59Z"/>
          <path class="cls-3" d="m138.97,125.35c.04,1.46,1.03,2.53,2.4,2.53s1.97-.76,2.43-1.52l.68.36c-.65,1.27-1.64,1.91-3.03,1.91-2.11,0-3.32-1.62-3.32-3.32s1.28-3.37,3.27-3.37c1.81,0,3.27,1.31,3.3,3.42h-5.73Zm4.83-.72c-.33-1.32-1.28-1.91-2.39-1.91s-1.99.61-2.36,1.91h4.75Z"/>
          <path class="cls-3" d="m147.05,123.24c.66-.86,1.45-1.31,2.39-1.31,1.39,0,2.36.96,2.36,2.96v3.57h-.82v-3.47c0-1.5-.47-2.33-1.7-2.33-.68,0-1.25.3-1.68.86-.48.62-.55,1.25-.55,2.25v2.67h-.82v-6.37h.82v1.14Z"/>
          <path class="cls-3" d="m154.28,119.73h.82v2.37h1.31v.72h-1.31v5.65h-.82v-5.65h-1.13v-.72h1.13v-2.37Z"/>
          <path class="cls-3" d="m158.16,125.35c.04,1.46,1.03,2.53,2.4,2.53s1.97-.76,2.43-1.52l.68.36c-.65,1.27-1.64,1.91-3.03,1.91-2.11,0-3.32-1.62-3.32-3.32s1.28-3.37,3.27-3.37c1.81,0,3.27,1.31,3.3,3.42h-5.73Zm4.83-.72c-.33-1.32-1.28-1.91-2.39-1.91s-1.99.61-2.36,1.91h4.75Z"/>
          <path class="cls-3" d="m166.24,123.24c.66-.86,1.45-1.31,2.39-1.31,1.39,0,2.36.96,2.36,2.96v3.57h-.82v-3.47c0-1.5-.47-2.33-1.7-2.33-.68,0-1.25.3-1.68.86-.48.62-.55,1.25-.55,2.25v2.67h-.82v-6.37h.82v1.14Z"/>
          <path class="cls-3" d="m178.29,127.38c-.7.84-1.57,1.25-2.57,1.25-1.86,0-3.26-1.55-3.26-3.36s1.44-3.33,3.29-3.33c1.03,0,1.91.44,2.54,1.33v-3.62h.82v8.83h-.82v-1.09Zm-4.99-2.09c0,1.38,1.08,2.59,2.51,2.59,1.31,0,2.53-.98,2.53-2.57,0-1.48-1.09-2.59-2.52-2.59s-2.52,1.2-2.52,2.57Z"/>
          <path class="cls-3" d="m181.5,125.35c.04,1.46,1.03,2.53,2.4,2.53s1.97-.76,2.43-1.52l.68.36c-.65,1.27-1.64,1.91-3.03,1.91-2.11,0-3.32-1.62-3.32-3.32s1.28-3.37,3.27-3.37c1.81,0,3.27,1.31,3.3,3.42h-5.73Zm4.83-.72c-.34-1.32-1.28-1.91-2.39-1.91s-1.99.61-2.36,1.91h4.75Z"/>
          <path class="cls-3" d="m189.3,123.02c.48-.7,1-1.09,1.64-1.09.37,0,.56.12.73.22l-.43.7c-.1-.05-.25-.12-.43-.12-.6,0-1.14.52-1.38,1.39-.11.41-.13,1.07-.13,1.93v2.42h-.86v-6.37h.86v.92Z"/>
          <path class="cls-3" d="m37.44,141.59c-.62.95-1.7,1.44-2.99,1.44-2.1,0-3.5-1.51-3.5-3.29,0-1.87,1.46-3.41,3.56-3.41,1.22,0,2.34.5,2.93,1.49l-.66.41c-.56-.74-1.34-1.1-2.3-1.1-1.62,0-2.69,1.19-2.69,2.55s1.06,2.6,2.7,2.6c.92,0,1.69-.37,2.29-1.12l.66.42Z"/>
          <path class="cls-3" d="m45.36,139.7c0,1.81-1.4,3.33-3.32,3.33s-3.32-1.52-3.32-3.33,1.42-3.37,3.32-3.37,3.32,1.55,3.32,3.37Zm-5.8.01c0,1.39,1.04,2.53,2.48,2.53s2.48-1.14,2.48-2.53-1.13-2.59-2.48-2.59-2.48,1.18-2.48,2.59Z"/>
          <path class="cls-3" d="m52.02,142.87h-.82v-3.26c0-.49-.05-.9-.06-1.19-.04-.7-.6-1.29-1.44-1.29-.56,0-1.13.28-1.49.74-.46.59-.54,1.34-.54,2.3v2.7h-.82v-6.37h.82v1.09c.56-.82,1.27-1.26,2.18-1.26.97,0,1.67.5,2.02,1.54.56-1.02,1.4-1.54,2.34-1.54,1.32,0,2.17.95,2.17,2.76v3.78h-.82v-3.48c0-.47-.06-.84-.07-1.08-.04-.56-.58-1.19-1.44-1.19-.79,0-1.49.48-1.81,1.29-.2.52-.23,1.08-.23,1.67v2.78Z"/>
          <path class="cls-3" d="m64.48,139.7c0,1.81-1.4,3.33-3.32,3.33s-3.32-1.52-3.32-3.33,1.42-3.37,3.32-3.37,3.32,1.55,3.32,3.37Zm-5.8.01c0,1.39,1.04,2.53,2.48,2.53s2.48-1.14,2.48-2.53-1.13-2.59-2.48-2.59-2.48,1.18-2.48,2.59Z"/>
          <path class="cls-3" d="m75.19,137.32h-1.47v-.8c0-1.03.24-1.7.84-2.47l.56.44c-.14.22-.35.5-.52,1.16h.59v1.67Zm2.39,0h-1.48v-.8c0-1.03.24-1.7.84-2.47l.56.44c-.14.22-.35.5-.52,1.16h.59v1.67Z"/>
          <path class="cls-3" d="m79.51,134.15h1.6v2.35h.95v1.37h-.95v5h-1.6v-5h-.82v-1.37h.82v-2.35Z"/>
          <path class="cls-3" d="m83.92,137.3c.3-.66.82-.97,1.34-.97.34,0,.54.1.7.17l-.49,1.37c-.12-.06-.3-.13-.47-.13-.46,0-.82.53-.85,1.46-.01.35-.01.74-.01,1.09v2.58h-1.6v-6.37h1.38v.8Z"/>
          <path class="cls-3" d="m91.47,142.2c-.56.55-1.16.84-1.97.84-1.62,0-3.03-1.39-3.03-3.35s1.34-3.36,3-3.36c.77,0,1.43.29,2,.86v-.7h1.6v6.37h-1.6v-.67Zm-3.39-2.52c0,1.09.72,1.9,1.71,1.9s1.75-.74,1.75-1.91-.74-1.87-1.75-1.87-1.71.84-1.71,1.88Z"/>
          <path class="cls-3" d="m96.27,142.87h-1.59v-8.83h1.59v3.15c.58-.58,1.24-.86,2-.86,1.64,0,3.01,1.37,3.01,3.36s-1.43,3.35-3.05,3.35c-.8,0-1.39-.29-1.97-.84v.67Zm-.07-3.2c0,1.15.77,1.91,1.75,1.91s1.73-.8,1.73-1.9-.67-1.88-1.73-1.88-1.75.76-1.75,1.87Z"/>
          <path class="cls-3" d="m107.31,142.2c-.56.55-1.16.84-1.97.84-1.62,0-3.03-1.39-3.03-3.35s1.34-3.36,3-3.36c.77,0,1.43.29,2,.86v-.7h1.6v6.37h-1.6v-.67Zm-3.39-2.52c0,1.09.72,1.9,1.71,1.9s1.75-.74,1.75-1.91-.74-1.87-1.75-1.87-1.71.84-1.71,1.88Z"/>
          <path class="cls-3" d="m110.48,136.5h1.59v6.75c0,1.4-.56,2.11-1.68,2.11-.42,0-.83-.12-1.2-.24v-1.26c.19.1.43.18.66.18.47,0,.62-.29.62-.85v-6.69Zm1.81-1.57c0,.56-.46,1.02-1.02,1.02s-1.02-.52-1.02-1.1c0-.55.46-.97,1.01-.97s1.03.48,1.03,1.06Z"/>
          <path class="cls-3" d="m118.35,142.2c-.56.55-1.16.84-1.97.84-1.62,0-3.03-1.39-3.03-3.35s1.34-3.36,3-3.36c.77,0,1.43.29,2,.86v-.7h1.6v6.37h-1.6v-.67Zm-3.39-2.52c0,1.09.72,1.9,1.71,1.9s1.75-.74,1.75-1.91-.74-1.87-1.75-1.87-1.71.84-1.71,1.88Z"/>
          <path class="cls-3" d="m122.56,137.3c.3-.66.82-.97,1.34-.97.34,0,.54.1.7.17l-.49,1.37c-.12-.06-.3-.13-.47-.13-.46,0-.82.53-.85,1.46-.01.35-.01.74-.01,1.09v2.58h-1.6v-6.37h1.38v.8Z"/>
          <path class="cls-3" d="m133.11,136.5h1.59v6.75c0,1.4-.56,2.11-1.68,2.11-.42,0-.83-.12-1.2-.24v-1.26c.19.1.43.18.66.18.47,0,.62-.29.62-.85v-6.69Zm1.81-1.57c0,.56-.46,1.02-1.02,1.02s-1.02-.52-1.02-1.1c0-.55.46-.97,1.01-.97s1.03.48,1.03,1.06Z"/>
          <path class="cls-3" d="m136.28,136.5h1.6v3.32c0,1.14.36,1.74,1.2,1.74s1.2-.59,1.2-1.67v-3.39h1.59v2.94c0,1.18-.07,2.04-.74,2.78-.5.56-1.16.8-2.05.8-1.54,0-2.48-.78-2.73-2.27-.08-.52-.06-.82-.06-1.34v-2.91Z"/>
          <path class="cls-3" d="m145.07,137.15c.61-.52,1.18-.82,1.88-.82,1.19,0,2.18.82,2.18,2.18v4.35h-1.6v-3.01c0-1.26-.11-2.06-1.08-2.06-.44,0-.83.22-1.08.61-.32.52-.31,1.09-.31,1.75v2.71h-1.59v-6.37h1.59v.65Z"/>
          <path class="cls-3" d="m150.86,134.15h1.6v2.35h.95v1.37h-.95v5h-1.6v-5h-.82v-1.37h.82v-2.35Z"/>
          <path class="cls-3" d="m160.65,139.68c0,1.85-1.43,3.36-3.37,3.36s-3.31-1.48-3.31-3.35,1.56-3.36,3.3-3.36c1.86,0,3.38,1.46,3.38,3.35Zm-5.07,0c0,1.08.68,1.85,1.72,1.85s1.75-.72,1.75-1.83-.71-1.85-1.75-1.85-1.72.78-1.72,1.83Z"/>
          <path class="cls-3" d="m175.87,141.7c-.68.89-1.64,1.33-2.89,1.33-2.17,0-3.57-1.48-3.57-3.33s1.49-3.37,3.6-3.37c1.25,0,2.3.52,2.94,1.45l-1.33.73c-.46-.48-.9-.72-1.6-.72-1.22,0-2,.83-2,1.93s.76,1.85,1.93,1.85c.71,0,1.27-.24,1.67-.73l1.26.86Z"/>
          <path class="cls-3" d="m183.76,139.68c0,1.85-1.43,3.36-3.37,3.36s-3.31-1.48-3.31-3.35,1.56-3.36,3.3-3.36c1.86,0,3.38,1.46,3.38,3.35Zm-5.07,0c0,1.08.68,1.85,1.72,1.85s1.75-.72,1.75-1.83-.71-1.85-1.75-1.85-1.72.78-1.72,1.83Z"/>
          <path class="cls-3" d="m186.66,137.15c.61-.52,1.18-.82,1.88-.82,1.19,0,2.18.82,2.18,2.18v4.35h-1.6v-3.01c0-1.26-.11-2.06-1.08-2.06-.44,0-.83.22-1.08.61-.32.52-.31,1.09-.31,1.75v2.71h-1.59v-6.37h1.59v.65Z"/>
          <path class="cls-3" d="m37.53,154.08c0,1.85-1.43,3.36-3.37,3.36s-3.31-1.48-3.31-3.35,1.56-3.36,3.3-3.36c1.86,0,3.38,1.46,3.38,3.35Zm-5.07,0c0,1.08.68,1.85,1.71,1.85s1.75-.72,1.75-1.83-.71-1.85-1.75-1.85-1.71.78-1.71,1.83Z"/>
          <path class="cls-3" d="m39.02,148.55h1.6v2.35h.95v1.37h-.95v5h-1.6v-5h-.82v-1.37h.82v-2.35Z"/>
          <path class="cls-3" d="m43.43,151.7c.3-.66.82-.97,1.34-.97.34,0,.54.1.7.17l-.49,1.37c-.12-.06-.3-.13-.47-.13-.46,0-.82.53-.85,1.46-.01.35-.01.74-.01,1.09v2.58h-1.6v-6.37h1.38v.8Z"/>
          <path class="cls-3" d="m52.43,154.08c0,1.85-1.43,3.36-3.37,3.36s-3.31-1.48-3.31-3.35,1.56-3.36,3.3-3.36c1.86,0,3.38,1.46,3.38,3.35Zm-5.07,0c0,1.08.68,1.85,1.72,1.85s1.75-.72,1.75-1.83-.71-1.85-1.75-1.85-1.72.78-1.72,1.83Z"/>
          <path class="cls-3" d="m55,154.51c-1.02-.52-1.54-1.14-1.54-1.94,0-1,.84-1.83,2.06-1.83.83,0,1.58.37,2.1,1.06l-.98,1c-.36-.36-.72-.59-1.1-.59-.32,0-.58.13-.58.38s.23.35.58.53l.59.3c1.06.54,1.62,1.09,1.62,2.04,0,1.14-.9,1.99-2.29,1.99-.92,0-1.68-.37-2.23-1.09l.98-1.08c.37.43.91.74,1.33.74.4,0,.71-.23.71-.52s-.26-.48-.71-.71l-.54-.28Z"/>
          <path class="cls-3" d="m63.97,151.6c.58-.58,1.24-.86,2-.86,1.64,0,3.01,1.37,3.01,3.36s-1.43,3.35-3.05,3.35c-.8,0-1.39-.29-1.97-.84v3h-1.59v-8.7h1.59v.7Zm-.07,2.47c0,1.15.77,1.91,1.75,1.91s1.73-.8,1.73-1.9-.67-1.88-1.73-1.88-1.75.76-1.75,1.87Z"/>
          <path class="cls-3" d="m75,156.6c-.56.55-1.16.84-1.97.84-1.62,0-3.03-1.39-3.03-3.35s1.34-3.36,3-3.36c.77,0,1.43.29,2,.86v-.7h1.6v6.37h-1.6v-.67Zm-3.39-2.52c0,1.09.72,1.9,1.71,1.9s1.75-.74,1.75-1.91-.74-1.87-1.75-1.87-1.71.84-1.71,1.88Z"/>
          <path class="cls-3" d="m79.22,151.7c.3-.66.82-.97,1.34-.97.34,0,.54.1.7.17l-.49,1.37c-.12-.06-.3-.13-.47-.13-.46,0-.82.53-.85,1.46-.01.35-.01.74-.01,1.09v2.58h-1.6v-6.37h1.38v.8Z"/>
          <path class="cls-3" d="m86.76,156.6c-.56.55-1.16.84-1.97.84-1.62,0-3.03-1.39-3.03-3.35s1.34-3.36,3-3.36c.77,0,1.43.29,2,.86v-.7h1.6v6.37h-1.6v-.67Zm-3.39-2.52c0,1.09.72,1.9,1.71,1.9s1.75-.74,1.75-1.91-.74-1.87-1.75-1.87-1.71.84-1.71,1.88Z"/>
          <path class="cls-3" d="m93.34,150.9h1.6v3.32c0,1.14.36,1.74,1.2,1.74s1.2-.59,1.2-1.67v-3.39h1.59v2.94c0,1.18-.07,2.04-.74,2.78-.5.56-1.16.8-2.05.8-1.54,0-2.48-.78-2.73-2.27-.08-.52-.06-.82-.06-1.34v-2.91Z"/>
          <path class="cls-3" d="m102.13,151.55c.61-.52,1.18-.82,1.88-.82,1.19,0,2.18.82,2.18,2.18v4.35h-1.6v-3.01c0-1.26-.11-2.06-1.08-2.06-.44,0-.83.22-1.08.61-.32.52-.31,1.09-.31,1.75v2.71h-1.59v-6.37h1.59v.65Z"/>
          <path class="cls-3" d="m116.78,157.27h-1.59v-3.08c0-1.24-.24-1.99-1.13-1.99-.79,0-1.37.65-1.37,1.96v3.12h-1.59v-6.37h1.59v.73c.54-.59,1.24-.9,1.99-.9s1.46.37,1.86,1.14c.59-.74,1.17-1.14,2.13-1.14.71,0,1.34.29,1.7.74.42.53.47,1.22.47,2.06v3.73h-1.59v-3.51c0-1.04-.37-1.56-1.09-1.56-.8,0-1.38.62-1.38,1.93v3.14Z"/>
          <path class="cls-3" d="m124.03,149.33c0,.56-.46,1.02-1.02,1.02s-1.02-.52-1.02-1.1c0-.55.47-.97,1.02-.97s1.02.48,1.02,1.06Zm-1.81,1.57h1.6v6.37h-1.6v-6.37Z"/>
          <path class="cls-3" d="m126.52,154.51c-1.02-.52-1.54-1.14-1.54-1.94,0-1,.84-1.83,2.06-1.83.83,0,1.58.37,2.1,1.06l-.98,1c-.36-.36-.72-.59-1.1-.59-.32,0-.58.13-.58.38s.23.35.58.53l.59.3c1.06.54,1.62,1.09,1.62,2.04,0,1.14-.9,1.99-2.29,1.99-.92,0-1.68-.37-2.23-1.09l.98-1.08c.37.43.91.74,1.33.74.4,0,.71-.23.71-.52s-.26-.48-.71-.71l-.54-.28Z"/>
          <path class="cls-3" d="m136.22,157.27h-1.59v-3.08c0-1.24-.24-1.99-1.13-1.99-.79,0-1.37.65-1.37,1.96v3.12h-1.59v-6.37h1.59v.73c.54-.59,1.24-.9,1.99-.9s1.46.37,1.86,1.14c.59-.74,1.17-1.14,2.13-1.14.71,0,1.34.29,1.7.74.42.53.47,1.22.47,2.06v3.73h-1.6v-3.51c0-1.04-.37-1.56-1.09-1.56-.8,0-1.38.62-1.38,1.93v3.14Z"/>
          <path class="cls-3" d="m148.19,154.08c0,1.85-1.43,3.36-3.37,3.36s-3.31-1.48-3.31-3.35,1.56-3.36,3.3-3.36c1.86,0,3.38,1.46,3.38,3.35Zm-5.07,0c0,1.08.68,1.85,1.72,1.85s1.75-.72,1.75-1.83-.71-1.85-1.75-1.85-1.72.78-1.72,1.83Z"/>
          <path class="cls-3" d="m152.11,150.9h.6c0-.35.01-.74.12-1.12.3-.96,1.14-1.51,2.35-1.51,1.38,0,2.21.64,2.42,1.91h-1.67c-.12-.37-.43-.56-.78-.56-.28,0-.52.12-.67.35-.2.29-.18.6-.18.94h.94v1.34h-.94v5.03h-1.6v-5.03h-.6v-1.34Zm3.9,0h1.59v6.37h-1.59v-6.37Z"/>
          <path class="cls-3" d="m160.69,151.55c.61-.52,1.18-.82,1.88-.82,1.19,0,2.18.82,2.18,2.18v4.35h-1.6v-3.01c0-1.26-.11-2.06-1.08-2.06-.44,0-.83.22-1.08.61-.32.52-.31,1.09-.31,1.75v2.71h-1.59v-6.37h1.59v.65Z"/>
          <path class="cls-3" d="m166.42,148.44h1.48v.8c0,1.04-.24,1.7-.83,2.47l-.58-.44c.37-.54.44-.89.52-1.16h-.59v-1.67Zm2.39,0h1.48v.8c0,1.04-.24,1.7-.83,2.47l-.58-.44c.37-.54.44-.89.52-1.16h-.59v-1.67Z"/>
          <path class="cls-3" d="m173.84,156.51c0,.5-.4.92-.91.92s-.92-.42-.92-.92.42-.91.92-.91.91.41.91.91Z"/>
        </g>
        <g>
          <g>
            <path class="cls-3" d="m195.95,161.53c-.26,0-.52-.07-.74-.23-.61-.41-.77-1.24-.36-1.85,11.26-16.64,17.21-36.1,17.21-56.27,0-55.43-45.09-100.52-100.52-100.52-16.67,0-33.18,4.16-47.75,12.04-.65.35-1.45.11-1.81-.54-.35-.65-.11-1.46.54-1.81C77.49,4.28,94.44,0,111.55,0c56.89,0,103.18,46.29,103.18,103.18,0,20.71-6.11,40.68-17.67,57.77-.26.38-.68.59-1.1.59Z"/>
            <path class="cls-3" d="m111.55,206.37c-56.89,0-103.18-46.29-103.18-103.18,0-21.92,6.78-42.85,19.61-60.53.43-.59,1.27-.73,1.86-.3.59.43.73,1.26.3,1.86-12.5,17.22-19.1,37.61-19.1,58.96,0,55.43,45.09,100.52,100.52,100.52,16.64,0,33.13-4.15,47.69-12.01.65-.35,1.45-.11,1.81.54.35.65.11,1.46-.54,1.81-14.94,8.06-31.87,12.33-48.95,12.33Z"/>
          </g>
          <path class="cls-3" d="m39.86,30.54c0,4.91-3.51,8.21-8.01,8.21-4.81,0-8.21-3.41-8.21-8.21,0-2.3.4-4.01,2.2-8.61l5.31-14.22h8.01l-4.01,15.33c2.91,1.2,4.71,3.81,4.71,7.51Zm21.24,0c0,4.91-3.51,8.21-8.01,8.21-4.81,0-8.21-3.41-8.21-8.21,0-2.3.4-4.01,2.2-8.61l5.31-14.22h8.01l-4.01,15.33c2.91,1.2,4.71,3.81,4.71,7.51Z"/>
          <path class="cls-3" d="m178.01,170.04c0,2.3-.4,4.01-2.2,8.61l-5.21,14.22h-8.11l4.01-15.43c-2.8-1.1-4.71-3.71-4.71-7.41,0-4.91,3.51-8.21,8.11-8.21s8.11,3.41,8.11,8.21Zm21.24,0c0,2.3-.4,4.01-2.2,8.61l-5.21,14.22h-8.11l4.01-15.43c-2.8-1.1-4.71-3.71-4.71-7.41,0-4.91,3.51-8.21,8.11-8.21s8.11,3.41,8.11,8.21Z"/>
        </g>
      </g>
    </g>
  </g>
</svg>