<?xml version="1.0" encoding="UTF-8"?>
<svg id="Capa_2" data-name="Capa 2" xmlns="http://www.w3.org/2000/svg" viewBox="0 0 114.68 88.81">
  <defs>
    <style>
      .cls-1 {
        fill: #fad7d9;
      }

      .cls-2 {
        fill: #fff;
      }
    </style>
  </defs>
  <g id="Capa_1-2" data-name="Capa 1">
    <path class="cls-1" d="m54.73,7.34S61.19-1.68,71.42.68c11.96,2.76,14.06,12.76,12,21.64-2.56,11.02-28.52,24-28.52,24,0,0-20.46-10.03-26.75-20.26-7.85-12.76,3.88-23.22,7.08-24.59,4.13-1.77,12.98-2.36,19.51,5.87Z"/>
    <g>
      <path class="cls-2" d="m112.89,33.24c-1.08-.67-2.23-.85-3.31-.54-1.11.32-2.04,1.12-2.61,2.27-2.41,4.81-5.89,9.5-8.57,12.78,2.22-4.34,4.53-9.95,5.7-12.86,1.4-3.5-.02-4.64-1.45-5.44-.95-.53-1.94-.64-2.89-.32-.97.33-1.81,1.13-2.24,2.13-3.57,8.33-8.13,13.47-10.7,15.92,1.36-2.75,2.7-6.08,3.67-8.47.3-.74.56-1.38.77-1.9l.07-.17c.33-.78.96-2.23.41-3.52-.31-.73-.94-1.27-1.87-1.63-3.09-1.17-4.12,1.05-4.54,1.95-.99,2.12-2.38,4.57-4.25,7.47-.76,1.18-2.16,3.01-3.01,4.02.33-.86,1.02-2.4.89-3.12-.1-.59-.4-1.04-.87-1.35-2.1-1.35-3.8-.39-4.41.31l-8.91,10c-.72.2-4.91,1.12-14.46-.57-10.13-1.79-16.64-1.05-23.2,2.64-2.82,1.58-5.94,4.22-8.47,6.58.28-.13.56-.26.84-.4.57-.29,1.13-.44,1.67-.52,2.08-1.83,4.37-3.63,6.45-4.8,5.29-2.97,11.14-4.54,22.54-2.53,10.85,1.92,14.91.55,15.08.5.08-.03.15-.08.21-.14l9-10.11c.12-.14,1.27-1.32,3.12-.13.24.15.38.37.43.68.28,1.57-2.16,5.23-2.93,6.25-.16.21-.13.5.07.68.2.17.49.17.68-.02.14-.13,3.91-3.99,6.13-7.45,1.89-2.94,3.3-5.42,4.35-7.66.41-.88,1.03-2.21,3.25-1.37.68.26,1.1.61,1.3,1.08.38.89-.13,2.09-.41,2.73l-.07.17c-.22.52-.48,1.17-.78,1.91-1.26,3.12-3.16,7.83-4.87,10.72-.12.2-.08.46.09.62.17.16.44.18.63.04.31-.22,7.68-5.56,13.03-18.06.32-.75.93-1.33,1.65-1.58.67-.23,1.38-.14,2.08.24,1.03.57,2.2,1.22,1.01,4.2-1.75,4.38-6.1,14.87-8.71,17.75-.18.2-.17.51.03.7.2.19.51.18.7-.02.08-.08,8.2-8.59,12.68-17.53.45-.89,1.15-1.52,1.99-1.75.81-.23,1.68-.08,2.51.43,2.49,1.54.7,4.65.6,4.81l-11.11,21.84-25.23,12.91s-3.3,2.51-5.67,3.9c-1.15.68-2.25.76-2.34.79l.52.12s.08.01.12.01c.08,0,.16-.02.23-.05l1.84-.4,2.6-1.87,28.53-14.6c.09-.05.17-.12.22-.22l11.17-21.95c.84-1.4,1.71-4.5-.95-6.14Z"/>
      <path class="cls-2" d="m92.58,55.56c-3.58-5.06-8.5-1.93-8.54-1.91l-15.69,9.69c-1.84-.95-12.37-6.27-22.74-8.76-.16-.04-.36.6-.35.96,11.15,2.67,22.72,8.73,22.88,8.82.16.08.34.08.5-.02l15.94-9.84c.17-.11,4.17-2.62,7.19,1.64.88,1.24,1.21,2.47.97,3.66-.43,2.14-2.57,3.48-2.62,3.52l-20.15,14.67-45.7,4.51c-.09,0-.17.04-.25.09l-7.68,5.67.32.37c.1.11.24.17.38.17.1,0,.21-.03.29-.1l7.17-5.23,45.7-4.51c.09,0,.17-.04.25-.09l20.23-14.73c.1-.06,2.52-1.58,3.04-4.14.3-1.47-.08-2.96-1.13-4.44Z"/>
      <path class="cls-2" d="m20.15,59.31c.4-.17,2.18-1.79,2.66-2.22C11.52,61.43.86,68.37.22,68.81c-.12.08-.19.21-.21.35-.02.14.02.28.12.39l.32.37s10.5-6.64,19.71-10.61Z"/>
      <path class="cls-2" d="m54.73,47.07c-.35,0-9.8-6.05-19.83-12.7-6.64-4.4-10.49-11.48-9.81-18.03.59-5.73,2.66-10.07,6.15-12.9C35.7-.15,41.06-.19,43.86.12c5.7.61,9.51,5.28,10.86,7.22,1.35-1.94,5.17-6.61,10.86-7.22,2.8-.3,8.17-.27,12.62,3.34,3.49,2.82,5.56,7.16,6.15,12.9.68,6.55-3.17,13.63-9.81,18.03-13.83,9.17-19.51,12.59-19.57,12.63-.08.05-.17.07-.26.07ZM41.69,1c-2.77,0-6.56.6-9.82,3.23-3.27,2.65-5.22,6.76-5.79,12.22-.64,6.19,3.04,12.89,9.37,17.09,12.18,8.07,18.03,11.68,19.27,12.45,1.24-.76,7.04-4.34,19.27-12.45,6.33-4.2,10.01-10.9,9.37-17.09h0c-.56-5.46-2.51-9.57-5.79-12.22-4.17-3.38-9.24-3.4-11.88-3.12-6.17.66-10.12,6.71-10.55,7.4-.09.15-.25.23-.42.23h0c-.17,0-.33-.09-.42-.23-.43-.69-4.38-6.73-10.55-7.4-.58-.06-1.28-.11-2.06-.11Z"/>
    </g>
  </g>
</svg>