<?xml version="1.0" encoding="UTF-8"?>
<svg id="Capa_2" data-name="Capa 2" xmlns="http://www.w3.org/2000/svg" viewBox="0 0 157.57 1183.28">
  <defs>
    <style>
      .cls-1 {
        fill: none;
      }

      .cls-2 {
        fill: #f8f1cf;
      }

      .cls-3 {
        fill: #f1e7c2;
      }

      .cls-4 {
        fill: #fadfb6;
      }
    </style>
  </defs>
  <g id="Capa_1-2" data-name="Capa 1">
    <g>
      <g>
        <path class="cls-4" d="m4.05,948.92s0-.03.01-.07c0,0,0,0-.01-.04v.1Z"/>
        <path class="cls-4" d="m3.38,948.27c.24.1.46.31.67.55-.03-1.55-.24-.69-.67-.55Z"/>
        <path class="cls-4" d="m157.5,938.12c-1.04,5.42-3.38-9.67-3.83,3.49l-1.61-10.19c-.5-.41-.89-1-1.23-1.59v-33.22c0-.73.01-1.45,0-2.16v-4.54c.15.24.29.36.4.43-.18-1.19-.3-2.4-.4-3.62v-12.86c.52-8.37,1.67-15.5,1.04-17.44l1.76-1.22c-2.71-11.72-2.95-13.1-1.87-27.09.27.17.79,1.77,1.16-.43-.86-2.21-1.7-4.45-2.08-8.44v-7.75l.38.28-.3-14.97c5.42.09-3.31-25.66,2.56-30.16-1.44-2.68-1.99-12.03-2.64-17.34v-1.55c.17-.16.35-.41.54-1-.22-.43-.39-.92-.54-1.4v-10.88c.54-3.88,1.27-7.77,1.12-10.69-.33-1.97-.71-2.59-1.12-2.5v-27.4c.08-.07.17-.11.26-.21-.05-.86-.15-1.5-.26-2.04v-10.69c1.9-4.19,4.54-9.03,3.68-12.13l-.97,3.02c-1.4-8.37,4.42-19.78.76-21.11l-1.7.77c2.25-14.4-.67-6.11,1.31-20.7l.28.17c-.33-6.37,1.79-9.81-.94-12.92l-.37,2.18c-.21-7.87-.01-8.6.13-16.63-.26-.95-.67-4.83-.1-5.95-2.27-.36-1.04-18.66-.9-22.27.33,6.37,1.3,3.35,2.22,1.55-1.86-3.74-2.04-6.34-.71-11.53-.92-.24-1.84-.55-2.68-1.16v-32.17c.27-.47.56-1.07.9-1.47-.53-.14-.79-.62-.9-1.29v-2.02c.4-3.59,2.16-8.56,0-6.95v-3.89c1.74-19.51-.08-46.2,2.41-53.33,1.15-2.07-.73-7.55-.78-10.96l1.39.47c-2.36-8.89-1.15-7.72-3.03-16.54v-.98c1.35,3.01,2.1,1.04,3.28-3.18l-2.92-7.74,2.18-1.5c-.85-3.16-.51-6.68-.18-10.18-1.41-1.88-1.91-6.92-2.36-11.1v-8.62c.15-1,.09-2.07,0-3.12v-4.47c.16-.59.43-1.12.9-1.55-.36-.97-.64-2.2-.9-3.53v-67.64c.37-4.18.57-7.95,0-10.93v-161.34c.35-.83.74-1.56,1.15-1.69l-1.15-4.33v-.62c.7-1.17,1.15,3.07,1.47-.28-.64-2.37-.78-8.19-1.47-12.22V6.47h-10.33c.94-2-1.34-7.39-2.84-6.34.85,1.57.15,4.04-.33,6.34H5.81v.66c-.22-1.19-.66-2.5-.99-3.97-1.79,28.42,1.74,57.03-.91,84.79.23,2.33,1.1.97,1.69.07-1.44,3.83-.69,5.23.21,6.49v6.82l-2.03,5.52c.71,2.57,1.42,1.99,2.03,1.45v25.19c-.44,7.56-.74,14.74,0,21.34v2.69c-1.19,3.16-2.58-1.38-2.97,4.21,2.61-5.99,2.32,6.07,2.97,10.93v4.35c-1.8,6.94-.27,18.03-4.79,15.88-.29,7.15,2.26,5.87,2.73,3.8-.18,8.29-.2,14.99,1.48,21.74-1.22,4.58,1.4,37.88-2.56,45.37,2.57-5.11,1.34.36,2.47,5.16l.67-1.29v12.45c-.22.48-.43,1.23-.58,2.52-.06,3.49.19,5.39.58,6.85v3.51c-.42-.05-.83,1.02-1.15,4.44.2.05.67.86,1.15,2.04v3.74c-.45-.16-.96.57-1.27,1.64l-.15,8.68,1.42-1.45v47.39c-.31,9.39-.52,18.89-.44,28.45-2.53-.33-.1,18.8-3.81,16.46l.35-1.02c-.22-3.74-1.14-2.49-1.82.23,0,1.95.01,3.9.02,5.87,1.28.07,3.12,8.77,3.57-2.45l1.77,10.39c.13.1.24.23.36.33v68.75c-.39,3.78-.64,6.63-.25,7.75l-1.95,1.28c1.05,4.18,1.76,7.08,2.19,9.68v16.4c-.05.53-.09,1.07-.14,1.64-.31-.17-.88-1.83-1.29.45.5,1.19,1,2.4,1.42,3.85v27.99c-2.44,1.35-.76,9.7,0,17.47v9.29c-.33,1.76-.96,3.16-2.06,3.94.97,1.64,1.58,5.8,2.06,10.03v28.56c-.27,1.93-.45,3.73-.36,5.29.12.64.23,1.09.36,1.47v44.16c-1.95,3.85-4.04,7.91-3.22,10.67l1.09-3.09c1.55,8.56-4.91,20.25-.85,21.64l1.88-.81c-2.5,14.74.75,6.25-1.45,21.2l-.3-.19c.36,6.53-2,10.05,1.04,13.25l.41-2.25c.23,8.1.01,8.8-.14,17.04.29.97.75,4.94.11,6.1.88.14,1.28,2.52,1.43,5.7v8.06c-.13,3.97-.36,7.63-.42,9.05-.37-6.54-1.44-3.44-2.47-1.59,2.05,3.83,2.27,6.49.78,11.81.71.17,1.42.38,2.11.67v34.79c-.04.05-.08.1-.12.16.05,0,.08.05.12.07v7.89c-.32,1.52-.46,2.68,0,2.86v21.36c-.3,15.89.2,31.65-1.79,36.93-1.29,2.1.8,7.7.86,11.22l-1.56-.45c2.12,7.32,1.65,7.94,2.49,12.67v3.97c-.99-.8-1.73,1.14-2.76,4.52l2.76,6.77v1.49l-1.93,1.21c.93,3.25.57,6.83.19,10.43.8.97,1.34,2.83,1.75,4.97v24.48s-.07.07-.11.1c.04.11.07.24.11.35v193.33h124.03s11.79.14,13.04,0h7.95v-2.11c1.03-.38,2.05-.76,3.08-1.14-.17-3.49-.55-6.8-1.32-10.12,1.09-4.45-1.32-69.99,2.22-77.28-2.3,4.94-1.21-.38-2.23-5.08l-1.75,3.69v-13.12c.2-1.24,1.17.38,1.64-3.9.09-6.25-.73-7.39-1.64-10.12v-2.52c.68,2.59,1.56,4.8,2.12-1.83-.37-.1-1.7-3.21-2.12-6.22v-3.07c.06-.38.16-.69.29-1-.08,6.04,1.34,5.28,1.93,3.04l.12-8.46-2.34,2.55v-15.3c.48-19.48,1.53-39.5,1.34-59.91,2.26.34.06-18.37,3.4-16.06l-.3,1c.34,6.35,2.62-1.86,2.24-7.04ZM5.81,11.55l-1.06-.1c.57-.59.89-1.21,1.06-1.85v1.95Zm13.39,1160.54h1.41c-.66,1.76-1.17,2.52-1.41,0ZM139.64,6.07l.14.4h-.15c0-.14,0-.24.01-.4Z"/>
        <path class="cls-4" d="m153.19,412.42s0,.04,0,.07h0v-.07Z"/>
        <path class="cls-4" d="m153.81,413.08c-.22-.12-.42-.33-.61-.57.03,1.57.22.69.61.57Z"/>
      </g>
      <g>
        <g>
          <path class="cls-2" d="m10.03,996.54l-1.91,1.35c.44,3.18.67,6.39.7,8.53.17-.97.52-2.04.95-3.21.37-1.8.56-3.9.26-6.67Z"/>
          <path class="cls-2" d="m0,941.78c1.34-.35,2.57-.59,3.43-.07l-3.4-6.01c-.02,2.04-.02,4.04-.03,6.08Z"/>
          <path class="cls-2" d="m13.25,1103.51c-.22-4.25-.43-8.29-.19-11.01l.13-1.69-2.12-.38c.02-5.73-.53-11.33-1.3-18.4l-.12-1.14-1.86.48c-.49-3.04-.05-7.18.45-11.91.25-2.38.52-4.94.69-7.56l.1.24c2.36-7.18,1.3-14.85.36-21.61-.81-5.84-1.5-10.88-.31-15.44l.22-.83-.2-.9c-.26-1.14-.35-2.04-.3-2.86l.29,1.04.21-3.08c.02-.28.03-.62.04-.93l.17-.69c.22-.83.46-1.76.65-2.69.33-.86.68-1.73,1.02-2.56,1.23-3.04,1.91-4.7,1.66-6.46-.21-1.52-.89-1.31-1.2-1.21l-.99.69c0-.69-.09-1.17-.16-1.49-.48-1.73-1.73-.86-2.63.04-.15-.65-.31-1.28-.47-1.83.32-.52.54-1.14.67-1.87.29-1.55.11-3.21-.03-4.52-.23-2.17-.35-3.28.88-4.59l1.16-1.21-1.12-1.49c-.44-.59-.74-3.07-1.06-5.7-.47-3.87-1.03-8.53-2.43-10.84.28-2.69.48-5.56.02-8.36l2.74-1.69-3.66-8.67c1.14-3.49,1.73-4.25,3.15-.72l3.38,8.42-2.66-10.39c-1.35-5.28-1.63-7.49-1.88-9.43-.23-1.83-.44-3.42-1.28-6.59l.93.28-.03-1.69c-.03-1.62-.38-3.38-.71-5.07-.27-1.38-.64-3.28-.57-4.08,0-.07.02-.21.24-.59,1.7-4.38,1.77-14.5,1.85-26.23.07-10.57.15-22.51,1.47-31.83l.39-2.78-.98.81c-.47.38-.76.55-.95.62.1-.5.25-1.14.35-1.62.5-2.19,1.06-4.68.72-6.79-.06-.36-.14-.68-.23-.92.47-.72.65-.76,1.02.48l1.55,5.19-.7-6.61c-.4-3.78-.2-6.77-.01-9.65.21-3.05.42-6.18-.29-9.46.29.36.64.59,1.03,0l.53-.9-.41-1.4c-.4-1.36-.43-1.85-.38-1.99.08.07.26.85.37,1.31.12.5.25,1.02.38,1.49l.94,3.13-.08-4.2c-.17-9.48-2.83-11.93-5.38-12.88l.37-8.84c.02-.43.05-1.05.09-1.81.46-8.23.74-16.37-.29-20.13-.16-.55-.34-1-.54-1.33.01-.14.02-.29.03-.45.09-1.74-.15-3.89-.4-5.06.04-2.16.09-3.74.14-5.11.11-3.47.17-5.58,0-11.21l-.14-4.71-.99,5.2c-.55-.68-.76-1.28-.82-1.69-.11-.64,0-1.55.17-2.99.16-1.29.33-2.81.36-4.59l.07.03.16-1.07c1.09-7.18.93-9.38.62-11.5-.17-1.24-.34-2.42.82-9.08l.44-2.52-2.73,1.17c-.6-.21-.87-.64-.92-.93-.13-.85.47-3.5.92-5.46.93-4.13,2.11-9.25,1.23-13.97l-.2-1.04c.62-1.45,1.44-3.01,2.11-4.3,1.19-2.26,2.24-4.28,2.78-6.16.01.1.03.19.04.26.07.47.14.93.22,1.31l.41,2.25.44-2.19c.71-3.54.89-5.56.61-7.01-.32-1.61-.99-1.61-1.67-1.59-.9,0-1.49-.08-1.79-1.59.3-.09.61-.04.93.04.92.17,2.28.41,2.56-4.33.49-1.99-.12-5.09-.88-8.96-1.04-5.37-2.35-12.07-1.02-16.3l2.32-7.37-2.93,5.13c-.57.98-1.15,2.04-1.58,1.71-.19-.17-.37-.66-.54-1.5-.06-1.86.4-4.59.83-7.23.64-3.76,1.44-8.55.85-12.53.15.07.31.05.47-.08l.6-.52-.3-1.61c-.32-1.69-.71-2.67-1.16-2.98-.2-1.36-.4-3.14-.61-5.01-.47-4.21-.99-8.87-1.87-11.76.71-.89,1.22-2.17,1.52-3.83.77-4.21.06-9.88-.55-14.88-.47-3.76-.95-7.65-.57-9.27.19-.83.67-1.24,1.41-1.24h.02l.54.02-.33-14.61.51.33.07-1.59c.34-8.3-.65-12.41-1.8-15.47l.46.26.12-1.31c1.19-13.73.98-16.07-1.69-26.49l2.12-1.33-.69-1.92c-.22-.57.23-4.64.51-7.34.63-5.87,1.45-13.52.95-20.94l2.05,7.98-1.76-11.62c-.89-5.9-.16-12.95.54-19.79.68-6.59,1.32-12.84.42-17.63-.51-2.69-1.43-4.58-2.83-5.77l-2.08-11.91c.53-2,.64-5.02.75-7.96.16-4.5.32-6.16.87-6.16.01,0,.02,0,.03.02l.53.07-.02-1.57c-.12-14.1.43-28.18.97-41.8.46-11.59.89-22.53.93-33.57v-2.05s-.96.97-.96.97l.15-.29c.58-1.16.82-2.87.65-4.82-.26-2.97-1.48-6.2-2.33-7.53.25-1.83.45-2.02.48-2.02.38-.16,1.03,2.42,1.32,3.52.41,1.57.68,2.63,1.12,2.21.15-.14.4-.55.41-2.1l-.37-8.08-.69,2.31c-.22-.59-.42-1.11-.61-1.59-.79-1.93-1.27-3.11-1.2-7.51.25-1.81.57-1.97.95-2.13.23-.12.61-.29.82-1.21.06-.12.13-.28.17-.48.2-.76.2-1.83.03-3.63l.28-13.28-2.66,5.04c-.15-1.02-.22-2-.27-2.92-.08-1.36-.17-2.78-.62-3.33-.02-.03-.05-.07-.08-.1,1.3-6.91,1.18-18.23,1.07-27.75-.06-5.18-.12-11.03.2-12.22l.24-.88-.23-.91c-1.57-6.15-1.56-12.26-1.38-20.24l.11-4.83c.49-1.78.68-4.18.87-6.44.29-3.47.58-7.03,1.8-9.29.11-.14.22-.33.34-.57l-.51-2.5c-.11.16-.2.31-.29.48-.06.04-.1.04-.1.04-.24-.29-.44-3.52-.55-5.25-.17-2.8-.36-5.65-.83-7.36.45-.21.92-.81,1.35-2.37l.19-.69-.12-.83c-1.12-7.34-.59-15.78-.04-24.71.46-7.28.92-14.81.59-22.54l-.05-1.14-.38-.14c-.31-.08-.62.16-.92.41-.49.45-.85.68-1.2.04l3.28-8.67-.09-.9c-.19-1.83-.85-2.71-1.49-3.56-.33-.45-.89-1.19-.92-1.69,0-.04-.03-.74.64-2.47l3-7.79-3.55,5.39c-.18.28-.72.95-.92.92,1.37-14.56,1-29.49.65-43.92-.47-19.03-.95-38.69,2.54-57.75l2.25-12.29-3.06,10.64c-.28.97-.46,1.43-.57,1.66-.04-.47-.08-1.3-.1-2.45.13-1.22.07-2.92-.17-5.25v-.02l-.94.85c.07.76.09,2.11.11,3.44v.33c-.15.1-.61-.11-.86-.24-.15-.08-.32-.17-.48-.24l1.23-6.8-.87-1.38-2.08,11.55,1-.52c.29-.12.67.07,1.04.28.34.17.75.38,1.12.28.08,1.45.25,2.74.67,3.18.04.05.07.07.11.09-2.8,18.37-2.35,36.91-1.91,54.88.37,15.11.72,29.35-.68,43.65l-.04.41.04.41c.13,1.24.39,1.8.58,2.04.11.14.21.21.32.24-.04.43-.05.88-.03,1.35.11,2.09.85,3.07,1.5,3.94.23.31.54.72.75,1.14l-3.48,9.17.31,1.09c.94,3.28,1.98,2.35,2.6,1.83.05-.05.1-.08.15-.12.2,6.79-.22,13.59-.63,20.18-.57,9.05-1.1,17.59-.03,25.52-.36.9-.74.83-1.2.78-.64-.16-1.62-.23-1.92,4.07l-.27,3.83,1.05-2.35c.46-1.04.83-1.47,1.03-1.24.41.48.63,3.9.79,6.42.18,2.8.33,5.28.76,6.63-.92,2.74-1.2,6.27-1.44,9.22-.41,4.92-.65,7.87-3.19,6.73l-.5-.24-.06,1.5c-.2,4.58.69,6.1,1.08,6.53.52.59,1.1.5,1.61.03-.11,6.82.05,12.74,1.45,18.63-.32,2.26-.3,6.35-.22,13.12.12,10.64.27,25.15-1.94,29.59-.03.07-.06.14-.1.19l.53,2.47c.03-.07.08-.14.11-.21.56-1.07.83-1.41.96-1.52.03.29.06.72.08,1.09.09,1.42.21,3.38.67,5.3l.27,1.12,1.86-3.5-.17,8.06.03.24c.04.36.06.66.08.88h-.1l-.05.88s-.09.05-.13.07c-.45.21-1.3.6-1.75,4.21l-.03.43c-.09,4.68.38,6.92.99,8.67-.05.02-.1.04-.15.05-.62.36-1.07,2.13-1.38,5.37l-.18,1.71.6.16c.22.14.8,1.28,1.3,2.71-.64-.29-1.34.76-1.74,2.1l-.11.38-.2,11.12,2.91-2.86c-.09,10.17-.49,20.41-.92,31.2-.52,13.28-1.06,26.99-.98,40.85-1.12.85-1.28,5.11-1.41,8.6-.11,2.9-.22,5.9-.72,6.99-.1.21-.22.36-.36.43-.15-2.33-.55-3.09-.87-3.33-.54-.38-1.24.68-1.83,2.99l-.11.4.02,7.66.48.02c.26.02.67.76,1.03,1.42.64,1.14,1.36,2.41,2.02,1.45.31-.45.54-1.26.72-2.5l1.26,7.16.21.17c1.24.97,2.04,2.45,2.43,4.52.7,3.71.12,9.38-.5,15.37-.6,5.82-1.27,12.29-.87,18.27l-.95-.55.44,2.66c1.33,7.89.33,17.18-.4,23.96-.38,3.56-.68,6.28-.6,8.22l-2.15,1.36.48,1.83c2.81,10.84,3.14,12.13,2.12,24.19-.38-.38-.98-.5-1.39,1.69l-.2,1.11.33.76c1.35,3.11,2.53,5.84,2.38,13.37l-.72-.45.34,15.38c-.83.23-1.39,1.02-1.73,2.42-.68,2.88-.13,7.3.45,11.98.54,4.42,1.17,9.43.61,12.46-.28,1.55-.86,2.59-1.78,3.23l-1.25.85,1.12,1.87c1.04,1.73,1.68,7.4,2.19,11.96.18,1.64.35,3.2.54,4.54-.16.26-.32.59-.47,1.02l-.47,1.33.56.98c1.56,2.74,1.05,6.61.04,12.67-.55,3.31-1.09,6.44-.92,9.25l.06.45c.31,1.71.72,2.74,1.19,3.13.32.26.65.19.96-.05-.38,5.1.76,10.98,1.65,15.52.4,2.04.99,5.09.92,5.8l-.13.36-.02.52c-.09,2.28-.37,2.49-1.53,2.24-.59-.12-1.24-.24-1.83.48l-.37.47.08,1.17c.35,5.34,1.98,5.35,2.92,5.28.29-.02.72-.02.79.05,0,.07.03.45-.15,1.62-.14-.69-.31-1.23-.57-1.36-.13-.1-.38-.1-.63.57l-.13.62c-.15,1.4-1.56,4.07-2.69,6.25-1.76,3.37-3.43,6.54-3.58,9.72-.04,1.02.06,1.99.3,2.78l.34,1.1.86-2.42c.03,2.8-.7,6.01-1.36,8.93-.73,3.21-1.36,5.97-.99,8.32.3,1.93,1.12,2.4,1.83,2.61l.98-.41c-.84,5.35-.71,7.15-.43,9.1.16,1.14.35,2.41-.47,8.08l-.63-.36.12,2.09c.11,1.95-.09,3.59-.28,5.2-.2,1.69-.41,3.47-.12,5.23.25,1.5.79,2.63,1.77,3.63l.17.16c.05,2.86,0,4.58-.08,7.1-.05,1.5-.1,3.26-.15,5.73v.59s.13.47.13.47c.12.38.34,2.09.29,3.21-.01.26-.03.41-.08.5l-1.42,2.47,1.65.22c.23.05.41.31.57.86.74,2.68.46,10.32.22,15.16-.06-.1-.12-.22-.18-.29-.65-.85-1.33.43-1.94,1.57-.12.22-.24.46-.36.67l-.71,1.24.71,1.26c.98,1.78,1.44,3.11,1.51,4.37.06,1.17-.2,2.75-.85,4.97l-.63,2.16.97.24c2.65.62,4.83,1.56,5.77,5.82-.19-.08-.41.02-.65.4-.36.57-.48,1.38-.52,1.99-.02.38-.02.77.01,1.17-.36-.45-.82-.74-1.38-.16l-.85.9.71,1.64c1.53,3.49,1.35,6.15,1.08,10.15-.15,2.17-.32,4.75-.2,7.75-.53-.17-1,.59-1.39,1.21-.22.35-.45.74-.72,1.04l-2.22,2.31,2.35.5c.47.12.62.43.64.53.1.59-.43,2.9-.65,3.89-.46,2.02-.85,3.78-.5,5.23.24.97.67,1.12,1.27.85-1.07,9.32-1.15,20.43-1.21,30.3-.07,10.53-.14,20.54-1.41,23.86-.34.52-.55,1.28-.64,2.25-.19,1.97.25,4.14.67,6.28.13.66.27,1.38.38,2.04l-2.07-.62.82,2.8c1.41,4.73,1.62,6.35,1.89,8.46.18,1.35.37,2.83.86,5.18-1.13-.48-1.98,1.8-3,5.07l-.37,1.14,2.86,6.77-2.24,1.38.57,1.87c.6,2.04.53,4.28.29,6.83-.09.04-.17.11-.23.17-.08.07-.15.14-.22.17l-3.9.93,3.86,1.97c.09.04.19.07.28.17l.11,7.22.67-6.18c.96,1.9,1.39,5.46,1.81,8.94.25,2.14.5,4.18.88,5.66-1.28,2.21-.96,5.25-.75,7.18.1.93.19,1.8.11,2.25-.05.28-.23.83-.83,1.31l-.9.72.72,1.8c.37.93.72,2.21,1.03,3.8l.22,1.11.4-.45c.81-.93,1.42-1.28,1.73-1.28l-.12.66.26,2.56,1.76-1.24c-.27.72-.62,1.59-.91,2.28-.37.93-.76,1.9-1.11,2.8l-.09.34c-.07.35-.15.69-.23,1v-.31s-.82,3.53-.82,3.53c-.42,1.83-.8,4.28-.2,7.49-1.26,5.63-.43,11.64.38,17.47.68,4.9,1.32,9.56.81,14.05-.14-.48-.32-.83-.53-1.07l-.69-.69.04,2.17c.08,4.18-.37,8.39-.8,12.5-.59,5.59-1.15,10.88-.19,15.12l.16.72,1.67-.45c.73,6.91,1.22,12.29,1.12,17.75l-.03,1.49,1.95.31c-.11,2.97.08,6.59.27,10.39.41,8.29.85,16.85-1.53,19.92l-1.02,1.35,1.01,1.35c.52.69.34,3.56.03,7.49-.2,2.52-.4,5.11-.33,7.32l-1.38,1.14-.06.83c-.51,6.53-.02,10.77.43,14.54-2.07,9.01-1.38,17.71-.78,25.42l.96-.69c-.18-2.17-.35-4.38-.46-6.63.02.04.05.07.07.07l.36.28.19-.97c.63-3.14.98-5.9,1.09-8.67h0c.47-1.97,1.49-6.83-.14-11.43l-.38-1.07-.21.72c-.3-2.76-.5-5.87-.23-10.08l1.74-1.42-.16-1.45c-.18-1.73.04-4.52.26-7.22.26-3.31.55-6.94.06-9.22,2.35-4.59,1.86-14.19,1.46-22ZM4.13,227.63c-.13.56-.85,1.38-1.39.76-.11-.14-.4-.45-.47-1.97,1.24.34,2.02-.42,2.55-1.73l-.69,2.93Zm2.81,111.5l-1.24,1.22.11-5.77c.26-.65.63-1,.86-.72.23.28.34,1.38.32,3.02l-.04,2.25Zm-2.98,94.25c-.15,3.62-.42,4.19-.48,4.26-.19.29-.7-.64-1.07-1.31-.34-.62-.69-1.23-1.04-1.57v-2.85s.86.55.86.55c.73.45,1.33.21,1.8-.71l-.06,1.62Zm.65,364.41c.29-.53.62-.98.74-.85.08.07.24.76.35,2.61l.13,2.32c-.22-1.62-.68-2.93-1.22-4.08Zm.81,10.26c.34-1.54.51-2.87.53-4.16l.26,4.4c-.26-.1-.53-.17-.78-.24Zm4.36,353.61c.09,1.21.13,2.49.1,3.9-.2.86-.44,1.66-.65,2.42-.06.21-.12.45-.18.62.09-2.31.32-4.59.73-6.94Z"/>
          <path class="cls-2" d="m7.2,307.16c-.55-1.04-1.05-2.09-.5,1.67l.5-1.67Z"/>
        </g>
        <polygon class="cls-2" points="16.02 1167.22 16.72 1170.29 15.67 1164.84 16.02 1167.22"/>
        <path class="cls-2" d="m16.19,1143.12c.25,3.01.19,6.25-.29,10.43.58,2.28.98-3.11,1.34-.69-.11-3.73-.6-6.91-1.04-9.74Z"/>
        <path class="cls-2" d="m15.29,1171.02l-.85,2.14v2.11c.17-.41.65-1.21.85-4.25Z"/>
        <polygon class="cls-2" points="14.42 1173.19 14.45 1173.16 14.49 1168.57 14.42 1173.19"/>
        <polygon class="cls-2" points="13.1 1175.65 13.37 1178.44 13.45 1176.3 13.1 1175.65"/>
        <path class="cls-2" d="m14.75,1148.12c-.37-2.49-.4-5.18-.46-8.25-.16,3.28-.25,6.67-.25,9.91.27.45.75,1.86.71-1.66Z"/>
        <path class="cls-2" d="m14.52,1160.31l-.05-.56c-.08.35-.09.62.05.56Z"/>
        <polygon class="cls-2" points="14.3 1109.73 14.14 1110.21 14.29 1110.35 14.3 1109.73"/>
        <path class="cls-2" d="m13.88,1150.33c-.16,2.45.05,3.9.3,5.32-.08-1.83-.14-3.8-.15-5.87-.12-.24-.2-.24-.16.55Z"/>
        <path class="cls-2" d="m15.15,1129.89c-.17,1.28-.33,2.76-.47,4.28.27-1.28.69-3.83.47-4.28Z"/>
        <path class="cls-2" d="m14.7,1158.93l.03.38c.18-.83.09-.72-.03-.38Z"/>
        <path class="cls-2" d="m14.7,1158.93c-.12-1.28-.33-2.28-.52-3.28.07,1.52.16,2.93.29,4.11.06-.31.15-.62.23-.83Z"/>
        <path class="cls-2" d="m9.53,1113.11c.59,5.52,3.17,1.93,4.61-2.9-.34-.14-.66-.14-1.12-5.84-.43,2-1,12.57-1.71,7.8-.4-7.49.27-6.15.69-9.8-.97,3.11-1.42-9.53-2.85-7.91l.5,6.56c-.22.14-.58-2.25-.78-.41.78.41,1.51,6.91.67,12.5Z"/>
        <path class="cls-2" d="m14.07,1121.02l.09,2.32c.14-2.63.45-4.53,1.07-8.05-.38-3.87-.68-4.7-.94-4.94l-.11,11.46-.12-.8Z"/>
        <path class="cls-2" d="m14.17,1133.83c-.85-1.79-1.22-7.42-2.14-4,.05,6.87.71,4.8,1.08,8.87-.22-11.01.47,3.21.96-4.8.15,2.17.19,4.11.22,5.97.11-2,.24-3.9.39-5.7l-.05.24v.04h-.02c-.11.48-.17.66-.11.1-.01-.03-.02-.17-.02-.24-.11-.07-.22-.28-.31-.48.17-3.21.22-.52.31.48.05.07.09.14.13.14l.02-.04-.47-11.08c-.12,2.35-.09,5.28,0,10.49Z"/>
        <path class="cls-2" d="m12.06,1159l-.42-9.22-.74,4.7.44-.24c-.17,5.25.37,4.07.71,4.77Z"/>
        <polygon class="cls-2" points="14.72 1108.69 15.62 1109.9 14.35 1104.58 14.72 1108.69"/>
        <polygon class="cls-2" points="14.61 1096.71 15.4 1097.16 14.92 1093.98 14.61 1096.71"/>
        <path class="cls-2" d="m4.89,421.12l-.22-2.69c.06,1.28.14,2.11.22,2.69Z"/>
        <path class="cls-2" d="m4.84,440.73l.38.47c-.22-.9-.37-1.28-.38-.47Z"/>
        <path class="cls-2" d="m14.53,802.69c.73-3.95,1.87-8.36.98-7.87l-.85,1.21c.15,2.77.06,4.87-.13,6.67Z"/>
        <polygon class="cls-2" points="9.4 601.31 9.13 602.47 9.96 605.13 9.4 601.31"/>
        <path class="cls-2" d="m6.39,593.34c-.19,1.17-.37,2.85-.55,5.22l.55-5.22Z"/>
        <path class="cls-2" d="m3.95,314.15l-.88-3.16c0,4.94.45,2.76.88,3.16Z"/>
        <path class="cls-2" d="m14.3,974.1c.33-3.42.47-6.11.51-8.5-.49,4.11-1.23,7.43-.51,8.5Z"/>
        <path class="cls-2" d="m14.01,428.84c-.16-1.64-.33-2.37-.53-2.3.15,1.69.32,2.66.53,2.3Z"/>
        <path class="cls-2" d="m14.81,955.8c-.08.59-.14,1.17-.2,1.8.14,2.49.26,4.97.2,8.01.37-3,.6-6.49,0-9.8Z"/>
        <path class="cls-2" d="m14.99,1048.54c.06,2.56.09.41,0,0h0Z"/>
        <path class="cls-2" d="m9.47,930.49v-.21c-.16.76-.13.62,0,.21Z"/>
        <path class="cls-2" d="m14.6,1052.34c.11-.89.19-2.04.26-3.24-.07.55-.15,1.52-.26,3.24Z"/>
        <path class="cls-2" d="m15.01,1051.86l-.09,2.21c.15.31.23.04.09-2.21Z"/>
        <path class="cls-2" d="m14.94,1045.02c.01,1.45-.02,2.8-.09,4.08.06-.48.11-.69.13-.56l-.05-3.52Z"/>
        <path class="cls-2" d="m6.68,133.96l.08-.53c-.37-2.57-.31-1.45-.08.53Z"/>
        <polygon class="cls-2" points="5.6 736.6 5.64 736.9 5.67 736.51 5.6 736.6"/>
        <path class="cls-2" d="m4.97,727.48c1.07,3.89.93,6.1.71,9.03l2.48-3.02-3.19-6.01Z"/>
        <path class="cls-2" d="m6.25,598.91c.16-.53.34-.67.52-.79-.16-.73-.34-.74-.52.79Z"/>
        <path class="cls-2" d="m4.1,314.72v-.28c-.05-.17-.11-.24-.16-.29l.16.57Z"/>
        <path class="cls-2" d="m5.7,896.23c.13-1.76.31-2.74.5-3.42-.24-.08-.43.72-.5,3.42Z"/>
        <path class="cls-2" d="m15.17,1069.33c.05,2.66-.16,3.59-.31,4.94.22-.11.54-1.17.56.55l-.25-5.49Z"/>
        <path class="cls-2" d="m9.51,1122.61c.12.79.01,1.69.13,2.49l.44-.24c-.02-3.42-.38-5.8-.57-2.24Z"/>
        <path class="cls-2" d="m12.24,1079.93c-.8.45-.53,3.9-.38,7.74,0-.24-.01-.45,0-.69,1.12,1.14.75-2.97.38-7.04Z"/>
        <path class="cls-2" d="m11.89,1088.56c.04,1.17.06,2.38.02,3.55.46.45.1-1.41-.02-3.55Z"/>
        <path class="cls-2" d="m14.33,1040.18c-.2,1.83,1.03,1.17.7,2.21,1.03,2.04-1.24-12.19-.7-2.21Z"/>
        <polygon class="cls-2" points="9.59 1083.04 10.59 1081.66 9.79 1079.51 9.59 1083.04"/>
        <path class="cls-2" d="m10.32,1052.62l-.27,6.15c.17-.07.26.69.33,1.66.04-3.8.24-7.98-.06-7.8Z"/>
        <path class="cls-2" d="m10.38,1060.42c-.01,1.97,0,3.86.17,4.94,0-1.07-.05-3.35-.17-4.94Z"/>
        <polygon class="cls-2" points="9.58 1068.43 9.3 1074.61 9.51 1072.78 9.58 1068.43"/>
        <path class="cls-2" d="m10.52,986.39l-.29-6.7c-.34-.69-.55,1.14-.41,3.62.24,1.62.37,4.11.7,3.07Z"/>
        <path class="cls-2" d="m7.8,1006.73c.21-1.83.43-1.93.76-2.97l-1.23-.21.47,3.18Z"/>
        <path class="cls-2" d="m6.61,985.87c.33.69.62,7.42.9,1.24-.34-.65-.98-9.74-.9-1.24Z"/>
        <polygon class="cls-2" points="9.07 885.84 9.08 887.55 11.1 887.32 9.07 885.84"/>
        <path class="cls-2" d="m5.79,801.71c-.5-4.82-.22-7.34-1.55-5.13-.48,7.96,1.24,1.88.64,9.08.48,1.86.49-5.89.9-3.95Z"/>
        <path class="cls-2" d="m5.79,801.71c.08.76.17,1.57.3,2.45-.12-1.4-.22-2.05-.3-2.45Z"/>
        <path class="cls-2" d="m2.67,484.14l.31.4c.33-.8.36-1.99.41-4.39l-.72,3.99Z"/>
        <polygon class="cls-2" points="3.63 414.68 3.61 415.87 4.77 413.65 3.63 414.68"/>
        <path class="cls-2" d="m2.14,356.41c-.05,2.37.21,5.16.16,7.55-.2-5.18,1.29-8.2-.16-7.55Z"/>
        <path class="cls-2" d="m15.92,891.66l-1-.35c.05-6.06-.23-11.86-.63-19.37l-.89.45c-.73-6.47.63-16.64.54-26.9.34.71.25,3.3.05,5.13,2.01-12.24-1.46-25.81,0-36.91-.32-2.78-.21-4.78.01-6.73,0,.28.02.5.05.69v-1.12c.16-1.23.34-2.49.48-3.85-.22,1.16-.4,2.28-.48,3.23-.02-2.12-.13-5.37-.35-8.53l.96-1.36-.03-.72c.35-3.11-.45-2.5-1.17-.85-.16-1.61-.34-3.05-.57-4.2,1.54-2.52-.52-8.32,1.12-11.77-.8-2.16-.6-15.95-2.29-17.64.22-.1.33-1.04.34.68.19-3.54.38-7.06-.09-10.26l1.21-1.49-1.64-7.73c.74-4.68,1.17-6.63,2.1-1.97-1.44-11.26-.54-9.13-1.96-18.7l.78.47c-.03-3.42-1.08-8.87-.43-10.95,1.49-7.65.21-37.86,1.59-57.47-2.3,3.8,1.03-9.13-.76-9.91.55-1.16.86-3.88,1.33-.71-.53-10.01.87-15.06-.64-21.98.55-1.14.8,2.14,1.12,1.14-.11-.81-.47-3.2-.14-4.23.32-1.04.45,1.47.69,3.06-.09-10.24-1.77-11.28-3.35-12.04.75-5.18.64-7.77-.4-11.51.52-1.8,1.06-4.82,1.25,1.55.07-3.59.75-21.86-.51-22.24.32-1.11.09-5.01-.05-5.94.08-8.03.19-8.73.07-16.61l-.2,2.17c-1.53-3.11-.34-6.56-.53-12.9l.15.17c1.1-14.57-.52-6.29.74-20.67l-.95.78c-2.04-1.35,1.2-12.74.43-21.08l-.54,3c-.7-4.56,2.78-12.74,3.03-17.31.18-.98.29,1.59.41,2.97,1.21-11.98-1.24-1.56-1.53-10.46.67-1.66,1.7,2.1,1.83-3.9.54-2.99-2.18-17.42-.89-25.64-.51,1.81-1.03,3.61-1.42-.53-.18-6.37,1.96-17.18.33-22.94.15-.8.28-1.11.4-1.12-.42-4.87-.69-15.8-1.58-18.73,3.27-4.49-1.6-30.21,1.42-30.11l-.16-14.95.3.4c.2-9.56-.53-12.95-1.26-16.3.2-2.21.49-.6.65-.41.6-13.97.47-15.37-1.05-27.05l.99-1.23c-.58-3.18,1.52-20.2.36-33.89.11.14.3.41.44,1.5-1.17-15.4,2.67-36.93-.91-42.53l-.9-10.17c-.26,13.17-1.55-1.93-2.14,3.49-.22-5.16,1.06-13.38,1.26-7.03l-.17,1c1.86,2.31.63-16.37,1.9-16.02-.14-25.88.85-51.12.88-75.36l-1.45,2.8.07-8.44c.33-2.25,1.13-3,1.08,3.02.82-3.18-.71-10.1-1.03-10.28.57-11.81,1.7,4.59,1.73.97l-.12-4.92-.17,1.12c-.6-3.99-1.23-4.32-1.17-11.57.28-4.61.89-2.38.94-4.19.11.02.15-.6.04-2.77l.1-10.67-1.14,4.3c-.57-4.71.04-10.03-1.24-5.1,1.98-7.25.63-39.74,1.24-44.2-.85-6.59-.85-13.12-.76-21.2-.24,2-1.52,3.23-1.38-3.74,2.03,1.9,1.62-6.48,2.15-13.11h-6.66c-.02,1.76-.02,3.77.06,6.56l-.11-.53c.44,2.88.68,6.73.64,10.69-.52-3.62-.99,6.89-1.58,2.11.92,14.24.71,7.04,2.38,16.43l-.73,2.19c.67,3.18,1.02,3.45,1.23,10.65-.65-5.9-1.11,4.61-1.96-1.99-1.58,15.16,1.67,22.43-.66,29.42,2.05,6.91,1.1-13.1,1.54-9.24.66-3.26,1.53,5.7,1.34,10.46-.04,4.82-2.59,8.27-2.52,20.43.01-1.21-.14-1.29-.13-2.5-.51,4.56.72,8.91-.11,14.5,1.23,3.11-.05,7.25,1.51,8.11l-.38-11.13c.42,6.32,2.27,12.21,1.4,22.63-.32-.81-.74-3.9-.97-6.03-.46,3.05.32,5.85-.15,9.03-1.57-.88-.37-13.55-1.58-20.3-.66,3.28,1.16,12.79-.55,9.43,2.17,4.85-.24,11.98,1.42,20.18l-.95-.54c.15,1.3.6,3.99.58,6.41l-1.23-4.33c1.05,6.67-.89,12.86-.3,19.25-.06-13.38,1.13-3.02,1.8-8.7,1.24,15.95-2.17,10.17-1.96,26.5.08-2.95.62-7.27.99-3.99-.19,3.52-.54,8.18-1.03,10.34.21,12.24.96-1.9,1.55,3.31-1.14,4.18.48,5.99.85,11.36l-.96.05c-.59,13.97,2,3.68,1.28,16.24l-1.34-5.28.36,6.53-1.09-1.33c.81,7.13.61,9.34.32,16.31.66-1.62,1.73.9,1.77,7.08-.57,4.23-.91-2.35-.76,6.41-.6-1.97-1.35-4.13-.48-7.94-.32-.4-.6-1.95-.91-2.35-.65,4.54-.13,11.41-.12,14.57.03-1.21.09-2.66.22-3.42l1.34,12.67c-.36,2-.64.43-.93-1.14.11,2.57.55,4.35.64,8.13-.78-.97-1.58-.72-1.95-6.07l.88,12.09c-.34.81-.93,6.23-1.21,4.64-.45,6.72,1.52,16.45.93,25.34.15.45.29,1.38.41,3.26-.17,8.37-1.11,15.78-.05,25.67l-1.39,5.63c.33,7.75,1.75-7.61,2.28,5.3.45,9.14-1.18,3.42-1.57,6.62.7,4.54,2.13,12.46,1,20.85-.26-2.78-.05-4.95-.16-7.56l-.77,6.41c-1.27-7.74-.83-13.31-1.92-7.31,2.69.9.27,24.88,2.96,25.78l-.57,4.21c.02-1.21-.13-1.4-.11-2.59-1.29,8.2,1.94,6.1,1.56,16.68-.2,3.68-.6,6.25-.92,3.73l.67,8.23c-.06,2.38-.52,1.8-.47-.59l.22,12.53-.08-.1c.42,1.8,1.07,5.85,1.35,7.82-.38,3.19-.29-1.59-.62-.78l.65,6.94c-.7,2.83-1.38-2.92-1.28-7.72-2.68,6.47.68,5.77-.89,19.75l-.34-6.56c-1.52,4.23-.98,9.34-1.93,16.75.5-1.76,2.4-14.83,3.07-7.3-.2,2.12-.3,4.92.25,8.98-.96.05-.72,4-.67,8.96l-1.27-.33c.36,5.37,1.01,4.94,1.58,8.1-.12,5.97-1.1,7.22-1.93,8.63-.2,9.58,1.58-6.61,1.82,4.71-.49,7.98.03,13.55.79,23.09-.44,5.58-.78-.97-1.14,1.04l1.01,4.94c-.02,1.23-.34.81-.49.62.39,4.16,1.27.35,1.61,6.89,1.39,1.76-2.04,13.43-.46,21.55-.36,1.99-.78-.97-1.27-.36,1.04,11.12.75,9.53,2.15,18.67l-.83,7.77c.96-5.71,2.08,1.61,3,7.98.46-2.02.86-3.75,1.05-4.9l.68,10.19c-.22,1.24-.64.21-1.17-1.47l.3,1.88c-.47,3.64-1.2,1.74-1.91-.86l.78-3.68c-.77-2.52-1.62-4.87-2.36-4.35.15.67.27,1.95.34,3.35-.21-.68-.4-1.09-.52-.78-.14.36.14,1.42.47,3.07l-1.41,2.33.56.56-.88,13.34c1.42,9.56,3.51,17.85,4.1,33.03-1.04-3.77-1.69-.81-2.92-1.02,1.3-4.13-.55-11.74-.29-19.58-.13,4.07-.72,3.18-.92,2.14l1.18,14.02c-1-.33-.75,2.97-1.17,6.63,1.98-2.76,1.32,10.44,1.93,16.16-.66.36-1.34-1.04-1.18-7.98-1.49,7.67,2.33,9.91,1.06,17.46-.01-1.71.09-2.62-.25-3.3.59,3.97.12,13.66-.46,11.38v-1.69c-.24,11.27-.02,34.32,1.66,36.01-.22.1-2.03-1.49-2.36-2.16l5.66,20.11c-1.45-1.78-4.89,5.02-5.71-4.31-.21,2.69-.45,6.01.06,11.67.2-1.83,2.09-4.56,2.22-2.07-1.61,6.87-.86,4.77-2.24,13.25.31-2.75,2.58.29,2.51,4.64-.34-.69-2.24.36-2.47-1.23l2.22,10.79c-.4-2.68-1.88-.47-2.52,1.93.44-1.1-.03,9.36.19,12.24l.51-4.59c-.34,12.19,3.13,12.05,3.02,24.14-.46-1.45-2.83-3.61-3.11,2.54,1.14,2.81,5.49,12.48,6.36,23.19l-.65,2.05.74,8.2c-1.72-5.11-5.32-19.46-6.73-27.28-.51,4.56-.77,1.26-.71,8.08-.61,2.42-.93-3.71-.97-5.73l-.39,15.92c1.33-.71,1.34,12.17,2.45,11.57l-1.38-17.28c1.33-.69,3.78,9.98,3.55,21.25-.54,2.86-2.38-2.14-2.82-1.9.46,1.47.87,10.69.55,11.72l-.71-4.78c-.5,6.28,1.76,10.24.5,17.8-.09,2.59-1.72,7.75-.93,8.22,1.52-4.26,6.22-5.09,7.37-2.26-.11.92-1.45,13.67-2.21,16.64-1.2,4.28-2.84-6.42-3.86-2.8.36.16.81,2.52.96,3.52-.32,2.73-1.13-1.14-.96,4.84,1.34.97-.12,12.05,1.14,2.8.38,5.8-.28,6.18-.22,12.98.87-2.17,2.97,6.11,3.35,11.95-.34-.34-.79.97-.99,1.59-.12,11.91-.74,18.3-.75,29.42-.33,1-.72,6.39-1.3,4.07.24,1.62.69,3.07.73,6.49-1.17,6.67-.18-7.63-1.59-2.55.78.41,1.08,8.84,1.57,13.74,1.21-1.52.23-11.29-.25-16.16,1.67-.04,3.42,8.46,4.18,20.06.42,9.22-1.07,4.01-.83,5.63-.3,17.3,2.92,14.74,1.71,29.14-1.07,5.7-2.12.24-2.88,1.52-.4-7.52.68-11.53.63-16.64l-.51,6.29c-.35-2.38-.62-7.43-.31-10.15-.96,4.8-.19,29.28-1.07,42.64.36,2.38.72,6.49,1.16,4.56l-.15-4.25c.86-3.9,1.19,7.94,1.59,2.62.61,5.66,1.56,12.02,1.07,20l-1.21,1.52c.35-.17.72-5.25.35-7.49.54,3.35-1.65,12.26-.05,15.92l.84-5.59c.61,5.7,1.9,12.74,1.52,19.82,1.2-3.25-.14-1.66,1.26-6.67-1.75,4.35.08-18.13-1.76-11.12,1.63-5.18.69-8.91,2.08-15.67-.4.21-.77,2.38-.57-3.56-.12-.28-.26-.9-.35-1.31l.03-.42-.05.35c-.06-.24-.08-.28-.01.14-.18,1.42-.39,2.56-.61,3.01-.92-2.93-.89-12.36-1.37-15.57.19-3.53.46,1.48.89-.45l-.71-4.77c.89-.48,1.48-9.39,2-1.07l.04-7.49c.5-4.38.69-10.46.32-14.19.19-3.52-.98-8.91-.29-5.83l-.55-11.74.22-.11c.12-11.53-1.47-23.79.13-37.01-.22-3.9-.5-7.91-.24-14.47l.77-1.24c-.27-5.01.76-15.02-.03-17.16,2.07-5.42.46-24.27.82-33.06ZM13.05,106.73l-.25,1.68c-.28-3.78-.03-2.73.25-1.68Zm-7.79,363.18c-.2-1.85-.82-5.54-.26-6.89,1.1,2.1.57,3.73.26,6.89Zm2.3,145.49c-.31-1.36-.16-3.5.2-5.9.08,1.75.04,3.73-.2,5.9Zm6.65,405.31l-.05-.17c.37-4.18.22-2.69.05.17Z"/>
      </g>
      <g>
        <polygon class="cls-2" points="141.5 18.35 140.8 15.3 141.85 20.73 141.5 18.35"/>
        <path class="cls-2" d="m141.61,31.97c-.57-2.26-.97,3.09-1.33.71.11,3.69.6,6.87,1.04,9.7-.25-3.02-.19-6.25.28-10.41Z"/>
        <path class="cls-2" d="m143.08,10.34c-.17.41-.65,1.23-.85,4.23l.85-2.13v-2.11Z"/>
        <polygon class="cls-2" points="143.1 12.38 143.07 12.45 143.02 17.02 143.1 12.38"/>
        <polygon class="cls-2" points="144.14 7.18 144.07 9.3 144.4 9.96 144.14 7.18"/>
        <path class="cls-2" d="m142.77,37.4c.36,2.45.4,5.14.46,8.2.16-3.26.26-6.65.25-9.86-.26-.47-.74-1.85-.71,1.66Z"/>
        <path class="cls-2" d="m143,25.22l.05.55c.07-.34.09-.6-.05-.55Z"/>
        <polygon class="cls-2" points="143.22 75.62 143.38 75.15 143.22 75.03 143.22 75.62"/>
        <path class="cls-2" d="m143.64,35.19c.16-2.45-.05-3.92-.3-5.32.08,1.83.14,3.8.14,5.87.12.21.2.24.16-.55Z"/>
        <path class="cls-2" d="m142.37,55.54c.18-1.28.33-2.73.46-4.26-.26,1.26-.68,3.82-.46,4.26Z"/>
        <path class="cls-2" d="m142.82,26.62l-.04-.38c-.18.8-.09.71.04.38Z"/>
        <path class="cls-2" d="m142.82,26.62c.12,1.24.33,2.24.52,3.25-.07-1.49-.16-2.89-.29-4.09-.06.33-.15.6-.23.85Z"/>
        <path class="cls-2" d="m143.45,64.38l-.1-2.31c-.14,2.64-.45,4.54-1.06,8.03.38,3.86.67,4.68.93,4.94l.11-11.45.12.79Z"/>
        <path class="cls-2" d="m145.45,26.53l.41,9.19.74-4.68-.44.24c.17-5.22-.37-4.06-.71-4.75Z"/>
        <polygon class="cls-2" points="142.8 76.67 141.9 75.44 143.17 80.76 142.8 76.67"/>
        <polygon class="cls-2" points="142.9 88.6 142.12 88.15 142.59 91.31 142.9 88.6"/>
        <path class="cls-2" d="m152.64,742.21l-.38-.45c.21.89.37,1.26.38.45Z"/>
        <path class="cls-2" d="m142.99,381.57c-.73,3.94-1.86,8.34-.98,7.84l.86-1.19c-.16-2.74-.06-4.85.12-6.65Z"/>
        <path class="cls-2" d="m153.54,868.36l.88,3.14c-.01-4.92-.45-2.74-.88-3.14Z"/>
        <path class="cls-2" d="m143.22,210.79c-.34,3.38-.48,6.07-.52,8.44.49-4.07,1.23-7.37.52-8.44Z"/>
        <path class="cls-2" d="m143.51,754.07c.15,1.64.33,2.37.52,2.31-.15-1.71-.31-2.66-.52-2.31Z"/>
        <path class="cls-2" d="m142.7,229.02c.09-.57.13-1.17.2-1.78-.14-2.49-.26-4.97-.2-8.01-.37,3.04-.59,6.47,0,9.79Z"/>
        <path class="cls-2" d="m142.52,136.6c-.05-2.52-.09-.4,0,0h0Z"/>
        <path class="cls-2" d="m148.03,254.22v.22c.17-.76.14-.62,0-.22Z"/>
        <path class="cls-2" d="m142.92,132.8c-.11.93-.19,2.04-.25,3.23.07-.53.15-1.5.25-3.23Z"/>
        <path class="cls-2" d="m142.51,133.32l.08-2.22c-.13-.31-.23-.04-.08,2.22Z"/>
        <path class="cls-2" d="m142.58,140.12c-.01-1.43.02-2.8.09-4.09-.06.5-.11.71-.14.57l.05,3.52Z"/>
        <path class="cls-2" d="m153.37,867.78v.29c.05.16.1.24.16.29l-.16-.59Z"/>
        <path class="cls-2" d="m142.35,115.9c-.05-2.66.16-3.59.32-4.94-.23.12-.55,1.17-.56-.55l.24,5.49Z"/>
        <path class="cls-2" d="m145.64,97.63c0,.22.02.45,0,.67-1.12-1.14-.75,2.95-.38,7.04.81-.45.53-3.88.38-7.72Z"/>
        <path class="cls-2" d="m143.19,144.92c.2-1.83-1.03-1.14-.71-2.17-1.01-2.04,1.24,12.13.71,2.17Z"/>
        <path class="cls-2" d="m147.18,132.56l.27-6.15c-.17.09-.26-.67-.34-1.62-.03,3.77-.23,7.91.06,7.77Z"/>
        <path class="cls-2" d="m147.11,124.79c.02-1.98,0-3.86-.16-4.95,0,1.07.04,3.35.16,4.95Z"/>
        <path class="cls-2" d="m147.26,205.22c.34.68.55-1.14.42-3.64-.24-1.59-.37-4.09-.7-3.05l.28,6.7Z"/>
        <path class="cls-2" d="m148.94,181.23l1.23.19-.47-3.14c-.2,1.81-.43,1.93-.75,2.95Z"/>
        <polygon class="cls-2" points="148.43 298.71 148.41 297.02 146.41 297.25 148.43 298.71"/>
        <path class="cls-2" d="m154.09,702.97l.71-3.99-.31-.4c-.33.79-.36,1.98-.4,4.38Z"/>
        <polygon class="cls-2" points="153.85 768.19 153.87 766.99 152.72 769.21 153.85 768.19"/>
        <path class="cls-2" d="m155.33,826.26c.05-2.37-.21-5.14-.16-7.53.22,5.16-1.27,8.17.16,7.53Z"/>
        <path class="cls-2" d="m154.02,243.21l.04-.14,3.38,5.99c0-2.04.02-4.04.03-6.08-1.32.33-2.54.57-3.4.05l.31-.97-2.84-6.75,2.22-1.38-.55-1.88c-.61-2.02-.54-4.26-.3-6.79.09-.03.17-.12.23-.17.08-.07.15-.14.22-.16l3.89-.97-3.84-1.93c-.1-.03-.19-.1-.29-.17l-.11-7.18-.67,6.15c-.96-1.88-1.38-5.45-1.8-8.91-.26-2.13-.5-4.16-.88-5.63.78-1.35.93-2.99.92-4.5.19,1.33.34,1.55.3-2.75-.15-.29-.28-1.64-.41-2.64.12-.26.3-.55.65-.81l.91-.76-.72-1.78c-.38-.93-.73-2.19-1.03-3.78l-.22-1.09-.39.45c-.81.93-1.41,1.26-1.73,1.28l.12-.67-.12-1.16,1.42-1c-.35-2.49-.52-4.87-.61-6.87l.43-1.86c.41-1.83.79-4.26.2-7.46,1.26-5.63.43-11.62-.37-17.42-.23-1.69-.44-3.33-.62-4.94.07-2.66.16-5.19.3-7.39-.04-.29-.09-.64-.13-.97.06.1.1.26.16.35l.69.71-.04-2.17c-.07-4.18.37-8.39.81-12.45.58-5.59,1.14-10.86.19-15.09l-.16-.71-1.67.41c-.3-2.81-.52-5.28-.72-7.72l.07-1.28-.16.22c-.23-3.07-.36-5.99-.3-8.87l.02-1.47-1.94-.33c.09-2.98-.08-6.59-.27-10.37-.08-1.64-.16-3.3-.23-4.92.34-3.19.73-6.3,1.18-3.28.4,7.47-.28,6.11-.69,9.77.97-3.09,1.42,9.51,2.85,7.87l-.5-6.56c.22-.12.58,2.26.78.45-.78-.45-1.5-6.91-.67-12.48-.4-3.8-1.76-3.21-3.03-.92.04-4.35.46-7.99,1.84-9.79l.65-.86c.03,3.33.38,5.63.56,2.14-.11-.81,0-1.69-.13-2.49l-.27.14.19-.24-1-1.36c-.51-.69-.33-3.54-.02-7.46.2-2.5.4-5.07.33-7.27l1.38-1.14.06-.85c.5-6.52,0-10.74-.43-14.47,2.06-8.99,1.38-17.66.77-25.33l-.95.68c.17,2.17.34,4.37.45,6.61-.02-.02-.04-.05-.06-.09l-.37-.26-.18.95c-.62,3.14-.97,5.9-1.09,8.65-.46,1.97-1.49,6.84.14,11.4l.38,1.05.2-.72c.3,2.78.5,5.85.23,10.05l-1.73,1.44.16,1.43c.17,1.71-.04,4.5-.26,7.2-.12,1.59-.25,3.28-.29,4.83-.07-6.77-.71-4.76-1.09-8.82.21,11-.47-3.18-.95,4.78-.15-2.16-.19-4.09-.23-5.94-.11,1.98-.23,3.9-.39,5.68l.06-.22v-.05h0c.11-.48.17-.64.11-.1.01.04.01.17.02.22.12.09.22.29.32.5-.18,3.19-.22.5-.32-.5-.04-.03-.08-.12-.13-.12v.05s.46,11.01.46,11.01c.12-2.33.1-5.25,0-10.44.85,1.81,1.22,7.39,2.14,4.01-.05,1.62,0,3.13.25,4.28-1.53,3-1.84,8.15-1.77,13.52-.2.55-.4,1.12-.58,1.73.22.11.43.29.67,1.81.06,1.66.14,3.31.22,4.87.21,4.25.41,8.25.19,10.98l-.15,1.69,1.14.19c.05.6.12,1.28.16,2.04-.02-.68,0-1.33,0-2l.83.12c0,5.71.54,11.29,1.29,18.37l.12,1.12.11-.03-.03,2.47.11-2.49,1.66-.43c.48,3.02.05,7.15-.45,11.86-.25,2.37-.52,4.92-.68,7.55l-.12-.26c-.38,1.17-.65,2.37-.86,3.57-.01.04-.02,0-.03.04v.14c-.24,1.42-.41,2.83-.47,4.25-.43-1.73-.68-6.56-.97-2.76-.6-5.65-1.55-11.98-1.06-19.94l1.21-1.5c-.36.17-.72,5.19-.36,7.44-.54-3.31,1.64-12.21.05-15.83l-.84,5.58c-.61-5.68-1.9-12.71-1.51-19.75-1.2,3.21.13,1.62-1.26,6.65,1.74-4.37-.07,18.02,1.75,11.05-1.62,5.14-.69,8.89-2.07,15.62.4-.21.77-2.37.57,3.54.12.28.27.91.36,1.31l-.03.4.05-.33c.06.26.08.28.02-.12.18-1.41.39-2.56.61-3.02.92,2.93.89,12.34,1.37,15.54-.19,3.5-.47-1.47-.88.45l.71,4.75c-.89.48-1.47,9.34-2,1.07l-.03,7.46c-.5,4.37-.69,10.41-.32,14.12-.19,3.52.98,8.87.29,5.82l.55,11.69-.22.11c-.11,11.53,1.47,23.74-.13,36.91.23,3.89.5,7.89.25,14.38l-.76,1.26c.27,4.99-.77,14.98.04,17.13-2.07,5.35-.45,24.17-.82,32.94l1,.31c-.05,6.04.23,11.84.63,19.32l.88-.47c.73,6.46-.63,16.59-.54,26.81-.33-.69-.25-3.28-.05-5.11-2,12.19,1.46,25.72,0,36.79.33,2.76.22,4.77-.01,6.7,0-.28-.01-.48-.04-.67l-.02,1.12c-.15,1.21-.33,2.47-.47,3.82.22-1.14.39-2.26.47-3.21.02,2.11.13,5.35.35,8.51l-.95,1.35.02.72c-.35,3.09.45,2.5,1.17.85.15,1.59.34,3.05.57,4.18-1.53,2.52.51,8.31-1.12,11.72.79,2.14.6,15.9,2.28,17.59-.22.11-.33,1.04-.34-.67-.19,3.52-.39,7.04.09,10.2l-1.2,1.5,1.62,7.68c-.74,4.68-1.17,6.61-2.1,1.97,1.43,11.22.54,9.1,1.96,18.63l-.78-.46c.03,3.42,1.08,8.87.43,10.91-1.48,7.63-.21,37.71-1.58,57.28,2.29-3.8-1.03,9.08.75,9.86-.54,1.16-.85,3.87-1.32.71.54,10-.86,15,.64,21.89-.54,1.14-.8-2.12-1.12-1.12.12.8.47,3.18.15,4.21-.32,1.02-.46-1.45-.69-3.04.09,10.2,1.78,11.22,3.34,11.98-.75,5.16-.64,7.73.4,11.48-.52,1.8-1.06,4.78-1.24-1.54-.08,3.56-.75,21.77.51,22.13-.33,1.12-.1,4.99.05,5.92-.08,7.99-.19,8.7-.07,16.55l.2-2.17c1.52,3.11.34,6.53.53,12.86l-.16-.19c-1.1,14.54.52,6.27-.72,20.6l.95-.77c2.03,1.35-1.2,12.69-.43,21.01l.54-3.01c.7,4.54-2.77,12.69-3.02,17.27-.18.99-.28-1.59-.41-2.97-1.2,11.95,1.24,1.56,1.53,10.45-.67,1.64-1.7-2.11-1.82,3.88-.54,2.99,2.16,17.35.89,25.54.51-1.8,1.03-3.59,1.41.53.19,6.34-1.94,17.13-.32,22.86-.14.8-.27,1.11-.4,1.14.41,4.84.69,15.73,1.58,18.65-3.28,4.47,1.59,30.09-1.42,30.01l.16,14.9-.31-.4c-.19,9.53.53,12.9,1.26,16.24-.21,2.18-.49.59-.65.42-.6,13.9-.47,15.3,1.04,26.95l-.98,1.22c.58,3.16-1.52,20.13-.36,33.75-.11-.14-.3-.41-.44-1.49,1.17,15.33-2.66,36.78.9,42.37l.89,10.12c.26-13.12,1.55,1.93,2.14-3.45.22,5.15-1.06,13.33-1.25,6.98l.17-.97c-1.86-2.32-.63,16.3-1.9,15.95.13,25.79-.85,50.97-.87,75.1l1.44-2.8-.07,8.42c-.33,2.21-1.12,3.01-1.07-3.04-.81,3.18.71,10.08,1.02,10.25-.56,11.78-1.69-4.56-1.72-.97l.12,4.9.16-1.11c.6,3.97,1.22,4.32,1.17,11.53-.27,4.56-.89,2.35-.93,4.14-.11,0-.15.62-.04,2.76l-.11,10.64,1.13-4.28c.57,4.7-.04,9.98,1.25,5.08-1.98,7.22-.64,39.6-1.23,44.02.85,6.59.85,13.09.76,21.13.23-2,1.51-3.25,1.37,3.73-2.02-1.9-1.62,6.46-2.14,13.05h2.25l-.55,3.04.88-3.04h4.06c.02-1.62.01-3.56-.05-6.11.03,0,.05,0,.08.04l.02.07v-.07c.19.03.42.1.58.21.16.07.32.17.49.24l-1.22,6.8.87,1.35,2.07-11.5-.99.52c-.29.1-.67-.07-1.04-.28-.33-.17-.72-.35-1.07-.28-.2-2.14-.33-4.53-.32-7.05.02-.1.03-.21.05-.34.5,2.45.95-6.91,1.51-2.35-.23-3.52-.38-5.77-.52-7.22,1.03-13.78.69-27.55.37-40.99-.07-2.69-.12-5.35-.18-7.98.03-.1.03-.21.07-.31-.04-.1-.05-.07-.08-.17-.24-11.98-.26-23.51.87-35.05l.05-.38-.05-.45c-.12-1.21-.38-1.76-.58-2.04h0c-.03-3.97-.99-9.91.41-7.15-.63-1.41-.85-3.01-.92-4.77l1.45-3.83-.3-1.07c-.34-1.21-.69-1.73-1.03-2.04.06-2.59,0-5.46-.61-8.39l.94.52c-.15-1.31-.6-3.97-.58-6.39l1.23,4.32c-1.04-6.63.88-12.81.3-19.16.06,13.33-1.12,3.01-1.79,8.67-.15-1.86-.21-3.35-.25-4.7.1-1.73.16-3.42.22-5.11.58-4.56,2.12-5.42,1.98-16.58-.08,2.9-.62,7.18-.99,3.94.05-.97.12-2.04.19-3.08.27-.03.54-.34.79-.86.27-.62.51-1.52.64-3.25l.27-3.8-1.05,2.35c-.05.11-.09.14-.13.24.1-.76.2-1.42.32-1.9-.22-12.19-.96,1.9-1.55-3.31.96-3.52-.05-5.39-.61-9.15.15-.72.27-1.45.38-2.21h.33c.08-1.73.1-3.11.08-4.18.02-.14.03-.31.04-.45.4-4.9.65-7.84,3.17-6.7l.5.21.06-1.49c.19-4.56-.69-6.08-1.08-6.49-.52-.59-1.1-.52-1.61-.04.11-6.8-.05-12.71-1.43-18.58.19-1.31.25-3.38.26-6.11.36,1.52.54,3.32-.06,5.94.32.38.6,1.93.9,2.31.65-4.52.13-11.36.12-14.5-.04,1.21-.08,2.66-.22,3.42l-.82-7.84c-.02-1.8-.02-3.66-.02-5.53.15.31.29,1.07.43,1.87-.06-1.59-.25-2.9-.41-4.53.01-1.1.04-2.17.07-3.28.68.65,1.32,1.1,1.65,5.77l-.88-12.09c.35-.76.92-6.18,1.21-4.61.44-6.68-1.53-16.39-.93-25.24-.15-.47-.3-1.38-.41-3.26.16-8.32,1.11-15.71.04-25.55l1.39-5.63c-.33-7.73-1.75,7.59-2.28-5.28-.44-9.1,1.18-3.4,1.56-6.59-.7-4.53-2.12-12.41-.99-20.77.26,2.76.05,4.92.16,7.53l.76-6.37c1.27,7.7.83,13.26,1.91,7.27-2.68-.89-.27-24.79-2.95-25.69l.57-4.2c-.03,1.21.13,1.4.11,2.59,1.03-6.63-.86-6.6-1.42-11.91,0-.35,0-.66,0-.99,1.13-.85,1.28-5.09,1.41-8.58.11-2.9.22-5.87.72-6.95.1-.23.22-.36.35-.45.15,2.35.55,3.09.87,3.33.55.38,1.23-.67,1.82-2.99l.11-.4-.02-7.63-.48-.02c-.26-.02-.67-.76-1.03-1.4-.63-1.14-1.35-2.42-2.01-1.45-.31.45-.54,1.24-.71,2.5l-.61-3.45.02.04c-.03-.14-.07-.36-.11-.52l-.56-3.21-.05-.04c-.26-1.5-.5-3.02-.64-4.02.38-3.18.29,1.59.62.76l-.65-6.91c.69-2.81,1.37,2.92,1.27,7.7,2.67-6.46-.68-5.73.89-19.68l.34,6.53c1.52-4.21.97-9.29,1.92-16.68-.5,1.75-2.39,14.78-3.06,7.27.2-2.11.3-4.9-.25-8.94.96-.05.72-3.99.67-8.95l1.26.35c-.36-5.35-1-4.94-1.57-8.08.12-5.94,1.1-7.2,1.93-8.6.2-9.53-1.56,6.6-1.81-4.7.2-3.21.2-6.01.12-8.86l1.37-.86-.48-1.85c-.53-2.02-.94-3.68-1.3-5.16-.15-1.92-.32-3.99-.5-6.27.44-5.58.78.95,1.13-1.04l-1-4.92c.03-1.21.34-.81.49-.62-.27-2.85-.76-1.99-1.16-3.26.06-.9.13-1.78.22-2.83.38.38.97.52,1.38-1.67l.2-1.09-.33-.76c-.66-1.52-1.27-2.95-1.7-4.89.51-4.28,1.07-9.53.25-13.81.35-1.98.76.95,1.26.35-.55-5.9-.74-8.19-.99-10.44.39-.4.72-.95.92-1.81.68-2.88.13-7.29-.44-11.93-.19-1.47-.36-2.97-.51-4.49.09-.81.18-1.74.25-2.85l-.27,2.61c-.09-.9-.16-1.76-.21-2.62.03-.16.05-.12.08-.35-.03.09-.06.05-.08.12-.1-1.85-.11-3.55.13-4.87.27-1.53.86-2.57,1.77-3.19l1.24-.86-1.12-1.85c-.55-.92-.99-3.01-1.35-5.41l.33-4.95c-.36-2.44-.76-4.8-1.18-7.2l.44-1.23-.55-.98c-.22-.38-.32-.85-.46-1.28-.15-.93-.32-1.86-.47-2.85-.06-2.25.29-4.96.88-8.48,0-.05.02-.12.03-.17.25,3.06.54,6.41.43,9.81.13-4.07.72-3.18.92-2.14l-.89-10.53c.25-1.68.41-3.28.43-4.8.17-1.24.2-3.14.44-5.23-1.97,2.74-1.32-10.41-1.92-16.09.67-.36,1.34,1,1.18,7.94,1.41-7.23-1.87-9.67-1.17-16.24.03-.04.08-.04.11-.07,0,.95,0,1.71.26,2.19-.09-.62-.16-1.4-.2-2.23.01-.02.02-.02.03-.04l.38-.45-.08-1.18c-.07-1.12-.23-1.88-.39-2.59.07-3.35.37-6.22.71-4.87v1.69c.06-2.04.08-4.51.08-7.13.02-.04.03-.05.04-.08,1.76-3.35,3.43-6.53,3.57-9.71.05-1.02-.06-1.97-.3-2.76l-.34-1.09-.86,2.4c-.04-2.78.69-5.99,1.37-8.91.72-3.18,1.35-5.94.98-8.27-.3-1.93-1.11-2.4-1.82-2.59l-.97.4c.83-5.34.71-7.11.43-9.07-.16-1.12-.36-2.4.46-8.04l.62.36-.12-2.09c-.11-1.93.08-3.57.27-5.16.2-1.71.41-3.47.13-5.23-.25-1.49-.8-2.61-1.77-3.61l-.16-.16c-.05-2.87,0-4.56.08-7.06.05-1.5.11-3.26.15-5.72l.02-.59-.14-.46c-.12-.38-.36-2.09-.29-3.21,0-.26.03-.41.07-.48l1.42-2.47-1.64-.22c-.2-.04-.35-.33-.48-.72.03-3.02.13-7.16,0-8.82l-.51,4.46c0-.28-.01-.57-.02-.85,0-.91,0-1.81-.02-2.59.02-2.57.12-5.3.23-7.44.06.12.12.23.18.31.65.83,1.33-.45,1.94-1.57.12-.23.24-.45.36-.67l.71-1.24-.71-1.26c-.97-1.76-1.44-3.1-1.51-4.35-.06-1.16.2-2.73.84-4.94l.62-2.18-.96-.21c-.75-.19-1.44-.41-2.09-.71-.65-1.56-1.62-3.94-2.59-6.86.04-.22.08-.43.08-.62.02-.4.02-.79,0-1.17.36.45.81.74,1.37.16l.85-.9-.71-1.64c-1.17-2.66-1.32-4.83-1.22-7.51,1.2,4.89,2.34,9.98,3,13.62.51-4.54.76-1.26.7-8.06.61-2.4.93,3.71.96,5.71l.39-15.85c-.92.48-1.2-5.42-1.66-8.96l1.26-1.33-1.55-.33c-.14-.6-.29-1-.49-.9l.06.79-.36-.07c-.47-.12-.62-.43-.64-.54-.09-.53.34-2.52.58-3.59.44.72.83,1.43,1,1.33-.17-.54-.33-2.14-.45-4.01.16-1.02.22-1.97.02-2.81-.05-.16-.12-.17-.17-.29-.08-2.17-.08-4.14.06-4.58l.71,4.77c.5-6.25-1.75-10.2-.49-17.73.09-2.59,1.71-7.73.92-8.18-.28.77-.68,1.4-1.14,1.95.03-2.35.05-4.7.06-6.95.01-2.42.03-4.78.06-7.08.11-.48.19-1.36.22-2.89-.06.8-.13,1.36-.2,1.88.11-7.22.39-13.26,1.33-15.69.33-.53.55-1.28.64-2.21.19-2-.24-4.18-.66-6.3-.13-.68-.27-1.36-.38-2.02l2.07.6-.82-2.76c-1.4-4.71-1.61-6.35-1.88-8.44-.17-1.35-.36-2.81-.85-5.16,1.13.48,1.98-1.79,2.99-5.04Zm-6.3-219.32c-.09-1.21-.13-2.49-.09-3.9.21-.85.43-1.64.65-2.38.06-.23.12-.43.18-.64-.09,2.3-.31,4.58-.73,6.92Zm.55,131.9c.72,5.28,1.25,9.94.15,14.14l-.22.83.21.88c.26,1.12.34,2.04.3,2.9l-.29-1.07-.21,3.05c-.02.31-.02.64-.03.93l-.14.52c.17-5.59.15-13.98.23-22.18Zm-4.95,8.53l.04.19c-.37,4.14-.22,2.68-.04-.19Zm1.16,910.73l.25-1.65c.28,3.73.03,2.69-.25,1.65Zm7.72-34.05h0,0Zm1.34-291.46c.15-3.61.42-4.16.48-4.25.19-.28.69.65,1.07,1.31.34.62.68,1.24,1.04,1.57v2.83s-.85-.54-.85-.54c-.73-.46-1.33-.22-1.8.68l.07-1.61Zm-1.29-36.39c.2,1.85.82,5.52.25,6.87-1.09-2.11-.57-3.74-.25-6.87Zm-.69-140.16c.13.59.25,1.17.4,1.68-.23.28-.4.67-.59,1.04l.19-2.71Zm-1.89-381.22c.15.65.3,1.29.47,1.85-.32.5-.54,1.12-.67,1.87-.29,1.53-.12,3.19.03,4.5.16,1.47.22,2.43-.11,3.3v-.04c-.08.1-.12.31-.17.47-.15.26-.33.53-.6.81l-1.15,1.21,1.11,1.49c.09.12.16.34.23.59.05,3.62.54,8.53.84,11.55-1.67.02-3.41-8.46-4.18-20.03-.42-9.18,1.07-3.97.83-5.58.02-1.14,0-2-.02-2.99l.6-.43c-.01.69.08,1.17.16,1.49.48,1.71,1.72.88,2.63-.05Zm-3.44-4.25c.25-.62.51-1.3.75-1.88.14-.33.26-.69.41-1.04-.05.71.01,1.54.05,2.35l-1.2.87c0-.11-.01-.17-.02-.29Zm-1.63-22.81c1.06-5.7,2.11-.26,2.87-1.52.4,7.49-.67,11.5-.63,16.57l.5-6.25c.2,1.34.36,3.54.41,5.68-.14.53-.28,1.07-.4,1.64-.32.85-.68,1.71-1.02,2.56-.12.31-.22.57-.33.85-.71-7.46-2.33-8.65-1.41-19.53Zm.53,186.25l.65-2.04-.74-8.19c.72,2.18,1.8,6.03,2.89,10.32v.05c-.21,3.07-.42,6.18.29,9.46-.29-.36-.64-.6-1.02,0l-.27.47c-.82-3.11-1.51-6.53-1.8-10.08Zm5.67,707.27l-.19.48c-.24-1.73-.49-3.56-.67-5.56.19.31.38.65.58.93.12.14.27.34.41.55l.1,2.93c-.06.21-.13.38-.22.65Zm.34,2.69l.12,3.52c-.08-1.07-.19-2.14-.33-3.21l.2-.31Zm.17,23.27c.01,3.42.04,6.8.11,10.15-.54,2.9-.14,12.64-.46,9.81-.65,3.25-1.52-5.7-1.34-10.43.03-2.9.98-5.35,1.69-9.53Zm-1.66-36.46c-.01-1.8.03-3.69.2-5.84.21.52.45,2,.66,3.52l-.87,2.32Zm1.83,92.43c-.25-.86-.58-2.1-1.1-5.07l.72-2.14c-.66-3.21-1.01-3.49-1.22-10.64.64,5.87,1.1-4.62,1.95,1.97.05-.45.05-.83.09-1.28,0,5.7-.11,11.43-.44,17.16Zm.78-80.49c-.03.38-.04.76-.08,1.1-.08-.31-.15-.59-.2-.9.11-.07.22-.21.29-.21Zm-.23-6.29c-.3-.83-.71-1.45-1.12-2-.23-.31-.55-.72-.75-1.11l.62-1.65c.28,1.97.26,1.28.09-.24l1-2.62c.04,2.38.05,5.08.15,7.63Zm1.34-98.86c.13-.52.85-1.35,1.38-.72.11.1.41.45.47,1.93-1.24-.31-2.02.41-2.54,1.73l.69-2.93Zm-.89-1.24v.31l-.11,4.83s-.01.07-.02.14l-.32-5.84.45.56Zm-.06-199.17l-.09-5.72.69,3.96c-.43,1.59-.56,3.86-.66,6.18l-.4-4.99c.05-2.38.51-1.79.46.57Zm-.18,6.91c-.12,2.97-.25,4.54-.53,5.11,0-.24-.01-.41,0-.67.13-2.26.33-3.94.54-4.44Zm-.33,176.58c-.3-.62-.55-1.8-.71-3.66.29,1.24.53,2.45.71,3.66Zm-.61-8.11c-.04,1-.1,1.8-.19,2.17l-.02.07c-.01-.38-.05-.59-.05-.97.09-.72.17-1.07.26-1.28Zm-.24,24.48l1.23,4.9c-.21.86-.38,1.86-.5,2.93-.53-.9-1.12-.93-.73-7.84Zm-.05,87.05c.22-.21.41-.35.58-.38.06.45.13.93.16,1.52l-.82,2.18c-.05-1.07-.11-2.14-.11-3.25.05-.04.12-.04.17-.07Zm.13-406.07l-.46-.24-.12,1.33c-.03.29-.04.52-.07.8-.14-.8-.09-2.05.07-3.65.18.62.37,1.24.57,1.76Zm-.14-41.66c.46,3.75.95,7.63.57,9.25-.09.36-.26.62-.46.83-.19-1.36-.44-3.02-.81-5.49l.59-5.56c.03.33.08.65.12.97Zm-.21-1.74c-.87,2.61-1.85-3.71-2.67-9.36-.45,2.02-.86,3.74-1.04,4.9l-.68-10.17c.21-1.22.64-.21,1.17,1.47l-.3-1.86c.47-3.64,1.2-1.74,1.9.85l-.78,3.66c.58,1.92,1.22,3.71,1.81,4.25.12,2.07.34,4.18.6,6.27Zm-2.69-60.88c.02.05.02.05.04.1-.02.02-.02.07-.02.11,0-.09-.01-.12-.02-.21Zm1.66,43.37c-.08-1.74-.05-3.71.2-5.89.31,1.38.16,3.5-.2,5.89Zm.62-42.14c.13.22.26.5.37,1.04-.16,1-.21,2.16-.18,3.42-.16,1.26-.39,2.59-.61,3.92-.24,1.4-.49,2.97-.68,4.58-.4-3.23-.73-6.84-.96-10.91l.37-.66c.18-.29.34-.55.51-.83.37,0,.75-.28,1.17-.55Zm3.47-70.58c.6.19.86.62.91.93.13.83-.47,3.49-.91,5.44-.94,4.09-2.1,9.2-1.23,13.9l.2,1.04c-.48,1.12-1.06,2.26-1.62,3.33-.05-11.17-.49-24.02-1.73-25.26.16-.08,1.08.68,1.73,1.36l-.07.41.32-.12c.16.17.31.36.38.48l-.16-.59,2.18-.93Zm-.9-32.13c.55.67.75,1.28.82,1.69.1.62,0,1.55-.17,2.98-.16,1.28-.33,2.8-.36,4.58l-.07-.04-.16,1.05c-1.08,7.17-.94,9.36-.63,11.48.12.83.21,1.76-.11,4.33-.71-3.11-.64-5.2-.44-7.8l-2.47,3.01,2.85,5.37c-.15,1.09-.35,2.42-.65,4.13l-.21,1.19-5.18-18.37c1.44,1.78,4.88-5.01,5.7,4.31.2-2.69.44-5.99-.07-11.64-.2,1.83-2.08,4.56-2.22,2.07,1.56-6.66.92-4.94,2.14-12.64.01,1.33.03,2.8.09,4.78l.15,4.68.98-5.18Zm-3.63-9.48c.33.68,2.14-.28,2.43,1.17-.03,1.12-.04,2.32-.03,3.65-.45,2.14-2.47-.68-2.4-4.82Zm2.27-10.06c.03,1.41.17,2.86.36,3.8-.04,2.12-.09,3.71-.13,5.07-.03.81-.05,1.56-.06,2.28l-2.19-10.62c.32,2.14,1.31,1.14,2.02-.53Zm.23-24.97l-.14-2.31c.02.07.04.14.05.21.21,2.05.29,3.57.4,4.61-.08-.19-.22-.81-.32-2.5Zm.27-8.46c-.34,1.53-.51,2.85-.52,4.13l-.26-4.37c.26.09.52.17.78.24Zm-.89.07l-.35,8.46c-.02.41-.05,1.04-.1,1.81-.08,1.44-.14,2.87-.2,4.28-.92-3.97-2.25-6.73-2.17-14.24.39,1.21,2.12,2.88,2.82-.31Zm-1.98-42.06c.19-.99.52-1,.9-.66-.45,2.02-.87,4.21-.57,6.1.06.38.13.65.23.9-.16.26-.27.31-.38.36-.15-2.16-.23-4.4-.19-6.7Zm1.27,8.55c.22-.36.45-.74.71-1.04l.42-.43,1.13,14.1c-.93.48-2.4-4.66-3.11-11.65.31-.23.6-.59.85-.98Zm.05-44.54c-.01,2.59-.03,5.26-.07,7.98-1.95,1.43-4.41,1.26-5.19-.68.1-.91,1.45-13.62,2.19-16.59.94-3.37,2.15,2.49,3.13,3.35-.03,1.93-.04,3.87-.06,5.94Zm.09-8.58c-.12-.53-.21-1.07-.27-1.41.09-.76.21-1,.35-1.09-.02.86-.06,1.61-.08,2.5Zm1.62-28.68l-.93-.28.03,1.69c.02,1.62.37,3.38.7,5.08.27,1.36.65,3.25.58,4.04-.01.05-.02.23-.25.62-.82,2.13-1.26,5.65-1.5,10.03-.46-2.92.35-9.2-.69-1.5-.38-5.8.29-6.18.22-12.97-.86,2.16-2.95-6.09-3.34-11.89.34.33.79-.97.99-1.61.05-4.68.17-8.43.32-12.03l.73,2.86c1.35,5.26,1.63,7.46,1.88,9.39.23,1.81.43,3.42,1.27,6.56Zm-2.43-17.94l-1.36-3.38c.18-4.59.34-9.07.34-14.76.33-1.02.72-6.35,1.3-4.08-.23-1.61-.69-3.05-.72-6.47.11-.67.2-1,.27-1.28.16,1.31.34,2.68.56,4.04.02.26.06.5.1.64.4,2.37.92,4.58,1.74,5.92-.27,2.69-.47,5.56-.02,8.34l-2.72,1.68,3.65,8.65c-1.13,3.47-1.73,4.25-3.14.71Z"/>
        <polygon class="cls-2" points="147.54 578.42 148.1 582.22 148.36 581.06 147.54 578.42"/>
        <polygon class="cls-2" points="151.84 447.14 151.81 447.5 151.88 447.43 151.84 447.14"/>
      </g>
      <path class="cls-3" d="m4.08,948.92s0-.03.01-.07t-.01-.04v.1Z"/>
      <path class="cls-3" d="m3.41,948.27c.25.1.47.31.67.55-.03-1.55-.24-.69-.67-.55Z"/>
      <path class="cls-1" d="m157.53,938.12c-1.04,5.42-3.37-9.67-3.83,3.49l-1.54-9.77c.13-1.31.18-3.14.19-5.46.36,1.52.54,3.32-.06,5.94.31.38.6,1.93.9,2.31.65-4.52.13-11.36.12-14.5-.03,1.21-.08,2.66-.21,3.42l-.83-7.84c-.02-1.8-.02-3.66-.02-5.53.15.31.29,1.07.43,1.87-.06-1.59-.25-2.9-.41-4.53.01-1.1.04-2.17.07-3.28.68.65,1.33,1.1,1.65,5.77l-.87-12.09c.34-.76.92-6.18,1.21-4.61.44-6.68-1.52-16.39-.93-25.24-.15-.47-.29-1.38-.41-3.26.06-3.21.25-6.28.38-9.41l.29-.21c-.09-.36-.16-.71-.25-1.05.17-4.59.22-9.34-.39-14.88l1.39-5.63c-.32-7.68-1.72,7.34-2.26-5.02.25.33.55.5.78-.93-.3-.76-.59-1.57-.86-2.43.08-4.47,1.31-.76,1.63-3.49-.7-4.53-2.13-12.41-1-20.77.26,2.76.05,4.92.16,7.53l.77-6.37c1.27,7.7.83,13.26,1.91,7.27-2.68-.89-.27-24.79-2.95-25.69l.57-4.2c-.02,1.21.13,1.4.11,2.59,1.03-6.63-.85-6.6-1.42-11.91,0-.23,0-.45,0-.66.04-.17.09-.35.14-.52.26-.29.46-.76.62-1.38.25-.4.54-.74.89-1.02-.18-.33-.36-.8-.51-1.33.15-1.47-.72-23.57-.72-23.57l.02.04c-.03-.14-.07-.36-.11-.52l-.56-3.21-.05-.04c-.26-1.5-.49-3.02-.63-4.02.39-3.18.28,1.59.62.76l-.29-3.09c.17-1.17.33-2.31.46-3.42.31,1.57.51,4.56.45,7.31,2.67-6.46-.68-5.73.89-19.68l.34,6.53c1.53-4.21.97-9.29,1.92-16.68-.5,1.75-2.39,14.78-3.06,7.27.2-2.11.3-4.9-.24-8.94.96-.05.72-3.99.66-8.95l1.26.35c-.37-5.35-1.01-4.94-1.58-8.08.12-5.94,1.1-7.2,1.93-8.6.17-8.37-1.16,3.04-1.66-1.69,1.38-3.05,2.49-6.08,1.89-8.25l-.96,3.02c-.38-2.31-.22-4.83.14-7.32l.27-.17-.16-.6c1-6.27,3.05-12.1.5-13.02l-1.7.77c2.25-14.4-.66-6.11,1.31-20.7l.28.17c-.33-6.37,1.79-9.81-.94-12.92l-.37,2.18c-.21-7.87-.01-8.6.13-16.63-.13-.46-.28-1.61-.35-2.78,0-.4-.01-.79-.03-1.21.01-.83.09-1.57.29-1.97-.17-.04-.31-.19-.44-.41-.15-1.56-.35-3.21-.56-4.9-.12-.98-.23-2-.35-3.02,0-1.17,0-2.4.03-3.62.02-.22.04-.43.06-.69l-.05.48c.06-2.74.18-5.4.28-7.39.09-.17.21-.35.32-.52.43,3.26,1.24.9,2.02-.64-.13-.28-.24-.53-.36-.79l.44-.31-1.12-1.85c-.08-.14-.16-.36-.25-.57-.5-2.24-.31-4.56.58-8.01-.48-.14-.97-.29-1.44-.48l.08-1.29c-.36-2.44-.76-4.8-1.17-7.2l.43-1.23-.55-.98s-.02-.04-.03-.07v-12.58c0-.05.01-.09.02-.12.26,3.06.54,6.41.43,9.81.13-4.07.72-3.18.92-2.14l-.89-10.53c.24-1.68.41-3.28.44-4.8.16-1.24.2-3.14.44-5.23-.68.95-1.04-.02-1.26-1.92.44-3.01,1.55-6.58.58-6.59.6-3.35.17-5.66-.34-7.89.47-7.65.54-16.02.58-23.74,1.55-2.98,2.92-5.83,3.05-8.7.04-1.02-.06-1.97-.3-2.76l-.34-1.09-.86,2.4c-.03-2.78.69-5.99,1.37-8.91.72-3.18,1.35-5.94.98-8.27-.3-1.93-1.11-2.4-1.82-2.59l-.43.17c-.08-.53-.17-1.09-.27-1.65.27-2.02.36-3.4.36-4.51l.4.14c-.19-.69-.34-1.31-.48-1.88-.03-.31-.07-.62-.12-.93-.16-1.12-.35-2.4.46-8.04l.62.36-.12-2.09c-.11-1.93.09-3.57.28-5.16.2-1.71.41-3.47.12-5.23-.25-1.49-.79-2.61-1.77-3.61l-.17-.16c-.02-1.04-.02-1.9-.01-2.73l.69-.47c-.85-3.16-.51-6.68-.18-10.18-.17-.23-.33-.52-.48-.83-.12-.65-.26-1.92-.21-2.83.01-.26.03-.41.07-.48l1.42-2.47-1.65-.22c-.2-.04-.34-.33-.48-.72.02-3.02.12-7.16,0-8.82l-.5,4.46c0-.28-.02-.57-.02-.85.01-.91.01-1.81-.02-2.59.02-2.57.13-5.3.23-7.44.06.12.12.23.19.31.65.83,1.32-.45,1.94-1.57.11-.23.23-.45.36-.67l.71-1.24-.71-1.26c-.97-1.76-1.44-3.1-1.5-4.35-.07-1.16.2-2.73.83-4.94l.62-2.18-.96-.21c-.75-.19-1.44-.41-2.09-.71-.04-.07-.08-.19-.12-.28v-9.13c.34,1.62.66,3.18.9,4.49.51-4.54.76-1.26.7-8.06.61-2.4.93,3.71.96,5.71l.39-15.85c-.92.48-1.2-5.42-1.66-8.96l1.26-1.33-1.55-.33c-.14-.6-.29-1-.49-.9l.06.79-.36-.07c-.09-.02-.16-.05-.23-.09v-3.26c.06-.29.12-.57.17-.77.44.72.82,1.43.99,1.33-.16-.54-.32-2.14-.45-4.01.16-1.02.22-1.97.02-2.81-.04-.16-.12-.17-.17-.29-.08-2.17-.08-4.14.06-4.58l.71,4.77c.5-6.25-1.75-10.2-.48-17.73.08-2.59,1.7-7.73.92-8.18-.29.77-.69,1.4-1.14,1.95.02-2.35.05-4.7.06-6.95.01-2.42.04-4.78.06-7.08.11-.48.19-1.36.23-2.89-.06.8-.14,1.36-.21,1.88.11-7.22.39-13.26,1.33-15.69.33-.53.54-1.28.63-2.21.19-2-.25-4.18-.66-6.3-.14-.68-.27-1.36-.38-2.02l2.07.6-.83-2.76c-1.4-4.71-1.61-6.35-1.87-8.44-.17-1.35-.37-2.81-.85-5.16,1.13.48,1.98-1.79,2.99-5.04l.05-.14,3.37,5.99c0-2.04.02-4.04.03-6.08-1.32.33-2.54.57-3.4.05l.32-.97-2.85-6.75,2.22-1.38-.56-1.88c-.61-2.02-.54-4.26-.29-6.79.09-.03.17-.12.23-.17.08-.07.15-.14.22-.16l3.89-.97-3.84-1.93c-.1-.03-.19-.1-.29-.17l-.11-7.18-.66,6.15c-.74-1.45-1.17-3.92-1.51-6.58v-11.86c.05-.4.07-1.38.05-3.35-.02-.05-.03-.14-.05-.19v-2.97c.09-.1.18-.21.3-.29l.91-.76-.72-1.78c-.17-.41-.33-.92-.48-1.47v-51.4c.36-.83.74-1.56,1.16-1.69l-1.16-4.33v-.62c.7-1.17,1.15,3.07,1.47-.28-.64-2.37-.78-8.19-1.47-12.22v-1.9c.07-1.5.09-2.95,0-4.32V6.47h-1.65c-.1-1.4-.2-2.76-.3-4.11l-.96.68c.09,1.14.17,2.28.26,3.43h-7.67c.93-2-1.35-7.39-2.85-6.34.86,1.57.15,4.04-.33,6.34H5.84v.66c-.22-1.19-.65-2.5-.99-3.97-1.79,28.42,1.74,57.03-.9,84.79.22,2.33,1.1.97,1.68.07-1.43,3.83-.69,5.23.21,6.49v6.82l-2.03,5.52c.71,2.57,1.42,1.99,2.03,1.45v25.19c-.44,7.56-.74,14.74,0,21.34v2.69c-1.18,3.16-2.58-1.38-2.97,4.21,2.61-5.99,2.33,6.07,2.97,10.93v4.35c-1.8,6.94-.27,18.03-4.79,15.88-.29,7.15,2.26,5.87,2.73,3.8-.18,8.29-.2,14.99,1.48,21.74-1.22,4.58,1.4,37.88-2.56,45.37,2.57-5.11,1.34.36,2.47,5.16l.67-1.29v12.45c-.22.48-.43,1.23-.58,2.52-.06,3.49.19,5.39.58,6.85v3.51c-.42-.05-.82,1.02-1.14,4.44.2.05.67.86,1.14,2.04v3.74c-.45-.16-.96.57-1.27,1.64l-.15,8.68,1.42-1.45v47.39c-.3,9.39-.51,18.89-.43,28.45-2.53-.33-.11,18.8-3.82,16.46l.35-1.02c-.21-3.74-1.14-2.49-1.81.23,0,1.95,0,3.9.02,5.87,1.28.07,3.12,8.77,3.56-2.45l1.77,10.39c.13.1.25.23.36.33v68.75c-.39,3.78-.64,6.63-.25,7.75l-1.95,1.28c1.05,4.18,1.76,7.08,2.19,9.68v16.4c-.04.53-.09,1.07-.13,1.64-.31-.17-.88-1.83-1.28.45.5,1.19,1,2.4,1.42,3.85v27.99c-2.44,1.35-.75,9.7,0,17.47v9.29c-.33,1.76-.96,3.16-2.06,3.94.98,1.64,1.58,5.8,2.06,10.03v28.56c-.27,1.93-.45,3.73-.36,5.29.12.64.24,1.09.36,1.47v44.16c-1.95,3.85-4.04,7.91-3.22,10.67l1.09-3.09c1.55,8.56-4.91,20.25-.85,21.64l1.89-.81c-2.5,14.74.74,6.25-1.45,21.2l-.31-.19c.37,6.53-2,10.05,1.04,13.25l.41-2.25c.24,8.1.02,8.8-.14,17.04.29.97.75,4.94.11,6.1.88.14,1.28,2.52,1.43,5.7v8.06c-.12,3.97-.36,7.63-.42,9.05-.37-6.54-1.44-3.44-2.47-1.59,2.06,3.83,2.27,6.49.78,11.81.71.17,1.42.38,2.11.67v34.79c-.04.05-.08.1-.12.16.05,0,.08.05.12.07v7.89c-.32,1.52-.46,2.68,0,2.86v21.36c-.3,15.89.2,31.65-1.79,36.93-1.29,2.1.81,7.7.86,11.22l-1.56-.45c2.12,7.32,1.65,7.94,2.49,12.67v3.97c-.99-.8-1.73,1.14-2.76,4.52l2.76,6.77v1.49l-1.93,1.21c.94,3.25.57,6.83.19,10.43.81.97,1.35,2.83,1.75,4.97v24.48s-.07.07-.11.1c.04.11.07.24.11.35v193.33h13.39c.25,2.52.74,1.76,1.41,0h109.23s11.79.14,13.05,0h4.15l-.22,1.17.34-1.17h3.67v-1.87h.92c0-.17,0-.41,0-.59.08-.03.15-.03.22-.07l-.33,1.83.87,1.35.65-3.62c.25-.1.49-.17.73-.28-.04-.93-.11-1.83-.19-2.73l.87-4.87-.99.52c-.13.04-.28,0-.43-.04-.17-1-.36-2-.59-3.01.44-1.79.31-13.67.23-27.62.13-6.15.09-12.26-.02-18.34.08-14.81.51-28.24,2.01-31.32-2.3,4.94-1.2-.38-2.22-5.08l-.26.56c.11-5.77.38-11.47.94-17.16l.05-.38-.05-.45c-.12-1.21-.38-1.76-.57-2.04h-.01c0-1.49-.15-3.25-.25-4.73.16-.52.31-1.45.44-2.77.07.11.13.17.22.35-.08-.17-.13-.38-.2-.55.02-.21.05-.38.07-.62-.09-.04-.24-.21-.42-.55-.21-.97-.33-1.97-.37-3.04l1.46-3.83-.31-1.07c-.08-.28-.15-.48-.22-.69l.09-6.52-.96,1.07c-.09-1.41-.25-2.83-.54-4.28l.93.52c-.15-1.31-.6-3.97-.58-6.39l1.22,4.32c-1.04-6.63.88-12.81.31-19.16.05,13.33-1.13,3.01-1.8,8.67-.15-1.86-.21-3.35-.25-4.7.09-1.73.16-3.42.22-5.11.58-4.56,2.12-5.42,1.98-16.58-.08,2.9-.61,7.18-.98,3.94.05-.97.12-2.04.19-3.08.26-.03.54-.34.79-.86.28-.62.51-1.52.64-3.25l.27-3.8-1.06,2.35c-.05.11-.08.14-.13.24.1-.76.2-1.42.32-1.9-.22-12.19-.96,1.9-1.55-3.31.69-2.56.36-4.25-.09-6.39.03-1.65.04-3.31.05-4.97h.15c.08-1.73.1-3.11.09-4.18.01-.14.03-.31.03-.45.4-4.9.65-7.84,3.18-6.7l.5.21.07-1.49c.19-4.56-.7-6.08-1.09-6.49-.51-.59-1.1-.52-1.6-.04v-.24c.16-4.08.49-7.74,2.08-6.67l-.3,1c.34,6.35,2.62-1.86,2.24-7.04Zm-3.99-188.57c.15-3.61.43-4.16.48-4.25.2-.28.69.65,1.07,1.31.34.62.68,1.24,1.04,1.57v2.83s-.85-.54-.85-.54c-.72-.46-1.33-.22-1.8.68l.07-1.61ZM5.84,11.55l-1.06-.1c.57-.59.89-1.21,1.06-1.85v1.95Zm145.79,1031.02l-.49,1.28c-.1-.45-.2-.93-.27-1.41,0-.17-.01-.35-.01-.52v-.79c.05-.04.11-.04.16-.07.08-.1.15-.1.23-.17.08.8.2,1.38.37,1.69Zm-.76-606.5v-.98c.28.62.53.98.77,1.21-.12.4-.29.8-.49,1.14-.09-.41-.17-.86-.28-1.36Zm.81-10.72c.03-.14.04-.24.06-.41,0,.19,0,.41,0,.6l-.07-.19Zm-.74,626.06s-.05-.04-.07-.07v-.93c.16.62.34,1.21.53,1.69-.15-.24-.3-.48-.46-.69Zm.37-121.89c-.01.35-.03.62-.05.9-.04-.04-.08-.1-.12-.17.06-.31.12-.59.17-.72Zm.89-168.28s.04-.14.05-.19c0,.16-.01.26-.02.4-.01-.05-.02-.12-.04-.21Zm.22-8.11l-.08-4.7.69,3.96c-.42,1.59-.56,3.86-.66,6.18l-.4-4.99c.04-1.98.37-1.88.44-.45Zm-.15-39.97c.2,1.85.82,5.52.25,6.87-1.09-2.11-.57-3.74-.25-6.87Zm-.78-193.14c-.16.02-.36.12-.61.31v-3.89c.09-1,.16-2.05.24-3.11.27,1.04.44,3.05.37,6.68Zm2.38-58.67c.6.19.86.62.91.93.13.83-.47,3.49-.91,5.44-.94,4.09-2.1,9.2-1.22,13.9l.19,1.04c-.32.72-.67,1.47-1.03,2.18.08-9.86.25-18.2,1.48-21.72.23-.43.32-1.02.34-1.66l.23-.1Zm-.61-22.88l-.07-.04-.16,1.05c-.37,2.42-.58,4.23-.71,5.7-.09-.64-.16-1.24-.23-1.88.05-1.83.01-4.04-.21-6.85.62.26,1.15-.83,1.76-2.8-.01.08-.02.14-.03.24-.15,1.28-.33,2.8-.36,4.58Zm.53-7.56s0,.01,0,.01l-.43-1.14c.26.43.39.83.43,1.12Zm-2.04-6.35c-.05.21-.12.34-.19.46l-.31-.85.51-.36c0,.26-.01.47,0,.74Zm.1-39.85l-.15-2.31c.02.07.04.14.05.21.21,2.05.29,3.57.4,4.61-.08-.19-.22-.81-.31-2.5Zm.26-8.46c-.34,1.53-.51,2.85-.52,4.13l-.26-4.37c.26.09.52.17.78.24Zm-.89.07l-.19,4.49c-.05-.24-.11-.47-.15-.71v-2.74c.13-.28.25-.6.34-1.04Zm0-34.55l.42-.43,1.13,14.1c-.54.28-1.25-1.36-1.9-4.11v-9.07c.12-.17.22-.36.34-.5Zm1.05-80.77l-.92-.28.02,1.69c.03,1.62.37,3.38.71,5.08.27,1.36.64,3.25.57,4.04,0,.05-.02.23-.25.62-.82,2.13-1.25,5.65-1.5,10.03,0-.07-.02-.14-.02-.21v-28.45c.04.31.09.62.12.91.24,1.81.44,3.42,1.27,6.56Zm.71-18.65c-.81,2.47-1.35,3.54-2.11,2.68v-7.67l2.11,4.99Zm-.9-18.66c-.27,2.69-.48,5.56-.02,8.34l-1.18.72v-12.34c.32,1.29.69,2.45,1.2,3.28ZM139.65,6.47c.01-.14,0-.24.01-.4l.13.4h-.15Zm12.39,1046.94c-.09-.24-.2-.45-.31-.65.1.14.2.17.29.14.01.17.01.34.02.52Zm-.27-7.32l.13-.31c0,.21,0,.48,0,.69-.04-.1-.09-.24-.13-.38Zm3-92.26c.1.1.4.45.46,1.93-.83-.21-1.45.07-1.93.69.03-.62.07-1.24.09-1.93.15-.52.85-1.31,1.38-.69Z"/>
      <path class="cls-3" d="m153.57,868.36l.87,3.14c-.01-4.92-.45-2.74-.87-3.14Z"/>
      <path class="cls-3" d="m153.4,867.78v.29c.05.16.11.24.16.29l-.16-.59Z"/>
      <path class="cls-3" d="m155.36,826.26c.05-2.37-.2-5.14-.16-7.53.21,5.16-1.28,8.17.16,7.53Z"/>
    </g>
  </g>
</svg>