<?xml version="1.0" encoding="UTF-8"?>
<svg xmlns="http://www.w3.org/2000/svg" viewBox="0 0 191.18 164.33">
  <defs>
    <style>
      .cls-1 {
        fill: #fff;
        stroke: #6d9dc5;
        stroke-dasharray: 0 10;
        stroke-linecap: round;
        stroke-linejoin: round;
        stroke-width: 4px;
      }

      .cls-2 {
        fill: #fadfb6;
      }

      .cls-3, .cls-4 {
        fill: #edc798;
      }

      .cls-5 {
        fill: #fecb52;
      }

      .cls-6 {
        fill: #fdfae3;
      }

      .cls-7 {
        fill: #11a37d;
      }

      .cls-8, .cls-9 {
        fill: #3765ae;
      }

      .cls-9 {
        mix-blend-mode: multiply;
        opacity: .17;
      }

      .cls-10 {
        isolation: isolate;
      }

      .cls-11 {
        fill: #8acdcf;
        opacity: .5;
      }

      .cls-4 {
        opacity: .73;
      }
    </style>
  </defs>
  <g class="cls-10">
    <g id="Capa_2" data-name="Capa 2">
      <g id="Capa_1-2" data-name="Capa 1">
        <g>
          <path class="cls-1" d="m157.34,26.35c-1.55-2.47-4.17-4.09-7.08-4.37-.31-.03-.62-.05-.92-.05-1.7,0-3.36.46-4.81,1.31l-23.11-19.08c-1.71-1.41-3.84-2.16-6.02-2.16-.72,0-1.45.08-2.17.25-2.88.68-5.27,2.66-6.47,5.37,0,0-1.28,2.88-1.28,2.9-.21.47-.67,1.49-1.32,2.91l-22.75-5.18c-.7-.16-1.41-.24-2.1-.24-4.05,0-7.75,2.61-9.01,6.63,0,0-.67,2.14-.68,2.17-1.15,3.71-4.17,12.51-7.75,20.7-5.11-4.03-11.53-6.39-18.36-6.39-16.39,0-29.73,13.34-29.73,29.73,0,1.23.08,2.45.23,3.67-1.98.69-3.29,1.15-3.72,1.3l-2.01.72c-4.55,1.62-7.14,6.42-6.01,11.11l18.6,77.25c.97,4.04,4.47,6.97,8.63,7.22l1.79.11c1.32.07,2.76.11,4.4.11,26.42,0,84.86-10.85,91.46-12.09l1.93-.37c3.01-.58,5.47-2.55,6.73-5.17l13.31-1.95c4.71-.69,8.17-4.77,8.08-9.52l-.04-2.1c-.04-1.79-.36-14.82-2.26-26.48,12.15-4.78,21.99-10.28,29.3-16.37l1.59-1.32c3.64-3.03,4.47-8.28,1.95-12.29l-30.39-48.33Z"/>
          <path class="cls-5" d="m58.99,59.56c-1.29.41-2.58.81-3.86,1.22-2.16-6.27-7.64-11.97-14.83-9.35-1.13.42-.64,2.24.5,1.82,6.24-2.28,10.67,2.75,12.51,8.1-8.44,2.68-16.46,5.35-23.07,7.58-1.45-2.36-2.3-5.12-2.3-8.09,0-8.58,6.97-15.55,15.55-15.55s14.84,6.29,15.49,14.27Z"/>
          <path class="cls-7" d="m82.51,23.03l24.84,5.65c-.68,1.34-1.37,2.72-2.08,4.09-4.24-1.34-8.49-2.68-12.72-4.03-1.16-.37-1.66,1.46-.51,1.82,4.11,1.29,8.23,2.6,12.34,3.9-3.12,5.9-6.4,11.47-8.85,14.1l.6.58c-8.17,1.85-18.16,4.65-28.35,7.72,6.73-10.51,12.74-27.84,14.72-33.84Zm2.13,12.46c.32-1.17-1.49-1.67-1.82-.5-1.21,4.38-3.14,8.37-5.79,12.06-.72.99.93,1.94,1.63.95,2.75-3.81,4.74-7.99,5.99-12.51Z"/>
          <path class="cls-7" d="m117.18,19.05l24.43,20.17c-1.26,1.2-2.67,2.53-4.21,3.91-2.8-1.46-5.39-3.25-7.73-5.41-.89-.82-2.23.51-1.33,1.33,2.3,2.13,4.83,3.93,7.56,5.42-6.73,5.95-15.16,12.5-21.54,14.41-1.79-6.36-3.03-10.21-3.07-10.35l-.59-1.77-1.86.15c-.09,0-.19.02-.27.03,3.32-5.1,6.64-10.21,9.97-15.3.66-1.03-.97-1.97-1.63-.95-3.59,5.51-7.18,11.02-10.77,16.54-1.29.18-2.67.41-4.16.69,5.53-8.16,12.39-22.72,15.2-28.88Z"/>
          <path class="cls-7" d="m148.57,39.01l24.95,39.67c-15.88,12.23-42.12,19.01-49.95,20.84-2.38-13.99-5.47-26.8-7.96-36.09,11.36-3.39,27.24-18.64,32.96-24.42Zm14.13,42.07c1-.69.06-2.32-.95-1.63-6.1,4.19-12.7,7.24-19.86,9.17-1.17.32-.67,2.15.5,1.82,7.3-1.97,14.08-5.08,20.32-9.36Zm-17.31-29.07c.82-.9-.51-2.23-1.34-1.33-5.13,5.58-11.05,10.18-17.71,13.79-1.07.58-.11,2.21.95,1.63,6.8-3.68,12.85-8.39,18.1-14.08Zm-10.99,41.89c1.11-.49.15-2.12-.95-1.63-1.84.8-3.79,1.3-5.78,1.51-1.2.12-1.21,2.01,0,1.89,2.35-.24,4.56-.82,6.74-1.77Z"/>
          <path class="cls-3" d="m142.91,129.34l-15.77,2.31c-.37-9.11-1.42-18.46-2.81-27.44,1.96-.45,5.13-1.22,9.07-2.32,1.6,5.33,2.6,10.75,2.98,16.33.08,1.21,1.97,1.22,1.89,0-.4-5.75-1.4-11.34-3.05-16.85,1.35-.39,2.78-.82,4.26-1.29,2.49,9.13,3.24,23.85,3.43,29.27Z"/>
          <path class="cls-2" d="m107.37,51.83c2.78,9.01,14.73,49.7,15.18,84.84-11.11,2.04-66.88,12.04-88.73,11.47l-16.77-69.67c11.52-4.03,69.3-23.96,90.33-26.64Zm9.29,79.66c1-2.47.08-6.44-.22-8.98-.45-4.01-1.23-7.95-2.22-11.86-.3-1.17-2.13-.67-1.82.51,1.23,4.84,2.11,9.72,2.48,14.71.25,3.39-.21,5.57-3.3,7.7-2.25,1.56-5.28,2.09-7.96,2.28-1.2.09-1.21,1.98,0,1.89,4.08-.29,11.25-1.86,13.04-6.26Zm-13.96-69.82c1.19-.15,1.21-2.04,0-1.89-6.22.78-12.34,1.96-18.41,3.56-1.17.3-.67,2.13.51,1.81,5.89-1.55,11.85-2.72,17.9-3.49Zm-64.26,77.68c.76-.19,1.22-.96,1.02-1.72l-2.95-11.57c-.2-.77-.97-1.22-1.73-1.03-.76.2-1.22.97-1.02,1.73l2.96,11.57c.16.64.74,1.07,1.37,1.07.11,0,.24,0,.35-.05Zm-5.91-23.13c.76-.2,1.21-.97,1.02-1.73l-2.96-11.57c-.2-.77-.97-1.22-1.72-1.02-.77.19-1.22.96-1.03,1.72l2.96,11.57c.16.64.74,1.07,1.37,1.07.12,0,.24,0,.36-.04Zm-5.92-23.14c.76-.2,1.22-.96,1.02-1.73l-2.96-11.57c-.19-.76-.96-1.22-1.72-1.02-.76.19-1.22.96-1.02,1.72l2.96,11.58c.16.63.74,1.06,1.37,1.06.11,0,.24,0,.35-.04Z"/>
          <path class="cls-8" d="m161.74,79.45c1.01-.69,1.96.94.95,1.63-6.24,4.27-13.01,7.39-20.32,9.36-1.17.32-1.67-1.5-.5-1.82,7.16-1.93,13.76-4.98,19.86-9.17Z"/>
          <path class="cls-8" d="m144.04,50.68c.83-.9,2.16.43,1.34,1.33-5.24,5.69-11.29,10.4-18.1,14.08-1.07.59-2.02-1.05-.95-1.63,6.66-3.61,12.58-8.21,17.71-13.79Z"/>
          <path class="cls-8" d="m133.44,92.27c1.11-.48,2.06,1.14.95,1.63-2.17.94-4.38,1.53-6.74,1.77-1.21.12-1.2-1.77,0-1.89,1.99-.21,3.94-.71,5.78-1.51Z"/>
          <path class="cls-8" d="m116.45,122.51c.29,2.53,1.22,6.51.22,8.98-1.79,4.39-8.96,5.96-13.04,6.26-1.21.09-1.2-1.8,0-1.89,2.67-.19,5.71-.72,7.96-2.28,3.09-2.14,3.54-4.31,3.3-7.7-.37-4.99-1.25-9.87-2.48-14.71-.3-1.18,1.52-1.68,1.82-.51.99,3.91,1.77,7.85,2.22,11.86Z"/>
          <path class="cls-8" d="m102.71,59.77c1.21-.15,1.19,1.74,0,1.89-6.05.77-12.01,1.94-17.9,3.49-1.18.31-1.68-1.51-.51-1.81,6.07-1.61,12.19-2.78,18.41-3.56Z"/>
          <path class="cls-8" d="m82.81,34.99c.33-1.17,2.15-.67,1.82.5-1.25,4.52-3.24,8.7-5.99,12.51-.7.98-2.34.04-1.63-.95,2.66-3.69,4.58-7.67,5.79-12.06Z"/>
          <path class="cls-8" d="m39.47,137.62c.2.76-.26,1.53-1.02,1.72-.11.04-.24.05-.35.05-.63,0-1.21-.43-1.37-1.07l-2.96-11.57c-.2-.76.26-1.53,1.02-1.73.76-.19,1.53.26,1.73,1.03l2.95,11.57Z"/>
          <path class="cls-8" d="m33.56,114.48c.19.76-.26,1.53-1.02,1.73-.12.03-.24.04-.36.04-.63,0-1.21-.43-1.37-1.07l-2.96-11.57c-.19-.76.26-1.53,1.03-1.72.75-.2,1.52.26,1.72,1.02l2.96,11.57Z"/>
          <path class="cls-8" d="m27.65,91.34c.2.77-.26,1.53-1.02,1.73-.11.03-.24.04-.35.04-.63,0-1.21-.43-1.37-1.06l-2.96-11.58c-.2-.76.26-1.53,1.02-1.72.76-.2,1.53.26,1.72,1.02l2.96,11.57Z"/>
          <path class="cls-8" d="m132.87,79.97c-1.43-4.26-7.03-.4-7.65-2.25-.19-.56.24-1.2,1.57-1.64.93-.31,2.01-.45,3.22-.19l.24-2.56c-.59-.14-1.31-.16-2.05-.09l-1.01-3.01-1.78.6.93,2.78c-.12.03-.24.07-.35.11-.5.17-.94.36-1.34.58l-.97-2.89-1.78.6,1.18,3.52c-.82.96-1.05,2.12-.66,3.27,1.45,4.32,7.04.44,7.63,2.2.2.6-.18,1.16-1.56,1.62-1.26.42-2.79.47-3.92.15l-.24,2.58c.56.16,1.3.23,2.1.19l.94,2.79,1.78-.6-.83-2.47c.28-.07.56-.15.84-.24.31-.11.61-.22.88-.35l.83,2.48,1.78-.6-.97-2.9c1.2-1.05,1.61-2.37,1.17-3.69Z"/>
          <path class="cls-8" d="m37.14,62.56c1.45,4.32,7.04.44,7.63,2.2.2.6-.18,1.16-1.56,1.62-1.26.42-2.79.47-3.92.15l-.24,2.58c.55.16,1.26.22,2.04.19,1.73-.76,3.58-1.27,5.46-1.45l-.15-.44c1.2-1.05,1.61-2.37,1.17-3.69-1.43-4.26-7.02-.4-7.65-2.25-.19-.56.23-1.2,1.57-1.64.93-.31,2.01-.45,3.22-.19l.24-2.56c-.59-.14-1.31-.16-2.05-.09l-1.01-3.01-1.78.6.93,2.78c-.12.03-.24.07-.35.11-.5.17-.94.36-1.34.58l-.97-2.89-1.78.6,1.18,3.52c-.82.96-1.05,2.12-.66,3.27Z"/>
          <path class="cls-4" d="m107.37,51.83c-21.03,2.67-78.81,22.61-90.33,26.64l16.77,69.67c21.86.57,77.62-9.43,88.73-11.47-.44-35.14-12.4-75.83-15.18-84.84Zm-23.08,11.51c6.07-1.61,12.19-2.78,18.41-3.56,1.21-.15,1.19,1.74,0,1.89-6.05.77-12.01,1.94-17.9,3.49-1.18.31-1.68-1.51-.51-1.81Zm-57.67,29.73c-.11.03-.24.04-.35.04-.63,0-1.21-.43-1.37-1.06l-2.96-11.58c-.2-.76.26-1.53,1.02-1.72.76-.2,1.53.26,1.72,1.02l2.96,11.57c.2.77-.26,1.53-1.02,1.73Zm5.92,23.14c-.12.03-.24.04-.36.04-.63,0-1.21-.43-1.37-1.07l-2.96-11.57c-.19-.76.26-1.53,1.03-1.72.75-.2,1.52.26,1.72,1.02l2.96,11.57c.19.76-.26,1.53-1.02,1.73Zm5.91,23.13c-.11.04-.24.05-.35.05-.63,0-1.21-.43-1.37-1.07l-2.96-11.57c-.2-.76.26-1.53,1.02-1.73.76-.19,1.53.26,1.73,1.03l2.95,11.57c.2.76-.26,1.53-1.02,1.72Zm38.4-4.22c-24.72,5.44-44.68-11.57-37.33-26.07,7.35-14.5-3.82-19.63,12.04-33.12,16.51-14.04,46.51-9.77,50.42-5.7,6.27,6.52-1.69,21.74,1.63,37.67,2.52,12.07-2.04,21.77-26.76,27.21Zm26.78,2.63c-1.21.09-1.2-1.8,0-1.89,2.67-.19,5.71-.72,7.96-2.28,3.09-2.14,3.54-4.31,3.3-7.7-.37-4.99-1.25-9.87-2.48-14.71-.3-1.18,1.52-1.68,1.82-.51.99,3.91,1.77,7.85,2.22,11.86.29,2.53,1.22,6.51.22,8.98-1.79,4.39-8.96,5.96-13.04,6.26Z"/>
          <path class="cls-9" d="m27.95,52.62s-2.08,4.25,6.77,7.14c8.84,2.89,24.28-6.46,24.28-6.46l5.66,5,8.67-18.36s6.21,7.06,14.25,7.06,16.03-21.77,16.03-21.77l6.97,2.04,3.23-4.25s-5.48,16.35,2.55,23.47c8.03,7.12,19.39.68,19.39.68,0,0-10.9,18.54-2.14,24.92,8.77,6.38,13.68,3.88,7.99,12.78-5.69,8.9-.4,11.63-.4,11.63l-20.59,5.34-12.25-50.02-3.4-1.44-77.01,21.71s-6.02-13.46,0-19.48Z"/>
          <path class="cls-11" d="m158.62,62.08c-1.93-3.08-3.68-6.25-5.26-9.53-.79-1.64-3.24-.21-2.45,1.43,1.58,3.27,3.33,6.45,5.26,9.53.97,1.54,3.42.12,2.45-1.43Z"/>
          <path class="cls-11" d="m162.66,69.77c-.62-1.02-1.24-2.04-1.86-3.07-.95-1.56-3.4-.13-2.45,1.43.62,1.02,1.24,2.04,1.86,3.07.95,1.56,3.4.13,2.45-1.43Z"/>
          <path class="cls-11" d="m125.7,30.21c-2.04-1.4-3.84-3.07-5.43-4.97-1.17-1.4-3.17.61-2,2,1.74,2.09,3.76,3.88,6,5.41,1.51,1.03,2.93-1.42,1.43-2.45Z"/>
          <path class="cls-11" d="m132.19,34.75l-1.51-1.55c-.54-.55-1.47-.54-2,0-.55.55-.54,1.46,0,2l1.51,1.55c.54.55,1.47.54,2,0,.55-.55.54-1.46,0-2Z"/>
          <path class="cls-11" d="m83.66,26.38c-.34,1.28-.82,2.46-1.48,3.61-.91,1.59,1.54,3.02,2.45,1.43.77-1.35,1.37-2.79,1.77-4.28.47-1.76-2.26-2.52-2.73-.75Z"/>
          <path class="cls-6" d="m50.5,48.41c-1.97-.96-4.01-1.62-6.18-1.94-1.19-.18-1.7,1.65-.5,1.82,2,.29,3.91.86,5.73,1.75,1.09.53,2.05-1.1.95-1.63Z"/>
          <path class="cls-6" d="m38.53,47.74c-1.37.37-2.59,1.05-3.63,2-.9.82.44,2.15,1.34,1.34.81-.73,1.75-1.23,2.8-1.51,1.17-.32.68-2.14-.5-1.82Z"/>
          <path class="cls-6" d="m88.67,85.47c1.18-1.29,3.26-.04,2.68,1.61-1.01,2.88-1.59,7.59.35,14.77,3.74,13.88-7.2,25.15-14.85,17.5-7.65-7.65,9.41-5.19,7.37-17.5-1.21-7.29,1.55-13.21,4.45-16.37Z"/>
          <path class="cls-8" d="m149.34,31.38l30.39,48.33-1.59,1.32c-9.52,7.93-22.89,13.71-34.18,17.58,3.3,11.88,3.71,31.81,3.73,32.72l.04,2.08-20.47,3c0,.75.02,1.49.02,2.23v1.96l-1.93.37c-2.71.51-63.68,11.93-89.69,11.93-1.39,0-2.69-.03-3.87-.09l-1.75-.1L11.45,75.43l2.01-.72c.72-.26,5.33-1.88,12.22-4.23-1.56-2.87-2.46-6.15-2.46-9.64,0-11.18,9.1-20.28,20.28-20.28,9.33,0,17.18,6.33,19.53,14.92,7.96-11.58,15.55-35.68,15.63-35.95l.65-2.08,30.16,6.86c2.7-5.59,4.61-9.91,4.66-10.02l1.27-2.85,29.6,24.44c1.38-1.38,2.2-2.25,2.24-2.29l2.1-2.22Zm24.17,47.3l-24.95-39.67c-5.72,5.77-21.6,21.03-32.96,24.42,2.49,9.29,5.58,22.1,7.96,36.09,7.83-1.82,34.08-8.61,49.95-20.84Zm-46.38,52.97l15.77-2.31c-.19-5.41-.94-20.14-3.43-29.27-1.48.46-2.91.9-4.26,1.29,1.65,5.51,2.66,11.1,3.05,16.85.08,1.22-1.81,1.21-1.89,0-.38-5.58-1.38-11-2.98-16.33-3.94,1.11-7.12,1.87-9.07,2.32,1.39,8.99,2.44,18.33,2.81,27.44Zm14.48-92.44l-24.43-20.17c-2.82,6.16-9.68,20.72-15.2,28.88,1.48-.28,2.87-.51,4.16-.69,3.59-5.52,7.18-11.03,10.77-16.54.66-1.02,2.3-.08,1.63.95-3.33,5.09-6.65,10.2-9.97,15.3.09,0,.19-.02.27-.03l1.86-.15.59,1.77c.04.14,1.29,3.99,3.07,10.35,6.38-1.91,14.81-8.46,21.54-14.41-2.73-1.49-5.26-3.3-7.56-5.42-.9-.82.44-2.15,1.33-1.33,2.34,2.15,4.93,3.94,7.73,5.41,1.53-1.38,2.95-2.71,4.21-3.91Zm-19.06,97.45c-.44-35.14-12.4-75.83-15.18-84.84-21.03,2.67-78.81,22.61-90.33,26.64l16.77,69.67c21.86.57,77.62-9.43,88.73-11.47Zm-15.2-107.99l-24.84-5.65c-1.98,6-7.99,23.33-14.72,33.84,10.19-3.07,20.17-5.87,28.35-7.72l-.6-.58c2.46-2.63,5.74-8.2,8.85-14.1-4.11-1.3-8.23-2.61-12.34-3.9-1.15-.37-.65-2.19.51-1.82,4.23,1.34,8.48,2.68,12.72,4.03.71-1.37,1.4-2.75,2.08-4.09Zm-52.23,32.1c1.29-.41,2.57-.81,3.86-1.22-.65-7.98-7.34-14.27-15.49-14.27-8.58,0-15.55,6.97-15.55,15.55,0,2.97.85,5.73,2.3,8.09,6.61-2.23,14.63-4.89,23.07-7.58-1.84-5.35-6.27-10.38-12.51-8.1-1.14.42-1.63-1.41-.5-1.82,7.18-2.63,12.66,3.08,14.83,9.35Z"/>
        </g>
      </g>
    </g>
  </g>
</svg>