<?xml version="1.0" encoding="UTF-8"?>
<svg xmlns="http://www.w3.org/2000/svg" viewBox="0 0 186.37 159.71">
  <defs>
    <style>
      .cls-1 {
        fill: #677675;
      }

      .cls-2 {
        fill: #eae4e1;
      }

      .cls-3, .cls-4 {
        fill: #fff;
      }

      .cls-5 {
        fill: #ffd003;
      }

      .cls-6 {
        fill: #8c9b9b;
      }

      .cls-7 {
        fill: #667070;
      }

      .cls-8 {
        fill: #11a37d;
      }

      .cls-9 {
        fill: #0fa557;
      }

      .cls-10, .cls-11 {
        fill: #3765ae;
      }

      .cls-12 {
        fill: #757f7e;
      }

      .cls-11 {
        mix-blend-mode: multiply;
        opacity: .18;
      }

      .cls-13 {
        fill: none;
        stroke: #6d9dc5;
        stroke-dasharray: 0 10;
        stroke-linecap: round;
        stroke-linejoin: round;
        stroke-width: 4px;
      }

      .cls-14 {
        isolation: isolate;
      }

      .cls-4 {
        opacity: .5;
      }
    </style>
  </defs>
  <g class="cls-14">
    <g id="Capa_2" data-name="Capa 2">
      <g id="Capa_1-2" data-name="Capa 1">
        <g>
          <path class="cls-3" d="m181.75,48.82c.75-1.26,1.19-2.7,1.26-4.23.16-3.45-1.65-6.68-4.66-8.36l-9.53-5.3c-.46-.97-1.1-1.85-1.89-2.61l-24.65-23.78c-1.74-1.68-4.01-2.55-6.31-2.55-1.47,0-2.95.36-4.31,1.09l-1.13.61c-18.9,10.14-28.51,30.46-32.68,42.25l-23.87.16c-4.32-11.73-14.19-31.92-33.22-41.83l-1.15-.6c-1.32-.69-2.76-1.02-4.19-1.02-2.34,0-4.65.9-6.4,2.63L4.69,29.39c-1.83,1.81-2.81,4.32-2.68,6.89s1.33,4.97,3.33,6.6l1.54,1.26c.84.69,2.19,1.85,3.76,3.3-3.01,1.49-5.08,4.61-5.05,8.2l.6,93.04c.02,2.41.99,4.72,2.7,6.41,1.7,1.68,4,2.62,6.38,2.62.02,0,129.55-.84,129.55-.84l30.51-.19c2.41-.02,4.72-.99,6.41-2.7,1.69-1.72,2.64-4.03,2.62-6.44l-.6-93.05c-.01-2.07-.73-4.06-2.02-5.65Z"/>
          <g>
            <path class="cls-13" d="m182.94,50.75c-.31-.69-.71-1.33-1.19-1.93.39-.65.69-1.35.91-2.08"/>
            <path class="cls-13" d="m182.79,42.14c-.57-2.47-2.16-4.63-4.44-5.9l-9.53-5.3c-.46-.97-1.1-1.85-1.89-2.61l-24.65-23.78c-1.74-1.68-4.01-2.55-6.31-2.55-1.47,0-2.95.36-4.31,1.09l-1.13.61c-16.76,9-26.21,26-31.05,37.95"/>
            <path class="cls-13" d="m98.64,43.82c-.28.74-.54,1.45-.78,2.13l-2.27.02"/>
            <line class="cls-13" x1="91.72" y1="45.99" x2="78.19" y2="46.08"/>
            <path class="cls-13" d="m76.26,46.09l-2.27.02c-.25-.68-.52-1.39-.81-2.12"/>
            <path class="cls-13" d="m71.48,39.91c-5.2-11.73-14.72-27.31-30.71-35.63l-1.15-.6c-1.32-.69-2.76-1.02-4.19-1.02-2.34,0-4.65.9-6.4,2.63L4.69,29.39c-1.83,1.81-2.81,4.32-2.68,6.89s1.33,4.97,3.33,6.6l1.54,1.26c.12.1.25.21.39.33"/>
            <path class="cls-13" d="m8.95,45.91c.52.46,1.09.97,1.69,1.52-.68.34-1.32.76-1.89,1.25"/>
            <path class="cls-13" d="m6.17,52.37c-.38,1.02-.59,2.12-.58,3.27l.6,93.04c.02,2.41.99,4.72,2.7,6.41,1.7,1.68,4,2.62,6.38,2.62.02,0,129.55-.84,129.55-.84l30.51-.19c2.41-.02,4.72-.99,6.41-2.7,1.69-1.72,2.64-4.03,2.62-6.44l-.6-93.05c0-.53-.05-1.05-.15-1.56"/>
          </g>
          <path class="cls-9" d="m51.99,40.44l-.27.99-2.6,2.56c-1.12-.22-2.19.12-3.04.95-3.19,3.14,2.1,5.86.8,7.14-.45.44-1.06.38-1.94-.52-.81-.82-1.38-2.03-1.51-3.07l-2.3.99c.05.53.26,1.15.58,1.77l-2.07,2.03,1.15,1.16,1.83-1.8c.15.2.32.39.5.57.2.2.4.38.61.55l-.45.45-1.2,1.17-2.47.02c-.99-1.61-1.58-3.52-1.59-5.57-.05-5.71,4.32-10.38,9.71-10.41,1.53,0,2.98.35,4.28,1.01Z"/>
          <path class="cls-9" d="m57.54,49.72c.02,2.06-.55,3.97-1.52,5.59l-11.62.07.77-.75c1.32.48,2.6.21,3.57-.75,3.14-3.09-2.14-5.83-.76-7.17.41-.41,1.11-.35,1.95.51.6.61,1.1,1.42,1.3,2.51l2.28-.97c-.09-.54-.32-1.13-.65-1.69l2.23-2.19-1.14-1.15-2.05,2.01c-.07-.07-.15-.15-.22-.23-.32-.33-.64-.59-.96-.82l2.13-2.09-1.14-1.16.27-.99c3.26,1.66,5.53,5.19,5.55,9.28Z"/>
          <path class="cls-8" d="m63.71,55.26l-5.65.04c.82-1.68,1.28-3.58,1.26-5.59-.04-6.69-5.26-12.1-11.63-12.06-6.37.05-11.51,5.52-11.47,12.2,0,2.02.5,3.91,1.34,5.57l-3.93.03c-3.43-7.49-13.4-16.53-17.24-19.85l19.68-19.48c17.37,9.79,25.45,32.07,27.64,39.14Z"/>
          <path class="cls-11" d="m50.2,25.33s2.62,10.91-5.02,10.47-13.52,3.05-12.43,10.25c1.09,7.2-1.53,8.29-1.53,8.29l2.62,2.84,32.28-.22s-8.07-25.95-15.92-31.62Z"/>
          <path class="cls-9" d="m126.92,49.85c.51.36.55.97-.17,1.99-.66.94-1.76,1.72-2.77,2.02l.66,1.01-8.69.05c-1-1.6-1.59-3.51-1.6-5.56,0-.91.1-1.8.31-2.64l.93.2,2.96,2.12c-.02,1.14.5,2.14,1.47,2.84,3.64,2.6,5.41-3.08,6.9-2.02Z"/>
          <path class="cls-9" d="m133.9,49.23c0,2.05-.55,3.97-1.53,5.58l-2.93.03-1.24-.89c.17-.19.33-.38.47-.59.17-.24.31-.46.44-.69l2.09,1.49.95-1.32-2.44-1.75c.25-1.38-.24-2.6-1.35-3.39-3.59-2.57-5.37,3.1-6.92,1.99-.47-.35-.55-1.04.16-2.03.5-.69,1.2-1.32,2.24-1.7l-1.35-2.08c-.51.17-1.05.51-1.55.93l-2.54-1.82-.95,1.32,2.34,1.67c-.06.09-.13.17-.19.25-.26.37-.47.74-.63,1.1l-2.44-1.74-.95,1.33-.93-.2c1.07-4.43,4.86-7.74,9.4-7.77,5.39-.04,9.81,4.58,9.84,10.29Z"/>
          <path class="cls-8" d="m156.53,38.59l9.51,5.29c-4.42,2.2-12.06,6.43-15.26,10.81l-3.04.02-5.43.04c3.25-5.96,10.58-13.02,14.39-16.48l-.17.33Z"/>
          <path class="cls-8" d="m135.24,15.44l20.08,19.09c-3.78,3.39-13.56,12.63-16.84,20.19l-3.93.06c.81-1.68,1.26-3.58,1.23-5.6-.09-6.69-5.35-12.06-11.72-11.98-6.38.09-11.48,5.61-11.39,12.3.02,2.01.53,3.89,1.38,5.56l-5.66.08c2.05-7.11,9.67-29.54,26.85-39.69Z"/>
          <path class="cls-2" d="m116.26,102.56c0,.35,0,.71-.05,1.06l-1.63-.17c-.35-.04-.66.22-.7.57s.22.67.57.71l1.54.15c-.29,1.33-.84,2.55-1.58,3.63l-1.24-.85c-.29-.2-.69-.13-.89.16s-.13.7.16.9l1.17.8c-.86.97-1.91,1.78-3.08,2.38l-.62-1.22c-.15-.32-.55-.45-.85-.28-.32.16-.45.55-.28.86l.57,1.15c-1.07.39-2.23.61-3.44.62-.12,0-.23,0-.34,0l.04-1.24c0-.35-.27-.65-.62-.66-.35,0-.65.27-.66.63l-.04,1.15c-1.27-.19-2.47-.61-3.56-1.22l.58-.99c.17-.3.07-.7-.24-.87-.3-.18-.7-.08-.87.23l-.55.93c-1.01-.75-1.87-1.66-2.55-2.73l.95-.57c.3-.18.4-.57.22-.88-.18-.3-.58-.4-.88-.22l-.91.55c-.54-1.11-.88-2.32-.99-3.61l1.15-.05c.35,0,.63-.32.61-.66-.02-.35-.32-.63-.66-.62l-1.12.05c.05-1.3.33-2.54.81-3.69l1.13.55c.32.15.7.03.85-.29s.03-.71-.29-.86l-1.11-.54c.65-1.12,1.5-2.1,2.51-2.91l.8,1.13c.21.29.61.35.9.15.28-.2.35-.6.15-.89l-.79-1.12c1.1-.67,2.33-1.15,3.65-1.38l.18,1.51c.05.35.36.61.72.56.35-.05.6-.36.55-.72l-.18-1.49c.15,0,.29-.03.44-.03,1.23,0,2.4.21,3.49.59l-.6,1.52c-.13.33.04.71.36.84s.7-.04.83-.36l.59-1.49c1.22.6,2.3,1.44,3.18,2.44l-1.29,1.08c-.27.23-.31.63-.08.9s.64.31.9.08l1.27-1.05c.55.79.98,1.67,1.29,2.6l-1.61.5c-.34.11-.53.46-.43.8.11.35.47.53.81.43l1.55-.48c.13.64.2,1.29.2,1.96Z"/>
          <rect class="cls-5" x="38.2" y="113.56" width="6.13" height="6.13" transform="translate(-.69 .25) rotate(-.34)"/>
          <polygon class="cls-5" points="57.35 113.46 57.4 119.58 51.26 119.63 51.23 113.5 57.35 113.46"/>
          <polygon class="cls-5" points="70.39 113.37 70.44 119.5 64.3 119.54 64.27 113.41 70.39 113.37"/>
          <polygon class="cls-5" points="70.22 86.54 70.27 92.67 64.13 92.71 64.1 86.58 70.22 86.54"/>
          <polygon class="cls-5" points="57.18 86.62 57.23 92.76 51.09 92.79 51.05 86.66 57.18 86.62"/>
          <polygon class="cls-5" points="44.14 86.71 44.18 92.84 38.05 92.88 38.01 86.75 44.14 86.71"/>
          <path class="cls-12" d="m131.14,72.49l.39,60.26-102.59.66-.4-60.25,102.6-.67Zm-25.2,44.1c7.71-.05,13.93-6.35,13.88-14.06-.05-7.7-6.35-13.92-14.06-13.88-7.7.05-13.92,6.36-13.88,14.06.05,7.71,6.36,13.93,14.06,13.88Zm-33.71,4.68l-.06-9.7-9.69.06.06,9.7,9.69-.06Zm-.17-26.84l-.06-9.7-9.69.06.05,9.7,9.7-.06Zm-12.87,26.92l-.06-9.7-9.69.06.05,9.7,9.7-.06Zm-.17-26.84l-.06-9.69-9.7.06.06,9.69,9.7-.06Zm-12.87,26.92l-.06-9.69-9.7.06.06,9.69,9.7-.06Zm-.17-26.83l-.06-9.7-9.7.06.06,9.7,9.7-.06Z"/>
          <rect class="cls-1" x="148.04" y="58.2" width="23.37" height="85.92" transform="translate(-.65 1.03) rotate(-.37)"/>
          <path class="cls-6" d="m144.19,58.3l.56,85.91-125.94.82-.56-85.91,125.94-.82Zm-9.08,78l-.44-67.38-109.71.71.44,67.38,109.71-.71Z"/>
          <path class="cls-10" d="m134.68,68.91l.44,67.38-109.71.71-.44-67.38,109.71-.71Zm-3.14,63.84l-.39-60.26-102.6.67.4,60.25,102.59-.66Z"/>
          <path class="cls-10" d="m119.82,102.54c.05,7.71-6.17,14.01-13.88,14.06-7.7.05-14-6.17-14.06-13.88-.05-7.7,6.18-14,13.88-14.06,7.71-.05,14.01,6.18,14.06,13.88Zm-3.61,1.09c.04-.35.05-.71.05-1.06,0-.67-.07-1.33-.2-1.96l-1.55.48c-.34.1-.7-.08-.81-.43-.1-.34.09-.69.43-.8l1.61-.5c-.31-.93-.75-1.81-1.29-2.6l-1.27,1.05c-.26.23-.67.19-.9-.08s-.19-.67.08-.9l1.29-1.08c-.88-1-1.96-1.84-3.18-2.44l-.59,1.49c-.13.33-.5.49-.83.36s-.49-.51-.36-.84l.6-1.52c-1.09-.38-2.26-.6-3.49-.59-.15,0-.29.02-.44.03l.18,1.49c.05.35-.21.67-.55.72-.35.05-.67-.21-.72-.56l-.18-1.51c-1.33.24-2.55.71-3.65,1.38l.79,1.12c.21.29.14.69-.15.89-.29.21-.69.15-.9-.15l-.8-1.13c-1.01.81-1.85,1.79-2.51,2.91l1.11.54c.32.15.45.55.29.86s-.54.45-.85.29l-1.13-.55c-.48,1.15-.76,2.39-.81,3.69l1.12-.05c.35,0,.65.26.66.62.02.35-.25.65-.61.66l-1.15.05c.11,1.29.45,2.5.99,3.61l.91-.55c.3-.18.7-.08.88.22.18.31.08.7-.22.88l-.95.57c.68,1.06,1.54,1.98,2.55,2.73l.55-.93c.17-.31.57-.41.87-.23.31.17.41.57.24.87l-.58.99c1.09.61,2.29,1.03,3.56,1.22l.04-1.15c0-.35.31-.64.66-.63.35.02.63.31.62.66l-.04,1.24c.11,0,.22,0,.34,0,1.21,0,2.36-.23,3.44-.62l-.57-1.15c-.16-.32-.04-.7.28-.86.31-.16.7-.04.85.28l.62,1.22c1.17-.6,2.22-1.41,3.08-2.38l-1.17-.8c-.29-.2-.36-.61-.16-.9s.6-.36.89-.16l1.24.85c.75-1.07,1.29-2.3,1.58-3.63l-1.54-.15c-.35-.04-.61-.35-.57-.71s.35-.61.7-.57l1.63.17Z"/>
          <path class="cls-10" d="m72.17,111.58l.06,9.7-9.69.06-.06-9.7,9.69-.06Zm-1.73,7.92l-.05-6.13-6.13.05.04,6.13,6.13-.04Z"/>
          <path class="cls-10" d="m71.99,84.74l.06,9.7-9.7.06-.05-9.7,9.69-.06Zm-1.73,7.92l-.05-6.13-6.13.04.04,6.13,6.13-.05Z"/>
          <path class="cls-10" d="m59.12,111.66l.06,9.7-9.7.06-.05-9.7,9.69-.06Zm-1.73,7.92l-.05-6.13-6.13.04.04,6.13,6.13-.05Z"/>
          <path class="cls-10" d="m58.95,84.83l.06,9.69-9.7.06-.06-9.69,9.7-.06Zm-1.73,7.92l-.05-6.13-6.13.04.04,6.13,6.13-.04Z"/>
          <path class="cls-10" d="m53.96,43.72l1.14,1.15-2.23,2.19c.33.56.55,1.15.65,1.69l-2.28.97c-.2-1.09-.7-1.9-1.3-2.51-.85-.86-1.54-.92-1.95-.51-1.37,1.34,3.91,4.08.76,7.17-.97.95-2.25,1.23-3.57.75l-.77.75-1.14-1.15.45-.45c-.21-.16-.41-.35-.61-.55-.18-.18-.35-.37-.5-.57l-1.83,1.8-1.15-1.16,2.07-2.03c-.32-.63-.53-1.24-.58-1.77l2.3-.99c.13,1.05.7,2.25,1.51,3.07.87.9,1.48.95,1.94.52,1.3-1.28-3.99-4.01-.8-7.14.85-.84,1.93-1.17,3.04-.95l2.6-2.56,1.14,1.16-2.13,2.09c.33.23.65.49.96.82.07.07.15.15.22.23l2.05-2.01Z"/>
          <path class="cls-10" d="m46.08,111.75l.06,9.69-9.7.06-.06-9.69,9.7-.06Zm-1.74,7.92l-.04-6.13-6.13.04.04,6.13,6.13-.04Z"/>
          <path class="cls-10" d="m45.91,84.92l.06,9.7-9.7.06-.06-9.7,9.7-.06Zm-1.74,7.92l-.04-6.13-6.13.05.05,6.13,6.13-.04Z"/>
          <rect class="cls-4" x="138.31" y="75.82" width="3.27" height="17.83" rx="1.64" ry="1.64"/>
          <rect class="cls-4" x="138.31" y="96.59" width="3.27" height="10.8" rx="1.64" ry="1.64"/>
          <polygon class="cls-7" points="131.14 72.49 28.54 73.16 28.94 133.42 32.97 133.39 32.97 78.33 131.18 78.33 131.14 72.49"/>
          <rect class="cls-4" x="24.46" y="62.84" width="15.49" height="3.27" rx="1.64" ry="1.64"/>
          <rect class="cls-4" x="43.88" y="62.84" width="12.87" height="3.27" rx="1.64" ry="1.64"/>
          <path class="cls-11" d="m121.02,26.92s-.57,12.22,3.82,16.33c4.39,4.11,14.4.55,17.03,2.06,2.63,1.51,1.77,3.48,1.77,3.48,0,0-3,7-3.66,7.01s-34.67,1.12-34.67,1.12c0,0,9.17-29.51,15.71-29.99Z"/>
          <path class="cls-11" d="m160.12,38.85s-7.63,5.23-8.29,8.51,3.05,5.02,3.05,5.02l-3.93,4.58-11.12-1.09s8.94-15.49,14.18-17.67c5.23-2.17,6.11.65,6.11.65Z"/>
          <path class="cls-10" d="m174.68,54.54l.6,93.05-30.51.19-129.5.85-.6-93.04,14.98-.1c-4.58-8.15-16.89-18.28-17.03-18.38l-1.54-1.25,24.34-24.1,1.15.6c20.56,10.7,29.06,36.61,30.85,42.89l37.1-.25c1.71-6.3,9.88-32.32,30.3-43.28l1.15-.62,24.65,23.78-1.37,1.15,14.69,8.16-3.27,1.44c-3.18,1.41-10.8,5.25-15.01,9.03l19.03-.13Zm-2.99,89.5l-.55-85.91-23.37.15.55,85.91,23.37-.15Zm-5.65-100.16l-9.51-5.29.17-.33c-3.81,3.46-11.13,10.52-14.39,16.48l5.43-.04,3.04-.02c3.2-4.38,10.84-8.62,15.26-10.81Zm-10.71-9.17l-19.94-19.23c-17.26,10.02-25.04,32.4-27.14,39.49l5.66-.04c-.85-1.67-1.34-3.56-1.34-5.57-.05-6.69,5.1-12.17,11.48-12.21,6.37-.04,11.59,5.37,11.63,12.06,0,2.02-.45,3.92-1.27,5.59l3.93-.03c3.34-7.53,13.18-16.7,16.98-20.07Zm-10.57,109.51l-.56-85.91-125.94.82.56,85.91,125.94-.82Zm-12.39-89.4c.97-1.61,1.54-3.53,1.53-5.58-.04-5.71-4.45-10.32-9.84-10.29-4.53.03-8.32,3.34-9.4,7.77-.21.85-.32,1.74-.31,2.64,0,2.05.6,3.96,1.6,5.56l8.69-.05-.66-1.01c1.01-.3,2.11-1.08,2.77-2.02.73-1.02.68-1.63.17-1.99-1.49-1.06-3.25,4.62-6.9,2.02-.97-.7-1.49-1.7-1.47-2.84l-2.96-2.12.95-1.33,2.44,1.74c.15-.36.36-.73.63-1.1.06-.08.13-.16.19-.25l-2.34-1.67.95-1.32,2.54,1.82c.5-.42,1.05-.75,1.55-.93l1.35,2.08c-1.05.38-1.74,1.01-2.24,1.7-.71.99-.64,1.68-.16,2.03,1.55,1.11,3.34-4.56,6.92-1.99,1.12.79,1.61,2.01,1.35,3.39l2.44,1.75-.95,1.32-2.09-1.49c-.13.23-.26.45-.44.69-.15.21-.3.4-.47.59l1.24.89,2.93-.03Zm-74.31.49l5.65-.04c-2.19-7.07-10.28-29.35-27.64-39.14l-19.68,19.48c3.84,3.32,13.81,12.36,17.24,19.85l3.93-.03c-.84-1.66-1.33-3.55-1.34-5.57-.05-6.69,5.1-12.16,11.47-12.2,6.37-.05,11.6,5.37,11.63,12.06.02,2.01-.45,3.91-1.26,5.59Zm-2.04,0c.97-1.62,1.54-3.53,1.52-5.59-.03-4.09-2.29-7.62-5.55-9.28-1.3-.65-2.75-1.02-4.28-1.01-5.39.04-9.75,4.71-9.71,10.41,0,2.05.6,3.96,1.59,5.57l2.47-.02,1.2-1.17,1.14,1.15,11.62-.07Z"/>
        </g>
      </g>
    </g>
  </g>
</svg>