<?xml version="1.0" encoding="UTF-8"?>
<svg id="Capa_2" data-name="Capa 2" xmlns="http://www.w3.org/2000/svg" viewBox="0 0 206.9 206.9">
  <defs>
    <style>
      .cls-1 {
        stroke: #6d9dc5;
        stroke-dasharray: 0 10;
        stroke-linecap: round;
        stroke-linejoin: round;
        stroke-width: 4px;
      }

      .cls-1, .cls-2 {
        fill: #fff;
      }

      .cls-3 {
        fill: #119da4;
      }
    </style>
  </defs>
  <g id="Capa_1-2" data-name="Capa 1">
    <g>
      <circle class="cls-1" cx="103.45" cy="103.45" r="101.45"/>
      <circle class="cls-3" cx="103.45" cy="103.45" r="85.34"/>
      <g>
        <path class="cls-2" d="m69.99,126.41c-.99.97-1.84,1.44-3.25,1.44-2.34,0-3.96-1.64-3.96-3.94s1.83-3.92,3.98-3.92c1.24,0,2.44.54,3.26,1.5l-1,.96c-.68-.72-1.42-1.09-2.29-1.09-1.41,0-2.55,1.08-2.55,2.55,0,1.54,1.1,2.57,2.58,2.57.93,0,1.55-.38,2.26-1.08l.97,1.01Z"/>
        <path class="cls-2" d="m75.21,127.08c-.49.48-1.01.73-1.71.73-1.41,0-2.64-1.21-2.64-2.91s1.17-2.92,2.61-2.92c.67,0,1.24.25,1.74.75v-.6h1.39v5.53h-1.39v-.58Zm-2.95-2.19c0,.95.62,1.65,1.49,1.65s1.52-.65,1.52-1.66-.65-1.63-1.52-1.63-1.49.73-1.49,1.64Z"/>
        <path class="cls-2" d="m77.96,122.13h1.39v5.87c0,1.22-.49,1.83-1.46,1.83-.36,0-.72-.1-1.04-.21v-1.09c.17.08.38.16.57.16.41,0,.54-.25.54-.74v-5.82Zm1.57-1.37c0,.49-.4.89-.89.89s-.89-.45-.89-.96c0-.48.4-.84.88-.84s.9.42.9.92Z"/>
        <path class="cls-2" d="m84.79,127.08c-.49.48-1.01.73-1.71.73-1.41,0-2.64-1.21-2.64-2.91s1.17-2.92,2.61-2.92c.67,0,1.24.25,1.74.75v-.6h1.39v5.53h-1.39v-.58Zm-2.95-2.19c0,.95.62,1.65,1.49,1.65s1.52-.65,1.52-1.66-.65-1.63-1.52-1.63-1.49.73-1.49,1.64Z"/>
        <path class="cls-2" d="m88.68,125.27c-.89-.45-1.33-.99-1.33-1.69,0-.87.73-1.59,1.79-1.59.72,0,1.38.32,1.82.92l-.85.87c-.31-.31-.62-.51-.96-.51-.28,0-.5.11-.5.33s.2.3.5.46l.51.26c.92.47,1.41.95,1.41,1.77,0,.99-.78,1.73-1.99,1.73-.8,0-1.46-.32-1.94-.95l.85-.94c.32.38.79.65,1.16.65.34,0,.62-.2.62-.45s-.23-.42-.62-.62l-.47-.24Z"/>
        <path class="cls-2" d="m99.17,127.08c-.49.48-1.01.73-1.71.73-1.41,0-2.64-1.21-2.64-2.91s1.17-2.92,2.61-2.92c.67,0,1.24.25,1.74.75v-2.74h1.39v7.67h-1.39v-.58Zm-2.95-2.19c0,.95.62,1.65,1.49,1.65s1.52-.65,1.52-1.66-.65-1.63-1.52-1.63-1.49.73-1.49,1.64Z"/>
        <path class="cls-2" d="m107.14,126.59c-.59.84-1.38,1.22-2.54,1.22-1.76,0-2.9-1.29-2.9-2.92,0-1.51,1.09-2.91,2.88-2.91s2.94,1.25,2.94,3c0,.12-.01.19-.01.31h-4.46c.13.82.76,1.28,1.55,1.28.59,0,.99-.17,1.38-.54l1.17.55Zm-1.02-2.39c-.19-.65-.78-1.04-1.52-1.04-.69,0-1.22.34-1.49,1.04h3.01Z"/>
        <path class="cls-2" d="m113.97,120.18h1.44l2.89,7.48h-1.48l-.58-1.54h-3.05l-.61,1.54h-1.48l2.89-7.48Zm.73,1.98l-.99,2.56h1.98l-.99-2.56Z"/>
        <path class="cls-2" d="m119.25,119.99h1.39v2.7c.53-.46,1.04-.71,1.64-.71,1.04,0,1.9.68,1.9,2.02v3.66h-1.39v-2.62c0-1.12-.13-1.79-.95-1.79-.39,0-.72.2-.94.54-.28.44-.26.94-.26,1.51v2.36h-1.39v-7.67Z"/>
        <path class="cls-2" d="m131.04,124.89c0,1.61-1.24,2.92-2.93,2.92s-2.88-1.28-2.88-2.91,1.36-2.92,2.87-2.92c1.62,0,2.94,1.27,2.94,2.91Zm-4.41,0c0,.94.59,1.61,1.49,1.61s1.52-.63,1.52-1.59-.61-1.61-1.52-1.61-1.49.68-1.49,1.59Z"/>
        <path class="cls-2" d="m133.04,122.83c.26-.57.71-.84,1.17-.84.29,0,.47.08.6.15l-.43,1.19c-.1-.05-.26-.12-.41-.12-.4,0-.71.46-.74,1.27,0,.3,0,.65,0,.95v2.24h-1.39v-5.53h1.2v.7Z"/>
        <path class="cls-2" d="m136.37,122.83c.26-.57.71-.84,1.17-.84.29,0,.47.08.6.15l-.43,1.19c-.1-.05-.26-.12-.41-.12-.4,0-.71.46-.74,1.27,0,.3,0,.65,0,.95v2.24h-1.39v-5.53h1.2v.7Z"/>
        <path class="cls-2" d="m144.18,124.89c0,1.61-1.24,2.92-2.93,2.92s-2.88-1.28-2.88-2.91,1.36-2.92,2.87-2.92c1.62,0,2.94,1.27,2.94,2.91Zm-4.41,0c0,.94.59,1.61,1.49,1.61s1.52-.63,1.52-1.59-.61-1.61-1.52-1.61-1.49.68-1.49,1.59Z"/>
        <path class="cls-2" d="m82.73,133.99c-.41-.53-.76-.92-1.38-.92-.65,0-1.01.46-1.01.95,0,.41.24.83.67,1.16,1.41,1.04,2.44,1.76,2.44,2.97,0,1.05-.89,2.01-2.1,2.01-1.03,0-1.71-.57-2.26-1.58l.64-.39c.45.82.99,1.24,1.56,1.24.78,0,1.39-.57,1.39-1.27,0-.82-.77-1.29-2.47-2.67-.35-.28-.64-.88-.64-1.44,0-1.03.8-1.75,1.81-1.75.92,0,1.47.55,1.96,1.22l-.6.47Z"/>
        <path class="cls-2" d="m90.44,137.23c0,1.57-1.22,2.9-2.89,2.9s-2.89-1.32-2.89-2.9,1.23-2.93,2.89-2.93,2.89,1.34,2.89,2.93Zm-5.04,0c0,1.21.91,2.2,2.16,2.2s2.16-.99,2.16-2.2-.98-2.25-2.16-2.25-2.16,1.02-2.16,2.25Z"/>
        <path class="cls-2" d="m97.13,138.86c-.54.82-1.48,1.25-2.6,1.25-1.82,0-3.04-1.31-3.04-2.86,0-1.63,1.27-2.96,3.1-2.96,1.06,0,2.03.44,2.54,1.29l-.57.35c-.49-.65-1.17-.96-2-.96-1.41,0-2.33,1.03-2.33,2.22s.92,2.26,2.34,2.26c.8,0,1.47-.32,1.99-.97l.57.36Z"/>
        <path class="cls-2" d="m99.34,132.74c0,.32-.27.59-.59.59s-.58-.27-.58-.59.27-.58.58-.58.59.26.59.58Zm-.94,1.7h.71v5.53h-.71v-5.53Z"/>
        <path class="cls-2" d="m101.05,137.27c.03,1.27.9,2.2,2.08,2.2s1.71-.66,2.12-1.32l.59.31c-.56,1.1-1.43,1.66-2.64,1.66-1.83,0-2.89-1.41-2.89-2.89s1.12-2.93,2.85-2.93c1.57,0,2.84,1.14,2.87,2.97h-4.98Zm4.2-.62c-.29-1.15-1.12-1.66-2.07-1.66s-1.73.53-2.05,1.66h4.13Z"/>
        <path class="cls-2" d="m112.17,139.03c-.6.73-1.37,1.08-2.23,1.08-1.62,0-2.83-1.34-2.83-2.92s1.25-2.9,2.86-2.9c.9,0,1.66.39,2.21,1.16v-3.15h.71v7.67h-.71v-.95Zm-4.33-1.81c0,1.2.94,2.25,2.18,2.25,1.14,0,2.2-.85,2.2-2.23,0-1.28-.95-2.25-2.19-2.25s-2.19,1.04-2.19,2.23Z"/>
        <path class="cls-2" d="m119.3,134.44h.7v5.53h-.7v-.95c-.6.73-1.37,1.08-2.23,1.08-1.62,0-2.83-1.34-2.83-2.92s1.25-2.9,2.86-2.9c.9,0,1.66.39,2.21,1.16v-1.01Zm-4.33,2.77c0,1.2.94,2.25,2.18,2.25,1.14,0,2.21-.85,2.21-2.23,0-1.28-.96-2.25-2.2-2.25s-2.19,1.04-2.19,2.23Z"/>
        <path class="cls-2" d="m126.43,139.03c-.6.73-1.37,1.08-2.23,1.08-1.62,0-2.83-1.34-2.83-2.92s1.25-2.9,2.86-2.9c.9,0,1.66.39,2.21,1.16v-3.15h.71v7.67h-.71v-.95Zm-4.33-1.81c0,1.2.94,2.25,2.18,2.25,1.14,0,2.2-.85,2.2-2.23,0-1.28-.95-2.25-2.19-2.25s-2.19,1.04-2.19,2.23Z"/>
        <path class="cls-2" d="m69.96,146.64c-.66-.87-1.59-1.29-2.67-1.29-1.77,0-3.26,1.31-3.26,3.22s1.42,3.21,3.3,3.21c1.04,0,1.93-.43,2.63-1.24l.59.45c-.77.97-1.91,1.48-3.27,1.48-2.5,0-4.03-1.76-4.03-3.96s1.71-3.89,4.03-3.89c1.38,0,2.53.54,3.27,1.57l-.59.45Z"/>
        <path class="cls-2" d="m77.45,149.54c0,1.57-1.22,2.9-2.89,2.9s-2.89-1.32-2.89-2.9,1.23-2.93,2.89-2.93,2.89,1.34,2.89,2.93Zm-5.04,0c0,1.21.91,2.2,2.16,2.2s2.16-.99,2.16-2.2-.98-2.25-2.16-2.25-2.16,1.02-2.16,2.25Z"/>
        <path class="cls-2" d="m84.28,149.54c0,1.57-1.22,2.9-2.89,2.9s-2.89-1.32-2.89-2.9,1.23-2.93,2.89-2.93,2.89,1.34,2.89,2.93Zm-5.04,0c0,1.21.91,2.2,2.16,2.2s2.16-.99,2.16-2.2-.98-2.25-2.16-2.25-2.16,1.02-2.16,2.25Z"/>
        <path class="cls-2" d="m86.31,147.76c.55-.77,1.31-1.16,2.2-1.16,1.62,0,2.87,1.32,2.87,2.9s-1.22,2.92-2.84,2.92c-.87,0-1.62-.35-2.22-1.08v2.97h-.71v-7.56h.71v1.01Zm-.05,1.78c0,1.38,1.06,2.23,2.2,2.23,1.23,0,2.19-1.04,2.19-2.25s-.92-2.23-2.19-2.23-2.2.97-2.2,2.25Z"/>
        <path class="cls-2" d="m93.16,149.58c.03,1.27.9,2.2,2.08,2.2s1.71-.66,2.12-1.32l.59.31c-.56,1.1-1.43,1.66-2.64,1.66-1.83,0-2.89-1.41-2.89-2.89s1.12-2.93,2.85-2.93c1.57,0,2.84,1.14,2.87,2.97h-4.98Zm4.2-.62c-.29-1.15-1.12-1.66-2.07-1.66s-1.73.53-2.05,1.66h4.13Z"/>
        <path class="cls-2" d="m99.93,147.56c.42-.6.87-.95,1.43-.95.32,0,.49.1.64.19l-.38.6c-.08-.04-.22-.1-.38-.1-.52,0-.99.45-1.2,1.21-.09.35-.12.93-.12,1.68v2.11h-.75v-5.53h.75v.8Z"/>
        <path class="cls-2" d="m107.41,146.75h.7v5.53h-.7v-.95c-.6.73-1.37,1.08-2.23,1.08-1.62,0-2.83-1.34-2.83-2.92s1.25-2.9,2.86-2.9c.9,0,1.66.39,2.21,1.16v-1.01Zm-4.33,2.77c0,1.2.94,2.25,2.18,2.25,1.14,0,2.21-.85,2.21-2.23,0-1.28-.96-2.25-2.2-2.25s-2.19,1.04-2.19,2.23Z"/>
        <path class="cls-2" d="m110.35,144.69h.71v2.06h1.14v.63h-1.14v4.91h-.71v-4.91h-.98v-.63h.98v-2.06Z"/>
        <path class="cls-2" d="m114.09,145.06c0,.32-.27.59-.59.59s-.58-.27-.58-.59.27-.58.58-.58.59.26.59.58Zm-.94,1.7h.71v5.53h-.71v-5.53Z"/>
        <path class="cls-2" d="m114.81,146.75h.76l1.85,4.02,1.83-4.02h.76l-2.53,5.53h-.12l-2.55-5.53Z"/>
        <path class="cls-2" d="m125.91,146.75h.7v5.53h-.7v-.95c-.6.73-1.37,1.08-2.23,1.08-1.62,0-2.83-1.34-2.83-2.92s1.25-2.9,2.86-2.9c.9,0,1.66.39,2.21,1.16v-1.01Zm-4.33,2.77c0,1.2.94,2.25,2.18,2.25,1.14,0,2.21-.85,2.21-2.23,0-1.28-.96-2.25-2.2-2.25s-2.19,1.04-2.19,2.23Z"/>
        <path class="cls-2" d="m135.93,151.34c-.6.73-1.37,1.08-2.23,1.08-1.62,0-2.83-1.34-2.83-2.92s1.25-2.9,2.86-2.9c.9,0,1.66.39,2.21,1.16v-3.15h.71v7.67h-.71v-.95Zm-4.33-1.81c0,1.2.94,2.25,2.18,2.25,1.14,0,2.2-.85,2.2-2.23,0-1.28-.95-2.25-2.19-2.25s-2.19,1.04-2.19,2.23Z"/>
        <path class="cls-2" d="m138.71,149.58c.03,1.27.9,2.2,2.08,2.2s1.71-.66,2.12-1.32l.59.31c-.56,1.1-1.43,1.66-2.64,1.66-1.83,0-2.89-1.41-2.89-2.89s1.12-2.93,2.85-2.93c1.57,0,2.84,1.14,2.87,2.97h-4.98Zm4.2-.62c-.29-1.15-1.12-1.66-2.07-1.66s-1.73.53-2.05,1.66h4.13Z"/>
        <path class="cls-2" d="m61.11,157.12l3.49,7.48h-.8l-1.18-2.46h-3.23l-1.17,2.46h-.83l3.54-7.48h.18Zm-.09,1.58l-1.29,2.71h2.56l-1.27-2.71Z"/>
        <path class="cls-2" d="m65.64,156.93h.71v3.13c.57-.75,1.25-1.14,2.07-1.14,1.2,0,2.04.84,2.04,2.5v3.18h-.71v-3.01c0-1.3-.4-2.02-1.47-2.02-.59,0-1.08.26-1.46.75-.41.53-.48,1.07-.48,1.96v2.32h-.71v-7.67Z"/>
        <path class="cls-2" d="m77.51,161.85c0,1.57-1.22,2.9-2.89,2.9s-2.89-1.32-2.89-2.9,1.23-2.93,2.89-2.93,2.89,1.34,2.89,2.93Zm-5.04,0c0,1.21.91,2.2,2.16,2.2s2.16-.99,2.16-2.2-.98-2.25-2.16-2.25-2.16,1.02-2.16,2.25Z"/>
        <path class="cls-2" d="m79.29,159.87c.42-.6.87-.95,1.43-.95.32,0,.49.1.64.19l-.38.6c-.08-.04-.22-.1-.38-.1-.52,0-.99.45-1.2,1.21-.09.35-.12.93-.12,1.68v2.11h-.75v-5.53h.75v.8Z"/>
        <path class="cls-2" d="m82.42,159.87c.42-.6.87-.95,1.43-.95.32,0,.49.1.64.19l-.38.6c-.08-.04-.22-.1-.38-.1-.52,0-.99.45-1.2,1.21-.09.35-.12.93-.12,1.68v2.11h-.75v-5.53h.75v.8Z"/>
        <path class="cls-2" d="m90.56,161.85c0,1.57-1.22,2.9-2.89,2.9s-2.89-1.32-2.89-2.9,1.23-2.93,2.89-2.93,2.89,1.34,2.89,2.93Zm-5.04,0c0,1.21.91,2.2,2.16,2.2s2.16-.99,2.16-2.2-.98-2.25-2.16-2.25-2.16,1.02-2.16,2.25Z"/>
        <path class="cls-2" d="m94.16,159.07h.75l1.91,4.26,1.84-4.26h.76l-3.3,7.56h-.75l1.06-2.44-2.27-5.12Z"/>
        <path class="cls-2" d="m103.34,157.12h1.73c.78,0,1.37.05,1.73.19.76.29,1.23.96,1.23,1.8,0,.71-.33,1.3-.87,1.64-.53.33-1.3.38-2.33.38h-.74v3.48h-.75v-7.48Zm.75.73v2.54c.43,0,.85,0,1.24,0,.65,0,1.15-.04,1.48-.31.26-.21.44-.59.44-.97s-.19-.76-.47-.98c-.33-.25-.78-.28-1.37-.28h-1.32Z"/>
        <path class="cls-2" d="m109.86,159.87c.42-.6.87-.95,1.43-.95.32,0,.49.1.64.19l-.38.6c-.08-.04-.22-.1-.38-.1-.52,0-.99.45-1.2,1.21-.09.35-.12.93-.12,1.68v2.11h-.75v-5.53h.75v.8Z"/>
        <path class="cls-2" d="m112.96,161.89c.03,1.27.9,2.2,2.08,2.2s1.71-.66,2.12-1.32l.59.31c-.56,1.1-1.43,1.66-2.64,1.66-1.83,0-2.89-1.41-2.89-2.89s1.12-2.93,2.85-2.93c1.57,0,2.84,1.14,2.87,2.97h-4.98Zm4.2-.62c-.29-1.15-1.12-1.66-2.07-1.66s-1.73.53-2.05,1.66h4.13Zm-1.73-4.8h1.09l-1.51,1.57h-.7l1.12-1.57Z"/>
        <path class="cls-2" d="m119.19,163.44c.35.4.74.62,1.16.62.54,0,1.02-.4,1.02-.92,0-.32-.19-.62-.46-.77-1.27-.71-1.92-1.01-1.92-1.98,0-.88.68-1.47,1.52-1.47.6,0,1.06.29,1.53.75l-.46.47c-.33-.32-.67-.53-1.12-.53s-.83.32-.83.74c0,.28.18.59.43.74,1.27.74,1.98,1.02,1.98,2.02,0,.87-.67,1.64-1.67,1.64-.62,0-1.24-.28-1.64-.79l.45-.51Z"/>
        <path class="cls-2" d="m123.94,157h.71v2.06h1.14v.63h-1.14v4.91h-.71v-4.91h-.98v-.63h.98v-2.06Z"/>
        <path class="cls-2" d="m131.65,159.07h.7v5.53h-.7v-.95c-.6.73-1.37,1.08-2.23,1.08-1.62,0-2.83-1.34-2.83-2.92s1.25-2.9,2.86-2.9c.9,0,1.66.39,2.21,1.16v-1.01Zm-4.33,2.77c0,1.2.94,2.25,2.18,2.25,1.14,0,2.21-.85,2.21-2.23,0-1.28-.96-2.25-2.2-2.25s-2.19,1.04-2.19,2.23Z"/>
        <path class="cls-2" d="m138.42,164.6h-.71v-2.83c0-.43-.04-.78-.05-1.03-.03-.6-.52-1.13-1.25-1.13-.49,0-.98.24-1.29.65-.4.51-.47,1.17-.47,2v2.34h-.71v-5.53h.71v.95c.49-.71,1.1-1.09,1.9-1.09.84,0,1.45.44,1.75,1.33.49-.89,1.22-1.33,2.03-1.33,1.15,0,1.89.82,1.89,2.4v3.28h-.71v-3.02c0-.41-.05-.73-.06-.94-.03-.49-.5-1.03-1.25-1.03-.69,0-1.29.42-1.57,1.13-.18.45-.2.94-.2,1.45v2.42Z"/>
        <path class="cls-2" d="m149.23,161.85c0,1.57-1.22,2.9-2.89,2.9s-2.89-1.32-2.89-2.9,1.23-2.93,2.89-2.93,2.89,1.34,2.89,2.93Zm-5.04,0c0,1.21.91,2.2,2.16,2.2s2.16-.99,2.16-2.2-.98-2.25-2.16-2.25-2.16,1.02-2.16,2.25Z"/>
        <path class="cls-2" d="m83.5,179.08c-1.03-1.64-1.46-2.96-1.46-5.09,0-1.82.34-3.24,1.46-4.9h1.76c-1.27,1.44-1.78,3.01-1.78,4.95,0,2.26.6,3.58,1.78,5.03h-1.76Z"/>
        <path class="cls-2" d="m86.94,174.76c.34.65.74.98,1.24.98s.86-.31.86-.7c0-.27-.18-.58-.48-.83-1.55-1.3-2.47-2.01-2.47-3.07s.93-1.89,2.05-1.89c.95,0,1.57.51,2.17,1.2l-1.06.94c-.35-.5-.72-.77-1.13-.77-.38,0-.64.22-.64.52s.22.48.44.67c1.4,1.23,2.51,1.81,2.51,3.18,0,1.25-.94,2.13-2.29,2.13-1.09,0-1.86-.53-2.41-1.63l1.2-.72Z"/>
        <path class="cls-2" d="m99.22,173.19c0,2.2-1.72,3.9-3.87,3.9s-3.92-1.75-3.92-3.93,1.77-3.92,3.9-3.92,3.89,1.67,3.89,3.95Zm-6.35,0c0,1.52,1.15,2.53,2.47,2.53s2.44-1.11,2.44-2.54-1.03-2.57-2.46-2.57c-1.34,0-2.45,1.04-2.45,2.58Z"/>
        <path class="cls-2" d="m107.4,175.66c-.99.97-1.84,1.44-3.25,1.44-2.34,0-3.96-1.64-3.96-3.94s1.83-3.92,3.98-3.92c1.24,0,2.44.54,3.26,1.5l-1,.96c-.68-.72-1.42-1.09-2.29-1.09-1.41,0-2.55,1.08-2.55,2.55,0,1.54,1.1,2.57,2.58,2.57.93,0,1.55-.38,2.26-1.08l.97,1.01Z"/>
        <path class="cls-2" d="m110.96,169.43h1.44l2.89,7.48h-1.48l-.58-1.54h-3.05l-.61,1.54h-1.48l2.89-7.48Zm.73,1.98l-.99,2.56h1.98l-.99-2.56Z"/>
        <path class="cls-2" d="m116.38,169.43h1.74c.97,0,1.65.15,2.12.6.37.35.6.93.6,1.56,0,.79-.32,1.39-.95,1.77-.64.38-1.3.38-2.08.38v3.17h-1.43v-7.48Zm1.43,2.93h.67c.65,0,.97-.25.97-.76s-.35-.77-1.03-.77h-.6v1.53Z"/>
        <path class="cls-2" d="m123.4,169.1c1.02,1.62,1.45,2.94,1.45,5.09,0,1.82-.33,3.24-1.45,4.9h-1.76c1.27-1.44,1.81-3,1.81-4.95,0-2.25-.62-3.56-1.81-5.03h1.76Z"/>
      </g>
      <g>
        <path class="cls-2" d="m136.86,80.29c-2.54-1.48-5.53-1.49-7.99-.31,1.08-2.9,1.69-6.03,1.69-9.31,0-3.52-.7-6.87-1.93-9.96,2.49,1.3,5.56,1.36,8.17-.14,4.08-2.34,5.49-7.53,3.15-11.61s-7.53-5.49-11.61-3.15c-2.75,1.58-4.25,4.46-4.24,7.42-3.91-4.56-9.31-7.79-15.45-8.94,2.16-1.54,3.57-4.05,3.57-6.91,0-4.7-3.81-8.5-8.5-8.5s-8.51,3.81-8.51,8.5c0,2.85,1.42,5.37,3.57,6.91-6.44,1.2-12.07,4.69-16.01,9.6.07-3-1.41-5.94-4.18-7.56-4.06-2.36-9.27-.99-11.63,3.07-2.36,4.06-.99,9.27,3.07,11.63,2.8,1.63,6.12,1.45,8.7-.13-1.18,3.03-1.85,6.31-1.85,9.75s.64,6.52,1.75,9.47c-2.55-1.51-5.79-1.67-8.55-.1-4.08,2.33-5.49,7.53-3.15,11.61,2.34,4.08,7.53,5.49,11.61,3.15,2.73-1.57,4.23-4.42,4.24-7.37,4.18,5.21,10.26,8.81,17.2,9.78-2.81,1.39-4.77,4.26-4.77,7.6,0,4.7,3.81,8.5,8.51,8.5s8.5-3.81,8.5-8.5c0-3.35-1.95-6.22-4.77-7.6,6.63-.93,12.48-4.25,16.63-9.1.16,2.75,1.64,5.37,4.2,6.87,4.06,2.36,9.27.99,11.63-3.07,2.36-4.06.99-9.27-3.07-11.63Zm-33.13,11.31c-11.56,0-20.93-9.37-20.93-20.93s9.37-20.93,20.93-20.93,20.93,9.37,20.93,20.93-9.37,20.93-20.93,20.93Z"/>
        <path class="cls-2" d="m105.52,57.78c2.56.62,3.73,1.69,5.12,3.08l-3.05,2.98c-1.36-1.4-2.76-2.17-4.15-2.17-1.59,0-2.69,1.01-2.69,2.2,0,1.69,1.3,2.01,6.35,4.22,2.47,1.07,4.48,3.54,4.48,6.81,0,1.75-.58,3.31-1.62,4.64-1.33,1.69-2.76,2.08-4.44,2.43v4.25h-2.98v-4.15c-2.37-.26-4.67-1.23-7.23-3.99l3.02-3.08c1.85,1.95,3.63,3.08,5.58,3.08,1.78,0,3.34-1.36,3.34-3.21,0-.94-.42-1.95-1.01-2.34-1.59-1.07-3.5-2.08-5.61-2.98-2.01-.88-4.22-3.21-4.22-6.06,0-3.31,2.72-5.74,6.13-5.9v-1.59h2.98v1.78Z"/>
      </g>
    </g>
  </g>
</svg>