<?xml version="1.0" encoding="UTF-8"?>
<svg xmlns="http://www.w3.org/2000/svg" xmlns:xlink="http://www.w3.org/1999/xlink" viewBox="0 0 554.01 496.02">
  <defs>
    <style>
      .cls-1, .cls-2 {
        fill: none;
      }

      .cls-3 {
        letter-spacing: -.09em;
      }

      .cls-4 {
        letter-spacing: -.18em;
      }

      .cls-5 {
        letter-spacing: -.09em;
      }

      .cls-6 {
        letter-spacing: -.04em;
      }

      .cls-7 {
        letter-spacing: -.09em;
      }

      .cls-8 {
        clip-path: url(#clippath);
      }

      .cls-9 {
        letter-spacing: 0em;
      }

      .cls-10 {
        letter-spacing: 0em;
      }

      .cls-11 {
        letter-spacing: .03em;
      }

      .cls-12 {
        letter-spacing: -.07em;
      }

      .cls-13 {
        letter-spacing: -.03em;
      }

      .cls-14 {
        letter-spacing: .03em;
      }

      .cls-15 {
        fill: #fce1d8;
      }

      .cls-16, .cls-17 {
        fill: #fff;
      }

      .cls-18, .cls-19 {
        fill: #3765ae;
      }

      .cls-20 {
        fill: #633741;
      }

      .cls-21 {
        letter-spacing: -.14em;
      }

      .cls-22 {
        letter-spacing: -.2em;
      }

      .cls-23 {
        letter-spacing: -.21em;
      }

      .cls-24 {
        letter-spacing: -.05em;
      }

      .cls-25 {
        mix-blend-mode: multiply;
      }

      .cls-26 {
        letter-spacing: -.1em;
      }

      .cls-27 {
        letter-spacing: -.1em;
      }

      .cls-28 {
        letter-spacing: 0em;
      }

      .cls-29 {
        letter-spacing: .01em;
      }

      .cls-30 {
        letter-spacing: -.1em;
      }

      .cls-31 {
        letter-spacing: -.02em;
      }

      .cls-2 {
        stroke: #6d9dc5;
        stroke-dasharray: 0 0 11.97 11.97;
        stroke-linecap: round;
        stroke-linejoin: round;
        stroke-width: 4px;
      }

      .cls-32 {
        letter-spacing: -.11em;
      }

      .cls-33 {
        letter-spacing: -.03em;
      }

      .cls-34 {
        letter-spacing: -.03em;
      }

      .cls-35 {
        mix-blend-mode: screen;
      }

      .cls-36 {
        letter-spacing: 0em;
      }

      .cls-37 {
        letter-spacing: -.19em;
      }

      .cls-38 {
        letter-spacing: -.05em;
      }

      .cls-39 {
        filter: url(#drop-shadow-7);
      }

      .cls-39, .cls-40 {
        fill: #f9be97;
      }

      .cls-40 {
        filter: url(#drop-shadow-3);
      }

      .cls-41 {
        filter: url(#drop-shadow-2);
      }

      .cls-41, .cls-42, .cls-43 {
        fill: #f9c4b2;
      }

      .cls-42 {
        filter: url(#drop-shadow-9);
      }

      .cls-43 {
        filter: url(#drop-shadow-5);
      }

      .cls-44 {
        filter: url(#drop-shadow-8);
      }

      .cls-44, .cls-45 {
        fill: #e2876d;
      }

      .cls-45 {
        filter: url(#drop-shadow-4);
      }

      .cls-46 {
        filter: url(#drop-shadow-6);
      }

      .cls-46, .cls-47 {
        fill: #f2a278;
      }

      .cls-47 {
        filter: url(#drop-shadow-1);
      }

      .cls-48 {
        letter-spacing: -.09em;
      }

      .cls-49 {
        letter-spacing: -.04em;
      }

      .cls-50 {
        letter-spacing: -.15em;
      }

      .cls-51 {
        letter-spacing: -.04em;
      }

      .cls-52 {
        isolation: isolate;
      }

      .cls-53 {
        letter-spacing: 0em;
      }

      .cls-19 {
        font-size: 14px;
      }

      .cls-19, .cls-54 {
        font-family: CenturyGothicPro-Bold, 'Century Gothic Pro';
        font-weight: 700;
      }

      .cls-54 {
        fill: #003d7c;
        font-size: 12.49px;
      }

      .cls-55 {
        fill: #c5e5f9;
        opacity: .6;
      }

      .cls-56 {
        fill: #d9effb;
      }

      .cls-56, .cls-17 {
        opacity: .55;
      }

      .cls-57 {
        fill: #f6fbfe;
        opacity: .5;
      }

      .cls-58 {
        letter-spacing: -.11em;
      }

      .cls-59 {
        fill: #d9eff9;
        opacity: .8;
      }

      .cls-60 {
        fill: #f9fdff;
        opacity: .4;
      }

      .cls-61 {
        fill: #abd5f3;
        opacity: .65;
      }

      .cls-62 {
        fill: #eaf6fb;
        opacity: .95;
      }
    </style>
    <clipPath id="clippath">
      <rect class="cls-1" width="554.01" height="496.02"/>
    </clipPath>
    <filter id="drop-shadow-1" filterUnits="userSpaceOnUse">
      <feOffset dx="0" dy="2"/>
      <feGaussianBlur result="blur" stdDeviation="2"/>
      <feFlood flood-color="#010101" flood-opacity=".25"/>
      <feComposite in2="blur" operator="in"/>
      <feComposite in="SourceGraphic"/>
    </filter>
    <filter id="drop-shadow-2" filterUnits="userSpaceOnUse">
      <feOffset dx="0" dy="2"/>
      <feGaussianBlur result="blur-2" stdDeviation="2"/>
      <feFlood flood-color="#010101" flood-opacity=".25"/>
      <feComposite in2="blur-2" operator="in"/>
      <feComposite in="SourceGraphic"/>
    </filter>
    <filter id="drop-shadow-3" filterUnits="userSpaceOnUse">
      <feOffset dx="0" dy="2"/>
      <feGaussianBlur result="blur-3" stdDeviation="2"/>
      <feFlood flood-color="#010101" flood-opacity=".25"/>
      <feComposite in2="blur-3" operator="in"/>
      <feComposite in="SourceGraphic"/>
    </filter>
    <filter id="drop-shadow-4" filterUnits="userSpaceOnUse">
      <feOffset dx="0" dy="2"/>
      <feGaussianBlur result="blur-4" stdDeviation="2"/>
      <feFlood flood-color="#010101" flood-opacity=".25"/>
      <feComposite in2="blur-4" operator="in"/>
      <feComposite in="SourceGraphic"/>
    </filter>
    <filter id="drop-shadow-5" filterUnits="userSpaceOnUse">
      <feOffset dx="0" dy="2"/>
      <feGaussianBlur result="blur-5" stdDeviation="2"/>
      <feFlood flood-color="#010101" flood-opacity=".25"/>
      <feComposite in2="blur-5" operator="in"/>
      <feComposite in="SourceGraphic"/>
    </filter>
    <filter id="drop-shadow-6" filterUnits="userSpaceOnUse">
      <feOffset dx="0" dy="2"/>
      <feGaussianBlur result="blur-6" stdDeviation="2"/>
      <feFlood flood-color="#010101" flood-opacity=".25"/>
      <feComposite in2="blur-6" operator="in"/>
      <feComposite in="SourceGraphic"/>
    </filter>
    <filter id="drop-shadow-7" filterUnits="userSpaceOnUse">
      <feOffset dx="0" dy="2"/>
      <feGaussianBlur result="blur-7" stdDeviation="2"/>
      <feFlood flood-color="#010101" flood-opacity=".25"/>
      <feComposite in2="blur-7" operator="in"/>
      <feComposite in="SourceGraphic"/>
    </filter>
    <filter id="drop-shadow-8" filterUnits="userSpaceOnUse">
      <feOffset dx="0" dy="2"/>
      <feGaussianBlur result="blur-8" stdDeviation="2"/>
      <feFlood flood-color="#010101" flood-opacity=".25"/>
      <feComposite in2="blur-8" operator="in"/>
      <feComposite in="SourceGraphic"/>
    </filter>
    <filter id="drop-shadow-9" filterUnits="userSpaceOnUse">
      <feOffset dx="0" dy="2"/>
      <feGaussianBlur result="blur-9" stdDeviation="2"/>
      <feFlood flood-color="#010101" flood-opacity=".25"/>
      <feComposite in2="blur-9" operator="in"/>
      <feComposite in="SourceGraphic"/>
    </filter>
  </defs>
  <g class="cls-52">
    <g id="Capa_2" data-name="Capa 2">
      <g id="Capa_1-2" data-name="Capa 1">
        <g class="cls-8">
          <circle class="cls-60" cx="273.73" cy="262.46" r="233.64"/>
          <circle class="cls-57" cx="273.73" cy="262.46" r="225.01"/>
          <circle class="cls-56" cx="273.73" cy="262.46" r="214.36"/>
          <circle class="cls-55" cx="273.73" cy="262.46" r="196.29"/>
          <circle class="cls-61" cx="273.73" cy="262.46" r="176.79"/>
          <circle class="cls-59" cx="273.73" cy="262.46" r="94.21"/>
          <circle class="cls-62" cx="273.73" cy="262.46" r="69.93"/>
          <ellipse class="cls-18" cx="273.43" cy="263.09" rx="53.77" ry="52.53" transform="translate(-55.84 74.5) rotate(-14.09)"/>
          <g>
            <path class="cls-16" d="m228.6,237.82c-.12,1.02.58,2.11.71,3.19.14,1.14-.16,2.36.09,3.45.62,2.71.7,2.69.32,4.81-.07.37-.1.75-.15,1.13-.34,2.72-.41,5.25,1.4,7.75.97,1.34,2.5,1.53,3.36,2.72.2.8.56,1.6.56,2.4,0,.83,1.94,1.01.87,1.95.8.39,1.68.82,2.39,1.17-.03-.42-.09-1.19-.18-2.31.72.51,1.21.76,1.58,1.14.88.92,1.59,2.03,2.56,2.82,1.04.86,2.32,1.44,1.75,3.14,2.64,1.49,5.32,2.93,8.5,2.36,1.47-.26,2.81-.8,4.22.42.73.63,1.89.82,2.89,1.07.21.05.58-.53.87-.82,4.75,4.2,4.85,4.22,10.24,2.43-.03-.13-.07-.39-.1-.38-.78.03-1.56.12-2.33.14-2.62.08-3.11-.46-3.58-3.22-.14-.81-.83-1.53-1.24-2.24-1.64.31-2.92.55-4.29.8.14-1.85.25-3.41.37-5.04-1.02.26-1.82.46-2.62.66-.41,1.15-.18,2.53-1.9,3.09-1.81.59-2.78-.57-3.98-1.24-.54-2.17-1.08-4.29-1.6-6.39q2.34-2.92,5.8-2.77c.05-.5.11-1,.2-1.84,1.74-.06,3.52-.12,4.91-.17,1.37,1.53,2.53,2.84,3.89,4.37.42-2.64-1.5-4.15-2.13-6.42,1.01-1.19,2.14-2.48,3.21-3.81.97-1.21.88-1.51-.7-3.32.54-.54,1.48-1.02,1.55-1.62.24-1.92,1.73-2.65,2.96-3.67-.08-.65-.17-1.3-.25-1.93.99-.54,1.92-1.05,2.79-1.53.24.49.4.84.63,1.31,1.39-1.36,2.67-2.61,3.95-3.85-.16-.18-.32-.36-.48-.54-.68.48-1.36.97-2.2,1.56-.57-.37-1.21-.78-2.11-1.36,1.09-1.32,2.26-2.28,2.8-3.52.62-1.42,2.29-1.56,3.09-2.7-1.25-1.34-2.49-1.94-4-2.09-1.15-.11-2.11-.59-2.79-1.63-.42-.63-1.01-1.16-1.61-1.64-.26-.21-.73-.17-1.15-.26-.22.76-.4,1.43-.65,2.32-2.67-.77-3.95-5.01-7.39-2.5.31,1.55-.71,3.42.96,4.83.23.19.33.97.16,1.12-1.58,1.39-.46,3.25-.65,4.78-2.9.4-2.47-2.11-3.11-3.22-1.34.03-2.4.2-3.4.03-1.01-.17-1.97-.63-2.92-1.04-1.04-.44-1.25-1.36-1-2.33.42-1.62,2-2.51,2.61-4.14.35-.94,1.91-.04,2.92-.03.76,0,1.52-.34,3.14-.75-1.54-.59-2.28-.87-2.96-1.13.51-.97.98-1.66,1.24-2.41.97-2.8,1.35-2.99,3.79-1.69.36.19.71.41,1.18.68-.87,1.11-1.72,2.19-2.56,3.27q2.79-.36,6.06,1.35c.7-.61,1.41-1.24,2.05-1.81-.43-.44-.79-.8-1.13-1.14.44-.91.81-1.67,1.16-2.39-3.24-1.41-6.25-2.72-9.05-3.94-1.6.32-2.98.59-4.35.86-.04-.2-.09-.41-.13-.61,1.26-.32,2.51-.63,3.66-.92.22-.61.42-1.16.62-1.7-.75.23-1.49.48-2.23.73.11.15.22.31.34.49-.71.04-1.36.07-1.94.1-1.12.43-2.22.91-3.29,1.41-.56.89-1.09,1.73-1.63,2.58.43.61.91,1.29,1.93,2.72-1.68-.45-2.47-.66-3.12-.84.17-.82.29-1.41.37-1.82-.65-.14-1.26-.28-1.85-.41-1.6.93-3.14,1.93-4.63,3,.42.08.8.14,1.22.22-.41.64-.69,1.07-.89,1.39-.52-.14-1.17-.38-1.73-.56-4.87,3.77-9.01,8.3-12.29,13.37.38.67.57,1.49.44,2.54Zm24.39-20.31c.6.92,1.33,2.05,2.06,3.18-.23.21-.47.42-.7.62-1.17-1.01-2.35-2.02-3.73-3.2.84-.21,1.46-.37,2.37-.59Z"/>
            <path class="cls-16" d="m262.02,212.55c1.54-.52,2.85-.17,4.02,1.19.85.98,2.57.8,3.48,1.98.14.19.72.04,1.1.05-.24.57-.44,1.03-.8,1.89,1.48.56,3.3.68,3.99,1.63,1.78,2.43,4.11,2.75,7.28,2.9-.75-1.05-1.74-1.83-1.64-2.42.19-1.11.63-2.01-.86-2.49.51-.42.99-.82,1.46-1.21-.15-.59-.28-1.12-.44-1.75.35-.17.76-.27,1-.53.23-.25.27-.66.49-1.29-.97-.28-1.81-.48-2.57-1.22-.24-.23-.49-.45-.76-.65-5.61-.39-11.38.09-17.14,1.54-.19.05-.38.1-.57.15.49.39,1.08.55,1.96.26Z"/>
            <path class="cls-16" d="m290.56,307.43c.88-.56,1.38-1.11,1.71-1.99.16-.42.27-1.05.58-1.18,2.96-1.26,4.28-3.77,5.08-6.62.44-1.55,1.65-2.61,2.84-2.95,2.53-.71,3.15-2.55,3.8-4.63.98-3.13,1.63-6.42,3.83-9.04.09-.1.2-.23.2-.35.02-.65,0-1.29,0-2.12-1.71.36-2.77-1.61-4.48-.95-1.57.61-3.05.16-4.59-.19-.56-.13-1.26.38-2.12.66-.99-1.31-2.21-2.93-3.5-4.64-1.48.03-3.16.06-4.95.1-1.99-.84-4.16-1.74-6.21-2.6-.83.72-1.04,1.55-2.42,1.19-1.46-.38-3.33-1.19-4.65.62-.29-.58-.45-.92-.75-1.53-.82.94-1.01,2.28-2.42,2.47-1.64.22-.06,2.76-1.93,2.99.37,1.46.73,2.93,1.23,4.9-.66,1.06-1.51,2.44-2.36,3.82,1.41.88.17,2.51.76,3.52,1.46.99,2.87,1.82,4.13,2.82,1.1.87,1.91,2.15,3.08,2.88,1.29.8,2.83,1.19,3.96,1.63,1.42,4.52,1.82,8.63.98,12.81.26.42.89.96.86,1.45-.08,1.22.03,2.43.22,3.6.03.2.07.37.11.54.89-.18,1.78-.38,2.68-.6.18-.05.36-.1.54-.14.69-2.49,1.47-4.98,3.8-6.47Z"/>
            <path class="cls-16" d="m317.05,235.79c-1.71,1.39-1.57,3-1.13,4.81.19.76.49,1.65.28,2.33-.98,3.11-.02,6.29-.9,9.51.73-.03,1.11-.05,1.92-.08.14,1.59,1.2,2.83.34,4.44-.29.54.05,2.02.52,2.27,2.58,1.35,2.63,4.83,5.3,5.83,1.18-.88,2.43-1.81,3.75-2.78-.03-4.01-.54-8.07-1.55-12.13-1.52-6.03-4.04-11.55-7.36-16.43-.11.01-.22.02-.33.03-.2.58-.25,1.72-.83,2.19Z"/>
            <path class="cls-16" d="m301.5,220.89c.64.8,1.26,1.58,1.7,2.13,1.81.08,3.44.15,5.26.23-.2.93-.33,1.51-.62,2.83,1.21.66,2.62,1.42,4.1,2.23-.57.68-1.24,1.48-1.61,1.91,1.09,1.88,1.99,3.43,2.9,4.99.79.13,1.66.27,2.96.48-.58-1.43,1.46-2.98-.82-4.07-.11-.85-.56-1.71-.61-2.56-2.93-3.42-6.28-6.44-9.97-8.99-1.04-.37-2.12-.17-3.29.83Z"/>
            <path class="cls-16" d="m269.45,264.25c-.9-.04-2.09.57-2.67.18-2.27-1.52-4-.06-6.1.42,1.23,2.61,1.83.36,2.61.05,2.33-.18,4.47,2.66,7.16.34-.37-.38-.67-.97-1-.99Z"/>
            <path class="cls-16" d="m276.63,234.22c-.09.48-.22.95-.36,1.53,1.58-.04,2.92-.07,4.34-.11-.16-.64-.32-1.27-.41-1.61-1.26-.49-2.31-.9-3.35-1.3-.07.5-.13,1-.23,1.5Z"/>
            <path class="cls-16" d="m272.02,266.11c.54.4,1.14.84,1.72,1.27,1.34-2.19,4.04-1.15,6.12-2.91-2.85.27-5.15.47-7.44.72-.12.01-.19.43-.39.92Z"/>
            <path class="cls-16" d="m284.91,214.72q2.95,1.94,4.98-.24-1.97-.83-4.98.24Z"/>
          </g>
          <g>
            <path class="cls-47" d="m160.08,256.48c1.59.81,3.22,1.46,4.89,1.87,6.52,1.59,13.41-1.19,18.77-4.78,7.61-5.09,24.12-14.77,25.45-16.73,1.33-1.97-.67-7.13-6.09-5.83-7.76,1.86-16.77,4.22-16.77,4.22,0,0,5.55-8.91,7.5-11.12,1.95-2.21,23.72-23.73,22.05-27.12-3.05-6.21-27.86,18.29-27.86,18.29,0,0,11.42-15.66,15.77-21.06,4.35-5.4,6.78-9.73,4.47-11.57-2.31-1.83-5.55,1.4-5.55,1.4l-24.91,24.37s9.67-12.12,17.32-23.48c4.53-6.72,1.35-9.72-7.08-1.24-8.43,8.48-17.1,19.31-17.1,19.31,0,0,2.33-7.03,7.05-13.82,7.03-10.11,4.51-11.52,3.2-12.16-2.75-1.34-22.53,24.93-22.54,24.94-4.86,6.4-10.36,12.07-13.96,19.37-1.76,3.56-3.06,7.4-3.4,11.37-.45,5.27.69,8.63,4.51,12.34,4.07,3.96,8.89,8.65,14.26,11.42Z"/>
            <g class="cls-25">
              <path class="cls-15" d="m203.08,185.98c1.38.49,2.57,1.26,3.72,2.12,0,0-.69.11-.69.11,2.69-3.39,3.21-3,.79.58,0,0-.27.39-.27.39-1.32-.91-2.58-1.9-3.56-3.2h0Z"/>
            </g>
            <g class="cls-25">
              <path class="cls-15" d="m210.68,198.61c1.06.55,1.94,1.3,2.78,2.11,0,0-.69-.02-.69-.02.83-.78,1.72-1.48,2.8-1.92-.59,1.19-1.51,2.11-2.49,2.97-.92-.95-1.8-1.94-2.4-3.15h0Z"/>
            </g>
            <g class="cls-25">
              <path class="cls-15" d="m192.52,181.16c1.12.31,2.07.9,2.99,1.58,0,0-.69.11-.69.11.71-.92,3.01-3.39,1.55-.65-.29.57-.66,1.11-1.03,1.63-1.08-.74-2.09-1.54-2.82-2.66h0Z"/>
            </g>
            <g class="cls-25">
              <path class="cls-15" d="m178.08,179.94c1,.28,1.85.78,2.65,1.33l-.69.11c.67-.94,1.41-1.8,2.4-2.44-.36,1.3-1.1,2.39-1.91,3.43-.91-.7-1.79-1.41-2.45-2.42h0Z"/>
            </g>
            <g class="cls-25">
              <path class="cls-15" d="m206.68,232.62c-1.28,1.16-2.7,2.04-4.16,2.87l.2-.67c.78,1.54,1.49,3.11,1.93,4.82-1.15-1.35-2.02-2.84-2.82-4.36l-.23-.43c1.62-.88,3.26-1.72,5.08-2.23h0Z"/>
            </g>
            <g class="cls-25">
              <path class="cls-15" d="m208.74,236.86c-.79,1.44-2.01,2.35-3.61,2.69.78-1.44,2.01-2.35,3.61-2.69h0Z"/>
            </g>
            <g class="cls-25">
              <path class="cls-15" d="m202.27,205.24c1.52.4,2.63,1.57,2.92,3.12-1.41-.72-2.29-1.67-2.92-3.12h0Z"/>
            </g>
            <g class="cls-25">
              <path class="cls-15" d="m194.42,195.82c1.49.64,2.52,1.79,2.99,3.35-1.51-.66-2.5-1.78-2.99-3.35h0Z"/>
            </g>
            <g class="cls-25">
              <path class="cls-15" d="m184.38,190.44c1.61-.29,3.28.7,3.8,2.25-1.54-.57-2.55-1.18-3.8-2.25h0Z"/>
            </g>
            <g class="cls-25">
              <path class="cls-15" d="m173,187.71c1.04-.21,1.8.2,2.19,1.19-1.04.22-1.8-.2-2.19-1.19h0Z"/>
            </g>
            <g class="cls-25">
              <path class="cls-15" d="m183.79,213.39c-.64,1.7-2.37,2.87-4.19,2.81,1.33-1.26,2.52-2.05,4.19-2.81h0Z"/>
            </g>
            <g class="cls-35">
              <path class="cls-20" d="m211.28,198.18c.35-1.08,1.13-1.63,2.26-1.58-.35,1.08-1.13,1.62-2.26,1.58h0Z"/>
            </g>
            <g class="cls-35">
              <path class="cls-20" d="m159.56,203.49c-4.37,7.9-10.34,15.15-15.18,22.76.96-4.56,3.55-8.57,6.11-12.38,2.68-3.75,5.59-7.33,9.07-10.38h0Z"/>
            </g>
            <g class="cls-35">
              <path class="cls-20" d="m207.42,233.17c-.54,1.19-1.5,1.84-2.8,1.88.54-1.19,1.5-1.83,2.8-1.88h0Z"/>
            </g>
            <g class="cls-35">
              <path class="cls-20" d="m203.7,185.51c.29-1.31,1.1-2.19,2.39-2.56-.28,1.31-1.1,2.19-2.39,2.56h0Z"/>
            </g>
            <g class="cls-35">
              <path class="cls-20" d="m194.82,179.27c0,.97-.53,1.51-1.51,1.52,0-.98.54-1.51,1.51-1.52h0Z"/>
            </g>
            <g class="cls-35">
              <path class="cls-20" d="m180.15,177.96c-.11,1.01-.71,1.54-1.73,1.52.11-1.01.71-1.54,1.73-1.52h0Z"/>
            </g>
            <g class="cls-35">
              <path class="cls-20" d="m179.1,210.79c-.17,1.39-.92,2.42-2.2,3,.17-1.39.92-2.41,2.2-3h0Z"/>
            </g>
            <g class="cls-25">
              <path class="cls-15" d="m174.71,208.29c.06,1.08-.46,1.8-1.51,2.06-.06-1.08.47-1.79,1.51-2.06h0Z"/>
            </g>
            <g class="cls-25">
              <path class="cls-15" d="m196.68,241.94c1.01.37,1.46,1.13,1.29,2.19-1.01-.37-1.46-1.13-1.29-2.19h0Z"/>
            </g>
          </g>
          <g>
            <path class="cls-41" d="m194.19,331.15c1.7-.88,3.28-1.91,4.68-3.12,5.45-4.72,7.3-12.48,7.5-19.41.28-9.83,2.08-30.31,1.18-32.7-.89-2.39-6.66-3.85-8.89,1.7-3.2,7.95-6.74,17.31-6.74,17.31,0,0-4.35-10.4-5.08-13.49-.73-3.08-6.02-35.53-10.02-36.18-7.33-1.19-1.31,35.77-1.31,35.77,0,0-6.61-19.75-8.63-26.92-2.02-7.17-4.3-12-7.35-11.11-3.04.88-2.22,5.73-2.22,5.73l5.85,36.97s-4.6-16.01-9.78-29.77c-3.07-8.15-7.67-7.24-5.49,5.43,2.18,12.66,6.27,26.99,6.27,26.99,0,0-4.71-6.41-7.71-14.77-4.48-12.45-7.29-11.12-8.66-10.37-2.88,1.58,7.81,35.24,7.81,35.25,2.58,8.24,4.12,16.58,8.28,24.28,2.03,3.75,4.57,7.28,7.84,10.05,4.34,3.68,7.98,4.76,13.61,3.73,5.99-1.1,13.11-2.4,18.87-5.38Z"/>
            <g>
              <g class="cls-25">
                <path class="cls-15" d="m159.15,249.92c1.29-.88,2.72-1.44,4.19-1.91,0,0-.31.62-.31.62-1.3-4.47-.69-4.66.93-.31,0,0,.16.45.16.45-1.61.58-3.24,1.06-4.97,1.14h0Z"/>
              </g>
              <g class="cls-25">
                <path class="cls-15" d="m174.94,251.13c1.14-.56,2.35-.86,3.58-1.08,0,0-.41.55-.41.55-.16-1.21-.23-2.42.03-3.64.64,1.26.86,2.62,1.01,4-1.39.21-2.79.37-4.21.17h0Z"/>
              </g>
              <g class="cls-25">
                <path class="cls-15" d="m148.35,256.18c.98-.77,2.09-1.22,3.25-1.6,0,0-.31.62-.31.62-.31-1.01-.53-2.02-.51-3.1.77.97,1.21,2.09,1.61,3.24-1.3.47-2.62.86-4.04.83h0Z"/>
              </g>
              <g class="cls-25">
                <path class="cls-15" d="m138.31,268.06c.88-.68,1.84-1.1,2.83-1.46l-.31.62c-.49-1.33-1.42-5.59.28-2.01.33.7.59,1.44.8,2.18-1.17.36-2.32.69-3.6.66h0Z"/>
              </g>
              <g class="cls-25">
                <path class="cls-15" d="m202.23,275.8c.19,1.83.07,3.64-.11,5.43l-.43-.55c1.83.27,3.65.62,5.43,1.27-1.89.13-3.74-.04-5.57-.28l-.49-.06c.23-1.96.52-3.9,1.17-5.8h0Z"/>
              </g>
              <g class="cls-25">
                <path class="cls-15" d="m207.22,276.63c.72,1.59.76,3.22.1,4.84-.72-1.58-.75-3.22-.1-4.84h0Z"/>
              </g>
              <g class="cls-25">
                <path class="cls-15" d="m175.51,262.62c1.3-1.03,3.01-1.27,4.55-.62-1.51.73-2.9.92-4.55.62h0Z"/>
              </g>
              <g class="cls-25">
                <path class="cls-15" d="m162.38,263.64c1.5-.86,3.14-1.04,4.79-.53-1.52.86-3.12,1.04-4.79.53h0Z"/>
              </g>
              <g class="cls-25">
                <path class="cls-15" d="m151.42,269.08c.78-1.55,2.66-2.39,4.34-1.92-1.47.94-2.65,1.46-4.34,1.92h0Z"/>
              </g>
              <g class="cls-25">
                <path class="cls-15" d="m141.95,277.35c.48-1,1.31-1.41,2.4-1.18-.48,1-1.31,1.4-2.4,1.18h0Z"/>
              </g>
              <g class="cls-25">
                <path class="cls-15" d="m171.15,283.87c1.05,1.63.99,3.85-.15,5.42-.23-1.94-.18-3.5.15-5.42h0Z"/>
              </g>
              <g class="cls-35">
                <path class="cls-20" d="m174.93,250.33c-.67-.98-.67-2,.03-2.96.68.98.67,2-.03,2.96h0Z"/>
              </g>
              <g class="cls-35">
                <path class="cls-20" d="m147.41,298.93c4.1,8.78,6.74,18.53,10.49,27.45-3.35-3.72-5.23-8.47-6.97-13.08-1.62-4.68-2.95-9.44-3.52-14.38h0Z"/>
              </g>
              <g class="cls-35">
                <path class="cls-20" d="m203.17,275.49c.65,1.21.63,2.45-.09,3.62-.66-1.21-.62-2.45.09-3.62h0Z"/>
              </g>
              <g class="cls-35">
                <path class="cls-20" d="m159.12,249.1c-.92-1.08-1.18-2.33-.76-3.69.92,1.08,1.18,2.33.76,3.69h0Z"/>
              </g>
              <g class="cls-35">
                <path class="cls-20" d="m148.13,252.99c.8.62.94,1.42.39,2.27-.8-.62-.94-1.42-.39-2.27h0Z"/>
              </g>
              <g class="cls-35">
                <path class="cls-20" d="m137.86,265.02c.76.73.86,1.58.25,2.45-.77-.73-.85-1.58-.25-2.45h0Z"/>
              </g>
              <g class="cls-35">
                <path class="cls-20" d="m165.95,286.36c1.06,1.03,1.5,2.32,1.26,3.79-1.07-1.03-1.49-2.32-1.26-3.79h0Z"/>
              </g>
              <g class="cls-25">
                <path class="cls-15" d="m161.03,288.65c.93.64,1.24,1.54.87,2.61-.94-.63-1.23-1.54-.87-2.61h0Z"/>
              </g>
              <g class="cls-25">
                <path class="cls-15" d="m204.17,290.36c.95-.6,1.89-.53,2.72.24-.95.61-1.89.52-2.72-.24h0Z"/>
              </g>
            </g>
          </g>
          <g>
            <path class="cls-40" d="m256.56,364.73c.58-1.69.98-3.4,1.14-5.11.63-6.69-3.13-13.09-7.46-17.88-6.14-6.79-18.12-21.71-20.26-22.75-2.14-1.03-6.95,1.7-4.88,6.87,2.96,7.4,6.61,15.98,6.61,15.98,0,0-9.62-4.2-12.1-5.8-2.47-1.6-26.93-20.01-30.04-17.87-5.7,3.92,22.15,24.9,22.15,24.9,0,0-17.16-9.02-23.13-12.54-5.97-3.52-10.62-5.3-12.1-2.74-1.48,2.55,2.2,5.29,2.2,5.29l27.74,21.1s-13.4-7.81-25.75-13.72c-7.31-3.5-9.82.08-.2,7.18,9.62,7.11,21.59,14.11,21.59,14.11,0,0-7.3-1.28-14.69-4.96-11.03-5.49-12.06-2.79-12.5-1.4-.92,2.92,27.94,18.67,27.95,18.67,7.04,3.88,13.45,8.5,21.2,10.99,3.78,1.22,7.76,1.95,11.75,1.71,5.28-.32,8.43-1.94,11.55-6.25,3.32-4.6,7.27-10.05,9.22-15.77Z"/>
            <g class="cls-25">
              <path class="cls-15" d="m180.56,332.44c.28-1.43.87-2.73,1.55-3.99,0,0,.21.66.21.66-1.04-.58-2.04-1.23-2.93-2.1,1.39.26,2.6.83,3.82,1.45-.71,1.44-1.5,2.83-2.65,3.98h0Z"/>
            </g>
            <g class="cls-25">
              <path class="cls-15" d="m191.95,323.08c.39-1.13,1-2.11,1.69-3.06,0,0,.08.68.08.68-.89-.71-1.71-1.48-2.3-2.49,1.27.41,2.3,1.19,3.3,2.04-.81,1.05-1.66,2.06-2.76,2.83h0Z"/>
            </g>
            <g class="cls-25">
              <path class="cls-15" d="m177.32,343.6c.14-1.16.59-2.18,1.13-3.18,0,0,.21.67.21.67-1.01-.57-3.79-2.48-.87-1.44.61.2,1.19.5,1.76.78-.57,1.17-1.22,2.3-2.22,3.17h0Z"/>
            </g>
            <g class="cls-25">
              <path class="cls-15" d="m178.22,358.06c.13-1.04.5-1.94.93-2.82l.21.67c-1.03-.53-1.98-1.13-2.76-2.02,1.34.17,2.52.74,3.67,1.4-.56,1.01-1.13,1.97-2.04,2.78h0Z"/>
            </g>
            <g class="cls-25">
              <path class="cls-15" d="m226.18,322.1c1.33,1.1,2.42,2.38,3.45,3.7l-.69-.1c1.41-1,2.86-1.93,4.49-2.61-1.17,1.33-2.52,2.41-3.91,3.43l-.4.29c-1.11-1.48-2.17-2.97-2.94-4.7h0Z"/>
            </g>
            <g class="cls-25">
              <path class="cls-15" d="m230.07,319.45c1.54.57,2.62,1.65,3.18,3.19-1.54-.57-2.62-1.65-3.18-3.19h0Z"/>
            </g>
            <g class="cls-25">
              <path class="cls-15" d="m199.73,330.45c.17-1.56,1.18-2.83,2.66-3.34-.51,1.5-1.32,2.51-2.66,3.34h0Z"/>
            </g>
            <g class="cls-25">
              <path class="cls-15" d="m191.55,339.58c.42-1.57,1.41-2.76,2.88-3.45-.43,1.59-1.4,2.74-2.88,3.45h0Z"/>
            </g>
            <g class="cls-25">
              <path class="cls-15" d="m187.69,350.29c-.52-1.55.22-3.35,1.68-4.08-.34,1.61-.79,2.7-1.68,4.08h0Z"/>
            </g>
            <g class="cls-25">
              <path class="cls-15" d="m186.65,361.95c-.36-1-.07-1.81.86-2.33.37,1,.06,1.81-.86,2.33h0Z"/>
            </g>
            <g class="cls-25">
              <path class="cls-15" d="m210.48,347.54c1.78.38,3.19,1.93,3.39,3.74-1.44-1.14-2.4-2.2-3.39-3.74h0Z"/>
            </g>
            <g class="cls-35">
              <path class="cls-20" d="m191.43,322.55c-1.12-.19-1.77-.88-1.89-2.01,1.12.19,1.77.88,1.89,2.01h0Z"/>
            </g>
            <g class="cls-35">
              <path class="cls-20" d="m204.21,372.95c8.45,3.17,16.49,8.03,24.73,11.7-4.65-.29-9-2.27-13.13-4.24-4.1-2.11-8.06-4.46-11.59-7.46h0Z"/>
            </g>
            <g class="cls-35">
              <path class="cls-20" d="m226.61,321.28c1.25.36,2.03,1.21,2.27,2.5-1.26-.36-2.03-1.21-2.27-2.5h0Z"/>
            </g>
            <g class="cls-35">
              <path class="cls-20" d="m180,331.9c-1.34-.09-2.33-.77-2.88-1.99,1.34.09,2.32.77,2.88,1.99h0Z"/>
            </g>
            <g class="cls-35">
              <path class="cls-20" d="m175.12,341.59c.96-.13,1.57.31,1.73,1.27-.97.14-1.57-.31-1.73-1.27h0Z"/>
            </g>
            <g class="cls-35">
              <path class="cls-20" d="m175.96,356.3c1.01-.04,1.63.48,1.75,1.49-1.01.04-1.62-.48-1.75-1.49h0Z"/>
            </g>
            <g class="cls-35">
              <path class="cls-20" d="m208.59,352.56c1.4-.03,2.52.56,3.28,1.74-1.4.04-2.52-.56-3.28-1.74h0Z"/>
            </g>
            <g class="cls-25">
              <path class="cls-15" d="m206.76,357.27c1.06-.21,1.84.2,2.26,1.19-1.06.22-1.84-.2-2.26-1.19h0Z"/>
            </g>
            <g class="cls-25">
              <path class="cls-15" d="m236.86,330.64c.22-1.05.9-1.61,1.98-1.59-.22,1.06-.91,1.61-1.98,1.59h0Z"/>
            </g>
          </g>
          <g>
            <path class="cls-45" d="m329.66,359.24c-.36-1.75-.88-3.42-1.61-4.99-2.85-6.08-9.33-9.71-15.48-11.64-8.73-2.74-26.62-9.55-28.99-9.36-2.37.19-5.14,4.99-.73,8.4,6.31,4.88,13.79,10.43,13.79,10.43,0,0-10.42,1.25-13.37,1.13-2.94-.13-33.35-3.62-34.95-.2-2.93,6.26,31.71,10.25,31.71,10.25,0,0-19.36.91-26.3.9-6.93,0-11.84.81-11.82,3.76.02,2.95,4.57,3.45,4.57,3.45l34.6,4.14s-15.51.05-29.15,1.21c-8.08.68-8.43,5.04,3.47,6.29,11.89,1.26,25.77,1.23,25.77,1.23,0,0-6.94,2.59-15.18,3.16-12.29.85-11.81,3.7-11.48,5.12.68,2.98,33.55,1.95,33.56,1.95,8.04-.22,15.9.52,23.85-1.26,3.88-.86,7.68-2.25,10.99-4.48,4.39-2.95,6.29-5.94,6.79-11.24.54-5.65,1.18-12.35-.04-18.27Z"/>
            <g class="cls-25">
              <path class="cls-15" d="m248.05,370.14c-.49-1.38-.63-2.79-.68-4.23,0,0,.51.47.51.47-4.3.03-4.33-.63-.04-.98,0,0,.48-.03.48-.03.12,1.6.13,3.2-.27,4.78h0Z"/>
            </g>
            <g class="cls-25">
              <path class="cls-15" d="m253.13,356.3c-.24-1.17-.2-2.32-.09-3.49,0,0,.42.55.42.55-1.13-.16-2.23-.41-3.25-.98,1.3-.28,2.59-.14,3.88.08-.17,1.32-.38,2.62-.95,3.84h0Z"/>
            </g>
            <g class="cls-25">
              <path class="cls-15" d="m250.91,381.4c-.46-1.07-.6-2.18-.64-3.32l.52.47c-1.16.02-4.53-.22-1.48-.8.63-.14,1.28-.18,1.92-.22.1,1.3.11,2.6-.31,3.86h0Z"/>
            </g>
            <g class="cls-25">
              <path class="cls-15" d="m259.01,393.41c-.41-.96-.55-1.93-.62-2.9l.51.47c-1.15.06-2.28.03-3.41-.34,1.24-.53,2.55-.64,3.87-.65.03,1.15.02,2.28-.35,3.43h0Z"/>
            </g>
            <g class="cls-25">
              <path class="cls-15" d="m282.15,338.12c1.7.27,3.29.83,4.85,1.45l-.65.26c.71-1.57,1.49-3.11,2.55-4.53-.36,1.9-1.07,3.65-1.83,5.38-1.71-.71-3.38-1.46-4.92-2.56h0Z"/>
            </g>
            <g class="cls-25">
              <path class="cls-15" d="m284.16,333.86c1.61-.29,3.09.09,4.36,1.13-1.61.29-3.09-.1-4.36-1.13h0Z"/>
            </g>
            <g class="cls-25">
              <path class="cls-15" d="m263.57,358.71c-.64-1.43-.42-3.04.6-4.23.32,1.55.13,2.83-.6,4.23h0Z"/>
            </g>
            <g class="cls-25">
              <path class="cls-15" d="m261.15,370.73c-.43-1.57-.18-3.09.74-4.43.43,1.59.18,3.07-.74,4.43h0Z"/>
            </g>
            <g class="cls-25">
              <path class="cls-15" d="m263.24,381.92c-1.23-1.07-1.51-3-.62-4.37.52,1.56.68,2.73.62,4.37h0Z"/>
            </g>
            <g class="cls-25">
              <path class="cls-15" d="m268.25,392.5c-.82-.68-.98-1.53-.44-2.45.82.67.97,1.53.44,2.45h0Z"/>
            </g>
            <g class="cls-25">
              <path class="cls-15" d="m281.5,368.01c1.73-.57,3.73.05,4.82,1.51-1.82-.25-3.18-.68-4.82-1.51h0Z"/>
            </g>
            <g class="cls-35">
              <path class="cls-20" d="m252.42,356.11c-1.06.4-1.97.14-2.65-.78,1.06-.41,1.97-.13,2.65.78h0Z"/>
            </g>
            <g class="cls-35">
              <path class="cls-20" d="m288.96,393.09c8.9-1.54,18.29-1.43,27.25-2.43-4.16,2.11-8.91,2.6-13.47,2.99-4.6.26-9.21.23-13.77-.56h0Z"/>
            </g>
            <g class="cls-35">
              <path class="cls-20" d="m282.11,337.2c1.26-.32,2.37.02,3.22,1-1.26.33-2.37-.02-3.22-1h0Z"/>
            </g>
            <g class="cls-35">
              <path class="cls-20" d="m247.3,369.96c-1.2.6-2.4.51-3.49-.26,1.2-.6,2.39-.51,3.49.26h0Z"/>
            </g>
            <g class="cls-35">
              <path class="cls-20" d="m248,380.79c.76-.6,1.51-.53,2.13.23-.76.61-1.51.53-2.13-.23h0Z"/>
            </g>
            <g class="cls-35">
              <path class="cls-20" d="m256.17,393.04c.85-.54,1.65-.41,2.26.39-.85.55-1.64.41-2.26-.39h0Z"/>
            </g>
            <g class="cls-35">
              <path class="cls-20" d="m282.41,373.29c1.19-.74,2.46-.8,3.71-.17-1.19.74-2.46.79-3.71.17h0Z"/>
            </g>
            <g class="cls-25">
              <path class="cls-15" d="m283.22,378.28c.8-.72,1.69-.76,2.55-.11-.8.72-1.69.76-2.55.11h0Z"/>
            </g>
            <g class="cls-25">
              <path class="cls-15" d="m295.68,340.07c-.34-1.02-.03-1.85.9-2.38.35,1.02.03,1.84-.9,2.38h0Z"/>
            </g>
          </g>
          <g>
            <path class="cls-43" d="m374.02,302.77c-1.51-.95-3.08-1.73-4.72-2.28-6.37-2.14-13.46.05-19.11,3.17-8.01,4.42-25.28,12.67-26.78,14.51-1.5,1.85.06,7.16,5.57,6.33,7.89-1.19,17.06-2.78,17.06-2.78,0,0-6.29,8.41-8.41,10.45-2.13,2.04-25.65,21.63-24.28,25.15,2.51,6.44,29.31-15.86,29.31-15.86,0,0-12.71,14.64-17.5,19.65-4.79,5.01-7.59,9.12-5.44,11.15,2.15,2.02,5.65-.93,5.65-.93l26.89-22.17s-10.67,11.26-19.25,21.92c-5.08,6.31-2.17,9.57,6.95,1.84,9.12-7.74,18.68-17.79,18.68-17.79,0,0-2.92,6.81-8.19,13.17-7.87,9.48-5.47,11.1-4.22,11.85,2.63,1.57,24.57-22.93,24.57-22.93,5.39-5.97,11.35-11.15,15.56-18.12,2.05-3.4,3.68-7.11,4.35-11.04.9-5.22.04-8.65-3.44-12.67-3.72-4.29-8.12-9.38-13.24-12.59Z"/>
            <g>
              <g class="cls-25">
                <path class="cls-15" d="m325.45,369.27c-1.33-.6-2.46-1.47-3.53-2.43,0,0,.69-.05.69-.05-2.97,3.15-3.45,2.72-.74-.65,0,0,.31-.37.31-.37,1.24,1.02,2.41,2.11,3.27,3.49h0Z"/>
              </g>
              <g class="cls-25">
                <path class="cls-15" d="m318.95,356.04c-1.01-.63-1.82-1.46-2.59-2.34,0,0,.68.07.68.07-.9.71-1.84,1.33-2.95,1.67.69-1.14,1.69-1.97,2.74-2.74.84,1.03,1.63,2.08,2.12,3.34h0Z"/>
              </g>
              <g class="cls-25">
                <path class="cls-15" d="m335.58,374.98c-1.09-.4-1.99-1.07-2.84-1.83,0,0,.7-.05.7-.05-.79.85-3.28,3.13-1.6.52.33-.55.76-1.05,1.17-1.54,1.01.83,1.96,1.71,2.58,2.89h0Z"/>
              </g>
              <g class="cls-25">
                <path class="cls-15" d="m349.85,377.41c-.98-.37-1.78-.93-2.53-1.55l.7-.05c-.75.88-1.56,1.67-2.6,2.23.47-1.27,1.3-2.29,2.2-3.25.85.78,1.66,1.55,2.24,2.62h0Z"/>
              </g>
              <g class="cls-25">
                <path class="cls-15" d="m325.83,322.49c1.37-1.04,2.87-1.81,4.39-2.51l-.26.65c-.65-1.6-1.22-3.22-1.52-4.97,1.03,1.44,1.77,3,2.44,4.59l.19.45c-1.69.74-3.39,1.44-5.25,1.79h0Z"/>
              </g>
              <g class="cls-25">
                <path class="cls-15" d="m324.14,318.1c.91-1.37,2.2-2.17,3.83-2.37-.9,1.37-2.2,2.17-3.83,2.37h0Z"/>
              </g>
              <g class="cls-25">
                <path class="cls-15" d="m327.9,350.15c-1.48-.52-2.49-1.79-2.65-3.35,1.34.83,2.14,1.86,2.65,3.35h0Z"/>
              </g>
              <g class="cls-25">
                <path class="cls-15" d="m334.92,360.2c-1.43-.77-2.36-2-2.69-3.59,1.45.78,2.34,1.99,2.69,3.59h0Z"/>
              </g>
              <g class="cls-25">
                <path class="cls-15" d="m344.46,366.42c-1.63.15-3.21-.98-3.59-2.57,1.49.7,2.44,1.39,3.59,2.57h0Z"/>
              </g>
              <g class="cls-25">
                <path class="cls-15" d="m355.58,370.1c-1.05.12-1.78-.35-2.08-1.37,1.06-.13,1.77.35,2.08,1.37h0Z"/>
              </g>
              <g class="cls-25">
                <path class="cls-15" d="m347,343.6c.78-1.64,2.61-2.66,4.42-2.45-1.44,1.14-2.69,1.83-4.42,2.45h0Z"/>
              </g>
              <g class="cls-35">
                <path class="cls-20" d="m318.32,356.42c-.44,1.04-1.26,1.52-2.39,1.38.44-1.05,1.27-1.52,2.39-1.38h0Z"/>
              </g>
              <g class="cls-35">
                <path class="cls-20" d="m370.3,355.52c5.02-7.5,11.59-14.22,17.05-21.39-1.35,4.46-4.27,8.24-7.14,11.81-2.99,3.51-6.19,6.83-9.92,9.58h0Z"/>
              </g>
              <g class="cls-35">
                <path class="cls-20" d="m325.14,321.89c.64-1.14,1.65-1.7,2.95-1.64-.63,1.14-1.65,1.7-2.95,1.64h0Z"/>
              </g>
              <g class="cls-35">
                <path class="cls-20" d="m324.8,369.69c-.4,1.28-1.28,2.09-2.6,2.35.39-1.28,1.28-2.08,2.6-2.35h0Z"/>
              </g>
              <g class="cls-35">
                <path class="cls-20" d="m333.12,376.66c.09-.97.66-1.46,1.64-1.39-.09.97-.66,1.46-1.64,1.39h0Z"/>
              </g>
              <g class="cls-35">
                <path class="cls-20" d="m347.63,379.21c.2-.99.84-1.47,1.85-1.37-.19,1-.84,1.47-1.85,1.37h0Z"/>
              </g>
              <g class="cls-35">
                <path class="cls-20" d="m351.46,346.59c.29-1.37,1.12-2.33,2.44-2.8-.28,1.37-1.12,2.33-2.44,2.8h0Z"/>
              </g>
              <g class="cls-25">
                <path class="cls-15" d="m355.62,349.45c.03-1.08.61-1.75,1.68-1.93-.03,1.08-.62,1.75-1.68,1.93h0Z"/>
              </g>
              <g class="cls-25">
                <path class="cls-15" d="m336.59,314.05c-.97-.45-1.36-1.25-1.1-2.29.98.45,1.35,1.25,1.1,2.29h0Z"/>
              </g>
            </g>
          </g>
          <g>
            <path class="cls-46" d="m380.3,229.72c-1.78.1-3.51.37-5.17.87-6.43,1.94-10.95,7.83-13.75,13.64-3.97,8.24-13.29,24.96-13.44,27.33-.15,2.37,4.19,5.8,8.21,1.93,5.74-5.54,12.31-12.14,12.31-12.14,0,0-.26,10.49-.81,13.39-.55,2.9-8.39,32.48-5.24,34.56,5.78,3.8,14.72-29.9,14.72-29.9,0,0-1.89,19.29-2.9,26.15-1.01,6.86-.91,11.83,2.02,12.24,2.92.41,4.07-4.03,4.07-4.03l9.09-33.64s-2.18,15.36-3.01,29.02c-.49,8.09,3.77,9.07,6.73-2.52,2.96-11.59,4.94-25.32,4.94-25.32,0,0,1.56,7.24.94,15.48-.93,12.28,1.96,12.22,3.41,12.1,3.05-.24,6.76-32.91,6.77-32.92.94-7.98,2.8-15.66,2.2-23.78-.3-3.96-1.12-7.93-2.84-11.52-2.29-4.77-4.97-7.08-10.14-8.34-5.51-1.35-12.05-2.95-18.08-2.6Z"/>
            <g class="cls-25">
              <path class="cls-15" d="m379.03,312.29c-1.43.28-2.86.22-4.29.06,0,0,.54-.44.54-.44-.59,4.26-1.25,4.19-.98-.1,0,0,.04-.48.04-.48,1.6.12,3.19.33,4.69.95h0Z"/>
            </g>
            <g class="cls-25">
              <path class="cls-15" d="m366.07,305.26c-1.19.07-2.33-.13-3.47-.41,0,0,.6-.34.6-.34-.32,1.1-.73,2.14-1.44,3.07-.09-1.33.24-2.58.64-3.82,1.28.35,2.53.76,3.66,1.49h0Z"/>
            </g>
            <g class="cls-25">
              <path class="cls-15" d="m390.59,311.08c-1.12.31-2.24.28-3.37.16,0,0,.54-.44.54-.44-.15,1.15-.87,4.45-1.01,1.35-.04-.64.01-1.29.06-1.93,1.3.09,2.59.26,3.78.86h0Z"/>
            </g>
            <g class="cls-25">
              <path class="cls-15" d="m403.64,304.8c-1.01.27-1.99.27-2.96.2l.54-.44c-.1,1.15-.3,2.26-.83,3.32-.35-1.3-.26-2.61-.09-3.92,1.14.14,2.26.3,3.34.85h0Z"/>
            </g>
            <g class="cls-25">
              <path class="cls-15" d="m352.27,273.92c.51-1.64,1.29-3.13,2.13-4.59l.16.68c-1.45-.93-2.86-1.92-4.11-3.17,1.67.58,3.18,1.42,4.64,2.33l.42.26c-.95,1.59-1.93,3.13-3.24,4.5h0Z"/>
            </g>
            <g class="cls-25">
              <path class="cls-15" d="m348.34,271.32c-.05-1.64.54-3.05,1.75-4.15.06,1.64-.54,3.04-1.75,4.15h0Z"/>
            </g>
            <g class="cls-25">
              <path class="cls-15" d="m369.96,295.28c-1.51.43-3.06-.02-4.1-1.2,1.58-.1,2.82.28,4.1,1.2h0Z"/>
            </g>
            <g class="cls-25">
              <path class="cls-15" d="m381.5,299.41c-1.61.2-3.08-.26-4.28-1.37,1.63-.2,3.06.26,4.28,1.37h0Z"/>
            </g>
            <g class="cls-25">
              <path class="cls-15" d="m392.88,298.95c-1.24,1.06-3.19,1.06-4.42-.02,1.62-.29,2.8-.28,4.42.02h0Z"/>
            </g>
            <g class="cls-25">
              <path class="cls-15" d="m404.07,295.52c-.79.71-1.65.75-2.48.09.79-.72,1.65-.74,2.48-.09h0Z"/>
            </g>
            <g class="cls-25">
              <path class="cls-15" d="m381.74,278.88c-.32-1.79.58-3.68,2.19-4.55-.51,1.76-1.13,3.05-2.19,4.55h0Z"/>
            </g>
            <g class="cls-35">
              <path class="cls-20" d="m365.78,305.94c.24,1.1-.15,1.97-1.15,2.51-.25-1.11.15-1.97,1.15-2.51h0Z"/>
            </g>
            <g class="cls-35">
              <path class="cls-20" d="m407.64,275.11c-.24-9.03,1.22-18.3,1.52-27.31,1.49,4.42,1.29,9.19,1.02,13.77-.41,4.59-1.1,9.15-2.54,13.55h0Z"/>
            </g>
            <g class="cls-35">
              <path class="cls-20" d="m351.35,273.83c-.14-1.3.36-2.34,1.46-3.04.14,1.3-.36,2.34-1.46,3.04h0Z"/>
            </g>
            <g class="cls-35">
              <path class="cls-20" d="m378.74,313c.42,1.27.16,2.44-.76,3.42-.42-1.27-.16-2.44.76-3.42h0Z"/>
            </g>
            <g class="cls-35">
              <path class="cls-20" d="m389.56,313.87c-.49-.84-.31-1.57.53-2.08.49.84.3,1.57-.53,2.08h0Z"/>
            </g>
            <g class="cls-35">
              <path class="cls-20" d="m402.87,307.56c-.41-.92-.17-1.69.72-2.18.42.92.16,1.69-.72,2.18h0Z"/>
            </g>
            <g class="cls-35">
              <path class="cls-20" d="m387.11,278.74c-.56-1.29-.44-2.55.37-3.7.56,1.29.43,2.55-.37,3.7h0Z"/>
            </g>
            <g class="cls-25">
              <path class="cls-15" d="m392.16,278.66c-.6-.9-.51-1.78.26-2.54.6.9.51,1.78-.26,2.54h0Z"/>
            </g>
            <g class="cls-25">
              <path class="cls-15" d="m356.15,260.81c-1.06.19-1.83-.23-2.22-1.24,1.06-.2,1.83.24,2.22,1.24h0Z"/>
            </g>
          </g>
          <g>
            <path class="cls-39" d="m336.19,168.2c-1.34,1.18-2.53,2.46-3.53,3.87-3.86,5.49-3.78,12.92-2.4,19.22,1.96,8.94,4.95,27.84,6.29,29.8s6.88,1.98,7.65-3.54c1.1-7.9,2.19-17.15,2.19-17.15,0,0,6.27,8.42,7.62,11.04,1.35,2.62,13.44,30.74,17.2,30.43,6.89-.57-6.87-32.61-6.87-32.61,0,0,10.41,16.35,13.85,22.37,3.44,6.02,6.59,9.87,9.14,8.39,2.55-1.48.72-5.68.72-5.68l-13.6-32.08s7.76,13.43,15.54,24.69c4.61,6.67,8.56,4.81,3.74-6.14-4.82-10.95-11.74-22.97-11.74-22.97,0,0,5.7,4.73,10.29,11.6,6.85,10.24,9.08,8.4,10.15,7.42,2.25-2.07-14.99-30.08-14.99-30.08-4.19-6.86-7.46-14.05-12.94-20.07-2.68-2.93-5.77-5.55-9.35-7.31-4.74-2.34-8.28-2.5-13.13-.31-5.17,2.34-11.3,5.12-15.83,9.11Z"/>
            <g class="cls-25">
              <path class="cls-15" d="m386.13,233.96c-.96,1.11-2.11,1.94-3.33,2.69,0,0,.15-.68.15-.68.61,1.02,1.17,2.08,1.5,3.28-1.07-.92-1.84-2.02-2.59-3.15,1.33-.9,2.71-1.71,4.28-2.14h0Z"/>
            </g>
            <g class="cls-25">
              <path class="cls-15" d="m371.6,236.43c-.9.79-1.91,1.33-2.98,1.82,0,0,.27-.63.27-.63.42,1.06.75,2.14.76,3.31-.89-.99-1.41-2.18-1.85-3.4,1.22-.51,2.46-.97,3.8-1.08h0Z"/>
            </g>
            <g class="cls-25">
              <path class="cls-15" d="m394.48,225.88c-.7.93-1.59,1.6-2.56,2.21,0,0,.15-.68.15-.68.59,1,2.06,4.04.04,1.68-.43-.48-.79-1.02-1.14-1.56,1.08-.73,2.2-1.39,3.51-1.65h0Z"/>
            </g>
            <g class="cls-25">
              <path class="cls-15" d="m400.88,212.89c-.63.83-1.4,1.44-2.21,1.98l.15-.68c.63.97,1.16,1.97,1.4,3.13-1.08-.81-1.82-1.89-2.49-3.03.99-.59,1.96-1.15,3.15-1.4h0Z"/>
            </g>
            <g class="cls-25">
              <path class="cls-15" d="m341.4,220.28c-.61-1.61-.92-3.26-1.15-4.92l.55.43c-1.72.17-3.44.26-5.2.04,1.67-.57,3.38-.84,5.09-1.03l.49-.05c.23,1.83.41,3.66.22,5.54h0Z"/>
            </g>
            <g class="cls-25">
              <path class="cls-15" d="m336.7,220.66c-1.05-1.26-1.46-2.73-1.18-4.35,1.06,1.25,1.45,2.73,1.18,4.35h0Z"/>
            </g>
            <g class="cls-25">
              <path class="cls-15" d="m368.5,226.17c-.92,1.27-2.43,1.87-3.97,1.58,1.18-1.05,2.39-1.53,3.97-1.58h0Z"/>
            </g>
            <g class="cls-25">
              <path class="cls-15" d="m380.13,222.3c-1.14,1.15-2.59,1.69-4.21,1.56,1.16-1.17,2.57-1.68,4.21-1.56h0Z"/>
            </g>
            <g class="cls-25">
              <path class="cls-15" d="m388.8,214.92c-.32,1.6-1.85,2.8-3.48,2.71,1.1-1.23,2.03-1.95,3.48-2.71h0Z"/>
            </g>
            <g class="cls-25">
              <path class="cls-15" d="m395.5,205.32c-.18,1.04-.84,1.61-1.9,1.6.18-1.05.84-1.6,1.9-1.6h0Z"/>
            </g>
            <g class="cls-25">
              <path class="cls-15" d="m367.65,206c-1.35-1.21-1.81-3.26-1.09-4.93.69,1.7.99,3.1,1.09,4.93h0Z"/>
            </g>
            <g class="cls-35">
              <path class="cls-20" d="m371.78,237.15c.87.72,1.1,1.64.64,2.68-.88-.72-1.1-1.65-.64-2.68h0Z"/>
            </g>
            <g class="cls-35">
              <path class="cls-20" d="m385.71,187.05c-5.76-6.95-10.33-15.16-15.65-22.44,3.9,2.56,6.69,6.43,9.29,10.21,2.51,3.87,4.78,7.88,6.36,12.23h0Z"/>
            </g>
            <g class="cls-35">
              <path class="cls-20" d="m340.61,220.78c-.91-.93-1.16-2.06-.73-3.29.91.93,1.16,2.06.73,3.29h0Z"/>
            </g>
            <g class="cls-35">
              <path class="cls-20" d="m386.35,234.7c1.11.74,1.64,1.82,1.51,3.16-1.12-.74-1.63-1.82-1.51-3.16h0Z"/>
            </g>
            <g class="cls-35">
              <path class="cls-20" d="m395.4,228.72c-.9-.36-1.21-1.05-.86-1.96.91.36,1.21,1.05.86,1.96h0Z"/>
            </g>
            <g class="cls-35">
              <path class="cls-20" d="m401.97,215.54c-.9-.47-1.17-1.22-.78-2.16.9.47,1.17,1.22.78,2.16h0Z"/>
            </g>
            <g class="cls-35">
              <path class="cls-20" d="m371.79,202.58c-1.23-.67-1.92-1.74-1.99-3.14,1.24.66,1.91,1.74,1.99,3.14h0Z"/>
            </g>
            <g class="cls-25">
              <path class="cls-15" d="m375.72,199.4c-1.02-.34-1.5-1.09-1.37-2.16,1.03.34,1.5,1.09,1.37,2.16h0Z"/>
            </g>
            <g class="cls-25">
              <path class="cls-15" d="m336.36,207.57c-.71.8-1.58.95-2.51.4.71-.81,1.58-.94,2.51-.4h0Z"/>
            </g>
          </g>
          <g>
            <path class="cls-44" d="m263.77,153.89c-.24,1.77-.31,3.52-.14,5.24.67,6.68,5.58,12.25,10.74,16.12,7.33,5.48,21.94,17.84,24.24,18.45,2.3.61,6.5-3,3.48-7.68-4.33-6.7-9.55-14.41-9.55-14.41,0,0,10.25,2.28,12.98,3.37,2.73,1.1,30.26,14.49,32.9,11.79,4.84-4.94-26.51-20.19-26.51-20.19,0,0,18.57,5.57,25.11,7.88,6.54,2.31,11.43,3.16,12.4.37.96-2.79-3.17-4.77-3.17-4.77l-31.26-15.39s14.65,5.1,27.9,8.54c7.84,2.04,9.62-1.95-1.18-7.09-10.8-5.13-23.9-9.71-23.9-9.71,0,0,7.41-.14,15.37,2.06,11.87,3.27,12.37.42,12.53-1.02.35-3.04-31-12.97-31.01-12.97-7.65-2.46-14.83-5.76-22.91-6.73-3.94-.47-7.99-.43-11.86.57-5.12,1.33-7.91,3.52-10.14,8.35-2.38,5.15-5.21,11.26-6.03,17.24Z"/>
            <g class="cls-25">
              <path class="cls-15" d="m344.37,170.7c0,1.46-.33,2.84-.76,4.22,0,0-.33-.61-.33-.61,4.09,1.42,3.9,2.03-.28.94,0,0-.46-.13-.46-.13.42-1.55.94-3.06,1.84-4.42h0Z"/>
            </g>
            <g class="cls-25">
              <path class="cls-15" d="m334.98,182.06c-.16,1.18-.58,2.26-1.07,3.32,0,0-.21-.65-.21-.65,1.01.53,1.96,1.13,2.74,2-1.32-.16-2.49-.73-3.63-1.37.59-1.19,1.23-2.34,2.17-3.31h0Z"/>
            </g>
            <g class="cls-25">
              <path class="cls-15" d="m345.41,159.13c.08,1.16-.16,2.25-.5,3.34l-.33-.61c1.1.37,4.2,1.71,1.13,1.25-.64-.08-1.27-.26-1.88-.43.34-1.26.76-2.49,1.57-3.54h0Z"/>
            </g>
            <g class="cls-25">
              <path class="cls-15" d="m341.76,145.11c.07,1.04-.12,2-.38,2.95l-.33-.61c1.11.32,2.16.73,3.1,1.45-1.35.09-2.62-.24-3.87-.67.36-1.1.73-2.15,1.47-3.12h0Z"/>
            </g>
            <g class="cls-25">
              <path class="cls-15" d="m301.57,189.58c-1.51-.82-2.83-1.87-4.09-2.97l.7-.03c-1.19,1.25-2.44,2.44-3.91,3.43.89-1.53,2.01-2.84,3.18-4.11l.33-.36c1.37,1.24,2.7,2.5,3.79,4.05h0Z"/>
            </g>
            <g class="cls-25">
              <path class="cls-15" d="m298.26,192.93c-1.62-.26-2.89-1.11-3.73-2.52,1.62.26,2.88,1.12,3.73,2.52h0Z"/>
            </g>
            <g class="cls-25">
              <path class="cls-15" d="m325.94,176.32c.13,1.56-.61,3-1.97,3.79.21-1.56.81-2.72,1.97-3.79h0Z"/>
            </g>
            <g class="cls-25">
              <path class="cls-15" d="m332.21,165.8c-.11,1.62-.85,2.98-2.17,3.93.12-1.64.85-2.95,2.17-3.93h0Z"/>
            </g>
            <g class="cls-25">
              <path class="cls-15" d="m333.95,154.54c.81,1.42.43,3.33-.87,4.33.03-1.65.26-2.8.87-4.33h0Z"/>
            </g>
            <g class="cls-25">
              <path class="cls-15" d="m332.74,142.9c.55.91.41,1.76-.39,2.46-.55-.91-.41-1.76.39-2.46h0Z"/>
            </g>
            <g class="cls-25">
              <path class="cls-15" d="m312.11,161.61c-1.82-.03-3.5-1.28-4.05-3.02,1.63.84,2.77,1.7,4.05,3.02h0Z"/>
            </g>
            <g class="cls-35">
              <path class="cls-20" d="m335.59,182.48c1.13-.03,1.91.53,2.24,1.61-1.13.03-1.91-.53-2.24-1.61h0Z"/>
            </g>
            <g class="cls-35">
              <path class="cls-20" d="m313.39,135.47c-8.9-1.5-17.73-4.72-26.51-6.75,4.62-.61,9.27.5,13.7,1.65,4.43,1.28,8.77,2.84,12.81,5.1h0Z"/>
            </g>
            <g class="cls-35">
              <path class="cls-20" d="m301.31,190.47c-1.3-.11-2.23-.8-2.71-2.01,1.3.11,2.23.8,2.71,2.01h0Z"/>
            </g>
            <g class="cls-35">
              <path class="cls-20" d="m345.02,171.12c1.33-.17,2.43.31,3.21,1.4-1.33.17-2.43-.31-3.21-1.4h0Z"/>
            </g>
            <g class="cls-35">
              <path class="cls-20" d="m347.96,160.67c-.92.32-1.6,0-1.94-.92.92-.32,1.6,0,1.94.92h0Z"/>
            </g>
            <g class="cls-35">
              <path class="cls-20" d="m344.32,146.4c-.99.23-1.69-.16-2-1.12.99-.23,1.69.16,2,1.12h0Z"/>
            </g>
            <g class="cls-35">
              <path class="cls-20" d="m313,156.32c-1.37.3-2.58-.06-3.56-1.08,1.37-.31,2.58.07,3.56,1.08h0Z"/>
            </g>
            <g class="cls-25">
              <path class="cls-15" d="m313.9,151.34c-1,.41-1.85.16-2.45-.74,1-.42,1.85-.15,2.45.74h0Z"/>
            </g>
            <g class="cls-25">
              <path class="cls-15" d="m289.46,183.25c-.01,1.07-.58,1.75-1.64,1.94,0-1.08.58-1.75,1.64-1.94h0Z"/>
            </g>
          </g>
          <g>
            <path class="cls-42" d="m190.48,181.89c.76,1.61,1.65,3.12,2.73,4.47,4.19,5.25,11.34,7.26,17.77,7.7,9.13.63,28.11,3.07,30.37,2.33,2.26-.74,3.83-6.05-1.25-8.34-7.27-3.28-15.84-6.92-15.84-6.92,0,0,9.84-3.65,12.73-4.21,2.89-.56,33.28-4.26,34.03-7.96,1.39-6.77-33.23-2.57-33.23-2.57,0,0,18.62-5.4,25.36-7.01,6.74-1.61,11.32-3.55,10.61-6.42-.71-2.87-5.25-2.28-5.25-2.28l-34.61,4.05s15.07-3.67,28.06-7.98c7.69-2.55,7.02-6.86-4.84-5.31-11.86,1.55-25.34,4.81-25.34,4.81,0,0,6.14-4.14,14.03-6.62,11.75-3.7,10.62-6.36,9.97-7.66-1.36-2.74-33.07,5.94-33.08,5.94-7.76,2.09-15.58,3.21-22.9,6.79-3.57,1.75-6.94,3.98-9.65,6.92-3.58,3.9-4.73,7.25-3.98,12.51.8,5.62,1.74,12.28,4.3,17.76Z"/>
            <g>
              <g class="cls-25">
                <path class="cls-15" d="m267.35,152.36c.79,1.23,1.27,2.57,1.65,3.96,0,0-.61-.34-.61-.34,1.15-.3,2.32-.54,3.57-.51-1.18.77-2.45,1.2-3.75,1.6-.49-1.53-.88-3.08-.85-4.71h0Z"/>
              </g>
              <g class="cls-25">
                <path class="cls-15" d="m265.63,167c.5,1.08.74,2.21.91,3.37,0,0-.53-.43-.53-.43,1.14-.11,2.26-.12,3.39.2-1.2.58-2.49.74-3.79.82-.15-1.32-.24-2.63.03-3.96h0Z"/>
              </g>
              <g class="cls-25">
                <path class="cls-15" d="m261.94,142.08c.7.93,1.09,1.98,1.4,3.08,0,0-.61-.34-.61-.34,1.12-.29,4.45-.85,1.63.43-.58.28-1.2.47-1.81.66-.4-1.24-.71-2.5-.6-3.83h0Z"/>
              </g>
              <g class="cls-25">
                <path class="cls-15" d="m251.26,132.29c.62.84.99,1.75,1.28,2.68l-.61-.34c1.11-.33,2.21-.56,3.39-.46-1.08.81-2.33,1.22-3.61,1.54-.29-1.11-.55-2.21-.46-3.42h0Z"/>
              </g>
              <g class="cls-25">
                <path class="cls-15" d="m241.66,191.45c-1.72.13-3.39-.04-5.05-.28l.57-.4c-.32,1.69-.72,3.37-1.42,5-.08-1.77.14-3.48.44-5.18l.08-.48c1.82.29,3.63.63,5.38,1.34h0Z"/>
              </g>
              <g class="cls-25">
                <path class="cls-15" d="m240.7,196.06c-1.5.66-3.03.63-4.5-.09,1.5-.66,3.03-.63,4.5.09h0Z"/>
              </g>
              <g class="cls-25">
                <path class="cls-15" d="m254.92,167.09c.96,1.24,1.12,2.85.4,4.25-.67-1.43-.79-2.72-.4-4.25h0Z"/>
              </g>
              <g class="cls-25">
                <path class="cls-15" d="m254.47,154.84c.79,1.42.9,2.96.32,4.48-.79-1.44-.89-2.94-.32-4.48h0Z"/>
              </g>
              <g class="cls-25">
                <path class="cls-15" d="m249.83,144.45c1.45.76,2.17,2.56,1.62,4.11-.87-1.4-1.3-2.49-1.62-4.11h0Z"/>
              </g>
              <g class="cls-25">
                <path class="cls-15" d="m242.49,135.33c.95.47,1.31,1.26,1,2.28-.96-.46-1.3-1.26-1-2.28h0Z"/>
              </g>
              <g class="cls-25">
                <path class="cls-15" d="m235.32,162.24c-1.55.96-3.63.82-5.04-.34,1.83-.18,3.25-.08,5.04.34h0Z"/>
              </g>
              <g class="cls-35">
                <path class="cls-20" d="m266.37,167.02c.93-.64,1.89-.6,2.75.14-.93.64-1.89.59-2.75-.14h0Z"/>
              </g>
              <g class="cls-35">
                <path class="cls-20" d="m222.21,139.59c-8.29,3.58-17.45,5.66-25.93,8.72,3.55-3.02,8.05-4.61,12.4-6.05,4.42-1.33,8.9-2.38,13.52-2.67h0Z"/>
              </g>
              <g class="cls-35">
                <path class="cls-20" d="m241.92,192.34c-1.15.61-2.31.54-3.37-.22,1.15-.61,2.31-.53,3.37.22h0Z"/>
              </g>
              <g class="cls-35">
                <path class="cls-20" d="m268.12,152.36c1.03-.86,2.21-1.06,3.46-.57-1.03.87-2.21,1.05-3.46.57h0Z"/>
              </g>
              <g class="cls-35">
                <path class="cls-20" d="m264.92,141.99c-.6.77-1.35.87-2.13.28.6-.77,1.35-.86,2.13-.28h0Z"/>
              </g>
              <g class="cls-35">
                <path class="cls-20" d="m254.11,131.98c-.7.73-1.5.78-2.29.14.7-.73,1.5-.78,2.29-.14h0Z"/>
              </g>
              <g class="cls-35">
                <path class="cls-20" d="m233.2,157.31c-.99,1-2.2,1.35-3.57,1.03.99-1,2.21-1.35,3.57-1.03h0Z"/>
              </g>
              <g class="cls-25">
                <path class="cls-15" d="m231.25,152.65c-.61.89-1.47,1.14-2.46.71.61-.89,1.47-1.13,2.46-.71h0Z"/>
              </g>
              <g class="cls-25">
                <path class="cls-15" d="m228.05,192.71c.57.91.46,1.79-.32,2.52-.58-.91-.46-1.79.32-2.52h0Z"/>
              </g>
            </g>
          </g>
          <path class="cls-17" d="m273.73,107.8c-85.42,0-154.66,69.24-154.66,154.66s69.24,154.66,154.66,154.66,154.66-69.24,154.66-154.66-69.24-154.66-154.66-154.66Zm0,279.54c-68.97,0-124.88-55.91-124.88-124.88s55.91-124.88,124.88-124.88,124.88,55.91,124.88,124.88-55.91,124.88-124.88,124.88Z"/>
          <text class="cls-54" transform="translate(148.24 133.84)"><tspan class="cls-50" x="0" y="0">A</tspan><tspan class="cls-32" x="7.38" y="0">y</tspan><tspan class="cls-24" x="13.26" y="0">u</tspan><tspan class="cls-26" x="20.15" y="0">d</tspan><tspan class="cls-4" x="27.19" y="0">a</tspan><tspan class="cls-12" x="33.21" y="0"> </tspan><tspan class="cls-5" x="35.86" y="0">M</tspan><tspan class="cls-24" x="45.94" y="0">u</tspan><tspan class="cls-14" x="52.82" y="0">t</tspan><tspan class="cls-24" x="56.95" y="0">u</tspan><tspan class="cls-4" x="63.83" y="0">a</tspan></text>
          <text class="cls-54" transform="translate(345.15 139.63)"><tspan class="cls-51" x="0" y="0">R</tspan><tspan class="cls-21" x="6.77" y="0">e</tspan><tspan class="cls-49" x="13.03" y="0">s</tspan><tspan class="cls-3" x="17.97" y="0">po</tspan><tspan class="cls-38" x="31.94" y="0">n</tspan><tspan class="cls-49" x="38.87" y="0">s</tspan><tspan class="cls-4" x="43.81" y="0">a</tspan><tspan class="cls-3" x="49.83" y="0">b</tspan><tspan class="cls-9" x="56.94" y="0">i</tspan><tspan class="cls-36" x="59.86" y="0">l</tspan><tspan class="cls-9" x="62.81" y="0">i</tspan><tspan class="cls-26" x="65.73" y="0">d</tspan><tspan class="cls-4" x="72.78" y="0">a</tspan><tspan class="cls-26" x="78.8" y="0">d</tspan></text>
          <text class="cls-54" transform="translate(392.27 189.65)"><tspan class="cls-13" x="0" y="0">D</tspan><tspan class="cls-21" x="8.37" y="0">e</tspan><tspan class="cls-58" x="14.62" y="0">m</tspan><tspan class="cls-3" x="25.04" y="0">o</tspan><tspan class="cls-37" x="31.9" y="0">c</tspan><tspan class="cls-53" x="37.49" y="0">r</tspan><tspan class="cls-4" x="41.51" y="0">a</tspan><tspan class="cls-37" x="47.53" y="0">c</tspan><tspan class="cls-9" x="53.13" y="0">i</tspan><tspan class="cls-4" x="56.05" y="0">a</tspan></text>
          <text class="cls-54" transform="translate(412.8 263.36)"><tspan class="cls-6" x="0" y="0">I</tspan><tspan class="cls-30" x="2.99" y="0">g</tspan><tspan class="cls-24" x="9.97" y="0">u</tspan><tspan class="cls-4" x="16.85" y="0">a</tspan><tspan class="cls-36" x="22.87" y="0">l</tspan><tspan class="cls-26" x="25.82" y="0">d</tspan><tspan class="cls-4" x="32.86" y="0">a</tspan><tspan class="cls-26" x="38.88" y="0">d</tspan></text>
          <text class="cls-54" transform="translate(386.74 351.55)"><tspan class="cls-33" x="0" y="0">E</tspan><tspan class="cls-27" x="6.09" y="0">q</tspan><tspan class="cls-24" x="13.13" y="0">u</tspan><tspan class="cls-9" x="20.01" y="0">i</tspan><tspan class="cls-26" x="22.93" y="0">d</tspan><tspan class="cls-4" x="29.97" y="0">a</tspan><tspan class="cls-26" x="35.99" y="0">d</tspan></text>
          <text class="cls-54" transform="translate(251.7 409.72)"><tspan class="cls-31" x="0" y="0">S</tspan><tspan class="cls-3" x="6.23" y="0">o</tspan><tspan class="cls-36" x="13.09" y="0">l</tspan><tspan class="cls-9" x="16.04" y="0">i</tspan><tspan class="cls-26" x="18.96" y="0">d</tspan><tspan class="cls-4" x="26" y="0">a</tspan><tspan class="cls-29" x="32.02" y="0">r</tspan><tspan class="cls-9" x="36.16" y="0">i</tspan><tspan class="cls-26" x="39.08" y="0">d</tspan><tspan class="cls-4" x="46.12" y="0">a</tspan><tspan class="cls-26" x="52.14" y="0">d</tspan></text>
          <text class="cls-54" transform="translate(136.39 387.61)"><tspan class="cls-34" x="0" y="0">H</tspan><tspan class="cls-3" x="8.14" y="0">o</tspan><tspan class="cls-38" x="15" y="0">n</tspan><tspan class="cls-21" x="21.93" y="0">e</tspan><tspan class="cls-49" x="28.19" y="0">s</tspan><tspan class="cls-14" x="33.13" y="0">t</tspan><tspan class="cls-9" x="37.27" y="0">i</tspan><tspan class="cls-26" x="40.19" y="0">d</tspan><tspan class="cls-4" x="47.24" y="0">a</tspan><tspan class="cls-26" x="53.25" y="0">d</tspan></text>
          <text class="cls-54" transform="translate(68.31 310.61)"><tspan class="cls-11" x="0" y="0">T</tspan><tspan class="cls-53" x="5.65" y="0">r</tspan><tspan class="cls-4" x="9.67" y="0">a</tspan><tspan class="cls-38" x="15.69" y="0">n</tspan><tspan class="cls-49" x="22.62" y="0">s</tspan><tspan class="cls-3" x="27.56" y="0">p</tspan><tspan class="cls-4" x="34.67" y="0">a</tspan><tspan class="cls-28" x="40.69" y="0">r</tspan><tspan class="cls-21" x="44.65" y="0">e</tspan><tspan class="cls-38" x="50.91" y="0">n</tspan><tspan class="cls-37" x="57.84" y="0">c</tspan><tspan class="cls-9" x="63.43" y="0">i</tspan><tspan class="cls-4" x="66.36" y="0">a</tspan></text>
          <text class="cls-54" transform="translate(62.49 224.63)"><tspan class="cls-23" x="0" y="0">C</tspan><tspan class="cls-48" x="7.11" y="0">o</tspan><tspan class="cls-58" x="13.96" y="0">m</tspan><tspan class="cls-7" x="24.38" y="0">p</tspan><tspan class="cls-10" x="31.49" y="0">r</tspan><tspan class="cls-3" x="35.45" y="0">o</tspan><tspan class="cls-58" x="42.3" y="0">m</tspan><tspan class="cls-9" x="52.72" y="0">i</tspan><tspan class="cls-49" x="55.64" y="0">s</tspan><tspan class="cls-3" x="60.59" y="0">o</tspan><tspan class="cls-12" x="67.44" y="0"> </tspan><tspan class="cls-22" x="70.09" y="0">c</tspan><tspan class="cls-3" x="75.61" y="0">o</tspan><tspan class="cls-38" x="82.47" y="0">n</tspan><tspan class="cls-12" x="89.4" y="0"> </tspan><tspan class="cls-36" x="37.32" y="12.49">l</tspan><tspan class="cls-3" x="40.27" y="12.49">o</tspan><tspan class="cls-49" x="47.12" y="12.49">s</tspan><tspan class="cls-12" x="52.07" y="12.49"> </tspan><tspan class="cls-26" x="54.72" y="12.49">d</tspan><tspan class="cls-21" x="61.76" y="12.49">e</tspan><tspan class="cls-58" x="68.02" y="12.49">m</tspan><tspan class="cls-4" x="78.43" y="12.49"></tspan><tspan class="cls-49" x="84.45" y="12.49">s</tspan></text>
          <circle class="cls-2" cx="273.73" cy="262.46" r="224.79"/>
          <text class="cls-19" transform="translate(215.84 266.04) rotate(-87.04) scale(1.05 1)"><tspan x="0" y="0">v</tspan></text>
          <text class="cls-19" transform="translate(217.12 252.58) rotate(-72.37) scale(1.05 1)"><tspan x="0" y="0">a</tspan></text>
          <text class="cls-19" transform="translate(222.52 238.54) rotate(-60.26) scale(1.05 1)"><tspan x="0" y="0">l</tspan></text>
          <text class="cls-19" transform="translate(227.17 230.92) rotate(-48.48) scale(1.05 1)"><tspan x="0" y="0">o</tspan></text>
          <text class="cls-19" transform="translate(237.56 220.44) rotate(-36.2) scale(1.05 1)"><tspan x="0" y="0">r</tspan></text>
          <text class="cls-19" transform="translate(245.8 214.79) rotate(-24.04) scale(1.05 1)"><tspan x="0" y="0">e</tspan></text>
          <text class="cls-19" transform="translate(259.57 209.52) rotate(-11.43) scale(1.05 1)"><tspan x="0" y="0">s</tspan></text>
          <text class="cls-19" transform="translate(271.34 207.79) rotate(-.79) scale(1.05 1)"><tspan x="0" y="0"> </tspan></text>
          <text class="cls-19" transform="translate(280.86 207.93) rotate(11.31) scale(1.05 1)"><tspan x="0" y="0">d</tspan></text>
          <text class="cls-19" transform="translate(295.38 211.54) rotate(25.94) scale(1.05 1)"><tspan x="0" y="0">e</tspan></text>
          <text class="cls-19" transform="translate(308.27 218.76) rotate(37.71) scale(1.05 1)"><tspan x="0" y="0">l</tspan></text>
          <text class="cls-19" transform="translate(315.13 224.59) rotate(47.08) scale(1.05 1)"><tspan x="0" y="0"> </tspan></text>
          <text class="cls-19" transform="translate(321.38 231.74) rotate(59.49) scale(1.05 1)"><tspan x="0" y="0">c</tspan></text>
          <text class="cls-19" transform="translate(328.21 244.71) rotate(74.62) scale(1.05 1)"><tspan x="0" y="0">o</tspan></text>
          <text class="cls-19" transform="translate(331.44 259.03) rotate(89.62) scale(1.05 1)"><tspan x="0" y="0">o</tspan></text>
          <text class="cls-19" transform="translate(330.85 273.68) rotate(104.9) scale(1.05 1)"><tspan x="0" y="0">p</tspan></text>
          <text class="cls-19" transform="translate(326.31 287.94) rotate(119.91) scale(1.05 1)"><tspan x="0" y="0">e</tspan></text>
          <text class="cls-19" transform="translate(318.25 300.28) rotate(132.25) scale(1.05 1)"><tspan x="0" y="0">r</tspan></text>
          <text class="cls-19" transform="translate(311.24 307.54) rotate(144.66) scale(1.05 1)"><tspan x="0" y="0">a</tspan></text>
          <text class="cls-19" transform="translate(298.5 315.52) rotate(156.9) scale(1.05 1)"><tspan x="0" y="0">t</tspan></text>
          <text class="cls-19" transform="translate(289.19 318.97) rotate(166.14) scale(1.05 1)"><tspan x="0" y="0">i</tspan></text>
          <text class="cls-19" transform="translate(280.45 320.83) rotate(176.98) scale(1.05 1)"><tspan x="0" y="0">v</tspan></text>
          <text class="cls-19" transform="translate(266.79 320.8) rotate(-171.91) scale(1.05 1)"><tspan x="0" y="0">i</tspan></text>
          <text class="cls-19" transform="translate(257.97 319.18) rotate(-161.61) scale(1.05 1)"><tspan x="0" y="0">s</tspan></text>
          <text class="cls-19" transform="translate(246.88 315.27) rotate(-146.39) scale(1.05 1)"><tspan x="0" y="0">m</tspan></text>
          <text class="cls-19" transform="translate(231.67 303.86) rotate(-129.47) scale(1.05 1)"><tspan x="0" y="0">o</tspan></text>
        </g>
      </g>
    </g>
  </g>
</svg>