<?xml version="1.0" encoding="UTF-8"?>
<svg id="Capa_2" data-name="Capa 2" xmlns="http://www.w3.org/2000/svg" viewBox="0 0 168.69 102.83">
  <defs>
    <style>
      .cls-1 {
        fill: #fad7d9;
      }

      .cls-2 {
        fill: #fff;
      }
    </style>
  </defs>
  <g id="Capa_1-2" data-name="Capa 1">
    <g>
      <path class="cls-2" d="m140.63,41.61c-.8-6.65-3.91-16.42-14.23-25.23-.16-.14-.39-.16-.57-.06-.18.1-.28.31-.25.51.03.16.13.8.3,1.78.02.1,1.04.1,1.01-.04-.03-.18-.06-.36-.09-.51,16.07,14.53,13.13,31.48,12.29,35.05-.54-.43-1.06-.98-1.57-1.63-.33.14-.68.23-1.04.26.84,1.13,1.72,2.04,2.64,2.62.08.05.17.08.27.08.06,0,.12-.01.17-.03.15-.05.26-.17.3-.32.07-.21,1.63-5.27.77-12.48Z"/>
      <path class="cls-2" d="m129.79,8.13c-.18-.07-.39-.02-.53.11-.14.14-.18.34-.12.53.68,1.84,1.36,3.64,2.05,5.38.33-.09.66-.15,1-.18-.57-1.45-1.14-2.93-1.7-4.44,2.17,1.02,7.31,3.82,12,9.11,5.48,6.2,11.41,17.18,8.99,34.54-.49-.77-1.21-1.93-2.12-3.46-.24.24-.5.46-.78.65,1.71,2.88,2.75,4.42,2.78,4.47.09.14.25.22.41.22.04,0,.07,0,.11-.01.2-.04.35-.21.39-.41,5.69-35.47-22.2-46.4-22.48-46.51Z"/>
      <line class="cls-2" x1="129.62" y1="8.6" x2="145.92" y2=".5"/>
      <path class="cls-2" d="m129.62,9.1c-.18,0-.36-.1-.45-.28-.12-.25-.02-.55.23-.67L145.7.05c.25-.12.55-.02.67.23.12.25.02.55-.23.67l-16.3,8.1c-.07.04-.15.05-.22.05Z"/>
      <line class="cls-2" x1="151.89" y1="55.03" x2="168.19" y2="46.93"/>
      <path class="cls-2" d="m151.89,55.53c-.18,0-.36-.1-.45-.28-.12-.25-.02-.55.23-.67l16.3-8.1c.25-.12.55-.02.67.23.12.25.02.55-.23.67l-16.3,8.1c-.07.04-.15.05-.22.05Z"/>
      <path class="cls-2" d="m45.24,24.28c-.1.5-.24,1.14-.39,1.87.11-.01.21-.03.32-.03.25,0,.48.03.7.08.37-1.73.58-2.87.63-3.1.04-.21-.06-.41-.23-.52-.18-.11-.41-.09-.57.04-21.43,17.24-15.47,39.25-15.41,39.47.04.15.15.27.3.33.06.02.12.04.19.04.09,0,.18-.02.25-.07,1.26-.75,2.46-2.03,3.6-3.68-.29-.15-.57-.33-.83-.52-.87,1.25-1.78,2.27-2.71,2.96-.36-1.67-1.12-6.29-.23-12.17.99-6.59,4.31-16.12,14.38-24.68Z"/>
      <path class="cls-2" d="m20.28,57.32c-1,1.58-1.79,2.76-2.31,3.53-3.53-31.8,18.46-43.41,23.63-45.69-.58,1.42-1.16,2.81-1.73,4.17.34.05.67.12.99.23.71-1.67,1.41-3.37,2.12-5.12.07-.18.03-.39-.1-.53-.13-.14-.34-.19-.53-.13-.3.1-30.14,10.81-25.21,48.5.03.2.17.37.37.42.04.01.08.02.12.02.16,0,.31-.08.41-.21.04-.05,1.16-1.62,3.02-4.56-.28-.18-.54-.4-.78-.63Z"/>
      <line class="cls-2" x1="42.51" y1="14.26" x2="25.5" y2="5.18"/>
      <path class="cls-2" d="m42.51,14.76c-.08,0-.16-.02-.23-.06L25.27,5.62c-.24-.13-.34-.43-.21-.68.13-.24.43-.34.68-.21l17,9.08c.24.13.34.43.21.68-.09.17-.26.26-.44.26Z"/>
      <line class="cls-2" x1="17.51" y1="62.71" x2=".5" y2="53.63"/>
      <path class="cls-2" d="m17.5,63.21c-.08,0-.16-.02-.23-.06L.26,54.07c-.24-.13-.34-.43-.21-.68.13-.24.43-.34.68-.21l17,9.08c.24.13.34.43.21.68-.09.17-.26.26-.44.26Z"/>
      <path class="cls-2" d="m87.23,89.3c-.24-.15-.47-.31-.71-.46-.48.33-1.07.73-1.8,1.21-1.41.93-2.4,1.39-3.08,1.62-.08.15-.15.3-.24.44-.18.3-.42.56-.69.76.77-.03,2.17-.41,4.56-1.99.62-.41,1.44-.96,2.18-1.47-.07-.04-.15-.07-.22-.11Z"/>
      <path class="cls-2" d="m51.75,68.79s.02.02.04.02l-8.44-6.99s-.08-.06-.12-.08l-13.32-5.62c-.02.34-.07.69-.15,1.02l13.01,5.49,6.82,5.63c.67-.16,1.42-.05,2.17.51Z"/>
      <path class="cls-2" d="m70.97,27.19l-13.5,3.09-13.56-5.25c-.21.29-.46.55-.73.79l14.07,5.44c.09.04.19.04.29.02l12.9-2.95c.11-.42.28-.81.52-1.15Z"/>
      <path class="cls-2" d="m127.01,62.77c-.43-2.01-1.63-3.71-3.39-4.78l-38.27-23.24s-.69.24-1.11.49l38.86,23.6c1.52.92,2.56,2.39,2.93,4.13.37,1.74.02,3.5-1,4.96-1.89,2.73-5.61,3.55-8.48,1.87l-16.06-9.42c-.24-.14-.54-.06-.68.18-.14.24-.06.54.17.68l13.14,7.91c1.5.9,2.55,2.41,2.87,4.13.32,1.72-.11,3.5-1.18,4.89-1.99,2.58-5.66,3.15-8.34,1.31l-11.15-7.67c-.23-.16-.54-.1-.69.13-.16.23-.1.54.12.69l9.95,6.95c1.08.75,1.78,1.93,1.93,3.24.15,1.31-.28,2.61-1.16,3.59-1.46,1.61-3.88,1.97-5.74.85l-12.44-7.46c-.24-.14-.54-.07-.68.17-.14.23-.07.54.16.69l7.72,4.76c.83.51,1.4,1.35,1.58,2.3.17.96-.06,1.94-.66,2.71-1.03,1.34-2.92,1.73-4.4.91l-7.7-4.29c0,.4-.05.76-.12,1.07l7.34,4.09c.67.38,1.41.56,2.15.56,1.35,0,2.67-.61,3.53-1.73.76-.99,1.07-2.27.85-3.5-.06-.3-.14-.59-.26-.87l2.42,1.45c2.27,1.36,5.22.93,7-1.03,1.08-1.19,1.59-2.78,1.41-4.37-.07-.61-.23-1.19-.49-1.73,2.94,1.26,6.45.42,8.47-2.2,1.25-1.61,1.74-3.68,1.37-5.69-.16-.87-.49-1.69-.94-2.43h0c3.31,1.95,7.62,1,9.81-2.16,1.17-1.69,1.58-3.73,1.15-5.74Z"/>
      <path class="cls-2" d="m139.94,50.02l-6.63,2.11c-.09.03-.17.08-.23.15-3.75,4.34-7.83,5.8-8.76,6.09l-39.03-23.4c-.08-.05-.17-.07-.26-.07-.05,0-.11,0-.16.03l-8.2,2.8c-.11.04-.21.11-.27.21-6.97,11.47-15.01,9.44-17.01,8.7l7.52-16.29,18.93-10.35,28.76,2.79c.07,0,.13,0,.2-.02.47-.15,7.39-2.33,12.9-4.1-.24-.25-.42-.55-.55-.87-4.36,1.4-9.68,3.08-12.56,3.99l-28.81-2.79c-.1,0-.2.01-.29.06l-19.21,10.5c-.09.05-.17.13-.21.23l-7.8,16.91c-.11.25,0,.54.24.66.1.05,10.33,4.81,18.66-8.74l7.81-2.67,39.02,23.39c.08.05.17.07.26.07.04,0,.08,0,.12-.02.2-.05,4.94-1.28,9.37-6.35l6.25-1.99c-.07-.34-.09-.68-.06-1.03Z"/>
      <path class="cls-2" d="m116.76,35.27c-.02-.28-.24-.48-.53-.47-.28.02-.48.26-.47.53,0,.09.46,8.88-7.94,13.31.28.21.51.48.68.78,8.75-4.77,8.26-14.06,8.26-14.16Z"/>
      <path class="cls-2" d="m54.23,77.7c-1.23,0-2.63-.35-3.73-1.6-2.47-2.79-2.72-4.61-2.62-6.16h0c.02-.35.16-1.21.99-1.75.85-.55,2.07-.53,3.64.06,3.05,1.15,6.27,3.97,6.02,6.03,0,.05-.02.1-.04.15l-1.15,2.45c-.05.11-.14.2-.25.25-.09.04-1.34.57-2.85.58Zm-3.87-8.91c-.38,0-.7.08-.95.24-.45.29-.52.77-.54.97h0c-.09,1.54.28,3.06,2.38,5.44,1.73,1.96,4.55,1.1,5.26.84l1.03-2.19c.05-1.27-2.42-3.78-5.39-4.9-.69-.26-1.3-.39-1.79-.39Zm-1.98,1.18h0,0Z"/>
      <path class="cls-2" d="m61.16,84.91c-1.51,0-2.54-.61-3.79-1.59-2.28-1.78-1.51-4.84-1.48-4.97.05-.16,1.09-3.35,2.44-5.91.64-1.21,1.66-2.04,2.95-2.41,1.52-.43,3.31-.13,4.9.81,2.95,1.75,2.51,5.91,2.49,6.09,0,.05-.02.1-.04.15l-2.9,6.5c-.05.12-.15.21-.27.26-1.87.75-3.21,1.07-4.31,1.07Zm1.56-14.07c-.4,0-.8.05-1.17.16-1.02.29-1.82.95-2.33,1.91-1.31,2.48-2.36,5.69-2.37,5.72-.02.08-.63,2.53,1.13,3.9,1.82,1.42,2.88,2.04,6.92.45l2.78-6.24c.04-.52.19-3.74-2.02-5.04-.96-.57-1.99-.86-2.95-.86Zm5.46,6.04h0,0Z"/>
      <path class="cls-2" d="m71.99,89.46c-1.09,0-2.49-.22-4.07-.98-3.7-1.8-3.13-5.16-3.12-5.19,0-.04.02-.08.04-.11l2.9-6.5c1.06-1.86,2.34-2.99,3.81-3.38,1.68-.45,3.13.18,3.85.6h0c2.67,1.55,3.68,4.28,2.73,7.29-.67,2.12-3.47,7.46-3.59,7.68-.05.1-.14.19-.25.23-.06.03-.93.37-2.29.37Zm-6.22-5.94c-.05.38-.22,2.7,2.59,4.06,2.67,1.3,4.8.82,5.38.64.5-.96,2.85-5.52,3.43-7.35.3-.95,1.03-4.19-2.28-6.12-.58-.34-1.76-.85-3.09-.5-1.2.32-2.27,1.29-3.18,2.87l-2.85,6.4Z"/>
      <path class="cls-2" d="m79.94,93.15c-.64,0-1.43-.11-2.39-.39-3.63-1.08-3.94-3.96-3.96-4.08,0-.09,0-.19.05-.27l2.45-4.95c.03-.08,1.18-2.66,3.81-2.63,1.32.03,2.67.73,3.61,1.88.78.94,1.13,2,.97,2.9-.3,1.72-1.9,6.29-1.97,6.48-.02.05-.04.09-.07.13-.09.12-.75.92-2.51.92Zm-5.33-4.44c.1.5.63,2.32,3.23,3.09,2.56.77,3.56.05,3.77-.14.24-.69,1.63-4.72,1.9-6.22.11-.6-.18-1.39-.76-2.1-.76-.93-1.83-1.5-2.86-1.52-1.98-.03-2.84,1.96-2.88,2.04l-2.39,4.84Zm7.44,3.22h0,0Z"/>
      <path class="cls-2" d="m139.39,54.44c-.12,0-.23-.04-.32-.12-.14-.12-.21-.31-.17-.49,4.74-22.33-12.96-36.54-13.14-36.68-.13-.1-.2-.27-.19-.44s.11-.32.26-.4l7.87-4.23c.18-.1.39-.08.55.05,20.97,16.83,16.44,37.31,16.39,37.52-.04.16-.15.29-.3.35l-10.77,4.4c-.06.02-.12.04-.19.04Zm-12.43-37.59c3.03,2.67,16.88,16.16,13.11,36.27l9.66-3.94c.21-1.09.92-5.69-.31-11.79-1.29-6.38-5.03-15.74-15.53-24.27l-6.93,3.73Z"/>
      <path class="cls-2" d="m30.77,62.44c-.07,0-.14-.01-.2-.04l-11.26-4.99c-.15-.07-.25-.2-.29-.36-.04-.22-4.2-22.02,18.5-39.17.16-.12.38-.14.55-.03l8.19,4.72c.15.08.24.24.25.4,0,.17-.07.33-.2.43-.19.14-19.38,14.65-15.04,38.45.03.18-.04.37-.18.48-.09.07-.2.11-.31.11Zm-10.81-5.83l10.17,4.5c-3.41-21.48,11.78-35.37,15-38.04l-7.27-4.19c-20.61,15.76-18.28,35.3-17.9,37.73Z"/>
    </g>
    <g>
      <g>
        <path class="cls-1" d="m70.67,27.5l15.11-8.26c.09-.05.19-.07.29-.06l28.81,2.79c.15-.05.31-.1.47-.15-8.16-7.3-18.92-11.74-30.73-11.74-14.4,0-27.26,6.61-35.72,16.95l8.85,3.42,12.93-2.96Z"/>
        <path class="cls-1" d="m127.29,62.95c.43,2.01.02,4.05-1.15,5.74-2.19,3.16-6.49,4.1-9.81,2.16h0c.45.73.78,1.56.94,2.43.38,2-.12,4.07-1.37,5.69-2.02,2.62-5.53,3.46-8.47,2.2.25.54.42,1.12.49,1.73.18,1.59-.34,3.19-1.41,4.37-1.78,1.96-4.73,2.4-7,1.03l-2.42-1.45c.11.28.2.57.26.87.23,1.23-.08,2.51-.85,3.5-.86,1.12-2.19,1.73-3.53,1.73-.73,0-1.47-.18-2.15-.56l-3.95-2.2c-.47.32-.92.62-1.31.88-1.38.91-2.42,1.41-3.2,1.69-.37.26-1.04.58-2.14.58-.64,0-1.43-.11-2.39-.39-2.68-.8-3.55-2.57-3.83-3.5-.4.1-.99.2-1.73.2-1.09,0-2.49-.22-4.07-.98-2.58-1.25-3.08-3.26-3.15-4.38-1.5.55-2.66.81-3.61.81-1.5,0-2.54-.61-3.79-1.59-2.28-1.78-1.51-4.84-1.48-4.97.02-.05.13-.39.31-.92-.51.14-1.21.28-1.98.28-1.23,0-2.63-.35-3.73-1.6-2.47-2.79-2.72-4.61-2.62-6.16.02-.35.16-1.21.99-1.75.12-.08.26-.12.39-.17l-6.5-5.37-4.29-1.81c2.41,23.21,22.02,41.31,45.87,41.31,25.43,0,46.05-20.58,46.12-45.99-2.3,1.79-4.34,2.65-5.37,3.02.96.98,1.62,2.21,1.92,3.59Z"/>
      </g>
      <g>
        <path class="cls-2" d="m57.71,30.98l-9.63-3.73.44-.53c8.9-10.89,22.06-17.13,36.11-17.13,11.48,0,22.51,4.21,31.06,11.86l.66.59-1.4.44-28.91-2.8-15.24,8.31-13.08,2.99Zm-7.98-4.16l8.05,3.12,12.71-2.91,15.05-8.23c.18-.1.38-.14.57-.12l27.98,2.71c-8.23-6.98-18.65-10.81-29.47-10.81-13.51,0-26.19,5.91-34.89,16.24Z"/>
        <path class="cls-2" d="m84.62,102.83c-23.97,0-43.9-17.95-46.37-41.76l-.09-.84,5.19,2.21,7.14,5.9-.91.37c-.07.03-.14.05-.18.08-.64.42-.75,1.09-.76,1.36-.09,1.44.16,3.15,2.5,5.8.84.95,1.97,1.43,3.36,1.43.74,0,1.41-.14,1.84-.26l.92-.25-.32.9c-.16.46-.27.78-.3.88-.03.12-.73,2.87,1.3,4.45,2.06,1.61,3.29,2.04,6.92.7l.63-.23.04.67c.06.99.51,2.82,2.87,3.96,1.84.89,3.82,1.15,5.46.75l.46-.11.14.45c.26.87,1.06,2.44,3.49,3.16.83.25,1.59.37,2.25.37.96,0,1.54-.26,1.85-.48l.12-.06c.88-.31,1.92-.86,3.09-1.63.38-.25.84-.56,1.31-.87l.25-.17,4.22,2.35c.58.32,1.23.49,1.9.49,1.23,0,2.4-.57,3.14-1.53.68-.88.95-2.02.75-3.11-.05-.26-.12-.52-.23-.77l-.57-1.39,3.71,2.22c2.07,1.24,4.75.84,6.37-.94.98-1.08,1.45-2.53,1.29-3.98-.06-.54-.21-1.08-.44-1.58l-.55-1.18,1.2.52c2.79,1.19,6.02.35,7.88-2.05,1.16-1.5,1.62-3.43,1.27-5.29-.15-.8-.45-1.56-.88-2.26l-1.03-1.67,1.71.97c3.1,1.82,7.12.93,9.15-2.01,1.09-1.58,1.47-3.48,1.08-5.35h0c-.27-1.26-.89-2.42-1.79-3.35l-.54-.56.74-.26c.99-.35,2.98-1.19,5.23-2.94l.81-.63v1.02c-.08,25.64-20.99,46.49-46.62,46.49Zm-45.28-41.02c2.79,22.88,22.11,40.02,45.28,40.02,24.75,0,45-19.87,45.61-44.49-1.6,1.13-3.02,1.82-4,2.22.77.95,1.3,2.08,1.55,3.28.46,2.15.02,4.32-1.23,6.13-2.05,2.96-5.86,4.1-9.15,2.92.16.42.28.84.36,1.28.4,2.14-.13,4.36-1.46,6.08-1.91,2.47-5.09,3.51-8.04,2.71.07.28.13.57.16.86.19,1.74-.37,3.47-1.54,4.76-1.94,2.14-5.15,2.61-7.62,1.13l-1.37-.82c.16,1.28-.19,2.59-.98,3.62-.92,1.2-2.39,1.92-3.93,1.92-.84,0-1.66-.21-2.39-.62l-3.68-2.05c-.38.26-.74.5-1.06.71-1.21.8-2.3,1.38-3.25,1.72-.44.3-1.19.63-2.37.63-.76,0-1.61-.14-2.53-.41-2.52-.75-3.57-2.31-4.01-3.4-1.79.32-3.8,0-5.69-.91-2.37-1.15-3.13-2.9-3.35-4.15-3.63,1.22-5.15.6-7.28-1.06-2.54-1.98-1.69-5.35-1.65-5.5,0-.03.02-.07.04-.11-2.13.34-4.05-.23-5.32-1.67-2.59-2.93-2.85-4.87-2.75-6.53.02-.39.17-1.31.99-1.97l-5.87-4.85-3.44-1.45Z"/>
      </g>
    </g>
  </g>
</svg>