<?xml version="1.0" encoding="UTF-8"?>
<svg id="Capa_2" data-name="Capa 2" xmlns="http://www.w3.org/2000/svg" viewBox="0 0 104.91 115.45">
  <defs>
    <style>
      .cls-1 {
        fill: #fad7d9;
      }

      .cls-2 {
        fill: #fff;
      }
    </style>
  </defs>
  <g id="Capa_1-2" data-name="Capa 1">
    <path class="cls-1" d="m.02,96.23s29.17-36.26,43.3-47.5l3.7,1.75-1.57,3.34-5.11,19.08s.33,3.25,3.34,4.33c2.75.98,4.72-1.57,4.72-1.57l5.11-14.56,7.08-1.57,20.3,15.08-32.77,40.18-24.26.37S8.3,104.41.02,96.23Z"/>
    <g>
      <path class="cls-2" d="m86.72,43.26c-.05-.19-1.26-4.7-5.31-9.68-3.73-4.59-10.65-10.42-22.51-12.13-.21-.03-.41.07-.51.26-.1.18-.07.41.06.57.16.18,1.04,1.18,2.4,2.64.35-.14.72-.24,1.1-.3-.73-.78-1.35-1.45-1.8-1.95,18.46,3.29,24.27,16.98,25.39,20.18-.6-.08-1.25-.26-1.92-.51-.03.33-.08.67-.16.99,1,.35,1.94.56,2.79.56.16,0,.3-.07.4-.19.09-.12.13-.28.09-.43Z"/>
      <path class="cls-2" d="m96.23,37.83c-12.45-29.16-38.42-24.18-38.69-24.12-.19.04-.34.19-.39.38-.04.19.03.39.18.51,1.38,1.05,2.73,2.07,4.06,3.05.21-.26.45-.5.72-.71-1.06-.78-2.14-1.58-3.23-2.41,2.17-.25,7.22-.54,13.06,1.17,6.96,2.03,16.48,7.39,22.83,21.33-.76-.36-1.87-.9-3.28-1.63-.06.33-.15.66-.28.98,2.74,1.41,4.29,2.09,4.34,2.11.06.03.13.04.2.04.13,0,.26-.05.35-.15.15-.14.19-.36.11-.55Z"/>
      <path class="cls-2" d="m75.43,58.08c0,.55-.04,1.09-.11,1.63-.46,3.44-1.69,5.94-3.63,7.48.01.01.02.02.03.04.2.27.37.54.51.81,2.19-1.7,3.57-4.45,4.07-8.19.14-1.05.16-2.13.09-3.21-.23.55-.56,1.04-.97,1.45Z"/>
      <path class="cls-2" d="m76.26,52.63c-.02.17-.03.35-.05.52-.89,6.6-4.11,10.35-6.43,12.26.28.22.52.47.72.74,2.46-2.02,5.76-5.95,6.7-12.87.06-.44.09-.88.11-1.32-.32.26-.68.48-1.05.67Z"/>
      <path class="cls-2" d="m30.88,60.96l3.68-16.97,22-15.04c.32-.66.78-1.25,1.35-1.75-.17-.11-.38-.13-.55-.01l-23.53,16.08c-.11.07-.18.18-.21.31l-4.09,18.84c.37-.6.83-1.09,1.34-1.47Z"/>
      <path class="cls-2" d="m66.23,63.35c1.57-1.71,3.2-4.15,4.22-7.56-.38.16-.77.28-1.18.34-.96,2.83-2.36,4.91-3.72,6.42.26.24.48.51.68.8Z"/>
      <path class="cls-2" d="m81.92,74.11c-.16-.12-10.08-7.43-20.75-14.82-.32.16-.66.3-1.01.39-.05.01-.09.02-.14.03,9.63,6.66,18.8,13.36,20.87,14.88l-33.02,39.18-23.6.44C7.77,103.48.63,96.98,1,95.97c11.39-15.04,39.51-45.13,42.32-47.24,1.07.65,2.22,1.36,3.41,2.12.09-.22.17-.43.29-.64.05-.09.12-.16.18-.24-1.26-.8-2.48-1.55-3.6-2.23-.37-.22-1.01-.61-17.92,17.93C14.72,77.66,5.2,88.77.2,95.36c-.12.16-.26.45-.18.86.66,3.75,21.47,17.38,23.84,18.92.08.05.18.08.27.08h0l23.98-.45c.14,0,.28-.07.37-.18l33.51-39.76c.09-.11.13-.24.11-.38-.02-.14-.09-.26-.2-.34Z"/>
      <path class="cls-2" d="m63.99,23.14c-.45-.08-.87-.21-1.24-.39-2.32,1.88-4.74,3.83-6.02,4.87-.06.05-.13.21-.17.28l-.81,1.59c.81-.55,1.36-.89,1.8-1.22,1.4-1.04,4.04-3.17,6.43-5.14Z"/>
      <path class="cls-2" d="m84.37,39.45c-1.43,3.95-3.46,8.1-6.27,10.85-6.86,6.72-24.45,10.33-24.63,10.37-.17.04-.32.16-.37.33l-4.64,13.41c-.04.14-1.14,3.43-4.85,2.4-1.08-.3-1.83-.84-2.24-1.62-.75-1.41-.15-3.18-.14-3.23l4.8-18.27,7.43-16.44c-.44-.57-1.02-.16-1.02-.16l-7.35,16.26-4.81,18.32c-.03.09-.74,2.18.21,3.98.54,1.04,1.51,1.75,2.86,2.13.6.17,1.15.24,1.65.24,3.33,0,4.42-3.26,4.42-3.29l4.54-13.13c2.39-.5,18.18-4.04,24.85-10.57,2.81-2.75,4.85-6.75,6.31-10.61-.29-.28-.54-.61-.74-.96Z"/>
      <path class="cls-2" d="m86.24,43.89s-.04,0-.07,0c-.18-.02-.34-.15-.4-.32-6.95-18.83-26.79-21.1-26.99-21.12-.17-.02-.32-.12-.39-.27s-.07-.33,0-.48l3.87-6.85c.1-.17.29-.28.49-.25,12.3,1.4,19.77,6.83,23.87,11.14,4.45,4.68,5.97,8.97,6.03,9.15.05.15.03.32-.07.45l-5.96,8.34c-.09.13-.25.21-.41.21Zm-26.61-22.34c3.69.61,20.11,4.22,26.74,20.79l5.26-7.37c-.83-2.05-7.48-16.79-28.65-19.35l-3.35,5.93Z"/>
      <path class="cls-2" d="m57.64,14.7c-.09,0-.18-.02-.26-.07-.24-.14-.31-.45-.17-.69L65.56.24c.14-.24.45-.31.69-.17.24.14.31.45.17.69l-8.34,13.7c-.09.15-.26.24-.43.24Z"/>
      <path class="cls-2" d="m96.07,38.83c-.09,0-.18-.02-.26-.07-.24-.14-.31-.45-.17-.69l8.34-13.7c.14-.24.45-.31.69-.17.24.14.31.45.17.69l-8.34,13.7c-.09.15-.26.24-.43.24Z"/>
      <path class="cls-2" d="m13.34,115.45c-.27,0-.5-.22-.5-.49,0-.28.22-.5.49-.51l47.06-.6h0c.27,0,.5.22.5.49,0,.28-.22.5-.49.51l-47.06.6h0Z"/>
    </g>
  </g>
</svg>