<?xml version="1.0" encoding="UTF-8"?>
<svg xmlns="http://www.w3.org/2000/svg" viewBox="0 0 158.99 163.2">
  <defs>
    <style>
      .cls-1 {
        fill: #fff;
        stroke: #6d9dc5;
        stroke-dasharray: 0 10;
        stroke-linecap: round;
        stroke-linejoin: round;
        stroke-width: 4px;
      }

      .cls-2 {
        fill: #fad7d9;
      }

      .cls-3 {
        fill: #fab715;
      }

      .cls-4 {
        fill: #efcacc;
      }

      .cls-5 {
        fill: #ffd003;
      }

      .cls-6 {
        fill: #11a37d;
      }

      .cls-7, .cls-8 {
        fill: #3765ae;
      }

      .cls-9 {
        fill: #6d9dc6;
      }

      .cls-8 {
        mix-blend-mode: multiply;
        opacity: .18;
      }

      .cls-10 {
        isolation: isolate;
      }

      .cls-11 {
        fill: #8acdcf;
        opacity: .5;
      }

      .cls-12 {
        fill: #fdfae3;
        opacity: .4;
      }
    </style>
  </defs>
  <g class="cls-10">
    <g id="Capa_2" data-name="Capa 2">
      <g id="Capa_1-2" data-name="Capa 1">
        <g>
          <path class="cls-1" d="m148.54,105.65h-1.11l.11-4.45c.59-3.46,2.01-12.75,1.97-22.25-.07-16.03-4.45-25.93-13.04-29.43-2.1-.85-4.44-1.45-7.15-1.82V10.45c0-2.45-1.07-4.78-2.92-6.39-1.55-1.34-3.51-2.06-5.53-2.06-.4,0-.81.03-1.21.09l-1.51.22c-4.39.6-27.29,3.61-46.65,3.61-7.45,0-13.31-.45-17.43-1.33-6.87-1.48-13.72-2.22-20.38-2.22-11.13,0-18.07,2.06-19.36,2.48l-.89.29c-3.49,1.13-5.85,4.38-5.85,8.04v45.61c-.32.27-.63.55-.92.84-3.61,3.61-5.21,8.32-4.52,13.3.66,4.7,3.74,11.58,14.66,17.62,7.68,4.25,40.38,10.38,63.32,14.3v.82h-3.83c-4.67,0-8.45,3.78-8.45,8.45v38.65c0,4.67,3.78,8.45,8.45,8.45h72.23c4.67,0,8.45-3.78,8.45-8.45v-38.65c0-4.67-3.78-8.45-8.45-8.45Z"/>
          <path class="cls-6" d="m118.31,13.39v42.39c-2.68.11-5.52.3-8.48.51-9.83.68-20.94,1.43-29.63-1.24,3.01-3.29,4.84-7.65,4.84-12.45,0-10.19-8.28-18.48-18.47-18.48s-18.48,8.29-18.48,18.48c0,6.11,2.99,11.52,7.57,14.89-1.68,2.06-2.46,4.62-2.28,7.44-3.57-.09-7.93-.41-12.5-.74-10.45-.75-17.62-1.14-22.27-.66V15.06c3.33-.85,15.78-3.45,33.15.28,19.03,4.09,58.33-.84,66.55-1.95Z"/>
          <circle class="cls-5" cx="134.68" cy="143.6" r="2.96"/>
          <path class="cls-5" d="m134.68,125.73c1.63,0,2.96,1.33,2.96,2.97s-1.33,2.96-2.96,2.96-2.96-1.33-2.96-2.96,1.33-2.97,2.96-2.97Z"/>
          <path class="cls-9" d="m94.16,126.93c1.04.35,1.49-1.29.46-1.65-4.93-1.68-9.59-3.85-14.05-6.5v-.42h3.7c3.72,1.81,7.56,3.28,11.57,4.36,1.06.29,1.51-1.36.45-1.65-2.7-.73-5.32-1.65-7.89-2.71h55.88v30.12h-7.04c1.76-.92,2.96-2.76,2.96-4.88,0-3.04-2.48-5.52-5.52-5.52s-5.52,2.48-5.52,5.52c0,2.12,1.2,3.96,2.96,4.88h-47.06c-1.5-.78-2.99-1.56-4.49-2.34v-2.37c3.22,1.61,6.53,2.99,9.94,4.14,1.04.35,1.49-1.29.46-1.64-3.58-1.22-7.04-2.7-10.4-4.41v-4.63c3.79,2.47,7.84,4.45,12.13,5.95,1.04.36,1.49-1.28.46-1.65-4.49-1.56-8.67-3.69-12.59-6.35v-5.2c3.83,2.91,8.03,5.14,12.61,6.67,1.05.35,1.5-1.29.46-1.65-4.79-1.61-9.14-4-13.06-7.18v-3.35c4.04,2.92,9.03,4.8,13.59,6.58,1.02.4,1.46-1.25.45-1.65-4.67-1.83-10.06-3.85-14.03-7.09v-1.55c4.33,2.49,8.85,4.55,13.59,6.17Zm46.03,1.77c0-3.05-2.48-5.53-5.52-5.53s-5.52,2.48-5.52,5.53,2.48,5.52,5.52,5.52,5.52-2.48,5.52-5.52Z"/>
          <path class="cls-2" d="m131.49,85.21c-.06,1.1,1.65,1.1,1.71,0,.17-3.46-.03-7.33-1.35-10.58-1.21-2.96-4.01-4.91-6.86-6.12-1-.42-1.87,1.05-.86,1.47,2.97,1.27,5.51,3.11,6.48,6.32.87,2.88,1.03,5.92.89,8.91Zm1.27,4.16c.09-1.1-1.61-1.09-1.71,0-.11,1.23-.21,2.45-.31,3.68-.1,1.09,1.61,1.08,1.7,0,.11-1.23.21-2.46.32-3.68Zm-1.08-28.08c6.89,2.81,5.63,25.09,3.21,38.47-.02.11-.03.22-.03.33l-.35,14.01h-41.65v-18.22c0-1.05-.75-1.94-1.78-2.1-16.64-2.73-61.31-10.61-68.1-14.37-4.79-2.65-7.87-5.74-8.22-8.26-.14-.97.16-1.77.92-2.53,1.95-1.81,16.32-.77,24.91-.16,5.06.36,9.87.71,13.73.78.14.4.3.79.48,1.2,5.36,12.04,37.68,10.83,41.36,10.65,1.17-.06,2.09-1.06,2.03-2.23-.06-1.18-1.08-2.1-2.23-2.03-8.71.41-21.44-.23-29.64-2.94,1.1-.48,2.01-1.31,2.56-2.53,1.29-2.86.5-6.58-.03-9.53-.19-1.08-1.83-.62-1.65.46.62,3.45,1.91,11.09-3.89,10.42-2.26-1.08-3.9-2.4-4.62-4-1.58-3.57-1.41-6.67.48-8.75,2.48-2.75,8.79-4.46,19.01-1.06,9.58,3.19,21.46,2.38,31.95,1.66,8.67-.59,16.86-1.16,21.55.75Z"/>
          <path class="cls-7" d="m134.68,123.17c3.04,0,5.52,2.48,5.52,5.53s-2.48,5.52-5.52,5.52-5.52-2.48-5.52-5.52,2.48-5.53,5.52-5.53Zm2.96,5.53c0-1.64-1.33-2.97-2.96-2.97s-2.96,1.33-2.96,2.97,1.33,2.96,2.96,2.96,2.96-1.33,2.96-2.96Z"/>
          <path class="cls-7" d="m132.76,89.36c-.11,1.23-.21,2.45-.32,3.68-.09,1.08-1.8,1.09-1.7,0,.1-1.23.2-2.46.31-3.68.09-1.09,1.8-1.1,1.71,0Z"/>
          <path class="cls-7" d="m130.6,76.3c-.97-3.21-3.51-5.05-6.48-6.32-1.01-.42-.14-1.89.86-1.47,2.85,1.21,5.65,3.16,6.86,6.12,1.33,3.25,1.52,7.11,1.35,10.58-.06,1.1-1.77,1.1-1.71,0,.14-2.98-.02-6.02-.89-8.91Z"/>
          <path class="cls-7" d="m112.35,45.14c-.08-2.88-.29-5.75-.62-8.61-.13-1.09,1.58-1.07,1.71,0,.33,2.86.53,5.73.62,8.61.03,1.1-1.68,1.1-1.71,0Z"/>
          <path class="cls-7" d="m103.19,20.02c-3.83.87-7.6,1.07-11.52.68-1.08-.1-1.09-1.81,0-1.7,4.02.4,7.8.1,11.73-.79,1.86-.41,4.45-1.41,6.4-.83,3.94,1.17,3.46,8.49,3.22,11.61-.08,1.09-1.79,1.1-1.71,0,.17-2.23.55-6.03-.63-8.02-1.46-2.46-5.04-1.51-7.49-.95Z"/>
          <path class="cls-3" d="m71.71,45.15c.82.75,1.22,1.77,1.22,3.1,0,1.41-.54,2.52-1.65,3.39-.19.15-.42.3-.72.46-.25.14-.41.4-.41.68v.06c-2.7-.22-5.17-.06-7.35.46v-.17c0-.32-.2-.61-.5-.73-.14-.06-.28-.12-.41-.18-.46-.23-.82-.51-1.06-.82-.21-.28-.32-.6-.32-.97s.1-.68.31-.93c0,0,0,0,.02-.02.22-.27.63-.32.98-.13.36.19.76.39,1.18.55.88.35,1.83.52,2.86.52,1.13,0,1.94-.19,2.48-.59.74-.56.89-1.2.89-1.64,0-.65-.29-1.2-.81-1.55-.37-.24-.85-.46-1.5-.68l-1.22-.41c-.83-.28-1.59-.57-2.26-.86-.63-.27-1.17-.59-1.61-.97-.42-.35-.74-.78-.98-1.26-.23-.48-.35-1.1-.35-1.83,0-1.4.52-2.5,1.61-3.34.1-.08.22-.15.33-.23.22-.14.35-.39.35-.65v-4.92c0-.26.11-.52.31-.69.19-.19.46-.27.73-.25.47.05.84.5.84,1.02v3.69c0,.23.09.44.26.58.16.15.38.22.61.19.62-.07,1.28-.08,1.91-.07.21,0,.41-.07.57-.22.15-.14.24-.35.24-.56v-3.71c0-.26.12-.52.31-.69.2-.19.46-.27.73-.25.48.05.84.5.84,1.02v4.24c0,.31.19.6.48.72l.08.03s.07.03.1.04c.4.19.71.42.92.69.19.25.27.52.27.85,0,.35-.07.63-.21.84,0,0,0,.03-.02.03-.14.22-.44.31-.69.21-.3-.13-.63-.24-.99-.34-.79-.22-1.65-.34-2.57-.34-1.02,0-1.78.16-2.32.47-.81.49-.99,1.13-.99,1.59,0,.54.25,1.01.7,1.34.32.24.77.44,1.35.63l1.55.49c1.7.54,3.02,1.23,3.9,2.05Z"/>
          <path class="cls-5" d="m67.56,47.96c.08.04.12.08.12.24,0,.05,0,.19-.27.39-.12.08-.49.28-1.54.28-.83,0-1.6-.14-2.29-.41-.36-.14-.69-.3-1-.47-1.01-.56-2.24-.35-2.96.51-.45.54-.68,1.19-.68,1.93s.22,1.36.64,1.92c.4.52.94.94,1.61,1.28,0,0,.03,0,.03,0v.12c-1.39.47-2.62,1.12-3.69,1.93-4.16-2.87-6.89-7.66-6.89-13.09,0-7.42,5.09-13.66,11.97-15.43.12-.03.24-.06.35-.08l.43,1.93c-.12.02-.23.05-.34.08-.37.1-.72.29-1.01.55-.52.48-.83,1.16-.83,1.86v4.5s-.05.04-.08.06c-1.46,1.14-2.21,2.68-2.21,4.57,0,.96.17,1.81.5,2.5s.79,1.29,1.38,1.79c.57.47,1.23.88,2,1.21.71.3,1.51.61,2.38.91l1.22.4c.5.18.88.35,1.13.52Z"/>
          <path class="cls-3" d="m82.49,42.6c0,4.57-1.95,8.69-5.05,11.6-1.88-.53-3.69-.92-5.44-1.16.08-.06.18-.12.25-.18,1.5-1.17,2.25-2.72,2.25-4.61,0-1.77-.57-3.19-1.72-4.25-1.06-.97-2.57-1.77-4.49-2.39l-1.55-.5c-.52-.16-.78-.3-.9-.39-.06-.04-.06-.06-.06-.08,0-.07.08-.15.23-.25.16-.09.57-.25,1.52-.25.78,0,1.5.09,2.14.28.3.08.58.18.83.28.95.38,2.04.05,2.58-.78,0,0,.02-.03.03-.03.31-.48.47-1.06.47-1.72,0-.68-.2-1.28-.6-1.8-.31-.41-.74-.76-1.25-1.04v-3.74c0-1.32-.99-2.45-2.25-2.58-.7-.07-1.41.16-1.93.63-.52.48-.83,1.16-.83,1.86v2.92c-.15,0-.3,0-.46,0v-2.85c0-1.32-.99-2.45-2.26-2.58-.19-.03-.4-.02-.58,0l-.43-1.93c1.15-.28,2.36-.41,3.59-.41,8.78,0,15.92,7.14,15.92,15.92Z"/>
          <path class="cls-7" d="m148.54,114.09v38.65h-72.23v-38.65h12.28v-16.41c-10.27-1.71-59.62-10.09-67.68-14.55-6.13-3.4-9.83-7.44-10.38-11.41-.32-2.31.41-4.43,2.13-6.14.74-.75,1.86-1.28,3.4-1.64V13.16l.89-.29c.57-.19,14.39-4.54,35.36-.03,20.42,4.39,66.65-2.12,67.11-2.18l1.46-.21v45.26c4.88-.07,9.11.29,12.42,1.63,12.14,4.95,6.64,38.42,5.82,43.01l-.35,13.74h9.78Zm-4.27,34.39v-30.12h-55.88c2.57,1.06,5.19,1.99,7.89,2.71,1.06.29.61,1.93-.45,1.65-4-1.08-7.85-2.55-11.57-4.36h-3.7v.42c4.46,2.64,9.13,4.82,14.05,6.5,1.03.35.58,2-.46,1.65-4.74-1.62-9.27-3.68-13.59-6.17v1.55c3.97,3.24,9.36,5.26,14.03,7.09,1.01.4.57,2.04-.45,1.65-4.55-1.78-9.55-3.66-13.59-6.58v3.35c3.92,3.19,8.27,5.58,13.06,7.18,1.04.35.59,2-.46,1.65-4.58-1.54-8.78-3.77-12.61-6.67v5.2c3.92,2.66,8.09,4.79,12.59,6.35,1.03.36.58,2.01-.46,1.65-4.29-1.5-8.34-3.48-12.13-5.95v4.63c3.36,1.72,6.82,3.19,10.4,4.41,1.03.35.58,1.99-.46,1.64-3.41-1.15-6.73-2.53-9.94-4.14v2.37c1.5.78,2.99,1.56,4.49,2.34h47.06c-1.76-.92-2.96-2.76-2.96-4.88,0-3.04,2.48-5.52,5.52-5.52s5.52,2.48,5.52,5.52c0,2.12-1.2,3.96-2.96,4.88h7.04Zm-6.64-4.88c0-1.63-1.33-2.96-2.96-2.96s-2.96,1.33-2.96,2.96,1.33,2.96,2.96,2.96,2.96-1.33,2.96-2.96Zm-2.75-43.84c2.42-13.38,3.68-35.66-3.21-38.47-4.69-1.91-12.88-1.34-21.55-.75-10.49.73-22.36,1.54-31.95-1.66-10.22-3.4-16.53-1.69-19.01,1.06-1.89,2.08-2.06,5.19-.48,8.75.72,1.6,2.36,2.91,4.62,4,5.8.67,4.5-6.97,3.89-10.42-.19-1.07,1.45-1.54,1.65-.46.52,2.95,1.32,6.67.03,9.53-.55,1.23-1.46,2.05-2.56,2.53,8.2,2.71,20.93,3.35,29.64,2.94,1.15-.07,2.17.84,2.23,2.03.06,1.17-.85,2.17-2.03,2.23-3.68.18-36,1.39-41.36-10.65-.18-.41-.34-.8-.48-1.2-3.86-.07-8.67-.41-13.73-.78-8.58-.61-22.96-1.65-24.91.16-.76.76-1.06,1.56-.92,2.53.35,2.53,3.43,5.61,8.22,8.26,6.79,3.76,51.46,11.64,68.1,14.37,1.03.16,1.78,1.06,1.78,2.1v18.22h41.65l.35-14.01c0-.11.02-.22.03-.33Zm-16.58-43.98V13.39c-8.21,1.11-47.52,6.04-66.55,1.95-17.37-3.73-29.83-1.13-33.15-.28v48.47c4.65-.48,11.82-.09,22.27.66,4.57.33,8.93.64,12.5.74-.18-2.82.6-5.38,2.28-7.44-4.58-3.36-7.57-8.78-7.57-14.89,0-10.19,8.29-18.48,18.48-18.48s18.47,8.29,18.47,18.48c0,4.79-1.83,9.16-4.84,12.45,8.69,2.67,19.8,1.92,29.63,1.24,2.97-.2,5.8-.4,8.48-.51Zm-40.88-1.58c3.1-2.91,5.05-7.03,5.05-11.6,0-8.78-7.14-15.92-15.92-15.92-1.23,0-2.44.14-3.59.41-.12.02-.24.04-.35.08-6.88,1.77-11.97,8.01-11.97,15.43,0,5.42,2.74,10.21,6.89,13.09,1.07-.81,2.31-1.46,3.69-1.93v-.12s-.03,0-.03,0c-.68-.34-1.22-.76-1.61-1.28-.42-.56-.64-1.2-.64-1.92s.23-1.39.68-1.93c.72-.85,1.95-1.06,2.96-.51.3.17.63.33,1,.47.69.27,1.46.41,2.29.41,1.05,0,1.42-.19,1.54-.28.27-.2.27-.34.27-.39,0-.15-.04-.19-.12-.24-.25-.17-.63-.34-1.13-.52l-1.22-.4c-.87-.3-1.67-.61-2.38-.91-.77-.33-1.44-.74-2-1.21-.58-.5-1.05-1.1-1.38-1.79s-.5-1.54-.5-2.5c0-1.89.74-3.43,2.21-4.57.03-.02.06-.04.08-.06v-4.5c0-.7.3-1.38.83-1.86.29-.26.63-.45,1.01-.55.11-.03.22-.06.34-.08.19-.03.39-.03.58,0,1.27.13,2.26,1.26,2.26,2.58v2.85c.15,0,.3,0,.46,0v-2.92c0-.7.3-1.38.83-1.86.52-.47,1.23-.7,1.93-.63,1.26.13,2.25,1.26,2.25,2.58v3.74c.52.28.94.63,1.25,1.04.4.52.6,1.12.6,1.8s-.16,1.23-.47,1.72c0,0-.02.03-.03.03-.53.83-1.62,1.16-2.58.78-.25-.1-.52-.19-.83-.28-.64-.19-1.36-.28-2.14-.28-.95,0-1.36.16-1.52.25-.15.09-.23.18-.23.25,0,.03,0,.04.06.08.13.09.38.23.9.39l1.55.5c1.92.62,3.43,1.42,4.49,2.39,1.15,1.06,1.72,2.48,1.72,4.25,0,1.89-.75,3.45-2.25,4.61-.08.06-.17.12-.25.18,1.75.24,3.57.63,5.44,1.16Zm-4.5-5.95c0-1.33-.4-2.35-1.22-3.1-.89-.82-2.21-1.51-3.9-2.05l-1.55-.49c-.58-.19-1.03-.39-1.35-.63-.45-.33-.7-.8-.7-1.34,0-.46.18-1.1.99-1.59.54-.31,1.3-.47,2.32-.47.92,0,1.78.12,2.57.34.35.1.69.21.99.34.25.1.55,0,.69-.21,0,0,.02-.02.02-.03.14-.21.21-.5.21-.84s-.08-.61-.27-.85c-.21-.27-.52-.51-.92-.69-.03-.02-.07-.03-.1-.04l-.08-.03c-.29-.12-.48-.41-.48-.72v-4.24c0-.52-.36-.97-.84-1.02-.27-.03-.52.06-.73.25-.19.18-.31.43-.31.69v3.71c0,.21-.08.41-.24.56-.15.15-.35.23-.57.22-.63-.02-1.29,0-1.91.07-.23.03-.45-.04-.61-.19-.17-.14-.26-.35-.26-.58v-3.69c0-.52-.37-.97-.84-1.02-.27-.03-.53.06-.73.25-.2.18-.31.43-.31.69v4.92c0,.26-.14.51-.35.65-.11.08-.23.14-.33.23-1.08.84-1.61,1.93-1.61,3.34,0,.74.12,1.35.35,1.83.24.48.56.91.98,1.26.44.38.98.7,1.61.97.68.3,1.44.58,2.26.86l1.22.41c.64.22,1.12.45,1.5.68.52.35.81.9.81,1.55,0,.44-.15,1.08-.89,1.64-.53.4-1.34.59-2.48.59-1.03,0-1.99-.18-2.86-.52-.42-.16-.82-.35-1.18-.55-.35-.19-.76-.14-.98.13,0,0-.02,0-.02.02-.21.25-.31.56-.31.93s.11.69.32.97c.25.31.6.59,1.06.82.13.06.26.12.41.18.3.12.5.41.5.73v.17c2.18-.52,4.66-.68,7.35-.46v-.06c0-.29.16-.55.41-.68.3-.16.53-.3.72-.46,1.11-.87,1.65-1.98,1.65-3.39Z"/>
          <path class="cls-7" d="m36.07,18.48c2.8-.14,5.62-.91,8.38-.32,1.07.23.62,1.88-.46,1.65-2.88-.62-6.31.35-9.26.43-2.9.07-5.76-.11-8.64-.46-1.07-.13-1.08-1.83,0-1.71,3.32.41,6.64.58,9.98.41Z"/>
          <path class="cls-7" d="m24.16,42.23c.33,5.83.35,11.66.08,17.5-.05,1.09-1.76,1.09-1.71,0,.27-5.84.25-11.67-.08-17.5-.06-1.1,1.65-1.1,1.71,0Z"/>
          <path class="cls-7" d="m24.49,36.84c.09,1.1-1.62,1.09-1.71,0l-.32-3.99c-.09-1.1,1.61-1.09,1.71,0l.32,3.99Z"/>
          <path class="cls-11" d="m41.19,27.29c.89-1.19.14-2.9-1.34-3.05-3.76-.36-8.87-.32-9.88,2.44-1.62,4.45-1.22,21.69,3.85,21.69s4.06-10.77,5.27-16.33c.46-2.1,1.27-3.65,2.09-4.75Z"/>
          <path class="cls-4" d="m103.18,81.6c3.85-9.3,2.23-11.13-14.4-11.13s-15.2-6.87-18.25-9.92c-1.82-1.82-4.71-2.21-6.58-3.14-2.2.51-3.8,1.43-4.78,2.52-1.89,2.08-2.06,5.19-.48,8.75.72,1.6,2.36,2.91,4.62,4,5.8.67,4.5-6.97,3.89-10.42-.19-1.07,1.45-1.54,1.65-.46.52,2.95,1.32,6.67.03,9.53-.55,1.23-1.46,2.05-2.56,2.53,8.2,2.71,20.93,3.35,29.64,2.94,1.15-.07,2.17.84,2.23,2.03.06,1.17-.85,2.17-2.03,2.23-3.68.18-36,1.39-41.36-10.65-.18-.41-.34-.8-.48-1.2-3.86-.07-8.67-.41-13.73-.78-8.58-.61-22.96-1.65-24.91.16-.76.76-1.06,1.56-.92,2.53.16,1.11.84,2.33,1.97,3.58,1.62-1.18,3.8-2.32,6.76-3.23,11.18-3.45,29.82,9.33,40.77,11.76,10.95,2.43,35.08,7.65,38.93-1.65Z"/>
          <path class="cls-12" d="m121.83,76.35s4.66.65,4.66,10.57-6.69,16.2-6.69,10.93,2.64-7.35-.2-13c-2.84-5.65-.51-10.6,2.23-8.49Z"/>
          <path class="cls-12" d="m122.4,110.82s1.15-8.42-1.38-5.88.23,11.15,1.38,5.88Z"/>
          <path class="cls-8" d="m100.34,131.65c1.05-6.3,3.87-10.55,6.57-13.29h-18.52c2.57,1.06,5.19,1.99,7.89,2.71,1.06.29.61,1.93-.45,1.65-4-1.08-7.85-2.55-11.57-4.36h-3.7v.42c4.46,2.64,9.12,4.82,14.05,6.5,1.03.35.58,2-.46,1.65-4.74-1.62-9.27-3.68-13.59-6.17v1.55c3.97,3.24,9.36,5.26,14.03,7.09,1.01.4.57,2.04-.45,1.65-4.55-1.78-9.55-3.66-13.59-6.58v3.35c3.92,3.19,8.27,5.58,13.06,7.18,1.04.35.59,2-.46,1.65-4.58-1.54-8.78-3.77-12.61-6.67v5.2c3.92,2.66,8.09,4.79,12.59,6.35,1.03.36.58,2.01-.46,1.65-4.29-1.5-8.34-3.48-12.13-5.95v4.63c3.36,1.72,6.82,3.19,10.4,4.41,1.03.35.58,1.99-.46,1.64-3.41-1.15-6.73-2.53-9.94-4.14v2.37c1.5.78,2.99,1.56,4.49,2.34h17.8c-1.89-3.57-3.76-9.29-2.51-16.83Z"/>
          <path class="cls-8" d="m107.84,39.16c1.01,12.66-7.49,9.16-16.99,11.82-4.24,1.19-5.91,3.2-6.47,5.06,7.91,1.43,17.12.82,25.44.25,2.97-.2,5.8-.4,8.48-.51v-29.41c-5.33,2.09-11.02,5.94-10.47,12.79Z"/>
          <path class="cls-11" d="m79.45,23.67s17.47-3.18,18.77,0c1.3,3.18-4.98,7.94-7.21,3.83s-14.26.08-11.56-3.83Z"/>
        </g>
      </g>
    </g>
  </g>
</svg>