<?xml version="1.0" encoding="UTF-8"?>
<svg id="Capa_2" data-name="Capa 2" xmlns="http://www.w3.org/2000/svg" viewBox="0 0 108.9 100.93">
  <defs>
    <style>
      .cls-1 {
        fill: #fff;
      }

      .cls-2 {
        fill: #3765ae;
      }
    </style>
  </defs>
  <g id="Capa_1-2" data-name="Capa 1">
    <rect class="cls-2" x="40.58" y="73.43" width="27.46" height="26.97" rx="5.67" ry="5.67"/>
    <rect class="cls-2" x="81.01" y="73.72" width="27.46" height="26.97" rx="5.67" ry="5.67"/>
    <rect class="cls-2" x="81.01" y="43.33" width="27.46" height="26.97" rx="5.67" ry="5.67"/>
    <g>
      <g>
        <path class="cls-1" d="m15.24,22.33c-6.16,0-11.17-5.01-11.17-11.17S9.08,0,15.24,0s11.17,5.01,11.17,11.17-5.01,11.17-11.17,11.17Zm0-21.33c-5.61,0-10.17,4.56-10.17,10.17s4.56,10.17,10.17,10.17,10.17-4.56,10.17-10.17S20.85,1,15.24,1Z"/>
        <path class="cls-1" d="m26.67,100.93H3.81c-2.1,0-3.81-1.71-3.81-3.81V32.64c0-5.02,2.48-9.72,6.62-12.57.19-.13.45-.11.62.04,2.2,1.97,5.04,3.06,8,3.06s5.8-1.09,8-3.06c.17-.15.43-.17.62-.04,4.15,2.85,6.62,7.55,6.62,12.57v64.49c0,2.1-1.71,3.81-3.81,3.81ZM6.87,21.12c-3.68,2.68-5.87,6.96-5.87,11.52v64.49c0,1.55,1.26,2.81,2.81,2.81h22.87c1.55,0,2.81-1.26,2.81-2.81V32.64c0-4.56-2.19-8.84-5.87-11.52-2.34,1.97-5.3,3.05-8.37,3.05s-6.03-1.08-8.37-3.05Z"/>
      </g>
      <path class="cls-1" d="m63.08,100.93h-17.31c-3.08,0-5.59-2.51-5.59-5.59v-16.72c0-3.08,2.51-5.59,5.59-5.59h17.31c3.08,0,5.59,2.51,5.59,5.59v16.72c0,3.08-2.51,5.59-5.59,5.59Zm-17.31-26.9c-2.53,0-4.59,2.06-4.59,4.59v16.72c0,2.53,2.06,4.59,4.59,4.59h17.31c2.53,0,4.59-2.06,4.59-4.59v-16.72c0-2.53-2.06-4.59-4.59-4.59h-17.31Z"/>
      <path class="cls-1" d="m103.31,100.93h-17.31c-3.08,0-5.59-2.51-5.59-5.59v-16.72c0-3.08,2.51-5.59,5.59-5.59h17.31c3.08,0,5.59,2.51,5.59,5.59v16.72c0,3.08-2.51,5.59-5.59,5.59Zm-17.31-26.9c-2.53,0-4.59,2.06-4.59,4.59v16.72c0,2.53,2.06,4.59,4.59,4.59h17.31c2.53,0,4.59-2.06,4.59-4.59v-16.72c0-2.53-2.06-4.59-4.59-4.59h-17.31Z"/>
      <path class="cls-1" d="m103.31,70.84h-17.31c-3.08,0-5.59-2.51-5.59-5.59v-16.72c0-3.08,2.51-5.59,5.59-5.59h17.31c3.08,0,5.59,2.51,5.59,5.59v16.72c0,3.08-2.51,5.59-5.59,5.59Zm-17.31-26.9c-2.53,0-4.59,2.06-4.59,4.59v16.72c0,2.53,2.06,4.59,4.59,4.59h17.31c2.53,0,4.59-2.06,4.59-4.59v-16.72c0-2.53-2.06-4.59-4.59-4.59h-17.31Z"/>
      <g>
        <path class="cls-1" d="m54.43,23.59c-5.76,0-10.45-4.69-10.45-10.45s4.69-10.45,10.45-10.45,10.45,4.69,10.45,10.45-4.69,10.45-10.45,10.45Zm0-19.9c-5.21,0-9.45,4.24-9.45,9.45s4.24,9.45,9.45,9.45,9.45-4.24,9.45-9.45-4.24-9.45-9.45-9.45Z"/>
        <path class="cls-1" d="m65.09,70.84h-21.33c-1.98,0-3.58-1.61-3.58-3.58v-34.09c0-4.7,2.32-9.09,6.2-11.75.19-.13.44-.11.62.04,2.05,1.84,4.69,2.85,7.43,2.85s5.38-1.01,7.43-2.85c.17-.15.43-.17.62-.04,3.88,2.66,6.2,7.06,6.2,11.75v34.09c0,1.98-1.61,3.58-3.58,3.58Zm-18.46-48.38c-3.42,2.49-5.45,6.47-5.45,10.71v34.09c0,1.42,1.16,2.58,2.58,2.58h21.33c1.42,0,2.58-1.16,2.58-2.58v-34.09c0-4.24-2.03-8.21-5.45-10.71-2.19,1.84-4.94,2.84-7.8,2.84s-5.6-1.01-7.8-2.84Z"/>
      </g>
      <g>
        <path class="cls-1" d="m94.65,25.12c-5.17,0-9.38-4.21-9.38-9.38s4.21-9.38,9.38-9.38,9.38,4.21,9.38,9.38-4.21,9.38-9.38,9.38Zm0-17.77c-4.62,0-8.38,3.76-8.38,8.38s3.76,8.38,8.38,8.38,8.38-3.76,8.38-8.38-3.76-8.38-8.38-8.38Z"/>
        <path class="cls-1" d="m104.18,40.3h-19.04c-1.79,0-3.25-1.46-3.25-3.25v-3.43c0-4.21,2.08-8.15,5.56-10.54.19-.13.44-.11.62.04,1.82,1.63,4.17,2.53,6.6,2.53s4.77-.9,6.6-2.53c.17-.15.43-.17.62-.04,3.48,2.39,5.56,6.33,5.56,10.54v3.43c0,1.79-1.46,3.25-3.25,3.25Zm-16.48-16.17c-3.02,2.22-4.81,5.74-4.81,9.49v3.43c0,1.24,1.01,2.25,2.25,2.25h19.04c1.24,0,2.25-1.01,2.25-2.25v-3.43c0-3.75-1.79-7.27-4.81-9.49-1.96,1.63-4.42,2.52-6.96,2.52s-5-.89-6.96-2.52Z"/>
      </g>
    </g>
  </g>
</svg>