<?xml version="1.0" encoding="UTF-8"?>
<svg id="Capa_2" data-name="Capa 2" xmlns="http://www.w3.org/2000/svg" viewBox="0 0 287.51 367.64">
  <defs>
    <style>
      .cls-1 {
        fill: #3765ae;
      }
    </style>
  </defs>
  <g id="Capa_1-2" data-name="Capa 1">
    <g>
      <path class="cls-1" d="m253.93,89.93c-5.75,0-11.57-4.07-11.57-11.85V14.67c0-8.09,6.63-14.67,14.78-14.67s14.78,6.58,14.78,14.67v17.52h-3.94V14.67c0-5.92-4.86-10.73-10.84-10.73s-10.84,4.81-10.84,10.73v63.4c0,5.46,3.83,7.91,7.63,7.91v3.94Z"/>
      <path class="cls-1" d="m252.94,90v-3.94c4.42,0,7.16-3.09,7.16-8.07V31.28c0-4.77-2.32-5.41-4.59-5.41-3.16,0-3.41,4.42-3.41,5.78h-3.94c0-5.91,2.89-9.72,7.35-9.72,5.42,0,8.53,3.41,8.53,9.35v46.71c0,7.18-4.46,12.01-11.1,12.01Z"/>
    </g>
  </g>
</svg>