<?xml version="1.0" encoding="UTF-8"?>
<svg id="Capa_2" data-name="Capa 2" xmlns="http://www.w3.org/2000/svg" viewBox="0 0 234.94 368.98">
  <defs>
    <style>
      .cls-1 {
        fill: #f5e9d7;
      }

      .cls-2 {
        fill: #fff;
      }

      .cls-3 {
        fill: #fadfb6;
      }

      .cls-4 {
        fill: #3765ae;
      }

      .cls-5 {
        fill: #6d9dc5;
      }
    </style>
  </defs>
  <g id="Capa_1-2" data-name="Capa 1">
    <g>
      <g>
        <path class="cls-3" d="m169.02,0s-21.39,18.85-28.08,51.71c-4.4,21.57-3.64,31.7-3.64,31.7,0,0-9.99,20.56-9.99,28.2l-4.11,1.17-4.7,17.04-2.25,3.94-22.73,22.52s-21.65-11.04-47.2-14.29c-25.55-3.25-46.33-1.3-46.33-1.3,0,0,20.35,5.2,29.88,8.66,9.53,3.46,28.79,11.69,28.79,11.69,0,0,7.36-4.11,16.67-4.98,9.31-.87,17.32,1.3,17.32,1.3l-19.27,18.84s-24.03-6.5-41.57-1.3c-17.54,5.2-29.66,14.72-29.66,14.72l41.13,16.67-6.93,7.36s33.12,96.77,33.77,96.77,29.88,23.6,40.92,29.88c11.04,6.28,47.63,26.63,47.63,26.63l2.6-.87,58.89-89.85s7.79-51.74,8.88-59.54c1.08-7.79,5.63-38.32,5.63-38.32l-55.21-23.38s10.39-15.16,18.4-22.3c8.01-7.14,27.93-21.22,27.93-21.22l-36.37-8.23,17.32-27.93-21.65-10.82s5.41-14.07,10.83-23.17c5.41-9.09,16.45-24.68,16.45-24.68L169.02,0Z"/>
        <path class="cls-3" d="m94.18,29.51l39.58,4.44s-16.96,25.44-19.38,47.25c-2.42,21.81,2.42,41.19,2.42,41.19l-38.36-29.08s-4.04-25.44,15.75-63.81Z"/>
        <path class="cls-3" d="m34.41,85.64s22.61-2.42,35.54,4.85c12.92,7.27,31.1,29.08,28.67,53.71l-33.52-22.62s1.62-10.5-9.69-21.81c-11.31-11.31-21-14.13-21-14.13Z"/>
      </g>
      <path class="cls-5" d="m185.29,157.45c-1.87,1.58-3.72,3.19-5.6,4.74-7.78,6.39-12.48,5.12-22.26,1.11-.03-.01-.05-.03-.07-.04-1.15,3.53-5.58,11.01-8.66,14.38.11.29.24.58.27.93.17,2.18.08,4.1-.21,6.24-.31,2.25-3.17,2.79-4.82,1.96-4.71-2.35-9.43-4.22-14.03-6.8-.85-.48-1.73-.89-2.61-1.28-.5,0-.99-.07-1.44-.31-.78-.41-1.48-.91-2.18-1.4-.84-.43-1.64-.94-2.42-1.5-.78-.11-1.55-.31-2.46-.6-.54-.17-.94-.46-1.26-.79-.39-.07-.77-.16-1.12-.27-1.82-.62-3.2-1.7-3.77-3.58-.29-.96-.12-1.76.31-2.38-.69-2.76-.3-5.93-.21-8.59,0-.2.13-.31.17-.49-.04-5.84-.72-12.92,1.87-18.2.1-1.67,1.36-3.99,1.43-5.64,0-.19.35-1.44.34-1.63l-23,22.98s-.75-.38-2.11-1.01c-.1.59-.35,1.14-.59,1.69,1.13.23,1.83.41,1.83.41l-18.8,18.38c21.47,7.97,25.66,9.92,37.07,15.04,5.19,2.33,9.43,6.59,4.04,9.51-8.81,4.77-28.28,10.58-38.2,6.22-.98-.43-1.91-1.06-2.83-1.7-.25,0-.5.01-.75.02.92.96,1.76,1.98,2.46,3.08,2.57,4.06-.16,8.57-4.1,10.08-8.83,3.38-18.41-8.18-28.25-11.7l-6.93,7.36s33.12,96.77,33.77,96.77,29.88,23.6,40.92,29.88c11.04,6.28,47.63,26.63,47.63,26.63l2.6-.87,58.89-89.85s7.79-51.74,8.88-59.54c1.08-7.79,5.63-38.32,5.63-38.32l-49.39-20.92Z"/>
      <path class="cls-4" d="m140.09,298.12c-23.68-9.83-80.83-46.11-80.83-46.11l-1.19.84,18.82,54.93,69.8,46.87s-4.92-55.83-6.6-56.54Z"/>
      <polygon class="cls-1" points="112.64 184.43 115.21 181.55 157.53 199.4 154.11 203.84 112.64 184.43"/>
      <g>
        <g>
          <g>
            <path class="cls-2" d="m156.2,277.94c-7.46-4.43-15.27-8.33-22.89-12.46-7.7-4.17-15.41-8.35-23.11-12.52-15.53-8.41-31.08-16.81-46.63-25.2-8.84-4.77-17.74-9.46-26.65-14.1-.06-.03-.12.06-.06.09,30.67,17.47,61.73,34.26,92.67,51.24,8.6,4.72,17.11,9.77,25.89,14.15.74.37,1.57-.74.78-1.2Z"/>
            <path class="cls-2" d="m117.84,130.9c-2.77,2.3-22.27,22.33-24.81,24.88-2.72,2.74-5.43,5.48-8.15,8.22-4.21,4.25-8.42,8.5-12.62,12.76.19-.03.37-.05.55-.06.38-.07.76-.04,1.15.06,3.81-3.79,7.61-7.57,11.41-11.36,2.63-2.63,5.27-5.25,7.9-7.88,2.8-2.79,22.99-22.7,25.51-25.75.47-.57-.41-1.31-.94-.87Z"/>
            <path class="cls-2" d="m43.14,206.08c-1.96,2.02-3.87,4.09-5.62,6.25-.07.09.07.21.15.14,2.21-1.82,4.33-3.8,6.4-5.84-.31-.19-.62-.37-.93-.55Z"/>
            <path class="cls-2" d="m231.95,181.33c-2.76,2.95-5.03,6.42-7.47,9.62-2.56,3.35-5.11,6.69-7.67,10.04-4.93,6.45-9.86,12.9-14.8,19.35-9.96,13.02-19.88,26.06-29.75,39.15-5.61,7.44-11.07,15-16.7,22.42-.04.06.05.12.09.06,20.29-26.15,40.76-52.16,60.93-78.39,2.75-3.58,5.5-7.15,8.25-10.73,2.76-3.59,5.89-7.07,8.26-10.91.39-.63-.73-1.07-1.16-.62Z"/>
            <path class="cls-2" d="m234.34,176.92c-18.3-7.67-36.67-15.15-55.07-22.59-.28.48-.58.94-.91,1.39,10.16,4.2,20.33,8.39,30.46,12.63,8.23,3.45,16.47,6.89,24.74,10.25,1.17.48,2-1.17.78-1.68Z"/>
            <path class="cls-2" d="m157.87,199.25c-3.18-1.8-6.76-3.06-10.11-4.51-3.64-1.58-7.28-3.14-10.92-4.71-7.17-3.09-14.35-6.33-21.71-8.96-.07-.02-.11.06-.04.1,6.84,3.54,14,6.54,21.05,9.63,3.44,1.51,6.88,3.01,10.31,4.52,3.58,1.57,7.21,3.48,10.94,4.66.44.14.99-.44.48-.73Z"/>
            <path class="cls-2" d="m157.17,199.72c-.78.7-1.43,1.55-2.1,2.36-.44.53-.91,1.05-1.3,1.61-6.88-3.33-13.76-6.67-20.66-9.98-6.51-3.13-12.98-6.63-19.71-9.27.71-.86,1.32-1.93,1.81-2.89.1-.21-.21-.31-.34-.18-.85.79-1.77,1.73-2.42,2.71-.22-.08-.43-.17-.65-.25-.13-.05-.28.12-.14.21.2.12.39.24.59.35-.14.38.43.63.76.45,6.21,3.62,12.94,6.5,19.4,9.63,6.96,3.38,13.93,6.73,20.89,10.09,0,.3.45.45.73.32.32.03.55-.25.53-.53.54-.64.98-1.39,1.46-2.07.53-.77,1.08-1.53,1.48-2.37.1-.21-.2-.3-.34-.18Z"/>
            <path class="cls-2" d="m71.69,310.87c-5.96-16.16-11.94-32.32-17.93-48.47-2.94-7.93-5.88-15.86-8.84-23.78-1.53-4.11-3.05-8.22-4.59-12.33-1.49-3.97-2.7-8.58-4.89-12.22-.14-.23-.6-.21-.55.12.62,3.92,2.56,7.91,3.91,11.65,1.48,4.13,3,8.24,4.5,12.36,2.95,8.09,5.91,16.18,8.87,24.27,5.98,16.32,11.97,32.64,17.98,48.94.33.9,1.9.42,1.54-.55Z"/>
            <path class="cls-2" d="m159.59,368.33c-.16-4.73-1.24-9.55-1.71-14.28-.47-4.77-1.64-41.5-1.83-46.29-.2-4.88-.24-9.76-.12-14.64.11-4.66.67-9.39.48-14.04,0-.17-.27-.15-.31,0-1.07,4.6-1.14,9.58-1.34,14.29-.19,4.7-.24,9.42-.14,14.12.1,4.79,1.26,41.53,1.69,46.31.43,4.79.64,10.03,1.96,14.66.21.74,1.35.68,1.32-.14Z"/>
            <path class="cls-2" d="m234.72,179.93c.03-.26-.39-.32-.44-.06-5.83,30.6-10.52,61.45-15.55,92.19-.18,1.1,1.71,1.37,1.89.26,4.84-30.76,10.06-61.51,14.11-92.39Z"/>
            <path class="cls-2" d="m221.5,272.32c-8.49,12.23-16.41,24.9-24.57,37.36-7.96,12.15-15.88,24.34-23.73,36.56-2.24,3.49-4.47,6.98-6.69,10.48-2.28,3.59-4.78,7.14-6.74,10.91-.03.05.06.09.09.05,4.69-5.7,8.62-12.23,12.76-18.33,4.18-6.16,8.35-12.34,12.51-18.52,8.24-12.24,16.4-24.53,24.58-36.82,4.57-6.87,9.27-13.67,13.65-20.66.62-.99-1.25-1.93-1.88-1.03Z"/>
            <path class="cls-2" d="m157.04,365.6c-5.86-3.47-12.02-6.47-17.95-9.83-6.06-3.43-12.06-6.98-17.98-10.65-11.62-7.18-22.98-14.82-34.03-22.86-3.14-2.29-6.28-4.59-9.39-6.91-3.19-2.38-6.33-5.09-9.74-7.14-.14-.08-.38.05-.24.21,2.17,2.35,4.85,4.3,7.31,6.34,2.68,2.21,5.43,4.35,8.19,6.47,5.51,4.25,11.16,8.32,16.87,12.3,11.53,8.04,23.45,15.54,35.63,22.53,6.66,3.82,13.38,7.85,20.4,10.98.89.4,1.89-.88.94-1.44Z"/>
            <path class="cls-2" d="m142.41,297.46c-7.03-3.47-14.21-6.62-21.22-10.14-7.19-3.6-14.31-7.36-21.34-11.27-6.87-3.81-13.67-7.73-20.43-11.74-6.76-4.02-13.35-8.36-20.16-12.3-.09-.05-.2.05-.11.12,6.4,4.91,13.35,9.23,20.18,13.51,6.64,4.16,13.4,8.14,20.24,11.95,13.69,7.62,27.72,15.23,42.2,21.24.95.39,1.58-.9.63-1.37Z"/>
            <path class="cls-2" d="m76.9,307.78c-2.67-9.17-5.9-18.21-8.91-27.27-1.5-4.51-3.03-9-4.56-13.5-1.61-4.71-2.93-9.73-5.07-14.23-.06-.13-.31-.1-.28.06.87,4.73,2.69,9.42,4.1,14.01,1.37,4.45,2.75,8.89,4.15,13.33,2.95,9.32,5.71,18.75,9.01,27.95.27.76,1.81.5,1.56-.36Z"/>
            <path class="cls-2" d="m145.11,352.3c-5.44-3.9-11.25-7.37-16.86-11.02-5.63-3.66-11.25-7.34-16.89-10.99-5.52-3.57-11.04-7.16-16.59-10.69-2.9-1.85-5.78-3.71-8.7-5.52-2.67-1.65-5.37-3.52-8.28-4.73-.05-.02-.12.04-.07.08,2.23,2.16,4.99,3.84,7.54,5.59,2.71,1.86,5.45,3.66,8.18,5.48,5.58,3.72,11.2,7.4,16.81,11.09,5.49,3.61,11,7.19,16.51,10.79,5.73,3.74,11.36,7.74,17.25,11.22.92.55,2.12-.58,1.12-1.3Z"/>
            <path class="cls-2" d="m144.55,327.27c-.4-4.55-.82-9.11-1.24-13.66-.22-2.42-.45-4.84-.68-7.25-.22-2.36-.17-4.97-.86-7.24-.22-.72-1.54-.98-1.63-.03-.2,2.04.25,4.15.47,6.18.27,2.41.53,4.83.8,7.24.52,4.69,1.04,9.37,1.57,14.06,1.07,9.3,1.64,18.89,3.5,28.07.02.1.21.12.21,0-.02-9.1-1.34-18.32-2.14-27.38Z"/>
            <path class="cls-2" d="m153.25,291.58c-29.12-17.1-58.35-34.01-87.49-51.07-4.18-2.45-8.37-4.87-12.57-7.3-4.13-2.39-8.34-5.14-12.77-6.9-.07-.03-.15.06-.08.12,3.24,2.65,7.11,4.68,10.68,6.85,3.43,2.09,6.89,4.14,10.35,6.18,7.33,4.33,14.67,8.65,22.01,12.98,14.67,8.65,29.38,17.25,44.03,25.95,8.34,4.95,16.63,9.98,24.99,14.89,1.09.64,1.97-1.04.84-1.7Z"/>
            <path class="cls-2" d="m231.9,196.39c-21.2,24.11-41.28,49.17-60.14,75.16-5.15,7.1-10.4,14.21-14.96,21.7-.04.06.07.12.12.06,9.82-12.51,18.76-25.72,28.44-38.34,9.68-12.63,19.63-25.06,29.84-37.26,5.81-6.94,11.71-13.81,17.7-20.6.52-.59-.53-1.27-1.01-.72Z"/>
            <path class="cls-2" d="m116.74,183.21c-.09-.21-.18-.42-.27-.63-.23-.53-.47-1.15-.89-1.56-.03-.03-.12-.04-.12.03,0,.51.23,1.04.42,1.51.12.32.25.67.42.99-.11.16-.2.33-.3.49-.22.35-.42.71-.68,1.02-.02.02.02.04.03.02.29-.31.63-.56.96-.82.1-.08.2-.15.3-.23.03.04.06.09.1.12.06.06.24.07.24-.05,0-.12-.02-.23-.04-.34.05-.06.1-.12.13-.19.1-.21-.1-.37-.3-.36Z"/>
            <path class="cls-2" d="m114.76,184.83s-.03.03,0,.04c.03,0,.03-.03,0-.04Z"/>
            <path class="cls-2" d="m156.91,201.03c-3-1.72-6.37-2.92-9.53-4.31-3.41-1.5-6.84-2.97-10.27-4.45-6.82-2.94-13.63-6.23-20.7-8.54-.06-.02-.14.06-.07.1,6.23,3.5,12.99,6.18,19.52,9.08,3.41,1.52,6.81,3.05,10.23,4.54,3.38,1.47,6.78,3.28,10.3,4.39.48.15,1.09-.48.52-.8Z"/>
          </g>
          <path class="cls-2" d="m137.42,83.02c-4.92,9.56-8.63,19.74-10.78,30.19.35.07.69.15,1.03.24,2.12-9.65,5.11-19.01,9.38-28.02.18-.38.37-.77.56-1.15-.07-.42-.14-.84-.18-1.26Z"/>
          <path class="cls-2" d="m168.66,139.52c-5.62-2.66-11.41-5.01-17.16-7.38-.18.37-.36.74-.54,1.11,5.68,2.57,11.37,5.18,17.16,7.46.83.33,1.38-.78.55-1.18Z"/>
          <path class="cls-2" d="m208.7,71.94c-1.85,2.22-3.28,4.86-4.85,7.29l-5.12,7.93c-3.41,5.28-6.82,10.57-10.23,15.86-3.4,5.29-6.82,10.57-10.2,15.87-3.36,5.27-6.98,10.46-9.85,16.01-.01.03.03.05.05.03,3.92-4.91,7.21-10.33,10.68-15.56,3.48-5.25,6.92-10.52,10.38-15.78,3.46-5.26,6.91-10.53,10.35-15.79,1.65-2.51,3.29-5.03,4.94-7.54,1.65-2.53,3.59-5.02,4.92-7.73.3-.61-.67-1.05-1.05-.58Z"/>
          <path class="cls-2" d="m206.16,74.08c-3.45-2.11-7.39-3.6-11.06-5.33-2.48-1.16-4.95-2.33-7.43-3.49-.18.45-.38.88-.61,1.3,2.21,1.06,4.42,2.13,6.62,3.19,3.84,1.85,7.68,4.1,11.7,5.52.73.26,1.57-.69.77-1.18Z"/>
          <path class="cls-2" d="m30.32,83.85c-.07-.02-.1.07-.03.09,17.6,5.23,31.43,19.89,35.52,37.79.08.36.71.23.63-.16-3.83-18-18.28-33.15-36.12-37.73Z"/>
          <path class="cls-2" d="m98.39,143.89c2.06-12.89-2.69-27.21-10.26-37.56-8.06-11.01-20.18-18.46-33.53-21.1-7.3-1.44-15.42-1.72-22.65.27-.55.15-.29.83.23.75,6.77-1.1,13.32-1.6,20.13-.51,6.49,1.04,12.79,3.22,18.52,6.44,11.6,6.52,20.25,17.44,24.5,30.01,2.39,7.07,2.94,14.19,2.91,21.59-5.09-3.95-10.73-7.32-16.08-10.91-5.73-3.85-11.49-7.64-17.28-11.39-.03-.02-.09.03-.05.06,5.38,3.86,10.79,7.68,16.23,11.45,5.64,3.9,11.18,8.2,17.1,11.68.34.2.85-.28.48-.56-.08-.06-.17-.13-.25-.19Z"/>
          <path class="cls-2" d="m227.75,111.72c-.47-.13-.95-.25-1.42-.38.23-.19.46-.37.69-.56.39-.32-.15-.84-.53-.62-.47.28-.94.56-1.41.85-7.96-2.07-16.16-3.52-24.18-5.27-3.98-.87-7.97-1.81-11.96-2.71-.13.24-.28.48-.43.72,4.06.9,8.13,1.76,12.17,2.69,7.68,1.75,15.38,3.83,23.13,5.34-22.49,13.9-41.66,34.11-53.23,57.94-.02.04.04.07.06.03,12.83-23.55,30.98-43.53,53.92-57.49.13.13.37.18.54.04.1-.08.19-.15.29-.23.7.13,1.41.26,2.12.38.5.08.75-.58.22-.73Z"/>
          <path class="cls-2" d="m176.91,168.99c-9.83-4.05-19.93-7.64-30.01-11.13,0,.21,0,.43,0,.65,9.77,4.02,19.62,7.98,29.57,11.43.57.2,1.05-.69.44-.95Z"/>
          <path class="cls-2" d="m132.47,35.18s-.04-.07-.07-.04c-13.45,19.45-20.16,43.16-19.12,66.77.29,6.58.99,13.46,2.8,19.82.12.43.82.26.73-.18-1.43-7.49-2.73-14.84-2.91-22.48-.18-7.58.43-15.17,1.81-22.63,2.72-14.71,8.4-28.85,16.76-41.26Z"/>
          <path class="cls-2" d="m116.01,122.24c-2.86-2.77-6.17-5.16-9.26-7.65-3.13-2.52-6.29-5-9.45-7.49-3.16-2.49-6.32-4.97-9.49-7.45-2.94-2.3-5.82-4.96-9.01-6.91-.48-.29-1.08.33-.65.75,2.82,2.78,6.34,5.04,9.47,7.47,3.18,2.47,6.37,4.93,9.56,7.38,6.13,4.7,12.16,9.93,18.73,14.01.07.04.16-.05.1-.11Z"/>
          <path class="cls-2" d="m91.84,34.72c-2.56,4.02-4.3,8.83-5.95,13.28-1.76,4.76-3.21,9.64-4.35,14.59-2.22,9.6-3.53,19.7-2.79,29.56,0,.06.09.06.09,0,.49-10.03,1.28-19.93,3.63-29.73,1.12-4.69,2.52-9.31,4.18-13.83,1.71-4.66,4.05-9.02,5.86-13.61.15-.38-.49-.56-.68-.26Z"/>
          <path class="cls-2" d="m133.3,33.37c-6.45-.98-13.09-1.22-19.59-1.75-6.77-.55-13.55-.94-20.32-1.5-.04,0-.04.06,0,.06,6.64.65,13.26,1.47,19.89,2.13,6.59.66,13.27,1.63,19.89,1.83.46.01.61-.69.11-.76Z"/>
          <path class="cls-2" d="m171.64,112.14c-2.64-1.56-5.65-2.62-8.46-3.84-2.85-1.24-5.7-2.47-8.55-3.71-5.2-2.26-10.4-4.76-15.76-6.66-.53-6.44-1.27-12.76-1.13-19.26.15-7.01.91-14,2.25-20.88,2.67-13.69,7.64-26.93,14.69-38.97,3.94-6.72,8.69-12.69,13.45-18.82,0-.01-.01-.02-.02-.02-4.91,4.83-9,10.7-12.63,16.52-3.62,5.8-6.73,11.91-9.34,18.24-5.34,12.95-8.49,26.81-9.22,40.8-.4,7.72-.45,15.99,1.21,23.58.09.4.84.33.81-.1-.02-.27-.05-.54-.07-.82,5.15,2.8,10.68,5.05,16,7.48,5.34,2.44,10.74,5.51,16.34,7.29.54.17.91-.56.4-.86Z"/>
          <path class="cls-2" d="m211.13,17.16c-10.52,12.91-18.87,28.25-25.06,44.09-6.26,16.02-10.74,33.42-11.73,50.85-.01.23.32.21.35,0,2.28-17.29,5.93-34.08,12.3-50.17,6.36-16.08,14.97-30.5,25.09-44.06.42-.56-.54-1.2-.94-.71Z"/>
          <path class="cls-2" d="m212.64,16c-7-2.96-14.28-5.38-21.41-8.01-7.36-2.72-14.71-5.49-22.15-7.99-.07-.02-.12.08-.05.11,7.21,3.05,14.53,5.84,21.83,8.68,7.08,2.76,14.13,5.77,21.32,8.19.6.2,1.1-.72.46-.99Z"/>
          <path class="cls-2" d="m141.88,185.1c-2.33-1.51-5.07-2.51-7.59-3.67-2.43-1.12-4.87-2.23-7.31-3.34-4.36-1.97-8.71-4.02-13.17-5.76-.8-8.61-1.37-16.9.04-25.51,1.37-8.41,4.03-16.78,7.91-24.39,0-.01-.02-.03-.02-.01-4.41,7.64-7.47,15.79-8.93,24.52-1.35,8.07-1.82,16.94,0,24.99-.08-.03-.16-.06-.24-.09-.06-.02-.11.07-.05.1.11.06.22.12.33.18.03.12.05.24.08.36.08.35.61.37.81.13,4.39,2.4,8.96,4.5,13.47,6.67,4.64,2.23,9.4,5.07,14.31,6.6.51.16.81-.5.37-.79Z"/>
          <path class="cls-2" d="m156.56,115.67c-.42.77-.77,1.59-1.08,2.42-5.12-1.43-10.61-2.04-15.83-3.01-5.43-1.02-10.87-1.93-16.3-2.91-.05,0-.07.06-.02.07,5.51,1.2,11,2.47,16.52,3.64,5.04,1.06,10.17,2.53,15.28,3.19-.5,1.47-.91,2.98-1.36,4.42-.89,2.86-1.71,5.74-2.46,8.64-1.54,5.93-2.81,11.93-3.78,17.98-1.86,11.67-2.96,23.7-2.17,35.51,0,.07.12.07.12,0,.45-11.97,1.09-23.83,3.15-35.65.98-5.63,2.19-11.22,3.64-16.75.76-2.9,1.59-5.78,2.48-8.63.87-2.81,2.18-5.67,2.72-8.55.09-.5-.66-.82-.91-.35Z"/>
          <path class="cls-2" d="m63.51,163.23c-9.43-5.55-19.76-9.9-30.06-13.54-10.23-3.61-21.03-6.91-31.84-8.16-.1-.01-.12.13-.02.16,10.51,2.73,20.98,5.1,31.21,8.8,10.44,3.77,20.29,8.56,30.15,13.63.6.31,1.2-.5.57-.87Z"/>
          <path class="cls-2" d="m108.68,165.66c.27-.15.48-.36.6-.67.11-.29.1-.61,0-.93-3.61-2.39-7.57-4.31-11.68-5.71-21.98-11.54-46.51-18.08-71.35-18.96-8.27-.29-16.54.13-24.74,1.21-.09.01-.07.15.02.14,29.3-2.51,58.97,2.08,85.83,14.18,1.13.51,2.25,1.03,3.36,1.57-.54-.11-1.08-.21-1.61-.3-9.45-1.6-20.78-1.08-29.33,3.71-.09.05-.02.17.07.14,4.86-1.58,9.48-3.08,14.6-3.57,4.9-.47,9.86-.26,14.7.65,1.98.37,3.91.86,5.8,1.45.52.27,1.03.54,1.54.81,3.26,1.14,6.4,2.66,9.32,4.52,1,.5,1.95,1.08,2.85,1.74Z"/>
          <path class="cls-2" d="m123.83,193.58c-10.81-3.85-23.92-2.56-34.55,1.17-5.36,1.88-10.44,4.51-15.05,7.84-4.24,3.07-8.73,6.94-11.59,11.46-4.43-2.21-9.35-3.78-13.91-5.63-5.04-2.05-10.08-4.09-15.12-6.14-10.09-4.09-20.18-8.16-30.28-12.22-.08-.03-.16.08-.07.12,10.14,4.27,20.28,8.54,30.43,12.77l15.03,6.28c4.42,1.85,8.88,4.1,13.45,5.63-.02.03-.04.06-.06.09-.05.09.08.18.15.1.04-.04.08-.09.12-.13.38.12.75.25,1.13.37.41.12.71-.44.31-.66-.26-.14-.53-.27-.79-.4,3.58-3.87,6.97-7.63,11.32-10.74,4.74-3.38,10.02-6.05,15.54-7.89,5.36-1.79,10.96-2.82,16.61-3.02,5.87-.21,11.33.81,17.02,2.07.76.17,1.08-.81.33-1.08Z"/>
          <path class="cls-2" d="m88.1,181.5c-19.88-10.89-45.24-11.58-66.25-3.68-5.83,2.19-11.41,5.07-16.44,8.75-.13.1.05.28.17.2,12.3-7.58,25.95-12.25,40.43-13.03,14.5-.78,28.44,2.4,41.42,8.79.71.35,1.44-.62.68-1.04Z"/>
          <path class="cls-2" d="m119.6,192.92c-2.7-1.52-5.89-2.41-8.77-3.52-2.6-1-5.2-1.98-7.8-2.97-5.75-2.18-11.48-4.53-17.37-6.29-.04-.01-.07.05-.03.07,5.49,2.71,11.27,4.89,16.95,7.2,2.78,1.13,5.57,2.27,8.36,3.39,2.68,1.07,5.4,2.46,8.2,3.14.63.15,1.1-.66.47-1.01Z"/>
          <path class="cls-2" d="m200.93,234.05s-.07-.05-.08,0c-.12.6-.24,1.21-.35,1.82-.1.54-.26,1.1-.2,1.65,0,.05.03.09.05.13-.19-.09-.44-.08-.58.12-2.63,3.67-5.17,7.42-7.73,11.15-.02.04.03.06.06.03,2.82-3.58,5.66-7.15,8.4-10.79.12-.15.09-.3-.01-.41.14.05.3,0,.35-.16.31-1.07.1-2.42.08-3.53Z"/>
          <path class="cls-2" d="m191.1,247.02s-.09-.04-.09.01c-.03.78-.14,1.61.1,2.37.07.24.46.19.48-.06.04-.79-.27-1.57-.48-2.32Z"/>
        </g>
        <polygon class="cls-2" points="116.91 183.77 115.31 185.07 153.3 204.56 156.39 201.83 116.91 183.77"/>
        <path class="cls-2" d="m138.96,99.05l34.32,17.97s15.9-37.69,27.87-44.31l-15.21-8.08s-8.66,20.52-10.11,33.61c-1.45,13.09-1.5,14.79-1.5,14.79l-2.7-.88-32.74-13.92.07.82Z"/>
        <path class="cls-2" d="m114.74,175.9l33.97,15.88,13.35-25.27,15.15,6,14.85-13.01-12.77-5.17-7.4,13.2-24.97-9.67s-1.28,18.27-1.68,25.18c-.4,6.91.14,2.56.14,2.56l-29.04-11.62-1.59,1.91Z"/>
        <path class="cls-2" d="m149.74,158.48s4.39-15.51,8.87-19.5l10.46,4.07s23.04-36.52,38.93-35.3l-18.45-4.16-23.42,34.76-13.86-5.15s-4.78,16.2-5.37,24.66l2.83.61Z"/>
        <polygon class="cls-2" points="155.55 121.95 160.01 123.33 155.55 133.81 150.95 133.24 155.55 121.95"/>
        <path class="cls-2" d="m134.57,196.89s-22.78,12.39-28.12,17.97c-5.34,5.58-20.84,24.79-20.84,24.79l-26.49-14.29-14.05-7.45,5.11-8.06,11.97,5s10.06-13.77,23.46-17.65c13.39-3.87,20.04-6,29.13-4.82l-3.91-3.01-8.26-1.99-8.04-3.24,9.94-4.5,7.14,2.77-2.25,1.73,25.21,12.74Z"/>
      </g>
    </g>
  </g>
</svg>