<?xml version="1.0" encoding="UTF-8"?>
<svg xmlns="http://www.w3.org/2000/svg" viewBox="0 0 126.16 162.79">
  <defs>
    <style>
      .cls-1 {
        stroke: #6d9dc5;
        stroke-dasharray: 0 10;
        stroke-linecap: round;
        stroke-linejoin: round;
        stroke-width: 4px;
      }

      .cls-1, .cls-2 {
        fill: #fff;
      }

      .cls-3 {
        fill: #fab715;
      }

      .cls-4 {
        fill: #fecb52;
      }

      .cls-5 {
        fill: #b3dee5;
      }

      .cls-6, .cls-7 {
        fill: #3765ae;
      }

      .cls-7 {
        mix-blend-mode: multiply;
        opacity: .18;
      }

      .cls-8 {
        isolation: isolate;
      }
    </style>
  </defs>
  <g class="cls-8">
    <g id="Capa_2" data-name="Capa 2">
      <g id="Capa_1-2" data-name="Capa 1">
        <g>
          <path class="cls-1" d="m116.11,30.69c1.81-2.7,2.84-5.92,2.84-9.28v-2.71c0-9.21-7.49-16.7-16.69-16.7H23.91C14.7,2,7.21,9.49,7.21,18.7v2.71c0,3.35,1.03,6.58,2.84,9.28-5.09,4.16-8.05,10.34-8.05,17.06v90.94c0,12.18,9.91,22.09,22.09,22.09h77.99c12.18,0,22.09-9.91,22.09-22.09V47.76c0-6.73-2.97-12.92-8.05-17.07Z"/>
          <path class="cls-4" d="m82.46,104.96c4.66,6.92,2.82,16.34-4.09,21-6.92,4.66-16.34,2.82-21-4.1-4.66-6.92-2.82-16.33,4.1-20.99,6.91-4.66,16.33-2.82,20.99,4.09Zm-1.63,8.56c.5-.04.87-.47.83-.96-.15-2.04-.83-4.02-1.98-5.73-1.17-1.73-2.77-3.12-4.63-4.02-.45-.22-.99-.03-1.2.42-.15.29-.11.64.07.9.08.12.2.23.35.3,1.58.77,2.93,1.94,3.92,3.41.97,1.45,1.55,3.12,1.68,4.85.03.49.47.87.96.83Zm-4.3,9.63c.41-.28.5-.83.22-1.23-.28-.42-.86-.51-1.27-.24-2.94,1.99-6.76,2.25-9.95.69-.45-.22-.99-.03-1.2.42-.15.3-.11.64.06.9.09.13.2.24.35.3,3.78,1.84,8.28,1.53,11.75-.82l.04-.02Zm-12.22-18.01c.42-.28.52-.84.25-1.25h0c-.28-.42-.84-.52-1.25-.25-3.47,2.35-5.45,6.41-5.16,10.59,0,.16.07.31.16.44.17.25.47.42.81.39.5-.03.87-.47.83-.96-.25-3.55,1.43-6.98,4.36-8.96Z"/>
          <path class="cls-4" d="m55.55,36.52c4.66,6.91,2.82,16.33-4.09,20.99-6.92,4.66-16.34,2.82-21-4.09-4.66-6.92-2.82-16.34,4.1-21,2.1-1.41,4.45-2.22,6.81-2.48h3.25c4.28.46,8.34,2.73,10.93,6.58Zm-1.63,8.56c.5-.03.87-.47.83-.96-.15-2.04-.83-4.02-1.98-5.73-1.17-1.72-2.77-3.11-4.63-4.02-.45-.21-.99-.02-1.2.42-.15.3-.11.65.07.9.08.13.2.24.35.31,1.58.76,2.93,1.94,3.92,3.4h0c.97,1.45,1.55,3.13,1.68,4.85.03.5.47.87.96.83Zm-4.3,9.64c.41-.28.5-.83.22-1.24-.28-.41-.86-.51-1.27-.23-2.94,1.98-6.76,2.25-9.95.69-.45-.22-.99-.03-1.21.41-.14.3-.11.65.07.9.09.13.2.24.35.31,3.78,1.83,8.28,1.52,11.75-.82l.04-.02Zm-12.22-18.02c.42-.28.52-.83.25-1.25-.17-.26-.46-.4-.75-.4-.17,0-.34.05-.5.16-3.47,2.35-5.45,6.41-5.16,10.59,0,.16.07.31.16.44.17.26.47.42.81.4.5-.04.87-.47.83-.96-.25-3.55,1.43-6.99,4.36-8.97Z"/>
          <path class="cls-4" d="m73.77,55.16c8.33,0,15.12,6.79,15.12,15.12s-6.79,15.12-15.12,15.12-15.12-6.78-15.12-15.12,6.78-15.12,15.12-15.12Zm11.78,15.12v-.04c0-.5-.41-.88-.91-.88s-.9.42-.9.92c0,3.55-1.91,6.86-4.98,8.64-.43.25-.58.8-.33,1.23.16.29.47.45.78.45.15,0,.3-.04.45-.12,3.63-2.11,5.88-6.01,5.88-10.21Zm-5.6-9c.25-.42.1-.98-.33-1.23-1.78-1.02-3.81-1.56-5.86-1.56h0c-2.08,0-4.13.56-5.92,1.59-.43.25-.58.81-.33,1.23.17.29.47.45.78.45.15,0,.3-.04.45-.12,1.51-.88,3.25-1.35,5.02-1.35s3.46.46,4.96,1.32c.42.25.98.1,1.23-.34Zm-10.83,18.88c.25-.43.1-.98-.34-1.23-3.07-1.77-4.99-5.08-5-8.63,0-.5-.4-.9-.9-.9s-.9.4-.9.9c0,4.19,2.27,8.1,5.9,10.19.15.08.3.12.45.12.31,0,.62-.16.78-.45Z"/>
          <path class="cls-5" d="m53.47,60.5c8.57-5.77,10.84-17.43,5.07-26-1.22-1.81-2.72-3.33-4.39-4.56h31.63c-.02,2.43.57,4.82,1.87,6.95,2.1,3.42,7.1,5.55,6.72,10.04-.2,2.31,3.41,2.3,3.6,0,.26-3.16-1.2-5.57-3.34-7.78-2.84-2.92-5.12-5.3-5.24-9.22h11.11c.14,4.36,2.4,8.37,5.96,10.53,2.57,1.55,4.1,4.27,4.1,7.28v90.94c0,4.69-3.82,8.51-8.51,8.51H24.09c-4.69,0-8.51-3.82-8.51-8.51V47.76c0-3.01,1.54-5.73,4.11-7.28,3.56-2.17,5.83-6.17,5.96-10.53h6.22c-7.99,5.92-10,17.16-4.4,25.49,5.77,8.57,17.44,10.84,26,5.07Zm20.3-8.95c-10.33,0-18.74,8.4-18.74,18.73s8.41,18.74,18.74,18.74,18.73-8.41,18.73-18.74-8.4-18.73-18.73-18.73Zm29.37,87.98c1.74,0,1.74-2.7,0-2.7-14.57.02-29.14.06-43.7.09-1.74,0-1.75,2.7,0,2.7,14.56-.03,29.13-.07,43.7-.1Zm-7.94-75.71c.11,2.31,3.72,2.32,3.6,0-.15-2.92-.29-5.83-.42-8.76-.11-2.3-3.72-2.32-3.6,0,.14,2.93.28,5.84.42,8.76Zm-14.82,65.13c8.57-5.77,10.84-17.44,5.07-26-5.77-8.57-17.43-10.84-26-5.07-8.56,5.77-10.84,17.43-5.07,26,5.77,8.56,17.44,10.84,26,5.07Zm-33.7,10.95c1.73,0,1.74-2.7,0-2.7-7.15,0-14.28.12-21.42.36-1.73.06-1.74,2.76,0,2.7,7.14-.24,14.27-.36,21.42-.36Z"/>
          <path class="cls-4" d="m105.37,18.7v2.71c0,1.72-1.4,3.11-3.11,3.12H23.9c-1.72,0-3.11-1.41-3.11-3.12v-2.71c0-1.72,1.4-3.12,3.12-3.12h78.35c1.72,0,3.11,1.4,3.11,3.12Z"/>
          <path class="cls-3" d="m102.26,15.58h-27.39c.06.25.11.5.11.77v2.71c0,1.72-1.4,3.11-3.11,3.12H20.89c.34,1.34,1.56,2.35,3.01,2.35h78.36c1.72,0,3.11-1.41,3.11-3.12v-2.71c0-1.72-1.4-3.12-3.11-3.12Z"/>
          <path class="cls-6" d="m103.14,136.84c1.74,0,1.74,2.7,0,2.7-14.57.03-29.14.07-43.7.1-1.75,0-1.74-2.7,0-2.7,14.56-.03,29.13-.07,43.7-.09Z"/>
          <path class="cls-6" d="m98.8,63.82c.11,2.32-3.5,2.31-3.6,0-.15-2.92-.29-5.83-.42-8.76-.11-2.32,3.49-2.3,3.6,0,.14,2.93.28,5.84.42,8.76Z"/>
          <path class="cls-6" d="m73.77,51.56c10.33,0,18.73,8.4,18.73,18.73s-8.4,18.74-18.73,18.74-18.74-8.41-18.74-18.74,8.41-18.73,18.74-18.73Zm15.12,18.73c0-8.33-6.79-15.12-15.12-15.12s-15.12,6.79-15.12,15.12,6.78,15.12,15.12,15.12,15.12-6.78,15.12-15.12Z"/>
          <path class="cls-6" d="m85.45,102.95c5.77,8.56,3.5,20.23-5.07,26-8.56,5.77-20.23,3.49-26-5.07-5.77-8.57-3.49-20.23,5.07-26,8.57-5.77,20.23-3.5,26,5.07Zm-7.08,23.01c6.91-4.66,8.75-14.08,4.09-21-4.66-6.91-14.08-8.75-20.99-4.09-6.92,4.66-8.76,14.07-4.1,20.99,4.66,6.92,14.08,8.76,21,4.1Z"/>
          <path class="cls-6" d="m85.55,70.29c0,4.19-2.26,8.1-5.88,10.21-.15.08-.3.12-.45.12-.31,0-.62-.16-.78-.45-.25-.43-.11-.99.33-1.23,3.07-1.78,4.98-5.09,4.98-8.64,0-.5.4-.92.9-.92s.91.38.91.88v.04Z"/>
          <path class="cls-6" d="m78.19,107.84c-.99-1.46-2.35-2.64-3.92-3.41-.15-.07-.27-.18-.35-.3-.18-.26-.21-.6-.07-.9.21-.45.75-.64,1.2-.42,1.86.9,3.46,2.29,4.63,4.02,1.14,1.71,1.83,3.69,1.98,5.73.03.5-.34.92-.83.96-.5.03-.93-.34-.96-.83-.12-1.73-.7-3.41-1.68-4.85Z"/>
          <path class="cls-6" d="m73.77,60.31c-1.76,0-3.51.47-5.02,1.35-.15.08-.3.12-.45.12-.31,0-.61-.16-.78-.45-.25-.42-.11-.98.33-1.23,1.79-1.04,3.84-1.59,5.92-1.59h0c2.05,0,4.08.54,5.86,1.56.42.25.58.8.33,1.23-.25.43-.8.59-1.23.34-1.5-.86-3.22-1.32-4.96-1.32Z"/>
          <path class="cls-6" d="m76.5,123.18c-3.47,2.35-7.97,2.66-11.75.82-.15-.07-.26-.17-.35-.3-.17-.26-.2-.6-.06-.9.21-.45.75-.64,1.2-.42,3.19,1.55,7.01,1.29,9.95-.69.41-.28.99-.18,1.27.24.28.41.19.96-.22,1.23l-.04.02Z"/>
          <path class="cls-6" d="m67.88,80.5c-3.63-2.09-5.89-6-5.9-10.19,0-.5.4-.9.9-.9s.9.4.9.9c0,3.55,1.93,6.86,5,8.63.43.25.58.8.34,1.23-.16.29-.47.45-.78.45-.15,0-.3-.04-.45-.12Z"/>
          <path class="cls-6" d="m58.16,114.25c-.29-4.18,1.68-8.24,5.16-10.59.41-.28.97-.17,1.25.24h0c.28.42.17.98-.25,1.26-2.93,1.99-4.61,5.42-4.36,8.96.03.5-.34.93-.83.96-.34.02-.64-.14-.81-.39-.09-.13-.15-.28-.16-.44Z"/>
          <path class="cls-6" d="m54.76,44.11c.03.5-.34.93-.83.96s-.93-.34-.96-.83c-.12-1.72-.7-3.41-1.68-4.85h0c-.99-1.47-2.35-2.65-3.92-3.41-.15-.07-.27-.18-.35-.31-.18-.25-.21-.6-.07-.9.21-.44.75-.63,1.2-.42,1.86.91,3.46,2.3,4.63,4.02,1.14,1.71,1.83,3.69,1.98,5.73Z"/>
          <path class="cls-6" d="m46.68,137.2c1.74,0,1.73,2.7,0,2.7-7.15,0-14.28.12-21.42.36-1.74.06-1.73-2.65,0-2.7,7.14-.24,14.27-.36,21.42-.36Z"/>
          <path class="cls-6" d="m37.42,54.35c.22-.44.76-.63,1.21-.41,3.19,1.55,7.01,1.28,9.95-.69.41-.28.99-.18,1.27.23.28.42.19.96-.22,1.24l-.04.02c-3.47,2.34-7.97,2.65-11.75.82-.15-.07-.26-.18-.35-.31-.17-.25-.2-.6-.07-.9Z"/>
          <path class="cls-6" d="m31.25,45.8c-.29-4.18,1.68-8.24,5.16-10.59.16-.11.33-.16.5-.16.29,0,.58.14.75.4.28.42.17.97-.25,1.25-2.93,1.99-4.61,5.43-4.36,8.97.03.5-.34.92-.83.96-.34.02-.64-.14-.81-.4-.09-.13-.15-.28-.16-.44Z"/>
          <path class="cls-7" d="m73.73,27.72s-3.98,5.41,3.18,12.57c7.16,7.16,8.07,88.78,5.01,91.84s-63.01-3.19-63.01,5.06,9.92,8.93,12.3,11.31c2.38,2.38,71.19,3.4,77.71-1.3s4.12-18.67,4.12-18.67c0,0-.47-85.69-2.47-87.69-2-2-7.24-10.9-7.24-10.9l-.88-3.27-28.73,1.05Z"/>
          <path class="cls-6" d="m115.99,47.76v90.94c0,7.67-6.24,13.92-13.92,13.92H24.09c-7.67,0-13.92-6.24-13.92-13.92V47.76c0-4.91,2.51-9.36,6.71-11.91,2.08-1.27,3.37-3.69,3.37-6.35v-.4c-2.88-1.37-4.87-4.3-4.87-7.69v-2.71c0-4.71,3.82-8.53,8.53-8.53h78.35c4.7,0,8.52,3.82,8.52,8.53v2.71c0,3.39-1.99,6.32-4.86,7.69v.4c0,2.66,1.29,5.08,3.37,6.35,4.2,2.54,6.71,6.99,6.71,11.91Zm-5.41,90.94V47.76c0-3.01-1.54-5.73-4.1-7.28-3.56-2.17-5.83-6.17-5.96-10.53h-11.11c.11,3.91,2.4,6.3,5.24,9.22,2.14,2.21,3.6,4.62,3.34,7.78-.2,2.3-3.8,2.31-3.6,0,.38-4.49-4.62-6.63-6.72-10.04-1.3-2.13-1.89-4.52-1.87-6.95h-31.63c1.67,1.23,3.17,2.75,4.39,4.56,5.77,8.57,3.5,20.23-5.07,26-8.56,5.77-20.23,3.5-26-5.07-5.61-8.33-3.6-19.57,4.4-25.49h-6.22c-.14,4.36-2.4,8.37-5.96,10.53-2.57,1.55-4.11,4.27-4.11,7.28v90.94c0,4.69,3.82,8.51,8.51,8.51h77.99c4.69,0,8.51-3.82,8.51-8.51Zm-5.21-117.29v-2.71c0-1.72-1.4-3.12-3.11-3.12H23.91c-1.72,0-3.12,1.4-3.12,3.12v2.71c0,1.72,1.4,3.11,3.11,3.12h78.36c1.72,0,3.11-1.41,3.11-3.12Zm-53.91,36.1c6.91-4.66,8.75-14.08,4.09-20.99-2.59-3.85-6.65-6.12-10.93-6.58h-3.25c-2.36.25-4.71,1.06-6.81,2.48-6.92,4.66-8.76,14.08-4.1,21,4.66,6.91,14.08,8.75,21,4.09Z"/>
          <rect class="cls-2" x="27.67" y="64.44" width="7.1" height="23.02" rx="3.55" ry="3.55"/>
          <rect class="cls-2" x="27.4" y="94.6" width="7.65" height="24.8" rx="3.82" ry="3.82"/>
          <path class="cls-3" d="m82.46,104.96c-3.52-5.23-9.77-7.55-15.6-6.35,4.54,5.35,10.12,14.43,6.68,24.08.68-.26,1.34-.59,1.95-1,.41-.28.99-.18,1.27.24.28.41.19.96-.22,1.23l-.04.02c-1.2.81-2.52,1.37-3.89,1.69-.05.11-.09.21-.15.32-.71,1.36-1.46,2.46-2.22,3.33,2.81-.06,5.63-.88,8.13-2.56,6.91-4.66,8.75-14.08,4.09-21Zm-1.63,8.56c-.5.03-.93-.34-.96-.83-.12-1.73-.7-3.41-1.67-4.85-.99-1.46-2.35-2.64-3.92-3.41-.15-.07-.27-.18-.35-.3-.18-.26-.21-.6-.07-.9.21-.45.75-.64,1.2-.42,1.86.9,3.46,2.29,4.63,4.02,1.14,1.71,1.83,3.69,1.98,5.73.03.5-.34.92-.83.96Z"/>
          <path class="cls-3" d="m73.77,55.16c-3.78,0-7.24,1.41-9.89,3.71,5.41,6.15,14.14,18.15,8.53,26.47.45.04.9.07,1.36.07,8.33,0,15.12-6.78,15.12-15.12s-6.79-15.12-15.12-15.12Zm0,5.15c-1.77,0-3.51.47-5.02,1.35-.15.08-.3.12-.45.12-.31,0-.61-.16-.78-.45-.25-.42-.11-.98.33-1.23,1.79-1.04,3.84-1.59,5.92-1.59h0c2.05,0,4.08.54,5.86,1.56.42.25.58.8.33,1.23-.24.43-.8.59-1.23.34-1.5-.86-3.22-1.32-4.96-1.32Zm5.9,20.18c-.15.08-.3.12-.45.12-.31,0-.62-.16-.78-.45-.25-.43-.11-.99.33-1.23,3.07-1.78,4.98-5.09,4.98-8.64,0-.5.4-.92.9-.92s.91.38.91.88v.04c0,4.19-2.26,8.1-5.88,10.21Z"/>
          <path class="cls-3" d="m42.06,33.49c4.12,5.69-2.7,9.51.94,13.15,3.11,3.11,10.79,2.78,11.27,8.4,4.5-5.04,5.22-12.67,1.28-18.51-2.59-3.85-6.65-6.12-10.93-6.58h-3.25c-.96.1-1.92.3-2.86.6,1.37.71,2.62,1.66,3.56,2.95Zm4.89,1.29c.21-.44.75-.63,1.2-.42,1.86.91,3.46,2.3,4.63,4.02,1.14,1.71,1.83,3.69,1.98,5.73.03.5-.33.93-.83.96-.5.03-.93-.34-.96-.83-.12-1.72-.7-3.41-1.68-4.85h0c-.99-1.47-2.34-2.65-3.92-3.41-.15-.07-.27-.18-.35-.31-.18-.25-.21-.6-.07-.9Z"/>
          <rect class="cls-2" x="26.18" y="17.02" width="9.81" height="3.04" rx="1.52" ry="1.52"/>
          <rect class="cls-2" x="40.2" y="17.02" width="14.56" height="3.04" rx="1.52" ry="1.52"/>
        </g>
      </g>
    </g>
  </g>
</svg>