<?xml version="1.0" encoding="UTF-8"?>
<svg id="Capa_2" data-name="Capa 2" xmlns="http://www.w3.org/2000/svg" xmlns:xlink="http://www.w3.org/1999/xlink" viewBox="0 0 518.26 926.87">
  <defs>
    <style>
      .cls-1 {
        fill: none;
      }

      .cls-2 {
        fill: #222221;
        opacity: .1;
      }

      .cls-3 {
        clip-path: url(#clippath);
      }

      .cls-4 {
        fill: #f4f3f4;
      }

      .cls-5 {
        clip-path: url(#clippath-1);
      }
    </style>
    <clipPath id="clippath">
      <path class="cls-1" d="m60.38,926.87c-33.29,0-60.38-36.51-60.38-81.39V81.39C0,36.51,27.09,0,60.38,0h397.51c33.29,0,60.38,36.51,60.38,81.39v764.08c0,44.88-27.09,81.39-60.38,81.39H60.38Z"/>
    </clipPath>
    <clipPath id="clippath-1">
      <rect class="cls-1" x="-42.75" y="-57.83" width="597.74" height="1118.77"/>
    </clipPath>
  </defs>
  <g id="Capa_1-2" data-name="Capa 1">
    <g class="cls-3">
      <g class="cls-5">
        <rect class="cls-4" x="-48.28" y="-50.18" width="597.74" height="1114.04"/>
        <path class="cls-2" d="m570.22,837.57h-28.52v-47.8h28.52v-1.23h-28.52v-47.79h28.52v-1.23h-28.52v-47.79h28.52v-1.23h-28.52v-47.79h28.52v-1.23h-28.52v-47.79h28.52v-1.23h-28.52v-47.79h28.52v-1.23h-28.52v-47.79h28.52v-1.23h-28.52v-47.79h28.52v-1.23h-28.52v-47.79h28.52v-1.23h-28.52v-47.79h28.52v-1.23h-28.52v-47.79h28.52v-1.23h-28.52v-47.79h28.52v-1.23h-28.52v-47.79h28.52v-1.23h-28.52v-47.79h28.52v-1.23h-28.52v-47.79h28.52v-1.23h-28.52v-47.79h28.52v-1.23h-28.52V5.42h28.52v-1.23h-28.52v-47.79h28.52v-1.23h-28.52v-4.91h-.87v4.91h-33.94v-4.91h-.87v4.91h-33.94v-4.91h-.87v4.91h-33.94v-4.91h-.87v4.91h-33.94v-4.91h-.87v4.91h-33.94v-4.91h-.87v4.91h-33.94v-4.91h-.87v4.91h-33.94v-4.91h-.87v4.91h-33.94v-4.91h-.87v4.91h-33.94v-4.91h-.87v4.91h-33.94v-4.91h-.87v4.91h-33.94v-4.91h-.87v4.91h-33.94v-4.91h-.87v4.91h-33.94v-4.91h-.87v4.91h-33.94v-4.91h-.87v4.91H19.43v-4.91h-.87v4.91H-15.39v-4.91h-.87v4.91h-33.94v-4.91h-.87v4.91h-33.94v-4.91h-.87v4.91h-5.95v1.23h5.95V4.19h-5.95v1.23h5.95v47.79h-5.95v1.23h5.95v47.79h-5.95v1.23h5.95v47.79h-5.95v1.23h5.95v47.79h-5.95v1.23h5.95v47.79h-5.95v1.23h5.95v47.79h-5.95v1.23h5.95v47.79h-5.95v1.23h5.95v47.79h-5.95v1.23h5.95v47.79h-5.95v1.23h5.95v47.79h-5.95v1.23h5.95v47.79h-5.95v1.23h5.95v47.79h-5.95v1.23h5.95v47.79h-5.95v1.23h5.95v47.79h-5.95v1.23h5.95v47.79h-5.95v1.23h5.95v47.79h-5.95v1.23h5.95v47.8h-5.95v1.23h662.06v-1.23Zm-621.3,0h-33.94v-47.8h33.94v47.8Zm0-49.03h-33.94v-47.79h33.94v47.79Zm0-49.02h-33.94v-47.79h33.94v47.79Zm0-49.02h-33.94v-47.79h33.94v47.79Zm0-49.02h-33.94v-47.79h33.94v47.79Zm0-49.02h-33.94v-47.79h33.94v47.79Zm0-49.02h-33.94v-47.79h33.94v47.79Zm0-49.02h-33.94v-47.79h33.94v47.79Zm0-49.02h-33.94v-47.79h33.94v47.79Zm0-49.02h-33.94v-47.79h33.94v47.79Zm0-49.02h-33.94v-47.79h33.94v47.79Zm0-49.02h-33.94v-47.79h33.94v47.79Zm0-49.02h-33.94v-47.79h33.94v47.79Zm0-49.02h-33.94v-47.79h33.94v47.79Zm0-49.02h-33.94v-47.79h33.94v47.79Zm0-49.02h-33.94v-47.79h33.94v47.79Zm0-49.02h-33.94V5.42h33.94v47.79Zm0-49.02h-33.94v-47.79h33.94V4.19ZM-16.26,837.57h-33.94v-47.8H-16.26v47.8Zm0-49.03h-33.94v-47.79H-16.26v47.79Zm0-49.02h-33.94v-47.79H-16.26v47.79Zm0-49.02h-33.94v-47.79H-16.26v47.79Zm0-49.02h-33.94v-47.79H-16.26v47.79Zm0-49.02h-33.94v-47.79H-16.26v47.79Zm0-49.02h-33.94v-47.79H-16.26v47.79Zm0-49.02h-33.94v-47.79H-16.26v47.79Zm0-49.02h-33.94v-47.79H-16.26v47.79Zm0-49.02h-33.94v-47.79H-16.26v47.79Zm0-49.02h-33.94v-47.79H-16.26v47.79Zm0-49.02h-33.94v-47.79H-16.26v47.79Zm0-49.02h-33.94v-47.79H-16.26v47.79Zm0-49.02h-33.94v-47.79H-16.26v47.79Zm0-49.02h-33.94v-47.79H-16.26v47.79Zm0-49.02h-33.94v-47.79H-16.26v47.79Zm0-49.02h-33.94V5.42H-16.26v47.79Zm0-49.02h-33.94v-47.79H-16.26V4.19ZM18.56,837.57H-15.39v-47.8H18.56v47.8Zm0-49.03H-15.39v-47.79H18.56v47.79Zm0-49.02H-15.39v-47.79H18.56v47.79Zm0-49.02H-15.39v-47.79H18.56v47.79Zm0-49.02H-15.39v-47.79H18.56v47.79Zm0-49.02H-15.39v-47.79H18.56v47.79Zm0-49.02H-15.39v-47.79H18.56v47.79Zm0-49.02H-15.39v-47.79H18.56v47.79Zm0-49.02H-15.39v-47.79H18.56v47.79Zm0-49.02H-15.39v-47.79H18.56v47.79Zm0-49.02H-15.39v-47.79H18.56v47.79Zm0-49.02H-15.39v-47.79H18.56v47.79Zm0-49.02H-15.39v-47.79H18.56v47.79Zm0-49.02H-15.39v-47.79H18.56v47.79Zm0-49.02H-15.39v-47.79H18.56v47.79Zm0-49.02H-15.39v-47.79H18.56v47.79Zm0-49.02H-15.39V5.42H18.56v47.79Zm0-49.02H-15.39v-47.79H18.56V4.19Zm34.82,833.39H19.43v-47.8h33.94v47.8Zm0-49.03H19.43v-47.79h33.94v47.79Zm0-49.02H19.43v-47.79h33.94v47.79Zm0-49.02H19.43v-47.79h33.94v47.79Zm0-49.02H19.43v-47.79h33.94v47.79Zm0-49.02H19.43v-47.79h33.94v47.79Zm0-49.02H19.43v-47.79h33.94v47.79Zm0-49.02H19.43v-47.79h33.94v47.79Zm0-49.02H19.43v-47.79h33.94v47.79Zm0-49.02H19.43v-47.79h33.94v47.79Zm0-49.02H19.43v-47.79h33.94v47.79Zm0-49.02H19.43v-47.79h33.94v47.79Zm0-49.02H19.43v-47.79h33.94v47.79Zm0-49.02H19.43v-47.79h33.94v47.79Zm0-49.02H19.43v-47.79h33.94v47.79Zm0-49.02H19.43v-47.79h33.94v47.79Zm0-49.02H19.43V5.42h33.94v47.79Zm0-49.02H19.43v-47.79h33.94V4.19Zm34.82,833.39h-33.94v-47.8h33.94v47.8Zm0-49.03h-33.94v-47.79h33.94v47.79Zm0-49.02h-33.94v-47.79h33.94v47.79Zm0-49.02h-33.94v-47.79h33.94v47.79Zm0-49.02h-33.94v-47.79h33.94v47.79Zm0-49.02h-33.94v-47.79h33.94v47.79Zm0-49.02h-33.94v-47.79h33.94v47.79Zm0-49.02h-33.94v-47.79h33.94v47.79Zm0-49.02h-33.94v-47.79h33.94v47.79Zm0-49.02h-33.94v-47.79h33.94v47.79Zm0-49.02h-33.94v-47.79h33.94v47.79Zm0-49.02h-33.94v-47.79h33.94v47.79Zm0-49.02h-33.94v-47.79h33.94v47.79Zm0-49.02h-33.94v-47.79h33.94v47.79Zm0-49.02h-33.94v-47.79h33.94v47.79Zm0-49.02h-33.94v-47.79h33.94v47.79Zm0-49.02h-33.94V5.42h33.94v47.79Zm0-49.02h-33.94v-47.79h33.94V4.19Zm34.82,833.39h-33.94v-47.8h33.94v47.8Zm0-49.03h-33.94v-47.79h33.94v47.79Zm0-49.02h-33.94v-47.79h33.94v47.79Zm0-49.02h-33.94v-47.79h33.94v47.79Zm0-49.02h-33.94v-47.79h33.94v47.79Zm0-49.02h-33.94v-47.79h33.94v47.79Zm0-49.02h-33.94v-47.79h33.94v47.79Zm0-49.02h-33.94v-47.79h33.94v47.79Zm0-49.02h-33.94v-47.79h33.94v47.79Zm0-49.02h-33.94v-47.79h33.94v47.79Zm0-49.02h-33.94v-47.79h33.94v47.79Zm0-49.02h-33.94v-47.79h33.94v47.79Zm0-49.02h-33.94v-47.79h33.94v47.79Zm0-49.02h-33.94v-47.79h33.94v47.79Zm0-49.02h-33.94v-47.79h33.94v47.79Zm0-49.02h-33.94v-47.79h33.94v47.79Zm0-49.02h-33.94V5.42h33.94v47.79Zm0-49.02h-33.94v-47.79h33.94V4.19Zm34.82,833.39h-33.94v-47.8h33.94v47.8Zm0-49.03h-33.94v-47.79h33.94v47.79Zm0-49.02h-33.94v-47.79h33.94v47.79Zm0-49.02h-33.94v-47.79h33.94v47.79Zm0-49.02h-33.94v-47.79h33.94v47.79Zm0-49.02h-33.94v-47.79h33.94v47.79Zm0-49.02h-33.94v-47.79h33.94v47.79Zm0-49.02h-33.94v-47.79h33.94v47.79Zm0-49.02h-33.94v-47.79h33.94v47.79Zm0-49.02h-33.94v-47.79h33.94v47.79Zm0-49.02h-33.94v-47.79h33.94v47.79Zm0-49.02h-33.94v-47.79h33.94v47.79Zm0-49.02h-33.94v-47.79h33.94v47.79Zm0-49.02h-33.94v-47.79h33.94v47.79Zm0-49.02h-33.94v-47.79h33.94v47.79Zm0-49.02h-33.94v-47.79h33.94v47.79Zm0-49.02h-33.94V5.42h33.94v47.79Zm0-49.02h-33.94v-47.79h33.94V4.19Zm34.82,833.39h-33.94v-47.8h33.94v47.8Zm0-49.03h-33.94v-47.79h33.94v47.79Zm0-49.02h-33.94v-47.79h33.94v47.79Zm0-49.02h-33.94v-47.79h33.94v47.79Zm0-49.02h-33.94v-47.79h33.94v47.79Zm0-49.02h-33.94v-47.79h33.94v47.79Zm0-49.02h-33.94v-47.79h33.94v47.79Zm0-49.02h-33.94v-47.79h33.94v47.79Zm0-49.02h-33.94v-47.79h33.94v47.79Zm0-49.02h-33.94v-47.79h33.94v47.79Zm0-49.02h-33.94v-47.79h33.94v47.79Zm0-49.02h-33.94v-47.79h33.94v47.79Zm0-49.02h-33.94v-47.79h33.94v47.79Zm0-49.02h-33.94v-47.79h33.94v47.79Zm0-49.02h-33.94v-47.79h33.94v47.79Zm0-49.02h-33.94v-47.79h33.94v47.79Zm0-49.02h-33.94V5.42h33.94v47.79Zm0-49.02h-33.94v-47.79h33.94V4.19Zm34.82,833.39h-33.94v-47.8h33.94v47.8Zm0-49.03h-33.94v-47.79h33.94v47.79Zm0-49.02h-33.94v-47.79h33.94v47.79Zm0-49.02h-33.94v-47.79h33.94v47.79Zm0-49.02h-33.94v-47.79h33.94v47.79Zm0-49.02h-33.94v-47.79h33.94v47.79Zm0-49.02h-33.94v-47.79h33.94v47.79Zm0-49.02h-33.94v-47.79h33.94v47.79Zm0-49.02h-33.94v-47.79h33.94v47.79Zm0-49.02h-33.94v-47.79h33.94v47.79Zm0-49.02h-33.94v-47.79h33.94v47.79Zm0-49.02h-33.94v-47.79h33.94v47.79Zm0-49.02h-33.94v-47.79h33.94v47.79Zm0-49.02h-33.94v-47.79h33.94v47.79Zm0-49.02h-33.94v-47.79h33.94v47.79Zm0-49.02h-33.94v-47.79h33.94v47.79Zm0-49.02h-33.94V5.42h33.94v47.79Zm0-49.02h-33.94v-47.79h33.94V4.19Zm34.82,833.39h-33.94v-47.8h33.94v47.8Zm0-49.03h-33.94v-47.79h33.94v47.79Zm0-49.02h-33.94v-47.79h33.94v47.79Zm0-49.02h-33.94v-47.79h33.94v47.79Zm0-49.02h-33.94v-47.79h33.94v47.79Zm0-49.02h-33.94v-47.79h33.94v47.79Zm0-49.02h-33.94v-47.79h33.94v47.79Zm0-49.02h-33.94v-47.79h33.94v47.79Zm0-49.02h-33.94v-47.79h33.94v47.79Zm0-49.02h-33.94v-47.79h33.94v47.79Zm0-49.02h-33.94v-47.79h33.94v47.79Zm0-49.02h-33.94v-47.79h33.94v47.79Zm0-49.02h-33.94v-47.79h33.94v47.79Zm0-49.02h-33.94v-47.79h33.94v47.79Zm0-49.02h-33.94v-47.79h33.94v47.79Zm0-49.02h-33.94v-47.79h33.94v47.79Zm0-49.02h-33.94V5.42h33.94v47.79Zm0-49.02h-33.94v-47.79h33.94V4.19Zm34.82,833.39h-33.94v-47.8h33.94v47.8Zm0-49.03h-33.94v-47.79h33.94v47.79Zm0-49.02h-33.94v-47.79h33.94v47.79Zm0-49.02h-33.94v-47.79h33.94v47.79Zm0-49.02h-33.94v-47.79h33.94v47.79Zm0-49.02h-33.94v-47.79h33.94v47.79Zm0-49.02h-33.94v-47.79h33.94v47.79Zm0-49.02h-33.94v-47.79h33.94v47.79Zm0-49.02h-33.94v-47.79h33.94v47.79Zm0-49.02h-33.94v-47.79h33.94v47.79Zm0-49.02h-33.94v-47.79h33.94v47.79Zm0-49.02h-33.94v-47.79h33.94v47.79Zm0-49.02h-33.94v-47.79h33.94v47.79Zm0-49.02h-33.94v-47.79h33.94v47.79Zm0-49.02h-33.94v-47.79h33.94v47.79Zm0-49.02h-33.94v-47.79h33.94v47.79Zm0-49.02h-33.94V5.42h33.94v47.79Zm0-49.02h-33.94v-47.79h33.94V4.19Zm34.82,833.39h-33.94v-47.8h33.94v47.8Zm0-49.03h-33.94v-47.79h33.94v47.79Zm0-49.02h-33.94v-47.79h33.94v47.79Zm0-49.02h-33.94v-47.79h33.94v47.79Zm0-49.02h-33.94v-47.79h33.94v47.79Zm0-49.02h-33.94v-47.79h33.94v47.79Zm0-49.02h-33.94v-47.79h33.94v47.79Zm0-49.02h-33.94v-47.79h33.94v47.79Zm0-49.02h-33.94v-47.79h33.94v47.79Zm0-49.02h-33.94v-47.79h33.94v47.79Zm0-49.02h-33.94v-47.79h33.94v47.79Zm0-49.02h-33.94v-47.79h33.94v47.79Zm0-49.02h-33.94v-47.79h33.94v47.79Zm0-49.02h-33.94v-47.79h33.94v47.79Zm0-49.02h-33.94v-47.79h33.94v47.79Zm0-49.02h-33.94v-47.79h33.94v47.79Zm0-49.02h-33.94V5.42h33.94v47.79Zm0-49.02h-33.94v-47.79h33.94V4.19Zm34.82,833.39h-33.94v-47.8h33.94v47.8Zm0-49.03h-33.94v-47.79h33.94v47.79Zm0-49.02h-33.94v-47.79h33.94v47.79Zm0-49.02h-33.94v-47.79h33.94v47.79Zm0-49.02h-33.94v-47.79h33.94v47.79Zm0-49.02h-33.94v-47.79h33.94v47.79Zm0-49.02h-33.94v-47.79h33.94v47.79Zm0-49.02h-33.94v-47.79h33.94v47.79Zm0-49.02h-33.94v-47.79h33.94v47.79Zm0-49.02h-33.94v-47.79h33.94v47.79Zm0-49.02h-33.94v-47.79h33.94v47.79Zm0-49.02h-33.94v-47.79h33.94v47.79Zm0-49.02h-33.94v-47.79h33.94v47.79Zm0-49.02h-33.94v-47.79h33.94v47.79Zm0-49.02h-33.94v-47.79h33.94v47.79Zm0-49.02h-33.94v-47.79h33.94v47.79Zm0-49.02h-33.94V5.42h33.94v47.79Zm0-49.02h-33.94v-47.79h33.94V4.19Zm34.82,833.39h-33.94v-47.8h33.94v47.8Zm0-49.03h-33.94v-47.79h33.94v47.79Zm0-49.02h-33.94v-47.79h33.94v47.79Zm0-49.02h-33.94v-47.79h33.94v47.79Zm0-49.02h-33.94v-47.79h33.94v47.79Zm0-49.02h-33.94v-47.79h33.94v47.79Zm0-49.02h-33.94v-47.79h33.94v47.79Zm0-49.02h-33.94v-47.79h33.94v47.79Zm0-49.02h-33.94v-47.79h33.94v47.79Zm0-49.02h-33.94v-47.79h33.94v47.79Zm0-49.02h-33.94v-47.79h33.94v47.79Zm0-49.02h-33.94v-47.79h33.94v47.79Zm0-49.02h-33.94v-47.79h33.94v47.79Zm0-49.02h-33.94v-47.79h33.94v47.79Zm0-49.02h-33.94v-47.79h33.94v47.79Zm0-49.02h-33.94v-47.79h33.94v47.79Zm0-49.02h-33.94V5.42h33.94v47.79Zm0-49.02h-33.94v-47.79h33.94V4.19Zm34.82,833.39h-33.94v-47.8h33.94v47.8Zm0-49.03h-33.94v-47.79h33.94v47.79Zm0-49.02h-33.94v-47.79h33.94v47.79Zm0-49.02h-33.94v-47.79h33.94v47.79Zm0-49.02h-33.94v-47.79h33.94v47.79Zm0-49.02h-33.94v-47.79h33.94v47.79Zm0-49.02h-33.94v-47.79h33.94v47.79Zm0-49.02h-33.94v-47.79h33.94v47.79Zm0-49.02h-33.94v-47.79h33.94v47.79Zm0-49.02h-33.94v-47.79h33.94v47.79Zm0-49.02h-33.94v-47.79h33.94v47.79Zm0-49.02h-33.94v-47.79h33.94v47.79Zm0-49.02h-33.94v-47.79h33.94v47.79Zm0-49.02h-33.94v-47.79h33.94v47.79Zm0-49.02h-33.94v-47.79h33.94v47.79Zm0-49.02h-33.94v-47.79h33.94v47.79Zm0-49.02h-33.94V5.42h33.94v47.79Zm0-49.02h-33.94v-47.79h33.94V4.19Zm34.82,833.39h-33.94v-47.8h33.94v47.8Zm0-49.03h-33.94v-47.79h33.94v47.79Zm0-49.02h-33.94v-47.79h33.94v47.79Zm0-49.02h-33.94v-47.79h33.94v47.79Zm0-49.02h-33.94v-47.79h33.94v47.79Zm0-49.02h-33.94v-47.79h33.94v47.79Zm0-49.02h-33.94v-47.79h33.94v47.79Zm0-49.02h-33.94v-47.79h33.94v47.79Zm0-49.02h-33.94v-47.79h33.94v47.79Zm0-49.02h-33.94v-47.79h33.94v47.79Zm0-49.02h-33.94v-47.79h33.94v47.79Zm0-49.02h-33.94v-47.79h33.94v47.79Zm0-49.02h-33.94v-47.79h33.94v47.79Zm0-49.02h-33.94v-47.79h33.94v47.79Zm0-49.02h-33.94v-47.79h33.94v47.79Zm0-49.02h-33.94v-47.79h33.94v47.79Zm0-49.02h-33.94V5.42h33.94v47.79Zm0-49.02h-33.94v-47.79h33.94V4.19Zm34.82,833.39h-33.94v-47.8h33.94v47.8Zm0-49.03h-33.94v-47.79h33.94v47.79Zm0-49.02h-33.94v-47.79h33.94v47.79Zm0-49.02h-33.94v-47.79h33.94v47.79Zm0-49.02h-33.94v-47.79h33.94v47.79Zm0-49.02h-33.94v-47.79h33.94v47.79Zm0-49.02h-33.94v-47.79h33.94v47.79Zm0-49.02h-33.94v-47.79h33.94v47.79Zm0-49.02h-33.94v-47.79h33.94v47.79Zm0-49.02h-33.94v-47.79h33.94v47.79Zm0-49.02h-33.94v-47.79h33.94v47.79Zm0-49.02h-33.94v-47.79h33.94v47.79Zm0-49.02h-33.94v-47.79h33.94v47.79Zm0-49.02h-33.94v-47.79h33.94v47.79Zm0-49.02h-33.94v-47.79h33.94v47.79Zm0-49.02h-33.94v-47.79h33.94v47.79Zm0-49.02h-33.94V5.42h33.94v47.79Zm0-49.02h-33.94v-47.79h33.94V4.19Zm34.82,833.39h-33.94v-47.8h33.94v47.8Zm0-49.03h-33.94v-47.79h33.94v47.79Zm0-49.02h-33.94v-47.79h33.94v47.79Zm0-49.02h-33.94v-47.79h33.94v47.79Zm0-49.02h-33.94v-47.79h33.94v47.79Zm0-49.02h-33.94v-47.79h33.94v47.79Zm0-49.02h-33.94v-47.79h33.94v47.79Zm0-49.02h-33.94v-47.79h33.94v47.79Zm0-49.02h-33.94v-47.79h33.94v47.79Zm0-49.02h-33.94v-47.79h33.94v47.79Zm0-49.02h-33.94v-47.79h33.94v47.79Zm0-49.02h-33.94v-47.79h33.94v47.79Zm0-49.02h-33.94v-47.79h33.94v47.79Zm0-49.02h-33.94v-47.79h33.94v47.79Zm0-49.02h-33.94v-47.79h33.94v47.79Zm0-49.02h-33.94v-47.79h33.94v47.79Zm0-49.02h-33.94V5.42h33.94v47.79Zm0-49.02h-33.94v-47.79h33.94V4.19Z"/>
        <path class="cls-2" d="m570.34,1719.64h-28.52v-47.8h28.52v-1.23h-28.52v-47.79h28.52v-1.23h-28.52v-47.79h28.52v-1.23h-28.52v-47.79h28.52v-1.23h-28.52v-47.79h28.52v-1.23h-28.52v-47.79h28.52v-1.23h-28.52v-47.79h28.52v-1.23h-28.52v-47.79h28.52v-1.23h-28.52v-47.79h28.52v-1.23h-28.52v-47.79h28.52v-1.23h-28.52v-47.79h28.52v-1.23h-28.52v-47.79h28.52v-1.23h-28.52v-47.79h28.52v-1.23h-28.52v-47.79h28.52v-1.23h-28.52v-47.79h28.52v-1.23h-28.52v-47.79h28.52v-1.23h-28.52v-47.79h28.52v-1.23h-28.52v-47.79h28.52v-1.23H-91.72v1.23h5.95v47.79h-5.95v1.23h5.95v47.79h-5.95v1.23h5.95v47.79h-5.95v1.23h5.95v47.79h-5.95v1.23h5.95v47.79h-5.95v1.23h5.95v47.79h-5.95v1.23h5.95v47.79h-5.95v1.23h5.95v47.79h-5.95v1.23h5.95v47.79h-5.95v1.23h5.95v47.79h-5.95v1.23h5.95v47.79h-5.95v1.23h5.95v47.79h-5.95v1.23h5.95v47.79h-5.95v1.23h5.95v47.79h-5.95v1.23h5.95v47.79h-5.95v1.23h5.95v47.79h-5.95v1.23h5.95v47.79h-5.95v1.23h5.95v47.8h-5.95v1.23h662.06v-1.23Zm-621.3,0h-33.94v-47.8h33.94v47.8Zm0-49.03h-33.94v-47.79h33.94v47.79Zm0-49.02h-33.94v-47.79h33.94v47.79Zm0-49.02h-33.94v-47.79h33.94v47.79Zm0-49.02h-33.94v-47.79h33.94v47.79Zm0-49.02h-33.94v-47.79h33.94v47.79Zm0-49.02h-33.94v-47.79h33.94v47.79Zm0-49.02h-33.94v-47.79h33.94v47.79Zm0-49.02h-33.94v-47.79h33.94v47.79Zm0-49.02h-33.94v-47.79h33.94v47.79Zm0-49.02h-33.94v-47.79h33.94v47.79Zm0-49.02h-33.94v-47.79h33.94v47.79Zm0-49.02h-33.94v-47.79h33.94v47.79Zm0-49.02h-33.94v-47.79h33.94v47.79Zm0-49.02h-33.94v-47.79h33.94v47.79Zm0-49.02h-33.94v-47.79h33.94v47.79Zm0-49.02h-33.94v-47.79h33.94v47.79Zm0-49.02h-33.94v-47.79h33.94v47.79Zm34.82,833.39h-33.94v-47.8H-16.14v47.8Zm0-49.03h-33.94v-47.79H-16.14v47.79Zm0-49.02h-33.94v-47.79H-16.14v47.79Zm0-49.02h-33.94v-47.79H-16.14v47.79Zm0-49.02h-33.94v-47.79H-16.14v47.79Zm0-49.02h-33.94v-47.79H-16.14v47.79Zm0-49.02h-33.94v-47.79H-16.14v47.79Zm0-49.02h-33.94v-47.79H-16.14v47.79Zm0-49.02h-33.94v-47.79H-16.14v47.79Zm0-49.02h-33.94v-47.79H-16.14v47.79Zm0-49.02h-33.94v-47.79H-16.14v47.79Zm0-49.02h-33.94v-47.79H-16.14v47.79Zm0-49.02h-33.94v-47.79H-16.14v47.79Zm0-49.02h-33.94v-47.79H-16.14v47.79Zm0-49.02h-33.94v-47.79H-16.14v47.79Zm0-49.02h-33.94v-47.79H-16.14v47.79Zm0-49.02h-33.94v-47.79H-16.14v47.79Zm0-49.02h-33.94v-47.79H-16.14v47.79Zm34.82,833.39H-15.26v-47.8H18.68v47.8Zm0-49.03H-15.26v-47.79H18.68v47.79Zm0-49.02H-15.26v-47.79H18.68v47.79Zm0-49.02H-15.26v-47.79H18.68v47.79Zm0-49.02H-15.26v-47.79H18.68v47.79Zm0-49.02H-15.26v-47.79H18.68v47.79Zm0-49.02H-15.26v-47.79H18.68v47.79Zm0-49.02H-15.26v-47.79H18.68v47.79Zm0-49.02H-15.26v-47.79H18.68v47.79Zm0-49.02H-15.26v-47.79H18.68v47.79Zm0-49.02H-15.26v-47.79H18.68v47.79Zm0-49.02H-15.26v-47.79H18.68v47.79Zm0-49.02H-15.26v-47.79H18.68v47.79Zm0-49.02H-15.26v-47.79H18.68v47.79Zm0-49.02H-15.26v-47.79H18.68v47.79Zm0-49.02H-15.26v-47.79H18.68v47.79Zm0-49.02H-15.26v-47.79H18.68v47.79Zm0-49.02H-15.26v-47.79H18.68v47.79Zm34.82,833.39H19.56v-47.8h33.94v47.8Zm0-49.03H19.56v-47.79h33.94v47.79Zm0-49.02H19.56v-47.79h33.94v47.79Zm0-49.02H19.56v-47.79h33.94v47.79Zm0-49.02H19.56v-47.79h33.94v47.79Zm0-49.02H19.56v-47.79h33.94v47.79Zm0-49.02H19.56v-47.79h33.94v47.79Zm0-49.02H19.56v-47.79h33.94v47.79Zm0-49.02H19.56v-47.79h33.94v47.79Zm0-49.02H19.56v-47.79h33.94v47.79Zm0-49.02H19.56v-47.79h33.94v47.79Zm0-49.02H19.56v-47.79h33.94v47.79Zm0-49.02H19.56v-47.79h33.94v47.79Zm0-49.02H19.56v-47.79h33.94v47.79Zm0-49.02H19.56v-47.79h33.94v47.79Zm0-49.02H19.56v-47.79h33.94v47.79Zm0-49.02H19.56v-47.79h33.94v47.79Zm0-49.02H19.56v-47.79h33.94v47.79Zm34.82,833.39h-33.94v-47.8h33.94v47.8Zm0-49.03h-33.94v-47.79h33.94v47.79Zm0-49.02h-33.94v-47.79h33.94v47.79Zm0-49.02h-33.94v-47.79h33.94v47.79Zm0-49.02h-33.94v-47.79h33.94v47.79Zm0-49.02h-33.94v-47.79h33.94v47.79Zm0-49.02h-33.94v-47.79h33.94v47.79Zm0-49.02h-33.94v-47.79h33.94v47.79Zm0-49.02h-33.94v-47.79h33.94v47.79Zm0-49.02h-33.94v-47.79h33.94v47.79Zm0-49.02h-33.94v-47.79h33.94v47.79Zm0-49.02h-33.94v-47.79h33.94v47.79Zm0-49.02h-33.94v-47.79h33.94v47.79Zm0-49.02h-33.94v-47.79h33.94v47.79Zm0-49.02h-33.94v-47.79h33.94v47.79Zm0-49.02h-33.94v-47.79h33.94v47.79Zm0-49.02h-33.94v-47.79h33.94v47.79Zm0-49.02h-33.94v-47.79h33.94v47.79Zm34.82,833.39h-33.94v-47.8h33.94v47.8Zm0-49.03h-33.94v-47.79h33.94v47.79Zm0-49.02h-33.94v-47.79h33.94v47.79Zm0-49.02h-33.94v-47.79h33.94v47.79Zm0-49.02h-33.94v-47.79h33.94v47.79Zm0-49.02h-33.94v-47.79h33.94v47.79Zm0-49.02h-33.94v-47.79h33.94v47.79Zm0-49.02h-33.94v-47.79h33.94v47.79Zm0-49.02h-33.94v-47.79h33.94v47.79Zm0-49.02h-33.94v-47.79h33.94v47.79Zm0-49.02h-33.94v-47.79h33.94v47.79Zm0-49.02h-33.94v-47.79h33.94v47.79Zm0-49.02h-33.94v-47.79h33.94v47.79Zm0-49.02h-33.94v-47.79h33.94v47.79Zm0-49.02h-33.94v-47.79h33.94v47.79Zm0-49.02h-33.94v-47.79h33.94v47.79Zm0-49.02h-33.94v-47.79h33.94v47.79Zm0-49.02h-33.94v-47.79h33.94v47.79Zm34.82,833.39h-33.94v-47.8h33.94v47.8Zm0-49.03h-33.94v-47.79h33.94v47.79Zm0-49.02h-33.94v-47.79h33.94v47.79Zm0-49.02h-33.94v-47.79h33.94v47.79Zm0-49.02h-33.94v-47.79h33.94v47.79Zm0-49.02h-33.94v-47.79h33.94v47.79Zm0-49.02h-33.94v-47.79h33.94v47.79Zm0-49.02h-33.94v-47.79h33.94v47.79Zm0-49.02h-33.94v-47.79h33.94v47.79Zm0-49.02h-33.94v-47.79h33.94v47.79Zm0-49.02h-33.94v-47.79h33.94v47.79Zm0-49.02h-33.94v-47.79h33.94v47.79Zm0-49.02h-33.94v-47.79h33.94v47.79Zm0-49.02h-33.94v-47.79h33.94v47.79Zm0-49.02h-33.94v-47.79h33.94v47.79Zm0-49.02h-33.94v-47.79h33.94v47.79Zm0-49.02h-33.94v-47.79h33.94v47.79Zm0-49.02h-33.94v-47.79h33.94v47.79Zm34.82,833.39h-33.94v-47.8h33.94v47.8Zm0-49.03h-33.94v-47.79h33.94v47.79Zm0-49.02h-33.94v-47.79h33.94v47.79Zm0-49.02h-33.94v-47.79h33.94v47.79Zm0-49.02h-33.94v-47.79h33.94v47.79Zm0-49.02h-33.94v-47.79h33.94v47.79Zm0-49.02h-33.94v-47.79h33.94v47.79Zm0-49.02h-33.94v-47.79h33.94v47.79Zm0-49.02h-33.94v-47.79h33.94v47.79Zm0-49.02h-33.94v-47.79h33.94v47.79Zm0-49.02h-33.94v-47.79h33.94v47.79Zm0-49.02h-33.94v-47.79h33.94v47.79Zm0-49.02h-33.94v-47.79h33.94v47.79Zm0-49.02h-33.94v-47.79h33.94v47.79Zm0-49.02h-33.94v-47.79h33.94v47.79Zm0-49.02h-33.94v-47.79h33.94v47.79Zm0-49.02h-33.94v-47.79h33.94v47.79Zm0-49.02h-33.94v-47.79h33.94v47.79Zm34.82,833.39h-33.94v-47.8h33.94v47.8Zm0-49.03h-33.94v-47.79h33.94v47.79Zm0-49.02h-33.94v-47.79h33.94v47.79Zm0-49.02h-33.94v-47.79h33.94v47.79Zm0-49.02h-33.94v-47.79h33.94v47.79Zm0-49.02h-33.94v-47.79h33.94v47.79Zm0-49.02h-33.94v-47.79h33.94v47.79Zm0-49.02h-33.94v-47.79h33.94v47.79Zm0-49.02h-33.94v-47.79h33.94v47.79Zm0-49.02h-33.94v-47.79h33.94v47.79Zm0-49.02h-33.94v-47.79h33.94v47.79Zm0-49.02h-33.94v-47.79h33.94v47.79Zm0-49.02h-33.94v-47.79h33.94v47.79Zm0-49.02h-33.94v-47.79h33.94v47.79Zm0-49.02h-33.94v-47.79h33.94v47.79Zm0-49.02h-33.94v-47.79h33.94v47.79Zm0-49.02h-33.94v-47.79h33.94v47.79Zm0-49.02h-33.94v-47.79h33.94v47.79Zm34.82,833.39h-33.94v-47.8h33.94v47.8Zm0-49.03h-33.94v-47.79h33.94v47.79Zm0-49.02h-33.94v-47.79h33.94v47.79Zm0-49.02h-33.94v-47.79h33.94v47.79Zm0-49.02h-33.94v-47.79h33.94v47.79Zm0-49.02h-33.94v-47.79h33.94v47.79Zm0-49.02h-33.94v-47.79h33.94v47.79Zm0-49.02h-33.94v-47.79h33.94v47.79Zm0-49.02h-33.94v-47.79h33.94v47.79Zm0-49.02h-33.94v-47.79h33.94v47.79Zm0-49.02h-33.94v-47.79h33.94v47.79Zm0-49.02h-33.94v-47.79h33.94v47.79Zm0-49.02h-33.94v-47.79h33.94v47.79Zm0-49.02h-33.94v-47.79h33.94v47.79Zm0-49.02h-33.94v-47.79h33.94v47.79Zm0-49.02h-33.94v-47.79h33.94v47.79Zm0-49.02h-33.94v-47.79h33.94v47.79Zm0-49.02h-33.94v-47.79h33.94v47.79Zm34.82,833.39h-33.94v-47.8h33.94v47.8Zm0-49.03h-33.94v-47.79h33.94v47.79Zm0-49.02h-33.94v-47.79h33.94v47.79Zm0-49.02h-33.94v-47.79h33.94v47.79Zm0-49.02h-33.94v-47.79h33.94v47.79Zm0-49.02h-33.94v-47.79h33.94v47.79Zm0-49.02h-33.94v-47.79h33.94v47.79Zm0-49.02h-33.94v-47.79h33.94v47.79Zm0-49.02h-33.94v-47.79h33.94v47.79Zm0-49.02h-33.94v-47.79h33.94v47.79Zm0-49.02h-33.94v-47.79h33.94v47.79Zm0-49.02h-33.94v-47.79h33.94v47.79Zm0-49.02h-33.94v-47.79h33.94v47.79Zm0-49.02h-33.94v-47.79h33.94v47.79Zm0-49.02h-33.94v-47.79h33.94v47.79Zm0-49.02h-33.94v-47.79h33.94v47.79Zm0-49.02h-33.94v-47.79h33.94v47.79Zm0-49.02h-33.94v-47.79h33.94v47.79Zm34.82,833.39h-33.94v-47.8h33.94v47.8Zm0-49.03h-33.94v-47.79h33.94v47.79Zm0-49.02h-33.94v-47.79h33.94v47.79Zm0-49.02h-33.94v-47.79h33.94v47.79Zm0-49.02h-33.94v-47.79h33.94v47.79Zm0-49.02h-33.94v-47.79h33.94v47.79Zm0-49.02h-33.94v-47.79h33.94v47.79Zm0-49.02h-33.94v-47.79h33.94v47.79Zm0-49.02h-33.94v-47.79h33.94v47.79Zm0-49.02h-33.94v-47.79h33.94v47.79Zm0-49.02h-33.94v-47.79h33.94v47.79Zm0-49.02h-33.94v-47.79h33.94v47.79Zm0-49.02h-33.94v-47.79h33.94v47.79Zm0-49.02h-33.94v-47.79h33.94v47.79Zm0-49.02h-33.94v-47.79h33.94v47.79Zm0-49.02h-33.94v-47.79h33.94v47.79Zm0-49.02h-33.94v-47.79h33.94v47.79Zm0-49.02h-33.94v-47.79h33.94v47.79Zm34.82,833.39h-33.94v-47.8h33.94v47.8Zm0-49.03h-33.94v-47.79h33.94v47.79Zm0-49.02h-33.94v-47.79h33.94v47.79Zm0-49.02h-33.94v-47.79h33.94v47.79Zm0-49.02h-33.94v-47.79h33.94v47.79Zm0-49.02h-33.94v-47.79h33.94v47.79Zm0-49.02h-33.94v-47.79h33.94v47.79Zm0-49.02h-33.94v-47.79h33.94v47.79Zm0-49.02h-33.94v-47.79h33.94v47.79Zm0-49.02h-33.94v-47.79h33.94v47.79Zm0-49.02h-33.94v-47.79h33.94v47.79Zm0-49.02h-33.94v-47.79h33.94v47.79Zm0-49.02h-33.94v-47.79h33.94v47.79Zm0-49.02h-33.94v-47.79h33.94v47.79Zm0-49.02h-33.94v-47.79h33.94v47.79Zm0-49.02h-33.94v-47.79h33.94v47.79Zm0-49.02h-33.94v-47.79h33.94v47.79Zm0-49.02h-33.94v-47.79h33.94v47.79Zm34.82,833.39h-33.94v-47.8h33.94v47.8Zm0-49.03h-33.94v-47.79h33.94v47.79Zm0-49.02h-33.94v-47.79h33.94v47.79Zm0-49.02h-33.94v-47.79h33.94v47.79Zm0-49.02h-33.94v-47.79h33.94v47.79Zm0-49.02h-33.94v-47.79h33.94v47.79Zm0-49.02h-33.94v-47.79h33.94v47.79Zm0-49.02h-33.94v-47.79h33.94v47.79Zm0-49.02h-33.94v-47.79h33.94v47.79Zm0-49.02h-33.94v-47.79h33.94v47.79Zm0-49.02h-33.94v-47.79h33.94v47.79Zm0-49.02h-33.94v-47.79h33.94v47.79Zm0-49.02h-33.94v-47.79h33.94v47.79Zm0-49.02h-33.94v-47.79h33.94v47.79Zm0-49.02h-33.94v-47.79h33.94v47.79Zm0-49.02h-33.94v-47.79h33.94v47.79Zm0-49.02h-33.94v-47.79h33.94v47.79Zm0-49.02h-33.94v-47.79h33.94v47.79Zm34.82,833.39h-33.94v-47.8h33.94v47.8Zm0-49.03h-33.94v-47.79h33.94v47.79Zm0-49.02h-33.94v-47.79h33.94v47.79Zm0-49.02h-33.94v-47.79h33.94v47.79Zm0-49.02h-33.94v-47.79h33.94v47.79Zm0-49.02h-33.94v-47.79h33.94v47.79Zm0-49.02h-33.94v-47.79h33.94v47.79Zm0-49.02h-33.94v-47.79h33.94v47.79Zm0-49.02h-33.94v-47.79h33.94v47.79Zm0-49.02h-33.94v-47.79h33.94v47.79Zm0-49.02h-33.94v-47.79h33.94v47.79Zm0-49.02h-33.94v-47.79h33.94v47.79Zm0-49.02h-33.94v-47.79h33.94v47.79Zm0-49.02h-33.94v-47.79h33.94v47.79Zm0-49.02h-33.94v-47.79h33.94v47.79Zm0-49.02h-33.94v-47.79h33.94v47.79Zm0-49.02h-33.94v-47.79h33.94v47.79Zm0-49.02h-33.94v-47.79h33.94v47.79Zm34.82,833.39h-33.94v-47.8h33.94v47.8Zm0-49.03h-33.94v-47.79h33.94v47.79Zm0-49.02h-33.94v-47.79h33.94v47.79Zm0-49.02h-33.94v-47.79h33.94v47.79Zm0-49.02h-33.94v-47.79h33.94v47.79Zm0-49.02h-33.94v-47.79h33.94v47.79Zm0-49.02h-33.94v-47.79h33.94v47.79Zm0-49.02h-33.94v-47.79h33.94v47.79Zm0-49.02h-33.94v-47.79h33.94v47.79Zm0-49.02h-33.94v-47.79h33.94v47.79Zm0-49.02h-33.94v-47.79h33.94v47.79Zm0-49.02h-33.94v-47.79h33.94v47.79Zm0-49.02h-33.94v-47.79h33.94v47.79Zm0-49.02h-33.94v-47.79h33.94v47.79Zm0-49.02h-33.94v-47.79h33.94v47.79Zm0-49.02h-33.94v-47.79h33.94v47.79Zm0-49.02h-33.94v-47.79h33.94v47.79Zm0-49.02h-33.94v-47.79h33.94v47.79Zm34.82,833.39h-33.94v-47.8h33.94v47.8Zm0-49.03h-33.94v-47.79h33.94v47.79Zm0-49.02h-33.94v-47.79h33.94v47.79Zm0-49.02h-33.94v-47.79h33.94v47.79Zm0-49.02h-33.94v-47.79h33.94v47.79Zm0-49.02h-33.94v-47.79h33.94v47.79Zm0-49.02h-33.94v-47.79h33.94v47.79Zm0-49.02h-33.94v-47.79h33.94v47.79Zm0-49.02h-33.94v-47.79h33.94v47.79Zm0-49.02h-33.94v-47.79h33.94v47.79Zm0-49.02h-33.94v-47.79h33.94v47.79Zm0-49.02h-33.94v-47.79h33.94v47.79Zm0-49.02h-33.94v-47.79h33.94v47.79Zm0-49.02h-33.94v-47.79h33.94v47.79Zm0-49.02h-33.94v-47.79h33.94v47.79Zm0-49.02h-33.94v-47.79h33.94v47.79Zm0-49.02h-33.94v-47.79h33.94v47.79Zm0-49.02h-33.94v-47.79h33.94v47.79Zm34.82,833.39h-33.94v-47.8h33.94v47.8Zm0-49.03h-33.94v-47.79h33.94v47.79Zm0-49.02h-33.94v-47.79h33.94v47.79Zm0-49.02h-33.94v-47.79h33.94v47.79Zm0-49.02h-33.94v-47.79h33.94v47.79Zm0-49.02h-33.94v-47.79h33.94v47.79Zm0-49.02h-33.94v-47.79h33.94v47.79Zm0-49.02h-33.94v-47.79h33.94v47.79Zm0-49.02h-33.94v-47.79h33.94v47.79Zm0-49.02h-33.94v-47.79h33.94v47.79Zm0-49.02h-33.94v-47.79h33.94v47.79Zm0-49.02h-33.94v-47.79h33.94v47.79Zm0-49.02h-33.94v-47.79h33.94v47.79Zm0-49.02h-33.94v-47.79h33.94v47.79Zm0-49.02h-33.94v-47.79h33.94v47.79Zm0-49.02h-33.94v-47.79h33.94v47.79Zm0-49.02h-33.94v-47.79h33.94v47.79Zm0-49.02h-33.94v-47.79h33.94v47.79Z"/>
      </g>
    </g>
  </g>
</svg>