<?xml version="1.0" encoding="UTF-8"?>
<svg id="Capa_2" data-name="Capa 2" xmlns="http://www.w3.org/2000/svg" viewBox="0 0 576.59 1162.96">
  <defs>
    <style>
      .cls-1 {
        fill: #fff;
      }
    </style>
  </defs>
  <g id="Capa_1-2" data-name="Capa 1">
    <path class="cls-1" d="m0,0v50.12h21.2c3.03-7.71,9.2-9.88,16.41-9.88,10.18,0,18.43,7.29,18.43,16.62s-8.25,17.76-18.43,17.76c-7.48,0-13.88-5.22-16.77-9.08H0v42.41h21.2c3.03-3.86,9.2-8.04,16.41-8.04,10.18,0,18.43,8.21,18.43,17.54s-8.25,16.38-18.43,16.38c-7.48,0-13.88-2.75-16.77-10.46H0v50.12h21.2c3.03-7.71,9.2-10.05,16.41-10.05,10.18,0,18.43,7.21,18.43,16.54s-8.25,15.96-18.43,15.96c-7.48,0-13.88-3.17-16.77-10.88H0v50.12h21.2c3.03-7.71,9.2-10.13,16.41-10.13,10.18,0,18.43,7.17,18.43,16.49s-8.25,16.03-18.43,16.03c-7.48,0-13.88-6.97-16.77-10.83H0v46.27h21.2c3.03-3.86,9.2-8.28,16.41-8.28,10.18,0,18.43,8.1,18.43,17.42s-8.25,16.56-18.43,16.56c-7.48,0-13.88-6.42-16.77-10.28H0v50.12h21.2c3.03-7.71,9.2-10.29,16.41-10.29,10.18,0,18.43,7.09,18.43,16.41s-8.25,18.08-18.43,18.08c-7.48,0-13.88-1.06-16.77-8.77H0v42.41h21.2c3.03,0,9.2-8.45,16.41-8.45,10.18,0,18.43,8,18.43,17.33s-8.25,18.62-18.43,18.62c-7.48,0-13.88-4.37-16.77-8.22H0v46.27h21.2c3.03-3.86,9.2-10.46,16.41-10.46,10.18,0,18.43,7,18.43,16.32s-8.25,16.28-18.43,16.28c-7.48,0-13.88-2.86-16.77-10.57H0v50.12h21.2c3.03-7.71,9.2-10.55,16.41-10.55,10.1,0,18.29,6.86,18.42,16.07-.05,3.34-1.15,6.56-3.02,9.31-3.3,4.43-8.96,7.24-15.4,7.24-7.48,0-13.88-2.8-16.77-10.51H0v46.27h21.2c3.03-3.86,9.2-8.7,16.41-8.7,10.1,0,18.29,7.76,18.42,16.99-.13,9.22-8.32,16.16-18.42,16.16-7.48,0-13.88-2.75-16.77-10.46H0v50.12h21.2c3.03-7.71,9.2-10.05,16.41-10.05,10.18,0,18.43,7.21,18.43,16.54s-8.25,15.96-18.43,15.96c-7.48,0-13.88-3.17-16.77-10.88H0v50.12h21.2c3.03-7.71,9.2-10.13,16.41-10.13,10.18,0,18.43,7.17,18.43,16.49s-8.25,16.03-18.43,16.03c-7.48,0-13.88-6.97-16.77-10.83H0v46.27h21.2c3.03-3.86,9.2-8.28,16.41-8.28,10.18,0,18.43,8.1,18.43,17.42s-8.25,16.56-18.43,16.56c-7.48,0-13.88-6.42-16.77-10.28H0v50.12h21.2c3.03-7.71,9.2-10.29,16.41-10.29,10.18,0,18.43,7.09,18.43,16.41s-8.25,18.08-18.43,18.08c-7.48,0-13.88-1.06-16.77-8.77H0v42.41h21.2c3.03,0,9.2-8.45,16.41-8.45,10.18,0,18.43,8,18.43,17.33s-8.25,18.62-18.43,18.62c-7.48,0-13.88-4.37-16.77-8.22H0v46.27h21.2c3.03-3.86,9.2-10.46,16.41-10.46,10.18,0,18.43,7,18.43,16.32s-8.25,16.28-18.43,16.28c-7.48,0-13.88-2.86-16.77-10.57H0v50.12h21.2c3.03-7.71,9.2-10.55,16.41-10.55,10.18,0,18.43,6.96,18.43,16.29s-8.25,16.34-18.43,16.34c-7.48,0-13.88-2.8-16.77-10.51H0v46.27h21.2c3.03-3.86,9.2-8.7,16.41-8.7,10.18,0,18.43,7.88,18.43,17.2s-8.25,18.81-18.43,18.81c-7.48,0-13.88-8.03-16.77-8.03H0v50.12h576.59V0H0Z"/>
  </g>
</svg>