<?xml version="1.0" encoding="UTF-8"?>
<svg id="Capa_2" data-name="Capa 2" xmlns="http://www.w3.org/2000/svg" xmlns:xlink="http://www.w3.org/1999/xlink" viewBox="0 0 517.88 261.18">
  <defs>
    <style>
      .cls-1 {
        fill: none;
      }

      .cls-2 {
        fill: #222221;
        opacity: .1;
      }

      .cls-3 {
        clip-path: url(#clippath);
      }

      .cls-4 {
        fill: #f4f3f4;
      }

      .cls-5 {
        fill: #72716c;
      }

      .cls-6 {
        clip-path: url(#clippath-1);
      }
    </style>
    <clipPath id="clippath">
      <path class="cls-1" d="m517.88,13h-40.25v14.95c5.34,2.13,7.81,6.46,7.83,11.52.02,5.82-3.64,11.17-9.28,12.63-8.55,2.22-16.68-4.27-16.68-12.57,0-5.27,4.71-9.79,7.4-11.83v-14.7h-34.88v14.95c2.68,2.14,6.95,6.5,6.95,11.58,0,7.88-7.16,14.13-15.26,12.84-6.17-.98-10.48-6.58-10.48-12.83,0-5.28,2.69-9.8,8.06-11.84v-14.7h-37.57v14.95c4.26,1.7,6.42,4.79,7.13,8.53,1.47,7.71-3.69,15.36-11.52,16.01s-14.07-5.41-14.07-12.96c0-5.27,3.21-9.79,7.72-11.83v-14.7h-37.57v14.95c5.36,2.14,7.86,6.48,7.87,11.56,0,5.82-3.67,11.16-9.32,12.6-8.52,2.18-16.66-4.3-16.66-12.58,0-5.27,4.69-9.79,7.37-11.83v-14.7h-34.88v14.95c2.68,2.14,6.98,6.5,6.98,11.58,0,7.9-7.18,14.16-15.31,12.83-6.16-1.01-10.46-6.63-10.44-12.88.02-5.25,2.69-9.74,8.03-11.78v-14.7h-37.57v14.95c4.26,1.7,6.44,4.79,7.17,8.53,1.49,7.71-3.69,15.37-11.52,16.01s-14.07-5.42-14.07-12.96c0-5.27,2.32-9.79,7.69-11.83v-14.7h-34.88v14.95c2.68,2.14,6.56,6.5,6.56,11.58,0,7.18-6.14,13.01-13.33,13.01s-13.66-5.82-13.66-13.01c0-5.27,4.33-9.79,7.01-11.83v-14.7h-34.88v14.95c2.68,2.14,7.02,6.5,7.02,11.58,0,7.92-7.19,14.19-15.34,12.82-6.17-1.03-10.46-6.67-10.42-12.92.04-5.23,2.68-9.7,8.01-11.73v-14.7h-37.57v14.95c4.26,1.7,6.47,4.79,7.2,8.54,1.5,7.72-3.69,15.38-11.53,16s-14.07-5.43-14.07-12.96c0-5.27,2.3-9.79,7.66-11.83v-14.7h-34.88v14.95c2.68,2.14,6.59,6.5,6.59,11.58,0,7.18-6.13,13.01-13.31,13.01s-13.69-5.82-13.69-13.01c0-5.27,4.3-9.79,6.98-11.83v-14.7H0v177.9c0,38.81,31.46,70.27,70.27,70.27h377.33c38.81,0,70.27-31.46,70.27-70.27V13Z"/>
    </clipPath>
    <clipPath id="clippath-1">
      <rect class="cls-1" x="-44.11" y="-572.02" width="597.74" height="841.61"/>
    </clipPath>
  </defs>
  <g id="Capa_1-2" data-name="Capa 1">
    <g class="cls-3">
      <g class="cls-6">
        <rect class="cls-4" x="-49.64" y="-564.36" width="597.74" height="841.61"/>
        <path class="cls-2" d="m568.85,323.38h-28.52v-47.8h28.52v-1.23h-28.52v-47.79h28.52v-1.23h-28.52v-47.79h28.52v-1.23h-28.52v-47.79h28.52v-1.23h-28.52v-47.79h28.52v-1.23h-28.52V30.47h28.52v-1.23h-28.52V-18.55h28.52v-1.23h-28.52v-47.79h28.52v-1.23h-28.52v-47.79h28.52v-1.23h-28.52v-47.79h28.52v-1.23h-28.52v-47.79h28.52v-1.23h-28.52v-47.79h28.52v-1.23h-28.52v-47.79h28.52v-1.23h-28.52v-47.79h28.52v-1.23h-28.52v-47.79h28.52v-1.23h-28.52v-47.79h28.52v-1.23h-28.52v-47.79h28.52v-1.23h-28.52v-47.79h28.52v-1.23h-28.52v-4.91h-.87v4.91h-33.94v-4.91h-.87v4.91h-33.94v-4.91h-.87v4.91h-33.94v-4.91h-.87v4.91h-33.94v-4.91h-.87v4.91h-33.94v-4.91h-.87v4.91h-33.94v-4.91h-.87v4.91h-33.94v-4.91h-.87v4.91h-33.94v-4.91h-.87v4.91h-33.94v-4.91h-.87v4.91h-33.94v-4.91h-.87v4.91h-33.94v-4.91h-.87v4.91h-33.94v-4.91h-.87v4.91h-33.94v-4.91h-.87v4.91h-33.94v-4.91h-.87v4.91H18.07v-4.91h-.87v4.91H-16.75v-4.91h-.87v4.91h-33.94v-4.91h-.87v4.91h-33.94v-4.91h-.87v4.91h-5.95v1.23h5.95v47.79h-5.95v1.23h5.95v47.79h-5.95v1.23h5.95v47.79h-5.95v1.23h5.95v47.79h-5.95v1.23h5.95v47.79h-5.95v1.23h5.95v47.79h-5.95v1.23h5.95v47.79h-5.95v1.23h5.95v47.79h-5.95v1.23h5.95v47.79h-5.95v1.23h5.95v47.79h-5.95v1.23h5.95V-19.78h-5.95v1.23h5.95V29.24h-5.95v1.23h5.95v47.79h-5.95v1.23h5.95v47.79h-5.95v1.23h5.95v47.79h-5.95v1.23h5.95v47.79h-5.95v1.23h5.95v47.79h-5.95v1.23h5.95v47.8h-5.95v1.23h662.06v-1.23Zm-621.3,0h-33.94v-47.8h33.94v47.8Zm0-49.03h-33.94v-47.79h33.94v47.79Zm0-49.02h-33.94v-47.79h33.94v47.79Zm0-49.02h-33.94v-47.79h33.94v47.79Zm0-49.02h-33.94v-47.79h33.94v47.79Zm0-49.02h-33.94V30.47h33.94v47.79Zm0-49.02h-33.94V-18.55h33.94V29.24Zm0-49.02h-33.94v-47.79h33.94V-19.78Zm0-49.02h-33.94v-47.79h33.94v47.79Zm0-49.02h-33.94v-47.79h33.94v47.79Zm0-49.02h-33.94v-47.79h33.94v47.79Zm0-49.02h-33.94v-47.79h33.94v47.79Zm0-49.02h-33.94v-47.79h33.94v47.79Zm0-49.02h-33.94v-47.79h33.94v47.79Zm0-49.02h-33.94v-47.79h33.94v47.79Zm0-49.02h-33.94v-47.79h33.94v47.79Zm0-49.02h-33.94v-47.79h33.94v47.79Zm0-49.02h-33.94v-47.79h33.94v47.79ZM-17.63,323.38h-33.94v-47.8H-17.63v47.8Zm0-49.03h-33.94v-47.79H-17.63v47.79Zm0-49.02h-33.94v-47.79H-17.63v47.79Zm0-49.02h-33.94v-47.79H-17.63v47.79Zm0-49.02h-33.94v-47.79H-17.63v47.79Zm0-49.02h-33.94V30.47H-17.63v47.79Zm0-49.02h-33.94V-18.55H-17.63V29.24Zm0-49.02h-33.94v-47.79H-17.63V-19.78Zm0-49.02h-33.94v-47.79H-17.63v47.79Zm0-49.02h-33.94v-47.79H-17.63v47.79Zm0-49.02h-33.94v-47.79H-17.63v47.79Zm0-49.02h-33.94v-47.79H-17.63v47.79Zm0-49.02h-33.94v-47.79H-17.63v47.79Zm0-49.02h-33.94v-47.79H-17.63v47.79Zm0-49.02h-33.94v-47.79H-17.63v47.79Zm0-49.02h-33.94v-47.79H-17.63v47.79Zm0-49.02h-33.94v-47.79H-17.63v47.79Zm0-49.02h-33.94v-47.79H-17.63v47.79ZM17.19,323.38H-16.75v-47.8H17.19v47.8Zm0-49.03H-16.75v-47.79H17.19v47.79Zm0-49.02H-16.75v-47.79H17.19v47.79Zm0-49.02H-16.75v-47.79H17.19v47.79Zm0-49.02H-16.75v-47.79H17.19v47.79Zm0-49.02H-16.75V30.47H17.19v47.79Zm0-49.02H-16.75V-18.55H17.19V29.24Zm0-49.02H-16.75v-47.79H17.19V-19.78Zm0-49.02H-16.75v-47.79H17.19v47.79Zm0-49.02H-16.75v-47.79H17.19v47.79Zm0-49.02H-16.75v-47.79H17.19v47.79Zm0-49.02H-16.75v-47.79H17.19v47.79Zm0-49.02H-16.75v-47.79H17.19v47.79Zm0-49.02H-16.75v-47.79H17.19v47.79Zm0-49.02H-16.75v-47.79H17.19v47.79Zm0-49.02H-16.75v-47.79H17.19v47.79Zm0-49.02H-16.75v-47.79H17.19v47.79Zm0-49.02H-16.75v-47.79H17.19v47.79ZM52.01,323.38H18.07v-47.8h33.94v47.8Zm0-49.03H18.07v-47.79h33.94v47.79Zm0-49.02H18.07v-47.79h33.94v47.79Zm0-49.02H18.07v-47.79h33.94v47.79Zm0-49.02H18.07v-47.79h33.94v47.79Zm0-49.02H18.07V30.47h33.94v47.79Zm0-49.02H18.07V-18.55h33.94V29.24Zm0-49.02H18.07v-47.79h33.94V-19.78Zm0-49.02H18.07v-47.79h33.94v47.79Zm0-49.02H18.07v-47.79h33.94v47.79Zm0-49.02H18.07v-47.79h33.94v47.79Zm0-49.02H18.07v-47.79h33.94v47.79Zm0-49.02H18.07v-47.79h33.94v47.79Zm0-49.02H18.07v-47.79h33.94v47.79Zm0-49.02H18.07v-47.79h33.94v47.79Zm0-49.02H18.07v-47.79h33.94v47.79Zm0-49.02H18.07v-47.79h33.94v47.79Zm0-49.02H18.07v-47.79h33.94v47.79Zm34.82,833.39h-33.94v-47.8h33.94v47.8Zm0-49.03h-33.94v-47.79h33.94v47.79Zm0-49.02h-33.94v-47.79h33.94v47.79Zm0-49.02h-33.94v-47.79h33.94v47.79Zm0-49.02h-33.94v-47.79h33.94v47.79Zm0-49.02h-33.94V30.47h33.94v47.79Zm0-49.02h-33.94V-18.55h33.94V29.24Zm0-49.02h-33.94v-47.79h33.94V-19.78Zm0-49.02h-33.94v-47.79h33.94v47.79Zm0-49.02h-33.94v-47.79h33.94v47.79Zm0-49.02h-33.94v-47.79h33.94v47.79Zm0-49.02h-33.94v-47.79h33.94v47.79Zm0-49.02h-33.94v-47.79h33.94v47.79Zm0-49.02h-33.94v-47.79h33.94v47.79Zm0-49.02h-33.94v-47.79h33.94v47.79Zm0-49.02h-33.94v-47.79h33.94v47.79Zm0-49.02h-33.94v-47.79h33.94v47.79Zm0-49.02h-33.94v-47.79h33.94v47.79Zm34.82,833.39h-33.94v-47.8h33.94v47.8Zm0-49.03h-33.94v-47.79h33.94v47.79Zm0-49.02h-33.94v-47.79h33.94v47.79Zm0-49.02h-33.94v-47.79h33.94v47.79Zm0-49.02h-33.94v-47.79h33.94v47.79Zm0-49.02h-33.94V30.47h33.94v47.79Zm0-49.02h-33.94V-18.55h33.94V29.24Zm0-49.02h-33.94v-47.79h33.94V-19.78Zm0-49.02h-33.94v-47.79h33.94v47.79Zm0-49.02h-33.94v-47.79h33.94v47.79Zm0-49.02h-33.94v-47.79h33.94v47.79Zm0-49.02h-33.94v-47.79h33.94v47.79Zm0-49.02h-33.94v-47.79h33.94v47.79Zm0-49.02h-33.94v-47.79h33.94v47.79Zm0-49.02h-33.94v-47.79h33.94v47.79Zm0-49.02h-33.94v-47.79h33.94v47.79Zm0-49.02h-33.94v-47.79h33.94v47.79Zm0-49.02h-33.94v-47.79h33.94v47.79Zm34.82,833.39h-33.94v-47.8h33.94v47.8Zm0-49.03h-33.94v-47.79h33.94v47.79Zm0-49.02h-33.94v-47.79h33.94v47.79Zm0-49.02h-33.94v-47.79h33.94v47.79Zm0-49.02h-33.94v-47.79h33.94v47.79Zm0-49.02h-33.94V30.47h33.94v47.79Zm0-49.02h-33.94V-18.55h33.94V29.24Zm0-49.02h-33.94v-47.79h33.94V-19.78Zm0-49.02h-33.94v-47.79h33.94v47.79Zm0-49.02h-33.94v-47.79h33.94v47.79Zm0-49.02h-33.94v-47.79h33.94v47.79Zm0-49.02h-33.94v-47.79h33.94v47.79Zm0-49.02h-33.94v-47.79h33.94v47.79Zm0-49.02h-33.94v-47.79h33.94v47.79Zm0-49.02h-33.94v-47.79h33.94v47.79Zm0-49.02h-33.94v-47.79h33.94v47.79Zm0-49.02h-33.94v-47.79h33.94v47.79Zm0-49.02h-33.94v-47.79h33.94v47.79Zm34.82,833.39h-33.94v-47.8h33.94v47.8Zm0-49.03h-33.94v-47.79h33.94v47.79Zm0-49.02h-33.94v-47.79h33.94v47.79Zm0-49.02h-33.94v-47.79h33.94v47.79Zm0-49.02h-33.94v-47.79h33.94v47.79Zm0-49.02h-33.94V30.47h33.94v47.79Zm0-49.02h-33.94V-18.55h33.94V29.24Zm0-49.02h-33.94v-47.79h33.94V-19.78Zm0-49.02h-33.94v-47.79h33.94v47.79Zm0-49.02h-33.94v-47.79h33.94v47.79Zm0-49.02h-33.94v-47.79h33.94v47.79Zm0-49.02h-33.94v-47.79h33.94v47.79Zm0-49.02h-33.94v-47.79h33.94v47.79Zm0-49.02h-33.94v-47.79h33.94v47.79Zm0-49.02h-33.94v-47.79h33.94v47.79Zm0-49.02h-33.94v-47.79h33.94v47.79Zm0-49.02h-33.94v-47.79h33.94v47.79Zm0-49.02h-33.94v-47.79h33.94v47.79Zm34.82,833.39h-33.94v-47.8h33.94v47.8Zm0-49.03h-33.94v-47.79h33.94v47.79Zm0-49.02h-33.94v-47.79h33.94v47.79Zm0-49.02h-33.94v-47.79h33.94v47.79Zm0-49.02h-33.94v-47.79h33.94v47.79Zm0-49.02h-33.94V30.47h33.94v47.79Zm0-49.02h-33.94V-18.55h33.94V29.24Zm0-49.02h-33.94v-47.79h33.94V-19.78Zm0-49.02h-33.94v-47.79h33.94v47.79Zm0-49.02h-33.94v-47.79h33.94v47.79Zm0-49.02h-33.94v-47.79h33.94v47.79Zm0-49.02h-33.94v-47.79h33.94v47.79Zm0-49.02h-33.94v-47.79h33.94v47.79Zm0-49.02h-33.94v-47.79h33.94v47.79Zm0-49.02h-33.94v-47.79h33.94v47.79Zm0-49.02h-33.94v-47.79h33.94v47.79Zm0-49.02h-33.94v-47.79h33.94v47.79Zm0-49.02h-33.94v-47.79h33.94v47.79Zm34.82,833.39h-33.94v-47.8h33.94v47.8Zm0-49.03h-33.94v-47.79h33.94v47.79Zm0-49.02h-33.94v-47.79h33.94v47.79Zm0-49.02h-33.94v-47.79h33.94v47.79Zm0-49.02h-33.94v-47.79h33.94v47.79Zm0-49.02h-33.94V30.47h33.94v47.79Zm0-49.02h-33.94V-18.55h33.94V29.24Zm0-49.02h-33.94v-47.79h33.94V-19.78Zm0-49.02h-33.94v-47.79h33.94v47.79Zm0-49.02h-33.94v-47.79h33.94v47.79Zm0-49.02h-33.94v-47.79h33.94v47.79Zm0-49.02h-33.94v-47.79h33.94v47.79Zm0-49.02h-33.94v-47.79h33.94v47.79Zm0-49.02h-33.94v-47.79h33.94v47.79Zm0-49.02h-33.94v-47.79h33.94v47.79Zm0-49.02h-33.94v-47.79h33.94v47.79Zm0-49.02h-33.94v-47.79h33.94v47.79Zm0-49.02h-33.94v-47.79h33.94v47.79Zm34.82,833.39h-33.94v-47.8h33.94v47.8Zm0-49.03h-33.94v-47.79h33.94v47.79Zm0-49.02h-33.94v-47.79h33.94v47.79Zm0-49.02h-33.94v-47.79h33.94v47.79Zm0-49.02h-33.94v-47.79h33.94v47.79Zm0-49.02h-33.94V30.47h33.94v47.79Zm0-49.02h-33.94V-18.55h33.94V29.24Zm0-49.02h-33.94v-47.79h33.94V-19.78Zm0-49.02h-33.94v-47.79h33.94v47.79Zm0-49.02h-33.94v-47.79h33.94v47.79Zm0-49.02h-33.94v-47.79h33.94v47.79Zm0-49.02h-33.94v-47.79h33.94v47.79Zm0-49.02h-33.94v-47.79h33.94v47.79Zm0-49.02h-33.94v-47.79h33.94v47.79Zm0-49.02h-33.94v-47.79h33.94v47.79Zm0-49.02h-33.94v-47.79h33.94v47.79Zm0-49.02h-33.94v-47.79h33.94v47.79Zm0-49.02h-33.94v-47.79h33.94v47.79Zm34.82,833.39h-33.94v-47.8h33.94v47.8Zm0-49.03h-33.94v-47.79h33.94v47.79Zm0-49.02h-33.94v-47.79h33.94v47.79Zm0-49.02h-33.94v-47.79h33.94v47.79Zm0-49.02h-33.94v-47.79h33.94v47.79Zm0-49.02h-33.94V30.47h33.94v47.79Zm0-49.02h-33.94V-18.55h33.94V29.24Zm0-49.02h-33.94v-47.79h33.94V-19.78Zm0-49.02h-33.94v-47.79h33.94v47.79Zm0-49.02h-33.94v-47.79h33.94v47.79Zm0-49.02h-33.94v-47.79h33.94v47.79Zm0-49.02h-33.94v-47.79h33.94v47.79Zm0-49.02h-33.94v-47.79h33.94v47.79Zm0-49.02h-33.94v-47.79h33.94v47.79Zm0-49.02h-33.94v-47.79h33.94v47.79Zm0-49.02h-33.94v-47.79h33.94v47.79Zm0-49.02h-33.94v-47.79h33.94v47.79Zm0-49.02h-33.94v-47.79h33.94v47.79Zm34.82,833.39h-33.94v-47.8h33.94v47.8Zm0-49.03h-33.94v-47.79h33.94v47.79Zm0-49.02h-33.94v-47.79h33.94v47.79Zm0-49.02h-33.94v-47.79h33.94v47.79Zm0-49.02h-33.94v-47.79h33.94v47.79Zm0-49.02h-33.94V30.47h33.94v47.79Zm0-49.02h-33.94V-18.55h33.94V29.24Zm0-49.02h-33.94v-47.79h33.94V-19.78Zm0-49.02h-33.94v-47.79h33.94v47.79Zm0-49.02h-33.94v-47.79h33.94v47.79Zm0-49.02h-33.94v-47.79h33.94v47.79Zm0-49.02h-33.94v-47.79h33.94v47.79Zm0-49.02h-33.94v-47.79h33.94v47.79Zm0-49.02h-33.94v-47.79h33.94v47.79Zm0-49.02h-33.94v-47.79h33.94v47.79Zm0-49.02h-33.94v-47.79h33.94v47.79Zm0-49.02h-33.94v-47.79h33.94v47.79Zm0-49.02h-33.94v-47.79h33.94v47.79Zm34.82,833.39h-33.94v-47.8h33.94v47.8Zm0-49.03h-33.94v-47.79h33.94v47.79Zm0-49.02h-33.94v-47.79h33.94v47.79Zm0-49.02h-33.94v-47.79h33.94v47.79Zm0-49.02h-33.94v-47.79h33.94v47.79Zm0-49.02h-33.94V30.47h33.94v47.79Zm0-49.02h-33.94V-18.55h33.94V29.24Zm0-49.02h-33.94v-47.79h33.94V-19.78Zm0-49.02h-33.94v-47.79h33.94v47.79Zm0-49.02h-33.94v-47.79h33.94v47.79Zm0-49.02h-33.94v-47.79h33.94v47.79Zm0-49.02h-33.94v-47.79h33.94v47.79Zm0-49.02h-33.94v-47.79h33.94v47.79Zm0-49.02h-33.94v-47.79h33.94v47.79Zm0-49.02h-33.94v-47.79h33.94v47.79Zm0-49.02h-33.94v-47.79h33.94v47.79Zm0-49.02h-33.94v-47.79h33.94v47.79Zm0-49.02h-33.94v-47.79h33.94v47.79Zm34.82,833.39h-33.94v-47.8h33.94v47.8Zm0-49.03h-33.94v-47.79h33.94v47.79Zm0-49.02h-33.94v-47.79h33.94v47.79Zm0-49.02h-33.94v-47.79h33.94v47.79Zm0-49.02h-33.94v-47.79h33.94v47.79Zm0-49.02h-33.94V30.47h33.94v47.79Zm0-49.02h-33.94V-18.55h33.94V29.24Zm0-49.02h-33.94v-47.79h33.94V-19.78Zm0-49.02h-33.94v-47.79h33.94v47.79Zm0-49.02h-33.94v-47.79h33.94v47.79Zm0-49.02h-33.94v-47.79h33.94v47.79Zm0-49.02h-33.94v-47.79h33.94v47.79Zm0-49.02h-33.94v-47.79h33.94v47.79Zm0-49.02h-33.94v-47.79h33.94v47.79Zm0-49.02h-33.94v-47.79h33.94v47.79Zm0-49.02h-33.94v-47.79h33.94v47.79Zm0-49.02h-33.94v-47.79h33.94v47.79Zm0-49.02h-33.94v-47.79h33.94v47.79Zm34.82,833.39h-33.94v-47.8h33.94v47.8Zm0-49.03h-33.94v-47.79h33.94v47.79Zm0-49.02h-33.94v-47.79h33.94v47.79Zm0-49.02h-33.94v-47.79h33.94v47.79Zm0-49.02h-33.94v-47.79h33.94v47.79Zm0-49.02h-33.94V30.47h33.94v47.79Zm0-49.02h-33.94V-18.55h33.94V29.24Zm0-49.02h-33.94v-47.79h33.94V-19.78Zm0-49.02h-33.94v-47.79h33.94v47.79Zm0-49.02h-33.94v-47.79h33.94v47.79Zm0-49.02h-33.94v-47.79h33.94v47.79Zm0-49.02h-33.94v-47.79h33.94v47.79Zm0-49.02h-33.94v-47.79h33.94v47.79Zm0-49.02h-33.94v-47.79h33.94v47.79Zm0-49.02h-33.94v-47.79h33.94v47.79Zm0-49.02h-33.94v-47.79h33.94v47.79Zm0-49.02h-33.94v-47.79h33.94v47.79Zm0-49.02h-33.94v-47.79h33.94v47.79Zm34.82,833.39h-33.94v-47.8h33.94v47.8Zm0-49.03h-33.94v-47.79h33.94v47.79Zm0-49.02h-33.94v-47.79h33.94v47.79Zm0-49.02h-33.94v-47.79h33.94v47.79Zm0-49.02h-33.94v-47.79h33.94v47.79Zm0-49.02h-33.94V30.47h33.94v47.79Zm0-49.02h-33.94V-18.55h33.94V29.24Zm0-49.02h-33.94v-47.79h33.94V-19.78Zm0-49.02h-33.94v-47.79h33.94v47.79Zm0-49.02h-33.94v-47.79h33.94v47.79Zm0-49.02h-33.94v-47.79h33.94v47.79Zm0-49.02h-33.94v-47.79h33.94v47.79Zm0-49.02h-33.94v-47.79h33.94v47.79Zm0-49.02h-33.94v-47.79h33.94v47.79Zm0-49.02h-33.94v-47.79h33.94v47.79Zm0-49.02h-33.94v-47.79h33.94v47.79Zm0-49.02h-33.94v-47.79h33.94v47.79Zm0-49.02h-33.94v-47.79h33.94v47.79Zm34.82,833.39h-33.94v-47.8h33.94v47.8Zm0-49.03h-33.94v-47.79h33.94v47.79Zm0-49.02h-33.94v-47.79h33.94v47.79Zm0-49.02h-33.94v-47.79h33.94v47.79Zm0-49.02h-33.94v-47.79h33.94v47.79Zm0-49.02h-33.94V30.47h33.94v47.79Zm0-49.02h-33.94V-18.55h33.94V29.24Zm0-49.02h-33.94v-47.79h33.94V-19.78Zm0-49.02h-33.94v-47.79h33.94v47.79Zm0-49.02h-33.94v-47.79h33.94v47.79Zm0-49.02h-33.94v-47.79h33.94v47.79Zm0-49.02h-33.94v-47.79h33.94v47.79Zm0-49.02h-33.94v-47.79h33.94v47.79Zm0-49.02h-33.94v-47.79h33.94v47.79Zm0-49.02h-33.94v-47.79h33.94v47.79Zm0-49.02h-33.94v-47.79h33.94v47.79Zm0-49.02h-33.94v-47.79h33.94v47.79Zm0-49.02h-33.94v-47.79h33.94v47.79Z"/>
      </g>
    </g>
    <rect class="cls-5" x="421.43" width="10.73" height="40.25"/>
    <rect class="cls-5" x="373.13" width="10.73" height="40.25"/>
    <rect class="cls-5" x="467.05" width="10.73" height="40.25"/>
    <rect class="cls-5" x="324.83" width="10.73" height="40.25"/>
    <rect class="cls-5" x="279.22" width="10.73" height="40.25"/>
    <rect class="cls-5" x="230.92" width="10.73" height="40.25"/>
    <rect class="cls-5" x="182.62" width="10.73" height="40.25"/>
    <rect class="cls-5" x="137" width="10.73" height="40.25"/>
    <rect class="cls-5" x="88.7" width="10.73" height="40.25"/>
    <rect class="cls-5" x="40.4" width="10.73" height="40.25"/>
  </g>
</svg>