<?xml version="1.0" encoding="UTF-8"?>
<svg id="Capa_2" data-name="Capa 2" xmlns="http://www.w3.org/2000/svg" viewBox="0 0 88.76 120.28">
  <defs>
    <style>
      .cls-1 {
        fill: #fff;
      }

      .cls-2 {
        fill: #3765ae;
      }
    </style>
  </defs>
  <g id="Capa_1-2" data-name="Capa 1">
    <path class="cls-1" d="m88.67,62.38s-1.25-1.73-1.68-2.29c-1.97-2.52-4.62-3.42-7.89-2.65-1.66.39-7.66,4.53-14.75,9.51-2.5,1.75-4.65,3.26-5.65,3.89-.43.27-.77.35-1.06.26-.27-.08-.48-.32-.72-.8-1.73-3.46-3.86-13.65-2.97-17.98,1.88-9.2,9.91-37.17,9.99-37.46.84-2.91-.74-6.01-3.52-6.89-1.42-.45-2.92-.32-4.23.38-1.31.7-2.26,1.88-2.67,3.3l-11.29,37.09c-.15.48-.62.79-1.11.74-.57-.06-.99-.58-.93-1.15l4.35-42.3c.32-2.99-1.85-5.68-4.84-6-1.44-.15-2.87.26-4,1.18-1.13.91-1.84,2.22-2,3.66l-5.42,45.32c-.01.12-.11.22-.23.25-.11.02-.2-.03-.24-.06-.04-.03-.11-.1-.11-.22l.03-39.99c0-2.76-2.24-5-5-5s-5,2.24-5,4.99l-.66,43c0,.53-.39.99-.91,1.09-.3.06-.6,0-.85-.17-.25-.17-.42-.43-.48-.73l-5.23-27.59c-.21-1.27-.91-2.39-1.96-3.14-1.05-.75-2.33-1.04-3.6-.83-1.21.2-2.29.85-3.03,1.82-.81,1.06-1.15,2.42-.94,3.74l4.78,28.75c-.02.06-.02.11-.02.17l1.81,25.56c.26,3.69.84,7.38,1.73,10.96l3.6,14.58.58,12.13c.01.26.23.47.5.48h.5s-.59-12.75-.59-12.75l-3.62-14.68c-.87-3.53-1.44-7.17-1.7-10.8l-1.8-25.35c.03-.08.04-.17.03-.26L1.05,27.17c-.18-1.06.09-2.11.74-2.96.59-.77,1.45-1.28,2.41-1.44,1.01-.17,2.02.07,2.85.66.83.59,1.38,1.48,1.55,2.5l5.23,27.6c.11.56.43,1.05.9,1.37.48.32,1.05.43,1.61.32.98-.19,1.7-1.06,1.71-2.06l.66-43c0-2.2,1.79-4,4-4s4,1.79,4,4l-.03,39.99c0,.39.17.75.47,1,.3.25.69.34,1.07.27.55-.11.96-.56,1.03-1.11l5.42-45.33c.13-1.18.71-2.24,1.63-2.99.93-.75,2.09-1.09,3.27-.96,2.44.26,4.21,2.46,3.95,4.9l-4.35,42.3c-.11,1.12.7,2.13,1.82,2.25.98.11,1.89-.5,2.18-1.44l11.3-37.1c.33-1.17,1.11-2.12,2.18-2.7,1.07-.57,2.3-.68,3.46-.31,2.27.73,3.55,3.27,2.86,5.67-.08.28-8.12,28.3-10.01,37.53-.99,4.87,1.41,15.34,3.06,18.63.25.49.62,1.08,1.32,1.3.59.19,1.21.06,1.89-.37,1.02-.64,3.19-2.16,5.7-3.92,5.1-3.57,12.8-8.98,14.4-9.35,2.85-.66,5.17.11,6.88,2.29.29.38.96,1.3,1.36,1.84-1.78,1.21-8.48,5.82-10.81,8.16-5.37,5.39-19.2,25.77-19.78,26.62-1.91,2.62-4.22,4.91-6.85,6.8l-3.78,2.71c-.12.09-.2.23-.21.39l-.52,13.05h.52s0,0,0,0c.27,0,.49-.21.5-.48l.49-12.29,3.58-2.57c2.72-1.96,5.1-4.32,7.09-7.04.14-.21,14.36-21.16,19.67-26.49,2.57-2.58,11-8.27,11.09-8.33.11-.08.19-.19.21-.33s0-.27-.09-.38Z"/>
    <g>
      <g>
        <path class="cls-2" d="m49.99,57.95c-8.35,7.5-17.6,15.46-25.16,23.06-4.55,4.57,2.46,11.21,7.67,6,7.27-7.27,16.54-14.62,23.9-21.84,4.92-4.82-1.97-11.21-6.41-7.22Z"/>
        <path class="cls-2" d="m32,80.45c-2.53-2.76-5.1-5.44-7.26-8.49-1.56-2.2-4.82-2.55-6.81-.92-2.21,1.81-2.04,4.71-.47,6.92,2.16,3.05,4.65,6,7.18,8.75,1.82,1.99,4.49,2.55,6.66.78,2-1.64,2.53-5.04.7-7.04Z"/>
      </g>
      <path class="cls-1" d="m28.47,89.05c-1.69,0-3.38-.91-4.79-2.67-.56-.69-1.14-1.39-1.71-2.09-1.85-2.24-3.76-4.55-5.35-6.99h0c-.69-1.06-.9-2.38-.59-3.71.33-1.42,1.24-2.67,2.42-3.36,2.37-1.39,5.46-.58,7.04,1.83.25.38.54.74.82,1.1l.14.18s0,0,0,0l.09.11s.06.07.08.1l1.76,2.26c.28.36.47.6.6.76,3.79-3.39,7.53-6.81,11.15-10.12l1.44-1.31c.86-.78,1.71-1.6,2.56-2.41,2.03-1.94,4.13-3.95,6.41-5.62.96-.7,2.2-.93,3.5-.66,1.5.31,2.88,1.27,3.59,2.48,1.11,1.9.84,4.15-.59,5.88,0,.15-.08.31-.21.4-.09.07-.4.31-.6.48-.36.32-.72.65-1.08.98l-4.18,3.81c-1.31,1.19-2.61,2.39-3.92,3.59-4.36,4-8.88,8.14-13.41,12.1-.18.15-.35.31-.54.48-.67.61-1.37,1.24-2.12,1.67-.82.47-1.68.71-2.53.71Zm-11.02-12.29c1.56,2.39,3.45,4.68,5.28,6.9.58.7,1.16,1.4,1.72,2.1.86,1.07,3.18,3.38,6.04,1.72.66-.38,1.32-.97,1.95-1.55.19-.17.37-.33.55-.49,4.53-3.95,9.04-8.09,13.39-12.08,1.31-1.2,2.61-2.4,3.92-3.59l4.18-3.81c.19-.17.37-.34.56-.51.03-.11.09-.21.19-.28l.02-.02c1.69-1.24,2.8-3.48,1.51-5.69-.57-.98-1.7-1.75-2.93-2.01-1.02-.21-1.98-.04-2.71.49-2.23,1.63-4.3,3.61-6.31,5.53-.86.82-1.71,1.64-2.58,2.43l-1.44,1.31c-3.74,3.42-7.61,6.95-11.46,10.39-.1.09-.3.2-.45.19-.25-.02-.27-.02-1.3-1.34l-1.58-2.03h0s-.07-.09-.07-.09c-.04-.05-.08-.1-.12-.15-.03-.04-.06-.07-.09-.11l-.21-.27c-.3-.38-.6-.76-.87-1.18-1.28-1.97-3.79-2.63-5.7-1.51-.95.56-1.68,1.58-1.95,2.73-.25,1.06-.09,2.1.45,2.93h0Z"/>
    </g>
  </g>
</svg>