<?xml version="1.0" encoding="UTF-8"?>
<svg id="Capa_2" data-name="Capa 2" xmlns="http://www.w3.org/2000/svg" viewBox="0 0 125.04 115.11">
  <defs>
    <style>
      .cls-1 {
        fill: #fff;
      }

      .cls-2 {
        fill: #3765ae;
      }
    </style>
  </defs>
  <g id="Capa_1-2" data-name="Capa 1">
    <path class="cls-2" d="m.96,73.34h30.54s-2.94,10.27-16.38,10.48c-9.44.15-14.16-10.48-14.16-10.48Z"/>
    <path class="cls-2" d="m93.69,73.48h30.54s-2.94,10.27-16.38,10.48c-9.44.15-14.16-10.48-14.16-10.48Z"/>
    <circle class="cls-2" cx="16.18" cy="15.9" r="5.02"/>
    <circle class="cls-2" cx="109" cy="15.82" r="5.02"/>
    <rect class="cls-2" x="52.9" y="13.14" width="19.03" height="4.57"/>
    <rect class="cls-2" x="47.58" y="104.76" width="29.07" height="4.57"/>
    <rect class="cls-2" x="38.88" y="109.63" width="46.48" height="4.57"/>
    <g>
      <path class="cls-1" d="m124.27,73.28c.11,0,.21,0,.32.02l-13.04-52.69c-.28.18-.59.33-.92.46l12.93,52.26c.23-.03.46-.05.7-.05Z"/>
      <path class="cls-1" d="m119.47,73.13c.26,0,.51.02.75.05.08-.02.14-.04.22-.06l-12.84-51.88c-.42-.09-.79-.24-1.13-.42l12.95,52.31s.04,0,.06,0Z"/>
      <path class="cls-1" d="m23.72,13.88l.87.17c4.5.87,9.13,2.59,14.16,5.24,1.23.65,2.47,1.39,3.67,2.1,2.83,1.68,5.75,3.42,8.95,4.3,2.57.71,4.69,1.08,7.04,1.22.03-.34.09-.68.19-1.01-2.32-.12-4.42-.47-6.96-1.17-3.07-.85-5.94-2.55-8.71-4.2-1.21-.72-2.46-1.46-3.71-2.12-5.11-2.7-9.83-4.45-14.43-5.34l-.86-.17c-1.06-.22-2.28-.46-3.52-.61.26.33.47.7.63,1.1.94.14,1.86.32,2.69.49Z"/>
      <path class="cls-1" d="m58.7,32.54c-2.34-.12-4.86-.47-7.51-1.08-3.91-.9-7.25-2.8-10.79-4.81-.51-.29-1.03-.59-1.55-.88-3.91-2.19-8.2-4.4-13.03-5.67-2.18-.57-4.01-.91-5.74-1.06-.31.36-.68.67-1.1.92.24.01.49.03.77.05,1.74.14,3.59.48,5.81,1.06,4.73,1.24,8.94,3.41,12.8,5.57.52.29,1.03.58,1.54.87,3.44,1.96,7,3.98,11.06,4.92,2.72.63,5.3.99,7.71,1.11-.02-.33,0-.67.03-1Z"/>
      <path class="cls-1" d="m1,72.91c.34,0,.66.03.96.09L14.82,21.02c-.34-.08-.66-.19-.95-.34L.95,72.91s.03,0,.05,0Z"/>
      <path class="cls-1" d="m5.35,73.13c.23,0,.45.02.66.04l10.73-43.34c-.31-.6-.49-1.27-.55-1.95l-11.2,45.27c.12,0,.24-.02.36-.02Z"/>
      <path class="cls-1" d="m31.39,72.99c.14,0,.26.01.39.02l-13.01-52.58c-.28.2-.58.36-.91.5l12.89,52.1c.2-.02.41-.04.63-.04Z"/>
      <path class="cls-1" d="m26.74,73.06c.35,0,.67.03.97.09L14.87,21.22c-.4-.07-.78-.18-1.11-.34l12.92,52.19s.05,0,.08,0Z"/>
      <path class="cls-1" d="m16.16,21.73c-3.19,0-5.78-2.59-5.78-5.78s2.59-5.78,5.78-5.78,5.78,2.59,5.78,5.78-2.59,5.78-5.78,5.78Zm0-10.56c-2.64,0-4.78,2.14-4.78,4.78s2.14,4.78,4.78,4.78,4.78-2.15,4.78-4.78-2.14-4.78-4.78-4.78Z"/>
      <path class="cls-1" d="m16.15,84.46c-7.12,0-13.6-4.48-16.12-11.15-.06-.15-.04-.33.06-.46.09-.14.25-.22.41-.22h31.31c.16,0,.32.08.41.22.09.14.11.31.06.46-2.53,6.67-9.01,11.15-16.12,11.15Zm-14.91-10.83c2.55,5.91,8.45,9.83,14.91,9.83s12.36-3.92,14.91-9.83H1.24Z"/>
      <path class="cls-1" d="m97.79,73.06c.34,0,.66.03.97.09l10.65-43.03s-.05-.09-.07-.14c-.21-.51-.39-1.02-.55-1.53l-11.04,44.62s.03,0,.04,0Z"/>
      <path class="cls-1" d="m94.24,73.06c.15,0,.28.01.42.02l12.85-51.91c-.34-.08-.66-.19-.95-.33l-12.93,52.25c.2-.02.4-.03.61-.03Z"/>
      <path class="cls-1" d="m108.88,84.46c-7.12,0-13.6-4.48-16.12-11.15-.06-.15-.04-.33.06-.46.09-.14.25-.22.41-.22h31.31c.16,0,.32.08.41.22.09.14.11.31.06.46-2.53,6.67-9.01,11.15-16.12,11.15Zm-14.91-10.83c2.55,5.91,8.45,9.83,14.91,9.83s12.36-3.92,14.91-9.83h-29.83Z"/>
      <path class="cls-1" d="m104.65,19.07c-1.64.17-3.37.49-5.41,1.03-4.83,1.27-9.12,3.47-13.03,5.67-.52.29-1.03.58-1.55.88-3.54,2.01-6.88,3.91-10.79,4.81-2.6.6-5.06.95-7.35,1.08-.03.34-.09.68-.18,1.01,2.42-.12,5.02-.48,7.76-1.11,4.05-.93,7.61-2.96,11.06-4.92.51-.29,1.03-.58,1.54-.87,3.86-2.16,8.07-4.33,12.8-5.57,2.22-.58,4.07-.92,5.81-1.06.07,0,.12,0,.19-.01-.33-.26-.61-.58-.85-.92Z"/>
      <path class="cls-1" d="m66.62,26.91c2.37-.13,4.5-.5,7.08-1.22,3.2-.89,6.12-2.62,8.95-4.3,1.2-.71,2.44-1.45,3.66-2.1,5.02-2.66,9.65-4.37,14.16-5.24l.87-.17c.98-.2,2.1-.42,3.23-.56.24-.4.53-.77.88-1.1-1.5.12-3.01.42-4.3.68l-.86.17c-4.6.89-9.32,2.64-14.43,5.34-1.25.66-2.5,1.4-3.71,2.12-2.77,1.65-5.64,3.35-8.71,4.2-2.52.7-4.6,1.04-6.9,1.17.06.33.09.67.09,1.01Z"/>
      <path class="cls-1" d="m108.91,21.73c-3.19,0-5.78-2.59-5.78-5.78s2.59-5.78,5.78-5.78,5.78,2.59,5.78,5.78-2.59,5.78-5.78,5.78Zm0-10.56c-2.64,0-4.78,2.14-4.78,4.78s2.14,4.78,4.78,4.78,4.78-2.15,4.78-4.78-2.14-4.78-4.78-4.78Z"/>
      <path class="cls-1" d="m67.14,104.81V18.09c-.33-.02-.66-.05-1-.08v86.63c.34.01.67.07,1,.16Z"/>
      <path class="cls-1" d="m58.17,104.78c.26,0,.51.03.76.08V17.79c-.34-.03-.68-.08-1-.16v87.17c.08,0,.16-.02.24-.02Z"/>
      <path class="cls-1" d="m85.51,115.11h-46.55c-.28,0-.5-.22-.5-.5v-5.09c0-.28.22-.5.5-.5h46.55c.28,0,.5.22.5.5v5.09c0,.28-.22.5-.5.5Zm-46.05-1h45.55v-4.09h-45.55v4.09Z"/>
      <path class="cls-1" d="m76.71,109.79h-28.95c-.28,0-.5-.22-.5-.5v-4.45c0-.28.22-.5.5-.5h28.95c.28,0,.5.22.5.5v4.45c0,.28-.22.5-.5.5Zm-28.45-1h27.95v-3.45h-27.95v3.45Z"/>
      <path class="cls-1" d="m71.92,18.23h-18.77c-.28,0-.5-.22-.5-.5v-4.45c0-.28.22-.5.5-.5h18.77c.28,0,.5.22.5.5v4.45c0,.28-.22.5-.5.5Zm-18.27-1h17.77v-3.45h-17.77v3.45Z"/>
      <path class="cls-1" d="m62.53,11.56c-3.19,0-5.78-2.59-5.78-5.78s2.59-5.78,5.78-5.78,5.78,2.59,5.78,5.78-2.59,5.78-5.78,5.78Zm0-10.56c-2.64,0-4.78,2.14-4.78,4.78s2.14,4.78,4.78,4.78,4.78-2.14,4.78-4.78-2.14-4.78-4.78-4.78Z"/>
    </g>
  </g>
</svg>