<?xml version="1.0" encoding="UTF-8"?>
<svg xmlns="http://www.w3.org/2000/svg" viewBox="0 0 149.82 149.53">
  <defs>
    <style>
      .cls-1 {
        fill: #fff;
        stroke: #6d9dc5;
        stroke-dasharray: 0 10;
        stroke-linecap: round;
        stroke-linejoin: round;
        stroke-width: 4px;
      }

      .cls-2 {
        fill: #119da4;
      }

      .cls-3 {
        fill: #11a37d;
      }

      .cls-4, .cls-5 {
        fill: #3765ae;
      }

      .cls-5 {
        mix-blend-mode: multiply;
        opacity: .18;
      }

      .cls-6 {
        isolation: isolate;
      }
    </style>
  </defs>
  <g class="cls-6">
    <g id="Capa_2" data-name="Capa 2">
      <g id="Capa_1-2" data-name="Capa 1">
        <g>
          <path class="cls-1" d="m22.46,147.53c-1.79,0-3.4-.04-4.91-.13l-.77-.03c-2.57-.1-8.67-.35-11.88-5.89-2.19-3.78-2.64-9.38-1.12-13.94.8-2.42,2.15-4.44,3.89-5.91.31-2.99,1.34-6.53,4.41-9.06-.08-3.94-.14-7.99.1-12.06.2-3.31,1.17-5.97,2.89-7.95-.02-5.41-.12-10.99-.21-16.03v-.46c-.08-4.18-.16-8.48-.2-12.76-.85-1.1-1.42-2.3-1.8-3.49-8.58-1.88-10.49-7.47-10.81-10.93-.75-8.12,6.44-12.35,9.52-14.16l.86-.52c14.31-8.85,27.04-16.16,38.92-22.35,1.37-.72,2.86-1.57,4.42-2.46,4.64-2.66,9.9-5.68,15.48-6.99,1.13-.27,2.29-.4,3.44-.4,4.53,0,8.01,2.05,10.55,3.54l1.13.66c2.56,1.45,5.13,2.88,7.7,4.32l.62.35c7.8,4.36,15.86,8.86,23.73,13.63,5.66,3.43,11.15,6.81,15.78,9.67.35.22,1.2.64,1.89.98,4.06,2,9.61,4.75,11.27,10.42.85,2.9.54,5.87-.85,8.37-1.52,2.73-4.13,4.66-7.56,5.62-.78.22-1.61.38-2.5.5-.44,1.11-1.07,2.21-1.99,3.24l.13,6.82c.13,7.05.27,14.91.48,22.74,1.3,1.74,2.35,4.19,2.52,7.59.21,4.08.16,8.13.11,12.06,3.27,2.71,4.19,6.4,4.43,9.38,1.71,1.46,2.99,3.34,3.73,5.55,1.72,5.12,1.18,10.02-1.51,13.82-2.71,3.83-7.2,5.97-12.64,6.05-5.99.08-12.5.12-19.93.12-6.76,0-13.51-.03-20.27-.06-5.54-.03-11.07-.05-16.6-.06h-.44c-4.18-.26-8.8-.38-14.13-.38-4.61,0-9.34.09-13.91.17h-.29c-3.66.07-7.45.14-11.19.17-1.77.01-3.54.07-5.42.13h-.19c-2.22.08-4.52.15-6.88.15Z"/>
          <path class="cls-3" d="m132.51,43.76c-10.2-5.14-20.17-10.71-29.89-16.79-4.98-3.12-9.89-6.36-14.73-9.71-3.94-2.72-7.78-5.46-12.71-5.22-4.95.24-9.34,3.01-13.59,5.39-5.12,2.87-10.23,5.73-15.35,8.6-10.46,5.86-20.91,11.72-31.37,17.57-3.7,2.07-1.36,8.11,2.25,6.86.49.57,1.21.94,2.17.94,37.2-.23,74.39-.45,111.59-.68,3.88-.02,5.33-5.11,1.64-6.97Z"/>
          <path class="cls-3" d="m130.16,119.03c-36.32,0-72.63,0-108.95,0-4.9,0-5.8,7.65-.86,7.65,36.32,0,72.63,0,108.95,0,4.9,0,5.8-7.65.86-7.65Z"/>
          <path class="cls-3" d="m132.94,129.08c-38.44.3-76.87.04-115.3-.77-5.95-.13-7.02,9.05-1.04,9.17,38.43.82,76.87,1.07,115.3.77,5.92-.05,7.01-9.22,1.04-9.17Z"/>
          <path class="cls-5" d="m86.8,30.16c-1.08-5.1-4.82-9.52-10.08-10.49-4.86-.9-9.97,1.35-12.02,5.97-.12.26-.22.53-.31.79-1.21,1.54-1.85,3.53-1.62,5.99.04.43.15.81.28,1.16.16,2.92,1.49,5.83,4.35,8.17,3.91,3.22,8.96,3.07,13.32.85,4.85-2.46,7.23-7.05,6.09-12.44Z"/>
          <path class="cls-3" d="m45.4,106.88c-.07-3.82-.47-8.34-4.68-9.71-1.8-.59-3.84-.16-5.68.03-1.68.18-3.38.27-5.02.69-.66.17-1.27.43-1.82.75-.43-.21-.92-.36-1.46-.42-2.26-.25-5.1,1.56-5.1,4.07,0,3.71-.71,8.33.24,11.92,1.14,4.33,5.56,4.41,9.25,4.52,3.42.1,8.71,1.01,11.57-1.34,2.83-2.31,2.75-7.22,2.69-10.52Z"/>
          <path class="cls-3" d="m87.16,107.57c-.07-3.89-.47-8.49-4.68-9.89-1.8-.6-3.84-.17-5.68.03-1.68.18-3.38.27-5.02.71-.66.18-1.27.44-1.82.76-.43-.21-.92-.36-1.46-.42-2.26-.26-5.1,1.59-5.1,4.15,0,3.78-.71,8.48.24,12.14,1.14,4.41,5.56,4.49,9.25,4.6,3.42.1,8.71,1.03,11.57-1.36,2.83-2.36,2.75-7.35,2.69-10.72Z"/>
          <path class="cls-3" d="m128.93,107.16c-.07-3.93-.47-8.57-4.68-9.98-1.8-.6-3.84-.17-5.68.03-1.68.18-3.38.27-5.02.71-.66.18-1.27.44-1.82.77-.43-.22-.92-.37-1.46-.43-2.26-.26-5.1,1.61-5.1,4.19,0,3.82-.71,8.56.24,12.26,1.14,4.45,5.56,4.53,9.25,4.64,3.42.1,8.71,1.04,11.57-1.37,2.83-2.38,2.75-7.42,2.69-10.82Z"/>
          <path class="cls-5" d="m45.4,106.88c-.07-3.82-.47-8.34-4.68-9.71-1.8-.59-3.84-.16-5.68.03-1.68.18-3.38.27-5.02.69-.66.17-1.27.43-1.82.75-.43-.21-.92-.36-1.46-.42-2.26-.25-5.1,1.56-5.1,4.07,0,3.71-.71,8.33.24,11.92,1.14,4.33,5.56,4.41,9.25,4.52,3.42.1,8.71,1.01,11.57-1.34,2.83-2.31,2.75-7.22,2.69-10.52Z"/>
          <path class="cls-5" d="m87.16,107.57c-.07-3.89-.47-8.49-4.68-9.89-1.8-.6-3.84-.17-5.68.03-1.68.18-3.38.27-5.02.71-.66.18-1.27.44-1.82.76-.43-.21-.92-.36-1.46-.42-2.26-.26-5.1,1.59-5.1,4.15,0,3.78-.71,8.48.24,12.14,1.14,4.41,5.56,4.49,9.25,4.6,3.42.1,8.71,1.03,11.57-1.36,2.83-2.36,2.75-7.35,2.69-10.72Z"/>
          <path class="cls-5" d="m128.93,107.16c-.07-3.93-.47-8.57-4.68-9.98-1.8-.6-3.84-.17-5.68.03-1.68.18-3.38.27-5.02.71-.66.18-1.27.44-1.82.77-.43-.22-.92-.37-1.46-.43-2.26-.26-5.1,1.61-5.1,4.19,0,3.82-.71,8.56.24,12.26,1.14,4.45,5.56,4.53,9.25,4.64,3.42.1,8.71,1.04,11.57-1.37,2.83-2.38,2.75-7.42,2.69-10.82Z"/>
          <path class="cls-3" d="m43.95,53.02c-.43-2.7-2.78-3.95-5.28-3.84-4.69.2-9.38.41-14.07.61-2.49.11-4.19,3.02-3.84,5.28.43,2.7,2.78,3.95,5.28,3.84,4.69-.2,9.38-.41,14.07-.61,2.49-.11,4.19-3.02,3.84-5.28Z"/>
          <path class="cls-3" d="m82.13,48.34c-5.11-.19-10.22-.12-15.32.2-2.49.15-4.2,2.99-3.84,5.28.42,2.66,2.78,3.99,5.28,3.84,4.29-.26,8.56-.3,12.85-.14,5.91.22,6.97-8.95,1.03-9.17Z"/>
          <path class="cls-3" d="m123.42,49.35c-4.8-.5-9.58-.56-14.4-.3-2.49.14-4.2,3-3.84,5.28.42,2.67,2.78,3.97,5.28,3.84,3.99-.22,7.95-.06,11.92.36,5.91.62,6.94-8.55,1.03-9.17Z"/>
          <path class="cls-5" d="m43.5,53.02c-.43-2.7-2.78-3.95-5.28-3.84-4.69.2-9.38.41-14.07.61-2.49.11-4.19,3.02-3.84,5.28.43,2.7,2.78,3.95,5.28,3.84l14.07-.61c2.49-.11,4.19-3.02,3.84-5.28Z"/>
          <path class="cls-5" d="m81.67,48.34c-5.11-.19-10.22-.12-15.32.2-2.49.15-4.2,2.99-3.84,5.28.42,2.66,2.78,3.99,5.28,3.84,4.29-.26,8.56-.3,12.85-.14,5.91.22,6.97-8.95,1.03-9.17Z"/>
          <path class="cls-5" d="m122.97,49.35c-4.8-.5-9.58-.56-14.4-.3-2.49.14-4.2,3-3.84,5.28.42,2.67,2.78,3.97,5.28,3.84,3.99-.22,7.95-.06,11.92.36,5.91.62,6.94-8.55,1.03-9.17Z"/>
          <path class="cls-2" d="m42.63,80.31c-.09-5.56.06-11.68-1.11-17.14-1.33-6.21-6.98-5.36-12.05-5.31-2.46.02-4.08,1.66-4.7,3.54-3.41,2.79-2.25,8.8-2.09,12.61.28,6.93.56,13.87.84,20.8.08,1.97,2.2,3.68,4.04,3.87,4.1.41,10.8.74,13.6-3.03,1.41-1.9,1.31-4.41,1.39-6.64.1-2.9.12-5.8.07-8.7Z"/>
          <path class="cls-2" d="m84.4,80.31c-.09-5.56.06-11.68-1.11-17.14-1.33-6.21-6.98-5.36-12.05-5.31-2.46.02-4.08,1.66-4.7,3.54-3.41,2.79-2.25,8.8-2.09,12.61.28,6.93.56,13.87.84,20.8.08,1.97,2.2,3.68,4.04,3.87,4.1.41,10.8.74,13.6-3.03,1.41-1.9,1.31-4.41,1.39-6.64.1-2.9.12-5.8.07-8.7Z"/>
          <path class="cls-2" d="m126.61,80.31c-.09-5.56.06-11.68-1.11-17.14-1.33-6.21-6.98-5.36-12.05-5.31-2.46.02-4.08,1.66-4.7,3.54-3.41,2.79-2.25,8.8-2.09,12.61.28,6.93.56,13.87.84,20.8.08,1.97,2.2,3.68,4.04,3.87,4.1.41,10.8.74,13.6-3.03,1.41-1.9,1.31-4.41,1.39-6.64.1-2.9.12-5.8.07-8.7Z"/>
          <path class="cls-5" d="m42.95,80.31c-.09-5.56.06-11.68-1.11-17.14-1.33-6.21-6.98-5.36-12.05-5.31-2.46.02-4.08,1.66-4.7,3.54-3.41,2.79-2.25,8.8-2.09,12.61.28,6.93.56,13.87.84,20.8.08,1.97,2.2,3.68,4.04,3.87,4.1.41,10.8.74,13.6-3.03,1.41-1.9,1.31-4.41,1.39-6.64.1-2.9.12-5.8.07-8.7Z"/>
          <path class="cls-5" d="m84.71,80.31c-.09-5.56.06-11.68-1.11-17.14-1.33-6.21-6.98-5.36-12.05-5.31-2.46.02-4.08,1.66-4.7,3.54-3.41,2.79-2.25,8.8-2.09,12.61.28,6.93.56,13.87.84,20.8.08,1.97,2.2,3.68,4.04,3.87,4.1.41,10.8.74,13.6-3.03,1.41-1.9,1.31-4.41,1.39-6.64.1-2.9.12-5.8.07-8.7Z"/>
          <path class="cls-5" d="m126.93,80.31c-.09-5.56.06-11.68-1.11-17.14-1.33-6.21-6.98-5.36-12.05-5.31-2.46.02-4.08,1.66-4.7,3.54-3.41,2.79-2.25,8.8-2.09,12.61.28,6.93.56,13.87.84,20.8.08,1.97,2.2,3.68,4.04,3.87,4.1.41,10.8.74,13.6-3.03,1.41-1.9,1.31-4.41,1.39-6.64.1-2.9.12-5.8.07-8.7Z"/>
          <g>
            <path class="cls-4" d="m140.03,47.7c-.72-2.45-4.38-4.26-7.33-5.72-.98-.48-1.87-.92-2.52-1.33-5.23-3.23-10.47-6.45-15.72-9.64-7.74-4.69-15.75-9.17-23.5-13.5-2.79-1.56-5.59-3.12-8.38-4.7l-1.22-.71c-2.17-1.28-4.22-2.49-6.67-2.49-.56,0-1.13.07-1.7.2-4.48,1.05-9.02,3.66-13.42,6.18-1.61.92-3.18,1.83-4.69,2.61-11.72,6.11-24.31,13.34-38.48,22.1l-.96.57c-2.57,1.51-6.09,3.58-5.79,6.87.39,4.14,5.69,4.46,7.98,4.6l2.2-.03-.02.47c-.12,2.53-.26,5.38,2.46,6.54.02,5.55.12,11.09.22,16.63.12,6.65.25,13.53.21,20.11-.11.03-.22.06-.32.09-2.2.82-2.46,2.4-2.58,4.37-.25,4.16-.16,8.43-.07,12.57.03,1.24.05,2.47.07,3.71,0,0-.37.07-.5.11-4.38,1.18-4.24,4.67-4.09,8.36l.03.65c-.7.16-1.27.35-1.76.55-1.1.47-1.96,1.52-2.46,3.04-.82,2.44-.6,5.83.48,7.7,1.11,1.91,3.61,2.01,5.62,2.09l.82.04c1.5.09,3,.12,4.52.12,2.21,0,4.43-.07,6.64-.14,1.94-.06,3.88-.12,5.8-.13,3.75-.03,7.52-.1,11.29-.17,4.71-.09,9.43-.18,14.14-.18,5.48,0,10.24.13,14.58.38,5.54,0,11.08.03,16.63.06,6.75.03,13.49.06,20.24.06s13.23-.03,19.83-.12c2.94-.04,5.25-1.04,6.52-2.83,1.26-1.78,1.43-4.19.5-6.97-.59-1.76-1.92-2.9-4.07-3.47,0-.46,0-.94,0-1.42.04-2.78.09-5.66-2.49-7.11-.53-.3-1.19-.53-2.06-.73,0-1.49.03-2.97.05-4.47.05-3.89.11-7.9-.09-11.84-.12-2.36-.92-3.86-2.44-4.57-.24-8.67-.41-17.34-.57-26.01l-.21-10.86c.86-.28,1.5-.64,1.93-1.1,1.15-1.21,1.1-3.17,1.05-4.9,0-.28-.02-.56-.02-.82.93.04,1.89.07,2.83.07,1.85,0,3.24-.14,4.36-.46.99-.27,2.3-.84,2.93-1.97.4-.72.47-1.57.19-2.52Zm-7.28,1.6c-.83.33-1.95.49-3.41.49-1.22,0-2.5-.11-3.72-.21-1.09-.09-2.11-.18-2.99-.18-5.97-.02-11.94-.15-17.91-.28-6.06-.13-12.33-.27-18.49-.28h-2c-10.49,0-21.15.16-31.47.32l-35.11.53-.44-.03c-1.42-.08-3.02-.17-3.36-.95-.32-.74.4-2.14,2.12-4.16.39-.46,1.27-.89,2.03-1.27.36-.18.7-.35.97-.51l6.83-4.08c4.8-2.87,9.61-5.73,14.46-8.52,9.18-5.28,18.25-10.1,26.99-14.32.61-.29,1.25-.65,1.9-1.02,1.9-1.06,3.86-2.16,5.82-2.16.31,0,.62.03.93.09,1.39.28,2.83,1.21,4.22,2.1.59.38,1.16.75,1.7,1.05,1.88,1.05,3.78,2.04,5.69,3.03,2.35,1.22,4.78,2.49,7.11,3.84,9.47,5.5,18.82,11.19,26.7,16.03,3.46,2.12,6.92,4.26,10.37,6.39l.44.27c1.31.8,2.66,1.63,2.59,2.34-.04.47-.72.98-1.98,1.47Zm-1.29,76.68c-.28,0-.57-.01-.85-.01-1.5,0-3.01.12-4.46.24-1.23.1-2.38.19-3.35.19h-.46c-3.59-.14-7.48-.2-11.87-.2-4.72,0-9.44.07-14.16.14-3.93.06-7.85.12-11.77.14h-1.89c-5.52,0-11.04-.1-16.55-.21-5.52-.11-11.03-.21-16.55-.21h-2.68c-2.66.02-5.32.04-7.98.04-3.12,0-6.23-.02-9.36-.08-.82-.02-1.74-.06-2.73-.1-1.57-.07-3.29-.14-5.01-.14-1.3,0-2.43.04-3.46.13-.04-3.41.58-4.97,4.12-5.69,1.02-.21,2.21-.3,3.84-.3.7,0,1.41.02,2.11.03.68.02,1.35.03,2,.03.3,0,.6,0,.89-.01,2.19-.07,4.38-.09,6.57-.09,3.8,0,7.6.07,11.39.15l6.15.12c10.6.21,21.56.43,32.35.5h1.54c4.07,0,8.14-.09,12.2-.19,3.47-.08,6.95-.17,10.43-.19h.67c1.43,0,2.87.02,4.3.05,1.44.03,2.87.05,4.31.05h.31c.71,0,1.57-.08,2.47-.17,1-.09,2.05-.19,3.02-.19.85,0,1.52.08,2.05.24,2.38.72,2.38,3.11,2.39,5.43v.31Zm-39.4,10.73c-5.72-.06-11.44-.13-17.14-.14-3.06-.18-6.39-.27-10.19-.27-3.48,0-6.95.07-10.43.14-3.48.07-6.96.14-10.44.14-1.3,0-2.6-.01-3.91-.03-2.3-.04-4.61-.06-6.92-.06-3.4,0-6.81.05-10.2.16-.59.02-1.18.06-1.76.09-.78.05-1.53.09-2.24.09-2.57,0-4.37-.63-4.78-3.78-.33-2.5-.37-2.82,2.31-3.41,2.08-.46,4.41-.49,6.66-.53l1.63-.03c1.08-.03,2.16-.04,3.24-.04,2.12,0,4.24.05,6.36.09,2.12.05,4.25.09,6.37.09.62,0,1.23,0,1.85-.01,1.3-.02,2.6-.03,3.9-.03,4.77,0,9.53.11,14.3.22,4.77.11,9.54.22,14.31.22,1.26,0,2.52,0,3.78-.03,11.07-.15,22.86-.23,37.11-.25,0,0,10.95.04,13,.04h2.56c1.52,0,3.04.12,3.85,1,.53.59.73,1.48.61,2.74-.29,2.97-2.09,3.25-5.02,3.37-6.11.23-12.59.34-20.37.34-6.15,0-12.29-.07-18.44-.14ZM22.82,103.7c-.11-1.7-.22-3.47,1.29-4.26.32-.17.87-.25,1.68-.25.47,0,.95.03,1.39.05.35.02.68.04,1.11.04h.14c1.78-.07,3.57-.14,5.35-.18.59-.01,1.44-.12,2.38-.24,1.24-.16,2.64-.33,3.81-.33.83,0,1.45.09,1.86.27,1.6.7,1.45,3.05,1.33,4.94-.03.47-.06.9-.05,1.28.02,2.93,0,5.85,0,8.78v3.06s-3.2-.04-3.2-.04c-1.61-.01-3.36-.09-5.19-.17-2.14-.09-4.37-.19-6.56-.19-2.01,0-3.73.08-5.26.25-.04-3.76-.03-7.53-.03-11.29v-.48c0-.39-.02-.81-.05-1.24Zm23.1-50.3c0-.35-.02-.69-.02-1.01,5.29-.06,10.58-.11,15.87-.15,0,.32-.03.64-.04.98-.13,2.56-.27,5.45,2.46,6.56.02,5.54.12,11.08.22,16.63.12,6.65.25,13.53.21,20.1-.11.03-.22.06-.32.09-2.2.82-2.46,2.4-2.58,4.37-.25,4.16-.16,8.45-.07,12.59.03,1.2.05,2.4.07,3.6-5.18-.1-10.35-.19-15.53-.26,0-1.4.03-2.81.05-4.22.05-3.88.11-7.9-.09-11.83-.12-2.36-.92-3.86-2.44-4.57-.24-8.69-.41-17.38-.57-26.07l-.21-10.8c.86-.28,1.5-.64,1.93-1.1,1.15-1.21,1.1-3.17,1.05-4.9Zm41.91,0c-.01-.43-.02-.85-.01-1.24,5.11.01,10.22.07,15.34.12h.53c0,.31-.02.62-.04.93-.12,2.53-.26,5.38,2.46,6.54.02,5.55.12,11.09.22,16.63.12,6.65.25,13.53.22,20.11-.11.03-.23.06-.33.1-2.2.82-2.46,2.4-2.58,4.37-.25,4.16-.16,8.45-.07,12.59.03,1.24.05,2.47.09,3.8l-2.11.05c-4.06.09-8.11.18-12.17.18h-1.27c0-1.65.03-3.29.05-4.94.06-3.87.11-7.87-.09-11.79-.12-2.36-.92-3.86-2.44-4.57-.24-8.62-.4-17.25-.56-25.88l-.21-10.99c.86-.28,1.5-.64,1.94-1.1,1.15-1.21,1.1-3.17,1.05-4.91Zm-23.1,50.31c-.11-1.7-.22-3.47,1.29-4.26.32-.17.86-.25,1.67-.25.46,0,.95.03,1.39.05.35.02.68.04,1.11.04h.14c1.78-.07,3.56-.14,5.35-.18.59-.01,1.44-.12,2.38-.24,1.24-.16,2.64-.33,3.81-.33.83,0,1.45.09,1.86.27,1.6.7,1.45,3.05,1.33,4.94-.03.47-.06.9-.05,1.28.02,3.05,0,6.11,0,9.16v3.36c-6.74-.06-13.48-.19-20.22-.32-.05-3.6-.04-7.2-.03-10.8v-1.47c0-.39-.02-.81-.05-1.24Zm17.78-7.98c-.85,0-1.76.07-2.69.13-.88.06-1.77.13-2.67.14h-.39c-.91,0-1.92-.04-2.98-.08-1.17-.05-2.39-.1-3.59-.1-.84,0-1.67.03-2.47.09,0-6.52-.11-13.15-.23-19.55-.1-5.31-.19-10.63-.22-15.94.71.06,1.44.09,2.2.09,1.68,0,3.47-.13,5.04-.24,1.06-.08,2.05-.15,2.92-.18l1.15-.02c.95-.01,2.07-.02,3.18-.11l.19,10.1c.16,8.56.32,17.12.56,25.67h-.01Zm1.08-39.33c-1.01.61-2.9.68-4.23.68-.67,0-1.33-.02-1.94-.04-.52-.02-.99-.03-1.39-.03l-1.92.02c-1.14.01-2.28.03-3.42.03-.61,0-1.23,0-1.85-.02-1.77-.03-2.76-.28-3.3-.84-.66-.68-.71-1.94-.69-3.99,5.26-.04,10.53-.05,15.79-.05h4.1c0,.22,0,.44,0,.67,0,1.41.01,2.87-1.14,3.56Zm-58.22,4.02c.71.06,1.44.09,2.2.09,1.68,0,3.47-.13,5.04-.24,1.06-.08,2.05-.15,2.92-.18l1.15-.02c.95-.01,2.07-.02,3.18-.11l.2,10.16c.16,8.54.32,17.07.56,25.61h-.01c-.85,0-1.76.07-2.69.13-.88.06-1.77.13-2.67.14h-.39c-.91,0-1.92-.04-2.98-.08-1.17-.05-2.39-.1-3.59-.1-.84,0-1.67.03-2.47.09,0-6.53-.11-13.17-.23-19.59-.1-5.3-.19-10.6-.22-15.91Zm83.82,0c.71.06,1.44.09,2.2.09,1.68,0,3.47-.13,5.04-.24,1.06-.08,2.05-.15,2.92-.18l1.15-.02c.95-.01,2.07-.02,3.18-.11l.2,10.16c.16,8.54.32,17.08.56,25.61h-.01c-.85,0-1.76.07-2.69.13-.88.06-1.77.13-2.67.14h-.39c-.91,0-1.92-.04-2.98-.08-1.17-.05-2.39-.1-3.59-.1-.84,0-1.67.02-2.47.09,0-6.53-.11-13.17-.23-19.59-.1-5.3-.19-10.6-.22-15.91Zm-66.37-7.99v.41c0,1.41.01,2.87-1.14,3.57-1.01.61-2.9.68-4.23.68-.67,0-1.33-.02-1.94-.04-.52-.02-.99-.03-1.39-.03l-1.92.02c-1.14.01-2.28.03-3.42.03-.62,0-1.23,0-1.85-.02-3.76-.06-4.01-1.1-3.98-4.34,6.63-.1,13.25-.19,19.87-.27Zm84.17,51.32c-.03.47-.06.9-.05,1.28.02,2.93,0,5.85,0,8.77v3c-.21,0-.41,0-.61,0-1.6,0-3.25.13-4.84.26-1.41.11-2.75.22-3.9.22h-.31c-1.28-.03-2.56-.04-3.85-.04-2.24,0-4.47.03-6.7.07-.05-3.67-.04-7.35-.03-11.02v-1.33c0-.39-.02-.81-.05-1.24-.11-1.7-.22-3.47,1.29-4.26.32-.17.86-.25,1.67-.25.46,0,.95.03,1.39.05.35.02.68.04,1.11.04h.14c1.78-.07,3.56-.14,5.35-.18.59-.01,1.44-.12,2.38-.24,1.24-.16,2.64-.33,3.81-.33.83,0,1.45.09,1.86.27,1.6.7,1.45,3.05,1.33,4.94Zm-.36-50.92c0,1.41.01,2.87-1.14,3.57-1.01.61-2.9.68-4.23.68-.67,0-1.33-.02-1.94-.04-.52-.02-.99-.03-1.4-.03l-1.92.02c-1.14.01-2.28.03-3.42.03-.62,0-1.23,0-1.85-.02-1.99-.03-2.99-.34-3.48-1.07-.48-.72-.52-1.92-.49-3.64l3.07.03c1.71.01,3.41.03,5.12.06,3.03.05,6.06.09,9.08.09h2.6s0,.33,0,.33Z"/>
            <path class="cls-4" d="m80.46,19.58c-1.82-.75-3.88-1.15-5.98-1.15-5.43,0-11.74,2.78-13.6,9-2.31,7.73,1.79,15.14,9.75,17.61,1.53.34,3.08.51,4.61.51,6.7,0,11.73-3.24,13.44-8.68,2.2-7-1.33-14.43-8.22-17.29Zm-9.01,22.49c-5.53-1.72-8.49-6.29-7.91-12.23.55-5.7,6.04-8.29,10.9-8.29,2.26,0,4.46.54,6.19,1.51,4.61,2.59,6.75,8.04,5.08,12.96-1.39,4.11-5.18,6.47-10.39,6.47-1.28,0-2.6-.15-3.88-.43Z"/>
            <path class="cls-4" d="m36.27,34.91c-.27,0-.53.08-.79.24-4.32,2.66-8.62,5.45-12.8,8.28-.59.4-.83,1.08-.62,1.78.21.67.78,1.13,1.39,1.13.28,0,.55-.09.81-.27,4.19-2.85,8.49-5.63,12.78-8.27.6-.37.86-1.03.67-1.71-.2-.7-.79-1.18-1.44-1.18Z"/>
            <path class="cls-4" d="m41.02,31.78c-.46,0-.85.17-1.13.49-.24.28-.37.65-.37,1.05,0,.77.51,1.54,1.5,1.54.46,0,.85-.17,1.13-.49.24-.28.37-.65.37-1.05,0-.77-.51-1.54-1.5-1.54Z"/>
          </g>
        </g>
      </g>
    </g>
  </g>
</svg>