<?xml version="1.0" encoding="UTF-8"?>
<svg xmlns="http://www.w3.org/2000/svg" xmlns:xlink="http://www.w3.org/1999/xlink" viewBox="0 0 112.7 113.11">
  <defs>
    <style>
      .cls-1 {
        fill: none;
      }

      .cls-2 {
        fill: url(#radial-gradient-3);
      }

      .cls-2, .cls-3, .cls-4, .cls-5, .cls-6, .cls-7, .cls-8 {
        mix-blend-mode: multiply;
      }

      .cls-9 {
        mask: url(#mask-13);
      }

      .cls-10 {
        mask: url(#mask-12);
      }

      .cls-11 {
        mask: url(#mask-11);
      }

      .cls-12 {
        mask: url(#mask-10);
      }

      .cls-13 {
        fill: url(#linear-gradient);
      }

      .cls-14 {
        filter: url(#luminosity-noclip-9);
      }

      .cls-15 {
        filter: url(#luminosity-noclip-7);
      }

      .cls-16 {
        filter: url(#luminosity-noclip-3);
      }

      .cls-17 {
        filter: url(#luminosity-noclip-5);
      }

      .cls-18 {
        clip-path: url(#clippath);
      }

      .cls-19 {
        mask: url(#mask);
      }

      .cls-20 {
        filter: url(#luminosity-noclip);
      }

      .cls-21 {
        fill: #010101;
      }

      .cls-22 {
        fill: #687a97;
      }

      .cls-23 {
        fill: #e7edf9;
      }

      .cls-24, .cls-25 {
        fill: #fff;
      }

      .cls-26 {
        fill: #b3dee5;
      }

      .cls-27 {
        fill: #1d1d1b;
      }

      .cls-28 {
        filter: url(#luminosity-noclip-13);
      }

      .cls-29 {
        filter: url(#luminosity-noclip-11);
      }

      .cls-3 {
        fill: url(#linear-gradient-7);
      }

      .cls-4 {
        fill: url(#linear-gradient-5);
      }

      .cls-5 {
        fill: url(#linear-gradient-9);
      }

      .cls-6 {
        fill: url(#linear-gradient-2);
      }

      .cls-30 {
        fill: url(#radial-gradient-4);
      }

      .cls-31 {
        fill: url(#radial-gradient-2);
      }

      .cls-32 {
        fill: url(#linear-gradient-4);
        mix-blend-mode: color-burn;
      }

      .cls-25 {
        opacity: .2;
      }

      .cls-33 {
        fill: url(#linear-gradient-8);
      }

      .cls-34 {
        fill: url(#linear-gradient-3);
      }

      .cls-35 {
        fill: url(#linear-gradient-6);
      }

      .cls-36 {
        opacity: .13;
      }

      .cls-7 {
        fill: url(#radial-gradient);
      }

      .cls-37 {
        opacity: .26;
      }

      .cls-38 {
        opacity: .9;
      }

      .cls-39 {
        opacity: .76;
      }

      .cls-40 {
        opacity: .72;
      }

      .cls-41 {
        fill: url(#linear-gradient-11);
      }

      .cls-42 {
        isolation: isolate;
      }

      .cls-8 {
        fill: url(#linear-gradient-10);
      }

      .cls-43 {
        mask: url(#mask-3);
      }

      .cls-44 {
        mask: url(#mask-2);
      }

      .cls-45 {
        mask: url(#mask-5);
      }

      .cls-46 {
        mask: url(#mask-4);
      }

      .cls-47 {
        mask: url(#mask-1);
      }

      .cls-48 {
        mask: url(#mask-7);
      }

      .cls-49 {
        mask: url(#mask-6);
      }

      .cls-50 {
        mask: url(#mask-8);
      }

      .cls-51 {
        mask: url(#mask-9);
      }

      .cls-52 {
        mix-blend-mode: soft-light;
        opacity: .3;
      }
    </style>
    <linearGradient id="linear-gradient" x1="56.49" y1="113.11" x2="56.49" y2=".67" gradientUnits="userSpaceOnUse">
      <stop offset="0" stop-color="#c1c4cb"/>
      <stop offset=".06" stop-color="#c9cdd5"/>
      <stop offset=".2" stop-color="#d8dce5"/>
      <stop offset=".35" stop-color="#e1e6ef"/>
      <stop offset=".53" stop-color="#e4e9f3"/>
      <stop offset="1" stop-color="#f4f4f7"/>
    </linearGradient>
    <filter id="luminosity-noclip" x="1.51" y="2.18" width="109.76" height="109.76" color-interpolation-filters="sRGB" filterUnits="userSpaceOnUse">
      <feFlood flood-color="#fff" result="bg"/>
      <feBlend in="SourceGraphic" in2="bg"/>
    </filter>
    <filter id="luminosity-noclip-2" x="1.51" y="-8500.51" width="109.76" height="32766" color-interpolation-filters="sRGB" filterUnits="userSpaceOnUse">
      <feFlood flood-color="#fff" result="bg"/>
      <feBlend in="SourceGraphic" in2="bg"/>
    </filter>
    <mask id="mask-1" x="1.51" y="-8500.51" width="109.76" height="32766" maskUnits="userSpaceOnUse"/>
    <radialGradient id="radial-gradient" cx="56.39" cy="57.05" fx="56.39" fy="57.05" r="54.88" gradientUnits="userSpaceOnUse">
      <stop offset=".97" stop-color="#000"/>
      <stop offset=".99" stop-color="#b3b3b3"/>
      <stop offset="1" stop-color="#000"/>
    </radialGradient>
    <mask id="mask" x="1.51" y="2.18" width="109.76" height="109.76" maskUnits="userSpaceOnUse">
      <g class="cls-20">
        <g class="cls-47">
          <path class="cls-7" d="m56.39,2.18C26.08,2.18,1.51,26.74,1.51,57.05s24.57,54.88,54.88,54.88,54.88-24.57,54.88-54.88S86.69,2.18,56.39,2.18Zm.2,108.18c-29.44,0-53.31-23.87-53.31-53.3S27.15,3.75,56.59,3.75s53.31,23.86,53.31,53.3-23.87,53.3-53.31,53.3Z"/>
        </g>
      </g>
    </mask>
    <radialGradient id="radial-gradient-2" cx="56.39" cy="57.05" fx="56.39" fy="57.05" r="54.88" gradientUnits="userSpaceOnUse">
      <stop offset=".97" stop-color="#969a9f"/>
      <stop offset=".99" stop-color="#878b90"/>
      <stop offset="1" stop-color="#969a9f"/>
    </radialGradient>
    <filter id="luminosity-noclip-3" x=".27" y=".27" width="112.44" height="112.44" color-interpolation-filters="sRGB" filterUnits="userSpaceOnUse">
      <feFlood flood-color="#fff" result="bg"/>
      <feBlend in="SourceGraphic" in2="bg"/>
    </filter>
    <filter id="luminosity-noclip-4" x=".27" y="-8500.51" width="112.44" height="32766" color-interpolation-filters="sRGB" filterUnits="userSpaceOnUse">
      <feFlood flood-color="#fff" result="bg"/>
      <feBlend in="SourceGraphic" in2="bg"/>
    </filter>
    <mask id="mask-3" x=".27" y="-8500.51" width="112.44" height="32766" maskUnits="userSpaceOnUse"/>
    <radialGradient id="radial-gradient-3" cx="56.49" cy="56.49" fx="56.49" fy="56.49" r="56.22" gradientUnits="userSpaceOnUse">
      <stop offset=".91" stop-color="#000"/>
      <stop offset="1" stop-color="#b3b3b3"/>
    </radialGradient>
    <mask id="mask-2" x=".27" y=".27" width="112.44" height="112.44" maskUnits="userSpaceOnUse">
      <g class="cls-16">
        <g class="cls-43">
          <path class="cls-2" d="m56.49.27C25.44.27.27,25.44.27,56.49s25.17,56.22,56.22,56.22,56.22-25.17,56.22-56.22S87.54.27,56.49.27ZM4.68,56.49C4.68,27.77,27.97,4.49,56.69,4.49s52,23.28,52,52-23.29,52-52,52S4.68,85.21,4.68,56.49Z"/>
        </g>
      </g>
    </mask>
    <radialGradient id="radial-gradient-4" cx="56.49" cy="56.49" fx="56.49" fy="56.49" r="56.22" gradientUnits="userSpaceOnUse">
      <stop offset=".91" stop-color="#a8abb0"/>
      <stop offset="1" stop-color="#a8abb0"/>
    </radialGradient>
    <filter id="luminosity-noclip-5" x="0" y=".67" width="112.44" height="112.44" color-interpolation-filters="sRGB" filterUnits="userSpaceOnUse">
      <feFlood flood-color="#fff" result="bg"/>
      <feBlend in="SourceGraphic" in2="bg"/>
    </filter>
    <filter id="luminosity-noclip-6" x="0" y="-8500.51" width="112.44" height="32766" color-interpolation-filters="sRGB" filterUnits="userSpaceOnUse">
      <feFlood flood-color="#fff" result="bg"/>
      <feBlend in="SourceGraphic" in2="bg"/>
    </filter>
    <mask id="mask-5" x="0" y="-8500.51" width="112.44" height="32766" maskUnits="userSpaceOnUse"/>
    <linearGradient id="linear-gradient-2" x1="56.22" y1="113.11" x2="56.22" y2=".67" gradientUnits="userSpaceOnUse">
      <stop offset="0" stop-color="#000"/>
      <stop offset=".03" stop-color="#000"/>
      <stop offset=".28" stop-color="#000"/>
      <stop offset=".28" stop-color="#000"/>
      <stop offset=".35" stop-color="#3b3b3b"/>
      <stop offset=".43" stop-color="#6f6f6f"/>
      <stop offset=".51" stop-color="#9b9b9b"/>
      <stop offset=".59" stop-color="#bfbfbf"/>
      <stop offset=".67" stop-color="#dbdbdb"/>
      <stop offset=".75" stop-color="#efefef"/>
      <stop offset=".83" stop-color="#fbfbfb"/>
      <stop offset=".91" stop-color="#fff"/>
    </linearGradient>
    <mask id="mask-4" x="0" y=".67" width="112.44" height="112.44" maskUnits="userSpaceOnUse">
      <g class="cls-17">
        <g class="cls-45">
          <path class="cls-6" d="m112.44,56.89c0,31.05-25.17,56.22-56.22,56.22S0,87.94,0,56.89,25.17.67,56.22.67s56.22,25.17,56.22,56.22Z"/>
        </g>
      </g>
    </mask>
    <linearGradient id="linear-gradient-3" x1="56.22" y1="113.11" x2="56.22" y2=".67" gradientUnits="userSpaceOnUse">
      <stop offset="0" stop-color="#c1c4cb"/>
      <stop offset=".03" stop-color="#c9cdd5"/>
      <stop offset=".1" stop-color="#d8dce5"/>
      <stop offset=".18" stop-color="#e1e6ef"/>
      <stop offset=".28" stop-color="#e4e9f3"/>
      <stop offset=".28" stop-color="#e4e9f3"/>
      <stop offset=".6" stop-color="#f0f1f6"/>
      <stop offset=".91" stop-color="#f4f4f7"/>
    </linearGradient>
    <linearGradient id="linear-gradient-4" x1="56.49" y1="112.44" x2="56.49" y2="0" gradientUnits="userSpaceOnUse">
      <stop offset="0" stop-color="#a4a9b2"/>
      <stop offset=".15" stop-color="#b8bcc3"/>
      <stop offset=".42" stop-color="#d8dadf"/>
      <stop offset=".64" stop-color="#ecedf0"/>
      <stop offset=".8" stop-color="#f4f4f7"/>
    </linearGradient>
    <filter id="luminosity-noclip-7" x="8.99" y="5.49" width="92.14" height="37.69" color-interpolation-filters="sRGB" filterUnits="userSpaceOnUse">
      <feFlood flood-color="#fff" result="bg"/>
      <feBlend in="SourceGraphic" in2="bg"/>
    </filter>
    <filter id="luminosity-noclip-8" x="8.99" y="-8500.51" width="92.14" height="32766" color-interpolation-filters="sRGB" filterUnits="userSpaceOnUse">
      <feFlood flood-color="#fff" result="bg"/>
      <feBlend in="SourceGraphic" in2="bg"/>
    </filter>
    <mask id="mask-7" x="8.99" y="-8500.51" width="92.14" height="32766" maskUnits="userSpaceOnUse"/>
    <linearGradient id="linear-gradient-5" x1="55.05" y1="43.17" x2="55.05" y2="5.49" gradientUnits="userSpaceOnUse">
      <stop offset=".31" stop-color="#000"/>
      <stop offset=".43" stop-color="#454545"/>
      <stop offset=".55" stop-color="#868686"/>
      <stop offset=".67" stop-color="#bababa"/>
      <stop offset=".76" stop-color="#dfdfdf"/>
      <stop offset=".84" stop-color="#f6f6f6"/>
      <stop offset=".89" stop-color="#fff"/>
    </linearGradient>
    <mask id="mask-6" x="8.99" y="5.49" width="92.14" height="37.69" maskUnits="userSpaceOnUse">
      <g class="cls-15">
        <g class="cls-48">
          <path class="cls-4" d="m97.51,38.97c1.05,3.13.42,7.1-5.71,1.04-17.11-24.02-34.43-22.77-45.2-20.26-10.77,2.5-17.74,13.36-21.75,12.74-4.01-.63-3.17,4.39-10.99,4.81-3.46.18-4.64-2.52-4.88-5.61C19.1,15.94,36.89,5.49,57.16,5.49c8.92,0,17.35,2.02,24.86,5.62,6.72,3.93,13.56,8.54,16.54,12.41,6.76,8.77-2.11,12.32-1.05,15.46Z"/>
        </g>
      </g>
    </mask>
    <linearGradient id="linear-gradient-6" x1="55.05" y1="43.17" x2="55.05" y2="5.49" gradientUnits="userSpaceOnUse">
      <stop offset=".31" stop-color="#fff"/>
      <stop offset=".89" stop-color="#fff"/>
    </linearGradient>
    <filter id="luminosity-noclip-9" x="4.17" y="4.77" width="100.06" height="40.93" color-interpolation-filters="sRGB" filterUnits="userSpaceOnUse">
      <feFlood flood-color="#fff" result="bg"/>
      <feBlend in="SourceGraphic" in2="bg"/>
    </filter>
    <filter id="luminosity-noclip-10" x="4.17" y="-8500.51" width="100.06" height="32766" color-interpolation-filters="sRGB" filterUnits="userSpaceOnUse">
      <feFlood flood-color="#fff" result="bg"/>
      <feBlend in="SourceGraphic" in2="bg"/>
    </filter>
    <mask id="mask-9" x="4.17" y="-8500.51" width="100.06" height="32766" maskUnits="userSpaceOnUse"/>
    <linearGradient id="linear-gradient-7" x1="54.2" y1="45.7" x2="54.2" y2="4.77" xlink:href="#linear-gradient-5"/>
    <mask id="mask-8" x="4.17" y="4.77" width="100.06" height="40.93" maskUnits="userSpaceOnUse">
      <g class="cls-14">
        <g class="cls-51">
          <path class="cls-3" d="m100.3,41.14c1.14,3.4.46,7.71-6.2,1.14-18.58-26.09-37.38-24.72-49.08-22-11.7,2.72-19.27,14.52-23.63,13.83-4.36-.68-3.44,4.76-11.93,5.22-3.75.2-5.04-2.74-5.29-6.09C15.15,16.12,34.47,4.77,56.48,4.77c9.68,0,18.84,2.2,27,6.11,7.3,4.27,14.72,9.27,17.96,13.47,7.34,9.53-2.29,13.38-1.14,16.78Z"/>
        </g>
      </g>
    </mask>
    <linearGradient id="linear-gradient-8" x1="54.2" y1="45.7" x2="54.2" y2="4.77" xlink:href="#linear-gradient-6"/>
    <filter id="luminosity-noclip-11" x="0" y=".13" width="112.44" height="112.44" color-interpolation-filters="sRGB" filterUnits="userSpaceOnUse">
      <feFlood flood-color="#fff" result="bg"/>
      <feBlend in="SourceGraphic" in2="bg"/>
    </filter>
    <filter id="luminosity-noclip-12" x="0" y="-8500.51" width="112.44" height="32766" color-interpolation-filters="sRGB" filterUnits="userSpaceOnUse">
      <feFlood flood-color="#fff" result="bg"/>
      <feBlend in="SourceGraphic" in2="bg"/>
    </filter>
    <mask id="mask-11" x="0" y="-8500.51" width="112.44" height="32766" maskUnits="userSpaceOnUse"/>
    <linearGradient id="linear-gradient-9" y1="112.57" y2=".13" xlink:href="#linear-gradient-2"/>
    <mask id="mask-10" x="0" y=".13" width="112.44" height="112.44" maskUnits="userSpaceOnUse">
      <g class="cls-29">
        <g class="cls-11">
          <path class="cls-5" d="m112.44,56.35c0,31.05-25.17,56.22-56.22,56.22S0,87.4,0,56.35,25.17.13,56.22.13s56.22,25.17,56.22,56.22Z"/>
        </g>
      </g>
    </mask>
    <filter id="luminosity-noclip-13" x="0" y=".13" width="112.44" height="112.44" color-interpolation-filters="sRGB" filterUnits="userSpaceOnUse">
      <feFlood flood-color="#fff" result="bg"/>
      <feBlend in="SourceGraphic" in2="bg"/>
    </filter>
    <filter id="luminosity-noclip-14" x="0" y="-8500.51" width="112.44" height="32766" color-interpolation-filters="sRGB" filterUnits="userSpaceOnUse">
      <feFlood flood-color="#fff" result="bg"/>
      <feBlend in="SourceGraphic" in2="bg"/>
    </filter>
    <mask id="mask-13" x="0" y="-8500.51" width="112.44" height="32766" maskUnits="userSpaceOnUse"/>
    <linearGradient id="linear-gradient-10" x1="56.22" y1="112.57" x2="56.22" y2=".13" gradientUnits="userSpaceOnUse">
      <stop offset=".21" stop-color="#000"/>
      <stop offset=".33" stop-color="#1d1d1d"/>
      <stop offset=".57" stop-color="#6a6a6a"/>
      <stop offset=".92" stop-color="#e3e3e3"/>
      <stop offset="1" stop-color="#fff"/>
    </linearGradient>
    <mask id="mask-12" x="0" y=".13" width="112.44" height="112.44" maskUnits="userSpaceOnUse">
      <g class="cls-28">
        <g class="cls-9">
          <path class="cls-8" d="m112.44,56.35c0,31.05-25.17,56.22-56.22,56.22S0,87.4,0,56.35,25.17.13,56.22.13s56.22,25.17,56.22,56.22Z"/>
        </g>
      </g>
    </mask>
    <linearGradient id="linear-gradient-11" x1="56.22" y1="112.57" x2="56.22" y2=".13" gradientUnits="userSpaceOnUse">
      <stop offset=".21" stop-color="#fff"/>
      <stop offset="1" stop-color="#fff"/>
    </linearGradient>
    <clipPath id="clippath">
      <circle class="cls-1" cx="56.36" cy="55.08" r="53.74"/>
    </clipPath>
  </defs>
  <g class="cls-42">
    <g id="Capa_2" data-name="Capa 2">
      <g id="Capa_1-2" data-name="Capa 1">
        <g>
          <g>
            <g>
              <path class="cls-22" d="m56.35.41C25.97.41,1.34,25.03,1.34,55.42s24.63,55.01,55.01,55.01,55.01-24.63,55.01-55.01S86.74.41,56.35.41ZM5.66,55.42C5.66,27.31,28.45,4.53,56.55,4.53s50.89,22.78,50.89,50.89-22.79,50.88-50.89,50.88S5.66,83.52,5.66,55.42Z"/>
              <path class="cls-13" d="m112.7,56.89c0,31.05-25.17,56.22-56.22,56.22S.27,87.94.27,56.89,25.43.67,56.48.67s56.22,25.17,56.22,56.22Z"/>
              <g class="cls-40">
                <g class="cls-19">
                  <path class="cls-31" d="m56.39,2.18C26.08,2.18,1.51,26.74,1.51,57.05s24.57,54.88,54.88,54.88,54.88-24.57,54.88-54.88S86.69,2.18,56.39,2.18Zm.2,108.18c-29.44,0-53.31-23.87-53.31-53.3S27.15,3.75,56.59,3.75s53.31,23.86,53.31,53.3-23.87,53.3-53.31,53.3Z"/>
                </g>
              </g>
              <g class="cls-44">
                <path class="cls-30" d="m56.49.27C25.44.27.27,25.44.27,56.49s25.17,56.22,56.22,56.22,56.22-25.17,56.22-56.22S87.54.27,56.49.27ZM4.68,56.49C4.68,27.77,27.97,4.49,56.69,4.49s52,23.28,52,52-23.29,52-52,52S4.68,85.21,4.68,56.49Z"/>
              </g>
              <g class="cls-38">
                <g class="cls-46">
                  <path class="cls-34" d="m112.44,56.89c0,31.05-25.17,56.22-56.22,56.22S0,87.94,0,56.89,25.17.67,56.22.67s56.22,25.17,56.22,56.22Z"/>
                </g>
              </g>
              <path class="cls-32" d="m56.49,0C25.44,0,.27,25.17.27,56.22s25.17,56.22,56.22,56.22,56.22-25.17,56.22-56.22S87.53,0,56.49,0ZM4.68,56.22C4.68,27.5,27.97,4.22,56.69,4.22s52,23.28,52,52-23.28,52-52,52S4.68,84.94,4.68,56.22Z"/>
            </g>
            <g class="cls-39">
              <path class="cls-25" d="m97.89,38.04c1.01,3.01.4,6.83-5.42,1-16.26-23.09-32.73-21.88-42.97-19.47-10.24,2.41-16.86,12.85-20.68,12.24-3.82-.6-3.01,4.22-10.44,4.62-3.29.18-4.41-2.42-4.63-5.39C23.37,15.9,40.28,5.85,59.55,5.85c8.47,0,16.49,1.94,23.63,5.41,6.4,3.79,12.89,8.21,15.73,11.93,6.43,8.43-2.01,11.85-1.01,14.86Z"/>
              <path class="cls-25" d="m98.77,39.62c1.06,3.18.43,7.2-5.72,1.06-17.16-24.36-34.53-23.09-45.33-20.55-10.81,2.54-17.79,13.56-21.82,12.92-4.02-.64-3.18,4.45-11.01,4.87-3.47.19-4.65-2.56-4.89-5.69C20.15,16.26,37.99,5.66,58.32,5.66c8.94,0,17.4,2.05,24.93,5.7,6.74,3.99,13.6,8.66,16.59,12.58,6.78,8.89-2.12,12.5-1.06,15.67Z"/>
              <g class="cls-49">
                <path class="cls-35" d="m97.51,38.97c1.05,3.13.42,7.1-5.71,1.04-17.11-24.02-34.43-22.77-45.2-20.26-10.77,2.5-17.74,13.36-21.75,12.74-4.01-.63-3.17,4.39-10.99,4.81-3.46.18-4.64-2.52-4.88-5.61C19.1,15.94,36.89,5.49,57.16,5.49c8.92,0,17.35,2.02,24.86,5.62,6.72,3.93,13.56,8.54,16.54,12.41,6.76,8.77-2.11,12.32-1.05,15.46Z"/>
              </g>
            </g>
            <g class="cls-52">
              <path class="cls-23" d="m100.14,36.35c1.09,3.27.43,7.41-5.89,1.09-17.66-25.07-35.54-23.76-46.66-21.15-11.12,2.62-18.31,13.95-22.46,13.3-4.14-.65-3.27,4.58-11.34,5.01-3.57.19-4.79-2.63-5.03-5.85C19.2,12.3,37.57,1.39,58.49,1.39c9.2,0,17.91,2.11,25.66,5.87,6.94,4.11,13.99,8.91,17.07,12.95,6.98,9.16-2.18,12.86-1.09,16.13Z"/>
              <path class="cls-25" d="m100.72,40.13c1.09,3.27.44,7.41-5.89,1.09-17.66-25.08-35.54-23.77-46.66-21.15-11.12,2.62-18.32,13.95-22.46,13.3-4.14-.65-3.27,4.58-11.34,5.02-3.57.19-4.79-2.63-5.03-5.85C19.78,16.08,38.15,5.17,59.07,5.17c9.2,0,17.91,2.11,25.66,5.87,6.94,4.11,14,8.92,17.08,12.95,6.98,9.16-2.18,12.86-1.09,16.14Z"/>
              <path class="cls-25" d="m101.68,41.84c1.15,3.45.46,7.82-6.21,1.15-18.63-26.45-37.49-25.07-49.23-22.31-11.73,2.76-19.32,14.73-23.69,14.03-4.37-.69-3.45,4.83-11.96,5.29-3.76.2-5.05-2.78-5.31-6.17C16.29,16.47,35.67,4.96,57.74,4.96c9.71,0,18.89,2.23,27.07,6.19,7.33,4.34,14.77,9.41,18.02,13.67,7.36,9.66-2.3,13.57-1.15,17.02Z"/>
              <g class="cls-50">
                <path class="cls-33" d="m100.3,41.14c1.14,3.4.46,7.71-6.2,1.14-18.58-26.09-37.38-24.72-49.08-22-11.7,2.72-19.27,14.52-23.63,13.83-4.36-.68-3.44,4.76-11.93,5.22-3.75.2-5.04-2.74-5.29-6.09C15.15,16.12,34.47,4.77,56.48,4.77c9.68,0,18.84,2.2,27,6.11,7.3,4.27,14.72,9.27,17.96,13.47,7.34,9.53-2.29,13.38-1.14,16.78Z"/>
              </g>
            </g>
            <g class="cls-37">
              <g class="cls-12">
                <g class="cls-10">
                  <path class="cls-41" d="m112.44,56.35c0,31.05-25.17,56.22-56.22,56.22S0,87.4,0,56.35,25.17.13,56.22.13s56.22,25.17,56.22,56.22Z"/>
                </g>
              </g>
            </g>
          </g>
          <g class="cls-18">
            <g>
              <path class="cls-24" d="m32.72,51.8c-.59-5.78,1.13-14.76,1.84-16.39.11-.26.25-.54.49-.69.24-.15.63-.1.99.32,1.14,2.09,1.31,4.55,1.45,6.93.15,2.48.3,4.95.45,7.43,1.18-3.63.98-7.54,1.3-11.34.1-1.14.26-2.32.85-3.3.15-.24.33-.47.58-.6.54-.26,1.21.11,1.5.63.29.52.3,1.15.48,2.02.06-.2.44,4.01,1.17,10.51,0,.07,1.31-10.19,3.75-9.66.97.21,1.25,2.17,1.31,9.07.03,2.76.46,11.13.46,8.48,0-.03-.36,2.96,4.17-7.03,1.26-2.78,7.07-2.04,1.44,11.87-1.47,2.7-2.94,5.4-4.42,8.1-.75,1.38-1.52,2.82-1.61,4.39.45-.07.64.55.63,1-.02,1.06-.11,2.11-.28,3.15l-7.85-.5s-10.75.75-10.86.68c.83-1.04.71-2.52.61-3.85-.02-.27,0-.61.24-.74.08-.04.18-.05.26-.09.2-.11.26-.37.26-.59-.09-7.79-6.6-21.85-4.3-30.14.71-2.54,3.94-.92,5.06,10.32Z"/>
              <path class="cls-26" d="m29.81,107.91c.37-10.35.56-20.71.57-31.06,6.49-.55,13.03-.46,19.34.32-.28,10.34-.08,20.69.66,30.93-3.57.79-7.26-.3-10.91-.58-3.17-.24-6.36.14-9.66.38Z"/>
              <g class="cls-36">
                <path class="cls-21" d="m57.01,50.23c-.07-.4,0-.87-.23-1.21-.28-.41-.31-.21-.49.19-.21.09-.38.29-.37.55-.03,1.35-.36,2.54-.83,4.11-.43,1.56-2.83,7.76-5.73,11.43-1.33,1.69-2.36,3.7-2.44,5.9-.02.15.02.54.04.68,0-.03,0-.07-.02-.14,0,.27.1.53.29.72.07.07.14.12.22.16,0,.04,0,.08,0,.12-.07,1.21-.08,2.45.15,3.63.05.16.16.27.29.35-.38.05-.72.33-.73.84-.15,2.15.02,4.3.05,6.45-.07,1.81.07,3.61.08,5.42.01,1.31.18,2.62.27,3.92.04,1.2-.01,2.41.07,3.61,0,.37.02.74.03,1.11-.04,1.49-.1,2.87,0,3.98.02.61.03,1.22.08,1.83-.06.36,0,.75-.03,1.1.01.67.06,1.14.12,1.56-.04.25-.07.51-.07.76.02.22.05.45.13.66.06.18.17.34.32.46.49-.08.99-.14,1.48-.19.08-.11.15-.23.18-.37.01-.03.02-.06.04-.1.09-.22,0,.01-.04.08h0s.02-.04.03-.07c.16-.47.11-.39.2-1.35.02-.41.03-.81.04-1.22.14-.23.21-.51.15-.83-.07-.92-.11-1.05-.2-2.04-.04-.95-.08-1.91-.1-2.86-.01-.82,0-1.63.01-2.45.05-.13.07-.26.06-.39,0-.15,0-.36,0-.51-.05-.67-.09-1.26-.14-1.81-.05-.79-.08-1.58-.11-2.37-.08-1.2-.17-2.4-.18-3.6,0-.1,0-.19-.03-.29-.05-.43-.09-.86-.09-1.3-.03-1.76.17-3.51.13-5.28.01-1.07-.01-2.15-.07-3.22-.06-.46.05-1.02-.3-1.38-.12-.12-.26-.2-.41-.22.07-.06.13-.12.17-.2.27-.6-.03-1.3-.01-1.93-.06-.69.17-1.43,0-2.1-.04-.11-.1-.19-.16-.26.27-.81.25-2.62,1.8-4.9,1.54-2.51,3.1-5.04,4.33-7.72.09.41,2.12-8.31,2.05-9.32Z"/>
              </g>
              <path class="cls-21" d="m48.99,72.84c-.31,0-.58-.24-.6-.56-.17-2.46,1.22-4.67,2.45-6.62l.33-.52c2.08-3.33,2.81-5.16,3.94-8.92.72-2.41,1.05-4.35,1.04-6.11,0-.93-.26-1.99-.97-2.17-.8-.21-1.57.88-1.99,1.88-.22.52-.43,1.04-.64,1.56-.95,2.39-1.06,3.09-2.9,4.99-.17.17-.42.23-.65.14-.22-.09-.38-.3-.38-.54l-.68-16.22c-.02-.72-.23-1.5-.63-1.52-.35-.03-.67.55-.86,1.09-1.26,3.54-1.87,7.23-1.8,10.99,0,.32-.24.59-.56.61-.32.02-.6-.22-.63-.54-.15-1.42-.28-2.83-.42-4.23-.32-3.28-.65-6.66-1.08-9.96-.09-.68-.35-1.48-.79-1.5,0,0,0,0-.01,0-.41,0-.74.72-.87,1.4-.44,2.28-.59,4.66-.74,6.97-.18,2.87-.37,5.83-1.11,8.68-.07.29-.35.48-.64.45-.29-.03-.52-.27-.54-.56-.29-5-.67-9.87-1.11-14.48-.04-.43-.09-.92-.28-1.28-.15-.28-.43-.48-.66-.45-.49.06-.71,1-.78,1.4-.92,5.12-1.29,10.35-1.09,15.55.01.31-.21.58-.52.62-.31.04-.6-.16-.66-.46-.6-2.66-1.14-5.51-1.65-8.27-.24-1.26-.53-2.53-1.41-3.14-.15-.11-.29-.16-.37-.15-.2.02-.39.43-.48.99-.94,6.29.5,8.7,1.89,14.91,1.08,4.82,2.19,9.8,2.24,14.79,0,.33-.26.6-.6.61-.31,0-.6-.26-.61-.6-.05-4.87-1.15-9.79-2.21-14.54-1.41-6.32-2.87-8.84-1.9-15.35.24-1.62,1.07-1.95,1.53-2,.39-.04.79.08,1.19.36,1.25.87,1.62,2.39,1.9,3.88.16.83.31,1.67.47,2.51.14-3.33.51-6.65,1.1-9.92.33-1.82,1.17-2.3,1.81-2.38.82-.11,1.53.46,1.86,1.07.31.58.37,1.22.42,1.74.28,2.97.54,6.05.76,9.2.1-1.09.17-2.17.24-3.25.15-2.34.3-4.76.76-7.12.29-1.52,1.07-2.4,2.11-2.37,1.02.04,1.73.97,1.93,2.54.34,2.55.61,5.15.86,7.71.31-1.63.75-3.24,1.31-4.83.61-1.7,1.55-1.91,2.06-1.88,1.05.06,1.71,1.06,1.76,2.68l.63,14.64c1.1-1.55.95-1.62,1.67-3.41.21-.53.42-1.06.64-1.58.82-1.94,2.09-2.9,3.39-2.57,1.17.3,1.87,1.54,1.87,3.33,0,2.48-.62,4.87-1.09,6.46-1.15,3.87-1.93,5.79-4.07,9.21l-.33.53c-1.18,1.88-2.41,3.82-2.27,5.89.02.33-.23.62-.56.64-.01,0-.03,0-.04,0Z"/>
              <path class="cls-21" d="m29.91,108.63s-.01,0-.02,0c-.33-.01-.59-.29-.58-.62.38-10.37.51-20.88.4-31.25,0-.29.2-.54.49-.6,3.92-.76,7.76-.56,11.47-.37l.67.03c2.56.13,5.11.26,7.64.39.17,0,.32.08.43.21.11.13.16.29.14.46-.54,4.74-.36,9.61-.18,14.31l.62,16.75c.01.33-.25.61-.58.62,0,0-.02,0-.02,0-.32,0-.59-.25-.6-.58l-.62-16.75c-.17-4.54-.34-9.23.12-13.86-2.32-.12-4.67-.24-7.01-.36l-.66-.03c-3.48-.18-7.08-.37-10.69.26.11,10.23-.03,20.59-.41,30.8-.01.32-.28.58-.6.58Z"/>
              <path class="cls-21" d="m31.05,77.08s-.01,0-.02,0c-.33,0-.59-.28-.58-.62l.12-4.36c0-.32.26-.57.58-.58,6.13-.23,12.33-.07,18.43.46.31.03.55.29.55.6,0,1.32-.1,2.66-.27,3.97-.04.33-.35.56-.68.51-.33-.04-.56-.35-.51-.68.15-1.08.23-2.17.26-3.26-5.69-.48-11.46-.62-17.16-.43l-.1,3.8c0,.33-.28.58-.6.58Z"/>
              <path class="cls-27" d="m42.79,64.66s-.02,0-.04,0c-.37-.02-.65-.34-.63-.7.28-4.87,2.57-6.09,4.6-7.17,1.03-.55,2.01-1.07,2.68-2.07.2-.31.62-.39.93-.18.31.21.39.62.18.93-.85,1.27-2.02,1.9-3.16,2.5-1.96,1.05-3.66,1.95-3.89,6.07-.02.36-.31.63-.67.63Z"/>
              <path class="cls-24" d="m57.01,39.9c-.72-7,1.37-17.85,2.22-19.83.14-.32.3-.65.59-.84.3-.18.77-.12,1.2.39,1.38,2.53,1.59,5.5,1.76,8.38.18,2.99.36,5.99.54,8.98,1.42-4.39,1.18-9.11,1.58-13.71.12-1.38.31-2.8,1.03-3.99.18-.29.4-.57.71-.72.65-.31,1.47.13,1.82.76.35.63.36,1.39.58,2.45.07-.24.54,4.85,1.41,12.72,0,.08,1.59-12.32,4.53-11.69,1.17.25,1.51,2.62,1.59,10.97.03,3.34.56,13.46.56,10.26,0-.03-.44,3.58,5.05-8.51,1.53-3.36,8.55-2.46,1.74,14.35-1.78,3.27-3.56,6.53-5.34,9.8-.91,1.67-1.84,3.41-1.95,5.31.54-.09.77.67.76,1.21-.02,1.28-.13,2.55-.34,3.81l-9.49-.6s-13,.9-13.13.82c1-1.26.86-3.05.74-4.65-.02-.33,0-.74.29-.89.1-.05.22-.06.32-.11.24-.13.31-.44.31-.71-.11-9.42-7.98-26.43-5.2-36.45.85-3.08,4.77-1.11,6.12,12.48Z"/>
              <path class="cls-26" d="m53.48,107.76c.45-12.52.68-25.04.69-37.57,7.85-.66,15.76-.56,23.4.39-.33,12.5-.1,25.02.79,37.41-4.32.96-8.78-.36-13.19-.7-3.84-.29-7.69.17-11.68.46Z"/>
              <g class="cls-36">
                <path class="cls-21" d="m86.38,37.99c-.09-.48,0-1.05-.28-1.47-.34-.49-.37-.25-.59.23-.26.11-.46.35-.45.67-.03,1.64-.44,3.07-1.01,4.97-.52,1.89-3.42,9.38-6.93,13.83-1.61,2.05-2.86,4.48-2.95,7.13-.02.18.03.65.05.83,0-.04-.01-.09-.02-.17,0,.32.13.64.35.87.08.08.17.14.26.2,0,.05-.01.09-.01.14-.09,1.46-.09,2.96.18,4.39.07.19.2.33.35.42-.46.06-.88.4-.89,1.02-.18,2.6.02,5.2.06,7.8-.09,2.19.08,4.37.09,6.56.02,1.59.21,3.16.33,4.74.05,1.46-.02,2.91.08,4.37,0,.45.02.89.04,1.34-.05,1.8-.12,3.47,0,4.81.02.74.04,1.48.1,2.22-.07.43,0,.91-.04,1.33.01.81.07,1.38.14,1.89-.05.31-.09.61-.09.92.02.26.06.55.16.8.07.22.21.41.39.55.6-.09,1.19-.17,1.79-.23.1-.13.18-.28.22-.44.01-.03.03-.07.05-.12.11-.26,0,.02-.04.1h0s.02-.04.04-.09c.19-.57.13-.47.25-1.64.03-.49.04-.98.05-1.47.17-.28.25-.62.18-1-.08-1.11-.13-1.27-.24-2.47-.04-1.15-.1-2.31-.12-3.46-.02-.99,0-1.98.02-2.97.06-.15.08-.31.07-.47,0-.19.01-.44,0-.61-.06-.81-.11-1.53-.17-2.2-.06-.95-.09-1.91-.14-2.87-.1-1.45-.21-2.9-.22-4.35,0-.12-.01-.23-.04-.34-.06-.52-.1-1.04-.11-1.57-.04-2.13.21-4.25.16-6.38.02-1.3-.01-2.6-.09-3.9-.08-.56.07-1.24-.36-1.67-.14-.15-.32-.24-.5-.27.08-.07.15-.15.21-.24.32-.73-.03-1.57-.01-2.34-.08-.84.21-1.73,0-2.55-.05-.13-.12-.23-.2-.32.32-.98.3-3.17,2.18-5.93,1.86-3.03,3.75-6.1,5.24-9.34.11.5,2.57-10.05,2.48-11.27Z"/>
              </g>
              <path class="cls-21" d="m76.68,65.35c-.38,0-.7-.29-.72-.68-.2-2.98,1.48-5.65,2.96-8l.4-.63c2.51-4.03,3.4-6.24,4.76-10.79.87-2.91,1.27-5.26,1.26-7.39,0-1.13-.31-2.41-1.17-2.63-.97-.25-1.9,1.07-2.4,2.27-.26.62-.52,1.26-.77,1.89-1.16,2.89-1.28,3.74-3.5,6.03-.2.21-.51.28-.78.17-.27-.1-.45-.36-.46-.65l-.82-19.62c-.03-.87-.28-1.81-.76-1.84-.42-.03-.81.66-1.04,1.32-1.53,4.28-2.26,8.75-2.18,13.29,0,.39-.29.71-.68.74-.39.03-.73-.26-.77-.65-.18-1.71-.34-3.42-.51-5.12-.38-3.96-.78-8.06-1.31-12.05-.11-.82-.42-1.79-.96-1.82,0,0-.01,0-.02,0-.5,0-.89.87-1.05,1.69-.53,2.76-.71,5.64-.89,8.43-.22,3.47-.45,7.05-1.34,10.5-.09.35-.42.58-.77.54-.36-.04-.63-.32-.65-.68-.35-6.04-.8-11.94-1.34-17.52-.05-.52-.11-1.12-.34-1.55-.19-.34-.53-.58-.8-.55-.59.07-.85,1.21-.94,1.69-1.12,6.19-1.56,12.52-1.32,18.81.01.38-.26.7-.63.75-.37.05-.72-.19-.8-.56-.73-3.22-1.37-6.67-1.99-10-.28-1.53-.65-3.05-1.71-3.79-.18-.13-.35-.2-.45-.18-.24.03-.48.52-.58,1.19-1.13,7.61.6,10.53,2.28,18.04,1.3,5.83,2.65,11.85,2.71,17.89,0,.4-.32.73-.72.73-.38,0-.73-.32-.73-.72-.06-5.89-1.39-11.83-2.68-17.59-1.71-7.64-3.48-10.69-2.3-18.57.29-1.97,1.29-2.36,1.86-2.42.47-.05.95.1,1.44.44,1.51,1.05,1.96,2.9,2.3,4.69.19,1.01.38,2.02.57,3.04.17-4.02.61-8.04,1.33-12,.4-2.2,1.41-2.78,2.19-2.87,1-.13,1.85.56,2.25,1.29.38.7.45,1.48.51,2.11.34,3.59.65,7.32.93,11.13.12-1.31.2-2.63.29-3.93.18-2.83.37-5.76.92-8.61.35-1.84,1.29-2.9,2.55-2.87,1.24.05,2.09,1.17,2.34,3.08.41,3.09.74,6.23,1.04,9.33.38-1.98.91-3.92,1.59-5.84.74-2.06,1.88-2.31,2.49-2.28,1.27.07,2.07,1.28,2.13,3.24l.76,17.71c1.33-1.87,1.15-1.96,2.01-4.13.26-.64.51-1.28.78-1.92.99-2.35,2.52-3.51,4.1-3.11,1.41.36,2.26,1.86,2.26,4.03,0,3-.75,5.9-1.32,7.81-1.4,4.68-2.34,7-4.92,11.14l-.4.64c-1.43,2.27-2.91,4.63-2.74,7.13.03.4-.27.75-.68.77-.02,0-.03,0-.05,0Z"/>
              <path class="cls-21" d="m53.61,108.63s-.02,0-.03,0c-.4-.01-.71-.35-.7-.75.46-12.54.62-25.25.48-37.8,0-.35.24-.65.59-.72,4.74-.92,9.39-.68,13.88-.45l.8.04c3.09.16,6.18.32,9.24.47.2,0,.39.1.52.26.13.15.19.35.17.55-.65,5.74-.43,11.62-.22,17.31l.75,20.26c.01.4-.3.74-.7.75,0,0-.02,0-.03,0-.39,0-.71-.31-.73-.7l-.75-20.26c-.2-5.49-.41-11.16.15-16.76-2.81-.14-5.64-.29-8.48-.43l-.8-.04c-4.21-.22-8.56-.44-12.93.31.13,12.37-.04,24.9-.49,37.25-.01.39-.34.7-.73.7Z"/>
              <path class="cls-21" d="m54.98,70.47s-.01,0-.02,0c-.4-.01-.72-.34-.71-.75l.14-5.27c0-.38.32-.69.7-.71,7.41-.27,14.91-.09,22.29.56.38.03.66.35.66.73,0,1.6-.12,3.22-.33,4.8-.05.4-.42.68-.82.62-.4-.05-.68-.42-.62-.82.18-1.3.28-2.63.31-3.94-6.88-.58-13.86-.75-20.76-.52l-.12,4.59c-.01.39-.33.71-.73.71Z"/>
              <path class="cls-27" d="m69.18,55.45s-.03,0-.05,0c-.45-.03-.79-.41-.76-.85.33-5.89,3.11-7.37,5.56-8.68,1.25-.67,2.43-1.3,3.24-2.5.25-.37.75-.47,1.12-.22.37.25.47.75.22,1.12-1.03,1.54-2.45,2.29-3.82,3.03-2.38,1.27-4.43,2.36-4.71,7.34-.02.43-.38.76-.81.76Z"/>
            </g>
          </g>
        </g>
      </g>
    </g>
  </g>
</svg>