<?xml version="1.0" encoding="UTF-8"?>
<svg xmlns="http://www.w3.org/2000/svg" xmlns:xlink="http://www.w3.org/1999/xlink" viewBox="0 0 112.7 113.11">
  <defs>
    <style>
      .cls-1 {
        fill: none;
      }

      .cls-2 {
        fill: url(#radial-gradient-3);
      }

      .cls-2, .cls-3, .cls-4, .cls-5, .cls-6, .cls-7, .cls-8 {
        mix-blend-mode: multiply;
      }

      .cls-9 {
        mask: url(#mask-13);
      }

      .cls-10 {
        mask: url(#mask-12);
      }

      .cls-11 {
        mask: url(#mask-11);
      }

      .cls-12 {
        mask: url(#mask-10);
      }

      .cls-13 {
        fill: url(#linear-gradient);
      }

      .cls-14 {
        filter: url(#luminosity-noclip-9);
      }

      .cls-15 {
        filter: url(#luminosity-noclip-7);
      }

      .cls-16 {
        filter: url(#luminosity-noclip-3);
      }

      .cls-17 {
        filter: url(#luminosity-noclip-5);
      }

      .cls-18 {
        clip-path: url(#clippath);
      }

      .cls-19 {
        mask: url(#mask);
      }

      .cls-20 {
        filter: url(#luminosity-noclip);
      }

      .cls-21 {
        fill: #010101;
      }

      .cls-22 {
        fill: #687a97;
      }

      .cls-23 {
        fill: #e7edf9;
      }

      .cls-24, .cls-25 {
        fill: #fff;
      }

      .cls-26 {
        fill: #b3dee5;
      }

      .cls-27 {
        fill: #add3f2;
      }

      .cls-28 {
        filter: url(#luminosity-noclip-13);
      }

      .cls-29 {
        filter: url(#luminosity-noclip-11);
      }

      .cls-3 {
        fill: url(#linear-gradient-7);
      }

      .cls-4 {
        fill: url(#linear-gradient-5);
      }

      .cls-5 {
        fill: url(#linear-gradient-9);
      }

      .cls-6 {
        fill: url(#linear-gradient-2);
      }

      .cls-30 {
        fill: url(#radial-gradient-4);
      }

      .cls-31 {
        fill: url(#radial-gradient-2);
      }

      .cls-32 {
        fill: url(#linear-gradient-4);
        mix-blend-mode: color-burn;
      }

      .cls-25 {
        opacity: .2;
      }

      .cls-33 {
        fill: url(#linear-gradient-8);
      }

      .cls-34 {
        fill: url(#linear-gradient-3);
      }

      .cls-35 {
        fill: url(#linear-gradient-6);
      }

      .cls-36 {
        opacity: .13;
      }

      .cls-7 {
        fill: url(#radial-gradient);
      }

      .cls-37 {
        opacity: .26;
      }

      .cls-38 {
        opacity: .9;
      }

      .cls-39 {
        opacity: .76;
      }

      .cls-40 {
        opacity: .72;
      }

      .cls-41 {
        fill: url(#linear-gradient-11);
      }

      .cls-42 {
        isolation: isolate;
      }

      .cls-8 {
        fill: url(#linear-gradient-10);
      }

      .cls-43 {
        mask: url(#mask-3);
      }

      .cls-44 {
        mask: url(#mask-2);
      }

      .cls-45 {
        mask: url(#mask-5);
      }

      .cls-46 {
        mask: url(#mask-4);
      }

      .cls-47 {
        mask: url(#mask-1);
      }

      .cls-48 {
        mask: url(#mask-7);
      }

      .cls-49 {
        mask: url(#mask-6);
      }

      .cls-50 {
        mask: url(#mask-8);
      }

      .cls-51 {
        mask: url(#mask-9);
      }

      .cls-52 {
        mix-blend-mode: soft-light;
        opacity: .3;
      }
    </style>
    <linearGradient id="linear-gradient" x1="56.49" y1="113.11" x2="56.49" y2=".67" gradientUnits="userSpaceOnUse">
      <stop offset="0" stop-color="#c1c4cb"/>
      <stop offset=".06" stop-color="#c9cdd5"/>
      <stop offset=".2" stop-color="#d8dce5"/>
      <stop offset=".35" stop-color="#e1e6ef"/>
      <stop offset=".53" stop-color="#e4e9f3"/>
      <stop offset="1" stop-color="#f4f4f7"/>
    </linearGradient>
    <filter id="luminosity-noclip" x="1.51" y="2.18" width="109.76" height="109.76" color-interpolation-filters="sRGB" filterUnits="userSpaceOnUse">
      <feFlood flood-color="#fff" result="bg"/>
      <feBlend in="SourceGraphic" in2="bg"/>
    </filter>
    <filter id="luminosity-noclip-2" x="1.51" y="-8355.65" width="109.76" height="32766" color-interpolation-filters="sRGB" filterUnits="userSpaceOnUse">
      <feFlood flood-color="#fff" result="bg"/>
      <feBlend in="SourceGraphic" in2="bg"/>
    </filter>
    <mask id="mask-1" x="1.51" y="-8355.65" width="109.76" height="32766" maskUnits="userSpaceOnUse"/>
    <radialGradient id="radial-gradient" cx="56.39" cy="57.05" fx="56.39" fy="57.05" r="54.88" gradientUnits="userSpaceOnUse">
      <stop offset=".97" stop-color="#000"/>
      <stop offset=".99" stop-color="#b3b3b3"/>
      <stop offset="1" stop-color="#000"/>
    </radialGradient>
    <mask id="mask" x="1.51" y="2.18" width="109.76" height="109.76" maskUnits="userSpaceOnUse">
      <g class="cls-20">
        <g class="cls-47">
          <path class="cls-7" d="m56.39,2.18C26.08,2.18,1.51,26.74,1.51,57.05s24.57,54.88,54.88,54.88,54.88-24.57,54.88-54.88S86.69,2.18,56.39,2.18Zm.2,108.18c-29.44,0-53.31-23.87-53.31-53.3S27.15,3.75,56.59,3.75s53.31,23.86,53.31,53.3-23.87,53.3-53.31,53.3Z"/>
        </g>
      </g>
    </mask>
    <radialGradient id="radial-gradient-2" cx="56.39" cy="57.05" fx="56.39" fy="57.05" r="54.88" gradientUnits="userSpaceOnUse">
      <stop offset=".97" stop-color="#969a9f"/>
      <stop offset=".99" stop-color="#878b90"/>
      <stop offset="1" stop-color="#969a9f"/>
    </radialGradient>
    <filter id="luminosity-noclip-3" x=".27" y=".27" width="112.44" height="112.44" color-interpolation-filters="sRGB" filterUnits="userSpaceOnUse">
      <feFlood flood-color="#fff" result="bg"/>
      <feBlend in="SourceGraphic" in2="bg"/>
    </filter>
    <filter id="luminosity-noclip-4" x=".27" y="-8355.65" width="112.44" height="32766" color-interpolation-filters="sRGB" filterUnits="userSpaceOnUse">
      <feFlood flood-color="#fff" result="bg"/>
      <feBlend in="SourceGraphic" in2="bg"/>
    </filter>
    <mask id="mask-3" x=".27" y="-8355.65" width="112.44" height="32766" maskUnits="userSpaceOnUse"/>
    <radialGradient id="radial-gradient-3" cx="56.49" cy="56.49" fx="56.49" fy="56.49" r="56.22" gradientUnits="userSpaceOnUse">
      <stop offset=".91" stop-color="#000"/>
      <stop offset="1" stop-color="#b3b3b3"/>
    </radialGradient>
    <mask id="mask-2" x=".27" y=".27" width="112.44" height="112.44" maskUnits="userSpaceOnUse">
      <g class="cls-16">
        <g class="cls-43">
          <path class="cls-2" d="m56.49.27C25.44.27.27,25.44.27,56.49s25.17,56.22,56.22,56.22,56.22-25.17,56.22-56.22S87.54.27,56.49.27ZM4.68,56.49C4.68,27.77,27.97,4.49,56.69,4.49s52,23.28,52,52-23.29,52-52,52S4.68,85.21,4.68,56.49Z"/>
        </g>
      </g>
    </mask>
    <radialGradient id="radial-gradient-4" cx="56.49" cy="56.49" fx="56.49" fy="56.49" r="56.22" gradientUnits="userSpaceOnUse">
      <stop offset=".91" stop-color="#a8abb0"/>
      <stop offset="1" stop-color="#a8abb0"/>
    </radialGradient>
    <filter id="luminosity-noclip-5" x="0" y=".67" width="112.44" height="112.44" color-interpolation-filters="sRGB" filterUnits="userSpaceOnUse">
      <feFlood flood-color="#fff" result="bg"/>
      <feBlend in="SourceGraphic" in2="bg"/>
    </filter>
    <filter id="luminosity-noclip-6" x="0" y="-8355.65" width="112.44" height="32766" color-interpolation-filters="sRGB" filterUnits="userSpaceOnUse">
      <feFlood flood-color="#fff" result="bg"/>
      <feBlend in="SourceGraphic" in2="bg"/>
    </filter>
    <mask id="mask-5" x="0" y="-8355.65" width="112.44" height="32766" maskUnits="userSpaceOnUse"/>
    <linearGradient id="linear-gradient-2" x1="56.22" y1="113.11" x2="56.22" y2=".67" gradientUnits="userSpaceOnUse">
      <stop offset="0" stop-color="#000"/>
      <stop offset=".03" stop-color="#000"/>
      <stop offset=".28" stop-color="#000"/>
      <stop offset=".28" stop-color="#000"/>
      <stop offset=".35" stop-color="#3b3b3b"/>
      <stop offset=".43" stop-color="#6f6f6f"/>
      <stop offset=".51" stop-color="#9b9b9b"/>
      <stop offset=".59" stop-color="#bfbfbf"/>
      <stop offset=".67" stop-color="#dbdbdb"/>
      <stop offset=".75" stop-color="#efefef"/>
      <stop offset=".83" stop-color="#fbfbfb"/>
      <stop offset=".91" stop-color="#fff"/>
    </linearGradient>
    <mask id="mask-4" x="0" y=".67" width="112.44" height="112.44" maskUnits="userSpaceOnUse">
      <g class="cls-17">
        <g class="cls-45">
          <path class="cls-6" d="m112.44,56.89c0,31.05-25.17,56.22-56.22,56.22S0,87.94,0,56.89,25.17.67,56.22.67s56.22,25.17,56.22,56.22Z"/>
        </g>
      </g>
    </mask>
    <linearGradient id="linear-gradient-3" x1="56.22" y1="113.11" x2="56.22" y2=".67" gradientUnits="userSpaceOnUse">
      <stop offset="0" stop-color="#c1c4cb"/>
      <stop offset=".03" stop-color="#c9cdd5"/>
      <stop offset=".1" stop-color="#d8dce5"/>
      <stop offset=".18" stop-color="#e1e6ef"/>
      <stop offset=".28" stop-color="#e4e9f3"/>
      <stop offset=".28" stop-color="#e4e9f3"/>
      <stop offset=".6" stop-color="#f0f1f6"/>
      <stop offset=".91" stop-color="#f4f4f7"/>
    </linearGradient>
    <linearGradient id="linear-gradient-4" x1="56.49" y1="112.44" x2="56.49" y2="0" gradientUnits="userSpaceOnUse">
      <stop offset="0" stop-color="#a4a9b2"/>
      <stop offset=".15" stop-color="#b8bcc3"/>
      <stop offset=".42" stop-color="#d8dadf"/>
      <stop offset=".64" stop-color="#ecedf0"/>
      <stop offset=".8" stop-color="#f4f4f7"/>
    </linearGradient>
    <filter id="luminosity-noclip-7" x="8.99" y="5.49" width="92.14" height="37.69" color-interpolation-filters="sRGB" filterUnits="userSpaceOnUse">
      <feFlood flood-color="#fff" result="bg"/>
      <feBlend in="SourceGraphic" in2="bg"/>
    </filter>
    <filter id="luminosity-noclip-8" x="8.99" y="-8355.65" width="92.14" height="32766" color-interpolation-filters="sRGB" filterUnits="userSpaceOnUse">
      <feFlood flood-color="#fff" result="bg"/>
      <feBlend in="SourceGraphic" in2="bg"/>
    </filter>
    <mask id="mask-7" x="8.99" y="-8355.65" width="92.14" height="32766" maskUnits="userSpaceOnUse"/>
    <linearGradient id="linear-gradient-5" x1="55.05" y1="43.17" x2="55.05" y2="5.49" gradientUnits="userSpaceOnUse">
      <stop offset=".31" stop-color="#000"/>
      <stop offset=".43" stop-color="#454545"/>
      <stop offset=".55" stop-color="#868686"/>
      <stop offset=".67" stop-color="#bababa"/>
      <stop offset=".76" stop-color="#dfdfdf"/>
      <stop offset=".84" stop-color="#f6f6f6"/>
      <stop offset=".89" stop-color="#fff"/>
    </linearGradient>
    <mask id="mask-6" x="8.99" y="5.49" width="92.14" height="37.69" maskUnits="userSpaceOnUse">
      <g class="cls-15">
        <g class="cls-48">
          <path class="cls-4" d="m97.51,38.97c1.05,3.13.42,7.1-5.71,1.04-17.11-24.02-34.43-22.77-45.2-20.26-10.77,2.5-17.74,13.36-21.75,12.74-4.01-.63-3.17,4.39-10.99,4.81-3.46.18-4.64-2.52-4.88-5.61C19.1,15.94,36.89,5.49,57.16,5.49c8.92,0,17.35,2.02,24.86,5.62,6.72,3.93,13.56,8.54,16.54,12.41,6.76,8.77-2.11,12.32-1.05,15.46Z"/>
        </g>
      </g>
    </mask>
    <linearGradient id="linear-gradient-6" x1="55.05" y1="43.17" x2="55.05" y2="5.49" gradientUnits="userSpaceOnUse">
      <stop offset=".31" stop-color="#fff"/>
      <stop offset=".89" stop-color="#fff"/>
    </linearGradient>
    <filter id="luminosity-noclip-9" x="4.17" y="4.77" width="100.06" height="40.93" color-interpolation-filters="sRGB" filterUnits="userSpaceOnUse">
      <feFlood flood-color="#fff" result="bg"/>
      <feBlend in="SourceGraphic" in2="bg"/>
    </filter>
    <filter id="luminosity-noclip-10" x="4.17" y="-8355.65" width="100.06" height="32766" color-interpolation-filters="sRGB" filterUnits="userSpaceOnUse">
      <feFlood flood-color="#fff" result="bg"/>
      <feBlend in="SourceGraphic" in2="bg"/>
    </filter>
    <mask id="mask-9" x="4.17" y="-8355.65" width="100.06" height="32766" maskUnits="userSpaceOnUse"/>
    <linearGradient id="linear-gradient-7" x1="54.2" y1="45.7" x2="54.2" y2="4.77" xlink:href="#linear-gradient-5"/>
    <mask id="mask-8" x="4.17" y="4.77" width="100.06" height="40.93" maskUnits="userSpaceOnUse">
      <g class="cls-14">
        <g class="cls-51">
          <path class="cls-3" d="m100.3,41.14c1.14,3.4.46,7.71-6.2,1.14-18.58-26.09-37.38-24.72-49.08-22-11.7,2.72-19.27,14.52-23.63,13.83-4.36-.68-3.44,4.76-11.93,5.22-3.75.2-5.04-2.74-5.29-6.09C15.15,16.12,34.47,4.77,56.48,4.77c9.68,0,18.84,2.2,27,6.11,7.3,4.27,14.72,9.27,17.96,13.47,7.34,9.53-2.29,13.38-1.14,16.78Z"/>
        </g>
      </g>
    </mask>
    <linearGradient id="linear-gradient-8" x1="54.2" y1="45.7" x2="54.2" y2="4.77" xlink:href="#linear-gradient-6"/>
    <filter id="luminosity-noclip-11" x="0" y=".13" width="112.44" height="112.44" color-interpolation-filters="sRGB" filterUnits="userSpaceOnUse">
      <feFlood flood-color="#fff" result="bg"/>
      <feBlend in="SourceGraphic" in2="bg"/>
    </filter>
    <filter id="luminosity-noclip-12" x="0" y="-8355.65" width="112.44" height="32766" color-interpolation-filters="sRGB" filterUnits="userSpaceOnUse">
      <feFlood flood-color="#fff" result="bg"/>
      <feBlend in="SourceGraphic" in2="bg"/>
    </filter>
    <mask id="mask-11" x="0" y="-8355.65" width="112.44" height="32766" maskUnits="userSpaceOnUse"/>
    <linearGradient id="linear-gradient-9" y1="112.57" y2=".13" xlink:href="#linear-gradient-2"/>
    <mask id="mask-10" x="0" y=".13" width="112.44" height="112.44" maskUnits="userSpaceOnUse">
      <g class="cls-29">
        <g class="cls-11">
          <path class="cls-5" d="m112.44,56.35c0,31.05-25.17,56.22-56.22,56.22S0,87.4,0,56.35,25.17.13,56.22.13s56.22,25.17,56.22,56.22Z"/>
        </g>
      </g>
    </mask>
    <filter id="luminosity-noclip-13" x="0" y=".13" width="112.44" height="112.44" color-interpolation-filters="sRGB" filterUnits="userSpaceOnUse">
      <feFlood flood-color="#fff" result="bg"/>
      <feBlend in="SourceGraphic" in2="bg"/>
    </filter>
    <filter id="luminosity-noclip-14" x="0" y="-8355.65" width="112.44" height="32766" color-interpolation-filters="sRGB" filterUnits="userSpaceOnUse">
      <feFlood flood-color="#fff" result="bg"/>
      <feBlend in="SourceGraphic" in2="bg"/>
    </filter>
    <mask id="mask-13" x="0" y="-8355.65" width="112.44" height="32766" maskUnits="userSpaceOnUse"/>
    <linearGradient id="linear-gradient-10" x1="56.22" y1="112.57" x2="56.22" y2=".13" gradientUnits="userSpaceOnUse">
      <stop offset=".21" stop-color="#000"/>
      <stop offset=".33" stop-color="#1d1d1d"/>
      <stop offset=".57" stop-color="#6a6a6a"/>
      <stop offset=".92" stop-color="#e3e3e3"/>
      <stop offset="1" stop-color="#fff"/>
    </linearGradient>
    <mask id="mask-12" x="0" y=".13" width="112.44" height="112.44" maskUnits="userSpaceOnUse">
      <g class="cls-28">
        <g class="cls-9">
          <path class="cls-8" d="m112.44,56.35c0,31.05-25.17,56.22-56.22,56.22S0,87.4,0,56.35,25.17.13,56.22.13s56.22,25.17,56.22,56.22Z"/>
        </g>
      </g>
    </mask>
    <linearGradient id="linear-gradient-11" x1="56.22" y1="112.57" x2="56.22" y2=".13" gradientUnits="userSpaceOnUse">
      <stop offset=".21" stop-color="#fff"/>
      <stop offset="1" stop-color="#fff"/>
    </linearGradient>
    <clipPath id="clippath">
      <circle class="cls-1" cx="56.36" cy="55.08" r="53.74"/>
    </clipPath>
  </defs>
  <g class="cls-42">
    <g id="Capa_2" data-name="Capa 2">
      <g id="Capa_1-2" data-name="Capa 1">
        <g>
          <g>
            <g>
              <path class="cls-22" d="m56.35.41C25.97.41,1.34,25.03,1.34,55.42s24.63,55.01,55.01,55.01,55.01-24.63,55.01-55.01S86.74.41,56.35.41ZM5.66,55.42C5.66,27.31,28.45,4.53,56.55,4.53s50.89,22.78,50.89,50.89-22.79,50.88-50.89,50.88S5.66,83.52,5.66,55.42Z"/>
              <path class="cls-13" d="m112.7,56.89c0,31.05-25.17,56.22-56.22,56.22S.27,87.94.27,56.89,25.43.67,56.48.67s56.22,25.17,56.22,56.22Z"/>
              <g class="cls-40">
                <g class="cls-19">
                  <path class="cls-31" d="m56.39,2.18C26.08,2.18,1.51,26.74,1.51,57.05s24.57,54.88,54.88,54.88,54.88-24.57,54.88-54.88S86.69,2.18,56.39,2.18Zm.2,108.18c-29.44,0-53.31-23.87-53.31-53.3S27.15,3.75,56.59,3.75s53.31,23.86,53.31,53.3-23.87,53.3-53.31,53.3Z"/>
                </g>
              </g>
              <g class="cls-44">
                <path class="cls-30" d="m56.49.27C25.44.27.27,25.44.27,56.49s25.17,56.22,56.22,56.22,56.22-25.17,56.22-56.22S87.54.27,56.49.27ZM4.68,56.49C4.68,27.77,27.97,4.49,56.69,4.49s52,23.28,52,52-23.29,52-52,52S4.68,85.21,4.68,56.49Z"/>
              </g>
              <g class="cls-38">
                <g class="cls-46">
                  <path class="cls-34" d="m112.44,56.89c0,31.05-25.17,56.22-56.22,56.22S0,87.94,0,56.89,25.17.67,56.22.67s56.22,25.17,56.22,56.22Z"/>
                </g>
              </g>
              <path class="cls-32" d="m56.49,0C25.44,0,.27,25.17.27,56.22s25.17,56.22,56.22,56.22,56.22-25.17,56.22-56.22S87.53,0,56.49,0ZM4.68,56.22C4.68,27.5,27.97,4.22,56.69,4.22s52,23.28,52,52-23.28,52-52,52S4.68,84.94,4.68,56.22Z"/>
            </g>
            <g class="cls-39">
              <path class="cls-25" d="m97.89,38.04c1.01,3.01.4,6.83-5.42,1-16.26-23.09-32.73-21.88-42.97-19.47-10.24,2.41-16.86,12.85-20.68,12.24-3.82-.6-3.01,4.22-10.44,4.62-3.29.18-4.41-2.42-4.63-5.39C23.37,15.9,40.28,5.85,59.55,5.85c8.47,0,16.49,1.94,23.63,5.41,6.4,3.79,12.89,8.21,15.73,11.93,6.43,8.43-2.01,11.85-1.01,14.86Z"/>
              <path class="cls-25" d="m98.77,39.62c1.06,3.18.43,7.2-5.72,1.06-17.16-24.36-34.53-23.09-45.33-20.55-10.81,2.54-17.79,13.56-21.82,12.92-4.02-.64-3.18,4.45-11.01,4.87-3.47.19-4.65-2.56-4.89-5.69C20.15,16.26,37.99,5.66,58.32,5.66c8.94,0,17.4,2.05,24.93,5.7,6.74,3.99,13.6,8.66,16.59,12.58,6.78,8.89-2.12,12.5-1.06,15.67Z"/>
              <g class="cls-49">
                <path class="cls-35" d="m97.51,38.97c1.05,3.13.42,7.1-5.71,1.04-17.11-24.02-34.43-22.77-45.2-20.26-10.77,2.5-17.74,13.36-21.75,12.74-4.01-.63-3.17,4.39-10.99,4.81-3.46.18-4.64-2.52-4.88-5.61C19.1,15.94,36.89,5.49,57.16,5.49c8.92,0,17.35,2.02,24.86,5.62,6.72,3.93,13.56,8.54,16.54,12.41,6.76,8.77-2.11,12.32-1.05,15.46Z"/>
              </g>
            </g>
            <g class="cls-52">
              <path class="cls-23" d="m100.14,36.35c1.09,3.27.43,7.41-5.89,1.09-17.66-25.07-35.54-23.76-46.66-21.15-11.12,2.62-18.31,13.95-22.46,13.3-4.14-.65-3.27,4.58-11.34,5.01-3.57.19-4.79-2.63-5.03-5.85C19.2,12.3,37.57,1.39,58.49,1.39c9.2,0,17.91,2.11,25.66,5.87,6.94,4.11,13.99,8.91,17.07,12.95,6.98,9.16-2.18,12.86-1.09,16.13Z"/>
              <path class="cls-25" d="m100.72,40.13c1.09,3.27.44,7.41-5.89,1.09-17.66-25.08-35.54-23.77-46.66-21.15-11.12,2.62-18.32,13.95-22.46,13.3-4.14-.65-3.27,4.58-11.34,5.02-3.57.19-4.79-2.63-5.03-5.85C19.78,16.08,38.15,5.17,59.07,5.17c9.2,0,17.91,2.11,25.66,5.87,6.94,4.11,14,8.92,17.08,12.95,6.98,9.16-2.18,12.86-1.09,16.14Z"/>
              <path class="cls-25" d="m101.68,41.84c1.15,3.45.46,7.82-6.21,1.15-18.63-26.45-37.49-25.07-49.23-22.31-11.73,2.76-19.32,14.73-23.69,14.03-4.37-.69-3.45,4.83-11.96,5.29-3.76.2-5.05-2.78-5.31-6.17C16.29,16.47,35.67,4.96,57.74,4.96c9.71,0,18.89,2.23,27.07,6.19,7.33,4.34,14.77,9.41,18.02,13.67,7.36,9.66-2.3,13.57-1.15,17.02Z"/>
              <g class="cls-50">
                <path class="cls-33" d="m100.3,41.14c1.14,3.4.46,7.71-6.2,1.14-18.58-26.09-37.38-24.72-49.08-22-11.7,2.72-19.27,14.52-23.63,13.83-4.36-.68-3.44,4.76-11.93,5.22-3.75.2-5.04-2.74-5.29-6.09C15.15,16.12,34.47,4.77,56.48,4.77c9.68,0,18.84,2.2,27,6.11,7.3,4.27,14.72,9.27,17.96,13.47,7.34,9.53-2.29,13.38-1.14,16.78Z"/>
              </g>
            </g>
            <g class="cls-37">
              <g class="cls-12">
                <g class="cls-10">
                  <path class="cls-41" d="m112.44,56.35c0,31.05-25.17,56.22-56.22,56.22S0,87.4,0,56.35,25.17.13,56.22.13s56.22,25.17,56.22,56.22Z"/>
                </g>
              </g>
            </g>
          </g>
          <g class="cls-18">
            <g>
              <path class="cls-24" d="m43.67,131.11c-.73-10.93,1.28-21.92.44-32.85-.03-.42-.07-.85.09-1.24.15-.39.56-.71,1.11-.99-.1-1.38-.13-2.76-.1-4.14,0-.17.02-.36.13-.48.11-.12.29-.16.45-.19.47-.08.94-.17,1.41-.25.02-2.97.15-5.93.46-9.08.13-1.98.25-3.96.38-5.94.11-1.7.22-3.41.21-5.11,0-2.57-.28-5.18.22-7.7.19-.95.5-1.91,1.18-2.87,2.01-.21,3.93-1.13,5.36-2.55,3.18-3.17,3.55-8.15,5.73-12.08.77-1.39,1.78-2.65,2.96-3.71.43-.39.9-.76,1.46-.91.56-.16,1.22-.05,1.6.38.47.55.35,1.38.21,2.09-.72,3.71-1.1,7.49-.89,11.38,4.74-2.22,9.65-4.08,14.65-6.07-.69-2.21-1.5-4.38-2.44-6.49-.73-1.66-1.55-3.32-1.81-5.11-.02-.13-.03-.26.02-.38.07-.18.28-.28.47-.31.61-.11,1.23.21,1.65.67.42.46.67,1.04.91,1.61,1.02,2.4,2.04,4.79,3.06,7.19.34.8.69,1.62.74,2.5.06,1.08-.34,2.13-.84,3.26-2.18,3.36-5.49,5.79-8.63,8.27-3.14,2.48-6.28,5.23-7.87,8.91-.55,1.26-.89,2.61-1.19,3.95-1.36,6.15-1.71,12.52-.87,18.92.49,0,.98,0,1.47,0,.02,1.6-.07,3.2-.27,4.79.29.03.59.05.88.08-1.93,11.46.82,23.18.44,35.35-5.83.34-11.68.4-17.52.18-1.76-.07-3.55-.17-5.26-1.08Z"/>
              <path class="cls-21" d="m46.66,105.57s-.07,0-.1-.03c-.09-.05-.12-.17-.06-.26l4.63-7.7c.05-.09.17-.12.26-.06.09.05.12.17.06.26l-4.63,7.7c-.03.06-.1.09-.16.09Z"/>
              <path class="cls-21" d="m45.46,113.16s-.07,0-.1-.03c-.09-.05-.11-.17-.06-.26l9.26-14.67c.05-.09.17-.11.26-.06.09.05.11.17.06.26l-9.26,14.67c-.04.06-.1.09-.16.09Z"/>
              <path class="cls-21" d="m46.11,119.62s-.07,0-.1-.03c-.09-.06-.11-.17-.06-.26l13.1-20.7c.06-.09.17-.11.26-.06.09.06.11.17.06.26l-13.1,20.7c-.04.06-.1.09-.16.09Z"/>
              <path class="cls-21" d="m46.19,101.11s-.07,0-.1-.03c-.09-.05-.12-.17-.06-.26l1.41-2.31c.05-.09.17-.12.26-.06.09.05.12.17.06.26l-1.41,2.31c-.03.06-.1.09-.16.09Z"/>
              <path class="cls-21" d="m46.22,127.54s-.07-.01-.11-.03c-.08-.06-.11-.17-.05-.26,6.17-9,11.8-18.5,16.72-28.23.05-.09.16-.13.25-.08.09.05.13.16.08.25-4.93,9.75-10.56,19.27-16.75,28.28-.04.05-.09.08-.15.08Z"/>
              <path class="cls-21" d="m48.49,131.7s-.07-.01-.11-.03c-.08-.06-.11-.17-.05-.26,5.41-7.84,10.43-16.07,14.94-24.47.05-.09.16-.13.25-.08.09.05.12.16.08.25-4.51,8.41-9.54,16.65-14.96,24.5-.04.05-.09.08-.15.08Z"/>
              <path class="cls-27" d="m27.39,38.75c-.48-6.02-1.52-12-2.91-17.84,5.91-2.19,11.89-4.18,18.01-5.94-.13,2.29.08,4.69,1.26,6.65,1.18,1.97,3.51,3.37,5.75,2.9,2.37-.5,3.96-3.02,3.91-5.45-.05-2.42-1.46-4.66-3.37-6.39,6.13-1.28,12.14-3.12,17.9-5.45,1.04,6.01,2.56,11.93,4.4,17.69,2.33.06,4.13-2,5.28-4.03.28-.49.54-1,.96-1.39,1.21-1.13,3.24-.75,4.53.27,2.25,1.78,2.88,5.22,1.61,7.78-1.27,2.57-4.22,4.13-7.08,3.96-.29-.02-.58-.05-.86.04-.21.07-.39.21-.54.38-.9.99-.55,2.54-.15,3.81.47,1.47.93,2.93,1.31,4.26,1.16,3.07,2.32,6.15,3.19,9.32-5.08,1.63-10.07,3.53-15,5.58.42-4.03.85-8.06,1.27-12.1.05-.47.1-.97-.1-1.41-.36-.82-1.47-1.08-2.3-.77s-1.45,1.02-1.98,1.74c-1.83,2.51-3.04,5.42-4.12,8.33-1.09,2.94-2.15,6.06-4.57,8.21-6.08,1.78-12.16,3.55-18.15,5.34-1.03-4.88-3.64-9.76-4.4-14.6.33-.95,1.77-.9,2.65-1.38,1.88-1.04,3.41-2.71,4.27-4.68.86-1.97.64-4.5-.93-5.97-1.36-1.27-3.44-1.51-5.27-1.13-1.72.35-3.33,1.19-4.55,2.28Z"/>
              <g class="cls-36">
                <path class="cls-21" d="m66.21,129.33c-.07-2.91.12-5.84-.17-8.74-.16-2.52-.21-3.36-.46-5.2-.07-1.03-.01-2.07-.12-3.11-.24-2.75-.41-5.53-.1-8.28.45-2.89.13-3.11.79-5.76.25-.43.45-.9.29-1.4-.14-.56-.59-.92-1.1-1.04.11-.7-.06-.59-.04-1.22-.02-.75.19-1.54.03-2.26-.15-.4-.54-.53-.88-.45-.03-.01-.06-.02-.09-.03-.27-.41-.93-.43-1.14.11-.28.54-.19,1.14-.28,1.72-.05.82-.25,1.7-.08,2.51.05.13.12.22.21.29.11.19.26.32.44.4-.26.67-.32,1.4-.36,2.11-.05,1.18-.03,2.37.1,3.54-.02-.11-.05-.43-.04-.21.03.88.01,1.76.06,2.63.03,1.81-.02,3.63,0,5.44.01,1.57.12,3.13.23,4.69-.05,1.53-.11,3.07.01,4.6.27,4.01.18,9.28.6,10.75,0,.03,0,.06.01.09-.38.95.6,2.19,1.78,1.55.68-.38.76-1.3.34-1.86-.02-.3-.02-.59-.02-.89Z"/>
              </g>
              <g class="cls-36">
                <path class="cls-21" d="m83.53,47.76c0,.68-.12,1.34-.34,1.98.2-.42.37-.82.4-1.47-.02-.28.02-.34-.06-.51Z"/>
              </g>
              <g class="cls-36">
                <path class="cls-21" d="m64.03,68.47c-.47.62-.9,1.27-1.3,1.93-.11.31-.22.62-.33.93-.46,1.29-.67,2.69-1.12,4.63-.31,2.36-.38,4.74-.39,7.12-.02,1.48,0,3-.03,5.04.03,1.11-.12,2.27.13,3.35.38,1.01,1.97.7,1.95-.39-.16-1.86-.07-3.73-.22-5.58.04-1.54.14-2.5.21-4.41,0-.03,0-.06,0-.1.3-.09.55-.34.56-.76.11-2.56,1.01-5.03,1.3-8.02.02-.29.06-.61-.07-.87.63-1.68,1.3-3.03,2.51-4.97.23-.36.43-.75.64-1.12.58-.67,1.21-1.29,1.84-1.92.04-.04.08-.07.12-.11-2.2,1.42-4.17,3.14-5.78,5.25Z"/>
              </g>
              <g class="cls-36">
                <path class="cls-21" d="m78.91,55.8c.27-.24.54-.5.8-.76.33-.38.65-.8.93-1.19-.48.55-.99,1.08-1.54,1.58-.24.22-.49.43-.74.65.18-.09.37-.18.55-.27Z"/>
              </g>
              <g class="cls-36">
                <path class="cls-21" d="m79.49,49.65s.04-.03.05-.05c.06-.1.08-.21.08-.32-.03.02-.05.04-.09.05-.81.36-1.69.55-2.53.8-.83.25-1.65.5-2.47.76-1.67.53-3.32,1.11-4.97,1.73-.06.02-.11.03-.16.04,0,.01,0,.02,0,.03,0,0,0,.01,0,.02,0,.04,0,.08-.02.12,0,.03,0,.05,0,.08,0,0,0,0,0,.01,0,0,0,0,0,0,0,0,0,0,0,0,0,0,0,.02,0,.03,0,0,0-.01,0-.02.02.13.01.24-.05.36-.02.03-.05.05-.07.08,0,.2-.1.38-.28.46-.23.1-.45,0-.6-.2-.28-.39-.22-.95-.21-1.41,0-.24.02-.48.04-.72,0-.06-.02-.12-.03-.18,0-.04,0-.08,0-.12-.11-.38-.28-1.08-.3-1.51,0-.11-.02-.21-.06-.3,0-.22,0-.44,0-.66.1-1.59.37-3.17.2-4.77-.05-.58-.13-1.16-.15-1.74-.06-.31-.01-.69-.22-.95-.41-.58-1.37-.1-1.16.58.17,1.25.02,3.74-.27,4.98-.2,1.37-.72,2.7-.78,4.08,0,.66-.05,1.31-.01,1.97.01.36.08.74.35.99.55.59,1.53.33,1.85-.33.22.04.46.05.7.03-.98.42-2,.89-3.01,1.49,0,.69,0,1.38-.03,2.08,0,.11-.01.23-.01.34.36.21.83.25,1.33-.02,2.91-1.98,6.16-3.38,9.29-4.96.9-.48,1.83-.92,2.32-1.1.44-.23,1.01-.3,1.34-.68.3-.36.19-.81-.08-1.08Z"/>
              </g>
              <g class="cls-36">
                <path class="cls-21" d="m85.27,21.41c-.42-.26-1.01-.01-1.14.46-.07.21,0,.42.04.64.04.36.01.71-.03,1.07-.03.26-.06.64-.27,1.31-.02.04-.03.09-.05.13,0,0,0,0,0,0-.2.44-.45.86-.74,1.25-.15.21-.23.3-.02.04-.92,1.28-1.86,2.24-3.81,3.12-.87.36-1.87.42-2.69.87-.8.56-.14,1.88.8,1.6,1.2-.32,2.43-.51,3.53-1.11,2.1-1.1,3.96-2.91,4.55-5.26.23-.94.72-3.52-.17-4.13Z"/>
              </g>
              <path class="cls-21" d="m47.05,91.79c-.31,0-.56-.25-.56-.56,0-2.86.27-5.79.55-8.88.32-3.54.66-7.19.68-11.38,0-.52-.03-1.29-.06-2.18-.08-2.24-.18-5.03.1-6.36.48-2.22,1.81-2.56,3.09-2.88.84-.21,1.7-.43,2.6-1.14,2.06-1.63,3.43-5.18,4.75-8.6,1.26-3.27,2.45-6.36,4.27-8.2.83-.84,1.95-1.77,3.25-1.46.62.15,1.08.47,1.37.95.57.95.33,2.28.06,3.32-.61,2.34-.7,4.85-.78,7.27-.07,1.88-.13,3.66-.43,5.29-.06.3-.35.5-.65.45-.3-.06-.5-.35-.45-.65.28-1.55.34-3.29.41-5.13.09-2.49.18-5.05.82-7.51.31-1.21.34-2.02.06-2.47-.13-.22-.35-.36-.67-.44-.76-.18-1.57.52-2.2,1.16-1.66,1.67-2.86,4.8-4.02,7.81-1.37,3.57-2.79,7.25-5.09,9.08-1.08.86-2.16,1.13-3.02,1.35-1.25.31-1.93.49-2.27,2.03-.26,1.2-.15,4.02-.08,6.09.03.9.06,1.68.06,2.23-.02,4.24-.36,7.91-.68,11.47-.28,3.07-.55,5.97-.55,8.78,0,.31-.25.56-.56.56Z"/>
              <path class="cls-21" d="m35.87,64.66c-.23,0-.44-.14-.52-.36-2.04-5.46-3.51-10.06-4.78-14.91-.08-.29.09-.58.37-.67,1.9-.6,4.27-1.34,5.65-3.03.47-.58.84-1.28,1.1-2.08.64-1.96.34-4.57-1.46-5.76-.51-.34-1.17-.58-1.96-.7-2.32-.37-4.91.46-6.46,2.06-.15.16-.38.21-.59.14-.21-.07-.35-.26-.37-.47-.58-6.04-1.62-11.98-3.1-17.67-.07-.28.08-.56.35-.66,6.67-2.45,12.49-4.37,18.3-6.03.19-.05.4,0,.54.13.14.14.2.34.16.53-.78,3.21.93,6.87,3.88,8.34,1.16.58,2.29.68,3.12.3.45-.21.89-.6,1.28-1.16.99-1.39,1.37-3.27,1.01-5.01-.42-2.02-1.73-3.62-2.75-4.6-.15-.14-.21-.35-.15-.55.05-.2.21-.35.41-.4,5.92-1.35,12.05-2.74,17.87-5.56.16-.08.34-.07.5,0,.16.08.26.23.3.4.48,2.62,2.17,11.55,4.07,17.37.28.12.58.13.91.04.79-.22,1.67-1.01,2.2-1.99.14-.26.27-.52.4-.79.67-1.33,1.43-2.85,2.97-3.4.73-.26,1.6-.27,2.51-.02,3.25.87,5.4,4.61,4.61,7.99-.76,3.24-3.95,5.68-7.41,5.68-.13,0-.26,0-.39,0-.56-.01-1.09-.03-1.47.2-.82.5-.68,1.9-.42,2.99.74,3.08,1.66,5.39,2.63,7.84.72,1.81,1.46,3.69,2.22,6.05.09.28-.05.57-.31.68-1.62.68-3.71,1.45-5.93,2.26-3.19,1.17-6.49,2.38-8.8,3.5-.28.13-.61.02-.75-.26-.13-.28-.02-.61.26-.75,2.36-1.14,5.69-2.36,8.9-3.54,1.99-.73,3.88-1.42,5.4-2.05-.69-2.11-1.38-3.83-2.04-5.5-.98-2.48-1.92-4.83-2.68-7.99-.63-2.63.15-3.74.93-4.21.66-.4,1.41-.38,2.07-.37.12,0,.23.01.36,0,2.91,0,5.69-2.12,6.32-4.82.65-2.77-1.16-5.95-3.81-6.66-.48-.13-1.2-.24-1.84,0-1.12.4-1.71,1.59-2.34,2.85-.14.28-.28.55-.42.82-.51.94-1.57,2.17-2.88,2.53-.69.19-1.37.1-1.95-.25-.11-.07-.2-.18-.24-.3-1.8-5.44-3.43-13.69-4.05-17.02-5.42,2.51-11.03,3.86-16.49,5.11.97,1.09,1.99,2.6,2.37,4.45.42,2.04-.02,4.24-1.19,5.88-.51.72-1.09,1.23-1.72,1.53-1.55.73-3.23.12-4.09-.31-3.12-1.55-5.03-5.24-4.63-8.69-5.36,1.56-10.76,3.34-16.88,5.59,1.34,5.26,2.31,10.72,2.9,16.27,1.8-1.36,4.31-2.01,6.59-1.64.95.15,1.75.45,2.4.87,2.27,1.5,2.68,4.68,1.91,7.04-.3.94-.74,1.76-1.3,2.44-1.47,1.79-3.73,2.61-5.67,3.23,1.19,4.49,2.57,8.81,4.44,13.85,3.35-.61,6.72-1.68,9.98-2.72.87-.28,2.36-.8,3.81-1.31,1.46-.51,2.97-1.04,3.85-1.33.29-.09.61.07.7.36.09.29-.07.61-.36.7-.87.28-2.37.8-3.82,1.31-1.45.51-2.95,1.04-3.84,1.32-3.45,1.1-7.02,2.23-10.59,2.84-.03,0-.06,0-.09,0Z"/>
              <path class="cls-21" d="m63.47,92.11c-.28,0-.52-.21-.55-.5-.76-7,.24-16.6,2.34-22.33,1.72-4.7,6.04-8,9.86-10.91,3.23-2.46,6.27-4.79,7.09-7.47.88-2.9.82-3.01-.56-5.88-.65-1.36-1.64-3.41-2.93-6.62-.24-.61-.48-1.16-.68-1.26-.2-.1-.79.06-1.43.25-.3.09-.61-.08-.69-.38-.09-.3.08-.61.38-.69,2.15-.63,2.64-.4,3.46,1.67,1.27,3.18,2.21,5.13,2.89,6.55,1.44,2.99,1.63,3.38.62,6.69-.92,3.03-4.1,5.46-7.48,8.04-3.69,2.82-7.88,6.01-9.48,10.41-2.04,5.59-3.02,14.98-2.28,21.83.03.31-.19.58-.49.62-.02,0-.04,0-.06,0Z"/>
              <path class="cls-21" d="m43.75,131.75s-.01,0-.02,0c-.31-.01-.55-.27-.54-.58.42-11.46.57-23.08.44-34.55,0-.27.19-.5.45-.55,4.32-.84,8.56-.62,12.66-.4,3.07.16,6.14.32,9.18.47.15,0,.3.08.4.2.1.12.15.27.13.42-.59,5.25-.4,10.63-.2,15.83l.68,18.52c.01.31-.23.57-.54.58-.32.01-.57-.23-.58-.54l-.68-18.52c-.19-5.05-.38-10.27.15-15.41-2.85-.14-5.72-.29-8.59-.44-3.88-.2-7.9-.41-11.93.3.12,11.33-.03,22.81-.45,34.13-.01.3-.26.54-.56.54Z"/>
              <path class="cls-21" d="m45.01,96.88s-.01,0-.02,0c-.31,0-.55-.26-.54-.57l.13-4.82c0-.29.24-.53.54-.54,6.76-.25,13.61-.08,20.36.51.29.03.51.27.51.56,0,1.46-.11,2.93-.3,4.38-.04.31-.32.52-.63.48-.31-.04-.52-.32-.48-.63.17-1.23.26-2.47.29-3.72-6.36-.54-12.81-.7-19.18-.48l-.12,4.3c0,.3-.26.54-.56.54Z"/>
              <path class="cls-21" d="m84.27,60.6c-.11,0-.23-.03-.32-.1-.25-.18-.31-.53-.13-.78,3.32-4.65,5.34-10.11,5.84-15.8.03-.31.3-.53.61-.51.31.03.53.3.51.61-.52,5.89-2.61,11.54-6.05,16.35-.11.15-.28.23-.45.23Z"/>
              <path class="cls-21" d="m90.25,63.49c-.09,0-.19-.02-.27-.07-.27-.15-.37-.49-.21-.76l4.94-8.82c.15-.27.49-.36.76-.21.27.15.37.49.21.76l-4.94,8.82c-.1.18-.29.29-.49.29Z"/>
              <path class="cls-21" d="m46.66,105.57s-.07,0-.1-.03c-.09-.05-.12-.17-.06-.26l4.63-7.7c.05-.09.17-.12.26-.06.09.05.12.17.06.26l-4.63,7.7c-.03.06-.1.09-.16.09Z"/>
              <path class="cls-21" d="m45.46,113.16s-.07,0-.1-.03c-.09-.05-.11-.17-.06-.26l9.26-14.67c.05-.09.17-.11.26-.06.09.05.11.17.06.26l-9.26,14.67c-.04.06-.1.09-.16.09Z"/>
              <path class="cls-21" d="m46.11,119.62s-.07,0-.1-.03c-.09-.06-.11-.17-.06-.26l13.1-20.7c.06-.09.17-.11.26-.06.09.06.11.17.06.26l-13.1,20.7c-.04.06-.1.09-.16.09Z"/>
              <path class="cls-21" d="m46.19,101.11s-.07,0-.1-.03c-.09-.05-.12-.17-.06-.26l1.41-2.31c.05-.09.17-.12.26-.06.09.05.12.17.06.26l-1.41,2.31c-.03.06-.1.09-.16.09Z"/>
              <path class="cls-21" d="m46.22,127.54s-.07-.01-.11-.03c-.08-.06-.11-.17-.05-.26,6.17-9,11.8-18.5,16.72-28.23.05-.09.16-.13.25-.08.09.05.13.16.08.25-4.93,9.75-10.56,19.27-16.75,28.28-.04.05-.09.08-.15.08Z"/>
              <path class="cls-21" d="m48.49,131.7s-.07-.01-.11-.03c-.08-.06-.11-.17-.05-.26,5.41-7.84,10.43-16.07,14.94-24.47.05-.09.16-.13.25-.08.09.05.12.16.08.25-4.51,8.41-9.54,16.65-14.96,24.5-.04.05-.09.08-.15.08Z"/>
              <path class="cls-26" d="m27.39,38.75c-.48-6.02-1.52-12-2.91-17.84,5.91-2.19,11.89-4.18,18.01-5.94-.13,2.29.08,4.69,1.26,6.65,1.18,1.97,3.51,3.37,5.75,2.9,2.37-.5,3.96-3.02,3.91-5.45-.05-2.42-1.46-4.66-3.37-6.39,6.13-1.28,12.14-3.12,17.9-5.45,1.04,6.01,2.56,11.93,4.4,17.69,2.33.06,4.13-2,5.28-4.03.28-.49.54-1,.96-1.39,1.21-1.13,3.24-.75,4.53.27,2.25,1.78,2.88,5.22,1.61,7.78-1.27,2.57-4.22,4.13-7.08,3.96-.29-.02-.58-.05-.86.04-.21.07-.39.21-.54.38-.9.99-.55,2.54-.15,3.81.47,1.47.93,2.93,1.31,4.26,1.16,3.07,2.32,6.15,3.19,9.32-5.08,1.63-10.07,3.53-15,5.58.42-4.03.85-8.06,1.27-12.1.05-.47.1-.97-.1-1.41-.36-.82-1.47-1.08-2.3-.77s-1.45,1.02-1.98,1.74c-1.83,2.51-3.04,5.42-4.12,8.33-1.09,2.94-2.15,6.06-4.57,8.21-6.08,1.78-12.16,3.55-18.15,5.34-1.03-4.88-3.64-9.76-4.4-14.6.33-.95,1.77-.9,2.65-1.38,1.88-1.04,3.41-2.71,4.27-4.68.86-1.97.64-4.5-.93-5.97-1.36-1.27-3.44-1.51-5.27-1.13-1.72.35-3.33,1.19-4.55,2.28Z"/>
              <g class="cls-36">
                <path class="cls-21" d="m66.21,129.33c-.07-2.91.12-5.84-.17-8.74-.16-2.52-.21-3.36-.46-5.2-.07-1.03-.01-2.07-.12-3.11-.24-2.75-.41-5.53-.1-8.28.45-2.89.13-3.11.79-5.76.25-.43.45-.9.29-1.4-.14-.56-.59-.92-1.1-1.04.11-.7-.06-.59-.04-1.22-.02-.75.19-1.54.03-2.26-.15-.4-.54-.53-.88-.45-.03-.01-.06-.02-.09-.03-.27-.41-.93-.43-1.14.11-.28.54-.19,1.14-.28,1.72-.05.82-.25,1.7-.08,2.51.05.13.12.22.21.29.11.19.26.32.44.4-.26.67-.32,1.4-.36,2.11-.05,1.18-.03,2.37.1,3.54-.02-.11-.05-.43-.04-.21.03.88.01,1.76.06,2.63.03,1.81-.02,3.63,0,5.44.01,1.57.12,3.13.23,4.69-.05,1.53-.11,3.07.01,4.6.27,4.01.18,9.28.6,10.75,0,.03,0,.06.01.09-.38.95.6,2.19,1.78,1.55.68-.38.76-1.3.34-1.86-.02-.3-.02-.59-.02-.89Z"/>
              </g>
              <g class="cls-36">
                <path class="cls-21" d="m83.53,47.76c0,.68-.12,1.34-.34,1.98.2-.42.37-.82.4-1.47-.02-.28.02-.34-.06-.51Z"/>
              </g>
              <g class="cls-36">
                <path class="cls-21" d="m64.03,68.47c-.47.62-.9,1.27-1.3,1.93-.11.31-.22.62-.33.93-.46,1.29-.67,2.69-1.12,4.63-.31,2.36-.38,4.74-.39,7.12-.02,1.48,0,3-.03,5.04.03,1.11-.12,2.27.13,3.35.38,1.01,1.97.7,1.95-.39-.16-1.86-.07-3.73-.22-5.58.04-1.54.14-2.5.21-4.41,0-.03,0-.06,0-.1.3-.09.55-.34.56-.76.11-2.56,1.01-5.03,1.3-8.02.02-.29.06-.61-.07-.87.63-1.68,1.3-3.03,2.51-4.97.23-.36.43-.75.64-1.12.58-.67,1.21-1.29,1.84-1.92.04-.04.08-.07.12-.11-2.2,1.42-4.17,3.14-5.78,5.25Z"/>
              </g>
              <g class="cls-36">
                <path class="cls-21" d="m78.91,55.8c.27-.24.54-.5.8-.76.33-.38.65-.8.93-1.19-.48.55-.99,1.08-1.54,1.58-.24.22-.49.43-.74.65.18-.09.37-.18.55-.27Z"/>
              </g>
              <g class="cls-36">
                <path class="cls-21" d="m79.49,49.65s.04-.03.05-.05c.06-.1.08-.21.08-.32-.03.02-.05.04-.09.05-.81.36-1.69.55-2.53.8-.83.25-1.65.5-2.47.76-1.67.53-3.32,1.11-4.97,1.73-.06.02-.11.03-.16.04,0,.01,0,.02,0,.03,0,0,0,.01,0,.02,0,.04,0,.08-.02.12,0,.03,0,.05,0,.08,0,0,0,0,0,.01,0,0,0,0,0,0,0,0,0,0,0,0,0,0,0,.02,0,.03,0,0,0-.01,0-.02.02.13.01.24-.05.36-.02.03-.05.05-.07.08,0,.2-.1.38-.28.46-.23.1-.45,0-.6-.2-.28-.39-.22-.95-.21-1.41,0-.24.02-.48.04-.72,0-.06-.02-.12-.03-.18,0-.04,0-.08,0-.12-.11-.38-.28-1.08-.3-1.51,0-.11-.02-.21-.06-.3,0-.22,0-.44,0-.66.1-1.59.37-3.17.2-4.77-.05-.58-.13-1.16-.15-1.74-.06-.31-.01-.69-.22-.95-.41-.58-1.37-.1-1.16.58.17,1.25.02,3.74-.27,4.98-.2,1.37-.72,2.7-.78,4.08,0,.66-.05,1.31-.01,1.97.01.36.08.74.35.99.55.59,1.53.33,1.85-.33.22.04.46.05.7.03-.98.42-2,.89-3.01,1.49,0,.69,0,1.38-.03,2.08,0,.11-.01.23-.01.34.36.21.83.25,1.33-.02,2.91-1.98,6.16-3.38,9.29-4.96.9-.48,1.83-.92,2.32-1.1.44-.23,1.01-.3,1.34-.68.3-.36.19-.81-.08-1.08Z"/>
              </g>
              <g class="cls-36">
                <path class="cls-21" d="m85.27,21.41c-.42-.26-1.01-.01-1.14.46-.07.21,0,.42.04.64.04.36.01.71-.03,1.07-.03.26-.06.64-.27,1.31-.02.04-.03.09-.05.13,0,0,0,0,0,0-.2.44-.45.86-.74,1.25-.15.21-.23.3-.02.04-.92,1.28-1.86,2.24-3.81,3.12-.87.36-1.87.42-2.69.87-.8.56-.14,1.88.8,1.6,1.2-.32,2.43-.51,3.53-1.11,2.1-1.1,3.96-2.91,4.55-5.26.23-.94.72-3.52-.17-4.13Z"/>
              </g>
              <path class="cls-21" d="m47.05,91.79c-.31,0-.56-.25-.56-.56,0-2.86.27-5.79.55-8.88.32-3.54.66-7.19.68-11.38,0-.52-.03-1.29-.06-2.18-.08-2.24-.18-5.03.1-6.36.48-2.22,1.81-2.56,3.09-2.88.84-.21,1.7-.43,2.6-1.14,2.06-1.63,3.43-5.18,4.75-8.6,1.26-3.27,2.45-6.36,4.27-8.2.83-.84,1.95-1.77,3.25-1.46.62.15,1.08.47,1.37.95.57.95.33,2.28.06,3.32-.61,2.34-.7,4.85-.78,7.27-.07,1.88-.13,3.66-.43,5.29-.06.3-.35.5-.65.45-.3-.06-.5-.35-.45-.65.28-1.55.34-3.29.41-5.13.09-2.49.18-5.05.82-7.51.31-1.21.34-2.02.06-2.47-.13-.22-.35-.36-.67-.44-.76-.18-1.57.52-2.2,1.16-1.66,1.67-2.86,4.8-4.02,7.81-1.37,3.57-2.79,7.25-5.09,9.08-1.08.86-2.16,1.13-3.02,1.35-1.25.31-1.93.49-2.27,2.03-.26,1.2-.15,4.02-.08,6.09.03.9.06,1.68.06,2.23-.02,4.24-.36,7.91-.68,11.47-.28,3.07-.55,5.97-.55,8.78,0,.31-.25.56-.56.56Z"/>
              <path class="cls-21" d="m35.87,64.66c-.23,0-.44-.14-.52-.36-2.04-5.46-3.51-10.06-4.78-14.91-.08-.29.09-.58.37-.67,1.9-.6,4.27-1.34,5.65-3.03.47-.58.84-1.28,1.1-2.08.64-1.96.34-4.57-1.46-5.76-.51-.34-1.17-.58-1.96-.7-2.32-.37-4.91.46-6.46,2.06-.15.16-.38.21-.59.14-.21-.07-.35-.26-.37-.47-.58-6.04-1.62-11.98-3.1-17.67-.07-.28.08-.56.35-.66,6.67-2.45,12.49-4.37,18.3-6.03.19-.05.4,0,.54.13.14.14.2.34.16.53-.78,3.21.93,6.87,3.88,8.34,1.16.58,2.29.68,3.12.3.45-.21.89-.6,1.28-1.16.99-1.39,1.37-3.27,1.01-5.01-.42-2.02-1.73-3.62-2.75-4.6-.15-.14-.21-.35-.15-.55.05-.2.21-.35.41-.4,5.92-1.35,12.05-2.74,17.87-5.56.16-.08.34-.07.5,0,.16.08.26.23.3.4.48,2.62,2.17,11.55,4.07,17.37.28.12.58.13.91.04.79-.22,1.67-1.01,2.2-1.99.14-.26.27-.52.4-.79.67-1.33,1.43-2.85,2.97-3.4.73-.26,1.6-.27,2.51-.02,3.25.87,5.4,4.61,4.61,7.99-.76,3.24-3.95,5.68-7.41,5.68-.13,0-.26,0-.39,0-.56-.01-1.09-.03-1.47.2-.82.5-.68,1.9-.42,2.99.74,3.08,1.66,5.39,2.63,7.84.72,1.81,1.46,3.69,2.22,6.05.09.28-.05.57-.31.68-1.62.68-3.71,1.45-5.93,2.26-3.19,1.17-6.49,2.38-8.8,3.5-.28.13-.61.02-.75-.26-.13-.28-.02-.61.26-.75,2.36-1.14,5.69-2.36,8.9-3.54,1.99-.73,3.88-1.42,5.4-2.05-.69-2.11-1.38-3.83-2.04-5.5-.98-2.48-1.92-4.83-2.68-7.99-.63-2.63.15-3.74.93-4.21.66-.4,1.41-.38,2.07-.37.12,0,.23.01.36,0,2.91,0,5.69-2.12,6.32-4.82.65-2.77-1.16-5.95-3.81-6.66-.48-.13-1.2-.24-1.84,0-1.12.4-1.71,1.59-2.34,2.85-.14.28-.28.55-.42.82-.51.94-1.57,2.17-2.88,2.53-.69.19-1.37.1-1.95-.25-.11-.07-.2-.18-.24-.3-1.8-5.44-3.43-13.69-4.05-17.02-5.42,2.51-11.03,3.86-16.49,5.11.97,1.09,1.99,2.6,2.37,4.45.42,2.04-.02,4.24-1.19,5.88-.51.72-1.09,1.23-1.72,1.53-1.55.73-3.23.12-4.09-.31-3.12-1.55-5.03-5.24-4.63-8.69-5.36,1.56-10.76,3.34-16.88,5.59,1.34,5.26,2.31,10.72,2.9,16.27,1.8-1.36,4.31-2.01,6.59-1.64.95.15,1.75.45,2.4.87,2.27,1.5,2.68,4.68,1.91,7.04-.3.94-.74,1.76-1.3,2.44-1.47,1.79-3.73,2.61-5.67,3.23,1.19,4.49,2.57,8.81,4.44,13.85,3.35-.61,6.72-1.68,9.98-2.72.87-.28,2.36-.8,3.81-1.31,1.46-.51,2.97-1.04,3.85-1.33.29-.09.61.07.7.36.09.29-.07.61-.36.7-.87.28-2.37.8-3.82,1.31-1.45.51-2.95,1.04-3.84,1.32-3.45,1.1-7.02,2.23-10.59,2.84-.03,0-.06,0-.09,0Z"/>
              <path class="cls-21" d="m63.47,92.11c-.28,0-.52-.21-.55-.5-.76-7,.24-16.6,2.34-22.33,1.72-4.7,6.04-8,9.86-10.91,3.23-2.46,6.27-4.79,7.09-7.47.88-2.9.82-3.01-.56-5.88-.65-1.36-1.64-3.41-2.93-6.62-.24-.61-.48-1.16-.68-1.26-.2-.1-.79.06-1.43.25-.3.09-.61-.08-.69-.38-.09-.3.08-.61.38-.69,2.15-.63,2.64-.4,3.46,1.67,1.27,3.18,2.21,5.13,2.89,6.55,1.44,2.99,1.63,3.38.62,6.69-.92,3.03-4.1,5.46-7.48,8.04-3.69,2.82-7.88,6.01-9.48,10.41-2.04,5.59-3.02,14.98-2.28,21.83.03.31-.19.58-.49.62-.02,0-.04,0-.06,0Z"/>
              <path class="cls-21" d="m43.75,131.75s-.01,0-.02,0c-.31-.01-.55-.27-.54-.58.42-11.46.57-23.08.44-34.55,0-.27.19-.5.45-.55,4.32-.84,8.56-.62,12.66-.4,3.07.16,6.14.32,9.18.47.15,0,.3.08.4.2.1.12.15.27.13.42-.59,5.25-.4,10.63-.2,15.83l.68,18.52c.01.31-.23.57-.54.58-.32.01-.57-.23-.58-.54l-.68-18.52c-.19-5.05-.38-10.27.15-15.41-2.85-.14-5.72-.29-8.59-.44-3.88-.2-7.9-.41-11.93.3.12,11.33-.03,22.81-.45,34.13-.01.3-.26.54-.56.54Z"/>
              <path class="cls-21" d="m45.01,96.88s-.01,0-.02,0c-.31,0-.55-.26-.54-.57l.13-4.82c0-.29.24-.53.54-.54,6.76-.25,13.61-.08,20.36.51.29.03.51.27.51.56,0,1.46-.11,2.93-.3,4.38-.04.31-.32.52-.63.48-.31-.04-.52-.32-.48-.63.17-1.23.26-2.47.29-3.72-6.36-.54-12.81-.7-19.18-.48l-.12,4.3c0,.3-.26.54-.56.54Z"/>
              <path class="cls-21" d="m84.27,60.6c-.11,0-.23-.03-.32-.1-.25-.18-.31-.53-.13-.78,3.32-4.65,5.34-10.11,5.84-15.8.03-.31.3-.53.61-.51.31.03.53.3.51.61-.52,5.89-2.61,11.54-6.05,16.35-.11.15-.28.23-.45.23Z"/>
              <path class="cls-21" d="m90.25,63.49c-.09,0-.19-.02-.27-.07-.27-.15-.37-.49-.21-.76l4.94-8.82c.15-.27.49-.36.76-.21.27.15.37.49.21.76l-4.94,8.82c-.1.18-.29.29-.49.29Z"/>
            </g>
          </g>
        </g>
      </g>
    </g>
  </g>
</svg>