<?xml version="1.0" encoding="UTF-8"?>
<svg xmlns="http://www.w3.org/2000/svg" xmlns:xlink="http://www.w3.org/1999/xlink" viewBox="0 0 112.7 113.11">
  <defs>
    <style>
      .cls-1 {
        fill: none;
      }

      .cls-2 {
        fill: url(#radial-gradient-3);
      }

      .cls-2, .cls-3, .cls-4, .cls-5, .cls-6, .cls-7, .cls-8 {
        mix-blend-mode: multiply;
      }

      .cls-9 {
        mask: url(#mask-13);
      }

      .cls-10 {
        mask: url(#mask-12);
      }

      .cls-11 {
        mask: url(#mask-11);
      }

      .cls-12 {
        mask: url(#mask-10);
      }

      .cls-13 {
        fill: url(#linear-gradient);
      }

      .cls-14 {
        filter: url(#luminosity-noclip-9);
      }

      .cls-15 {
        filter: url(#luminosity-noclip-7);
      }

      .cls-16 {
        filter: url(#luminosity-noclip-3);
      }

      .cls-17 {
        filter: url(#luminosity-noclip-5);
      }

      .cls-18 {
        clip-path: url(#clippath);
      }

      .cls-19 {
        mask: url(#mask);
      }

      .cls-20 {
        filter: url(#luminosity-noclip);
      }

      .cls-21 {
        fill: #010101;
      }

      .cls-22 {
        fill: #687a97;
      }

      .cls-23 {
        fill: #e7edf9;
      }

      .cls-24, .cls-25 {
        fill: #fff;
      }

      .cls-26 {
        filter: url(#luminosity-noclip-13);
      }

      .cls-27 {
        filter: url(#luminosity-noclip-11);
      }

      .cls-3 {
        fill: url(#linear-gradient-7);
      }

      .cls-4 {
        fill: url(#linear-gradient-5);
      }

      .cls-5 {
        fill: url(#linear-gradient-9);
      }

      .cls-6 {
        fill: url(#linear-gradient-2);
      }

      .cls-28 {
        fill: url(#radial-gradient-4);
      }

      .cls-29 {
        fill: url(#radial-gradient-2);
      }

      .cls-30 {
        fill: url(#linear-gradient-4);
        mix-blend-mode: color-burn;
      }

      .cls-25 {
        opacity: .2;
      }

      .cls-31 {
        fill: url(#linear-gradient-8);
      }

      .cls-32 {
        fill: url(#linear-gradient-3);
      }

      .cls-33 {
        fill: url(#linear-gradient-6);
      }

      .cls-34 {
        opacity: .13;
      }

      .cls-7 {
        fill: url(#radial-gradient);
      }

      .cls-35 {
        opacity: .26;
      }

      .cls-36 {
        opacity: .9;
      }

      .cls-37 {
        opacity: .76;
      }

      .cls-38 {
        opacity: .72;
      }

      .cls-39 {
        fill: url(#linear-gradient-11);
      }

      .cls-40 {
        isolation: isolate;
      }

      .cls-8 {
        fill: url(#linear-gradient-10);
      }

      .cls-41 {
        mask: url(#mask-3);
      }

      .cls-42 {
        mask: url(#mask-2);
      }

      .cls-43 {
        mask: url(#mask-5);
      }

      .cls-44 {
        mask: url(#mask-4);
      }

      .cls-45 {
        mask: url(#mask-1);
      }

      .cls-46 {
        mask: url(#mask-7);
      }

      .cls-47 {
        mask: url(#mask-6);
      }

      .cls-48 {
        mask: url(#mask-8);
      }

      .cls-49 {
        mask: url(#mask-9);
      }

      .cls-50 {
        mix-blend-mode: soft-light;
        opacity: .3;
      }
    </style>
    <linearGradient id="linear-gradient" x1="56.49" y1="113.11" x2="56.49" y2=".67" gradientUnits="userSpaceOnUse">
      <stop offset="0" stop-color="#c1c4cb"/>
      <stop offset=".06" stop-color="#c9cdd5"/>
      <stop offset=".2" stop-color="#d8dce5"/>
      <stop offset=".35" stop-color="#e1e6ef"/>
      <stop offset=".53" stop-color="#e4e9f3"/>
      <stop offset="1" stop-color="#f4f4f7"/>
    </linearGradient>
    <filter id="luminosity-noclip" x="1.51" y="2.18" width="109.76" height="109.76" color-interpolation-filters="sRGB" filterUnits="userSpaceOnUse">
      <feFlood flood-color="#fff" result="bg"/>
      <feBlend in="SourceGraphic" in2="bg"/>
    </filter>
    <filter id="luminosity-noclip-2" x="1.51" y="-8195.87" width="109.76" height="32766" color-interpolation-filters="sRGB" filterUnits="userSpaceOnUse">
      <feFlood flood-color="#fff" result="bg"/>
      <feBlend in="SourceGraphic" in2="bg"/>
    </filter>
    <mask id="mask-1" x="1.51" y="-8195.87" width="109.76" height="32766" maskUnits="userSpaceOnUse"/>
    <radialGradient id="radial-gradient" cx="56.39" cy="57.05" fx="56.39" fy="57.05" r="54.88" gradientUnits="userSpaceOnUse">
      <stop offset=".97" stop-color="#000"/>
      <stop offset=".99" stop-color="#b3b3b3"/>
      <stop offset="1" stop-color="#000"/>
    </radialGradient>
    <mask id="mask" x="1.51" y="2.18" width="109.76" height="109.76" maskUnits="userSpaceOnUse">
      <g class="cls-20">
        <g class="cls-45">
          <path class="cls-7" d="m56.39,2.18C26.08,2.18,1.51,26.74,1.51,57.05s24.57,54.88,54.88,54.88,54.88-24.57,54.88-54.88S86.69,2.18,56.39,2.18Zm.2,108.18c-29.44,0-53.31-23.87-53.31-53.3S27.15,3.75,56.59,3.75s53.31,23.86,53.31,53.3-23.87,53.3-53.31,53.3Z"/>
        </g>
      </g>
    </mask>
    <radialGradient id="radial-gradient-2" cx="56.39" cy="57.05" fx="56.39" fy="57.05" r="54.88" gradientUnits="userSpaceOnUse">
      <stop offset=".97" stop-color="#969a9f"/>
      <stop offset=".99" stop-color="#878b90"/>
      <stop offset="1" stop-color="#969a9f"/>
    </radialGradient>
    <filter id="luminosity-noclip-3" x=".27" y=".27" width="112.44" height="112.44" color-interpolation-filters="sRGB" filterUnits="userSpaceOnUse">
      <feFlood flood-color="#fff" result="bg"/>
      <feBlend in="SourceGraphic" in2="bg"/>
    </filter>
    <filter id="luminosity-noclip-4" x=".27" y="-8195.87" width="112.44" height="32766" color-interpolation-filters="sRGB" filterUnits="userSpaceOnUse">
      <feFlood flood-color="#fff" result="bg"/>
      <feBlend in="SourceGraphic" in2="bg"/>
    </filter>
    <mask id="mask-3" x=".27" y="-8195.87" width="112.44" height="32766" maskUnits="userSpaceOnUse"/>
    <radialGradient id="radial-gradient-3" cx="56.49" cy="56.49" fx="56.49" fy="56.49" r="56.22" gradientUnits="userSpaceOnUse">
      <stop offset=".91" stop-color="#000"/>
      <stop offset="1" stop-color="#b3b3b3"/>
    </radialGradient>
    <mask id="mask-2" x=".27" y=".27" width="112.44" height="112.44" maskUnits="userSpaceOnUse">
      <g class="cls-16">
        <g class="cls-41">
          <path class="cls-2" d="m56.49.27C25.44.27.27,25.44.27,56.49s25.17,56.22,56.22,56.22,56.22-25.17,56.22-56.22S87.54.27,56.49.27ZM4.68,56.49C4.68,27.77,27.97,4.49,56.69,4.49s52,23.28,52,52-23.29,52-52,52S4.68,85.21,4.68,56.49Z"/>
        </g>
      </g>
    </mask>
    <radialGradient id="radial-gradient-4" cx="56.49" cy="56.49" fx="56.49" fy="56.49" r="56.22" gradientUnits="userSpaceOnUse">
      <stop offset=".91" stop-color="#a8abb0"/>
      <stop offset="1" stop-color="#a8abb0"/>
    </radialGradient>
    <filter id="luminosity-noclip-5" x="0" y=".67" width="112.44" height="112.44" color-interpolation-filters="sRGB" filterUnits="userSpaceOnUse">
      <feFlood flood-color="#fff" result="bg"/>
      <feBlend in="SourceGraphic" in2="bg"/>
    </filter>
    <filter id="luminosity-noclip-6" x="0" y="-8195.87" width="112.44" height="32766" color-interpolation-filters="sRGB" filterUnits="userSpaceOnUse">
      <feFlood flood-color="#fff" result="bg"/>
      <feBlend in="SourceGraphic" in2="bg"/>
    </filter>
    <mask id="mask-5" x="0" y="-8195.87" width="112.44" height="32766" maskUnits="userSpaceOnUse"/>
    <linearGradient id="linear-gradient-2" x1="56.22" y1="113.11" x2="56.22" y2=".67" gradientUnits="userSpaceOnUse">
      <stop offset="0" stop-color="#000"/>
      <stop offset=".03" stop-color="#000"/>
      <stop offset=".28" stop-color="#000"/>
      <stop offset=".28" stop-color="#000"/>
      <stop offset=".35" stop-color="#3b3b3b"/>
      <stop offset=".43" stop-color="#6f6f6f"/>
      <stop offset=".51" stop-color="#9b9b9b"/>
      <stop offset=".59" stop-color="#bfbfbf"/>
      <stop offset=".67" stop-color="#dbdbdb"/>
      <stop offset=".75" stop-color="#efefef"/>
      <stop offset=".83" stop-color="#fbfbfb"/>
      <stop offset=".91" stop-color="#fff"/>
    </linearGradient>
    <mask id="mask-4" x="0" y=".67" width="112.44" height="112.44" maskUnits="userSpaceOnUse">
      <g class="cls-17">
        <g class="cls-43">
          <path class="cls-6" d="m112.44,56.89c0,31.05-25.17,56.22-56.22,56.22S0,87.94,0,56.89,25.17.67,56.22.67s56.22,25.17,56.22,56.22Z"/>
        </g>
      </g>
    </mask>
    <linearGradient id="linear-gradient-3" x1="56.22" y1="113.11" x2="56.22" y2=".67" gradientUnits="userSpaceOnUse">
      <stop offset="0" stop-color="#c1c4cb"/>
      <stop offset=".03" stop-color="#c9cdd5"/>
      <stop offset=".1" stop-color="#d8dce5"/>
      <stop offset=".18" stop-color="#e1e6ef"/>
      <stop offset=".28" stop-color="#e4e9f3"/>
      <stop offset=".28" stop-color="#e4e9f3"/>
      <stop offset=".6" stop-color="#f0f1f6"/>
      <stop offset=".91" stop-color="#f4f4f7"/>
    </linearGradient>
    <linearGradient id="linear-gradient-4" x1="56.49" y1="112.44" x2="56.49" y2="0" gradientUnits="userSpaceOnUse">
      <stop offset="0" stop-color="#a4a9b2"/>
      <stop offset=".15" stop-color="#b8bcc3"/>
      <stop offset=".42" stop-color="#d8dadf"/>
      <stop offset=".64" stop-color="#ecedf0"/>
      <stop offset=".8" stop-color="#f4f4f7"/>
    </linearGradient>
    <filter id="luminosity-noclip-7" x="8.99" y="5.49" width="92.14" height="37.69" color-interpolation-filters="sRGB" filterUnits="userSpaceOnUse">
      <feFlood flood-color="#fff" result="bg"/>
      <feBlend in="SourceGraphic" in2="bg"/>
    </filter>
    <filter id="luminosity-noclip-8" x="8.99" y="-8195.87" width="92.14" height="32766" color-interpolation-filters="sRGB" filterUnits="userSpaceOnUse">
      <feFlood flood-color="#fff" result="bg"/>
      <feBlend in="SourceGraphic" in2="bg"/>
    </filter>
    <mask id="mask-7" x="8.99" y="-8195.87" width="92.14" height="32766" maskUnits="userSpaceOnUse"/>
    <linearGradient id="linear-gradient-5" x1="55.05" y1="43.17" x2="55.05" y2="5.49" gradientUnits="userSpaceOnUse">
      <stop offset=".31" stop-color="#000"/>
      <stop offset=".43" stop-color="#454545"/>
      <stop offset=".55" stop-color="#868686"/>
      <stop offset=".67" stop-color="#bababa"/>
      <stop offset=".76" stop-color="#dfdfdf"/>
      <stop offset=".84" stop-color="#f6f6f6"/>
      <stop offset=".89" stop-color="#fff"/>
    </linearGradient>
    <mask id="mask-6" x="8.99" y="5.49" width="92.14" height="37.69" maskUnits="userSpaceOnUse">
      <g class="cls-15">
        <g class="cls-46">
          <path class="cls-4" d="m97.51,38.97c1.05,3.13.42,7.1-5.71,1.04-17.11-24.02-34.43-22.77-45.2-20.26-10.77,2.5-17.74,13.36-21.75,12.74-4.01-.63-3.17,4.39-10.99,4.81-3.46.18-4.64-2.52-4.88-5.61C19.1,15.94,36.89,5.49,57.16,5.49c8.92,0,17.35,2.02,24.86,5.62,6.72,3.93,13.56,8.54,16.54,12.41,6.76,8.77-2.11,12.32-1.05,15.46Z"/>
        </g>
      </g>
    </mask>
    <linearGradient id="linear-gradient-6" x1="55.05" y1="43.17" x2="55.05" y2="5.49" gradientUnits="userSpaceOnUse">
      <stop offset=".31" stop-color="#fff"/>
      <stop offset=".89" stop-color="#fff"/>
    </linearGradient>
    <filter id="luminosity-noclip-9" x="4.17" y="4.77" width="100.06" height="40.93" color-interpolation-filters="sRGB" filterUnits="userSpaceOnUse">
      <feFlood flood-color="#fff" result="bg"/>
      <feBlend in="SourceGraphic" in2="bg"/>
    </filter>
    <filter id="luminosity-noclip-10" x="4.17" y="-8195.87" width="100.06" height="32766" color-interpolation-filters="sRGB" filterUnits="userSpaceOnUse">
      <feFlood flood-color="#fff" result="bg"/>
      <feBlend in="SourceGraphic" in2="bg"/>
    </filter>
    <mask id="mask-9" x="4.17" y="-8195.87" width="100.06" height="32766" maskUnits="userSpaceOnUse"/>
    <linearGradient id="linear-gradient-7" x1="54.2" y1="45.7" x2="54.2" y2="4.77" xlink:href="#linear-gradient-5"/>
    <mask id="mask-8" x="4.17" y="4.77" width="100.06" height="40.93" maskUnits="userSpaceOnUse">
      <g class="cls-14">
        <g class="cls-49">
          <path class="cls-3" d="m100.3,41.14c1.14,3.4.46,7.71-6.2,1.14-18.58-26.09-37.38-24.72-49.08-22-11.7,2.72-19.27,14.52-23.63,13.83-4.36-.68-3.44,4.76-11.93,5.22-3.75.2-5.04-2.74-5.29-6.09C15.15,16.12,34.47,4.77,56.48,4.77c9.68,0,18.84,2.2,27,6.11,7.3,4.27,14.72,9.27,17.96,13.47,7.34,9.53-2.29,13.38-1.14,16.78Z"/>
        </g>
      </g>
    </mask>
    <linearGradient id="linear-gradient-8" x1="54.2" y1="45.7" x2="54.2" y2="4.77" xlink:href="#linear-gradient-6"/>
    <filter id="luminosity-noclip-11" x="0" y=".13" width="112.44" height="112.44" color-interpolation-filters="sRGB" filterUnits="userSpaceOnUse">
      <feFlood flood-color="#fff" result="bg"/>
      <feBlend in="SourceGraphic" in2="bg"/>
    </filter>
    <filter id="luminosity-noclip-12" x="0" y="-8195.87" width="112.44" height="32766" color-interpolation-filters="sRGB" filterUnits="userSpaceOnUse">
      <feFlood flood-color="#fff" result="bg"/>
      <feBlend in="SourceGraphic" in2="bg"/>
    </filter>
    <mask id="mask-11" x="0" y="-8195.87" width="112.44" height="32766" maskUnits="userSpaceOnUse"/>
    <linearGradient id="linear-gradient-9" y1="112.57" y2=".13" xlink:href="#linear-gradient-2"/>
    <mask id="mask-10" x="0" y=".13" width="112.44" height="112.44" maskUnits="userSpaceOnUse">
      <g class="cls-27">
        <g class="cls-11">
          <path class="cls-5" d="m112.44,56.35c0,31.05-25.17,56.22-56.22,56.22S0,87.4,0,56.35,25.17.13,56.22.13s56.22,25.17,56.22,56.22Z"/>
        </g>
      </g>
    </mask>
    <filter id="luminosity-noclip-13" x="0" y=".13" width="112.44" height="112.44" color-interpolation-filters="sRGB" filterUnits="userSpaceOnUse">
      <feFlood flood-color="#fff" result="bg"/>
      <feBlend in="SourceGraphic" in2="bg"/>
    </filter>
    <filter id="luminosity-noclip-14" x="0" y="-8195.87" width="112.44" height="32766" color-interpolation-filters="sRGB" filterUnits="userSpaceOnUse">
      <feFlood flood-color="#fff" result="bg"/>
      <feBlend in="SourceGraphic" in2="bg"/>
    </filter>
    <mask id="mask-13" x="0" y="-8195.87" width="112.44" height="32766" maskUnits="userSpaceOnUse"/>
    <linearGradient id="linear-gradient-10" x1="56.22" y1="112.57" x2="56.22" y2=".13" gradientUnits="userSpaceOnUse">
      <stop offset=".21" stop-color="#000"/>
      <stop offset=".33" stop-color="#1d1d1d"/>
      <stop offset=".57" stop-color="#6a6a6a"/>
      <stop offset=".92" stop-color="#e3e3e3"/>
      <stop offset="1" stop-color="#fff"/>
    </linearGradient>
    <mask id="mask-12" x="0" y=".13" width="112.44" height="112.44" maskUnits="userSpaceOnUse">
      <g class="cls-26">
        <g class="cls-9">
          <path class="cls-8" d="m112.44,56.35c0,31.05-25.17,56.22-56.22,56.22S0,87.4,0,56.35,25.17.13,56.22.13s56.22,25.17,56.22,56.22Z"/>
        </g>
      </g>
    </mask>
    <linearGradient id="linear-gradient-11" x1="56.22" y1="112.57" x2="56.22" y2=".13" gradientUnits="userSpaceOnUse">
      <stop offset=".21" stop-color="#fff"/>
      <stop offset="1" stop-color="#fff"/>
    </linearGradient>
    <clipPath id="clippath">
      <circle class="cls-1" cx="56.36" cy="55.08" r="53.74"/>
    </clipPath>
  </defs>
  <g class="cls-40">
    <g id="Capa_2" data-name="Capa 2">
      <g id="Capa_1-2" data-name="Capa 1">
        <g>
          <g>
            <g>
              <path class="cls-22" d="m56.35.41C25.97.41,1.34,25.03,1.34,55.42s24.63,55.01,55.01,55.01,55.01-24.63,55.01-55.01S86.74.41,56.35.41ZM5.66,55.42C5.66,27.31,28.45,4.53,56.55,4.53s50.89,22.78,50.89,50.89-22.79,50.88-50.89,50.88S5.66,83.52,5.66,55.42Z"/>
              <path class="cls-13" d="m112.7,56.89c0,31.05-25.17,56.22-56.22,56.22S.27,87.94.27,56.89,25.43.67,56.48.67s56.22,25.17,56.22,56.22Z"/>
              <g class="cls-38">
                <g class="cls-19">
                  <path class="cls-29" d="m56.39,2.18C26.08,2.18,1.51,26.74,1.51,57.05s24.57,54.88,54.88,54.88,54.88-24.57,54.88-54.88S86.69,2.18,56.39,2.18Zm.2,108.18c-29.44,0-53.31-23.87-53.31-53.3S27.15,3.75,56.59,3.75s53.31,23.86,53.31,53.3-23.87,53.3-53.31,53.3Z"/>
                </g>
              </g>
              <g class="cls-42">
                <path class="cls-28" d="m56.49.27C25.44.27.27,25.44.27,56.49s25.17,56.22,56.22,56.22,56.22-25.17,56.22-56.22S87.54.27,56.49.27ZM4.68,56.49C4.68,27.77,27.97,4.49,56.69,4.49s52,23.28,52,52-23.29,52-52,52S4.68,85.21,4.68,56.49Z"/>
              </g>
              <g class="cls-36">
                <g class="cls-44">
                  <path class="cls-32" d="m112.44,56.89c0,31.05-25.17,56.22-56.22,56.22S0,87.94,0,56.89,25.17.67,56.22.67s56.22,25.17,56.22,56.22Z"/>
                </g>
              </g>
              <path class="cls-30" d="m56.49,0C25.44,0,.27,25.17.27,56.22s25.17,56.22,56.22,56.22,56.22-25.17,56.22-56.22S87.53,0,56.49,0ZM4.68,56.22C4.68,27.5,27.97,4.22,56.69,4.22s52,23.28,52,52-23.28,52-52,52S4.68,84.94,4.68,56.22Z"/>
            </g>
            <g class="cls-37">
              <path class="cls-25" d="m97.89,38.04c1.01,3.01.4,6.83-5.42,1-16.26-23.09-32.73-21.88-42.97-19.47-10.24,2.41-16.86,12.85-20.68,12.24-3.82-.6-3.01,4.22-10.44,4.62-3.29.18-4.41-2.42-4.63-5.39C23.37,15.9,40.28,5.85,59.55,5.85c8.47,0,16.49,1.94,23.63,5.41,6.4,3.79,12.89,8.21,15.73,11.93,6.43,8.43-2.01,11.85-1.01,14.86Z"/>
              <path class="cls-25" d="m98.77,39.62c1.06,3.18.43,7.2-5.72,1.06-17.16-24.36-34.53-23.09-45.33-20.55-10.81,2.54-17.79,13.56-21.82,12.92-4.02-.64-3.18,4.45-11.01,4.87-3.47.19-4.65-2.56-4.89-5.69C20.15,16.26,37.99,5.66,58.32,5.66c8.94,0,17.4,2.05,24.93,5.7,6.74,3.99,13.6,8.66,16.59,12.58,6.78,8.89-2.12,12.5-1.06,15.67Z"/>
              <g class="cls-47">
                <path class="cls-33" d="m97.51,38.97c1.05,3.13.42,7.1-5.71,1.04-17.11-24.02-34.43-22.77-45.2-20.26-10.77,2.5-17.74,13.36-21.75,12.74-4.01-.63-3.17,4.39-10.99,4.81-3.46.18-4.64-2.52-4.88-5.61C19.1,15.94,36.89,5.49,57.16,5.49c8.92,0,17.35,2.02,24.86,5.62,6.72,3.93,13.56,8.54,16.54,12.41,6.76,8.77-2.11,12.32-1.05,15.46Z"/>
              </g>
            </g>
            <g class="cls-50">
              <path class="cls-23" d="m100.14,36.35c1.09,3.27.43,7.41-5.89,1.09-17.66-25.07-35.54-23.76-46.66-21.15-11.12,2.62-18.31,13.95-22.46,13.3-4.14-.65-3.27,4.58-11.34,5.01-3.57.19-4.79-2.63-5.03-5.85C19.2,12.3,37.57,1.39,58.49,1.39c9.2,0,17.91,2.11,25.66,5.87,6.94,4.11,13.99,8.91,17.07,12.95,6.98,9.16-2.18,12.86-1.09,16.13Z"/>
              <path class="cls-25" d="m100.72,40.13c1.09,3.27.44,7.41-5.89,1.09-17.66-25.08-35.54-23.77-46.66-21.15-11.12,2.62-18.32,13.95-22.46,13.3-4.14-.65-3.27,4.58-11.34,5.02-3.57.19-4.79-2.63-5.03-5.85C19.78,16.08,38.15,5.17,59.07,5.17c9.2,0,17.91,2.11,25.66,5.87,6.94,4.11,14,8.92,17.08,12.95,6.98,9.16-2.18,12.86-1.09,16.14Z"/>
              <path class="cls-25" d="m101.68,41.84c1.15,3.45.46,7.82-6.21,1.15-18.63-26.45-37.49-25.07-49.23-22.31-11.73,2.76-19.32,14.73-23.69,14.03-4.37-.69-3.45,4.83-11.96,5.29-3.76.2-5.05-2.78-5.31-6.17C16.29,16.47,35.67,4.96,57.74,4.96c9.71,0,18.89,2.23,27.07,6.19,7.33,4.34,14.77,9.41,18.02,13.67,7.36,9.66-2.3,13.57-1.15,17.02Z"/>
              <g class="cls-48">
                <path class="cls-31" d="m100.3,41.14c1.14,3.4.46,7.71-6.2,1.14-18.58-26.09-37.38-24.72-49.08-22-11.7,2.72-19.27,14.52-23.63,13.83-4.36-.68-3.44,4.76-11.93,5.22-3.75.2-5.04-2.74-5.29-6.09C15.15,16.12,34.47,4.77,56.48,4.77c9.68,0,18.84,2.2,27,6.11,7.3,4.27,14.72,9.27,17.96,13.47,7.34,9.53-2.29,13.38-1.14,16.78Z"/>
              </g>
            </g>
            <g class="cls-35">
              <g class="cls-12">
                <g class="cls-10">
                  <path class="cls-39" d="m112.44,56.35c0,31.05-25.17,56.22-56.22,56.22S0,87.4,0,56.35,25.17.13,56.22.13s56.22,25.17,56.22,56.22Z"/>
                </g>
              </g>
            </g>
          </g>
          <g class="cls-18">
            <g>
              <g>
                <path class="cls-24" d="m30.83,30.26c-3.26-.22-6.64.37-9,2.83-2.36,2.46-3.58,6.15-3.35,9.72.57,8.82,10.14,9.74,12.82,9.56,3.56-.24,6.95-2.69,8.48-6.23,1.54-3.55,1.9-8.25-.36-11.3-1.85-2.5-4.14-4.27-8.6-4.57Z"/>
                <path class="cls-21" d="m30.64,53.09c-2.36,0-6.6-.65-9.56-3.24-2.01-1.76-3.12-4.11-3.31-7-.25-3.85,1.07-7.68,3.54-10.26,2.2-2.3,5.42-3.32,9.56-3.04h0c5.12.35,7.49,2.65,9.12,4.86,2.63,3.54,1.88,8.68.44,12-1.64,3.78-5.21,6.4-9.09,6.66-.21.01-.45.02-.71.02Zm-1.06-22.16c-3.12,0-5.55.89-7.24,2.65-2.2,2.29-3.37,5.72-3.15,9.18.16,2.5,1.11,4.53,2.82,6.02,3.04,2.66,7.7,2.97,9.24,2.87,3.31-.22,6.47-2.56,7.88-5.81,1.39-3.21,1.84-7.73-.28-10.59-1.52-2.04-3.54-3.98-8.07-4.28h0c-.41-.03-.81-.04-1.2-.04Z"/>
              </g>
              <path class="cls-21" d="m29.7,47.13c-1.84,0-3.67-.76-4.87-2.17-.25-.3-.22-.75.08-1,.3-.25.75-.22,1,.08,1.48,1.76,4.38,2.19,6.34.95.39-.25.88-.65.99-1.17.05-.25.02-.56-.1-.89-.3-.85-1.04-1.54-1.91-1.8-.43-.13-.9-.17-1.4-.21-.46-.04-.93-.08-1.41-.19-1.2-.28-2.46-1.21-2.41-2.59.02-.57.28-1.13.76-1.66,1.57-1.74,4.56-2.03,6.79-.66.34.21.44.65.23.98-.21.34-.65.44-.98.23-1.64-1.01-3.88-.83-4.99.4-.17.19-.38.48-.39.76-.02.52.65,1,1.31,1.15.38.09.78.12,1.2.16.55.05,1.12.1,1.7.27,1.3.4,2.39,1.42,2.84,2.68.21.59.27,1.15.15,1.67-.17.79-.73,1.51-1.62,2.08-1,.63-2.16.94-3.32.94Z"/>
              <path class="cls-21" d="m29.97,49.29c-.33,0-.63-.23-.7-.57-1.03-5.18-.2-10.62.53-15.43.06-.39.42-.65.81-.6.39.06.66.42.6.81-.75,4.92-1.52,10-.54,14.93.08.39-.17.76-.56.84-.05,0-.09.01-.14.01Z"/>
              <g>
                <path class="cls-24" d="m85.28,78.07c-9.03,2.19-18.23,3.71-27.46,3.53-9.23-.18-18.52-2.12-26.86-6.58-4.37-2.34-8.51-5.42-11.6-9.61-.61-.83-1.2-1.75-1.36-2.81-.16-1.06.23-2.3,1.12-2.72.67-.32,1.44-.11,2.14.11,11.11,3.45,22.6,7.83,33.92,5.35.8-.18,1.82-.77,1.59-1.65-.1-.38-.41-.63-.7-.85-3.47-2.55-7.44-4.29-10.54-7.39-.58-.58-1.16-1.28-1.2-2.15-.08-1.64,1.72-2.54,3.18-2.54,3.06,0,5.85,1.79,8.71,3.03,4.62,2,9.6,2.59,14.42,3.84,4.82,1.25,9.73,3.32,14.04,7.08,1.28,1.33,2.45,2.77,3.48,4.3,1.23,1.81,2.3,4.14,1.36,6.12-.59,1.25-1.75,2.34-4.26,2.95Z"/>
                <path class="cls-21" d="m59.36,82.17c-.52,0-1.04,0-1.56-.02-10.12-.2-19.25-2.44-27.11-6.65-5.1-2.73-8.95-5.92-11.78-9.77-.65-.89-1.28-1.87-1.46-3.06-.18-1.22.25-2.75,1.43-3.3.9-.43,1.89-.12,2.54.08,1.19.37,2.38.75,3.58,1.13,9.88,3.14,20.09,6.39,30.05,4.21.49-.11.96-.37,1.12-.65.07-.11.08-.21.05-.33-.05-.2-.27-.38-.49-.54-1.27-.94-2.64-1.78-3.97-2.6-2.28-1.4-4.64-2.86-6.63-4.85-.61-.6-1.31-1.43-1.36-2.51-.03-.72.22-1.39.73-1.93.7-.73,1.85-1.19,3-1.19h0c2.47,0,4.75,1.1,6.95,2.16.65.31,1.31.63,1.97.92,3.1,1.35,6.46,2.06,9.71,2.75,1.52.32,3.09.66,4.63,1.06,5.74,1.48,10.41,3.84,14.27,7.2.01.01.02.02.04.03,1.3,1.35,2.49,2.82,3.54,4.37,1.78,2.63,2.26,4.87,1.4,6.66-.78,1.64-2.25,2.67-4.63,3.25h0c-9.97,2.42-18.3,3.56-26.05,3.56Zm-39.47-21.9c-.19,0-.37.03-.54.11-.59.28-.95,1.22-.81,2.14.14.95.69,1.79,1.26,2.56,2.73,3.71,6.46,6.8,11.41,9.45,7.71,4.13,16.66,6.32,26.61,6.52,8.09.16,16.78-.96,27.32-3.51h0c2.66-.65,3.5-1.82,3.89-2.65.67-1.42.23-3.29-1.32-5.57-1.01-1.49-2.16-2.91-3.41-4.21-3.73-3.24-8.24-5.51-13.8-6.94-1.51-.39-3.08-.72-4.58-1.05-3.3-.7-6.71-1.43-9.92-2.82-.67-.29-1.35-.62-2.01-.93-2.19-1.05-4.25-2.05-6.47-2.05h0c-.83,0-1.71.34-2.2.85-.31.32-.45.7-.43,1.11.03.69.54,1.29,1.04,1.78,1.9,1.9,4.2,3.32,6.43,4.69,1.35.83,2.74,1.69,4.05,2.65.26.19.75.56.91,1.15.1.41.04.82-.18,1.18-.39.63-1.2,1.01-1.83,1.15-10.25,2.25-20.61-1.05-30.62-4.23-1.2-.38-2.39-.76-3.57-1.13-.44-.14-.84-.25-1.21-.25Z"/>
              </g>
              <g>
                <path class="cls-24" d="m98,85.53c-5.26,1.04-10.76,1.11-16.05.19,1.5-8.61,1.68-17.2.77-25.84,3.51.42,7.06.38,10.59.35,1.7-.02,3.4-.03,4.98.04.9,8.37,1.19,16.8-.3,25.26Z"/>
                <path class="cls-21" d="m89.45,86.91c-2.55,0-5.11-.22-7.59-.65-.14-.02-.27-.11-.36-.23-.08-.12-.12-.27-.09-.41,1.45-8.36,1.7-16.77.77-25.69-.02-.17.04-.33.16-.45.12-.12.29-.17.45-.16,3.47.41,7.06.38,10.52.35,1.69-.02,3.42-.03,5.01.04.27.01.5.22.53.49,1.09,10.17,1,18.01-.3,25.41-.04.22-.21.4-.44.45-2.82.56-5.74.84-8.65.84Zm-6.86-1.64c4.91.79,10.05.71,14.93-.21,1.2-7.08,1.29-14.59.28-24.26-1.43-.05-2.97-.03-4.46-.02-3.3.03-6.67.06-10-.28.85,8.58.6,16.69-.75,24.76Zm15.41.26h0,0Z"/>
              </g>
              <g>
                <path class="cls-24" d="m90.48,65.35c-.95-.15-1.94.5-2.23,1.42-.29.92.14,1.99.95,2.51.81.52,1.93.46,2.71-.1.95-.68,1.28-2.21.47-3.06-.53-.56-1.38-.68-1.9-.77Z"/>
                <path class="cls-21" d="m90.45,70.17c-.55,0-1.1-.15-1.56-.44-1.03-.65-1.53-2-1.18-3.14.37-1.18,1.65-1.99,2.84-1.8h.04c.57.1,1.52.25,2.17.93.45.48.66,1.13.59,1.85-.08.82-.51,1.58-1.14,2.03-.52.37-1.15.56-1.77.56Zm-.25-4.3c-.61,0-1.24.45-1.43,1.05-.21.66.11,1.49.72,1.88.61.39,1.49.35,2.09-.09.38-.27.64-.75.69-1.24.02-.23.01-.66-.29-.99-.39-.41-1.08-.52-1.54-.59h-.05c-.06-.02-.13-.02-.19-.02Z"/>
              </g>
              <path class="cls-21" d="m89.53,84.77s-.04,0-.06,0c-1.65-.53-3.25-1.25-4.75-2.13-.09-.05-.12-.16-.06-.25.05-.09.16-.12.25-.06,1.47.87,3.04,1.58,4.67,2.1.1.03.15.13.12.23-.03.08-.1.13-.18.13Z"/>
              <path class="cls-21" d="m95.71,84.77s-.04,0-.07-.01c-3.58-1.38-7.09-3.05-10.42-4.96-.09-.05-.12-.16-.07-.25.05-.09.16-.12.25-.07,3.32,1.9,6.81,3.56,10.37,4.94.09.04.14.14.11.24-.03.07-.1.12-.17.12Z"/>
              <path class="cls-21" d="m96.28,82.04s-.05,0-.08-.02c-3.47-1.57-6.91-3.31-10.22-5.17-.09-.05-.12-.16-.07-.25.05-.09.16-.12.25-.07,3.31,1.86,6.74,3.59,10.2,5.16.09.04.13.15.09.24-.03.07-.1.11-.17.11Z"/>
              <path class="cls-21" d="m96.32,79.44s-.06,0-.09-.02c-3.68-1.98-7.43-3.95-11.15-5.83-.09-.05-.13-.16-.08-.25.05-.09.16-.13.25-.08,3.72,1.89,7.47,3.85,11.15,5.83.09.05.12.16.07.25-.03.06-.1.1-.16.1Z"/>
              <path class="cls-21" d="m96.79,76.21s-.06,0-.08-.02l-11.26-5.76c-.09-.05-.13-.16-.08-.25.05-.09.16-.13.25-.08l11.26,5.76c.09.05.13.16.08.25-.03.06-.1.1-.16.1Z"/>
              <path class="cls-21" d="m96.79,73.09s-.06,0-.09-.02c-1.24-.68-2.47-1.4-3.66-2.15-.09-.05-.11-.17-.06-.25.05-.09.17-.11.25-.06,1.19.75,2.41,1.47,3.64,2.14.09.05.12.16.07.25-.03.06-.1.1-.16.1Z"/>
              <path class="cls-21" d="m96.93,69.87s-.05,0-.08-.02c-.79-.37-1.58-.79-2.33-1.24-.09-.05-.11-.17-.06-.25.05-.09.17-.11.25-.06.74.45,1.51.86,2.3,1.22.09.04.13.15.09.24-.03.07-.1.11-.17.11Z"/>
              <path class="cls-21" d="m97.17,66.11s-.07,0-.1-.03l-6.54-4.18c-.09-.05-.11-.17-.06-.25.05-.09.17-.11.25-.06l6.54,4.18c.09.05.11.17.06.25-.03.05-.09.08-.15.08Z"/>
              <path class="cls-21" d="m86.59,66.77s-.07,0-.1-.03c-.52-.33-1.03-.68-1.52-1.05-.08-.06-.1-.18-.04-.26.06-.08.18-.1.26-.04.49.36.99.71,1.5,1.03.09.05.11.17.06.25-.04.06-.09.09-.16.09Z"/>
              <path class="cls-21" d="m88.06,64.32s-.07-.01-.1-.03l-2.9-1.94c-.08-.06-.11-.17-.05-.26.06-.08.17-.11.26-.05l2.9,1.94c.08.06.11.17.05.26-.04.05-.09.08-.15.08Z"/>
              <g class="cls-34">
                <path class="cls-21" d="m98.69,75.57c-.06-.17-.16-.31-.29-.42.2-3.07.15-6.98-.06-10.34-.05-.97-.08-1.94-.09-2.91-.06-.48.02-1.01-.16-1.46-.45-1.18-2.28-.81-2.27.46.11,2.68-.2,5.36-.21,8.05.03,1.1.06,2.21-.01,3.31-.08.94-.18,1.87-.1,2.81.02,1.71-.1,1.4-.28,2.98-.16,1.49-.16,2.99-.15,4.49-.01.34.02.68,0,1.01-.06.37-.14.74-.08,1.11.07.99,1.27,1.62,2.12,1.09.33-.19.54-.51.65-.86,0,0,0,0,0,0,0,0,0-.02,0-.03,0,0,0-.01,0-.02.03-.1.04-.2.05-.3,0-.01,0-.02,0-.04.04-.15.07-.29.1-.44.24-.64.43-3.86.67-5.65.08-.68.11-1.36.17-2.04.02-.27.08-.56-.06-.8Z"/>
              </g>
              <g class="cls-34">
                <path class="cls-21" d="m83.31,74.39c0-1.93-.11-3.87-.17-5.8,0-1.19-.17-2.37-.26-3.55-.1-.76-.05-1.77-.44-2.43-.02-.03-.05-.06-.08-.09-.17.07-.37.08-.53-.01-.12-.07-.25-.14-.37-.21-.05.02-.1.04-.15.06,0-.05-.02-.11-.02-.16-.61-.34-1.21-.7-1.81-1.06-.22.22-.34.55-.24.96.34,2.39.63,3.94.56,6.69-.06,1.07.07,2.14.1,3.22.02,1.03,0,2.05.05,3.08.06,1.28.04,3.15.22,3.44.27.79,1.41.99,1.97.39,0,0,0-.01.01-.02.15-.02.3-.06.43-.14.25-.17.46-.39.54-.7,0,0,0,0,0,0,.11-.32.13-.68.13-1.02-.08-.88.05-1.76.06-2.65Z"/>
              </g>
              <g class="cls-34">
                <path class="cls-21" d="m40.46,39.99c-1.47-.32-1.46,1.42-1.76,2.38-.41,1.22-.51,1.47-1.36,2.84-.14.4-2.31,2.33-2.53,2.43.1-.08.45-.34.18-.14-1.51.95-2.23,1.21-3.16,1.52-2.15.6-3.76.33-5.26-.02-1.6-.34-1.94-.62-2.36-.78-.39-.17-.71-.52-1.15-.54-1.26-.23-1.88,1.59-.76,2.21.86.53,1.65,1.17,2.54,1.66,1.28.7,2.68,1.1,4.13,1.25,2.65.08,5.31-.84,7.35-2.53,2.08-1.82,3.27-3.82,4.03-5.73.42-.92.69-1.9.85-2.9.22-.65,0-1.46-.73-1.65Z"/>
              </g>
            </g>
          </g>
        </g>
      </g>
    </g>
  </g>
</svg>