<?xml version="1.0" encoding="UTF-8"?>
<svg xmlns="http://www.w3.org/2000/svg" xmlns:xlink="http://www.w3.org/1999/xlink" viewBox="0 0 112.7 113.11">
  <defs>
    <style>
      .cls-1 {
        fill: none;
      }

      .cls-2 {
        fill: url(#radial-gradient-3);
      }

      .cls-2, .cls-3, .cls-4, .cls-5, .cls-6, .cls-7, .cls-8 {
        mix-blend-mode: multiply;
      }

      .cls-9 {
        mask: url(#mask-13);
      }

      .cls-10 {
        mask: url(#mask-12);
      }

      .cls-11 {
        mask: url(#mask-11);
      }

      .cls-12 {
        mask: url(#mask-10);
      }

      .cls-13 {
        fill: url(#linear-gradient);
      }

      .cls-14 {
        filter: url(#luminosity-noclip-9);
      }

      .cls-15 {
        filter: url(#luminosity-noclip-7);
      }

      .cls-16 {
        filter: url(#luminosity-noclip-3);
      }

      .cls-17 {
        filter: url(#luminosity-noclip-5);
      }

      .cls-18 {
        clip-path: url(#clippath);
      }

      .cls-19 {
        mask: url(#mask);
      }

      .cls-20 {
        filter: url(#luminosity-noclip);
      }

      .cls-21 {
        fill: #010101;
      }

      .cls-22 {
        fill: #687a97;
      }

      .cls-23 {
        fill: #e7edf9;
      }

      .cls-24, .cls-25 {
        fill: #fff;
      }

      .cls-26 {
        fill: #b3dee5;
      }

      .cls-27 {
        fill: #add3f2;
      }

      .cls-28 {
        filter: url(#luminosity-noclip-13);
      }

      .cls-29 {
        filter: url(#luminosity-noclip-11);
      }

      .cls-3 {
        fill: url(#linear-gradient-7);
      }

      .cls-4 {
        fill: url(#linear-gradient-5);
      }

      .cls-5 {
        fill: url(#linear-gradient-9);
      }

      .cls-6 {
        fill: url(#linear-gradient-2);
      }

      .cls-30 {
        fill: url(#radial-gradient-4);
      }

      .cls-31 {
        fill: url(#radial-gradient-2);
      }

      .cls-32 {
        fill: url(#linear-gradient-4);
        mix-blend-mode: color-burn;
      }

      .cls-25 {
        opacity: .2;
      }

      .cls-33 {
        fill: url(#linear-gradient-8);
      }

      .cls-34 {
        fill: url(#linear-gradient-3);
      }

      .cls-35 {
        fill: url(#linear-gradient-6);
      }

      .cls-36 {
        opacity: .13;
      }

      .cls-7 {
        fill: url(#radial-gradient);
      }

      .cls-37 {
        opacity: .26;
      }

      .cls-38 {
        opacity: .9;
      }

      .cls-39 {
        opacity: .76;
      }

      .cls-40 {
        opacity: .72;
      }

      .cls-41 {
        fill: url(#linear-gradient-11);
      }

      .cls-42 {
        isolation: isolate;
      }

      .cls-8 {
        fill: url(#linear-gradient-10);
      }

      .cls-43 {
        mask: url(#mask-3);
      }

      .cls-44 {
        mask: url(#mask-2);
      }

      .cls-45 {
        mask: url(#mask-5);
      }

      .cls-46 {
        mask: url(#mask-4);
      }

      .cls-47 {
        mask: url(#mask-1);
      }

      .cls-48 {
        mask: url(#mask-7);
      }

      .cls-49 {
        mask: url(#mask-6);
      }

      .cls-50 {
        mask: url(#mask-8);
      }

      .cls-51 {
        mask: url(#mask-9);
      }

      .cls-52 {
        mix-blend-mode: soft-light;
        opacity: .3;
      }
    </style>
    <linearGradient id="linear-gradient" x1="56.49" y1="113.11" x2="56.49" y2=".67" gradientUnits="userSpaceOnUse">
      <stop offset="0" stop-color="#c1c4cb"/>
      <stop offset=".06" stop-color="#c9cdd5"/>
      <stop offset=".2" stop-color="#d8dce5"/>
      <stop offset=".35" stop-color="#e1e6ef"/>
      <stop offset=".53" stop-color="#e4e9f3"/>
      <stop offset="1" stop-color="#f4f4f7"/>
    </linearGradient>
    <filter id="luminosity-noclip" x="1.51" y="2.18" width="109.76" height="109.76" color-interpolation-filters="sRGB" filterUnits="userSpaceOnUse">
      <feFlood flood-color="#fff" result="bg"/>
      <feBlend in="SourceGraphic" in2="bg"/>
    </filter>
    <filter id="luminosity-noclip-2" x="1.51" y="-7635.31" width="109.76" height="32766" color-interpolation-filters="sRGB" filterUnits="userSpaceOnUse">
      <feFlood flood-color="#fff" result="bg"/>
      <feBlend in="SourceGraphic" in2="bg"/>
    </filter>
    <mask id="mask-1" x="1.51" y="-7635.31" width="109.76" height="32766" maskUnits="userSpaceOnUse"/>
    <radialGradient id="radial-gradient" cx="56.39" cy="57.05" fx="56.39" fy="57.05" r="54.88" gradientUnits="userSpaceOnUse">
      <stop offset=".97" stop-color="#000"/>
      <stop offset=".99" stop-color="#b3b3b3"/>
      <stop offset="1" stop-color="#000"/>
    </radialGradient>
    <mask id="mask" x="1.51" y="2.18" width="109.76" height="109.76" maskUnits="userSpaceOnUse">
      <g class="cls-20">
        <g class="cls-47">
          <path class="cls-7" d="m56.39,2.18C26.08,2.18,1.51,26.74,1.51,57.05s24.57,54.88,54.88,54.88,54.88-24.57,54.88-54.88S86.69,2.18,56.39,2.18Zm.2,108.18c-29.44,0-53.31-23.87-53.31-53.3S27.15,3.75,56.59,3.75s53.31,23.86,53.31,53.3-23.87,53.3-53.31,53.3Z"/>
        </g>
      </g>
    </mask>
    <radialGradient id="radial-gradient-2" cx="56.39" cy="57.05" fx="56.39" fy="57.05" r="54.88" gradientUnits="userSpaceOnUse">
      <stop offset=".97" stop-color="#969a9f"/>
      <stop offset=".99" stop-color="#878b90"/>
      <stop offset="1" stop-color="#969a9f"/>
    </radialGradient>
    <filter id="luminosity-noclip-3" x=".27" y=".27" width="112.44" height="112.44" color-interpolation-filters="sRGB" filterUnits="userSpaceOnUse">
      <feFlood flood-color="#fff" result="bg"/>
      <feBlend in="SourceGraphic" in2="bg"/>
    </filter>
    <filter id="luminosity-noclip-4" x=".27" y="-7635.31" width="112.44" height="32766" color-interpolation-filters="sRGB" filterUnits="userSpaceOnUse">
      <feFlood flood-color="#fff" result="bg"/>
      <feBlend in="SourceGraphic" in2="bg"/>
    </filter>
    <mask id="mask-3" x=".27" y="-7635.31" width="112.44" height="32766" maskUnits="userSpaceOnUse"/>
    <radialGradient id="radial-gradient-3" cx="56.49" cy="56.49" fx="56.49" fy="56.49" r="56.22" gradientUnits="userSpaceOnUse">
      <stop offset=".91" stop-color="#000"/>
      <stop offset="1" stop-color="#b3b3b3"/>
    </radialGradient>
    <mask id="mask-2" x=".27" y=".27" width="112.44" height="112.44" maskUnits="userSpaceOnUse">
      <g class="cls-16">
        <g class="cls-43">
          <path class="cls-2" d="m56.49.27C25.44.27.27,25.44.27,56.49s25.17,56.22,56.22,56.22,56.22-25.17,56.22-56.22S87.54.27,56.49.27ZM4.68,56.49C4.68,27.77,27.97,4.49,56.69,4.49s52,23.28,52,52-23.29,52-52,52S4.68,85.21,4.68,56.49Z"/>
        </g>
      </g>
    </mask>
    <radialGradient id="radial-gradient-4" cx="56.49" cy="56.49" fx="56.49" fy="56.49" r="56.22" gradientUnits="userSpaceOnUse">
      <stop offset=".91" stop-color="#a8abb0"/>
      <stop offset="1" stop-color="#a8abb0"/>
    </radialGradient>
    <filter id="luminosity-noclip-5" x="0" y=".67" width="112.44" height="112.44" color-interpolation-filters="sRGB" filterUnits="userSpaceOnUse">
      <feFlood flood-color="#fff" result="bg"/>
      <feBlend in="SourceGraphic" in2="bg"/>
    </filter>
    <filter id="luminosity-noclip-6" x="0" y="-7635.31" width="112.44" height="32766" color-interpolation-filters="sRGB" filterUnits="userSpaceOnUse">
      <feFlood flood-color="#fff" result="bg"/>
      <feBlend in="SourceGraphic" in2="bg"/>
    </filter>
    <mask id="mask-5" x="0" y="-7635.31" width="112.44" height="32766" maskUnits="userSpaceOnUse"/>
    <linearGradient id="linear-gradient-2" x1="56.22" y1="113.11" x2="56.22" y2=".67" gradientUnits="userSpaceOnUse">
      <stop offset="0" stop-color="#000"/>
      <stop offset=".03" stop-color="#000"/>
      <stop offset=".28" stop-color="#000"/>
      <stop offset=".28" stop-color="#000"/>
      <stop offset=".35" stop-color="#3b3b3b"/>
      <stop offset=".43" stop-color="#6f6f6f"/>
      <stop offset=".51" stop-color="#9b9b9b"/>
      <stop offset=".59" stop-color="#bfbfbf"/>
      <stop offset=".67" stop-color="#dbdbdb"/>
      <stop offset=".75" stop-color="#efefef"/>
      <stop offset=".83" stop-color="#fbfbfb"/>
      <stop offset=".91" stop-color="#fff"/>
    </linearGradient>
    <mask id="mask-4" x="0" y=".67" width="112.44" height="112.44" maskUnits="userSpaceOnUse">
      <g class="cls-17">
        <g class="cls-45">
          <path class="cls-6" d="m112.44,56.89c0,31.05-25.17,56.22-56.22,56.22S0,87.94,0,56.89,25.17.67,56.22.67s56.22,25.17,56.22,56.22Z"/>
        </g>
      </g>
    </mask>
    <linearGradient id="linear-gradient-3" x1="56.22" y1="113.11" x2="56.22" y2=".67" gradientUnits="userSpaceOnUse">
      <stop offset="0" stop-color="#c1c4cb"/>
      <stop offset=".03" stop-color="#c9cdd5"/>
      <stop offset=".1" stop-color="#d8dce5"/>
      <stop offset=".18" stop-color="#e1e6ef"/>
      <stop offset=".28" stop-color="#e4e9f3"/>
      <stop offset=".28" stop-color="#e4e9f3"/>
      <stop offset=".6" stop-color="#f0f1f6"/>
      <stop offset=".91" stop-color="#f4f4f7"/>
    </linearGradient>
    <linearGradient id="linear-gradient-4" x1="56.49" y1="112.44" x2="56.49" y2="0" gradientUnits="userSpaceOnUse">
      <stop offset="0" stop-color="#a4a9b2"/>
      <stop offset=".15" stop-color="#b8bcc3"/>
      <stop offset=".42" stop-color="#d8dadf"/>
      <stop offset=".64" stop-color="#ecedf0"/>
      <stop offset=".8" stop-color="#f4f4f7"/>
    </linearGradient>
    <filter id="luminosity-noclip-7" x="8.99" y="5.49" width="92.14" height="37.69" color-interpolation-filters="sRGB" filterUnits="userSpaceOnUse">
      <feFlood flood-color="#fff" result="bg"/>
      <feBlend in="SourceGraphic" in2="bg"/>
    </filter>
    <filter id="luminosity-noclip-8" x="8.99" y="-7635.31" width="92.14" height="32766" color-interpolation-filters="sRGB" filterUnits="userSpaceOnUse">
      <feFlood flood-color="#fff" result="bg"/>
      <feBlend in="SourceGraphic" in2="bg"/>
    </filter>
    <mask id="mask-7" x="8.99" y="-7635.31" width="92.14" height="32766" maskUnits="userSpaceOnUse"/>
    <linearGradient id="linear-gradient-5" x1="55.05" y1="43.17" x2="55.05" y2="5.49" gradientUnits="userSpaceOnUse">
      <stop offset=".31" stop-color="#000"/>
      <stop offset=".43" stop-color="#454545"/>
      <stop offset=".55" stop-color="#868686"/>
      <stop offset=".67" stop-color="#bababa"/>
      <stop offset=".76" stop-color="#dfdfdf"/>
      <stop offset=".84" stop-color="#f6f6f6"/>
      <stop offset=".89" stop-color="#fff"/>
    </linearGradient>
    <mask id="mask-6" x="8.99" y="5.49" width="92.14" height="37.69" maskUnits="userSpaceOnUse">
      <g class="cls-15">
        <g class="cls-48">
          <path class="cls-4" d="m97.51,38.97c1.05,3.13.42,7.1-5.71,1.04-17.11-24.02-34.43-22.77-45.2-20.26-10.77,2.5-17.74,13.36-21.75,12.74-4.01-.63-3.17,4.39-10.99,4.81-3.46.18-4.64-2.52-4.88-5.61C19.1,15.94,36.89,5.49,57.16,5.49c8.92,0,17.35,2.02,24.86,5.62,6.72,3.93,13.56,8.54,16.54,12.41,6.76,8.77-2.11,12.32-1.05,15.46Z"/>
        </g>
      </g>
    </mask>
    <linearGradient id="linear-gradient-6" x1="55.05" y1="43.17" x2="55.05" y2="5.49" gradientUnits="userSpaceOnUse">
      <stop offset=".31" stop-color="#fff"/>
      <stop offset=".89" stop-color="#fff"/>
    </linearGradient>
    <filter id="luminosity-noclip-9" x="4.17" y="4.77" width="100.06" height="40.93" color-interpolation-filters="sRGB" filterUnits="userSpaceOnUse">
      <feFlood flood-color="#fff" result="bg"/>
      <feBlend in="SourceGraphic" in2="bg"/>
    </filter>
    <filter id="luminosity-noclip-10" x="4.17" y="-7635.31" width="100.06" height="32766" color-interpolation-filters="sRGB" filterUnits="userSpaceOnUse">
      <feFlood flood-color="#fff" result="bg"/>
      <feBlend in="SourceGraphic" in2="bg"/>
    </filter>
    <mask id="mask-9" x="4.17" y="-7635.31" width="100.06" height="32766" maskUnits="userSpaceOnUse"/>
    <linearGradient id="linear-gradient-7" x1="54.2" y1="45.7" x2="54.2" y2="4.77" xlink:href="#linear-gradient-5"/>
    <mask id="mask-8" x="4.17" y="4.77" width="100.06" height="40.93" maskUnits="userSpaceOnUse">
      <g class="cls-14">
        <g class="cls-51">
          <path class="cls-3" d="m100.3,41.14c1.14,3.4.46,7.71-6.2,1.14-18.58-26.09-37.38-24.72-49.08-22-11.7,2.72-19.27,14.52-23.63,13.83-4.36-.68-3.44,4.76-11.93,5.22-3.75.2-5.04-2.74-5.29-6.09C15.15,16.12,34.47,4.77,56.48,4.77c9.68,0,18.84,2.2,27,6.11,7.3,4.27,14.72,9.27,17.96,13.47,7.34,9.53-2.29,13.38-1.14,16.78Z"/>
        </g>
      </g>
    </mask>
    <linearGradient id="linear-gradient-8" x1="54.2" y1="45.7" x2="54.2" y2="4.77" xlink:href="#linear-gradient-6"/>
    <filter id="luminosity-noclip-11" x="0" y=".13" width="112.44" height="112.44" color-interpolation-filters="sRGB" filterUnits="userSpaceOnUse">
      <feFlood flood-color="#fff" result="bg"/>
      <feBlend in="SourceGraphic" in2="bg"/>
    </filter>
    <filter id="luminosity-noclip-12" x="0" y="-7635.31" width="112.44" height="32766" color-interpolation-filters="sRGB" filterUnits="userSpaceOnUse">
      <feFlood flood-color="#fff" result="bg"/>
      <feBlend in="SourceGraphic" in2="bg"/>
    </filter>
    <mask id="mask-11" x="0" y="-7635.31" width="112.44" height="32766" maskUnits="userSpaceOnUse"/>
    <linearGradient id="linear-gradient-9" y1="112.57" y2=".13" xlink:href="#linear-gradient-2"/>
    <mask id="mask-10" x="0" y=".13" width="112.44" height="112.44" maskUnits="userSpaceOnUse">
      <g class="cls-29">
        <g class="cls-11">
          <path class="cls-5" d="m112.44,56.35c0,31.05-25.17,56.22-56.22,56.22S0,87.4,0,56.35,25.17.13,56.22.13s56.22,25.17,56.22,56.22Z"/>
        </g>
      </g>
    </mask>
    <filter id="luminosity-noclip-13" x="0" y=".13" width="112.44" height="112.44" color-interpolation-filters="sRGB" filterUnits="userSpaceOnUse">
      <feFlood flood-color="#fff" result="bg"/>
      <feBlend in="SourceGraphic" in2="bg"/>
    </filter>
    <filter id="luminosity-noclip-14" x="0" y="-7635.31" width="112.44" height="32766" color-interpolation-filters="sRGB" filterUnits="userSpaceOnUse">
      <feFlood flood-color="#fff" result="bg"/>
      <feBlend in="SourceGraphic" in2="bg"/>
    </filter>
    <mask id="mask-13" x="0" y="-7635.31" width="112.44" height="32766" maskUnits="userSpaceOnUse"/>
    <linearGradient id="linear-gradient-10" x1="56.22" y1="112.57" x2="56.22" y2=".13" gradientUnits="userSpaceOnUse">
      <stop offset=".21" stop-color="#000"/>
      <stop offset=".33" stop-color="#1d1d1d"/>
      <stop offset=".57" stop-color="#6a6a6a"/>
      <stop offset=".92" stop-color="#e3e3e3"/>
      <stop offset="1" stop-color="#fff"/>
    </linearGradient>
    <mask id="mask-12" x="0" y=".13" width="112.44" height="112.44" maskUnits="userSpaceOnUse">
      <g class="cls-28">
        <g class="cls-9">
          <path class="cls-8" d="m112.44,56.35c0,31.05-25.17,56.22-56.22,56.22S0,87.4,0,56.35,25.17.13,56.22.13s56.22,25.17,56.22,56.22Z"/>
        </g>
      </g>
    </mask>
    <linearGradient id="linear-gradient-11" x1="56.22" y1="112.57" x2="56.22" y2=".13" gradientUnits="userSpaceOnUse">
      <stop offset=".21" stop-color="#fff"/>
      <stop offset="1" stop-color="#fff"/>
    </linearGradient>
    <clipPath id="clippath">
      <circle class="cls-1" cx="56.36" cy="55.08" r="53.74"/>
    </clipPath>
  </defs>
  <g class="cls-42">
    <g id="Capa_2" data-name="Capa 2">
      <g id="Capa_1-2" data-name="Capa 1">
        <g>
          <g>
            <g>
              <path class="cls-22" d="m56.35.41C25.97.41,1.34,25.03,1.34,55.42s24.63,55.01,55.01,55.01,55.01-24.63,55.01-55.01S86.74.41,56.35.41ZM5.66,55.42C5.66,27.31,28.45,4.53,56.55,4.53s50.89,22.78,50.89,50.89-22.79,50.88-50.89,50.88S5.66,83.52,5.66,55.42Z"/>
              <path class="cls-13" d="m112.7,56.89c0,31.05-25.17,56.22-56.22,56.22S.27,87.94.27,56.89,25.43.67,56.48.67s56.22,25.17,56.22,56.22Z"/>
              <g class="cls-40">
                <g class="cls-19">
                  <path class="cls-31" d="m56.39,2.18C26.08,2.18,1.51,26.74,1.51,57.05s24.57,54.88,54.88,54.88,54.88-24.57,54.88-54.88S86.69,2.18,56.39,2.18Zm.2,108.18c-29.44,0-53.31-23.87-53.31-53.3S27.15,3.75,56.59,3.75s53.31,23.86,53.31,53.3-23.87,53.3-53.31,53.3Z"/>
                </g>
              </g>
              <g class="cls-44">
                <path class="cls-30" d="m56.49.27C25.44.27.27,25.44.27,56.49s25.17,56.22,56.22,56.22,56.22-25.17,56.22-56.22S87.54.27,56.49.27ZM4.68,56.49C4.68,27.77,27.97,4.49,56.69,4.49s52,23.28,52,52-23.29,52-52,52S4.68,85.21,4.68,56.49Z"/>
              </g>
              <g class="cls-38">
                <g class="cls-46">
                  <path class="cls-34" d="m112.44,56.89c0,31.05-25.17,56.22-56.22,56.22S0,87.94,0,56.89,25.17.67,56.22.67s56.22,25.17,56.22,56.22Z"/>
                </g>
              </g>
              <path class="cls-32" d="m56.49,0C25.44,0,.27,25.17.27,56.22s25.17,56.22,56.22,56.22,56.22-25.17,56.22-56.22S87.53,0,56.49,0ZM4.68,56.22C4.68,27.5,27.97,4.22,56.69,4.22s52,23.28,52,52-23.28,52-52,52S4.68,84.94,4.68,56.22Z"/>
            </g>
            <g class="cls-39">
              <path class="cls-25" d="m97.89,38.04c1.01,3.01.4,6.83-5.42,1-16.26-23.09-32.73-21.88-42.97-19.47-10.24,2.41-16.86,12.85-20.68,12.24-3.82-.6-3.01,4.22-10.44,4.62-3.29.18-4.41-2.42-4.63-5.39C23.37,15.9,40.28,5.85,59.55,5.85c8.47,0,16.49,1.94,23.63,5.41,6.4,3.79,12.89,8.21,15.73,11.93,6.43,8.43-2.01,11.85-1.01,14.86Z"/>
              <path class="cls-25" d="m98.77,39.62c1.06,3.18.43,7.2-5.72,1.06-17.16-24.36-34.53-23.09-45.33-20.55-10.81,2.54-17.79,13.56-21.82,12.92-4.02-.64-3.18,4.45-11.01,4.87-3.47.19-4.65-2.56-4.89-5.69C20.15,16.26,37.99,5.66,58.32,5.66c8.94,0,17.4,2.05,24.93,5.7,6.74,3.99,13.6,8.66,16.59,12.58,6.78,8.89-2.12,12.5-1.06,15.67Z"/>
              <g class="cls-49">
                <path class="cls-35" d="m97.51,38.97c1.05,3.13.42,7.1-5.71,1.04-17.11-24.02-34.43-22.77-45.2-20.26-10.77,2.5-17.74,13.36-21.75,12.74-4.01-.63-3.17,4.39-10.99,4.81-3.46.18-4.64-2.52-4.88-5.61C19.1,15.94,36.89,5.49,57.16,5.49c8.92,0,17.35,2.02,24.86,5.62,6.72,3.93,13.56,8.54,16.54,12.41,6.76,8.77-2.11,12.32-1.05,15.46Z"/>
              </g>
            </g>
            <g class="cls-52">
              <path class="cls-23" d="m100.14,36.35c1.09,3.27.43,7.41-5.89,1.09-17.66-25.07-35.54-23.76-46.66-21.15-11.12,2.62-18.31,13.95-22.46,13.3-4.14-.65-3.27,4.58-11.34,5.01-3.57.19-4.79-2.63-5.03-5.85C19.2,12.3,37.57,1.39,58.49,1.39c9.2,0,17.91,2.11,25.66,5.87,6.94,4.11,13.99,8.91,17.07,12.95,6.98,9.16-2.18,12.86-1.09,16.13Z"/>
              <path class="cls-25" d="m100.72,40.13c1.09,3.27.44,7.41-5.89,1.09-17.66-25.08-35.54-23.77-46.66-21.15-11.12,2.62-18.32,13.95-22.46,13.3-4.14-.65-3.27,4.58-11.34,5.02-3.57.19-4.79-2.63-5.03-5.85C19.78,16.08,38.15,5.17,59.07,5.17c9.2,0,17.91,2.11,25.66,5.87,6.94,4.11,14,8.92,17.08,12.95,6.98,9.16-2.18,12.86-1.09,16.14Z"/>
              <path class="cls-25" d="m101.68,41.84c1.15,3.45.46,7.82-6.21,1.15-18.63-26.45-37.49-25.07-49.23-22.31-11.73,2.76-19.32,14.73-23.69,14.03-4.37-.69-3.45,4.83-11.96,5.29-3.76.2-5.05-2.78-5.31-6.17C16.29,16.47,35.67,4.96,57.74,4.96c9.71,0,18.89,2.23,27.07,6.19,7.33,4.34,14.77,9.41,18.02,13.67,7.36,9.66-2.3,13.57-1.15,17.02Z"/>
              <g class="cls-50">
                <path class="cls-33" d="m100.3,41.14c1.14,3.4.46,7.71-6.2,1.14-18.58-26.09-37.38-24.72-49.08-22-11.7,2.72-19.27,14.52-23.63,13.83-4.36-.68-3.44,4.76-11.93,5.22-3.75.2-5.04-2.74-5.29-6.09C15.15,16.12,34.47,4.77,56.48,4.77c9.68,0,18.84,2.2,27,6.11,7.3,4.27,14.72,9.27,17.96,13.47,7.34,9.53-2.29,13.38-1.14,16.78Z"/>
              </g>
            </g>
            <g class="cls-37">
              <g class="cls-12">
                <g class="cls-10">
                  <path class="cls-41" d="m112.44,56.35c0,31.05-25.17,56.22-56.22,56.22S0,87.4,0,56.35,25.17.13,56.22.13s56.22,25.17,56.22,56.22Z"/>
                </g>
              </g>
            </g>
          </g>
          <g class="cls-18">
            <g>
              <path class="cls-24" d="m26.37,44.42c-3.77,10.54-7.55,21.11-10.11,32.18,1.94.66,3.98,1.05,6.02,1.16.78-2.71,1.55-5.43,2.33-8.14,0,0-.11-.08-.26-.11,1.55.3,2.95,1.14,4.13,2.19,1.18,1.05,2.16,2.29,3.25,3.74-.11,1.53,1.01,3,2.46,3.53,1.45.53,3.11.21,4.46-.7-.13.67-.13,1.37,0,2.05.06.29.14.58.28.85.29.56.8.97,1.36,1.26.94.49,2.06.64,3.19.45-.12,1.28.85,2.5,2.06,2.94,1.21.45,2.58.23,3.83-.24.19.44.4.9.76,1.22.4.37.95.53,1.49.59,1.29.15,2.64-.22,3.85-.94,1.33.72,3.01.75,4.35.07.35-.18.69-.41.96-.7.55-.59.79-1.4.84-2.2.05-.8-.09-1.6-.14-2.42.67.78,1.37,1.55,2.24,2.08s1.95.82,2.93.55c.82-.22,1.51-.81,1.97-1.53.45-.72.68-1.56.75-2.53.33.54.69,1.07,1.09,1.57.37.47.77.92,1.26,1.26.49.33,1.09.54,1.69.48.92-.1,1.66-.85,2.03-1.7.37-.85.42-1.79.48-2.72.03-.53.06-1.07.04-1.61.48.91.97,1.83,1.61,2.64.64.81,1.46,1.51,2.43,1.85.24.09.49.15.74.21.4.1.86.19,1.2-.05.27-.19.38-.54.42-.86s.02-.67.21-1c3.7-1.39,7.33-2.94,10.85-4.6.35,1.3.75,2.58,1.27,3.82,2.64-.61,5.19-1.55,7.56-2.78,2.09-.8,11.34-5.81,13.2-6.99-.3-10.44,1.03-21.48-3.74-30.77-.3-.58-.61-1.17-1.09-1.66-5.24,1.82-20.64,8.63-25.55,11.22.14.27.27.53.27.83-5.08.36-10.05-1.35-14.85-3.05-1.52-.54-3.07-1.08-4.68-1.19-1.43-.1-2.86.15-4.46.29-1.7-1.03-3.6-1.69-5.52-2.22-1.16-.32-2.34-.6-3.54-.59-1.1.01-2.18.28-3.24.58-5.69,1.66-11.01,4.73-16.92,5.28.05-.4.09-.79.14-1.19.03-.21.04-.45-.07-.63-1.92-.78-3.86-1.56-5.81-1.77Z"/>
              <path class="cls-21" d="m108.16,73.16s-.04,0-.06-.01l-7.86-1.95c-.08-.03-.12-.12-.09-.21.03-.08.12-.13.21-.09l7.86,1.95c.08.03.12.12.09.21-.02.06-.08.1-.15.1Z"/>
              <path class="cls-21" d="m109.92,71.21s-.03,0-.05,0c-2.86-.98-8.35-2.11-11.09-3.41-.08-.04-.11-.13-.08-.21.04-.08.13-.11.21-.08,2.72,1.29,8.2,2.43,11.06,3.4.08.03.13.12.1.2-.02.07-.09.11-.15.11Z"/>
              <path class="cls-21" d="m112.43,68.32s-.03,0-.05,0c-3.19-1.04-11.09-2.4-14.17-3.7-.08-.03-.12-.13-.09-.21.03-.08.13-.12.21-.09,3.08,1.3,10.97,2.65,14.15,3.69.08.03.13.12.1.2-.02.07-.08.11-.15.11Z"/>
              <path class="cls-21" d="m112.43,65.37s-.04,0-.06-.01c-3.71-1.39-11.3-2.76-15.26-4.43-.08-.03-.12-.13-.09-.21.03-.08.13-.12.21-.09,3.95,1.67,11.54,3.03,15.25,4.42.08.03.12.12.09.21-.02.06-.09.1-.15.1Z"/>
              <path class="cls-21" d="m111.51,62.04s-.04,0-.06-.01l-15.35-4.5c-.08-.03-.12-.13-.09-.21.03-.08.13-.12.21-.09l15.35,4.5c.08.03.12.13.09.21-.03.06-.09.1-.15.1Z"/>
              <path class="cls-21" d="m111.17,58.86s-.04,0-.06-.01l-16.27-5.28c-.08-.04-.12-.13-.08-.21.04-.08.13-.12.21-.08l16.27,5.28c.08.04.12.13.08.21-.03.06-.09.1-.15.1Z"/>
              <path class="cls-21" d="m110.04,54.86s-.04,0-.07-.01l-16.37-5.4c-.08-.04-.12-.13-.08-.21.04-.08.13-.12.21-.08l16.37,5.4c.08.04.12.13.08.21-.03.06-.09.09-.15.09Z"/>
              <path class="cls-21" d="m107.42,49.62s-.04,0-.06-.01c-2.89-1.11-10.57-2.35-13.5-3.35-.08-.03-.13-.12-.1-.2.03-.08.12-.13.2-.1,2.93,1,10.61,2.24,13.51,3.36.08.03.12.12.09.21-.02.06-.09.1-.15.1Z"/>
              <path class="cls-21" d="m107.19,45.93s-.04,0-.06-.01l-8.88-1.9c-.08-.03-.12-.13-.09-.21.03-.08.13-.12.21-.09l8.88,1.9c.08.03.12.13.09.21-.03.06-.09.1-.15.1Z"/>
              <path class="cls-27" d="m-.91,35.52c4.11,1.38,23.49,7.64,27.45,8.83-.65,2.74-2.32,5.11-3.44,7.7-.59,1.37-1.04,2.8-1.47,4.23-2.04,6.7-3.99,13.43-5.87,20.17-3.67-1.26-17.03-4.95-20.96-5.65C-1.58,59.55-3.02,46.77-.91,35.52Z"/>
              <g class="cls-36">
                <path class="cls-21" d="m91.93,73.84c-.64.19-1.27.42-1.88.68-.14,0-.28,0-.42.03-.31.05-.6.18-.9.3-.33.11-.63.22-.95.35-.12.05-.5.19-.65.23-.05.01-.08.03-.11.04-.09.03-.19.06-.28.08-.06,0-.11,0-.17,0-.06-.01-.13-.03-.19-.05,0,0,0,0,0,0-.13-.12-.26-.26-.37-.4-.15-.2.02.03.08.1-.1-.14-.21-.27-.33-.4-.03-.04-.06-.07-.09-.1-.11-.15-.2-.3-.3-.46-.41-.62-.78-1.27-1.12-1.92-.72-1.4-1.38-2.82-2.15-4.19-.44-.93-.82-1.9-1.38-2.78-1.6-2.44-3.15-4.36-5.55-6.49-1.51-1.53-3.25-2.84-5.12-3.9-1.27-.7-2.59-1.39-4.06-1.5-1.03-.23-1.28,1.29-.22,1.36.96.05,2,.49,3.1,1.12-.1.25-.08.55.17.81,1.02.89,2.2,1.57,3.27,2.41-.05-.03.54.47.66.59.12.12.25.24.36.37-.1.09-.16.22-.16.36.07.44.57.96.79,1.38,1.17,1.79,2.55,3.45,3.55,5.34,1.32,2.6,2.27,5.19,2.72,8.67.23,1.09.36,3.09,0,3.66-.03.04-.06.07-.1.1-.03.02-.05.03-.07.04-.05.02-.09.03-.14.05-.02,0-.04.02-.07.02,0,0-.01,0-.02,0-.1,0-.21,0-.28,0-.04,0-.07-.01-.11-.02-.4-.1-.18-.01-.78-.33-.92-.52-1.71.84-.81,1.39,2.27,1.64,3.86,1.05,4.31-1.16.23-1.34.08-2.7-.16-4.03.07.2.13.4.2.6.13.79.24,1.54.35,2.2-.02.02-.03.04-.05.06-.26.41-.07.91.29,1.15.16.26.51.38.8.3.26-.08.4-.23.47-.43,2.48-.98,4.94-2.03,7.23-3.41.54-.33.54-.37.98-.55.23-.1.51-.23.65-.44.11-.08.21-.17.3-.29.42-.87-.63-1.32-1.32-.94Z"/>
              </g>
              <g class="cls-36">
                <path class="cls-21" d="m115,67.15c-.13,0-.26.03-.37.09-.58.17-8.29,4.67-8.86,4.87-1,.49-1.4.58-2.74,1.22-2.32,1.23-6.17,2.44-8.24,3.31-1.36.41-.81,2.43.58,2.09,2.17-.7,4.22-1.72,6.32-2.61,1.1-.51,10.4-5.39,12.14-6.25.81-.43,1.83-.93,1.93-1.18.51-.58,0-1.56-.75-1.54Z"/>
              </g>
              <g>
                <g class="cls-36">
                  <polygon class="cls-21" points="24.96 69.66 24.96 69.66 24.96 69.66 24.96 69.66"/>
                </g>
                <g class="cls-36">
                  <path class="cls-21" d="m31.03,48.95c-.88,3.19-2.44,5.54-3.57,9.05-.69,2.05-1.21,4.14-1.61,6.26-.25.94-.44,1.89-.64,2.84-.14.84-.39,1.71-.24,2.56.22.83,1.14,1.23,1.88.96.47.5.98.97,1.48,1.44,0-.02,0-.04,0-.06-.04-.94-.03-1.88.03-2.81-.2-.66-.27-1.09-.31-1.63.19-1.04.44-2.06.56-3.11.5-3.38,1.45-6.66,2.55-9.89.33-.96.58-1.95,1-2.88.3-.84.78-1.69.79-2.59-.09-1.04-1.67-1.15-1.92-.13Z"/>
                </g>
                <g class="cls-36">
                  <path class="cls-21" d="m32.03,74.77c-.05.2-.25.36-.47.35.17.09.36.14.56.08.31-.08.51-.39.5-.7-.19.09-.39.19-.59.27Z"/>
                </g>
                <g class="cls-36">
                  <path class="cls-21" d="m24.96,69.66c-.02-.13-.03-.25-.05-.38,0,.14.02.26.05.38Z"/>
                </g>
              </g>
              <g class="cls-36">
                <path class="cls-21" d="m37.86,77.36c-.37.25-.88.17-1.85.16-.64-.06-1.47-.01-2.19-.24-.47-.11-.92-.47-1.41-.41-.93.08-1.01,1.48-.12,1.7.65.25,1.31.48,1.99.62.58.13,1.17.27,1.75.12.73-.15,1.42-.46,2.07-.81.26-.17.62-.31.72-.63.14-.59-.55-.88-.97-.51Z"/>
              </g>
              <g class="cls-36">
                <path class="cls-21" d="m47.7,78.62c-.32.11-.39.28-.89.55-1.01.55-1.45.65-2.8.92-1.28.33-1.17.26-2.59.36-.44.02-.89,0-1.33-.06-.29-.05-.58-.16-.87-.1-1.17.11-1.27,1.83-.15,2.13,2.87.83,5.23,0,7.26-1.23.61-.37,1.22-.75,1.75-1.25.29-.32.36-.26.42-.7,0-.41-.41-.72-.8-.61Z"/>
              </g>
              <g class="cls-36">
                <path class="cls-21" d="m59.75,84.53c-.6.08-.45.16-.77.26-.25.07-.29.18-1.19.4-.62.11-.6.1-.76.12.12-.15.17-.36.13-.55-.03-.39-.4-.69-.78-.69-.47.03-.83.42-1.26.59-.9.4-.68.33-1.93.75-1.13.32-1.71.29-2.14.31-.41-.01-.81-.28-1.19-.32.76-.29,1.47-.7,2.16-1.12.79-.48,1.48-1.07,2.13-1.72.14-.12.23-.31.23-.5,0-.23-.13-.44-.32-.56-.25-.15-.59-.1-.79.1.04-.03.15-.12.09-.07-.32.2-.64.4-.97.59-1.87,1.21-4.35,1.91-5.95,2.16-.38.04-.76.09-1.15.05-.03,0-.05,0-.06,0-.01,0-.03,0-.04,0-.29-.03-.58-.17-.87-.13-.69.06-.76,1.1-.09,1.27.61.21,1.22.42,1.86.48.68.07,1.36-.02,2.03-.1.36-.03.72-.1,1.07-.19-.33.36-.31,1.02.17,1.28,1.75.88,3.63.7,5.37-.09.32-.12.62-.28.92-.45.01.53.42,1.05,1.01,1.03,1.09-.14,2.26-.2,3.18-.86.27-.21.63-.39.75-.73.28-.57-.21-1.29-.84-1.27Z"/>
              </g>
              <g class="cls-36">
                <path class="cls-21" d="m68.55,80.47c-.67.34-.51.41-.94.68-.65.45-.56.4-1.49.64-.77.13-.3.1-.96.12-.08,0-.15,0-.23-.02-.08-.01-.19-.04-.27-.06-.56-.09-1.14-.5-1.69-.17-.72.39-.57,1.56.23,1.75.73.22,1.48.43,2.25.38.92-.06,1.81-.4,2.58-.91.37-.26.72-.55,1.06-.85.24-.2.49-.45.48-.78.01-.51-.52-.91-1.01-.77Z"/>
              </g>
              <g class="cls-36">
                <path class="cls-21" d="m76.12,77.83c0-.4-.27-.8-.67-.9-.02,0-.04,0-.06,0,0-.76.02-1.52-.17-2.25-.28-1.15-.91-2.16-1.42-3.21-.48-1.11-1.1-2.17-1.89-3.08-.34-.3-.91,0-.9.44.03.38.38.65.55.98.98,1.43,1.31,2.5,1.78,4.22.57,1.8.67,2.67.51,4.53,0,.02,0,.04,0,.06-.02.08-.03.17-.05.25,0,.04-.02.11-.05.18-.09.15-.19.3-.3.45-.13.16-.4.47-.55.61-.03.02-.07.04-.1.06-.3.03-.52.02-1.31-.24-.22-.08-.27-.11-.02,0-.4-.14-.76-.41-1.17-.49-.93-.17-1.39,1.18-.57,1.64.29.15.61.29.89.42.06.31.23.59.52.75.07.04.14.07.21.1.02.37.25.73.72.87.4.11.81.22,1.23.13.14-.02.43-.15.47-.17.41-.18.84-.43,1.02-.85.1-.21.11-.43.05-.62.16-.16.25-.37.27-.59.41-.54.7-1.17.86-1.82.09-.45.14-.92.15-1.38,0-.02,0-.03,0-.05,0-.01,0-.02,0-.03h0Z"/>
              </g>
              <path class="cls-21" d="m21.99,78.28s-.06,0-.09,0c-2.96-.54-6.02-1.1-9.05-1.92-1.17-.39-2.3-.65-3.49-.92-1.3-.3-13.17-3.65-14.54-4.13-.25-.09-.38-.36-.29-.61.09-.25.36-.38.61-.29,1.32.46,13.16,3.81,14.44,4.1,1.16.27,2.37.54,3.56.94,2.81.77,5.69,1.3,8.49,1.81,1.21-4.9,2.86-9.68,4.45-14.31.95-2.75,1.93-5.6,2.82-8.48,0-.01,0-.02.01-.04.3-.75.62-1.48.93-2.19.84-1.92,1.64-3.73,2.03-5.83-.01-.02-.05-.05-.07-.06-.06,0-.11,0-.16-.03-2.62-1-5.36-1.73-8.02-2.43-3.14-.83-21.6-6.7-24.75-8.03-.24-.1-.36-.38-.26-.63.1-.24.38-.36.63-.26,3.09,1.3,21.52,7.16,24.62,7.98,2.65.7,5.4,1.43,8.05,2.44.49.06.92.52.92,1.02,0,.03,0,.06,0,.09-.41,2.24-1.27,4.22-2.11,6.12-.31.7-.62,1.41-.91,2.14-.9,2.89-1.88,5.73-2.82,8.48-1.71,4.97-3.32,9.66-4.53,14.66-.05.22-.25.37-.47.37Zm10.37-31.86h0,0Z"/>
              <path class="cls-21" d="m15.91,76.75s-.08,0-.12-.01c-.26-.06-.41-.33-.35-.58,2.76-11,6.64-22.7,10.66-32.09.1-.24.39-.36.63-.25.24.1.36.39.25.63-3.99,9.34-7.86,20.99-10.61,31.94-.05.22-.25.36-.47.36Z"/>
              <path class="cls-21" d="m94.62,79.68c-.08,0-.15-.02-.22-.05-.12-.06-.21-.17-.24-.29-1.91-6.56-3.92-13.12-6.06-20.06-1.11-3.6-2.25-7.32-3.39-11.08-.07-.22.03-.45.23-.56,4.86-2.63,20.28-9.47,25.51-11.28.25-.09.52.05.61.3.09.25-.05.52-.3.61-5.05,1.75-20.31,8.5-25.02,11.03,1.1,3.63,2.21,7.22,3.28,10.7,2.08,6.77,4.05,13.18,5.92,19.58,4.46-1.6,16.09-7.55,20.39-9.55.24-.11.53,0,.64.23.11.24,0,.53-.23.64-4.47,2.09-16.3,8.11-20.95,9.76-.05.02-.11.03-.16.03Z"/>
              <path class="cls-21" d="m100.39,77.17c-.21,0-.41-.14-.46-.36-2.8-10.54-6-21.12-9.5-31.46-.09-.25.05-.52.3-.61.25-.08.52.05.61.3,3.51,10.35,6.71,20.96,9.51,31.52.07.26-.08.52-.34.59-.04.01-.08.02-.12.02Z"/>
              <path class="cls-21" d="m47.25,62.87c-1.1,0-2.4-.48-2.98-1.6-1.03-2.01.91-4.26,1.55-5,2.63-3.05,5.36-6.21,8.75-8.59,3.82-2.69,8-3.9,11.76-3.43,1.92.24,3.75.92,5.52,1.58.57.21,1.16.43,1.74.63,3.69,1.26,7.54,1.93,11.44,1.99.27,0,.48.22.47.49,0,.26-.22.47-.48.47h0c-4-.06-7.95-.75-11.74-2.04-.59-.2-1.19-.42-1.77-.64-1.72-.64-3.5-1.29-5.31-1.52-3.52-.45-7.46.71-11.09,3.26-3.29,2.31-5.98,5.43-8.57,8.44-1.45,1.68-1.92,2.97-1.42,3.93.42.81,1.45,1.13,2.29,1.08.96-.06,1.86-.48,2.85-.98.66-.33,1.32-.66,1.98-.99,4.04-2.01,7.85-3.91,11.47-6.46.22-.15.52-.1.67.12.15.22.1.52-.12.67-3.68,2.59-7.53,4.51-11.6,6.53-.66.33-1.32.66-1.98.99-1.05.53-2.09,1.01-3.22,1.08-.07,0-.15,0-.22,0Z"/>
              <path class="cls-21" d="m82.76,80.37c-.19,0-.37-.11-.44-.3-.1-.24.02-.53.26-.63,3.45-1.42,6.94-2.9,10.36-4.4.24-.11.53,0,.63.25.11.24,0,.53-.25.63-3.43,1.5-6.92,2.98-10.38,4.41-.06.02-.12.04-.18.04Z"/>
              <path class="cls-21" d="m81.42,82.3c-.1,0-.2,0-.28-.02-1.59-.17-3.16-1.23-4.3-2.9-.73-1.07-1.24-2.27-1.73-3.42-.15-.36-.31-.73-.47-1.09-1.3-2.92-3.07-5.58-5.24-7.93-.18-.19-.17-.5.03-.68.19-.18.5-.17.68.03,2.24,2.42,4.06,5.18,5.41,8.19.16.37.32.74.48,1.11.49,1.16.96,2.26,1.63,3.26.98,1.44,2.3,2.35,3.61,2.49.08,0,.3.03.41-.03.12-.08.18-.33.16-.75-.17-5.57-2.01-11.16-5.16-15.75-3.15-4.59-7.72-8.31-12.85-10.47-.24-.1-.36-.38-.26-.63.1-.24.38-.36.63-.26,5.3,2.23,10.01,6.07,13.27,10.81,3.26,4.74,5.15,10.52,5.33,16.26.01.32.04,1.18-.61,1.59-.24.15-.51.19-.75.19Z"/>
              <path class="cls-21" d="m57.44,87.56c-.67,0-1.53-.11-2.47-.79-.21-.16-.26-.46-.1-.67.16-.21.46-.26.67-.1.89.66,1.65.62,2.31.6h.07c.99-.04,2.07-.55,2.67-1.27.26-.31.55-.8.47-1.4,0-.02,0-.04,0-.07,0-1.03-.14-2.07-.27-2.86-.03-.21.08-.42.27-.51.19-.09.42-.05.56.11.73.8,1.48,1.63,2.4,2.18.96.57,2.02.73,2.84.43,1.13-.41,2.29-2.38,2.03-3.45-.06-.26.1-.52.35-.58.26-.06.52.1.58.35.4,1.68-1.17,4.04-2.64,4.57-1.11.4-2.44.22-3.66-.51-.59-.36-1.11-.8-1.59-1.27.05.48.08.98.08,1.49.09.74-.15,1.46-.69,2.11-.78.92-2.1,1.55-3.36,1.61h-.07c-.14,0-.29.02-.45.02Z"/>
              <path class="cls-21" d="m73.24,83.63c-.4,0-.78-.11-1.14-.25-1.81-.7-2.78-2.68-3.71-4.59-.65-1.32-1.31-2.69-2.22-3.51-.2-.18-.22-.48-.04-.68.18-.2.48-.22.68-.04,1.05.94,1.76,2.39,2.45,3.8.89,1.83,1.73,3.55,3.19,4.12.63.24,1.41.55,2.45-1.21.28-.48.36-1.09.4-1.67.1-1.5-.3-3.04-.69-4.53-.06-.23-.12-.46-.18-.68-.06-.26.09-.52.35-.58.26-.07.52.09.58.35.06.22.12.45.17.68.41,1.57.83,3.19.71,4.84-.05.7-.15,1.44-.53,2.09-.85,1.44-1.7,1.86-2.49,1.86Z"/>
              <path class="cls-21" d="m42.02,83.34s-.08,0-.13,0c-1.8-.04-3.35-1.11-3.79-2.6-.16-.56-.16-1.13-.08-1.68-.98.61-2.2.86-3.36.65-1.78-.32-3.28-1.78-3.56-3.48-.12-.7.1-1.09.31-1.29.19-.19.49-.18.68,0,.19.19.18.49,0,.68-.04.04-.08.19-.04.45.22,1.31,1.39,2.44,2.79,2.69,1.36.25,2.82-.3,3.62-1.36.13-.17.36-.24.56-.16.17-.09.33-.15.44-.2,1.92-.75,3.94-1.21,5.99-1.37,1.65-.13,2.75.27,3.27,1.18.25.44.33.97.25,1.6-.1.79-.44,1.56-.97,2.17-.51.58-1.16,1-1.79,1.36-1.11.63-2.58,1.36-4.18,1.36Zm-2.86-5.04c-.21.81-.32,1.51-.13,2.17.35,1.22,1.72,1.88,2.89,1.91,1.41.04,2.78-.64,3.81-1.23.56-.32,1.13-.68,1.54-1.15.4-.46.66-1.05.74-1.66.04-.28.04-.69-.14-1.01-.39-.7-1.5-.77-2.36-.7-1.96.15-3.88.59-5.71,1.31-.3.12-.51.24-.63.36Z"/>
              <path class="cls-21" d="m46.73,86.59c-.75,0-1.45-.18-2.05-.53-1.17-.69-1.87-2.05-1.75-3.4.02-.26.26-.46.52-.44.26.02.46.26.44.52-.09.97.44,1.99,1.28,2.49.81.48,1.92.53,3.03.13,1.05-.37,1.96-1.05,2.88-1.77,1.31-1.03,2.54-2.18,2.66-3.63,0-.09.01-.21-.02-.28-.03-.07-.12-.15-.27-.24-.69-.42-1.63-.52-2.64-.29-.89.2-1.62.58-2.46,1.01l-.14.07c-.24.12-.53.03-.65-.21-.12-.24-.03-.53.21-.65l.14-.07c.86-.45,1.68-.87,2.69-1.1,1.25-.28,2.44-.14,3.35.4.21.13.5.33.65.68.11.27.11.53.1.74-.14,1.82-1.54,3.15-3.02,4.31-.95.74-1.97,1.5-3.15,1.92-.6.21-1.21.32-1.79.32Z"/>
              <path class="cls-21" d="m52.33,87.95c-.69,0-1.37-.16-1.99-.46-.71-.35-1.46-1.06-1.4-1.99.02-.26.25-.46.51-.45.26.02.47.24.45.51-.03.46.45.86.87,1.07.65.33,1.41.44,2.13.32,1.14-.19,2.13-.94,2.95-1.65.92-.8,1.32-1.46,1.24-2.08-.09-.72-.88-1.21-1.56-1.25-.68-.04-1.38.24-2.21.89-.21.16-.51.13-.67-.08-.16-.21-.13-.51.08-.67.64-.5,1.63-1.16,2.85-1.09,1.09.06,2.31.86,2.46,2.09.15,1.27-.82,2.27-1.57,2.92-.86.75-2.03,1.64-3.42,1.87-.24.04-.49.06-.73.06Z"/>
              <path class="cls-21" d="m38.89,77.86c-.23,0-.43-.16-.47-.4-.17-.98-1.25-1.57-1.88-1.84-1.84-.77-3.43-.75-4.74.08-.21.14-.5.08-.65-.13-1.83-2.55-4.12-4.43-6.8-5.6-.24-.11-.35-.39-.25-.63.11-.24.39-.35.63-.25,2.72,1.18,5.05,3.06,6.94,5.57,1.51-.78,3.27-.76,5.23.07,1.4.59,2.27,1.5,2.45,2.56.05.26-.13.51-.39.55-.03,0-.06,0-.08,0Z"/>
              <path class="cls-21" d="m31.95,48.62c-.22,0-.42-.15-.47-.37-.06-.26.1-.52.36-.58,5.31-1.23,10.19-2.91,14.27-4.4l.36-.13c1.55-.57,3.15-1.16,4.84-1.34,3.89-.43,7.48,1.24,10.64,2.72.24.11.34.4.23.64-.11.24-.4.34-.64.23-3.05-1.42-6.51-3.04-10.13-2.63-1.57.17-3.12.74-4.61,1.29l-.37.13c-4.1,1.5-9.02,3.2-14.38,4.44-.04,0-.07.01-.11.01Z"/>
              <path class="cls-21" d="m41.47,40.3c-.16,0-.31-.08-.41-.22-.14-.22-.08-.52.15-.66,4.36-2.76,9.6-4.12,14.75-3.83.26.02.47.24.45.51-.01.27-.24.47-.51.45-4.95-.28-9.99,1.03-14.18,3.68-.08.05-.17.07-.26.07Z"/>
              <path class="cls-21" d="m38.46,35.61c-.16,0-.31-.08-.4-.22-.14-.22-.08-.52.14-.66,2.58-1.68,5.54-2.84,8.57-3.37.26-.05.51.13.56.39.05.26-.13.51-.39.56-2.9.51-5.74,1.63-8.21,3.23-.08.05-.17.08-.26.08Z"/>
              <path class="cls-21" d="m69.17,88.29c-.26,0-.47-.21-.48-.47,0-.27.2-.49.47-.49,2.8-.09,5.52-1.11,7.68-2.89.2-.17.51-.14.68.07.17.2.14.51-.07.68-2.32,1.91-5.26,3.01-8.26,3.1,0,0,0,0-.02,0Z"/>
              <path class="cls-21" d="m108.16,73.16s-.04,0-.06-.01l-7.86-1.95c-.08-.03-.12-.12-.09-.21.03-.08.12-.13.21-.09l7.86,1.95c.08.03.12.12.09.21-.02.06-.08.1-.15.1Z"/>
              <path class="cls-21" d="m109.92,71.21s-.03,0-.05,0c-2.86-.98-8.35-2.11-11.09-3.41-.08-.04-.11-.13-.08-.21.04-.08.13-.11.21-.08,2.72,1.29,8.2,2.43,11.06,3.4.08.03.13.12.1.2-.02.07-.09.11-.15.11Z"/>
              <path class="cls-21" d="m112.43,68.32s-.03,0-.05,0c-3.19-1.04-11.09-2.4-14.17-3.7-.08-.03-.12-.13-.09-.21.03-.08.13-.12.21-.09,3.08,1.3,10.97,2.65,14.15,3.69.08.03.13.12.1.2-.02.07-.08.11-.15.11Z"/>
              <path class="cls-21" d="m112.43,65.37s-.04,0-.06-.01c-3.71-1.39-11.3-2.76-15.26-4.43-.08-.03-.12-.13-.09-.21.03-.08.13-.12.21-.09,3.95,1.67,11.54,3.03,15.25,4.42.08.03.12.12.09.21-.02.06-.09.1-.15.1Z"/>
              <path class="cls-21" d="m111.51,62.04s-.04,0-.06-.01l-15.35-4.5c-.08-.03-.12-.13-.09-.21.03-.08.13-.12.21-.09l15.35,4.5c.08.03.12.13.09.21-.03.06-.09.1-.15.1Z"/>
              <path class="cls-21" d="m111.17,58.86s-.04,0-.06-.01l-16.27-5.28c-.08-.04-.12-.13-.08-.21.04-.08.13-.12.21-.08l16.27,5.28c.08.04.12.13.08.21-.03.06-.09.1-.15.1Z"/>
              <path class="cls-21" d="m110.04,54.86s-.04,0-.07-.01l-16.37-5.4c-.08-.04-.12-.13-.08-.21.04-.08.13-.12.21-.08l16.37,5.4c.08.04.12.13.08.21-.03.06-.09.09-.15.09Z"/>
              <path class="cls-21" d="m107.42,49.62s-.04,0-.06-.01c-2.89-1.11-10.57-2.35-13.5-3.35-.08-.03-.13-.12-.1-.2.03-.08.12-.13.2-.1,2.93,1,10.61,2.24,13.51,3.36.08.03.12.12.09.21-.02.06-.09.1-.15.1Z"/>
              <path class="cls-21" d="m107.19,45.93s-.04,0-.06-.01l-8.88-1.9c-.08-.03-.12-.13-.09-.21.03-.08.13-.12.21-.09l8.88,1.9c.08.03.12.13.09.21-.03.06-.09.1-.15.1Z"/>
              <path class="cls-26" d="m-.91,35.52c4.11,1.38,23.49,7.64,27.45,8.83-.65,2.74-2.32,5.11-3.44,7.7-.59,1.37-1.04,2.8-1.47,4.23-2.04,6.7-3.99,13.43-5.87,20.17-3.67-1.26-17.03-4.95-20.96-5.65C-1.58,59.55-3.02,46.77-.91,35.52Z"/>
              <g class="cls-36">
                <path class="cls-21" d="m91.93,73.84c-.64.19-1.27.42-1.88.68-.14,0-.28,0-.42.03-.31.05-.6.18-.9.3-.33.11-.63.22-.95.35-.12.05-.5.19-.65.23-.05.01-.08.03-.11.04-.09.03-.19.06-.28.08-.06,0-.11,0-.17,0-.06-.01-.13-.03-.19-.05,0,0,0,0,0,0-.13-.12-.26-.26-.37-.4-.15-.2.02.03.08.1-.1-.14-.21-.27-.33-.4-.03-.04-.06-.07-.09-.1-.11-.15-.2-.3-.3-.46-.41-.62-.78-1.27-1.12-1.92-.72-1.4-1.38-2.82-2.15-4.19-.44-.93-.82-1.9-1.38-2.78-1.6-2.44-3.15-4.36-5.55-6.49-1.51-1.53-3.25-2.84-5.12-3.9-1.27-.7-2.59-1.39-4.06-1.5-1.03-.23-1.28,1.29-.22,1.36.96.05,2,.49,3.1,1.12-.1.25-.08.55.17.81,1.02.89,2.2,1.57,3.27,2.41-.05-.03.54.47.66.59.12.12.25.24.36.37-.1.09-.16.22-.16.36.07.44.57.96.79,1.38,1.17,1.79,2.55,3.45,3.55,5.34,1.32,2.6,2.27,5.19,2.72,8.67.23,1.09.36,3.09,0,3.66-.03.04-.06.07-.1.1-.03.02-.05.03-.07.04-.05.02-.09.03-.14.05-.02,0-.04.02-.07.02,0,0-.01,0-.02,0-.1,0-.21,0-.28,0-.04,0-.07-.01-.11-.02-.4-.1-.18-.01-.78-.33-.92-.52-1.71.84-.81,1.39,2.27,1.64,3.86,1.05,4.31-1.16.23-1.34.08-2.7-.16-4.03.07.2.13.4.2.6.13.79.24,1.54.35,2.2-.02.02-.03.04-.05.06-.26.41-.07.91.29,1.15.16.26.51.38.8.3.26-.08.4-.23.47-.43,2.48-.98,4.94-2.03,7.23-3.41.54-.33.54-.37.98-.55.23-.1.51-.23.65-.44.11-.08.21-.17.3-.29.42-.87-.63-1.32-1.32-.94Z"/>
              </g>
              <g class="cls-36">
                <path class="cls-21" d="m115,67.15c-.13,0-.26.03-.37.09-.58.17-8.29,4.67-8.86,4.87-1,.49-1.4.58-2.74,1.22-2.32,1.23-6.17,2.44-8.24,3.31-1.36.41-.81,2.43.58,2.09,2.17-.7,4.22-1.72,6.32-2.61,1.1-.51,10.4-5.39,12.14-6.25.81-.43,1.83-.93,1.93-1.18.51-.58,0-1.56-.75-1.54Z"/>
              </g>
              <g>
                <g class="cls-36">
                  <polygon class="cls-21" points="24.96 69.66 24.96 69.66 24.96 69.66 24.96 69.66"/>
                </g>
                <g class="cls-36">
                  <path class="cls-21" d="m31.03,48.95c-.88,3.19-2.44,5.54-3.57,9.05-.69,2.05-1.21,4.14-1.61,6.26-.25.94-.44,1.89-.64,2.84-.14.84-.39,1.71-.24,2.56.22.83,1.14,1.23,1.88.96.47.5.98.97,1.48,1.44,0-.02,0-.04,0-.06-.04-.94-.03-1.88.03-2.81-.2-.66-.27-1.09-.31-1.63.19-1.04.44-2.06.56-3.11.5-3.38,1.45-6.66,2.55-9.89.33-.96.58-1.95,1-2.88.3-.84.78-1.69.79-2.59-.09-1.04-1.67-1.15-1.92-.13Z"/>
                </g>
                <g class="cls-36">
                  <path class="cls-21" d="m32.03,74.77c-.05.2-.25.36-.47.35.17.09.36.14.56.08.31-.08.51-.39.5-.7-.19.09-.39.19-.59.27Z"/>
                </g>
                <g class="cls-36">
                  <path class="cls-21" d="m24.96,69.66c-.02-.13-.03-.25-.05-.38,0,.14.02.26.05.38Z"/>
                </g>
              </g>
              <g class="cls-36">
                <path class="cls-21" d="m37.86,77.36c-.37.25-.88.17-1.85.16-.64-.06-1.47-.01-2.19-.24-.47-.11-.92-.47-1.41-.41-.93.08-1.01,1.48-.12,1.7.65.25,1.31.48,1.99.62.58.13,1.17.27,1.75.12.73-.15,1.42-.46,2.07-.81.26-.17.62-.31.72-.63.14-.59-.55-.88-.97-.51Z"/>
              </g>
              <g class="cls-36">
                <path class="cls-21" d="m47.7,78.62c-.32.11-.39.28-.89.55-1.01.55-1.45.65-2.8.92-1.28.33-1.17.26-2.59.36-.44.02-.89,0-1.33-.06-.29-.05-.58-.16-.87-.1-1.17.11-1.27,1.83-.15,2.13,2.87.83,5.23,0,7.26-1.23.61-.37,1.22-.75,1.75-1.25.29-.32.36-.26.42-.7,0-.41-.41-.72-.8-.61Z"/>
              </g>
              <g class="cls-36">
                <path class="cls-21" d="m59.75,84.53c-.6.08-.45.16-.77.26-.25.07-.29.18-1.19.4-.62.11-.6.1-.76.12.12-.15.17-.36.13-.55-.03-.39-.4-.69-.78-.69-.47.03-.83.42-1.26.59-.9.4-.68.33-1.93.75-1.13.32-1.71.29-2.14.31-.41-.01-.81-.28-1.19-.32.76-.29,1.47-.7,2.16-1.12.79-.48,1.48-1.07,2.13-1.72.14-.12.23-.31.23-.5,0-.23-.13-.44-.32-.56-.25-.15-.59-.1-.79.1.04-.03.15-.12.09-.07-.32.2-.64.4-.97.59-1.87,1.21-4.35,1.91-5.95,2.16-.38.04-.76.09-1.15.05-.03,0-.05,0-.06,0-.01,0-.03,0-.04,0-.29-.03-.58-.17-.87-.13-.69.06-.76,1.1-.09,1.27.61.21,1.22.42,1.86.48.68.07,1.36-.02,2.03-.1.36-.03.72-.1,1.07-.19-.33.36-.31,1.02.17,1.28,1.75.88,3.63.7,5.37-.09.32-.12.62-.28.92-.45.01.53.42,1.05,1.01,1.03,1.09-.14,2.26-.2,3.18-.86.27-.21.63-.39.75-.73.28-.57-.21-1.29-.84-1.27Z"/>
              </g>
              <g class="cls-36">
                <path class="cls-21" d="m68.55,80.47c-.67.34-.51.41-.94.68-.65.45-.56.4-1.49.64-.77.13-.3.1-.96.12-.08,0-.15,0-.23-.02-.08-.01-.19-.04-.27-.06-.56-.09-1.14-.5-1.69-.17-.72.39-.57,1.56.23,1.75.73.22,1.48.43,2.25.38.92-.06,1.81-.4,2.58-.91.37-.26.72-.55,1.06-.85.24-.2.49-.45.48-.78.01-.51-.52-.91-1.01-.77Z"/>
              </g>
              <g class="cls-36">
                <path class="cls-21" d="m76.12,77.83c0-.4-.27-.8-.67-.9-.02,0-.04,0-.06,0,0-.76.02-1.52-.17-2.25-.28-1.15-.91-2.16-1.42-3.21-.48-1.11-1.1-2.17-1.89-3.08-.34-.3-.91,0-.9.44.03.38.38.65.55.98.98,1.43,1.31,2.5,1.78,4.22.57,1.8.67,2.67.51,4.53,0,.02,0,.04,0,.06-.02.08-.03.17-.05.25,0,.04-.02.11-.05.18-.09.15-.19.3-.3.45-.13.16-.4.47-.55.61-.03.02-.07.04-.1.06-.3.03-.52.02-1.31-.24-.22-.08-.27-.11-.02,0-.4-.14-.76-.41-1.17-.49-.93-.17-1.39,1.18-.57,1.64.29.15.61.29.89.42.06.31.23.59.52.75.07.04.14.07.21.1.02.37.25.73.72.87.4.11.81.22,1.23.13.14-.02.43-.15.47-.17.41-.18.84-.43,1.02-.85.1-.21.11-.43.05-.62.16-.16.25-.37.27-.59.41-.54.7-1.17.86-1.82.09-.45.14-.92.15-1.38,0-.02,0-.03,0-.05,0-.01,0-.02,0-.03h0Z"/>
              </g>
              <path class="cls-21" d="m21.99,78.28s-.06,0-.09,0c-2.96-.54-6.02-1.1-9.05-1.92-1.17-.39-2.3-.65-3.49-.92-1.3-.3-13.17-3.65-14.54-4.13-.25-.09-.38-.36-.29-.61.09-.25.36-.38.61-.29,1.32.46,13.16,3.81,14.44,4.1,1.16.27,2.37.54,3.56.94,2.81.77,5.69,1.3,8.49,1.81,1.21-4.9,2.86-9.68,4.45-14.31.95-2.75,1.93-5.6,2.82-8.48,0-.01,0-.02.01-.04.3-.75.62-1.48.93-2.19.84-1.92,1.64-3.73,2.03-5.83-.01-.02-.05-.05-.07-.06-.06,0-.11,0-.16-.03-2.62-1-5.36-1.73-8.02-2.43-3.14-.83-21.6-6.7-24.75-8.03-.24-.1-.36-.38-.26-.63.1-.24.38-.36.63-.26,3.09,1.3,21.52,7.16,24.62,7.98,2.65.7,5.4,1.43,8.05,2.44.49.06.92.52.92,1.02,0,.03,0,.06,0,.09-.41,2.24-1.27,4.22-2.11,6.12-.31.7-.62,1.41-.91,2.14-.9,2.89-1.88,5.73-2.82,8.48-1.71,4.97-3.32,9.66-4.53,14.66-.05.22-.25.37-.47.37Zm10.37-31.86h0,0Z"/>
              <path class="cls-21" d="m15.91,76.75s-.08,0-.12-.01c-.26-.06-.41-.33-.35-.58,2.76-11,6.64-22.7,10.66-32.09.1-.24.39-.36.63-.25.24.1.36.39.25.63-3.99,9.34-7.86,20.99-10.61,31.94-.05.22-.25.36-.47.36Z"/>
              <path class="cls-21" d="m94.62,79.68c-.08,0-.15-.02-.22-.05-.12-.06-.21-.17-.24-.29-1.91-6.56-3.92-13.12-6.06-20.06-1.11-3.6-2.25-7.32-3.39-11.08-.07-.22.03-.45.23-.56,4.86-2.63,20.28-9.47,25.51-11.28.25-.09.52.05.61.3.09.25-.05.52-.3.61-5.05,1.75-20.31,8.5-25.02,11.03,1.1,3.63,2.21,7.22,3.28,10.7,2.08,6.77,4.05,13.18,5.92,19.58,4.46-1.6,16.09-7.55,20.39-9.55.24-.11.53,0,.64.23.11.24,0,.53-.23.64-4.47,2.09-16.3,8.11-20.95,9.76-.05.02-.11.03-.16.03Z"/>
              <path class="cls-21" d="m100.39,77.17c-.21,0-.41-.14-.46-.36-2.8-10.54-6-21.12-9.5-31.46-.09-.25.05-.52.3-.61.25-.08.52.05.61.3,3.51,10.35,6.71,20.96,9.51,31.52.07.26-.08.52-.34.59-.04.01-.08.02-.12.02Z"/>
              <path class="cls-21" d="m47.25,62.87c-1.1,0-2.4-.48-2.98-1.6-1.03-2.01.91-4.26,1.55-5,2.63-3.05,5.36-6.21,8.75-8.59,3.82-2.69,8-3.9,11.76-3.43,1.92.24,3.75.92,5.52,1.58.57.21,1.16.43,1.74.63,3.69,1.26,7.54,1.93,11.44,1.99.27,0,.48.22.47.49,0,.26-.22.47-.48.47h0c-4-.06-7.95-.75-11.74-2.04-.59-.2-1.19-.42-1.77-.64-1.72-.64-3.5-1.29-5.31-1.52-3.52-.45-7.46.71-11.09,3.26-3.29,2.31-5.98,5.43-8.57,8.44-1.45,1.68-1.92,2.97-1.42,3.93.42.81,1.45,1.13,2.29,1.08.96-.06,1.86-.48,2.85-.98.66-.33,1.32-.66,1.98-.99,4.04-2.01,7.85-3.91,11.47-6.46.22-.15.52-.1.67.12.15.22.1.52-.12.67-3.68,2.59-7.53,4.51-11.6,6.53-.66.33-1.32.66-1.98.99-1.05.53-2.09,1.01-3.22,1.08-.07,0-.15,0-.22,0Z"/>
              <path class="cls-21" d="m82.76,80.37c-.19,0-.37-.11-.44-.3-.1-.24.02-.53.26-.63,3.45-1.42,6.94-2.9,10.36-4.4.24-.11.53,0,.63.25.11.24,0,.53-.25.63-3.43,1.5-6.92,2.98-10.38,4.41-.06.02-.12.04-.18.04Z"/>
              <path class="cls-21" d="m81.42,82.3c-.1,0-.2,0-.28-.02-1.59-.17-3.16-1.23-4.3-2.9-.73-1.07-1.24-2.27-1.73-3.42-.15-.36-.31-.73-.47-1.09-1.3-2.92-3.07-5.58-5.24-7.93-.18-.19-.17-.5.03-.68.19-.18.5-.17.68.03,2.24,2.42,4.06,5.18,5.41,8.19.16.37.32.74.48,1.11.49,1.16.96,2.26,1.63,3.26.98,1.44,2.3,2.35,3.61,2.49.08,0,.3.03.41-.03.12-.08.18-.33.16-.75-.17-5.57-2.01-11.16-5.16-15.75-3.15-4.59-7.72-8.31-12.85-10.47-.24-.1-.36-.38-.26-.63.1-.24.38-.36.63-.26,5.3,2.23,10.01,6.07,13.27,10.81,3.26,4.74,5.15,10.52,5.33,16.26.01.32.04,1.18-.61,1.59-.24.15-.51.19-.75.19Z"/>
              <path class="cls-21" d="m57.44,87.56c-.67,0-1.53-.11-2.47-.79-.21-.16-.26-.46-.1-.67.16-.21.46-.26.67-.1.89.66,1.65.62,2.31.6h.07c.99-.04,2.07-.55,2.67-1.27.26-.31.55-.8.47-1.4,0-.02,0-.04,0-.07,0-1.03-.14-2.07-.27-2.86-.03-.21.08-.42.27-.51.19-.09.42-.05.56.11.73.8,1.48,1.63,2.4,2.18.96.57,2.02.73,2.84.43,1.13-.41,2.29-2.38,2.03-3.45-.06-.26.1-.52.35-.58.26-.06.52.1.58.35.4,1.68-1.17,4.04-2.64,4.57-1.11.4-2.44.22-3.66-.51-.59-.36-1.11-.8-1.59-1.27.05.48.08.98.08,1.49.09.74-.15,1.46-.69,2.11-.78.92-2.1,1.55-3.36,1.61h-.07c-.14,0-.29.02-.45.02Z"/>
              <path class="cls-21" d="m73.24,83.63c-.4,0-.78-.11-1.14-.25-1.81-.7-2.78-2.68-3.71-4.59-.65-1.32-1.31-2.69-2.22-3.51-.2-.18-.22-.48-.04-.68.18-.2.48-.22.68-.04,1.05.94,1.76,2.39,2.45,3.8.89,1.83,1.73,3.55,3.19,4.12.63.24,1.41.55,2.45-1.21.28-.48.36-1.09.4-1.67.1-1.5-.3-3.04-.69-4.53-.06-.23-.12-.46-.18-.68-.06-.26.09-.52.35-.58.26-.07.52.09.58.35.06.22.12.45.17.68.41,1.57.83,3.19.71,4.84-.05.7-.15,1.44-.53,2.09-.85,1.44-1.7,1.86-2.49,1.86Z"/>
              <path class="cls-21" d="m42.02,83.34s-.08,0-.13,0c-1.8-.04-3.35-1.11-3.79-2.6-.16-.56-.16-1.13-.08-1.68-.98.61-2.2.86-3.36.65-1.78-.32-3.28-1.78-3.56-3.48-.12-.7.1-1.09.31-1.29.19-.19.49-.18.68,0,.19.19.18.49,0,.68-.04.04-.08.19-.04.45.22,1.31,1.39,2.44,2.79,2.69,1.36.25,2.82-.3,3.62-1.36.13-.17.36-.24.56-.16.17-.09.33-.15.44-.2,1.92-.75,3.94-1.21,5.99-1.37,1.65-.13,2.75.27,3.27,1.18.25.44.33.97.25,1.6-.1.79-.44,1.56-.97,2.17-.51.58-1.16,1-1.79,1.36-1.11.63-2.58,1.36-4.18,1.36Zm-2.86-5.04c-.21.81-.32,1.51-.13,2.17.35,1.22,1.72,1.88,2.89,1.91,1.41.04,2.78-.64,3.81-1.23.56-.32,1.13-.68,1.54-1.15.4-.46.66-1.05.74-1.66.04-.28.04-.69-.14-1.01-.39-.7-1.5-.77-2.36-.7-1.96.15-3.88.59-5.71,1.31-.3.12-.51.24-.63.36Z"/>
              <path class="cls-21" d="m46.73,86.59c-.75,0-1.45-.18-2.05-.53-1.17-.69-1.87-2.05-1.75-3.4.02-.26.26-.46.52-.44.26.02.46.26.44.52-.09.97.44,1.99,1.28,2.49.81.48,1.92.53,3.03.13,1.05-.37,1.96-1.05,2.88-1.77,1.31-1.03,2.54-2.18,2.66-3.63,0-.09.01-.21-.02-.28-.03-.07-.12-.15-.27-.24-.69-.42-1.63-.52-2.64-.29-.89.2-1.62.58-2.46,1.01l-.14.07c-.24.12-.53.03-.65-.21-.12-.24-.03-.53.21-.65l.14-.07c.86-.45,1.68-.87,2.69-1.1,1.25-.28,2.44-.14,3.35.4.21.13.5.33.65.68.11.27.11.53.1.74-.14,1.82-1.54,3.15-3.02,4.31-.95.74-1.97,1.5-3.15,1.92-.6.21-1.21.32-1.79.32Z"/>
              <path class="cls-21" d="m52.33,87.95c-.69,0-1.37-.16-1.99-.46-.71-.35-1.46-1.06-1.4-1.99.02-.26.25-.46.51-.45.26.02.47.24.45.51-.03.46.45.86.87,1.07.65.33,1.41.44,2.13.32,1.14-.19,2.13-.94,2.95-1.65.92-.8,1.32-1.46,1.24-2.08-.09-.72-.88-1.21-1.56-1.25-.68-.04-1.38.24-2.21.89-.21.16-.51.13-.67-.08-.16-.21-.13-.51.08-.67.64-.5,1.63-1.16,2.85-1.09,1.09.06,2.31.86,2.46,2.09.15,1.27-.82,2.27-1.57,2.92-.86.75-2.03,1.64-3.42,1.87-.24.04-.49.06-.73.06Z"/>
              <path class="cls-21" d="m38.89,77.86c-.23,0-.43-.16-.47-.4-.17-.98-1.25-1.57-1.88-1.84-1.84-.77-3.43-.75-4.74.08-.21.14-.5.08-.65-.13-1.83-2.55-4.12-4.43-6.8-5.6-.24-.11-.35-.39-.25-.63.11-.24.39-.35.63-.25,2.72,1.18,5.05,3.06,6.94,5.57,1.51-.78,3.27-.76,5.23.07,1.4.59,2.27,1.5,2.45,2.56.05.26-.13.51-.39.55-.03,0-.06,0-.08,0Z"/>
              <path class="cls-21" d="m31.95,48.62c-.22,0-.42-.15-.47-.37-.06-.26.1-.52.36-.58,5.31-1.23,10.19-2.91,14.27-4.4l.36-.13c1.55-.57,3.15-1.16,4.84-1.34,3.89-.43,7.48,1.24,10.64,2.72.24.11.34.4.23.64-.11.24-.4.34-.64.23-3.05-1.42-6.51-3.04-10.13-2.63-1.57.17-3.12.74-4.61,1.29l-.37.13c-4.1,1.5-9.02,3.2-14.38,4.44-.04,0-.07.01-.11.01Z"/>
              <path class="cls-21" d="m41.47,40.3c-.16,0-.31-.08-.41-.22-.14-.22-.08-.52.15-.66,4.36-2.76,9.6-4.12,14.75-3.83.26.02.47.24.45.51-.01.27-.24.47-.51.45-4.95-.28-9.99,1.03-14.18,3.68-.08.05-.17.07-.26.07Z"/>
              <path class="cls-21" d="m38.46,35.61c-.16,0-.31-.08-.4-.22-.14-.22-.08-.52.14-.66,2.58-1.68,5.54-2.84,8.57-3.37.26-.05.51.13.56.39.05.26-.13.51-.39.56-2.9.51-5.74,1.63-8.21,3.23-.08.05-.17.08-.26.08Z"/>
              <path class="cls-21" d="m69.17,88.29c-.26,0-.47-.21-.48-.47,0-.27.2-.49.47-.49,2.8-.09,5.52-1.11,7.68-2.89.2-.17.51-.14.68.07.17.2.14.51-.07.68-2.32,1.91-5.26,3.01-8.26,3.1,0,0,0,0-.02,0Z"/>
            </g>
          </g>
        </g>
      </g>
    </g>
  </g>
</svg>