<?xml version="1.0" encoding="UTF-8"?>
<svg xmlns="http://www.w3.org/2000/svg" xmlns:xlink="http://www.w3.org/1999/xlink" viewBox="0 0 112.7 113.11">
  <defs>
    <style>
      .cls-1 {
        fill: none;
      }

      .cls-2 {
        fill: url(#radial-gradient-3);
      }

      .cls-2, .cls-3, .cls-4, .cls-5, .cls-6, .cls-7, .cls-8 {
        mix-blend-mode: multiply;
      }

      .cls-9 {
        mask: url(#mask-13);
      }

      .cls-10 {
        mask: url(#mask-12);
      }

      .cls-11 {
        mask: url(#mask-11);
      }

      .cls-12 {
        mask: url(#mask-10);
      }

      .cls-13 {
        fill: url(#linear-gradient);
      }

      .cls-14 {
        filter: url(#luminosity-noclip-9);
      }

      .cls-15 {
        filter: url(#luminosity-noclip-7);
      }

      .cls-16 {
        filter: url(#luminosity-noclip-3);
      }

      .cls-17 {
        filter: url(#luminosity-noclip-5);
      }

      .cls-18 {
        clip-path: url(#clippath);
      }

      .cls-19 {
        mask: url(#mask);
      }

      .cls-20 {
        filter: url(#luminosity-noclip);
      }

      .cls-21 {
        fill: #010101;
      }

      .cls-22 {
        fill: #687a97;
      }

      .cls-23 {
        fill: #e7edf9;
      }

      .cls-24, .cls-25 {
        fill: #fff;
      }

      .cls-26 {
        fill: #b3dee5;
      }

      .cls-27 {
        filter: url(#luminosity-noclip-13);
      }

      .cls-28 {
        filter: url(#luminosity-noclip-11);
      }

      .cls-3 {
        fill: url(#linear-gradient-7);
      }

      .cls-4 {
        fill: url(#linear-gradient-5);
      }

      .cls-5 {
        fill: url(#linear-gradient-9);
      }

      .cls-6 {
        fill: url(#linear-gradient-2);
      }

      .cls-29 {
        fill: url(#radial-gradient-4);
      }

      .cls-30 {
        fill: url(#radial-gradient-2);
      }

      .cls-31 {
        fill: url(#linear-gradient-4);
        mix-blend-mode: color-burn;
      }

      .cls-25 {
        opacity: .2;
      }

      .cls-32 {
        fill: url(#linear-gradient-8);
      }

      .cls-33 {
        fill: url(#linear-gradient-3);
      }

      .cls-34 {
        fill: url(#linear-gradient-6);
      }

      .cls-35 {
        opacity: .13;
      }

      .cls-7 {
        fill: url(#radial-gradient);
      }

      .cls-36 {
        opacity: .26;
      }

      .cls-37 {
        opacity: .9;
      }

      .cls-38 {
        opacity: .76;
      }

      .cls-39 {
        opacity: .72;
      }

      .cls-40 {
        fill: url(#linear-gradient-11);
      }

      .cls-41 {
        isolation: isolate;
      }

      .cls-8 {
        fill: url(#linear-gradient-10);
      }

      .cls-42 {
        mask: url(#mask-3);
      }

      .cls-43 {
        mask: url(#mask-2);
      }

      .cls-44 {
        mask: url(#mask-5);
      }

      .cls-45 {
        mask: url(#mask-4);
      }

      .cls-46 {
        mask: url(#mask-1);
      }

      .cls-47 {
        mask: url(#mask-7);
      }

      .cls-48 {
        mask: url(#mask-6);
      }

      .cls-49 {
        mask: url(#mask-8);
      }

      .cls-50 {
        mask: url(#mask-9);
      }

      .cls-51 {
        mix-blend-mode: soft-light;
        opacity: .3;
      }
    </style>
    <linearGradient id="linear-gradient" x1="56.49" y1="113.11" x2="56.49" y2=".67" gradientUnits="userSpaceOnUse">
      <stop offset="0" stop-color="#c1c4cb"/>
      <stop offset=".06" stop-color="#c9cdd5"/>
      <stop offset=".2" stop-color="#d8dce5"/>
      <stop offset=".35" stop-color="#e1e6ef"/>
      <stop offset=".53" stop-color="#e4e9f3"/>
      <stop offset="1" stop-color="#f4f4f7"/>
    </linearGradient>
    <filter id="luminosity-noclip" x="1.51" y="2.18" width="109.76" height="109.76" color-interpolation-filters="sRGB" filterUnits="userSpaceOnUse">
      <feFlood flood-color="#fff" result="bg"/>
      <feBlend in="SourceGraphic" in2="bg"/>
    </filter>
    <filter id="luminosity-noclip-2" x="1.51" y="-7511.54" width="109.76" height="32766" color-interpolation-filters="sRGB" filterUnits="userSpaceOnUse">
      <feFlood flood-color="#fff" result="bg"/>
      <feBlend in="SourceGraphic" in2="bg"/>
    </filter>
    <mask id="mask-1" x="1.51" y="-7511.54" width="109.76" height="32766" maskUnits="userSpaceOnUse"/>
    <radialGradient id="radial-gradient" cx="56.39" cy="57.05" fx="56.39" fy="57.05" r="54.88" gradientUnits="userSpaceOnUse">
      <stop offset=".97" stop-color="#000"/>
      <stop offset=".99" stop-color="#b3b3b3"/>
      <stop offset="1" stop-color="#000"/>
    </radialGradient>
    <mask id="mask" x="1.51" y="2.18" width="109.76" height="109.76" maskUnits="userSpaceOnUse">
      <g class="cls-20">
        <g class="cls-46">
          <path class="cls-7" d="m56.39,2.18C26.08,2.18,1.51,26.74,1.51,57.05s24.57,54.88,54.88,54.88,54.88-24.57,54.88-54.88S86.69,2.18,56.39,2.18Zm.2,108.18c-29.44,0-53.31-23.87-53.31-53.3S27.15,3.75,56.59,3.75s53.31,23.86,53.31,53.3-23.87,53.3-53.31,53.3Z"/>
        </g>
      </g>
    </mask>
    <radialGradient id="radial-gradient-2" cx="56.39" cy="57.05" fx="56.39" fy="57.05" r="54.88" gradientUnits="userSpaceOnUse">
      <stop offset=".97" stop-color="#969a9f"/>
      <stop offset=".99" stop-color="#878b90"/>
      <stop offset="1" stop-color="#969a9f"/>
    </radialGradient>
    <filter id="luminosity-noclip-3" x=".27" y=".27" width="112.44" height="112.44" color-interpolation-filters="sRGB" filterUnits="userSpaceOnUse">
      <feFlood flood-color="#fff" result="bg"/>
      <feBlend in="SourceGraphic" in2="bg"/>
    </filter>
    <filter id="luminosity-noclip-4" x=".27" y="-7511.54" width="112.44" height="32766" color-interpolation-filters="sRGB" filterUnits="userSpaceOnUse">
      <feFlood flood-color="#fff" result="bg"/>
      <feBlend in="SourceGraphic" in2="bg"/>
    </filter>
    <mask id="mask-3" x=".27" y="-7511.54" width="112.44" height="32766" maskUnits="userSpaceOnUse"/>
    <radialGradient id="radial-gradient-3" cx="56.49" cy="56.49" fx="56.49" fy="56.49" r="56.22" gradientUnits="userSpaceOnUse">
      <stop offset=".91" stop-color="#000"/>
      <stop offset="1" stop-color="#b3b3b3"/>
    </radialGradient>
    <mask id="mask-2" x=".27" y=".27" width="112.44" height="112.44" maskUnits="userSpaceOnUse">
      <g class="cls-16">
        <g class="cls-42">
          <path class="cls-2" d="m56.49.27C25.44.27.27,25.44.27,56.49s25.17,56.22,56.22,56.22,56.22-25.17,56.22-56.22S87.54.27,56.49.27ZM4.68,56.49C4.68,27.77,27.97,4.49,56.69,4.49s52,23.28,52,52-23.29,52-52,52S4.68,85.21,4.68,56.49Z"/>
        </g>
      </g>
    </mask>
    <radialGradient id="radial-gradient-4" cx="56.49" cy="56.49" fx="56.49" fy="56.49" r="56.22" gradientUnits="userSpaceOnUse">
      <stop offset=".91" stop-color="#a8abb0"/>
      <stop offset="1" stop-color="#a8abb0"/>
    </radialGradient>
    <filter id="luminosity-noclip-5" x="0" y=".67" width="112.44" height="112.44" color-interpolation-filters="sRGB" filterUnits="userSpaceOnUse">
      <feFlood flood-color="#fff" result="bg"/>
      <feBlend in="SourceGraphic" in2="bg"/>
    </filter>
    <filter id="luminosity-noclip-6" x="0" y="-7511.54" width="112.44" height="32766" color-interpolation-filters="sRGB" filterUnits="userSpaceOnUse">
      <feFlood flood-color="#fff" result="bg"/>
      <feBlend in="SourceGraphic" in2="bg"/>
    </filter>
    <mask id="mask-5" x="0" y="-7511.54" width="112.44" height="32766" maskUnits="userSpaceOnUse"/>
    <linearGradient id="linear-gradient-2" x1="56.22" y1="113.11" x2="56.22" y2=".67" gradientUnits="userSpaceOnUse">
      <stop offset="0" stop-color="#000"/>
      <stop offset=".03" stop-color="#000"/>
      <stop offset=".28" stop-color="#000"/>
      <stop offset=".28" stop-color="#000"/>
      <stop offset=".35" stop-color="#3b3b3b"/>
      <stop offset=".43" stop-color="#6f6f6f"/>
      <stop offset=".51" stop-color="#9b9b9b"/>
      <stop offset=".59" stop-color="#bfbfbf"/>
      <stop offset=".67" stop-color="#dbdbdb"/>
      <stop offset=".75" stop-color="#efefef"/>
      <stop offset=".83" stop-color="#fbfbfb"/>
      <stop offset=".91" stop-color="#fff"/>
    </linearGradient>
    <mask id="mask-4" x="0" y=".67" width="112.44" height="112.44" maskUnits="userSpaceOnUse">
      <g class="cls-17">
        <g class="cls-44">
          <path class="cls-6" d="m112.44,56.89c0,31.05-25.17,56.22-56.22,56.22S0,87.94,0,56.89,25.17.67,56.22.67s56.22,25.17,56.22,56.22Z"/>
        </g>
      </g>
    </mask>
    <linearGradient id="linear-gradient-3" x1="56.22" y1="113.11" x2="56.22" y2=".67" gradientUnits="userSpaceOnUse">
      <stop offset="0" stop-color="#c1c4cb"/>
      <stop offset=".03" stop-color="#c9cdd5"/>
      <stop offset=".1" stop-color="#d8dce5"/>
      <stop offset=".18" stop-color="#e1e6ef"/>
      <stop offset=".28" stop-color="#e4e9f3"/>
      <stop offset=".28" stop-color="#e4e9f3"/>
      <stop offset=".6" stop-color="#f0f1f6"/>
      <stop offset=".91" stop-color="#f4f4f7"/>
    </linearGradient>
    <linearGradient id="linear-gradient-4" x1="56.49" y1="112.44" x2="56.49" y2="0" gradientUnits="userSpaceOnUse">
      <stop offset="0" stop-color="#a4a9b2"/>
      <stop offset=".15" stop-color="#b8bcc3"/>
      <stop offset=".42" stop-color="#d8dadf"/>
      <stop offset=".64" stop-color="#ecedf0"/>
      <stop offset=".8" stop-color="#f4f4f7"/>
    </linearGradient>
    <filter id="luminosity-noclip-7" x="8.99" y="5.49" width="92.14" height="37.69" color-interpolation-filters="sRGB" filterUnits="userSpaceOnUse">
      <feFlood flood-color="#fff" result="bg"/>
      <feBlend in="SourceGraphic" in2="bg"/>
    </filter>
    <filter id="luminosity-noclip-8" x="8.99" y="-7511.54" width="92.14" height="32766" color-interpolation-filters="sRGB" filterUnits="userSpaceOnUse">
      <feFlood flood-color="#fff" result="bg"/>
      <feBlend in="SourceGraphic" in2="bg"/>
    </filter>
    <mask id="mask-7" x="8.99" y="-7511.54" width="92.14" height="32766" maskUnits="userSpaceOnUse"/>
    <linearGradient id="linear-gradient-5" x1="55.05" y1="43.17" x2="55.05" y2="5.49" gradientUnits="userSpaceOnUse">
      <stop offset=".31" stop-color="#000"/>
      <stop offset=".43" stop-color="#454545"/>
      <stop offset=".55" stop-color="#868686"/>
      <stop offset=".67" stop-color="#bababa"/>
      <stop offset=".76" stop-color="#dfdfdf"/>
      <stop offset=".84" stop-color="#f6f6f6"/>
      <stop offset=".89" stop-color="#fff"/>
    </linearGradient>
    <mask id="mask-6" x="8.99" y="5.49" width="92.14" height="37.69" maskUnits="userSpaceOnUse">
      <g class="cls-15">
        <g class="cls-47">
          <path class="cls-4" d="m97.51,38.97c1.05,3.13.42,7.1-5.71,1.04-17.11-24.02-34.43-22.77-45.2-20.26-10.77,2.5-17.74,13.36-21.75,12.74-4.01-.63-3.17,4.39-10.99,4.81-3.46.18-4.64-2.52-4.88-5.61C19.1,15.94,36.89,5.49,57.16,5.49c8.92,0,17.35,2.02,24.86,5.62,6.72,3.93,13.56,8.54,16.54,12.41,6.76,8.77-2.11,12.32-1.05,15.46Z"/>
        </g>
      </g>
    </mask>
    <linearGradient id="linear-gradient-6" x1="55.05" y1="43.17" x2="55.05" y2="5.49" gradientUnits="userSpaceOnUse">
      <stop offset=".31" stop-color="#fff"/>
      <stop offset=".89" stop-color="#fff"/>
    </linearGradient>
    <filter id="luminosity-noclip-9" x="4.17" y="4.77" width="100.06" height="40.93" color-interpolation-filters="sRGB" filterUnits="userSpaceOnUse">
      <feFlood flood-color="#fff" result="bg"/>
      <feBlend in="SourceGraphic" in2="bg"/>
    </filter>
    <filter id="luminosity-noclip-10" x="4.17" y="-7511.54" width="100.06" height="32766" color-interpolation-filters="sRGB" filterUnits="userSpaceOnUse">
      <feFlood flood-color="#fff" result="bg"/>
      <feBlend in="SourceGraphic" in2="bg"/>
    </filter>
    <mask id="mask-9" x="4.17" y="-7511.54" width="100.06" height="32766" maskUnits="userSpaceOnUse"/>
    <linearGradient id="linear-gradient-7" x1="54.2" y1="45.7" x2="54.2" y2="4.77" xlink:href="#linear-gradient-5"/>
    <mask id="mask-8" x="4.17" y="4.77" width="100.06" height="40.93" maskUnits="userSpaceOnUse">
      <g class="cls-14">
        <g class="cls-50">
          <path class="cls-3" d="m100.3,41.14c1.14,3.4.46,7.71-6.2,1.14-18.58-26.09-37.38-24.72-49.08-22-11.7,2.72-19.27,14.52-23.63,13.83-4.36-.68-3.44,4.76-11.93,5.22-3.75.2-5.04-2.74-5.29-6.09C15.15,16.12,34.47,4.77,56.48,4.77c9.68,0,18.84,2.2,27,6.11,7.3,4.27,14.72,9.27,17.96,13.47,7.34,9.53-2.29,13.38-1.14,16.78Z"/>
        </g>
      </g>
    </mask>
    <linearGradient id="linear-gradient-8" x1="54.2" y1="45.7" x2="54.2" y2="4.77" xlink:href="#linear-gradient-6"/>
    <filter id="luminosity-noclip-11" x="0" y=".13" width="112.44" height="112.44" color-interpolation-filters="sRGB" filterUnits="userSpaceOnUse">
      <feFlood flood-color="#fff" result="bg"/>
      <feBlend in="SourceGraphic" in2="bg"/>
    </filter>
    <filter id="luminosity-noclip-12" x="0" y="-7511.54" width="112.44" height="32766" color-interpolation-filters="sRGB" filterUnits="userSpaceOnUse">
      <feFlood flood-color="#fff" result="bg"/>
      <feBlend in="SourceGraphic" in2="bg"/>
    </filter>
    <mask id="mask-11" x="0" y="-7511.54" width="112.44" height="32766" maskUnits="userSpaceOnUse"/>
    <linearGradient id="linear-gradient-9" y1="112.57" y2=".13" xlink:href="#linear-gradient-2"/>
    <mask id="mask-10" x="0" y=".13" width="112.44" height="112.44" maskUnits="userSpaceOnUse">
      <g class="cls-28">
        <g class="cls-11">
          <path class="cls-5" d="m112.44,56.35c0,31.05-25.17,56.22-56.22,56.22S0,87.4,0,56.35,25.17.13,56.22.13s56.22,25.17,56.22,56.22Z"/>
        </g>
      </g>
    </mask>
    <filter id="luminosity-noclip-13" x="0" y=".13" width="112.44" height="112.44" color-interpolation-filters="sRGB" filterUnits="userSpaceOnUse">
      <feFlood flood-color="#fff" result="bg"/>
      <feBlend in="SourceGraphic" in2="bg"/>
    </filter>
    <filter id="luminosity-noclip-14" x="0" y="-7511.54" width="112.44" height="32766" color-interpolation-filters="sRGB" filterUnits="userSpaceOnUse">
      <feFlood flood-color="#fff" result="bg"/>
      <feBlend in="SourceGraphic" in2="bg"/>
    </filter>
    <mask id="mask-13" x="0" y="-7511.54" width="112.44" height="32766" maskUnits="userSpaceOnUse"/>
    <linearGradient id="linear-gradient-10" x1="56.22" y1="112.57" x2="56.22" y2=".13" gradientUnits="userSpaceOnUse">
      <stop offset=".21" stop-color="#000"/>
      <stop offset=".33" stop-color="#1d1d1d"/>
      <stop offset=".57" stop-color="#6a6a6a"/>
      <stop offset=".92" stop-color="#e3e3e3"/>
      <stop offset="1" stop-color="#fff"/>
    </linearGradient>
    <mask id="mask-12" x="0" y=".13" width="112.44" height="112.44" maskUnits="userSpaceOnUse">
      <g class="cls-27">
        <g class="cls-9">
          <path class="cls-8" d="m112.44,56.35c0,31.05-25.17,56.22-56.22,56.22S0,87.4,0,56.35,25.17.13,56.22.13s56.22,25.17,56.22,56.22Z"/>
        </g>
      </g>
    </mask>
    <linearGradient id="linear-gradient-11" x1="56.22" y1="112.57" x2="56.22" y2=".13" gradientUnits="userSpaceOnUse">
      <stop offset=".21" stop-color="#fff"/>
      <stop offset="1" stop-color="#fff"/>
    </linearGradient>
    <clipPath id="clippath">
      <circle class="cls-1" cx="56.36" cy="55.08" r="53.74"/>
    </clipPath>
  </defs>
  <g class="cls-41">
    <g id="Capa_2" data-name="Capa 2">
      <g id="Capa_1-2" data-name="Capa 1">
        <g>
          <g>
            <g>
              <path class="cls-22" d="m56.35.41C25.97.41,1.34,25.03,1.34,55.42s24.63,55.01,55.01,55.01,55.01-24.63,55.01-55.01S86.74.41,56.35.41ZM5.66,55.42C5.66,27.31,28.45,4.53,56.55,4.53s50.89,22.78,50.89,50.89-22.79,50.88-50.89,50.88S5.66,83.52,5.66,55.42Z"/>
              <path class="cls-13" d="m112.7,56.89c0,31.05-25.17,56.22-56.22,56.22S.27,87.94.27,56.89,25.43.67,56.48.67s56.22,25.17,56.22,56.22Z"/>
              <g class="cls-39">
                <g class="cls-19">
                  <path class="cls-30" d="m56.39,2.18C26.08,2.18,1.51,26.74,1.51,57.05s24.57,54.88,54.88,54.88,54.88-24.57,54.88-54.88S86.69,2.18,56.39,2.18Zm.2,108.18c-29.44,0-53.31-23.87-53.31-53.3S27.15,3.75,56.59,3.75s53.31,23.86,53.31,53.3-23.87,53.3-53.31,53.3Z"/>
                </g>
              </g>
              <g class="cls-43">
                <path class="cls-29" d="m56.49.27C25.44.27.27,25.44.27,56.49s25.17,56.22,56.22,56.22,56.22-25.17,56.22-56.22S87.54.27,56.49.27ZM4.68,56.49C4.68,27.77,27.97,4.49,56.69,4.49s52,23.28,52,52-23.29,52-52,52S4.68,85.21,4.68,56.49Z"/>
              </g>
              <g class="cls-37">
                <g class="cls-45">
                  <path class="cls-33" d="m112.44,56.89c0,31.05-25.17,56.22-56.22,56.22S0,87.94,0,56.89,25.17.67,56.22.67s56.22,25.17,56.22,56.22Z"/>
                </g>
              </g>
              <path class="cls-31" d="m56.49,0C25.44,0,.27,25.17.27,56.22s25.17,56.22,56.22,56.22,56.22-25.17,56.22-56.22S87.53,0,56.49,0ZM4.68,56.22C4.68,27.5,27.97,4.22,56.69,4.22s52,23.28,52,52-23.28,52-52,52S4.68,84.94,4.68,56.22Z"/>
            </g>
            <g class="cls-38">
              <path class="cls-25" d="m97.89,38.04c1.01,3.01.4,6.83-5.42,1-16.26-23.09-32.73-21.88-42.97-19.47-10.24,2.41-16.86,12.85-20.68,12.24-3.82-.6-3.01,4.22-10.44,4.62-3.29.18-4.41-2.42-4.63-5.39C23.37,15.9,40.28,5.85,59.55,5.85c8.47,0,16.49,1.94,23.63,5.41,6.4,3.79,12.89,8.21,15.73,11.93,6.43,8.43-2.01,11.85-1.01,14.86Z"/>
              <path class="cls-25" d="m98.77,39.62c1.06,3.18.43,7.2-5.72,1.06-17.16-24.36-34.53-23.09-45.33-20.55-10.81,2.54-17.79,13.56-21.82,12.92-4.02-.64-3.18,4.45-11.01,4.87-3.47.19-4.65-2.56-4.89-5.69C20.15,16.26,37.99,5.66,58.32,5.66c8.94,0,17.4,2.05,24.93,5.7,6.74,3.99,13.6,8.66,16.59,12.58,6.78,8.89-2.12,12.5-1.06,15.67Z"/>
              <g class="cls-48">
                <path class="cls-34" d="m97.51,38.97c1.05,3.13.42,7.1-5.71,1.04-17.11-24.02-34.43-22.77-45.2-20.26-10.77,2.5-17.74,13.36-21.75,12.74-4.01-.63-3.17,4.39-10.99,4.81-3.46.18-4.64-2.52-4.88-5.61C19.1,15.94,36.89,5.49,57.16,5.49c8.92,0,17.35,2.02,24.86,5.62,6.72,3.93,13.56,8.54,16.54,12.41,6.76,8.77-2.11,12.32-1.05,15.46Z"/>
              </g>
            </g>
            <g class="cls-51">
              <path class="cls-23" d="m100.14,36.35c1.09,3.27.43,7.41-5.89,1.09-17.66-25.07-35.54-23.76-46.66-21.15-11.12,2.62-18.31,13.95-22.46,13.3-4.14-.65-3.27,4.58-11.34,5.01-3.57.19-4.79-2.63-5.03-5.85C19.2,12.3,37.57,1.39,58.49,1.39c9.2,0,17.91,2.11,25.66,5.87,6.94,4.11,13.99,8.91,17.07,12.95,6.98,9.16-2.18,12.86-1.09,16.13Z"/>
              <path class="cls-25" d="m100.72,40.13c1.09,3.27.44,7.41-5.89,1.09-17.66-25.08-35.54-23.77-46.66-21.15-11.12,2.62-18.32,13.95-22.46,13.3-4.14-.65-3.27,4.58-11.34,5.02-3.57.19-4.79-2.63-5.03-5.85C19.78,16.08,38.15,5.17,59.07,5.17c9.2,0,17.91,2.11,25.66,5.87,6.94,4.11,14,8.92,17.08,12.95,6.98,9.16-2.18,12.86-1.09,16.14Z"/>
              <path class="cls-25" d="m101.68,41.84c1.15,3.45.46,7.82-6.21,1.15-18.63-26.45-37.49-25.07-49.23-22.31-11.73,2.76-19.32,14.73-23.69,14.03-4.37-.69-3.45,4.83-11.96,5.29-3.76.2-5.05-2.78-5.31-6.17C16.29,16.47,35.67,4.96,57.74,4.96c9.71,0,18.89,2.23,27.07,6.19,7.33,4.34,14.77,9.41,18.02,13.67,7.36,9.66-2.3,13.57-1.15,17.02Z"/>
              <g class="cls-49">
                <path class="cls-32" d="m100.3,41.14c1.14,3.4.46,7.71-6.2,1.14-18.58-26.09-37.38-24.72-49.08-22-11.7,2.72-19.27,14.52-23.63,13.83-4.36-.68-3.44,4.76-11.93,5.22-3.75.2-5.04-2.74-5.29-6.09C15.15,16.12,34.47,4.77,56.48,4.77c9.68,0,18.84,2.2,27,6.11,7.3,4.27,14.72,9.27,17.96,13.47,7.34,9.53-2.29,13.38-1.14,16.78Z"/>
              </g>
            </g>
            <g class="cls-36">
              <g class="cls-12">
                <g class="cls-10">
                  <path class="cls-40" d="m112.44,56.35c0,31.05-25.17,56.22-56.22,56.22S0,87.4,0,56.35,25.17.13,56.22.13s56.22,25.17,56.22,56.22Z"/>
                </g>
              </g>
            </g>
          </g>
          <g class="cls-18">
            <g>
              <path class="cls-24" d="m80.54,73.66c-.31-.38-.06-.95.27-1.31.33-.36.76-.68.87-1.15.17-.75-.53-1.38-1.15-1.82.09-.82.19-1.67.65-2.36.15-.23.35-.44.43-.71.14-.47-.09-.96-.11-1.58,3.37-3.51,5-8.3,6.51-12.83-1.26-.06-2.5-.57-3.76-.46-.32.03-.63.1-.95.1-.77,0-1.52-.36-2.35-.36-.61-4.93-.17-9.96-1-14.86-.05-.31-.12-.64-.33-.87-.16-.18-.39-.29-.62-.35-.88-.22-1.88.28-2.22,1.12-.63-.1-1.27-.16-1.91-.2-.13-.92-.85-1.77-1.77-1.87-.92-.1-1.88.74-1.71,1.6-.59-.07-1.18-.13-1.77-.2.05-.31-.11-.63-.35-.83-.24-.2-.56-.29-.88-.31-.64-.04-1.36.27-1.57.88-.65-.1-1.32-.13-1.98-.1-.54-.62-1.48-.87-2.4-.8-3.97-2.78-8.36-4.96-13-6.36-.11-1.53,1.03-29.33,1.26-30.85-3.56-.49-7.14-.97-10.73-.99-1.9,0-3.91.15-5.55,1.47-.31,4-1.32,34.29-.9,38.39-.56.38-.98,1.02-.97,1.7,0,.68.48,1.36,1.15,1.49-.1.6-.13,1.21-.08,1.82-.82.06-1.47.74-1.8,1.49-.25.55-.34,1.27.09,1.68.4.38,1.03.31,1.51.52-.04.48-.09.96-.13,1.45-.62.23-1.08.85-1.12,1.51s.33,1.33.92,1.64c-.12.67-.18,1.36-.18,2.04-.59.62-.84,1.56-.71,2.56-2.88,3.85-5.08,8.2-6.48,12.8-1.47.09-24.09.17-25.6.36-.63,1.1-.84,2.38-.96,3.64-.39,4.03-.03,8.13,1.15,12.2,4.08-.1,29.31-.2,33.39-.3.32.6.99,1,1.68.99.68,0,1.35-.43,1.65-1.04.51.21,1.08.27,1.63.18.09.98.96,1.82,1.93,1.9.98.07,1.96-.63,2.19-1.57.36,0,.72-.02,1.08-.03.23.7.91,1.23,1.64,1.29.73.06,1.49-.34,1.84-.99.84.07,1.67.28,2.44.64.42.19.98.4,1.23-.01,4.25,2.67,8.56,5.37,13.29,6.92-.05,1.46-.48,22.78-.8,24.3,1.74.51,3.58.54,5.39.56.98.01,1.96.02,2.93.03,2.82.03,5.71.05,8.4-1.16,0,0-.28-32.03-.14-32.24.49-.53,1.02-1.2.81-1.89-.21-.68-1.08-1.06-1.14-1.77-.05-.55.43-1,.91-1.28.48-.28,1.03-.51,1.3-.99.3-.51.19-1.18-.12-1.67-.32-.5-.81-.85-1.3-1.17Zm-16.62-9.77c-.8.21-1.61.41-2.42.62-.78.21-1.55.49-2.32.74-1.59.52-3.18,1.03-4.79,1.49-.25.07-.47.03-.64-.08-.42.35-1.18.31-1.37-.37-.98-3.6-2.07-7.18-3.51-10.62-.14-.34.09-.78.38-.95.16-.09.33-.12.49-.1.05-.05.12-.09.21-.11,1.69-.5,3.36-1.05,5.05-1.53.85-.24,1.7-.49,2.55-.73.31-.09.63-.18.96-.26.32-.15.64-.3.96-.44.1-.08.23-.14.39-.17.32-.07.61.06.79.27.07,0,.15,0,.22.01.12.03.25.13.31.24.03.04.05.1.06.17,0,0,0,0,.01.01.2,0,.38.12.43.38.65,3.32,1.63,6.59,2.8,9.76.08.21,0,.37-.12.47.24.42.11,1.06-.46,1.21Z"/>
              <path class="cls-21" d="m66.28,89.32s-.08-.02-.11-.05c-.06-.06-.06-.15,0-.21,1.57-1.52,3.24-2.98,4.97-4.33.07-.05.16-.04.21.03.05.07.04.16-.03.21-1.72,1.34-3.38,2.79-4.95,4.3-.03.03-.07.04-.1.04Z"/>
              <path class="cls-21" d="m66.18,93.45s-.07-.01-.1-.04c-.06-.06-.07-.15-.01-.21,2.76-3.05,5.74-5.95,8.87-8.62.06-.05.16-.05.21.02.05.06.05.16-.02.21-3.12,2.66-6.09,5.56-8.84,8.59-.03.03-.07.05-.11.05Z"/>
              <path class="cls-21" d="m70.31,110.86s-.07-.01-.1-.04c-.06-.06-.07-.15-.01-.21,2.76-3.05,5.74-5.95,8.87-8.62.06-.05.16-.05.21.02.05.06.05.16-.02.21-3.12,2.66-6.09,5.56-8.84,8.59-.03.03-.07.05-.11.05Z"/>
              <path class="cls-21" d="m65.81,98.5s-.07-.01-.1-.04c-.06-.05-.07-.15-.02-.21,2.82-3.35,9.18-10.26,12.47-13.16.06-.06.16-.05.21.01.05.06.05.16-.01.21-3.27,2.88-9.63,9.79-12.44,13.13-.03.04-.07.05-.11.05Z"/>
              <path class="cls-21" d="m65.91,111.68s-.07-.01-.1-.04c-.06-.05-.07-.15-.02-.21,2.82-3.35,10.17-11.25,13.45-14.14.06-.06.16-.05.21.01.05.06.05.16-.01.21-3.27,2.88-10.61,10.77-13.42,14.11-.03.04-.07.05-.11.05Z"/>
              <path class="cls-21" d="m65.46,102.99s-.07-.01-.1-.04c-.06-.06-.06-.15,0-.21l13.07-14.62c.06-.06.15-.06.21,0,.06.06.06.15,0,.21l-13.07,14.62s-.07.05-.11.05Z"/>
              <path class="cls-21" d="m65.55,107.62s-.07-.01-.1-.04c-.06-.06-.07-.15-.01-.21l13.85-15.85c.05-.06.15-.07.21-.01.06.06.07.15.01.21l-13.85,15.85s-.07.05-.11.05Z"/>
              <path class="cls-21" d="m65.83,86.46s-.07-.01-.1-.03c-.06-.05-.07-.15-.02-.21.53-.64,1.12-1.25,1.75-1.8.06-.05.16-.05.21.01.05.06.05.16-.01.21-.62.54-1.19,1.13-1.72,1.76-.03.04-.07.05-.12.05Z"/>
              <path class="cls-21" d="m35.3,34.19h0c-.08,0-.15-.07-.15-.15l.15-28.14c0-.08.07-.15.15-.15h0c.08,0,.15.07.15.15l-.15,28.14c0,.08-.07.15-.15.15Z"/>
              <path class="cls-21" d="m37.81,33.85c-.08,0-.15-.07-.15-.15l-.07-27.82c0-.08.06-.15.15-.15h0c.08,0,.15.07.15.15l.07,27.82c0,.08-.06.15-.15.15h0Z"/>
              <path class="cls-21" d="m40.51,34.42c-.08,0-.15-.07-.15-.15l.06-28.56c0-.08.07-.15.15-.15h0c.08,0,.15.07.15.15l-.06,28.56c0,.08-.07.15-.15.15h0Z"/>
              <path class="cls-21" d="m43.21,33.51c-.08,0-.15-.06-.15-.14-.11-2.92-.01-24.18.1-27.1,0-.08.07-.15.16-.14.08,0,.15.07.14.16-.11,2.91-.21,24.16-.1,27.07,0,.08-.06.15-.14.16h0Z"/>
              <path class="cls-21" d="m45.66,34.04h0c-.08,0-.15-.07-.15-.15l.23-27.77c0-.08.06-.15.15-.15.08,0,.15.07.15.15l-.23,27.77c0,.08-.07.15-.15.15Z"/>
              <path class="cls-21" d="m47.56,34.06c-.08,0-.15-.07-.15-.15l.09-26.72c0-.08.07-.15.15-.15h0c.08,0,.15.07.15.15l-.09,26.72c0,.08-.07.15-.15.15h0Z"/>
              <path class="cls-26" d="m114.33,34.46c-4.14.43-30.24,1.75-34.4,1.6.49,5.06.85,10.14,1.07,15.22,3.92.25,29.76-.69,33.68-.44.3-5.34.25-10.71-.35-16.38Z"/>
              <g class="cls-35">
                <path class="cls-21" d="m82.89,50.23c.15-1.52-.03-3.05-.15-4.57-.13-1.63-.2-3.26-.27-4.89-.06-1.37-.08-2.79-.51-4.11-.41-1.36-2.43-.81-2.09.58.88,2.68.61,6.84.79,11.05.04.45.07.9.15,1.35.02.23.04.45.1.66.03.4-.04.2.1.54.37.98,1.88.67,1.87-.38-.06.43,0,.04.01-.25Z"/>
              </g>
              <g class="cls-35">
                <path class="cls-21" d="m88.16,51.83c-.1-.97-1.53-1.07-1.78-.12-.24.9-.72,2.33-.86,2.57-.73,1.55-1.66,3-2.44,4.53-.77,1.35-1.75,2.58-2.4,4-.23.5-.34.46-.46.76-.17-.1-.35-.18-.55-.23-.11-.02-.21-.01-.3.01.4.47.62,1.11.46,1.69-.04.06-.07.14-.09.23-.05.12-.21.53-.46.86-.03.04-.08.1-.1.12-.04.03-.07.07-.09.1,0,0,0,0-.01,0-.09.06-.41.21-.52.27-.88.32-1.68.5-1.8.81-.18.29-.01.65.26.77.08.41.4.78.91.78.31,0,.62,0,.93,0-.01.07,0,.15,0,.22,0,0,.01,0,.02,0,.13.05.25.12.36.2-.03.16.02.34.2.44.1.06.19.14.27.21.02.07.03.15.06.25.04.47,0,.52-.16,1.01-.14.31-.17.45-.48.74-.04.03-.08.06-.12.09-.1.08-.24.12-.31.23-.19.21-.06.58.21.65.09.02.18,0,.27-.02.05.07.12.13.2.17-.06.13-.05.29,0,.42,0,0,0,.01,0,.02-.02,0-.04,0-.06.01-.5.18-.45.97.07,1.09.07.02.14.03.21.06,0,0,0,0,0,0,.06.04.15.15.19.19.03.04.05.09.07.12.03.09.06.2.08.28,0,.04,0,.08,0,.12,0,.02,0,.03-.01.06-.04.24-.04.32-.15.56-.2.3-.6.7-1.2.99-.34.14-.7.22-1.06.28-.03,0,.07-.01.09-.01-.38.05-.76.12-1.13.21-.19.02-.4.14-.41.35,0,.56.46.42.78.39.27-.03.54-.03.8-.07,0,.25.13.49.39.64.2.09.43.2.65.29-.2.25-.22.66.15.88,0,0,.01.01.02.02,0,0,.01.01.04.04.04.03.07.07.1.11.04.06.07.12.1.17.04.11.07.23.09.34.02.53.05.32-.07.82-.12.25-.11.24-.17.35-.05.06-.11.12-.17.17-.28.23-.16.17-.43.34-.25.09-.36.38-.24.57-.12.14-.18.33-.12.54.1.55.19,1.1.31,1.64,0,.09.03.16.06.23.09,1.14.18,2.91.2,4.03.06,1.78-.45,23.48-.01,25.21.17.7,1.13.95,1.62.43.35-.36.62-20.78.6-21.25-.15-2.71-.05-5.44-.43-8.14-.03-.3-.07-.6-.11-.89.12-.43.03-.38.11-.76-.03-.35.08-.73-.05-1.05-.01-.03-.02-.05-.04-.08.17-.17.29-.41.43-.61.51-.93.43-2.21-.33-2.98-.08-.07-.17-.16-.26-.22.27-.3.29-.83-.03-1.12-.16-.14-.36-.24-.58-.24,0,0,0,0-.01,0-.06-.01-.12-.03-.16-.04.12-.07.24-.14.36-.21.07.17.21.31.4.35.38.09.72-.18,1.04-.34.98-.65,1.35-2.11.66-3.1-.34-.51-.88-.95-1.49-1.07-.02-.09-.05-.17-.11-.24.08-.03.16-.07.23-.1,1.07-.54,1.53-1.99.94-3.05-.16-.34-.41-.63-.72-.86.49-.22.77-.86.41-1.42-.16-.27-.42-.42-.72-.48.06-.03.11-.07.17-.1.48-.39.43-.3.68-.95.14-.48.09-1.03-.11-1.5.05-.02.1-.04.15-.07.18-.11.29-.28.37-.47.12.03.24.04.36,0,.13-.04.25-.11.34-.22.03-.04.25-.32.31-.42.4-.63.79-1.26,1.17-1.9.62-1.04,1.27-2.06,1.82-3.14.14-.33.43-.66.33-1.04-.04-.15-.12-.26-.23-.34.75-1.19,1.54-2.36,2.02-3.69.15-.49.51-.97.45-1.49Z"/>
              </g>
              <g class="cls-35">
                <path class="cls-21" d="m61.47,89.84c.22-.01.39-.19.44-.4.15.06.3.11.44.17-.15.23-.19.51-.12.78.07.03.13.06.2.09.26.12.51.27.74.43.07.05.14.1.21.15.51-.13.73-.61.67-1.05.02-.03.03-.06.04-.09.07-.28-.14-.4-.35-.48-.13-.11-.29-.18-.49-.21-.6-.34-1.22-.96-1.62-1.2-.65-.45-1.4-.71-2.07-1.12-.21-.13-.4-.26-.59-.38-.16-.14-.36-.3-.6-.54-1.68-1.72-2.62-2.67-3.08-4.78.07-.27-.04-.59-.04-.87,0-.06,0-.11-.01-.17-.1-.89-.13-1.78-.11-2.68-.02-.04-.05-.07-.08-.1-.04-.66-.09-1.32-.14-1.98,0-2.46.07-4.94-.67-7.31-.22-.74-.93-.9-1.46-.67-.14-.55-.29-1.11-.45-1.66-.69-2.19-1.22-3.13-1.95-4.99-.55-1.59-1.06-3.19-1.85-4.68-.29-.47-.53-1.15-1.1-1.33-.73-.23-1.41.65-1,1.31,1.16,1.6,1.88,3.47,2.79,5.21.49,1.08,1.07,2.13,1.55,3.22.32.72.98,2.7,1.4,4,0,.05,0,.1.02.15.74,2.9.86,5.39.71,9.41-.03,1.53-.44,3.61-.76,4.81,0,0-.02,0-.03,0-.63-.02-.98.82-.52,1.25.87.69,1.73,1.41,2.61,2.09.89.63,1.83,1.16,2.77,1.71.98.54,2,1,3.03,1.44.4.17.82.32,1.23.47.07.03.15.03.23.02Z"/>
              </g>
              <g class="cls-35">
                <path class="cls-21" d="m49.07,82.37c-.04-.19-.16-.38-.33-.49-.04-.03-.08-.06-.12-.08.05-.33-.02-.68,0-1.01,0-.24.04-.52-.16-.7-.32-.34-.94-.08-.93.38.03.42-.04.86,0,1.27-.14.18-.16.46.06.73.02.02.03.04.05.06,0,0,0,0,0,0,0,.01,0,.02,0,.04.06,1.09,1.66.85,1.41-.21Z"/>
              </g>
              <g class="cls-35">
                <path class="cls-21" d="m43.44,81.3c-1.24.03-1.24,1.85,0,1.88,1.24-.03,1.24-1.85,0-1.88Z"/>
              </g>
              <g class="cls-35">
                <path class="cls-21" d="m37.82,80.02c-1.24.03-1.24,1.85,0,1.88,1.24-.03,1.24-1.85,0-1.88Z"/>
              </g>
              <g class="cls-35">
                <path class="cls-21" d="m50.81,28.18c-.28-.76-1.47-.52-1.46.29-.14,1.87-.32,3.71-.53,5.06-.04.34-.23.63-.23.98-.04,1.28,1.75,1.2,1.67-.08,0-.31-.06-.1-.03-.58.2-1.19.33-2.39.46-3.59.05-.48.11-.96.14-1.45.01-.21.07-.44-.04-.63Z"/>
              </g>
              <g>
                <path class="cls-21" d="m64.93,64.04c-.19,0-.37-.12-.43-.32-.39-1.26-.78-2.45-1.14-3.59-2.64-8.18-4.38-13.59-2.91-23.44.1-.68,1.49-2.58,2.14-2.58h.18c1.01,0,2.17,0,2.47,1.62.17.91.29,1.71.39,2.47.19-1.69.56-3.19,1.22-3.73.58-.47,2.01-.93,2.88.05.39.45.69,1.09.92,1.84.07-.39.17-.77.3-1.16.19-.58.57-1.77,1.97-1.72,1.09.04,2.1.9,2.33,1.99l.07.35c.12.55.27,1.25.42,2.06.14-.66.34-1.31.59-2.05.34-.97,1.78-1.47,2.73-1.2,1.55.44,1.61,2.29,1.63,3.08.12,3.45.18,5.19.25,6.93.07,1.74.14,3.48.25,6.93,0,.25-.19.46-.43.46-.24.02-.46-.19-.46-.43-.12-3.45-.18-5.19-.25-6.93-.07-1.74-.14-3.48-.25-6.93-.03-1.03-.18-2.01-.98-2.24-.57-.16-1.48.19-1.63.63-.69,1.99-.91,3.42-.91,5.89,0,.24-.19.44-.44.45-.24.02-.45-.18-.46-.42-.15-2.42-.64-4.68-.93-6.03l-.08-.35c-.15-.69-.8-1.26-1.49-1.28-.47-.02-.77.15-1.08,1.1-.5,1.54-.49,2.89-.48,5.57,0,.42,0,.87,0,1.36,0,.25-.2.45-.45.45s-.45-.2-.45-.45c0-3.59-.51-6.32-1.37-7.29-.46-.52-1.36-.17-1.63.05-.82.67-1.21,4.87-.99,8.04.02.23-.15.44-.38.48-.24.03-.45-.12-.5-.35-.35-1.54-.51-2.79-.68-4.11-.13-1.02-.26-2.08-.5-3.34-.16-.85-.49-.88-1.58-.88h-.1c-.34.23-1.27,1.4-1.33,1.82-1.44,9.64.28,14.97,2.88,23.03.37,1.14.75,2.33,1.15,3.6.07.24-.06.49-.3.56-.04.01-.09.02-.13.02Zm-2.34-29.02h0,0Z"/>
                <path class="cls-21" d="m63.82,115.2s-.03,0-.04,0c-.25-.02-.43-.24-.41-.49.06-.62.44-21.88.55-23.48.17-2.57.38-5.77.59-8.03.02-.25.25-.43.49-.41.25.02.43.24.41.49-.21,2.25-.42,5.44-.59,8.01-.11,1.68-.49,22.87-.55,23.5-.02.23-.22.41-.45.41Z"/>
                <path class="cls-21" d="m81.66,65.34c-.07,0-.14-.02-.2-.05-.22-.11-.31-.38-.2-.6.46-.92,1.03-1.83,1.59-2.71.13-.21.26-.41.39-.62,1.81-2.9,3.29-6.01,4.39-9.24.08-.23.33-.36.57-.28.23.08.36.34.28.57-1.13,3.3-2.64,6.47-4.48,9.42-.13.21-.26.41-.39.62-.54.86-1.1,1.75-1.54,2.63-.08.16-.24.25-.4.25Z"/>
                <path class="cls-21" d="m80.16,115.2c-.24,0-.44-.19-.45-.43-.06-1.61.18-23.79.12-26.03-.06-2.24-.12-4.55-.18-6.16,0-.25.19-.46.43-.47.26,0,.46.19.47.43.06,1.61.12,3.93.18,6.16.06,2.24-.17,24.42-.12,26.03,0,.25-.19.46-.43.47,0,0-.01,0-.02,0Z"/>
                <path class="cls-21" d="m80.11,79.24c-.24,0-.43-.18-.45-.42-.03-.42,0-.85.08-1.26.05-.24.28-.4.53-.35.24.05.4.28.35.53-.07.34-.09.68-.07,1.03.02.25-.17.46-.42.48,0,0-.02,0-.03,0Z"/>
                <path class="cls-21" d="m80.46,73.58s-.01,0-.02,0c-.25-.01-.44-.22-.43-.47l.03-.53c.01-.25.21-.44.47-.43.25.01.44.22.43.47l-.03.53c-.01.24-.21.43-.45.43Z"/>
                <path class="cls-21" d="m80.77,69.33h0c-.25,0-.45-.21-.44-.46,0-.57.06-1.14.15-1.7.04-.24.27-.41.52-.37.24.04.41.27.37.52-.08.52-.13,1.04-.14,1.56,0,.25-.2.44-.45.44Z"/>
              </g>
              <g>
                <path class="cls-21" d="m41.13,56.11c-2.03,0-4.23-.17-6.7-.54-.68-.1-2.58-1.49-2.58-2.14v-.18c0-1.02,0-2.17,1.62-2.47.91-.17,1.71-.29,2.47-.39-1.69-.19-3.19-.56-3.73-1.22-.47-.58-.93-2.01.05-2.88.45-.39,1.09-.69,1.84-.92-.39-.07-.77-.17-1.16-.3-.58-.19-1.77-.58-1.72-1.97.04-1.09.9-2.1,1.99-2.33l.34-.07c.55-.12,1.26-.27,2.06-.42-.66-.14-1.32-.34-2.05-.59-.97-.34-1.48-1.78-1.2-2.73.44-1.55,2.29-1.61,3.08-1.63,3.45-.12,5.2-.18,6.94-.25,1.74-.07,3.48-.14,6.92-.25.25,0,.46.19.46.43,0,.25-.19.46-.43.46-3.44.12-5.18.18-6.92.25-1.75.07-3.49.14-6.94.25-1.19.04-2.03.22-2.24.98-.16.57.19,1.48.63,1.63,1.99.69,3.42.91,5.89.91.24,0,.44.19.45.44,0,.24-.18.45-.42.46-2.42.15-4.68.64-6.03.94l-.34.07c-.69.15-1.26.8-1.28,1.49-.02.48.15.77,1.1,1.08,1.54.5,2.89.49,5.57.48.42,0,.87,0,1.36,0,.25,0,.45.2.45.45s-.2.45-.45.45c-3.59,0-6.31.51-7.29,1.37-.52.46-.17,1.36.05,1.63.67.82,4.87,1.21,8.04.99.24-.01.44.15.48.38.03.23-.12.45-.35.5-1.54.35-2.79.51-4.11.68-1.02.13-2.08.26-3.34.5-.85.16-.89.48-.88,1.58v.1c.23.34,1.4,1.27,1.81,1.33,9.65,1.44,14.97-.28,23.03-2.88,1.14-.37,2.33-.75,3.6-1.15.24-.08.49.06.56.3.07.24-.06.49-.3.56-1.26.39-2.45.78-3.59,1.14-6.12,1.97-10.69,3.44-16.73,3.44Zm-8.38-2.67h0s0,0,0,0Z"/>
                <path class="cls-21" d="m114.54,51.18s-.03,0-.04,0c-.62-.06-23.94,1.03-25.55.92-2.57-.17-5.77-.38-8.03-.59-.25-.02-.43-.24-.41-.49.02-.25.25-.43.49-.41,2.25.21,5.44.42,8,.59,1.68.11,24.94-.98,25.57-.92.25.02.43.24.41.49-.02.23-.22.41-.45.41Z"/>
                <path class="cls-21" d="m62.61,34.81c-.07,0-.14-.02-.2-.05-.92-.46-1.83-1.03-2.71-1.59-.21-.13-.41-.26-.62-.39-2.9-1.81-6.01-3.28-9.24-4.39-.23-.08-.36-.34-.28-.57.08-.23.33-.36.57-.28,3.3,1.13,6.47,2.64,9.42,4.48.21.13.41.26.62.39.86.54,1.75,1.11,2.63,1.54.22.11.31.38.2.6-.08.16-.24.25-.4.25Z"/>
                <path class="cls-21" d="m80.29,36.37c-.24,0-.44-.19-.45-.43,0-.25.19-.46.43-.47,1.61-.06,3.91-.12,6.15-.18,2.24-.06,26.5-1.3,28.11-1.36.26-.01.46.19.47.43,0,.25-.19.46-.43.47-1.61.06-25.87,1.3-28.12,1.36-2.23.06-4.54.12-6.14.18,0,0-.01,0-.02,0Z"/>
                <path class="cls-21" d="m76.24,36.38c-.32,0-.64-.03-.95-.09-.24-.05-.4-.28-.35-.53.05-.24.29-.4.53-.35.34.07.69.09,1.03.07.26-.01.46.17.48.42s-.17.46-.42.48c-.1,0-.21,0-.31,0Z"/>
                <path class="cls-21" d="m70.86,36.02s-.01,0-.02,0l-.53-.03c-.25-.01-.44-.22-.43-.47.01-.25.22-.44.47-.43l.53.03c.25.01.44.22.43.47-.01.24-.21.43-.45.43Z"/>
                <path class="cls-21" d="m66.61,35.71h0c-.57,0-1.14-.06-1.7-.15-.25-.04-.41-.27-.37-.52.04-.25.27-.41.52-.37.51.09,1.04.13,1.56.14.25,0,.45.21.44.46,0,.25-.2.44-.45.44Z"/>
              </g>
              <g>
                <path class="cls-21" d="m40.94,85.16s-.06,0-.09,0c-1.09-.04-2.1-.9-2.33-1.99l-.08-.35c-.12-.55-.27-1.25-.42-2.06-.14.66-.34,1.32-.59,2.05-.34.97-1.78,1.47-2.73,1.2-1.55-.44-1.61-2.29-1.63-3.08-.12-3.44-.18-5.18-.25-6.92-.07-1.75-.14-3.49-.25-6.94,0-.25.19-.46.43-.46.25-.01.46.19.46.43.12,3.45.18,5.2.25,6.94.07,1.74.14,3.48.25,6.92.03,1.03.18,2.01.98,2.24.57.16,1.48-.19,1.63-.63.69-1.99.91-3.42.91-5.89,0-.24.19-.44.44-.45.24-.01.45.18.46.42.15,2.42.64,4.68.93,6.03l.08.35c.15.69.8,1.26,1.49,1.28.47.02.77-.15,1.08-1.1.5-1.54.49-2.89.48-5.57,0-.42,0-.87,0-1.36,0-.25.2-.45.45-.45s.45.2.45.45c0,3.59.51,6.31,1.37,7.29.46.52,1.36.17,1.63-.05.82-.66,1.21-4.87.99-8.04-.02-.23.15-.44.38-.48.23-.04.45.12.5.35.35,1.54.51,2.79.68,4.11.13,1.02.26,2.08.5,3.34.16.85.48.89,1.58.88h.1c.34-.23,1.27-1.4,1.33-1.82,1.44-9.64-.28-14.97-2.88-23.03-.37-1.14-.75-2.33-1.15-3.6-.07-.24.06-.49.3-.56.24-.07.49.06.56.3.39,1.26.78,2.45,1.14,3.59,2.64,8.18,4.38,13.59,2.91,23.44-.1.68-1.49,2.58-2.14,2.58h-.18c-1.02,0-2.17,0-2.47-1.62-.17-.91-.29-1.71-.39-2.47-.19,1.69-.56,3.19-1.22,3.73-.58.47-2.01.93-2.88-.05-.39-.45-.69-1.09-.92-1.84-.07.39-.17.77-.3,1.16-.18.56-.56,1.72-1.88,1.72Zm10.23-1.54h0,0Z"/>
                <path class="cls-21" d="m48.79,35.84s-.03,0-.04,0c-.25-.02-.43-.24-.41-.49.21-2.25.42-5.44.59-8.01.11-1.68,1.28-29.26,1.34-29.9.02-.25.24-.43.49-.41.25.02.43.24.41.49-.06.62-1.23,28.27-1.34,29.87-.17,2.57-.38,5.77-.59,8.03-.02.23-.22.41-.45.41Z"/>
                <path class="cls-21" d="m25.7,66.81s-.1,0-.15-.02c-.23-.08-.36-.34-.28-.57,1.13-3.3,2.64-6.47,4.48-9.42.13-.21.26-.41.39-.62.54-.86,1.11-1.75,1.54-2.63.11-.22.38-.31.6-.2.22.11.31.38.2.6-.46.92-1.03,1.83-1.59,2.71-.13.21-.26.41-.39.62-1.81,2.9-3.29,6.01-4.39,9.24-.06.19-.24.3-.43.3Z"/>
                <path class="cls-21" d="m33.65,36.52c-.24,0-.44-.19-.45-.43-.06-1.61-.12-3.93-.18-6.16-.06-2.24.96-30.81.9-32.42,0-.25.19-.46.43-.47.26-.01.46.19.47.43.06,1.61-.96,30.19-.9,32.43.06,2.24.12,4.55.18,6.16,0,.25-.19.46-.43.47,0,0-.01,0-.02,0Z"/>
                <path class="cls-21" d="m33.57,41.44s-.06,0-.09,0c-.24-.05-.4-.28-.35-.53.07-.34.09-.69.07-1.03-.02-.25.17-.46.42-.48.25-.01.46.17.48.42.03.42,0,.85-.08,1.26-.04.21-.23.36-.44.36Z"/>
                <path class="cls-21" d="m33.27,46.48s-.01,0-.02,0c-.25-.01-.44-.22-.43-.47l.03-.53c.01-.25.22-.44.47-.43.25.01.44.22.43.47l-.03.53c-.01.24-.21.43-.45.43Z"/>
                <path class="cls-21" d="m32.84,51.83s-.05,0-.07,0c-.24-.04-.41-.27-.37-.52.08-.52.13-1.04.14-1.56,0-.25.2-.44.45-.44h0c.25,0,.45.21.44.46,0,.57-.06,1.14-.15,1.7-.04.22-.23.38-.44.38Z"/>
              </g>
              <g>
                <path class="cls-21" d="m64.45,83.8c-.24,0-.44-.19-.45-.43,0-.25.19-.46.43-.46,3.45-.12,5.19-.18,6.93-.25,1.74-.07,3.48-.14,6.93-.25,1.03-.03,2.01-.18,2.24-.98.16-.57-.19-1.48-.63-1.63-1.99-.69-3.42-.91-5.89-.91-.24,0-.44-.19-.45-.44,0-.24.18-.45.42-.46,2.42-.15,4.68-.64,6.03-.93l.35-.08c.69-.15,1.26-.8,1.28-1.49.02-.48-.15-.77-1.1-1.08-1.54-.5-2.89-.49-5.57-.48-.42,0-.87,0-1.36,0-.25,0-.45-.2-.45-.45s.2-.45.45-.45c3.59,0,6.31-.51,7.29-1.37.52-.46.17-1.36-.05-1.63-.66-.82-4.87-1.21-8.04-.99-.23.01-.44-.15-.48-.38-.03-.23.12-.45.35-.5,1.54-.35,2.79-.51,4.11-.68,1.02-.13,2.08-.26,3.34-.5.85-.16.89-.48.88-1.58v-.1c-.23-.34-1.4-1.27-1.82-1.33-9.65-1.44-14.97.28-23.03,2.88-1.14.37-2.33.75-3.6,1.15-.24.07-.49-.06-.56-.3-.07-.24.06-.49.3-.56,1.26-.39,2.45-.78,3.59-1.14,8.18-2.64,13.59-4.38,23.44-2.91.68.1,2.58,1.49,2.58,2.14v.18c0,1.01,0,2.17-1.62,2.47-.91.17-1.71.29-2.47.39,1.69.19,3.19.56,3.73,1.22.47.58.93,2.01-.05,2.88-.45.39-1.09.69-1.84.92.39.07.77.17,1.16.3.58.19,1.78.58,1.72,1.97-.04,1.09-.9,2.1-1.99,2.33l-.35.08c-.55.12-1.25.27-2.06.42.66.14,1.32.34,2.05.59.97.34,1.48,1.78,1.2,2.73-.44,1.55-2.29,1.61-3.08,1.63-3.45.12-5.19.18-6.93.25-1.74.07-3.48.14-6.93.25,0,0-.01,0-.02,0Zm16.57-18.61h0s0,0,0,0Z"/>
                <path class="cls-21" d="m32.79,68.02s-.03,0-.04,0c-2.25-.21-5.44-.42-8.01-.59-1.68-.11-24.15-.2-24.78-.26-.25-.02-.43-.24-.41-.49.02-.25.24-.43.49-.41.62.06,23.16.15,24.76.26,2.57.17,5.77.38,8.03.59.25.02.43.24.41.49-.02.23-.22.41-.45.41Z"/>
                <path class="cls-21" d="m63.76,91.11s-.1,0-.15-.02c-3.3-1.13-6.47-2.64-9.42-4.48-.21-.13-.41-.26-.62-.39-.86-.54-1.75-1.1-2.63-1.54-.22-.11-.31-.38-.2-.6.11-.22.38-.31.6-.2.92.46,1.83,1.03,2.71,1.59.21.13.41.26.62.39,2.9,1.81,6.01,3.28,9.24,4.39.23.08.36.34.28.57-.06.19-.24.3-.43.3Z"/>
                <path class="cls-21" d="m0,83.51c-.24,0-.44-.19-.45-.43,0-.25.19-.46.43-.47,1.61-.06,25.07-.12,27.31-.18,2.24-.06,4.55-.12,6.16-.18,0,0,.01,0,.02,0,.24,0,.44.19.45.43,0,.25-.19.46-.43.47-1.61.06-3.93.12-6.16.18-2.24.06-25.7.12-27.3.18,0,0-.01,0-.02,0Z"/>
                <path class="cls-21" d="m38.39,83.23s-.06,0-.09,0c-.34-.07-.69-.09-1.03-.07-.25.02-.46-.17-.48-.42-.02-.25.17-.46.42-.48.42-.03.85,0,1.26.08.24.05.4.28.35.53-.04.21-.23.36-.44.36Z"/>
                <path class="cls-21" d="m43.43,83.54s-.01,0-.02,0l-.53-.03c-.25-.01-.44-.22-.43-.47.01-.25.22-.44.47-.43l.53.03c.25.01.44.22.43.47-.01.24-.21.43-.45.43Z"/>
                <path class="cls-21" d="m48.78,83.97s-.05,0-.07,0c-.52-.08-1.04-.13-1.56-.14-.25,0-.45-.21-.44-.46,0-.25.2-.44.45-.44h0c.57,0,1.14.06,1.7.15.24.04.41.27.37.52-.04.22-.23.38-.44.38Z"/>
              </g>
              <path class="cls-21" d="m70.58,32.47c-.08,0-.17-.02-.25-.07l-9.49-6.19c-.21-.14-.27-.41-.13-.62.14-.21.41-.27.62-.13l9.49,6.19c.21.14.27.41.13.62-.09.13-.23.2-.38.2Z"/>
              <path class="cls-21" d="m76.5,31.21c-.09,0-.18-.03-.25-.08l-8.96-6.17c-.2-.14-.26-.42-.12-.63.14-.21.42-.26.63-.12l8.96,6.17c.2.14.26.42.12.63-.09.13-.23.19-.37.19Z"/>
              <path class="cls-21" d="m51.97,91.74s-.03,0-.04,0c-4.51-.4-8.97-1.32-13.26-2.74-.24-.08-.36-.33-.29-.57.08-.24.33-.36.57-.29,4.23,1.4,8.62,2.31,13.05,2.7.25.02.43.24.41.49-.02.23-.22.41-.45.41Z"/>
            </g>
          </g>
        </g>
      </g>
    </g>
  </g>
</svg>