<?xml version="1.0" encoding="UTF-8"?>
<svg xmlns="http://www.w3.org/2000/svg" xmlns:xlink="http://www.w3.org/1999/xlink" viewBox="0 0 409.57 195.55">
  <defs>
    <style>
      .cls-1, .cls-2 {
        fill: none;
      }

      .cls-3 {
        clip-path: url(#clippath);
      }

      .cls-4 {
        fill: #8acdcf;
      }

      .cls-5 {
        fill: #d4ecf0;
      }

      .cls-6 {
        fill: url(#linear-gradient);
        mix-blend-mode: multiply;
      }

      .cls-7 {
        isolation: isolate;
      }

      .cls-2 {
        stroke: #3765ae;
        stroke-linecap: round;
        stroke-linejoin: round;
        stroke-width: 3px;
      }
    </style>
    <linearGradient id="linear-gradient" x1="129.45" y1="218.8" x2="169.53" y2="-233.24" gradientUnits="userSpaceOnUse">
      <stop offset=".02" stop-color="#fff"/>
      <stop offset="1" stop-color="#231f20"/>
    </linearGradient>
    <clipPath id="clippath">
      <rect class="cls-1" x="219.63" width="87.93" height="192.3"/>
    </clipPath>
  </defs>
  <g class="cls-7">
    <g id="Capa_2" data-name="Capa 2">
      <g id="Capa_1-2" data-name="Capa 1">
        <g>
          <path class="cls-6" d="m5.7,6.1h255.83s-17.64,92.51,13.26,189.44H10.9S-9.67,120.45,5.7,6.1Z"/>
          <path class="cls-4" d="m6.2.79h255.83s-13.7,91.4,17.2,175.55H15.34S-9.18,100.06,6.2.79Z"/>
        </g>
        <g class="cls-3">
          <g>
            <circle class="cls-5" cx="317.19" cy="95.45" r="92.38"/>
            <g>
              <circle class="cls-2" cx="297.83" cy="78.52" r="36.88"/>
              <g>
                <circle class="cls-2" cx="297.83" cy="78.52" r="26.07"/>
                <path class="cls-2" d="m320.45,67.92c0-.87-.04-1.72-.13-2.57-4.53-7.71-12.9-12.9-22.5-12.9-14.4,0-26.07,11.67-26.07,26.07,0,2.05.24,4.04.69,5.96,4.92,6.27,12.56,10.3,21.14,10.3,14.83,0,26.86-12.03,26.86-26.86Z"/>
              </g>
              <path class="cls-2" d="m340.02,73.49c-.7-.59-.85-1.61-.36-2.37.01-.02.02-.05.04-.07l2.94-4.37c.56-.83.34-1.92-.42-2.49l-4.78-2.1-.61-.26c-.88-.37-1.32-1.36-1.02-2.26l.37-1.13,1.26-3.87c.34-1.05-.32-2.15-1.39-2.36l-.99-.14-4.54-.57c-.95-.12-1.64-.94-1.6-1.89l.22-5.34c.01-.4-.11-.77-.32-1.07-.24-.21-.49-.42-.73-.62-.32-.15-.68-.22-1.06-.16l-.28.04-4.9.88c-.53.09-1.04-.05-1.44-.36-.41-.25-.72-.64-.84-1.14l-.67-2.8-.59-2.07c-.27-.95-1.23-1.48-2.14-1.28l-5.32,2.62c-.14.07-.28.11-.42.14-.75.17-1.54-.14-1.96-.82l-1.06-1.72-1.71-2.75c-.52-.83-1.57-1.08-2.39-.65l-2.37,2.09-2.05,1.89c-.54.5-1.31.61-1.95.34-.22-.08-.42-.2-.6-.37l-2.49-2.31-1.47-1.34c-.85-.69-2.12-.5-2.71.44l-2.89,4.63c-.5.81-1.54,1.09-2.39.66l-1.2-.62-3.49-1.69c-.98-.47-2.12.01-2.5,1l-.61,2.18-.88,3.27c-.25.92-1.16,1.5-2.1,1.33l-5.43-.98c-1.04-.04-1.93.78-1.91,1.85h0s.1,5.46.1,5.46c.02.95-.7,1.76-1.65,1.86l-1.04.11-4.21.47c-.94.11-1.6.9-1.62,1.79l1.17,4.11.52,1.68c.28.91-.18,1.88-1.06,2.24l-.58.24-4,1.76c-1,.44-1.39,1.7-.81,2.62l2.05,3.21.66.97c.1.14.16.29.21.45,0,.02.01.04.02.06.01.05.03.09.04.14.18.67-.04,1.42-.61,1.88l-4.19,3.42c-.23.23-.38.51-.46.8,0,.18,0,.36,0,.54,0,.13,0,.25,0,.38.08.31.25.6.5.85l4.28,3.51c.11.09.2.19.28.3.52.62.58,1.53.11,2.22l-2.35,3.41-.59.89c-.64.96-.24,2.26.82,2.7l1.05.44,3.86,1.54c.35.14.64.39.84.68.37.47.51,1.1.31,1.7l-1.04,3.2-.48,1.68c-.29,1,.31,2,1.27,2.26l1.14.14,4.62.42c.95.09,1.67.89,1.67,1.84,0,0-.13,4.19-.13,5.68,0,1.41.91,1.61,1.4,1.53l5.38-.9c.94-.16,1.84.43,2.08,1.36l1.35,5.31c.29.74,1.02,1.19,1.78,1.15l4.64-2.08.98-.47c.16-.08.32-.12.49-.15.02,0,.05,0,.07-.01.04,0,.08-.01.12-.02.72-.09,1.45.24,1.83.9l2.62,4.57c.57,1,1.91,1.23,2.78.48l4.14-3.56c.72-.62,1.8-.58,2.48.08l2.15,2.11,1.63,1.47c.74.67,1.84.61,2.51-.05l2.26-3.59.87-1.42c.44-.72,1.29-1.03,2.07-.81.11.03.23.07.33.13l4.72,2.34c.87.43,1.89.1,2.37-.68l1.66-5.72c.13-.45.43-.82.8-1.05.38-.24.85-.34,1.32-.25l3.03.58,2.12.39c.98.18,1.89-.45,2.11-1.37l.03-4v-1.9c-.02-.6.27-1.14.72-1.48.27-.21.6-.35.96-.38l5.24-.49c1.01-.09,1.72-.98,1.66-1.95l-1.64-5.52c-.15-.49-.07-.99.16-1.41.2-.41.54-.75,1-.93l2.9-1.11,1.87-.77c.86-.35,1.28-1.26,1.08-2.11l-3.37-5.15c-.52-.79-.35-1.84.38-2.43l4.1-3.31c.89-.72.91-2.08.03-2.82l-4.17-3.52Z"/>
              <path class="cls-2" d="m302.9,124.29l-1.63-1.47-2.15-2.11c-.68-.67-1.76-.7-2.48-.08l-4.14,3.56c-.87.75-2.21.52-2.78-.48l-2.62-4.57c-.38-.66-1.11-.99-1.83-.9-.04,0-.08.01-.12.02-.02,0-.05,0-.07.01-.17.03-.33.07-.49.15l-.98.47-4.64,2.08c-.76.04-1.49-.41-1.78-1.15l-1.35-5.31c-.24-.92-1.14-1.51-2.08-1.36l-.76.13-14.2,39.95,19.77-6.68c.84-.28,1.76.04,2.24.78l9.71,14.96,13.65-37.52c-.45.01-.91-.14-1.27-.47Z"/>
              <path class="cls-2" d="m323.8,113.56l-1.98-.38c-.47-.09-.94.01-1.32.25-.38.23-.67.6-.8,1.05l-1.66,5.72c-.48.78-1.5,1.12-2.37.68l-4.72-2.34c-.11-.05-.22-.1-.33-.13-.78-.22-1.63.09-2.07.81l-.87,1.42-2.26,3.59c-.33.33-.77.51-1.22.52l-5.71,15.68,8.04,21.17,9.49-15.1c.47-.75,1.39-1.08,2.23-.81l19.86,6.4-14.32-38.54Z"/>
            </g>
          </g>
        </g>
        <path class="cls-1" d="m307.56,8.17s-84.08,1.78-82.62,92.66c1.18,73.77,82.62,87.34,82.62,87.34V8.17Z"/>
      </g>
    </g>
  </g>
</svg>