<?xml version="1.0" encoding="UTF-8"?>
<svg xmlns="http://www.w3.org/2000/svg" xmlns:xlink="http://www.w3.org/1999/xlink" viewBox="0 0 221.8 206.37">
  <defs>
    <style>
      .cls-1 {
        fill: #029da4;
      }

      .cls-2 {
        fill: #8acdcf;
      }

      .cls-3 {
        fill: #3765ae;
      }

      .cls-4 {
        fill: url(#linear-gradient);
        mix-blend-mode: multiply;
      }

      .cls-5 {
        isolation: isolate;
      }
    </style>
    <linearGradient id="linear-gradient" x1="73.65" y1="274.41" x2="265.85" y2="-493.83" gradientUnits="userSpaceOnUse">
      <stop offset="0" stop-color="#fff"/>
      <stop offset="1" stop-color="#231f20"/>
    </linearGradient>
  </defs>
  <g class="cls-5">
    <g id="Capa_2" data-name="Capa 2">
      <g id="Capa_1-2" data-name="Capa 1">
        <g>
          <path class="cls-4" d="m7,23.56h195.63s-12.52,103.83,18.17,179.96l-216.12.83S-7.26,143.76,7,23.56Z"/>
          <path class="cls-1" d="m7,23.56h194.19s-11.44,101.12,16.6,161.81l-197.26.66S-6.03,119.39,7,23.56Z"/>
          <path class="cls-2" d="m7,23.56h198.19s-11.44,101.12,16.6,161.81l-193.31-8.73S-6.03,119.39,7,23.56Z"/>
        </g>
        <g>
          <g>
            <path class="cls-3" d="m195.95,161.53c-.26,0-.52-.07-.74-.23-.61-.41-.77-1.24-.36-1.85,11.26-16.64,17.21-36.1,17.21-56.27,0-55.43-45.09-100.52-100.52-100.52-16.67,0-33.18,4.16-47.75,12.04-.65.35-1.45.11-1.81-.54-.35-.65-.11-1.46.54-1.81C77.49,4.28,94.44,0,111.55,0c56.89,0,103.18,46.29,103.18,103.18,0,20.71-6.11,40.68-17.67,57.77-.26.38-.68.59-1.1.59Z"/>
            <path class="cls-3" d="m111.55,206.37c-56.89,0-103.18-46.29-103.18-103.18,0-21.92,6.78-42.85,19.61-60.53.43-.59,1.27-.73,1.86-.3.59.43.73,1.26.3,1.86-12.5,17.22-19.1,37.61-19.1,58.96,0,55.43,45.09,100.52,100.52,100.52,16.64,0,33.13-4.15,47.69-12.01.65-.35,1.45-.11,1.81.54.35.65.11,1.46-.54,1.81-14.94,8.06-31.87,12.33-48.95,12.33Z"/>
          </g>
          <path class="cls-3" d="m39.86,30.54c0,4.91-3.51,8.21-8.01,8.21-4.81,0-8.21-3.41-8.21-8.21,0-2.3.4-4.01,2.2-8.61l5.31-14.22h8.01l-4.01,15.33c2.91,1.2,4.71,3.81,4.71,7.51Zm21.24,0c0,4.91-3.51,8.21-8.01,8.21-4.81,0-8.21-3.41-8.21-8.21,0-2.3.4-4.01,2.2-8.61l5.31-14.22h8.01l-4.01,15.33c2.91,1.2,4.71,3.81,4.71,7.51Z"/>
          <path class="cls-3" d="m178.01,170.04c0,2.3-.4,4.01-2.2,8.61l-5.21,14.22h-8.11l4.01-15.43c-2.8-1.1-4.71-3.71-4.71-7.41,0-4.91,3.51-8.21,8.11-8.21s8.11,3.41,8.11,8.21Zm21.24,0c0,2.3-.4,4.01-2.2,8.61l-5.21,14.22h-8.11l4.01-15.43c-2.8-1.1-4.71-3.71-4.71-7.41,0-4.91,3.51-8.21,8.11-8.21s8.11,3.41,8.11,8.21Z"/>
        </g>
      </g>
    </g>
  </g>
</svg>