<?xml version="1.0" encoding="UTF-8"?>
<svg xmlns="http://www.w3.org/2000/svg" xmlns:xlink="http://www.w3.org/1999/xlink" viewBox="0 0 297.31 184.04">
  <defs>
    <style>
      .cls-1 {
        fill: #fadfb6;
      }

      .cls-2 {
        fill: #deb481;
      }

      .cls-3 {
        fill: #d4ecf0;
      }

      .cls-4 {
        fill: #3765ae;
      }

      .cls-5 {
        fill: url(#linear-gradient);
        mix-blend-mode: multiply;
      }

      .cls-6 {
        isolation: isolate;
      }
    </style>
    <linearGradient id="linear-gradient" x1="117.14" y1="238.68" x2="136.39" y2="-307.32" gradientUnits="userSpaceOnUse">
      <stop offset="0" stop-color="#fff"/>
      <stop offset="1" stop-color="#231f20"/>
    </linearGradient>
  </defs>
  <g class="cls-6">
    <g id="Capa_2" data-name="Capa 2">
      <g id="Capa_1-2" data-name="Capa 1">
        <g>
          <path class="cls-5" d="m8.89,40.48h210.79s-15.22,71.78,19.1,143.57H13.45S-8.18,125.16,8.89,40.48Z"/>
          <path class="cls-2" d="m5.63,13.05h216.37s-15.22,71.78,19.1,143.57H15.78S-11.45,97.73,5.63,13.05Z"/>
          <path class="cls-1" d="m4.84,13.05h216.37s-15.22,71.78,19.1,143.57l-215.52-3.77S-12.23,97.73,4.84,13.05Z"/>
        </g>
        <path class="cls-3" d="m297.31,4.45c-8.48-2.88-17.56-4.45-27.01-4.45-46.28,0-83.8,37.52-83.8,83.8s37.52,83.8,83.8,83.8c9.13,0,17.92-1.46,26.15-4.16.29-.1.57-.22.86-.34V4.45Z"/>
        <g>
          <path class="cls-4" d="m251.71,65.57c-4.9,2.75-8.16,7.41-9.61,12.65-3.08-4.13-7.23-8.73-10.99-8.16-3.83.58-3.97,4.95-3.77,8.16.47,7.29,4.92,13.77,8.81,19.68,4.13,6.27,8.6,12.17,14.21,17.13-.21.6-.41,1.21-.61,1.81-1,3.06,3.01,4.63,4.55,1.89,5.27-9.39,8.91-19.78,11.98-30.08,1.96-6.57,4.13-15.38-.58-21.41-3.59-4.59-9.26-4.34-14-1.68Zm8.91,20.73c-2.47,8.35-5.82,16.4-8.79,24.58-5.56-5.51-9.82-12.09-14.01-18.71-2.06-3.26-7.72-11.11-5.63-15.2-.04-3.12,1.09-2.73,3.38,1.17.55.62,1.1,1.23,1.65,1.85,1.62,1.88,3.06,3.89,4.47,5.93,1.11,1.61,4.23,1.02,4.29-1.11.16-5.46,2.26-10.95,7.03-14.08,11.96-7.86,9.16,10.35,7.62,15.57Z"/>
          <path class="cls-4" d="m237.93,125.72c-.12-1.83-1.49-3.14-3.25-3.42-2.29-.36-3.51,1.22-5.17,2.09-1.8-3.17-4.85-7.9-8.32-4.39-3.29,3.33-1.43,10.3.03,14.04,1.02,2.59,4.96,1.01,4.01-1.59-.55-1.51-.97-3.03-1.12-4.64-.08-.84.18-1.98.16-2.89.75,1.24,1.46,2.49,2.25,3.71.6.92,1.81,1.09,2.77.79,1.04-.33,1.82-.84,2.66-1.52,1.25-1.01,2.02-1.92.81.28-1.43,2.58-3.38,5.09-5.53,7.1-1.73,1.62.22,4.47,2.24,3.02,3.58-2.56,8.77-7.67,8.46-12.57Z"/>
          <path class="cls-4" d="m270.63,51.99c-1.91-.86-5.69-2.33-5.24-5.03.54-3.23,4.53.83,5.88,1.46,1.39.66,2.64-.65,2.6-1.97-.03-.97.91-4.23,2.01-2.16.46.86.33,2.39.18,3.3-.35,2.2-1.54,4.21-3.14,5.73-1.16,1.09.09,2.78,1.47,1.98,4.11-2.38,6.29-8.43,3.92-12.8-.93-1.71-2.68-2.45-4.56-1.8-1.25.43-2,1.27-2.52,2.28-3.16-2.35-7.93-2.82-9.9,1.23-2.83,5.81,2.98,9.95,7.6,11.91,2.64,1.12,4.32-2.93,1.71-4.11Z"/>
          <path class="cls-4" d="m274.94,115.08c-.52-.66-1.57-.73-2.09-.03-.74.99-1.24,2.02-1.51,3.15-2.08-.38-4.23-.29-6.04.94-2.08,1.42-3.03,3.88-2.22,6.29,1.54,4.56,6.81,6.31,11.24,5.45.49.62,1.7.71,2.23-.21.13-.23.25-.46.37-.69.67-.48.89-1.22.78-1.93,1.4-4.44.2-9.21-2.75-12.98Zm-6.27,10.85c-1.02-.72-2.57-2.15-1.03-3.62,1.16-1.11,3.57-.39,4.94-.19,1.01.15,2.26-.84,1.98-1.96-.11-.44-.17-.85-.18-1.23,1.14,2.26,1.43,4.84.97,7.34-.13.03-.26.07-.4.13-2.04.85-4.41.85-6.28-.46Z"/>
          <path class="cls-4" d="m214.76,75.7c1.17-3.93,3.23-6.97,5.73-9.63.09-.07.16-.15.23-.24,2.91-3.04,6.38-5.62,9.73-8.51,2.88-2.49,8.09-6.64,7.15-11.07-.81-3.81-5.12-3.94-8.27-3.28-.58.12-1.12.27-1.64.45.7-5.26-.37-10.39-5.72-7.96-3.04,1.38-4.51,6.38-5.28,9.23-1.65,6.13-.93,12.75.96,18.78-2.81,3.25-4.71,6.96-4.92,11.7-.05,1.1,1.66,1.79,2.03.55Zm5.53-31.45c.69-1.95,1.91-7.29,4.88-3.26.6.81.5,2.19.08,3.66-2,1.43-3.13,3.62-3.12,6.63,0,1.35,1.76,1.46,2.49.69.93-.99,1.85-3.09,2.47-5.49,2.54-1.36,6.35-.07,6.18,2.45-.06.87-3.61,4.01-3.83,4.21-2.24,2.1-4.76,3.84-7.1,5.8-.84.7-1.65,1.42-2.42,2.15-1.34-5.53-1.54-11.44.37-16.83Z"/>
        </g>
      </g>
    </g>
  </g>
</svg>