<?xml version="1.0" encoding="UTF-8"?>
<svg xmlns="http://www.w3.org/2000/svg" xmlns:xlink="http://www.w3.org/1999/xlink" viewBox="0 0 277.52 222.63">
  <defs>
    <style>
      .cls-1 {
        fill: none;
      }

      .cls-2 {
        clip-path: url(#clippath);
      }

      .cls-3 {
        fill: #d4ecf0;
      }

      .cls-4 {
        fill: #3765ae;
      }

      .cls-5 {
        fill: #6d9dc6;
      }

      .cls-6 {
        fill: url(#linear-gradient);
        mix-blend-mode: multiply;
      }

      .cls-7 {
        isolation: isolate;
      }
    </style>
    <linearGradient id="linear-gradient" x1="160.86" y1="264.62" x2="180.05" y2="-279.79" gradientUnits="userSpaceOnUse">
      <stop offset="0" stop-color="#fff"/>
      <stop offset="1" stop-color="#231f20"/>
    </linearGradient>
    <clipPath id="clippath">
      <path class="cls-1" d="m16.38,0H0v48.28h16.37c2.34-3.34,6.01-5.66,10.38-5.66,7.15,0,12.94,5.85,12.94,13.07s-5.8,13.07-12.94,13.07c-4.37,0-8.03-2.32-10.38-5.66H0v48.28h16.37c2.34-3.34,6.01-5.66,10.38-5.66,7.15,0,12.94,5.85,12.94,13.07s-5.8,13.07-12.94,13.07c-4.37,0-8.03-2.33-10.38-5.66H0v48.28h16.37c2.34-3.34,6.01-5.66,10.38-5.66,7.15,0,12.94,5.85,12.94,13.07s-5.8,13.07-12.94,13.07c-4.37,0-8.03-2.33-10.38-5.66H0v33.34s122.62,3.97,128.81-102.26C133.93,32.64,17.41,1.47,16.38,0Z"/>
    </clipPath>
  </defs>
  <g class="cls-7">
    <g id="Capa_2" data-name="Capa 2">
      <g id="Capa_1-2" data-name="Capa 1">
        <g>
          <path class="cls-6" d="m59.35,66.8h198.04s-14.3,71.78,17.94,143.57H63.64s-20.33-58.89-4.28-143.57Z"/>
          <path class="cls-4" d="m56.29,39.37h203.29s-14.3,79.44,17.94,158.88H65.82s-25.58-65.17-9.54-158.88Z"/>
          <path class="cls-5" d="m55.55,39.37h203.29s-14.3,79.44,17.94,158.88l-201.97-7.08s-35.31-58.09-19.26-151.8Z"/>
        </g>
        <g class="cls-2">
          <circle class="cls-3" cx="29.84" cy="118.85" r="93.66"/>
          <g>
            <path class="cls-4" d="m82.3,98.75c2.35,6.01,3.51,11.92,4.2,17.91,1.77,15.39-1,29.94-8.78,43.37-9.77,16.89-24.68,27.03-43.22,32.22-2.95.82-5.8.06-8.3-1.38-4.06-2.33-7.97-4.92-11.83-7.56-2.43-1.66-4.68-3.58-6.94-5.46-.32-.26-.21-1-.35-1.51-1.4-5.23-1.61-10.58-1.34-15.94.32-6.56,2.11-12.81,4.5-18.89.26-.65.72-1.23,1.12-1.82.62-.91,1.31-1.25,2.19-.27.17.19.51.26.78.33,10.56,2.69,20.84,2.24,30.38-3.46,9.96-5.96,14.18-15.01,13.4-26.48-.11-1.62-.18-3.29-.65-4.83-.72-2.33-1.77-4.57-2.6-6.64-5.97.13-11.45-1.09-16.97-1.89-.86-.12-2.07-1.06-2.23-1.81-.17-.77.6-1.9,1.22-2.65.59-.71,1.49-1.19,2.3-1.69,7.59-4.69,14-10.77,20.2-17.08,2.2-2.24,4.1-4.79,6.12-7.21.92-1.09,1.91-1.81,3.48-1.95,2.18-.19,4.34-.71,6.48-1.24,1.35-.34,2.1.14,2.88,1.18,4.97,6.59,9.92,13.21,15.05,19.68,2.61,3.29,5.6,6.28,8.35,9.46.77.89,1.41,1.94,1.93,3,.75,1.54.11,2.77-1.59,3.07-1.03.18-2.1.16-3.14.13-5.45-.17-10.89-.38-16.64-.59ZM13.8,141.12c-4.59,11.43-6.09,23.18-4.06,35.39-.06-.03.02.04.11.05,14.38,1.33,27.8-1.81,40.19-9.09,12.69-7.45,21.71-17.99,25.87-32.32,2.59-8.93,2.72-18.03,1.51-27.17-.39-2.98-.86-5.99-1.7-8.86-.37-1.26-.07-1.72.83-1.99,1.34-.4,2.73-.65,4.12-.86,2.86-.42,5.74-.77,8.33-1.12-8.61-7.48-14.39-17.57-20.34-27.64-9.44,9.45-18.45,19.19-29.83,26.29,3.95.51,7.76.67,11.55,1.12,1.86.22,3.99.54,5.4,1.61,1.59,1.2,2.9,3.14,3.63,5.03,3.8,9.88,3.12,19.61-2.8,28.38-7.46,11.05-18.46,15.24-31.52,14.48-4.05-.24-7.85-1.51-11.29-3.31Zm20.65,36.71c-.75,4.19-1.47,8.16-2.18,12.12,1.57.17,2.16-.4,2.36-1.87.34-2.5.97-4.97,1.49-7.45.23-1.1.51-2.2.8-3.47-1.04.28-1.81.49-2.48.66Zm15.23-5.94c-1.64.39-2.25,1.01-2.12,2.56.14,1.64-.12,3.34-.38,4.98-.31,1.9-.81,3.76-1.23,5.64.1.09.19.19.29.28.67-.64,1.81-1.19,1.93-1.92.64-3.76,1.02-7.56,1.52-11.55Zm10.84,3.97c1.12-.6,1.83-1.57,1.82-3.18-.01-1.95.26-3.9.41-5.85.12-1.53.25-3.07.37-4.6-.15-.06-.31-.13-.46-.19-.5.74-1.37,1.45-1.44,2.23-.35,3.87-.49,7.77-.7,11.6Zm-29.47,14.06c.78-4.01,1.53-7.83,2.28-11.66-1.38-.13-1.91.38-1.95,1.75-.05,1.51-.39,3.02-.71,4.5-.36,1.66-.85,3.3-1.31,5.06.65.13,1.19.24,1.7.35Zm10.34-2.4c.67-.62,1.63-1.06,1.72-1.64.64-3.82,1.1-7.66,1.62-11.5-.58.19-1.06.5-1.14.9-.75,3.95-1.44,7.92-2.21,12.25Zm16.95-21.14c-.19-.04-.39-.07-.58-.11-.59,4.3-1.19,8.59-1.79,12.96,1.33-.47,1.93-1.3,1.97-2.59.11-3.42.26-6.84.39-10.26Zm-6.53,4.37c-.17-.09-.34-.17-.5-.26-.34.5-.93.97-.98,1.5-.35,3.81-.59,7.63-.88,11.58.31-.34.9-.68.95-1.09.52-3.9.95-7.82,1.41-11.73Zm-23.5,8.58c-.15-.11-.29-.23-.44-.34-.31.38-.77.71-.91,1.14-.34,1.03-.52,2.12-.8,3.18-.38,1.45-.8,2.9-1.2,4.33.61.28,1.02.47,1.54.7.62-3.08,1.21-6.05,1.81-9.02Zm10.56-2.57l-.68-.2c-.6,2.01-.83,4.14-1.41,6.16-.62,2.17-1.18,4.36-1.76,6.54.12.08.23.16.35.24.35-.3.94-.54,1.01-.9.87-3.93,1.67-7.89,2.49-11.83Zm3.62-1.45c-.23.03-.48.03-.49.08-.94,4.2-1.86,8.4-2.88,13.04.62-.63,1.35-1.02,1.44-1.52.71-3.84,1.3-7.7,1.93-11.59Zm-12.19,3.59c-.11-.03-.22-.06-.32-.1-.91,3.29-1.82,6.58-2.75,9.93.54.2.96.36,1.51.57.53-3.39,1.05-6.62,1.55-9.86.03-.18.01-.36.01-.54Zm16.55-5.39c-.26-.05-.52-.1-.78-.14-.24,2.08-.39,4.18-.75,6.24-.38,2.18-.97,4.32-1.47,6.48.11.06.23.12.34.18.33-.45.87-.87.96-1.36.62-3.79,1.15-7.6,1.71-11.4Zm18-12.91c-.24-.03-.47-.06-.71-.09-.1,2.05-.17,4.1-.32,6.15-.16,2.16-.4,4.31-.6,6.47.14.04.28.09.41.13.21-.41.58-.82.61-1.24.24-3.8.41-7.61.61-11.41Zm4.79-6.07c-.57,3.85.07,7.71.39,11.58.78-3.86,0-7.71-.39-11.58Zm9.42-4.25h.36c1.19-3.49-1.52-6.24-2.05-9.44-.25.19-.46.41-.42.58.69,2.96,1.4,5.91,2.11,8.86Zm-20.44,26.99c.14.02.27.03.41.05.74-4.21,1.28-8.45,1.37-12.79-1.12.29-1.32.93-1.26,1.94.13,2.28.15,4.58.07,6.86-.05,1.32-.38,2.62-.59,3.93Zm-6.17,4.31c.07.07.15.13.22.2.34-.46.92-.89.97-1.38.36-3.65.62-7.31.91-10.97.01-.19-.05-.38-.07-.57-.04,0-.09.01-.13.02-.63,4.23-1.26,8.47-1.9,12.7Zm26.25-44.47c-.12,0-.24,0-.37,0-.15.72-.58,1.52-.41,2.15.72,2.69,1.62,5.33,2.45,7.98.27-.75.28-1.5.11-2.21-.27-1.11-.74-2.17-.98-3.28-.34-1.53-.54-3.09-.81-4.64Zm1.95-21.81c.28,2.75,2.6,4.31,3.72,6.57.52-3.21-2.43-4.41-3.72-6.57Zm-3.88,40.75c.22-.83.63-1.48.51-2.01-.62-2.75-1.38-5.48-2.09-8.21-.17.03-.33.06-.5.09.67,3.27,1.34,6.53,2.08,10.13Zm-50.87,23.5c-.17-.05-.33-.1-.5-.15-1.05,2.1-1.25,4.48-1.81,6.74-.07.28.25.66.4.99.13-.03.25-.07.38-.1.51-2.49,1.02-4.98,1.53-7.48Zm54.27-68.03c.41,2.82,2.86,4.43,3.98,6.86.06-.81.12-1.68-.27-2.23-1.14-1.61-2.46-3.1-3.71-4.64Zm2.61,26.29c.17-.04.34-.08.5-.12-.19-3.1-2.04-5.66-2.83-8.56-.19.06-.38.12-.57.18.97,2.83,1.93,5.67,2.9,8.5Zm4.57-56.53c.07-.19.15-.37.22-.56-2.6-1.23-5.38-1.8-8.2-2.28-.04.14-.09.29-.13.43,2.7.8,5.41,1.6,8.11,2.4Zm-9.4,71.72c.86-1.41-.26-6.71-1.98-9.68.69,3.36,1.31,6.42,1.98,9.68Zm-2.7,5.28c.47-3.52-.55-6.88-1.08-10.29-.16.02-.32.04-.47.06.52,3.41,1.04,6.82,1.56,10.23Zm19.17-68.82c.06-.15.12-.3.18-.45-3.11-1.79-6.68-2.38-10.09-3.4,3.3,1.28,6.61,2.57,9.91,3.85ZM23.45,179.72c-.09-.06-.18-.12-.28-.18-.2.22-.53.42-.59.67-.38,1.57-.76,3.14-1,4.73-.05.36.44.79.88,1.53.19-1.54.28-2.56.44-3.58.16-1.06.37-2.11.56-3.17Zm50.15-18.93c1.03-1.1.72-5.78-.44-7.64.15,2.6.29,5.06.44,7.64Zm16.63-76.09c.05-.15.09-.29.14-.44-2.92-.88-5.84-1.76-8.76-2.64-.05.16-.1.33-.16.49,2.93.86,5.85,1.73,8.78,2.59Zm-4.6-5.97c-.69-.87-5.21-2.2-8.03-2.01,2.67.67,5.33,1.33,8.03,2.01Zm-1.58,49.59c.15-.06.31-.12.46-.18-.33-2.58-2.87-4-3.42-6.46-.16.08-.31.16-.47.24,1.14,2.13,2.29,4.27,3.43,6.4Zm-62.47,51.53c-1.85,2.91-2.04,4.38-.89,4.83.3-1.61.6-3.22.89-4.83Zm55.33-112.59l.19-.53c-1.11-1.59-2.83-.55-4.22-.98-.03.12-.06.24-.09.37,1.37.38,2.74.77,4.12,1.15Zm-10.09,102.27c.19.03.38.06.57.09.02-2.1.04-4.21.06-6.31-.11,0-.23,0-.34-.01-.1,2.08-.19,4.15-.29,6.23Zm15.46-63.5l.29-.42c-1.44-1.06-2.89-2.11-4.33-3.17l-.31.41c1.45,1.06,2.9,2.12,4.35,3.18Zm-27.76,74.03c.22.03.44.07.66.1.15-1.77.3-3.54.46-5.32-.1-.01-.2-.02-.31-.04-.27,1.75-.54,3.5-.81,5.25Zm25.87-41.27c.32,1.61.64,3.22.97,4.82.13-.02.25-.05.38-.07.29-1.73-.67-3.21-1.34-4.75Zm.13-28.6c.97.97,1.94,1.93,2.9,2.9.1-.11.2-.22.31-.32-.42-1.57-2-1.86-3.21-2.57Zm-25.05,62.78c.1,0,.2.01.3.02.13-1.72.26-3.43.4-5.15-.2-.01-.39-.03-.59-.04-.03,1.72-.07,3.45-.1,5.17Zm10.94-14.14c-.18-.01-.37-.03-.55-.04-.02,1.62-.04,3.24-.05,4.85.11,0,.22.01.33.02.09-1.61.18-3.22.27-4.83Zm24.59-68.28c.06-.12.12-.24.17-.37-1.28-.53-2.56-1.07-3.84-1.6-.07.18-.14.37-.21.55,1.29.47,2.58.95,3.88,1.42Zm-18.72,72.12c.2,0,.4-.02.6-.03-.13-1.49-.27-2.97-.4-4.46-.1,0-.2,0-.3.01.03,1.49.07,2.98.1,4.47Zm11.55-31.17c.24-1.74-1.05-2.84-1.89-4.14.63,1.38,1.26,2.76,1.89,4.14Zm-1.75,9.48c.21-.06.41-.12.62-.18-.44-1.4-.88-2.8-1.32-4.2-.11.03-.21.06-.32.09.34,1.43.68,2.86,1.02,4.29Zm-1.85-33.24l-.14.14c1.03.94,2.06,1.88,3.09,2.82.09-.1.18-.19.27-.28l-3.21-2.67Zm13.12-18.04c-.05.12-.1.23-.16.35,1.13.55,2.26,1.1,3.39,1.65l.22-.49c-1.15-.5-2.3-1-3.45-1.5Z"/>
            <path class="cls-3" d="m13.8,141.12c3.43,1.8,7.24,3.07,11.29,3.31,13.06.76,24.07-3.43,31.52-14.48,5.92-8.77,6.6-18.5,2.8-28.38-.73-1.89-2.05-3.83-3.63-5.03-1.41-1.07-3.54-1.39-5.4-1.61-3.78-.45-7.6-.61-11.55-1.12,11.38-7.11,20.39-16.84,29.83-26.29,5.95,10.07,11.73,20.16,20.34,27.64-2.59.34-5.47.7-8.33,1.12-1.39.21-2.78.45-4.12.86-.91.27-1.2.74-.83,1.99.84,2.87,1.31,5.88,1.7,8.86,1.21,9.14,1.07,18.25-1.51,27.17-4.16,14.33-13.18,24.86-25.87,32.32-12.39,7.28-25.81,10.42-40.19,9.09-.09,0-.17-.07-.11-.05-2.03-12.21-.54-23.97,4.06-35.39Z"/>
            <path class="cls-3" d="m34.45,177.83c.67-.18,1.44-.39,2.48-.66-.3,1.27-.57,2.37-.8,3.47-.52,2.48-1.15,4.94-1.49,7.45-.2,1.47-.79,2.04-2.36,1.87.71-3.96,1.42-7.93,2.18-12.12Z"/>
            <path class="cls-3" d="m49.68,171.9c-.5,3.99-.88,7.79-1.52,11.55-.12.73-1.26,1.28-1.93,1.92-.1-.09-.19-.19-.29-.28.42-1.88.93-3.75,1.23-5.64.27-1.64.52-3.34.38-4.98-.13-1.55.48-2.17,2.12-2.56Z"/>
            <path class="cls-3" d="m60.52,175.86c.21-3.84.35-7.73.7-11.6.07-.78.94-1.49,1.44-2.23.15.06.31.13.46.19-.12,1.53-.25,3.07-.37,4.6-.15,1.95-.43,3.9-.41,5.85.01,1.61-.69,2.59-1.82,3.18Z"/>
            <path class="cls-3" d="m31.05,189.92c-.51-.1-1.05-.21-1.7-.35.46-1.76.95-3.39,1.31-5.06.32-1.48.66-2.99.71-4.5.05-1.38.57-1.88,1.95-1.75-.75,3.83-1.5,7.65-2.28,11.66Z"/>
            <path class="cls-3" d="m41.39,187.52c.77-4.33,1.45-8.3,2.21-12.25.07-.39.55-.7,1.14-.9-.52,3.84-.98,7.68-1.62,11.5-.1.59-1.05,1.03-1.72,1.64Z"/>
            <path class="cls-3" d="m58.34,166.38c-.13,3.42-.28,6.84-.39,10.26-.04,1.29-.64,2.13-1.97,2.59.6-4.36,1.19-8.66,1.79-12.96.19.04.39.07.58.11Z"/>
            <path class="cls-3" d="m51.81,170.74c-.46,3.91-.89,7.82-1.41,11.73-.06.41-.64.75-.95,1.09.29-3.95.53-7.77.88-11.58.05-.52.64-1,.98-1.5.17.09.34.17.5.26Z"/>
            <path class="cls-3" d="m28.31,179.32c-.6,2.97-1.19,5.94-1.81,9.02-.52-.24-.94-.43-1.54-.7.4-1.44.82-2.88,1.2-4.33.28-1.06.46-2.15.8-3.18.14-.43.6-.77.91-1.14.15.11.29.23.44.34Z"/>
            <path class="cls-3" d="m38.88,176.75c-.82,3.95-1.61,7.9-2.49,11.83-.08.36-.66.6-1.01.9-.12-.08-.23-.16-.35-.24.58-2.18,1.14-4.37,1.76-6.54.58-2.02.8-4.15,1.41-6.16l.68.2Z"/>
            <path class="cls-3" d="m42.5,175.3c-.63,3.9-1.22,7.76-1.93,11.59-.09.5-.82.89-1.44,1.52,1.02-4.64,1.94-8.84,2.88-13.04.01-.05.26-.04.49-.08Z"/>
            <path class="cls-3" d="m30.31,178.89c0,.18.01.36-.01.54-.51,3.24-1.02,6.47-1.55,9.86-.54-.2-.97-.36-1.51-.57.93-3.35,1.84-6.64,2.75-9.93.11.03.22.06.32.1Z"/>
            <path class="cls-3" d="m46.85,173.5c-.56,3.8-1.09,7.61-1.71,11.4-.08.49-.63.91-.96,1.36-.11-.06-.23-.12-.34-.18.5-2.16,1.09-4.3,1.47-6.48.36-2.06.51-4.16.75-6.24.26.05.52.1.78.14Z"/>
            <path class="cls-3" d="m64.85,160.59c-.19,3.8-.37,7.61-.61,11.41-.03.42-.4.83-.61,1.24-.14-.04-.28-.09-.41-.13.2-2.16.44-4.31.6-6.47.15-2.05.22-4.1.32-6.15.24.03.47.06.71.09Z"/>
            <path class="cls-3" d="m69.64,154.53c.38,3.87,1.16,7.72.39,11.58-.31-3.87-.96-7.73-.39-11.58Z"/>
            <path class="cls-3" d="m79.05,150.28c-.71-2.95-1.43-5.9-2.11-8.86-.04-.17.17-.39.42-.58.53,3.2,3.24,5.95,2.05,9.45h-.36Z"/>
            <path class="cls-3" d="m58.62,177.27c.21-1.31.54-2.62.59-3.93.08-2.29.06-4.58-.07-6.86-.06-1.01.14-1.65,1.26-1.94-.09,4.34-.62,8.58-1.37,12.79-.14-.02-.27-.03-.41-.05Z"/>
            <path class="cls-3" d="m52.44,181.58c.63-4.23,1.26-8.47,1.9-12.7.04,0,.09-.01.13-.02.03.19.09.38.07.57-.28,3.66-.55,7.32-.91,10.97-.05.49-.63.92-.97,1.38-.07-.07-.15-.13-.22-.2Z"/>
            <path class="cls-3" d="m78.69,137.12c.26,1.55.47,3.11.81,4.64.24,1.11.72,2.17.98,3.28.17.71.15,1.47-.11,2.21-.83-2.66-1.73-5.3-2.45-7.98-.17-.64.26-1.43.41-2.15.12,0,.24,0,.37,0Z"/>
            <path class="cls-3" d="m80.64,115.3c1.29,2.16,4.23,3.35,3.72,6.57-1.12-2.26-3.44-3.82-3.72-6.57Z"/>
            <path class="cls-3" d="m76.76,156.05c-.74-3.6-1.41-6.87-2.08-10.13.17-.03.33-.06.5-.09.71,2.74,1.46,5.46,2.09,8.21.12.53-.28,1.18-.51,2.01Z"/>
            <path class="cls-3" d="m25.89,179.55c-.51,2.49-1.02,4.98-1.53,7.48-.13.03-.25.07-.38.1-.14-.33-.46-.71-.4-.99.56-2.26.76-4.64,1.81-6.74.17.05.33.1.5.15Z"/>
            <path class="cls-3" d="m80.16,111.52c1.25,1.54,2.57,3.02,3.71,4.64.39.55.34,1.42.27,2.23-1.12-2.43-3.57-4.05-3.98-6.86Z"/>
            <path class="cls-3" d="m82.76,137.81c-.97-2.83-1.93-5.67-2.9-8.5.19-.06.38-.12.57-.18.79,2.9,2.64,5.46,2.83,8.56-.17.04-.34.08-.5.12Z"/>
            <path class="cls-3" d="m87.33,81.28c-2.7-.8-5.41-1.6-8.11-2.4.04-.14.09-.29.13-.43,2.82.48,5.6,1.05,8.2,2.28-.07.19-.15.37-.22.56Z"/>
            <path class="cls-3" d="m77.93,153c-.67-3.26-1.29-6.32-1.98-9.68,1.71,2.97,2.84,8.27,1.98,9.68Z"/>
            <path class="cls-3" d="m75.23,158.28c-.52-3.41-1.04-6.82-1.56-10.23.16-.02.32-.04.47-.06.53,3.42,1.56,6.77,1.08,10.29Z"/>
            <path class="cls-3" d="m94.4,89.46c-3.3-1.28-6.61-2.57-9.91-3.85,3.41,1.01,6.98,1.61,10.09,3.4-.06.15-.12.3-.18.45Z"/>
            <path class="cls-3" d="m23.45,179.72c-.19,1.06-.4,2.11-.56,3.17-.15,1.02-.25,2.04-.44,3.58-.44-.73-.93-1.17-.88-1.53.24-1.59.62-3.16,1-4.73.06-.26.39-.45.59-.67.09.06.18.12.28.18Z"/>
            <path class="cls-3" d="m73.6,160.79c-.15-2.59-.29-5.04-.44-7.64,1.16,1.87,1.46,6.54.44,7.64Z"/>
            <path class="cls-3" d="m90.24,84.7c-2.93-.86-5.85-1.73-8.78-2.59.05-.16.1-.33.16-.49,2.92.88,5.84,1.76,8.76,2.64-.05.15-.09.29-.14.44Z"/>
            <path class="cls-3" d="m85.63,78.73c-2.7-.67-5.37-1.34-8.03-2.01,2.82-.19,7.34,1.14,8.03,2.01Z"/>
            <path class="cls-3" d="m84.05,128.32c-1.14-2.13-2.29-4.27-3.43-6.4.16-.08.31-.16.47-.24.55,2.46,3.09,3.88,3.42,6.46-.15.06-.31.12-.46.18Z"/>
            <path class="cls-3" d="m21.58,179.85c-.3,1.61-.6,3.22-.89,4.83-1.15-.45-.95-1.92.89-4.83Z"/>
            <path class="cls-3" d="m76.91,67.26c-1.37-.38-2.74-.77-4.12-1.15.03-.12.06-.24.09-.37,1.38.43,3.1-.61,4.22.98l-.19.53Z"/>
            <path class="cls-3" d="m66.83,169.53c.1-2.08.19-4.15.29-6.23.11,0,.23,0,.34.01-.02,2.1-.04,4.21-.06,6.31-.19-.03-.38-.06-.57-.09Z"/>
            <path class="cls-3" d="m82.28,106.04c-1.45-1.06-2.9-2.12-4.35-3.18l.31-.41c1.44,1.06,2.89,2.11,4.33,3.17l-.29.42Z"/>
            <path class="cls-3" d="m54.52,180.07c.27-1.75.54-3.5.81-5.25.1.01.2.02.31.04-.15,1.77-.3,3.54-.46,5.32-.22-.03-.44-.07-.66-.1Z"/>
            <path class="cls-3" d="m80.39,138.79c.67,1.54,1.63,3.02,1.34,4.75-.13.02-.25.05-.38.07-.32-1.61-.64-3.22-.97-4.82Z"/>
            <path class="cls-3" d="m80.52,110.19c1.21.71,2.79,1,3.21,2.57-.1.11-.2.22-.31.32-.97-.97-1.94-1.93-2.9-2.9Z"/>
            <path class="cls-3" d="m55.47,172.98c.03-1.72.07-3.45.1-5.17.2.01.39.03.59.04-.13,1.72-.26,3.43-.4,5.15-.1,0-.2-.01-.3-.02Z"/>
            <path class="cls-3" d="m66.41,158.84c-.09,1.61-.18,3.22-.27,4.83-.11,0-.22-.01-.33-.02.02-1.62.04-3.24.05-4.85.18.01.37.03.55.04Z"/>
            <path class="cls-3" d="m90.99,90.56c-1.29-.47-2.58-.95-3.88-1.42.07-.18.14-.37.21-.55,1.28.53,2.56,1.07,3.84,1.6-.06.12-.12.24-.17.37Z"/>
            <path class="cls-3" d="m83.83,131.51c-.63-1.38-1.26-2.76-1.89-4.14.85,1.3,2.13,2.4,1.89,4.14Z"/>
            <path class="cls-3" d="m82.08,140.99c-.34-1.43-.68-2.86-1.02-4.29.11-.03.21-.06.32-.09.44,1.4.88,2.8,1.32,4.2-.21.06-.41.12-.62.18Z"/>
            <path class="cls-3" d="m80.22,107.75l3.21,2.67c-.09.09-.18.19-.27.28-1.03-.94-2.06-1.88-3.09-2.82l.14-.14Z"/>
            <path class="cls-3" d="m93.35,89.71c1.15.5,2.3,1,3.45,1.5l-.22.49c-1.13-.55-2.26-1.1-3.39-1.65.05-.12.1-.23.16-.35Z"/>
          </g>
        </g>
      </g>
    </g>
  </g>
</svg>