<?xml version="1.0" encoding="UTF-8"?>
<svg xmlns="http://www.w3.org/2000/svg" xmlns:xlink="http://www.w3.org/1999/xlink" viewBox="0 0 291.86 334.12">
  <defs>
    <style>
      .cls-1 {
        fill: #d4ecf0;
      }

      .cls-2 {
        fill: #3765ae;
      }

      .cls-3 {
        fill: #6d9dc6;
      }

      .cls-4 {
        mix-blend-mode: screen;
        opacity: .1;
      }

      .cls-5 {
        opacity: .8;
      }

      .cls-6 {
        fill: url(#linear-gradient);
      }

      .cls-6, .cls-7 {
        mix-blend-mode: multiply;
      }

      .cls-8 {
        fill: #e0c4a3;
        fill-rule: evenodd;
      }

      .cls-9 {
        isolation: isolate;
      }

      .cls-7 {
        opacity: .2;
      }
    </style>
    <linearGradient id="linear-gradient" x1="132.36" y1="410.89" x2="159.75" y2="-366.21" gradientUnits="userSpaceOnUse">
      <stop offset="0" stop-color="#fff"/>
      <stop offset="1" stop-color="#231f20"/>
    </linearGradient>
  </defs>
  <g class="cls-9">
    <g id="Capa_2" data-name="Capa 2">
      <g id="Capa_1-2" data-name="Capa 1">
        <g>
          <path class="cls-6" d="m7.54,127.91h245.35s-17.48,124.85,21.94,206.21H12.78S-12.08,223.89,7.54,127.91Z"/>
          <path class="cls-2" d="m12.3,95.7h251.77s-17.48,134.42,21.94,222.03H23.96S-7.31,199.04,12.3,95.7Z"/>
          <path class="cls-3" d="m12.3,95.7h251.77s-17.48,134.42,21.94,222.03l-251.67-15.45S-7.31,199.04,12.3,95.7Z"/>
        </g>
        <g class="cls-5">
          <g>
            <g class="cls-7">
              <path class="cls-8" d="m87.1,35.24c-.1,1.53-.5.27-.73.63.27-2.74.61-1.84.73-.63Zm-65.88-2.76c-.57.08-.66-1.27-1.12.62.15.17.03.8-.09,1.43.54-1.12.75,2.38,1.21-2.04Zm2.15.18c-.12-1-.77-.74-.9,1.34.44-1.16.56,1.17.9-1.34Zm50.99,4.08c-.4-.06-.83-.02-.64-2.2-.03,1.62.98-.55.64,2.2Zm3.26-1.79c-.36,1.92-.82-.02-.89-.81-.34.04-.51,1.28-.67-.08.6-2,1.22.25,1.56.88Zm-3.51,6.76c-.57.33-1.21,2.54-1.76,3.38-.4.62-.09-1.23-.53-.06-.88,2.28-2.1,2.67-3.63,3.19-.06-.97-.38-.96-.37-2.17.2-3.22.91-1.81.78-4.91.55-1.04.56.45,1.13-.6.22-3.03-.67-1.96-1.19-2.26.08-1.27.28-1.48.35-2.81.48,2.73,1.55.56,2.5.97-.04,1.51-.3,1.33-.5,1.37-.35.48-.57,2.09-.81,3.48.32,2.13.46-.5.78-1.35,1.06.28,1.82,2.54,2.83.3.01.95.19,1.35.43,1.47Zm-2.67,1.14c.04-1-.23-.84-.29-1.46-.31,2.81.35,2.08.77,2.23.93-.11-.07-1.15-.48-.77Zm19.86-2.17c.14-1.93-.69-2.85-.96-1.53.23.84.39,1.89.96,1.53Zm4.75-1.62c-.27-.51-.98-1.95-1.27.57.56-1.15.73,1.2,1.27-.57Zm12.85-2.15c-.3-.75-.63-.82-1.01.6.27.41.74,1.8,1.01-.6Zm4.17-.96c.1-1.68-.43.74-.52,1.36l1.21.14c.34-2.54-.45-1.05-.69-1.5Zm25.84,6.46l-.53-.07c-.49,3.27.5,2.54.53.07Zm2.1-.48c-.8.84-.14-3.5-.86-2.94-.17,2.29.28,2.33.39,3.61-.03,2.3-.49.49-.51,2.79.46.1.67-2.02.97-3.46Zm3.76,7.55l.55.06c.32-2.71-.44-2.8-.55-.06Zm1.39-6.97c-.37-.19-.7.1-.93,1.32.14.17.15.81.16,1.44.36-.05.62-.97.77-2.77Zm6.61,6.44c.16,1.44.11,3.63.47,4.33.42-2.48-.21-2.22-.31-2.89-.03-.19.13-1.15.11-1.41,0,.12-.23-.83-.21-.73-.14-.57-.34-.3-.49-.77-.31,2.12.2,1.29.43,1.47Zm-1.13,2.01l-.68-.07c-.38,2.15.72,2.27.68.07Zm-.82-5.08c-.17,3.58.67.55.72,2.94.09-1.64.45-.74.58-2.08-.44-1-.78.24-1.3-.86Zm-1.61,6.24c.27.95.48-1.07.79-1.33.15-.13.54,2.5.74-.64-.17-1.09-1.34-.81-1.53,1.97Zm-2.06-1.65c.36-.37.74-.53.91-2.75-.36.36-.75.52-.91,2.75Z"/>
            </g>
            <g class="cls-4">
              <path class="cls-8" d="m168.09,36.54c-.09,1.4-.44.87-.44,2.81l-.43-.03c-.02-1.03.65-1.69.26-2.12.09-.95.39-.56.61-.67Zm2.1-4.84c-.08.77-.31.46-.36,1.4-.33.75-.14-1.24-.22-1.43-.19-.56-.88,1.12-.62-1.45.6-.34.93.45,1.19,1.49Zm-2.18,6.25l.71.04c-.12,2.16-.99,2.87-.71-.04Zm8.47-10.12c-.39,1.01-.34,1.48-.75.67-.27.09-.21,2.38-.42,2.8l-1.42-.08c-.42-.62.29-.91.47-.68.04-1.68-.43-1.35-.25-3.56-.27.09-.21,2.38-.43,2.81-.85.52-.81-2.46-1.05-4.31-.47.93-.92.83-1.09-.78.71-1.49,1.55,1.4,2.14,2.26-.06-.72-.28-.75-.17-2.14.5.27,1.11.15.98,2.9.72,1.66,1.43-2.26,2.08-2.01-.03-.02-.01,2.28.21,1.43.13-2-.4-1.41-.07-4.26.37,1.51.66-.64,1.02-.64.25-.01.37,1.44.81.75-.04.69-.2.54-.32.69-.57,1.86-.69,6.73-1.49,7.01.39-.81.46-3.85.82-4.92.02-.82-.23-.6-.39-.73-.19,1.69-.27,2.08-.53,4.93-.32.32-.22-1.02-.17-2.13Zm-5.6,9.59c-.02,2.45-.63,2.51-.78,1.37.1-1.54.43-1.5.78-1.37Zm3.12.19l-.29-.02c-.48.58-.38-1.14-.63-1.46-1.22-.58.22-.25.5-1.39.12,1.06.54.86.42,2.86Zm-2.2,1.28c-.31.28-.35-.51-.53-.74.23-1.29.78-.44.76-3.5.29.31-.09,3.76-.23,4.24Zm-1.33-7.17c-.37-.32.12-2.22.36-1.4-.03-1.75-.99.15-1.05-1.48.41-1.47.48.35,1.02-.64-.05,1.66.42,1.35.23,3.55-.3.67-.35-2.14-.56-.03Zm-3.04,1.23c0-3.02,1.31-2.95.99.07-.36-.77-.55-.77-.99-.07Zm2.06-4.12c-.58.04-.41-2.86-1.15-2.19.51-2.25.88-2.08,1.12.07.38-1.73,1.08-3.11,1.3-.63.25,1.61-.34-.61-.7-.05-.3.18-.38,1.87-.58,2.8Zm-2.71,8.34l.42.02-.15,2.83-.42-.03c.31-1.38.03-.89.15-2.82Zm-43.04,8.08c-.69,3.71-1.39,2.22-2.4,1.93.28-2.33.73-.37,1.17-.61.47-.24.85-1.51,1.23-1.31Zm54.12-13.79c-.61.05.08,3.02-.57,2.8.06.73.29.75.17,2.14-.29.6-.43-.48-.67-.75-.23-.26-.87.84-.64-1.45.33-.21.54.15.68.75.3.08.13-2.4.1-2.12.17-1.38.64-.03.56-2.8.57,1.74.86-1.48,1.27.07-.11.56-.21,1.14-.25,2.11-.18-.4-.77.78-.67-.75Zm2.44,2.26c-.07,2.11-.63,2.46-.78,1.37.1-1.54.43-1.49.78-1.37Zm-132.37,3.93c-.59.13-.47-.99-.97-.11.31-3.99.76.88.99-3.45.52-.68.04,2.22-.02,3.56Zm-15.4-.26c-.93,2.18-1.71-.47-2.5-.27-.63.16-1.2,2.52-1.5,1.26.12-1.99.62-1.01.95-1.33.28-.27.59-1.2.81-1.33.21-.13.14.7.22.73.15.07.68-1.6.64.78.81-1.1.77-1.1,1.39.16Zm216.43-12.88c-.73,1.32-1.84.45-2.63,1.34.76-1.81,1.84-1.9,2.63-1.34Zm-201.66,8.79c-.06-.61-.93-2.06-1.04.6,0,1.39.95,1.17,1.04-.6Zm3.89.42c-.63-.06-1.08-3.44-1.8-.2.8-.93,1.21,2.09,1.8.2Zm47.29,1.35c-.49,1-.46-.85-.81,1.34.26.95.26-.07.64.78l.16-2.12Zm63.91,6.77c.18-.11.4.14.47-.68-.49-.48.58-3.55-.12-2.85-.19.63-.12,1.31-.35,3.53Zm-13.75-.27c.47-.48.47.76.81.77.14-2.06-.66-2.98-.81-.77Zm-2.16.55c.49-1.64.73,1.32,1.18-.63-.11-.63-1.11-2.05-1.18.63Zm-13.53-1.08c.2-.92.31-2.6.52-3.51l-.56-.05c-.14,1.75-.25,3.42.05,3.56Zm-8.92,2.08c.5-.77.27,1.14.47,1.47.17-2.06-.1-2.46-.19-3.57.11-1.41.45-.86.48-2.8-.82-.39-.45,1.77-.77,4.9Zm-7.86-2.83c.39.18.72-.11.95-1.34-.56.43-.68-2.04-.95,1.34Zm-4.51-3.97c.37.02.8.47.94-1.33-.32.39-.89-1.24-.94,1.33Zm-8.23.64c.29,2.02.92-.01,1.24,2.25.23-1.86-.17-.87-.32-1.45-.25-.99-.56-3.62-.92-.8Zm76.13-13.94c-.02,1.4-.41,1.92-.84,2.78.28.03.08,1.95.49,1.45.13-.92.95-4.45.36-4.23Zm3.17-1.24c-.11-.16-.14-.6-.07-1.42-.45-.51-.53,1.44-.8,2.09.26-.39.78.9.87-.67Zm72.11-7.05c-.26.08-.32-.7-.23-2.12-.44-.35-.54,1.26-1.02.69-.07,1.25.62,3.12.79,2.84.07-.11.02-1.74.18-1.41-.02,1.08.33,2.33.29,0Zm35.73-.17c.38-.68,1.51,1.24,1.26-1.57-.27-2.04-.12,1.65-.55.78-.07-.85-.15-1.65-.39-1.36.39,2.45-.48.48-.32,2.15Zm-11.62,1.08c-.36-.19-.34-2.43-.79-2.06-.04,1.89.69,3.54.79,2.06Zm-74.41,12.81c.33.23.54,1.4.86.02.23-2.56-.89-1.64-.86-.02Zm2.75-4.85c-.49-1.45-.67,3.19-.41,3.52-.02-2.18.54-.84.41-3.52Zm-.59-3.56c.33.23.18,2.47.64,2.15.8-1.83-.26-5.61-.64-2.15Zm-1.34-9.94c.44,1.38.64-.31,1.14-.67-.23,2.81.52.71.54.73.29.17.29,2.04.63,2.14,0-3.12.81-1.3.97-3.5.24.17.72-.69.5,1.43-.45.34-.51-1.69-.72.68.21.69.42,1.05.69.72.27-.32,1.33-4.97,1.31-1.36-.08,0-.18.56-.02.7.24-2.03.72,3.12,1-.68-.05-.97-.53-.11-.51-1.41.68-.22,1.11,1.84,1.56-.67.11.02.16,2.01.21,2.13.11.29.9-.27.98.04.02.08-.07,1.4-.04,1.42.26.17.61-1.38.85-.68,0,.83-.09,2,.06,2.12.35-1.47.06-2.28-.02-3.53.6-.69.25-2.83.96-3.51.28.02.11,1.94.51,1.44.14-1.19.42-1.23.61-1.39.87-.77,1.87-.86,2.78.11.17-1.04.3-2.24.65-2.1,1.51-.65,2.24-1.01,3.83-1.25.31-5.04-.99-1.44-1.48-1.48-.86-.07-1.59-1.24-2.33-1.51-.03,1.21-.18,1.8-.36,2.11-1.16-1.33-1.86.51-2.99,1.3-.03-1.55.47-2.23-.07-2.12-.21,1.28-.59,1.5-.8,2.79-1.01-.58-2.05,1.12-2.5-.79-.58,1.35-1.18,1.23-1.53-.04.06,3.46-.77,1.57-1.08,2.8.09-1.44.42-1.36.51-2.81-.52,1.27-.67-.11-1.26-.04-.31,2.77.59.27.49,2.14-.17,2.55-.66-.22-1.28.66-.05.86-.09,1.67-.33,1.4.35-2.26-.04-.51-.4-.72-.58-.34-1.03-.54-1.31,1.36.03-1.23.11-2.19.25-2.82-.5-.77-.51,1.47-.78,2.1-.88-.56-1.72-.43-1.88-2.2.05-.84.31-1.59.08-2.12-.24.82-.32,2.66-.56,3.51-.38,0-.54-2.98-.84-.03.56.99,1.11-.58,1.21,1.47-.26.67-.68.92-1.04,1.37-.62.8-.19-.33-.67-.73-.89,4.65,2.46,3.4,2.48,1.51Zm-6.75,3.26c.2-2.44-.39-2.55-.64-1.44-.21,2.44.38,2.56.64,1.44Zm-4.85,14.65c.4.1.94-.34,1.1.75-.05-1.21-.33-4.41-.59-2.85.08.04.17.11.11.71-.27.09-.49.45-.63,1.39Zm-.69-7.11c.18,1.21.71.68.88-.67-.18-1.21-.7-.68-.88.67Zm-.26-3.55c-.15,2.84.27,1.89.64,1.45.25-2.37-.39-1.13-.64-1.45Zm-8.41-3.97c.79-1.66,1.04,1.89,1.43-.63-.39-.69-.27-3.46-.82-3.58-.2,1.04-.24,1.77-.13,2.82-.23-.04-.38.53-.48,1.39Zm52.77,13.55c-.96.84-1.88.41-2.96-.13.8-1.11,1.75-1.36,2.74-1.3.26-.25.25.56.23,1.43Zm7.04-1.85c-.35,2.43-1.13,1.3-1.62,1.36-1.34.13-2.39,0-3.55-.14-.58-.08-1.46,2.6-1.52-.77,1.06,1.6,2.36-.61,3.56-.57.92.04,1.97.64,3.13.12Zm-12.4,1.61c-.27.19-1.08.84-1.4-.06.43-2.04.99-.91,1.4.06Zm-8.06-1.07c-.25,1.04-.66,1.11-1.03,1.37,0-2.7.69-.87,1.03-1.37Zm6.41.29c-.08,2.75-1.57,1.27-1.85.62.4-1.6,1.26-.19,1.85-.62Zm24.91-2.7c-.5,1.81-.83.86-1.47.7.24-1.61,1.01-.25,1.47-.7Zm11.71-3.54c-.17,2.32-.53.57-.89.72-1.26.53-3.03,1.3-4.25,1.45.25-3.95.94-1.33,1.33-1.42,1.05-.24,2.13-.74,3.81-.75Zm-20.7,5.46c-.25,2.39-1.79,1.75-1.56-.05.38.9.87-.44,1.56.05Zm7.26-1.94c-.05,1.94-.73,1.67-.89.7.06-1.56.62-.29.89-.7Z"/>
            </g>
          </g>
        </g>
        <g>
          <circle class="cls-1" cx="233.8" cy="62.3" r="52.12"/>
          <g>
            <path class="cls-2" d="m240.48,73.99c3.27-2.17,5.43-5.88,5.43-10.08,0-6.67-5.43-12.1-12.1-12.1s-12.1,5.43-12.1,12.1c0,4.21,2.16,7.91,5.43,10.08-7.39,2.73-12.68,9.82-12.68,18.15h3.23c0-8.89,7.24-16.13,16.13-16.13s16.13,7.24,16.13,16.13h3.23c0-8.33-5.29-15.42-12.68-18.15Zm-6.67-1.21c-4.89,0-8.87-3.98-8.87-8.87s3.98-8.87,8.87-8.87,8.87,3.98,8.87,8.87-3.98,8.87-8.87,8.87Z"/>
            <path class="cls-2" d="m256.61,65.93c3.27-2.17,5.43-5.88,5.43-10.08,0-6.67-5.43-12.1-12.1-12.1-3.23,0-6.16,1.28-8.34,3.35-.8.77-1.5,1.64-2.07,2.61,1.01.41,1.96.91,2.85,1.51.57-.93,1.3-1.74,2.17-2.4,1.5-1.15,3.36-1.84,5.39-1.84,4.89,0,8.87,3.98,8.87,8.87,0,4.06-2.75,7.48-6.48,8.53-.76.21-1.56.34-2.4.34-.29,0-.57-.02-.85-.04-.06,1.16-.24,2.29-.54,3.37.46-.04.92-.1,1.39-.1.66,0,1.3.05,1.93.13,7.99.96,14.2,7.76,14.2,16h3.23c0-8.33-5.29-15.42-12.68-18.15Z"/>
            <path class="cls-2" d="m217.67,67.94c.47,0,.93.06,1.39.1-.3-1.08-.49-2.21-.54-3.37-.28.03-.56.04-.85.04-.83,0-1.63-.12-2.4-.34-3.73-1.05-6.48-4.47-6.48-8.53,0-4.89,3.98-8.87,8.87-8.87,2.03,0,3.89.69,5.39,1.84.86.66,1.59,1.48,2.17,2.4.89-.6,1.85-1.1,2.85-1.51-.57-.96-1.27-1.84-2.07-2.61-2.17-2.07-5.1-3.35-8.34-3.35-6.67,0-12.1,5.43-12.1,12.1,0,4.21,2.16,7.91,5.43,10.08-7.39,2.73-12.68,9.82-12.68,18.15h3.23c0-8.24,6.21-15.04,14.2-16,.63-.08,1.28-.13,1.93-.13Z"/>
            <path class="cls-2" d="m267.9,54.64c3.27-2.17,5.43-5.88,5.43-10.08,0-6.67-5.43-12.1-12.1-12.1-3.23,0-6.16,1.28-8.34,3.35-.8.77-1.5,1.64-2.07,2.61,1.01.41,1.96.91,2.85,1.51.57-.93,1.3-1.74,2.17-2.4,1.5-1.15,3.36-1.84,5.39-1.84,4.89,0,8.87,3.98,8.87,8.87,0,3.57-2.13,6.65-5.18,8.05.14.77.22,1.55.22,2.35,0,.73-.08,1.45-.19,2.15,7.11,1.68,12.42,8.06,12.42,15.67h3.23c0-8.33-5.29-15.42-12.68-18.15Z"/>
            <path class="cls-2" d="m202.48,54.96c0-.8.08-1.59.22-2.35-3.05-1.4-5.18-4.48-5.18-8.05,0-4.89,3.98-8.87,8.87-8.87,2.03,0,3.89.69,5.39,1.84.86.66,1.59,1.48,2.17,2.4.89-.6,1.85-1.1,2.85-1.51-.57-.96-1.27-1.84-2.07-2.61-2.17-2.07-5.11-3.35-8.34-3.35-6.67,0-12.1,5.43-12.1,12.1,0,4.21,2.16,7.91,5.43,10.08-7.39,2.73-12.68,9.82-12.68,18.15h3.23c0-7.61,5.31-13.99,12.42-15.67-.11-.7-.19-1.41-.19-2.15Z"/>
            <path class="cls-2" d="m233.8,35.68c4.31,0,7.88,3.11,8.67,7.19,1.77-1.06,3.04-1.3,3.04-1.3-1.33-5.23-6.07-9.12-11.71-9.12s-10.38,3.89-11.71,9.12c0,0,1.27.24,3.04,1.3.79-4.09,4.36-7.19,8.67-7.19Z"/>
          </g>
        </g>
      </g>
    </g>
  </g>
</svg>