<?xml version="1.0" encoding="UTF-8"?>
<svg xmlns="http://www.w3.org/2000/svg" xmlns:xlink="http://www.w3.org/1999/xlink" viewBox="0 0 237.7 282.77">
  <defs>
    <style>
      .cls-1 {
        fill: #fadfb6;
      }

      .cls-2 {
        fill: #deb481;
      }

      .cls-3 {
        fill: #d4ecf0;
      }

      .cls-4 {
        fill: #3765ae;
      }

      .cls-5 {
        fill: url(#linear-gradient);
        mix-blend-mode: multiply;
      }

      .cls-6 {
        isolation: isolate;
      }
    </style>
    <linearGradient id="linear-gradient" x1="75.84" y1="388.59" x2="279.74" y2="-426.43" gradientUnits="userSpaceOnUse">
      <stop offset=".02" stop-color="#fff"/>
      <stop offset="1" stop-color="#231f20"/>
    </linearGradient>
  </defs>
  <g class="cls-6">
    <g id="Capa_2" data-name="Capa 2">
      <g id="Capa_1-2" data-name="Capa 1">
        <g>
          <path class="cls-5" d="m15.42,89.79h202.75s-13.46,115.95,19.53,192.16l-224.78.83S.08,210.11,15.42,89.79Z"/>
          <path class="cls-2" d="m15.42,89.79h204.43s-12.3,102.21,17.85,170.17l-207.73.74S1.4,197.08,15.42,89.79Z"/>
          <path class="cls-1" d="m15.42,89.79h204.43s-12.3,102.21,17.85,170.17l-196.39-13.25S1.4,197.08,15.42,89.79Z"/>
        </g>
        <g>
          <circle class="cls-3" cx="63.74" cy="63.74" r="63.74"/>
          <g>
            <path class="cls-4" d="m94.14,34.79c-1.05-.01-2.09-.01-3.14-.05-4.82-.15-9.47.79-14.06,2.14-.38.11-.66.54-.98.82.4.22.79.64,1.19.64,6.17.03,12.33,0,18.5,0,2.45,0,3.63-1.55,2.42-3.64-1.52-2.63-3.36-5.09-5.22-7.51-1.89-2.46-3.97-4.77-5.98-7.13-.3-.35-.66-.66-1.04-.94-.57-.42-1.13-1.02-1.88-.26-.69.7-.61,1.47-.14,2.2.44.68.96,1.3,1.46,1.93,2.14,2.64,4.3,5.28,6.44,7.92.2.24.37.51.63.88-2.51-1.29-4.82-2.63-7.24-3.71-10.73-4.79-21.94-5.8-33.47-4.04-5.6.86-11.13,2-16.32,4.38-1.23.56-2.43,1.25-3.5,2.05-.58.44-.88,1.26-1.3,1.91.12.13.24.25.36.38.7-.22,1.42-.41,2.11-.68,12.44-4.82,25.32-6.08,38.49-4.58,7.44.85,14.61,2.79,21.44,5.91.51.23.93.68,1.39,1.03-.06.11-.11.23-.17.34Z"/>
            <path class="cls-4" d="m34.93,99.37c1.05.01,2.09.01,3.14.05,4.82.15,9.47-.79,14.06-2.14.38-.11.66-.54.98-.82-.4-.22-.79-.64-1.19-.64-6.17-.03-12.33,0-18.5,0-2.45,0-3.63,1.55-2.42,3.64,1.52,2.63,3.36,5.09,5.22,7.51,1.89,2.46,3.97,4.77,5.98,7.13.3.35.66.66,1.04.94.57.42,1.13,1.02,1.88.26.69-.7.61-1.47.14-2.2-.44-.68-.96-1.3-1.46-1.93-2.14-2.64-4.3-5.28-6.44-7.92-.2-.24-.37-.51-.63-.88,2.51,1.29,4.82,2.63,7.24,3.71,10.73,4.79,21.94,5.8,33.47,4.04,5.6-.86,11.13-2,16.32-4.38,1.23-.56,2.43-1.25,3.5-2.05.58-.44.88-1.26,1.3-1.91-.12-.13-.24-.25-.36-.38-.7.22-1.42.41-2.11.68-12.44,4.82-25.32,6.08-38.49,4.58-7.44-.85-14.61-2.79-21.44-5.91-.51-.23-.93-.68-1.39-1.03.06-.11.11-.23.17-.34Z"/>
            <g>
              <path class="cls-4" d="m33.59,69.58c6.74,0,12.23-5.48,12.23-12.23s-5.48-12.23-12.23-12.23-12.23,5.48-12.23,12.23,5.48,12.23,12.23,12.23Zm0-21.19c4.94,0,8.97,4.02,8.97,8.97s-4.02,8.97-8.97,8.97-8.97-4.02-8.97-8.97,4.02-8.97,8.97-8.97Z"/>
              <path class="cls-4" d="m43.36,68.96c-.96.81-2.02,1.49-3.16,2.04,5.23,2.33,9.02,7.32,9.61,13.25H17.37c.59-5.93,4.38-10.92,9.61-13.25-1.14-.55-2.2-1.23-3.16-2.04-5.85,3.39-9.8,9.7-9.8,16.93v1.63h39.13v-1.63c0-7.23-3.95-13.54-9.8-16.93Z"/>
            </g>
            <g>
              <path class="cls-4" d="m95.67,69.58c6.74,0,12.23-5.48,12.23-12.23s-5.48-12.23-12.23-12.23-12.23,5.48-12.23,12.23,5.48,12.23,12.23,12.23Zm0-21.19c4.94,0,8.97,4.02,8.97,8.97s-4.02,8.97-8.97,8.97-8.97-4.02-8.97-8.97,4.02-8.97,8.97-8.97Z"/>
              <path class="cls-4" d="m105.44,68.96c-.96.81-2.02,1.49-3.16,2.04,5.23,2.33,9.02,7.32,9.61,13.25h-32.44c.59-5.93,4.38-10.92,9.61-13.25-1.14-.55-2.2-1.23-3.16-2.04-5.85,3.39-9.8,9.7-9.8,16.93v1.63h39.13v-1.63c0-7.23-3.95-13.54-9.8-16.93Z"/>
            </g>
          </g>
        </g>
      </g>
    </g>
  </g>
</svg>