<?xml version="1.0" encoding="UTF-8"?>
<svg id="Capa_2" data-name="Capa 2" xmlns="http://www.w3.org/2000/svg" viewBox="0 0 119.93 80.63">
  <defs>
    <style>
      .cls-1 {
        fill: #fff;
      }

      .cls-2 {
        fill: #3765ae;
      }
    </style>
  </defs>
  <g id="Capa_1-2" data-name="Capa 1">
    <g>
      <path class="cls-2" d="m49.63,23.72c-8.35,7.5-17.6,15.46-25.16,23.06-4.55,4.57,2.46,11.21,7.67,6,7.27-7.27,16.54-14.62,23.9-21.84,4.92-4.82-1.97-11.21-6.41-7.22Z"/>
      <path class="cls-2" d="m31.63,46.22c-2.53-2.76-5.1-5.44-7.26-8.49-1.56-2.2-4.82-2.55-6.81-.92-2.21,1.81-2.04,4.71-.47,6.92,2.16,3.05,4.65,6,7.18,8.75,1.82,1.99,4.49,2.55,6.66.78,2-1.64,2.53-5.04.7-7.04Z"/>
    </g>
    <g>
      <path class="cls-1" d="m4.72,80.63c-.12,0-.24-.04-.33-.13-.1-.09-.16-.21-.17-.35L0,8.36c-.02-.27.19-.51.46-.53L114.78,0c.13,0,.26.04.36.12.1.09.16.21.17.34l4.61,72.27c.02.28-.19.51-.47.53l-114.7,7.35s-.02,0-.03,0ZM1.03,8.79l4.16,70.8,113.7-7.29L114.35,1.03,1.03,8.79Z"/>
      <path class="cls-1" d="m48.36,37.46l1.37,25.25-36.55,1.98-2.37-43.64,36.55-1.98.35,6.38c.3-.17.63-.3.98-.41l-.35-6.52c0-.13-.07-.26-.17-.35-.1-.09-.23-.14-.36-.13l-37.55,2.04c-.28.02-.49.25-.47.53l2.42,44.64c0,.13.07.26.17.35.09.08.21.13.33.13,0,0,.02,0,.03,0l37.55-2.04c.28-.01.49-.25.47-.53l-1.42-26.19c-.3.2-.62.36-.97.49Z"/>
      <path class="cls-1" d="m59.02,18.15c-.26,0-.48-.2-.5-.47-.02-.28.19-.51.47-.53l48.15-2.91c.27-.01.51.19.53.47.02.28-.19.51-.47.53l-48.15,2.91s-.02,0-.03,0Z"/>
      <path class="cls-1" d="m59.57,26.69c-.26,0-.48-.2-.5-.47-.02-.28.19-.51.47-.53l48.15-2.91c.27,0,.51.19.53.47.02.28-.19.51-.47.53l-48.15,2.91s-.02,0-.03,0Z"/>
      <path class="cls-1" d="m60.05,35.97c-.26,0-.48-.2-.5-.47-.02-.28.19-.51.47-.53l48.15-2.91c.28,0,.51.19.53.47.02.28-.19.51-.47.53l-48.15,2.91s-.02,0-.03,0Z"/>
      <path class="cls-1" d="m60.51,44.66c-.26,0-.48-.2-.5-.47-.02-.28.19-.51.47-.53l48.15-2.91c.28,0,.51.19.53.47.02.28-.19.51-.47.53l-48.15,2.91s-.02,0-.03,0Z"/>
      <path class="cls-1" d="m60.91,54.24c-.26,0-.48-.2-.5-.47-.02-.28.19-.51.47-.53l48.15-2.91c.28,0,.51.19.53.47.02.28-.19.51-.47.53l-48.15,2.91s-.02,0-.03,0Z"/>
      <path class="cls-1" d="m61.35,62.64c-.26,0-.48-.2-.5-.47-.02-.28.19-.51.47-.53l48.15-2.91c.27,0,.51.19.53.47.02.28-.19.51-.47.53l-48.15,2.91s-.02,0-.03,0Z"/>
      <path class="cls-1" d="m28.1,54.81c-1.69,0-3.38-.91-4.79-2.67-.56-.69-1.14-1.39-1.71-2.09-1.85-2.24-3.76-4.55-5.35-6.99h0c-.69-1.06-.9-2.38-.59-3.71.33-1.42,1.24-2.67,2.42-3.36,2.37-1.39,5.46-.58,7.04,1.83.25.38.54.74.82,1.1l.14.18s0,0,0,0l.09.11s.06.07.08.1l1.76,2.26c.28.36.47.6.6.76,3.79-3.39,7.53-6.81,11.15-10.12l1.44-1.31c.86-.78,1.71-1.6,2.56-2.41,2.03-1.94,4.13-3.95,6.41-5.62.96-.7,2.2-.93,3.5-.66,1.5.31,2.88,1.27,3.59,2.48,1.11,1.9.84,4.15-.59,5.88,0,.15-.08.31-.21.4-.09.07-.4.31-.6.48-.36.32-.72.65-1.08.98l-4.18,3.81c-1.31,1.19-2.61,2.39-3.92,3.59-4.36,4-8.88,8.14-13.41,12.1-.18.15-.35.31-.54.48-.67.61-1.37,1.24-2.12,1.67-.82.47-1.68.71-2.53.71Zm-11.02-12.29c1.56,2.39,3.45,4.68,5.28,6.9.58.7,1.16,1.4,1.72,2.1.86,1.07,3.18,3.38,6.04,1.72.66-.38,1.32-.97,1.95-1.55.19-.17.37-.33.55-.49,4.53-3.95,9.04-8.09,13.39-12.08,1.31-1.2,2.61-2.4,3.92-3.59l4.18-3.81c.19-.17.37-.34.56-.51.03-.11.09-.21.19-.28l.02-.02c1.69-1.24,2.8-3.48,1.51-5.69-.57-.98-1.7-1.75-2.93-2.01-1.02-.21-1.98-.04-2.71.49-2.23,1.63-4.3,3.61-6.31,5.53-.86.82-1.71,1.64-2.58,2.43l-1.44,1.31c-3.74,3.42-7.61,6.95-11.46,10.39-.1.09-.3.2-.45.19-.25-.02-.27-.02-1.3-1.34l-1.58-2.03h0s-.07-.09-.07-.09c-.04-.05-.08-.1-.12-.15-.03-.04-.06-.07-.09-.11l-.21-.27c-.3-.38-.6-.76-.87-1.18-1.28-1.97-3.79-2.63-5.7-1.51-.95.56-1.68,1.58-1.95,2.73-.25,1.06-.09,2.1.45,2.93h0Z"/>
    </g>
  </g>
</svg>