<?xml version="1.0" encoding="UTF-8"?>
<svg id="Capa_2" data-name="Capa 2" xmlns="http://www.w3.org/2000/svg" viewBox="0 0 206.9 206.9">
  <defs>
    <style>
      .cls-1 {
        stroke: #6d9dc5;
        stroke-dasharray: 0 10;
        stroke-linecap: round;
        stroke-linejoin: round;
        stroke-width: 4px;
      }

      .cls-1, .cls-2 {
        fill: #fff;
      }

      .cls-3 {
        fill: #119da4;
      }
    </style>
  </defs>
  <g id="Capa_1-2" data-name="Capa 1">
    <g>
      <circle class="cls-1" cx="103.45" cy="103.45" r="101.45"/>
      <circle class="cls-3" cx="103.45" cy="103.45" r="85.34"/>
      <g>
        <g>
          <path class="cls-2" d="m74.96,127.62c.34.65.74.98,1.24.98s.86-.31.86-.7c0-.27-.18-.58-.48-.83-1.55-1.3-2.47-2.01-2.47-3.07s.93-1.89,2.05-1.89c.95,0,1.57.51,2.17,1.2l-1.06.94c-.35-.5-.72-.77-1.13-.77-.38,0-.64.22-.64.52s.22.48.44.67c1.4,1.23,2.51,1.81,2.51,3.18,0,1.25-.94,2.13-2.29,2.13-1.09,0-1.86-.53-2.41-1.63l1.2-.72Z"/>
          <path class="cls-2" d="m85.21,127.01c0,1.61-1.24,2.92-2.93,2.92s-2.88-1.28-2.88-2.91,1.36-2.92,2.87-2.92c1.62,0,2.94,1.27,2.94,2.91Zm-4.41,0c0,.94.59,1.61,1.49,1.61s1.52-.63,1.52-1.59-.61-1.61-1.52-1.61-1.49.68-1.49,1.59Z"/>
          <path class="cls-2" d="m91.69,128.77c-.59.77-1.43,1.16-2.51,1.16-1.89,0-3.11-1.28-3.11-2.9s1.29-2.93,3.13-2.93c1.08,0,2,.45,2.55,1.26l-1.16.64c-.4-.42-.78-.62-1.39-.62-1.06,0-1.74.72-1.74,1.68s.66,1.6,1.68,1.6c.62,0,1.11-.21,1.45-.64l1.09.75Z"/>
          <path class="cls-2" d="m94.44,122.88c0,.49-.4.89-.89.89s-.89-.45-.89-.96c0-.48.41-.84.89-.84s.89.42.89.92Zm-1.57,1.37h1.39v5.53h-1.39v-5.53Z"/>
          <path class="cls-2" d="m100.69,128.71c-.59.84-1.38,1.22-2.54,1.22-1.76,0-2.9-1.29-2.9-2.92,0-1.51,1.09-2.91,2.88-2.91s2.94,1.25,2.94,3c0,.12-.01.19-.01.31h-4.46c.13.82.76,1.28,1.55,1.28.59,0,.99-.17,1.38-.54l1.17.55Zm-1.02-2.39c-.19-.65-.78-1.04-1.52-1.04-.69,0-1.22.34-1.49,1.04h3.01Z"/>
          <path class="cls-2" d="m106.26,129.2c-.49.48-1.01.73-1.71.73-1.41,0-2.64-1.21-2.64-2.91s1.17-2.92,2.61-2.92c.67,0,1.24.25,1.74.75v-2.74h1.39v7.67h-1.39v-.58Zm-2.95-2.19c0,.95.62,1.65,1.49,1.65s1.52-.65,1.52-1.66-.65-1.63-1.52-1.63-1.49.73-1.49,1.64Z"/>
          <path class="cls-2" d="m113.14,129.2c-.49.48-1.01.73-1.71.73-1.41,0-2.64-1.21-2.64-2.91s1.17-2.92,2.61-2.92c.67,0,1.24.25,1.74.75v-.6h1.39v5.53h-1.39v-.58Zm-2.95-2.19c0,.95.62,1.65,1.49,1.65s1.52-.65,1.52-1.66-.65-1.63-1.52-1.63-1.49.73-1.49,1.64Z"/>
          <path class="cls-2" d="m120.01,129.2c-.49.48-1.01.73-1.71.73-1.41,0-2.64-1.21-2.64-2.91s1.17-2.92,2.61-2.92c.67,0,1.24.25,1.74.75v-2.74h1.39v7.67h-1.39v-.58Zm-2.95-2.19c0,.95.62,1.65,1.49,1.65s1.52-.65,1.52-1.66-.65-1.63-1.52-1.63-1.49.73-1.49,1.64Z"/>
          <path class="cls-2" d="m127.98,128.71c-.59.84-1.38,1.22-2.54,1.22-1.76,0-2.9-1.29-2.9-2.92,0-1.51,1.09-2.91,2.88-2.91s2.94,1.25,2.94,3c0,.12-.01.19-.01.31h-4.46c.13.82.76,1.28,1.55,1.28.59,0,.99-.17,1.38-.54l1.17.55Zm-1.02-2.39c-.19-.65-.78-1.04-1.52-1.04-.69,0-1.22.34-1.49,1.04h3.01Z"/>
          <path class="cls-2" d="m130.57,127.38c-.89-.45-1.33-.99-1.33-1.69,0-.87.73-1.59,1.79-1.59.72,0,1.38.32,1.82.92l-.85.87c-.31-.31-.62-.51-.96-.51-.28,0-.5.11-.5.33s.2.3.5.46l.51.26c.92.47,1.41.95,1.41,1.77,0,.99-.78,1.73-1.99,1.73-.8,0-1.46-.32-1.94-.95l.85-.94c.32.38.79.65,1.16.65.34,0,.62-.2.62-.45s-.23-.42-.62-.62l-.47-.24Z"/>
          <path class="cls-2" d="m75.58,134.61h3.71v1.4h-2.32v1.33h2.32v1.4h-2.32v3.36h-1.39v-7.48Z"/>
          <path class="cls-2" d="m81.83,135.19c0,.49-.4.89-.89.89s-.89-.45-.89-.96c0-.48.41-.84.89-.84s.89.42.89.92Zm-1.57,1.37h1.39v5.53h-1.39v-5.53Z"/>
          <path class="cls-2" d="m84.28,137.12c.53-.45,1.02-.71,1.64-.71,1.03,0,1.9.71,1.9,1.9v3.78h-1.39v-2.62c0-1.09-.09-1.79-.94-1.79-.39,0-.72.19-.94.53-.28.45-.27.95-.27,1.52v2.36h-1.39v-5.53h1.39v.56Z"/>
          <path class="cls-2" d="m93.24,141.51c-.49.48-1.01.73-1.71.73-1.41,0-2.64-1.21-2.64-2.91s1.17-2.92,2.61-2.92c.67,0,1.24.25,1.74.75v-.6h1.39v5.53h-1.39v-.58Zm-2.95-2.19c0,.95.62,1.65,1.49,1.65s1.52-.65,1.52-1.66-.65-1.63-1.52-1.63-1.49.73-1.49,1.64Z"/>
          <path class="cls-2" d="m97.41,137.12c.53-.45,1.02-.71,1.64-.71,1.03,0,1.9.71,1.9,1.9v3.78h-1.39v-2.62c0-1.09-.09-1.79-.94-1.79-.39,0-.72.19-.94.53-.28.45-.27.95-.27,1.52v2.36h-1.39v-5.53h1.39v.56Z"/>
          <path class="cls-2" d="m107.63,141.08c-.59.77-1.43,1.16-2.51,1.16-1.89,0-3.11-1.28-3.11-2.9s1.29-2.93,3.13-2.93c1.08,0,2,.45,2.55,1.26l-1.16.64c-.4-.42-.78-.62-1.39-.62-1.06,0-1.74.72-1.74,1.68s.66,1.6,1.68,1.6c.62,0,1.11-.21,1.45-.64l1.09.75Z"/>
          <path class="cls-2" d="m110.38,135.19c0,.49-.4.89-.89.89s-.89-.45-.89-.96c0-.48.41-.84.89-.84s.89.42.89.92Zm-1.57,1.37h1.39v5.53h-1.39v-5.53Z"/>
          <path class="cls-2" d="m116.63,141.02c-.59.84-1.38,1.22-2.54,1.22-1.76,0-2.9-1.29-2.9-2.92,0-1.51,1.09-2.91,2.88-2.91s2.94,1.25,2.94,3c0,.12-.01.19-.01.31h-4.46c.13.82.76,1.28,1.55,1.28.59,0,.99-.17,1.38-.54l1.17.55Zm-1.02-2.39c-.19-.65-.78-1.04-1.52-1.04-.69,0-1.22.34-1.49,1.04h3.01Z"/>
          <path class="cls-2" d="m118.98,137.26c.26-.57.71-.84,1.17-.84.29,0,.47.08.6.15l-.43,1.19c-.1-.05-.26-.12-.41-.12-.4,0-.71.46-.74,1.27,0,.3,0,.65,0,.95v2.24h-1.39v-5.53h1.2v.7Z"/>
          <path class="cls-2" d="m125.54,141.51c-.49.48-1.01.73-1.71.73-1.41,0-2.64-1.21-2.64-2.91s1.17-2.92,2.61-2.92c.67,0,1.24.25,1.74.75v-.6h1.39v5.53h-1.39v-.58Zm-2.95-2.19c0,.95.62,1.65,1.49,1.65s1.52-.65,1.52-1.66-.65-1.63-1.52-1.63-1.49.73-1.49,1.64Z"/>
          <path class="cls-2" d="m129.42,139.7c-.89-.45-1.33-.99-1.33-1.69,0-.87.73-1.59,1.79-1.59.72,0,1.38.32,1.82.92l-.85.87c-.31-.31-.62-.51-.96-.51-.28,0-.5.11-.5.33s.2.3.5.46l.51.26c.92.47,1.41.95,1.41,1.77,0,.99-.78,1.73-1.99,1.73-.8,0-1.46-.32-1.94-.95l.85-.94c.32.38.79.65,1.16.65.34,0,.62-.2.62-.45s-.23-.42-.62-.62l-.47-.24Z"/>
          <path class="cls-2" d="m79.54,146.92h1.74c.97,0,1.65.15,2.12.6.37.35.6.93.6,1.56,0,.79-.32,1.39-.95,1.77-.64.38-1.3.38-2.08.38v3.17h-1.43v-7.48Zm1.43,2.93h.67c.65,0,.97-.25.97-.76s-.35-.77-1.03-.77h-.6v1.53Z"/>
          <path class="cls-2" d="m90.77,151.63c0,1.61-1.24,2.92-2.93,2.92s-2.88-1.28-2.88-2.91,1.36-2.92,2.87-2.92c1.62,0,2.94,1.27,2.94,2.91Zm-4.41,0c0,.94.59,1.61,1.49,1.61s1.52-.63,1.52-1.59-.61-1.61-1.52-1.61-1.49.68-1.49,1.59Z"/>
          <path class="cls-2" d="m93.28,149.48c.5-.5,1.07-.75,1.74-.75,1.43,0,2.62,1.19,2.62,2.92s-1.24,2.91-2.65,2.91c-.7,0-1.21-.25-1.71-.73v2.61h-1.39v-7.56h1.39v.6Zm-.06,2.15c0,1,.67,1.66,1.52,1.66s1.5-.7,1.5-1.65-.58-1.64-1.5-1.64-1.52.66-1.52,1.63Z"/>
          <path class="cls-2" d="m98.78,148.87h1.39v2.89c0,.99.31,1.51,1.04,1.51s1.04-.51,1.04-1.45v-2.95h1.39v2.55c0,1.02-.06,1.77-.65,2.42-.44.49-1.01.7-1.78.7-1.33,0-2.16-.68-2.38-1.97-.07-.45-.05-.71-.05-1.17v-2.53Z"/>
          <path class="cls-2" d="m104.89,146.74h1.39v7.67h-1.39v-7.67Z"/>
          <path class="cls-2" d="m111.62,153.82c-.49.48-1.01.73-1.71.73-1.41,0-2.64-1.21-2.64-2.91s1.17-2.92,2.61-2.92c.67,0,1.24.25,1.74.75v-.6h1.39v5.53h-1.39v-.58Zm-2.95-2.19c0,.95.62,1.65,1.49,1.65s1.52-.65,1.52-1.66-.65-1.63-1.52-1.63-1.49.73-1.49,1.64Z"/>
          <path class="cls-2" d="m115.27,149.57c.26-.57.71-.84,1.17-.84.29,0,.47.08.6.15l-.43,1.19c-.1-.05-.26-.12-.41-.12-.4,0-.71.46-.74,1.27,0,.3,0,.65,0,.95v2.24h-1.39v-5.53h1.2v.7Z"/>
          <path class="cls-2" d="m122.84,153.33c-.59.84-1.38,1.22-2.54,1.22-1.76,0-2.9-1.29-2.9-2.92,0-1.51,1.09-2.91,2.88-2.91s2.94,1.25,2.94,3c0,.12-.01.19-.01.31h-4.46c.13.82.76,1.28,1.55,1.28.59,0,.99-.17,1.38-.54l1.17.55Zm-1.02-2.39c-.19-.65-.78-1.04-1.52-1.04-.69,0-1.22.34-1.49,1.04h3.01Z"/>
          <path class="cls-2" d="m125.42,152.01c-.89-.45-1.33-.99-1.33-1.69,0-.87.73-1.59,1.79-1.59.72,0,1.38.32,1.82.92l-.85.87c-.31-.31-.62-.51-.96-.51-.28,0-.5.11-.5.33s.2.3.5.46l.51.26c.92.47,1.41.95,1.41,1.77,0,.99-.78,1.73-1.99,1.73-.8,0-1.46-.32-1.94-.95l.85-.94c.32.38.79.65,1.16.65.34,0,.62-.2.62-.45s-.23-.42-.62-.62l-.47-.24Z"/>
          <path class="cls-2" d="m83.5,168.89c-1.03-1.64-1.46-2.96-1.46-5.09,0-1.82.34-3.24,1.46-4.9h1.76c-1.27,1.44-1.78,3.01-1.78,4.95,0,2.26.6,3.58,1.78,5.03h-1.76Z"/>
          <path class="cls-2" d="m86.94,164.56c.34.65.74.98,1.24.98s.86-.31.86-.7c0-.27-.18-.58-.48-.83-1.55-1.3-2.47-2.01-2.47-3.07s.93-1.89,2.05-1.89c.95,0,1.57.51,2.17,1.2l-1.06.94c-.35-.5-.72-.77-1.13-.77-.38,0-.64.22-.64.52s.22.48.44.67c1.4,1.23,2.51,1.81,2.51,3.18,0,1.25-.94,2.13-2.29,2.13-1.09,0-1.86-.53-2.41-1.63l1.2-.72Z"/>
          <path class="cls-2" d="m99.22,163c0,2.2-1.72,3.9-3.87,3.9s-3.92-1.75-3.92-3.93,1.77-3.92,3.9-3.92,3.89,1.67,3.89,3.95Zm-6.35,0c0,1.52,1.15,2.53,2.47,2.53s2.44-1.11,2.44-2.54-1.03-2.57-2.46-2.57c-1.34,0-2.45,1.04-2.45,2.58Z"/>
          <path class="cls-2" d="m107.4,165.47c-.99.97-1.84,1.44-3.25,1.44-2.34,0-3.96-1.64-3.96-3.94s1.83-3.92,3.98-3.92c1.24,0,2.44.54,3.26,1.5l-1,.96c-.68-.72-1.42-1.09-2.29-1.09-1.41,0-2.55,1.08-2.55,2.55,0,1.54,1.1,2.57,2.58,2.57.93,0,1.55-.38,2.26-1.08l.97,1.01Z"/>
          <path class="cls-2" d="m110.96,159.24h1.44l2.89,7.48h-1.48l-.58-1.54h-3.05l-.61,1.54h-1.48l2.89-7.48Zm.73,1.98l-.99,2.56h1.98l-.99-2.56Z"/>
          <path class="cls-2" d="m116.38,159.24h1.74c.97,0,1.65.15,2.12.6.37.35.6.93.6,1.56,0,.79-.32,1.39-.95,1.77-.64.38-1.3.38-2.08.38v3.17h-1.43v-7.48Zm1.43,2.93h.67c.65,0,.97-.25.97-.76s-.35-.77-1.03-.77h-.6v1.53Z"/>
          <path class="cls-2" d="m123.4,158.9c1.02,1.62,1.45,2.94,1.45,5.09,0,1.82-.33,3.24-1.45,4.9h-1.76c1.27-1.44,1.81-3,1.81-4.95,0-2.25-.62-3.56-1.81-5.03h1.76Z"/>
        </g>
        <g>
          <path class="cls-2" d="m105.62,72.56c2.49.6,3.62,1.64,4.98,2.99l-2.96,2.9c-1.32-1.36-2.68-2.11-4.03-2.11-1.54,0-2.62.98-2.62,2.14,0,1.64,1.26,1.95,6.18,4.1,2.4,1.04,4.35,3.44,4.35,6.62,0,1.7-.57,3.22-1.58,4.51-1.29,1.64-2.68,2.02-4.32,2.36v4.13h-2.9v-4.03c-2.3-.25-4.54-1.2-7.03-3.88l2.93-2.99c1.8,1.89,3.53,2.99,5.42,2.99,1.73,0,3.25-1.32,3.25-3.12,0-.91-.41-1.89-.98-2.27-1.54-1.04-3.4-2.02-5.45-2.9-1.95-.85-4.1-3.12-4.1-5.9,0-3.21,2.65-5.58,5.96-5.74v-1.54h2.9v1.73Z"/>
          <path class="cls-2" d="m109.97,55.86c1.95-1.78,3.19-4.33,3.19-7.18,0-5.36-4.35-9.71-9.71-9.71s-9.71,4.35-9.71,9.71c0,2.85,1.23,5.4,3.19,7.18-12.77,2.88-22.3,14.02-22.3,27.35,0,14.23,10.87,25.97,24.95,27.81v-2.1c-11.16-1.8-19.67-11.23-19.67-22.61,0-12.67,10.54-22.95,23.54-22.95s23.54,10.27,23.54,22.95c0,11.39-8.52,20.81-19.67,22.61v2.1c14.08-1.85,24.95-13.58,24.95-27.81,0-13.33-9.53-24.46-22.3-27.35Z"/>
        </g>
      </g>
    </g>
  </g>
</svg>