<?xml version="1.0" encoding="UTF-8"?>
<svg id="Capa_2" data-name="Capa 2" xmlns="http://www.w3.org/2000/svg" viewBox="0 0 206.9 206.9">
  <defs>
    <style>
      .cls-1 {
        stroke: #6d9dc5;
        stroke-dasharray: 0 10;
        stroke-linecap: round;
        stroke-linejoin: round;
        stroke-width: 4px;
      }

      .cls-1, .cls-2 {
        fill: #fff;
      }

      .cls-3 {
        fill: #119da4;
      }
    </style>
  </defs>
  <g id="Capa_1-2" data-name="Capa 1">
    <g>
      <circle class="cls-1" cx="103.45" cy="103.45" r="101.45"/>
      <circle class="cls-3" cx="103.45" cy="103.45" r="85.34"/>
      <g>
        <g>
          <path class="cls-2" d="m80.58,129.43c.34.65.74.98,1.24.98s.86-.31.86-.7c0-.27-.18-.58-.48-.83-1.55-1.3-2.47-2.01-2.47-3.07s.93-1.89,2.05-1.89c.95,0,1.57.51,2.17,1.2l-1.06.94c-.35-.5-.72-.77-1.12-.77-.38,0-.64.22-.64.52s.22.48.44.67c1.4,1.23,2.51,1.81,2.51,3.18,0,1.25-.94,2.13-2.29,2.13-1.1,0-1.86-.53-2.41-1.63l1.2-.72Z"/>
          <path class="cls-2" d="m90.83,128.81c0,1.61-1.24,2.92-2.93,2.92s-2.88-1.28-2.88-2.91,1.36-2.92,2.87-2.92c1.62,0,2.94,1.27,2.94,2.91Zm-4.41,0c0,.94.59,1.61,1.49,1.61s1.52-.63,1.52-1.59-.62-1.61-1.52-1.61-1.49.68-1.49,1.59Z"/>
          <path class="cls-2" d="m97.31,130.58c-.59.77-1.43,1.16-2.51,1.16-1.88,0-3.11-1.28-3.11-2.9s1.29-2.93,3.13-2.93c1.08,0,2,.45,2.55,1.26l-1.16.64c-.4-.42-.78-.62-1.39-.62-1.06,0-1.74.72-1.74,1.68s.66,1.6,1.68,1.6c.62,0,1.11-.21,1.45-.64l1.09.75Z"/>
          <path class="cls-2" d="m100.06,124.69c0,.49-.4.89-.89.89s-.88-.45-.88-.96c0-.48.41-.84.88-.84s.89.42.89.92Zm-1.57,1.37h1.39v5.53h-1.39v-5.53Z"/>
          <path class="cls-2" d="m106.32,130.51c-.6.84-1.38,1.22-2.54,1.22-1.76,0-2.9-1.29-2.9-2.92,0-1.51,1.09-2.91,2.88-2.91s2.94,1.25,2.94,3c0,.12-.01.19-.01.31h-4.46c.13.82.76,1.28,1.55,1.28.59,0,.99-.17,1.38-.54l1.17.55Zm-1.02-2.39c-.19-.65-.78-1.04-1.52-1.04-.69,0-1.22.34-1.49,1.04h3.01Z"/>
          <path class="cls-2" d="m111.89,131c-.49.48-1.01.73-1.71.73-1.41,0-2.64-1.21-2.64-2.91s1.17-2.92,2.61-2.92c.67,0,1.24.25,1.74.75v-2.74h1.38v7.67h-1.38v-.58Zm-2.95-2.19c0,.95.62,1.65,1.49,1.65s1.52-.65,1.52-1.66-.65-1.63-1.52-1.63c-.92,0-1.49.73-1.49,1.64Z"/>
          <path class="cls-2" d="m118.76,131c-.49.48-1.01.73-1.71.73-1.41,0-2.64-1.21-2.64-2.91s1.17-2.92,2.61-2.92c.67,0,1.24.25,1.74.75v-.6h1.39v5.53h-1.39v-.58Zm-2.95-2.19c0,.95.62,1.65,1.49,1.65s1.52-.65,1.52-1.66-.65-1.63-1.52-1.63-1.49.73-1.49,1.64Z"/>
          <path class="cls-2" d="m125.64,131c-.49.48-1.01.73-1.71.73-1.41,0-2.64-1.21-2.64-2.91s1.17-2.92,2.61-2.92c.67,0,1.24.25,1.74.75v-2.74h1.38v7.67h-1.38v-.58Zm-2.95-2.19c0,.95.62,1.65,1.49,1.65s1.52-.65,1.52-1.66-.65-1.63-1.52-1.63c-.92,0-1.49.73-1.49,1.64Z"/>
          <path class="cls-2" d="m69.64,136.42h3.71v1.4h-2.32v1.33h2.32v1.4h-2.32v3.36h-1.39v-7.48Z"/>
          <path class="cls-2" d="m75.9,137c0,.49-.4.89-.88.89s-.89-.45-.89-.96c0-.48.41-.84.89-.84s.88.42.88.92Zm-1.57,1.37h1.39v5.53h-1.39v-5.53Z"/>
          <path class="cls-2" d="m78.34,138.93c.53-.45,1.02-.71,1.64-.71,1.03,0,1.9.71,1.9,1.9v3.78h-1.38v-2.62c0-1.09-.09-1.79-.94-1.79-.38,0-.72.19-.94.53-.28.45-.27.95-.27,1.52v2.36h-1.38v-5.53h1.38v.56Z"/>
          <path class="cls-2" d="m87.3,143.31c-.49.48-1.01.73-1.71.73-1.41,0-2.64-1.21-2.64-2.91s1.17-2.92,2.61-2.92c.67,0,1.24.25,1.74.75v-.6h1.39v5.53h-1.39v-.58Zm-2.95-2.19c0,.95.62,1.65,1.49,1.65s1.52-.65,1.52-1.66-.65-1.63-1.52-1.63-1.49.73-1.49,1.64Z"/>
          <path class="cls-2" d="m91.47,138.93c.53-.45,1.02-.71,1.64-.71,1.03,0,1.9.71,1.9,1.9v3.78h-1.38v-2.62c0-1.09-.09-1.79-.94-1.79-.38,0-.72.19-.94.53-.28.45-.27.95-.27,1.52v2.36h-1.38v-5.53h1.38v.56Z"/>
          <path class="cls-2" d="m101.69,142.89c-.59.77-1.43,1.16-2.51,1.16-1.89,0-3.11-1.28-3.11-2.9s1.29-2.93,3.13-2.93c1.08,0,2,.45,2.55,1.26l-1.16.64c-.4-.42-.78-.62-1.39-.62-1.06,0-1.74.72-1.74,1.68s.66,1.6,1.68,1.6c.62,0,1.11-.21,1.45-.64l1.09.75Z"/>
          <path class="cls-2" d="m104.44,137c0,.49-.4.89-.88.89s-.89-.45-.89-.96c0-.48.41-.84.89-.84s.88.42.88.92Zm-1.57,1.37h1.39v5.53h-1.39v-5.53Z"/>
          <path class="cls-2" d="m110.69,142.83c-.59.84-1.38,1.22-2.54,1.22-1.76,0-2.9-1.29-2.9-2.92,0-1.51,1.09-2.91,2.88-2.91s2.94,1.25,2.94,3c0,.12,0,.19,0,.31h-4.46c.13.82.76,1.28,1.55,1.28.59,0,.99-.17,1.38-.54l1.17.55Zm-1.02-2.39c-.19-.65-.78-1.04-1.52-1.04-.69,0-1.22.34-1.49,1.04h3.01Z"/>
          <path class="cls-2" d="m113.04,139.06c.26-.57.71-.84,1.17-.84.29,0,.47.08.61.15l-.43,1.19c-.11-.05-.26-.12-.41-.12-.4,0-.71.46-.74,1.27,0,.3,0,.65,0,.95v2.24h-1.39v-5.53h1.2v.7Z"/>
          <path class="cls-2" d="m119.6,143.31c-.49.48-1.01.73-1.71.73-1.41,0-2.64-1.21-2.64-2.91s1.17-2.92,2.61-2.92c.67,0,1.24.25,1.74.75v-.6h1.39v5.53h-1.39v-.58Zm-2.95-2.19c0,.95.62,1.65,1.49,1.65s1.52-.65,1.52-1.66-.65-1.63-1.52-1.63-1.49.73-1.49,1.64Z"/>
          <path class="cls-2" d="m129.39,143.31c-.49.48-1.01.73-1.71.73-1.41,0-2.64-1.21-2.64-2.91s1.17-2.92,2.61-2.92c.67,0,1.24.25,1.74.75v-2.74h1.39v7.67h-1.39v-.58Zm-2.95-2.19c0,.95.62,1.65,1.49,1.65s1.52-.65,1.52-1.66-.65-1.63-1.52-1.63-1.49.73-1.49,1.64Z"/>
          <path class="cls-2" d="m137.36,142.83c-.59.84-1.38,1.22-2.54,1.22-1.76,0-2.9-1.29-2.9-2.92,0-1.51,1.09-2.91,2.88-2.91s2.94,1.25,2.94,3c0,.12,0,.19,0,.31h-4.46c.13.82.76,1.28,1.55,1.28.59,0,.99-.17,1.38-.54l1.17.55Zm-1.02-2.39c-.19-.65-.78-1.04-1.52-1.04-.69,0-1.22.34-1.49,1.04h3.01Z"/>
          <path class="cls-2" d="m74.84,152.49c0,2.2-1.72,3.9-3.87,3.9s-3.92-1.75-3.92-3.93,1.77-3.92,3.9-3.92,3.89,1.67,3.89,3.95Zm-6.35,0c0,1.52,1.15,2.53,2.47,2.53s2.44-1.11,2.44-2.54-1.03-2.57-2.46-2.57c-1.34,0-2.45,1.04-2.45,2.58Z"/>
          <path class="cls-2" d="m77.4,156.21h-1.38v-7.67h1.38v2.74c.5-.5,1.07-.75,1.74-.75,1.43,0,2.62,1.19,2.62,2.92s-1.24,2.91-2.65,2.91c-.7,0-1.21-.25-1.71-.73v.58Zm-.06-2.78c0,1,.67,1.66,1.52,1.66s1.5-.7,1.5-1.65-.58-1.64-1.5-1.64-1.52.66-1.52,1.63Z"/>
          <path class="cls-2" d="m82.86,150.68h1.39v5.87c0,1.22-.49,1.83-1.46,1.83-.37,0-.72-.1-1.04-.21v-1.09c.17.08.38.16.57.16.41,0,.54-.25.54-.74v-5.82Zm1.57-1.37c0,.49-.4.89-.89.89s-.88-.45-.88-.96c0-.48.4-.84.88-.84s.9.42.9.92Z"/>
          <path class="cls-2" d="m90.8,155.14c-.6.84-1.38,1.22-2.54,1.22-1.76,0-2.9-1.29-2.9-2.92,0-1.51,1.09-2.91,2.88-2.91s2.94,1.25,2.94,3c0,.12-.01.19-.01.31h-4.46c.13.82.76,1.28,1.55,1.28.59,0,.99-.17,1.38-.54l1.17.55Zm-1.02-2.39c-.19-.65-.78-1.04-1.52-1.04-.69,0-1.22.34-1.49,1.04h3.01Z"/>
          <path class="cls-2" d="m92.44,148.63h1.39v2.04h.82v1.19h-.82v4.35h-1.39v-4.35h-.71v-1.19h.71v-2.04Z"/>
          <path class="cls-2" d="m100.94,153.44c0,1.61-1.24,2.92-2.93,2.92s-2.88-1.28-2.88-2.91,1.36-2.92,2.87-2.92c1.62,0,2.94,1.27,2.94,2.91Zm-4.41,0c0,.94.6,1.61,1.49,1.61s1.52-.63,1.52-1.59-.61-1.61-1.52-1.61-1.49.68-1.49,1.59Z"/>
          <path class="cls-2" d="m105.86,148.73h1.4l1.73,5.22,1.75-5.22h1.38l1.26,7.48h-1.38l-.8-4.73-1.59,4.73h-1.25l-1.57-4.73-.82,4.73h-1.39l1.29-7.48Z"/>
          <path class="cls-2" d="m115.17,147.66h1.64l-1.86,1.99h-1l1.22-1.99Zm-.95,3.01h1.39v5.53h-1.39v-5.53Z"/>
          <path class="cls-2" d="m116.72,148.54h1.39v7.67h-1.39v-7.67Z"/>
          <path class="cls-2" d="m119.52,148.63h1.38v2.04h.82v1.19h-.82v4.35h-1.38v-4.35h-.71v-1.19h.71v-2.04Z"/>
          <path class="cls-2" d="m123.92,149.31c0,.49-.4.89-.89.89s-.88-.45-.88-.96c0-.48.41-.84.88-.84s.89.42.89.92Zm-1.57,1.37h1.39v5.53h-1.39v-5.53Z"/>
          <path class="cls-2" d="m126.37,151.28c.5-.5,1.07-.75,1.74-.75,1.43,0,2.62,1.19,2.62,2.92s-1.24,2.91-2.65,2.91c-.7,0-1.21-.25-1.71-.73v2.61h-1.39v-7.56h1.39v.6Zm-.06,2.15c0,1,.67,1.66,1.52,1.66s1.5-.7,1.5-1.65-.58-1.64-1.5-1.64-1.52.66-1.52,1.63Z"/>
          <path class="cls-2" d="m131.72,148.54h1.39v7.67h-1.39v-7.67Z"/>
          <path class="cls-2" d="m139.55,155.14c-.59.84-1.38,1.22-2.54,1.22-1.76,0-2.9-1.29-2.9-2.92,0-1.51,1.09-2.91,2.88-2.91s2.94,1.25,2.94,3c0,.12,0,.19,0,.31h-4.46c.13.82.76,1.28,1.55,1.28.59,0,.99-.17,1.38-.54l1.17.55Zm-1.02-2.39c-.19-.65-.78-1.04-1.52-1.04-.69,0-1.22.34-1.49,1.04h3.01Z"/>
          <path class="cls-2" d="m82.77,170.69c-1.03-1.64-1.46-2.96-1.46-5.09,0-1.82.34-3.24,1.46-4.9h1.76c-1.27,1.44-1.78,3.01-1.78,4.95,0,2.26.61,3.58,1.78,5.03h-1.76Z"/>
          <path class="cls-2" d="m86.21,166.37c.34.65.74.98,1.24.98s.87-.31.87-.7c0-.27-.18-.58-.48-.83-1.55-1.3-2.47-2.01-2.47-3.07s.93-1.89,2.05-1.89c.95,0,1.57.51,2.17,1.2l-1.06.94c-.36-.5-.72-.77-1.13-.77-.38,0-.63.22-.63.52s.22.48.44.67c1.4,1.23,2.51,1.81,2.51,3.18,0,1.25-.94,2.13-2.29,2.13-1.09,0-1.86-.53-2.41-1.63l1.2-.72Z"/>
          <path class="cls-2" d="m98.49,164.8c0,2.2-1.72,3.9-3.87,3.9s-3.92-1.75-3.92-3.93,1.77-3.92,3.9-3.92,3.89,1.67,3.89,3.95Zm-6.35,0c0,1.52,1.15,2.53,2.47,2.53s2.44-1.11,2.44-2.54-1.03-2.57-2.46-2.57c-1.34,0-2.45,1.04-2.45,2.58Z"/>
          <path class="cls-2" d="m99.85,161.04h3.71v1.4h-2.32v1.33h2.32v1.4h-2.32v3.36h-1.39v-7.48Z"/>
          <path class="cls-2" d="m112.24,164.8c0,2.2-1.72,3.9-3.87,3.9s-3.92-1.75-3.92-3.93,1.77-3.92,3.9-3.92,3.89,1.67,3.89,3.95Zm-6.35,0c0,1.52,1.15,2.53,2.47,2.53s2.44-1.11,2.44-2.54-1.03-2.57-2.46-2.57c-1.34,0-2.45,1.04-2.45,2.58Z"/>
          <path class="cls-2" d="m114.29,161.04h1.4l1.73,5.22,1.75-5.22h1.38l1.26,7.48h-1.38l-.8-4.73-1.59,4.73h-1.25l-1.57-4.73-.82,4.73h-1.38l1.29-7.48Z"/>
          <path class="cls-2" d="m124.13,160.71c1.02,1.62,1.45,2.94,1.45,5.09,0,1.82-.33,3.24-1.45,4.9h-1.76c1.27-1.44,1.81-3,1.81-4.95,0-2.25-.62-3.56-1.81-5.03h1.76Z"/>
        </g>
        <g>
          <path class="cls-2" d="m104.22,37.16c-11.82,0-21.39,9.58-21.39,21.39s9.58,21.39,21.39,21.39,21.39-9.58,21.39-21.39-9.58-21.39-21.39-21.39Zm0,37.77c-9.05,0-16.38-7.33-16.38-16.38s7.33-16.38,16.38-16.38,16.38,7.33,16.38,16.38-7.33,16.38-16.38,16.38Z"/>
          <rect class="cls-2" x="102.13" y="77.88" width="4.18" height="19.48"/>
          <path class="cls-2" d="m132.82,84.42h-28.58s-.03,0-.03,0h-28.58c-2.77,0-5.02,2.25-5.02,5.02v5.6h4.18v-5.33c0-.61.5-1.11,1.11-1.11h28.35s0,0,0,0h28.32c.61,0,1.11.5,1.11,1.11v5.33h4.18v-5.6c0-2.77-2.25-5.02-5.02-5.02Z"/>
          <circle class="cls-2" cx="72.43" cy="105.18" r="12.14"/>
          <circle class="cls-2" cx="104.52" cy="105.18" r="12.14"/>
          <circle class="cls-2" cx="136.75" cy="105.18" r="12.14"/>
          <path class="cls-2" d="m106.1,45.75c2.49.6,3.62,1.64,4.98,2.99l-2.96,2.9c-1.32-1.36-2.68-2.11-4.03-2.11-1.54,0-2.62.98-2.62,2.14,0,1.64,1.26,1.95,6.18,4.1,2.4,1.04,4.35,3.44,4.35,6.62,0,1.7-.57,3.22-1.58,4.51-1.29,1.64-2.68,2.02-4.32,2.36v4.13h-2.9v-4.03c-2.3-.25-4.54-1.2-7.03-3.88l2.93-2.99c1.8,1.89,3.53,2.99,5.42,2.99,1.73,0,3.25-1.32,3.25-3.12,0-.91-.41-1.89-.98-2.27-1.54-1.04-3.4-2.02-5.45-2.9-1.95-.85-4.1-3.12-4.1-5.9,0-3.21,2.65-5.58,5.96-5.74v-1.54h2.9v1.73Z"/>
        </g>
      </g>
    </g>
  </g>
</svg>