<?xml version="1.0" encoding="UTF-8"?>
<svg id="Capa_2" data-name="Capa 2" xmlns="http://www.w3.org/2000/svg" viewBox="0 0 88.76 120.28">
  <defs>
    <style>
      .cls-1 {
        fill: #fad7d9;
      }

      .cls-2 {
        fill: #fff;
      }
    </style>
  </defs>
  <g id="Capa_1-2" data-name="Capa 1">
    <path class="cls-1" d="m31.03,69.52s4.28-5.97,11.05-4.41c7.92,1.83,9.31,8.45,7.95,14.33-1.69,7.3-18.89,15.89-18.89,15.89,0,0-13.55-6.64-17.72-13.42-5.2-8.45,2.57-15.37,4.69-16.28,2.74-1.17,8.6-1.56,12.92,3.89Z"/>
    <g>
      <path class="cls-2" d="m88.67,62.38s-1.25-1.73-1.68-2.29c-1.97-2.52-4.62-3.42-7.89-2.65-1.66.39-7.66,4.53-14.75,9.51-2.5,1.75-4.65,3.26-5.65,3.89-.43.27-.77.35-1.06.26-.27-.08-.48-.32-.72-.8-1.73-3.46-3.86-13.65-2.97-17.98,1.88-9.2,9.91-37.17,9.99-37.46.84-2.91-.74-6.01-3.52-6.89-1.42-.45-2.92-.32-4.23.38-1.31.7-2.26,1.88-2.67,3.3l-11.29,37.09c-.15.48-.62.79-1.11.74-.57-.06-.99-.58-.93-1.15l4.35-42.3c.32-2.99-1.85-5.68-4.84-6-1.44-.15-2.87.26-4,1.18-1.13.91-1.84,2.22-2,3.66l-5.42,45.32c-.01.12-.11.22-.23.25-.11.02-.2-.03-.24-.06-.04-.03-.11-.1-.11-.22l.03-39.99c0-2.76-2.24-5-5-5s-5,2.24-5,4.99l-.66,43c0,.53-.39.99-.91,1.09-.3.06-.6,0-.85-.17-.25-.17-.42-.43-.48-.73l-5.23-27.59c-.21-1.27-.91-2.39-1.96-3.14-1.05-.75-2.33-1.04-3.6-.83-1.21.2-2.29.85-3.03,1.82-.81,1.06-1.15,2.42-.94,3.74l4.78,28.75c-.02.06-.02.11-.02.17l1.81,25.56c.26,3.69.84,7.38,1.73,10.96l3.6,14.58.58,12.13c.01.26.23.47.5.48h.5s-.59-12.75-.59-12.75l-3.62-14.68c-.87-3.53-1.44-7.17-1.7-10.8l-1.8-25.35c.03-.08.04-.17.03-.26L1.05,27.17c-.18-1.06.09-2.11.74-2.96.59-.77,1.45-1.28,2.41-1.44,1.01-.17,2.02.07,2.85.66.83.59,1.38,1.48,1.55,2.5l5.23,27.6c.11.56.43,1.05.9,1.37.48.32,1.05.43,1.61.32.98-.19,1.7-1.06,1.71-2.06l.66-43c0-2.2,1.79-4,4-4s4,1.79,4,4l-.03,39.99c0,.39.17.75.47,1,.3.25.69.34,1.07.27.55-.11.96-.56,1.03-1.11l5.42-45.33c.13-1.18.71-2.24,1.63-2.99.93-.75,2.09-1.09,3.27-.96,2.44.26,4.21,2.46,3.95,4.9l-4.35,42.3c-.11,1.12.7,2.13,1.82,2.25.98.11,1.89-.5,2.18-1.44l11.3-37.1c.33-1.17,1.11-2.12,2.18-2.7,1.07-.57,2.3-.68,3.46-.31,2.27.73,3.55,3.27,2.86,5.67-.08.28-8.12,28.3-10.01,37.53-.99,4.87,1.41,15.34,3.06,18.63.25.49.62,1.08,1.32,1.3.59.19,1.21.06,1.89-.37,1.02-.64,3.19-2.16,5.7-3.92,5.1-3.57,12.8-8.98,14.4-9.35,2.85-.66,5.17.11,6.88,2.29.29.38.96,1.3,1.36,1.84-1.78,1.21-8.48,5.82-10.81,8.16-5.37,5.39-19.2,25.77-19.78,26.62-1.91,2.62-4.22,4.91-6.85,6.8l-3.78,2.71c-.12.09-.2.23-.21.39l-.52,13.05h.52s0,0,0,0c.27,0,.49-.21.5-.48l.49-12.29,3.58-2.57c2.72-1.96,5.1-4.32,7.09-7.04.14-.21,14.36-21.16,19.67-26.49,2.57-2.58,11-8.27,11.09-8.33.11-.08.19-.19.21-.33s0-.27-.09-.38Z"/>
      <path class="cls-2" d="m31.2,96.07c-.47,0-13.2-8.42-13.33-8.51-4.48-2.97-7.08-7.76-6.62-12.19.4-3.87,1.8-6.81,4.17-8.72,3.02-2.44,6.65-2.47,8.55-2.26,3.69.4,6.22,3.29,7.24,4.7,1.02-1.41,3.54-4.3,7.24-4.7,1.89-.2,5.53-.18,8.55,2.26,2.37,1.91,3.77,4.85,4.17,8.72h0c.46,4.43-2.14,9.22-6.62,12.19-9.24,6.12-13.03,8.41-13.07,8.44-.08.05-.17.07-.26.07Zm-8.71-30.76c-1.82,0-4.32.39-6.45,2.12-2.15,1.74-3.43,4.45-3.8,8.05-.41,4.01,2.07,8.53,6.18,11.26,7.88,5.22,11.79,7.65,12.78,8.25.98-.6,4.85-3,12.78-8.25,4.11-2.73,6.6-7.25,6.18-11.26-.37-3.6-1.65-6.31-3.8-8.05-2.74-2.22-6.07-2.24-7.81-2.05-4.04.43-6.64,4.41-6.92,4.86-.18.29-.67.29-.85,0-.28-.45-2.88-4.43-6.92-4.86-.38-.04-.85-.07-1.36-.07Z"/>
    </g>
  </g>
</svg>