<?xml version="1.0" encoding="UTF-8"?>
<svg id="Capa_2" data-name="Capa 2" xmlns="http://www.w3.org/2000/svg" xmlns:xlink="http://www.w3.org/1999/xlink" viewBox="0 0 417.27 265.54">
  <defs>
    <style>
      .cls-1 {
        fill: none;
      }

      .cls-2 {
        clip-path: url(#clippath);
      }

      .cls-3 {
        fill: #fff;
      }

      .cls-4 {
        fill: #e5f3f5;
      }

      .cls-5 {
        fill: #8acdcf;
      }

      .cls-6 {
        fill: #b3dee5;
      }

      .cls-7 {
        fill: #3765ae;
      }

      .cls-8 {
        fill: #609fc9;
      }
    </style>
    <clipPath id="clippath">
      <polygon class="cls-1" points="0 46.79 417.27 46.79 417.27 261.82 90.84 262.15 90.8 195.69 0 195.69 0 46.79"/>
    </clipPath>
  </defs>
  <g id="Capa_1-2" data-name="Capa 1">
    <polygon class="cls-5" points="0 181.36 0 261.33 0 265.54 417.27 265.54 417.27 261.78 92.19 259.19 0 181.36"/>
    <polygon class="cls-4" points="0 224.13 91.8 262.52 417.27 262.52 417.27 45.93 0 45.93 0 224.13"/>
    <g class="cls-2">
      <g>
        <polygon class="cls-8" points="-13.61 95.53 -13.64 94.59 548.75 92.56 548.78 93.5 -13.61 95.53"/>
        <polygon class="cls-8" points="-17.62 132.65 -17.64 131.71 544.75 129.68 544.78 130.61 -17.62 132.65"/>
        <polygon class="cls-8" points="-17.93 171.53 -17.96 170.59 544.43 168.56 544.46 169.49 -17.93 171.53"/>
      </g>
      <path class="cls-3" d="m116.2,290.46c-9.55-20.57-9.65-250.8-9.63-253.09h.97c-.02,2.29.07,232.36,9.57,252.82l-.91.27Z"/>
    </g>
    <g>
      <path class="cls-7" d="m28.54,67.56c.4.74.85,1.13,1.43,1.13s1-.36,1-.8c0-.31-.2-.67-.55-.96-1.79-1.5-2.84-2.31-2.84-3.54s1.07-2.17,2.36-2.17c1.09,0,1.81.59,2.49,1.38l-1.22,1.08c-.41-.58-.83-.89-1.29-.89-.43,0-.73.25-.73.6s.25.55.5.77c1.61,1.42,2.89,2.09,2.89,3.66,0,1.44-1.08,2.45-2.64,2.45-1.26,0-2.13-.61-2.77-1.87l1.38-.83Z"/>
      <path class="cls-7" d="m40.34,66.85c0,1.85-1.43,3.36-3.37,3.36s-3.31-1.48-3.31-3.35,1.56-3.36,3.3-3.36c1.86,0,3.38,1.46,3.38,3.35Zm-5.07,0c0,1.08.68,1.85,1.72,1.85s1.75-.72,1.75-1.84-.71-1.85-1.75-1.85-1.72.78-1.72,1.83Z"/>
      <path class="cls-7" d="m47.81,68.88c-.68.89-1.64,1.33-2.89,1.33-2.17,0-3.57-1.48-3.57-3.33s1.49-3.37,3.6-3.37c1.25,0,2.3.52,2.94,1.45l-1.33.73c-.46-.48-.9-.72-1.6-.72-1.22,0-2,.83-2,1.93s.76,1.85,1.93,1.85c.71,0,1.27-.24,1.67-.73l1.26.86Z"/>
      <path class="cls-7" d="m50.98,62.11c0,.56-.46,1.02-1.02,1.02s-1.02-.52-1.02-1.1c0-.55.47-.97,1.02-.97s1.02.48,1.02,1.06Zm-1.81,1.57h1.6v6.37h-1.6v-6.37Z"/>
      <path class="cls-7" d="m58.18,68.81c-.68.97-1.58,1.4-2.93,1.4-2.03,0-3.33-1.49-3.33-3.36,0-1.74,1.26-3.35,3.31-3.35s3.38,1.44,3.38,3.45c0,.14-.01.22-.01.36h-5.13c.16.95.88,1.48,1.79,1.48.68,0,1.14-.19,1.58-.62l1.34.64Zm-1.18-2.75c-.22-.74-.9-1.2-1.75-1.2-.79,0-1.4.4-1.71,1.2h3.47Z"/>
      <path class="cls-7" d="m64.6,69.37c-.56.55-1.16.84-1.97.84-1.62,0-3.03-1.39-3.03-3.35s1.34-3.36,3-3.36c.77,0,1.43.29,2,.86v-3.15h1.6v8.83h-1.6v-.67Zm-3.39-2.52c0,1.09.72,1.9,1.71,1.9s1.75-.74,1.75-1.91-.74-1.87-1.75-1.87-1.71.84-1.71,1.88Z"/>
      <path class="cls-7" d="m72.52,69.37c-.56.55-1.16.84-1.97.84-1.62,0-3.03-1.39-3.03-3.35s1.34-3.36,3-3.36c.77,0,1.43.29,2,.86v-.7h1.6v6.37h-1.6v-.67Zm-3.39-2.52c0,1.09.72,1.9,1.71,1.9s1.75-.74,1.75-1.91-.74-1.87-1.75-1.87-1.71.84-1.71,1.88Z"/>
      <path class="cls-7" d="m80.44,69.37c-.56.55-1.16.84-1.97.84-1.62,0-3.03-1.39-3.03-3.35s1.34-3.36,3-3.36c.77,0,1.43.29,2,.86v-3.15h1.6v8.83h-1.6v-.67Zm-3.39-2.52c0,1.09.72,1.9,1.71,1.9s1.75-.74,1.75-1.91-.74-1.87-1.75-1.87-1.71.84-1.71,1.88Z"/>
      <path class="cls-7" d="m89.62,68.81c-.68.97-1.58,1.4-2.93,1.4-2.03,0-3.33-1.49-3.33-3.36,0-1.74,1.26-3.35,3.31-3.35s3.38,1.44,3.38,3.45c0,.14-.01.22-.01.36h-5.13c.16.95.88,1.48,1.79,1.48.68,0,1.14-.19,1.58-.62l1.34.64Zm-1.18-2.75c-.22-.74-.9-1.2-1.75-1.2-.79,0-1.4.4-1.71,1.2h3.47Z"/>
      <path class="cls-7" d="m92.59,67.29c-1.02-.52-1.54-1.14-1.54-1.94,0-1,.84-1.83,2.06-1.83.83,0,1.58.37,2.1,1.05l-.98,1c-.36-.36-.72-.59-1.1-.59-.32,0-.58.13-.58.38s.23.35.58.53l.59.3c1.06.54,1.62,1.09,1.62,2.04,0,1.14-.9,1.99-2.29,1.99-.92,0-1.68-.37-2.23-1.09l.98-1.08c.37.43.91.74,1.33.74.4,0,.71-.23.71-.52s-.26-.48-.71-.71l-.54-.28Z"/>
      <path class="cls-7" d="m31.9,75.43h4.27v1.61h-2.67v1.54h2.67v1.61h-2.67v3.86h-1.59v-8.61Z"/>
      <path class="cls-7" d="m39.1,76.11c0,.56-.46,1.02-1.02,1.02s-1.02-.52-1.02-1.1c0-.55.47-.97,1.02-.97s1.02.48,1.02,1.06Zm-1.81,1.57h1.6v6.37h-1.6v-6.37Z"/>
      <path class="cls-7" d="m41.92,78.32c.61-.52,1.18-.82,1.88-.82,1.19,0,2.18.82,2.18,2.18v4.35h-1.6v-3.01c0-1.26-.11-2.06-1.08-2.06-.44,0-.83.22-1.08.61-.32.52-.31,1.09-.31,1.75v2.71h-1.59v-6.37h1.59v.65Z"/>
      <path class="cls-7" d="m52.24,83.37c-.56.55-1.16.84-1.97.84-1.62,0-3.03-1.39-3.03-3.35s1.34-3.36,3-3.36c.77,0,1.43.29,2,.86v-.7h1.6v6.37h-1.6v-.67Zm-3.39-2.52c0,1.09.72,1.9,1.71,1.9s1.75-.74,1.75-1.91-.74-1.87-1.75-1.87-1.71.84-1.71,1.88Z"/>
      <path class="cls-7" d="m57.04,78.32c.61-.52,1.18-.82,1.88-.82,1.19,0,2.18.82,2.18,2.18v4.35h-1.6v-3.01c0-1.26-.11-2.06-1.08-2.06-.44,0-.83.22-1.08.61-.32.52-.31,1.09-.31,1.75v2.71h-1.59v-6.37h1.59v.65Z"/>
      <path class="cls-7" d="m68.81,82.88c-.68.89-1.64,1.33-2.89,1.33-2.17,0-3.57-1.48-3.57-3.33s1.49-3.37,3.6-3.37c1.25,0,2.3.52,2.94,1.45l-1.33.73c-.46-.48-.9-.72-1.6-.72-1.22,0-2,.83-2,1.93s.76,1.85,1.93,1.85c.71,0,1.27-.24,1.67-.73l1.26.86Z"/>
      <path class="cls-7" d="m71.98,76.11c0,.56-.46,1.02-1.02,1.02s-1.02-.52-1.02-1.1c0-.55.47-.97,1.02-.97s1.02.48,1.02,1.06Zm-1.81,1.57h1.6v6.37h-1.6v-6.37Z"/>
      <path class="cls-7" d="m79.18,82.81c-.68.97-1.58,1.4-2.93,1.4-2.03,0-3.33-1.49-3.33-3.36,0-1.74,1.26-3.35,3.31-3.35s3.38,1.44,3.38,3.45c0,.14-.01.22-.01.36h-5.13c.16.95.88,1.48,1.79,1.48.68,0,1.14-.19,1.58-.62l1.34.64Zm-1.18-2.75c-.22-.74-.9-1.2-1.75-1.2-.79,0-1.4.4-1.71,1.2h3.47Z"/>
      <path class="cls-7" d="m81.89,78.48c.3-.66.82-.97,1.34-.97.34,0,.54.1.7.17l-.49,1.37c-.12-.06-.3-.13-.47-.13-.46,0-.82.53-.85,1.46-.01.35-.01.74-.01,1.09v2.58h-1.6v-6.37h1.38v.8Z"/>
      <path class="cls-7" d="m89.44,83.37c-.56.55-1.16.84-1.97.84-1.62,0-3.03-1.39-3.03-3.35s1.34-3.36,3-3.36c.77,0,1.43.29,2,.86v-.7h1.6v6.37h-1.6v-.67Zm-3.39-2.52c0,1.09.72,1.9,1.71,1.9s1.75-.74,1.75-1.91-.74-1.87-1.75-1.87-1.71.84-1.71,1.88Z"/>
    </g>
    <g>
      <path class="cls-7" d="m126.68,74.65c.4.74.85,1.13,1.43,1.13s1-.36,1-.8c0-.31-.2-.67-.55-.96-1.79-1.5-2.84-2.31-2.84-3.54s1.07-2.17,2.36-2.17c1.09,0,1.81.59,2.49,1.38l-1.22,1.08c-.41-.58-.83-.89-1.29-.89-.43,0-.73.25-.73.6s.25.55.5.77c1.61,1.42,2.89,2.09,2.89,3.66,0,1.44-1.08,2.45-2.64,2.45-1.26,0-2.13-.61-2.77-1.87l1.38-.83Z"/>
      <path class="cls-7" d="m140.83,72.85c0,2.53-1.98,4.49-4.45,4.49s-4.51-2.01-4.51-4.52,2.04-4.51,4.49-4.51,4.47,1.92,4.47,4.55Zm-7.3,0c0,1.75,1.32,2.91,2.84,2.91s2.81-1.28,2.81-2.93-1.19-2.96-2.83-2.96c-1.55,0-2.82,1.2-2.82,2.97Z"/>
      <path class="cls-7" d="m150.25,75.69c-1.14,1.12-2.12,1.66-3.74,1.66-2.7,0-4.56-1.88-4.56-4.53s2.11-4.51,4.58-4.51c1.43,0,2.81.62,3.75,1.73l-1.15,1.1c-.78-.83-1.63-1.26-2.64-1.26-1.62,0-2.94,1.25-2.94,2.94,0,1.77,1.27,2.96,2.97,2.96,1.07,0,1.79-.43,2.6-1.25l1.12,1.16Z"/>
      <path class="cls-7" d="m154.36,68.52h1.65l3.32,8.61h-1.7l-.67-1.78h-3.51l-.71,1.78h-1.7l3.32-8.61Zm.84,2.28l-1.14,2.95h2.28l-1.14-2.95Z"/>
      <path class="cls-7" d="m160.6,68.52h2c1.12,0,1.89.17,2.43.7.42.41.7,1.07.7,1.8,0,.91-.37,1.59-1.09,2.04-.73.44-1.5.43-2.4.43v3.65h-1.64v-8.61Zm1.64,3.37h.77c.74,0,1.12-.29,1.12-.88s-.41-.89-1.19-.89h-.7v1.76Z"/>
    </g>
    <g>
      <path class="cls-7" d="m233.5,74.64c.4.74.85,1.13,1.43,1.13s1-.36,1-.8c0-.31-.2-.67-.55-.96-1.79-1.5-2.84-2.31-2.84-3.54s1.07-2.17,2.36-2.17c1.09,0,1.81.59,2.49,1.38l-1.22,1.08c-.41-.58-.83-.89-1.29-.89-.43,0-.73.25-.73.6s.25.55.5.77c1.61,1.42,2.89,2.09,2.89,3.66,0,1.44-1.08,2.45-2.64,2.45-1.26,0-2.13-.61-2.77-1.87l1.38-.83Z"/>
      <path class="cls-7" d="m247.64,72.85c0,2.53-1.98,4.49-4.45,4.49s-4.51-2.01-4.51-4.52,2.04-4.51,4.49-4.51,4.47,1.92,4.47,4.55Zm-7.3,0c0,1.75,1.32,2.91,2.84,2.91s2.81-1.28,2.81-2.93-1.19-2.96-2.83-2.96c-1.55,0-2.82,1.2-2.82,2.97Z"/>
      <path class="cls-7" d="m249.22,68.52h4.27v1.61h-2.67v1.54h2.67v1.61h-2.67v3.86h-1.59v-8.61Z"/>
      <path class="cls-7" d="m254.82,68.52h1.64v8.61h-1.64v-8.61Z"/>
      <path class="cls-7" d="m258.29,68.52h2c1.12,0,1.89.17,2.43.7.42.41.7,1.07.7,1.8,0,.91-.37,1.59-1.09,2.04-.73.44-1.5.43-2.4.43v3.65h-1.64v-8.61Zm1.64,3.37h.77c.74,0,1.12-.29,1.12-.88s-.41-.89-1.19-.89h-.7v1.76Z"/>
      <path class="cls-7" d="m273.56,72.85c0,2.53-1.98,4.49-4.45,4.49s-4.51-2.01-4.51-4.52,2.04-4.51,4.49-4.51,4.47,1.92,4.47,4.55Zm-7.3,0c0,1.75,1.32,2.91,2.84,2.91s2.81-1.28,2.81-2.93-1.19-2.96-2.83-2.96c-1.55,0-2.82,1.2-2.82,2.97Z"/>
    </g>
    <g>
      <path class="cls-7" d="m338.69,74.25c.4.74.85,1.13,1.43,1.13s1-.36,1-.8c0-.31-.2-.67-.55-.96-1.79-1.5-2.84-2.31-2.84-3.54s1.07-2.17,2.36-2.17c1.09,0,1.81.59,2.49,1.38l-1.22,1.08c-.41-.58-.83-.89-1.29-.89-.43,0-.73.25-.73.6s.25.55.5.77c1.61,1.42,2.89,2.09,2.89,3.66,0,1.44-1.08,2.45-2.64,2.45-1.26,0-2.13-.61-2.77-1.87l1.38-.83Z"/>
      <path class="cls-7" d="m352.83,72.45c0,2.53-1.98,4.49-4.45,4.49s-4.51-2.01-4.51-4.52,2.04-4.51,4.49-4.51,4.47,1.92,4.47,4.55Zm-7.3,0c0,1.75,1.32,2.91,2.84,2.91s2.81-1.28,2.81-2.93-1.19-2.96-2.83-2.96c-1.55,0-2.82,1.2-2.82,2.97Z"/>
      <path class="cls-7" d="m354.41,68.12h4.27v1.61h-2.67v1.54h2.67v1.61h-2.67v3.86h-1.59v-8.61Z"/>
      <path class="cls-7" d="m368.67,72.45c0,2.53-1.98,4.49-4.45,4.49s-4.51-2.01-4.51-4.52,2.04-4.51,4.49-4.51,4.47,1.92,4.47,4.55Zm-7.3,0c0,1.75,1.32,2.91,2.84,2.91s2.81-1.28,2.81-2.93-1.19-2.96-2.83-2.96c-1.55,0-2.82,1.2-2.82,2.97Z"/>
      <path class="cls-7" d="m371.04,68.12h1.61l1.99,6.01,2.01-6.01h1.58l1.45,8.61h-1.58l-.92-5.45-1.83,5.45h-1.44l-1.81-5.45-.95,5.45h-1.59l1.49-8.61Z"/>
    </g>
    <g>
      <path class="cls-7" d="m37.33,108.56h4.92v.84h-4.05v2.7h4.05v.84h-4.05v3.39h4.05v.84h-4.92v-8.61Z"/>
      <path class="cls-7" d="m44.44,111.94c.66-.86,1.45-1.31,2.39-1.31,1.39,0,2.36.96,2.36,2.96v3.57h-.82v-3.47c0-1.5-.47-2.33-1.7-2.33-.68,0-1.25.3-1.68.86-.48.62-.55,1.25-.55,2.25v2.67h-.82v-6.37h.82v1.14Z"/>
      <path class="cls-7" d="m51.32,109.8c0-1.03.25-1.64,1.3-1.64.35,0,.67.1.94.18v.8c-.19-.08-.44-.19-.77-.19-.67,0-.65.41-.65.98v.86h1.34v.72h-1.34v5.65h-.82v-5.65h-.84v-.72h.84v-1Z"/>
      <path class="cls-7" d="m61.05,114c0,1.81-1.4,3.33-3.32,3.33s-3.32-1.52-3.32-3.33,1.42-3.37,3.32-3.37,3.32,1.55,3.32,3.37Zm-5.8.01c0,1.39,1.04,2.53,2.48,2.53s2.48-1.14,2.48-2.53-1.13-2.59-2.48-2.59-2.48,1.18-2.48,2.59Z"/>
      <path class="cls-7" d="m68.11,110.8h.82v8.7h-.82v-3.42c-.7.84-1.57,1.25-2.57,1.25-1.86,0-3.26-1.55-3.26-3.36s1.44-3.33,3.29-3.33c1.03,0,1.91.44,2.54,1.33v-1.16Zm-4.99,3.19c0,1.38,1.08,2.59,2.51,2.59,1.31,0,2.53-.98,2.53-2.57,0-1.48-1.09-2.59-2.52-2.59s-2.52,1.2-2.52,2.57Z"/>
      <path class="cls-7" d="m75.38,110.8h.86v3.3c0,2.15-.97,3.23-2.79,3.23s-2.81-1.08-2.81-3.23v-3.3h.86v3.11c0,.67,0,1.22.18,1.61.3.65.96,1.02,1.76,1.02.59,0,1.1-.22,1.44-.56.5-.54.49-1.15.49-2.06v-3.11Z"/>
      <path class="cls-7" d="m78.59,114.05c.04,1.46,1.03,2.53,2.4,2.53s1.97-.75,2.43-1.52l.68.36c-.65,1.27-1.64,1.91-3.03,1.91-2.11,0-3.32-1.62-3.32-3.32s1.28-3.37,3.27-3.37c1.81,0,3.27,1.31,3.3,3.42h-5.73Zm4.83-.72c-.33-1.32-1.28-1.91-2.39-1.91s-1.99.61-2.36,1.91h4.75Z"/>
    </g>
    <g>
      <path class="cls-7" d="m37.59,143.68v-.84h4.72v.84h-1.92v7.77h-.86v-7.77h-1.94Z"/>
      <path class="cls-7" d="m44.76,143.13c0,.37-.31.68-.68.68s-.67-.31-.67-.68.31-.67.67-.67.68.3.68.67Zm-1.08,1.96h.82v6.37h-.82v-6.37Z"/>
      <path class="cls-7" d="m47.02,146.25c.64-.89,1.51-1.33,2.53-1.33,1.86,0,3.3,1.52,3.3,3.33s-1.4,3.36-3.27,3.36c-1,0-1.86-.41-2.55-1.25v3.42h-.82v-8.7h.82v1.16Zm-.06,2.05c0,1.58,1.22,2.57,2.53,2.57,1.42,0,2.52-1.2,2.52-2.59s-1.06-2.57-2.52-2.57-2.53,1.12-2.53,2.59Z"/>
      <path class="cls-7" d="m60.72,148.28c0,1.81-1.4,3.33-3.32,3.33s-3.32-1.52-3.32-3.33,1.42-3.37,3.32-3.37,3.32,1.55,3.32,3.37Zm-5.8.01c0,1.39,1.04,2.53,2.48,2.53s2.48-1.14,2.48-2.53-1.13-2.59-2.48-2.59-2.48,1.18-2.48,2.59Z"/>
      <path class="cls-7" d="m62.15,150.12c.41.46.85.71,1.33.71.62,0,1.17-.46,1.17-1.05,0-.37-.22-.72-.53-.89-1.46-.82-2.21-1.16-2.21-2.28,0-1.01.78-1.69,1.75-1.69.7,0,1.22.34,1.76.86l-.53.54c-.38-.37-.77-.61-1.28-.61s-.96.37-.96.85c0,.32.2.68.49.85,1.46.85,2.28,1.18,2.28,2.33,0,1-.77,1.88-1.92,1.88-.71,0-1.43-.32-1.88-.91l.52-.59Z"/>
      <path class="cls-7" d="m75.77,150.36c-.7.84-1.57,1.25-2.57,1.25-1.86,0-3.26-1.55-3.26-3.36s1.44-3.33,3.29-3.33c1.03,0,1.91.44,2.54,1.33v-3.62h.82v8.83h-.82v-1.09Zm-4.99-2.09c0,1.38,1.08,2.59,2.51,2.59,1.31,0,2.53-.98,2.53-2.57,0-1.48-1.09-2.59-2.52-2.59s-2.52,1.2-2.52,2.57Z"/>
      <path class="cls-7" d="m78.98,148.33c.04,1.46,1.03,2.53,2.4,2.53s1.97-.75,2.43-1.52l.68.36c-.65,1.27-1.64,1.91-3.03,1.91-2.11,0-3.32-1.62-3.32-3.32s1.28-3.37,3.27-3.37c1.81,0,3.27,1.31,3.3,3.42h-5.73Zm4.83-.72c-.34-1.32-1.28-1.91-2.39-1.91s-1.99.61-2.36,1.91h4.75Z"/>
      <path class="cls-7" d="m46.24,159.08h.86v3.3c0,2.15-.97,3.23-2.79,3.23s-2.81-1.08-2.81-3.23v-3.3h.86v3.11c0,.67,0,1.22.18,1.61.3.65.96,1.02,1.76,1.02.59,0,1.1-.22,1.44-.56.5-.54.49-1.15.49-2.06v-3.11Z"/>
      <path class="cls-7" d="m48.83,164.12c.41.46.85.71,1.33.71.62,0,1.17-.46,1.17-1.05,0-.37-.22-.72-.53-.89-1.46-.82-2.21-1.16-2.21-2.28,0-1.01.78-1.69,1.75-1.69.7,0,1.22.34,1.76.86l-.53.54c-.38-.37-.77-.61-1.28-.61s-.96.37-.96.85c0,.32.2.68.49.85,1.46.85,2.28,1.18,2.28,2.33,0,1-.77,1.88-1.92,1.88-.71,0-1.43-.32-1.88-.91l.52-.59Z"/>
      <path class="cls-7" d="m58.2,159.08h.86v3.3c0,2.15-.97,3.23-2.79,3.23s-2.81-1.08-2.81-3.23v-3.3h.86v3.11c0,.67,0,1.22.18,1.61.3.65.96,1.02,1.76,1.02.59,0,1.1-.22,1.44-.56.5-.54.49-1.15.49-2.06v-3.11Z"/>
      <path class="cls-7" d="m66.4,159.08h.8v6.37h-.8v-1.09c-.7.84-1.57,1.25-2.57,1.25-1.86,0-3.26-1.55-3.26-3.36s1.44-3.33,3.29-3.33c1.03,0,1.91.44,2.54,1.33v-1.16Zm-4.99,3.19c0,1.38,1.08,2.59,2.51,2.59,1.31,0,2.54-.98,2.54-2.57,0-1.48-1.1-2.59-2.53-2.59s-2.52,1.2-2.52,2.57Z"/>
      <path class="cls-7" d="m69.6,160.01c.48-.7,1-1.09,1.64-1.09.37,0,.56.12.73.22l-.43.7c-.1-.05-.25-.12-.43-.12-.6,0-1.14.52-1.38,1.39-.11.41-.13,1.07-.13,1.93v2.42h-.86v-6.37h.86v.92Z"/>
      <path class="cls-7" d="m73.64,157.13c0,.37-.31.68-.68.68s-.67-.31-.67-.68.31-.67.67-.67.68.3.68.67Zm-1.08,1.96h.82v6.37h-.82v-6.37Z"/>
      <path class="cls-7" d="m81.42,162.28c0,1.81-1.4,3.33-3.32,3.33s-3.32-1.52-3.32-3.33,1.42-3.37,3.32-3.37,3.32,1.55,3.32,3.37Zm-5.8.01c0,1.39,1.04,2.53,2.48,2.53s2.48-1.14,2.48-2.53-1.13-2.59-2.48-2.59-2.48,1.18-2.48,2.59Z"/>
    </g>
    <g>
      <path class="cls-7" d="m37.59,190.03v-.84h4.73v.84h-1.92v7.77h-.86v-7.77h-1.94Z"/>
      <path class="cls-7" d="m44.76,189.48c0,.37-.31.68-.68.68s-.67-.31-.67-.68.31-.67.67-.67.68.3.68.67Zm-1.08,1.96h.82v6.37h-.82v-6.37Z"/>
      <path class="cls-7" d="m47.02,192.59c.64-.89,1.51-1.33,2.53-1.33,1.86,0,3.3,1.52,3.3,3.33s-1.4,3.36-3.27,3.36c-1,0-1.86-.41-2.55-1.25v3.42h-.82v-8.7h.82v1.16Zm-.06,2.05c0,1.58,1.22,2.57,2.53,2.57,1.42,0,2.52-1.2,2.52-2.59s-1.06-2.57-2.52-2.57-2.53,1.12-2.53,2.59Z"/>
      <path class="cls-7" d="m60.72,194.63c0,1.81-1.4,3.33-3.32,3.33s-3.32-1.52-3.32-3.33,1.42-3.37,3.32-3.37,3.32,1.55,3.32,3.37Zm-5.8.01c0,1.39,1.04,2.53,2.48,2.53s2.48-1.14,2.48-2.53-1.13-2.59-2.48-2.59-2.48,1.18-2.48,2.59Z"/>
      <path class="cls-7" d="m62.15,196.47c.41.46.85.71,1.33.71.62,0,1.17-.46,1.17-1.05,0-.37-.22-.72-.53-.89-1.46-.82-2.21-1.16-2.21-2.28,0-1.01.78-1.69,1.75-1.69.7,0,1.22.34,1.76.86l-.53.54c-.38-.37-.77-.61-1.28-.61s-.96.37-.96.85c0,.32.2.68.49.85,1.46.85,2.28,1.18,2.28,2.33,0,1-.77,1.88-1.92,1.88-.71,0-1.43-.32-1.88-.91l.52-.59Z"/>
      <path class="cls-7" d="m75.77,196.71c-.7.84-1.57,1.25-2.57,1.25-1.86,0-3.26-1.55-3.26-3.36s1.44-3.33,3.29-3.33c1.03,0,1.91.44,2.54,1.33v-3.62h.82v8.83h-.82v-1.09Zm-4.99-2.09c0,1.38,1.08,2.59,2.51,2.59,1.31,0,2.53-.98,2.53-2.57,0-1.48-1.09-2.59-2.52-2.59s-2.52,1.2-2.52,2.57Z"/>
      <path class="cls-7" d="m78.98,194.68c.04,1.46,1.03,2.53,2.4,2.53s1.97-.75,2.43-1.52l.68.36c-.65,1.27-1.64,1.91-3.03,1.91-2.11,0-3.32-1.62-3.32-3.32s1.28-3.37,3.27-3.37c1.81,0,3.27,1.31,3.3,3.42h-5.73Zm4.83-.72c-.33-1.32-1.28-1.91-2.39-1.91s-1.99.61-2.36,1.91h4.75Z"/>
      <path class="cls-7" d="m31.89,208.63c0,1.81-1.4,3.33-3.32,3.33s-3.32-1.52-3.32-3.33,1.42-3.37,3.32-3.37,3.32,1.55,3.32,3.37Zm-5.8.01c0,1.39,1.04,2.53,2.48,2.53s2.48-1.14,2.48-2.53-1.13-2.59-2.48-2.59-2.48,1.18-2.48,2.59Z"/>
      <path class="cls-7" d="m34.24,206.59c.64-.89,1.51-1.33,2.53-1.33,1.86,0,3.3,1.52,3.3,3.33s-1.4,3.36-3.27,3.36c-1,0-1.86-.41-2.55-1.25v3.42h-.82v-8.7h.82v1.16Zm-.06,2.05c0,1.58,1.22,2.57,2.53,2.57,1.42,0,2.52-1.2,2.52-2.59s-1.06-2.57-2.52-2.57-2.53,1.12-2.53,2.59Z"/>
      <path class="cls-7" d="m42.13,208.68c.04,1.46,1.03,2.53,2.4,2.53s1.97-.75,2.43-1.52l.68.36c-.65,1.27-1.64,1.91-3.03,1.91-2.11,0-3.32-1.62-3.32-3.32s1.28-3.37,3.27-3.37c1.81,0,3.27,1.31,3.3,3.42h-5.73Zm4.83-.72c-.34-1.32-1.28-1.91-2.39-1.91s-1.99.61-2.36,1.91h4.75Z"/>
      <path class="cls-7" d="m49.93,206.35c.48-.7,1-1.09,1.64-1.09.37,0,.56.12.73.22l-.43.7c-.1-.05-.25-.12-.43-.12-.6,0-1.14.52-1.38,1.39-.11.41-.13,1.07-.13,1.93v2.42h-.86v-6.37h.86v.92Z"/>
      <path class="cls-7" d="m58.54,205.43h.8v6.37h-.8v-1.09c-.7.84-1.57,1.25-2.57,1.25-1.86,0-3.26-1.55-3.26-3.36s1.44-3.33,3.29-3.33c1.03,0,1.91.44,2.54,1.33v-1.16Zm-4.99,3.19c0,1.38,1.08,2.59,2.51,2.59,1.31,0,2.54-.98,2.54-2.57,0-1.48-1.1-2.59-2.53-2.59s-2.52,1.2-2.52,2.57Z"/>
      <path class="cls-7" d="m67.39,210.52c-.62.95-1.7,1.44-2.99,1.44-2.1,0-3.5-1.51-3.5-3.29,0-1.87,1.46-3.41,3.56-3.41,1.22,0,2.34.5,2.93,1.49l-.66.41c-.56-.74-1.34-1.1-2.3-1.1-1.62,0-2.69,1.19-2.69,2.55s1.06,2.6,2.7,2.6c.92,0,1.69-.37,2.29-1.12l.66.42Z"/>
      <path class="cls-7" d="m69.93,203.48c0,.37-.31.68-.68.68s-.67-.31-.67-.68.31-.67.67-.67.68.3.68.67Zm-1.08,1.96h.82v6.37h-.82v-6.37Z"/>
      <path class="cls-7" d="m77.71,208.63c0,1.81-1.4,3.33-3.32,3.33s-3.32-1.52-3.32-3.33,1.42-3.37,3.32-3.37,3.32,1.55,3.32,3.37Zm-5.8.01c0,1.39,1.04,2.53,2.48,2.53s2.48-1.14,2.48-2.53-1.13-2.59-2.48-2.59-2.48,1.18-2.48,2.59Z"/>
      <path class="cls-7" d="m80.04,206.57c.66-.86,1.45-1.31,2.39-1.31,1.39,0,2.36.96,2.36,2.96v3.57h-.82v-3.47c0-1.5-.47-2.33-1.7-2.33-.68,0-1.25.3-1.68.86-.48.62-.55,1.25-.55,2.25v2.67h-.82v-6.37h.82v1.14Z"/>
      <path class="cls-7" d="m87.08,208.68c.04,1.46,1.03,2.53,2.4,2.53s1.97-.75,2.43-1.52l.68.36c-.65,1.27-1.64,1.91-3.03,1.91-2.11,0-3.32-1.62-3.32-3.32s1.28-3.37,3.27-3.37c1.81,0,3.27,1.31,3.3,3.42h-5.73Zm4.83-.72c-.33-1.32-1.28-1.91-2.39-1.91s-1.99.61-2.36,1.91h4.75Z"/>
      <path class="cls-7" d="m94.26,210.47c.41.46.85.71,1.33.71.62,0,1.17-.46,1.17-1.05,0-.37-.22-.72-.53-.89-1.46-.82-2.21-1.16-2.21-2.28,0-1.01.78-1.69,1.75-1.69.7,0,1.22.34,1.76.86l-.53.54c-.38-.37-.77-.61-1.28-.61s-.96.37-.96.85c0,.32.2.68.49.85,1.46.85,2.28,1.18,2.28,2.33,0,1-.77,1.88-1.92,1.88-.71,0-1.43-.32-1.88-.91l.52-.59Z"/>
    </g>
    <g>
      <path class="cls-7" d="m127.74,103.2c-.47-.61-.88-1.06-1.58-1.06-.74,0-1.16.53-1.16,1.09,0,.47.28.96.77,1.33,1.62,1.2,2.81,2.03,2.81,3.42,0,1.21-1.02,2.31-2.42,2.31-1.19,0-1.97-.66-2.6-1.82l.73-.44c.52.95,1.14,1.43,1.8,1.43.9,0,1.59-.66,1.59-1.46,0-.95-.89-1.49-2.84-3.07-.41-.32-.73-1.01-.73-1.66,0-1.19.92-2.01,2.09-2.01,1.05,0,1.69.64,2.25,1.4l-.7.54Z"/>
      <path class="cls-7" d="m131.24,101.76c0,.37-.31.68-.68.68s-.67-.31-.67-.68.31-.67.67-.67.68.3.68.67Zm-1.08,1.96h.82v6.37h-.82v-6.37Z"/>
      <path class="cls-7" d="m133.49,104.86c.66-.86,1.45-1.31,2.39-1.31,1.39,0,2.36.96,2.36,2.96v3.57h-.82v-3.47c0-1.5-.47-2.33-1.7-2.33-.68,0-1.25.3-1.68.86-.48.62-.55,1.25-.55,2.25v2.67h-.82v-6.37h.82v1.14Z"/>
      <path class="cls-7" d="m143.71,103.3c0-1.49.73-2.22,1.92-2.22,1.05,0,1.74.68,1.8,1.61h-.83c-.11-.53-.42-.82-.98-.82-.8,0-1.04.54-1.04,1.43v.42h1.31v.72h-1.31v5.65h-.86v-5.65h-.82v-.72h.82v-.42Zm2.9.42h.82v6.37h-.82v-6.37Z"/>
      <path class="cls-7" d="m149.98,104.86c.66-.86,1.45-1.31,2.39-1.31,1.39,0,2.36.96,2.36,2.96v3.57h-.82v-3.47c0-1.5-.47-2.33-1.7-2.33-.68,0-1.25.3-1.68.86-.48.62-.55,1.25-.55,2.25v2.67h-.82v-6.37h.82v1.14Z"/>
      <path class="cls-7" d="m157.02,106.97c.04,1.46,1.03,2.53,2.4,2.53s1.97-.75,2.43-1.52l.68.36c-.65,1.27-1.64,1.91-3.03,1.91-2.11,0-3.32-1.62-3.32-3.32s1.28-3.37,3.27-3.37c1.81,0,3.27,1.31,3.3,3.42h-5.73Zm4.83-.72c-.33-1.32-1.28-1.91-2.39-1.91s-1.99.61-2.36,1.91h4.75Z"/>
      <path class="cls-7" d="m164.2,108.76c.41.46.85.71,1.33.71.62,0,1.17-.46,1.17-1.05,0-.37-.22-.72-.53-.89-1.46-.82-2.21-1.16-2.21-2.28,0-1.01.78-1.69,1.75-1.69.7,0,1.22.34,1.76.86l-.53.54c-.38-.37-.77-.61-1.28-.61s-.96.37-.96.85c0,.32.2.68.49.85,1.46.85,2.28,1.18,2.28,2.33,0,1-.77,1.88-1.92,1.88-.71,0-1.43-.32-1.88-.91l.52-.59Z"/>
      <path class="cls-7" d="m128.06,123c-.7.84-1.57,1.25-2.57,1.25-1.86,0-3.26-1.55-3.26-3.36s1.44-3.33,3.29-3.33c1.03,0,1.91.44,2.54,1.33v-3.62h.82v8.83h-.82v-1.09Zm-4.99-2.09c0,1.38,1.08,2.59,2.51,2.59,1.31,0,2.53-.98,2.53-2.57,0-1.48-1.09-2.59-2.52-2.59s-2.52,1.2-2.52,2.57Z"/>
      <path class="cls-7" d="m131.26,120.97c.04,1.46,1.03,2.53,2.4,2.53s1.97-.75,2.43-1.52l.68.36c-.65,1.27-1.64,1.91-3.03,1.91-2.11,0-3.32-1.62-3.32-3.32s1.28-3.37,3.27-3.37c1.81,0,3.27,1.31,3.3,3.42h-5.73Zm4.83-.72c-.34-1.32-1.28-1.91-2.39-1.91s-1.99.61-2.36,1.91h4.75Z"/>
      <path class="cls-7" d="m141.73,115.26h.82v8.83h-.82v-8.83Z"/>
      <path class="cls-7" d="m148.88,117.72h.86v3.3c0,2.15-.97,3.23-2.79,3.23s-2.81-1.08-2.81-3.23v-3.3h.86v3.11c0,.67,0,1.22.18,1.61.3.65.96,1.02,1.76,1.02.59,0,1.1-.22,1.44-.56.5-.54.49-1.15.49-2.06v-3.11Z"/>
      <path class="cls-7" d="m157.73,122.8c-.62.95-1.7,1.44-2.99,1.44-2.1,0-3.5-1.51-3.5-3.29,0-1.87,1.46-3.41,3.56-3.41,1.22,0,2.34.5,2.93,1.49l-.66.41c-.56-.74-1.34-1.1-2.3-1.1-1.62,0-2.69,1.19-2.69,2.55s1.06,2.6,2.7,2.6c.92,0,1.69-.37,2.29-1.12l.66.42Z"/>
      <path class="cls-7" d="m159.85,118.64c.48-.7,1-1.09,1.64-1.09.37,0,.56.12.73.22l-.43.7c-.1-.05-.25-.12-.43-.12-.6,0-1.14.52-1.38,1.39-.11.41-.13,1.07-.13,1.93v2.42h-.86v-6.37h.86v.92Z"/>
      <path class="cls-7" d="m169.21,120.92c0,1.81-1.4,3.33-3.32,3.33s-3.32-1.52-3.32-3.33,1.42-3.37,3.32-3.37,3.32,1.55,3.32,3.37Zm-5.8.01c0,1.39,1.04,2.53,2.48,2.53s2.48-1.14,2.48-2.53-1.13-2.59-2.48-2.59-2.48,1.18-2.48,2.59Z"/>
    </g>
    <g>
      <path class="cls-7" d="m234.45,103.49c-.76-1-1.83-1.49-3.07-1.49-2.04,0-3.75,1.51-3.75,3.71s1.63,3.69,3.8,3.69c1.2,0,2.22-.49,3.02-1.43l.68.52c-.89,1.12-2.2,1.7-3.77,1.7-2.88,0-4.64-2.03-4.64-4.56s1.97-4.47,4.64-4.47c1.58,0,2.92.62,3.77,1.81l-.68.52Z"/>
      <path class="cls-7" d="m243.07,106.82c0,1.81-1.4,3.33-3.32,3.33s-3.32-1.52-3.32-3.33,1.42-3.37,3.32-3.37,3.32,1.55,3.32,3.37Zm-5.8.01c0,1.39,1.04,2.53,2.48,2.53s2.48-1.14,2.48-2.53-1.13-2.59-2.48-2.59-2.48,1.18-2.48,2.59Z"/>
      <path class="cls-7" d="m245.41,104.76c.66-.86,1.45-1.31,2.39-1.31,1.39,0,2.36.96,2.36,2.96v3.57h-.82v-3.47c0-1.5-.47-2.33-1.7-2.33-.68,0-1.25.3-1.68.86-.48.62-.55,1.25-.55,2.25v2.67h-.82v-6.37h.82v1.14Z"/>
      <path class="cls-7" d="m255.63,103.2c0-1.49.73-2.22,1.92-2.22,1.05,0,1.74.68,1.8,1.61h-.83c-.11-.53-.42-.82-.98-.82-.8,0-1.04.54-1.04,1.43v.42h1.31v.72h-1.31v5.65h-.86v-5.65h-.82v-.72h.82v-.42Zm2.9.42h.82v6.37h-.82v-6.37Z"/>
      <path class="cls-7" d="m261.89,104.76c.66-.86,1.45-1.31,2.39-1.31,1.39,0,2.36.96,2.36,2.96v3.57h-.82v-3.47c0-1.5-.47-2.33-1.7-2.33-.68,0-1.25.3-1.68.86-.48.62-.55,1.25-.55,2.25v2.67h-.82v-6.37h.82v1.14Z"/>
      <path class="cls-7" d="m268.94,106.87c.04,1.46,1.03,2.53,2.4,2.53s1.97-.76,2.43-1.52l.68.36c-.65,1.27-1.64,1.91-3.03,1.91-2.11,0-3.32-1.62-3.32-3.32s1.28-3.37,3.27-3.37c1.81,0,3.27,1.31,3.3,3.42h-5.73Zm4.83-.72c-.33-1.32-1.28-1.91-2.39-1.91s-1.99.61-2.36,1.91h4.75Z"/>
      <path class="cls-7" d="m276.11,108.66c.41.46.85.71,1.33.71.62,0,1.17-.46,1.17-1.05,0-.37-.22-.72-.53-.89-1.46-.82-2.21-1.16-2.21-2.28,0-1.01.78-1.69,1.75-1.69.7,0,1.22.34,1.76.86l-.53.54c-.38-.37-.77-.61-1.28-.61s-.96.37-.96.85c0,.32.2.68.49.85,1.46.85,2.28,1.18,2.28,2.33,0,1-.77,1.88-1.92,1.88-.71,0-1.43-.32-1.88-.91l.52-.59Z"/>
      <path class="cls-7" d="m235.35,122.9c-.7.84-1.57,1.25-2.57,1.25-1.86,0-3.26-1.55-3.26-3.36s1.44-3.33,3.29-3.33c1.03,0,1.91.44,2.54,1.33v-3.62h.82v8.83h-.82v-1.09Zm-4.99-2.09c0,1.38,1.08,2.59,2.51,2.59,1.31,0,2.53-.98,2.53-2.57,0-1.48-1.09-2.59-2.52-2.59s-2.52,1.2-2.52,2.57Z"/>
      <path class="cls-7" d="m238.56,120.87c.04,1.46,1.03,2.53,2.4,2.53s1.97-.76,2.43-1.52l.68.36c-.65,1.27-1.64,1.91-3.03,1.91-2.11,0-3.32-1.62-3.32-3.32s1.28-3.37,3.27-3.37c1.81,0,3.27,1.31,3.3,3.42h-5.73Zm4.83-.72c-.34-1.32-1.28-1.91-2.39-1.91s-1.99.61-2.36,1.91h4.75Z"/>
      <path class="cls-7" d="m249.02,115.16h.82v8.83h-.82v-8.83Z"/>
      <path class="cls-7" d="m256.17,117.62h.86v3.3c0,2.15-.97,3.23-2.79,3.23s-2.81-1.08-2.81-3.23v-3.3h.86v3.11c0,.67,0,1.22.18,1.61.3.65.96,1.02,1.76,1.02.59,0,1.1-.22,1.44-.56.5-.54.49-1.15.49-2.06v-3.11Z"/>
      <path class="cls-7" d="m265.03,122.7c-.62.95-1.7,1.44-2.99,1.44-2.1,0-3.5-1.51-3.5-3.29,0-1.87,1.46-3.41,3.56-3.41,1.22,0,2.34.5,2.93,1.49l-.66.41c-.56-.74-1.34-1.1-2.3-1.1-1.62,0-2.69,1.19-2.69,2.55s1.06,2.6,2.7,2.6c.92,0,1.69-.37,2.29-1.12l.66.42Z"/>
      <path class="cls-7" d="m267.14,118.54c.48-.7,1-1.09,1.64-1.09.37,0,.56.12.73.22l-.43.7c-.1-.05-.25-.12-.43-.12-.6,0-1.14.52-1.38,1.39-.11.41-.13,1.07-.13,1.93v2.42h-.86v-6.37h.86v.92Z"/>
      <path class="cls-7" d="m276.51,120.82c0,1.81-1.4,3.33-3.32,3.33s-3.32-1.52-3.32-3.33,1.42-3.37,3.32-3.37,3.32,1.55,3.32,3.37Zm-5.8.01c0,1.39,1.04,2.53,2.48,2.53s2.48-1.14,2.48-2.53-1.13-2.59-2.48-2.59-2.48,1.18-2.48,2.59Z"/>
    </g>
    <g>
      <path class="cls-7" d="m339.99,103.49c-.76-1-1.83-1.49-3.07-1.49-2.04,0-3.75,1.51-3.75,3.71s1.63,3.69,3.8,3.69c1.2,0,2.22-.49,3.02-1.43l.68.52c-.89,1.12-2.2,1.7-3.77,1.7-2.88,0-4.64-2.03-4.64-4.56s1.97-4.47,4.64-4.47c1.58,0,2.92.62,3.77,1.81l-.68.52Z"/>
      <path class="cls-7" d="m348.62,106.82c0,1.81-1.4,3.33-3.32,3.33s-3.32-1.52-3.32-3.33,1.42-3.37,3.32-3.37,3.32,1.55,3.32,3.37Zm-5.8.01c0,1.39,1.04,2.53,2.48,2.53s2.48-1.14,2.48-2.53-1.13-2.59-2.48-2.59-2.48,1.18-2.48,2.59Z"/>
      <path class="cls-7" d="m350.95,104.76c.66-.86,1.45-1.31,2.39-1.31,1.39,0,2.36.96,2.36,2.96v3.57h-.82v-3.47c0-1.5-.47-2.33-1.7-2.33-.68,0-1.25.3-1.68.86-.48.62-.55,1.25-.55,2.25v2.67h-.82v-6.37h.82v1.14Z"/>
      <path class="cls-7" d="m361.18,103.2c0-1.49.73-2.22,1.92-2.22,1.05,0,1.74.68,1.8,1.61h-.83c-.11-.53-.42-.82-.98-.82-.8,0-1.04.54-1.04,1.43v.42h1.31v.72h-1.31v5.65h-.86v-5.65h-.82v-.72h.82v-.42Zm2.9.42h.82v6.37h-.82v-6.37Z"/>
      <path class="cls-7" d="m367.44,104.76c.66-.86,1.45-1.31,2.39-1.31,1.39,0,2.36.96,2.36,2.96v3.57h-.82v-3.47c0-1.5-.47-2.33-1.7-2.33-.68,0-1.25.3-1.68.86-.48.62-.55,1.25-.55,2.25v2.67h-.82v-6.37h.82v1.14Z"/>
      <path class="cls-7" d="m374.49,106.87c.04,1.46,1.03,2.53,2.4,2.53s1.97-.75,2.43-1.52l.68.36c-.65,1.27-1.64,1.91-3.03,1.91-2.11,0-3.32-1.62-3.32-3.32s1.28-3.37,3.27-3.37c1.81,0,3.27,1.31,3.3,3.42h-5.73Zm4.83-.72c-.33-1.32-1.28-1.91-2.39-1.91s-1.99.61-2.36,1.91h4.75Z"/>
      <path class="cls-7" d="m381.66,108.66c.41.46.85.71,1.33.71.62,0,1.17-.46,1.17-1.05,0-.37-.22-.72-.53-.89-1.46-.82-2.21-1.16-2.21-2.28,0-1.01.78-1.69,1.75-1.69.7,0,1.22.34,1.76.86l-.53.54c-.38-.37-.77-.61-1.28-.61s-.96.37-.96.85c0,.32.2.68.49.85,1.46.85,2.28,1.18,2.28,2.33,0,1-.77,1.88-1.92,1.88-.71,0-1.43-.32-1.88-.91l.52-.59Z"/>
      <path class="cls-7" d="m340.9,122.9c-.7.84-1.57,1.25-2.57,1.25-1.86,0-3.26-1.55-3.26-3.36s1.44-3.33,3.29-3.33c1.03,0,1.91.44,2.54,1.33v-3.62h.82v8.83h-.82v-1.09Zm-4.99-2.09c0,1.38,1.08,2.59,2.51,2.59,1.31,0,2.53-.98,2.53-2.57,0-1.48-1.09-2.59-2.52-2.59s-2.52,1.2-2.52,2.57Z"/>
      <path class="cls-7" d="m344.11,120.87c.04,1.46,1.03,2.53,2.4,2.53s1.97-.75,2.43-1.52l.68.36c-.65,1.27-1.64,1.91-3.03,1.91-2.11,0-3.32-1.62-3.32-3.32s1.28-3.37,3.27-3.37c1.81,0,3.27,1.31,3.3,3.42h-5.73Zm4.83-.72c-.33-1.32-1.28-1.91-2.39-1.91s-1.99.61-2.36,1.91h4.75Z"/>
      <path class="cls-7" d="m354.57,115.16h.82v8.83h-.82v-8.83Z"/>
      <path class="cls-7" d="m361.72,117.62h.86v3.3c0,2.15-.97,3.23-2.79,3.23s-2.81-1.08-2.81-3.23v-3.3h.86v3.11c0,.67,0,1.22.18,1.61.3.65.96,1.02,1.76,1.02.59,0,1.1-.22,1.44-.56.5-.54.49-1.15.49-2.06v-3.11Z"/>
      <path class="cls-7" d="m370.58,122.71c-.62.95-1.7,1.44-2.99,1.44-2.1,0-3.5-1.51-3.5-3.29,0-1.87,1.46-3.41,3.56-3.41,1.22,0,2.34.5,2.93,1.49l-.66.41c-.56-.74-1.34-1.1-2.3-1.1-1.62,0-2.69,1.19-2.69,2.55s1.06,2.6,2.7,2.6c.92,0,1.69-.37,2.29-1.12l.66.42Z"/>
      <path class="cls-7" d="m372.69,118.54c.48-.7,1-1.09,1.64-1.09.37,0,.56.12.73.22l-.43.7c-.1-.05-.25-.12-.43-.12-.6,0-1.14.52-1.38,1.39-.11.41-.13,1.07-.13,1.93v2.42h-.86v-6.37h.86v.92Z"/>
      <path class="cls-7" d="m382.06,120.82c0,1.81-1.4,3.33-3.32,3.33s-3.32-1.52-3.32-3.33,1.42-3.37,3.32-3.37,3.32,1.55,3.32,3.37Zm-5.8.01c0,1.39,1.04,2.53,2.48,2.53s2.48-1.14,2.48-2.53-1.13-2.59-2.48-2.59-2.48,1.18-2.48,2.59Z"/>
    </g>
    <g>
      <path class="cls-7" d="m131.8,151.45c-.47-.61-.88-1.06-1.58-1.06-.74,0-1.16.53-1.16,1.09,0,.47.28.96.77,1.33,1.62,1.2,2.81,2.03,2.81,3.42,0,1.21-1.02,2.31-2.42,2.31-1.19,0-1.97-.66-2.6-1.82l.73-.44c.52.95,1.14,1.43,1.8,1.43.9,0,1.59-.66,1.59-1.46,0-.95-.89-1.49-2.84-3.07-.41-.32-.73-1.01-.73-1.66,0-1.19.92-2.01,2.09-2.01,1.05,0,1.69.64,2.25,1.4l-.7.54Z"/>
      <path class="cls-7" d="m140.68,155.17c0,1.81-1.4,3.33-3.32,3.33s-3.32-1.52-3.32-3.33,1.42-3.37,3.32-3.37,3.32,1.55,3.32,3.37Zm-5.8.01c0,1.39,1.04,2.53,2.48,2.53s2.48-1.14,2.48-2.53-1.13-2.59-2.48-2.59-2.48,1.18-2.48,2.59Z"/>
      <path class="cls-7" d="m148.38,157.05c-.62.95-1.7,1.44-2.99,1.44-2.1,0-3.5-1.51-3.5-3.29,0-1.87,1.46-3.41,3.56-3.41,1.22,0,2.34.5,2.93,1.49l-.66.41c-.56-.74-1.34-1.1-2.3-1.1-1.62,0-2.69,1.19-2.69,2.55s1.06,2.6,2.7,2.6c.92,0,1.69-.37,2.29-1.12l.66.42Z"/>
      <path class="cls-7" d="m150.93,150.01c0,.37-.31.68-.68.68s-.67-.31-.67-.68.31-.67.67-.67.68.3.68.67Zm-1.08,1.96h.82v6.37h-.82v-6.37Z"/>
      <path class="cls-7" d="m158.7,155.17c0,1.81-1.4,3.33-3.32,3.33s-3.32-1.52-3.32-3.33,1.42-3.37,3.32-3.37,3.32,1.55,3.32,3.37Zm-5.8.01c0,1.39,1.04,2.53,2.48,2.53s2.48-1.14,2.48-2.53-1.13-2.59-2.48-2.59-2.48,1.18-2.48,2.59Z"/>
      <path class="cls-7" d="m160.13,157c.41.46.85.71,1.33.71.62,0,1.17-.46,1.17-1.05,0-.37-.22-.72-.53-.89-1.46-.82-2.21-1.16-2.21-2.28,0-1.01.78-1.69,1.75-1.69.7,0,1.22.34,1.76.86l-.53.54c-.38-.37-.77-.61-1.28-.61s-.96.37-.96.85c0,.32.2.68.49.85,1.46.85,2.28,1.18,2.28,2.33,0,1-.77,1.88-1.92,1.88-.71,0-1.43-.32-1.88-.91l.52-.59Z"/>
    </g>
    <g>
      <path class="cls-7" d="m238.28,151.88c-.76-1-1.83-1.49-3.07-1.49-2.04,0-3.75,1.51-3.75,3.71s1.63,3.69,3.8,3.69c1.2,0,2.22-.49,3.02-1.43l.68.52c-.89,1.12-2.2,1.7-3.77,1.7-2.88,0-4.64-2.03-4.64-4.56s1.97-4.47,4.64-4.47c1.58,0,2.91.62,3.77,1.81l-.68.52Z"/>
      <path class="cls-7" d="m240.45,149.56h.82v8.83h-.82v-8.83Z"/>
      <path class="cls-7" d="m243.94,150.06c0,.37-.31.68-.68.68s-.67-.31-.67-.68.31-.67.67-.67.68.3.68.67Zm-1.08,1.96h.82v6.37h-.82v-6.37Z"/>
      <path class="cls-7" d="m245.91,155.27c.04,1.46,1.03,2.53,2.4,2.53s1.97-.75,2.43-1.52l.68.36c-.65,1.27-1.64,1.91-3.03,1.91-2.11,0-3.32-1.62-3.32-3.32s1.28-3.37,3.27-3.37c1.81,0,3.28,1.31,3.3,3.42h-5.73Zm4.83-.72c-.33-1.32-1.28-1.91-2.39-1.91s-1.99.61-2.36,1.91h4.75Z"/>
      <path class="cls-7" d="m253.99,153.16c.66-.86,1.45-1.31,2.38-1.31,1.39,0,2.36.96,2.36,2.96v3.57h-.81v-3.47c0-1.5-.47-2.33-1.7-2.33-.68,0-1.25.3-1.68.86-.48.62-.55,1.25-.55,2.25v2.67h-.82v-6.37h.82v1.14Z"/>
      <path class="cls-7" d="m261.22,149.64h.82v2.38h1.31v.72h-1.31v5.65h-.82v-5.65h-1.13v-.72h1.13v-2.38Z"/>
      <path class="cls-7" d="m265.1,155.27c.04,1.46,1.03,2.53,2.4,2.53s1.97-.75,2.43-1.52l.68.36c-.65,1.27-1.64,1.91-3.03,1.91-2.11,0-3.32-1.62-3.32-3.32s1.28-3.37,3.27-3.37c1.81,0,3.28,1.31,3.3,3.42h-5.73Zm4.83-.72c-.33-1.32-1.28-1.91-2.39-1.91s-1.99.61-2.36,1.91h4.75Z"/>
      <path class="cls-7" d="m272.27,157.05c.41.46.85.71,1.33.71.62,0,1.17-.46,1.17-1.05,0-.37-.21-.72-.53-.89-1.46-.82-2.21-1.16-2.21-2.28,0-1.01.78-1.69,1.75-1.69.7,0,1.22.34,1.76.86l-.53.54c-.38-.37-.77-.61-1.28-.61s-.96.37-.96.85c0,.32.2.68.49.85,1.46.85,2.28,1.18,2.28,2.33,0,1-.77,1.88-1.92,1.88-.71,0-1.43-.32-1.88-.91l.52-.59Z"/>
    </g>
    <g>
      <path class="cls-7" d="m343.83,151.84c-.76-1-1.83-1.49-3.07-1.49-2.04,0-3.75,1.51-3.75,3.71s1.63,3.69,3.8,3.69c1.2,0,2.22-.49,3.02-1.43l.68.52c-.89,1.12-2.2,1.7-3.77,1.7-2.88,0-4.64-2.03-4.64-4.56s1.97-4.47,4.64-4.47c1.58,0,2.92.62,3.77,1.81l-.68.52Z"/>
      <path class="cls-7" d="m346,149.51h.82v8.83h-.82v-8.83Z"/>
      <path class="cls-7" d="m349.49,150.01c0,.37-.31.68-.68.68s-.67-.31-.67-.68.31-.67.67-.67.68.3.68.67Zm-1.08,1.96h.82v6.37h-.82v-6.37Z"/>
      <path class="cls-7" d="m351.46,155.22c.04,1.46,1.03,2.53,2.4,2.53s1.97-.76,2.43-1.52l.68.36c-.65,1.27-1.64,1.91-3.03,1.91-2.11,0-3.32-1.62-3.32-3.32s1.28-3.37,3.27-3.37c1.81,0,3.27,1.31,3.3,3.42h-5.73Zm4.83-.72c-.33-1.32-1.28-1.91-2.39-1.91s-1.99.61-2.36,1.91h4.75Z"/>
      <path class="cls-7" d="m359.53,153.11c.66-.86,1.45-1.31,2.39-1.31,1.39,0,2.36.96,2.36,2.96v3.57h-.82v-3.47c0-1.5-.47-2.33-1.7-2.33-.68,0-1.25.3-1.68.86-.48.62-.55,1.25-.55,2.25v2.67h-.82v-6.37h.82v1.14Z"/>
      <path class="cls-7" d="m366.77,149.59h.82v2.38h1.31v.72h-1.31v5.65h-.82v-5.65h-1.13v-.72h1.13v-2.38Z"/>
      <path class="cls-7" d="m370.65,155.22c.04,1.46,1.03,2.53,2.4,2.53s1.97-.76,2.43-1.52l.68.36c-.65,1.27-1.64,1.91-3.03,1.91-2.11,0-3.32-1.62-3.32-3.32s1.28-3.37,3.27-3.37c1.81,0,3.27,1.31,3.3,3.42h-5.73Zm4.83-.72c-.33-1.32-1.28-1.91-2.39-1.91s-1.99.61-2.36,1.91h4.75Z"/>
      <path class="cls-7" d="m377.82,157c.41.46.85.71,1.33.71.62,0,1.17-.46,1.17-1.05,0-.37-.22-.72-.53-.89-1.46-.82-2.21-1.16-2.21-2.28,0-1.01.78-1.69,1.75-1.69.7,0,1.22.34,1.76.86l-.53.54c-.38-.37-.77-.61-1.28-.61s-.96.37-.96.85c0,.32.2.68.49.85,1.46.85,2.28,1.18,2.28,2.33,0,1-.77,1.88-1.92,1.88-.71,0-1.43-.32-1.88-.91l.52-.59Z"/>
    </g>
    <g>
      <path class="cls-7" d="m117.4,190.71c0,.98-.79,1.8-1.8,1.8s-1.8-.82-1.8-1.8.8-1.8,1.8-1.8,1.8.8,1.8,1.8Z"/>
      <path class="cls-7" d="m123.81,186.47l4.02,8.61h-.92l-1.36-2.83h-3.72l-1.34,2.83h-.96l4.08-8.61h.2Zm-.11,1.82l-1.49,3.12h2.95l-1.46-3.12Z"/>
      <path class="cls-7" d="m129.03,186.25h.82v3.6c.66-.86,1.44-1.31,2.39-1.31,1.38,0,2.35.97,2.35,2.88v3.66h-.82v-3.47c0-1.5-.46-2.33-1.69-2.33-.68,0-1.25.3-1.68.86-.47.61-.55,1.24-.55,2.25v2.67h-.82v-8.83Z"/>
      <path class="cls-7" d="m142.69,191.91c0,1.81-1.4,3.33-3.32,3.33s-3.32-1.52-3.32-3.33,1.42-3.37,3.32-3.37,3.32,1.55,3.32,3.37Zm-5.8.01c0,1.39,1.04,2.53,2.48,2.53s2.48-1.14,2.48-2.53-1.13-2.59-2.48-2.59-2.48,1.18-2.48,2.59Z"/>
      <path class="cls-7" d="m144.75,189.63c.48-.7,1-1.09,1.64-1.09.37,0,.56.12.73.22l-.43.7c-.1-.05-.25-.12-.43-.12-.6,0-1.14.52-1.38,1.39-.11.41-.13,1.07-.13,1.93v2.42h-.86v-6.37h.86v.92Z"/>
      <path class="cls-7" d="m148.36,189.63c.48-.7,1-1.09,1.64-1.09.37,0,.56.12.73.22l-.43.7c-.1-.05-.25-.12-.43-.12-.6,0-1.14.52-1.38,1.39-.11.41-.13,1.07-.13,1.93v2.42h-.86v-6.37h.86v.92Z"/>
      <path class="cls-7" d="m157.73,191.91c0,1.81-1.4,3.33-3.32,3.33s-3.32-1.52-3.32-3.33,1.42-3.37,3.32-3.37,3.32,1.55,3.32,3.37Zm-5.8.01c0,1.39,1.04,2.53,2.48,2.53s2.48-1.14,2.48-2.53-1.13-2.59-2.48-2.59-2.48,1.18-2.48,2.59Z"/>
      <path class="cls-7" d="m117.4,204.71c0,.98-.79,1.8-1.8,1.8s-1.8-.82-1.8-1.8.8-1.8,1.8-1.8,1.8.8,1.8,1.8Z"/>
      <path class="cls-7" d="m120.28,200.47h2.12c.95,0,1.82.05,2.67.4,1.55.62,2.47,2.11,2.47,4.01,0,2.46-1.49,4.21-4.26,4.21h-3.01v-8.61Zm2.14,7.77c1.63,0,2.71-.14,3.48-1.08.49-.6.76-1.38.76-2.28s-.24-1.66-.72-2.28c-.82-1.07-2.04-1.29-3.91-1.29h-.88v6.93h1.27Z"/>
      <path class="cls-7" d="m129.62,205.96c.04,1.46,1.03,2.53,2.4,2.53s1.97-.76,2.43-1.52l.68.36c-.65,1.27-1.64,1.91-3.03,1.91-2.11,0-3.32-1.62-3.32-3.32s1.28-3.37,3.27-3.37c1.81,0,3.27,1.31,3.3,3.42h-5.73Zm4.83-.72c-.33-1.32-1.28-1.91-2.39-1.91s-1.99.61-2.36,1.91h4.75Z"/>
      <path class="cls-7" d="m137.7,203.87c.64-.89,1.51-1.33,2.53-1.33,1.86,0,3.3,1.52,3.3,3.33s-1.4,3.36-3.27,3.36c-1,0-1.86-.41-2.55-1.25v3.42h-.82v-8.7h.82v1.16Zm-.06,2.05c0,1.58,1.22,2.57,2.53,2.57,1.42,0,2.52-1.2,2.52-2.59s-1.06-2.57-2.52-2.57-2.53,1.12-2.53,2.59Z"/>
      <path class="cls-7" d="m151.41,205.91c0,1.81-1.4,3.33-3.32,3.33s-3.32-1.52-3.32-3.33,1.42-3.37,3.32-3.37,3.32,1.55,3.32,3.37Zm-5.8.01c0,1.39,1.04,2.53,2.48,2.53s2.48-1.14,2.48-2.53-1.13-2.59-2.48-2.59-2.48,1.18-2.48,2.59Zm2.88-6.21h1.26l-1.74,1.81h-.8l1.28-1.81Z"/>
      <path class="cls-7" d="m152.84,207.75c.41.46.85.71,1.33.71.62,0,1.17-.46,1.17-1.05,0-.37-.22-.72-.53-.89-1.46-.82-2.21-1.16-2.21-2.28,0-1.01.78-1.69,1.75-1.69.7,0,1.22.34,1.76.86l-.53.54c-.38-.37-.77-.61-1.28-.61s-.96.37-.96.85c0,.32.2.68.49.85,1.46.85,2.28,1.18,2.28,2.33,0,1-.77,1.88-1.92,1.88-.71,0-1.43-.32-1.88-.91l.52-.59Z"/>
      <path class="cls-7" d="m158.55,200.75c0,.37-.31.68-.68.68s-.67-.31-.67-.68.31-.67.67-.67.68.3.68.67Zm-1.08,1.96h.82v6.37h-.82v-6.37Z"/>
      <path class="cls-7" d="m160.71,200.33h.82v2.38h1.31v.72h-1.31v5.65h-.82v-5.65h-1.13v-.72h1.13v-2.38Z"/>
      <path class="cls-7" d="m170.39,205.91c0,1.81-1.4,3.33-3.32,3.33s-3.32-1.52-3.32-3.33,1.42-3.37,3.32-3.37,3.32,1.55,3.32,3.37Zm-5.8.01c0,1.39,1.04,2.53,2.48,2.53s2.48-1.14,2.48-2.53-1.13-2.59-2.48-2.59-2.48,1.18-2.48,2.59Z"/>
      <path class="cls-7" d="m126.42,216.71h.8v6.37h-.8v-1.09c-.7.84-1.57,1.25-2.57,1.25-1.86,0-3.26-1.55-3.26-3.36s1.44-3.33,3.29-3.33c1.03,0,1.91.44,2.54,1.33v-1.16Zm-4.99,3.19c0,1.38,1.08,2.59,2.51,2.59,1.31,0,2.54-.98,2.54-2.57,0-1.48-1.1-2.59-2.53-2.59s-2.52,1.2-2.52,2.57Z"/>
      <path class="cls-7" d="m132.28,214.25h.82v8.83h-.82v-8.83Z"/>
      <path class="cls-7" d="m140.34,216.71h.8v6.37h-.8v-1.09c-.7.84-1.57,1.25-2.57,1.25-1.86,0-3.26-1.55-3.26-3.36s1.44-3.33,3.29-3.33c1.03,0,1.91.44,2.54,1.33v-1.16Zm-4.99,3.19c0,1.38,1.08,2.59,2.51,2.59,1.31,0,2.54-.98,2.54-2.57,0-1.48-1.1-2.59-2.53-2.59s-2.52,1.2-2.52,2.57Z"/>
      <path class="cls-7" d="m145.72,216.71h.88l2.13,4.63,2.11-4.63h.88l-2.91,6.37h-.14l-2.94-6.37Z"/>
      <path class="cls-7" d="m153.94,214.75c0,.37-.31.68-.68.68s-.67-.31-.67-.68.31-.67.67-.67.68.3.68.67Zm-1.08,1.96h.82v6.37h-.82v-6.37Z"/>
      <path class="cls-7" d="m155.28,221.75c.41.46.85.71,1.33.71.62,0,1.17-.46,1.17-1.05,0-.37-.22-.72-.53-.89-1.46-.82-2.21-1.16-2.21-2.28,0-1.01.78-1.69,1.75-1.69.7,0,1.22.34,1.76.86l-.53.54c-.38-.37-.77-.61-1.28-.61s-.96.37-.96.85c0,.32.2.68.49.85,1.46.85,2.28,1.18,2.28,2.33,0,1-.77,1.88-1.92,1.88-.71,0-1.43-.32-1.88-.91l.52-.59Z"/>
      <path class="cls-7" d="m160.76,214.33h.82v2.38h1.31v.72h-1.31v5.65h-.82v-5.65h-1.13v-.72h1.13v-2.38Z"/>
      <path class="cls-7" d="m169.63,216.71h.8v6.37h-.8v-1.09c-.7.84-1.57,1.25-2.57,1.25-1.86,0-3.26-1.55-3.26-3.36s1.44-3.33,3.29-3.33c1.03,0,1.91.44,2.54,1.33v-1.16Zm-4.99,3.19c0,1.38,1.08,2.59,2.51,2.59,1.31,0,2.54-.98,2.54-2.57,0-1.48-1.1-2.59-2.53-2.59s-2.52,1.2-2.52,2.57Z"/>
      <path class="cls-7" d="m117.4,232.71c0,.98-.79,1.8-1.8,1.8s-1.8-.82-1.8-1.8.8-1.8,1.8-1.8,1.8.8,1.8,1.8Z"/>
      <path class="cls-7" d="m120.28,228.47h1.99c.9,0,1.57.06,1.99.22.88.34,1.42,1.1,1.42,2.08,0,.82-.38,1.5-1,1.88-.61.38-1.5.43-2.69.43h-.85v4.01h-.86v-8.61Zm.86.84v2.93c.49.01.98,0,1.43,0,.74,0,1.32-.05,1.7-.36.3-.24.5-.68.5-1.12s-.22-.88-.54-1.13c-.38-.29-.9-.32-1.57-.32h-1.52Z"/>
      <path class="cls-7" d="m127.13,228.25h.82v8.83h-.82v-8.83Z"/>
      <path class="cls-7" d="m135.19,230.71h.8v6.37h-.8v-1.09c-.7.84-1.57,1.25-2.57,1.25-1.86,0-3.26-1.55-3.26-3.36s1.44-3.33,3.29-3.33c1.03,0,1.91.44,2.54,1.33v-1.16Zm-4.99,3.19c0,1.38,1.08,2.59,2.51,2.59,1.31,0,2.54-.98,2.54-2.57,0-1.48-1.1-2.59-2.53-2.59s-2.52,1.2-2.52,2.57Z"/>
      <path class="cls-7" d="m137.32,230.71h4.69l-3.61,5.65h3.49v.72h-4.91l3.61-5.65h-3.27v-.72Z"/>
      <path class="cls-7" d="m149.29,233.91c0,1.81-1.4,3.33-3.32,3.33s-3.32-1.52-3.32-3.33,1.42-3.37,3.32-3.37,3.32,1.55,3.32,3.37Zm-5.8.01c0,1.39,1.04,2.53,2.48,2.53s2.48-1.14,2.48-2.53-1.13-2.59-2.48-2.59-2.48,1.18-2.48,2.59Z"/>
      <path class="cls-7" d="m154.53,230.29c0-1.49.73-2.22,1.92-2.22,1.05,0,1.74.68,1.8,1.61h-.83c-.11-.53-.42-.82-.98-.82-.8,0-1.04.54-1.04,1.43v.42h1.31v.72h-1.31v5.65h-.86v-5.65h-.82v-.72h.82v-.42Zm2.9.42h.82v6.37h-.82v-6.37Z"/>
      <path class="cls-7" d="m159.89,230.71h.82v7.33c0,1.02-.36,1.55-1.09,1.55-.36,0-.67-.11-.92-.2v-.74c.14.07.34.16.59.16.38,0,.61-.25.61-.76v-7.33Zm1.08-1.96c0,.37-.31.68-.68.68s-.67-.31-.67-.68.3-.67.67-.67.68.3.68.67Z"/>
      <path class="cls-7" d="m168.76,233.91c0,1.81-1.4,3.33-3.32,3.33s-3.32-1.52-3.32-3.33,1.42-3.37,3.32-3.37,3.32,1.55,3.32,3.37Zm-5.8.01c0,1.39,1.04,2.53,2.48,2.53s2.48-1.14,2.48-2.53-1.13-2.59-2.48-2.59-2.48,1.18-2.48,2.59Z"/>
      <path class="cls-7" d="m117.4,246.71c0,.98-.79,1.8-1.8,1.8s-1.8-.82-1.8-1.8.8-1.8,1.8-1.8,1.8.8,1.8,1.8Z"/>
      <path class="cls-7" d="m127.62,244.58c-.76-1-1.83-1.49-3.07-1.49-2.04,0-3.75,1.51-3.75,3.71s1.63,3.69,3.8,3.69c1.2,0,2.22-.49,3.02-1.43l.68.52c-.89,1.12-2.2,1.7-3.77,1.7-2.88,0-4.64-2.03-4.64-4.56s1.97-4.47,4.64-4.47c1.58,0,2.92.62,3.77,1.81l-.68.52Z"/>
      <path class="cls-7" d="m130.45,245.63c.48-.7,1-1.09,1.64-1.09.37,0,.56.12.73.22l-.43.7c-.1-.05-.25-.12-.43-.12-.6,0-1.14.52-1.38,1.39-.11.41-.13,1.07-.13,1.93v2.42h-.86v-6.37h.86v.92Z"/>
      <path class="cls-7" d="m134.01,247.96c.04,1.46,1.03,2.53,2.4,2.53s1.97-.76,2.43-1.52l.68.36c-.65,1.27-1.64,1.91-3.03,1.91-2.11,0-3.32-1.62-3.32-3.32s1.28-3.37,3.27-3.37c1.81,0,3.27,1.31,3.3,3.42h-5.73Zm4.83-.72c-.33-1.32-1.28-1.91-2.39-1.91s-1.99.61-2.36,1.91h4.75Zm-1.99-5.53h1.26l-1.74,1.81h-.8l1.28-1.81Z"/>
      <path class="cls-7" d="m146.82,249.99c-.7.84-1.57,1.25-2.57,1.25-1.86,0-3.26-1.55-3.26-3.36s1.44-3.33,3.29-3.33c1.03,0,1.91.44,2.54,1.33v-3.62h.82v8.83h-.82v-1.09Zm-4.99-2.09c0,1.38,1.08,2.59,2.51,2.59,1.31,0,2.53-.98,2.53-2.57,0-1.48-1.09-2.59-2.52-2.59s-2.52,1.2-2.52,2.57Z"/>
      <path class="cls-7" d="m150.46,242.75c0,.37-.31.68-.68.68s-.67-.31-.67-.68.31-.67.67-.67.68.3.68.67Zm-1.08,1.96h.82v6.37h-.82v-6.37Z"/>
      <path class="cls-7" d="m152.62,242.33h.82v2.38h1.31v.72h-1.31v5.65h-.82v-5.65h-1.13v-.72h1.13v-2.38Z"/>
      <path class="cls-7" d="m162.3,247.91c0,1.81-1.4,3.33-3.32,3.33s-3.32-1.52-3.32-3.33,1.42-3.37,3.32-3.37,3.32,1.55,3.32,3.37Zm-5.8.01c0,1.39,1.04,2.53,2.48,2.53s2.48-1.14,2.48-2.53-1.13-2.59-2.48-2.59-2.48,1.18-2.48,2.59Z"/>
    </g>
    <g>
      <path class="cls-7" d="m228.69,191.01c0,.98-.79,1.8-1.8,1.8s-1.8-.82-1.8-1.8.8-1.8,1.8-1.8,1.8.8,1.8,1.8Z"/>
      <path class="cls-7" d="m235.1,186.76l4.02,8.61h-.92l-1.36-2.83h-3.72l-1.34,2.83h-.96l4.08-8.61h.2Zm-.11,1.82l-1.49,3.12h2.95l-1.46-3.12Z"/>
      <path class="cls-7" d="m240.32,186.55h.82v3.6c.66-.86,1.44-1.31,2.39-1.31,1.38,0,2.35.97,2.35,2.88v3.66h-.82v-3.47c0-1.5-.46-2.33-1.69-2.33-.68,0-1.25.3-1.68.86-.47.61-.55,1.24-.55,2.25v2.67h-.82v-8.83Z"/>
      <path class="cls-7" d="m253.99,192.21c0,1.81-1.4,3.33-3.32,3.33s-3.32-1.52-3.32-3.33,1.42-3.37,3.32-3.37,3.32,1.55,3.32,3.37Zm-5.8.01c0,1.39,1.04,2.53,2.48,2.53s2.48-1.14,2.48-2.53-1.13-2.59-2.48-2.59-2.48,1.18-2.48,2.59Z"/>
      <path class="cls-7" d="m256.04,189.93c.48-.7,1-1.09,1.64-1.09.37,0,.56.12.73.22l-.43.7c-.1-.05-.25-.12-.43-.12-.6,0-1.14.52-1.38,1.39-.11.41-.13,1.07-.13,1.93v2.42h-.86v-6.37h.86v.92Z"/>
      <path class="cls-7" d="m259.65,189.93c.48-.7,1-1.09,1.64-1.09.37,0,.56.12.73.22l-.43.7c-.1-.05-.25-.12-.43-.12-.6,0-1.14.52-1.38,1.39-.11.41-.13,1.07-.13,1.93v2.42h-.86v-6.37h.86v.92Z"/>
      <path class="cls-7" d="m269.02,192.21c0,1.81-1.4,3.33-3.32,3.33s-3.32-1.52-3.32-3.33,1.42-3.37,3.32-3.37,3.32,1.55,3.32,3.37Zm-5.8.01c0,1.39,1.04,2.53,2.48,2.53s2.48-1.14,2.48-2.53-1.13-2.59-2.48-2.59-2.48,1.18-2.48,2.59Z"/>
      <path class="cls-7" d="m228.69,205.01c0,.98-.79,1.8-1.8,1.8s-1.8-.82-1.8-1.8.8-1.8,1.8-1.8,1.8.8,1.8,1.8Z"/>
      <path class="cls-7" d="m231.57,200.76h2.12c.95,0,1.82.05,2.67.4,1.55.62,2.47,2.11,2.47,4.01,0,2.46-1.49,4.21-4.26,4.21h-3.01v-8.61Zm2.14,7.77c1.63,0,2.71-.14,3.48-1.08.49-.6.76-1.38.76-2.28s-.24-1.66-.72-2.28c-.82-1.07-2.04-1.29-3.91-1.29h-.88v6.93h1.27Z"/>
      <path class="cls-7" d="m240.91,206.25c.04,1.46,1.03,2.53,2.4,2.53s1.97-.75,2.43-1.52l.68.36c-.65,1.27-1.64,1.91-3.03,1.91-2.11,0-3.32-1.62-3.32-3.32s1.28-3.37,3.27-3.37c1.81,0,3.27,1.31,3.3,3.42h-5.73Zm4.83-.72c-.34-1.32-1.28-1.91-2.39-1.91s-1.99.61-2.36,1.91h4.75Z"/>
      <path class="cls-7" d="m249,204.17c.64-.89,1.51-1.33,2.53-1.33,1.86,0,3.3,1.52,3.3,3.33s-1.4,3.36-3.27,3.36c-1,0-1.86-.41-2.55-1.25v3.42h-.82v-8.7h.82v1.16Zm-.06,2.05c0,1.58,1.22,2.57,2.53,2.57,1.42,0,2.52-1.2,2.52-2.59s-1.06-2.57-2.52-2.57-2.53,1.12-2.53,2.59Z"/>
      <path class="cls-7" d="m262.7,206.21c0,1.81-1.4,3.33-3.32,3.33s-3.32-1.52-3.32-3.33,1.42-3.37,3.32-3.37,3.32,1.55,3.32,3.37Zm-5.8.01c0,1.39,1.04,2.53,2.48,2.53s2.48-1.14,2.48-2.53-1.13-2.59-2.48-2.59-2.48,1.18-2.48,2.59Zm2.88-6.21h1.26l-1.74,1.81h-.8l1.28-1.81Z"/>
      <path class="cls-7" d="m264.13,208.04c.41.46.85.71,1.33.71.62,0,1.17-.46,1.17-1.05,0-.37-.22-.72-.53-.89-1.46-.82-2.21-1.16-2.21-2.28,0-1.01.78-1.69,1.75-1.69.7,0,1.22.34,1.76.86l-.53.54c-.38-.37-.77-.61-1.28-.61s-.96.37-.96.85c0,.32.2.68.49.85,1.46.85,2.28,1.18,2.28,2.33,0,1-.77,1.88-1.92,1.88-.71,0-1.43-.32-1.88-.91l.52-.59Z"/>
      <path class="cls-7" d="m269.84,201.05c0,.37-.31.68-.68.68s-.67-.31-.67-.68.31-.67.67-.67.68.3.68.67Zm-1.08,1.96h.82v6.37h-.82v-6.37Z"/>
      <path class="cls-7" d="m272,200.63h.82v2.38h1.31v.72h-1.31v5.65h-.82v-5.65h-1.13v-.72h1.13v-2.38Z"/>
      <path class="cls-7" d="m281.68,206.21c0,1.81-1.4,3.33-3.32,3.33s-3.32-1.52-3.32-3.33,1.42-3.37,3.32-3.37,3.32,1.55,3.32,3.37Zm-5.8.01c0,1.39,1.04,2.53,2.48,2.53s2.48-1.14,2.48-2.53-1.13-2.59-2.48-2.59-2.48,1.18-2.48,2.59Z"/>
      <path class="cls-7" d="m237.71,217h.8v6.37h-.8v-1.09c-.7.84-1.57,1.25-2.57,1.25-1.86,0-3.26-1.55-3.26-3.36s1.44-3.33,3.29-3.33c1.03,0,1.91.44,2.54,1.33v-1.16Zm-4.99,3.19c0,1.38,1.08,2.59,2.51,2.59,1.31,0,2.54-.98,2.54-2.57,0-1.48-1.1-2.59-2.53-2.59s-2.52,1.2-2.52,2.57Z"/>
      <path class="cls-7" d="m243.57,214.55h.82v8.83h-.82v-8.83Z"/>
      <path class="cls-7" d="m251.63,217h.8v6.37h-.8v-1.09c-.7.84-1.57,1.25-2.57,1.25-1.86,0-3.26-1.55-3.26-3.36s1.44-3.33,3.29-3.33c1.03,0,1.91.44,2.54,1.33v-1.16Zm-4.99,3.19c0,1.38,1.08,2.59,2.51,2.59,1.31,0,2.54-.98,2.54-2.57,0-1.48-1.1-2.59-2.53-2.59s-2.52,1.2-2.52,2.57Z"/>
      <path class="cls-7" d="m257.01,217h.88l2.13,4.63,2.11-4.63h.88l-2.91,6.37h-.14l-2.94-6.37Z"/>
      <path class="cls-7" d="m265.23,215.05c0,.37-.31.68-.68.68s-.67-.31-.67-.68.31-.67.67-.67.68.3.68.67Zm-1.08,1.96h.82v6.37h-.82v-6.37Z"/>
      <path class="cls-7" d="m266.57,222.04c.41.46.85.71,1.33.71.62,0,1.17-.46,1.17-1.05,0-.37-.22-.72-.53-.89-1.46-.82-2.21-1.16-2.21-2.28,0-1.01.78-1.69,1.75-1.69.7,0,1.22.34,1.76.86l-.53.54c-.38-.37-.77-.61-1.28-.61s-.96.37-.96.85c0,.32.2.68.49.85,1.46.85,2.28,1.18,2.28,2.33,0,1-.77,1.88-1.92,1.88-.71,0-1.43-.32-1.88-.91l.52-.59Z"/>
      <path class="cls-7" d="m272.05,214.63h.82v2.38h1.31v.72h-1.31v5.65h-.82v-5.65h-1.13v-.72h1.13v-2.38Z"/>
      <path class="cls-7" d="m280.92,217h.8v6.37h-.8v-1.09c-.7.84-1.57,1.25-2.57,1.25-1.86,0-3.26-1.55-3.26-3.36s1.44-3.33,3.29-3.33c1.03,0,1.91.44,2.54,1.33v-1.16Zm-4.99,3.19c0,1.38,1.08,2.59,2.51,2.59,1.31,0,2.54-.98,2.54-2.57,0-1.48-1.1-2.59-2.53-2.59s-2.52,1.2-2.52,2.57Z"/>
      <path class="cls-7" d="m228.69,233.01c0,.98-.79,1.8-1.8,1.8s-1.8-.82-1.8-1.8.8-1.8,1.8-1.8,1.8.8,1.8,1.8Z"/>
      <path class="cls-7" d="m231.57,228.76h1.99c.9,0,1.57.06,1.99.22.88.34,1.42,1.1,1.42,2.08,0,.82-.38,1.5-1,1.88-.61.38-1.5.43-2.69.43h-.85v4.01h-.86v-8.61Zm.86.84v2.93c.49.01.98,0,1.43,0,.74,0,1.32-.05,1.7-.36.3-.24.5-.68.5-1.12s-.22-.88-.54-1.13c-.38-.29-.9-.32-1.57-.32h-1.52Z"/>
      <path class="cls-7" d="m238.43,228.55h.82v8.83h-.82v-8.83Z"/>
      <path class="cls-7" d="m246.49,231h.8v6.37h-.8v-1.09c-.7.84-1.57,1.25-2.57,1.25-1.86,0-3.26-1.55-3.26-3.36s1.44-3.33,3.29-3.33c1.03,0,1.91.44,2.54,1.33v-1.16Zm-4.99,3.19c0,1.38,1.08,2.59,2.51,2.59,1.31,0,2.54-.98,2.54-2.57,0-1.48-1.1-2.59-2.53-2.59s-2.52,1.2-2.52,2.57Z"/>
      <path class="cls-7" d="m248.61,231h4.69l-3.61,5.65h3.49v.72h-4.91l3.61-5.65h-3.27v-.72Z"/>
      <path class="cls-7" d="m260.59,234.21c0,1.81-1.4,3.33-3.32,3.33s-3.32-1.52-3.32-3.33,1.42-3.37,3.32-3.37,3.32,1.55,3.32,3.37Zm-5.8.01c0,1.39,1.04,2.53,2.48,2.53s2.48-1.14,2.48-2.53-1.13-2.59-2.48-2.59-2.48,1.18-2.48,2.59Z"/>
      <path class="cls-7" d="m265.82,230.58c0-1.49.73-2.22,1.92-2.22,1.05,0,1.74.68,1.8,1.61h-.83c-.11-.53-.42-.82-.98-.82-.8,0-1.04.54-1.04,1.43v.42h1.31v.72h-1.31v5.65h-.86v-5.65h-.82v-.72h.82v-.42Zm2.9.42h.82v6.37h-.82v-6.37Z"/>
      <path class="cls-7" d="m271.19,231h.82v7.33c0,1.02-.36,1.55-1.09,1.55-.36,0-.67-.11-.92-.2v-.74c.14.07.34.16.59.16.38,0,.61-.25.61-.75v-7.33Zm1.08-1.96c0,.37-.31.68-.68.68s-.67-.31-.67-.68.3-.67.67-.67.68.3.68.67Z"/>
      <path class="cls-7" d="m280.05,234.21c0,1.81-1.4,3.33-3.32,3.33s-3.32-1.52-3.32-3.33,1.42-3.37,3.32-3.37,3.32,1.55,3.32,3.37Zm-5.8.01c0,1.39,1.04,2.53,2.48,2.53s2.48-1.14,2.48-2.53-1.13-2.59-2.48-2.59-2.48,1.18-2.48,2.59Z"/>
      <path class="cls-7" d="m228.69,247.01c0,.98-.79,1.8-1.8,1.8s-1.8-.82-1.8-1.8.8-1.8,1.8-1.8,1.8.8,1.8,1.8Z"/>
      <path class="cls-7" d="m238.91,244.87c-.76-1-1.83-1.49-3.07-1.49-2.04,0-3.75,1.51-3.75,3.71s1.63,3.69,3.8,3.69c1.2,0,2.22-.49,3.02-1.43l.68.52c-.89,1.12-2.2,1.7-3.77,1.7-2.88,0-4.64-2.03-4.64-4.56s1.97-4.47,4.64-4.47c1.58,0,2.92.62,3.77,1.81l-.68.52Z"/>
      <path class="cls-7" d="m241.74,245.93c.48-.7,1-1.09,1.64-1.09.37,0,.56.12.73.22l-.43.7c-.1-.05-.25-.12-.43-.12-.6,0-1.14.52-1.38,1.39-.11.41-.13,1.07-.13,1.93v2.42h-.86v-6.37h.86v.92Z"/>
      <path class="cls-7" d="m245.3,248.25c.04,1.46,1.03,2.53,2.4,2.53s1.97-.75,2.43-1.52l.68.36c-.65,1.27-1.64,1.91-3.03,1.91-2.11,0-3.32-1.62-3.32-3.32s1.28-3.37,3.27-3.37c1.81,0,3.27,1.31,3.3,3.42h-5.73Zm4.83-.72c-.34-1.32-1.28-1.91-2.39-1.91s-1.99.61-2.36,1.91h4.75Zm-1.99-5.53h1.26l-1.74,1.81h-.8l1.28-1.81Z"/>
      <path class="cls-7" d="m258.11,250.28c-.7.84-1.57,1.25-2.57,1.25-1.86,0-3.26-1.55-3.26-3.36s1.44-3.33,3.29-3.33c1.03,0,1.91.44,2.54,1.33v-3.62h.82v8.83h-.82v-1.09Zm-4.99-2.09c0,1.38,1.08,2.59,2.51,2.59,1.31,0,2.53-.98,2.53-2.57,0-1.48-1.09-2.59-2.52-2.59s-2.52,1.2-2.52,2.57Z"/>
      <path class="cls-7" d="m261.75,243.05c0,.37-.31.68-.68.68s-.67-.31-.67-.68.31-.67.67-.67.68.3.68.67Zm-1.08,1.96h.82v6.37h-.82v-6.37Z"/>
      <path class="cls-7" d="m263.91,242.63h.82v2.38h1.31v.72h-1.31v5.65h-.82v-5.65h-1.13v-.72h1.13v-2.38Z"/>
      <path class="cls-7" d="m273.59,248.21c0,1.81-1.4,3.33-3.32,3.33s-3.32-1.52-3.32-3.33,1.42-3.37,3.32-3.37,3.32,1.55,3.32,3.37Zm-5.8.01c0,1.39,1.04,2.53,2.48,2.53s2.48-1.14,2.48-2.53-1.13-2.59-2.48-2.59-2.48,1.18-2.48,2.59Z"/>
    </g>
    <g>
      <path class="cls-7" d="m345.1,198.28c-.76-1-1.83-1.49-3.07-1.49-2.04,0-3.75,1.51-3.75,3.71s1.63,3.69,3.8,3.69c1.2,0,2.22-.49,3.02-1.43l.68.52c-.89,1.12-2.2,1.7-3.77,1.7-2.88,0-4.64-2.03-4.64-4.56s1.97-4.47,4.64-4.47c1.58,0,2.92.62,3.77,1.81l-.68.52Z"/>
      <path class="cls-7" d="m347.92,199.34c.48-.7,1-1.09,1.64-1.09.37,0,.56.12.73.22l-.43.7c-.1-.05-.25-.12-.43-.12-.6,0-1.14.52-1.38,1.39-.11.41-.13,1.07-.13,1.93v2.42h-.86v-6.37h.86v.92Z"/>
      <path class="cls-7" d="m351.49,201.67c.04,1.46,1.03,2.53,2.4,2.53s1.97-.76,2.43-1.52l.68.36c-.65,1.27-1.64,1.91-3.03,1.91-2.11,0-3.32-1.62-3.32-3.32s1.28-3.37,3.27-3.37c1.81,0,3.27,1.31,3.3,3.42h-5.73Zm4.83-.72c-.34-1.32-1.28-1.91-2.39-1.91s-1.99.61-2.36,1.91h4.75Zm-1.99-5.53h1.26l-1.74,1.81h-.8l1.28-1.81Z"/>
      <path class="cls-7" d="m364.3,203.69c-.7.84-1.57,1.25-2.57,1.25-1.86,0-3.26-1.55-3.26-3.36s1.44-3.33,3.29-3.33c1.03,0,1.91.44,2.54,1.33v-3.62h.82v8.83h-.82v-1.09Zm-4.99-2.09c0,1.38,1.08,2.59,2.51,2.59,1.31,0,2.53-.98,2.53-2.57,0-1.48-1.09-2.59-2.52-2.59s-2.52,1.2-2.52,2.57Z"/>
      <path class="cls-7" d="m367.94,196.46c0,.37-.31.68-.68.68s-.67-.31-.67-.68.31-.67.67-.67.68.3.68.67Zm-1.08,1.96h.82v6.37h-.82v-6.37Z"/>
      <path class="cls-7" d="m370.1,196.04h.82v2.38h1.31v.72h-1.31v5.65h-.82v-5.65h-1.13v-.72h1.13v-2.38Z"/>
      <path class="cls-7" d="m379.78,201.62c0,1.81-1.4,3.33-3.32,3.33s-3.32-1.52-3.32-3.33,1.42-3.37,3.32-3.37,3.32,1.55,3.32,3.37Zm-5.8.01c0,1.39,1.04,2.53,2.48,2.53s2.48-1.14,2.48-2.53-1.13-2.59-2.48-2.59-2.48,1.18-2.48,2.59Z"/>
    </g>
    <polygon class="cls-6" points="92.42 224.16 0 224.16 92.42 263.11 92.42 224.16"/>
    <polygon class="cls-6" points="0 0 0 3.87 0 7.73 0 11.6 0 46.52 417.27 46.52 417.27 11.6 417.27 7.73 417.27 3.87 417.27 0 0 0"/>
    <g>
      <path class="cls-7" d="m34.18,22.51h-3.28v-1.18h7.99v1.18h-3.3v9.6h-1.41v-9.6Z"/>
      <path class="cls-7" d="m43.3,32.12l-.11-.98h-.05c-.43.61-1.26,1.15-2.37,1.15-1.57,0-2.37-1.1-2.37-2.22,0-1.87,1.66-2.9,4.66-2.88v-.16c0-.64-.18-1.79-1.76-1.79-.72,0-1.47.22-2.02.58l-.32-.93c.64-.42,1.57-.69,2.54-.69,2.37,0,2.95,1.62,2.95,3.17v2.9c0,.67.03,1.33.13,1.86h-1.28Zm-.21-3.95c-1.54-.03-3.28.24-3.28,1.74,0,.91.61,1.34,1.33,1.34,1.01,0,1.65-.64,1.87-1.3.05-.14.08-.3.08-.45v-1.34Z"/>
      <path class="cls-7" d="m46.66,32.12c.03-.53.06-1.31.06-2v-9.36h1.39v4.87h.03c.5-.86,1.39-1.42,2.64-1.42,1.92,0,3.28,1.6,3.26,3.95,0,2.77-1.74,4.15-3.47,4.15-1.12,0-2.02-.43-2.59-1.46h-.05l-.06,1.28h-1.22Zm1.46-3.11c0,.18.03.35.06.51.27.98,1.09,1.65,2.11,1.65,1.47,0,2.35-1.2,2.35-2.98,0-1.55-.8-2.88-2.3-2.88-.96,0-1.86.66-2.15,1.73-.03.16-.08.35-.08.58v1.39Z"/>
      <path class="cls-7" d="m55.82,20.75h1.41v11.36h-1.41v-11.36Z"/>
      <path class="cls-7" d="m63.89,32.12l-.11-.98h-.05c-.43.61-1.26,1.15-2.37,1.15-1.57,0-2.37-1.1-2.37-2.22,0-1.87,1.66-2.9,4.66-2.88v-.16c0-.64-.18-1.79-1.76-1.79-.72,0-1.47.22-2.02.58l-.32-.93c.64-.42,1.57-.69,2.54-.69,2.37,0,2.95,1.62,2.95,3.17v2.9c0,.67.03,1.33.13,1.86h-1.28Zm-.21-3.95c-1.54-.03-3.28.24-3.28,1.74,0,.91.61,1.34,1.33,1.34,1.01,0,1.65-.64,1.87-1.3.05-.14.08-.3.08-.45v-1.34Z"/>
      <path class="cls-7" d="m76.22,31.83c-.37.19-1.18.45-2.22.45-2.34,0-3.86-1.58-3.86-3.95s1.63-4.11,4.16-4.11c.83,0,1.57.21,1.95.4l-.32,1.09c-.34-.19-.86-.37-1.63-.37-1.78,0-2.74,1.31-2.74,2.93,0,1.79,1.15,2.9,2.69,2.9.8,0,1.33-.21,1.73-.38l.24,1.06Z"/>
      <path class="cls-7" d="m84.78,28.18c0,2.87-1.99,4.11-3.86,4.11-2.1,0-3.71-1.54-3.71-3.99,0-2.59,1.7-4.11,3.84-4.11s3.73,1.62,3.73,3.99Zm-6.15.08c0,1.7.98,2.98,2.35,2.98s2.35-1.26,2.35-3.01c0-1.31-.66-2.98-2.32-2.98s-2.38,1.54-2.38,3.01Z"/>
      <path class="cls-7" d="m86.56,26.47c0-.8-.02-1.46-.06-2.1h1.23l.06,1.25h.05c.43-.74,1.15-1.42,2.43-1.42,1.06,0,1.86.64,2.19,1.55h.03c.24-.43.54-.77.87-1.01.46-.35.98-.54,1.71-.54,1.02,0,2.54.67,2.54,3.36v4.56h-1.38v-4.39c0-1.49-.54-2.38-1.68-2.38-.8,0-1.42.59-1.67,1.28-.06.19-.11.45-.11.7v4.79h-1.38v-4.64c0-1.23-.54-2.13-1.62-2.13-.88,0-1.52.7-1.74,1.41-.08.21-.11.45-.11.69v4.67h-1.38v-5.65Z"/>
      <path class="cls-7" d="m99.9,26.9c0-.99-.03-1.79-.06-2.53h1.26l.06,1.33h.03c.58-.94,1.49-1.5,2.75-1.5,1.87,0,3.28,1.58,3.28,3.94,0,2.79-1.7,4.16-3.52,4.16-1.02,0-1.92-.45-2.38-1.22h-.03v4.21h-1.39v-8.39Zm1.39,2.06c0,.21.03.4.06.58.26.98,1.1,1.65,2.11,1.65,1.49,0,2.35-1.22,2.35-2.99,0-1.55-.82-2.88-2.3-2.88-.96,0-1.86.69-2.13,1.75-.05.18-.1.38-.1.58v1.33Z"/>
      <path class="cls-7" d="m113.29,32.12l-.11-.98h-.05c-.43.61-1.26,1.15-2.37,1.15-1.57,0-2.37-1.1-2.37-2.22,0-1.87,1.66-2.9,4.66-2.88v-.16c0-.64-.18-1.79-1.76-1.79-.72,0-1.47.22-2.02.58l-.32-.93c.64-.42,1.57-.69,2.54-.69,2.37,0,2.95,1.62,2.95,3.17v2.9c0,.67.03,1.33.13,1.86h-1.28Zm-.21-3.95c-1.54-.03-3.28.24-3.28,1.74,0,.91.61,1.34,1.33,1.34,1.01,0,1.65-.64,1.87-1.3.05-.14.08-.3.08-.45v-1.34Z"/>
      <path class="cls-7" d="m116.72,26.79c0-.91-.02-1.7-.06-2.42h1.23l.05,1.52h.06c.35-1.04,1.2-1.7,2.14-1.7.16,0,.27.02.4.05v1.33c-.14-.03-.29-.05-.48-.05-.99,0-1.7.75-1.89,1.81-.03.19-.06.42-.06.66v4.13h-1.39v-5.33Z"/>
      <path class="cls-7" d="m126.16,32.12l-.11-.98h-.05c-.43.61-1.26,1.15-2.37,1.15-1.57,0-2.37-1.1-2.37-2.22,0-1.87,1.66-2.9,4.66-2.88v-.16c0-.64-.18-1.79-1.76-1.79-.72,0-1.47.22-2.02.58l-.32-.93c.64-.42,1.57-.69,2.54-.69,2.37,0,2.95,1.62,2.95,3.17v2.9c0,.67.03,1.33.13,1.86h-1.28Zm-.21-3.95c-1.54-.03-3.28.24-3.28,1.74,0,.91.61,1.34,1.33,1.34,1.01,0,1.65-.64,1.87-1.3.05-.14.08-.3.08-.45v-1.34Z"/>
      <path class="cls-7" d="m131.21,22.14v2.22h2.02v1.07h-2.02v4.18c0,.96.27,1.5,1.06,1.5.37,0,.64-.05.82-.1l.06,1.06c-.27.11-.7.19-1.25.19-.66,0-1.18-.21-1.52-.59-.4-.42-.54-1.1-.54-2.02v-4.23h-1.2v-1.07h1.2v-1.86l1.38-.37Z"/>
      <path class="cls-7" d="m136.38,22.19c.02.48-.34.86-.9.86-.5,0-.85-.38-.85-.86s.37-.88.88-.88.86.38.86.88Zm-1.57,9.92v-7.75h1.41v7.75h-1.41Z"/>
      <path class="cls-7" d="m139.1,24.37l1.52,4.35c.26.7.46,1.34.62,1.99h.05c.18-.64.4-1.28.66-1.99l1.5-4.35h1.47l-3.04,7.75h-1.34l-2.95-7.75h1.5Z"/>
      <path class="cls-7" d="m150.48,32.12l-.11-.98h-.05c-.43.61-1.26,1.15-2.37,1.15-1.57,0-2.37-1.1-2.37-2.22,0-1.87,1.66-2.9,4.66-2.88v-.16c0-.64-.18-1.79-1.76-1.79-.72,0-1.47.22-2.02.58l-.32-.93c.64-.42,1.57-.69,2.54-.69,2.37,0,2.95,1.62,2.95,3.17v2.9c0,.67.03,1.33.13,1.86h-1.28Zm-.21-3.95c-1.54-.03-3.28.24-3.28,1.74,0,.91.61,1.34,1.33,1.34,1.01,0,1.65-.64,1.87-1.3.05-.14.08-.3.08-.45v-1.34Z"/>
      <path class="cls-7" d="m163.98,20.75v9.36c0,.69.02,1.47.06,2h-1.26l-.06-1.34h-.03c-.43.86-1.38,1.52-2.64,1.52-1.87,0-3.31-1.58-3.31-3.94-.02-2.58,1.58-4.16,3.47-4.16,1.18,0,1.98.56,2.34,1.18h.03v-4.63h1.41Zm-1.41,6.77c0-.18-.02-.42-.06-.59-.21-.9-.98-1.63-2.03-1.63-1.46,0-2.32,1.28-2.32,2.99,0,1.57.77,2.87,2.29,2.87.95,0,1.81-.62,2.07-1.68.05-.19.06-.38.06-.61v-1.34Z"/>
      <path class="cls-7" d="m167.1,28.5c.03,1.9,1.25,2.69,2.66,2.69,1.01,0,1.62-.18,2.15-.4l.24,1.01c-.5.22-1.34.48-2.58.48-2.38,0-3.81-1.57-3.81-3.91s1.38-4.18,3.63-4.18c2.53,0,3.2,2.22,3.2,3.65,0,.29-.03.51-.05.66h-5.44Zm4.13-1.01c.02-.9-.37-2.29-1.95-2.29-1.42,0-2.05,1.31-2.16,2.29h4.11Z"/>
      <path class="cls-7" d="m177.53,30.68c.42.27,1.15.56,1.86.56,1.02,0,1.5-.51,1.5-1.15s-.4-1.04-1.44-1.42c-1.39-.5-2.05-1.26-2.05-2.19,0-1.25,1.01-2.27,2.67-2.27.78,0,1.47.22,1.9.48l-.35,1.02c-.3-.19-.86-.45-1.58-.45-.83,0-1.3.48-1.3,1.06,0,.64.46.93,1.47,1.31,1.34.51,2.03,1.18,2.03,2.34,0,1.36-1.06,2.32-2.9,2.32-.85,0-1.63-.21-2.18-.53l.35-1.07Z"/>
      <path class="cls-7" d="m191.07,28.18c0,2.87-1.99,4.11-3.86,4.11-2.1,0-3.71-1.54-3.71-3.99,0-2.59,1.7-4.11,3.84-4.11s3.73,1.62,3.73,3.99Zm-6.15.08c0,1.7.98,2.98,2.35,2.98s2.35-1.26,2.35-3.01c0-1.31-.66-2.98-2.32-2.98s-2.38,1.54-2.38,3.01Z"/>
      <path class="cls-7" d="m198.36,31.83c-.37.19-1.18.45-2.22.45-2.34,0-3.86-1.58-3.86-3.95s1.63-4.11,4.16-4.11c.83,0,1.57.21,1.95.4l-.32,1.09c-.34-.19-.86-.37-1.63-.37-1.78,0-2.74,1.31-2.74,2.93,0,1.79,1.15,2.9,2.69,2.9.8,0,1.33-.21,1.73-.38l.24,1.06Z"/>
      <path class="cls-7" d="m201.58,22.19c.02.48-.34.86-.9.86-.5,0-.85-.38-.85-.86s.37-.88.88-.88.86.38.86.88Zm-1.57,9.92v-7.75h1.41v7.75h-1.41Z"/>
      <path class="cls-7" d="m204.54,28.5c.03,1.9,1.25,2.69,2.66,2.69,1.01,0,1.62-.18,2.15-.4l.24,1.01c-.5.22-1.34.48-2.58.48-2.38,0-3.81-1.57-3.81-3.91s1.38-4.18,3.63-4.18c2.53,0,3.2,2.22,3.2,3.65,0,.29-.03.51-.05.66h-5.44Zm4.13-1.01c.02-.9-.37-2.29-1.95-2.29-1.42,0-2.05,1.31-2.16,2.29h4.11Z"/>
      <path class="cls-7" d="m218.46,20.75v9.36c0,.69.02,1.47.06,2h-1.26l-.06-1.34h-.03c-.43.86-1.38,1.52-2.64,1.52-1.87,0-3.31-1.58-3.31-3.94-.02-2.58,1.58-4.16,3.47-4.16,1.18,0,1.98.56,2.34,1.18h.03v-4.63h1.41Zm-1.41,6.77c0-.18-.02-.42-.06-.59-.21-.9-.98-1.63-2.03-1.63-1.46,0-2.32,1.28-2.32,2.99,0,1.57.77,2.87,2.29,2.87.95,0,1.81-.62,2.07-1.68.05-.19.06-.38.06-.61v-1.34Z"/>
      <path class="cls-7" d="m225.08,32.12l-.11-.98h-.05c-.43.61-1.26,1.15-2.37,1.15-1.57,0-2.37-1.1-2.37-2.22,0-1.87,1.66-2.9,4.66-2.88v-.16c0-.64-.18-1.79-1.76-1.79-.72,0-1.47.22-2.02.58l-.32-.93c.64-.42,1.57-.69,2.54-.69,2.37,0,2.95,1.62,2.95,3.17v2.9c0,.67.03,1.33.13,1.86h-1.28Zm-.21-3.95c-1.54-.03-3.28.24-3.28,1.74,0,.91.61,1.34,1.33,1.34,1.01,0,1.65-.64,1.87-1.3.05-.14.08-.3.08-.45v-1.34Z"/>
      <path class="cls-7" d="m235.2,20.75v9.36c0,.69.02,1.47.06,2h-1.26l-.06-1.34h-.03c-.43.86-1.38,1.52-2.64,1.52-1.87,0-3.31-1.58-3.31-3.94-.02-2.58,1.58-4.16,3.47-4.16,1.18,0,1.98.56,2.34,1.18h.03v-4.63h1.41Zm-1.41,6.77c0-.18-.02-.42-.06-.59-.21-.9-.98-1.63-2.03-1.63-1.46,0-2.32,1.28-2.32,2.99,0,1.57.77,2.87,2.29,2.87.95,0,1.81-.62,2.07-1.68.05-.19.06-.38.06-.61v-1.34Z"/>
      <path class="cls-7" d="m238.32,28.5c.03,1.9,1.25,2.69,2.66,2.69,1.01,0,1.62-.18,2.15-.4l.24,1.01c-.5.22-1.34.48-2.58.48-2.38,0-3.81-1.57-3.81-3.91s1.38-4.18,3.63-4.18c2.53,0,3.2,2.22,3.2,3.65,0,.29-.03.51-.05.66h-5.44Zm4.13-1.01c.02-.9-.37-2.29-1.95-2.29-1.42,0-2.05,1.31-2.16,2.29h4.11Z"/>
      <path class="cls-7" d="m245.35,30.68c.42.27,1.15.56,1.86.56,1.02,0,1.5-.51,1.5-1.15s-.4-1.04-1.44-1.42c-1.39-.5-2.05-1.26-2.05-2.19,0-1.25,1.01-2.27,2.67-2.27.78,0,1.47.22,1.9.48l-.35,1.02c-.3-.19-.86-.45-1.58-.45-.83,0-1.3.48-1.3,1.06,0,.64.46.93,1.47,1.31,1.34.51,2.03,1.18,2.03,2.34,0,1.36-1.06,2.32-2.9,2.32-.85,0-1.63-.21-2.18-.53l.35-1.07Z"/>
      <path class="cls-7" d="m255.42,32.12v-6.67h-1.09v-1.07h1.09v-.42c0-2.05,1.2-3.38,3.38-3.38.72,0,1.57.22,1.97.51l-.4,1.07c-.34-.24-.94-.45-1.63-.45-1.49,0-1.92,1.04-1.92,2.27v.38h4.5v7.75h-1.39v-6.67h-3.11v6.67h-1.39Z"/>
      <path class="cls-7" d="m263.64,26.47c0-.8-.02-1.46-.06-2.1h1.25l.08,1.28h.03c.38-.74,1.28-1.46,2.56-1.46,1.07,0,2.74.64,2.74,3.3v4.63h-1.41v-4.47c0-1.25-.46-2.29-1.79-2.29-.93,0-1.65.66-1.89,1.44-.06.18-.1.42-.1.66v4.66h-1.41v-5.65Z"/>
      <path class="cls-7" d="m276.81,32.12l-.11-.98h-.05c-.43.61-1.26,1.15-2.37,1.15-1.57,0-2.37-1.1-2.37-2.22,0-1.87,1.66-2.9,4.66-2.88v-.16c0-.64-.18-1.79-1.76-1.79-.72,0-1.47.22-2.02.58l-.32-.93c.64-.42,1.57-.69,2.54-.69,2.37,0,2.95,1.62,2.95,3.17v2.9c0,.67.03,1.33.13,1.86h-1.28Zm-.21-3.95c-1.54-.03-3.28.24-3.28,1.74,0,.91.61,1.34,1.33,1.34,1.01,0,1.65-.64,1.87-1.3.05-.14.08-.3.08-.45v-1.34Z"/>
      <path class="cls-7" d="m280.23,26.47c0-.8-.02-1.46-.06-2.1h1.25l.08,1.28h.03c.38-.74,1.28-1.46,2.56-1.46,1.07,0,2.74.64,2.74,3.3v4.63h-1.41v-4.47c0-1.25-.46-2.29-1.79-2.29-.93,0-1.65.66-1.89,1.44-.06.18-.1.42-.1.66v4.66h-1.41v-5.65Z"/>
      <path class="cls-7" d="m294.64,31.83c-.37.19-1.18.45-2.22.45-2.34,0-3.86-1.58-3.86-3.95s1.63-4.11,4.16-4.11c.83,0,1.57.21,1.95.4l-.32,1.09c-.34-.19-.86-.37-1.63-.37-1.78,0-2.74,1.31-2.74,2.93,0,1.79,1.15,2.9,2.69,2.9.8,0,1.33-.21,1.73-.38l.24,1.06Z"/>
      <path class="cls-7" d="m297.85,22.19c.02.48-.34.86-.9.86-.5,0-.85-.38-.85-.86s.37-.88.88-.88.86.38.86.88Zm-1.57,9.92v-7.75h1.41v7.75h-1.41Z"/>
      <path class="cls-7" d="m300.81,28.5c.03,1.9,1.25,2.69,2.66,2.69,1.01,0,1.62-.18,2.15-.4l.24,1.01c-.5.22-1.34.48-2.58.48-2.38,0-3.81-1.57-3.81-3.91s1.38-4.18,3.63-4.18c2.53,0,3.2,2.22,3.2,3.65,0,.29-.03.51-.05.66h-5.44Zm4.13-1.01c.02-.9-.37-2.29-1.95-2.29-1.42,0-2.05,1.31-2.16,2.29h4.11Z"/>
      <path class="cls-7" d="m308.04,26.79c0-.91-.02-1.7-.06-2.42h1.23l.05,1.52h.06c.35-1.04,1.2-1.7,2.14-1.7.16,0,.27.02.4.05v1.33c-.14-.03-.29-.05-.48-.05-.99,0-1.7.75-1.89,1.81-.03.19-.06.42-.06.66v4.13h-1.39v-5.33Z"/>
      <path class="cls-7" d="m317.48,32.12l-.11-.98h-.05c-.43.61-1.26,1.15-2.37,1.15-1.57,0-2.37-1.1-2.37-2.22,0-1.87,1.66-2.9,4.66-2.88v-.16c0-.64-.18-1.79-1.76-1.79-.72,0-1.47.22-2.02.58l-.32-.93c.64-.42,1.57-.69,2.54-.69,2.37,0,2.95,1.62,2.95,3.17v2.9c0,.67.03,1.33.13,1.86h-1.28Zm-.21-3.95c-1.54-.03-3.28.24-3.28,1.74,0,.91.61,1.34,1.33,1.34,1.01,0,1.65-.64,1.87-1.3.05-.14.08-.3.08-.45v-1.34Z"/>
      <path class="cls-7" d="m320.71,30.68c.42.27,1.15.56,1.86.56,1.02,0,1.5-.51,1.5-1.15s-.4-1.04-1.44-1.42c-1.39-.5-2.05-1.26-2.05-2.19,0-1.25,1.01-2.27,2.67-2.27.78,0,1.47.22,1.9.48l-.35,1.02c-.3-.19-.86-.45-1.58-.45-.83,0-1.3.48-1.3,1.06,0,.64.46.93,1.47,1.31,1.34.51,2.03,1.18,2.03,2.34,0,1.36-1.06,2.32-2.9,2.32-.85,0-1.63-.21-2.18-.53l.35-1.07Z"/>
    </g>
  </g>
</svg>