<?xml version="1.0" encoding="UTF-8"?>
<svg id="Capa_2" data-name="Capa 2" xmlns="http://www.w3.org/2000/svg" viewBox="0 0 80.32 115.05">
  <defs>
    <style>
      .cls-1 {
        fill: #fff;
      }

      .cls-2 {
        fill: #3765ae;
      }
    </style>
  </defs>
  <g id="Capa_1-2" data-name="Capa 1">
    <path class="cls-2" d="m33.24.29C15.21.29.6,14.9.6,32.93s14.62,32.64,32.64,32.64,32.64-14.62,32.64-32.64S51.27.29,33.24.29Zm-.18,59.95c-14.91,0-26.99-12.08-26.99-26.99S18.16,6.25,33.06,6.25s26.99,12.08,26.99,26.99-12.08,26.99-26.99,26.99Z"/>
    <path class="cls-2" d="m11.54,22.66c-.4,0-.81.22-.93.66-.05.2-.13.39-.21.59-.04.1-.08.19-.11.29-.23.65-.41,1.24-.56,1.81-.14.53-.25,1.08-.36,1.7l-.03.18c-.1.53-.17.95.03,1.36.09.18.28.32.52.39.26.07.53.04.71-.07.3-.2.39-.63.44-.84,0-.04.02-.07.03-.1.01-.09.03-.17.06-.24.02-.11.04-.22.06-.33.12-.64.25-1.21.39-1.73.15-.57.34-1.15.56-1.76.04-.1.08-.2.12-.31.06-.14.12-.28.15-.42.06-.25.02-.53-.12-.76-.12-.2-.3-.34-.5-.38-.08-.02-.16-.03-.24-.03Z"/>
    <path class="cls-2" d="m10.57,36.13c-.07,0-.15,0-.21.03-.59.16-.71.72-.64,1.2.88,5.4,4.04,10.99,8.46,14.97,1.59,1.43,3.4,2.73,5.39,3.88.3.17.59.18.86.03.31-.18.53-.56.53-.92,0-.3-.15-.54-.44-.71h0c-2.95-1.7-5.45-3.73-7.41-6.04-.15-.17-.29-.35-.43-.52l-.14-.17s-.03-.03-.05-.05c-.02-.03-.04-.05-.05-.07l-.51-.67c-.88-1.18-1.69-2.53-2.46-4.15-.99-2.06-1.66-4.13-1.98-6.15-.04-.23-.22-.38-.33-.45-.18-.11-.4-.18-.59-.18Z"/>
    <g>
      <path class="cls-1" d="m56.45,70.06c.05-.03.11-.06.16-.09l-4.92-9.6c-.26.22-.52.42-.81.61l4.85,9.46c.23-.16.47-.29.72-.38Z"/>
      <path class="cls-1" d="m52.19,72.14l-4.71-9.19c-.32.13-.64.24-.96.32l4.83,9.42c.27-.2.55-.38.85-.54Z"/>
      <path class="cls-1" d="m71.75,115.05s-.1,0-.15-.02c-.13-.04-.23-.13-.29-.24l-21.74-40.89c-.13-.24-.04-.55.21-.68l8.07-4.29c.12-.06.25-.08.38-.04.13.04.23.13.29.24l21.74,40.9c.06.12.08.25.04.38-.04.13-.13.23-.24.29l-8.07,4.29c-.07.04-.15.06-.23.06Zm-21.06-41.19l21.27,40.01,7.19-3.82-21.27-40.01-7.18,3.82Z"/>
      <path class="cls-1" d="m33.15,66.31C14.87,66.31,0,51.43,0,33.15S14.87,0,33.15,0s33.15,14.87,33.15,33.15-14.87,33.15-33.15,33.15Zm0-65.31C15.42,1,1,15.42,1,33.15s14.42,32.15,32.15,32.15,32.15-14.42,32.15-32.15S50.88,1,33.15,1Zm0,59.62c-15.15,0-27.47-12.32-27.47-27.47S18.01,5.68,33.15,5.68s27.47,12.32,27.47,27.47-12.32,27.47-27.47,27.47Zm0-53.94c-14.6,0-26.47,11.88-26.47,26.47s11.88,26.47,26.47,26.47,26.47-11.88,26.47-26.47S47.75,6.68,33.15,6.68Z"/>
      <path class="cls-1" d="m10.25,30.54c-.18,0-.37-.02-.55-.07-.52-.14-.94-.48-1.15-.91-.35-.71-.23-1.36-.12-1.98l.03-.17c.11-.64.24-1.22.38-1.77.15-.6.35-1.22.58-1.9.04-.11.08-.22.13-.33.06-.15.13-.3.17-.46.26-1,1.29-1.6,2.35-1.36.47.11.87.4,1.13.84.28.47.37,1.02.24,1.53-.05.19-.12.37-.2.55-.04.09-.07.18-.1.26-.21.59-.38,1.14-.53,1.68-.13.5-.26,1.04-.37,1.65-.03.17-.06.34-.09.51.02.13-.02.25-.1.35-.1.39-.3.96-.83,1.31-.28.18-.62.27-.98.27Zm1.37-8.01c-.4,0-.81.22-.93.66-.05.2-.13.39-.21.59-.04.1-.08.19-.11.29-.23.65-.41,1.24-.56,1.81-.14.53-.25,1.08-.36,1.7l-.03.18c-.1.53-.17.95.03,1.36.09.18.28.32.52.39.26.07.53.04.71-.07.3-.2.39-.63.44-.84,0-.04.02-.07.03-.1.01-.09.03-.17.06-.24.02-.11.04-.22.06-.33.12-.64.25-1.21.39-1.73.15-.57.34-1.15.56-1.76.04-.1.08-.2.12-.31.06-.14.12-.28.15-.42.06-.25.02-.53-.12-.76-.12-.2-.3-.34-.5-.38-.08-.02-.16-.03-.24-.03Z"/>
      <path class="cls-1" d="m24.03,57.35c-.32,0-.65-.09-.96-.27-2.05-1.18-3.92-2.52-5.56-4-4.66-4.19-7.86-9.86-8.78-15.55-.18-1.1.38-2.05,1.36-2.32.52-.14,1.13-.04,1.61.27.43.27.7.67.77,1.13.31,1.93.95,3.91,1.9,5.88.75,1.56,1.52,2.86,2.36,3.98l.53.7s0,0,0,0c0,0,0,0,0,0l.19.23c.14.17.28.34.42.51,1.88,2.22,4.29,4.18,7.14,5.82h0c.6.35.94.92.94,1.58,0,.72-.4,1.42-1.03,1.78-.28.16-.59.24-.89.24Zm-13.47-21.21c-.07,0-.15,0-.21.03-.59.16-.71.72-.64,1.2.88,5.4,4.04,10.99,8.46,14.97,1.59,1.43,3.4,2.73,5.39,3.88.3.17.59.18.86.03.31-.18.53-.56.53-.92,0-.3-.15-.54-.44-.71h0c-2.95-1.7-5.45-3.73-7.41-6.04-.15-.17-.29-.35-.43-.52l-.14-.17s-.03-.03-.05-.05c-.02-.03-.04-.05-.05-.07l-.51-.67c-.88-1.18-1.69-2.53-2.46-4.15-.99-2.06-1.66-4.13-1.98-6.15-.04-.23-.22-.38-.33-.45-.18-.11-.4-.18-.59-.18Z"/>
    </g>
  </g>
</svg>