<?xml version="1.0" encoding="UTF-8"?><svg id="Capa_2" xmlns="http://www.w3.org/2000/svg" viewBox="0 0 1311.9 1406.83"><defs><style>.cls-1{fill:#3066bb;}.cls-1,.cls-2,.cls-3{fill-rule:evenodd;stroke-width:0px;}.cls-2{fill:#abe9ec;}.cls-3{fill:#fff;}</style></defs><g id="Capa_1-2"><polygon class="cls-3" points="808.55 0 1311.9 1023.6 503.36 1406.83 0 383.23 808.55 0"/><polygon class="cls-1" points="229 633.56 132.08 436.52 154.53 425.88 251.45 622.92 229 633.56"/><polygon class="cls-2" points="200.49 519.32 222.94 508.68 273.75 611.97 251.29 622.61 200.49 519.32"/><polygon class="cls-1" points="252.51 458.62 274.96 447.99 340.31 580.83 317.85 591.47 252.51 458.62"/><polygon class="cls-2" points="340.15 580.51 257.3 412.07 279.75 401.43 362.6 569.87 340.15 580.51"/><polygon class="cls-1" points="403.18 551.04 306.26 354 328.72 343.36 425.63 540.41 403.18 551.04"/><polygon class="cls-2" points="397.13 426.16 447.93 529.45 425.48 540.09 374.67 436.8 397.13 426.16"/><polygon class="cls-1" points="483.7 512.9 421.17 385.77 443.62 375.14 506.15 502.26 483.7 512.9"/><polygon class="cls-2" points="505.99 501.94 432.52 352.57 454.97 341.94 528.45 491.3 505.99 501.94"/><polygon class="cls-1" points="520.59 370.81 543.05 360.17 591.19 458.05 568.74 468.69 520.59 370.81"/><polygon class="cls-2" points="591.04 457.73 508.19 289.29 530.64 278.66 613.49 447.1 591.04 457.73"/><polygon class="cls-1" points="628.7 365.44 651.15 354.8 680.86 415.18 658.4 425.82 628.7 365.44"/><polygon class="cls-2" points="703.31 404.54 680.86 415.18 630.05 311.89 652.51 301.26 703.31 404.54"/><path class="cls-2" d="M379.51,740.95c23.41-10.83,47.21-12.05,71.38-3.64,13.68,4.75,25.26,11.67,34.74,20.77l-67.76,70.5-38.36-87.63Z"/><path class="cls-1" d="M485.63,758.08c7.9,7.49,14.46,16.53,19.67,27.12,11.47,23.31,12.87,47.07,4.21,71.29-8.33,24.32-24.27,42.06-47.79,53.21-23.52,11.14-47.69,12.4-72.5,3.78-24.49-8.51-42.47-24.42-53.93-47.73-11.46-23.3-13.02-47.12-4.69-71.45,8.66-24.22,24.75-41.9,48.27-53.04.22-.1.43-.2.64-.31l38.36,87.63,67.76-70.5Z"/><path class="cls-2" d="M643.27,1148.54l-74.09-58.16-1.94,1.7-38.36-87.63c23.41-10.83,47.21-12.04,71.38-3.64,13.68,4.76,25.26,11.68,34.74,20.77,7.9,7.49,14.46,16.53,19.67,27.12,11.47,23.31,12.87,47.07,4.21,71.29-3.62,10.86-8.83,20.38-15.62,28.56Z"/><path class="cls-1" d="M528.89,1004.44l38.36,87.63,1.94-1.7,74.09,58.16c-8.4,10.25-19.13,18.46-32.18,24.65-23.52,11.14-47.69,12.41-72.5,3.78-24.49-8.51-42.47-24.42-53.93-47.73-11.46-23.31-13.02-47.12-4.69-71.45,8.66-24.22,24.75-41.9,48.27-53.04.21-.1.43-.2.64-.3Z"/><polygon class="cls-1" points="761.37 377.04 664.45 180 686.91 169.36 783.82 366.4 761.37 377.04"/><polygon class="cls-2" points="806.12 355.45 783.67 366.08 732.86 262.8 755.32 252.16 806.12 355.45"/><polygon class="cls-1" points="929.64 511.67 531.88 700.11 519.37 674.69 917.13 486.25 929.64 511.67"/><polygon class="cls-1" points="953.09 559.34 555.32 747.78 542.82 722.36 940.58 533.92 953.09 559.34"/><polygon class="cls-1" points="881.87 655.78 580.33 798.64 567.83 773.21 869.36 630.36 881.87 655.78"/><polygon class="cls-1" points="652.71 945.78 934.99 812.05 947.5 837.47 665.21 971.21 652.71 945.78"/><polygon class="cls-1" points="676.16 993.45 1073.92 805.01 1086.43 830.44 688.66 1018.88 676.16 993.45"/><polygon class="cls-1" points="701.17 1044.3 1002.7 901.45 1015.2 926.88 713.67 1069.73 701.17 1044.3"/><polygon class="cls-1" points="915.51 1028.97 735.56 1114.22 723.05 1088.8 903.01 1003.54 915.51 1028.97"/></g></svg>