<?xml version="1.0" encoding="UTF-8"?><svg xmlns="http://www.w3.org/2000/svg" viewBox="0 0 625.25 985.53"><defs><style>.cls-1,.cls-2{fill:#0b7777;}.cls-1,.cls-2,.cls-3,.cls-4,.cls-5,.cls-6,.cls-7,.cls-8{stroke-width:0px;}.cls-1,.cls-3,.cls-9{opacity:.3;}.cls-3,.cls-9{mix-blend-mode:multiply;}.cls-3,.cls-8{fill:#326c8e;}.cls-4{fill:#219896;}.cls-5{fill:#003736;}.cls-10{isolation:isolate;}.cls-6{fill:#606060;opacity:.1;}.cls-7{fill:#96d3d2;}</style></defs><g class="cls-10"><g id="Capa_2"><g id="Capa_1-2"><path class="cls-2" d="M607.14,59.94v850.56c0,33.1-26.84,59.94-59.94,59.94H59.94c-33.13,0-59.94-26.84-59.94-59.94V59.94C0,26.81,26.81,0,59.94,0h487.26c33.1,0,59.94,26.81,59.94,59.94Z"/><path class="cls-6" d="M625.25,75.03v850.56c0,33.1-26.84,59.94-59.94,59.94H78.05c-33.13,0-59.94-26.84-59.94-59.94V75.03c0-33.13,26.81-59.94,59.94-59.94h487.26c33.1,0,59.94,26.81,59.94,59.94Z"/><path class="cls-3" d="M595.24,96.87v816.29c0,25.02-20.35,45.38-45.38,45.38H57.28c-25.02,0-45.38-20.35-45.38-45.38v-319.02c295.96-119.5,530.17-219.59,583.34-497.28Z"/><path class="cls-5" d="M59.64,54.09h493.89c3.67,0,6.66,2.98,6.66,6.66v150.53c0,3.67-2.98,6.66-6.66,6.66H59.64c-3.67,0-6.66-2.98-6.66-6.66V60.75c0-3.67,2.98-6.66,6.66-6.66Z"/><path class="cls-7" d="M56.62,51.07h493.89c3.67,0,6.66,2.98,6.66,6.66v150.53c0,3.67-2.98,6.66-6.66,6.66H56.62c-3.67,0-6.66-2.98-6.66-6.66V57.73c0-3.67,2.98-6.66,6.66-6.66Z"/><path class="cls-1" d="M56,200.85v-123.64c0-11.1,9-20.1,20.1-20.1h467c4.01,0,7.73,1.18,10.86,3.2-3.58-5.55-9.8-9.24-16.9-9.24H70.07c-11.1,0-20.1,9-20.1,20.1v123.64c0,7.1,3.69,13.32,9.24,16.9-2.02-3.13-3.2-6.86-3.2-10.86Z"/><rect class="cls-5" x="59.02" y="274.14" width="109.95" height="75.13" rx="3.34" ry="3.34"/><rect class="cls-5" x="191.44" y="274.14" width="109.95" height="75.13" rx="3.34" ry="3.34"/><rect class="cls-5" x="323.86" y="274.14" width="109.95" height="75.13" rx="3.34" ry="3.34"/><rect class="cls-5" x="456.28" y="274.14" width="109.95" height="75.13" rx="3.34" ry="3.34"/><rect class="cls-5" x="59.02" y="391.56" width="110.05" height="110.05" rx="3.34" ry="3.34"/><rect class="cls-5" x="191.39" y="391.56" width="110.05" height="110.05" rx="3.34" ry="3.34"/><rect class="cls-5" x="323.76" y="391.56" width="110.05" height="110.05" rx="3.34" ry="3.34"/><rect class="cls-5" x="456.12" y="391.56" width="110.05" height="110.05" rx="3.34" ry="3.34"/><rect class="cls-5" x="59.02" y="530.73" width="110.05" height="110.05" rx="3.34" ry="3.34"/><rect class="cls-5" x="191.39" y="530.73" width="110.05" height="110.05" rx="3.34" ry="3.34"/><rect class="cls-5" x="323.76" y="530.73" width="110.05" height="110.05" rx="3.34" ry="3.34"/><rect class="cls-5" x="456.12" y="530.73" width="110.05" height="110.05" rx="3.34" ry="3.34"/><rect class="cls-5" x="59.02" y="669.9" width="110.05" height="110.05" rx="3.34" ry="3.34"/><rect class="cls-5" x="191.39" y="669.9" width="110.05" height="110.05" rx="3.34" ry="3.34"/><rect class="cls-5" x="323.76" y="669.9" width="110.05" height="110.05" rx="3.34" ry="3.34"/><rect class="cls-5" x="456.12" y="669.9" width="110.05" height="110.05" rx="3.34" ry="3.34"/><rect class="cls-5" x="59.02" y="809.08" width="110.05" height="110.05" rx="3.34" ry="3.34"/><rect class="cls-5" x="191.39" y="809.08" width="110.05" height="110.05" rx="3.34" ry="3.34"/><rect class="cls-5" x="323.76" y="809.08" width="110.05" height="110.05" rx="3.34" ry="3.34"/><rect class="cls-5" x="456.12" y="809.08" width="110.05" height="110.05" rx="3.34" ry="3.34"/><rect class="cls-4" x="49.96" y="268.1" width="109.95" height="75.13" rx="3.34" ry="3.34"/><rect class="cls-4" x="182.38" y="268.1" width="109.95" height="75.13" rx="3.34" ry="3.34"/><rect class="cls-4" x="314.8" y="268.1" width="109.95" height="75.13" rx="3.34" ry="3.34"/><rect class="cls-4" x="447.22" y="268.1" width="109.95" height="75.13" rx="3.34" ry="3.34"/><rect class="cls-7" x="49.96" y="385.52" width="110.05" height="110.05" rx="3.34" ry="3.34"/><rect class="cls-7" x="182.33" y="385.52" width="110.05" height="110.05" rx="3.34" ry="3.34"/><rect class="cls-7" x="314.7" y="385.52" width="110.05" height="110.05" rx="3.34" ry="3.34"/><rect class="cls-7" x="447.07" y="385.52" width="110.05" height="110.05" rx="3.34" ry="3.34"/><rect class="cls-7" x="49.96" y="524.69" width="110.05" height="110.05" rx="3.34" ry="3.34"/><rect class="cls-7" x="182.33" y="524.69" width="110.05" height="110.05" rx="3.34" ry="3.34"/><rect class="cls-7" x="314.7" y="524.69" width="110.05" height="110.05" rx="3.34" ry="3.34"/><rect class="cls-7" x="447.07" y="524.69" width="110.05" height="110.05" rx="3.34" ry="3.34"/><rect class="cls-7" x="49.96" y="663.86" width="110.05" height="110.05" rx="3.34" ry="3.34"/><rect class="cls-7" x="182.33" y="663.86" width="110.05" height="110.05" rx="3.34" ry="3.34"/><rect class="cls-7" x="314.7" y="663.86" width="110.05" height="110.05" rx="3.34" ry="3.34"/><rect class="cls-7" x="447.07" y="663.86" width="110.05" height="110.05" rx="3.34" ry="3.34"/><rect class="cls-7" x="49.96" y="803.04" width="110.05" height="110.05" rx="3.34" ry="3.34"/><rect class="cls-7" x="182.33" y="803.04" width="110.05" height="110.05" rx="3.34" ry="3.34"/><rect class="cls-7" x="314.7" y="803.04" width="110.05" height="110.05" rx="3.34" ry="3.34"/><rect class="cls-7" x="447.07" y="803.04" width="110.05" height="110.05" rx="3.34" ry="3.34"/><g class="cls-9"><path class="cls-8" d="M156.57,270.1c.74,0,1.34.6,1.34,1.34v68.44c0,.74-.6,1.34-1.34,1.34H53.31c-.74,0-1.34-.6-1.34-1.34v-68.44c0-.74.6-1.34,1.34-1.34h103.26M156.57,268.1H53.31c-1.85,0-3.34,1.5-3.34,3.34v68.44c0,1.85,1.5,3.34,3.34,3.34h103.26c1.85,0,3.34-1.5,3.34-3.34v-68.44c0-1.85-1.5-3.34-3.34-3.34h0Z"/><path class="cls-8" d="M288.99,270.1c.74,0,1.34.6,1.34,1.34v68.44c0,.74-.6,1.34-1.34,1.34h-103.26c-.74,0-1.34-.6-1.34-1.34v-68.44c0-.74.6-1.34,1.34-1.34h103.26M288.99,268.1h-103.26c-1.85,0-3.34,1.5-3.34,3.34v68.44c0,1.85,1.5,3.34,3.34,3.34h103.26c1.85,0,3.34-1.5,3.34-3.34v-68.44c0-1.85-1.5-3.34-3.34-3.34h0Z"/><path class="cls-8" d="M421.41,270.1c.74,0,1.34.6,1.34,1.34v68.44c0,.74-.6,1.34-1.34,1.34h-103.26c-.74,0-1.34-.6-1.34-1.34v-68.44c0-.74.6-1.34,1.34-1.34h103.26M421.41,268.1h-103.26c-1.85,0-3.34,1.5-3.34,3.34v68.44c0,1.85,1.5,3.34,3.34,3.34h103.26c1.85,0,3.34-1.5,3.34-3.34v-68.44c0-1.85-1.5-3.34-3.34-3.34h0Z"/><path class="cls-8" d="M553.83,270.1c.74,0,1.34.6,1.34,1.34v68.44c0,.74-.6,1.34-1.34,1.34h-103.26c-.74,0-1.34-.6-1.34-1.34v-68.44c0-.74.6-1.34,1.34-1.34h103.26M553.83,268.1h-103.26c-1.85,0-3.34,1.5-3.34,3.34v68.44c0,1.85,1.5,3.34,3.34,3.34h103.26c1.85,0,3.34-1.5,3.34-3.34v-68.44c0-1.85-1.5-3.34-3.34-3.34h0Z"/></g><g class="cls-9"><path class="cls-8" d="M156.68,387.52c.74,0,1.34.6,1.34,1.34v103.37c0,.74-.6,1.34-1.34,1.34H53.31c-.74,0-1.34-.6-1.34-1.34v-103.37c0-.74.6-1.34,1.34-1.34h103.37M156.68,385.52H53.31c-1.85,0-3.34,1.5-3.34,3.34v103.37c0,1.85,1.5,3.34,3.34,3.34h103.37c1.85,0,3.34-1.5,3.34-3.34v-103.37c0-1.85-1.5-3.34-3.34-3.34h0Z"/><path class="cls-8" d="M289.04,387.52c.74,0,1.34.6,1.34,1.34v103.37c0,.74-.6,1.34-1.34,1.34h-103.37c-.74,0-1.34-.6-1.34-1.34v-103.37c0-.74.6-1.34,1.34-1.34h103.37M289.04,385.52h-103.37c-1.85,0-3.34,1.5-3.34,3.34v103.37c0,1.85,1.5,3.34,3.34,3.34h103.37c1.85,0,3.34-1.5,3.34-3.34v-103.37c0-1.85-1.5-3.34-3.34-3.34h0Z"/><path class="cls-8" d="M421.41,387.52c.74,0,1.34.6,1.34,1.34v103.37c0,.74-.6,1.34-1.34,1.34h-103.37c-.74,0-1.34-.6-1.34-1.34v-103.37c0-.74.6-1.34,1.34-1.34h103.37M421.41,385.52h-103.37c-1.85,0-3.34,1.5-3.34,3.34v103.37c0,1.85,1.5,3.34,3.34,3.34h103.37c1.85,0,3.34-1.5,3.34-3.34v-103.37c0-1.85-1.5-3.34-3.34-3.34h0Z"/><path class="cls-8" d="M553.78,387.52c.74,0,1.34.6,1.34,1.34v103.37c0,.74-.6,1.34-1.34,1.34h-103.37c-.74,0-1.34-.6-1.34-1.34v-103.37c0-.74.6-1.34,1.34-1.34h103.37M553.78,385.52h-103.37c-1.85,0-3.34,1.5-3.34,3.34v103.37c0,1.85,1.5,3.34,3.34,3.34h103.37c1.85,0,3.34-1.5,3.34-3.34v-103.37c0-1.85-1.5-3.34-3.34-3.34h0Z"/><path class="cls-8" d="M156.68,526.69c.74,0,1.34.6,1.34,1.34v103.37c0,.74-.6,1.34-1.34,1.34H53.31c-.74,0-1.34-.6-1.34-1.34v-103.37c0-.74.6-1.34,1.34-1.34h103.37M156.68,524.69H53.31c-1.85,0-3.34,1.5-3.34,3.34v103.37c0,1.85,1.5,3.34,3.34,3.34h103.37c1.85,0,3.34-1.5,3.34-3.34v-103.37c0-1.85-1.5-3.34-3.34-3.34h0Z"/><path class="cls-8" d="M289.04,526.69c.74,0,1.34.6,1.34,1.34v103.37c0,.74-.6,1.34-1.34,1.34h-103.37c-.74,0-1.34-.6-1.34-1.34v-103.37c0-.74.6-1.34,1.34-1.34h103.37M289.04,524.69h-103.37c-1.85,0-3.34,1.5-3.34,3.34v103.37c0,1.85,1.5,3.34,3.34,3.34h103.37c1.85,0,3.34-1.5,3.34-3.34v-103.37c0-1.85-1.5-3.34-3.34-3.34h0Z"/><path class="cls-8" d="M421.41,526.69c.74,0,1.34.6,1.34,1.34v103.37c0,.74-.6,1.34-1.34,1.34h-103.37c-.74,0-1.34-.6-1.34-1.34v-103.37c0-.74.6-1.34,1.34-1.34h103.37M421.41,524.69h-103.37c-1.85,0-3.34,1.5-3.34,3.34v103.37c0,1.85,1.5,3.34,3.34,3.34h103.37c1.85,0,3.34-1.5,3.34-3.34v-103.37c0-1.85-1.5-3.34-3.34-3.34h0Z"/><path class="cls-8" d="M553.78,526.69c.74,0,1.34.6,1.34,1.34v103.37c0,.74-.6,1.34-1.34,1.34h-103.37c-.74,0-1.34-.6-1.34-1.34v-103.37c0-.74.6-1.34,1.34-1.34h103.37M553.78,524.69h-103.37c-1.85,0-3.34,1.5-3.34,3.34v103.37c0,1.85,1.5,3.34,3.34,3.34h103.37c1.85,0,3.34-1.5,3.34-3.34v-103.37c0-1.85-1.5-3.34-3.34-3.34h0Z"/><path class="cls-8" d="M156.68,665.86c.74,0,1.34.6,1.34,1.34v103.37c0,.74-.6,1.34-1.34,1.34H53.31c-.74,0-1.34-.6-1.34-1.34v-103.37c0-.74.6-1.34,1.34-1.34h103.37M156.68,663.86H53.31c-1.85,0-3.34,1.5-3.34,3.34v103.37c0,1.85,1.5,3.34,3.34,3.34h103.37c1.85,0,3.34-1.5,3.34-3.34v-103.37c0-1.85-1.5-3.34-3.34-3.34h0Z"/><path class="cls-8" d="M289.04,665.86c.74,0,1.34.6,1.34,1.34v103.37c0,.74-.6,1.34-1.34,1.34h-103.37c-.74,0-1.34-.6-1.34-1.34v-103.37c0-.74.6-1.34,1.34-1.34h103.37M289.04,663.86h-103.37c-1.85,0-3.34,1.5-3.34,3.34v103.37c0,1.85,1.5,3.34,3.34,3.34h103.37c1.85,0,3.34-1.5,3.34-3.34v-103.37c0-1.85-1.5-3.34-3.34-3.34h0Z"/><path class="cls-8" d="M421.41,665.86c.74,0,1.34.6,1.34,1.34v103.37c0,.74-.6,1.34-1.34,1.34h-103.37c-.74,0-1.34-.6-1.34-1.34v-103.37c0-.74.6-1.34,1.34-1.34h103.37M421.41,663.86h-103.37c-1.85,0-3.34,1.5-3.34,3.34v103.37c0,1.85,1.5,3.34,3.34,3.34h103.37c1.85,0,3.34-1.5,3.34-3.34v-103.37c0-1.85-1.5-3.34-3.34-3.34h0Z"/><path class="cls-8" d="M553.78,665.86c.74,0,1.34.6,1.34,1.34v103.37c0,.74-.6,1.34-1.34,1.34h-103.37c-.74,0-1.34-.6-1.34-1.34v-103.37c0-.74.6-1.34,1.34-1.34h103.37M553.78,663.86h-103.37c-1.85,0-3.34,1.5-3.34,3.34v103.37c0,1.85,1.5,3.34,3.34,3.34h103.37c1.85,0,3.34-1.5,3.34-3.34v-103.37c0-1.85-1.5-3.34-3.34-3.34h0Z"/><path class="cls-8" d="M156.68,805.04c.74,0,1.34.6,1.34,1.34v103.37c0,.74-.6,1.34-1.34,1.34H53.31c-.74,0-1.34-.6-1.34-1.34v-103.37c0-.74.6-1.34,1.34-1.34h103.37M156.68,803.04H53.31c-1.85,0-3.34,1.5-3.34,3.34v103.37c0,1.85,1.5,3.34,3.34,3.34h103.37c1.85,0,3.34-1.5,3.34-3.34v-103.37c0-1.85-1.5-3.34-3.34-3.34h0Z"/><path class="cls-8" d="M289.04,805.04c.74,0,1.34.6,1.34,1.34v103.37c0,.74-.6,1.34-1.34,1.34h-103.37c-.74,0-1.34-.6-1.34-1.34v-103.37c0-.74.6-1.34,1.34-1.34h103.37M289.04,803.04h-103.37c-1.85,0-3.34,1.5-3.34,3.34v103.37c0,1.85,1.5,3.34,3.34,3.34h103.37c1.85,0,3.34-1.5,3.34-3.34v-103.37c0-1.85-1.5-3.34-3.34-3.34h0Z"/><path class="cls-8" d="M421.41,805.04c.74,0,1.34.6,1.34,1.34v103.37c0,.74-.6,1.34-1.34,1.34h-103.37c-.74,0-1.34-.6-1.34-1.34v-103.37c0-.74.6-1.34,1.34-1.34h103.37M421.41,803.04h-103.37c-1.85,0-3.34,1.5-3.34,3.34v103.37c0,1.85,1.5,3.34,3.34,3.34h103.37c1.85,0,3.34-1.5,3.34-3.34v-103.37c0-1.85-1.5-3.34-3.34-3.34h0Z"/><path class="cls-8" d="M553.78,805.04c.74,0,1.34.6,1.34,1.34v103.37c0,.74-.6,1.34-1.34,1.34h-103.37c-.74,0-1.34-.6-1.34-1.34v-103.37c0-.74.6-1.34,1.34-1.34h103.37M553.78,803.04h-103.37c-1.85,0-3.34,1.5-3.34,3.34v103.37c0,1.85,1.5,3.34,3.34,3.34h103.37c1.85,0,3.34-1.5,3.34-3.34v-103.37c0-1.85-1.5-3.34-3.34-3.34h0Z"/></g></g></g></g></svg>