<?xml version="1.0" encoding="UTF-8"?><svg id="Capa_2" xmlns="http://www.w3.org/2000/svg" viewBox="0 0 598.78 598.78"><defs><style>.cls-1{fill:#6ac9c2;}.cls-1,.cls-2,.cls-3,.cls-4,.cls-5,.cls-6,.cls-7{fill-rule:evenodd;stroke-width:0px;}.cls-2{fill:#80dbd6;}.cls-3{fill:rgba(255,255,255,.36);}.cls-4{fill:#3066bb;}.cls-5{fill:#abe9ec;}.cls-6{fill:#fff;}.cls-7{fill:#000;}</style></defs><g id="Capa_1-2"><path class="cls-5" d="M305.35,13.62c-78.96-1.63-146.94,24.83-203.95,79.39C44.49,147.55,15.17,214.31,13.44,293.28c-1.63,78.96,24.83,146.95,79.39,203.96,54.67,57,121.48,86.36,200.46,88.1,78.96,1.63,146.89-24.88,203.78-79.54,57-54.56,86.37-121.37,88.1-200.46,1.63-78.96-24.88-146.89-79.54-203.78-54.44-56.91-121.2-86.23-200.28-87.95ZM92.09,83.41C151.89,26.12,223.12-1.66,305.79.08c82.55,1.75,152.42,32.47,209.6,92.18,57.28,59.7,85.06,130.88,83.32,213.53-1.75,82.55-32.52,152.47-92.33,209.77-59.7,57.18-130.83,84.89-213.38,83.15-82.66-1.74-152.58-32.46-209.76-92.16C26.05,446.73-1.67,375.55.08,293c1.74-82.66,32.41-152.52,92.02-209.58Z"/><path class="cls-2" d="M305.35,13.62c79.08,1.73,145.84,31.04,200.28,87.95,54.65,56.89,81.17,124.81,79.54,203.78-1.73,79.08-31.09,145.9-88.1,200.46-56.89,54.65-124.82,81.17-203.78,79.54-78.98-1.74-145.79-31.1-200.46-88.1-54.55-57.01-81.02-124.99-79.39-203.96,1.73-78.97,31.05-145.73,87.95-200.28C158.4,38.45,226.38,11.98,305.35,13.62Z"/><path class="cls-1" d="M306.45,46.53c68.32,1.37,126.05,26.71,173.21,76.02,47.27,49.41,70.17,108.22,68.68,176.43-1.38,68.21-26.78,125.9-76.19,173.07-49.29,47.37-108.04,70.32-176.27,68.82-68.21-1.38-125.9-26.83-173.07-76.36-47.27-49.3-70.15-108-68.65-176.11,1.37-68.32,26.71-126.05,76.02-173.21,49.41-47.27,108.17-70.16,176.28-68.66Z"/><path class="cls-4" d="M446.88,243.37l-4.62-11.87c-2.05-5.45-1.39-11.06,1.98-16.81,3.37-5.74,8.53-9.97,15.49-12.66l54.02-20.79c6.96-2.83,13.67-3.23,20.12-1.21,4.82,1.42,8.43,3.83,10.8,7.23.78,1.15,1.44,2.42,1.95,3.8l4.62,11.87c2.05,5.46,1.39,11.06-1.97,16.8-3.37,5.62-8.53,9.84-15.49,12.67l-54.02,20.79c-6.96,2.69-13.67,3.1-20.12,1.2-6.45-1.9-10.71-5.57-12.76-11.02Z"/><path class="cls-6" d="M370.61,136.36c46.24,20.33,78.47,53.98,96.69,100.96,18.22,46.97,17.11,93.58-3.33,139.83-20.24,46.02-53.85,78.13-100.82,96.35-47.07,18.34-93.72,17.39-139.95-2.83-46.03-20.46-78.16-54.23-96.39-101.31-18.22-46.97-17.21-93.46,3.04-139.48,20.33-46.24,53.98-78.52,100.94-96.85,39.85-15.43,79.27-17.05,118.29-4.86,4.9,1.52,9.88,3.31,14.94,5.36,2.14.89,4.34,1.84,6.59,2.84ZM238.16,437.31c36.97,16.05,74.22,16.79,111.76,2.22,37.64-14.58,64.6-40.26,80.89-77.04,16.27-36.99,17.06-74.3,2.37-111.94-14.48-37.65-40.21-64.56-77.19-80.71-36.78-16.39-74.05-17.3-111.8-2.7-37.41,14.67-64.37,40.51-80.85,77.52-16.18,36.77-16.98,73.97-2.39,111.61,14.58,37.64,40.32,64.65,77.21,81.04Z"/><path class="cls-7" d="M238.16,437.31c-36.89-16.38-62.63-43.4-77.21-81.04-14.58-37.64-13.79-74.85,2.39-111.61,16.48-37.01,43.43-62.85,80.85-77.52,37.75-14.59,75.02-13.69,111.8,2.7,36.98,16.16,62.71,43.06,77.19,80.71,14.69,37.63,13.9,74.94-2.37,111.94-16.29,36.77-43.25,62.45-80.89,77.04-37.53,14.57-74.79,13.83-111.76-2.22Z"/><path class="cls-3" d="M371.94,418.08c-11.24,6.63-27.43,12.28-48.6,16.95-21.27,4.8-41.65,3.5-61.17-3.89-19.51-7.39-37.8-19.34-54.86-35.84-17.15-16.27-27.32-32.08-30.51-47.41-3.16-15.01-4.69-26.8-4.57-35.38.06-4.23.82-8.53,2.28-12.88,2.68-7.72,6.88-14.21,12.6-19.48,1.29-1.31,2.85-2.09,4.67-2.36,8.45-1.29,15.08,2.04,19.9,9.96,9.24,10.14,18.47,20.17,27.69,30.09,16.96,17.81,36.96,31.34,60,40.59,12.7,5.17,25.61,7.02,38.71,5.54,9.55-1.16,18.98-1.12,28.31.12,14.58,1.86,21.99,10.21,22.2,25.05.14,12.67-5.41,22.32-16.65,28.95Z"/><path class="cls-3" d="M271.21,252.59c1.64-3.51,4.14-5.95,7.48-7.33,3.47-1.28,6.79-1.09,9.97.59,3.37,1.33,5.75,3.72,7.14,7.18,1.27,3.36,1.13,6.73-.41,10.12-1.35,3.15-3.75,5.42-7.21,6.81-3.36,1.27-6.72,1.24-10.09-.09-3.28-1.55-5.56-4.01-6.83-7.37-1.38-3.35-1.4-6.65-.06-9.92Z"/></g></svg>