<?xml version="1.0" encoding="UTF-8"?><svg id="Capa_2" xmlns="http://www.w3.org/2000/svg" viewBox="0 0 1233.69 2039.16"><defs><style>.cls-1{fill:#313e47;}.cls-1,.cls-2,.cls-3,.cls-4,.cls-5,.cls-6,.cls-7,.cls-8,.cls-9,.cls-10{stroke-width:0px;}.cls-2{fill:#f8be43;}.cls-3{fill:#eceaec;}.cls-4{fill:#000;}.cls-5{fill:#087076;}.cls-6{fill:#1d262d;}.cls-7{fill:#008189;}.cls-8{fill:#deddde;}.cls-9{fill:#f6af26;}.cls-10{fill:#fff;}</style></defs><g id="Capa_1-2"><path class="cls-7" d="M1195.09,115.76c-7.99-3.29-16.79-5.19-26.1-5.19H64.7C28.96,110.56,0,137.53,0,170.81v1803.77c0,33.22,28.89,60.15,64.56,60.22,13.9-.56,1079.32,4.36,1079.32,4.36,35.74,0,64.7-26.98,64.7-60.25V152.48c0-13.84-5.07-26.55-13.49-36.72ZM64.47,133.43c-14.16,3.32-25.82,13.38-32.63,25.26-6.69,12.16-9.32,25.96-9.4,39.6l.17,82.6.43,165.22.77,330.43c.38,110.14.52,220.29.21,330.43-.74,110.14-.81,220.29-2.27,330.43l-.28.26-.28-.26c-1.44-110.14-1.53-220.29-2.27-330.43-.31-110.14-.15-220.29.21-330.43l.79-330.43.43-165.22.31-82.61c.17-13.81,2.92-27.85,9.83-40.25,7.12-12.15,18.99-22.41,33.79-25.76h.09s.04,0,.04,0l128.63.34.28.25-.28.26-128.57.34Z"/><path class="cls-3" d="M74.41,1957.09l1088.17,2.2-2.39-1784.56H73.5l.9,1782.35Z"/><path class="cls-8" d="M72.08,1956.66l1090.5,1.32-2.32-1782.73s-8.93,580.16-342.42,1230.15C540.67,1945.62,72.08,1956.66,72.08,1956.66Z"/><path class="cls-5" d="M1208.58,1959.34c0,33.27-28.96,60.25-64.7,60.25,0,0-1065.42,17.74-1079.32,18.3-.22,0-.18.01.15.01h1104.29c35.74,0,64.7-26.97,64.7-60.24V170.81c0-3.74-.48-7.36-1.18-10.91-.21-1.06-.5-2.1-.77-3.14-.66-2.56-1.49-5.04-2.48-7.46-.41-.98-.77-1.98-1.23-2.94-1.5-3.13-3.2-6.15-5.22-8.97-.38-.52-.85-.98-1.24-1.48-1.76-2.29-3.67-4.45-5.75-6.49-.91-.89-1.88-1.74-2.85-2.58-1.83-1.59-3.76-3.06-5.78-4.44-1.02-.7-2.01-1.44-3.07-2.08-2.89-1.74-5.9-3.34-9.08-4.64.02.03.03.06.06.08,8.42,10.18,13.49,22.88,13.49,36.72v1806.86Z"/><path class="cls-10" d="M21.47,1908.45l.28-.26c1.46-110.14,1.53-691.09,2.27-801.23.31-110.14.17-220.29-.21-330.43l-.77-330.43-.43-165.22-.17-82.6c.09-13.64,2.72-27.44,9.4-39.6,6.82-11.88,18.47-21.94,32.63-25.26l128.57-.34.27-.26-.27-.25-128.63-.34h-.12c-14.8,3.36-26.68,13.62-33.79,25.77-6.91,12.4-9.66,26.43-9.83,40.25l-.31,82.61-.43,165.22-.79,330.43c-.36,110.14-.52,220.29-.21,330.43.74,110.14.83,691.09,2.27,801.23l.27.26Z"/><path class="cls-1" d="M432.25,103.78h-51.33c-15.91,0-28.84,10.57-30.45,24.08-.11.92-.32,1.82-.32,2.77v50.02c0,14.79,13.72,26.78,30.65,26.84,5.4-.35,461.15-10.1,461.15-10.1,16.99,0,30.77-12.02,30.77-26.85v-50.02c0-4.53-1.3-8.79-3.57-12.53-4.75-2.62-10.35-4.2-16.39-4.2h-420.51ZM363.79,179.81l-.17-.15c-1.02-6.21-1.43-12.4-1.69-18.6-.24-6.19.18-12.38.38-18.58.11-6.31,1.43-12.8,5.06-18.4,3.68-5.52,9.98-9.78,17.16-10.73l.21.14-.14.19h-.02c-6.91,1.37-12.55,5.84-15.55,11.18-3.09,5.4-3.98,11.55-3.72,17.6.2,6.2.62,12.41.38,18.62-.26,6.2-.67,12.4-1.69,18.59l-.21.14Z"/><path class="cls-2" d="M869.33,108.06c2.01,1.13,3.87,2.45,5.53,3.94-1.66-1.5-3.51-2.81-5.53-3.94Z"/><path class="cls-2" d="M875.48,112.66c1.34,1.28,2.51,2.68,3.55,4.17-1.03-1.49-2.21-2.88-3.55-4.17Z"/><path class="cls-9" d="M717.18,118.48c.07.04.13.09.21.14-.07-.04-.13-.09-.21-.14Z"/><path class="cls-6" d="M680.5,59.15c0-21.38-11.74-40.17-29.5-51.2-9.21-4.84-19.78-7.67-31.06-7.89-.46,0-.91-.07-1.37-.07-36.5,0-66.09,27.55-66.09,61.54,0,3.46.38,6.83.97,10.13,1.51,8.45,4.8,16.33,9.6,23.24l-9.05,8.44h-20.22c-6.42,0-12.23,2.43-16.43,6.35-4.18,3.91-6.77,9.29-6.77,15.25v8.67c0,7.04,3.68,13.24,9.28,17.18,2.97,1.28,6.26,2.03,9.75,2.03h169.61c12.81,0,23.19-9.67,23.19-21.6v-8.67c0-6.92-3.53-13.04-8.97-17-3.05-1.38-6.44-2.22-10.06-2.22h-20.22l-13.47-10.39c6.68-9.62,10.83-21.51,10.83-33.81ZM614.41,12.63c6.16,0,11.83,1.88,16.45,5.03-.23-.1-.49-.15-.73-.24,9.63,4.1,16.36,13.1,16.36,23.6,0,14.36-12.5,26-27.92,26-6.25,0-11.96-1.98-16.62-5.21.07.04.11.11.18.15-9.26-4.23-15.65-13.07-15.65-23.32,0-14.36,12.51-26,27.93-26ZM559.85,72.57c-.62-2.09-.86-4.26-1.27-6.4-.15-2.17-.42-4.34-.34-6.51.02-4.35.61-8.69,1.79-12.89,2.26-8.42,6.74-16.22,12.62-22.83,5.93-6.57,13.04-12.2,21.02-16.41l.18.05-.05.17c-7.75,4.46-14.56,10.31-20.11,16.96-5.57,6.65-9.67,14.35-11.6,22.51-.99,4.08-1.38,8.26-1.23,12.42.08,4.16.62,8.31,1.57,12.39,1.74,8.21,5.11,16.1,8.99,23.81l-.06.16-.17-.04c-5.23-7.03-9.08-14.99-11.35-23.4ZM515.77,138.07l-.15.11-.11-.11c-.49-3.2-.77-6.39-.98-9.59-.1-1.61-.19-3.17-.2-4.81.08-.86.07-1.72.21-2.58.22-.84.34-1.72.72-2.52,1.31-3.3,3.97-5.99,7.02-7.73,3.07-1.79,6.41-2.92,9.96-3.46h.12s19.25.59,19.25.59l.13.13-.13.12-19.14.59c-3.2.64-6.37,1.9-9.01,3.64-2.69,1.74-4.64,4.22-5.63,6.96l-.57,2.11c-.15.71-.16,1.46-.25,2.19l-.24,4.77c-.22,3.2-.49,6.39-.99,9.59Z"/><path class="cls-9" d="M591.86,48.14c-.13-.42-.31-.82-.42-1.25.11.43.28.83.42,1.25Z"/><path class="cls-9" d="M624.47,15.62c.86.17,1.65.47,2.47.72-.83-.25-1.62-.54-2.47-.72Z"/><path class="cls-9" d="M618.57,15.01c.87,0,1.69.17,2.54.24-.85-.08-1.66-.28-2.53-.28-13.5,0-24.76,8.92-27.35,20.78,2.61-11.84,13.86-20.74,27.34-20.74Z"/><path class="cls-9" d="M597.77,58.19c-.26-.27-.5-.56-.75-.84.25.28.49.57.75.84Z"/><path class="cls-9" d="M594.28,53.59c-.24-.41-.49-.81-.71-1.22.22.42.47.82.71,1.22Z"/><path class="cls-9" d="M652.3,8.69c1.47.82,2.92,1.67,4.32,2.59-1.4-.92-2.85-1.77-4.32-2.59Z"/><path class="cls-9" d="M720.96,121.28c-.09-.08-.16-.18-.25-.26-.11-.09-.24-.16-.35-.26.2.17.4.34.6.52Z"/><path class="cls-9" d="M723.57,124.06c-.04-.05-.09-.1-.13-.15.04.05.09.1.13.15Z"/><path class="cls-9" d="M725.84,127.84c-.08-.17-.14-.34-.22-.51.08.17.15.34.22.51Z"/><path class="cls-9" d="M727.11,131.63c-.05-.25-.13-.5-.19-.75.07.25.14.5.19.75Z"/><path class="cls-6" d="M380.92,207.49h471.84c16.99,0,30.77-12.02,30.77-26.85v-50.02c0-2.18-.38-4.28-.94-6.31-.17-.6-.41-1.16-.62-1.74-.53-1.45-1.17-2.85-1.96-4.17-.32-.54-.62-1.06-.98-1.58-1.03-1.49-2.21-2.89-3.55-4.17-.22-.21-.39-.45-.62-.65-1.66-1.5-3.52-2.82-5.53-3.94-.08-.04-.13-.11-.21-.15.01.02.02.04.03.06,2.26,3.74,3.57,8,3.57,12.53v50.02c0,14.83-13.78,26.85-30.77,26.85,0,0-455.74,9.75-461.15,10.1-.1,0-.09.01.12.01Z"/><path class="cls-4" d="M602.13,61.94c-.07-.04-.11-.11-.18-.15-1.53-1.06-2.92-2.28-4.19-3.6-.26-.27-.5-.56-.75-.84-1.03-1.17-1.94-2.43-2.74-3.76-.25-.41-.49-.8-.71-1.22-.71-1.34-1.26-2.76-1.71-4.22-.13-.42-.31-.82-.42-1.25-.48-1.9-.77-3.88-.77-5.92,0-1.79.2-3.54.57-5.22,2.6-11.86,13.85-20.78,27.35-20.78.87,0,1.68.2,2.53.28,1.13.1,2.27.14,3.36.37.86.18,1.65.47,2.47.72,1.08.32,2.17.63,3.19,1.07.23.1.5.14.73.24-4.62-3.15-10.29-5.03-16.45-5.03-15.42,0-27.93,11.64-27.93,26,0,10.25,6.39,19.09,15.65,23.32Z"/><path class="cls-4" d="M722.4,122.57v8.67c0,11.93-10.38,21.6-23.19,21.6h-169.61c-3.49,0-6.77-.74-9.75-2.03-.02-.01-.05-.01-.07-.02.06.04.13.07.19.11.74.52,1.54.97,2.34,1.4.36.19.72.38,1.09.55.79.37,1.6.71,2.43.99.47.16.95.28,1.43.41.81.22,1.63.45,2.48.59.57.1,1.17.11,1.76.17.76.07,1.5.18,2.28.18h169.6c11.21,0,20.55-7.4,22.72-17.23.31-1.41.48-2.87.48-4.37v-8.67c0-1.37-.18-2.69-.44-3.99-.05-.27-.12-.53-.19-.79-.27-1.11-.63-2.18-1.07-3.21-.08-.18-.14-.37-.22-.54-.57-1.21-1.23-2.38-2.02-3.46-.04-.06-.09-.11-.13-.16-.73-.99-1.56-1.91-2.46-2.77-.19-.19-.39-.37-.59-.55-.92-.83-1.9-1.59-2.96-2.27-.07-.04-.13-.1-.21-.14-.99-.62-2.01-1.18-3.09-1.65.08.06.15.14.23.2,5.44,3.95,8.97,10.07,8.97,17Z"/><path class="cls-10" d="M365.7,161.08c.24-6.21-.18-12.42-.38-18.62-.26-6.05.63-12.2,3.72-17.6,3-5.34,8.64-9.81,15.55-11.18h.02s.14-.19.14-.19l-.21-.14c-7.18.95-13.48,5.21-17.16,10.73-3.63,5.6-4.95,12.09-5.06,18.4-.2,6.2-.62,12.38-.38,18.58.26,6.2.67,12.39,1.69,18.6l.17.15.21-.14c1.02-6.19,1.43-12.39,1.69-18.59Z"/><path class="cls-10" d="M571.37,96.01l.06-.16c-3.88-7.71-7.26-15.6-8.99-23.81-.95-4.08-1.49-8.23-1.57-12.39-.15-4.16.24-8.34,1.23-12.42,1.92-8.16,6.02-15.87,11.6-22.51,5.54-6.65,12.35-12.5,20.11-16.96l.05-.17-.18-.05c-7.98,4.21-15.08,9.84-21.02,16.41-5.88,6.61-10.36,14.41-12.62,22.83-1.19,4.19-1.78,8.54-1.79,12.89-.08,2.18.19,4.34.34,6.51.41,2.13.65,4.31,1.27,6.4,2.27,8.41,6.13,16.36,11.35,23.4l.17.04Z"/><path class="cls-10" d="M516.99,123.72c.09-.73.1-1.48.25-2.19l.57-2.11c.99-2.74,2.94-5.22,5.63-6.96,2.64-1.74,5.81-3,9.01-3.64l19.14-.59.13-.12-.13-.13-19.25-.6h-.1s-.02,0-.02,0c-3.55.54-6.89,1.67-9.96,3.46-3.05,1.75-5.71,4.44-7.02,7.73-.38.8-.5,1.68-.72,2.52-.14.86-.13,1.72-.21,2.58.02,1.64.1,3.21.2,4.81.21,3.2.49,6.39.98,9.59l.11.11.15-.11c.5-3.2.77-6.39.99-9.59l.24-4.77Z"/></g></svg>