<?xml version="1.0" encoding="UTF-8"?><svg xmlns="http://www.w3.org/2000/svg" viewBox="0 0 222.37 919.06"><defs><style>.cls-1{fill:#e5953d;}.cls-1,.cls-2,.cls-3,.cls-4,.cls-5,.cls-6,.cls-7,.cls-8,.cls-9,.cls-10{stroke-width:0px;}.cls-2{fill:none;}.cls-3{opacity:.2;}.cls-3,.cls-4{mix-blend-mode:multiply;}.cls-3,.cls-5{fill:#1d1d1b;}.cls-4{fill:#b8aaa7;}.cls-6{fill:#fffdf9;}.cls-7{fill:#526aab;}.cls-11{isolation:isolate;}.cls-8{fill:#fff;}.cls-9{fill:#f8d44c;}.cls-10{fill:#62aee0;}</style></defs><g class="cls-11"><g id="Capa_2"><g id="Capa_1-2"><g id="_9"><path class="cls-4" d="M218.31,18.91c-1.65-9.98-14.65-12.76-20.22-4.31-16.97,25.73-45.12,79.29-65.01,172.69l10.36,2.21L7.98,826.05l-5.05,44.91,8.28,1.77-4.77,28.84,1.67.35-2.89,13.5c-.26,1.24.54,2.46,1.77,2.72l4.08.86c1.24.26,2.45-.51,2.72-1.75l2.89-13.5,1.65.35,7.39-28.3,8.28,1.77,13.69-43.08L183.15,197.95l9.45,2.01c-15.35,72.11-20.84,110.17-22.59,130.05-.38,4.17,5.56,5.39,6.81,1.4,15.36-48.61,30.54-128.3,30.54-128.3,19.89-93.43,15.97-153.78,10.95-184.2Z"/><polygon class="cls-2" points="166.09 184.28 166.43 184.36 178.93 187.01 166.43 184.34 166.09 184.28"/><path class="cls-9" d="M2.27,899.34c-.26,1.23.53,2.44,1.76,2.7l4.05.85c1.23.26,2.44-.51,2.7-1.74l2.87-13.41-8.51-1.82-2.87,13.41Z"/><polygon class="cls-1" points="39.38 795.93 36.42 795.29 21.97 792.21 19.01 791.59 15.5 812.83 8.22 856.95 3.48 885.58 5.14 885.93 13.65 887.75 15.29 888.1 22.63 860 33.94 816.75 39.38 795.93"/><polygon class="cls-3" points="13.65 887.75 5.14 885.93 3.89 891.76 12.4 893.62 13.65 887.75"/><polygon class="cls-3" points="22.63 860 8.22 856.95 7.08 863.83 20.87 866.73 22.63 860"/><line class="cls-5" x1="21.97" y1="792.21" x2="19.01" y2="791.59"/><path class="cls-10" d="M213.83,9.25c-1.64-9.91-14.54-12.67-20.08-4.28-16.85,25.55-44.8,78.72-64.55,171.45l10.29,2.2,12.5,2.66,14.09,2.99.34.06,12.5,2.66,9.38,1.99c-15.24,71.59-20.69,109.38-22.43,129.11-.37,4.14,5.52,5.36,6.76,1.39,15.25-48.26,30.32-127.37,30.32-127.37,19.75-92.76,15.85-152.68,10.87-182.88Z"/><polygon class="cls-8" points="131.5 348.46 166.43 184.36 166.09 184.28 152 181.29 117.07 345.39 131.5 348.46"/><polygon class="cls-7" points="21.97 792.21 36.42 795.29 131.5 348.46 117.07 345.39 21.97 792.21"/><polyline class="cls-6" points="22.63 860 30.84 861.76 44.44 818.98 178.93 187.01 166.43 184.36 131.5 348.46 36.42 795.29 39.38 795.93 33.94 816.75"/><polyline class="cls-6" points="15.5 812.83 19.01 791.59 21.97 792.21 117.07 345.39 152 181.29 139.5 178.62 5.01 810.6 0 855.19 8.22 856.95"/><polygon class="cls-3" points="178.93 187.01 166.43 184.36 166.09 184.28 152 181.29 139.5 178.62 134.73 201.02 174.19 209.25 178.93 187.01"/></g></g></g></g></svg>