<?xml version="1.0" encoding="UTF-8"?><svg id="Capa_2" xmlns="http://www.w3.org/2000/svg" viewBox="0 0 914.9 845.27"><defs><style>.cls-1{stroke:#969696;}.cls-1,.cls-2{fill:none;stroke-linecap:round;stroke-linejoin:round;}.cls-1,.cls-2,.cls-3,.cls-4,.cls-5{fill-rule:evenodd;}.cls-2{stroke:#000;stroke-width:2px;}.cls-3{fill:rgba(201,201,201,.55);}.cls-3,.cls-4,.cls-5{stroke-width:0px;}.cls-4{fill:rgba(255,255,255,.66);}.cls-5{fill:rgba(201,201,201,.49);}</style></defs><g id="Capa_1-2"><path class="cls-2" d="M21.97,355.75c9.22,19.24,29.44,66.97,60.67,143.2,31.08,75.7,61.51,148.59,91.29,218.67,29.58,69.79,65.7,112.01,108.35,126.65M1,356.11l35.66-15.39"/><path class="cls-4" d="M273.89,157.34l1.29,13.11-207.98,221.62c-13.16-3.02-23.41-13.82-30.76-32.4l-21.17-53.51c-11.8-29.84-4.17-49.9,22.87-60.17l225.81-85.77c3.44-1.3,6.74-2.27,9.93-2.88Z"/><path class="cls-5" d="M273.89,157.34c5.02-1.05,9.72-1.25,14.11-.63,14.89,1.83,26.31,12.79,34.24,32.86l21.16,53.52c11.81,29.85,4.16,49.9-22.88,60.17l-225.81,85.76c-10.21,3.88-19.38,4.9-27.52,3.05l207.98-221.62-1.29-13.11Z"/><path class="cls-1" d="M273.89,157.34c-3.19.61-6.49,1.58-9.93,2.88L38.15,245.99c-27.05,10.27-34.67,30.34-22.87,60.17l21.17,53.51c7.35,18.58,17.6,29.38,30.76,32.4,8.13,1.85,17.3.82,27.52-3.05l225.81-85.76c27.05-10.27,34.69-30.33,22.88-60.17l-21.16-53.52c-7.94-20.07-19.35-31.03-34.24-32.86-4.39-.62-9.09-.42-14.11.63Z"/><path class="cls-2" d="M780.41,54.87l-37.49,11.57M764.23,68.06c5.89,20.54,22.94,69.48,51.13,146.82,27.76,76.99,54.05,151.38,78.9,223.19,24.84,71.79,26.12,126.79,3.85,164.98"/><path class="cls-4" d="M446.94,203.76l-21.17-53.51c-11.8-29.84-4.17-49.9,22.89-60.18L674.47,4.31l6.38,7.05-225,202.04-8.91-9.63Z"/><path class="cls-3" d="M446.94,203.76l8.91,9.63L680.84,11.35l-6.38-7.05c6.66-2.53,12.84-3.79,18.54-3.79,17.59-.41,30.83,10.64,39.73,33.15l21.16,53.51c11.81,29.85,4.18,49.9-22.87,60.17l-225.81,85.76c-22.9,8.69-40.31,2.99-52.26-17.14-2.2-3.56-4.22-7.62-6.03-12.21Z"/><path class="cls-1" d="M446.94,203.76c1.81,4.59,3.83,8.65,6.03,12.21,11.95,20.13,29.36,25.83,52.26,17.14l225.81-85.76c27.05-10.28,34.68-30.33,22.87-60.17l-21.16-53.51C723.85,11.16,710.61.11,693.01.51c-5.7,0-11.89,1.27-18.54,3.79l-225.81,85.76c-27.05,10.28-34.69,30.34-22.89,60.18l21.17,53.51Z"/><path class="cls-2" d="M342.26,237.65c-5.2-13.29-4.6-26.46,1.79-39.5,6.69-13.23,17.22-22.58,31.58-28.05,14.37-5.47,28.42-5.45,42.16.09,14.32,5.16,24.1,14.39,29.29,27.67"/></g></svg>