<?xml version="1.0" encoding="UTF-8"?><svg xmlns="http://www.w3.org/2000/svg" xmlns:xlink="http://www.w3.org/1999/xlink" viewBox="0 0 921.65 341.71"><defs><style>.cls-1{fill:#f5f5f5;opacity:.04;}.cls-1,.cls-2,.cls-3,.cls-4,.cls-5,.cls-6,.cls-7,.cls-8,.cls-9,.cls-10,.cls-11,.cls-12,.cls-13,.cls-14,.cls-15,.cls-16,.cls-17,.cls-18,.cls-19,.cls-20,.cls-21,.cls-22,.cls-23,.cls-24,.cls-25,.cls-26,.cls-27,.cls-28,.cls-29,.cls-30,.cls-31,.cls-32,.cls-33,.cls-34,.cls-35,.cls-36,.cls-37,.cls-38,.cls-39,.cls-40{stroke-width:0px;}.cls-2{fill:#9d9d9d;opacity:.38;}.cls-3{fill:#272727;opacity:.85;}.cls-4{fill:#c9c9c9;}.cls-5{fill:gray;opacity:.5;}.cls-41{clip-path:url(#clippath);}.cls-6{fill:url(#radial-gradient-4);opacity:.64;}.cls-6,.cls-12,.cls-42,.cls-26,.cls-27,.cls-28,.cls-29,.cls-30,.cls-31{mix-blend-mode:multiply;}.cls-7{fill:none;}.cls-8{fill:#bababa;opacity:.27;}.cls-9{fill:#3b3b3b;opacity:.77;}.cls-10{fill:url(#linear-gradient);}.cls-11{fill:#898989;opacity:.46;}.cls-12{fill:url(#radial-gradient);}.cls-13{fill:#1d1d1d;opacity:.88;}.cls-14{fill:#0a0a0a;opacity:.96;}.cls-15{fill:#a7a7a7;opacity:.35;}.cls-16{fill:#767676;opacity:.54;}.cls-43{clip-path:url(#clippath-1);}.cls-17{fill:#d8d8d8;opacity:.15;}.cls-18{fill:#454545;opacity:.73;}.cls-19{fill:#000;}.cls-20{fill:#141414;opacity:.92;}.cls-21{fill:#313131;opacity:.81;}.cls-22{fill:#b1b1b1;opacity:.31;}.cls-44{mix-blend-mode:screen;opacity:.73;}.cls-23{fill:#585858;opacity:.65;}.cls-45{opacity:.3;}.cls-24{fill:#e2e2e2;opacity:.12;}.cls-25{opacity:0;}.cls-25,.cls-38{fill:#fff;}.cls-26{fill:url(#radial-gradient-5);}.cls-27{fill:url(#radial-gradient-6);}.cls-28{fill:url(#radial-gradient-3);}.cls-29{fill:url(#radial-gradient-7);}.cls-30{fill:url(#radial-gradient-8);}.cls-31{fill:url(#radial-gradient-2);}.cls-32{fill:url(#linear-gradient-2);}.cls-33{fill:#cecece;opacity:.19;}.cls-46{isolation:isolate;}.cls-34{fill:#939393;opacity:.42;}.cls-35{fill:#4e4e4e;opacity:.69;}.cls-36{fill:#ebebeb;opacity:.08;}.cls-37{fill:#626262;opacity:.62;}.cls-39{fill:#6c6c6c;opacity:.58;}.cls-40{fill:#c4c4c4;opacity:.23;}</style><radialGradient id="radial-gradient" cx="-4032.24" cy="-873.08" fx="-4032.24" fy="-873.08" r="19.5" gradientTransform="translate(7064.39 -11278.97) rotate(-96.63) scale(2.41 8.71) skewX(26.38)" gradientUnits="userSpaceOnUse"><stop offset="0" stop-color="#000"/><stop offset=".02" stop-color="#0e0e0e"/><stop offset=".09" stop-color="#404040"/><stop offset=".17" stop-color="#6d6d6d"/><stop offset=".25" stop-color="#949494"/><stop offset=".34" stop-color="#b5b5b5"/><stop offset=".43" stop-color="#d0d0d0"/><stop offset=".53" stop-color="#e5e5e5"/><stop offset=".65" stop-color="#f3f3f3"/><stop offset=".78" stop-color="#fcfcfc"/><stop offset="1" stop-color="#fff"/></radialGradient><radialGradient id="radial-gradient-2" cx="-3883.5" cy="-607.21" fx="-3883.5" fy="-607.21" r="19.5" gradientTransform="translate(1900.05 -11944.5) rotate(-100.49) scale(2.98 5.42) skewX(7.34)" xlink:href="#radial-gradient"/><linearGradient id="linear-gradient" x1="490.79" y1="342.57" x2="391.87" y2="-48.19" gradientUnits="userSpaceOnUse"><stop offset="0" stop-color="#dedede"/><stop offset=".09" stop-color="#dcdcdc"/><stop offset=".36" stop-color="#e7e7e7"/><stop offset=".7" stop-color="#f1f1f1"/><stop offset=".98" stop-color="#ececec"/><stop offset="1" stop-color="#ececec"/></linearGradient><clipPath id="clippath"><path id="SVGID" class="cls-7" d="M871.74,31.63v188.82c-.15,1.56-.71,3.27-.84,3.68-.77,2.51-1.94,4.97-3.48,7.37-15.21,21.41-58.99,38.86-117.28,52.33-.93.21-1.86.42-2.8.64-.21.05-.41.1-.62.14-10.16,2.3-20.75,4.48-31.69,6.54-3.91.73-7.86,1.45-11.85,2.16-2.39.42-4.8.84-7.21,1.25-11.3,1.92-22.93,3.73-34.78,5.41-.63.09-1.27.17-1.9.26-63.34,8.67-132.9,14.29-196.77,16.51-.8.06-1.59.09-2.38.1-.15,0-.3,0-.44,0h-.33c-5.43.19-10.83.33-16.18.48-5.64.14-11.22.24-16.76.32-.33,0-.67,0-1,.01-.26,0-.48.04-.69,0-1.03.04-2.02.07-3.01.07-13.1.3-20.73.3-20.73.3H48.54c-17.47,0-31.64-14.16-31.64-31.63V31.63C16.91,14.16,31.08,0,48.54,0h791.57c17.47,0,31.63,14.16,31.63,31.63Z"/></clipPath><radialGradient id="radial-gradient-3" cx="-6505.17" cy="-206.13" fx="-6505.17" fy="-206.13" r="67.54" gradientTransform="translate(981.28 -4224.16) rotate(-97.06) scale(.66 3.56) skewX(48.56)" gradientUnits="userSpaceOnUse"><stop offset="0" stop-color="#262626"/><stop offset=".01" stop-color="#323232"/><stop offset=".06" stop-color="#5d5d5d"/><stop offset=".12" stop-color="#838383"/><stop offset=".18" stop-color="#a5a5a5"/><stop offset=".25" stop-color="#c1c1c1"/><stop offset=".32" stop-color="#d8d8d8"/><stop offset=".41" stop-color="#e9e9e9"/><stop offset=".51" stop-color="#f5f5f5"/><stop offset=".65" stop-color="#fdfdfd"/><stop offset="1" stop-color="#fff"/></radialGradient><radialGradient id="radial-gradient-4" cx="-5785.4" cy="-195.71" fx="-5785.4" fy="-195.71" r="67.54" gradientTransform="translate(1418.24 -3647.91) rotate(-89.71) scale(.66 3.56) skewX(48.56)" xlink:href="#radial-gradient-3"/><linearGradient id="linear-gradient-2" x1="662.94" y1="313.06" x2="649.77" y2="272.15" gradientUnits="userSpaceOnUse"><stop offset="0" stop-color="#dbdbdb"/><stop offset=".08" stop-color="#d5d5d5"/><stop offset=".25" stop-color="#cfcfcf"/><stop offset=".44" stop-color="#d8d8d8"/><stop offset=".74" stop-color="#f0f0f0"/><stop offset=".84" stop-color="#fafafa"/><stop offset="1" stop-color="#f5f5f5"/></linearGradient><clipPath id="clippath-1"><path id="SVGID-2" class="cls-7" d="M871.74,220.45c-.15,1.56-.71,3.28-.84,3.7-.77,2.52-1.64,5.55-3.19,7.96-15.24,21.48-58.54,38.42-116.95,51.93-.93.21-1.87.43-2.81.64-.21.05-.41.1-.62.14-10.25,2.3-20.92,4.49-31.9,6.57-3.91.74-7.86,1.46-11.85,2.17-2.39.43-4.8.84-7.21,1.26-11.3,1.93-22.92,3.74-34.78,5.43-.62.09-1.23.17-1.85.26-63.47,8.69-133.16,14.34-197.16,16.56-.8.06-1.6.09-2.38.1-.15,0-.3,0-.44,0-5.43.19-10.82.34-16.18.48-5.98.14-11.88.25-17.76.33.2,0,.4-.01.6-.01,67.11-1.66,250.74-10.43,324.94-56.64,14.85-9.24,33.81-30.74,45.87-37.1,7.4-3.91,15.4-4.11,23.34-2.71,23.91,4.21,46.39,22.99,51.18-1.06Z"/></clipPath><radialGradient id="radial-gradient-5" cx="-5420.08" cy="-671.02" fx="-5420.08" fy="-671.02" r="58.73" gradientTransform="translate(5153.75 -4472.69) rotate(-82.59) scale(.75 5.94) skewX(68.61)" gradientUnits="userSpaceOnUse"><stop offset="0" stop-color="#262626"/><stop offset=".04" stop-color="#414141"/><stop offset=".13" stop-color="#6d6d6d"/><stop offset=".21" stop-color="#949494"/><stop offset=".3" stop-color="#b5b5b5"/><stop offset=".4" stop-color="#d0d0d0"/><stop offset=".51" stop-color="#e5e5e5"/><stop offset=".63" stop-color="#f3f3f3"/><stop offset=".77" stop-color="#fcfcfc"/><stop offset="1" stop-color="#fff"/></radialGradient><radialGradient id="radial-gradient-6" cx="-5932.22" cy="-631.39" fx="-5932.22" fy="-631.39" r="58.73" gradientTransform="translate(4754.79 -5233.54) rotate(-87.88) scale(.75 5.94) skewX(68.62)" xlink:href="#radial-gradient-5"/><radialGradient id="radial-gradient-7" cx="-6083.26" cy="-617.94" fx="-6083.26" fy="-617.94" r="58.74" gradientTransform="translate(5328.59 -3690.93) rotate(-75.67) scale(.57 5.72) skewX(77.15)" gradientUnits="userSpaceOnUse"><stop offset="0" stop-color="#121212"/><stop offset=".02" stop-color="#1f1f1f"/><stop offset=".13" stop-color="#525252"/><stop offset=".24" stop-color="gray"/><stop offset=".35" stop-color="#a7a7a7"/><stop offset=".46" stop-color="#c7c7c7"/><stop offset=".58" stop-color="#dfdfdf"/><stop offset=".71" stop-color="#f1f1f1"/><stop offset=".84" stop-color="#fbfbfb"/><stop offset="1" stop-color="#fff"/></radialGradient><radialGradient id="radial-gradient-8" cx="-7822.58" cy="199.6" fx="-7822.58" fy="199.6" r="38.49" gradientTransform="translate(-581.2 -3594.19) rotate(-103.57) scale(.53 2.52) skewX(40.63)" gradientUnits="userSpaceOnUse"><stop offset="0" stop-color="#121212"/><stop offset=".06" stop-color="#2b2b2b"/><stop offset=".2" stop-color="#626262"/><stop offset=".34" stop-color="#929292"/><stop offset=".48" stop-color="#b9b9b9"/><stop offset=".62" stop-color="#d7d7d7"/><stop offset=".75" stop-color="#ededed"/><stop offset=".88" stop-color="#fafafa"/><stop offset="1" stop-color="#fff"/></radialGradient></defs><g class="cls-46"><g id="Capa_2"><g id="Capa_1-2"><g class="cls-45"><path class="cls-12" d="M750.18,231.8c91.66-23.6,168.39-21.85,171.38,3.91s-68.88,65.78-160.54,89.38c-91.66,23.6-168.39,21.85-171.38-3.91-2.99-25.76,68.88-65.78,160.54-89.38Z"/><path class="cls-31" d="M799.29,200.05c56.7-14.7,107.4-1.05,113.25,30.49,5.84,31.54-35.39,69.03-92.09,83.74-56.7,14.7-107.4,1.05-113.25-30.49-5.84-31.54,35.39-69.03,92.09-83.74Z"/></g><path class="cls-4" d="M451.18,274.6c6.79-.11,13.69-.18,20.73-.29-13.1.29-20.73.29-20.73.29Z"/><g class="cls-42"><path class="cls-25" d="M879.93,32.04c4.14,65.07,4.55,133.64,2.14,204.88-.15,1.65-.71,3.47-.84,3.91-.78,2.66-4.22,12.01-5.77,14.56-15.33,22.69-59.45,41.19-118.18,55.47-.94.23-1.88.45-2.82.67-.21.05-.41.1-.62.15-10.24,2.44-24.63,1.52-35.65,3.71-3.94.78-7.92,1.54-11.95,2.29-2.41.45-4.83.89-7.27,1.33-11.39,2.04-23.1,3.95-35.05,5.74-.63.1-1.28.18-1.91.27-63.83,9.19-134.55,8.41-198.92,10.76-.8.06-1.61.1-2.4.11-.15,0-.3,0-.45,0h-.34c-5.47.2-10.91.35-16.31.51-5.68.14-11.3.25-16.89.33-.34,0-.67,0-1.01.01-.26,0-.48.04-.7,0-1.04.04-2.03.07-3.03.07-13.2.31-20.89.31-20.89.31l-360.42-2.58c-17.6,0-40.65-18.57-40.65-37.09L11.52,33.53C11.52,15.01,28.33,0,45.93,0h797.66c17.6,0,36.35,13.53,36.35,32.04Z"/><path class="cls-1" d="M878.95,32.23c3.98,62.57,4.38,135.46,2.06,203.96-.15,1.64-.71,3.46-.84,3.89-.78,2.65-4.13,11.73-5.68,14.27-15.3,22.61-59.34,41.04-117.96,55.27-.94.22-1.88.44-2.82.67-.21.05-.41.1-.62.15-10.23,2.39-24.44,1.63-35.45,3.81-3.93.77-7.91,1.53-11.92,2.28-2.41.45-4.82.89-7.25,1.32-11.37,2.03-23.06,3.94-34.98,5.72-.63.1-1.27.18-1.91.27-63.73,9.01-134.28,8.61-198.53,10.96-.8.06-1.6.08-2.39.11-.15,0-.3,0-.45,0h-.34c-5.46.2-10.89.35-16.28.51-5.67.14-11.28.24-16.86.33-.34,0-.67.01-1.01.01-.26,0-.48.04-.7,0-1.03.04-2.03.06-3.03.07-13.18.16-20.85.31-20.85.31l-359.56-2.48c-17.57,0-40.26-18.38-40.26-36.83L12.4,33.66C12.4,15.21,29.08.25,46.65.25h796.18c17.57,0,36.11,13.53,36.11,31.98Z"/><path class="cls-36" d="M877.96,32.41c3.82,60.06,4.2,137.29,1.98,203.05-.15,1.64-.71,3.44-.84,3.88-.78,2.64-4.03,11.45-5.58,13.98-15.27,22.53-59.22,40.89-117.75,55.07-.94.22-1.87.44-2.81.67-.21.05-.41.1-.62.15-10.21,2.38-24.26,1.74-35.25,3.91-3.92.77-7.89,1.53-11.9,2.27-2.4.45-4.81.89-7.24,1.32-11.35,2.02-23.02,3.92-34.92,5.7-.63.09-1.27.18-1.9.27-63.61,8.98-134.01,8.82-198.14,11.15-.8.06-1.6.08-2.39.11-.15,0-.3,0-.45,0h-.34c-5.45.2-10.87.35-16.25.51-5.66.14-11.26.23-16.83.33-.34,0-.67.01-1.01.01-.26,0-.48.04-.7,0-1.03.04-2.03.06-3.02.07-13.16.16-20.82.31-20.82.31l-358.69-2.38c-17.54,0-39.86-18.19-39.86-36.57L13.28,33.79C13.28,15.4,29.84.5,47.38.5h794.7c17.54,0,35.88,13.53,35.88,31.91Z"/><path class="cls-24" d="M876.97,32.6c3.66,57.56,4.03,139.11,1.89,202.13-.15,1.63-.71,3.43-.84,3.86-.78,2.63-3.94,11.17-5.49,13.69-15.24,22.44-59.11,40.74-117.53,54.86-.93.22-1.87.43-2.81.67-.21.05-.41.1-.62.15-10.19,2.37-24.08,1.84-35.04,4.01-3.92.77-7.88,1.52-11.88,2.26-2.4.44-4.81.88-7.23,1.31-11.33,2.02-22.97,3.91-34.85,5.67-.63.09-1.27.18-1.9.27-63.5,8.95-133.73,9.02-197.74,11.35-.8.06-1.6.08-2.38.11-.15,0-.3,0-.44,0h-.34c-5.44.2-10.85.35-16.22.51-5.65.14-11.24.23-16.79.33-.33,0-.67.01-1,.01-.26,0-.48.04-.7,0-1.03.04-2.02.06-3.01.07-13.13.16-20.78.31-20.78.31l-357.83-2.28c-17.5,0-39.46-18-39.46-36.31L14.16,33.91C14.16,15.6,30.6.75,48.1.75h793.22c17.5,0,35.65,13.53,35.65,31.85Z"/><path class="cls-17" d="M875.98,32.78c3.5,55.06,3.85,140.94,1.81,201.22-.15,1.63-.71,3.42-.84,3.85-.78,2.62-3.85,10.89-5.4,13.41-15.21,22.36-59,40.59-117.31,54.66-.93.22-1.87.43-2.8.66-.21.05-.41.1-.62.15-10.17,2.36-23.9,1.95-34.84,4.11-3.91.77-7.86,1.52-11.86,2.26-2.39.44-4.8.88-7.21,1.31-11.3,2.01-22.93,3.89-34.79,5.65-.63.09-1.27.18-1.9.27-63.38,8.91-133.46,9.22-197.35,11.54-.8.06-1.59.08-2.38.11-.15,0-.3,0-.44,0h-.33c-5.43.19-10.83.35-16.18.5-5.64.14-11.22.23-16.76.33-.33,0-.67.01-1,.01-.26,0-.48.04-.69,0-1.03.04-2.02.06-3.01.07-13.11.15-20.74.31-20.74.31l-356.97-2.18c-17.47,0-39.07-17.81-39.07-36.05L15.04,34.04C15.04,15.8,31.35,1,48.82,1h791.74c17.47,0,35.42,13.54,35.42,31.78Z"/><path class="cls-33" d="M874.99,32.97c3.34,52.55,3.68,142.76,1.73,200.3-.15,1.62-.71,3.4-.83,3.83-.78,2.61-3.76,10.62-5.3,13.12-15.19,22.28-58.89,40.44-117.09,54.46-.93.22-1.86.43-2.8.66-.21.05-.41.1-.62.15-10.15,2.35-23.72,2.06-34.64,4.2-3.9.76-7.85,1.51-11.84,2.25-2.39.44-4.79.88-7.2,1.3-11.28,2-22.89,3.88-34.72,5.63-.63.09-1.26.18-1.89.27-63.26,8.88-133.19,9.43-196.96,11.74-.8.06-1.59.08-2.37.11-.15,0-.3,0-.44,0h-.33c-5.42.19-10.81.35-16.15.5-5.63.14-11.2.23-16.73.33-.33,0-.67.01-1,.01-.26,0-.47.04-.69,0-1.03.04-2.02.06-3,.07-13.08.15-20.7.31-20.7.31l-356.11-2.08c-17.44,0-38.67-17.61-38.67-35.79L15.92,34.17C15.92,15.99,32.11,1.25,49.55,1.25h790.25c17.44,0,35.19,13.54,35.19,31.72Z"/><path class="cls-40" d="M874,33.15c3.18,50.05,3.5,144.59,1.65,199.39-.15,1.61-.71,3.39-.83,3.82-.77,2.6-3.67,10.34-5.21,12.83-15.16,22.19-58.78,40.28-116.87,54.25-.93.22-1.86.43-2.79.66-.21.05-.41.1-.62.15-10.13,2.35-23.53,2.16-34.44,4.3-3.89.76-7.83,1.51-11.81,2.24-2.38.44-4.78.87-7.19,1.3-11.26,1.99-22.84,3.87-34.66,5.61-.63.09-1.26.18-1.89.27-63.14,8.85-132.92,9.63-196.57,11.93-.79.06-1.59.08-2.37.11-.15,0-.29,0-.44,0h-.33c-5.41.19-10.79.35-16.12.5-5.62.14-11.18.23-16.7.33-.33,0-.67.01-1,.01-.26,0-.47.04-.69,0-1.02.04-2.01.06-3,.07-13.06.15-20.66.31-20.66.31l-355.25-1.98c-17.41,0-38.27-17.42-38.27-35.53L16.8,34.3C16.8,16.19,32.87,1.5,50.27,1.5h788.77c17.41,0,34.96,13.54,34.96,31.65Z"/><path class="cls-8" d="M873.01,33.34c3.02,47.55,3.33,146.41,1.56,198.47-.15,1.61-.7,3.38-.83,3.81-.77,2.59-3.58,10.06-5.12,12.54-15.13,22.11-58.67,40.13-116.65,54.05-.93.22-1.86.43-2.79.66-.21.05-.41.1-.61.15-10.11,2.34-23.35,2.27-34.24,4.4-3.89.76-7.82,1.5-11.79,2.23-2.38.44-4.77.87-7.17,1.29-11.24,1.99-22.8,3.85-34.59,5.59-.63.09-1.26.18-1.89.27-63.02,8.82-132.64,9.83-196.17,12.13-.79.06-1.59.08-2.37.11-.15,0-.29,0-.44,0h-.33c-5.4.19-10.77.35-16.09.5-5.61.14-11.16.23-16.67.33-.33,0-.67.01-1,.01-.26,0-.47.04-.69,0-1.02.04-2.01.06-2.99.07-13.03.15-20.62.31-20.62.31l-354.38-1.89c-17.37,0-37.88-17.23-37.88-35.27L17.68,34.42C17.68,16.38,33.62,1.75,51,1.75h787.29c17.37,0,34.73,13.54,34.73,31.58Z"/><path class="cls-22" d="M872.03,33.52c2.86,45.05,3.15,148.24,1.48,197.56-.15,1.6-.7,3.37-.83,3.79-.77,2.58-3.49,9.78-5.02,12.25-15.1,22.03-58.56,39.98-116.43,53.85-.93.22-1.85.43-2.78.65-.2.05-.41.1-.61.15-10.09,2.33-23.17,2.38-34.03,4.5-3.88.75-7.81,1.49-11.77,2.22-2.37.44-4.76.87-7.16,1.29-11.22,1.98-22.76,3.84-34.53,5.57-.63.09-1.26.18-1.88.26-62.9,8.78-132.37,10.04-195.78,12.32-.79.06-1.58.08-2.36.11-.15,0-.29,0-.44,0h-.33c-5.39.19-10.75.34-16.06.5-5.6.14-11.14.23-16.64.32-.33,0-.66,0-1,.01-.26,0-.47.04-.69,0-1.02.04-2,.06-2.99.07-13.01.15-20.58.3-20.58.3l-353.52-1.79c-17.34,0-37.48-17.04-37.48-35.01L18.56,34.55C18.56,16.58,34.38,2,51.72,2h785.81c17.34,0,34.5,13.54,34.5,31.52Z"/><path class="cls-15" d="M871.04,33.71c2.7,42.54,2.98,150.06,1.4,196.64-.15,1.59-.7,3.35-.83,3.78-.77,2.57-3.4,9.5-4.93,11.97-15.07,21.95-58.45,39.83-116.21,53.64-.92.22-1.85.42-2.78.65-.2.05-.41.1-.61.14-10.07,2.32-22.99,2.48-33.83,4.6-3.87.75-7.79,1.49-11.75,2.21-2.37.43-4.75.86-7.15,1.28-11.2,1.97-22.72,3.82-34.46,5.55-.62.09-1.26.18-1.88.26-62.78,8.75-132.1,10.24-195.39,12.52-.79.06-1.58.08-2.36.11-.15,0-.29,0-.44,0h-.33c-5.38.19-10.73.34-16.03.49-5.59.14-11.12.23-16.61.32-.33,0-.66,0-.99.01-.26,0-.47.04-.69,0-1.02.04-2,.06-2.98.07-12.99.15-20.54.3-20.54.3l-352.66-1.69c-17.31,0-37.08-16.85-37.08-34.75L19.44,34.68C19.44,16.77,35.14,2.25,52.44,2.25h784.33c17.31,0,34.26,13.55,34.26,31.45Z"/><path class="cls-2" d="M870.05,33.89c2.55,40.04,2.8,151.89,1.32,195.73-.15,1.59-.7,3.34-.83,3.76-.77,2.57-3.31,9.22-4.84,11.68-15.04,21.86-58.34,39.68-115.99,53.44-.92.22-1.85.42-2.77.65-.2.05-.41.1-.61.14-10.06,2.31-22.81,2.59-33.63,4.7-3.87.75-7.78,1.48-11.72,2.21-2.37.43-4.74.86-7.13,1.28-11.18,1.96-22.67,3.81-34.4,5.53-.62.09-1.25.18-1.88.26-62.66,8.72-131.82,10.45-195,12.71-.79.06-1.58.08-2.35.11-.15,0-.29,0-.44,0h-.33c-5.37.19-10.71.34-16,.49-5.58.14-11.1.23-16.58.32-.33,0-.66,0-.99.01-.25,0-.47.04-.69,0-1.02.04-2,.06-2.98.07-12.96.15-20.5.3-20.5.3l-351.8-1.59c-17.27,0-36.69-16.65-36.69-34.49L20.32,34.81C20.32,16.97,35.89,2.5,53.17,2.5h782.85c17.27,0,34.03,13.55,34.03,31.39Z"/><path class="cls-34" d="M869.06,34.08c2.39,37.54,2.63,153.71,1.23,194.81-.15,1.58-.7,3.33-.83,3.75-.77,2.56-3.22,8.94-4.74,11.39-15.01,21.78-58.23,39.53-115.77,53.24-.92.22-1.84.42-2.77.65-.2.05-.41.1-.61.14-10.04,2.3-22.62,2.7-33.43,4.8-3.86.75-7.76,1.48-11.7,2.2-2.36.43-4.73.86-7.12,1.28-11.16,1.96-22.63,3.79-34.33,5.51-.62.09-1.25.18-1.87.26-62.55,8.68-131.55,10.65-194.6,12.91-.79.06-1.57.08-2.35.1-.15,0-.29,0-.44,0h-.33c-5.36.19-10.69.34-15.97.49-5.57.14-11.07.23-16.54.32-.33,0-.66,0-.99.01-.25,0-.47.04-.69,0-1.02.04-1.99.06-2.97.07-12.94.15-20.47.3-20.47.3l-350.93-1.49c-17.24,0-36.29-16.46-36.29-34.23l6.64-255.65C21.2,17.16,36.65,2.76,53.89,2.76h781.37c17.24,0,33.8,13.55,33.8,31.32Z"/><path class="cls-11" d="M868.07,34.26c2.23,35.04,2.45,155.54,1.15,193.9-.15,1.58-.7,3.32-.82,3.73-.77,2.55-3.13,8.67-4.65,11.1-14.99,21.7-58.12,39.38-115.55,53.03-.92.22-1.84.42-2.76.65-.2.05-.41.1-.61.14-10.02,2.29-22.44,2.8-33.22,4.9-3.85.74-7.75,1.47-11.68,2.19-2.36.43-4.73.85-7.11,1.27-11.14,1.95-22.59,3.78-34.27,5.49-.62.09-1.25.17-1.87.26-62.43,8.65-131.28,10.85-194.21,13.1-.79.06-1.57.08-2.34.1-.15,0-.29,0-.44,0h-.33c-5.35.19-10.67.34-15.94.49-5.56.14-11.05.23-16.51.32-.33,0-.66,0-.99.01-.25,0-.47.04-.68,0-1.01.04-1.99.06-2.96.07-12.91.15-20.43.3-20.43.3l-350.07-1.39c-17.21,0-35.89-16.27-35.89-33.97l6.2-254.9C22.08,17.36,37.41,3.01,54.62,3.01h779.89c17.21,0,33.57,13.55,33.57,31.26Z"/><path class="cls-5" d="M867.08,34.45c2.07,32.53,2.28,157.36,1.07,192.98-.15,1.57-.7,3.3-.82,3.72-.76,2.54-3.04,8.39-4.56,10.81-14.96,21.61-58.01,39.23-115.33,52.83-.92.21-1.84.42-2.76.64-.2.05-.4.1-.61.14-10,2.28-22.26,2.91-33.02,4.99-3.84.74-7.73,1.47-11.66,2.18-2.35.43-4.72.85-7.09,1.27-11.11,1.94-22.54,3.76-34.2,5.46-.62.09-1.25.17-1.86.26-62.31,8.62-131,11.06-193.82,13.3-.78.06-1.57.08-2.34.1-.15,0-.29,0-.44,0h-.33c-5.34.19-10.65.34-15.91.49-5.54.14-11.03.23-16.48.32-.33,0-.66,0-.99.01-.25,0-.47.04-.68,0-1.01.04-1.99.06-2.96.07-12.89.15-20.39.3-20.39.3l-349.21-1.29c-17.18,0-35.5-16.08-35.5-33.71l5.76-254.15c0-17.63,15.2-31.93,32.38-31.93h778.4c17.18,0,33.34,13.56,33.34,31.19Z"/><path class="cls-16" d="M866.1,34.63c1.91,30.03,2.1,159.19.99,192.07-.15,1.56-.7,3.29-.82,3.7-.76,2.53-2.95,8.11-4.46,10.53-14.93,21.53-57.9,39.08-115.11,52.63-.92.21-1.83.42-2.75.64-.2.05-.4.1-.61.14-9.98,2.27-22.08,3.02-32.82,5.09-3.84.74-7.72,1.46-11.64,2.17-2.35.43-4.71.85-7.08,1.26-11.09,1.93-22.5,3.75-34.14,5.44-.62.09-1.24.17-1.86.26-62.19,8.59-130.73,11.26-193.43,13.49-.78.06-1.56.08-2.33.1-.15,0-.29,0-.44,0h-.33c-5.33.19-10.63.34-15.88.48-5.53.14-11.01.22-16.45.32-.33,0-.66,0-.98.01-.25,0-.47.04-.68,0-1.01.04-1.98.06-2.95.07-12.86.15-20.35.3-20.35.3l-348.35-1.19c-17.14,0-35.1-15.89-35.1-33.45l5.32-253.39c0-17.57,15.08-31.81,32.22-31.81h776.92c17.14,0,33.11,13.56,33.11,31.12Z"/><path class="cls-39" d="M865.11,34.82c1.75,27.53,1.93,161.01.91,191.15-.15,1.56-.69,3.28-.82,3.69-.76,2.52-2.86,7.83-4.37,10.24-14.9,21.45-57.79,38.93-114.89,52.42-.91.21-1.83.41-2.75.64-.2.05-.4.1-.6.14-9.96,2.27-21.9,3.12-32.62,5.19-3.83.73-7.7,1.46-11.61,2.16-2.34.42-4.7.84-7.07,1.26-11.07,1.93-22.46,3.74-34.07,5.42-.62.09-1.24.17-1.86.26-62.07,8.55-130.46,11.46-193.03,13.69-.78.06-1.56.08-2.33.1-.15,0-.29,0-.43,0h-.33c-5.32.19-10.61.33-15.85.48-5.52.14-10.99.22-16.42.32-.33,0-.66,0-.98.01-.25,0-.47.04-.68,0-1.01.04-1.98.06-2.95.07-12.84.15-20.31.3-20.31.3l-347.48-1.09c-17.11,0-34.7-15.69-34.7-33.19l4.87-252.64c0-17.5,14.95-31.69,32.06-31.69h775.44c17.11,0,32.88,13.56,32.88,31.06Z"/><path class="cls-37" d="M864.12,35c1.59,25.03,1.75,162.84.82,190.24-.14,1.55-.69,3.27-.82,3.68-.76,2.51-2.77,7.55-4.28,9.95-14.87,21.36-57.68,38.77-114.67,52.22-.91.21-1.83.41-2.74.64-.2.05-.4.1-.6.14-9.94,2.26-21.72,3.23-32.41,5.29-3.82.73-7.69,1.45-11.59,2.16-2.34.42-4.69.84-7.05,1.25-11.05,1.92-22.42,3.72-34.01,5.4-.62.09-1.24.17-1.85.26-61.95,8.52-130.19,11.67-192.64,13.88-.78.06-1.56.08-2.33.1-.14,0-.29,0-.43,0h-.33c-5.31.19-10.59.33-15.82.48-5.51.13-10.97.22-16.39.31-.33,0-.65,0-.98.01-.25,0-.47.04-.68,0-1.01.04-1.97.06-2.94.07-12.81.15-20.27.3-20.27.3l-346.62-.99c-17.08,0-34.31-15.5-34.31-32.93l4.43-251.89c0-17.43,14.83-31.56,31.91-31.56h773.96c17.08,0,32.65,13.56,32.65,30.99Z"/><path class="cls-23" d="M863.13,35.18c1.43,22.52,1.58,164.66.74,189.32-.14,1.55-.69,3.25-.82,3.66-.76,2.5-2.68,7.27-4.18,9.66-14.84,21.28-57.57,38.62-114.45,52.02-.91.21-1.82.41-2.74.63-.2.05-.4.1-.6.14-9.92,2.25-21.53,3.34-32.21,5.39-3.81.73-7.67,1.44-11.57,2.15-2.33.42-4.68.84-7.04,1.25-11.03,1.91-22.37,3.71-33.94,5.38-.61.09-1.24.17-1.85.26-61.83,8.49-129.91,11.87-192.25,14.08-.78.06-1.56.08-2.32.1-.14,0-.29,0-.43,0h-.33c-5.3.19-10.57.33-15.79.48-5.5.13-10.95.22-16.36.31-.33,0-.65,0-.98.01-.25,0-.46.04-.68,0-1,.04-1.97.06-2.94.07-12.79.15-20.23.29-20.23.29l-345.76-.89c-17.05,0-33.91-15.31-33.91-32.67l3.99-251.13c0-17.36,14.7-31.44,31.75-31.44h772.48c17.05,0,32.42,13.56,32.42,30.93Z"/><path class="cls-35" d="M862.14,35.37c1.27,20.02,1.4,166.49.66,188.41-.14,1.54-.69,3.24-.81,3.65-.76,2.49-2.59,6.99-4.09,9.37-14.82,21.2-57.46,38.47-114.23,51.81-.91.21-1.82.41-2.73.63-.2.05-.4.09-.6.14-9.9,2.24-21.35,3.44-32.01,5.49-3.81.73-7.66,1.44-11.55,2.14-2.33.42-4.67.83-7.03,1.24-11.01,1.9-22.33,3.69-33.88,5.36-.61.09-1.23.17-1.85.25-61.72,8.45-129.64,12.08-191.86,14.27-.78.06-1.55.08-2.32.1-.14,0-.29,0-.43,0h-.33c-5.29.18-10.54.33-15.76.48-5.49.13-10.93.22-16.32.31-.33,0-.65,0-.98.01-.25,0-.46.04-.68,0-1,.04-1.97.06-2.93.07-12.76.15-20.19.29-20.19.29l-344.9-.79c-17.01,0-33.51-15.12-33.51-32.41l3.54-250.38c0-17.29,14.58-31.32,31.59-31.32h771c17.01,0,32.18,13.57,32.18,30.86Z"/><path class="cls-18" d="M861.15,35.55c1.11,17.52,1.23,168.31.58,187.49-.14,1.53-.69,3.23-.81,3.63-.76,2.48-2.5,6.72-4,9.09-14.79,21.11-57.35,38.32-114.01,51.61-.91.21-1.81.41-2.73.63-.2.05-.4.09-.6.14-9.88,2.23-21.17,3.55-31.81,5.59-3.8.72-7.64,1.43-11.52,2.13-2.32.42-4.66.83-7.01,1.24-10.99,1.9-22.29,3.68-33.81,5.34-.61.09-1.23.17-1.84.25-61.6,8.42-129.37,12.28-191.46,14.47-.77.06-1.55.08-2.31.1-.14,0-.29,0-.43,0h-.32c-5.28.18-10.52.33-15.73.48-5.48.13-10.91.22-16.29.31-.33,0-.65,0-.97.01-.25,0-.46.04-.68,0-1,.04-1.96.06-2.92.07-12.74.15-20.16.29-20.16.29l-344.03-.69c-16.98,0-33.12-14.93-33.12-32.15l3.1-249.62c0-17.23,14.46-31.19,31.44-31.19h769.52c16.98,0,31.95,13.57,31.95,30.79Z"/><path class="cls-9" d="M860.17,35.74c.95,15.02,1.05,170.14.49,186.58-.14,1.53-.69,3.21-.81,3.62-.75,2.47-2.4,6.44-3.9,8.8-14.76,21.03-57.24,38.17-113.8,51.41-.9.21-1.81.41-2.72.63-.2.05-.4.09-.6.14-9.86,2.22-20.99,3.66-31.6,5.68-3.79.72-7.63,1.43-11.5,2.12-2.32.42-4.65.83-7,1.23-10.97,1.89-22.24,3.66-33.75,5.32-.61.09-1.23.17-1.84.25-61.48,8.39-129.09,12.48-191.07,14.66-.77.06-1.55.08-2.31.1-.14,0-.29,0-.43,0h-.32c-5.27.18-10.5.33-15.7.47-5.47.13-10.89.22-16.26.31-.32,0-.65,0-.97.01-.25,0-.46.04-.67,0-1,.04-1.96.06-2.92.07-12.72.15-20.12.29-20.12.29l-343.17-.6c-16.95,0-32.72-14.73-32.72-31.89l2.66-248.87c0-17.16,14.33-31.07,31.28-31.07h768.04c16.95,0,31.72,13.57,31.72,30.73Z"/><path class="cls-21" d="M859.18,35.92c.8,12.51.88,171.96.41,185.66-.14,1.52-.69,3.2-.81,3.6-.75,2.46-2.31,6.16-3.81,8.51-14.73,20.95-57.13,38.02-113.58,51.2-.9.21-1.81.41-2.71.62-.2.05-.4.09-.6.14-9.85,2.21-20.81,3.76-31.4,5.78-3.79.72-7.61,1.42-11.48,2.11-2.32.42-4.64.82-6.99,1.23-10.94,1.88-22.2,3.65-33.68,5.3-.61.09-1.23.17-1.84.25-61.36,8.36-128.82,12.69-190.68,14.86-.77.06-1.54.08-2.3.1-.14,0-.29,0-.43,0h-.32c-5.26.18-10.48.33-15.67.47-5.46.13-10.86.22-16.23.31-.32,0-.65,0-.97.01-.25,0-.46.04-.67,0-1,.04-1.95.06-2.91.07-12.69.14-20.08.29-20.08.29l-342.31-.5c-16.92,0-32.32-14.54-32.32-31.63l2.21-248.12c0-17.09,14.21-30.95,31.12-30.95h766.55c16.92,0,31.49,13.57,31.49,30.66Z"/><path class="cls-3" d="M858.19,36.11c.64,10.01.7,173.79.33,184.75-.14,1.52-.68,3.19-.81,3.59-.75,2.45-2.22,5.88-3.72,8.22-14.7,20.86-57.02,37.87-113.36,51-.9.21-1.8.4-2.71.62-.2.05-.4.09-.6.14-9.83,2.2-20.62,3.87-31.2,5.88-3.78.71-7.6,1.42-11.46,2.11-2.31.41-4.64.82-6.97,1.22-10.92,1.87-22.16,3.63-33.62,5.28-.61.09-1.22.17-1.83.25-61.24,8.32-128.55,12.89-190.29,15.05-.77.06-1.54.08-2.3.1-.14,0-.29,0-.43,0h-.32c-5.25.18-10.46.33-15.64.47-5.45.13-10.84.22-16.2.31-.32,0-.65,0-.97.01-.25,0-.46.04-.67,0-.99.04-1.95.06-2.91.07-12.67.14-20.04.29-20.04.29l-341.45-.4c-16.88,0-31.93-14.35-31.93-31.37l1.77-247.36c0-17.02,14.08-30.83,30.97-30.83h765.07c16.88,0,31.26,13.57,31.26,30.6Z"/><path class="cls-13" d="M857.2,36.29c.48,7.51.53,175.61.25,183.83-.14,1.51-.68,3.18-.81,3.58-.75,2.44-2.13,5.6-3.62,7.94-14.67,20.78-56.91,37.72-113.14,50.8-.9.21-1.8.4-2.7.62-.2.05-.4.09-.6.14-9.81,2.19-20.44,3.98-31,5.98-3.77.71-7.58,1.41-11.44,2.1-2.31.41-4.63.82-6.96,1.22-10.9,1.87-22.12,3.62-33.55,5.25-.61.09-1.22.17-1.83.25-61.12,8.29-128.27,13.09-189.89,15.25-.77.06-1.54.08-2.29.1-.14,0-.29,0-.43,0h-.32c-5.24.18-10.44.32-15.61.47-5.44.13-10.82.22-16.17.31-.32,0-.65,0-.97.01-.25,0-.46.04-.67,0-.99.04-1.95.06-2.9.07-12.64.14-20,.29-20,.29l-340.58-.3c-16.85,0-31.53-14.16-31.53-31.11l1.33-246.61c0-16.96,13.96-30.7,30.81-30.7h763.59c16.85,0,31.03,13.58,31.03,30.53Z"/><path class="cls-20" d="M856.21,36.48c.32,5.01.35,177.44.16,182.92-.14,1.5-.68,3.16-.8,3.56-.75,2.43-2.04,5.32-3.53,7.65-14.64,20.7-56.8,37.57-112.92,50.59-.9.21-1.8.4-2.7.62-.2.05-.4.09-.59.14-9.79,2.19-20.26,4.08-30.8,6.08-3.76.71-7.57,1.4-11.41,2.09-2.3.41-4.62.81-6.94,1.21-10.88,1.86-22.07,3.61-33.49,5.23-.61.09-1.22.17-1.83.25-60.99,8.38-128,13.3-189.5,15.44-.77.06-1.54.08-2.29.1-.14,0-.28,0-.43,0h-.32c-5.23.18-10.42.32-15.58.47-5.43.13-10.8.22-16.14.3-.32,0-.64,0-.97.01-.25,0-.46.04-.67,0-.99.04-1.94.06-2.9.07-12.62.14-19.96.29-19.96.29l-339.72-.2c-16.82,0-31.13-13.97-31.13-30.85l.89-245.86c0-16.89,13.84-30.58,30.65-30.58h762.11c16.82,0,30.8,13.58,30.8,30.47Z"/><path class="cls-14" d="M855.22,36.66c.16,2.5.18,179.26.08,182-.14,1.5-.68,3.15-.8,3.55-.75,2.42-1.95,5.04-3.43,7.36-14.62,20.61-56.69,37.42-112.7,50.39-.9.2-1.79.4-2.69.61-.2.05-.4.09-.59.14-9.77,2.18-20.08,4.19-30.59,6.18-3.76.71-7.55,1.4-11.39,2.08-2.3.41-4.61.81-6.93,1.21-10.86,1.85-22.03,3.59-33.42,5.21-.61.09-1.22.17-1.82.25-60.87,8.34-127.73,13.5-189.11,15.64-.77.06-1.53.08-2.29.1-.14,0-.28,0-.43,0h-.32c-5.22.18-10.4.32-15.55.46-5.42.13-10.78.22-16.1.3-.32,0-.64,0-.96.01-.25,0-.46.04-.67,0-.99.04-1.94.06-2.89.07-12.59.14-19.92.29-19.92.29l-338.86-.1c-16.78,0-30.74-13.77-30.74-30.59l.44-245.1c0-16.82,13.71-30.46,30.5-30.46h760.63c16.78,0,30.57,13.58,30.57,30.4Z"/><path class="cls-19" d="M854.24,36.85v181.09c-.14,1.49-.68,3.14-.8,3.53-.74,2.41-1.86,4.77-3.34,7.07-14.59,20.53-56.58,37.26-112.48,50.19-.89.2-1.79.41-2.69.61-.2.05-.39.09-.59.14-9.74,2.21-19.9,4.3-30.39,6.28-3.75.7-7.54,1.39-11.37,2.07-2.29.41-4.6.81-6.92,1.2-10.84,1.84-21.99,3.58-33.36,5.19-.6.09-1.21.17-1.82.25-60.75,8.31-127.45,13.71-188.72,15.83-.76.06-1.53.09-2.28.1-.14,0-.28,0-.43,0h-.32c-5.21.18-10.38.32-15.52.46-5.41.13-10.76.23-16.07.3-.32,0-.64,0-.96.01-.25,0-.46.04-.67,0-.99.04-1.94.07-2.89.07-12.57.28-19.88.28-19.88.28H64.75c-16.75,0-30.34-13.58-30.34-30.33V36.85c0-16.75,13.59-30.33,30.34-30.33h759.15c16.75,0,30.33,13.58,30.33,30.33Z"/></g><path class="cls-10" d="M871.74,31.63v188.82c-.15,1.56-.71,3.27-.84,3.68-.77,2.51-1.94,4.97-3.48,7.37-15.21,21.41-58.99,38.86-117.28,52.33-.93.21-1.86.42-2.8.64-.21.05-.41.1-.62.14-10.16,2.3-20.75,4.48-31.69,6.54-3.91.73-7.86,1.45-11.85,2.16-2.39.42-4.8.84-7.21,1.25-11.3,1.92-22.93,3.73-34.78,5.41-.63.09-1.27.17-1.9.26-63.34,8.67-132.9,14.29-196.77,16.51-.8.06-1.59.09-2.38.1-.15,0-.3,0-.44,0h-.33c-5.43.19-10.83.33-16.18.48-5.64.14-11.22.24-16.76.32-.33,0-.67,0-1,.01-.26,0-.48.04-.69,0-1.03.04-2.02.07-3.01.07-13.1.3-20.73.3-20.73.3H48.54c-17.47,0-31.64-14.16-31.64-31.63V31.63C16.91,14.16,31.08,0,48.54,0h791.57c17.47,0,31.63,14.16,31.63,31.63Z"/><g class="cls-44"><path class="cls-38" d="M16.73,32.04s.04-.87.13-2.55c.12-1.68.48-4.21,1.46-7.33.99-3.12,2.77-6.85,5.82-10.51,3.08-3.58,7.41-7.24,13.2-9.35,2.85-1.13,6.05-1.8,9.43-1.98,3.38-.18,6.89-.05,10.56-.09,7.34,0,15.28,0,23.76,0,16.97,0,36.11-.01,56.99-.02,83.52-.03,194.89-.08,306.25-.12,111.36.05,222.73.09,306.25.12,20.88,0,40.02.02,56.99.02,8.48,0,16.42,0,23.76,0,3.67.04,7.18-.09,10.56.09,3.36.18,6.59.86,9.43,1.98,5.78,2.11,10.11,5.77,13.2,9.35,3.05,3.66,4.84,7.39,5.82,10.51.98,3.13,1.33,5.64,1.46,7.33.08,1.69.13,2.57.13,2.57h-.36s-.06-.86-.16-2.54c-.15-1.66-.53-4.14-1.54-7.21-1.01-3.06-2.82-6.69-5.86-10.24-3.07-3.46-7.35-6.98-13-8.95-2.82-1.06-5.84-1.66-9.17-1.79-3.28-.13-6.86.04-10.51.05-7.34.1-15.28.2-23.76.32-16.97.18-36.11.39-56.99.62-41.76.25-90.48.82-142.69.94-52.2.13-107.88.27-163.57.41-55.68-.14-111.36-.27-163.57-.4-52.2-.1-100.92-.68-142.69-.94-20.88-.23-40.02-.43-56.99-.62-8.48-.11-16.42-.22-23.76-.32-3.65-.01-7.24-.19-10.51-.05-3.27.13-6.39.74-9.17,1.79-5.65,1.97-9.93,5.48-13,8.94-3.04,3.54-4.85,7.18-5.86,10.24-1.01,3.08-1.39,5.53-1.54,7.2-.11,1.68-.16,2.55-.16,2.55l-.36-.02Z"/></g><g class="cls-41"><path class="cls-28" d="M791.77,214.82c128.3-43.84,234.75-59.67,237.76-35.36,3.01,24.32-98.55,79.57-226.85,123.42-128.3,43.84-234.75,59.67-237.76,35.36-3.01-24.32,98.55-79.57,226.85-123.42Z"/><path class="cls-6" d="M702.31,250.26c132.85-27.08,240.45-29.18,240.33-4.67-.12,24.5-107.92,66.32-240.77,93.4-132.85,27.08-240.45,29.18-240.33,4.67.12-24.5,107.92-66.32,240.77-93.4Z"/></g><path class="cls-32" d="M871.74,220.45c-.15,1.56-.71,3.27-.84,3.68-.77,2.51-1.94,4.97-3.48,7.37-15.21,21.41-58.99,38.86-117.28,52.33-.93.21-1.86.42-2.8.64-.21.05-.41.1-.62.14-10.23,2.29-20.88,4.47-31.84,6.54-3.9.73-7.84,1.45-11.83,2.16-2.39.42-4.79.84-7.2,1.25-11.28,1.92-22.88,3.73-34.72,5.41-.62.09-1.23.17-1.85.26-63.34,8.67-132.9,14.29-196.77,16.51-.8.06-1.59.09-2.38.1-.15,0-.3,0-.44,0-5.42.19-10.8.33-16.15.48-5.97.14-11.86.25-17.72.33.2,0,.4-.01.6-.01,66.98-1.65,250.25-10.4,324.31-56.46,14.82-9.21,33.75-30.65,45.78-36.99,7.39-3.89,15.37-4.1,23.29-2.71,23.86,4.2,47.16,22.91,51.95-1.06Z"/><g class="cls-43"><path class="cls-26" d="M516.89,274c199.09-36.74,357.94-46.97,354.81-22.85-3.14,24.12-167.08,73.46-366.17,110.2-199.09,36.74-357.94,46.97-354.81,22.85,3.14-24.12,167.08-73.46,366.17-110.2Z"/><path class="cls-27" d="M798.78,237.37c194.86-54.94,352.09-79.77,351.19-55.46-.9,24.31-159.6,88.55-354.45,143.49-194.86,54.94-352.09,79.77-351.19,55.46.9-24.31,159.6-88.55,354.45-143.49Z"/><path class="cls-29" d="M670.15,275.3c199.76-32.91,357.98-45,353.38-27.02-4.59,17.98-170.26,59.23-370.02,92.14-199.76,32.91-357.98,45-353.38,27.02,4.59-17.98,170.26-59.23,370.02-92.14Z"/><path class="cls-30" d="M858.76,228.19c49.81-22.01,92.34-30.93,95-19.93,2.66,11-35.57,37.76-85.38,59.77-49.81,22.01-92.34,30.93-95,19.93-2.66-11,35.57-37.76,85.38-59.77Z"/></g><path class="cls-38" d="M871.74,220.45s-.04.31-.13.92c-.07.61-.2,1.51-.49,2.69-.26,1.19-.79,2.6-1.71,4.15-.89,1.55-2.44,3.2-4.68,4.12-4.55,2.04-10.35.71-16.17-1.12-5.92-1.88-12.33-4.55-19.52-6.84-7.14-2.21-15.32-4.23-23.88-2.84-8.68,1.43-15.8,7.78-22.85,13.92-7.08,6.26-14.1,13.1-21.8,19.46-3.87,3.13-7.86,6.32-12.41,8.64-2.21,1.21-4.37,2.49-6.62,3.65l-6.82,3.39c-9.24,4.19-18.63,8.01-28.11,11.09-9.44,3.19-18.87,5.88-28.07,8.17-9.19,2.35-18.15,4.27-26.66,5.97-8.52,1.7-16.61,3.12-24.08,4.37-14.95,2.46-27.46,4.19-36.22,5.39-8.76,1.16-13.77,1.83-13.77,1.83,0,0,5-.72,13.75-1.98,8.74-1.3,21.23-3.17,36.14-5.8,7.46-1.33,15.52-2.84,24.01-4.63,8.49-1.79,17.41-3.81,26.55-6.26,9.15-2.4,18.52-5.18,27.88-8.46,9.4-3.16,18.71-7.08,27.81-11.33l6.78-3.27c2.25-1.13,4.44-2.38,6.66-3.57,4.46-2.2,8.4-5.28,12.28-8.34,7.71-6.21,14.81-12.96,21.99-19.16,7.12-6.05,14.49-12.47,23.44-13.84,8.77-1.45,17.08.51,24.29,2.67,7.26,2.24,13.7,4.88,19.56,6.7,5.79,1.79,11.34,2.9,15.47,1.24,4.16-1.68,5.62-5.37,6.41-7.46.4-1.11.63-1.99.76-2.59.15-.59.22-.9.22-.9Z"/></g></g></g></svg>