<?xml version="1.0" encoding="UTF-8"?><svg xmlns="http://www.w3.org/2000/svg" xmlns:xlink="http://www.w3.org/1999/xlink" viewBox="0 0 429.2 565.11"><defs><style>.cls-1{fill:#abe9ec;}.cls-1,.cls-2,.cls-3,.cls-4,.cls-5,.cls-6,.cls-7,.cls-8,.cls-9,.cls-10{stroke-width:0px;}.cls-2{fill:#fef9f3;}.cls-3{fill:#2f66bb;}.cls-11{stroke:#e69e31;stroke-linejoin:round;}.cls-11,.cls-4{fill:none;}.cls-12{clip-path:url(#clippath);}.cls-5{fill:#80dbd6;}.cls-13{mix-blend-mode:overlay;}.cls-6{fill:#ff7f22;}.cls-7{fill:#ffc500;}.cls-8{fill:#6d9ac1;}.cls-14{isolation:isolate;}.cls-9{fill:#e69e31;}.cls-10{fill:#ffa900;}</style><clipPath id="clippath"><path class="cls-4" d="M293.41,218.08c0,49.72-40.3,90.02-90.02,90.02s-90.02-40.3-90.02-90.02,40.3-90.02,90.02-90.02,90.02,40.3,90.02,90.02"/></clipPath></defs><g class="cls-14"><g id="Capa_2"><g id="Capa_1-2"><path class="cls-5" d="M137.52,51.11h154.15c75.95,0,137.52,61.57,137.52,137.52v320.57c0,30.88-25.03,55.92-55.92,55.92H55.91c-30.88,0-55.91-25.03-55.91-55.92V188.63C0,112.68,61.57,51.11,137.52,51.11"/><g class="cls-13"><path class="cls-1" d="M137.52,83.64c-57.98,0-104.99,47-104.99,104.99v320.57c0,12.91,10.47,23.38,23.38,23.38h317.37c12.91,0,23.38-10.47,23.38-23.38V188.63c0-57.98-47-104.99-104.99-104.99h-154.15Z"/></g><path class="cls-8" d="M331.53,0H97.49c-5.53,0-10.01,3.8-10.01,8.49v40.95c0,4.69,4.48,8.48,10.01,8.48h234.04c5.53,0,10.01-3.8,10.01-8.48V8.49c0-4.69-4.48-8.49-10.01-8.49"/><path class="cls-3" d="M273.08,15.35h-117.02c-2.76,0-5.01.99-5.01,2.2v10.64c0,1.22,2.24,2.2,5.01,2.2h117.02c2.76,0,5.01-.99,5.01-2.2v-10.64c0-1.22-2.24-2.2-5.01-2.2"/><rect class="cls-10" x="125.03" y="494.84" width="186.85" height="37.91"/><rect class="cls-7" x="286.28" y="494.84" width="6.81" height="37.91"/><rect class="cls-7" x="262.5" y="494.84" width="6.81" height="37.91"/><rect class="cls-7" x="238.72" y="494.84" width="6.81" height="37.91"/><rect class="cls-7" x="214.95" y="494.84" width="6.81" height="37.91"/><rect class="cls-7" x="191.17" y="494.84" width="6.81" height="37.91"/><rect class="cls-7" x="167.4" y="494.84" width="6.81" height="37.91"/><rect class="cls-7" x="143.62" y="494.84" width="6.81" height="37.91"/><rect class="cls-9" x="116.12" y="456.91" width="186.85" height="37.91"/><rect class="cls-10" x="277.37" y="456.91" width="6.81" height="37.92"/><rect class="cls-10" x="253.59" y="456.91" width="6.81" height="37.92"/><rect class="cls-10" x="229.82" y="456.91" width="6.81" height="37.92"/><rect class="cls-10" x="206.04" y="456.91" width="6.81" height="37.92"/><rect class="cls-10" x="182.27" y="456.91" width="6.81" height="37.92"/><rect class="cls-10" x="158.49" y="456.91" width="6.81" height="37.92"/><rect class="cls-10" x="134.72" y="456.91" width="6.81" height="37.92"/><rect class="cls-10" x="129.48" y="419.01" width="186.85" height="37.91"/><rect class="cls-7" x="290.73" y="419.01" width="6.81" height="37.91"/><rect class="cls-7" x="266.96" y="419.01" width="6.81" height="37.91"/><rect class="cls-7" x="243.18" y="419.01" width="6.81" height="37.91"/><rect class="cls-7" x="219.41" y="419.01" width="6.81" height="37.91"/><rect class="cls-7" x="195.63" y="419.01" width="6.81" height="37.91"/><rect class="cls-7" x="171.85" y="419.01" width="6.81" height="37.91"/><rect class="cls-7" x="148.08" y="419.01" width="6.81" height="37.91"/><rect class="cls-9" x="120.57" y="381.1" width="186.85" height="37.91"/><rect class="cls-10" x="281.82" y="381.1" width="6.81" height="37.91"/><rect class="cls-10" x="258.04" y="381.1" width="6.81" height="37.91"/><rect class="cls-10" x="234.27" y="381.1" width="6.81" height="37.91"/><rect class="cls-10" x="210.5" y="381.1" width="6.81" height="37.91"/><rect class="cls-10" x="186.72" y="381.1" width="6.81" height="37.91"/><rect class="cls-10" x="162.95" y="381.1" width="6.81" height="37.91"/><rect class="cls-10" x="139.17" y="381.1" width="6.81" height="37.91"/><rect class="cls-10" x="116.99" y="343.18" width="186.85" height="37.91"/><rect class="cls-7" x="278.42" y="343.18" width="6.81" height="37.91"/><rect class="cls-7" x="254.64" y="343.18" width="6.81" height="37.91"/><rect class="cls-7" x="230.87" y="343.18" width="6.81" height="37.91"/><rect class="cls-7" x="207.09" y="343.18" width="6.81" height="37.91"/><rect class="cls-7" x="183.32" y="343.18" width="6.81" height="37.91"/><rect class="cls-7" x="159.54" y="343.18" width="6.81" height="37.91"/><rect class="cls-7" x="135.76" y="343.18" width="6.81" height="37.91"/><rect class="cls-9" x="108.08" y="305.27" width="186.85" height="37.91"/><rect class="cls-10" x="269.51" y="305.27" width="6.81" height="37.91"/><rect class="cls-10" x="245.73" y="305.27" width="6.81" height="37.91"/><rect class="cls-10" x="221.96" y="305.27" width="6.81" height="37.91"/><rect class="cls-10" x="198.18" y="305.27" width="6.81" height="37.91"/><rect class="cls-10" x="174.41" y="305.27" width="6.81" height="37.91"/><rect class="cls-10" x="150.63" y="305.27" width="6.81" height="37.91"/><rect class="cls-10" x="126.86" y="305.27" width="6.81" height="37.91"/><path class="cls-6" d="M293.41,218.08c0,49.72-40.3,90.02-90.02,90.02s-90.02-40.3-90.02-90.02,40.3-90.02,90.02-90.02,90.02,40.3,90.02,90.02"/><g class="cls-12"><rect class="cls-10" x="203.39" y="128.06" width="135.45" height="12.97"/><rect class="cls-10" x="203.39" y="154" width="135.45" height="12.97"/><rect class="cls-10" x="203.39" y="179.94" width="135.45" height="12.97"/><rect class="cls-10" x="203.39" y="205.87" width="135.45" height="12.97"/><rect class="cls-10" x="203.39" y="231.81" width="135.45" height="12.97"/><rect class="cls-10" x="203.39" y="257.75" width="135.45" height="12.97"/><rect class="cls-10" x="203.39" y="283.69" width="135.45" height="12.97"/></g><path class="cls-7" d="M282.48,218.08c0,49.72-40.3,90.02-90.02,90.02s-90.02-40.3-90.02-90.02,40.3-90.02,90.02-90.02,90.02,40.3,90.02,90.02"/><path class="cls-10" d="M257.18,218.08c0,35.75-28.97,64.72-64.72,64.72s-64.72-28.97-64.72-64.72,28.98-64.72,64.72-64.72,64.72,28.97,64.72,64.72"/><path class="cls-11" d="M192.46,153.37c35.74,0,64.72,28.97,64.72,64.72,0,21.08-10.08,39.8-25.67,51.62"/><path class="cls-11" d="M192.46,128.06c49.72,0,90.02,40.3,90.02,90.02s-40.3,90.02-90.02,90.02"/><path class="cls-11" d="M127.74,218.08c0-19.88,8.96-37.66,23.07-49.53"/><path class="cls-9" d="M203.04,236.02c1.13-1.14,1.69-2.49,1.68-4.07-.01-1.57-.6-2.86-1.77-3.86-1.17-1-2.86-1.87-5.06-2.61l.07,13.02c2.26-.52,3.96-1.34,5.08-2.48M183.15,206.79c1.2,1,2.94,1.84,5.21,2.52l-.08-13.4c-2.39.58-4.14,1.49-5.27,2.72-1.12,1.23-1.68,2.67-1.67,4.3,0,1.57.61,2.86,1.82,3.86M214.32,244.02c-3.75,3.7-9.18,6.02-16.29,6.94l.06,10.57-9.43.06-.06-10.29c-4.66-.22-9.1-1.01-13.32-2.37-4.23-1.36-7.63-3.03-10.22-5.03l5.12-11.54c2.4,1.75,5.21,3.21,8.42,4.39,3.22,1.17,6.52,1.91,9.92,2.2l-.09-15.76c-4.48-1.05-8.26-2.22-11.35-3.52-3.09-1.3-5.68-3.22-7.77-5.76-2.09-2.53-3.15-5.91-3.17-10.12-.03-5.22,1.85-9.72,5.63-13.48,3.78-3.76,9.26-6.08,16.43-6.93l-.06-10.47,9.43-.06.06,10.28c7.74.58,14.14,2.46,19.19,5.64l-4.65,11.63c-4.73-2.68-9.56-4.29-14.47-4.82l.09,16.04c4.41.98,8.15,2.11,11.2,3.38,3.06,1.27,5.64,3.18,7.72,5.71,2.09,2.53,3.15,5.88,3.17,10.03.03,5.16-1.83,9.59-5.58,13.29"/><circle class="cls-2" cx="335.78" cy="149.61" r="29.88" transform="translate(-7.44 281.25) rotate(-45)"/><path class="cls-2" d="M374.18,209.31c0,7.64-6.2,13.84-13.84,13.84s-13.84-6.2-13.84-13.84,6.2-13.84,13.84-13.84,13.84,6.2,13.84,13.84Z"/></g></g></g></svg>