<?xml version="1.0" encoding="UTF-8"?><svg id="Capa_2" xmlns="http://www.w3.org/2000/svg" viewBox="0 0 643.57 676.99"><defs><style>.cls-1{fill:#313e47;}.cls-1,.cls-2,.cls-3,.cls-4,.cls-5,.cls-6{stroke-width:0px;}.cls-2{fill-rule:evenodd;}.cls-2,.cls-3{fill:#80dbd6;}.cls-4{fill:#ffc500;}.cls-5{fill:#6d9ac1;}.cls-6{fill:#fff;}</style></defs><g id="Capa_1-2"><path class="cls-6" d="M643.5,644.29c0,17.99-14.72,32.7-32.7,32.7H32.7c-17.98,0-32.7-14.72-32.7-32.7V72.57c0-17.98,14.71-32.7,32.7-32.7h578.1c17.99,0,32.7,14.72,32.7,32.7v571.72Z"/><path class="cls-2" d="M46.81,243.71c0-14.09,11.41-25.5,25.5-25.5h94.71v120.21H46.81v-94.71Z"/><rect class="cls-3" x="189.86" y="218.21" width="120.22" height="120.21"/><rect class="cls-3" x="333.24" y="218.21" width="120.21" height="120.21"/><path class="cls-2" d="M476.6,218.21h94.72c14.09,0,25.5,11.41,25.5,25.5v94.71h-120.22v-120.21Z"/><rect class="cls-3" x="46.81" y="361.54" width="120.21" height="120.22"/><rect class="cls-3" x="189.86" y="361.54" width="120.22" height="120.22"/><rect class="cls-3" x="333.24" y="361.54" width="120.21" height="120.22"/><rect class="cls-3" x="476.6" y="361.54" width="120.22" height="120.22"/><path class="cls-2" d="M46.81,504.84h120.21v120.22h-94.71c-14.09,0-25.5-11.41-25.5-25.5v-94.72Z"/><rect class="cls-3" x="189.86" y="504.84" width="120.22" height="120.22"/><rect class="cls-3" x="333.24" y="504.84" width="120.21" height="120.22"/><path class="cls-2" d="M476.6,504.84h120.22v94.72c0,14.09-11.41,25.5-25.5,25.5h-94.72v-120.22Z"/><rect class="cls-6" x="105.91" y="234.76" width="2" height="87.16" transform="translate(-165.53 157.19) rotate(-45.01)"/><rect class="cls-6" x="63.35" y="277.35" width="87.16" height="2" transform="translate(-165.5 157.13) rotate(-45)"/><rect class="cls-6" x="105.91" y="378.07" width="2" height="87.16" transform="translate(-266.89 199.19) rotate(-45.01)"/><rect class="cls-6" x="63.35" y="420.66" width="87.16" height="2" transform="translate(-266.84 199.11) rotate(-45)"/><rect class="cls-6" x="105.91" y="521.38" width="2" height="87.16" transform="translate(-368.25 241.18) rotate(-45.01)"/><rect class="cls-6" x="63.35" y="563.96" width="87.16" height="2" transform="translate(-368.17 241.08) rotate(-45)"/><rect class="cls-6" x="249.25" y="234.76" width="2" height="87.17" transform="translate(-123.53 258.57) rotate(-45.01)"/><rect class="cls-6" x="206.68" y="277.35" width="87.16" height="2" transform="translate(-123.52 258.49) rotate(-45)"/><rect class="cls-6" x="249.25" y="378.07" width="2" height="87.17" transform="translate(-224.88 300.57) rotate(-45.01)"/><rect class="cls-6" x="206.68" y="420.66" width="87.16" height="2" transform="translate(-224.85 300.47) rotate(-45)"/><rect class="cls-6" x="249.25" y="521.38" width="2" height="87.17" transform="translate(-326.24 342.57) rotate(-45.01)"/><rect class="cls-6" x="206.68" y="563.96" width="87.16" height="2" transform="translate(-326.19 342.44) rotate(-45)"/><rect class="cls-6" x="392.28" y="234.76" width="2" height="87.17" transform="translate(-81.61 359.73) rotate(-45.01)"/><rect class="cls-6" x="349.71" y="277.35" width="87.16" height="2" transform="translate(-81.63 359.63) rotate(-45)"/><rect class="cls-6" x="392.28" y="378.07" width="2" height="87.17" transform="translate(-182.97 401.73) rotate(-45.01)"/><rect class="cls-6" x="349.71" y="420.66" width="87.16" height="2" transform="translate(-182.96 401.6) rotate(-45)"/><rect class="cls-6" x="535.62" y="234.76" width="2" height="87.16" transform="translate(-39.6 461.11) rotate(-45.01)"/><rect class="cls-6" x="493.05" y="277.35" width="87.16" height="2" transform="translate(-39.65 460.98) rotate(-45)"/><rect class="cls-6" x="535.62" y="378.07" width="2" height="87.16" transform="translate(-140.96 503.1) rotate(-45.01)"/><rect class="cls-6" x="493.05" y="420.66" width="87.16" height="2" transform="translate(-140.98 502.96) rotate(-45)"/><path class="cls-5" d="M610.87,39.86H32.77C14.78,39.86.07,54.58.07,72.57v97.42h643.5v-97.42c0-17.99-14.72-32.7-32.7-32.7"/><path class="cls-1" d="M144.55,104.91c0,18.23-14.78,33.01-33.02,33.01s-33.02-14.78-33.02-33.01,14.79-33.01,33.02-33.01,33.02,14.78,33.02,33.01"/><path class="cls-4" d="M114.25,116.35h-5.28c-5.29,0-9.62-5.95-9.62-13.23V13.23c0-7.27,4.33-13.23,9.62-13.23h5.28c5.29,0,9.62,5.95,9.62,13.23v89.9c0,7.27-4.33,13.23-9.62,13.23"/><path class="cls-1" d="M284.59,104.91c0,18.23-14.78,33.01-33.02,33.01s-33.02-14.78-33.02-33.01,14.79-33.01,33.02-33.01,33.02,14.78,33.02,33.01"/><path class="cls-4" d="M254.3,116.35h-5.28c-5.29,0-9.62-5.95-9.62-13.23V13.23c0-7.27,4.33-13.23,9.62-13.23h5.28c5.29,0,9.62,5.95,9.62,13.23v89.9c0,7.27-4.33,13.23-9.62,13.23"/><path class="cls-1" d="M424.98,104.91c0,18.23-14.78,33.01-33.02,33.01s-33.02-14.78-33.02-33.01,14.79-33.01,33.02-33.01,33.02,14.78,33.02,33.01"/><path class="cls-4" d="M394.34,116.35h-5.28c-5.29,0-9.62-5.95-9.62-13.23V13.23c0-7.27,4.33-13.23,9.62-13.23h5.28c5.29,0,9.62,5.95,9.62,13.23v89.9c0,7.27-4.33,13.23-9.62,13.23"/><path class="cls-1" d="M565.02,104.91c0,18.23-14.78,33.01-33.02,33.01s-33.02-14.78-33.02-33.01,14.78-33.01,33.02-33.01,33.02,14.78,33.02,33.01"/><path class="cls-4" d="M534.73,116.35h-5.28c-5.29,0-9.62-5.95-9.62-13.23V13.23c0-7.27,4.33-13.23,9.62-13.23h5.28c5.29,0,9.62,5.95,9.62,13.23v89.9c0,7.27-4.33,13.23-9.62,13.23"/></g></svg>