<?xml version="1.0" encoding="UTF-8"?><svg id="Capa_2" xmlns="http://www.w3.org/2000/svg" viewBox="0 0 697.73 414.18"><defs><style>.cls-1{fill:#2f66bb;}.cls-1,.cls-2,.cls-3,.cls-4{stroke-width:0px;}.cls-2{fill:#e1e1e1;}.cls-3{fill:#ffc500;}.cls-4{fill:#fff;}</style></defs><g id="Capa_1-2"><path class="cls-2" d="M391.31,53.54s29.14-91.28,131.68-26.43c105.09,66.47,174.74,362.32,174.74,362.32h-270.44c0-89.32-94.99-328.19-124.77-336.58l88.79.69Z"/><path class="cls-4" d="M467.35,3.83L267.89.59s-87.22,1.18-87.22,113.86c0,145.94,51.14,195.78-84.67,279.09l219.18,18.04s103.7-6.53,103.59-128.12c-.05-55.49-4.63-161.72-9.26-209.17-3.38-34.58,24.49-68.09,57.85-70.45Z"/><path class="cls-3" d="M467.35,3.83c-.39.06-1,.15-2.31.34-1.56.26-4,.5-6.96,1.37-5.97,1.49-14.75,4.87-23.99,12.4-4.5,3.86-9.12,8.66-13.2,14.69-4.05,6.02-7.47,13.29-9.48,21.57-.57,2.05-.77,4.22-1.19,6.38-.33,2.18-.33,4.43-.52,6.7-.02,2.28.17,4.59.25,6.94.22,2.36.44,4.76.67,7.2.86,9.75,1.65,20.09,2.37,31,2.82,43.63,5.37,96.22,6.38,155.8.24,14.86.35,30.34-2.3,45.95-1.45,7.76-3.15,15.61-5.96,23.23-2.67,7.65-6.06,15.19-10.46,22.24-8.62,14.2-20.88,26.65-35.69,35.68-7.38,4.54-15.33,8.31-23.68,11.18-8.35,2.88-17.02,5.04-26.05,5.9h-.05s-.07,0-.07,0c-62.86-5.16-131.05-10.76-201.71-16.56-5.99-.49-11.95-.98-17.48-1.44l-2.64-.22,2.25-1.42c9.93-6.25,19.77-12.51,29.04-19.43,9.34-6.82,18.28-14.06,26.38-22.06,8.13-7.95,15.5-16.58,21.42-26.06,5.94-9.45,10.31-19.75,12.97-30.39,5.36-21.39,4.15-43.38,2.47-64.45-1.81-21.15-4.26-41.82-5.75-62.07-1.57-20.24-2.35-40.03-2.03-59.28.01-4.82.51-9.59.85-14.32.62-4.71,1.12-9.4,2.11-13.98,1.78-9.18,4.39-18.08,8.04-26.38,7.2-16.66,18.99-30.6,33.1-39.8,7.08-4.56,14.6-8.11,22.29-10.53C254.11,1.66,261.89-.04,269.66,0c121.87,2.36,192.9,3.74,197.69,3.83-4.78-.06-75.82-1-197.7-2.6-7.54-.03-15.27,1.67-22.84,4.02-7.58,2.41-14.98,5.92-21.94,10.43-13.87,9.09-25.44,22.81-32.52,39.26-3.59,8.2-6.15,16.99-7.9,26.08-.97,4.53-1.46,9.18-2.07,13.85-.33,4.7-.81,9.42-.82,14.21-.29,19.15.51,38.92,2.1,59.12,1.52,20.21,3.98,40.86,5.82,62.06,1.7,21.11,2.96,43.26-2.47,65-2.69,10.81-7.14,21.3-13.17,30.9-6,9.62-13.47,18.36-21.67,26.39-8.17,8.08-17.18,15.37-26.56,22.23-9.32,6.96-19.2,13.25-29.16,19.52l-.39-1.63c5.52.45,11.49.95,17.48,1.44,70.66,5.83,138.84,11.45,201.7,16.64h-.12c8.75-.83,17.4-2.96,25.61-5.8,8.24-2.83,16.09-6.53,23.37-11,14.61-8.89,26.68-21.12,35.2-35.11,4.34-6.95,7.69-14.38,10.35-21.93,2.78-7.52,4.48-15.29,5.93-22.97,2.64-15.46,2.56-30.79,2.35-45.68-.9-59.54-3.33-112.14-5.99-155.75-.68-10.9-1.43-21.24-2.25-30.98-.22-2.43-.43-4.83-.64-7.19-.07-2.39-.25-4.74-.22-7.05.2-2.3.22-4.59.56-6.79.43-2.19.65-4.39,1.24-6.47,2.07-8.38,5.57-15.71,9.7-21.76,4.15-6.06,8.85-10.87,13.42-14.73,9.37-7.53,18.26-10.84,24.28-12.25,3.03-.85,5.32-.99,6.9-1.16,1.38-.15,2.02-.23,2.44-.27Z"/><path class="cls-2" d="M.19,340.02s-5.59,67.52,78.47,71.56c84.06,4.04,236.52,0,236.52,0,0,0-52.94-9.55-52.94-67.13L.19,340.02Z"/><path class="cls-3" d="M.19,340.02s.4-.03,1.23-.03c.9,0,2.13,0,3.73,0,3.38.03,8.25.08,14.53.13,12.8.16,31.32.39,54.53.68,46.74.69,112.32,1.67,188.04,2.79h.84s0,.85,0,.85c-.01,14.39,3.81,29.64,13.18,41.84,9.25,12.21,23.64,20.81,39.07,24.41l6.75,1.58-6.88.18c-.15,0-.32,0-.49.01-49.09,1.18-95.85,1.76-138.39,1.7-21.27-.05-41.48-.21-60.4-.65-9.46-.26-18.59-.45-27.36-.87-8.76-.34-17.24-.72-25.22-2.03-15.95-2.55-29.91-8.42-39.87-16.62-10.07-8.14-15.84-18.1-18.99-26.51-3.18-8.48-4.03-15.54-4.35-20.25-.15-2.37-.14-4.18-.09-5.4.05-1.21.16-1.83.16-1.83,0,0,.01.61.02,1.83,0,1.21.06,3.01.27,5.37.43,4.68,1.39,11.67,4.64,20.03,3.22,8.28,9,18.05,18.97,25.99,9.87,8,23.64,13.72,39.45,16.16,7.91,1.26,16.3,1.59,25.08,1.9,8.76.38,17.89.54,27.34.76,18.9.38,39.11.49,60.37.49,42.52-.04,89.28-.66,138.35-1.84.17,0,.33,0,.49-.01l-.13,1.75c-8.07-1.82-15.6-5-22.45-9.23-6.82-4.24-12.98-9.53-17.69-15.86-9.65-12.57-13.54-28.27-13.5-42.91l.84.85c-75.48-1.43-140.87-2.67-187.46-3.56-23.28-.5-41.87-.89-54.71-1.16-6.35-.16-11.28-.28-14.7-.36-1.63-.05-2.89-.09-3.82-.12-.86-.03-1.33-.08-1.33-.08Z"/><path class="cls-1" d="M366.78,85.32c0,.98-19.05,1.77-42.55,1.77s-42.55-.79-42.55-1.77,19.05-1.77,42.55-1.77,42.55.79,42.55,1.77Z"/><path class="cls-1" d="M219.63,85.59c0-.98,5.32-1.77,11.87-1.77s11.87.79,11.87,1.77-5.31,1.77-11.87,1.77-11.87-.79-11.87-1.77Z"/><path class="cls-1" d="M372.04,54.26c0,.98-19.05,1.77-42.55,1.77s-42.55-.79-42.55-1.77,19.05-1.77,42.55-1.77,42.55.79,42.55,1.77Z"/><path class="cls-1" d="M224.89,54.53c0-.98,5.32-1.77,11.87-1.77s11.87.79,11.87,1.77-5.31,1.77-11.87,1.77-11.87-.79-11.87-1.77Z"/><path class="cls-1" d="M389.17,26.21c0,.98-19.05,1.77-42.55,1.77s-42.55-.79-42.55-1.77,19.05-1.77,42.55-1.77,42.55.79,42.55,1.77Z"/><path class="cls-1" d="M242.02,26.48c0-.98,5.32-1.77,11.87-1.77s11.87.79,11.87,1.77-5.31,1.77-11.87,1.77-11.87-.79-11.87-1.77Z"/><path class="cls-1" d="M366.78,119.23c0,.98-19.05,1.77-42.55,1.77s-42.55-.79-42.55-1.77,19.05-1.77,42.55-1.77,42.55.79,42.55,1.77Z"/><path class="cls-1" d="M219.63,119.5c0-.98,5.32-1.77,11.87-1.77s11.87.79,11.87,1.77-5.31,1.77-11.87,1.77-11.87-.79-11.87-1.77Z"/><path class="cls-1" d="M371.07,152.49c0,.98-19.05,1.77-42.55,1.77s-42.55-.79-42.55-1.77,19.05-1.77,42.55-1.77,42.55.79,42.55,1.77Z"/><path class="cls-1" d="M223.92,152.76c0-.98,5.32-1.77,11.87-1.77s11.87.79,11.87,1.77-5.31,1.77-11.87,1.77-11.87-.79-11.87-1.77Z"/><path class="cls-1" d="M372.42,181.21c0,.98-19.05,1.77-42.55,1.77s-42.55-.79-42.55-1.77,19.05-1.77,42.55-1.77,42.55.79,42.55,1.77Z"/><path class="cls-1" d="M225.28,181.48c0-.98,5.32-1.77,11.87-1.77s11.87.79,11.87,1.77-5.31,1.77-11.87,1.77-11.87-.79-11.87-1.77Z"/><path class="cls-1" d="M373.77,209.94c0,.98-19.05,1.77-42.55,1.77s-42.55-.79-42.55-1.77,19.05-1.77,42.55-1.77,42.55.79,42.55,1.77Z"/><path class="cls-1" d="M226.63,210.21c0-.98,5.32-1.77,11.87-1.77s11.87.79,11.87,1.77-5.31,1.77-11.87,1.77-11.87-.79-11.87-1.77Z"/><path class="cls-1" d="M375.13,238.66c0,.98-19.05,1.77-42.55,1.77s-42.55-.79-42.55-1.77,19.05-1.77,42.55-1.77,42.55.79,42.55,1.77Z"/><path class="cls-1" d="M227.98,238.93c0-.98,5.32-1.77,11.87-1.77s11.87.79,11.87,1.77-5.31,1.77-11.87,1.77-11.87-.79-11.87-1.77Z"/><path class="cls-1" d="M375.62,266.58c0,.98-19.05,1.77-42.55,1.77s-42.55-.79-42.55-1.77,19.05-1.77,42.55-1.77,42.55.79,42.55,1.77Z"/><path class="cls-1" d="M228.47,266.86c0-.98,5.32-1.77,11.87-1.77s11.87.79,11.87,1.77-5.31,1.77-11.87,1.77-11.87-.79-11.87-1.77Z"/><path class="cls-1" d="M371.07,294.38c0,.98-19.05,1.77-42.55,1.77s-42.55-.79-42.55-1.77,19.05-1.77,42.55-1.77,42.55.79,42.55,1.77Z"/><path class="cls-1" d="M223.92,294.65c0-.98,5.32-1.77,11.87-1.77s11.87.79,11.87,1.77-5.31,1.77-11.87,1.77-11.87-.79-11.87-1.77Z"/><path class="cls-1" d="M360.15,323.89c0,.98-19.05,1.77-42.55,1.77s-42.55-.79-42.55-1.77,19.05-1.77,42.55-1.77,42.55.79,42.55,1.77Z"/><path class="cls-1" d="M213.01,324.16c0-.98,5.32-1.77,11.87-1.77s11.87.79,11.87,1.77-5.31,1.77-11.87,1.77-11.87-.79-11.87-1.77Z"/><path class="cls-1" d="M351.93,350.76c0,.98-19.05,1.77-42.55,1.77s-42.55-.79-42.55-1.77,19.05-1.77,42.55-1.77,42.55.79,42.55,1.77Z"/></g></svg>