<?xml version="1.0" encoding="UTF-8"?><svg xmlns="http://www.w3.org/2000/svg" viewBox="0 0 806.57 806.57"><defs><style>.cls-1{fill:#ffc500;stroke-width:0px;}.cls-2{mix-blend-mode:darken;}.cls-3{isolation:isolate;}</style></defs><g class="cls-3"><g id="Capa_2"><g id="Capa_1-2"><g class="cls-2"><path class="cls-1" d="M403.29,806.57c-.93,0-1.74-.63-1.96-1.53l-51.04-203.94-146.17,151.09c-.65.67-1.66.81-2.47.35-.8-.46-1.19-1.42-.94-2.31l57.77-202.13-202.14,57.76c-.9.25-1.84-.13-2.31-.94s-.32-1.82.35-2.47l151.09-146.17L1.53,405.25c-.9-.23-1.53-1.03-1.53-1.96s.63-1.74,1.53-1.96l203.93-51.04L54.37,204.11c-.67-.65-.81-1.66-.35-2.47.46-.8,1.41-1.18,2.31-.94l202.14,57.77-57.77-202.13c-.26-.89.13-1.85.94-2.31.8-.46,1.82-.32,2.47.35l146.17,151.09L401.32,1.53c.23-.9,1.03-1.53,1.96-1.53s1.74.63,1.96,1.53l51.04,203.93,146.17-151.09c.65-.67,1.66-.81,2.47-.35.8.46,1.19,1.42.94,2.31l-57.76,202.13,202.14-57.77c.89-.25,1.84.13,2.31.94.46.8.32,1.82-.35,2.47l-151.09,146.17,203.94,51.04c.9.23,1.53,1.03,1.53,1.96s-.63,1.74-1.53,1.96l-203.94,51.04,151.09,146.17c.67.65.81,1.66.35,2.47-.47.8-1.42,1.19-2.31.94l-202.14-57.76,57.76,202.13c.26.89-.13,1.84-.94,2.31-.81.46-1.82.32-2.47-.35l-146.17-151.09-51.04,203.94c-.23.9-1.03,1.53-1.96,1.53ZM351.36,595.05c.17,0,.35.02.52.07.71.19,1.26.75,1.44,1.46l49.96,199.62,49.96-199.62c.18-.71.73-1.27,1.44-1.46.72-.2,1.47.02,1.98.55l143.08,147.89-56.54-197.86c-.2-.71,0-1.47.52-1.99.52-.52,1.28-.72,1.99-.52l197.86,56.54-147.9-143.08c-.53-.51-.74-1.27-.55-1.98s.75-1.26,1.46-1.44l199.63-49.96-199.63-49.96c-.71-.18-1.27-.73-1.46-1.44s.02-1.47.55-1.98l147.9-143.08-197.86,56.55c-.7.2-1.46,0-1.99-.52-.52-.52-.72-1.28-.52-1.99l56.54-197.86-143.08,147.89c-.51.53-1.26.74-1.98.55-.71-.19-1.26-.75-1.44-1.46L403.29,10.36l-49.96,199.62c-.18.71-.73,1.27-1.44,1.46-.72.19-1.47-.02-1.98-.55L206.82,63l56.55,197.86c.2.71,0,1.47-.52,1.99s-1.28.71-1.99.52l-197.86-56.55,147.9,143.08c.53.51.74,1.27.55,1.98s-.75,1.26-1.46,1.44L10.36,403.29l199.62,49.96c.71.18,1.27.73,1.46,1.44s-.02,1.47-.55,1.98l-147.9,143.08,197.86-56.54c.71-.2,1.47,0,1.99.52.52.52.72,1.28.52,1.99l-56.55,197.86,143.08-147.89c.39-.4.91-.62,1.45-.62Z"/></g></g></g></g></svg>