<?xml version="1.0" encoding="UTF-8"?><svg id="Capa_2" xmlns="http://www.w3.org/2000/svg" viewBox="0 0 245.78 245.69"><defs><style>.cls-1{fill:#3066bb;}.cls-1,.cls-2,.cls-3{stroke-width:0px;}.cls-2{fill:#ffc500;}.cls-4{opacity:.7;}.cls-3{fill:#fff;}</style></defs><g id="Capa_1-2"><path class="cls-3" d="M52.14,222.95c55.2,39.03,131.59,25.93,170.62-29.27,39.03-55.2,25.93-131.59-29.27-170.62C143.92-11.99,77.28-4.98,35.94,36.78l-26.78,2.33,7.11,23.62C-14.39,116.78.33,186.31,52.14,222.95Z"/><g class="cls-4"><path class="cls-2" d="M52.14,222.95s-3.64-2.56-10.15-7.83c-6.2-5.59-15.18-14.23-23.52-27.62-1.98-3.4-4.27-6.87-6-10.88-.94-1.96-1.89-3.98-2.87-6.03-.79-2.14-1.6-4.32-2.42-6.55-.41-1.12-.83-2.24-1.25-3.38-.41-1.14-.66-2.35-1.01-3.53-.65-2.39-1.3-4.83-1.97-7.31-.51-2.52-.92-5.11-1.39-7.73-.21-1.31-.5-2.63-.66-3.98-.11-1.35-.23-2.71-.35-4.09-.12-1.37-.23-2.76-.35-4.15-.14-1.39-.24-2.8-.19-4.23.02-2.85.03-5.74.05-8.67.51-5.84.9-11.88,2.27-17.95,2.4-12.16,6.76-24.64,13.42-36.59l-.05.45c-2.22-7.36-4.65-15.39-7.13-23.61l-.21-.71.74-.06c8.37-.74,17.48-1.54,26.78-2.36l-.39.18C52.92,18.85,77,5.6,104.1,1.46c13.5-2.1,27.65-1.98,41.59.65,13.94,2.61,27.65,7.75,40.18,15.25,11.81,6.92,22.1,15.99,30.72,26.1,8.58,10.15,15.65,21.44,20.27,33.49,4.74,11.99,7.6,24.44,8.66,36.8.78,12.39-.22,24.57-2.64,36.16-1.59,5.7-2.88,11.43-5.17,16.74-1.83,5.49-4.61,10.48-7.09,15.5-5.63,9.68-11.89,18.7-19.38,26.12-7.13,7.78-15.45,13.76-23.55,19.19-2.14,1.18-4.25,2.35-6.35,3.51-2.1,1.14-4.12,2.39-6.32,3.23-4.32,1.8-8.43,3.88-12.75,5.06-16.98,5.7-33.4,7.11-47.53,6.14-3.54-.25-6.97-.41-10.21-1.11-3.24-.61-6.41-.96-9.34-1.74-2.93-.81-5.73-1.58-8.41-2.31-1.35-.32-2.62-.77-3.84-1.28-1.23-.47-2.43-.94-3.59-1.38-2.31-.94-4.57-1.66-6.55-2.63-1.97-1-3.82-1.94-5.53-2.81-1.71-.87-3.29-1.68-4.73-2.42-1.36-.88-2.59-1.67-3.7-2.39-2.18-1.41-3.84-2.5-5.01-3.26-1.12-.74-1.68-1.15-1.68-1.15,0,0,.61.33,1.76,1.03,1.18.73,2.87,1.77,5.07,3.14,1.11.69,2.36,1.47,3.73,2.32,1.45.72,3.03,1.5,4.75,2.35,1.72.85,3.57,1.76,5.54,2.74,1.99.94,4.24,1.65,6.55,2.56,1.16.44,2.36.89,3.59,1.35,1.22.49,2.49.93,3.84,1.24,2.67.71,5.46,1.46,8.38,2.24,2.93.75,6.08,1.08,9.3,1.67,3.22.67,6.63.81,10.15,1.04,14.05.89,30.34-.59,47.17-6.3,4.29-1.19,8.35-3.27,12.63-5.06,2.17-.84,4.17-2.08,6.25-3.22,2.07-1.15,4.17-2.32,6.28-3.5,8.01-5.41,16.24-11.35,23.28-19.08,7.4-7.37,13.58-16.32,19.14-25.91,2.45-4.98,5.19-9.93,7-15.36,2.27-5.26,3.53-10.93,5.09-16.57,2.38-11.48,3.35-23.53,2.57-35.79-1.06-12.23-3.91-24.54-8.6-36.4-4.58-11.92-11.58-23.07-20.06-33.1-8.53-9.99-18.7-18.96-30.38-25.8-12.39-7.41-25.94-12.5-39.72-15.08-13.78-2.6-27.78-2.74-41.13-.67-26.82,4.08-50.65,17.16-67.93,34.43l-.16.16-.23.02c-9.3.8-18.41,1.59-26.78,2.31l.52-.77c2.47,8.23,4.87,16.27,7.08,23.63l.07.23-.12.22c-6.63,11.82-10.97,24.18-13.39,36.22-1.38,6.01-1.79,12-2.31,17.79-.03,2.91-.05,5.78-.08,8.6-.06,1.41.04,2.81.17,4.19.11,1.39.22,2.76.33,4.12.11,1.36.22,2.72.33,4.06.15,1.34.43,2.64.64,3.95.46,2.6.85,5.18,1.35,7.68.65,2.47,1.3,4.89,1.93,7.27.34,1.18.58,2.38.98,3.51.41,1.13.82,2.25,1.22,3.36.81,2.22,1.6,4.39,2.38,6.52.96,2.05,1.9,4.05,2.82,6.01,1.69,3.99,3.95,7.46,5.9,10.85,8.21,13.36,17.07,22.05,23.18,27.7,3.15,2.74,5.74,4.62,7.4,6.01,1.68,1.35,2.52,2.08,2.52,2.08Z"/></g><path class="cls-1" d="M55.46,81.76c10.06,15.26,20.11,30.52,30.17,45.78,1.43,2.16,2.85,4.33,4.28,6.49,1.89,2.87,5.91,4.41,9.04,2.37,12.86-8.37,25.71-16.75,38.57-25.12-3.01-.79-6.03-1.58-9.04-2.37,9.35,15.48,18.69,30.95,28.04,46.43,1.32,2.19,2.64,4.37,3.96,6.56,4.39,7.27,15.82.64,11.41-6.67-9.35-15.48-18.69-30.95-28.04-46.43-1.32-2.19-2.64-4.37-3.96-6.56-1.78-2.94-6.01-4.35-9.04-2.37-12.86,8.37-25.71,16.75-38.57,25.12,3.01.79,6.03,1.58,9.04,2.37-10.06-15.26-20.11-30.52-30.17-45.78-1.43-2.16-2.85-4.33-4.28-6.49-4.66-7.07-16.11-.46-11.41,6.67h0Z"/><polygon class="cls-1" points="136.02 163.02 185.36 131.91 185.36 181.82 136.02 163.02"/></g></svg>