<?xml version="1.0" encoding="UTF-8"?><svg xmlns="http://www.w3.org/2000/svg" viewBox="0 0 601.18 1149.37"><defs><style>.cls-1{mix-blend-mode:overlay;}.cls-2{fill:#dcdcdc;}.cls-2,.cls-3{stroke-width:0px;}.cls-3{fill:#ececec;}.cls-4{isolation:isolate;}</style></defs><g class="cls-4"><g id="Capa_2"><g id="Capa_1-2"><g class="cls-1"><path class="cls-2" d="M520.76,601.96c-105.73-7.22-116.6,149.36-10.7,156.59,105.72,7.22,116.59-149.36,10.7-156.59Z"/><path class="cls-3" d="M530.68,602.63c-100.76-6.88-111.62,149.7-10.7,156.59,100.76,6.88,111.62-149.7,10.7-156.59Z"/><path class="cls-2" d="M585.6,699.79c-7.22,26.57-29.25,48.55-64.72,46.12-83.75-5.72-74.74-135.68,8.88-129.97.55.04,1.09.07,1.64.14-78.8-3.8-86.82,119.31-6.97,124.77,32.57,2.22,53.39-17.05,61.17-41.06Z"/><path class="cls-2" d="M542.66,636.43c1.33.5,2.02,2.06,1.52,3.38l-1.55,4.09c7.12,3.4,11.5,7.87,15.47,14.05.65,1.07.92,1.87.54,2.89-.54,1.43-2.2,2.09-3.63,1.54-.61-.23-1.09-.53-1.57-1.41-3.49-5.88-7.62-9.79-12.8-12.45l-10.86,28.6c14.29,9.16,18.61,17.47,14.81,27.48-4.11,10.83-16.11,15.04-29.03,10.6l-3.02,7.97c-.5,1.33-2.06,2.02-3.38,1.52-1.33-.51-2.03-2.05-1.52-3.38l3.06-8.07c-8.61-4.09-14.63-10.11-19.22-18.63-.48-.88-.66-1.65-.31-2.57.5-1.33,2.2-2.09,3.52-1.58.92.35,1.38.99,1.57,1.41,3.7,7.48,8.73,13.02,16.39,16.86l11.05-29.11c-14.05-9.19-18.24-17.21-14.37-27.42,3.92-10.32,15.89-14.77,28.47-10.34l1.47-3.88c.5-1.33,2.05-2.03,3.38-1.52ZM525.68,674.4l10.59-27.89c-9.99-3.56-18.77-.12-21.56,7.24-2.64,6.95-1,12.48,10.98,20.65ZM527.81,682.33l-10.7,28.19c10.29,3.67,19.18.27,22.13-7.49,2.68-7.05.73-12.7-11.43-20.7Z"/></g><g class="cls-1"><path class="cls-2" d="M184.37,445.53c-105.73-7.22-116.6,149.36-10.7,156.59,105.72,7.22,116.59-149.36,10.7-156.59Z"/><path class="cls-3" d="M194.3,446.21c-100.76-6.88-111.62,149.7-10.7,156.59,100.76,6.88,111.62-149.7,10.7-156.59Z"/><path class="cls-2" d="M249.22,543.37c-7.22,26.57-29.25,48.55-64.72,46.12-83.75-5.72-74.74-135.68,8.88-129.97.55.04,1.09.07,1.64.14-78.8-3.8-86.82,119.31-6.97,124.77,32.57,2.22,53.39-17.05,61.17-41.06Z"/><path class="cls-2" d="M206.27,480c1.33.5,2.02,2.06,1.52,3.38l-1.55,4.09c7.12,3.4,11.5,7.87,15.47,14.05.65,1.07.92,1.87.54,2.89-.54,1.43-2.2,2.09-3.63,1.54-.61-.23-1.09-.53-1.57-1.41-3.49-5.88-7.62-9.79-12.8-12.45l-10.86,28.6c14.29,9.16,18.61,17.47,14.81,27.48-4.11,10.83-16.11,15.04-29.03,10.6l-3.02,7.97c-.5,1.33-2.06,2.02-3.38,1.52-1.33-.51-2.03-2.05-1.52-3.38l3.06-8.07c-8.61-4.09-14.63-10.11-19.22-18.63-.48-.88-.66-1.65-.31-2.57.5-1.33,2.2-2.09,3.52-1.58.92.35,1.38.99,1.57,1.41,3.7,7.48,8.73,13.02,16.39,16.86l11.05-29.11c-14.05-9.19-18.24-17.21-14.37-27.42,3.92-10.32,15.89-14.77,28.47-10.34l1.47-3.88c.5-1.33,2.05-2.03,3.38-1.52ZM189.29,517.97l10.59-27.89c-9.99-3.56-18.77-.12-21.56,7.24-2.64,6.95-1,12.48,10.98,20.65ZM191.42,525.9l-10.7,28.19c10.29,3.67,19.18.27,22.13-7.49,2.68-7.05.73-12.7-11.43-20.7Z"/></g><g class="cls-1"><path class="cls-3" d="M68.45,980.47c-116.14,30.49-72.98,195.69,43.35,165.15,116.14-30.48,72.98-195.69-43.35-165.15Z"/><path class="cls-2" d="M164.82,1059.99c1.26,30.04-15.83,60.87-56.71,71.6-96.53,25.34-132.37-111.78-35.98-137.08.63-.17,1.26-.33,1.9-.46-90.27,25.47-55.75,155.17,36.29,131.01,37.55-9.86,54.21-37.45,54.5-65.07Z"/><path class="cls-2" d="M77.57,1012.4c1.63-.43,3.35.47,3.74,1.97l1.21,4.6c9.23-1.69,16.48-.64,24.48,2.18,1.34.51,2.15,1.03,2.45,2.19.42,1.61-.76,3.27-2.51,3.73-.75.2-1.41.25-2.47-.21-7.33-2.87-13.97-3.58-20.81-2.52l8.45,32.19c20.06-1.33,29.83,3.11,32.78,14.38,3.2,12.19-5.72,23.74-21.3,28.33l2.35,8.97c.39,1.5-.66,3.12-2.29,3.55-1.64.43-3.35-.47-3.74-1.97l-2.38-9.08c-11.14,2.06-21.03.73-31.2-3.73-1.06-.46-1.74-1.02-2.02-2.05-.39-1.5.75-3.27,2.39-3.7,1.13-.3,2.01-.03,2.47.21,8.61,4.13,17.2,5.68,27.25,4.03l-8.6-32.77c-19.84,1.16-29.29-3.12-32.31-14.62-3.05-11.61,5.68-23.37,20.92-27.73l-1.15-4.37c-.39-1.49.66-3.12,2.29-3.55ZM86.28,1056.81l-8.24-31.39c-12.13,3.43-18.42,12.21-16.25,20.48,2.05,7.82,7.34,11.59,24.49,10.9ZM93.65,1062.38l8.33,31.73c12.51-3.53,18.92-12.34,16.63-21.08-2.08-7.93-7.75-11.61-24.96-10.65Z"/></g><g class="cls-1"><path class="cls-2" d="M72.34,16.6c-113.94,58.36-27.69,227.21,86.44,168.75,113.93-58.36,27.68-227.21-86.44-168.75Z"/><path class="cls-3" d="M83.04,11.12c-108.59,55.62-22.33,224.46,86.44,168.75,108.58-55.62,22.32-224.46-86.44-168.75Z"/><path class="cls-2" d="M200.39,77.5c9.08,32-.05,68.46-38.27,88.04C71.86,211.77.26,71.63,90.38,25.47c.59-.3,1.18-.6,1.79-.87-83.94,45.14-15.58,177.57,70.48,133.49,35.1-17.98,44.65-50.89,37.75-80.6Z"/><path class="cls-2" d="M116.48,38.65c1.69-.3,3.38.87,3.68,2.55l.94,5.2c9.49-.91,16.81.99,24.76,4.91,1.33.7,2.12,1.36,2.36,2.66.33,1.82-.97,3.53-2.79,3.85-.78.14-1.45.13-2.5-.49-7.28-3.92-13.98-5.39-21.01-4.92l6.57,36.37c20.49.59,30.14,6.49,32.44,19.22,2.49,13.77-7.31,25.6-23.45,29.05l1.83,10.13c.31,1.69-.87,3.38-2.55,3.68-1.69.31-3.38-.86-3.68-2.55l-1.85-10.26c-11.46,1.13-21.44-1.36-31.5-7.32-1.05-.61-1.71-1.3-1.92-2.47-.31-1.69.97-3.53,2.66-3.83,1.17-.21,2.04.17,2.5.49,8.49,5.44,17.14,8.04,27.46,7.24l-6.69-37.02c-20.26-.76-29.6-6.45-31.95-19.44-2.37-13.12,7.25-25.19,23.03-28.44l-.89-4.94c-.3-1.69.86-3.38,2.55-3.68ZM122.55,88.52l-6.41-35.46c-12.55,2.54-19.5,11.57-17.81,20.92,1.6,8.83,6.74,13.54,24.22,14.54ZM129.69,95.41l6.48,35.85c12.94-2.61,20.02-11.67,18.24-21.54-1.62-8.96-7.15-13.6-24.72-14.31Z"/></g></g></g></g></svg>