<?xml version="1.0" encoding="UTF-8"?><svg xmlns="http://www.w3.org/2000/svg" xmlns:xlink="http://www.w3.org/1999/xlink" viewBox="0 0 1917.85 1075"><defs><style>.cls-1{clip-path:url(#clippath);}.cls-2{fill:none;}.cls-2,.cls-3{stroke-width:0px;}.cls-3{fill:#fff;mix-blend-mode:soft-light;opacity:.5;}.cls-4{isolation:isolate;}</style><clipPath id="clippath"><rect class="cls-2" x="0" width="1917.85" height="1075"/></clipPath></defs><g class="cls-4"><g id="Capa_2"><g id="Capa_1-2"><g class="cls-1"><path class="cls-3" d="M1896.22,1131.6h-259.44v-306.61h268.87c7.82,0,14.15-6.33,14.15-14.15s-6.33-14.15-14.15-14.15h-268.87v-386.8h268.87c7.82,0,14.15-6.34,14.15-14.15s-6.33-14.15-14.15-14.15h-268.87V-5.22h268.87c7.82,0,14.15-6.34,14.15-14.15s-6.33-14.15-14.15-14.15h-268.87v-183.97c0-7.81-6.33-14.15-14.15-14.15s-14.15,6.34-14.15,14.15V-33.52h-311.33v-183.97c0-7.81-6.33-14.15-14.15-14.15s-14.15,6.34-14.15,14.15V-33.52h-311.33v-183.97c0-7.81-6.33-14.15-14.15-14.15s-14.15,6.34-14.15,14.15V-33.52h-311.33v-183.97c0-7.81-6.34-14.15-14.15-14.15s-14.15,6.34-14.15,14.15V-33.52h-311.33v-183.97c0-7.81-6.34-14.15-14.15-14.15s-14.15,6.34-14.15,14.15V-33.52H-.05v-183.97c0-15.63-12.67-28.3-28.3-28.3s-28.3,12.67-28.3,28.3v1377.39c0,15.63,12.67,28.3,28.3,28.3h1924.57c15.63,0,28.3-12.67,28.3-28.3s-12.67-28.3-28.3-28.3ZM1608.48,1131.6h-311.33v-306.61h311.33v306.61ZM-.05,409.89h250.01v386.8H-.05v-386.8ZM278.26,409.89h311.33v386.8h-311.33v-386.8ZM929.22,796.69h-311.33v-386.8h311.33v386.8ZM957.52,409.89h311.33v386.8h-311.33v-386.8ZM589.59,824.99v306.61h-311.33v-306.61h311.33ZM617.89,824.99h311.33v306.61h-311.33v-306.61ZM957.52,824.99h311.33v306.61h-311.33v-306.61ZM1608.48,796.69h-311.33v-386.8h311.33v386.8ZM1608.48-5.22v386.8h-311.33V-5.22h311.33ZM1268.85-5.22v386.8h-311.33V-5.22h311.33ZM929.22-5.22v386.8h-311.33V-5.22h311.33ZM589.59-5.22v386.8h-311.33V-5.22h311.33ZM249.95-5.22v386.8H-.05V-5.22h250.01ZM-.05,824.99h250.01v306.61H-.05v-306.61Z"/></g></g></g></g></svg>