<?xml version="1.0" encoding="UTF-8"?><svg xmlns="http://www.w3.org/2000/svg" viewBox="0 0 291.23 459.03"><defs><style>.cls-1,.cls-2{fill:#0b7777;}.cls-1,.cls-2,.cls-3,.cls-4,.cls-5,.cls-6,.cls-7,.cls-8{stroke-width:0px;}.cls-1,.cls-3,.cls-9{opacity:.3;}.cls-3,.cls-9{mix-blend-mode:multiply;}.cls-3,.cls-8{fill:#326c8e;}.cls-4{fill:#219896;}.cls-5{fill:#003736;}.cls-10{isolation:isolate;}.cls-6{fill:#606060;opacity:.1;}.cls-7{fill:#96d3d2;}</style></defs><g class="cls-10"><g id="Capa_2"><g id="Capa_1-2"><path class="cls-2" d="M282.79,27.92v396.17c0,15.42-12.5,27.92-27.92,27.92H27.92c-15.43,0-27.92-12.5-27.92-27.92V27.92C0,12.49,12.49,0,27.92,0h226.95c15.42,0,27.92,12.49,27.92,27.92Z"/><path class="cls-6" d="M291.23,34.95v396.17c0,15.42-12.5,27.92-27.92,27.92H36.35c-15.43,0-27.92-12.5-27.92-27.92V34.95c0-15.43,12.49-27.92,27.92-27.92h226.95c15.42,0,27.92,12.49,27.92,27.92Z"/><path class="cls-3" d="M277.24,45.12v380.21c0,11.66-9.48,21.14-21.14,21.14H26.68c-11.66,0-21.14-9.48-21.14-21.14v-148.59c137.85-55.66,246.94-102.28,271.7-231.62Z"/><path class="cls-5" d="M31.34,25.19h222.93c3.67,0,6.66,2.98,6.66,6.66v63c0,3.67-2.98,6.66-6.66,6.66H31.34c-3.67,0-6.66-2.98-6.66-6.66V31.85c0-3.67,2.98-6.66,6.66-6.66Z"/><rect class="cls-7" x="23.27" y="23.79" width="236.24" height="76.32" rx="6.66" ry="6.66"/><path class="cls-1" d="M26.08,93.55v-57.59c0-5.17,4.19-9.36,9.36-9.36h217.52c1.87,0,3.6.55,5.06,1.49-1.67-2.59-4.57-4.3-7.87-4.3H32.64c-5.17,0-9.36,4.19-9.36,9.36v57.59c0,3.31,1.72,6.21,4.3,7.87-.94-1.46-1.49-3.19-1.49-5.06Z"/><rect class="cls-5" x="27.49" y="127.69" width="51.21" height="34.99" rx="3.34" ry="3.34"/><rect class="cls-5" x="89.17" y="127.69" width="51.21" height="34.99" rx="3.34" ry="3.34"/><rect class="cls-5" x="150.85" y="127.69" width="51.21" height="34.99" rx="3.34" ry="3.34"/><rect class="cls-5" x="212.52" y="127.69" width="51.21" height="34.99" rx="3.34" ry="3.34"/><rect class="cls-5" x="27.49" y="182.38" width="51.26" height="51.26" rx="3.34" ry="3.34"/><rect class="cls-5" x="89.14" y="182.38" width="51.26" height="51.26" rx="3.34" ry="3.34"/><rect class="cls-5" x="150.8" y="182.38" width="51.26" height="51.26" rx="3.34" ry="3.34"/><rect class="cls-5" x="212.45" y="182.38" width="51.26" height="51.26" rx="3.34" ry="3.34"/><rect class="cls-5" x="27.49" y="247.2" width="51.26" height="51.26" rx="3.34" ry="3.34"/><rect class="cls-5" x="89.14" y="247.2" width="51.26" height="51.26" rx="3.34" ry="3.34"/><rect class="cls-5" x="150.8" y="247.2" width="51.26" height="51.26" rx="3.34" ry="3.34"/><rect class="cls-5" x="212.45" y="247.2" width="51.26" height="51.26" rx="3.34" ry="3.34"/><rect class="cls-5" x="27.49" y="312.02" width="51.26" height="51.26" rx="3.34" ry="3.34"/><rect class="cls-5" x="89.14" y="312.02" width="51.26" height="51.26" rx="3.34" ry="3.34"/><rect class="cls-5" x="150.8" y="312.02" width="51.26" height="51.26" rx="3.34" ry="3.34"/><rect class="cls-5" x="212.45" y="312.02" width="51.26" height="51.26" rx="3.34" ry="3.34"/><rect class="cls-5" x="27.49" y="376.84" width="51.26" height="51.26" rx="3.34" ry="3.34"/><rect class="cls-5" x="89.14" y="376.84" width="51.26" height="51.26" rx="3.34" ry="3.34"/><rect class="cls-5" x="150.8" y="376.84" width="51.26" height="51.26" rx="3.34" ry="3.34"/><rect class="cls-5" x="212.45" y="376.84" width="51.26" height="51.26" rx="3.34" ry="3.34"/><rect class="cls-4" x="23.27" y="124.88" width="51.21" height="34.99" rx="3.34" ry="3.34"/><rect class="cls-4" x="84.95" y="124.88" width="51.21" height="34.99" rx="3.34" ry="3.34"/><rect class="cls-4" x="146.63" y="124.88" width="51.21" height="34.99" rx="3.34" ry="3.34"/><rect class="cls-4" x="208.3" y="124.88" width="51.21" height="34.99" rx="3.34" ry="3.34"/><rect class="cls-7" x="23.27" y="179.56" width="51.26" height="51.26" rx="3.34" ry="3.34"/><rect class="cls-7" x="84.93" y="179.56" width="51.26" height="51.26" rx="3.34" ry="3.34"/><rect class="cls-7" x="146.58" y="179.56" width="51.26" height="51.26" rx="3.34" ry="3.34"/><rect class="cls-7" x="208.23" y="179.56" width="51.26" height="51.26" rx="3.34" ry="3.34"/><rect class="cls-7" x="23.27" y="244.39" width="51.26" height="51.26" rx="3.34" ry="3.34"/><rect class="cls-7" x="84.93" y="244.39" width="51.26" height="51.26" rx="3.34" ry="3.34"/><rect class="cls-7" x="146.58" y="244.39" width="51.26" height="51.26" rx="3.34" ry="3.34"/><rect class="cls-7" x="208.23" y="244.39" width="51.26" height="51.26" rx="3.34" ry="3.34"/><rect class="cls-7" x="23.27" y="309.21" width="51.26" height="51.26" rx="3.34" ry="3.34"/><rect class="cls-7" x="84.93" y="309.21" width="51.26" height="51.26" rx="3.34" ry="3.34"/><rect class="cls-7" x="146.58" y="309.21" width="51.26" height="51.26" rx="3.34" ry="3.34"/><rect class="cls-7" x="208.23" y="309.21" width="51.26" height="51.26" rx="3.34" ry="3.34"/><rect class="cls-7" x="23.27" y="374.03" width="51.26" height="51.26" rx="3.34" ry="3.34"/><rect class="cls-7" x="84.93" y="374.03" width="51.26" height="51.26" rx="3.34" ry="3.34"/><rect class="cls-7" x="146.58" y="374.03" width="51.26" height="51.26" rx="3.34" ry="3.34"/><rect class="cls-7" x="208.23" y="374.03" width="51.26" height="51.26" rx="3.34" ry="3.34"/><g class="cls-9"><path class="cls-8" d="M71.14,126.88c.74,0,1.34.6,1.34,1.34v28.31c0,.74-.6,1.34-1.34,1.34H26.62c-.74,0-1.34-.6-1.34-1.34v-28.31c0-.74.6-1.34,1.34-1.34h44.52M71.14,124.88H26.62c-1.85,0-3.34,1.5-3.34,3.34v28.31c0,1.85,1.5,3.34,3.34,3.34h44.52c1.85,0,3.34-1.5,3.34-3.34v-28.31c0-1.85-1.5-3.34-3.34-3.34h0Z"/><path class="cls-8" d="M132.82,126.88c.74,0,1.34.6,1.34,1.34v28.31c0,.74-.6,1.34-1.34,1.34h-44.52c-.74,0-1.34-.6-1.34-1.34v-28.31c0-.74.6-1.34,1.34-1.34h44.52M132.82,124.88h-44.52c-1.85,0-3.34,1.5-3.34,3.34v28.31c0,1.85,1.5,3.34,3.34,3.34h44.52c1.85,0,3.34-1.5,3.34-3.34v-28.31c0-1.85-1.5-3.34-3.34-3.34h0Z"/><path class="cls-8" d="M194.49,126.88c.74,0,1.34.6,1.34,1.34v28.31c0,.74-.6,1.34-1.34,1.34h-44.52c-.74,0-1.34-.6-1.34-1.34v-28.31c0-.74.6-1.34,1.34-1.34h44.52M194.49,124.88h-44.52c-1.85,0-3.34,1.5-3.34,3.34v28.31c0,1.85,1.5,3.34,3.34,3.34h44.52c1.85,0,3.34-1.5,3.34-3.34v-28.31c0-1.85-1.5-3.34-3.34-3.34h0Z"/><path class="cls-8" d="M256.17,126.88c.74,0,1.34.6,1.34,1.34v28.31c0,.74-.6,1.34-1.34,1.34h-44.52c-.74,0-1.34-.6-1.34-1.34v-28.31c0-.74.6-1.34,1.34-1.34h44.52M256.17,124.88h-44.52c-1.85,0-3.34,1.5-3.34,3.34v28.31c0,1.85,1.5,3.34,3.34,3.34h44.52c1.85,0,3.34-1.5,3.34-3.34v-28.31c0-1.85-1.5-3.34-3.34-3.34h0Z"/></g><g class="cls-9"><path class="cls-8" d="M71.19,181.56c.74,0,1.34.6,1.34,1.34v44.57c0,.74-.6,1.34-1.34,1.34H26.62c-.74,0-1.34-.6-1.34-1.34v-44.57c0-.74.6-1.34,1.34-1.34h44.57M71.19,179.56H26.62c-1.85,0-3.34,1.5-3.34,3.34v44.57c0,1.85,1.5,3.34,3.34,3.34h44.57c1.85,0,3.34-1.5,3.34-3.34v-44.57c0-1.85-1.5-3.34-3.34-3.34h0Z"/><path class="cls-8" d="M132.84,181.56c.74,0,1.34.6,1.34,1.34v44.57c0,.74-.6,1.34-1.34,1.34h-44.57c-.74,0-1.34-.6-1.34-1.34v-44.57c0-.74.6-1.34,1.34-1.34h44.57M132.84,179.56h-44.57c-1.85,0-3.34,1.5-3.34,3.34v44.57c0,1.85,1.5,3.34,3.34,3.34h44.57c1.85,0,3.34-1.5,3.34-3.34v-44.57c0-1.85-1.5-3.34-3.34-3.34h0Z"/><path class="cls-8" d="M194.49,181.56c.74,0,1.34.6,1.34,1.34v44.57c0,.74-.6,1.34-1.34,1.34h-44.57c-.74,0-1.34-.6-1.34-1.34v-44.57c0-.74.6-1.34,1.34-1.34h44.57M194.49,179.56h-44.57c-1.85,0-3.34,1.5-3.34,3.34v44.57c0,1.85,1.5,3.34,3.34,3.34h44.57c1.85,0,3.34-1.5,3.34-3.34v-44.57c0-1.85-1.5-3.34-3.34-3.34h0Z"/><path class="cls-8" d="M256.15,181.56c.74,0,1.34.6,1.34,1.34v44.57c0,.74-.6,1.34-1.34,1.34h-44.57c-.74,0-1.34-.6-1.34-1.34v-44.57c0-.74.6-1.34,1.34-1.34h44.57M256.15,179.56h-44.57c-1.85,0-3.34,1.5-3.34,3.34v44.57c0,1.85,1.5,3.34,3.34,3.34h44.57c1.85,0,3.34-1.5,3.34-3.34v-44.57c0-1.85-1.5-3.34-3.34-3.34h0Z"/><path class="cls-8" d="M71.19,246.39c.74,0,1.34.6,1.34,1.34v44.57c0,.74-.6,1.34-1.34,1.34H26.62c-.74,0-1.34-.6-1.34-1.34v-44.57c0-.74.6-1.34,1.34-1.34h44.57M71.19,244.39H26.62c-1.85,0-3.34,1.5-3.34,3.34v44.57c0,1.85,1.5,3.34,3.34,3.34h44.57c1.85,0,3.34-1.5,3.34-3.34v-44.57c0-1.85-1.5-3.34-3.34-3.34h0Z"/><path class="cls-8" d="M132.84,246.39c.74,0,1.34.6,1.34,1.34v44.57c0,.74-.6,1.34-1.34,1.34h-44.57c-.74,0-1.34-.6-1.34-1.34v-44.57c0-.74.6-1.34,1.34-1.34h44.57M132.84,244.39h-44.57c-1.85,0-3.34,1.5-3.34,3.34v44.57c0,1.85,1.5,3.34,3.34,3.34h44.57c1.85,0,3.34-1.5,3.34-3.34v-44.57c0-1.85-1.5-3.34-3.34-3.34h0Z"/><path class="cls-8" d="M194.49,246.39c.74,0,1.34.6,1.34,1.34v44.57c0,.74-.6,1.34-1.34,1.34h-44.57c-.74,0-1.34-.6-1.34-1.34v-44.57c0-.74.6-1.34,1.34-1.34h44.57M194.49,244.39h-44.57c-1.85,0-3.34,1.5-3.34,3.34v44.57c0,1.85,1.5,3.34,3.34,3.34h44.57c1.85,0,3.34-1.5,3.34-3.34v-44.57c0-1.85-1.5-3.34-3.34-3.34h0Z"/><path class="cls-8" d="M256.15,246.39c.74,0,1.34.6,1.34,1.34v44.57c0,.74-.6,1.34-1.34,1.34h-44.57c-.74,0-1.34-.6-1.34-1.34v-44.57c0-.74.6-1.34,1.34-1.34h44.57M256.15,244.39h-44.57c-1.85,0-3.34,1.5-3.34,3.34v44.57c0,1.85,1.5,3.34,3.34,3.34h44.57c1.85,0,3.34-1.5,3.34-3.34v-44.57c0-1.85-1.5-3.34-3.34-3.34h0Z"/><path class="cls-8" d="M71.19,311.21c.74,0,1.34.6,1.34,1.34v44.57c0,.74-.6,1.34-1.34,1.34H26.62c-.74,0-1.34-.6-1.34-1.34v-44.57c0-.74.6-1.34,1.34-1.34h44.57M71.19,309.21H26.62c-1.85,0-3.34,1.5-3.34,3.34v44.57c0,1.85,1.5,3.34,3.34,3.34h44.57c1.85,0,3.34-1.5,3.34-3.34v-44.57c0-1.85-1.5-3.34-3.34-3.34h0Z"/><path class="cls-8" d="M132.84,311.21c.74,0,1.34.6,1.34,1.34v44.57c0,.74-.6,1.34-1.34,1.34h-44.57c-.74,0-1.34-.6-1.34-1.34v-44.57c0-.74.6-1.34,1.34-1.34h44.57M132.84,309.21h-44.57c-1.85,0-3.34,1.5-3.34,3.34v44.57c0,1.85,1.5,3.34,3.34,3.34h44.57c1.85,0,3.34-1.5,3.34-3.34v-44.57c0-1.85-1.5-3.34-3.34-3.34h0Z"/><path class="cls-8" d="M194.49,311.21c.74,0,1.34.6,1.34,1.34v44.57c0,.74-.6,1.34-1.34,1.34h-44.57c-.74,0-1.34-.6-1.34-1.34v-44.57c0-.74.6-1.34,1.34-1.34h44.57M194.49,309.21h-44.57c-1.85,0-3.34,1.5-3.34,3.34v44.57c0,1.85,1.5,3.34,3.34,3.34h44.57c1.85,0,3.34-1.5,3.34-3.34v-44.57c0-1.85-1.5-3.34-3.34-3.34h0Z"/><path class="cls-8" d="M256.15,311.21c.74,0,1.34.6,1.34,1.34v44.57c0,.74-.6,1.34-1.34,1.34h-44.57c-.74,0-1.34-.6-1.34-1.34v-44.57c0-.74.6-1.34,1.34-1.34h44.57M256.15,309.21h-44.57c-1.85,0-3.34,1.5-3.34,3.34v44.57c0,1.85,1.5,3.34,3.34,3.34h44.57c1.85,0,3.34-1.5,3.34-3.34v-44.57c0-1.85-1.5-3.34-3.34-3.34h0Z"/><path class="cls-8" d="M71.19,376.03c.74,0,1.34.6,1.34,1.34v44.57c0,.74-.6,1.34-1.34,1.34H26.62c-.74,0-1.34-.6-1.34-1.34v-44.57c0-.74.6-1.34,1.34-1.34h44.57M71.19,374.03H26.62c-1.85,0-3.34,1.5-3.34,3.34v44.57c0,1.85,1.5,3.34,3.34,3.34h44.57c1.85,0,3.34-1.5,3.34-3.34v-44.57c0-1.85-1.5-3.34-3.34-3.34h0Z"/><path class="cls-8" d="M132.84,376.03c.74,0,1.34.6,1.34,1.34v44.57c0,.74-.6,1.34-1.34,1.34h-44.57c-.74,0-1.34-.6-1.34-1.34v-44.57c0-.74.6-1.34,1.34-1.34h44.57M132.84,374.03h-44.57c-1.85,0-3.34,1.5-3.34,3.34v44.57c0,1.85,1.5,3.34,3.34,3.34h44.57c1.85,0,3.34-1.5,3.34-3.34v-44.57c0-1.85-1.5-3.34-3.34-3.34h0Z"/><path class="cls-8" d="M194.49,376.03c.74,0,1.34.6,1.34,1.34v44.57c0,.74-.6,1.34-1.34,1.34h-44.57c-.74,0-1.34-.6-1.34-1.34v-44.57c0-.74.6-1.34,1.34-1.34h44.57M194.49,374.03h-44.57c-1.85,0-3.34,1.5-3.34,3.34v44.57c0,1.85,1.5,3.34,3.34,3.34h44.57c1.85,0,3.34-1.5,3.34-3.34v-44.57c0-1.85-1.5-3.34-3.34-3.34h0Z"/><path class="cls-8" d="M256.15,376.03c.74,0,1.34.6,1.34,1.34v44.57c0,.74-.6,1.34-1.34,1.34h-44.57c-.74,0-1.34-.6-1.34-1.34v-44.57c0-.74.6-1.34,1.34-1.34h44.57M256.15,374.03h-44.57c-1.85,0-3.34,1.5-3.34,3.34v44.57c0,1.85,1.5,3.34,3.34,3.34h44.57c1.85,0,3.34-1.5,3.34-3.34v-44.57c0-1.85-1.5-3.34-3.34-3.34h0Z"/></g></g></g></g></svg>