<?xml version="1.0" encoding="UTF-8"?><svg id="Capa_2" xmlns="http://www.w3.org/2000/svg" viewBox="0 0 506.66 549.27"><defs><style>.cls-1{fill:#e9a6c4;}.cls-1,.cls-2,.cls-3,.cls-4,.cls-5,.cls-6{stroke-width:0px;}.cls-2{fill:#491e00;}.cls-3{fill:#f4a2c6;}.cls-4{fill:#f7bad5;}.cls-5{fill:#d4719e;}.cls-6{fill:#532e40;}</style></defs><g id="Capa_1-2"><path class="cls-5" d="M175.81,506.91c0,23.39-18.97,42.36-42.36,42.36h-28.24c-23.4,0-42.36-18.97-42.36-42.36l-10.59-123.79c0-23.4,18.97-42.36,42.36-42.36h49.42c23.4,0,42.36,18.96,42.36,42.36l-10.59,123.79Z"/><path class="cls-5" d="M330.85,506.91c0,23.39,18.96,42.36,42.36,42.36h28.24c23.4,0,42.36-18.97,42.36-42.36l10.59-123.79c0-23.4-18.96-42.36-42.36-42.36h-49.42c-23.4,0-42.36,18.96-42.36,42.36l10.59,123.79Z"/><path class="cls-4" d="M175.6,76.62S78.31-19.58,24.09,3.61c-54.21,23.19,0,181.21,0,181.21l151.5-108.2Z"/><path class="cls-5" d="M31.76,160.63C14.97,103.5,4.38,28.81,29.48,18.08c3.88-1.66,8.39-2.5,13.43-2.5,33.47,0,81.48,35.67,108.71,59.46L31.76,160.63Z"/><path class="cls-4" d="M331.05,76.62S428.34-19.58,482.56,3.61c54.21,23.19,0,181.21,0,181.21l-151.51-108.2Z"/><path class="cls-5" d="M474.9,160.63c16.79-57.13,27.38-131.82,2.28-142.55-3.87-1.66-8.39-2.5-13.43-2.5-33.47,0-81.48,35.67-108.71,59.46l119.85,85.59Z"/><path class="cls-4" d="M495.64,277.4c0,141-108.48,243.55-242.31,243.55S11.02,418.4,11.02,277.4,72.41,22.1,253.33,22.1s242.31,114.3,242.31,255.3Z"/><path class="cls-3" d="M329.47,269.14c0,48.49-34.09,65.29-76.14,65.29s-76.14-16.8-76.14-65.29,39.61-87.81,76.14-87.81,76.14,39.31,76.14,87.81Z"/><path class="cls-2" d="M245.88,269.14c0,17.32-9.8,31.37-21.89,31.37s-21.89-14.05-21.89-31.37,9.8-31.38,21.89-31.38,21.89,14.05,21.89,31.38Z"/><path class="cls-2" d="M307.49,269.14c0,17.32-9.8,31.37-21.89,31.37s-21.89-14.05-21.89-31.37,9.8-31.38,21.89-31.38,21.89,14.05,21.89,31.38Z"/><path class="cls-2" d="M166.62,163.23c0,12.35-10.01,22.36-22.36,22.36s-22.36-10.01-22.36-22.36,10.01-22.35,22.36-22.35,22.36,10.01,22.36,22.35Z"/><path class="cls-2" d="M340.03,163.23c0,12.35,10.01,22.36,22.36,22.36s22.36-10.01,22.36-22.36-10.01-22.35-22.36-22.35-22.36,10.01-22.36,22.35Z"/><path class="cls-1" d="M253.33,485.37c-44.41,0-87.66-16.74-125.06-48.42-5.33-4.52-6.21-12.76-1.95-18.42,4.26-5.66,12.03-6.58,17.36-2.07,32.98,27.93,70.89,42.69,109.64,42.69s76.66-14.76,109.64-42.69c5.33-4.51,13.1-3.6,17.36,2.07,4.26,5.66,3.39,13.9-1.95,18.42-37.4,31.68-80.65,48.42-125.06,48.42Z"/><path class="cls-6" d="M305.47,39.46c-.53,3.04-3.43,5.06-6.51,4.59-34.2-5.26-51.79-5.26-85.97,0-3.07.47-5.99-1.55-6.52-4.59h0c-.53-3.04,1.62-5.96,4.81-6.45,35.54-5.47,53.82-5.47,89.37,0,3.2.49,5.34,3.42,4.81,6.45h0Z"/></g></svg>