<?xml version="1.0" encoding="UTF-8"?><svg id="Capa_2" xmlns="http://www.w3.org/2000/svg" viewBox="0 0 452.01 1343.48"><defs><style>.cls-1{fill:#313e47;}.cls-1,.cls-2,.cls-3,.cls-4,.cls-5{stroke-width:0px;}.cls-2{fill:#abe9ec;}.cls-3,.cls-6,.cls-7,.cls-8,.cls-9,.cls-10,.cls-11,.cls-12{fill:#3066bb;}.cls-6,.cls-7,.cls-13,.cls-12{font-size:25.82px;}.cls-6,.cls-7,.cls-9,.cls-10,.cls-11,.cls-12{font-family:CenturyGothicPro, 'Century Gothic Pro';}.cls-6,.cls-13{letter-spacing:-.02em;}.cls-7{letter-spacing:-.03em;}.cls-8{font-family:CenturyGothicPro-Bold, 'Century Gothic Pro';font-weight:700;}.cls-8,.cls-14,.cls-15,.cls-16{font-size:13.43px;}.cls-4{fill:#ffe29a;}.cls-9{font-size:21.69px;letter-spacing:-.06em;}.cls-17,.cls-14{letter-spacing:-.02em;}.cls-18,.cls-15{letter-spacing:-.03em;}.cls-19{fill:none;stroke:#6d9ac2;stroke-miterlimit:10;}.cls-20{letter-spacing:-.07em;}.cls-11{font-size:22.72px;letter-spacing:-.03em;}.cls-12{letter-spacing:-.07em;}.cls-5{fill:#fff;}.cls-16{letter-spacing:-.02em;}</style></defs><g id="Capa_1-2"><rect class="cls-5" x=".6" y="53.52" width="450.99" height="1289.97"/><rect class="cls-2" x=".6" y="1234.5" width="451.41" height="108.75"/><rect class="cls-2" x=".6" y="48.56" width="451.41" height="69.7"/><text class="cls-6" transform="translate(31.03 144.11) scale(1.01 1)"><tspan x="0" y="0">1</tspan></text><text class="cls-6" transform="translate(31.03 181.29) scale(1.01 1)"><tspan x="0" y="0">2</tspan></text><text class="cls-6" transform="translate(31.03 218.47) scale(1.01 1)"><tspan x="0" y="0">3</tspan></text><text class="cls-6" transform="translate(31.03 255.65) scale(1.01 1)"><tspan x="0" y="0">4</tspan></text><text class="cls-6" transform="translate(31.03 292.83) scale(1.01 1)"><tspan x="0" y="0">5</tspan></text><text class="cls-6" transform="translate(31.03 330) scale(1.01 1)"><tspan x="0" y="0">6</tspan></text><text class="cls-6" transform="translate(31.03 367.18) scale(1.01 1)"><tspan x="0" y="0">7</tspan></text><text class="cls-6" transform="translate(31.03 404.36) scale(1.01 1)"><tspan x="0" y="0">8</tspan></text><text class="cls-6" transform="translate(31.03 441.54) scale(1.01 1)"><tspan x="0" y="0">9</tspan></text><text class="cls-6" transform="translate(31.03 478.71) scale(1.01 1)"><tspan x="0" y="0">10</tspan></text><text class="cls-6" transform="translate(31.03 515.89) scale(1.01 1)"><tspan x="0" y="0">11</tspan></text><text class="cls-6" transform="translate(31.03 553.07) scale(1.01 1)"><tspan x="0" y="0">12</tspan></text><text class="cls-6" transform="translate(31.03 590.25) scale(1.01 1)"><tspan x="0" y="0">13</tspan></text><text class="cls-6" transform="translate(31.03 627.42) scale(1.01 1)"><tspan x="0" y="0">14</tspan></text><text class="cls-6" transform="translate(31.03 664.6) scale(1.01 1)"><tspan x="0" y="0">15</tspan></text><text class="cls-6" transform="translate(31.03 701.78) scale(1.01 1)"><tspan x="0" y="0">16</tspan></text><text class="cls-6" transform="translate(31.03 738.96) scale(1.01 1)"><tspan x="0" y="0">17</tspan></text><text class="cls-6" transform="translate(31.03 776.14) scale(1.01 1)"><tspan x="0" y="0">18</tspan></text><text class="cls-6" transform="translate(31.03 813.31) scale(1.01 1)"><tspan x="0" y="0">19</tspan></text><text class="cls-6" transform="translate(31.03 850.49) scale(1.01 1)"><tspan x="0" y="0">20</tspan></text><text class="cls-6" transform="translate(31.03 887.67) scale(1.01 1)"><tspan x="0" y="0">21</tspan></text><text class="cls-6" transform="translate(31.03 924.85) scale(1.01 1)"><tspan x="0" y="0">22</tspan></text><text class="cls-6" transform="translate(31.03 962.02) scale(1.01 1)"><tspan x="0" y="0">23</tspan></text><text class="cls-6" transform="translate(31.03 999.2) scale(1.01 1)"><tspan x="0" y="0">24</tspan></text><text class="cls-6" transform="translate(31.03 1036.38) scale(1.01 1)"><tspan x="0" y="0">25</tspan></text><text class="cls-6" transform="translate(31.03 1073.56) scale(1.01 1)"><tspan x="0" y="0">26</tspan></text><text class="cls-6" transform="translate(31.03 1110.73) scale(1.01 1)"><tspan x="0" y="0">27</tspan></text><text class="cls-6" transform="translate(31.03 1147.91) scale(1.01 1)"><tspan x="0" y="0">28</tspan></text><text class="cls-6" transform="translate(31.03 1185.09) scale(1.01 1)"><tspan x="0" y="0">29</tspan></text><text class="cls-6" transform="translate(31.03 1222.27) scale(1.01 1)"><tspan x="0" y="0">30</tspan></text><text class="cls-6" transform="translate(112.64 144.11) scale(1.01 1)"><tspan x="0" y="0">$10</tspan></text><text class="cls-6" transform="translate(112.64 181.29) scale(1.01 1)"><tspan x="0" y="0">$20</tspan></text><text class="cls-6" transform="translate(112.64 218.47) scale(1.01 1)"><tspan x="0" y="0">$30</tspan></text><text class="cls-6" transform="translate(112.64 255.65) scale(1.01 1)"><tspan x="0" y="0">$40</tspan></text><text class="cls-6" transform="translate(112.64 292.83) scale(1.01 1)"><tspan x="0" y="0">$50</tspan></text><text class="cls-6" transform="translate(112.64 330) scale(1.01 1)"><tspan x="0" y="0">$60</tspan></text><text class="cls-6" transform="translate(112.64 367.18) scale(1.01 1)"><tspan x="0" y="0">$70</tspan></text><text class="cls-6" transform="translate(112.64 404.36) scale(1.01 1)"><tspan x="0" y="0">$80</tspan></text><text class="cls-6" transform="translate(112.64 441.54) scale(1.01 1)"><tspan x="0" y="0">$90</tspan></text><text class="cls-6" transform="translate(112.64 478.71) scale(1.01 1)"><tspan x="0" y="0">$100</tspan></text><text class="cls-6" transform="translate(112.64 515.89) scale(1.01 1)"><tspan x="0" y="0">$110</tspan></text><text class="cls-6" transform="translate(112.64 553.07) scale(1.01 1)"><tspan x="0" y="0">$120</tspan></text><text class="cls-6" transform="translate(112.64 590.25) scale(1.01 1)"><tspan x="0" y="0">$130</tspan></text><text class="cls-6" transform="translate(112.64 627.42) scale(1.01 1)"><tspan x="0" y="0">$140</tspan></text><text class="cls-6" transform="translate(112.64 664.6) scale(1.01 1)"><tspan x="0" y="0">$150</tspan></text><text class="cls-6" transform="translate(112.64 701.78) scale(1.01 1)"><tspan x="0" y="0">$160</tspan></text><text class="cls-6" transform="translate(112.64 738.96) scale(1.01 1)"><tspan x="0" y="0">$170</tspan></text><text class="cls-6" transform="translate(112.64 776.14) scale(1.01 1)"><tspan x="0" y="0">$180</tspan></text><text class="cls-6" transform="translate(112.64 813.31) scale(1.01 1)"><tspan x="0" y="0">$190</tspan></text><text class="cls-6" transform="translate(112.64 850.49) scale(1.01 1)"><tspan x="0" y="0">$200</tspan></text><text class="cls-6" transform="translate(112.64 887.67) scale(1.01 1)"><tspan x="0" y="0">$210</tspan></text><text class="cls-6" transform="translate(112.64 924.85) scale(1.01 1)"><tspan x="0" y="0">$220</tspan></text><text class="cls-6" transform="translate(112.64 962.02) scale(1.01 1)"><tspan x="0" y="0">$230</tspan></text><text class="cls-6" transform="translate(112.64 999.2) scale(1.01 1)"><tspan x="0" y="0">$240</tspan></text><text class="cls-6" transform="translate(112.64 1036.38) scale(1.01 1)"><tspan x="0" y="0">$250</tspan></text><text class="cls-6" transform="translate(112.64 1073.56) scale(1.01 1)"><tspan x="0" y="0">$260</tspan></text><text class="cls-6" transform="translate(112.64 1110.73) scale(1.01 1)"><tspan x="0" y="0">$270</tspan></text><text class="cls-6" transform="translate(112.64 1147.91) scale(1.01 1)"><tspan x="0" y="0">$280</tspan></text><text class="cls-6" transform="translate(112.64 1185.09) scale(1.01 1)"><tspan x="0" y="0">$290</tspan></text><text class="cls-6" transform="translate(112.64 1222.27) scale(1.01 1)"><tspan x="0" y="0">$300</tspan></text><text class="cls-6" transform="translate(204.72 144.11) scale(1.01 1)"><tspan x="0" y="0">$5</tspan></text><text class="cls-6" transform="translate(204.72 181.29) scale(1.01 1)"><tspan x="0" y="0">$10</tspan></text><text class="cls-6" transform="translate(204.72 218.47) scale(1.01 1)"><tspan x="0" y="0">$15</tspan></text><text class="cls-6" transform="translate(204.72 255.65) scale(1.01 1)"><tspan x="0" y="0">$20</tspan></text><text class="cls-6" transform="translate(204.72 292.83) scale(1.01 1)"><tspan x="0" y="0">$25</tspan></text><text class="cls-6" transform="translate(204.72 330) scale(1.01 1)"><tspan x="0" y="0">$30</tspan></text><text class="cls-6" transform="translate(204.72 367.18) scale(1.01 1)"><tspan x="0" y="0">$35</tspan></text><text class="cls-6" transform="translate(204.72 404.36) scale(1.01 1)"><tspan x="0" y="0">$40</tspan></text><text class="cls-6" transform="translate(204.72 441.54) scale(1.01 1)"><tspan x="0" y="0">$45</tspan></text><text class="cls-6" transform="translate(204.72 478.71) scale(1.01 1)"><tspan x="0" y="0">$50</tspan></text><text class="cls-6" transform="translate(204.72 515.89) scale(1.01 1)"><tspan x="0" y="0">$55</tspan></text><text class="cls-6" transform="translate(204.72 553.07) scale(1.01 1)"><tspan x="0" y="0">$60</tspan></text><text class="cls-6" transform="translate(204.72 590.25) scale(1.01 1)"><tspan x="0" y="0">$65</tspan></text><text class="cls-6" transform="translate(204.72 627.42) scale(1.01 1)"><tspan x="0" y="0">$70</tspan></text><text class="cls-6" transform="translate(204.72 664.6) scale(1.01 1)"><tspan x="0" y="0">$75</tspan></text><text class="cls-6" transform="translate(204.72 701.78) scale(1.01 1)"><tspan x="0" y="0">$80</tspan></text><text class="cls-6" transform="translate(204.72 738.96) scale(1.01 1)"><tspan x="0" y="0">$85</tspan></text><text class="cls-6" transform="translate(204.72 776.14) scale(1.01 1)"><tspan x="0" y="0">$90</tspan></text><text class="cls-6" transform="translate(204.72 813.31) scale(1.01 1)"><tspan x="0" y="0">$95</tspan></text><text class="cls-12" transform="translate(204.72 850.49) scale(1.01 1)"><tspan x="0" y="0">$100</tspan></text><text class="cls-12" transform="translate(204.72 887.67) scale(1.01 1)"><tspan x="0" y="0">$105</tspan></text><text class="cls-12" transform="translate(204.72 924.85) scale(1.01 1)"><tspan x="0" y="0">$110</tspan></text><text class="cls-12" transform="translate(204.72 962.02) scale(1.01 1)"><tspan x="0" y="0">$115</tspan></text><text class="cls-12" transform="translate(204.72 999.2) scale(1.01 1)"><tspan x="0" y="0">$120</tspan></text><text class="cls-12" transform="translate(204.72 1036.38) scale(1.01 1)"><tspan x="0" y="0">$125</tspan></text><text class="cls-12" transform="translate(204.72 1073.56) scale(1.01 1)"><tspan x="0" y="0">$130</tspan></text><text class="cls-12" transform="translate(204.72 1110.73) scale(1.01 1)"><tspan x="0" y="0">$135</tspan></text><text class="cls-12" transform="translate(204.72 1147.91) scale(1.01 1)"><tspan x="0" y="0">$140</tspan></text><text class="cls-12" transform="translate(204.72 1185.09) scale(1.01 1)"><tspan x="0" y="0">$145</tspan></text><text class="cls-12" transform="translate(204.72 1222.27) scale(1.01 1)"><tspan x="0" y="0">$150</tspan></text><text class="cls-6" transform="translate(302.03 144.11) scale(1.01 1)"><tspan x="0" y="0">$1</tspan></text><text class="cls-6" transform="translate(302.03 181.29) scale(1.01 1)"><tspan x="0" y="0">$2</tspan></text><text class="cls-6" transform="translate(302.03 218.47) scale(1.01 1)"><tspan x="0" y="0">$3</tspan></text><text class="cls-6" transform="translate(302.03 255.65) scale(1.01 1)"><tspan x="0" y="0">$4</tspan></text><text class="cls-6" transform="translate(302.03 292.83) scale(1.01 1)"><tspan x="0" y="0">$5</tspan></text><text class="cls-6" transform="translate(302.03 330) scale(1.01 1)"><tspan x="0" y="0">$6</tspan></text><text class="cls-6" transform="translate(302.03 367.18) scale(1.01 1)"><tspan x="0" y="0">$7</tspan></text><text class="cls-6" transform="translate(302.03 404.36) scale(1.01 1)"><tspan x="0" y="0">$8</tspan></text><text class="cls-6" transform="translate(302.03 441.54) scale(1.01 1)"><tspan x="0" y="0">$9</tspan></text><text class="cls-6" transform="translate(302.03 478.71) scale(1.01 1)"><tspan x="0" y="0">$10</tspan></text><text class="cls-6" transform="translate(302.03 515.89) scale(1.01 1)"><tspan x="0" y="0">$11</tspan></text><text class="cls-6" transform="translate(302.03 553.07) scale(1.01 1)"><tspan x="0" y="0">$12</tspan></text><text class="cls-6" transform="translate(302.03 590.25) scale(1.01 1)"><tspan x="0" y="0">$13</tspan></text><text class="cls-6" transform="translate(302.03 627.42) scale(1.01 1)"><tspan x="0" y="0">$14</tspan></text><text class="cls-6" transform="translate(302.03 664.6) scale(1.01 1)"><tspan x="0" y="0">$15</tspan></text><text class="cls-6" transform="translate(302.03 701.78) scale(1.01 1)"><tspan x="0" y="0">$16</tspan></text><text class="cls-6" transform="translate(302.03 738.96) scale(1.01 1)"><tspan x="0" y="0">$17</tspan></text><text class="cls-6" transform="translate(302.03 776.14) scale(1.01 1)"><tspan x="0" y="0">$18</tspan></text><text class="cls-6" transform="translate(302.03 813.31) scale(1.01 1)"><tspan x="0" y="0">$19</tspan></text><text class="cls-6" transform="translate(302.03 850.49) scale(1.01 1)"><tspan x="0" y="0">$20</tspan></text><text class="cls-6" transform="translate(302.03 887.67) scale(1.01 1)"><tspan x="0" y="0">$21</tspan></text><text class="cls-6" transform="translate(302.03 924.85) scale(1.01 1)"><tspan x="0" y="0">$22</tspan></text><text class="cls-6" transform="translate(302.03 962.02) scale(1.01 1)"><tspan x="0" y="0">$23</tspan></text><text class="cls-6" transform="translate(302.03 999.2) scale(1.01 1)"><tspan x="0" y="0">$24</tspan></text><text class="cls-6" transform="translate(302.03 1036.38) scale(1.01 1)"><tspan x="0" y="0">$25</tspan></text><text class="cls-6" transform="translate(302.03 1073.56) scale(1.01 1)"><tspan x="0" y="0">$26</tspan></text><text class="cls-6" transform="translate(302.03 1110.73) scale(1.01 1)"><tspan x="0" y="0">$27</tspan></text><text class="cls-6" transform="translate(302.03 1147.91) scale(1.01 1)"><tspan x="0" y="0">$28</tspan></text><text class="cls-6" transform="translate(302.03 1185.09) scale(1.01 1)"><tspan x="0" y="0">$29</tspan></text><text class="cls-6" transform="translate(302.03 1222.27) scale(1.01 1)"><tspan x="0" y="0">$30</tspan></text><text class="cls-6" transform="translate(379.45 144.11) scale(1.01 1)"><tspan x="0" y="0">$16</tspan></text><text class="cls-7" transform="translate(27.72 106.94) scale(1.01 1)"><tspan x="0" y="0">Días</tspan></text><text class="cls-10" transform="translate(106.15 81.12) scale(1.01 1)"><tspan class="cls-14"><tspan x="0" y="0">Moneda</tspan></tspan><tspan class="cls-13"><tspan x="6.56" y="25.82">$10</tspan></tspan></text><text class="cls-10" transform="translate(190.99 81.12) scale(1.01 1)"><tspan class="cls-14"><tspan x="0" y="0">Moneda</tspan></tspan><tspan class="cls-13"><tspan x="13.39" y="25.82">$5</tspan></tspan></text><text class="cls-10" transform="translate(287.83 81.12) scale(1.01 1)"><tspan class="cls-15"><tspan x="0" y="0">Moneda</tspan></tspan><tspan class="cls-13"><tspan x="13.39" y="25.82">$1</tspan></tspan></text><text class="cls-10" transform="translate(372.1 81.12) scale(1.01 1)"><tspan class="cls-16"><tspan x="0" y="0">Moneda</tspan></tspan><tspan class="cls-13"><tspan x="6.56" y="25.82">$16</tspan></tspan></text><text class="cls-6" transform="translate(379.45 181.29) scale(1.01 1)"><tspan x="0" y="0">$32</tspan></text><text class="cls-6" transform="translate(379.45 218.47) scale(1.01 1)"><tspan x="0" y="0">$48</tspan></text><text class="cls-6" transform="translate(379.45 255.65) scale(1.01 1)"><tspan x="0" y="0">$64</tspan></text><text class="cls-6" transform="translate(379.45 292.83) scale(1.01 1)"><tspan x="0" y="0">$80</tspan></text><text class="cls-6" transform="translate(379.45 330) scale(1.01 1)"><tspan x="0" y="0">$96</tspan></text><text class="cls-6" transform="translate(379.45 367.18) scale(1.01 1)"><tspan x="0" y="0">$112</tspan></text><text class="cls-6" transform="translate(379.45 404.36) scale(1.01 1)"><tspan x="0" y="0">$128</tspan></text><text class="cls-6" transform="translate(379.45 441.54) scale(1.01 1)"><tspan x="0" y="0">$144</tspan></text><text class="cls-6" transform="translate(379.45 478.71) scale(1.01 1)"><tspan x="0" y="0">$160</tspan></text><text class="cls-6" transform="translate(379.45 515.89) scale(1.01 1)"><tspan x="0" y="0">$176</tspan></text><text class="cls-6" transform="translate(379.45 553.07) scale(1.01 1)"><tspan x="0" y="0">$192</tspan></text><text class="cls-6" transform="translate(379.45 590.25) scale(1.01 1)"><tspan x="0" y="0">$208</tspan></text><text class="cls-6" transform="translate(379.45 627.42) scale(1.01 1)"><tspan x="0" y="0">$224</tspan></text><text class="cls-6" transform="translate(379.45 664.6) scale(1.01 1)"><tspan x="0" y="0">$240</tspan></text><text class="cls-6" transform="translate(379.45 701.78) scale(1.01 1)"><tspan x="0" y="0">$256</tspan></text><text class="cls-6" transform="translate(379.45 738.96) scale(1.01 1)"><tspan x="0" y="0">$272</tspan></text><text class="cls-6" transform="translate(379.45 776.14) scale(1.01 1)"><tspan x="0" y="0">$288</tspan></text><text class="cls-6" transform="translate(379.45 813.31) scale(1.01 1)"><tspan x="0" y="0">$304</tspan></text><text class="cls-6" transform="translate(379.45 850.49) scale(1.01 1)"><tspan x="0" y="0">$320</tspan></text><text class="cls-6" transform="translate(379.45 887.67) scale(1.01 1)"><tspan x="0" y="0">$336</tspan></text><text class="cls-6" transform="translate(379.45 924.85) scale(1.01 1)"><tspan x="0" y="0">$352</tspan></text><text class="cls-6" transform="translate(379.45 962.02) scale(1.01 1)"><tspan x="0" y="0">$368</tspan></text><text class="cls-6" transform="translate(379.45 999.2) scale(1.01 1)"><tspan x="0" y="0">$384</tspan></text><text class="cls-6" transform="translate(379.45 1036.38) scale(1.01 1)"><tspan x="0" y="0">$400</tspan></text><text class="cls-6" transform="translate(379.45 1073.56) scale(1.01 1)"><tspan x="0" y="0">$416</tspan></text><text class="cls-6" transform="translate(379.45 1110.73) scale(1.01 1)"><tspan x="0" y="0">$432</tspan></text><text class="cls-6" transform="translate(379.45 1147.91) scale(1.01 1)"><tspan x="0" y="0">$448</tspan></text><text class="cls-6" transform="translate(379.45 1185.09) scale(1.01 1)"><tspan x="0" y="0">$464</tspan></text><text class="cls-6" transform="translate(379.45 1222.27) scale(1.01 1)"><tspan x="0" y="0">$480</tspan></text><text class="cls-6" transform="translate(112.64 1259.45) scale(1.01 1)"><tspan x="0" y="0">$300</tspan></text><text class="cls-12" transform="translate(204.72 1259.45) scale(1.01 1)"><tspan x="0" y="0">$150</tspan></text><text class="cls-6" transform="translate(302.03 1259.45) scale(1.01 1)"><tspan x="0" y="0">$30</tspan></text><text class="cls-6" transform="translate(379.45 1259.45) scale(1.01 1)"><tspan x="0" y="0">$480</tspan></text><text class="cls-9" transform="translate(112.64 1296.62) scale(1.01 1)"><tspan x="0" y="0">$1,800</tspan></text><text class="cls-12" transform="translate(204.72 1296.62) scale(1.01 1)"><tspan x="0" y="0">$900</tspan></text><text class="cls-11" transform="translate(302.03 1296.62) scale(1.01 1)"><tspan x="0" y="0">$180</tspan></text><text class="cls-9" transform="translate(379.45 1296.62) scale(1.01 1)"><tspan x="0" y="0">$2,880</tspan></text><text class="cls-9" transform="translate(112.64 1333.8) scale(1.01 1)"><tspan x="0" y="0">$3,600</tspan></text><text class="cls-9" transform="translate(204.72 1333.8) scale(1.01 1)"><tspan x="0" y="0">$1,800</tspan></text><text class="cls-11" transform="translate(302.03 1333.8) scale(1.01 1)"><tspan x="0" y="0">$360</tspan></text><text class="cls-9" transform="translate(379.45 1333.8) scale(1.01 1)"><tspan x="0" y="0">$5,760</tspan></text><text class="cls-8" transform="translate(29.38 1249.75) scale(1.01 1)"><tspan class="cls-20" x="0" y="0">T</tspan><tspan class="cls-17" x="4.63" y="0">otal</tspan><tspan class="cls-17"><tspan x="0" y="11.36">mensual</tspan></tspan></text><text class="cls-8" transform="translate(29.38 1287.83) scale(1.01 1)"><tspan class="cls-20" x="0" y="0">T</tspan><tspan class="cls-17" x="4.63" y="0">otal</tspan><tspan class="cls-18"><tspan x="0" y="11.36">semestral</tspan></tspan></text><text class="cls-8" transform="translate(29.38 1324.8) scale(1.01 1)"><tspan class="cls-20" x="0" y="0">T</tspan><tspan class="cls-17" x="4.63" y="0">otal</tspan><tspan class="cls-17"><tspan x="0" y="11.36">anual</tspan></tspan></text><line class="cls-19" x1="96.4" y1="59.23" x2="96.48" y2="1343.48"/><line class="cls-19" x1="184.1" y1="59.23" x2="184.17" y2="1343.48"/><line class="cls-19" x1="275.8" y1="59.23" x2="275.87" y2="1343.48"/><line class="cls-19" x1="360.74" y1="59.23" x2="360.81" y2="1343.48"/><rect class="cls-3" x="0" y="20.1" width="452.01" height="41.92"/><path class="cls-5" d="M29.36,38.77c.3,3.08,2.89,5.5,6.09,5.5s5.8-2.42,6.09-5.5c-1.89.91-3.94,1.42-6.09,1.42s-4.21-.52-6.09-1.42Z"/><path class="cls-5" d="M40.56,34.8c-1.11-1.61-2.98-2.67-5.1-2.67s-3.99,1.06-5.1,2.67c1.56.9,3.28,1.4,5.1,1.4s3.54-.51,5.1-1.4Z"/><path class="cls-4" d="M40.56,34.8c.66.97,1.05,2.14,1.05,3.4,0,.2-.04.38-.06.57"/><path class="cls-1" d="M52.04,20.1c0-11.08-7.44-20.1-16.58-20.1s-16.59,9.01-16.59,20.1c0,8.47,4.36,15.72,10.49,18.67-.02-.19-.06-.37-.06-.57,0-1.26.39-2.43,1.05-3.4-4.38-2.52-7.45-8.15-7.45-14.71,0-8.88,5.63-16.11,12.55-16.11s12.55,7.23,12.55,16.11"/><path class="cls-1" d="M40.56,34.8c-1.56.9-3.28,1.4-5.1,1.4s-3.54-.51-5.1-1.4c-.66.97-1.05,2.14-1.05,3.4,0,.2.04.38.06.57,1.89.91,3.94,1.42,6.09,1.42s4.2-.52,6.09-1.42c.02-.19.06-.37.06-.57,0-1.26-.39-2.43-1.05-3.4Z"/><path class="cls-5" d="M71.71,38.77c.3,3.08,2.89,5.5,6.09,5.5s5.8-2.42,6.09-5.5c-1.89.91-3.94,1.42-6.09,1.42s-4.21-.52-6.09-1.42Z"/><path class="cls-5" d="M82.91,34.8c-1.11-1.61-2.98-2.67-5.1-2.67s-3.99,1.06-5.1,2.67c1.56.9,3.28,1.4,5.1,1.4s3.54-.51,5.1-1.4Z"/><path class="cls-4" d="M82.91,34.8c.66.97,1.05,2.14,1.05,3.4,0,.2-.04.38-.06.57"/><path class="cls-1" d="M94.39,20.1c0-11.08-7.44-20.1-16.58-20.1s-16.59,9.01-16.59,20.1c0,8.47,4.36,15.72,10.49,18.67-.02-.19-.06-.37-.06-.57,0-1.26.39-2.43,1.05-3.4-4.38-2.52-7.45-8.15-7.45-14.71,0-8.88,5.63-16.11,12.55-16.11s12.55,7.23,12.55,16.11"/><path class="cls-1" d="M82.91,34.8c-1.56.9-3.28,1.4-5.1,1.4s-3.54-.51-5.1-1.4c-.66.97-1.05,2.14-1.05,3.4,0,.2.04.38.06.57,1.89.91,3.94,1.42,6.09,1.42s4.2-.52,6.09-1.42c.02-.19.06-.37.06-.57,0-1.26-.39-2.43-1.05-3.4Z"/><path class="cls-5" d="M114.06,38.77c.3,3.08,2.89,5.5,6.09,5.5s5.8-2.42,6.09-5.5c-1.89.91-3.94,1.42-6.09,1.42s-4.21-.52-6.09-1.42Z"/><path class="cls-5" d="M125.26,34.8c-1.11-1.61-2.98-2.67-5.1-2.67s-3.99,1.06-5.1,2.67c1.56.9,3.28,1.4,5.1,1.4s3.54-.51,5.1-1.4Z"/><path class="cls-4" d="M125.26,34.8c.66.97,1.05,2.14,1.05,3.4,0,.2-.04.38-.06.57"/><path class="cls-1" d="M136.74,20.1c0-11.08-7.44-20.1-16.58-20.1s-16.59,9.01-16.59,20.1c0,8.47,4.36,15.72,10.49,18.67-.02-.19-.06-.37-.06-.57,0-1.26.39-2.43,1.05-3.4-4.38-2.52-7.45-8.15-7.45-14.71,0-8.88,5.63-16.11,12.55-16.11s12.55,7.23,12.55,16.11"/><path class="cls-1" d="M125.26,34.8c-1.56.9-3.28,1.4-5.1,1.4s-3.54-.51-5.1-1.4c-.66.97-1.05,2.14-1.05,3.4,0,.2.04.38.06.57,1.89.91,3.94,1.42,6.09,1.42s4.2-.52,6.09-1.42c.02-.19.06-.37.06-.57,0-1.26-.39-2.43-1.05-3.4Z"/><path class="cls-5" d="M156.41,38.77c.3,3.08,2.89,5.5,6.09,5.5s5.8-2.42,6.09-5.5c-1.89.91-3.94,1.42-6.09,1.42s-4.21-.52-6.09-1.42Z"/><path class="cls-5" d="M167.6,34.8c-1.11-1.61-2.98-2.67-5.1-2.67s-3.99,1.06-5.1,2.67c1.56.9,3.28,1.4,5.1,1.4s3.54-.51,5.1-1.4Z"/><path class="cls-4" d="M167.6,34.8c.66.97,1.05,2.14,1.05,3.4,0,.2-.04.38-.06.57"/><path class="cls-1" d="M179.09,20.1c0-11.08-7.44-20.1-16.58-20.1s-16.59,9.01-16.59,20.1c0,8.47,4.36,15.72,10.49,18.67-.02-.19-.06-.37-.06-.57,0-1.26.39-2.43,1.05-3.4-4.38-2.52-7.45-8.15-7.45-14.71,0-8.88,5.63-16.11,12.55-16.11s12.55,7.23,12.55,16.11"/><path class="cls-1" d="M167.6,34.8c-1.56.9-3.28,1.4-5.1,1.4s-3.54-.51-5.1-1.4c-.66.97-1.05,2.14-1.05,3.4,0,.2.04.38.06.57,1.89.91,3.94,1.42,6.09,1.42s4.2-.52,6.09-1.42c.02-.19.06-.37.06-.57,0-1.26-.39-2.43-1.05-3.4Z"/><path class="cls-5" d="M198.76,38.77c.3,3.08,2.89,5.5,6.09,5.5s5.8-2.42,6.09-5.5c-1.89.91-3.94,1.42-6.09,1.42s-4.21-.52-6.09-1.42Z"/><path class="cls-5" d="M209.95,34.8c-1.11-1.61-2.98-2.67-5.1-2.67s-3.99,1.06-5.1,2.67c1.56.9,3.28,1.4,5.1,1.4s3.54-.51,5.1-1.4Z"/><path class="cls-4" d="M209.95,34.8c.66.97,1.05,2.14,1.05,3.4,0,.2-.04.38-.06.57"/><path class="cls-1" d="M221.44,20.1c0-11.08-7.44-20.1-16.58-20.1s-16.59,9.01-16.59,20.1c0,8.47,4.36,15.72,10.49,18.67-.02-.19-.06-.37-.06-.57,0-1.26.39-2.43,1.05-3.4-4.38-2.52-7.45-8.15-7.45-14.71,0-8.88,5.63-16.11,12.55-16.11s12.55,7.23,12.55,16.11"/><path class="cls-1" d="M209.95,34.8c-1.56.9-3.28,1.4-5.1,1.4s-3.54-.51-5.1-1.4c-.66.97-1.05,2.14-1.05,3.4,0,.2.04.38.06.57,1.89.91,3.94,1.42,6.09,1.42s4.2-.52,6.09-1.42c.02-.19.06-.37.06-.57,0-1.26-.39-2.43-1.05-3.4Z"/><path class="cls-5" d="M241.11,38.77c.3,3.08,2.89,5.5,6.09,5.5s5.8-2.42,6.09-5.5c-1.89.91-3.94,1.42-6.09,1.42s-4.21-.52-6.09-1.42Z"/><path class="cls-5" d="M252.3,34.8c-1.11-1.61-2.98-2.67-5.1-2.67s-3.99,1.06-5.1,2.67c1.56.9,3.28,1.4,5.1,1.4s3.54-.51,5.1-1.4Z"/><path class="cls-4" d="M252.3,34.8c.66.97,1.05,2.14,1.05,3.4,0,.2-.04.38-.06.57"/><path class="cls-1" d="M263.79,20.1c0-11.08-7.44-20.1-16.58-20.1s-16.59,9.01-16.59,20.1c0,8.47,4.36,15.72,10.49,18.67-.02-.19-.06-.37-.06-.57,0-1.26.39-2.43,1.05-3.4-4.38-2.52-7.45-8.15-7.45-14.71,0-8.88,5.63-16.11,12.55-16.11s12.55,7.23,12.55,16.11"/><path class="cls-1" d="M252.3,34.8c-1.56.9-3.28,1.4-5.1,1.4s-3.54-.51-5.1-1.4c-.66.97-1.05,2.14-1.05,3.4,0,.2.04.38.06.57,1.89.91,3.94,1.42,6.09,1.42s4.2-.52,6.09-1.42c.02-.19.06-.37.06-.57,0-1.26-.39-2.43-1.05-3.4Z"/><path class="cls-5" d="M283.46,38.77c.3,3.08,2.89,5.5,6.09,5.5s5.8-2.42,6.09-5.5c-1.89.91-3.94,1.42-6.09,1.42s-4.21-.52-6.09-1.42Z"/><path class="cls-5" d="M294.65,34.8c-1.11-1.61-2.98-2.67-5.1-2.67s-3.99,1.06-5.1,2.67c1.56.9,3.28,1.4,5.1,1.4s3.54-.51,5.1-1.4Z"/><path class="cls-4" d="M294.65,34.8c.66.97,1.05,2.14,1.05,3.4,0,.2-.04.38-.06.57"/><path class="cls-1" d="M306.14,20.1c0-11.08-7.44-20.1-16.58-20.1s-16.59,9.01-16.59,20.1c0,8.47,4.36,15.72,10.49,18.67-.02-.19-.06-.37-.06-.57,0-1.26.39-2.43,1.05-3.4-4.38-2.52-7.45-8.15-7.45-14.71,0-8.88,5.63-16.11,12.55-16.11s12.55,7.23,12.55,16.11"/><path class="cls-1" d="M294.65,34.8c-1.56.9-3.28,1.4-5.1,1.4s-3.54-.51-5.1-1.4c-.66.97-1.05,2.14-1.05,3.4,0,.2.04.38.06.57,1.89.91,3.94,1.42,6.09,1.42s4.2-.52,6.09-1.42c.02-.19.06-.37.06-.57,0-1.26-.39-2.43-1.05-3.4Z"/><path class="cls-5" d="M325.81,38.77c.3,3.08,2.89,5.5,6.09,5.5s5.8-2.42,6.09-5.5c-1.89.91-3.94,1.42-6.09,1.42s-4.21-.52-6.09-1.42Z"/><path class="cls-5" d="M337,34.8c-1.11-1.61-2.98-2.67-5.1-2.67s-3.99,1.06-5.1,2.67c1.56.9,3.28,1.4,5.1,1.4s3.54-.51,5.1-1.4Z"/><path class="cls-4" d="M337,34.8c.66.97,1.05,2.14,1.05,3.4,0,.2-.04.38-.06.57"/><path class="cls-1" d="M348.49,20.1c0-11.08-7.44-20.1-16.58-20.1s-16.59,9.01-16.59,20.1c0,8.47,4.36,15.72,10.49,18.67-.02-.19-.06-.37-.06-.57,0-1.26.39-2.43,1.05-3.4-4.38-2.52-7.45-8.15-7.45-14.71,0-8.88,5.63-16.11,12.55-16.11s12.55,7.23,12.55,16.11"/><path class="cls-1" d="M337,34.8c-1.56.9-3.28,1.4-5.1,1.4s-3.54-.51-5.1-1.4c-.66.97-1.05,2.14-1.05,3.4,0,.2.04.38.06.57,1.89.91,3.94,1.42,6.09,1.42s4.2-.52,6.09-1.42c.02-.19.06-.37.06-.57,0-1.26-.39-2.43-1.05-3.4Z"/><path class="cls-5" d="M368.16,38.77c.3,3.08,2.89,5.5,6.09,5.5s5.8-2.42,6.09-5.5c-1.89.91-3.94,1.42-6.09,1.42s-4.21-.52-6.09-1.42Z"/><path class="cls-5" d="M379.35,34.8c-1.11-1.61-2.98-2.67-5.1-2.67s-3.99,1.06-5.1,2.67c1.56.9,3.28,1.4,5.1,1.4s3.54-.51,5.1-1.4Z"/><path class="cls-4" d="M379.35,34.8c.66.97,1.05,2.14,1.05,3.4,0,.2-.04.38-.06.57"/><path class="cls-1" d="M390.84,20.1c0-11.08-7.44-20.1-16.58-20.1s-16.59,9.01-16.59,20.1c0,8.47,4.36,15.72,10.49,18.67-.02-.19-.06-.37-.06-.57,0-1.26.39-2.43,1.05-3.4-4.38-2.52-7.45-8.15-7.45-14.71,0-8.88,5.63-16.11,12.55-16.11s12.55,7.23,12.55,16.11"/><path class="cls-1" d="M379.35,34.8c-1.56.9-3.28,1.4-5.1,1.4s-3.54-.51-5.1-1.4c-.66.97-1.05,2.14-1.05,3.4,0,.2.04.38.06.57,1.89.91,3.94,1.42,6.09,1.42s4.2-.52,6.09-1.42c.02-.19.06-.37.06-.57,0-1.26-.39-2.43-1.05-3.4Z"/><path class="cls-5" d="M410.51,38.77c.3,3.08,2.89,5.5,6.09,5.5s5.8-2.42,6.09-5.5c-1.89.91-3.94,1.42-6.09,1.42s-4.21-.52-6.09-1.42Z"/><path class="cls-5" d="M421.7,34.8c-1.11-1.61-2.98-2.67-5.1-2.67s-3.99,1.06-5.1,2.67c1.56.9,3.28,1.4,5.1,1.4s3.54-.51,5.1-1.4Z"/><path class="cls-4" d="M421.7,34.8c.66.97,1.05,2.14,1.05,3.4,0,.2-.04.38-.06.57"/><path class="cls-1" d="M433.19,20.1c0-11.08-7.44-20.1-16.58-20.1s-16.59,9.01-16.59,20.1c0,8.47,4.36,15.72,10.49,18.67-.02-.19-.06-.37-.06-.57,0-1.26.39-2.43,1.05-3.4-4.38-2.52-7.45-8.15-7.45-14.71,0-8.88,5.63-16.11,12.55-16.11s12.55,7.23,12.55,16.11"/><path class="cls-1" d="M421.7,34.8c-1.56.9-3.28,1.4-5.1,1.4s-3.54-.51-5.1-1.4c-.66.97-1.05,2.14-1.05,3.4,0,.2.04.38.06.57,1.89.91,3.94,1.42,6.09,1.42s4.2-.52,6.09-1.42c.02-.19.06-.37.06-.57,0-1.26-.39-2.43-1.05-3.4Z"/><line class="cls-19" x1=".6" y1="154.4" x2="452.01" y2="154.4"/><line class="cls-19" x1=".6" y1="191.5" x2="452.01" y2="191.5"/><line class="cls-19" x1=".6" y1="229.05" x2="452.01" y2="229.05"/><line class="cls-19" x1=".6" y1="266.65" x2="452.01" y2="266.65"/><line class="cls-19" x1=".6" y1="303.64" x2="452.01" y2="303.64"/><line class="cls-19" x1=".6" y1="340.4" x2="452.01" y2="340.4"/><line class="cls-19" x1=".6" y1="377.47" x2="452.01" y2="377.47"/><line class="cls-19" x1=".6" y1="414.57" x2="452.01" y2="414.57"/><line class="cls-19" x1=".6" y1="452.12" x2="452.01" y2="452.12"/><line class="cls-19" x1=".6" y1="489.72" x2="452.01" y2="489.72"/><line class="cls-19" x1=".6" y1="526.71" x2="452.01" y2="526.71"/><line class="cls-19" x1=".6" y1="563.46" x2="452.01" y2="563.46"/><line class="cls-19" x1=".6" y1="600.53" x2="452.01" y2="600.53"/><line class="cls-19" x1=".6" y1="637.63" x2="452.01" y2="637.63"/><line class="cls-19" x1=".6" y1="675.18" x2="452.01" y2="675.18"/><line class="cls-19" x1=".6" y1="712.78" x2="452.01" y2="712.78"/><line class="cls-19" x1=".6" y1="749.78" x2="452.01" y2="749.78"/><line class="cls-19" x1=".6" y1="786.53" x2="452.01" y2="786.53"/><line class="cls-19" x1=".6" y1="823.6" x2="452.01" y2="823.6"/><line class="cls-19" x1=".6" y1="860.7" x2="452.01" y2="860.7"/><line class="cls-19" x1=".6" y1="898.25" x2="452.01" y2="898.25"/><line class="cls-19" x1=".6" y1="935.85" x2="452.01" y2="935.85"/><line class="cls-19" x1=".6" y1="972.84" x2="452.01" y2="972.84"/><line class="cls-19" x1=".6" y1="1009.6" x2="452.01" y2="1009.6"/><line class="cls-19" x1=".6" y1="1047.94" x2="452.01" y2="1047.94"/><line class="cls-19" x1=".6" y1="1085.03" x2="452.01" y2="1085.03"/><line class="cls-19" x1=".6" y1="1122.58" x2="452.01" y2="1122.58"/><line class="cls-19" x1=".6" y1="1160.19" x2="452.01" y2="1160.19"/><line class="cls-19" x1=".6" y1="1197.18" x2="452.01" y2="1197.18"/><line class="cls-19" x1=".6" y1="1233.93" x2="452.01" y2="1233.93"/><line class="cls-19" x1=".6" y1="1269.89" x2="452.01" y2="1269.89"/><line class="cls-19" x1=".6" y1="1306.88" x2="452.01" y2="1306.88"/></g></svg>