<?xml version="1.0" encoding="UTF-8"?><svg xmlns="http://www.w3.org/2000/svg" xmlns:xlink="http://www.w3.org/1999/xlink" viewBox="0 0 1917.85 1075"><defs><style>.cls-1{clip-path:url(#clippath);}.cls-2{fill:none;}.cls-2,.cls-3,.cls-4{stroke-width:0px;}.cls-3{opacity:.7;}.cls-3,.cls-4{fill:#fff;mix-blend-mode:soft-light;}.cls-4{opacity:.5;}.cls-5{isolation:isolate;}</style><clipPath id="clippath"><rect class="cls-2" x="0" width="1917.85" height="1075"/></clipPath></defs><g class="cls-5"><g id="Capa_2"><g id="Capa_1-2"><g class="cls-1"><path class="cls-4" d="M1896.22,1131.6h-259.44v-306.61h268.87c7.82,0,14.15-6.33,14.15-14.15s-6.33-14.15-14.15-14.15h-268.87v-386.8h268.87c7.82,0,14.15-6.34,14.15-14.15s-6.33-14.15-14.15-14.15h-268.87V-5.22h268.87c7.82,0,14.15-6.34,14.15-14.15s-6.33-14.15-14.15-14.15h-268.87v-183.97c0-7.81-6.33-14.15-14.15-14.15s-14.15,6.34-14.15,14.15V-33.52h-311.33v-183.97c0-7.81-6.33-14.15-14.15-14.15s-14.15,6.34-14.15,14.15V-33.52h-311.33v-183.97c0-7.81-6.33-14.15-14.15-14.15s-14.15,6.34-14.15,14.15V-33.52h-311.33v-183.97c0-7.81-6.34-14.15-14.15-14.15s-14.15,6.34-14.15,14.15V-33.52h-311.33v-183.97c0-7.81-6.34-14.15-14.15-14.15s-14.15,6.34-14.15,14.15V-33.52H-.05v-183.97c0-15.63-12.67-28.3-28.3-28.3s-28.3,12.67-28.3,28.3v1377.39c0,15.63,12.67,28.3,28.3,28.3h1924.57c15.63,0,28.3-12.67,28.3-28.3s-12.67-28.3-28.3-28.3ZM1608.48,1131.6h-311.33v-306.61h311.33v306.61ZM-.05,409.89h250.01v386.8H-.05v-386.8ZM278.26,409.89h311.33v386.8h-311.33v-386.8ZM929.22,796.69h-311.33v-386.8h311.33v386.8ZM957.52,409.89h311.33v386.8h-311.33v-386.8ZM589.59,824.99v306.61h-311.33v-306.61h311.33ZM617.89,824.99h311.33v306.61h-311.33v-306.61ZM957.52,824.99h311.33v306.61h-311.33v-306.61ZM1608.48,796.69h-311.33v-386.8h311.33v386.8ZM1608.48-5.22v386.8h-311.33V-5.22h311.33ZM1268.85-5.22v386.8h-311.33V-5.22h311.33ZM929.22-5.22v386.8h-311.33V-5.22h311.33ZM589.59-5.22v386.8h-311.33V-5.22h311.33ZM249.95-5.22v386.8H-.05V-5.22h250.01ZM-.05,824.99h250.01v306.61H-.05v-306.61Z"/><path class="cls-3" d="M1850.76-5.69l-224.31,99.61,77.12,56.13-146.23,200.89-208.46-176.93c-10.88-9.24-27.03-8.55-37.1,1.57l-429.69,432.3-201.82-189.02c-6.11-5.8-14.55-8.44-22.87-7.21-8.33,1.25-15.62,6.26-19.76,13.59l-335.33,552.26-161.28-137.94c-11.48-9.81-28.74-8.47-38.56,3-9.82,11.48-8.47,28.74,3.01,38.56l186.52,159.53c4.99,4.27,11.31,6.57,17.78,6.57,1.58,0,3.16-.14,4.74-.41,8.05-1.42,15.04-6.36,19.06-13.48l334.44-550.69,195.8,183.31c10.78,10.22,27.75,9.98,38.22-.56l430.71-433.32,211.65,179.64c5.8,4.92,13.38,7.2,20.94,6.3,7.55-.9,14.39-4.91,18.86-11.06l163.57-224.71,77.12,56.13,25.86-244.07Z"/></g></g></g></g></svg>