<?xml version="1.0" encoding="UTF-8"?><svg id="Capa_2" xmlns="http://www.w3.org/2000/svg" xmlns:xlink="http://www.w3.org/1999/xlink" viewBox="0 0 213.9 405.19"><defs><style>.cls-1{stroke:#e69e31;stroke-linejoin:round;}.cls-1,.cls-2{fill:none;}.cls-3{clip-path:url(#clippath);}.cls-2,.cls-4,.cls-5,.cls-6,.cls-7{stroke-width:0px;}.cls-4{fill:#ff7f22;}.cls-5{fill:#ffc500;}.cls-6{fill:#e69e31;}.cls-7{fill:#ffa900;}</style><clipPath id="clippath"><path class="cls-2" d="M190.97,90.52c0,49.72-40.3,90.02-90.02,90.02S10.93,140.24,10.93,90.52,51.23.5,100.95.5s90.02,40.3,90.02,90.02"/></clipPath></defs><g id="Capa_1-2"><rect class="cls-7" x="22.59" y="367.28" width="186.85" height="37.91"/><rect class="cls-5" x="183.84" y="367.28" width="6.81" height="37.91"/><rect class="cls-5" x="160.07" y="367.28" width="6.81" height="37.91"/><rect class="cls-5" x="136.29" y="367.28" width="6.81" height="37.91"/><rect class="cls-5" x="112.52" y="367.28" width="6.81" height="37.91"/><rect class="cls-5" x="88.74" y="367.28" width="6.81" height="37.91"/><rect class="cls-5" x="64.96" y="367.28" width="6.81" height="37.91"/><rect class="cls-5" x="41.19" y="367.28" width="6.81" height="37.91"/><rect class="cls-6" x="13.68" y="329.35" width="186.85" height="37.91"/><rect class="cls-7" x="174.93" y="329.35" width="6.81" height="37.92"/><rect class="cls-7" x="151.16" y="329.35" width="6.81" height="37.92"/><rect class="cls-7" x="127.38" y="329.35" width="6.81" height="37.92"/><rect class="cls-7" x="103.61" y="329.35" width="6.81" height="37.92"/><rect class="cls-7" x="79.83" y="329.35" width="6.81" height="37.92"/><rect class="cls-7" x="56.06" y="329.35" width="6.81" height="37.92"/><rect class="cls-7" x="32.28" y="329.35" width="6.81" height="37.92"/><rect class="cls-7" x="27.04" y="291.44" width="186.85" height="37.91"/><rect class="cls-5" x="188.29" y="291.44" width="6.81" height="37.91"/><rect class="cls-5" x="164.52" y="291.44" width="6.81" height="37.91"/><rect class="cls-5" x="140.74" y="291.44" width="6.81" height="37.91"/><rect class="cls-5" x="116.97" y="291.44" width="6.81" height="37.91"/><rect class="cls-5" x="93.2" y="291.44" width="6.81" height="37.91"/><rect class="cls-5" x="69.42" y="291.44" width="6.81" height="37.91"/><rect class="cls-5" x="45.65" y="291.44" width="6.81" height="37.91"/><rect class="cls-6" x="18.14" y="253.53" width="186.85" height="37.91"/><rect class="cls-7" x="179.39" y="253.53" width="6.81" height="37.91"/><rect class="cls-7" x="155.61" y="253.53" width="6.81" height="37.91"/><rect class="cls-7" x="131.83" y="253.53" width="6.81" height="37.91"/><rect class="cls-7" x="108.06" y="253.53" width="6.81" height="37.91"/><rect class="cls-7" x="84.28" y="253.53" width="6.81" height="37.91"/><rect class="cls-7" x="60.51" y="253.53" width="6.81" height="37.91"/><rect class="cls-7" x="36.74" y="253.53" width="6.81" height="37.91"/><rect class="cls-7" x="14.56" y="215.62" width="186.85" height="37.91"/><rect class="cls-5" x="175.98" y="215.62" width="6.81" height="37.91"/><rect class="cls-5" x="152.21" y="215.62" width="6.81" height="37.91"/><rect class="cls-5" x="128.43" y="215.62" width="6.81" height="37.91"/><rect class="cls-5" x="104.66" y="215.62" width="6.81" height="37.91"/><rect class="cls-5" x="80.88" y="215.62" width="6.81" height="37.91"/><rect class="cls-5" x="57.11" y="215.62" width="6.81" height="37.91"/><rect class="cls-5" x="33.33" y="215.62" width="6.81" height="37.91"/><rect class="cls-6" x="5.65" y="177.71" width="186.85" height="37.91"/><rect class="cls-7" x="167.07" y="177.71" width="6.81" height="37.91"/><rect class="cls-7" x="143.3" y="177.71" width="6.81" height="37.91"/><rect class="cls-7" x="119.52" y="177.71" width="6.81" height="37.91"/><rect class="cls-7" x="95.75" y="177.71" width="6.81" height="37.91"/><rect class="cls-7" x="71.97" y="177.71" width="6.81" height="37.91"/><rect class="cls-7" x="48.2" y="177.71" width="6.81" height="37.91"/><rect class="cls-7" x="24.42" y="177.71" width="6.81" height="37.91"/><path class="cls-4" d="M190.97,90.52c0,49.72-40.3,90.02-90.02,90.02S10.93,140.24,10.93,90.52,51.23.5,100.95.5s90.02,40.3,90.02,90.02"/><g class="cls-3"><rect class="cls-7" x="100.96" y=".5" width="135.45" height="12.97"/><rect class="cls-7" x="100.96" y="26.44" width="135.45" height="12.97"/><rect class="cls-7" x="100.96" y="52.37" width="135.45" height="12.97"/><rect class="cls-7" x="100.96" y="78.31" width="135.45" height="12.97"/><rect class="cls-7" x="100.96" y="104.25" width="135.45" height="12.97"/><rect class="cls-7" x="100.96" y="130.19" width="135.45" height="12.97"/><rect class="cls-7" x="100.96" y="156.13" width="135.45" height="12.97"/></g><path class="cls-5" d="M180.05,90.52c0,49.72-40.3,90.02-90.02,90.02S0,140.24,0,90.52,40.3.5,90.02.5s90.02,40.3,90.02,90.02"/><path class="cls-7" d="M154.74,90.52c0,35.75-28.97,64.72-64.72,64.72S25.3,126.27,25.3,90.52,54.28,25.8,90.02,25.8s64.72,28.97,64.72,64.72"/><path class="cls-1" d="M90.02,25.8c35.74,0,64.72,28.97,64.72,64.72,0,21.08-10.08,39.8-25.67,51.62"/><path class="cls-1" d="M90.02.5c49.72,0,90.02,40.3,90.02,90.02s-40.3,90.02-90.02,90.02"/><path class="cls-1" d="M25.3,90.52c0-19.88,8.96-37.66,23.07-49.53"/><path class="cls-6" d="M100.61,108.46c1.13-1.14,1.69-2.49,1.68-4.07-.01-1.57-.6-2.86-1.77-3.86-1.17-1-2.86-1.87-5.06-2.61l.07,13.02c2.26-.52,3.96-1.34,5.08-2.48M80.71,79.23c1.2,1,2.94,1.84,5.21,2.52l-.08-13.4c-2.39.58-4.14,1.49-5.27,2.72-1.12,1.23-1.68,2.67-1.67,4.3,0,1.57.61,2.86,1.82,3.86M111.88,116.46c-3.75,3.7-9.18,6.02-16.29,6.94l.06,10.57-9.43.06-.06-10.29c-4.66-.22-9.1-1.01-13.32-2.37-4.23-1.36-7.63-3.03-10.22-5.03l5.12-11.54c2.4,1.75,5.21,3.21,8.42,4.39,3.22,1.17,6.52,1.91,9.92,2.2l-.09-15.76c-4.48-1.05-8.26-2.22-11.35-3.52-3.09-1.3-5.68-3.22-7.77-5.76-2.09-2.53-3.15-5.91-3.17-10.12-.03-5.22,1.85-9.72,5.63-13.48,3.78-3.76,9.26-6.08,16.43-6.93l-.06-10.47,9.43-.06.06,10.28c7.74.58,14.14,2.46,19.19,5.64l-4.65,11.63c-4.73-2.68-9.56-4.29-14.47-4.82l.09,16.04c4.41.98,8.15,2.11,11.2,3.38,3.06,1.27,5.64,3.18,7.72,5.71,2.09,2.53,3.15,5.88,3.17,10.03.03,5.16-1.83,9.59-5.58,13.29"/></g></svg>