<?xml version="1.0" encoding="UTF-8"?><svg xmlns="http://www.w3.org/2000/svg" viewBox="0 0 1754.86 1052.91"><defs><style>.cls-1{fill:#fff;mix-blend-mode:soft-light;opacity:.7;stroke-width:0px;}.cls-2{isolation:isolate;}</style></defs><g class="cls-2"><g id="Capa_2"><g id="Capa_1-2"><path class="cls-1" d="M1754.86,0l-224.31,99.61,77.12,56.13-146.23,200.89-208.46-176.93c-10.88-9.24-27.03-8.55-37.1,1.57l-429.69,432.3-201.82-189.02c-6.11-5.8-14.55-8.44-22.87-7.21-8.33,1.25-15.62,6.26-19.76,13.59L206.4,983.19l-161.28-137.94c-11.48-9.81-28.74-8.47-38.56,3-9.82,11.48-8.47,28.74,3.01,38.56l186.52,159.53c4.99,4.27,11.31,6.57,17.78,6.57,1.58,0,3.16-.14,4.74-.41,8.05-1.42,15.04-6.36,19.06-13.48l334.44-550.69,195.8,183.31c10.78,10.22,27.75,9.98,38.22-.56l430.71-433.32,211.65,179.64c5.8,4.92,13.38,7.2,20.94,6.3,7.55-.9,14.39-4.91,18.86-11.06l163.57-224.71,77.12,56.13L1754.86,0Z"/></g></g></g></svg>