<?xml version="1.0" encoding="UTF-8"?><svg id="Capa_2" xmlns="http://www.w3.org/2000/svg" xmlns:xlink="http://www.w3.org/1999/xlink" viewBox="0 0 1611.21 866.29"><defs><style>.cls-1{fill:url(#linear-gradient);}.cls-1,.cls-2,.cls-3,.cls-4{stroke-width:0px;}.cls-2{fill:#161d21;}.cls-3{fill:#aeaeae;}.cls-4{fill:#fff;}</style><linearGradient id="linear-gradient" x1="914.23" y1="796.08" x2="914.23" y2="795.59" gradientUnits="userSpaceOnUse"><stop offset=".02" stop-color="#5f6767"/><stop offset=".48" stop-color="#676b6c"/><stop offset=".51" stop-color="#6e7273"/><stop offset=".61" stop-color="#858889"/><stop offset=".72" stop-color="#929596"/><stop offset=".81" stop-color="#979a9b"/></linearGradient></defs><g id="Capa_1-2"><path class="cls-3" d="M.7,832.17s-9.99,18.61,60.99,34.12h1486.01s49.71-3.18,62.81-26.62l.08-12.83L.7,832.17Z"/><path class="cls-4" d="M1.05,794.61h1610.06v41.34s2.42,5.53-16.54,4.15H16.2s-14.82,4.16-16.2-5.53l1.05-39.96Z"/><path class="cls-3" d="M1536.33,818.77c0,1.6-1.07,2.88-2.39,2.88h-54.78c-1.32,0-2.39-1.28-2.39-2.88h0c0-1.64,1.07-2.94,2.39-2.94h54.78c1.33,0,2.39,1.3,2.39,2.94h0Z"/><path class="cls-3" d="M696.72,794.93s-6.21,20.7,14.47,22.76h186.79s19.86,2.58,17.22-22.05l-218.49-.7Z"/><path class="cls-1" d="M914.24,796.08v-.49h-.03c0,.15,0,.31.03.49Z"/><path class="cls-2" d="M1452.81,794.42V60.56c0-33.32-27.25-60.56-60.55-60.56H218.98c-33.31,0-60.56,27.25-60.56,60.56v733.86h1294.4Z"/><rect class="cls-4" x="200.05" y="45.44" width="1211.12" height="703.94"/></g></svg>