<?xml version="1.0" encoding="UTF-8"?><svg xmlns="http://www.w3.org/2000/svg" viewBox="0 0 1913.86 1043.03"><defs><style>.cls-1{fill:none;stroke:#aeecef;stroke-linecap:round;stroke-linejoin:round;stroke-width:11px;}.cls-2{fill:#aeecef;}.cls-2,.cls-3{stroke-width:0px;}.cls-4{mix-blend-mode:soft-light;}.cls-5{isolation:isolate;}.cls-3{fill:#fff;}</style></defs><g class="cls-5"><g id="Capa_2"><g id="Capa_1-2"><g class="cls-4"><polygon class="cls-3" points="1304.17 162.73 1304.17 514.78 1342.83 514.78 1342.83 162.73 1379.08 162.73 1323.5 102.18 1267.92 162.73 1304.17 162.73"/><polygon class="cls-3" points="1024.25 311.45 1024.25 663.51 1062.92 663.51 1062.92 311.45 1099.16 311.45 1043.58 250.9 988 311.45 1024.25 311.45"/><polygon class="cls-3" points="745.7 368.11 745.7 720.16 784.36 720.16 784.36 368.11 820.61 368.11 765.02 307.56 709.44 368.11 745.7 368.11"/><polygon class="cls-3" points="279.65 606.53 279.65 958.59 318.31 958.59 318.31 606.53 354.56 606.53 298.98 545.99 243.4 606.53 279.65 606.53"/><rect class="cls-2" y="955.11" width="38.95" height="87.92"/><rect class="cls-2" x="93.13" y="885.95" width="38.95" height="157.08"/><rect class="cls-2" x="279.38" y="716.33" width="38.95" height="326.71"/><rect class="cls-2" x="372.51" y="761.13" width="38.95" height="281.9"/><rect class="cls-2" x="186.25" y="784.19" width="38.95" height="258.85"/><rect class="cls-2" x="465.63" y="695.35" width="38.95" height="347.69"/><rect class="cls-2" x="558.76" y="626.19" width="38.95" height="416.85"/><rect class="cls-2" x="651.89" y="563.78" width="38.95" height="479.26"/><rect class="cls-2" x="745.01" y="489.51" width="38.95" height="553.52"/><rect class="cls-2" x="838.14" y="570.52" width="38.95" height="472.51"/><rect class="cls-2" x="931.27" y="488.79" width="38.95" height="554.24"/><rect class="cls-2" x="1024.39" y="398.94" width="38.95" height="644.1"/><rect class="cls-2" x="1118.24" y="438.95" width="38.95" height="604.08"/><rect class="cls-2" x="1304.49" y="254.36" width="38.95" height="788.68"/><rect class="cls-2" x="1397.62" y="334.89" width="38.95" height="708.14"/><rect class="cls-2" x="1211.37" y="361.36" width="38.95" height="681.67"/><rect class="cls-2" x="1490.75" y="287.2" width="38.95" height="755.83"/><rect class="cls-2" x="1583.87" y="239.91" width="38.95" height="803.12"/><rect class="cls-2" x="1677" y="179.19" width="38.95" height="863.85"/><rect class="cls-2" x="1770.13" y="133.64" width="38.95" height="909.39"/><rect class="cls-2" x="1863.25" y="91.47" width="38.95" height="951.56"/><polygon class="cls-2" points="1913.86 0 1840.18 7.42 1881.05 66.39 1913.86 0"/><polyline class="cls-1" points="1872.46 32.46 1420.98 247.87 1327.15 197.7 1134.16 355.87 1041.51 332.26 852.66 486.88 770.03 426.69 378.17 690.49 297.9 643.87 20.53 911.8"/></g></g></g></g></svg>