<?xml version="1.0" encoding="UTF-8"?><svg xmlns="http://www.w3.org/2000/svg" xmlns:xlink="http://www.w3.org/1999/xlink" viewBox="0 0 905.93 1078.82"><defs><style>.cls-1{clip-path:url(#clippath);}.cls-2{fill:none;}.cls-2,.cls-3,.cls-4,.cls-5,.cls-6,.cls-7,.cls-8{stroke-width:0px;}.cls-9,.cls-8{opacity:.1;}.cls-10{mix-blend-mode:overlay;}.cls-3{fill:#dcdcdc;}.cls-4{fill:#ffc800;}.cls-5{fill:#aeecef;}.cls-6,.cls-8{fill:#000;}.cls-7{fill:#ececec;}.cls-11{mix-blend-mode:soft-light;}.cls-12{isolation:isolate;}</style><clipPath id="clippath"><rect class="cls-2" width="905.93" height="1078.82"/></clipPath></defs><g class="cls-12"><g id="Capa_2"><g id="Capa_1-2"><g class="cls-1"><g class="cls-10"><path class="cls-7" d="M.35,72.59c-139.94,0-140.17,198.99,0,198.99S140.51,72.59.35,72.59Z"/><path class="cls-3" d="M85.44,190.74c-7.47,34.23-35.85,63.93-85.11,63.93-116.31,0-116.13-165.16,0-165.16.76,0,1.52,0,2.28.04-109.29,2-108.76,158.41,2.15,158.41,45.24,0,72.19-26.18,80.68-57.22Z"/><path class="cls-3" d="M1.18,111.28c1.97,0,3.63,1.52,3.63,3.32v5.54c10.9.83,18.77,4.16,26.95,9.7,1.36.97,2.12,1.8,2.12,3.19,0,1.94-1.82,3.46-3.94,3.46-.91,0-1.67-.14-2.73-.97-7.42-5.4-14.68-8.17-22.71-9v38.78c23.01,4.43,32.7,12.33,32.7,25.91,0,14.68-13.47,25.07-32.4,25.63v10.8c0,1.8-1.67,3.32-3.63,3.32s-3.63-1.52-3.63-3.32v-10.94c-13.17-.97-23.92-5.4-34.06-13.44-1.06-.83-1.67-1.66-1.67-2.91,0-1.8,1.82-3.46,3.78-3.46,1.36,0,2.27.56,2.73.97,8.48,7.2,17.71,11.5,29.52,12.61v-39.48c-22.71-4.57-32.1-12.19-32.1-26.04s13.32-24.66,31.79-25.07v-5.27c0-1.8,1.66-3.32,3.63-3.32ZM-2.15,163.92v-37.82c-14.69.28-24.37,8.31-24.37,18.28,0,9.42,4.84,15.24,24.37,19.53ZM4.51,172.37v38.23c15.14-.28,24.98-8.31,24.98-18.84,0-9.56-5.3-15.38-24.98-19.39Z"/><path class="cls-7" d="M422.22,611.2c-116.14,30.49-72.98,195.69,43.35,165.15,116.14-30.48,72.98-195.69-43.35-165.15Z"/><path class="cls-3" d="M518.58,690.72c1.26,30.04-15.83,60.87-56.71,71.6-96.53,25.34-132.37-111.78-35.98-137.08.63-.17,1.26-.33,1.9-.46-90.27,25.47-55.75,155.17,36.29,131.01,37.55-9.86,54.21-37.45,54.5-65.07Z"/><path class="cls-3" d="M431.33,643.13c1.63-.43,3.35.47,3.74,1.97l1.21,4.6c9.23-1.69,16.48-.64,24.48,2.18,1.34.51,2.15,1.03,2.45,2.19.42,1.61-.76,3.27-2.51,3.73-.75.2-1.41.25-2.47-.21-7.33-2.87-13.97-3.58-20.81-2.52l8.45,32.19c20.06-1.33,29.83,3.11,32.78,14.38,3.2,12.19-5.72,23.74-21.3,28.33l2.35,8.97c.39,1.5-.66,3.12-2.29,3.55-1.64.43-3.35-.47-3.74-1.97l-2.38-9.08c-11.14,2.06-21.03.73-31.2-3.73-1.06-.46-1.74-1.02-2.02-2.05-.39-1.5.75-3.27,2.39-3.7,1.13-.3,2.01-.03,2.47.21,8.61,4.13,17.2,5.68,27.25,4.03l-8.6-32.77c-19.84,1.16-29.29-3.12-32.31-14.62-3.05-11.61,5.68-23.37,20.92-27.73l-1.15-4.37c-.39-1.49.66-3.12,2.29-3.55ZM440.04,687.55l-8.24-31.39c-12.13,3.43-18.42,12.21-16.25,20.48,2.05,7.82,7.34,11.59,24.49,10.9ZM447.41,693.11l8.33,31.73c12.51-3.53,18.92-12.34,16.63-21.08-2.08-7.93-7.75-11.61-24.96-10.65Z"/><path class="cls-3" d="M40.29,786.99c-113.94,58.36-27.69,227.21,86.44,168.75,113.93-58.36,27.68-227.21-86.44-168.75Z"/><path class="cls-7" d="M50.99,781.51c-108.59,55.62-22.33,224.46,86.44,168.75,108.58-55.62,22.32-224.46-86.44-168.75Z"/><path class="cls-3" d="M168.33,847.89c9.08,32-.05,68.46-38.27,88.04-90.25,46.23-161.86-93.91-71.74-140.06.59-.3,1.18-.6,1.79-.87-83.94,45.14-15.58,177.57,70.48,133.49,35.1-17.98,44.65-50.89,37.75-80.6Z"/><path class="cls-3" d="M84.43,809.04c1.69-.3,3.38.87,3.68,2.55l.94,5.2c9.49-.91,16.81.99,24.76,4.91,1.33.7,2.12,1.36,2.36,2.66.33,1.82-.97,3.53-2.79,3.85-.78.14-1.45.13-2.5-.49-7.28-3.92-13.98-5.39-21.01-4.92l6.57,36.37c20.49.59,30.14,6.49,32.44,19.22,2.49,13.77-7.31,25.6-23.45,29.05l1.83,10.13c.31,1.69-.87,3.38-2.55,3.68-1.69.31-3.38-.86-3.68-2.55l-1.85-10.26c-11.46,1.13-21.44-1.36-31.5-7.32-1.05-.61-1.71-1.3-1.92-2.47-.31-1.69.97-3.53,2.66-3.83,1.17-.21,2.04.17,2.5.49,8.49,5.44,17.14,8.04,27.46,7.24l-6.69-37.02c-20.26-.76-29.6-6.45-31.95-19.44-2.37-13.12,7.25-25.19,23.03-28.44l-.89-4.94c-.3-1.69.86-3.38,2.55-3.68ZM90.49,858.91l-6.41-35.46c-12.55,2.54-19.5,11.57-17.81,20.92,1.6,8.83,6.74,13.54,24.22,14.54ZM97.63,865.8l6.48,35.85c12.94-2.61,20.02-11.67,18.24-21.54-1.62-8.96-7.15-13.6-24.72-14.31Z"/><path class="cls-3" d="M446.94-73.04c-105.73-7.22-116.6,149.36-10.7,156.59,105.72,7.22,116.59-149.36,10.7-156.59Z"/><path class="cls-7" d="M456.86-72.36c-100.76-6.88-111.62,149.7-10.7,156.59,100.76,6.88,111.62-149.7,10.7-156.59Z"/><path class="cls-3" d="M511.78,24.8c-7.22,26.57-29.25,48.55-64.72,46.12-83.75-5.72-74.74-135.68,8.88-129.97.55.04,1.09.07,1.64.14-78.8-3.8-86.82,119.31-6.97,124.77,32.57,2.22,53.39-17.05,61.17-41.06Z"/><path class="cls-3" d="M468.84-38.56c1.33.5,2.02,2.06,1.52,3.38l-1.55,4.09c7.12,3.4,11.5,7.87,15.47,14.05.65,1.07.92,1.87.54,2.89-.54,1.43-2.2,2.09-3.63,1.54-.61-.23-1.09-.53-1.57-1.41-3.49-5.88-7.62-9.79-12.8-12.45l-10.86,28.6c14.29,9.16,18.61,17.47,14.81,27.48-4.11,10.83-16.11,15.04-29.03,10.6l-3.02,7.97c-.5,1.33-2.06,2.02-3.38,1.52-1.33-.51-2.03-2.05-1.52-3.38l3.06-8.07c-8.61-4.09-14.63-10.11-19.22-18.63-.48-.88-.66-1.65-.31-2.57.5-1.33,2.2-2.09,3.52-1.58.92.35,1.38.99,1.57,1.41,3.7,7.48,8.73,13.02,16.39,16.86l11.05-29.11c-14.05-9.19-18.24-17.21-14.37-27.42,3.92-10.32,15.89-14.77,28.47-10.34l1.47-3.88c.5-1.33,2.05-2.03,3.38-1.52ZM451.86-.6l10.59-27.89c-9.99-3.56-18.77-.12-21.56,7.24-2.64,6.95-1,12.48,10.98,20.65ZM453.99,7.34l-10.7,28.19c10.29,3.67,19.18.27,22.13-7.49,2.68-7.05.73-12.7-11.43-20.7Z"/></g><g class="cls-12"><path class="cls-4" d="M469.27,1066.61l-11.98,20.04c6.25-10.44-8.32-33.43-48.38-57.39-1.23-.74-2.49-1.47-3.77-2.21-.55-.32-1.09-.64-1.63-.93l11.98-20.04c.53.28,1.08.61,1.63.93,1.28.74,2.53,1.48,3.77,2.21,40.06,23.96,54.62,46.95,48.38,57.39Z"/><path class="cls-4" d="M464.02,1062.38l-11.98,20.04c5.99-10.02-7.98-32.07-46.41-55.05-.69-.42-1.4-.83-2.11-1.25l11.98-20.04c.71.42,1.42.83,2.11,1.25,38.43,22.98,52.41,45.03,46.41,55.05Z"/><path class="cls-4" d="M402.77,1032.66s-.03-.02-.04-.02c3.99-6.68,7.99-13.36,11.98-20.04.01,0,.03.02.04.02-3.6,6.01-8.39,14.03-11.98,20.04Z"/><path class="cls-4" d="M402.73,1032.63c-1.4-.83-2.77-1.15-3.06-.72l11.98-20.04c.29-.43,1.66-.11,3.06.72-.42.7-.98,1.64-1.4,2.34-.44.74-1.04,1.74-1.48,2.48-.46.77-1.08,1.8-1.54,2.57-.47.79-1.1,1.84-1.57,2.62-.47.79-1.1,1.84-1.57,2.62-.46.77-1.08,1.8-1.54,2.57-.44.74-1.04,1.74-1.48,2.48-.42.7-.98,1.64-1.4,2.34Z"/><path class="cls-4" d="M416.77,1014.96l-11.98,20.04c.27-.45-.64-1.51-2.01-2.33l11.98-20.04c1.37.83,2.27,1.89,2.01,2.33Z"/><polygon class="cls-4" points="416.76 1014.97 404.77 1035.01 403.86 1036.34 415.85 1016.31 416.76 1014.97"/><path class="cls-4" d="M416.77,1014.96l-11.98,20.04s0,.01,0,.02l11.98-20.04s0-.01,0-.02Z"/><polygon class="cls-4" points="411.65 1011.87 399.67 1031.91 398.8 1033.18 410.78 1013.15 411.65 1011.87"/><path class="cls-4" d="M398.8,1033.18c-4.17-2.48-8.15-4.49-11.7-5.96,3.99-6.68,7.99-13.36,11.98-20.04,3.55,1.47,7.52,3.47,11.7,5.96-3.6,6.01-8.39,14.03-11.98,20.04Z"/><path class="cls-4" d="M387.89,1025.59c3.68-6.15,7.36-12.31,11.04-18.46.05.02.1.04.16.06-.42.7-.98,1.64-1.4,2.34-.45.74-1.04,1.74-1.48,2.48-.46.77-1.08,1.8-1.54,2.57-.47.79-1.1,1.84-1.57,2.62-.47.79-1.1,1.84-1.57,2.62-.46.77-1.08,1.8-1.54,2.58-.45.74-1.04,1.74-1.48,2.48-.42.7-.98,1.64-1.4,2.34-.05-.02-.1-.04-.16-.06.31-.52.63-1.05.94-1.57Z"/><path class="cls-4" d="M433.2,1030.15l-11.98,20.04c-4.84-4.83-9.82-8.99-17.35-13.85l11.98-20.04c7.53,4.85,12.51,9.01,17.35,13.85Z"/><path class="cls-4" d="M386.94,1027.16c-4.17-1.71-7.75-2.67-10.37-2.79,3.99-6.68,7.99-13.36,11.98-20.04,2.62.12,6.2,1.08,10.37,2.79-.28.47-.66,1.11-.95,1.58-.15.25-.35.58-.5.83-.31.51-.72,1.2-1.02,1.71-.16.26-.37.61-.52.88-.32.53-.74,1.24-1.06,1.77-.16.27-.37.62-.53.89-.32.53-.74,1.23-1.05,1.76-.16.26-.36.61-.52.86-.3.5-.7,1.17-1,1.68-.14.24-.34.56-.48.8-.19.32-.44.74-.63,1.05-.05.09-.12.2-.17.29-.11.18-.25.41-.35.59-.05.09-.13.21-.18.3-.11.19-.26.43-.37.62-.06.09-.13.22-.19.32-.11.19-.27.44-.38.64-.06.1-.13.22-.19.32-.11.19-.27.45-.38.64-.06.09-.13.22-.19.32-.11.19-.26.44-.37.62-.02.03-.04.07-.06.1-.04.06-.09.14-.12.2-.02.03-.04.07-.06.1-.04.06-.08.14-.12.2-.02.03-.04.07-.06.1-.04.06-.08.14-.12.2-.02.03-.04.07-.06.1-.03.06-.08.14-.12.19-.02.03-.04.07-.06.1-.03.06-.08.13-.11.19-.02.03-.04.06-.06.09Z"/><path class="cls-4" d="M376.75,1023.96c3.91-6.55,7.83-13.09,11.74-19.64.02,0,.04,0,.06,0-3.99,6.68-7.99,13.36-11.98,20.04-.02,0-.04,0-.06,0,.08-.13.16-.27.24-.4Z"/><path class="cls-4" d="M434.19,1031.84l-11.98,20.04c.21-.35-.18-.87-.99-1.69l11.98-20.04c.81.82,1.2,1.34.99,1.69Z"/><path class="cls-4" d="M429.09,1029.6l-11.98,20.04c-4.35-4.48-8.98-8.24-14.51-11.87l11.98-20.04c5.52,3.63,10.16,7.39,14.51,11.87Z"/><path class="cls-4" d="M376.52,1024.36c-.7-.03-1.34,0-1.89.1,3.99-6.68,7.99-13.36,11.98-20.04.56-.1,1.19-.13,1.89-.1-.12.21-.29.49-.41.69-.07.11-.15.25-.22.36-.13.23-.31.53-.45.75-.07.12-.16.27-.23.38-.14.23-.33.54-.46.78-.07.12-.16.27-.23.39-.14.23-.32.54-.46.77-.07.11-.16.27-.23.38-1.64,2.75-3.29,5.5-4.93,8.25-.32.54-.75,1.25-1.07,1.79-.16.27-.37.62-.53.89-.31.52-.73,1.22-1.04,1.74-.15.25-.35.59-.51.84-.29.49-.68,1.13-.97,1.62,0,0-.01.02-.01.02,0,.02-.02.04-.03.05,0,0-.01.02-.01.03,0,.02-.02.04-.03.05,0,0-.01.02-.02.03,0,.02-.02.04-.03.05,0,0-.01.02-.02.03,0,.02-.02.04-.03.05,0,0-.01.02-.01.03,0,.01-.02.03-.03.05,0,0-.01.02-.01.02Z"/><path class="cls-4" d="M434.19,1031.84l-11.98,20.04c-.32.47-1.81.07-3.29-.81-.71-.42-1.2-.78-1.81-1.43l11.98-20.04c.61.65,1.1,1.01,1.81,1.43,1.48.88,2.98,1.28,3.29.81Z"/><path class="cls-4" d="M374.62,1024.46c-.17.03-.33.06-.49.11,3.99-6.68,7.99-13.36,11.98-20.04.16-.04.32-.08.49-.11-.42.7-.98,1.64-1.4,2.34-.45.74-1.04,1.74-1.48,2.48-.46.77-1.08,1.8-1.54,2.57-.47.79-1.1,1.84-1.57,2.62-2,3.34-4,6.68-5.99,10.02Z"/><path class="cls-4" d="M377.76,1029.01l11.98-20.04s.06-.09.08-.13c1.63-2.42,9.76-.24,20.15,5.96l-11.98,20.04c-10.39-6.2-18.52-8.38-20.15-5.96-.03.04-.06.09-.08.13Z"/><path class="cls-4" d="M372.33,1025.73c-.04.05-.07.11-.1.16l11.98-20.04c.03-.06.07-.11.1-.16.38-.56.99-.94,1.8-1.16-.42.7-.98,1.64-1.4,2.34-.45.74-1.04,1.74-1.48,2.48-.46.77-1.08,1.8-1.54,2.57-.47.79-1.1,1.84-1.57,2.62-.47.79-1.1,1.84-1.57,2.62-.46.77-1.08,1.8-1.54,2.57-.44.74-1.04,1.74-1.48,2.48-.42.7-.98,1.64-1.4,2.34-.82.22-1.43.6-1.8,1.16Z"/><path class="cls-4" d="M377.76,1029.01l11.98-20.04c-1.37,2.29,1.25,5.82,14.01,15l-11.98,20.04c-12.76-9.18-15.38-12.71-14.01-15Z"/><polygon class="cls-4" points="409.98 1014.8 398 1034.84 391.77 1044.01 403.75 1023.97 409.98 1014.8"/><path class="cls-4" d="M409.98,1014.8l-6.23,9.17c-13.01-9.36-15.48-12.84-13.92-15.13,1.63-2.42,9.76-.24,20.15,5.96Z"/><polygon class="cls-4" points="414.59 1017.73 402.6 1037.77 396.23 1047.18 408.22 1027.15 414.59 1017.73"/><path class="cls-4" d="M372.23,1025.89l11.98-20.04c-2.02,3.37,3.42,9.23,18.4,19.85l-11.98,20.04c-14.98-10.62-20.42-16.47-18.4-19.85Z"/><path class="cls-4" d="M411.34,1059.21c-3.13-3.14-8.1-7.08-15.11-12.02l11.98-20.04c7.02,4.94,11.98,8.88,15.11,12.02-.42.7-.98,1.64-1.4,2.34-.45.74-1.04,1.74-1.48,2.48-.46.77-1.08,1.8-1.54,2.57-.47.79-1.1,1.84-1.57,2.62-2,3.34-4,6.68-5.99,10.02Z"/><path class="cls-4" d="M411.7,1059.57c-.12-.12-.23-.24-.36-.36,3.99-6.68,7.99-13.36,11.98-20.04.12.12.24.24.36.36-.19.32-.45.76-.65,1.08-.1.17-.24.39-.34.56-.21.35-.49.81-.69,1.16-.11.18-.25.42-.36.59-.22.36-.51.85-.72,1.21-.11.18-.26.43-.36.61-.22.37-.51.86-.73,1.22-.11.18-.26.43-.37.61-.22.36-.51.85-.72,1.21-.11.18-.25.42-.36.59-.13.22-.31.51-.44.73-.03.04-.06.1-.09.15-.05.09-.12.2-.17.29-.03.04-.06.1-.09.14-.05.08-.12.2-.17.28-.03.04-.06.1-.08.14-.05.08-.12.2-.17.28-.02.04-.06.1-.08.14-.05.08-.11.19-.16.27-.02.04-.06.09-.08.13-.05.08-.11.19-.16.27-.09.14-.2.34-.29.48-.18.3-.42.71-.6,1.01-.09.16-.22.37-.31.52-.19.32-.45.75-.64,1.07-.1.16-.23.38-.33.55-.2.33-.46.77-.66,1.1-.1.16-.23.38-.33.55-.19.32-.45.75-.64,1.07-.09.16-.22.37-.31.52-.18.3-.42.71-.6,1.01-.09.14-.2.34-.29.48Z"/><path class="cls-4" d="M416.7,1051.21c2.33-3.89,4.66-7.79,6.98-11.68,1.11,1.14,1.96,2.17,2.57,3.11-.42.7-.98,1.64-1.4,2.34-.22.37-.51.86-.73,1.23-.45.76-1.06,1.77-1.52,2.53-.23.39-.54.91-.78,1.3-2.52,4.21-5.04,8.43-7.56,12.64-.61-.93-1.47-1.97-2.57-3.11,1.67-2.79,3.33-5.57,5-8.36Z"/><path class="cls-4" d="M414.57,1063.16c-.09-.16-.19-.32-.3-.49,3.99-6.68,7.99-13.36,11.98-20.04.11.16.21.33.3.49-.28.47-.66,1.1-.94,1.57-.3.5-.7,1.16-.99,1.66-.31.52-.72,1.21-1.03,1.72-.31.53-.73,1.23-1.05,1.75-.31.53-.73,1.23-1.05,1.75-.31.52-.72,1.21-1.03,1.72-.3.5-.7,1.16-.99,1.66-.28.47-.66,1.1-.94,1.57-.14.23-.32.54-.46.77-.15.25-.34.57-.49.82-.15.26-.36.6-.51.85-.16.26-.36.61-.52.87-.16.26-.36.61-.52.87-.15.26-.36.6-.51.85-.15.25-.34.58-.49.82-.14.23-.32.54-.46.77Z"/><path class="cls-4" d="M414.57,1063.16c3.99-6.68,7.99-13.36,11.98-20.04.62,1.06.91,1.99.88,2.8-.42.7-.98,1.64-1.4,2.34-.45.74-1.04,1.74-1.48,2.48-.46.77-1.08,1.8-1.54,2.58-.47.79-1.1,1.84-1.57,2.62-.47.79-1.1,1.84-1.57,2.62-.46.77-1.08,1.8-1.54,2.57-.44.74-1.04,1.74-1.48,2.48-.42.7-.98,1.64-1.4,2.34.03-.81-.26-1.74-.88-2.8Z"/><path class="cls-4" d="M415.07,1067.28c.24-.4.37-.84.39-1.32,3.99-6.68,7.99-13.36,11.98-20.04-.02.48-.15.92-.39,1.32-3.6,6.01-8.39,14.03-11.98,20.04Z"/><path class="cls-4" d="M421.53,1044.11l-11.98,20.04c1.39-2.33-1.53-6.04-14.46-15.23l11.98-20.04c12.93,9.19,15.85,12.9,14.46,15.23Z"/><path class="cls-4" d="M421.53,1044.11l-11.98,20.04s-.05.08-.08.12l11.98-20.04s.05-.08.08-.12Z"/><path class="cls-4" d="M377.42,1019.63l-11.98,20.04c-.24-.29-.8-.82-1.75-1.4l11.98-20.04c.95.58,1.52,1.11,1.75,1.4Z"/><path class="cls-4" d="M363.69,1038.27c-1.42-.85-2.94-1.21-3.23-.78l11.98-20.04c.29-.43,1.8-.07,3.21.77-3.98,6.65-7.95,13.29-11.93,19.94,3.98-6.65,7.95-13.29,11.93-19.94,0,0,.01,0,.02.01-3.6,6.01-8.39,14.03-11.98,20.04Z"/><path class="cls-4" d="M396.13,1035.29l-11.98,20.04c-8.14-5.31-13.93-10.29-18.71-15.66l11.98-20.04c4.78,5.36,10.57,10.34,18.71,15.66Z"/><polygon class="cls-4" points="402.61 1025.7 390.63 1045.73 384.15 1055.33 396.13 1035.29 402.61 1025.7"/><polygon class="cls-4" points="407.07 1028.87 395.09 1048.91 388.8 1058.19 400.78 1038.15 407.07 1028.87"/><path class="cls-4" d="M421.45,1044.23l-11.98,20.04c-1.72,2.56-9.98.3-20.67-6.08l11.98-20.04c10.69,6.38,18.95,8.64,20.67,6.08Z"/><path class="cls-4" d="M421.45,1044.23c-1.72,2.56-9.98.3-20.67-6.08l6.29-9.28c13.16,9.35,15.95,13.03,14.38,15.36Z"/><path class="cls-4" d="M394.87,1036.65l-11.98,20.04c-9.08-5.84-15.91-11.49-21.73-17.78-.61-.65-.89-1.1-.7-1.42l11.98-20.04c-.19.32.1.77.7,1.42,5.82,6.29,12.65,11.94,21.73,17.78Z"/><path class="cls-4" d="M427.05,1047.24l-11.98,20.04s-.06.09-.09.14c-2.4,3.58-13.59.34-26.98-7.59l11.98-20.04c13.39,7.92,24.58,11.16,26.98,7.59.03-.05.06-.09.09-.14Z"/><path class="cls-4" d="M341.39,1034.9c-4.59-5.67-7.3-10.8-8.23-15.12l11.98-20.04c.93,4.32,3.63,9.45,8.23,15.12-.42.7-.98,1.64-1.4,2.34-.45.74-1.04,1.74-1.48,2.48-.46.77-1.08,1.8-1.54,2.58-.47.79-1.1,1.84-1.57,2.62-.47.79-1.1,1.84-1.57,2.62-.46.77-1.08,1.8-1.54,2.58-.45.74-1.04,1.74-1.48,2.48-.42.7-.98,1.64-1.4,2.34Z"/><polygon class="cls-4" points="394.87 1036.65 382.89 1056.69 381.11 1059.36 393.09 1039.32 394.87 1036.65"/><path class="cls-4" d="M381.1,1059.38l11.98-20.04s0-.01.01-.02l-11.98,20.04s0,.01,0,.02Z"/><polygon class="cls-4" points="399.99 1039.8 388 1059.83 386.22 1062.45 398.2 1042.41 399.99 1039.8"/><path class="cls-4" d="M343.85,1037.78c-.87-.97-1.69-1.93-2.45-2.88,3.99-6.68,7.99-13.36,11.98-20.04.77.95,1.58,1.91,2.46,2.88-3.99,6.68-7.99,13.36-11.98,20.04Z"/><path class="cls-4" d="M381.1,1059.38l11.98-20.04c-.27.45.64,1.51,2.01,2.33l-11.98,20.04c-1.37-.83-2.27-1.89-2.01-2.33Z"/><path class="cls-4" d="M398.2,1042.41l-11.98,20.04c-.3.44-1.72.09-3.11-.74l11.98-20.04c1.39.83,2.81,1.18,3.11.74Z"/><path class="cls-4" d="M408.22,1027.15c15.46,10.89,20.98,16.93,18.75,20.23-2.4,3.58-13.59.34-26.98-7.59l-1.79,2.62c-.3.44-1.72.09-3.11-.74-1.38-.84-2.3-1.91-2-2.35l1.78-2.67c-9.08-5.84-15.91-11.49-21.73-17.78-.61-.65-.9-1.1-.7-1.42.29-.43,1.82-.07,3.19.75.99.61,1.56,1.14,1.8,1.42,4.78,5.36,10.57,10.34,18.71,15.66l6.48-9.59c-15.22-10.79-20.59-16.66-18.29-20.01,2.29-3.4,13.4-.32,26.47,7.46l.87-1.27c.29-.43,1.69-.1,3.06.72,1.43.87,2.34,1.94,2.05,2.38l-.91,1.33c7.53,4.85,12.51,9.01,17.35,13.85.81.82,1.2,1.34.99,1.69-.32.47-1.81.07-3.29-.81-.71-.42-1.2-.78-1.81-1.43-4.35-4.48-8.98-8.24-14.51-11.87l-6.37,9.41ZM421.45,1044.23c1.57-2.32-1.22-6-14.38-15.36l-6.29,9.28c10.69,6.38,18.95,8.64,20.67,6.08M403.75,1023.97l6.23-9.17c-10.39-6.2-18.52-8.38-20.15-5.96-1.55,2.29.91,5.77,13.92,15.13"/><g class="cls-9"><path class="cls-6" d="M408.22,1027.15c15.46,10.89,20.98,16.93,18.75,20.23-2.4,3.58-13.59.34-26.98-7.59l-1.79,2.62c-.3.44-1.72.09-3.11-.74-1.38-.84-2.3-1.91-2-2.35l1.78-2.67c-9.08-5.84-15.91-11.49-21.73-17.78-.61-.65-.9-1.1-.7-1.42.29-.43,1.82-.07,3.19.75.99.61,1.56,1.14,1.8,1.42,4.78,5.36,10.57,10.34,18.71,15.66l6.48-9.59c-15.22-10.79-20.59-16.66-18.29-20.01,2.29-3.4,13.4-.32,26.47,7.46l.87-1.27c.29-.43,1.69-.1,3.06.72,1.43.87,2.34,1.94,2.05,2.38l-.91,1.33c7.53,4.85,12.51,9.01,17.35,13.85.81.82,1.2,1.34.99,1.69-.32.47-1.81.07-3.29-.81-.71-.42-1.2-.78-1.81-1.43-4.35-4.48-8.98-8.24-14.51-11.87l-6.37,9.41ZM421.45,1044.23c1.57-2.32-1.22-6-14.38-15.36l-6.29,9.28c10.69,6.38,18.95,8.64,20.67,6.08M403.75,1023.97l6.23-9.17c-10.39-6.2-18.52-8.38-20.15-5.96-1.55,2.29.91,5.77,13.92,15.13"/></g><path class="cls-4" d="M346.62,1040.74c-.98-1-1.9-1.99-2.77-2.96.42-.7.98-1.64,1.4-2.34.22-.37.51-.86.73-1.23.45-.76,1.06-1.77,1.52-2.53.47-.78,1.09-1.82,1.56-2.6.24-.39.55-.92.79-1.31.47-.79,1.1-1.84,1.57-2.62,1.47-2.47,2.95-4.93,4.42-7.4.87.97,1.8,1.96,2.77,2.96-2,3.34-3.99,6.68-5.99,10.02-.47.79-1.1,1.84-1.57,2.62-1.47,2.47-2.95,4.93-4.42,7.4Z"/><path class="cls-4" d="M380.58,1066.43c-14.9-8.91-26.14-17.69-33.95-25.69,4-6.68,7.99-13.36,11.98-20.04,7.82,7.99,19.05,16.77,33.95,25.69,1.17.7,2.37,1.41,3.59,2.11,38.22,22.04,62.15,23.45,67.87,13.88l-11.98,20.04c-5.72,9.57-29.65,8.16-67.87-13.88-1.22-.7-2.42-1.41-3.59-2.11Z"/><path class="cls-4" d="M423.55,1005.03c94.39,56.45,71.35,108.4-26.91,51.75-1.54-.89-3.06-1.78-4.54-2.66-94.39-56.45-71.34-108.41,26.91-51.75,1.54.89,3.06,1.78,4.54,2.66ZM398.55,1052.15c81.54,47.02,100.63,3.89,22.34-42.94-1.23-.74-2.49-1.47-3.77-2.21-.55-.32-1.09-.64-1.63-.93.71.42,1.42.83,2.11,1.25,75.13,44.93,56.79,86.3-21.45,41.17-1.22-.7-2.42-1.41-3.59-2.11-29.8-17.82-44.94-35.13-47.41-46.65,1.4,11.96,17.11,30.75,49.6,50.18,1.25.74,2.51,1.49,3.81,2.24M375.67,1018.23c-1.42-.85-2.94-1.21-3.23-.78-.19.32.1.77.7,1.42,5.82,6.29,12.65,11.94,21.73,17.78l-1.78,2.67c-.3.44.61,1.51,2,2.35,1.39.83,2.81,1.18,3.11.74l1.79-2.62c13.39,7.92,24.58,11.16,26.98,7.59,2.23-3.3-3.29-9.35-18.75-20.23l6.37-9.41c5.52,3.63,10.16,7.39,14.51,11.87.61.65,1.1,1.01,1.75,1.4,1.53.91,3.03,1.31,3.34.84.21-.35-.18-.87-.99-1.69-4.84-4.83-9.82-8.99-17.35-13.85l.91-1.33c.3-.44-.61-1.51-2-2.35-1.42-.85-2.81-1.18-3.1-.75l-.87,1.27c-13.07-7.78-24.17-10.86-26.47-7.46-2.3,3.35,3.07,9.22,18.29,20.01l-6.48,9.59c-8.14-5.31-13.93-10.29-18.71-15.66-.24-.29-.8-.82-1.75-1.4"/><path class="cls-4" d="M420.89,1009.21c78.3,46.83,59.2,89.96-22.34,42.94-1.29-.75-2.56-1.49-3.81-2.24-32.49-19.43-48.2-38.22-49.6-50.18,2.47,11.52,17.61,28.83,47.41,46.65,1.17.7,2.37,1.41,3.59,2.11,78.24,45.12,96.58,3.76,21.45-41.17-.69-.42-1.4-.83-2.11-1.25.53.28,1.08.61,1.63.93,1.28.74,2.53,1.48,3.77,2.21Z"/><g class="cls-9"><path class="cls-6" d="M420.89,1009.21c78.3,46.83,59.2,89.96-22.34,42.94-1.29-.75-2.56-1.49-3.81-2.24-32.49-19.43-48.2-38.22-49.6-50.18,2.47,11.52,17.61,28.83,47.41,46.65,1.17.7,2.37,1.41,3.59,2.11,78.24,45.12,96.58,3.76,21.45-41.17-.69-.42-1.4-.83-2.11-1.25.53.28,1.08.61,1.63.93,1.28.74,2.53,1.48,3.77,2.21Z"/></g><path class="cls-4" d="M481.86,1074.19l-11.98,20.04c-7.19,12.02-37.24,10.25-85.22-17.41-1.54-.89-3.06-1.78-4.54-2.66-48.29-28.88-65.84-56.58-58.31-69.17l11.98-20.04c-7.53,12.59,10.03,40.29,58.31,69.17,1.48.89,3,1.78,4.54,2.66,47.99,27.67,78.04,29.43,85.22,17.41Z"/><g class="cls-9"><path class="cls-6" d="M481.86,1074.19l-11.98,20.04c-7.19,12.02-37.24,10.25-85.22-17.41-1.54-.89-3.06-1.78-4.54-2.66-48.29-28.88-65.84-56.58-58.31-69.17l11.98-20.04c-7.53,12.59,10.03,40.29,58.31,69.17,1.48.89,3,1.78,4.54,2.66,47.99,27.67,78.04,29.43,85.22,17.41Z"/></g></g><g class="cls-12"><path class="cls-4" d="M107,1005.6l-11.19,29.15c5.83-15.2-18.64-42.14-76.91-64.51-1.79-.69-3.61-1.37-5.47-2.05-.8-.29-1.59-.6-2.36-.85l11.19-29.15c.77.25,1.56.55,2.36.85,1.86.68,3.68,1.36,5.47,2.05,58.28,22.37,82.74,49.31,76.91,64.51Z"/><path class="cls-4" d="M99.11,1001.23l-11.19,29.15c5.59-14.58-17.88-40.42-73.79-61.87-1.01-.39-2.04-.78-3.07-1.16l11.19-29.15c1.03.38,2.06.77,3.07,1.16,55.91,21.46,79.38,47.3,73.79,61.87Z"/><path class="cls-4" d="M11.6,976.14s-.04-.01-.06-.02c3.73-9.72,7.46-19.43,11.19-29.15.02,0,.04.02.06.02-3.36,8.75-7.83,20.4-11.19,29.15Z"/><path class="cls-4" d="M11.55,976.12c-2.04-.77-3.92-.88-4.2-.25l11.19-29.15c.29-.63,2.16-.52,4.2.25-.39,1.02-.91,2.38-1.31,3.4-.42,1.08-.97,2.53-1.39,3.61-.43,1.12-1.01,2.62-1.44,3.75-.44,1.14-1.02,2.67-1.46,3.81-.44,1.14-1.02,2.67-1.46,3.81-.43,1.12-1.01,2.62-1.44,3.75-.42,1.08-.97,2.53-1.39,3.61-.39,1.02-.91,2.38-1.31,3.4Z"/><path class="cls-4" d="M25.97,949.61l-11.19,29.15c.25-.65-1.19-1.84-3.18-2.62l11.19-29.15c1.99.78,3.43,1.97,3.18,2.62Z"/><polygon class="cls-4" points="25.96 949.63 14.78 978.78 13.88 980.75 25.07 951.6 25.96 949.63"/><path class="cls-4" d="M25.97,949.61l-11.19,29.15s0,.02,0,.02l11.19-29.15s0-.02,0-.02Z"/><polygon class="cls-4" points="18.53 946.72 7.34 975.87 6.49 977.75 17.67 948.6 18.53 946.72"/><path class="cls-4" d="M6.49,977.75c-6.07-2.32-11.76-4.04-16.78-5.16,3.73-9.72,7.46-19.43,11.19-29.15,5.01,1.12,10.71,2.85,16.78,5.16-3.36,8.75-7.83,20.4-11.19,29.15Z"/><path class="cls-4" d="M-9.64,970.24c3.44-8.95,6.87-17.91,10.31-26.86.07.02.15.03.22.05-.39,1.02-.91,2.38-1.31,3.4-.42,1.08-.97,2.53-1.39,3.61-.43,1.12-1.01,2.62-1.44,3.75-.44,1.14-1.02,2.67-1.46,3.81-.44,1.14-1.02,2.67-1.46,3.81-.43,1.12-1.01,2.62-1.44,3.75-.42,1.08-.97,2.53-1.39,3.61-.39,1.02-.91,2.38-1.31,3.4-.07-.02-.15-.03-.22-.05.29-.76.59-1.53.88-2.29Z"/><path class="cls-4" d="M51.11,965.86l-11.19,29.15c-7.49-5.26-15.01-9.59-26.04-14.26l11.19-29.15c11.03,4.66,18.56,9,26.04,14.26Z"/><path class="cls-4" d="M-10.52,972.53c-5.89-1.3-10.82-1.74-14.3-1.3,3.73-9.72,7.46-19.43,11.19-29.15,3.48-.44,8.41,0,14.3,1.3-.26.69-.62,1.61-.88,2.3-.14.36-.32.84-.46,1.21-.29.75-.67,1.74-.96,2.49-.15.38-.34.89-.49,1.27-.3.77-.69,1.8-.99,2.58-.15.39-.35.9-.5,1.29-.29.77-.69,1.79-.98,2.56-.14.38-.34.88-.48,1.26-.28.73-.66,1.71-.94,2.44-.13.35-.31.82-.45,1.17-.18.46-.41,1.07-.59,1.53-.05.12-.11.29-.16.41-.1.26-.23.6-.33.86-.05.13-.12.31-.17.44-.1.27-.24.63-.35.9-.05.14-.12.32-.18.46-.11.28-.25.65-.35.92-.05.14-.12.32-.18.46-.11.28-.25.65-.36.93-.05.14-.12.32-.18.46-.1.27-.24.63-.35.91-.02.05-.04.1-.06.15-.03.09-.08.21-.11.3-.02.04-.04.1-.06.15-.03.09-.08.2-.11.29-.02.04-.04.1-.06.15-.03.09-.08.2-.11.29-.02.04-.04.1-.05.14-.03.08-.08.2-.11.28-.02.04-.04.1-.05.14-.03.08-.07.19-.1.27-.02.04-.04.09-.05.13Z"/><path class="cls-4" d="M52.8,967.85l-11.19,29.15c.19-.5-.44-1.1-1.69-2l11.19-29.15c1.25.89,1.88,1.49,1.69,2Z"/><path class="cls-4" d="M45.58,966.07l-11.19,29.15c-6.76-4.9-13.72-8.79-21.84-12.3l11.19-29.15c8.11,3.51,15.08,7.4,21.84,12.3Z"/><path class="cls-4" d="M52.8,967.85l-11.19,29.15c-.31.69-2.37.51-4.52-.31-1.03-.4-1.76-.75-2.71-1.47l11.19-29.15c.95.72,1.68,1.07,2.71,1.47,2.15.82,4.21,1,4.52.31Z"/><path class="cls-4" d="M-22.19,977.08l11.19-29.15c.03-.07.05-.13.08-.19,1.59-3.56,12.81-2.56,27.91,3.22l-11.19,29.15c-15.11-5.78-26.32-6.78-27.91-3.22-.03.06-.06.13-.08.19Z"/><path class="cls-4" d="M-22.19,977.08l11.19-29.15c-1.28,3.33,2.98,7.38,21.9,16.54l-11.19,29.15c-18.92-9.16-23.18-13.21-21.9-16.54Z"/><polygon class="cls-4" points="17 950.96 5.81 980.11 -.29 993.62 10.9 964.47 17 950.96"/><path class="cls-4" d="M17,950.96l-6.1,13.52c-19.29-9.34-23.34-13.37-21.82-16.74,1.59-3.56,12.81-2.56,27.91,3.22Z"/><polygon class="cls-4" points="23.74 953.77 12.55 982.92 6.32 996.78 17.51 967.63 23.74 953.77"/><path class="cls-4" d="M-30.19,974.24l11.19-29.15c-1.88,4.91,6.62,11.37,28.79,21.92l-11.19,29.15c-22.17-10.55-30.68-17.01-28.79-21.92Z"/><path class="cls-4" d="M28.99,1009.15c-4.84-3.42-12.29-7.48-22.67-12.37l11.19-29.15c10.38,4.9,17.83,8.95,22.67,12.37-.39,1.02-.91,2.38-1.31,3.4-.42,1.08-.97,2.53-1.39,3.61-.43,1.12-1.01,2.62-1.44,3.75-.44,1.14-1.02,2.67-1.46,3.81-1.87,4.86-3.73,9.72-5.59,14.57Z"/><path class="cls-4" d="M29.54,1009.55c-.18-.13-.36-.26-.55-.4,3.73-9.72,7.46-19.43,11.19-29.15.19.13.37.26.55.4-.18.47-.42,1.1-.6,1.58-.09.25-.22.57-.31.82-.19.51-.45,1.18-.65,1.69-.1.26-.23.61-.33.86-.2.53-.47,1.23-.67,1.76-.1.27-.24.62-.34.89-.2.53-.48,1.25-.68,1.78-.1.27-.24.62-.34.89-.2.53-.47,1.23-.67,1.76-.1.26-.23.61-.33.87-.12.32-.29.75-.41,1.06-.02.06-.06.15-.08.21-.05.13-.11.29-.16.42-.02.06-.06.15-.08.21-.05.12-.11.29-.16.41-.02.06-.05.14-.08.2-.05.12-.11.28-.16.41-.02.06-.05.14-.08.2-.05.12-.11.28-.15.4-.02.06-.05.14-.08.2-.04.12-.1.27-.15.39-.08.21-.19.49-.27.7-.17.44-.39,1.03-.56,1.47-.09.23-.2.53-.29.76-.18.47-.42,1.09-.6,1.56-.09.24-.21.56-.3.79-.18.48-.43,1.12-.61,1.6-.09.24-.21.56-.3.79-.18.47-.42,1.09-.6,1.56-.09.23-.2.53-.29.76-.17.44-.39,1.03-.56,1.47-.08.21-.19.49-.27.7Z"/><path class="cls-4" d="M34.21,997.39c2.17-5.66,4.35-11.33,6.52-16.99,1.72,1.25,3.08,2.41,4.1,3.5-.39,1.02-.91,2.38-1.31,3.4-.21.54-.48,1.25-.68,1.78-.42,1.11-.99,2.58-1.41,3.69-.22.57-.51,1.32-.72,1.89-2.35,6.13-4.71,12.26-7.06,18.39-1.02-1.09-2.38-2.25-4.1-3.5,1.56-4.05,3.11-8.11,4.67-12.16Z"/><path class="cls-4" d="M34.15,1013.62c-.16-.19-.33-.38-.51-.57,3.73-9.72,7.46-19.43,11.19-29.15.18.19.35.38.51.57-.26.68-.61,1.59-.87,2.28-.28.72-.65,1.69-.93,2.41-.29.75-.67,1.75-.96,2.51-.29.77-.69,1.79-.98,2.55-.29.77-.69,1.79-.98,2.55-.29.75-.67,1.75-.96,2.51-.28.72-.65,1.69-.93,2.42-.26.68-.61,1.59-.87,2.28-.13.34-.3.79-.43,1.13-.14.36-.32.84-.46,1.19-.14.37-.33.87-.48,1.24-.15.38-.34.88-.48,1.26-.15.38-.34.88-.48,1.26-.14.37-.33.87-.48,1.24-.14.36-.32.84-.46,1.19-.13.34-.3.79-.43,1.13Z"/><path class="cls-4" d="M34.15,1013.62c3.73-9.72,7.46-19.43,11.19-29.15,1.07,1.26,1.66,2.42,1.81,3.49-.39,1.02-.91,2.38-1.31,3.4-.42,1.08-.97,2.53-1.39,3.61-.43,1.12-1.01,2.62-1.44,3.75-.44,1.14-1.02,2.67-1.46,3.81-.44,1.14-1.02,2.67-1.46,3.81-.43,1.12-1.01,2.62-1.44,3.75-.42,1.08-.97,2.53-1.39,3.61-.39,1.02-.91,2.38-1.31,3.4-.15-1.07-.74-2.23-1.81-3.49Z"/><path class="cls-4" d="M35.75,1018.93c.22-.58.29-1.19.21-1.82,3.73-9.72,7.46-19.43,11.19-29.15.09.64.02,1.24-.21,1.82-3.36,8.75-7.83,20.4-11.19,29.15Z"/><path class="cls-4" d="M38.95,986.92l-11.19,29.15c1.3-3.39-3.4-7.61-22.55-16.75l11.19-29.15c19.14,9.14,23.85,13.36,22.55,16.75Z"/><path class="cls-4" d="M38.95,986.92l-11.19,29.15c-.02.06-.05.12-.08.18l11.19-29.15c.03-.06.05-.12.08-.18Z"/><path class="cls-4" d="M3.46,981.13l-11.19,29.15c-11.95-5.13-20.72-10.36-28.25-16.33l11.19-29.15c7.53,5.97,16.3,11.2,28.25,16.33Z"/><polygon class="cls-4" points="9.79 967.01 -1.4 996.16 -7.73 1010.28 3.46 981.13 9.79 967.01"/><polygon class="cls-4" points="16.4 970.17 5.21 999.32 -.94 1012.99 10.24 983.84 16.4 970.17"/><path class="cls-4" d="M38.87,987.1l-11.19,29.15c-1.67,3.77-13.08,2.69-28.63-3.26l11.19-29.15c15.54,5.95,26.95,7.03,28.63,3.26Z"/><path class="cls-4" d="M38.87,987.1c-1.67,3.77-13.08,2.69-28.63-3.26l6.16-13.67c19.49,9.3,24.01,13.51,22.47,16.93Z"/><path class="cls-4" d="M2.11,983.22l-11.19,29.15c-13.31-5.61-23.6-11.49-32.72-18.43-.95-.72-1.43-1.25-1.25-1.71l11.19-29.15c-.18.46.3.99,1.25,1.71,9.11,6.95,19.41,12.82,32.72,18.43Z"/><path class="cls-4" d="M46.94,989.78l-11.19,29.15c-.03.07-.05.13-.08.2-2.34,5.26-17.83,3.57-37.29-3.8l11.19-29.15c19.46,7.36,34.95,9.06,37.29,3.8.03-.07.06-.13.08-.2Z"/><polygon class="cls-4" points="2.11 983.22 -9.08 1012.37 -10.81 1016.29 .38 987.14 2.11 983.22"/><path class="cls-4" d="M-10.82,1016.32l11.19-29.15s0-.02,0-.02l-11.19,29.15s0,.02,0,.02Z"/><polygon class="cls-4" points="9.57 986.19 -1.62 1015.33 -3.37 1019.19 7.82 990.04 9.57 986.19"/><path class="cls-4" d="M-10.82,1016.32l11.19-29.15c-.25.65,1.19,1.84,3.18,2.62l-11.19,29.15c-1.99-.78-3.43-1.97-3.18-2.62Z"/><path class="cls-4" d="M7.82,990.04l-11.19,29.15c-.29.64-2.24.52-4.27-.26l11.19-29.15c2.02.78,3.97.9,4.27.26Z"/><path class="cls-4" d="M17.51,967.63c22.87,10.79,31.53,17.49,29.35,22.35-2.34,5.26-17.83,3.57-37.29-3.8l-1.75,3.86c-.29.64-2.24.52-4.27-.26-2.02-.79-3.46-2-3.17-2.64l1.73-3.92c-13.31-5.61-23.61-11.49-32.72-18.43-.95-.72-1.43-1.25-1.25-1.71.29-.64,2.38-.51,4.37.26,1.45.57,2.32,1.14,2.7,1.46,7.53,5.97,16.3,11.2,28.25,16.33l6.33-14.12c-22.53-10.72-30.95-17.22-28.69-22.16,2.24-5,17.58-3.5,36.58,3.75l.86-1.88c.29-.64,2.2-.52,4.19.25,2.09.82,3.53,2.02,3.24,2.67l-.89,1.97c11.03,4.66,18.56,9,26.04,14.26,1.25.89,1.88,1.49,1.69,2-.31.69-2.37.51-4.52-.31-1.03-.39-1.76-.75-2.71-1.47-6.76-4.9-13.72-8.79-21.84-12.3l-6.23,13.87ZM38.87,987.1c1.54-3.42-2.98-7.63-22.47-16.93l-6.16,13.67c15.54,5.95,26.95,7.03,28.63,3.26M10.9,964.47l6.1-13.52c-15.11-5.78-26.32-6.78-27.91-3.22-1.52,3.37,2.53,7.4,21.82,16.74"/><g class="cls-9"><path class="cls-6" d="M17.51,967.63c22.87,10.79,31.53,17.49,29.35,22.35-2.34,5.26-17.83,3.57-37.29-3.8l-1.75,3.86c-.29.64-2.24.52-4.27-.26-2.02-.79-3.46-2-3.17-2.64l1.73-3.92c-13.31-5.61-23.61-11.49-32.72-18.43-.95-.72-1.43-1.25-1.25-1.71.29-.64,2.38-.51,4.37.26,1.45.57,2.32,1.14,2.7,1.46,7.53,5.97,16.3,11.2,28.25,16.33l6.33-14.12c-22.53-10.72-30.95-17.22-28.69-22.16,2.24-5,17.58-3.5,36.58,3.75l.86-1.88c.29-.64,2.2-.52,4.19.25,2.09.82,3.53,2.02,3.24,2.67l-.89,1.97c11.03,4.66,18.56,9,26.04,14.26,1.25.89,1.88,1.49,1.69,2-.31.69-2.37.51-4.52-.31-1.03-.39-1.76-.75-2.71-1.47-6.76-4.9-13.72-8.79-21.84-12.3l-6.23,13.87ZM38.87,987.1c1.54-3.42-2.98-7.63-22.47-16.93l-6.16,13.67c15.54,5.95,26.95,7.03,28.63,3.26M10.9,964.47l6.1-13.52c-15.11-5.78-26.32-6.78-27.91-3.22-1.52,3.37,2.53,7.4,21.82,16.74"/></g><path class="cls-4" d="M-9.89,1025.73c-21.68-8.32-38.5-17.31-50.63-26.05,3.73-9.72,7.46-19.43,11.19-29.15,12.14,8.74,28.95,17.73,50.63,26.05,1.71.66,3.45,1.31,5.22,1.95,55.41,20.26,87.26,16.62,92.6,2.7l-11.19,29.15c-5.34,13.92-37.19,17.56-92.6-2.7-1.77-.65-3.51-1.3-5.22-1.95Z"/><path class="cls-4" d="M32.63,934.97c137.32,52.7,118.88,126.43-23.57,74.36-2.23-.82-4.44-1.64-6.59-2.47-137.32-52.7-118.88-126.45,23.57-74.36,2.23.82,4.44,1.64,6.59,2.47ZM10.52,1002.79c118.22,43.23,133.48-17.98,19.57-61.7-1.79-.69-3.61-1.37-5.47-2.05-.8-.29-1.59-.6-2.36-.85,1.03.38,2.06.77,3.07,1.16,109.3,41.94,94.63,100.66-18.81,59.17-1.77-.65-3.51-1.3-5.22-1.95-43.36-16.64-67.27-35.96-73.17-50.57,4.59,15.44,29.6,36.58,76.86,54.72,1.81.7,3.65,1.38,5.53,2.07M-27.42,963.36c-2.06-.79-4.15-.92-4.44-.28-.18.46.3.99,1.25,1.71,9.11,6.95,19.41,12.82,32.72,18.43l-1.73,3.92c-.29.64,1.15,1.85,3.17,2.64,2.02.78,3.97.9,4.27.26l1.75-3.86c19.46,7.36,34.95,9.06,37.29,3.8,2.18-4.86-6.48-11.56-29.35-22.35l6.23-13.87c8.11,3.51,15.08,7.4,21.84,12.3.95.72,1.68,1.07,2.63,1.44,2.22.85,4.29,1.03,4.6.34.19-.5-.44-1.1-1.69-2-7.49-5.26-15.01-9.59-26.04-14.26l.89-1.97c.29-.64-1.15-1.85-3.17-2.64-2.06-.79-3.97-.91-4.26-.27l-.86,1.88c-19-7.25-34.34-8.75-36.58-3.75-2.26,4.94,6.16,11.44,28.69,22.16l-6.33,14.12c-11.95-5.13-20.72-10.36-28.25-16.33-.38-.32-1.25-.89-2.63-1.44"/><path class="cls-4" d="M30.09,941.09c113.91,43.72,98.65,104.92-19.57,61.7-1.88-.69-3.72-1.38-5.53-2.07-47.26-18.14-72.27-39.28-76.86-54.72,5.9,14.61,29.81,33.94,73.17,50.57,1.71.66,3.45,1.31,5.22,1.95,113.45,41.49,128.11-17.23,18.81-59.17-1.01-.39-2.04-.78-3.07-1.16.77.25,1.56.55,2.36.85,1.86.68,3.68,1.36,5.47,2.05Z"/><g class="cls-9"><path class="cls-6" d="M30.09,941.09c113.91,43.72,98.65,104.92-19.57,61.7-1.88-.69-3.72-1.38-5.53-2.07-47.26-18.14-72.27-39.28-76.86-54.72,5.9,14.61,29.81,33.94,73.17,50.57,1.71.66,3.45,1.31,5.22,1.95,113.45,41.49,128.11-17.23,18.81-59.17-1.01-.39-2.04-.78-3.07-1.16.77.25,1.56.55,2.36.85,1.86.68,3.68,1.36,5.47,2.05Z"/></g><path class="cls-4" d="M125.34,1012.7l-11.19,29.15c-6.71,17.48-46.7,22.06-116.28-3.38-2.23-.82-4.44-1.64-6.59-2.47-70.25-26.96-99.74-59.43-92.71-77.74l11.19-29.15c-7.03,18.31,22.46,50.78,92.71,77.74,2.15.83,4.36,1.65,6.59,2.47,69.58,25.44,109.57,20.86,116.28,3.38Z"/><g class="cls-9"><path class="cls-6" d="M125.34,1012.7l-11.19,29.15c-6.71,17.48-46.7,22.06-116.28-3.38-2.23-.82-4.44-1.64-6.59-2.47-70.25-26.96-99.74-59.43-92.71-77.74l11.19-29.15c-7.03,18.31,22.46,50.78,92.71,77.74,2.15.83,4.36,1.65,6.59,2.47,69.58,25.44,109.57,20.86,116.28,3.38Z"/></g></g><g class="cls-12"><path class="cls-4" d="M631.72,865.07l3.52,29.33c-1.83-15.29-34.21-27.03-92.86-20-1.81.22-3.63.45-5.48.7-.8.11-1.59.2-2.35.33l-3.52-29.33c.75-.13,1.55-.23,2.35-.33,1.85-.25,3.68-.49,5.48-.7,58.65-7.03,91.02,4.71,92.86,20Z"/><path class="cls-4" d="M623.2,864.9l3.52,29.33c-1.76-14.67-32.82-25.92-89.08-19.18-1.02.12-2.05.25-3.08.38l-3.52-29.33c1.03-.13,2.07-.26,3.08-.38,56.26-6.75,87.32,4.51,89.08,19.18Z"/><path class="cls-4" d="M538.88,882.56s-.04,0-.06,0c-1.17-9.78-2.34-19.56-3.52-29.33.02,0,.04,0,.06,0,1.06,8.8,2.46,20.53,3.52,29.33Z"/><path class="cls-4" d="M538.82,882.57c-2.05.26-3.67.99-3.63,1.65l-3.52-29.33c-.04-.65,1.58-1.39,3.63-1.65.12,1.03.29,2.4.41,3.43.13,1.09.3,2.54.44,3.63.14,1.13.32,2.64.45,3.77.14,1.15.32,2.69.46,3.84.14,1.15.32,2.69.46,3.84.14,1.13.32,2.64.45,3.77.13,1.09.3,2.54.44,3.63.12,1.03.29,2.4.41,3.43Z"/><path class="cls-4" d="M539.18,854.01l3.52,29.33c-.08-.65-1.81-1.01-3.82-.78l-3.52-29.33c2.01-.23,3.74.13,3.82.78Z"/><polygon class="cls-4" points="539.19 854.03 542.7 883.37 542.83 885.41 539.31 856.07 539.19 854.03"/><path class="cls-4" d="M539.18,854.01l3.52,29.33s0,.02,0,.02l-3.52-29.33s0-.02,0-.02Z"/><polygon class="cls-4" points="531.68 854.88 535.2 884.21 535.31 886.16 531.79 856.83 531.68 854.88"/><path class="cls-4" d="M535.31,886.16c-6.1.74-11.63,1.81-16.32,3.09-1.17-9.78-2.34-19.56-3.52-29.33,4.69-1.28,10.22-2.35,16.32-3.09,1.06,8.8,2.46,20.53,3.52,29.33Z"/><path class="cls-4" d="M518.5,887.01c-1.08-9.01-2.16-18.02-3.24-27.03.07-.02.14-.04.21-.06.12,1.03.29,2.4.41,3.43.13,1.09.31,2.54.44,3.63.14,1.13.32,2.64.45,3.77.14,1.15.32,2.69.46,3.84.14,1.15.32,2.69.46,3.84.14,1.13.32,2.64.45,3.77.13,1.09.3,2.54.44,3.63.12,1.03.29,2.4.41,3.43-.07.02-.14.04-.21.06-.09-.77-.18-1.54-.28-2.31Z"/><path class="cls-4" d="M567.4,856.5l3.52,29.33c-8.59-1.09-16.8-1.4-28.09-.43l-3.52-29.33c11.29-.97,19.5-.66,28.09.43Z"/><path class="cls-4" d="M518.78,889.31c-5.5,1.52-9.83,3.32-12.54,5.23-1.17-9.78-2.34-19.56-3.52-29.33,2.71-1.91,7.04-3.71,12.54-5.23.08.69.19,1.62.28,2.32.04.36.1.85.15,1.21.09.75.21,1.75.3,2.51.05.38.11.9.15,1.28.09.78.22,1.82.31,2.59.05.39.11.91.16,1.3.09.77.22,1.8.31,2.58.05.38.11.89.15,1.26.09.74.21,1.72.29,2.46.04.35.1.82.14,1.18.06.46.13,1.08.19,1.54.01.13.04.29.05.42.03.26.07.61.1.86.02.13.04.31.05.44.03.27.08.63.11.91.02.14.04.32.06.46.03.28.08.65.11.93.02.14.04.33.06.47.03.28.08.65.11.93.02.14.04.32.06.46.03.27.08.64.11.91,0,.05.01.11.02.15.01.09.03.21.04.3,0,.04.01.1.02.15.01.09.02.21.04.3,0,.04.01.1.02.15.01.09.02.2.03.29,0,.04.01.1.02.14.01.09.02.2.03.28,0,.04.01.1.02.14,0,.08.02.19.03.27,0,.04.01.1.02.14Z"/><path class="cls-4" d="M506.11,894c-1.15-9.58-2.3-19.17-3.45-28.75.02-.01.04-.03.06-.04,1.17,9.78,2.34,19.56,3.52,29.33-.02.01-.04.03-.06.04-.02-.2-.05-.39-.07-.59Z"/><path class="cls-4" d="M569.7,857.42l3.52,29.33c-.06-.51-.86-.73-2.3-.92l-3.52-29.33c1.44.2,2.23.42,2.3.92Z"/><path class="cls-4" d="M562.86,859.12l3.52,29.33c-7.82-1.12-15.37-1.29-23.71-.65l-3.52-29.33c8.34-.64,15.89-.47,23.71.65Z"/><path class="cls-4" d="M506.18,894.59c-.73.51-1.33,1.04-1.82,1.56-1.17-9.78-2.34-19.56-3.52-29.34.48-.53,1.09-1.05,1.81-1.56.04.3.09.71.12,1.02.02.16.04.37.06.53.04.33.09.77.13,1.1.02.17.05.39.07.56.04.34.1.8.14,1.14.02.17.05.4.07.57.04.34.09.79.14,1.13.02.17.05.39.07.55.48,4.03.96,8.05,1.45,12.08.09.79.22,1.83.31,2.62.05.39.11.91.16,1.3.09.76.21,1.78.3,2.55.04.37.1.87.15,1.24.09.71.2,1.66.28,2.37,0,.01,0,.03,0,.04,0,.02,0,.05,0,.07,0,.01,0,.03,0,.04,0,.02,0,.05,0,.07,0,.01,0,.03,0,.04,0,.02,0,.05,0,.07,0,.01,0,.03,0,.04,0,.02,0,.05,0,.07,0,.01,0,.03,0,.04,0,.02,0,.05,0,.07,0,.01,0,.03,0,.04Z"/><path class="cls-4" d="M569.7,857.42l3.52,29.33c.05.71-1.76,1.48-3.92,1.74-1.03.12-1.8.15-2.91-.03l-3.52-29.33c1.11.18,1.88.16,2.91.03,2.16-.26,3.97-1.02,3.92-1.73Z"/><path class="cls-4" d="M504.36,896.15c-.15.16-.28.32-.41.48-1.17-9.78-2.34-19.56-3.52-29.33.12-.16.26-.32.41-.48.12,1.03.29,2.4.41,3.43.13,1.09.3,2.54.44,3.63.14,1.13.32,2.64.45,3.77.14,1.15.32,2.69.46,3.84.59,4.89,1.17,9.78,1.76,14.67Z"/><path class="cls-4" d="M511.02,898.27l-3.52-29.33c0-.07-.01-.13-.02-.2-.24-3.69,9.59-7.8,24.78-9.64l3.52,29.33c-15.2,1.83-25.02,5.95-24.78,9.64,0,.07,0,.13.02.2Z"/><path class="cls-4" d="M503.04,899.19c0,.08.01.16.02.24l-3.52-29.33c0-.08-.02-.16-.02-.24-.06-.85.26-1.7.91-2.55.12,1.03.29,2.4.41,3.43.13,1.09.3,2.54.44,3.63.14,1.13.32,2.64.45,3.77.14,1.15.32,2.69.46,3.84.14,1.15.32,2.69.46,3.84.14,1.13.32,2.64.45,3.77.13,1.09.3,2.54.44,3.63.12,1.03.29,2.4.41,3.43-.65.85-.97,1.71-.91,2.55Z"/><path class="cls-4" d="M511.02,898.27l-3.52-29.33c.4,3.35,5.75,4.86,25.63,4.17l3.52,29.33c-19.88.69-25.23-.82-25.63-4.17Z"/><polygon class="cls-4" points="532.27 859.1 535.78 888.44 536.65 902.44 533.14 873.11 532.27 859.1"/><path class="cls-4" d="M532.27,859.1l.87,14c-20.27.7-25.43-.88-25.65-4.37-.24-3.69,9.59-7.8,24.78-9.64Z"/><polygon class="cls-4" points="539.15 858.48 542.67 887.81 543.58 902.16 540.06 872.83 539.15 858.48"/><path class="cls-4" d="M503.07,899.43l-3.52-29.33c.59,4.94,10.57,6.59,33.78,5.62l3.52,29.33c-23.21.97-33.19-.68-33.78-5.62Z"/><path class="cls-4" d="M568.02,902.5c-5.56-.72-13.59-.83-24.43-.34l-3.52-29.33c10.85-.49,18.87-.39,24.44.34.12,1.03.29,2.4.41,3.43.13,1.09.3,2.54.43,3.63.14,1.13.32,2.64.45,3.77.14,1.15.32,2.69.46,3.84.59,4.89,1.17,9.78,1.76,14.67Z"/><path class="cls-4" d="M568.65,902.59c-.21-.03-.42-.06-.64-.09-1.17-9.78-2.34-19.56-3.52-29.33.22.03.43.06.64.09.06.48.13,1.11.19,1.59.03.25.07.58.1.82.06.51.14,1.19.2,1.7.03.26.07.61.1.87.06.53.15,1.24.21,1.77.03.27.08.63.11.89.06.54.15,1.25.21,1.79.03.27.07.63.11.89.06.53.15,1.24.21,1.77.03.26.07.61.1.87.04.32.09.75.13,1.07,0,.06.02.15.03.21.02.13.04.29.05.42,0,.06.02.15.03.21.01.12.03.29.05.42,0,.06.02.14.02.21.01.12.03.29.05.41,0,.06.02.14.02.2.01.12.03.28.05.4,0,.06.02.14.02.2.01.12.03.27.05.39.03.21.06.49.08.7.05.44.12,1.03.18,1.48.03.23.06.54.09.77.06.47.13,1.1.19,1.57.03.24.07.56.1.8.06.48.14,1.12.19,1.61.03.24.07.56.1.8.06.47.13,1.1.19,1.57.03.23.06.54.09.77.05.44.12,1.03.18,1.48.03.21.06.49.08.7Z"/><path class="cls-4" d="M567.19,890.35c-.68-5.7-1.37-11.4-2.05-17.1,1.99.29,3.65.66,4.98,1.12.12,1.03.29,2.4.41,3.43.06.54.15,1.26.21,1.79.13,1.11.31,2.6.44,3.71.07.57.16,1.33.23,1.9.74,6.17,1.48,12.34,2.22,18.51-1.34-.46-2.99-.83-4.98-1.12-.49-4.08-.98-8.16-1.47-12.24Z"/><path class="cls-4" d="M574.31,903.96c-.22-.09-.44-.17-.68-.25-1.17-9.78-2.34-19.56-3.52-29.33.24.08.46.17.68.25.08.69.19,1.6.28,2.29.09.73.2,1.7.29,2.43.09.76.21,1.77.3,2.52.09.77.22,1.8.31,2.57.09.77.22,1.8.31,2.57.09.76.21,1.77.3,2.52.09.73.2,1.7.29,2.43.08.69.19,1.6.27,2.29.04.34.09.79.14,1.13.04.36.1.84.14,1.2.04.37.1.87.15,1.25.05.38.11.89.15,1.27.05.38.11.89.15,1.27.05.37.1.87.15,1.25.04.36.1.84.14,1.2.04.34.1.79.14,1.13Z"/><path class="cls-4" d="M574.31,903.96c-1.17-9.78-2.34-19.56-3.52-29.33,1.45.58,2.46,1.29,3.05,2.12.12,1.03.29,2.4.41,3.43.13,1.09.3,2.54.44,3.63.14,1.13.32,2.64.45,3.77.14,1.15.32,2.69.46,3.84.14,1.15.32,2.69.46,3.84.14,1.13.32,2.64.45,3.77.13,1.09.31,2.54.44,3.63.12,1.03.29,2.4.41,3.43-.6-.83-1.6-1.54-3.05-2.12Z"/><path class="cls-4" d="M578,907.7c-.07-.58-.28-1.12-.63-1.62-1.17-9.78-2.34-19.56-3.52-29.33.35.49.56,1.03.63,1.62,1.06,8.8,2.46,20.53,3.52,29.33Z"/><path class="cls-4" d="M566.52,879.5l3.52,29.33c-.41-3.41-6.21-4.87-26.27-4.05l-3.52-29.33c20.06-.81,25.86.64,26.27,4.05Z"/><path class="cls-4" d="M566.52,879.5l3.52,29.33c0,.06.01.12.02.18l-3.52-29.33c0-.06,0-.12-.02-.18Z"/><path class="cls-4" d="M503.42,889.15l3.52,29.33c-.46-.1-1.44-.2-2.84-.04l-3.52-29.33c1.4-.15,2.38-.06,2.84.04Z"/><path class="cls-4" d="M504.1,918.44c-2.08.25-3.88,1.07-3.84,1.72l-3.52-29.33c-.04-.66,1.75-1.47,3.81-1.72,1.17,9.73,2.33,19.46,3.5,29.19-1.17-9.73-2.33-19.46-3.5-29.19,0,0,.02,0,.03,0,1.05,8.8,2.46,20.53,3.52,29.33Z"/><path class="cls-4" d="M534.27,890.33l3.52,29.33c-12.26.98-21.91.48-30.85-1.19l-3.52-29.33c8.94,1.67,18.59,2.17,30.85,1.19Z"/><polygon class="cls-4" points="533.33 875.72 536.85 905.05 537.79 919.67 534.27 890.33 533.33 875.72"/><polygon class="cls-4" points="540.26 875.44 543.77 904.78 544.66 918.94 541.14 889.6 540.26 875.44"/><path class="cls-4" d="M566.54,879.68l3.52,29.33c.26,3.89-9.76,8.03-25.39,9.92l-3.52-29.33c15.64-1.89,25.66-6.03,25.39-9.92Z"/><path class="cls-4" d="M566.54,879.68c.26,3.89-9.76,8.03-25.39,9.92l-.89-14.16c20.42-.83,26.06.7,26.28,4.24Z"/><path class="cls-4" d="M534.07,892.68l3.52,29.33c-13.62,1.18-24.83.82-35.52-.97-1.11-.18-1.75-.41-1.8-.88l-3.52-29.33c.06.47.69.69,1.8.88,10.69,1.79,21.91,2.16,35.52.97Z"/><path class="cls-4" d="M574.48,878.36l3.52,29.33c0,.07.01.14.02.21.37,5.44-13.35,10.86-32.88,13.29l-3.52-29.33c19.54-2.43,33.25-7.86,32.88-13.29,0-.07-.01-.14-.02-.21Z"/><path class="cls-4" d="M479.18,932.32c-8.99-2.12-15.67-5.16-19.95-8.77l-3.52-29.33c4.27,3.61,10.96,6.65,19.95,8.77.12,1.03.29,2.4.41,3.43.13,1.09.3,2.54.44,3.63.14,1.13.32,2.64.45,3.77.14,1.15.32,2.69.46,3.84.14,1.15.32,2.69.46,3.84.14,1.13.32,2.64.45,3.77.13,1.09.3,2.54.44,3.63.12,1.03.29,2.4.41,3.43Z"/><polygon class="cls-4" points="534.07 892.68 537.58 922.01 537.87 926.06 534.35 896.73 534.07 892.68"/><path class="cls-4" d="M537.87,926.08l-3.52-29.33s0-.02,0-.02l3.52,29.33s0,.02,0,.02Z"/><polygon class="cls-4" points="541.62 891.86 545.13 921.2 545.37 925.2 541.85 895.87 541.62 891.86"/><path class="cls-4" d="M483.86,933.3c-1.62-.3-3.19-.63-4.68-.98-1.17-9.78-2.34-19.56-3.52-29.33,1.5.35,3.06.68,4.69.98,1.17,9.78,2.34,19.56,3.51,29.33Z"/><path class="cls-4" d="M537.87,926.08l-3.52-29.33c.08.65,1.81,1.01,3.82.78l3.52,29.33c-2.01.23-3.74-.13-3.82-.78Z"/><path class="cls-4" d="M541.85,895.87l3.52,29.33c.04.67-1.65,1.42-3.68,1.67l-3.52-29.33c2.03-.24,3.72-1,3.68-1.67Z"/><path class="cls-4" d="M540.06,872.83c23.91-1.07,34.11.71,34.43,5.74.37,5.44-13.35,10.86-32.88,13.29l.24,4c.04.67-1.65,1.42-3.68,1.67-2.04.23-3.78-.14-3.82-.81l-.28-4.05c-13.62,1.18-24.83.82-35.52-.97-1.11-.18-1.75-.41-1.8-.88-.04-.66,1.76-1.48,3.77-1.72,1.46-.16,2.45-.07,2.9.03,8.94,1.67,18.59,2.17,30.85,1.19l-.94-14.61c-23.59.98-33.51-.74-33.8-5.87-.34-5.18,13.16-10.69,32.27-13.02l-.11-1.95c-.04-.66,1.61-1.41,3.62-1.65,2.11-.24,3.85.13,3.89.8l.12,2.04c11.29-.97,19.5-.66,28.09.43,1.44.2,2.23.42,2.3.92.05.71-1.76,1.48-3.92,1.73-1.03.12-1.8.15-2.91-.03-7.82-1.12-15.37-1.29-23.71-.65l.91,14.35ZM566.54,879.68c-.22-3.54-5.87-5.07-26.28-4.24l.89,14.16c15.64-1.89,25.66-6.03,25.39-9.92M533.14,873.11l-.87-14c-15.2,1.83-25.02,5.95-24.78,9.64.22,3.49,5.38,5.07,25.65,4.37"/><g class="cls-9"><path class="cls-6" d="M540.06,872.83c23.91-1.07,34.11.71,34.43,5.74.37,5.44-13.35,10.86-32.88,13.29l.24,4c.04.67-1.65,1.42-3.68,1.67-2.04.23-3.78-.14-3.82-.81l-.28-4.05c-13.62,1.18-24.83.82-35.52-.97-1.11-.18-1.75-.41-1.8-.88-.04-.66,1.76-1.48,3.77-1.72,1.46-.16,2.45-.07,2.9.03,8.94,1.67,18.59,2.17,30.85,1.19l-.94-14.61c-23.59.98-33.51-.74-33.8-5.87-.34-5.18,13.16-10.69,32.27-13.02l-.11-1.95c-.04-.66,1.61-1.41,3.62-1.65,2.11-.24,3.85.13,3.89.8l.12,2.04c11.29-.97,19.5-.66,28.09.43,1.44.2,2.23.42,2.3.92.05.71-1.76,1.48-3.92,1.73-1.03.12-1.8.15-2.91-.03-7.82-1.12-15.37-1.29-23.71-.65l.91,14.35ZM566.54,879.68c-.22-3.54-5.87-5.07-26.28-4.24l.89,14.16c15.64-1.89,25.66-6.03,25.39-9.92M533.14,873.11l-.87-14c-15.2,1.83-25.02,5.95-24.78,9.64.22,3.49,5.38,5.07,25.65,4.37"/></g><path class="cls-4" d="M488.93,934.12c-1.75-.24-3.44-.52-5.07-.82-.12-1.03-.29-2.4-.41-3.43-.06-.54-.15-1.26-.22-1.8-.13-1.11-.31-2.6-.44-3.71-.14-1.14-.32-2.67-.46-3.81-.07-.58-.16-1.35-.23-1.92-.14-1.15-.32-2.69-.46-3.84-.43-3.61-.87-7.22-1.3-10.83,1.63.3,3.32.57,5.07.82.59,4.89,1.17,9.78,1.76,14.67.14,1.15.32,2.69.46,3.84.43,3.61.86,7.22,1.3,10.83Z"/><path class="cls-4" d="M542.8,933.55c-21.82,2.61-39.86,2.52-53.87.57-1.17-9.78-2.34-19.56-3.51-29.33,14.01,1.95,32.06,2.04,53.87-.57,1.72-.21,3.46-.43,5.23-.67,55.32-7.52,80.36-24.64,78.68-38.65l3.52,29.33c1.68,14.01-23.36,31.12-78.68,38.65-1.77.24-3.51.46-5.23.67Z"/><path class="cls-4" d="M538.28,838.82c138.19-16.57,155.34,53.28,13.13,72.63-2.23.3-4.44.59-6.6.85-138.19,16.57-155.34-53.29-13.13-72.63,2.23-.3,4.44-.59,6.61-.85ZM549.75,905.34c118.02-16.05,103.75-74.01-10.88-60.27-1.81.22-3.63.45-5.48.7-.8.11-1.59.2-2.35.33,1.03-.13,2.07-.26,3.08-.38,109.99-13.19,123.66,42.42,10.4,57.82-1.77.24-3.51.46-5.23.67-43.63,5.23-72.18-.37-83.57-10,10.66,10.89,40.93,17.53,88.49,11.83,1.82-.22,3.67-.45,5.54-.71M500.58,889.1c-2.08.25-3.88,1.07-3.84,1.72.06.47.69.69,1.8.88,10.69,1.79,21.91,2.16,35.52.97l.28,4.05c.04.67,1.78,1.04,3.82.81,2.03-.24,3.72-1,3.68-1.67l-.24-4c19.54-2.43,33.25-7.86,32.88-13.29-.32-5.03-10.53-6.81-34.43-5.74l-.91-14.35c8.34-.64,15.89-.47,23.71.65,1.11.18,1.88.16,2.84.04,2.24-.27,4.04-1.03,4-1.74-.06-.51-.86-.73-2.3-.92-8.59-1.09-16.8-1.4-28.09-.43l-.12-2.04c-.04-.67-1.78-1.04-3.82-.81-2.07.25-3.73.99-3.69,1.65l.11,1.95c-19.1,2.33-32.6,7.85-32.27,13.02.29,5.13,10.21,6.85,33.8,5.87l.94,14.61c-12.26.98-21.91.48-30.85-1.19-.46-.1-1.44-.2-2.84-.04"/><path class="cls-4" d="M538.87,845.07c114.63-13.74,128.9,44.22,10.88,60.27-1.87.26-3.72.49-5.54.71-47.56,5.7-77.83-.94-88.49-11.83,11.39,9.62,39.94,15.23,83.57,10,1.72-.21,3.46-.43,5.23-.67,113.26-15.4,99.59-71.01-10.4-57.82-1.02.12-2.05.25-3.08.38.75-.13,1.55-.23,2.35-.33,1.85-.25,3.68-.49,5.48-.7Z"/><g class="cls-9"><path class="cls-6" d="M538.87,845.07c114.63-13.74,128.9,44.22,10.88,60.27-1.87.26-3.72.49-5.54.71-47.56,5.7-77.83-.94-88.49-11.83,11.39,9.62,39.94,15.23,83.57,10,1.72-.21,3.46-.43,5.23-.67,113.26-15.4,99.59-71.01-10.4-57.82-1.02.12-2.05.25-3.08.38.75-.13,1.55-.23,2.35-.33,1.85-.25,3.68-.49,5.48-.7Z"/></g><path class="cls-4" d="M650.2,862.91l3.52,29.33c2.11,17.59-29.33,39.09-98.79,48.55-2.23.3-4.44.59-6.61.85-70.7,8.47-109.71-5.67-111.92-24.1l-3.52-29.33c2.21,18.43,41.23,32.57,111.92,24.1,2.17-.26,4.38-.54,6.6-.85,69.46-9.45,100.9-30.95,98.79-48.55Z"/><g class="cls-9"><path class="cls-6" d="M650.2,862.91l3.52,29.33c2.11,17.59-29.33,39.09-98.79,48.55-2.23.3-4.44.59-6.61.85-70.7,8.47-109.71-5.67-111.92-24.1l-3.52-29.33c2.21,18.43,41.23,32.57,111.92,24.1,2.17-.26,4.38-.54,6.6-.85,69.46-9.45,100.9-30.95,98.79-48.55Z"/></g></g><g class="cls-12"><path class="cls-4" d="M200.03,97.84c-.51.36-1.04.72-1.5,1.09l-11.03-18.61c.46-.37.99-.72,1.5-1.09,1.2-.85,2.38-1.67,3.57-2.47,14.11-9.51,27.5-15.57,39.43-18.78,3.68,6.2,7.35,12.41,11.02,18.61-11.93,3.22-25.31,9.28-39.43,18.78-1.18.8-2.37,1.62-3.57,2.47Z"/><path class="cls-4" d="M291.17,86.2c-6.64-11.21-24.56-15.96-48.15-9.6-3.67-6.21-7.35-12.41-11.02-18.61,23.59-6.36,41.5-1.6,48.14,9.6,3.31,5.58,7.72,13.03,11.03,18.61Z"/><path class="cls-4" d="M273.53,70.12l11.03,18.61c-9.59-16.19-43.71-18.33-84.02,8.82-.67.45-1.34.91-2.01,1.38l-11.03-18.61c.67-.47,1.34-.93,2.01-1.38,40.3-27.15,74.42-25.01,84.02-8.82Z"/><path class="cls-4" d="M207.14,103.89s-.03.02-.04.03c-3.68-6.2-7.35-12.41-11.03-18.61.01,0,.03-.02.04-.03,3.31,5.58,7.72,13.03,11.03,18.61Z"/><path class="cls-4" d="M199.6,84.71l11.03,18.61c-.54-.59-2.15-.32-3.49.57l-11.03-18.61c1.35-.89,2.96-1.16,3.49-.57Z"/><polygon class="cls-4" points="196.19 89.7 207.22 108.31 205.66 106.59 194.63 87.98 196.19 89.7"/><path class="cls-4" d="M207.1,103.92c-1.24.85-1.89,1.95-1.54,2.55l-11.03-18.61c-.35-.6.29-1.7,1.54-2.55,3.68,6.2,7.35,12.41,11.03,18.61Z"/><path class="cls-4" d="M205.56,106.47l-11.03-18.61s.06.09.1.13l11.03,18.61s-.07-.08-.1-.13Z"/><polygon class="cls-4" points="201.24 86.5 212.27 105.11 210.63 103.32 199.6 84.71 201.24 86.5"/><path class="cls-4" d="M207.22,108.31c-4,2.71-7.33,5.53-9.87,8.25-3.68-6.2-7.35-12.41-11.03-18.61,2.54-2.72,5.87-5.54,9.87-8.25,3.31,5.58,7.72,13.03,11.03,18.61Z"/><path class="cls-4" d="M196.32,115.14c-3.37-5.69-6.74-11.38-10.11-17.06.04-.04.08-.09.12-.13,3.68,6.2,7.35,12.41,11.03,18.61-.04.04-.08.09-.12.13-.03-.05-.08-.13-.11-.18-.03-.06-.08-.13-.11-.19-.08-.13-.15-.25-.23-.38-.16-.27-.32-.53-.47-.8Z"/><path class="cls-4" d="M222.56,77.49l11.03,18.61c-7.25,1.89-13.61,4.36-21.32,9.01l-11.03-18.61c7.7-4.65,14.07-7.12,21.32-9.01Z"/><path class="cls-4" d="M235.97,96.18c-.4-.45-1.16-.38-2.39-.08l-11.03-18.61c1.22-.31,1.99-.37,2.39.08,3.68,6.2,7.35,12.41,11.03,18.61Z"/><path class="cls-4" d="M236.06,96.3s-.06-.08-.09-.12c-3.68-6.2-7.35-12.41-11.03-18.61.04.04.06.08.09.12,3.31,5.58,7.72,13.03,11.03,18.61Z"/><path class="cls-4" d="M221.15,81.37l11.03,18.61c-6.69,1.61-12.49,4-18.21,7.35l-11.03-18.61c5.72-3.35,11.52-5.74,18.21-7.35Z"/><path class="cls-4" d="M225.04,77.69l11.03,18.61c.39.66-.35,1.83-1.68,2.73-.68.46-1.23.74-2.2.95l-11.03-18.61c.97-.21,1.52-.49,2.2-.95,1.33-.9,2.07-2.08,1.68-2.73Z"/><path class="cls-4" d="M197.23,116.69c-2.95,3.19-4.82,6.26-5.4,8.87-3.68-6.2-7.35-12.41-11.03-18.61.59-2.62,2.45-5.68,5.4-8.87,3.68,6.2,7.35,12.41,11.03,18.61Z"/><path class="cls-4" d="M191.64,125.31c-3.62-6.1-7.23-12.21-10.85-18.31,0-.02,0-.03.01-.05,3.68,6.2,7.35,12.41,11.03,18.61,0,.02,0,.03-.01.05-.06-.1-.12-.2-.18-.3Z"/><path class="cls-4" d="M197.65,126.55l-11.03-18.61c-2.04-3.44,2.25-10.01,11.65-16.36l11.03,18.61c-9.4,6.35-13.69,12.92-11.65,16.36Z"/><path class="cls-4" d="M191.82,125.61c-.36,1.67-.21,3.15.51,4.37l-11.03-18.61c-.72-1.22-.88-2.7-.51-4.37,2.35,3.97,4.7,7.93,7.05,11.9,1.28,2.16,2.56,4.32,3.84,6.49.05.08.12.13.14.23Z"/><path class="cls-4" d="M198.27,91.58l11.26,12.29c-14.64,7.43-19.67,7.72-22.48,4.66-2.97-3.23,1.25-10.21,11.22-16.95Z"/><polygon class="cls-4" points="209.54 103.87 220.56 122.48 209.3 110.19 198.27 91.58 209.54 103.87"/><path class="cls-4" d="M197.65,126.55l-11.03-18.61c.12.21.27.4.44.59,2.81,3.06,7.84,2.77,22.48-4.66l11.03,18.61c-14.64,7.43-19.67,7.72-22.48,4.66-.17-.18-.31-.38-.44-.59Z"/><polygon class="cls-4" points="214.5 101.3 225.53 119.91 213.97 107.32 202.94 88.71 214.5 101.3"/><path class="cls-4" d="M244.07,112.04c-4.71,1.21-10.79,3.8-18.54,7.88l-11.03-18.61c7.75-4.07,13.83-6.67,18.54-7.88,3.68,6.2,7.35,12.41,11.03,18.61Z"/><path class="cls-4" d="M192.33,129.98l-11.03-18.61c.17.29.38.57.62.84,4.13,4.49,12.82,2.74,29.73-6.05l11.03,18.61c-16.91,8.79-25.6,10.55-29.73,6.06-.24-.26-.45-.54-.62-.84Z"/><path class="cls-4" d="M244.61,111.9c-.18.04-.36.09-.54.13-3.68-6.2-7.35-12.41-11.03-18.61.18-.05.36-.09.54-.13,3.68,6.2,7.35,12.41,11.03,18.61Z"/><path class="cls-4" d="M239.96,104.05c-2.12-3.58-4.25-7.17-6.37-10.75,1.99-.48,3.73-.69,5.24-.66,3.68,6.2,7.35,12.41,11.03,18.61-1.51-.04-3.25.18-5.24.65-1.55-2.62-3.1-5.24-4.66-7.86Z"/><path class="cls-4" d="M239.48,98.6l11.03,18.61c-2.85-3.11-8.22-2.59-22.88,5l-11.03-18.61c14.66-7.59,20.03-8.11,22.88-5Z"/><path class="cls-4" d="M249.85,111.25c-3.68-6.2-7.35-12.41-11.03-18.61,2.54.06,4.42.84,5.76,2.3.26.28.48.58.66.89l11.03,18.61c-.19-.31-.41-.61-.66-.89-1.34-1.46-3.22-2.24-5.76-2.3Z"/><path class="cls-4" d="M239.95,99.23l11.03,18.61c-.13-.22-.29-.43-.47-.63l-11.03-18.61c.18.2.33.41.47.63Z"/><path class="cls-4" d="M199.48,128.22l11.03,18.61c-.45.08-1.22.31-2.15.91l-11.03-18.61c.93-.61,1.71-.83,2.15-.91Z"/><path class="cls-4" d="M208.36,147.74c-1.29.87-2.01,2.11-1.64,2.73l-11.03-18.61c-.37-.62.35-1.85,1.62-2.72,3.66,6.17,7.32,12.35,10.97,18.52-3.66-6.17-7.32-12.35-10.97-18.52,0,0,.01,0,.02-.01,3.31,5.58,7.72,13.03,11.03,18.61Z"/><path class="cls-4" d="M239.95,99.23l11.03,18.61c2.14,3.61-2.26,10.25-11.93,16.78l-11.03-18.61c9.66-6.53,14.06-13.17,11.93-16.78Z"/><polygon class="cls-4" points="228.02 116.01 239.05 134.62 227.63 122.21 216.6 103.6 228.02 116.01"/><polygon class="cls-4" points="223.41 118.98 234.44 137.59 222.69 124.76 211.66 106.15 223.41 118.98"/><path class="cls-4" d="M223.41,118.98l11.03,18.61c-8.39,4.97-15.99,7.74-23.93,9.24l-11.03-18.61c7.95-1.49,15.54-4.27,23.93-9.24Z"/><path class="cls-4" d="M245.25,95.83l11.03,18.61c2.96,5-3.16,13.84-15.19,22.07l-11.03-18.61c12.03-8.22,18.15-17.07,15.19-22.07Z"/><path class="cls-4" d="M206.72,150.47l-11.03-18.61s.05.07.08.1c.37.42,1.04.39,2.01.18,9.32-1.95,18-5.39,27.28-11.01l11.03,18.61c-9.28,5.62-17.96,9.06-27.28,11.01-.97.21-1.64.23-2.01-.18-.03-.03-.06-.07-.08-.1Z"/><polygon class="cls-4" points="233.3 121.39 244.33 140.01 241.09 136.51 230.06 117.9 233.3 121.39"/><path class="cls-4" d="M233.38,121.51l11.03,18.61s-.05-.08-.08-.11l-11.03-18.61s.06.07.08.11Z"/><polygon class="cls-4" points="228.34 124.68 239.37 143.29 236.09 139.75 225.06 121.14 228.34 124.68"/><path class="cls-4" d="M233.38,121.51l11.03,18.61c.37.62-.32,1.77-1.57,2.62l-11.03-18.61c1.26-.85,1.94-2,1.57-2.62Z"/><path class="cls-4" d="M231.81,124.12l11.03,18.61c-1.35.89-2.93,1.14-3.47.55l-11.03-18.61c.54.59,2.12.34,3.47-.55Z"/><path class="cls-4" d="M292.95,60.26l11.03,18.61c9.54,16.09-.22,43.24-40.69,71.93-1.43,1.02-2.87,2.01-4.3,2.97-50.64,34.11-93.51,31.42-105.56,11.08l-11.03-18.61c12.05,20.34,54.92,23.03,105.56-11.08,1.42-.96,2.86-1.95,4.3-2.97,40.47-28.7,50.23-55.84,40.69-71.93Z"/><g class="cls-9"><path class="cls-6" d="M292.95,60.26l11.03,18.61c9.54,16.09-.22,43.24-40.69,71.93-1.43,1.02-2.87,2.01-4.3,2.97-50.64,34.11-93.51,31.42-105.56,11.08l-11.03-18.61c12.05,20.34,54.92,23.03,105.56-11.08,1.42-.96,2.86-1.95,4.3-2.97,40.47-28.7,50.23-55.84,40.69-71.93Z"/></g><path class="cls-4" d="M187.4,71.35c90.72-61.11,156.47-4.11,64.86,60.85-1.43,1.02-2.87,2.01-4.3,2.97-90.72,61.11-156.48,4.1-64.86-60.85,1.43-1.02,2.87-2.01,4.3-2.97ZM246.38,127.26c76.01-53.88,21.44-101.19-53.81-50.5-1.19.8-2.37,1.62-3.57,2.47-.51.36-1.04.72-1.5,1.09.67-.47,1.34-.93,2.01-1.38,72.2-48.64,124.56-3.27,51.6,48.46-1.14.81-2.27,1.59-3.4,2.35-28.67,19.31-54.25,23.83-70.03,18.98,16.22,6.22,43.88,2.06,75.1-18.97,1.2-.81,2.4-1.64,3.6-2.49M197.33,129.13c-1.36.92-2.09,2.25-1.56,2.83.37.42,1.04.39,2.01.18,9.32-1.95,18-5.39,27.28-11.01l3.28,3.54c.54.59,2.12.34,3.47-.55,1.34-.9,2.03-2.14,1.49-2.73l-3.24-3.5c12.78-8.74,18.89-18.18,14.52-22.96-4.05-4.41-13.03-2.6-30.08,6.36l-11.56-12.59c5.72-3.35,11.52-5.74,18.21-7.35.97-.21,1.52-.49,2.15-.91,1.47-.99,2.21-2.26,1.64-2.89-.4-.45-1.16-.38-2.39-.08-7.24,1.89-13.61,4.36-21.32,9.01l-1.64-1.79c-.54-.59-2.15-.32-3.49.57-1.36.92-2.03,2.14-1.48,2.7l1.56,1.71c-12.51,8.48-18.44,17.97-14.27,22.51,4.13,4.49,12.82,2.74,29.73-6.05l11.75,12.83c-8.39,4.97-15.99,7.74-23.93,9.24-.45.08-1.22.31-2.15.91"/><path class="cls-4" d="M239.48,98.6c3.12,3.43-1.21,10.48-11.46,17.41l-11.42-12.4c14.66-7.59,20.03-8.11,22.88-5Z"/><path class="cls-4" d="M214.5,101.3c17.05-8.96,26.03-10.78,30.08-6.36,4.37,4.78-1.74,14.22-14.52,22.96l3.24,3.5c.53.59-.15,1.83-1.49,2.73-1.35.89-2.93,1.14-3.47.55l-3.28-3.54c-9.28,5.62-17.96,9.06-27.28,11.01-.97.21-1.64.23-2.01-.18-.53-.58.2-1.92,1.52-2.8.97-.63,1.75-.86,2.2-.94,7.95-1.49,15.54-4.27,23.93-9.24l-11.75-12.83c-16.91,8.79-25.6,10.55-29.73,6.05-4.17-4.54,1.76-14.03,14.27-22.51l-1.56-1.71c-.55-.56.11-1.78,1.43-2.67,1.39-.92,3-1.19,3.54-.6l1.64,1.79c7.7-4.65,14.07-7.12,21.32-9.01,1.22-.31,1.99-.37,2.39.08.57.62-.17,1.9-1.59,2.85-.68.46-1.23.74-2.2.95-6.69,1.61-12.49,4-18.21,7.35l11.56,12.59ZM239.48,98.6c-2.85-3.11-8.22-2.59-22.88,5l11.42,12.4c10.25-6.93,14.58-13.98,11.46-17.41M209.54,103.87l-11.26-12.29c-9.97,6.73-14.19,13.71-11.22,16.95,2.81,3.06,7.84,2.77,22.48-4.66"/><g class="cls-9"><path class="cls-6" d="M214.5,101.3c17.05-8.96,26.03-10.78,30.08-6.36,4.37,4.78-1.74,14.22-14.52,22.96l3.24,3.5c.53.59-.15,1.83-1.49,2.73-1.35.89-2.93,1.14-3.47.55l-3.28-3.54c-9.28,5.62-17.96,9.06-27.28,11.01-.97.21-1.64.23-2.01-.18-.53-.58.2-1.92,1.52-2.8.97-.63,1.75-.86,2.2-.94,7.95-1.49,15.54-4.27,23.93-9.24l-11.75-12.83c-16.91,8.79-25.6,10.55-29.73,6.05-4.17-4.54,1.76-14.03,14.27-22.51l-1.56-1.71c-.55-.56.11-1.78,1.43-2.67,1.39-.92,3-1.19,3.54-.6l1.64,1.79c7.7-4.65,14.07-7.12,21.32-9.01,1.22-.31,1.99-.37,2.39.08.57.62-.17,1.9-1.59,2.85-.68.46-1.23.74-2.2.95-6.69,1.61-12.49,4-18.21,7.35l11.56,12.59ZM239.48,98.6c-2.85-3.11-8.22-2.59-22.88,5l11.42,12.4c10.25-6.93,14.58-13.98,11.46-17.41M209.54,103.87l-11.26-12.29c-9.97,6.73-14.19,13.71-11.22,16.95,2.81,3.06,7.84,2.77,22.48-4.66"/></g><path class="cls-4" d="M192.57,76.77c75.25-50.69,129.82-3.39,53.81,50.5-1.21.86-2.41,1.69-3.6,2.49-31.22,21.03-58.88,25.19-75.1,18.97,15.78,4.85,41.36.33,70.03-18.98,1.13-.76,2.26-1.55,3.4-2.35,72.97-51.72,20.61-97.1-51.6-48.46-.67.45-1.34.91-2.01,1.38.46-.37.99-.72,1.5-1.09,1.2-.85,2.38-1.67,3.57-2.47Z"/><g class="cls-9"><path class="cls-6" d="M192.57,76.77c75.25-50.69,129.82-3.39,53.81,50.5-1.21.86-2.41,1.69-3.6,2.49-31.22,21.03-58.88,25.19-75.1,18.97,15.78,4.85,41.36.33,70.03-18.98,1.13-.76,2.26-1.55,3.4-2.35,72.97-51.72,20.61-97.1-51.6-48.46-.67.45-1.34.91-2.01,1.38.46-.37.99-.72,1.5-1.09,1.2-.85,2.38-1.67,3.57-2.47Z"/></g></g><g class="cls-12"><path class="cls-4" d="M261.31,611.35c-.5-.39-.98-.79-1.47-1.13l14.69-15.88c.49.34.97.74,1.47,1.13,1.15.9,2.28,1.81,3.38,2.72,13.13,10.82,22.76,21.92,29.24,32.44-4.9,5.29-9.8,10.58-14.7,15.87-6.48-10.52-16.11-21.62-29.24-32.44-1.1-.91-2.23-1.81-3.38-2.72Z"/><path class="cls-4" d="M298.45,695.38c8.85-9.56,8.3-28.09-4.52-48.89,4.9-5.29,9.8-10.58,14.7-15.87,12.82,20.8,13.37,39.32,4.52,48.88-4.41,4.76-10.29,11.11-14.69,15.88Z"/><path class="cls-4" d="M308.83,673.89l-14.69,15.88c12.78-13.81,5.11-47.12-32.41-78.01-.62-.51-1.25-1.03-1.89-1.54l14.69-15.88c.64.51,1.27,1.02,1.89,1.54,37.51,30.89,45.19,64.21,32.41,78.01Z"/><path class="cls-4" d="M257.54,619.89s-.02-.02-.04-.03c4.9-5.29,9.8-10.58,14.69-15.88.01,0,.02.02.04.03-4.41,4.76-10.29,11.11-14.69,15.88Z"/><path class="cls-4" d="M273.77,607.19l-14.69,15.88c.41-.68-.31-2.15-1.54-3.18l14.69-15.88c1.24,1.04,1.95,2.5,1.54,3.18Z"/><polygon class="cls-4" points="268.02 605.35 253.33 621.23 254.53 619.24 269.22 603.37 268.02 605.35"/><path class="cls-4" d="M257.5,619.86c-1.17-.95-2.41-1.26-2.88-.75l14.69-15.88c.47-.51,1.71-.2,2.88.75-4.9,5.29-9.8,10.58-14.69,15.88Z"/><path class="cls-4" d="M254.62,619.11l14.69-15.88s-.07.08-.09.13l-14.69,15.88s.06-.09.09-.13Z"/><polygon class="cls-4" points="272.52 609.28 257.83 625.15 259.08 623.07 273.77 607.19 272.52 609.28"/><path class="cls-4" d="M253.33,621.23c-3.74-3.06-7.39-5.45-10.73-7.11,4.9-5.29,9.8-10.58,14.69-15.88,3.34,1.66,6.98,4.05,10.73,7.11-4.41,4.76-10.29,11.11-14.69,15.88Z"/><path class="cls-4" d="M243.67,612.72c4.49-4.85,8.98-9.7,13.47-14.56.05.03.1.05.16.08-4.9,5.29-9.8,10.58-14.69,15.88-.05-.03-.1-.05-.16-.08.04-.05.1-.11.14-.16.04-.05.1-.11.15-.16.1-.11.2-.22.3-.33.21-.23.42-.45.63-.68Z"/><path class="cls-4" d="M287.24,627.14l-14.69,15.88c-3.88-6.4-8.06-11.8-14.72-17.86l14.69-15.88c6.65,6.06,10.84,11.46,14.72,17.86Z"/><path class="cls-4" d="M273.15,645.33c.32-.51.04-1.23-.61-2.31l14.69-15.88c.64,1.09.92,1.8.61,2.31-4.9,5.29-9.8,10.58-14.69,15.88Z"/><path class="cls-4" d="M273.06,645.45s.06-.08.09-.12c4.9-5.29,9.8-10.58,14.69-15.88-.03.04-.06.08-.09.12-4.41,4.76-10.29,11.11-14.69,15.88Z"/><path class="cls-4" d="M283.12,626.9l-14.69,15.88c-3.45-5.95-7.39-10.83-12.23-15.36l14.69-15.88c4.84,4.53,8.78,9.4,12.23,15.36Z"/><path class="cls-4" d="M287.76,629.57l-14.69,15.88c-.52.56-1.86.19-3.1-.83-.63-.52-1.06-.97-1.53-1.84l14.69-15.88c.48.87.9,1.32,1.53,1.84,1.24,1.02,2.58,1.39,3.1.83Z"/><path class="cls-4" d="M242.45,614.04c-3.9-1.92-7.37-2.83-10.04-2.65,4.9-5.29,9.8-10.58,14.69-15.88,2.68-.18,6.14.73,10.04,2.65-4.9,5.29-9.8,10.58-14.69,15.88Z"/><path class="cls-4" d="M232.59,611.14c4.82-5.21,9.64-10.41,14.45-15.62.02,0,.04,0,.05,0-4.9,5.29-9.8,10.58-14.69,15.88-.02,0-.03,0-.05,0,.08-.09.16-.17.24-.26Z"/><path class="cls-4" d="M233.11,617.25l14.69-15.88c2.71-2.93,10.24-.69,19,6.51l-14.69,15.88c-8.77-7.2-16.29-9.44-19-6.51Z"/><path class="cls-4" d="M232.35,611.4c-1.7.12-3.08.7-4.04,1.74l14.69-15.88c.96-1.04,2.34-1.61,4.04-1.73-3.13,3.38-6.26,6.77-9.39,10.15-1.71,1.84-3.41,3.69-5.12,5.53-.06.06-.09.15-.18.19Z"/><path class="cls-4" d="M266.81,607.88l-8.57,14.3c-11.3-11.91-13.01-16.65-10.87-20.22,2.25-3.77,10.15-1.71,19.44,5.92Z"/><polygon class="cls-4" points="258.24 622.18 243.55 638.06 252.12 623.76 266.81 607.88 258.24 622.18"/><path class="cls-4" d="M233.11,617.25l14.69-15.88c-.16.18-.31.37-.44.59-2.14,3.56-.42,8.31,10.87,20.22l-14.69,15.88c-11.3-11.91-13.01-16.65-10.87-20.22.13-.21.27-.41.44-.59Z"/><polygon class="cls-4" points="262.12 626.21 247.42 642.09 256.19 627.42 270.89 611.54 262.12 626.21"/><path class="cls-4" d="M260.26,657.61c-2.5-4.17-6.72-9.26-12.84-15.53l14.69-15.88c6.11,6.27,10.34,11.36,12.84,15.53-4.9,5.29-9.8,10.58-14.69,15.88Z"/><path class="cls-4" d="M228.31,613.13l14.69-15.88c-.23.25-.44.53-.62.84-3.13,5.24,1.03,13.07,14.28,26.77l-14.69,15.88c-13.25-13.7-17.41-21.53-14.28-26.77.18-.31.39-.59.62-.84Z"/><path class="cls-4" d="M260.54,658.09c-.09-.16-.19-.32-.28-.48,4.9-5.29,9.8-10.58,14.69-15.88.1.16.19.32.28.48-4.9,5.29-9.8,10.58-14.69,15.88Z"/><path class="cls-4" d="M266.75,651.39c2.83-3.06,5.66-6.12,8.49-9.17,1.02,1.77,1.73,3.38,2.12,4.83-4.9,5.29-9.8,10.58-14.69,15.88-.39-1.46-1.1-3.06-2.12-4.83,2.07-2.23,4.14-4.47,6.2-6.7Z"/><path class="cls-4" d="M271.83,649.38l-14.69,15.88c2.17-3.62.14-8.62-11.32-20.51l14.69-15.88c11.45,11.88,13.48,16.89,11.32,20.51Z"/><path class="cls-4" d="M262.67,662.93c4.9-5.29,9.8-10.58,14.69-15.88.66,2.45.45,4.47-.56,6.18-.2.33-.42.62-.67.89l-14.69,15.88c.25-.27.47-.56.67-.89,1.02-1.7,1.23-3.73.56-6.18Z"/><path class="cls-4" d="M271.36,650l-14.69,15.88c.17-.19.33-.4.47-.62l14.69-15.88c-.14.23-.29.44-.47.62Z"/><path class="cls-4" d="M232.04,619.48l-14.69,15.88c-.2-.41-.64-1.09-1.49-1.8l14.69-15.88c.85.72,1.29,1.4,1.49,1.8Z"/><path class="cls-4" d="M215.86,633.56c-1.2-.99-2.59-1.32-3.08-.79l14.69-15.88c.49-.53,1.87-.2,3.07.78-4.87,5.27-9.75,10.53-14.62,15.8,4.87-5.27,9.75-10.53,14.62-15.8,0,0,.01,0,.02.01-4.41,4.76-10.29,11.11-14.69,15.88Z"/><path class="cls-4" d="M271.36,650l-14.69,15.88c-2.85,3.08-10.47.76-19.48-6.65l14.69-15.88c9.01,7.4,16.63,9.73,19.48,6.65Z"/><polygon class="cls-4" points="251.88 643.36 237.19 659.23 245.82 644.75 260.51 628.87 251.88 643.36"/><polygon class="cls-4" points="247.72 639.79 233.02 655.67 241.97 640.74 256.66 624.87 247.72 639.79"/><path class="cls-4" d="M247.72,639.79l-14.69,15.88c-7.15-6.63-11.98-13.12-15.68-20.31l14.69-15.88c3.7,7.19,8.52,13.68,15.68,20.31Z"/><path class="cls-4" d="M276.13,654.12l-14.69,15.88c-3.94,4.26-14.17.92-25.48-8.27l14.69-15.88c11.31,9.18,21.54,12.53,25.48,8.27Z"/><path class="cls-4" d="M212.77,632.76l14.69-15.88s-.05.07-.08.1c-.3.47-.08,1.11.4,1.98,4.53,8.38,10.3,15.72,18.33,23.01l-14.69,15.88c-8.03-7.29-13.8-14.64-18.33-23.01-.48-.87-.69-1.51-.4-1.98.02-.04.05-.07.08-.1Z"/><polygon class="cls-4" points="248.22 649.96 233.53 665.83 235.95 661.73 250.65 645.86 248.22 649.96"/><path class="cls-4" d="M248.14,650.07l-14.69,15.88s.06-.07.08-.11l14.69-15.88s-.05.08-.08.11Z"/><polygon class="cls-4" points="243.66 646.14 228.97 662.02 231.43 657.86 246.12 641.99 243.66 646.14"/><path class="cls-4" d="M248.14,650.07l-14.69,15.88c-.49.53-1.79.2-2.96-.76l14.69-15.88c1.17.96,2.47,1.29,2.96.76Z"/><path class="cls-4" d="M245.18,649.31l-14.69,15.88c-1.24-1.04-1.93-2.48-1.52-3.16l14.69-15.88c-.41.68.28,2.13,1.52,3.16Z"/><path class="cls-4" d="M323.82,689.7l-14.69,15.88c-12.71,13.73-41.51,12.11-80.55-18.5-1.38-1.08-2.75-2.18-4.07-3.27-47.14-38.82-56.77-80.67-40.72-98.02l14.69-15.88c-16.06,17.35-6.42,59.2,40.72,98.02,1.32,1.09,2.69,2.19,4.07,3.27,39.04,30.61,67.84,32.22,80.55,18.5Z"/><g class="cls-9"><path class="cls-6" d="M323.82,689.7l-14.69,15.88c-12.71,13.73-41.51,12.11-80.55-18.5-1.38-1.08-2.75-2.18-4.07-3.27-47.14-38.82-56.77-80.67-40.72-98.02l14.69-15.88c-16.06,17.35-6.42,59.2,40.72,98.02,1.32,1.09,2.69,2.19,4.07,3.27,39.04,30.61,67.84,32.22,80.55,18.5Z"/></g><path class="cls-4" d="M283.1,591.69c84.44,69.53,48.55,148.8-39.83,79.51-1.38-1.09-2.75-2.18-4.07-3.27-84.44-69.53-48.54-148.81,39.83-79.51,1.38,1.09,2.75,2.18,4.07,3.27ZM246.32,664.16c73.32,57.49,103.1-8.3,33.06-65.98-1.1-.91-2.23-1.81-3.38-2.72-.5-.39-.98-.79-1.47-1.13.64.51,1.27,1.02,1.89,1.54,67.21,55.34,38.64,118.46-31.74,63.27-1.1-.86-2.17-1.73-3.23-2.59-26.68-21.97-38.3-45.2-38.16-61.71-1.33,17.32,10.54,42.64,39.6,66.57,1.11.92,2.25,1.83,3.42,2.74M230.55,617.68c-1.27-1.04-2.76-1.36-3.16-.69-.3.47-.08,1.11.4,1.98,4.53,8.38,10.3,15.72,18.33,23.01l-2.46,4.15c-.41.68.28,2.13,1.52,3.16,1.24,1.02,2.63,1.33,3.04.65l2.43-4.1c12.02,9.76,22.81,12.92,26.15,7.37,3.07-5.14-1.23-13.23-14.68-27.02l8.77-14.67c4.84,4.53,8.78,9.4,12.23,15.36.48.87.9,1.32,1.49,1.8,1.37,1.13,2.8,1.48,3.23.75.32-.52.04-1.23-.61-2.31-3.88-6.4-8.06-11.8-14.72-17.86l1.25-2.08c.41-.68-.31-2.15-1.54-3.18-1.27-1.04-2.63-1.34-3.01-.64l-1.2,1.98c-11.7-9.57-22.49-12.55-25.64-7.26-3.13,5.24,1.03,13.07,14.28,26.77l-8.95,14.92c-7.15-6.63-11.98-13.12-15.68-20.31-.2-.41-.64-1.09-1.49-1.8"/><path class="cls-4" d="M271.83,649.38c-2.39,3.97-10.39,1.83-19.95-6.02l8.63-14.48c11.45,11.88,13.48,16.89,11.32,20.51Z"/><path class="cls-4" d="M262.12,626.21c13.45,13.79,17.75,21.88,14.68,27.02-3.33,5.55-14.13,2.38-26.15-7.37l-2.43,4.1c-.41.68-1.8.37-3.04-.65-1.24-1.04-1.93-2.48-1.52-3.16l2.46-4.15c-8.03-7.29-13.8-14.63-18.33-23.01-.48-.87-.69-1.51-.4-1.98.4-.67,1.89-.36,3.12.66.89.75,1.32,1.43,1.53,1.84,3.7,7.19,8.52,13.68,15.68,20.31l8.95-14.92c-13.25-13.7-17.41-21.53-14.28-26.77,3.16-5.3,13.95-2.31,25.64,7.26l1.2-1.98c.38-.69,1.74-.4,2.97.61,1.28,1.07,1.99,2.54,1.59,3.22l-1.25,2.08c6.65,6.06,10.84,11.46,14.72,17.86.64,1.09.92,1.8.61,2.31-.43.73-1.87.38-3.19-.71-.63-.52-1.06-.97-1.53-1.84-3.45-5.95-7.39-10.83-12.23-15.36l-8.77,14.67ZM271.83,649.38c2.17-3.62.14-8.62-11.32-20.51l-8.63,14.48c9.56,7.85,17.56,9.99,19.95,6.02M258.24,622.18l8.57-14.3c-9.29-7.63-17.19-9.69-19.44-5.92-2.14,3.56-.42,8.31,10.87,20.22"/><g class="cls-9"><path class="cls-6" d="M262.12,626.21c13.45,13.79,17.75,21.88,14.68,27.02-3.33,5.55-14.13,2.38-26.15-7.37l-2.43,4.1c-.41.68-1.8.37-3.04-.65-1.24-1.04-1.93-2.48-1.52-3.16l2.46-4.15c-8.03-7.29-13.8-14.63-18.33-23.01-.48-.87-.69-1.51-.4-1.98.4-.67,1.89-.36,3.12.66.89.75,1.32,1.43,1.53,1.84,3.7,7.19,8.52,13.68,15.68,20.31l8.95-14.92c-13.25-13.7-17.41-21.53-14.28-26.77,3.16-5.3,13.95-2.31,25.64,7.26l1.2-1.98c.38-.69,1.74-.4,2.97.61,1.28,1.07,1.99,2.54,1.59,3.22l-1.25,2.08c6.65,6.06,10.84,11.46,14.72,17.86.64,1.09.92,1.8.61,2.31-.43.73-1.87.38-3.19-.71-.63-.52-1.06-.97-1.53-1.84-3.45-5.95-7.39-10.83-12.23-15.36l-8.77,14.67ZM271.83,649.38c2.17-3.62.14-8.62-11.32-20.51l-8.63,14.48c9.56,7.85,17.56,9.99,19.95,6.02M258.24,622.18l8.57-14.3c-9.29-7.63-17.19-9.69-19.44-5.92-2.14,3.56-.42,8.31,10.87,20.22"/></g><path class="cls-4" d="M279.38,598.19c70.04,57.68,40.26,123.47-33.06,65.98-1.16-.91-2.3-1.83-3.42-2.74-29.06-23.93-40.93-49.26-39.6-66.57-.15,16.51,11.47,39.74,38.16,61.71,1.05.87,2.13,1.73,3.23,2.59,70.38,55.19,98.94-7.93,31.74-63.27-.62-.51-1.26-1.03-1.89-1.54.49.34.97.74,1.47,1.13,1.15.9,2.28,1.81,3.38,2.72Z"/><g class="cls-9"><path class="cls-6" d="M279.38,598.19c70.04,57.68,40.26,123.47-33.06,65.98-1.16-.91-2.3-1.83-3.42-2.74-29.06-23.93-40.93-49.26-39.6-66.57-.15,16.51,11.47,39.74,38.16,61.71,1.05.87,2.13,1.73,3.23,2.59,70.38,55.19,98.94-7.93,31.74-63.27-.62-.51-1.26-1.03-1.89-1.54.49.34.97.74,1.47,1.13,1.15.9,2.28,1.81,3.38,2.72Z"/></g></g><g class="cls-12"><path class="cls-4" d="M119.05,358.77c-.87-.22-1.73-.47-2.56-.64l10.17-29.11c.83.17,1.69.42,2.56.64,2.02.52,4,1.07,5.96,1.63,23.32,6.66,42.21,15.69,56.67,25.75-3.39,9.7-6.78,19.4-10.17,29.1-14.46-10.06-33.35-19.09-56.66-25.75-1.96-.56-3.94-1.1-5.96-1.63Z"/><path class="cls-4" d="M215.4,447.45c6.12-17.53-5.14-41.42-33.73-61.31,3.4-9.7,6.79-19.4,10.17-29.1,28.58,19.88,39.84,43.78,33.72,61.3-3.05,8.73-7.12,20.37-10.17,29.11Z"/><path class="cls-4" d="M216.74,413.46l-10.17,29.11c8.85-25.32-20.14-64.48-86.73-83.5-1.1-.31-2.22-.63-3.35-.93l10.17-29.1c1.12.3,2.24.62,3.35.93,66.59,19.02,95.58,58.19,86.73,83.5Z"/><path class="cls-4" d="M118.98,372.08s-.04-.01-.06-.02c3.39-9.7,6.78-19.4,10.17-29.11.02,0,.04.01.06.02-3.05,8.73-7.12,20.37-10.17,29.11Z"/><path class="cls-4" d="M132.97,346.25l-10.17,29.11c.15-1.12-1.62-2.63-3.83-3.28l10.17-29.11c2.2.65,3.97,2.16,3.83,3.28Z"/><polygon class="cls-4" points="124.41 347.12 114.24 376.22 114.68 372.95 124.85 343.84 124.41 347.12"/><path class="cls-4" d="M118.91,372.06c-2.07-.57-3.86-.27-4.19.66l10.17-29.1c.33-.94,2.12-1.24,4.19-.66-3.39,9.7-6.78,19.4-10.17,29.11Z"/><path class="cls-4" d="M114.73,372.72l10.17-29.1c-.03.07-.04.15-.05.23l-10.17,29.11c0-.08.02-.15.05-.23Z"/><polygon class="cls-4" points="132.52 349.68 122.36 378.79 122.81 375.36 132.97 346.25 132.52 349.68"/><path class="cls-4" d="M114.24,376.22c-6.63-1.87-12.76-2.92-18.06-3.19,3.39-9.7,6.78-19.4,10.17-29.11,5.3.27,11.43,1.31,18.06,3.19-3.05,8.73-7.12,20.37-10.17,29.11Z"/><path class="cls-4" d="M96.78,370.6c3.11-8.89,6.22-17.79,9.32-26.69.08,0,.17,0,.25.01-3.39,9.7-6.78,19.4-10.17,29.11-.08,0-.17,0-.25-.01.03-.09.07-.2.1-.28.03-.09.07-.2.1-.29.07-.2.14-.4.21-.6.14-.42.29-.83.44-1.25Z"/><path class="cls-4" d="M161.92,364.65l-10.17,29.11c-8.71-6.16-17.25-10.84-29.39-14.97l10.17-29.11c12.14,4.13,20.68,8.81,29.39,14.97Z"/><path class="cls-4" d="M153.86,396.43c.12-.85-.65-1.62-2.11-2.68l10.17-29.11c1.46,1.06,2.23,1.82,2.11,2.68-3.39,9.7-6.78,19.4-10.17,29.11Z"/><path class="cls-4" d="M153.81,396.64c.02-.07.04-.14.05-.21,3.39-9.7,6.78-19.4,10.17-29.11,0,.07-.03.14-.05.21-3.05,8.73-7.12,20.37-10.17,29.11Z"/><path class="cls-4" d="M156.4,366.68l-10.17,29.11c-7.9-5.82-15.82-9.95-24.73-13.11l10.17-29.1c8.9,3.16,16.82,7.29,24.72,13.11Z"/><path class="cls-4" d="M163.98,367.54l-10.17,29.1c-.36,1.03-2.32,1.3-4.52.68-1.12-.32-1.93-.67-3.05-1.53l10.17-29.11c1.12.87,1.93,1.21,3.05,1.53,2.2.63,4.16.35,4.52-.68Z"/><path class="cls-4" d="M95.94,373.02c-6.19-.29-11.24.49-14.63,2.25,3.39-9.7,6.78-19.4,10.17-29.11,3.39-1.76,8.44-2.54,14.63-2.25-3.39,9.7-6.78,19.4-10.17,29.1Z"/><path class="cls-4" d="M81.4,374.84c3.33-9.54,6.67-19.09,10-28.63.02-.01.04-.02.07-.03-3.39,9.7-6.78,19.4-10.17,29.11-.02.01-.04.02-.07.03.05-.16.11-.32.17-.47Z"/><path class="cls-4" d="M85.57,382.53l10.17-29.1c1.88-5.38,12.98-6.73,28.53-2.31l-10.17,29.11c-15.55-4.42-26.65-3.07-28.53,2.31Z"/><path class="cls-4" d="M81.24,375.31c-2.15,1.13-3.63,2.66-4.29,4.57l10.17-29.11c.67-1.91,2.14-3.44,4.29-4.57-2.17,6.2-4.33,12.4-6.5,18.61-1.18,3.38-2.36,6.76-3.54,10.14-.04.12-.04.25-.12.36Z"/><path class="cls-4" d="M124.27,351.11l-3.06,23.56c-21.54-9.14-26.48-14.36-25.71-20.23.79-6.21,12.28-8.01,28.77-3.33Z"/><polygon class="cls-4" points="121.21 374.67 111.04 403.78 114.1 380.22 124.27 351.11 121.21 374.67"/><path class="cls-4" d="M85.57,382.53l10.17-29.1c-.11.32-.19.66-.24,1.01-.76,5.87,4.17,11.09,25.71,20.23l-10.17,29.11c-21.54-9.14-26.47-14.36-25.71-20.23.05-.35.12-.69.24-1.02Z"/><polygon class="cls-4" points="128.57 377.73 118.4 406.84 121.51 382.68 131.68 353.57 128.57 377.73"/><path class="cls-4" d="M144,419.82c-5.64-4.03-14.05-8.27-25.61-12.98l10.17-29.11c11.55,4.71,19.97,8.96,25.61,12.98-3.39,9.7-6.78,19.4-10.17,29.11Z"/><path class="cls-4" d="M76.95,379.88l10.17-29.11c-.16.46-.27.94-.34,1.45-1.11,8.63,8.78,16.49,33.89,26.86l-10.17,29.11c-25.11-10.37-35-18.23-33.89-26.86.06-.51.18-.99.34-1.45Z"/><path class="cls-4" d="M144.65,420.29c-.21-.16-.43-.31-.65-.47,3.39-9.7,6.78-19.4,10.17-29.11.22.16.43.31.65.47-3.39,9.7-6.78,19.4-10.17,29.11Z"/><path class="cls-4" d="M148.94,408c1.96-5.61,3.92-11.21,5.88-16.82,2.35,1.74,4.18,3.43,5.52,5.11-3.39,9.7-6.78,19.4-10.17,29.1-1.34-1.68-3.17-3.37-5.52-5.11,1.43-4.1,2.86-8.19,4.29-12.29Z"/><path class="cls-4" d="M154.44,402.48l-10.17,29.11c.77-5.96-4.73-11.34-26.46-20.36l10.17-29.11c21.73,9.01,27.23,14.39,26.46,20.36Z"/><path class="cls-4" d="M150.17,425.4c3.39-9.7,6.78-19.4,10.17-29.1,2.26,2.82,3.14,5.59,2.78,8.39-.07.54-.19,1.05-.36,1.54l-10.17,29.11c.17-.49.29-1,.36-1.54.36-2.81-.52-5.57-2.78-8.39Z"/><path class="cls-4" d="M154.18,403.56l-10.17,29.11c.12-.34.21-.71.26-1.08l10.17-29.11c-.05.38-.14.74-.26,1.08Z"/><path class="cls-4" d="M85.44,386.06l-10.17,29.1c-.5-.41-1.46-1.05-2.97-1.51l10.17-29.1c1.51.45,2.47,1.09,2.97,1.51Z"/><path class="cls-4" d="M72.3,413.65c-2.13-.61-4.14-.26-4.48.72l10.17-29.11c.34-.97,2.33-1.32,4.45-.73-3.37,9.66-6.75,19.31-10.12,28.97,3.37-9.66,6.75-19.31,10.12-28.97.01,0,.02,0,.03,0-3.05,8.73-7.12,20.37-10.17,29.1Z"/><path class="cls-4" d="M154.18,403.56l-10.17,29.11c-1.97,5.65-13.25,6.95-29.24,2.4l10.17-29.11c15.99,4.55,27.27,3.25,29.24-2.4Z"/><polygon class="cls-4" points="124.94 405.97 114.77 435.07 117.81 411.23 127.98 382.13 124.94 405.97"/><polygon class="cls-4" points="117.47 403.67 107.3 432.78 110.5 408.19 120.67 379.08 117.47 403.67"/><path class="cls-4" d="M117.47,403.67l-10.17,29.11c-13.12-4.59-23.12-10.32-32.04-17.62l10.17-29.1c8.92,7.29,18.92,13.02,32.04,17.61Z"/><path class="cls-4" d="M162.75,406.23l-10.17,29.11c-2.73,7.81-17.99,9.26-38,3.69l10.17-29.11c20,5.56,35.27,4.12,38-3.69Z"/><path class="cls-4" d="M67.82,414.37l10.17-29.1c-.02.06-.03.12-.04.18-.12.79.53,1.5,1.65,2.36,10.69,8.37,22.4,14.68,37.05,19.64l-10.17,29.11c-14.64-4.96-26.36-11.27-37.05-19.64-1.12-.87-1.76-1.58-1.65-2.36,0-.06.02-.12.04-.18Z"/><polygon class="cls-4" points="123.91 416.67 113.74 445.77 114.59 439.03 124.76 409.93 123.91 416.67"/><path class="cls-4" d="M123.87,416.86l-10.17,29.11c.02-.06.04-.13.05-.19l10.17-29.11c0,.07-.02.13-.05.19Z"/><polygon class="cls-4" points="115.78 414.28 105.62 443.38 106.47 436.55 116.64 407.45 115.78 414.28"/><path class="cls-4" d="M123.87,416.86l-10.17,29.11c-.34.97-2.22,1.28-4.3.69l10.17-29.11c2.08.59,3.96.28,4.3-.69Z"/><path class="cls-4" d="M119.57,417.55l-10.17,29.11c-2.2-.65-3.93-2.15-3.78-3.27l10.17-29.11c-.15,1.12,1.58,2.62,3.78,3.27Z"/><path class="cls-4" d="M245.31,425.58l-10.17,29.11c-8.79,25.17-47.34,39.44-115.78,21.66-2.43-.63-4.83-1.29-7.18-1.96C28.51,450.49-7.9,401.28,3.22,369.48l10.17-29.11c-11.11,31.81,25.29,81.01,108.97,104.91,2.35.67,4.75,1.33,7.18,1.96,68.43,17.78,106.98,3.51,115.78-21.66Z"/><g class="cls-9"><path class="cls-6" d="M245.31,425.58l-10.17,29.11c-8.79,25.17-47.34,39.44-115.78,21.66-2.43-.63-4.83-1.29-7.18-1.96C28.51,450.49-7.9,401.28,3.22,369.48l10.17-29.11c-11.11,31.81,25.29,81.01,108.97,104.91,2.35.67,4.75,1.33,7.18,1.96,68.43,17.78,106.98,3.51,115.78-21.66Z"/></g><path class="cls-4" d="M136.34,320.68c149.89,42.81,148.1,166.81-6.81,126.56-2.43-.63-4.83-1.29-7.18-1.96-149.89-42.82-148.1-166.84,6.81-126.56,2.43.63,4.83,1.29,7.18,1.96ZM129.52,436.31c128.51,33.41,130-69.5,5.66-105.02-1.96-.56-3.94-1.1-5.96-1.63-.87-.22-1.73-.47-2.56-.64,1.12.3,2.24.62,3.35.93,119.3,34.07,117.89,132.81-5.47,100.73-1.92-.5-3.82-1.02-5.69-1.55-47.36-13.53-75.77-37.27-84.97-58.93,8.11,23.39,38.03,49.72,89.62,64.46,1.98.56,3.98,1.11,6.02,1.64M82.47,384.55c-2.25-.64-4.38-.21-4.52.9-.12.79.53,1.5,1.65,2.36,10.69,8.37,22.4,14.68,37.05,19.64l-.85,6.83c-.15,1.12,1.58,2.62,3.78,3.27,2.21.63,4.2.24,4.34-.88l.84-6.74c21.26,5.91,37.16,3.91,38.36-5.24,1.09-8.47-9.13-16.59-34.55-26.96l3.11-24.16c8.9,3.16,16.82,7.29,24.72,13.11,1.12.87,1.93,1.21,2.97,1.51,2.43.69,4.5.34,4.65-.86.12-.85-.65-1.62-2.11-2.68-8.71-6.16-17.25-10.84-29.39-14.97l.45-3.43c.15-1.12-1.62-2.63-3.83-3.28-2.25-.64-4.2-.25-4.3.87l-.43,3.27c-20.73-5.85-36.52-3.61-37.64,5.1-1.11,8.63,8.78,16.49,33.89,26.86l-3.2,24.59c-13.12-4.59-23.12-10.32-32.04-17.61-.49-.42-1.46-1.06-2.97-1.51"/><path class="cls-4" d="M154.44,402.48c-.87,6.55-12.53,8.31-29.5,3.48l3.04-23.84c21.73,9.01,27.23,14.39,26.46,20.36Z"/><path class="cls-4" d="M128.57,377.73c25.42,10.36,35.64,18.49,34.55,26.96-1.2,9.15-17.1,11.15-38.36,5.24l-.84,6.74c-.15,1.12-2.14,1.51-4.34.88-2.2-.65-3.93-2.15-3.78-3.27l.85-6.83c-14.64-4.96-26.36-11.27-37.05-19.64-1.12-.87-1.76-1.58-1.65-2.36.15-1.11,2.27-1.54,4.45-.92,1.58.48,2.55,1.12,3.04,1.53,8.92,7.29,18.92,13.02,32.04,17.61l3.2-24.59c-25.11-10.37-35-18.23-33.89-26.86,1.11-8.72,16.91-10.96,37.64-5.1l.43-3.27c.1-1.12,2.05-1.51,4.22-.89,2.28.67,4.05,2.18,3.9,3.31l-.45,3.43c12.14,4.13,20.68,8.81,29.39,14.97,1.46,1.06,2.23,1.82,2.11,2.68-.15,1.2-2.23,1.55-4.57.89-1.12-.32-1.93-.67-3.05-1.53-7.9-5.82-15.82-9.95-24.72-13.11l-3.11,24.16ZM154.44,402.48c.77-5.96-4.73-11.34-26.46-20.36l-3.04,23.84c16.96,4.82,28.63,3.07,29.5-3.48M121.21,374.67l3.06-23.56c-16.49-4.69-27.98-2.88-28.77,3.33-.76,5.87,4.17,11.09,25.71,20.23"/><g class="cls-9"><path class="cls-6" d="M128.57,377.73c25.42,10.36,35.64,18.49,34.55,26.96-1.2,9.15-17.1,11.15-38.36,5.24l-.84,6.74c-.15,1.12-2.14,1.51-4.34.88-2.2-.65-3.93-2.15-3.78-3.27l.85-6.83c-14.64-4.96-26.36-11.27-37.05-19.64-1.12-.87-1.76-1.58-1.65-2.36.15-1.11,2.27-1.54,4.45-.92,1.58.48,2.55,1.12,3.04,1.53,8.92,7.29,18.92,13.02,32.04,17.61l3.2-24.59c-25.11-10.37-35-18.23-33.89-26.86,1.11-8.72,16.91-10.96,37.64-5.1l.43-3.27c.1-1.12,2.05-1.51,4.22-.89,2.28.67,4.05,2.18,3.9,3.31l-.45,3.43c12.14,4.13,20.68,8.81,29.39,14.97,1.46,1.06,2.23,1.82,2.11,2.68-.15,1.2-2.23,1.55-4.57.89-1.12-.32-1.93-.67-3.05-1.53-7.9-5.82-15.82-9.95-24.72-13.11l-3.11,24.16ZM154.44,402.48c.77-5.96-4.73-11.34-26.46-20.36l-3.04,23.84c16.96,4.82,28.63,3.07,29.5-3.48M121.21,374.67l3.06-23.56c-16.49-4.69-27.98-2.88-28.77,3.33-.76,5.87,4.17,11.09,25.71,20.23"/></g><path class="cls-4" d="M135.18,331.29c124.34,35.52,122.85,138.43-5.66,105.02-2.04-.53-4.05-1.08-6.02-1.64-51.59-14.74-81.51-41.08-89.62-64.46,9.2,21.66,37.6,45.4,84.97,58.93,1.87.53,3.76,1.05,5.69,1.55,123.37,32.07,124.78-66.66,5.47-100.73-1.1-.31-2.22-.63-3.35-.93.83.17,1.69.42,2.56.64,2.02.53,4,1.07,5.96,1.63Z"/><g class="cls-9"><path class="cls-6" d="M135.18,331.29c124.34,35.52,122.85,138.43-5.66,105.02-2.04-.53-4.05-1.08-6.02-1.64-51.59-14.74-81.51-41.08-89.62-64.46,9.2,21.66,37.6,45.4,84.97,58.93,1.87.53,3.76,1.05,5.69,1.55,123.37,32.07,124.78-66.66,5.47-100.73-1.1-.31-2.22-.63-3.35-.93.83.17,1.69.42,2.56.64,2.02.53,4,1.07,5.96,1.63Z"/></g></g><g class="cls-12"><path class="cls-4" d="M224.51,866.3c-.71.49-1.44.97-2.09,1.46l-14.79-25.89c.65-.5,1.38-.97,2.09-1.46,1.67-1.14,3.32-2.25,4.97-3.32,19.66-12.79,38.24-20.85,54.75-25.02,4.93,8.63,9.86,17.26,14.78,25.89-16.51,4.17-35.09,12.23-54.74,25.02-1.65,1.07-3.3,2.18-4.97,3.32Z"/><path class="cls-4" d="M350.36,852.25c-8.9-15.59-33.49-22.53-66.14-14.29-4.92-8.63-9.85-17.26-14.78-25.89,32.65-8.24,57.23-1.3,66.13,14.29,4.44,7.77,10.35,18.12,14.79,25.89Z"/><path class="cls-4" d="M326.4,829.71l14.79,25.89c-12.86-22.52-59.84-26.22-115.97,10.31-.93.6-1.87,1.23-2.8,1.85l-14.79-25.89c.93-.63,1.87-1.25,2.8-1.85,56.14-36.53,103.11-32.83,115.97-10.31Z"/><path class="cls-4" d="M234.17,874.79s-.04.02-.05.04c-4.93-8.63-9.86-17.26-14.79-25.89.02-.01.04-.02.05-.04,4.44,7.77,10.35,18.12,14.79,25.89Z"/><path class="cls-4" d="M224.21,848.19l14.79,25.89c-.72-.82-2.95-.49-4.82.71l-14.79-25.89c1.88-1.19,4.1-1.53,4.82-.71Z"/><polygon class="cls-4" points="219.4 854.98 234.19 880.87 232.08 878.48 217.29 852.59 219.4 854.98"/><path class="cls-4" d="M234.12,874.82c-1.73,1.14-2.65,2.64-2.17,3.48l-14.79-25.89c-.48-.83.44-2.33,2.17-3.48,4.93,8.63,9.86,17.26,14.79,25.89Z"/><path class="cls-4" d="M231.94,878.3l-14.79-25.89c.04.06.08.12.13.18l14.79,25.89c-.05-.06-.1-.12-.13-.18Z"/><polygon class="cls-4" points="226.42 850.69 241.21 876.58 238.99 874.08 224.21 848.19 226.42 850.69"/><path class="cls-4" d="M234.19,880.87c-5.57,3.65-10.22,7.46-13.78,11.16-4.93-8.63-9.86-17.26-14.79-25.89,3.56-3.7,8.21-7.51,13.78-11.16,4.44,7.77,10.35,18.12,14.79,25.89Z"/><path class="cls-4" d="M219.01,890.05c-4.52-7.91-9.04-15.82-13.56-23.74.06-.06.11-.12.17-.17,4.93,8.63,9.86,17.26,14.79,25.89-.06.06-.11.12-.17.17-.04-.08-.1-.18-.14-.25-.04-.08-.1-.18-.15-.26-.1-.18-.2-.35-.3-.53-.21-.37-.42-.74-.63-1.11Z"/><path class="cls-4" d="M256,838.74l14.79,25.89c-10.03,2.45-18.86,5.71-29.57,11.96l-14.79-25.89c10.72-6.24,19.55-9.51,29.57-11.96Z"/><path class="cls-4" d="M274.08,864.79c-.55-.63-1.6-.56-3.29-.16l-14.79-25.89c1.69-.39,2.75-.47,3.29.16,4.93,8.63,9.86,17.26,14.79,25.89Z"/><path class="cls-4" d="M274.2,864.96c-.03-.06-.07-.12-.12-.17-4.93-8.63-9.86-17.26-14.79-25.89.05.05.09.11.12.17,4.44,7.77,10.35,18.12,14.79,25.89Z"/><path class="cls-4" d="M253.98,844.05l14.79,25.89c-9.26,2.08-17.3,5.24-25.26,9.73l-14.79-25.89c7.95-4.49,16-7.65,25.25-9.73Z"/><path class="cls-4" d="M259.41,839.07l14.79,25.89c.52.91-.52,2.52-2.38,3.73-.95.62-1.71.99-3.06,1.25l-14.79-25.89c1.34-.27,2.11-.64,3.06-1.25,1.85-1.21,2.9-2.81,2.38-3.73Z"/><path class="cls-4" d="M220.24,892.2c-4.14,4.34-6.77,8.52-7.64,12.11-4.93-8.63-9.86-17.26-14.79-25.89.87-3.59,3.5-7.77,7.64-12.11,4.93,8.63,9.86,17.26,14.79,25.89Z"/><path class="cls-4" d="M212.34,903.96c-4.85-8.49-9.7-16.98-14.55-25.47,0-.02.01-.05.02-.07,4.93,8.63,9.86,17.26,14.79,25.89,0,.02-.01.05-.02.07-.08-.14-.16-.28-.24-.42Z"/><path class="cls-4" d="M220.6,905.8l-14.79-25.89c-2.73-4.78,3.33-13.75,16.42-22.29l14.79,25.89c-13.09,8.54-19.15,17.51-16.42,22.29Z"/><path class="cls-4" d="M212.58,904.38c-.54,2.29-.36,4.33.61,6.03l-14.79-25.89c-.97-1.7-1.15-3.74-.61-6.03,3.15,5.52,6.3,11.03,9.45,16.55,1.72,3.01,3.44,6.01,5.15,9.02.06.11.16.19.18.32Z"/><path class="cls-4" d="M222.23,857.63l15.25,17.18c-20.34,9.92-27.28,10.21-31.08,5.93-4.03-4.52,1.95-14.05,15.83-23.11Z"/><polygon class="cls-4" points="237.48 874.81 252.27 900.7 237.02 883.52 222.23 857.63 237.48 874.81"/><path class="cls-4" d="M220.6,905.8l-14.79-25.89c.16.29.36.56.59.82,3.8,4.28,10.74,3.99,31.08-5.93l14.79,25.89c-20.34,9.92-27.28,10.21-31.08,5.93-.23-.26-.43-.53-.59-.82Z"/><polygon class="cls-4" points="244.38 871.38 259.17 897.27 243.51 879.67 228.72 853.78 244.38 871.38"/><path class="cls-4" d="M284.89,886.82c-6.52,1.56-14.95,5.01-25.72,10.45l-14.79-25.89c10.77-5.44,19.21-8.89,25.72-10.45,4.93,8.63,9.86,17.26,14.79,25.89Z"/><path class="cls-4" d="M213.19,910.41l-14.79-25.89c.23.41.51.8.84,1.17,5.59,6.28,17.61,4.06,41.11-7.69l14.79,25.89c-23.5,11.75-35.52,13.97-41.11,7.69-.33-.37-.61-.76-.84-1.17Z"/><path class="cls-4" d="M285.64,886.65c-.25.06-.5.11-.75.17-4.93-8.63-9.86-17.26-14.79-25.89.25-.06.5-.12.75-.17,4.93,8.63,9.86,17.26,14.79,25.89Z"/><path class="cls-4" d="M279.4,875.72c-2.85-4.99-5.7-9.97-8.55-14.96,2.76-.61,5.16-.87,7.23-.79,4.93,8.63,9.86,17.26,14.79,25.89-2.08-.08-4.48.18-7.23.79-2.08-3.64-4.16-7.29-6.24-10.93Z"/><path class="cls-4" d="M278.86,868.2l14.79,25.89c-3.86-4.35-11.28-3.75-31.64,6.39l-14.79-25.89c20.36-10.14,27.78-10.74,31.64-6.39Z"/><path class="cls-4" d="M292.88,885.86c-4.93-8.63-9.86-17.26-14.79-25.89,3.49.14,6.07,1.26,7.89,3.3.35.39.65.81.9,1.25l14.79,25.89c-.25-.44-.55-.85-.9-1.25-1.82-2.04-4.39-3.16-7.89-3.3Z"/><path class="cls-4" d="M279.49,869.08l14.79,25.89c-.18-.31-.38-.6-.63-.87l-14.79-25.89c.24.28.45.57.63.87Z"/><path class="cls-4" d="M223.09,908.14l14.79,25.89c-.62.1-1.69.39-2.99,1.21l-14.79-25.89c1.29-.82,2.37-1.11,2.99-1.21Z"/><path class="cls-4" d="M234.89,935.24c-1.79,1.17-2.81,2.86-2.32,3.73l-14.79-25.89c-.49-.86.52-2.54,2.29-3.71,4.91,8.59,9.81,17.18,14.72,25.77-4.91-8.59-9.81-17.18-14.72-25.77,0,0,.02-.01.03-.02,4.44,7.77,10.35,18.12,14.79,25.89Z"/><path class="cls-4" d="M279.49,869.08l14.79,25.89c2.87,5.02-3.34,14.08-16.8,22.86l-14.79-25.89c13.46-8.78,19.67-17.84,16.8-22.86Z"/><polygon class="cls-4" points="262.69 891.94 277.48 917.83 262.01 900.48 247.22 874.59 262.69 891.94"/><polygon class="cls-4" points="256.27 895.94 271.06 921.83 255.14 903.89 240.35 878 256.27 895.94"/><path class="cls-4" d="M256.27,895.94l14.79,25.89c-11.68,6.66-22.2,10.32-33.18,12.2l-14.79-25.89c10.98-1.88,21.51-5.54,33.18-12.2Z"/><path class="cls-4" d="M286.87,864.51l14.79,25.89c3.97,6.95-4.66,19.01-21.41,30.07l-14.79-25.89c16.75-11.07,25.38-23.13,21.41-30.07Z"/><path class="cls-4" d="M232.57,938.96l-14.79-25.89c.03.05.06.1.1.14.5.59,1.43.56,2.77.3,12.89-2.49,24.93-7.04,37.84-14.57l14.79,25.89c-12.91,7.54-24.95,12.09-37.84,14.57-1.34.27-2.27.29-2.77-.3-.04-.05-.07-.09-.1-.14Z"/><polygon class="cls-4" points="269.84 899.48 284.63 925.37 280.25 920.48 265.46 894.59 269.84 899.48"/><path class="cls-4" d="M269.95,899.64l14.79,25.89c-.03-.05-.07-.11-.11-.16l-14.79-25.89s.08.1.11.16Z"/><polygon class="cls-4" points="262.94 903.9 277.73 929.79 273.29 924.83 258.5 898.94 262.94 903.9"/><path class="cls-4" d="M269.95,899.64l14.79,25.89c.49.86-.48,2.44-2.22,3.57l-14.79-25.89c1.75-1.14,2.72-2.71,2.22-3.57Z"/><path class="cls-4" d="M267.73,903.21l14.79,25.89c-1.87,1.19-4.06,1.51-4.79.69l-14.79-25.89c.72.82,2.91.51,4.79-.69Z"/><path class="cls-4" d="M353.38,816.54l14.79,25.89c12.79,22.39-1.26,59.58-57.66,98.24-2,1.37-4,2.71-5.98,4-70.54,45.9-129.55,41.25-145.71,12.95l-14.79-25.89c16.16,28.29,75.17,32.95,145.71-12.95,1.98-1.29,3.99-2.63,5.98-4,56.4-38.66,70.45-75.85,57.66-98.24Z"/><g class="cls-9"><path class="cls-6" d="M353.38,816.54l14.79,25.89c12.79,22.39-1.26,59.58-57.66,98.24-2,1.37-4,2.71-5.98,4-70.54,45.9-129.55,41.25-145.71,12.95l-14.79-25.89c16.16,28.29,75.17,32.95,145.71-12.95,1.98-1.29,3.99-2.63,5.98-4,56.4-38.66,70.45-75.85,57.66-98.24Z"/></g><path class="cls-4" d="M207.68,829.51c126.35-82.23,215.71-2.23,88.05,85.28-2,1.37-4,2.71-5.98,4-126.36,82.22-215.73,2.22-88.05-85.28,2-1.37,4-2.71,5.99-4ZM287.74,907.86c105.93-72.59,31.77-138.97-73.05-70.77-1.65,1.07-3.3,2.18-4.97,3.32-.71.49-1.44.96-2.09,1.46.93-.63,1.87-1.25,2.8-1.85,100.57-65.45,171.73-1.77,70.04,67.91-1.59,1.09-3.17,2.14-4.74,3.17-39.93,25.98-75.28,31.65-96.92,24.62,22.21,8.92,60.42,3.8,103.91-24.5,1.67-1.08,3.34-2.2,5.02-3.35M220.1,909.35c-1.9,1.23-2.93,3.06-2.22,3.87.5.59,1.43.56,2.77.3,12.89-2.49,24.93-7.04,37.84-14.57l4.44,4.95c.72.82,2.91.51,4.79-.69,1.86-1.21,2.84-2.91,2.11-3.73l-4.38-4.89c17.8-11.76,26.43-24.64,20.52-31.32-5.49-6.17-17.9-3.87-41.6,8.11l-15.66-17.6c7.95-4.49,16-7.65,25.25-9.73,1.34-.27,2.11-.64,2.99-1.21,2.05-1.33,3.1-3.07,2.32-3.94-.55-.63-1.6-.56-3.29-.16-10.03,2.45-18.86,5.71-29.57,11.96l-2.22-2.5c-.72-.82-2.95-.49-4.82.71-1.9,1.23-2.84,2.9-2.09,3.69l2.11,2.4c-17.43,11.42-25.81,24.36-20.16,30.71,5.59,6.28,17.61,4.06,41.11-7.69l15.92,17.94c-11.68,6.66-22.2,10.32-33.18,12.2-.62.1-1.69.39-2.99,1.21"/><path class="cls-4" d="M278.86,868.2c4.23,4.79-1.89,14.42-16.17,23.74l-15.47-17.34c20.36-10.14,27.78-10.74,31.64-6.39Z"/><path class="cls-4" d="M244.38,871.38c23.7-11.98,36.11-14.28,41.6-8.11,5.92,6.68-2.71,19.56-20.52,31.32l4.38,4.89c.72.82-.25,2.52-2.11,3.73-1.87,1.19-4.06,1.51-4.79.69l-4.44-4.95c-12.91,7.54-24.95,12.09-37.84,14.57-1.34.27-2.27.29-2.77-.3-.72-.81.32-2.64,2.16-3.83,1.35-.85,2.43-1.15,3.05-1.25,10.98-1.88,21.51-5.54,33.18-12.2l-15.92-17.94c-23.5,11.75-35.51,13.97-41.11,7.69-5.65-6.34,2.73-19.29,20.16-30.71l-2.11-2.4c-.75-.79.19-2.46,2.03-3.65,1.94-1.24,4.17-1.57,4.89-.75l2.22,2.5c10.72-6.24,19.55-9.51,29.57-11.96,1.69-.39,2.75-.47,3.29.16.78.87-.28,2.61-2.25,3.9-.95.62-1.71.99-3.06,1.25-9.26,2.08-17.3,5.24-25.25,9.73l15.66,17.6ZM278.86,868.2c-3.86-4.35-11.28-3.75-31.64,6.39l15.47,17.34c14.28-9.32,20.4-18.94,16.17-23.74M237.48,874.81l-15.25-17.18c-13.88,9.06-19.85,18.59-15.83,23.11,3.8,4.28,10.74,3.99,31.08-5.93"/><g class="cls-9"><path class="cls-6" d="M244.38,871.38c23.7-11.98,36.11-14.28,41.6-8.11,5.92,6.68-2.71,19.56-20.52,31.32l4.38,4.89c.72.82-.25,2.52-2.11,3.73-1.87,1.19-4.06,1.51-4.79.69l-4.44-4.95c-12.91,7.54-24.95,12.09-37.84,14.57-1.34.27-2.27.29-2.77-.3-.72-.81.32-2.64,2.16-3.83,1.35-.85,2.43-1.15,3.05-1.25,10.98-1.88,21.51-5.54,33.18-12.2l-15.92-17.94c-23.5,11.75-35.51,13.97-41.11,7.69-5.65-6.34,2.73-19.29,20.16-30.71l-2.11-2.4c-.75-.79.19-2.46,2.03-3.65,1.94-1.24,4.17-1.57,4.89-.75l2.22,2.5c10.72-6.24,19.55-9.51,29.57-11.96,1.69-.39,2.75-.47,3.29.16.78.87-.28,2.61-2.25,3.9-.95.62-1.71.99-3.06,1.25-9.26,2.08-17.3,5.24-25.25,9.73l15.66,17.6ZM278.86,868.2c-3.86-4.35-11.28-3.75-31.64,6.39l15.47,17.34c14.28-9.32,20.4-18.94,16.17-23.74M237.48,874.81l-15.25-17.18c-13.88,9.06-19.85,18.59-15.83,23.11,3.8,4.28,10.74,3.99,31.08-5.93"/></g><path class="cls-4" d="M214.69,837.09c104.82-68.2,178.98-1.82,73.05,70.77-1.68,1.15-3.35,2.27-5.02,3.35-43.49,28.3-81.7,33.42-103.91,24.5,21.64,7.03,56.99,1.36,96.92-24.62,1.57-1.02,3.16-2.08,4.74-3.17,101.69-69.68,30.53-133.36-70.04-67.91-.93.61-1.87,1.23-2.8,1.85.65-.5,1.38-.97,2.09-1.46,1.67-1.14,3.32-2.25,4.97-3.32Z"/><g class="cls-9"><path class="cls-6" d="M214.69,837.09c104.82-68.2,178.98-1.82,73.05,70.77-1.68,1.15-3.35,2.27-5.02,3.35-43.49,28.3-81.7,33.42-103.91,24.5,21.64,7.03,56.99,1.36,96.92-24.62,1.57-1.02,3.16-2.08,4.74-3.17,101.69-69.68,30.53-133.36-70.04-67.91-.93.61-1.87,1.23-2.8,1.85.65-.5,1.38-.97,2.09-1.46,1.67-1.14,3.32-2.25,4.97-3.32Z"/></g></g><path class="cls-4" d="M58.71,562.33c132.37-19.94,162.13,176.07,29.54,196.05-132.36,19.94-162.12-176.07-29.54-196.05Z"/><path class="cls-8" d="M58.71,562.33c132.37-19.94,162.13,176.07,29.54,196.05-132.36,19.94-162.12-176.07-29.54-196.05Z"/><path class="cls-4" d="M46.29,564.2c126.15-19.01,155.9,177.01,29.54,196.05-126.15,19.01-155.9-177.01-29.54-196.05Z"/><path class="cls-8" d="M-12.88,692.16c11.81,32.71,41.81,58.12,86.22,51.42,104.85-15.8,80.17-178.5-24.52-162.72-.68.1-1.37.21-2.05.35,98.83-12.87,121.56,141.3,21.58,156.36-40.78,6.15-68.97-15.98-81.23-45.42Z"/><g class="cls-9"><path class="cls-6" d="M51.82,601.21c1.79-.15,3.43,1.24,3.57,3.03l.46,5.5c9.97,0,17.4,2.72,25.28,7.6,1.31.86,2.07,1.63,2.19,3.01.16,1.92-1.37,3.57-3.29,3.73-.82.07-1.53,0-2.56-.76-7.18-4.81-14.01-7.01-21.37-7.23l3.19,38.51c21.27,2.67,30.72,9.78,31.84,23.26,1.21,14.58-10.18,25.91-27.33,27.88l.89,10.73c.15,1.79-1.24,3.43-3.03,3.57-1.79.15-3.43-1.24-3.57-3.03l-.9-10.87c-12.05.03-22.18-3.56-32.05-10.78-1.03-.74-1.65-1.52-1.75-2.76-.15-1.79,1.37-3.58,3.15-3.72,1.24-.1,2.11.38,2.56.76,8.3,6.52,17.04,10.09,27.86,10.3l-3.25-39.2c-21.01-2.83-30.16-9.69-31.3-23.44-1.15-13.89,10.08-25.49,26.82-27.29l-.43-5.23c-.15-1.79,1.24-3.43,3.03-3.57ZM53.12,653.73l-3.11-37.55c-13.32,1.38-21.46,10.09-20.64,19.99.77,9.35,5.65,14.77,23.75,17.56ZM59.87,661.62l3.14,37.96c13.73-1.41,22.01-10.13,21.15-20.59-.79-9.49-6.08-14.87-24.29-17.38Z"/></g><g class="cls-11"><path class="cls-5" d="M306.32,26.19c.66,43.66.65,92.19,0,135.87-.65-43.69-.66-92.21,0-135.87h0Z"/><path class="cls-5" d="M306.32,26.19c-.66,43.67-.65,92.18,0,135.87.65-43.69.66-92.22,0-135.87h0Z"/><path class="cls-5" d="M268.84-51.45c.61,81.19.62,172.27,0,253.46-.62-81.19-.61-172.27,0-253.46h0Z"/><path class="cls-5" d="M268.84-51.45c-.61,81.19-.62,172.27,0,253.46.62-81.19.61-172.27,0-253.46h0Z"/><path class="cls-5" d="M248.58,35.36c.66,39.59.65,83.6,0,123.22-.65-39.62-.66-83.62,0-123.22h0Z"/><path class="cls-5" d="M248.58,35.36c-.66,39.6-.65,83.59,0,123.22.65-39.62.66-83.63,0-123.22h0Z"/><path class="cls-5" d="M148.44-2.1c.65,51.62.66,109.54,0,161.16-.66-51.62-.65-109.54,0-161.16h0Z"/><path class="cls-5" d="M148.44-2.1c-.65,51.62-.66,109.54,0,161.16.66-51.62.65-109.54,0-161.16h0Z"/><path class="cls-5" d="M166.57-41.76c.66,39.59.65,83.6,0,123.22-.65-39.62-.66-83.62,0-123.22h0Z"/><path class="cls-5" d="M166.57-41.76c-.66,39.6-.65,83.59,0,123.22.65-39.62.66-83.63,0-123.22h0Z"/><path class="cls-5" d="M20.69,913.79c.66,43.66.65,92.19,0,135.87-.65-43.69-.66-92.21,0-135.87h0Z"/><path class="cls-5" d="M20.69,913.79c-.66,43.67-.65,92.18,0,135.87.65-43.69.66-92.22,0-135.87h0Z"/><path class="cls-5" d="M292.45,753.54c.61,81.19.62,172.27,0,253.46-.62-81.19-.61-172.27,0-253.46h0Z"/><path class="cls-5" d="M292.45,753.53c-.61,81.19-.62,172.27,0,253.46.62-81.19.61-172.27,0-253.46h0Z"/><path class="cls-5" d="M116.39,188.8c.66,39.59.65,83.6,0,123.22-.65-39.62-.66-83.62,0-123.22h0Z"/><path class="cls-5" d="M116.39,188.8c-.66,39.6-.65,83.59,0,123.22.65-39.62.66-83.63,0-123.22h0Z"/><path class="cls-5" d="M375.06,724.98c.65,51.62.66,109.54,0,161.16-.66-51.62-.65-109.54,0-161.16h0Z"/><path class="cls-5" d="M375.06,724.98c-.65,51.62-.66,109.54,0,161.16.66-51.62.65-109.54,0-161.16h0Z"/><path class="cls-5" d="M126.44,933.18c.66,39.59.65,83.6,0,123.22-.65-39.62-.66-83.62,0-123.22h0Z"/><path class="cls-5" d="M126.44,933.18c-.66,39.6-.65,83.59,0,123.22.65-39.62.66-83.63,0-123.22h0Z"/><path class="cls-5" d="M183.74,411.09c.65,75.89.66,161.03,0,236.92-.66-75.89-.65-161.03,0-236.92h0Z"/><path class="cls-5" d="M183.74,411.09c-.65,75.89-.66,161.03,0,236.92.66-75.89.65-161.03,0-236.92h0Z"/><path class="cls-5" d="M223.42,595.13c.66,39.36.65,83.12,0,122.51-.65-39.4-.66-83.14,0-122.51h0Z"/><path class="cls-5" d="M223.42,595.13c-.66,39.37-.65,83.11,0,122.51.65-39.39.66-83.15,0-122.51h0Z"/><path class="cls-5" d="M58.17,536.11c.66,39.36.65,83.12,0,122.51-.65-39.4-.66-83.14,0-122.51h0Z"/><path class="cls-5" d="M58.17,536.11c-.66,39.37-.65,83.11,0,122.51.65-39.39.66-83.15,0-122.51h0Z"/><path class="cls-5" d="M331.38,531.15c.66,43.99.65,92.9,0,136.92-.65-44.03-.66-92.92,0-136.92h0Z"/><path class="cls-5" d="M331.38,531.15c-.66,44-.65,92.89,0,136.92.65-44.02.66-92.93,0-136.92h0Z"/><path class="cls-5" d="M279.09,539.5c.66,44.16.65,93.25,0,137.44-.65-44.2-.66-93.27,0-137.44h0Z"/><path class="cls-5" d="M279.09,539.5c-.66,44.17-.65,93.24,0,137.44.65-44.19.66-93.28,0-137.44h0Z"/><path class="cls-5" d="M229.32,362.03c.66,32.85.65,69.37,0,102.24-.65-32.88-.66-69.39,0-102.24h0Z"/><path class="cls-5" d="M229.32,362.03c-.66,32.86-.65,69.37,0,102.24.65-32.87.66-69.4,0-102.24h0Z"/><path class="cls-5" d="M203.51,728.47c.66,32.85.65,69.37,0,102.24-.65-32.88-.66-69.39,0-102.24h0Z"/><path class="cls-5" d="M203.51,728.47c-.66,32.86-.65,69.37,0,102.24.65-32.87.66-69.4,0-102.24h0Z"/><path class="cls-5" d="M165.35,751.69c.65,69.01.66,146.44,0,215.45-.66-69.01-.65-146.44,0-215.45h0Z"/><path class="cls-5" d="M165.35,751.69c-.65,69.01-.66,146.44,0,215.45.66-69.01.65-146.44,0-215.45h0Z"/><path class="cls-5" d="M56.62,279.46c.65,48.57.66,103.06,0,151.63-.66-48.57-.65-103.06,0-151.63h0Z"/><path class="cls-5" d="M56.62,279.46c-.65,48.57-.66,103.06,0,151.63.66-48.57.65-103.06,0-151.63h0Z"/><path class="cls-5" d="M468.53,714.3c.65,70.03.66,148.59,0,218.62-.66-70.03-.65-148.59,0-218.62h0Z"/><path class="cls-5" d="M468.53,714.3c-.65,70.03-.66,148.59,0,218.62.66-70.03.65-148.59,0-218.62h0Z"/><path class="cls-5" d="M646.26,778.97c.66,36.42.65,76.91,0,113.36-.65-36.45-.66-76.93,0-113.36h0Z"/><path class="cls-5" d="M646.26,778.97c-.66,36.43-.65,76.9,0,113.36.65-36.45.66-76.94,0-113.36h0Z"/><path class="cls-5" d="M437.64,781.28c.66,36.42.65,76.91,0,113.36-.65-36.45-.66-76.93,0-113.36h0Z"/><path class="cls-5" d="M437.64,781.28c-.66,36.43-.65,76.9,0,113.36.65-36.45.66-76.94,0-113.36h0Z"/><path class="cls-5" d="M513.25,858.96c.66,36.42.65,76.91,0,113.36-.65-36.45-.66-76.93,0-113.36h0Z"/><path class="cls-5" d="M513.25,858.96c-.66,36.43-.65,76.9,0,113.36.65-36.45.66-76.94,0-113.36h0Z"/><path class="cls-5" d="M573.63,755.8c.65,65.94.66,139.93,0,205.87-.66-65.94-.65-139.93,0-205.87h0Z"/><path class="cls-5" d="M573.63,755.8c-.65,65.94-.66,139.93,0,205.87.66-65.94.65-139.93,0-205.87h0Z"/></g></g></g></g></g></svg>