<?xml version="1.0" encoding="UTF-8"?><svg id="Capa_2" xmlns="http://www.w3.org/2000/svg" viewBox="0 0 313.82 785.61"><defs><style>.cls-1{fill:#339994;}.cls-1,.cls-2,.cls-3,.cls-4,.cls-5,.cls-6{stroke-width:0px;}.cls-2{fill:#ef6117;}.cls-3{fill:#ffc801;}.cls-4{fill:#9dc028;}.cls-5{fill:#fe902f;}.cls-6{fill:#fff;}</style></defs><g id="Capa_1-2"><path class="cls-4" d="M113.17,70.78v714.83h-18.05V70.78c0-4.99,4.03-9.02,9.02-9.02s9.02,4.03,9.02,9.02Z"/><path class="cls-1" d="M113.17,70.78v96l-18.05-5.56v-90.44c0-4.99,4.03-9.02,9.02-9.02s9.02,4.03,9.02,9.02Z"/><path class="cls-4" d="M208.42,557.78l-58.5,49.48-38.83,32.84c-1.71,1.44-3.76,2.14-5.83,2.14-2.56,0-5.11-1.08-6.89-3.19-3.22-3.82-2.74-9.5,1.05-12.72l36-30.44,58.14-49.18,14.86,11.07Z"/><polygon class="cls-1" points="208.42 557.78 149.92 607.26 135.43 595.89 193.56 546.71 208.42 557.78"/><path class="cls-4" d="M252.45,340.09l-68.54,57.96-72.82,61.6c-1.71,1.44-3.76,2.14-5.83,2.14-2.56,0-5.11-1.08-6.89-3.19-3.22-3.82-2.74-9.5,1.05-12.72l69.18-58.5,72.18-61.06c3.82-3.22,9.5-2.74,12.72,1.05,3.22,3.82,2.74,9.5-1.05,12.72Z"/><path class="cls-1" d="M252.45,340.09l-68.54,57.96-15.31-10.68,72.18-61.06c3.82-3.22,9.5-2.74,12.72,1.05,3.22,3.82,2.74,9.5-1.05,12.72Z"/><path class="cls-5" d="M171.93,67.79c0,37.45-30.35,67.79-67.79,67.79-19.36,0-36.83-8.11-49.17-21.14-11.54-12.14-18.62-28.58-18.62-46.65C36.34,30.35,66.71,0,104.14,0c17.11,0,32.75,6.34,44.68,16.8,14.16,12.43,23.11,30.66,23.11,50.99Z"/><path class="cls-2" d="M171.93,67.79c0,37.45-30.35,67.79-67.79,67.79-19.36,0-36.83-8.11-49.17-21.14l7.87-7.96L148.82,16.8c14.16,12.43,23.11,30.66,23.11,50.99Z"/><circle class="cls-3" cx="104.14" cy="67.79" r="63.44"/><path class="cls-2" d="M141.24,25.03c-9.94-8.62-22.91-13.85-37.1-13.85-30.35,0-55.09,23.88-56.53,53.87-.03.77-.07,1.54-.07,2.31v.43c0,14.97,5.81,28.58,15.29,38.7l.02.02c1.78,1.9,3.67,3.67,5.69,5.28,9.72,7.9,22.12,12.62,35.59,12.62,31.27,0,56.61-25.34,56.61-56.61,0-17.08-7.56-32.37-19.51-42.76ZM104.14,119.79c-11.8,0-22.68-3.93-31.39-10.58-2.4-1.82-4.65-3.84-6.7-6.05-8.62-9.28-13.89-21.72-13.89-35.37,0-.14,0-.29.02-.43,0-.77.03-1.54.07-2.31,1.42-27.45,24.09-49.26,51.9-49.26,12.94,0,24.79,4.73,33.9,12.58,11.08,9.52,18.11,23.64,18.11,39.42,0,28.72-23.28,52-52,52Z"/><path class="cls-6" d="M160.75,67.79c0,31.27-25.34,56.61-56.61,56.61-16.29,0-30.98-6.89-41.3-17.92l3.21-3.33c9.48,10.24,23.04,16.63,38.1,16.63,28.72,0,52-23.28,52-52,0-15.77-7.03-29.9-18.11-39.42l3.21-3.34c11.95,10.39,19.51,25.68,19.51,42.76Z"/><path class="cls-5" d="M255.14,553.03c0,28.03-22.72,50.75-50.75,50.75-14.49,0-27.57-6.07-36.81-15.83-8.64-9.09-13.94-21.4-13.94-34.92,0-28.03,22.73-50.75,50.75-50.75,12.81,0,24.51,4.75,33.45,12.58,10.6,9.31,17.3,22.95,17.3,38.17Z"/><path class="cls-4" d="M105.26,264.26C3.51,264.26.5,180.05.5,180.05c98.23,0,104.76,84.21,104.76,84.21Z"/><path class="cls-1" d="M105.26,264.26L.5,180.05c98.23,0,104.76,84.21,104.76,84.21Z"/><path class="cls-4" d="M104.77,264.26c101.75,0,104.76-84.21,104.76-84.21-98.23,0-104.76,84.21-104.76,84.21Z"/><path class="cls-1" d="M104.77,264.26l104.76-84.21c-98.23,0-104.76,84.21-104.76,84.21Z"/><path class="cls-4" d="M104.76,528.44C3.01,528.44,0,444.22,0,444.22c98.23,0,104.76,84.21,104.76,84.21Z"/><path class="cls-1" d="M104.76,528.44L0,444.22c98.23,0,104.76,84.21,104.76,84.21Z"/><path class="cls-2" d="M88.16,83.54c3.55,2.93,7.98,4.7,13.27,5.33v-17.38c-6.29-1.93-10.84-4.13-13.64-6.59-2.8-2.46-4.21-5.78-4.21-9.95,0-4.55,1.54-8.22,4.63-11.03s7.49-4.42,13.22-4.86v-9.72h5.51v9.72c3.49.25,6.64.84,9.44,1.78,2.8.93,4.74,1.81,5.8,2.62l1.5,1.22-5.05,7.57c-2.87-2.49-6.76-3.99-11.68-4.49v15.61c6.48,1.87,11.14,4.14,13.97,6.82,2.83,2.68,4.25,6.14,4.25,10.37,0,4.67-1.56,8.55-4.67,11.63-3.11,3.08-7.63,4.84-13.55,5.28v8.78h-5.51v-8.78c-3.68-.25-7.04-.95-10.09-2.1-3.05-1.15-5.17-2.23-6.35-3.22l-1.87-1.59,5.05-7.01ZM95.5,58.5c1.15,1.06,3.13,2.09,5.93,3.08v-13.83c-5.11.69-7.66,2.96-7.66,6.82,0,1.56.58,2.87,1.73,3.93ZM113.16,76.72c-1.15-1.18-3.22-2.34-6.22-3.46v15.51c5.3-.75,7.94-3.27,7.94-7.57,0-1.81-.58-3.3-1.73-4.49Z"/><path class="cls-5" d="M313.82,333.55c0,37.45-30.35,67.79-67.79,67.79-19.36,0-36.83-8.11-49.17-21.14-11.54-12.14-18.62-28.58-18.62-46.65,0-37.45,30.36-67.79,67.79-67.79,17.11,0,32.75,6.34,44.68,16.8,14.16,12.43,23.11,30.66,23.11,50.99Z"/><path class="cls-2" d="M313.82,333.55c0,37.45-30.35,67.79-67.79,67.79-19.36,0-36.83-8.11-49.17-21.14l7.87-7.96,85.98-89.69c14.16,12.43,23.11,30.66,23.11,50.99Z"/><circle class="cls-3" cx="246.03" cy="333.55" r="63.44"/><path class="cls-2" d="M283.13,290.79c-9.94-8.62-22.91-13.85-37.1-13.85-30.35,0-55.09,23.88-56.53,53.87-.03.77-.07,1.54-.07,2.31v.43c0,14.97,5.81,28.58,15.29,38.7l.02.02c1.78,1.9,3.67,3.67,5.69,5.28,9.72,7.9,22.12,12.62,35.59,12.62,31.27,0,56.61-25.34,56.61-56.61,0-17.08-7.56-32.37-19.51-42.76ZM246.02,385.55c-11.8,0-22.68-3.93-31.39-10.58-2.4-1.82-4.65-3.84-6.7-6.05-8.62-9.28-13.89-21.72-13.89-35.37,0-.14,0-.29.02-.43,0-.77.03-1.54.07-2.31,1.42-27.45,24.09-49.26,51.9-49.26,12.94,0,24.79,4.73,33.9,12.58,11.08,9.52,18.11,23.64,18.11,39.42,0,28.72-23.28,52-52,52Z"/><path class="cls-6" d="M302.64,333.55c0,31.27-25.34,56.61-56.61,56.61-16.29,0-30.98-6.89-41.3-17.92l3.21-3.33c9.48,10.24,23.04,16.63,38.1,16.63,28.72,0,52-23.28,52-52,0-15.77-7.03-29.9-18.11-39.42l3.21-3.34c11.95,10.39,19.51,25.68,19.51,42.76Z"/><path class="cls-5" d="M207.93,368.92l-3.19,3.34-.02-.02c-9.48-10.12-15.29-23.73-15.29-38.7v-.43c0-.77.03-1.54.07-2.31h4.63c-.03.77-.07,1.54-.07,2.31-.02.14-.02.29-.02.43,0,13.65,5.26,26.1,13.89,35.37Z"/><path class="cls-2" d="M230.05,349.3c3.55,2.93,7.98,4.7,13.27,5.33v-17.38c-6.29-1.93-10.84-4.13-13.64-6.59-2.8-2.46-4.21-5.78-4.21-9.95,0-4.55,1.54-8.22,4.63-11.03,3.08-2.8,7.49-4.42,13.22-4.86v-9.72h5.51v9.72c3.49.25,6.64.84,9.44,1.78,2.8.93,4.74,1.81,5.8,2.62l1.5,1.22-5.05,7.57c-2.87-2.49-6.76-3.99-11.68-4.49v15.61c6.48,1.87,11.14,4.14,13.97,6.82,2.83,2.68,4.25,6.14,4.25,10.37,0,4.67-1.56,8.55-4.67,11.63-3.11,3.08-7.63,4.84-13.55,5.28v8.78h-5.51v-8.78c-3.68-.25-7.04-.95-10.09-2.1-3.05-1.15-5.17-2.23-6.35-3.22l-1.87-1.59,5.05-7.01ZM237.38,324.25c1.15,1.06,3.13,2.09,5.93,3.08v-13.83c-5.11.69-7.66,2.96-7.66,6.82,0,1.56.58,2.87,1.73,3.93ZM255.05,342.47c-1.15-1.18-3.22-2.34-6.22-3.46v15.51c5.3-.75,7.94-3.27,7.94-7.57,0-1.81-.58-3.3-1.73-4.49Z"/><path class="cls-2" d="M255.14,553.03c0,28.03-22.72,50.75-50.75,50.75-14.49,0-27.57-6.07-36.81-15.83l5.89-5.96,64.37-67.14c10.6,9.31,17.3,22.95,17.3,38.17Z"/><circle class="cls-3" cx="204.4" cy="553.03" r="47.49"/><path class="cls-2" d="M232.17,521.02c-7.44-6.46-17.15-10.37-27.77-10.37-22.72,0-41.24,17.88-42.32,40.33-.03.58-.05,1.16-.05,1.73v.32c0,11.2,4.35,21.4,11.45,28.97h.01c1.33,1.44,2.75,2.76,4.26,3.97,7.28,5.92,16.56,9.45,26.65,9.45,23.41,0,42.38-18.97,42.38-42.38,0-12.78-5.66-24.23-14.61-32.01ZM204.39,591.96c-8.83,0-16.98-2.94-23.5-7.92-1.8-1.36-3.48-2.88-5.02-4.53-6.46-6.94-10.4-16.26-10.4-26.48,0-.1,0-.22.01-.32,0-.58.03-1.16.05-1.73,1.07-20.55,18.03-36.87,38.85-36.87,9.69,0,18.56,3.54,25.37,9.42,8.29,7.12,13.55,17.7,13.55,29.51,0,21.5-17.43,38.93-38.93,38.93Z"/><path class="cls-6" d="M246.77,553.03c0,23.41-18.97,42.38-42.38,42.38-12.19,0-23.19-5.16-30.92-13.41l2.4-2.49c7.1,7.66,17.25,12.45,28.52,12.45,21.5,0,38.93-17.43,38.93-38.93,0-11.81-5.26-22.38-13.55-29.51l2.4-2.5c8.95,7.78,14.61,19.23,14.61,32.01Z"/><path class="cls-5" d="M175.87,579.51l-2.39,2.5h-.01c-7.1-7.59-11.45-17.78-11.45-28.98v-.32c0-.58.03-1.16.05-1.73h3.47c-.03.58-.05,1.16-.05,1.73-.01.1-.01.22-.01.32,0,10.22,3.94,19.53,10.4,26.48Z"/><path class="cls-2" d="M191.56,565.68c2.85,2.35,6.41,3.78,10.66,4.28v-13.96c-5.06-1.55-8.71-3.32-10.96-5.29s-3.38-4.64-3.38-8c0-3.65,1.24-6.61,3.72-8.86s6.02-3.55,10.62-3.9v-7.81h4.43v7.81c2.8.2,5.33.68,7.58,1.43,2.25.75,3.8,1.45,4.66,2.1l1.2.98-4.05,6.08c-2.3-2-5.43-3.2-9.39-3.6v12.54c5.21,1.5,8.95,3.33,11.22,5.48s3.42,4.93,3.42,8.33c0,3.75-1.25,6.87-3.75,9.35-2.5,2.48-6.13,3.89-10.89,4.24v7.06h-4.43v-7.06c-2.95-.2-5.66-.76-8.11-1.69-2.45-.93-4.15-1.79-5.11-2.59l-1.5-1.28,4.05-5.63ZM197.45,545.56c.93.85,2.52,1.68,4.77,2.48v-11.11c-4.1.55-6.16,2.38-6.16,5.48,0,1.25.46,2.3,1.39,3.15ZM211.64,560.2c-.93-.95-2.59-1.88-4.99-2.78v12.46c4.25-.6,6.38-2.63,6.38-6.08,0-1.45-.46-2.65-1.39-3.6Z"/></g></svg>