<?xml version="1.0" encoding="UTF-8"?><svg id="Capa_2" xmlns="http://www.w3.org/2000/svg" viewBox="0 0 178.41 237.66"><defs><style>.cls-1{fill:#339994;}.cls-1,.cls-2,.cls-3,.cls-4,.cls-5,.cls-6{stroke-width:0px;}.cls-2{fill:#ef6117;}.cls-3{fill:#ffc801;}.cls-4{fill:#9dc028;}.cls-5{fill:#fe902f;}.cls-6{fill:#fff;}</style></defs><g id="Capa_1-2"><path class="cls-4" d="M96.9,46.81v190.85h-15.4V46.81c0-4.24,3.47-7.7,7.7-7.7s7.7,3.47,7.7,7.7Z"/><path class="cls-1" d="M96.9,46.81v65.64l-15.4-6.42v-59.23c0-4.24,3.47-7.7,7.7-7.7s7.7,3.47,7.7,7.7Z"/><path class="cls-4" d="M89.42,164.48C2.57,164.48,0,92.59,0,92.59c83.85,0,89.42,71.88,89.42,71.88Z"/><path class="cls-1" d="M89.42,164.48L0,92.59c83.85,0,89.42,71.88,89.42,71.88Z"/><path class="cls-4" d="M89,164.48c86.85,0,89.42-71.88,89.42-71.88-83.85,0-89.42,71.88-89.42,71.88Z"/><path class="cls-1" d="M89,164.48l89.42-71.88c-83.85,0-89.42,71.88-89.42,71.88Z"/><path class="cls-5" d="M135.09,45.89c0,25.34-20.54,45.89-45.89,45.89-13.1,0-24.93-5.49-33.28-14.31-7.81-8.22-12.6-19.35-12.6-31.58C43.32,20.54,63.87,0,89.2,0c11.58,0,22.17,4.29,30.24,11.37,9.59,8.41,15.64,20.75,15.64,34.51Z"/><path class="cls-2" d="M135.09,45.89c0,25.34-20.54,45.89-45.89,45.89-13.1,0-24.93-5.49-33.28-14.31l5.33-5.38L119.45,11.37c9.59,8.41,15.64,20.75,15.64,34.51Z"/><circle class="cls-3" cx="89.21" cy="45.89" r="42.94"/><path class="cls-2" d="M114.32,16.94c-6.73-5.84-15.5-9.38-25.11-9.38-20.54,0-37.29,16.17-38.26,36.46-.02.52-.05,1.04-.05,1.57v.29c0,10.13,3.93,19.35,10.35,26.19h.01c1.21,1.3,2.48,2.5,3.85,3.59,6.58,5.35,14.97,8.54,24.09,8.54,21.17,0,38.32-17.15,38.32-38.32,0-11.56-5.12-21.91-13.21-28.94ZM89.2,81.08c-7.98,0-15.35-2.66-21.25-7.16-1.62-1.23-3.14-2.6-4.54-4.1-5.84-6.28-9.4-14.7-9.4-23.94,0-.09,0-.2.01-.29,0-.52.02-1.04.05-1.57.96-18.58,16.3-33.34,35.13-33.34,8.76,0,16.78,3.2,22.94,8.52,7.5,6.44,12.25,16,12.25,26.68,0,19.44-15.76,35.2-35.2,35.2Z"/><path class="cls-6" d="M127.52,45.89c0,21.17-17.15,38.32-38.32,38.32-11.02,0-20.97-4.67-27.96-12.13l2.17-2.25c6.42,6.93,15.6,11.26,25.79,11.26,19.44,0,35.2-15.76,35.2-35.2,0-10.68-4.76-20.24-12.25-26.68l2.17-2.26c8.09,7.03,13.21,17.38,13.21,28.94Z"/><path class="cls-5" d="M63.42,69.83l-2.16,2.26h-.01c-6.42-6.86-10.35-16.07-10.35-26.2v-.29c0-.52.02-1.04.05-1.57h3.13c-.02.52-.05,1.04-.05,1.57-.01.09-.01.2-.01.29,0,9.24,3.56,17.66,9.4,23.94Z"/><path class="cls-2" d="M78.25,56.68c2.44,2.01,5.47,3.23,9.1,3.65v-11.92c-4.31-1.32-7.43-2.83-9.36-4.52-1.92-1.69-2.88-3.96-2.88-6.82,0-3.12,1.06-5.64,3.17-7.56,2.11-1.92,5.14-3.03,9.07-3.33v-6.67h3.78v6.67c2.39.17,4.55.58,6.47,1.22,1.92.64,3.25,1.24,3.97,1.79l1.03.83-3.46,5.19c-1.97-1.71-4.64-2.73-8.01-3.08v10.7c4.44,1.28,7.64,2.84,9.58,4.68,1.94,1.84,2.92,4.21,2.92,7.11,0,3.2-1.07,5.86-3.2,7.98-2.14,2.11-5.23,3.32-9.29,3.62v6.02h-3.78v-6.02c-2.52-.17-4.83-.65-6.92-1.44-2.09-.79-3.55-1.53-4.36-2.21l-1.28-1.09,3.46-4.81ZM83.28,39.51c.79.73,2.15,1.43,4.07,2.11v-9.48c-3.5.47-5.25,2.03-5.25,4.68,0,1.07.4,1.96,1.19,2.69ZM95.39,52.01c-.79-.81-2.21-1.6-4.26-2.37v10.64c3.63-.51,5.45-2.24,5.45-5.19,0-1.24-.4-2.26-1.19-3.08Z"/></g></svg>