<?xml version="1.0" encoding="UTF-8"?><svg id="Capa_2" xmlns="http://www.w3.org/2000/svg" viewBox="0 0 1349.91 892.33"><defs><style>.cls-1{fill:#313e47;}.cls-1,.cls-2,.cls-3,.cls-4,.cls-5,.cls-6,.cls-7,.cls-8,.cls-9,.cls-10{stroke-width:0px;}.cls-2{fill:#f8be43;}.cls-3{fill:#eceaec;}.cls-4{fill:#000;}.cls-5{fill:#087076;}.cls-6{fill:#1d262d;}.cls-7{fill:#008189;}.cls-8{fill:#deddde;}.cls-9{fill:#f6af26;}.cls-10{fill:#fff;}</style></defs><g id="Capa_1-2"><path class="cls-7" d="M84.16,27.92c-2.39,5.78-3.78,12.15-3.78,18.88v54.65s0,737.55,0,737.55v6.52c0,25.85,19.61,46.8,43.8,46.8h26.77s307.67,0,307.67,0h149.32s307.68,0,307.68,0h357.56s29.76,0,29.76,0c24.15,0,43.73-20.89,43.79-46.69-.41-10.05,3.17-780.67,3.17-780.67,0-25.85-19.62-46.8-43.8-46.8H110.86c-10.06,0-19.3,3.67-26.7,9.76ZM97.01,845.7c2.41,10.25,9.73,18.67,18.36,23.6,8.84,4.84,18.88,6.74,28.79,6.8l60.05-.13,120.13-.31,240.25-.56c80.08-.27,160.17-.37,240.25-.15,80.08.53,160.17.58,240.25,1.64l.19.2-.19.2c-80.08,1.04-160.17,1.11-240.25,1.64-80.08.22-160.17.11-240.25-.15l-240.25-.57-120.13-.31-60.07-.22c-10.04-.12-20.25-2.11-29.26-7.11-8.83-5.15-16.29-13.74-18.73-24.44v-.06s0-.03,0-.03l.24-93.04.18-.2.19.2.24,93Z"/><path class="cls-3" d="M1290.24,838.51l1.6-787.07-1164.8,1.73v786s1163.19-.65,1163.19-.65Z"/><path class="cls-8" d="M1289.93,840.19l.96-788.75-1163.47,1.68s332.51-30.12,839.04,251.04c362.29,201.1,323.47,536.03,323.47,536.03Z"/><path class="cls-5" d="M1291.88,18.16c24.19,0,43.8,20.95,43.8,46.8,0,0,12.9,770.62,13.31,780.67,0,.16.01.13.01-.11v-78.65s0-52.49,0-52.49v-316.3s0-52.49,0-52.49V46.8C1349,20.95,1329.39,0,1305.2,0h-466.25s-161.11,0-161.11,0h-295.88S220.84,0,220.84,0h-96.65c-2.72,0-5.35.35-7.93.85-.77.15-1.53.36-2.28.56-1.86.48-3.66,1.08-5.42,1.8-.71.3-1.44.56-2.14.89-2.27,1.08-4.47,2.31-6.52,3.78-.38.27-.71.61-1.08.89-1.66,1.27-3.24,2.65-4.72,4.16-.65.66-1.26,1.36-1.87,2.06-1.15,1.32-2.22,2.72-3.23,4.18-.51.74-1.05,1.45-1.51,2.22-1.27,2.09-2.43,4.27-3.37,6.57.02-.02.04-.03.06-.04,7.4-6.09,16.64-9.76,26.7-9.76h1181.01Z"/><path class="cls-10" d="M1254.88,876.8l-.19-.2c-80.08-1.06-369.76-1.11-449.85-1.64-80.08-.22-160.17-.12-240.25.15l-240.25.56-120.13.31-60.05.12c-9.92-.06-19.95-1.96-28.79-6.8-8.64-4.93-15.95-13.36-18.36-23.6l-.24-92.99-.19-.2-.18.2-.24,93.04v.03s0,.06,0,.06c2.44,10.7,9.9,19.3,18.73,24.44,9.01,5,19.22,6.99,29.26,7.11l60.07.22,120.13.31,240.25.57c80.08.26,160.17.37,240.25.15,80.08-.53,369.76-.6,449.85-1.64l.19-.2Z"/><path class="cls-1" d="M75.46,579.68v37.12c0,11.51,7.68,20.86,17.51,22.03.67.08,1.32.23,2.01.23h28.27s8.09,0,8.09,0c10.75,0,19.47-9.92,19.51-22.17-.26-3.91-7.35-333.55-7.35-333.55,0-12.29-8.74-22.26-19.52-22.26h-36.37c-3.29,0-6.39.94-9.11,2.58-1.91,3.44-3.05,7.49-3.05,11.86v48.66s0,255.5,0,255.5ZM130.73,629.19l-.11.12c-4.52.74-9.02,1.03-13.52,1.22-4.5.17-9-.13-13.51-.28-4.59-.08-9.31-1.03-13.38-3.66-4.01-2.66-7.11-7.22-7.8-12.41l.1-.16.14.1v.02c1,5,4.25,9.08,8.13,11.25,3.93,2.23,8.4,2.88,12.8,2.69,4.51-.15,9.02-.45,13.54-.28,4.51.19,9.02.48,13.52,1.22l.1.16Z"/><path class="cls-2" d="M78.57,263.54c.82-1.46,1.78-2.8,2.87-4-1.09,1.2-2.05,2.54-2.87,4Z"/><path class="cls-2" d="M81.91,259.09c.93-.97,1.95-1.82,3.03-2.57-1.08.75-2.09,1.6-3.03,2.57Z"/><path class="cls-9" d="M86.15,373.59c.03-.05.07-.1.1-.15-.03.05-.07.1-.1.15Z"/><path class="cls-6" d="M43.01,400.12c-15.54,0-29.21,8.49-37.23,21.34-3.52,6.66-5.58,14.31-5.73,22.47,0,.33-.05.66-.05.99,0,26.4,20.03,47.8,44.74,47.8,2.52,0,4.97-.27,7.37-.7,6.14-1.09,11.87-3.47,16.9-6.94l6.14,6.55v14.63c0,4.64,1.77,8.85,4.62,11.88,2.84,3.03,6.76,4.9,11.08,4.9h6.3c5.12,0,9.63-2.66,12.49-6.71.93-2.15,1.47-4.53,1.47-7.05v-122.68c0-9.26-7.03-16.77-15.71-16.77h-6.3c-5.03,0-9.48,2.55-12.36,6.49-1,2.21-1.61,4.66-1.61,7.27v14.63s-7.55,9.75-7.55,9.75c-6.99-4.83-15.64-7.83-24.58-7.83ZM9.18,447.92c0-4.46,1.37-8.56,3.65-11.9-.08.17-.11.36-.18.53,2.98-6.97,9.52-11.83,17.16-11.83,10.44,0,18.9,9.04,18.9,20.19,0,4.52-1.44,8.65-3.79,12.02.03-.05.08-.08.11-.13-3.08,6.7-9.5,11.32-16.96,11.32-10.44,0-18.9-9.04-18.9-20.2ZM52.76,487.39c-1.52.45-3.1.62-4.65.92-1.58.11-3.15.3-4.74.24-3.16-.01-6.32-.44-9.37-1.3-6.12-1.63-11.79-4.88-16.6-9.13-4.78-4.29-8.87-9.43-11.93-15.2l.03-.13.12.04c3.25,5.61,7.5,10.53,12.33,14.54,4.83,4.03,10.43,7,16.37,8.39,2.96.71,6.01,1,9.03.89,3.02-.05,6.04-.45,9.01-1.13,5.97-1.26,11.71-3.69,17.31-6.5l.12.04-.03.12c-5.11,3.78-10.9,6.57-17.01,8.21ZM100.39,519.27l.08.11-.08.08c-2.33.35-4.65.55-6.97.71-1.17.07-2.31.13-3.5.15-.62-.05-1.25-.05-1.87-.15-.61-.16-1.25-.24-1.83-.52-2.4-.95-4.35-2.87-5.62-5.08-1.3-2.22-2.12-4.64-2.51-7.2h0s0-.08,0-.08l.43-13.92.09-.1.09.1.43,13.85c.47,2.31,1.38,4.61,2.65,6.52,1.26,1.94,3.07,3.36,5.06,4.07l1.53.41c.52.11,1.06.12,1.59.18l3.47.17c2.33.16,4.65.35,6.97.71Z"/><path class="cls-9" d="M35,464.24c-.31.09-.6.22-.91.3.31-.08.6-.21.91-.3Z"/><path class="cls-9" d="M11.36,440.65c.13-.62.34-1.19.52-1.79-.18.6-.39,1.17-.52,1.79Z"/><path class="cls-9" d="M10.92,444.91c0-.63.12-1.22.17-1.84-.05.62-.2,1.2-.2,1.83,0,9.76,6.49,17.91,15.11,19.78-8.61-1.89-15.08-10.02-15.08-19.78Z"/><path class="cls-9" d="M42.31,459.96c-.2.19-.41.36-.61.54.21-.18.41-.35.61-.54Z"/><path class="cls-9" d="M38.96,462.48c-.29.18-.59.36-.89.52.31-.16.59-.34.89-.52Z"/><path class="cls-9" d="M6.32,420.52c.59-1.07,1.21-2.12,1.88-3.13-.67,1.01-1.29,2.06-1.88,3.13Z"/><path class="cls-9" d="M88.18,370.86c-.06.06-.13.11-.19.18-.07.08-.12.17-.19.25.12-.15.25-.29.38-.43Z"/><path class="cls-9" d="M90.2,368.97s-.07.06-.11.09c.04-.03.07-.07.11-.09Z"/><path class="cls-9" d="M92.95,367.33c-.12.06-.25.1-.37.16.12-.06.25-.11.37-.16Z"/><path class="cls-9" d="M95.7,366.41c-.18.04-.36.09-.54.14.18-.05.36-.1.54-.14Z"/><path class="cls-6" d="M150.86,616.81v-80.48s0-19.92,0-19.92v-240.88c0-12.29-8.74-22.26-19.52-22.26h-8.09s-28.27,0-28.27,0c-1.59,0-3.11.27-4.58.68-.44.12-.84.29-1.27.45-1.05.38-2.07.85-3.03,1.41-.39.23-.77.45-1.15.71-1.08.75-2.1,1.6-3.03,2.57-.15.16-.33.28-.47.45-1.09,1.2-2.05,2.55-2.87,4-.03.05-.08.1-.11.15.02,0,.03-.01.05-.02,2.72-1.64,5.82-2.58,9.11-2.58h36.37c10.78,0,19.52,9.97,19.52,22.26,0,0,7.09,329.64,7.35,333.55,0,.07,0,.07,0-.09Z"/><path class="cls-4" d="M45.04,456.8s-.08.08-.11.13c-.77,1.11-1.66,2.11-2.62,3.03-.2.19-.41.36-.61.54-.85.74-1.77,1.4-2.73,1.98-.3.18-.58.36-.89.52-.98.51-2.01.91-3.07,1.24-.31.1-.6.22-.91.3-1.38.35-2.82.56-4.3.56-1.3,0-2.57-.14-3.8-.41-8.62-1.88-15.11-10.02-15.11-19.78,0-.63.15-1.22.2-1.83.07-.82.11-1.64.27-2.43.13-.62.34-1.19.52-1.79.23-.78.46-1.57.78-2.3.07-.17.1-.36.18-.53-2.29,3.34-3.65,7.44-3.65,11.9,0,11.15,8.46,20.2,18.9,20.2,7.45,0,13.88-4.62,16.96-11.32Z"/><path class="cls-4" d="M89.11,369.81h6.3c8.67,0,15.71,7.51,15.71,16.77v122.68c0,2.52-.54,4.9-1.47,7.05,0,.02,0,.04-.02.05.03-.04.05-.09.08-.14.38-.54.71-1.11,1.02-1.7.14-.26.27-.52.4-.79.27-.57.51-1.16.72-1.76.12-.34.21-.69.3-1.04.16-.59.33-1.18.43-1.79.07-.42.08-.85.12-1.27.05-.55.13-1.08.13-1.65v-122.67c0-8.11-5.38-14.86-12.53-16.43-1.03-.23-2.09-.35-3.18-.35h-6.3c-1,0-1.96.13-2.9.32-.19.04-.38.09-.58.14-.8.2-1.58.45-2.34.78-.13.06-.27.1-.39.16-.88.41-1.73.89-2.52,1.46-.04.03-.08.06-.12.09-.72.53-1.39,1.13-2.02,1.78-.14.14-.27.28-.4.43-.6.67-1.16,1.37-1.65,2.14-.03.05-.07.1-.1.15-.45.71-.86,1.45-1.2,2.24.04-.06.1-.11.15-.17,2.87-3.94,7.32-6.49,12.36-6.49Z"/><path class="cls-10" d="M117.12,627.82c-4.51-.17-9.03.13-13.54.28-4.4.19-8.87-.46-12.8-2.69-3.88-2.17-7.13-6.25-8.13-11.25v-.02s-.14-.1-.14-.1l-.1.16c.69,5.19,3.79,9.75,7.8,12.41,4.07,2.63,8.79,3.58,13.38,3.66,4.51.15,9,.45,13.51.28,4.51-.19,9.01-.48,13.52-1.22l.11-.12-.1-.16c-4.5-.74-9.01-1.03-13.52-1.22Z"/><path class="cls-10" d="M69.81,479.06l-.12-.04c-5.61,2.81-11.34,5.25-17.31,6.5-2.96.69-5.98,1.08-9.01,1.13-3.02.11-6.07-.18-9.03-.89-5.94-1.39-11.54-4.36-16.37-8.39-4.83-4.01-9.09-8.94-12.33-14.54l-.12-.04-.03.13c3.06,5.77,7.15,10.91,11.93,15.2,4.8,4.25,10.47,7.5,16.6,9.13,3.05.86,6.21,1.29,9.37,1.3,1.58.06,3.16-.13,4.74-.24,1.55-.3,3.13-.47,4.65-.92,6.11-1.64,11.9-4.43,17.01-8.21l.03-.12Z"/><path class="cls-10" d="M89.95,518.39c-.53-.07-1.08-.07-1.59-.18l-1.53-.41c-1.99-.71-3.79-2.13-5.06-4.07-1.27-1.91-2.18-4.2-2.65-6.52l-.43-13.85-.09-.1-.09.1-.43,13.92v.07s0,.01,0,.01c.39,2.57,1.21,4.99,2.51,7.2,1.27,2.21,3.23,4.13,5.62,5.08.58.27,1.22.36,1.83.52.62.1,1.25.1,1.87.15,1.19-.01,2.33-.07,3.5-.15,2.33-.15,4.65-.35,6.97-.71l.08-.08-.08-.11c-2.33-.36-4.65-.55-6.97-.71l-3.47-.17Z"/></g></svg>