<?xml version="1.0" encoding="UTF-8"?><svg id="Capa_2" xmlns="http://www.w3.org/2000/svg" viewBox="0 0 102.93 95.64"><defs><style>.cls-1{fill:#ffcc1d;}.cls-1,.cls-2{stroke-width:0px;}.cls-2{fill:#dfa241;}.cls-3{letter-spacing:0em;}.cls-4{fill:#3066bb;font-family:CenturyGothicPro-Bold, 'Century Gothic Pro';font-size:12.31px;font-weight:700;}</style></defs><g id="Capa_1-2"><path class="cls-2" d="M51.63,64.86h-10.05l.78,8.71c.23,2.61,2.43,4.62,5.05,4.62h8.09c2.63,0,4.82-2,5.05-4.62l.78-8.71h-9.71Z"/><path class="cls-1" d="M51.63,0h0s-.03,0-.05,0c-.04,0-.08,0-.12,0-.04,0-.08,0-.12,0-.02,0-.03,0-.05,0h0c-14.96.16-27.03,12.33-27.03,27.32,0,7.77,2.79,14.42,7.89,19.51,1.89,1.88,4.1,4.27,6.15,8.72.55,1.18,1.51,3.89,2.26,6.07h21.8c.75-2.18,1.72-4.89,2.26-6.07,2.05-4.44,4.26-6.83,6.15-8.72,5.1-5.09,7.89-11.74,7.89-19.51C78.67,12.33,66.59.16,51.63,0ZM59.28,44.35c-1.75,2.21-3.62,2.72-5.83,3.19v5.58h-3.92v-5.45c-3.11-.34-6.13-1.62-9.49-5.24l3.96-4.04c2.43,2.55,4.77,4.04,7.32,4.04,2.34,0,4.39-1.79,4.39-4.22,0-1.23-.55-2.55-1.32-3.07-2.09-1.41-4.6-2.72-7.37-3.92-2.64-1.15-5.53-4.22-5.53-7.96,0-4.34,3.58-7.54,8.05-7.75v-2.09h3.92v2.34c3.36.81,4.9,2.21,6.73,4.04l-4,3.92c-1.79-1.83-3.62-2.85-5.45-2.85-2.09,0-3.53,1.32-3.53,2.9,0,2.21,1.7,2.64,8.35,5.53,3.24,1.4,5.88,4.64,5.88,8.94,0,2.3-.77,4.34-2.13,6.09Z"/><text class="cls-4" transform="translate(0 92.93)"><tspan x="0" y="0">C</tspan><tspan class="cls-3" x="9.6" y="0">r</tspan><tspan x="13.44" y="0">édito O</tspan><tspan class="cls-3" x="57.74" y="0">r</tspan><tspan x="61.58" y="0">dinario</tspan></text></g></svg>