<?xml version="1.0" encoding="UTF-8"?><svg id="Capa_2" xmlns="http://www.w3.org/2000/svg" viewBox="0 0 117.18 99.28"><defs><style>.cls-1{fill:#e0a342;}.cls-1,.cls-2{stroke-width:0px;}.cls-3{letter-spacing:-.03em;}.cls-2{fill:#ffcc21;}.cls-4{letter-spacing:0em;}.cls-5{fill:#3066bb;font-family:CenturyGothicPro-Bold, 'Century Gothic Pro';font-size:12.31px;font-weight:700;}</style></defs><g id="Capa_1-2"><text class="cls-5" transform="translate(0 96.57)"><tspan x="0" y="0">C</tspan><tspan class="cls-4" x="9.6" y="0">r</tspan><tspan x="13.44" y="0">édito </tspan><tspan class="cls-3" x="47.4" y="0">A</tspan><tspan x="56.14" y="0">utomatico</tspan></text><path class="cls-1" d="M73.22,85.25c-1.61,0-3.21,0-4.82,0-2.17,0-4.34-.02-6.52-.04-1.63-.01-3.26-.03-4.9-.04-1.17-.01-2.35-.02-3.52-.04-1.19-.02-2.38-.02-3.56-.08-1.49-.08-2.93-.43-4.34-.87-3.14-.97-5.9-2.6-8.36-4.78-2.37-2.11-4.32-4.53-5.72-7.39-1-2.03-1.67-4.17-2.04-6.41-.27-1.62-.4-3.25-.35-4.89.09-2.79.74-5.46,1.72-8.07.83-2.2,2.08-4.13,3.62-5.88,1.17-1.33,2.38-2.64,3.55-3.97,1.91-2.17,3.51-4.53,4.51-7.26.68-1.86,1.17-3.77,1.55-5.72.26-1.35.45-2.72.52-4.1.08-1.56.03-3.12-.29-4.67-.26-1.24-.39-2.5-.3-3.77.1-1.59.47-3.1,1.42-4.42.71-.99,1.65-1.64,2.87-1.83,1.09-.17,2.13.05,3.13.49,1.06.46,1.98,1.16,2.85,1.9,1.8,1.52,3.16,3.37,4.23,5.45,1.35,2.65,2.25,5.45,2.9,8.35.44,1.95.76,3.92,1.03,5.9.13.93.24,1.87.37,2.8.08.57.4.98.89,1.25.69.39,1.44.51,2.23.51,2.16,0,4.33.03,6.49.04,1.95.01,3.89.03,5.84.04,1.58.01,3.17.01,4.75.05.75.02,1.5-.03,2.25.09,1.47.23,2.73.88,3.82,1.88,1.2,1.1,2.04,2.43,2.37,4.03.5,2.38,0,4.56-1.45,6.52-.09.12-.17.25-.28.35-.14.13-.11.22,0,.35.59.71,1.07,1.49,1.38,2.36,1.09,3.07.53,5.81-1.66,8.21-.53.58-1.15,1.05-1.82,1.45-.14.08-.14.14-.07.27.59,1.18.93,2.42.87,3.75-.1,2.26-.98,4.16-2.7,5.65-.4.35-.84.66-1.3.92-.17.1-.18.18-.1.35.53,1.13.86,2.32.86,3.57,0,1.92-.66,3.61-1.92,5.05-1.11,1.28-2.49,2.13-4.15,2.51-.45.1-.9.16-1.36.15-1.5,0-3.01,0-4.51,0v-.02ZM55.9,76.58c0,.77,0,1.54,0,2.32,0,.17.03.24.22.23,1.07,0,2.14,0,3.22,0,.17,0,.21-.05.21-.22,0-1.59,0-3.18,0-4.78,0-.14.04-.2.18-.23.31-.06.61-.13.92-.21,1.12-.28,2.2-.68,3.08-1.45,2.62-2.31,3.67-5.22,3.04-8.64-.58-3.16-2.47-5.34-5.39-6.64-1.54-.69-3.11-1.32-4.65-2.03-.71-.33-1.42-.67-2.05-1.15-.84-.64-1.15-1.57-.85-2.56.29-.94.96-1.51,1.86-1.81,1.2-.41,2.37-.23,3.5.29,1.05.48,1.94,1.19,2.74,2.01.11.11.17.13.29,0,.38-.39.76-.76,1.15-1.14.78-.76,1.55-1.52,2.33-2.27.07-.07.1-.11.01-.2-.66-.65-1.32-1.29-2.06-1.84-1.18-.88-2.5-1.43-3.92-1.78-.14-.03-.19-.08-.18-.23,0-.61,0-1.22,0-1.82,0-.13-.03-.17-.17-.17-1.1,0-2.2,0-3.3,0-.15,0-.18.05-.18.19,0,.48,0,.96,0,1.43q0,.32-.32.35c-1.27.1-2.46.46-3.57,1.09-2.82,1.61-4.2,4.76-3.35,7.83.75,2.7,2.51,4.58,5.04,5.72,2.29,1.03,4.53,2.13,6.62,3.53.31.21.55.47.74.78.35.59.54,1.23.57,1.9.12,2.4-1.83,4.09-3.95,4.13-1.26.03-2.41-.34-3.49-.95-1.18-.67-2.19-1.55-3.14-2.51-.28-.29-.29-.29-.57,0-1.1,1.12-2.19,2.23-3.29,3.35-.09.09-.11.14,0,.24.29.29.57.59.87.87,1.06,1.01,2.21,1.9,3.52,2.58,1.29.67,2.66,1.1,4.1,1.26.19.02.24.08.24.28-.01.76,0,1.52,0,2.27Z"/><path class="cls-2" d="M59.91,8.62c0-.73.22-1.31.67-1.78,1.6-1.69,3.24-3.34,4.91-4.96.36-.35.74-.69,1.09-1.06,1.34-1.41,3.7-.92,4.56.77.55,1.07.42,2.36-.48,3.28-1.46,1.49-2.92,2.99-4.42,4.45-.53.52-1.07,1.03-1.61,1.54-.22.21-.5.32-.78.44-1.6.7-3.5-.38-3.86-2.03-.05-.24-.11-.48-.09-.65Z"/><path class="cls-2" d="M39.81,11.56c-.68,0-1.26-.24-1.75-.71-1.55-1.48-3.07-2.99-4.57-4.52-.47-.48-.92-.97-1.4-1.44-1.04-1.01-1.07-2.56-.27-3.66C32.41.41,33.23,0,34.25,0c.69,0,1.3.25,1.81.74,1.18,1.13,2.35,2.27,3.49,3.43.81.82,1.6,1.65,2.4,2.47.3.3.48.67.65,1.05.26.54.21,1.07.08,1.63-.36,1.62-1.78,2.23-2.87,2.25Z"/><path class="cls-2" d="M31.3,17.25c1.01,0,2.02,0,3.03,0,1.24.01,2.37.9,2.66,2.25.29,1.36-.4,2.73-1.68,3.27-.35.15-.71.22-1.09.22-1.91,0-3.81-.02-5.72,0-1.59.02-2.72-1.13-2.91-2.45-.21-1.38.62-2.77,1.96-3.18.32-.1.65-.12.99-.12.92,0,1.84,0,2.77,0,0,0,0,0,0,.01Z"/><path class="cls-2" d="M71.42,17.25c1.02,0,2.03-.02,3.05,0,1.22.03,2.24.85,2.59,2.05.45,1.56-.42,3.14-1.97,3.58-.25.07-.5.11-.77.11-1.93,0-3.85,0-5.78,0-1.44,0-2.58-.97-2.81-2.38-.26-1.54.64-2.92,2.13-3.29.26-.06.53-.07.79-.07.92,0,1.84,0,2.77,0,0,0,0,0,0,.01Z"/></g></svg>