<?xml version="1.0" encoding="UTF-8"?><svg id="Capa_2" xmlns="http://www.w3.org/2000/svg" viewBox="0 0 130.98 89.54"><defs><style>.cls-1{fill:#ffcc1d;}.cls-1,.cls-2{stroke-width:0px;}.cls-2{fill:#dfa241;}.cls-3{letter-spacing:0em;}.cls-4{fill:#3066bb;font-family:CenturyGothicPro-Bold, 'Century Gothic Pro';font-size:12.31px;font-weight:700;}</style></defs><g id="Capa_1-2"><text class="cls-4" transform="translate(0 86.83)"><tspan x="0" y="0">C</tspan><tspan class="cls-3" x="9.6" y="0">r</tspan><tspan x="13.44" y="0">édito C</tspan><tspan class="cls-3" x="57" y="0">r</tspan><tspan x="60.84" y="0">ediSolidario</tspan></text><circle class="cls-1" cx="51.77" cy="5.32" r="5.32"/><circle class="cls-2" cx="79.22" cy="5.32" r="5.32"/><path class="cls-2" d="M84.05,13.24c-6.99-2.08-12.72.92-15.89,3.28v1.36c4.63,1.12,6.75,3.07,9.28,5.6l-5.55,5.43c-1.23-1.26-2.48-2.24-3.74-2.91v9.41c.87.37,1.81.78,2.85,1.23,4.49,1.95,8.15,6.43,8.15,12.39,0,3.19-1.06,6.02-2.95,8.44-2.41,3.06-4.99,3.77-8.04,4.42v5.89c5.91-3.52,19.98-12.78,25.11-24.05,6.73-14.8,3.21-26.79-9.22-30.49Z"/><path class="cls-2" d="M69.42,44.73c-.41-.27-.83-.54-1.26-.81v10.15c1.82-.98,3.09-2.84,3.09-5.09,0-1.71-.77-3.54-1.83-4.25Z"/><path class="cls-1" d="M49.53,54.82l5.49-5.61c2.58,2.72,5.09,4.56,7.72,5.27v-13.57c-1.14-.56-2.31-1.1-3.53-1.62-3.66-1.59-7.67-5.84-7.67-11.04,0-6.02,4.96-10.45,11.16-10.74v-1.08c-3.19-2.35-8.86-5.25-15.76-3.2-12.43,3.7-15.95,15.69-9.22,30.49,5.09,11.2,19,20.41,24.98,23.98v-5.63c-4.31-.47-8.5-2.24-13.16-7.26Z"/><path class="cls-1" d="M62.74,25.16c-2,.54-3.29,2.06-3.29,3.81s.8,2.73,3.29,4.01v-7.81Z"/></g></svg>