<?xml version="1.0" encoding="UTF-8"?><svg id="Capa_2" xmlns="http://www.w3.org/2000/svg" viewBox="0 0 113.02 85.8"><defs><style>.cls-1{fill:#e0a342;stroke-width:0px;}.cls-2{letter-spacing:0em;}.cls-3{fill:#3066bb;font-family:CenturyGothicPro-Bold, 'Century Gothic Pro';font-size:12.31px;font-weight:700;}</style></defs><g id="Capa_1-2"><path class="cls-1" d="M95.68,34.84h-19.77c-1.58,0-2.86-1.28-2.86-2.86s1.28-2.86,2.86-2.86h1.23c.2.02.4.03.6.03h4.23c3.23,0,5.85-2.62,5.85-5.85s-2.62-5.85-5.85-5.85h-2.95c-.2-.02-.4-.03-.6-.03h-2.52c-.23,0-.45-.03-.66-.08-.18-.11-.38-.18-.59-.21-.95-.46-1.61-1.44-1.61-2.57,0-1.58,1.28-2.86,2.86-2.86h15.39c3.23,0,5.85-2.62,5.85-5.85s-2.62-5.85-5.85-5.85h-40.08c-5.56,0-10.79,1.41-15.35,3.9-8.58-5.29-16.76-1.5-16.76-1.5.12,7.11,2.02,11.5,4.01,14.16-1.67,3.01-2.87,6.32-3.51,9.83l-5.01,1.21c-2.14.46-3.5,2.57-3.03,4.71l3.3,11.8c.81,3.19,3.92,5.23,7.17,4.7l1.6-.23c1.5,2.5,3.32,4.77,5.42,6.76l.99,7.24c.29,2.1,2.08,3.67,4.21,3.67h2.24c2.19,0,4-1.67,4.22-3.81,3.29,1.14,6.81,1.75,10.48,1.75.1,0,21.83-.24,21.83-.24h13.64c3.23,0,5.85-2.62,5.85-5.85h0c0-3.23-2.62-5.85-5.85-5.85h-10.77c-1.58,0-2.86-1.28-2.86-2.86s1.28-2.86,2.86-2.86h19.77c3.23,0,5.85-2.62,5.85-5.85s-2.62-5.85-5.85-5.85ZM58.57,44.48c-1.78,2.26-3.7,2.79-5.96,3.26v5.7h-4v-5.57c-3.18-.35-6.27-1.65-9.7-5.35l4.05-4.13c2.48,2.61,4.87,4.13,7.48,4.13,2.39,0,4.48-1.83,4.48-4.31,0-1.26-.57-2.61-1.35-3.13-2.13-1.44-4.7-2.79-7.53-4-2.7-1.17-5.66-4.31-5.66-8.14,0-4.44,3.66-7.7,8.22-7.92v-2.13h4v2.39c3.44.83,5,2.26,6.88,4.13l-4.09,4c-1.83-1.87-3.7-2.92-5.57-2.92-2.13,0-3.61,1.35-3.61,2.96,0,2.26,1.74,2.7,8.53,5.66,3.31,1.44,6.01,4.74,6.01,9.14,0,2.35-.78,4.44-2.18,6.22Z"/><text class="cls-3" transform="translate(0 83.09)"><tspan x="0" y="0">C</tspan><tspan class="cls-2" x="9.6" y="0">r</tspan><tspan x="13.44" y="0">édito C</tspan><tspan class="cls-2" x="57" y="0">r</tspan><tspan x="60.84" y="0">edilomio</tspan></text></g></svg>