<?xml version="1.0" encoding="UTF-8"?><svg id="Capa_2" xmlns="http://www.w3.org/2000/svg" viewBox="0 0 111.95 74.68"><defs><style>.cls-1{fill:#ffcc1d;}.cls-1,.cls-2{stroke-width:0px;}.cls-2{fill:#dfa241;}.cls-3{letter-spacing:0em;}.cls-4{fill:#3066bb;font-family:CenturyGothicPro-Bold, 'Century Gothic Pro';font-size:12.31px;font-weight:700;}.cls-5{letter-spacing:0em;}</style></defs><g id="Capa_1-2"><text class="cls-4" transform="translate(0 71.97)"><tspan x="0" y="0">C</tspan><tspan class="cls-3" x="9.6" y="0">r</tspan><tspan x="13.44" y="0">édito Alte</tspan><tspan class="cls-5" x="71.03" y="0">r</tspan><tspan x="75.03" y="0">nativo</tspan></text><path class="cls-2" d="M79.5,0v3.56c1.75.46,3.4,1.22,4.9,2.27,2.25,1.57,2.53,4.8.6,6.76h0c-1.47,1.49-3.78,1.76-5.54.63-1.3-.84-2.61-1.32-3.98-1.32-1.96,0-3.49.8-3.49,2.33s1.38,2.11,3.49,3.19l3.56,1.82c6.39,3.27,9.81,6.61,9.81,12.35s-3.55,10-9.34,11.5v3.08c10.89-2.04,19.14-11.6,19.14-23.08S90.4,2.04,79.5,0Z"/><path class="cls-1" d="M31.06,19.73V7.9c0-3.27,2.65-5.92,5.92-5.92h.1c3.27,0,5.92,2.65,5.92,5.92v11.84h11.74c3.27,0,5.92,2.65,5.92,5.92h0c0,3.27-2.65,5.92-5.92,5.92h-11.74v11.84c0,3.27-2.65,5.92-5.92,5.92h-.1c-3.27,0-5.92-2.65-5.92-5.92v-11.84h-11.84c-3.27,0-5.92-2.65-5.92-5.92h0c0-3.27,2.65-5.92,5.92-5.92h11.84Z"/><path class="cls-2" d="M75.48,27.59l-3.27-1.67c-6.17-3.12-9.3-6.9-9.3-11.77s3.06-8.78,7.89-10.39V0c-8.05,1.51-14.65,7.12-17.55,14.58.15,0,.3.02.46.02,5.97.05,11,4.73,11.18,10.7,0,.11,0,.22,0,.33h0s0,0,0,.01,0,0,0,.01h0c0,.11,0,.22,0,.33-.16,5.24-4.05,9.48-9.03,10.48,3.45,4.96,8.77,8.53,14.94,9.69v-2.98c-2.18-.5-4.16-1.42-5.92-2.74-2.09-1.56-2.34-4.6-.59-6.53l.21-.23c1.49-1.64,3.96-1.88,5.78-.62,1.73,1.19,3.6,1.93,5.19,1.93,2.4,0,4.29-1.38,4.29-3.12s-1.6-2.91-4.29-4.29Z"/></g></svg>