<?xml version="1.0" encoding="UTF-8"?><svg id="Capa_2" xmlns="http://www.w3.org/2000/svg" viewBox="0 0 101.7 97.52"><defs><style>.cls-1{fill:#ffcc1d;}.cls-1,.cls-2{stroke-width:0px;}.cls-2{fill:#dfa241;}.cls-3{letter-spacing:0em;}.cls-4{fill:#3066bb;font-family:CenturyGothicPro-Bold, 'Century Gothic Pro';font-size:12.31px;font-weight:700;}</style></defs><g id="Capa_1-2"><text class="cls-4" transform="translate(0 94.81)"><tspan x="0" y="0">C</tspan><tspan class="cls-3" x="9.6" y="0">r</tspan><tspan x="13.44" y="0">édito C</tspan><tspan class="cls-3" x="57" y="0">r</tspan><tspan x="60.84" y="0">edileal</tspan></text><path class="cls-1" d="M73.04,63.95l-21.91,13.57-22.47-13.57V31.27s5.09,21.68,24.08,21.05c17.73-.59,20.3-21.05,20.3-21.05v32.69Z"/><path class="cls-2" d="M50.85,0c-15.32,0-27.74,12.42-27.74,27.74s12.42,27.74,27.74,27.74,27.74-12.42,27.74-27.74S66.17,0,50.85,0ZM57.33,36.23c-1.32,1.68-2.74,2.06-4.42,2.42v4.22h-2.97v-4.13c-2.35-.26-4.64-1.22-7.19-3.97l3-3.06c1.84,1.93,3.61,3.06,5.55,3.06,1.77,0,3.32-1.35,3.32-3.19,0-.94-.42-1.93-1-2.32-1.58-1.06-3.48-2.06-5.58-2.97-2-.87-4.19-3.19-4.19-6.03,0-3.29,2.71-5.71,6.09-5.87v-1.58h2.97v1.77c2.55.61,3.71,1.68,5.09,3.06l-3.03,2.97c-1.35-1.39-2.74-2.16-4.13-2.16-1.58,0-2.68,1-2.68,2.19,0,1.68,1.29,2,6.32,4.19,2.45,1.06,4.45,3.51,4.45,6.77,0,1.74-.58,3.29-1.61,4.61Z"/><path class="cls-1" d="M50.85,7.99c-10.91,0-19.75,8.84-19.75,19.75s8.84,19.75,19.75,19.75,19.75-8.84,19.75-19.75S61.75,7.99,50.85,7.99ZM57.33,36.23c-1.32,1.68-2.74,2.06-4.42,2.42v4.22h-2.97v-4.13c-2.35-.26-4.64-1.22-7.19-3.97l3-3.06c1.84,1.93,3.61,3.06,5.55,3.06,1.77,0,3.32-1.35,3.32-3.19,0-.94-.42-1.93-1-2.32-1.58-1.06-3.48-2.06-5.58-2.97-2-.87-4.19-3.19-4.19-6.03,0-3.29,2.71-5.71,6.09-5.87v-1.58h2.97v1.77c2.55.61,3.71,1.68,5.09,3.06l-3.03,2.97c-1.35-1.39-2.74-2.16-4.13-2.16-1.58,0-2.68,1-2.68,2.19,0,1.68,1.29,2,6.32,4.19,2.45,1.06,4.45,3.51,4.45,6.77,0,1.74-.58,3.29-1.61,4.61Z"/></g></svg>