<?xml version="1.0" encoding="UTF-8"?><svg id="Capa_2" xmlns="http://www.w3.org/2000/svg" viewBox="0 0 102.93 102.69"><defs><style>.cls-1{fill:#e0a342;}.cls-1,.cls-2{stroke-width:0px;}.cls-2{fill:#ffcc1d;}.cls-3{letter-spacing:0em;}.cls-4{fill:#3066bb;font-family:CenturyGothicPro-Bold, 'Century Gothic Pro';font-size:12.31px;font-weight:700;}</style></defs><g id="Capa_1-2"><text class="cls-4" transform="translate(0 85.21)"><tspan x="0" y="0">C</tspan><tspan class="cls-3" x="9.6" y="0">r</tspan><tspan x="13.44" y="0">édito O</tspan><tspan class="cls-3" x="57.74" y="0">r</tspan><tspan x="61.58" y="0">dinario</tspan><tspan x="16.64" y="14.77">Hipotecario</tspan></text><path class="cls-2" d="M87.22,24.69L54.92,1.19c-.5-.39-1.05-.69-1.63-.89-.04-.01-.08-.02-.12-.04-.13-.04-.25-.08-.38-.11-.07-.02-.14-.03-.2-.04-.11-.02-.21-.04-.32-.06-.08-.01-.16-.02-.25-.03-.1,0-.19-.02-.29-.02-.09,0-.18,0-.27,0-.09,0-.18,0-.27,0-.1,0-.19.01-.29.02-.08,0-.16.02-.25.03-.11.02-.21.04-.32.06-.07.01-.14.03-.2.04-.13.03-.26.07-.38.11-.04.01-.08.02-.12.04-.58.2-1.14.5-1.63.89L15.71,24.69c-2.51,1.83-3.06,5.34-1.24,7.85h0c1.83,2.51,5.34,3.06,7.85,1.24l29.14-21.21,29.14,21.21c2.51,1.83,6.02,1.27,7.85-1.24h0c1.83-2.51,1.27-6.02-1.24-7.85Z"/><path class="cls-1" d="M74.56,35.2l-23.1-16.81-23.1,16.81c-.71,2.27-1.09,4.68-1.09,7.19,0,13.36,10.83,24.19,24.19,24.19s24.19-10.83,24.19-24.19c0-2.5-.38-4.92-1.09-7.19ZM59.43,55.18c-1.59,2.01-3.29,2.48-5.3,2.9v5.07h-3.56v-4.95c-2.82-.31-5.57-1.47-8.63-4.76l3.6-3.67c2.21,2.32,4.33,3.67,6.65,3.67,2.13,0,3.98-1.62,3.98-3.83,0-1.12-.5-2.32-1.2-2.79-1.9-1.28-4.18-2.48-6.69-3.56-2.4-1.04-5.03-3.83-5.03-7.23,0-3.95,3.25-6.85,7.31-7.04v-1.9h3.56v2.13c3.06.73,4.45,2.01,6.11,3.68l-3.64,3.56c-1.62-1.66-3.29-2.59-4.95-2.59-1.9,0-3.21,1.2-3.21,2.63,0,2.01,1.55,2.4,7.58,5.03,2.94,1.28,5.34,4.22,5.34,8.12,0,2.09-.7,3.95-1.93,5.53Z"/></g></svg>