<?xml version="1.0" encoding="UTF-8"?><svg id="Capa_2" xmlns="http://www.w3.org/2000/svg" viewBox="0 0 107.33 85.36"><defs><style>.cls-1{letter-spacing:-.03em;}.cls-2{fill:#ffcc1d;}.cls-2,.cls-3{stroke-width:0px;}.cls-3{fill:#dfa241;}.cls-4{letter-spacing:0em;}.cls-5{fill:#3066bb;font-family:CenturyGothicPro-Bold, 'Century Gothic Pro';font-size:12.31px;font-weight:700;}</style></defs><g id="Capa_1-2"><text class="cls-5" transform="translate(0 82.66)"><tspan x="0" y="0">C</tspan><tspan class="cls-4" x="9.6" y="0">r</tspan><tspan x="13.44" y="0">édito </tspan><tspan class="cls-1" x="47.4" y="0">A</tspan><tspan x="56.14" y="0">utomóvil</tspan></text><path class="cls-3" d="M90,38.36l-8.26-.76-14.78-14.83c-1.41-1.41,1.39,16.85-4.6,18.42-4.41,1.16-13.75.04-18.2-.95-9.97-2.22-8.1-18.4-9.49-16.29l-8.93,13.64-8.58,1.03c-3.28.39-5.75,3.18-5.75,6.48v7.15c0,3.87,3.14,7.01,7.01,7.01h.5c-.09-.56-.14-1.13-.14-1.71,0-5.87,4.76-10.62,10.62-10.62s10.62,4.76,10.62,10.62c0,.58-.05,1.15-.14,1.71h27.39c-.1-.58-.15-1.17-.15-1.77,0-5.87,4.76-10.62,10.62-10.62s10.62,4.76,10.62,10.62c0,.6-.05,1.19-.15,1.77h.69c3.87,0,7.01-3.14,7.01-7.01v-7.39c0-3.37-2.57-6.19-5.93-6.5Z"/><circle class="cls-2" cx="29.4" cy="57.56" r="7.85"/><path class="cls-2" d="M53.67,0c-12.49,0-22.62,10.13-22.62,22.62s10.13,22.62,22.62,22.62,22.62-10.13,22.62-22.62S66.16,0,53.67,0ZM61.08,32.21c-1.51,1.92-3.14,2.36-5.06,2.77v4.83h-3.39v-4.72c-2.69-.3-5.31-1.4-8.23-4.54l3.43-3.51c2.1,2.21,4.13,3.51,6.35,3.51,2.03,0,3.8-1.55,3.8-3.65,0-1.07-.48-2.21-1.14-2.66-1.81-1.22-3.99-2.36-6.38-3.39-2.29-1-4.8-3.65-4.8-6.9,0-3.76,3.1-6.53,6.97-6.72v-1.81h3.39v2.03c2.92.7,4.24,1.92,5.83,3.51l-3.47,3.39c-1.55-1.59-3.14-2.47-4.72-2.47-1.81,0-3.06,1.14-3.06,2.51,0,1.92,1.48,2.29,7.23,4.8,2.8,1.22,5.09,4.02,5.09,7.75,0,1.99-.66,3.76-1.84,5.28Z"/><circle class="cls-2" cx="77.75" cy="57.5" r="7.85"/></g></svg>