<?xml version="1.0" encoding="UTF-8"?><svg id="Capa_2" xmlns="http://www.w3.org/2000/svg" viewBox="0 0 130.86 78.49"><defs><style>.cls-1{fill:#ffcc1d;}.cls-1,.cls-2{stroke-width:0px;}.cls-3{letter-spacing:-.02em;}.cls-2{fill:#dfa241;}.cls-4{letter-spacing:0em;}.cls-5{fill:#3066bb;font-family:CenturyGothicPro-Bold, 'Century Gothic Pro';font-size:12.31px;font-weight:700;}</style></defs><g id="Capa_1-2"><text class="cls-5" transform="translate(0 75.78)"><tspan x="0" y="0">C</tspan><tspan class="cls-4" x="9.6" y="0">r</tspan><tspan x="13.44" y="0">édito Mic</tspan><tspan class="cls-3" x="69.31" y="0">r</tspan><tspan x="73.02" y="0">onegocio</tspan></text><path class="cls-2" d="M64.41,52.72c-2.67-.29-5.26-1.39-8.15-4.49l3.4-3.47c2.08,2.19,4.09,3.47,6.28,3.47,2.01,0,3.76-1.53,3.76-3.62,0-1.06-.47-2.19-1.13-2.63-1.79-1.21-3.94-2.34-6.32-3.36-2.26-.99-4.75-3.62-4.75-6.83,0-3.73,3.07-6.47,6.9-6.65v-1.54c-3.61-.37-6.91-2.76-8.94-6.4-2.21,3.98-5.94,6.46-9.93,6.46-3.11,0-5.99-1.48-8.16-3.94-.7,2.49-1.07,5.12-1.07,7.84,0,15.74,12.49,28.56,28.1,29.1v-3.93Z"/><path class="cls-2" d="M93.47,19.69c-.17.19-.34.39-.52.57-2.15,2.2-4.88,3.4-7.68,3.4-3.99,0-7.72-2.48-9.93-6.46-1.77,3.18-4.5,5.4-7.57,6.16v2c2.89.69,4.2,1.9,5.77,3.47l-3.43,3.36c-1.53-1.57-3.1-2.45-4.68-2.45-1.79,0-3.03,1.13-3.03,2.48,0,1.9,1.46,2.26,7.16,4.75,2.78,1.21,5.04,3.98,5.04,7.67,0,1.97-.66,3.73-1.83,5.22-1.5,1.9-3.1,2.34-5,2.74v3.97c14.99-1.19,26.78-13.73,26.78-29.03,0-2.73-.38-5.37-1.08-7.87Z"/><polygon class="cls-2" points="96.08 11.17 34.78 11.17 41.99 0 88.89 0 96.08 11.17"/><path class="cls-1" d="M34.76,11.2s0,0,0,0c1.05,6.25,5.49,10.94,10.8,10.94,4.37,0,8.14-3.17,9.93-7.76,1.79,4.6,5.56,7.76,9.93,7.76s8.14-3.17,9.93-7.76c1.79,4.6,5.56,7.76,9.93,7.76,5.3,0,9.73-4.67,10.79-10.89,0-.02,0-.05,0-.05h-61.34Z"/></g></svg>