<?xml version="1.0" encoding="UTF-8"?><svg id="Capa_2" xmlns="http://www.w3.org/2000/svg" viewBox="0 0 108.59 91.98"><defs><style>.cls-1{fill:#ffcc1d;}.cls-1,.cls-2{stroke-width:0px;}.cls-2{fill:#dfa241;}.cls-3{letter-spacing:0em;}.cls-4{fill:#3066bb;font-family:CenturyGothicPro-Bold, 'Century Gothic Pro';font-size:12.31px;font-weight:700;}</style></defs><g id="Capa_1-2"><text class="cls-4" transform="translate(0 89.27)"><tspan x="0" y="0">C</tspan><tspan class="cls-3" x="9.6" y="0">r</tspan><tspan x="13.44" y="0">édito Emp</tspan><tspan class="cls-3" x="73.49" y="0">r</tspan><tspan x="77.33" y="0">ende</tspan></text><path class="cls-2" d="M37.71,41.49s-12.53,15.81-16.63,21.27c-.93,1.24-1.35,4.95,2.47,4.95s21.19-.08,21.19-.08l-7.04-26.14Z"/><path class="cls-2" d="M70.87,41.57s12.53,15.81,16.63,21.27c.93,1.24,1.35,4.95-2.47,4.95-3.83,0-21.19-.08-21.19-.08l7.04-26.14Z"/><path class="cls-1" d="M72.29,37.4C70.79,18.88,58.28.13,54.28,0c-3.65-.12-15.92,18.07-17.66,36.25-1.48,15.48,3.01,31.38,3.01,31.38l29.07.12s4.88-14.46,3.59-30.34ZM62.91,53.85c-1.84,2.33-3.81,2.87-6.14,3.36v5.87h-4.12v-5.74c-3.27-.36-6.45-1.7-9.99-5.51l4.17-4.26c2.55,2.69,5.02,4.26,7.71,4.26,2.46,0,4.62-1.88,4.62-4.44,0-1.3-.58-2.69-1.39-3.23-2.2-1.48-4.84-2.87-7.75-4.12-2.78-1.21-5.83-4.44-5.83-8.38,0-4.57,3.76-7.93,8.47-8.16v-2.2h4.12v2.46c3.54.85,5.15,2.33,7.08,4.26l-4.21,4.12c-1.88-1.93-3.81-3-5.74-3-2.2,0-3.72,1.39-3.72,3.05,0,2.33,1.79,2.78,8.78,5.83,3.41,1.48,6.18,4.88,6.18,9.41,0,2.42-.81,4.57-2.24,6.41Z"/></g></svg>