<?xml version="1.0" encoding="UTF-8"?><svg id="Capa_2" xmlns="http://www.w3.org/2000/svg" viewBox="0 0 133.25 79.82"><defs><style>.cls-1{fill:#5f87c4;}.cls-1,.cls-2{stroke-width:0px;}.cls-2{fill:#90b4df;}.cls-3{fill:#3066bb;font-family:CenturyGothicPro-Bold, 'Century Gothic Pro';font-size:12.11px;font-weight:700;}.cls-4{letter-spacing:0em;}.cls-5{letter-spacing:0em;}</style></defs><g id="Capa_1-2"><text class="cls-3" transform="translate(9.79 77.15)"><tspan x="0" y="0">C</tspan><tspan class="cls-4" x="9.45" y="0">r</tspan><tspan x="13.23" y="0">édito P</tspan><tspan class="cls-5" x="53.44" y="0">r</tspan><tspan x="57.22" y="0">estamóvil</tspan></text><path class="cls-1" d="M96.54,40.5l-6.8-.63-11.38-11.41c-2.86,3.14-6.98,5.1-11.56,5.1-5.52,0-10.37-2.86-13.15-7.18-1.07.47-2,1.25-2.66,2.26l-7.35,11.23-7.06.84c-2.7.32-4.74,2.62-4.74,5.34v5.88c0,3.19,2.59,5.77,5.77,5.77h.41c-.07-.46-.11-.93-.11-1.41,0-4.83,3.92-8.74,8.74-8.74s8.74,3.92,8.74,8.74c0,.48-.04.95-.11,1.41h22.55c-.08-.47-.12-.96-.12-1.46,0-4.83,3.92-8.74,8.74-8.74s8.74,3.92,8.74,8.74c0,.5-.04.98-.12,1.46h.57c3.19,0,5.77-2.59,5.77-5.77v-6.08c0-2.78-2.12-5.1-4.88-5.35Z"/><circle class="cls-2" cx="46.5" cy="56.3" r="6.46"/><circle class="cls-2" cx="86.47" cy="56.25" r="6.46"/><path class="cls-2" d="M66.6,52.34c-1.34-1.87-2.69-3.72-4-5.61-3.83-5.52-7.51-11.14-10.55-17.15-1.27-2.5-2.38-5.07-3.17-7.77-.91-3.11-.6-6.17.37-9.18,1.22-3.79,3.49-6.86,6.73-9.19,2.41-1.74,5.1-2.82,8.05-3.24,3.2-.46,6.31-.1,9.32,1.07,2.98,1.16,5.48,3.01,7.5,5.48,1.96,2.4,3.22,5.14,3.8,8.19.5,2.66.34,5.25-.52,7.84-1.52,4.56-3.8,8.75-6.23,12.87-3.32,5.62-7.03,10.97-10.89,16.23-.11.15-.2.31-.3.47h-.1ZM79,17.65c.03-6.89-5.52-12.48-12.36-12.48-6.81,0-12.35,5.56-12.36,12.39-.01,6.84,5.48,12.38,12.31,12.43,6.79.05,12.38-5.51,12.41-12.34Z"/><path class="cls-2" d="M68.37,6.65c2.28.55,3.32,1.5,4.56,2.74l-2.71,2.66c-1.21-1.24-2.45-1.93-3.7-1.93-1.41,0-2.4.89-2.4,1.96,0,1.5,1.15,1.79,5.66,3.75,2.19.95,3.98,3.15,3.98,6.06,0,1.56-.52,2.94-1.44,4.13-1.18,1.5-2.45,1.85-3.96,2.17v3.78h-2.66v-3.7c-2.11-.23-4.16-1.1-6.44-3.55l2.69-2.74c1.65,1.73,3.23,2.74,4.97,2.74,1.59,0,2.97-1.21,2.97-2.86,0-.84-.38-1.73-.89-2.08-1.41-.95-3.12-1.85-4.99-2.66-1.79-.78-3.75-2.86-3.75-5.4,0-2.94,2.43-5.11,5.46-5.25v-1.41h2.66v1.59Z"/></g></svg>