<?xml version="1.0" encoding="UTF-8"?><svg id="Capa_2" xmlns="http://www.w3.org/2000/svg" viewBox="0 0 133.25 97.12"><defs><style>.cls-1{fill:#5f87c4;}.cls-1,.cls-2{stroke-width:0px;}.cls-2{fill:#90b4df;}.cls-3{fill:#3066bb;font-family:CenturyGothicPro-Bold, 'Century Gothic Pro';font-size:12.11px;font-weight:700;}.cls-4{letter-spacing:0em;}.cls-5{letter-spacing:-.05em;}.cls-6{letter-spacing:-.03em;}</style></defs><g id="Capa_1-2"><text class="cls-3" transform="translate(12.57 79.91)"><tspan x="0" y="0">C</tspan><tspan class="cls-4" x="9.45" y="0">r</tspan><tspan x="13.23" y="0">édito Come</tspan><tspan class="cls-6" x="83" y="0">r</tspan><tspan x="86.55" y="0">cial </tspan><tspan class="cls-5" x="41.16" y="14.54">A</tspan><tspan x="49.51" y="14.54">vío</tspan></text><path class="cls-1" d="M42.86,8.87c-1.54-.24-.88-2.57.64-2.33,11.9,1.84,23.42,8.41,29.21,18.64-.28-3.15-1.67-12.47-8.49-19C55.9-1.79,34.74.23,34.74.23c0,0,1.07,15.22,10.34,22.23,7.4,5.6,20.63,4.68,25.67,4.09-5.44-9.8-16.62-15.94-27.9-17.68Z"/><path class="cls-2" d="M74.09,28.39c-9.98,0-18.07,8.09-18.07,18.07s8.09,18.07,18.07,18.07,18.07-8.09,18.07-18.07-8.09-18.07-18.07-18.07ZM80.29,55.88c-1.31,1.66-2.71,2.04-4.37,2.39v4.18h-2.93v-4.08c-2.33-.26-4.59-1.21-7.11-3.92l2.97-3.03c1.82,1.91,3.57,3.03,5.49,3.03,1.75,0,3.29-1.34,3.29-3.16,0-.92-.41-1.91-.99-2.3-1.56-1.05-3.44-2.04-5.52-2.93-1.98-.86-4.15-3.16-4.15-5.96,0-3.25,2.68-5.65,6.03-5.8v-1.56h2.93v1.75c2.52.61,3.67,1.66,5.04,3.03l-3,2.93c-1.34-1.37-2.71-2.14-4.08-2.14-1.56,0-2.65.99-2.65,2.17,0,1.66,1.28,1.98,6.25,4.15,2.42,1.05,4.4,3.48,4.4,6.7,0,1.72-.57,3.25-1.59,4.56Z"/><path class="cls-1" d="M98.5,3.24s-13.53-2.01-19.85,4.04c-4.06,3.89-4.28,9.7-3.91,13.36.42-1.07.95-2.07,1.6-3,3.29-4.67,9.18-7.44,14.5-9.02,1.5-.44,2.13,1.89.64,2.33-4.67,1.38-9.96,3.77-12.96,7.78-1.15,1.55-1.89,3.41-2.33,5.39,2.48.17,9.78.23,15.53-4.12,7.04-5.33,6.78-16.76,6.78-16.76Z"/></g></svg>