<?xml version="1.0" encoding="UTF-8"?><svg id="Capa_2" xmlns="http://www.w3.org/2000/svg" viewBox="0 0 117.19 104.71"><defs><style>.cls-1{fill:#5f87c4;stroke-width:0px;}.cls-2{letter-spacing:-.02em;}.cls-3{fill:#3066bb;font-family:CenturyGothicPro-Bold, 'Century Gothic Pro';font-size:12.11px;font-weight:700;}.cls-4{letter-spacing:0em;}.cls-5{letter-spacing:-.03em;}</style></defs><g id="Capa_1-2"><text class="cls-3" transform="translate(4.54 87.51)"><tspan x="0" y="0">C</tspan><tspan class="cls-4" x="9.45" y="0">r</tspan><tspan x="13.23" y="0">édito Come</tspan><tspan class="cls-5" x="83" y="0">r</tspan><tspan x="86.55" y="0">cial </tspan><tspan class="cls-2" x="13.14" y="14.54">R</tspan><tspan x="19.87" y="14.54">efaccionario</tspan></text><path class="cls-1" d="M86.41,34.43c-.18-3.04-.85-5.96-1.93-8.66l6.66-7.16-8.2-10.15-8.25,4.92c-2.5-1.76-5.29-3.12-8.3-3.99l-1.34-9.39h-13.05l-1.36,9.49c-2.91.88-5.62,2.22-8.04,3.94l-8.32-4.96-8.2,10.15,6.75,7.26c-1.06,2.68-1.72,5.57-1.89,8.59l-9.16,3.33,2.68,12.77,10.12-.65c1.4,2.44,3.16,4.64,5.21,6.54l-3.02,9.79,11.8,5.57,5.49-8.33c1.5.25,3.04.38,4.62.38,1.44,0,2.85-.11,4.23-.32l5.45,8.1,11.75-5.68-2.92-9.18c2.25-2.01,4.16-4.38,5.66-7.02l9.41.96,3.15-12.66-9-3.65ZM58.59,55.7c-10.74,0-19.45-8.71-19.45-19.45s8.71-19.45,19.45-19.45,19.45,8.71,19.45,19.45-8.71,19.45-19.45,19.45Z"/><path class="cls-1" d="M60.63,23.2c2.51.6,3.65,1.65,5.01,3.01l-2.98,2.92c-1.33-1.36-2.7-2.13-4.06-2.13-1.55,0-2.63.98-2.63,2.16,0,1.65,1.27,1.97,6.22,4.13,2.41,1.05,4.38,3.46,4.38,6.66,0,1.71-.57,3.24-1.59,4.54-1.3,1.65-2.7,2.03-4.35,2.38v4.16h-2.92v-4.06c-2.32-.25-4.57-1.21-7.08-3.9l2.95-3.01c1.81,1.9,3.55,3.01,5.46,3.01,1.75,0,3.27-1.33,3.27-3.14,0-.92-.41-1.9-.98-2.28-1.55-1.05-3.43-2.03-5.49-2.92-1.97-.86-4.13-3.14-4.13-5.93,0-3.24,2.67-5.62,6-5.78v-1.55h2.92v1.75Z"/></g></svg>