<?xml version="1.0" encoding="UTF-8"?><svg id="Capa_2" xmlns="http://www.w3.org/2000/svg" viewBox="0 0 128.66 113.06"><defs><style>.cls-1{fill:#5f87c4;stroke-width:0px;}.cls-2{letter-spacing:-.02em;}.cls-3{fill:#3066bb;font-family:CenturyGothicPro-Bold, 'Century Gothic Pro';font-size:12.11px;font-weight:700;}.cls-4{letter-spacing:0em;}.cls-5{letter-spacing:-.03em;}</style></defs><g id="Capa_1-2"><text class="cls-3" transform="translate(10.27 81.32)"><tspan x="0" y="0">C</tspan><tspan class="cls-4" x="9.45" y="0">r</tspan><tspan x="13.23" y="0">édito Come</tspan><tspan class="cls-5" x="83" y="0">r</tspan><tspan x="86.55" y="0">cial </tspan><tspan class="cls-2" x="13.14" y="14.54">R</tspan><tspan x="19.87" y="14.54">efaccionario </tspan><tspan x="19.78" y="29.07">Hipotecario</tspan></text><path class="cls-1" d="M64.76,2.06c2.96.71,4.31,1.95,5.92,3.56l-3.52,3.45c-1.57-1.61-3.19-2.51-4.8-2.51-1.84,0-3.11,1.16-3.11,2.55,0,1.95,1.5,2.32,7.35,4.87,2.85,1.24,5.17,4.09,5.17,7.87,0,2.02-.67,3.82-1.87,5.36-1.54,1.95-3.19,2.4-5.13,2.81v4.91h-3.45v-4.8c-2.74-.3-5.4-1.42-8.36-4.61l3.49-3.56c2.14,2.25,4.2,3.56,6.45,3.56,2.06,0,3.86-1.57,3.86-3.71,0-1.09-.49-2.25-1.16-2.7-1.84-1.24-4.05-2.4-6.48-3.45-2.32-1.01-4.87-3.71-4.87-7.01,0-3.82,3.15-6.63,7.08-6.82V0h3.45v2.06Z"/><path class="cls-1" d="M51.36,63.5c-.29-4.02-.39-8.06-.95-12.03-.23-1.61-1.09-3.51-2.29-4.53-10.79-9.18-10.66-26.56,1.04-34.92,0,5.24-.15,10.05.1,14.84.07,1.36.98,3.05,2.05,3.91,3.52,2.82,7.28,5.32,11.24,8.15,3.91-3.24,7.89-6.38,11.65-9.76.74-.67.88-2.26.9-3.44.1-4.7.04-9.41.04-14.07,8.51,4.23,14.21,19.68,5.43,30.5-4.34,5.34-5.09,10.3-4.45,16.34.14,1.36-.08,2.75-.14,4.13l.07-.07c-8.13,3.77-16.4,3.64-24.76.87,0,0,.09.07.09.07Z"/></g></svg>