<?xml version="1.0" encoding="UTF-8"?><svg id="Capa_2" xmlns="http://www.w3.org/2000/svg" viewBox="0 0 133.25 84.83"><defs><style>.cls-1{fill:#ebebeb;}.cls-1,.cls-2{stroke-width:0px;}.cls-2{fill:#002f63;}.cls-3{letter-spacing:0em;}.cls-4{fill:#3066bb;font-family:CenturyGothicPro-Bold, 'Century Gothic Pro';font-size:12.11px;font-weight:700;}.cls-5{letter-spacing:0em;}</style></defs><g id="Capa_1-2"><path class="cls-2" d="M101.11,32.65l-6.55-6.53v-10.51c0-2.22-1.8-4.02-4.02-4.02h-.94c-2.22,0-4.02,1.8-4.02,4.02v1.57L69.54,1.2c-1.61-1.6-4.22-1.6-5.83,0l-31.58,31.44c-2.61,2.6-.77,7.06,2.91,7.06h1.44v23.64c0,2.9,2.35,5.24,5.24,5.24h49.78c2.9,0,5.24-2.35,5.24-5.24v-23.64h1.44c3.68,0,5.53-4.46,2.91-7.06Z"/><text class="cls-4" transform="translate(17.3 82.16)"><tspan x="0" y="0">C</tspan><tspan class="cls-5" x="9.45" y="0">r</tspan><tspan x="13.23" y="0">edito </tspan><tspan class="cls-3" x="46.66" y="0">V</tspan><tspan x="55.03" y="0">ivienda</tspan></text><circle class="cls-1" cx="66.62" cy="41.54" r="19.44" transform="translate(-9.86 59.28) rotate(-45)"/><path class="cls-2" d="M68.66,28.5c2.51.6,3.65,1.65,5.01,3.01l-2.98,2.92c-1.33-1.36-2.7-2.13-4.06-2.13-1.55,0-2.63.98-2.63,2.16,0,1.65,1.27,1.97,6.22,4.13,2.41,1.05,4.38,3.46,4.38,6.66,0,1.71-.57,3.24-1.59,4.54-1.3,1.65-2.7,2.03-4.35,2.38v4.16h-2.92v-4.06c-2.32-.25-4.57-1.21-7.08-3.9l2.95-3.01c1.81,1.9,3.55,3.01,5.46,3.01,1.75,0,3.27-1.33,3.27-3.14,0-.92-.41-1.9-.98-2.28-1.55-1.05-3.43-2.03-5.49-2.92-1.97-.86-4.13-3.14-4.13-5.93,0-3.24,2.67-5.62,6-5.78v-1.55h2.92v1.75Z"/></g></svg>