<?xml version="1.0" encoding="UTF-8"?><svg id="Capa_2" xmlns="http://www.w3.org/2000/svg" xmlns:xlink="http://www.w3.org/1999/xlink" viewBox="0 0 442 616"><defs><style>.cls-1{fill:#fff;filter:url(#drop-shadow-1);stroke-width:0px;}</style><filter id="drop-shadow-1" filterUnits="userSpaceOnUse"><feOffset dx=".74" dy=".74"/><feGaussianBlur result="blur" stdDeviation="3.69"/><feFlood flood-color="#000" flood-opacity=".35"/><feComposite in2="blur" operator="in"/><feComposite in="SourceGraphic"/></filter></defs><g id="Capa_1-2"><path class="cls-1" d="M428.96,10.5H10.5v592.02h418.46V10.5ZM19.89,29.28c0-4.58,3.72-8.3,8.3-8.3s8.3,3.72,8.3,8.3-3.72,8.3-8.3,8.3-8.3-3.72-8.3-8.3ZM49.36,29.28c0-4.58,3.72-8.3,8.3-8.3s8.3,3.72,8.3,8.3-3.72,8.3-8.3,8.3-8.3-3.72-8.3-8.3ZM78.82,29.28c0-4.58,3.72-8.3,8.3-8.3s8.3,3.72,8.3,8.3-3.72,8.3-8.3,8.3-8.3-3.72-8.3-8.3ZM108.29,29.28c0-4.58,3.71-8.3,8.3-8.3s8.3,3.72,8.3,8.3-3.72,8.3-8.3,8.3-8.3-3.72-8.3-8.3ZM137.75,29.28c0-4.58,3.72-8.3,8.3-8.3s8.3,3.72,8.3,8.3-3.72,8.3-8.3,8.3-8.3-3.72-8.3-8.3ZM167.23,29.28c0-4.58,3.71-8.3,8.3-8.3s8.3,3.72,8.3,8.3-3.72,8.3-8.3,8.3-8.3-3.72-8.3-8.3ZM196.69,29.28c0-4.58,3.72-8.3,8.3-8.3s8.3,3.72,8.3,8.3-3.72,8.3-8.3,8.3-8.3-3.72-8.3-8.3ZM226.16,29.28c0-4.58,3.72-8.3,8.3-8.3s8.3,3.72,8.3,8.3-3.72,8.3-8.3,8.3-8.3-3.72-8.3-8.3ZM255.62,29.28c0-4.58,3.72-8.3,8.3-8.3s8.3,3.72,8.3,8.3-3.72,8.3-8.3,8.3-8.3-3.72-8.3-8.3ZM285.09,29.28c0-4.58,3.72-8.3,8.3-8.3s8.3,3.72,8.3,8.3-3.72,8.3-8.3,8.3-8.3-3.72-8.3-8.3ZM314.56,29.28c0-4.58,3.72-8.3,8.3-8.3s8.3,3.72,8.3,8.3-3.72,8.3-8.3,8.3-8.3-3.72-8.3-8.3ZM344.03,29.28c0-4.58,3.71-8.3,8.3-8.3s8.3,3.72,8.3,8.3-3.72,8.3-8.3,8.3-8.3-3.72-8.3-8.3ZM373.49,29.28c0-4.58,3.72-8.3,8.3-8.3s8.3,3.72,8.3,8.3-3.72,8.3-8.3,8.3-8.3-3.72-8.3-8.3ZM402.96,29.28c0-4.58,3.71-8.3,8.3-8.3s8.3,3.72,8.3,8.3-3.72,8.3-8.3,8.3-8.3-3.72-8.3-8.3Z"/></g></svg>