<?xml version="1.0" encoding="UTF-8"?><svg id="Capa_2" xmlns="http://www.w3.org/2000/svg" viewBox="0 0 1200.88 1361.56"><defs><style>.cls-1{fill:#80dbd6;}.cls-1,.cls-2,.cls-3{fill-rule:evenodd;stroke-width:0px;}.cls-2{fill:#6d9ac2;}.cls-3{fill:#fff;}</style></defs><g id="Capa_1-2"><polygon class="cls-3" points="819.23 1361.56 0 1050.13 381.65 0 1200.88 311.43 819.23 1361.56"/><polygon class="cls-1" points="840.68 1029.81 767.22 1231.95 744.47 1223.3 817.93 1021.17 840.68 1029.81"/><polygon class="cls-2" points="779.31 1127.45 756.56 1118.8 795.07 1012.84 817.82 1021.49 779.31 1127.45"/><polygon class="cls-1" points="701.14 1131.87 678.39 1123.23 727.92 986.95 750.66 995.59 701.14 1131.87"/><polygon class="cls-2" points="727.8 987.27 665 1160.07 642.25 1151.42 705.05 978.63 727.8 987.27"/><polygon class="cls-1" points="664.22 962.73 590.76 1164.87 568.01 1156.22 641.47 954.09 664.22 962.73"/><polygon class="cls-2" points="580.1 1051.72 618.61 945.77 641.36 954.41 602.85 1060.37 580.1 1051.72"/><polygon class="cls-2" points="582.66 931.73 535.26 1062.14 512.52 1053.49 559.91 923.08 582.66 931.73"/><polygon class="cls-1" points="559.79 923.41 504.1 1076.64 481.35 1067.99 537.04 914.76 559.79 923.41"/><polygon class="cls-1" points="457.24 1002.05 434.49 993.4 470.99 892.99 493.73 901.63 457.24 1002.05"/><polygon class="cls-2" points="470.87 893.31 408.07 1066.11 385.32 1057.46 448.12 884.67 470.87 893.31"/><polygon class="cls-1" points="380.11 929.32 357.36 920.67 379.88 858.72 402.62 867.37 380.11 929.32"/><polygon class="cls-2" points="357.13 850.08 379.88 858.72 341.37 964.68 318.62 956.03 357.13 850.08"/><path class="cls-2" d="M814.44,850.63c-23.53-9.19-40.53-25.18-50.99-47.96-5.92-12.89-8.89-25.76-8.89-38.63l95.78.05-35.89,86.54Z"/><path class="cls-1" d="M754.56,764.04c-.07-10.66,1.87-21.43,5.82-32.29,8.69-23.91,24.52-41.02,47.5-51.33,22.84-10.61,46.18-11.39,70.01-2.33,23.83,9.06,41.11,25.28,51.85,48.65,10.6,23.08,11.56,46.57,2.87,70.48-8.69,23.91-24.46,41.16-47.3,51.78-22.98,10.31-46.39,10.94-70.22,1.88-.22-.08-.44-.17-.65-.25l35.89-86.54-95.78-.05Z"/><path class="cls-2" d="M923.47,387.8l9.17,91.8,2.51.21-35.89,86.54c-23.53-9.2-40.53-25.18-50.99-47.96-5.92-12.89-8.88-25.77-8.89-38.63-.07-10.66,1.87-21.43,5.82-32.3,8.69-23.91,24.52-41.02,47.5-51.33,10.13-4.81,20.39-7.59,30.77-8.34Z"/><path class="cls-1" d="M899.26,566.36l35.89-86.54-2.51-.21-9.17-91.8c12.94-1.02,26.02.99,39.24,6.01,23.83,9.06,41.12,25.28,51.85,48.65,10.6,23.08,11.56,46.57,2.87,70.48-8.69,23.91-24.46,41.17-47.3,51.78-22.98,10.31-46.39,10.94-70.22,1.88-.22-.08-.44-.17-.65-.25Z"/><polygon class="cls-1" points="298.31 827.72 224.85 1029.85 202.1 1021.21 275.56 819.07 298.31 827.72"/><polygon class="cls-2" points="252.7 810.75 275.45 819.39 236.94 925.35 214.19 916.7 252.7 810.75"/><polygon class="cls-1" points="279.28 617.51 682.24 770.69 672.76 796.77 269.8 643.59 279.28 617.51"/><polygon class="cls-1" points="297.05 568.6 700.01 721.79 690.53 747.87 287.58 594.69 297.05 568.6"/><polygon class="cls-1" points="413.5 553.5 718.97 669.62 709.49 695.7 404.02 579.58 413.5 553.5"/><polygon class="cls-1" points="773.83 518.67 487.86 409.96 497.34 383.88 783.3 492.59 773.83 518.67"/><polygon class="cls-1" points="791.6 469.77 388.64 316.59 398.12 290.5 801.08 443.69 791.6 469.77"/><polygon class="cls-1" points="810.56 417.6 505.09 301.48 514.57 275.4 820.04 391.52 810.56 417.6"/><polygon class="cls-1" points="654.32 276.58 836.62 345.88 827.15 371.96 644.84 302.66 654.32 276.58"/></g></svg>