<?xml version="1.0" encoding="UTF-8"?><svg id="Capa_2" xmlns="http://www.w3.org/2000/svg" viewBox="0 0 1158.48 1109.23"><defs><style>.cls-1{fill:none;stroke:#ded7f7;stroke-miterlimit:10;stroke-width:1.48px;}.cls-2{fill:#efefef;stroke-width:0px;}</style></defs><g id="Capa_1-2"><path class="cls-2" d="M0,528.93l748.31,580.3,410.17-528.93L410.17,0,0,528.93ZM52.73,531.61c-4.49,5.8-12.84,6.85-18.63,2.36-5.79-4.49-6.85-12.84-2.36-18.63,4.5-5.8,12.84-6.85,18.63-2.36,5.79,4.49,6.85,12.83,2.35,18.63ZM81.62,494.37c-4.49,5.8-12.84,6.85-18.63,2.35-5.79-4.49-6.85-12.83-2.36-18.63,4.5-5.8,12.84-6.85,18.64-2.36,5.79,4.49,6.85,12.84,2.35,18.64ZM110.5,457.12c-4.5,5.8-12.84,6.85-18.63,2.36-5.79-4.49-6.85-12.84-2.36-18.64,4.49-5.79,12.84-6.85,18.63-2.35,5.79,4.49,6.85,12.84,2.36,18.63ZM139.38,419.87c-4.5,5.8-12.84,6.85-18.64,2.36-5.79-4.49-6.85-12.84-2.35-18.64,4.49-5.79,12.84-6.85,18.63-2.35,5.79,4.49,6.85,12.83,2.36,18.63ZM168.27,382.63c-4.5,5.8-12.84,6.85-18.63,2.36-5.79-4.49-6.85-12.83-2.36-18.63,4.49-5.79,12.84-6.85,18.63-2.36,5.79,4.49,6.85,12.84,2.35,18.63ZM197.15,345.38c-4.49,5.8-12.84,6.85-18.63,2.36-5.79-4.49-6.85-12.84-2.36-18.63,4.49-5.8,12.84-6.85,18.64-2.36,5.79,4.49,6.85,12.84,2.35,18.63ZM226.03,308.13c-4.49,5.8-12.84,6.85-18.63,2.36-5.79-4.49-6.85-12.84-2.36-18.64,4.49-5.79,12.84-6.85,18.63-2.35,5.79,4.49,6.85,12.84,2.36,18.63ZM254.92,270.89c-4.49,5.79-12.84,6.85-18.63,2.36-5.79-4.49-6.85-12.84-2.36-18.63s12.84-6.85,18.64-2.36c5.79,4.49,6.85,12.84,2.35,18.64ZM283.8,233.65c-4.5,5.8-12.84,6.85-18.63,2.36s-6.85-12.83-2.36-18.63c4.5-5.8,12.84-6.85,18.63-2.36,5.79,4.49,6.85,12.83,2.35,18.63ZM312.68,196.4c-4.49,5.79-12.84,6.85-18.63,2.36-5.79-4.49-6.85-12.84-2.36-18.63,4.5-5.8,12.84-6.85,18.64-2.36,5.79,4.49,6.85,12.84,2.35,18.63ZM341.57,159.15c-4.5,5.8-12.84,6.85-18.63,2.36-5.79-4.49-6.85-12.84-2.36-18.64,4.49-5.8,12.84-6.85,18.63-2.35,5.79,4.49,6.85,12.83,2.36,18.63ZM370.45,121.9c-4.5,5.8-12.84,6.85-18.63,2.36-5.79-4.49-6.85-12.83-2.36-18.63,4.49-5.8,12.84-6.85,18.63-2.36,5.79,4.49,6.85,12.84,2.35,18.63ZM399.33,84.66c-4.49,5.8-12.84,6.85-18.63,2.36-5.79-4.49-6.85-12.84-2.36-18.63,4.49-5.8,12.84-6.85,18.63-2.36,5.79,4.49,6.85,12.84,2.35,18.63ZM428.22,47.41c-4.49,5.8-12.84,6.85-18.63,2.36-5.79-4.49-6.85-12.84-2.36-18.63,4.49-5.8,12.84-6.85,18.63-2.35,5.79,4.49,6.85,12.83,2.36,18.63Z"/><line class="cls-1" x1="108.19" y1="612.3" x2="517.51" y2="84.46"/><line class="cls-1" x1="137.07" y1="634.69" x2="546.39" y2="106.86"/><line class="cls-1" x1="165.95" y1="657.09" x2="575.27" y2="129.25"/><line class="cls-1" x1="194.82" y1="679.48" x2="604.15" y2="151.65"/><line class="cls-1" x1="223.71" y1="701.88" x2="633.03" y2="174.04"/><line class="cls-1" x1="252.58" y1="724.27" x2="661.91" y2="196.44"/><line class="cls-1" x1="281.46" y1="746.67" x2="690.78" y2="218.83"/><line class="cls-1" x1="310.34" y1="769.06" x2="719.67" y2="241.23"/><line class="cls-1" x1="339.22" y1="791.46" x2="748.54" y2="263.62"/><line class="cls-1" x1="368.1" y1="813.85" x2="777.42" y2="286.02"/><line class="cls-1" x1="396.98" y1="836.25" x2="806.3" y2="308.41"/><line class="cls-1" x1="425.86" y1="858.64" x2="835.18" y2="330.81"/><line class="cls-1" x1="454.74" y1="881.04" x2="864.06" y2="353.2"/><line class="cls-1" x1="483.62" y1="903.43" x2="892.94" y2="375.6"/><line class="cls-1" x1="512.49" y1="925.83" x2="921.82" y2="397.99"/><line class="cls-1" x1="541.37" y1="948.22" x2="950.7" y2="420.38"/><line class="cls-1" x1="570.25" y1="970.62" x2="979.58" y2="442.78"/><line class="cls-1" x1="599.13" y1="993.01" x2="1008.46" y2="465.18"/><line class="cls-1" x1="628.01" y1="1015.41" x2="1037.33" y2="487.57"/><line class="cls-1" x1="656.89" y1="1037.8" x2="1066.21" y2="509.96"/><line class="cls-1" x1="685.77" y1="1060.2" x2="1095.09" y2="532.36"/><line class="cls-1" x1="714.65" y1="1082.59" x2="1123.97" y2="554.76"/></g></svg>