<?xml version="1.0" encoding="UTF-8"?>
<svg id="Capa_2" data-name="Capa 2" xmlns="http://www.w3.org/2000/svg" xmlns:xlink="http://www.w3.org/1999/xlink" viewBox="0 0 597.17 766.96">
  <defs>
    <style>
      .cls-1, .cls-2, .cls-3, .cls-4 {
        fill: none;
      }

      .cls-2 {
        stroke-width: 1.5px;
      }

      .cls-2, .cls-3, .cls-4 {
        stroke: #fff;
        stroke-miterlimit: 10;
      }

      .cls-3 {
        stroke-width: 3px;
      }

      .cls-5 {
        clip-path: url(#clippath);
      }

      .cls-6 {
        fill: #b3dee5;
      }

      .cls-4 {
        stroke-width: .5px;
      }
    </style>
    <clipPath id="clippath">
      <path class="cls-1" d="m16.66,711.68c2.54-3.45,6.94-5.46,11.72-4.54,4.56.88,8.24,4.55,9.12,9.1,1.45,7.47-4.23,14.01-11.44,14.01-2.76,0-5.29-.95-7.28-2.55l-18.78,7.97v31.29h554.77c23.42,0,42.4-18.99,42.4-42.4V41.37c0-22.84-18.52-41.37-41.37-41.37H0v35.01l3.72,2.21,13.4,2.73c.86-1.15,5.46-3.25,8.94-3.25,7.21,0,12.89,6.54,11.44,14.01-.89,4.55-4.55,8.22-9.1,9.1-7.47,1.45-14.01-4.23-14.01-11.44,0-.36-11.17-1.47-11.17-1.47l-3.23,1.42v67.23l16.39.77c2.47-3.66,6.95-5.83,11.86-4.95,4.62.84,8.36,4.52,9.26,9.13,1.45,7.47-4.23,14.01-11.44,14.01-4.41,0-8.25-2.45-10.23-6.06l-15.83.52v73.5l14.64-2.77c-.28-1.33-.33-2.75-.11-4.21.77-5.13,5.07-9.21,10.22-9.77,7.79-.84,14.25,5.99,12.75,13.88-.88,4.64-4.65,8.37-9.31,9.19-2.12.38-4.15.18-5.98-.46l-14.53,1.65-7.69,5.55v46.58l17.58,1.67c2.58-2.73,6.47-4.22,10.67-3.45,4.61.84,8.35,4.52,9.25,9.13,1.45,7.47-4.23,14.01-11.44,14.01-3.54,0-6.72-1.58-8.86-4.07l-17.2-.4v63.79l5.46-.5c.9-1.65,12.53-4.64,14.08-5.69,2.23-1.51,5.01-2.26,7.98-1.9,5.27.64,9.54,4.96,10.13,10.23.79,7.05-4.7,13.01-11.59,13.01-3.86,0-7.28-1.87-9.4-4.76-.71-.97-10.5,2.5-11.95,1.77l-4.71,1.24v53.36l17.45,3.32c2.57-2.81,6.5-4.36,10.75-3.61,4.64.82,8.41,4.52,9.31,9.14,1.45,7.47-4.23,14.01-11.44,14.01-4.49,0-8.39-2.54-10.34-6.26l-15.72.54v56.09l17.81,4.18c2.6-2.6,6.43-3.98,10.54-3.2,4.57.87,8.26,4.54,9.15,9.11,1.45,7.47-4.23,14.01-11.44,14.01-4.27,0-8.01-2.29-10.04-5.72l-16.02-6.21v65.28l17.47,1.57c2.57-2.8,6.49-4.34,10.74-3.59,4.63.82,8.4,4.52,9.3,9.13,1.45,7.47-4.23,14.01-11.44,14.01-3.6,0-6.82-1.63-8.96-4.19l-17.1,2.67v50.63l16.9,6.47c2.41-3.05,6.31-4.87,10.6-4.36,5.28.63,9.56,4.95,10.15,10.24.79,7.04-4.7,13.01-11.59,13.01-3.22,0-6.14-1.31-8.25-3.42l-17.81,3.38v58.08l16.66-2.14Z"/>
    </clipPath>
  </defs>
  <g id="Capa_1-2" data-name="Capa 1">
    <g class="cls-5">
      <rect class="cls-6" x="-6.42" y="-9.07" width="612.59" height="792.2"/>
      <rect class="cls-1" x="69.72" y="275.94" width="611.09" height="495.17"/>
      <polygon class="cls-3" points="605.96 782.13 552.09 688.82 605.96 595.51 713.71 595.51 767.58 688.82 713.71 782.13 605.96 782.13"/>
      <polygon class="cls-3" points="606.44 379.45 559.32 297.83 606.44 216.21 700.69 216.21 747.81 297.83 700.69 379.45 606.44 379.45"/>
      <polygon class="cls-2" points="135.65 505.34 103.35 449.39 135.65 393.44 200.26 393.44 232.56 449.39 200.26 505.34 135.65 505.34"/>
      <polygon class="cls-4" points="428.03 288.17 374.16 194.86 428.03 101.54 535.78 101.54 589.65 194.86 535.78 288.17 428.03 288.17"/>
      <polygon class="cls-4" points="80.34 477.25 64.66 450.09 80.34 422.93 111.7 422.93 127.39 450.09 111.7 477.25 80.34 477.25"/>
      <polygon class="cls-4" points="428.03 89.29 374.15 -4.02 428.03 -97.33 535.77 -97.33 589.65 -4.02 535.77 89.29 428.03 89.29"/>
      <polygon class="cls-4" points="605.79 183.11 551.92 89.8 605.79 -3.52 713.54 -3.52 767.41 89.8 713.54 183.11 605.79 183.11"/>
      <polygon class="cls-4" points="394.98 67.12 341.11 -26.19 394.98 -119.51 502.73 -119.51 556.6 -26.19 502.73 67.12 394.98 67.12"/>
      <polygon class="cls-3" points="56.47 905.83 -2.87 803.04 56.47 700.25 175.15 700.25 234.5 803.04 175.15 905.83 56.47 905.83"/>
      <polygon class="cls-3" points="435.46 871.66 384.86 784.02 435.46 696.37 536.66 696.37 587.27 784.02 536.66 871.66 435.46 871.66"/>
      <polygon class="cls-3" points="606.54 583.25 552.66 489.94 606.54 396.63 714.28 396.63 768.16 489.94 714.28 583.25 606.54 583.25"/>
    </g>
  </g>
</svg>