<?xml version="1.0" encoding="UTF-8"?>
<svg id="Capa_2" data-name="Capa 2" xmlns="http://www.w3.org/2000/svg" xmlns:xlink="http://www.w3.org/1999/xlink" viewBox="0 0 1076.81 1076.81">
  <defs>
    <style>
      .cls-1, .cls-2 {
        fill: none;
      }

      .cls-3 {
        clip-path: url(#clippath);
      }

      .cls-4 {
        fill: #f1f1f1;
      }

      .cls-2 {
        stroke: #8b9fa3;
        stroke-miterlimit: 10;
        stroke-width: .25px;
      }
    </style>
    <clipPath id="clippath">
      <rect class="cls-1" width="1076.81" height="1076.81"/>
    </clipPath>
  </defs>
  <g id="Capa_1-2" data-name="Capa 1">
    <g class="cls-3">
      <g>
        <rect class="cls-4" width="1076.81" height="1076.81"/>
        <g>
          <g>
            <line class="cls-2" x1="-302.34" y1="7.16" x2="1234.8" y2="7.16"/>
            <line class="cls-2" x1="-302.34" y1="53.93" x2="1234.8" y2="53.93"/>
            <line class="cls-2" x1="-302.34" y1="100.71" x2="1234.8" y2="100.71"/>
            <line class="cls-2" x1="-302.34" y1="147.48" x2="1234.8" y2="147.48"/>
            <line class="cls-2" x1="-302.34" y1="194.26" x2="1234.8" y2="194.26"/>
            <line class="cls-2" x1="-302.34" y1="241.03" x2="1234.8" y2="241.03"/>
            <line class="cls-2" x1="-302.34" y1="287.8" x2="1234.8" y2="287.8"/>
            <line class="cls-2" x1="-302.34" y1="334.58" x2="1234.8" y2="334.58"/>
            <line class="cls-2" x1="-302.34" y1="381.35" x2="1234.8" y2="381.35"/>
            <line class="cls-2" x1="-302.34" y1="428.13" x2="1234.8" y2="428.13"/>
            <line class="cls-2" x1="-302.34" y1="474.9" x2="1234.8" y2="474.9"/>
            <line class="cls-2" x1="-302.34" y1="521.67" x2="1234.8" y2="521.67"/>
            <line class="cls-2" x1="-302.34" y1="568.45" x2="1234.8" y2="568.45"/>
            <line class="cls-2" x1="-302.34" y1="615.22" x2="1234.8" y2="615.22"/>
            <line class="cls-2" x1="-302.34" y1="662" x2="1234.8" y2="662"/>
            <line class="cls-2" x1="-302.34" y1="708.77" x2="1234.8" y2="708.77"/>
            <line class="cls-2" x1="-302.34" y1="755.54" x2="1234.8" y2="755.54"/>
            <line class="cls-2" x1="-302.34" y1="802.32" x2="1234.8" y2="802.32"/>
            <line class="cls-2" x1="-302.34" y1="849.09" x2="1234.8" y2="849.09"/>
            <line class="cls-2" x1="-302.34" y1="895.86" x2="1234.8" y2="895.86"/>
            <line class="cls-2" x1="-302.34" y1="942.64" x2="1234.8" y2="942.64"/>
            <line class="cls-2" x1="-302.34" y1="989.41" x2="1234.8" y2="989.41"/>
            <line class="cls-2" x1="-302.34" y1="1036.19" x2="1234.8" y2="1036.19"/>
          </g>
          <g>
            <line class="cls-2" x1="45.26" y1="1337.02" x2="45.26" y2="-200.13"/>
            <line class="cls-2" x1="92.04" y1="1337.02" x2="92.04" y2="-200.13"/>
            <line class="cls-2" x1="138.81" y1="1337.02" x2="138.81" y2="-200.13"/>
            <line class="cls-2" x1="185.59" y1="1337.02" x2="185.59" y2="-200.13"/>
            <line class="cls-2" x1="232.36" y1="1337.02" x2="232.36" y2="-200.13"/>
            <line class="cls-2" x1="279.13" y1="1337.02" x2="279.13" y2="-200.13"/>
            <line class="cls-2" x1="325.91" y1="1337.02" x2="325.91" y2="-200.13"/>
            <line class="cls-2" x1="372.68" y1="1337.02" x2="372.68" y2="-200.13"/>
            <line class="cls-2" x1="419.45" y1="1337.02" x2="419.45" y2="-200.13"/>
            <line class="cls-2" x1="466.23" y1="1337.02" x2="466.23" y2="-200.13"/>
            <line class="cls-2" x1="513" y1="1337.02" x2="513" y2="-200.13"/>
            <line class="cls-2" x1="559.78" y1="1337.02" x2="559.78" y2="-200.13"/>
            <line class="cls-2" x1="606.55" y1="1337.02" x2="606.55" y2="-200.13"/>
            <line class="cls-2" x1="653.32" y1="1337.02" x2="653.32" y2="-200.13"/>
            <line class="cls-2" x1="700.1" y1="1337.02" x2="700.1" y2="-200.13"/>
            <line class="cls-2" x1="746.87" y1="1337.02" x2="746.87" y2="-200.13"/>
            <line class="cls-2" x1="793.65" y1="1337.02" x2="793.65" y2="-200.13"/>
            <line class="cls-2" x1="840.42" y1="1337.02" x2="840.42" y2="-200.13"/>
            <line class="cls-2" x1="887.19" y1="1337.02" x2="887.19" y2="-200.13"/>
            <line class="cls-2" x1="933.97" y1="1337.02" x2="933.97" y2="-200.13"/>
            <line class="cls-2" x1="980.74" y1="1337.02" x2="980.74" y2="-200.13"/>
            <line class="cls-2" x1="1027.52" y1="1337.02" x2="1027.52" y2="-200.13"/>
          </g>
        </g>
        <rect class="cls-1" width="1076.81" height="1076.81"/>
      </g>
    </g>
  </g>
</svg>