<?xml version="1.0" encoding="UTF-8"?>
<svg xmlns="http://www.w3.org/2000/svg" xmlns:xlink="http://www.w3.org/1999/xlink" viewBox="0 0 613.48 792.23">
  <defs>
    <style>
      .cls-1 {
        fill: none;
      }

      .cls-2 {
        fill: url(#linear-gradient);
      }

      .cls-3 {
        clip-path: url(#clippath);
      }

      .cls-4 {
        fill: url(#radial-gradient);
      }

      .cls-4, .cls-5, .cls-6, .cls-7, .cls-8 {
        mix-blend-mode: multiply;
      }

      .cls-4, .cls-8 {
        opacity: .82;
      }

      .cls-9 {
        fill: #029da4;
      }

      .cls-10, .cls-11 {
        fill: #f4f4f4;
      }

      .cls-12, .cls-13 {
        fill: #b3dee5;
      }

      .cls-14 {
        fill: #3765ae;
      }

      .cls-15 {
        fill: url(#radial-gradient-5);
      }

      .cls-15, .cls-16, .cls-17, .cls-18 {
        mix-blend-mode: screen;
      }

      .cls-16 {
        fill: url(#radial-gradient-3);
      }

      .cls-17 {
        fill: url(#radial-gradient-4);
      }

      .cls-19 {
        clip-path: url(#clippath-3);
      }

      .cls-5 {
        fill: #b6b5b4;
        opacity: .4;
      }

      .cls-6 {
        fill: url(#linear-gradient-2);
        opacity: .94;
      }

      .cls-18 {
        fill: url(#radial-gradient-7);
      }

      .cls-18, .cls-7 {
        opacity: .33;
      }

      .cls-7 {
        fill: url(#radial-gradient-6);
      }

      .cls-20 {
        opacity: .23;
      }

      .cls-21 {
        opacity: .43;
      }

      .cls-13 {
        filter: url(#drop-shadow-2);
      }

      .cls-11 {
        filter: url(#drop-shadow-1);
      }

      .cls-8 {
        fill: url(#radial-gradient-2);
      }

      .cls-22 {
        isolation: isolate;
      }
    </style>
    <clipPath id="clippath">
      <rect class="cls-1" x="1.9" y="1.41" width="611.58" height="789.84"/>
    </clipPath>
    <filter id="drop-shadow-1" filterUnits="userSpaceOnUse">
      <feOffset dx="7.38" dy="7.38"/>
      <feGaussianBlur result="blur" stdDeviation="5.27"/>
      <feFlood flood-color="#7b7a7d" flood-opacity=".15"/>
      <feComposite in2="blur" operator="in"/>
      <feComposite in="SourceGraphic"/>
    </filter>
    <linearGradient id="linear-gradient" x1="1145.82" y1="387.43" x2="478.58" y2="1054.67" gradientTransform="translate(722.42 -119.2) rotate(65.23)" gradientUnits="userSpaceOnUse">
      <stop offset="0" stop-color="#fff"/>
      <stop offset=".14" stop-color="#fafaf8"/>
      <stop offset=".65" stop-color="#efefe4"/>
      <stop offset="1" stop-color="#ebebde"/>
    </linearGradient>
    <clipPath id="clippath-3">
      <path class="cls-1" d="m204.36,704.46c-2.03-.83-5.3-1.68,3.84,2.54-3.6-.98,2.47,1.99,3.84,2.54-7.78-3.18-4.29-1.02,5.34,3.65,5.46,2.97,15.2,7.68,5.34,3.65-.28-.11-4.79-1.96,3.34,1.37q6.12,2.5,3.34,1.37c4.27,1.75-.88-.61,4.35,1.29-2.05-1.08,1.06-.05,4.35,1.29,1.83.75,2.22.42,3.27.36,7.79,2.7,9.86,3.06,3.27.36-2.44-1,1.35.06,3.27.36,3.77,1.05,4.22.75,3.27.36.86.35,1.59,1.36,1.59,1.36l90.96-218.14-73.02-22.11s-68.48,167.48-84.29,206.13c-.69,1.68-1.27,3.12-1.75,4.29-.75,1.06,2.98,3.64-1.1,2.68,1.87,1.48-1.5.47-.38.93.21.09-.75-1.06,4.11-.09.93-.63,7.82.92,7.64-.16.54-.79,3.46-.36,4.11-.09-2-.82,1.22,1.47,2.66,3.04,1.3,1.51,3.73,3.48,2.66,3.04Z"/>
    </clipPath>
    <radialGradient id="radial-gradient" cx="126.87" cy="292.84" fx="126.87" fy="292.84" r="21.43" gradientTransform="translate(489.7 1582.04) rotate(-180) scale(1.53 3.55)" gradientUnits="userSpaceOnUse">
      <stop offset="0" stop-color="#c6be7c"/>
      <stop offset=".16" stop-color="#d2cc99"/>
      <stop offset=".42" stop-color="#e5e2c4"/>
      <stop offset=".66" stop-color="#f3f1e4"/>
      <stop offset=".86" stop-color="#fbfbf8"/>
      <stop offset="1" stop-color="#fff"/>
    </radialGradient>
    <radialGradient id="radial-gradient-2" cx="37.54" cy="255.31" fx="37.54" fy="255.31" r="21.43" gradientTransform="translate(-621.75 687.77) rotate(-90) scale(2.12 3.55)" xlink:href="#radial-gradient"/>
    <radialGradient id="radial-gradient-3" cx="109.47" cy="292.84" fx="109.47" fy="292.84" r="21.43" gradientTransform="translate(884.58 1420.92) rotate(156.75) scale(1.53 3.55)" gradientUnits="userSpaceOnUse">
      <stop offset="0" stop-color="#fff"/>
      <stop offset=".07" stop-color="#e0e0e0"/>
      <stop offset=".21" stop-color="#a6a6a6"/>
      <stop offset=".36" stop-color="#737373"/>
      <stop offset=".5" stop-color="#4a4a4a"/>
      <stop offset=".64" stop-color="#2a2a2a"/>
      <stop offset=".77" stop-color="#131313"/>
      <stop offset=".89" stop-color="#050505"/>
      <stop offset="1" stop-color="#010101"/>
    </radialGradient>
    <radialGradient id="radial-gradient-4" cx="176.47" cy="294.85" fx="176.47" fy="294.85" r="21.43" gradientTransform="translate(508.42 2448.04) rotate(-180) scale(1.53 6.26)" xlink:href="#radial-gradient-3"/>
    <linearGradient id="linear-gradient-2" x1="349.58" y1="333.22" x2="498.6" y2="333.22" gradientTransform="translate(674.54 458.5) rotate(111.82)" gradientUnits="userSpaceOnUse">
      <stop offset="0" stop-color="#dad8c8"/>
      <stop offset=".25" stop-color="#dddbcc"/>
      <stop offset=".54" stop-color="#e6e5da"/>
      <stop offset=".85" stop-color="#f5f5f1"/>
      <stop offset="1" stop-color="#fff"/>
    </linearGradient>
    <radialGradient id="radial-gradient-5" cx="223.68" cy="342.34" fx="223.68" fy="342.34" r="21.43" gradientTransform="translate(555.34 2633.25) rotate(180) scale(1.53 5.71)" xlink:href="#radial-gradient-3"/>
    <radialGradient id="radial-gradient-6" cx="-99.86" cy="292.87" fx="-99.86" fy="292.87" r="33.63" gradientTransform="translate(-719.14 249.1) rotate(-79.94) scale(2.12 3.55)" xlink:href="#radial-gradient"/>
    <radialGradient id="radial-gradient-7" cx="-51.08" cy="305.9" fx="-51.08" fy="305.9" r="33.63" gradientTransform="translate(-719.14 249.1) rotate(-79.94) scale(2.12 3.55)" gradientUnits="userSpaceOnUse">
      <stop offset="0" stop-color="#fff"/>
      <stop offset=".07" stop-color="#e4e4e4"/>
      <stop offset=".27" stop-color="#a0a0a0"/>
      <stop offset=".46" stop-color="#676767"/>
      <stop offset=".63" stop-color="#3b3b3b"/>
      <stop offset=".78" stop-color="#1b1b1b"/>
      <stop offset=".91" stop-color="#070707"/>
      <stop offset="1" stop-color="#010101"/>
    </radialGradient>
    <filter id="drop-shadow-2" filterUnits="userSpaceOnUse">
      <feOffset dx="7.38" dy="7.38"/>
      <feGaussianBlur result="blur-2" stdDeviation="5.27"/>
      <feFlood flood-color="#7b7a7d" flood-opacity=".15"/>
      <feComposite in2="blur-2" operator="in"/>
      <feComposite in="SourceGraphic"/>
    </filter>
  </defs>
  <g class="cls-22">
    <g id="Capa_2" data-name="Capa 2">
      <g id="Capa_1-2" data-name="Capa 1">
        <rect class="cls-9" width="612.89" height="792.23"/>
        <g class="cls-3">
          <g>
            <path class="cls-11" d="m651.3,558.26L58.31,831.93l228.7,495.56,592.99-273.67-228.7-495.56ZM103.1,850.44c-3.48-7.55-.19-16.49,7.36-19.98,7.55-3.48,16.49-.19,19.97,7.36,3.48,7.55.19,16.49-7.36,19.97-7.55,3.48-16.49.19-19.98-7.36Zm50.59-23.35c-3.48-7.55-.19-16.49,7.36-19.97,7.55-3.48,16.49-.19,19.97,7.36,3.48,7.55.19,16.49-7.36,19.97-7.55,3.48-16.49.19-19.98-7.36Zm50.59-23.35c-3.48-7.55-.19-16.49,7.36-19.97,7.55-3.48,16.49-.19,19.98,7.36,3.48,7.55.19,16.49-7.36,19.97-7.55,3.48-16.49.19-19.97-7.36Zm50.59-23.35c-3.48-7.55-.19-16.49,7.36-19.97,7.55-3.48,16.49-.19,19.98,7.36,3.48,7.55.19,16.49-7.36,19.97-7.55,3.48-16.49.19-19.97-7.36Zm50.59-23.35c-3.48-7.55-.19-16.49,7.36-19.97s16.49-.19,19.97,7.36c3.48,7.55.19,16.49-7.36,19.97-7.55,3.48-16.49.19-19.97-7.36Zm50.59-23.35c-3.48-7.55-.19-16.49,7.36-19.98,7.55-3.48,16.49-.19,19.97,7.36s.19,16.49-7.36,19.97c-7.55,3.48-16.49.19-19.97-7.36Zm50.59-23.35c-3.48-7.55-.19-16.49,7.36-19.98,7.55-3.48,16.49-.19,19.97,7.36,3.48,7.55.19,16.49-7.36,19.97-7.55,3.48-16.49.19-19.97-7.36Zm50.59-23.35c-3.48-7.55-.19-16.49,7.36-19.97,7.55-3.48,16.49-.19,19.98,7.36,3.48,7.55.19,16.49-7.36,19.97-7.55,3.48-16.49.19-19.97-7.36Zm50.59-23.35c-3.48-7.55-.19-16.49,7.36-19.97,7.55-3.48,16.49-.19,19.98,7.36,3.48,7.55.19,16.49-7.36,19.97-7.55,3.48-16.49.19-19.97-7.36Zm50.59-23.35c-3.48-7.55-.19-16.49,7.36-19.97s16.49-.19,19.97,7.36c3.48,7.55.19,16.49-7.36,19.97-7.55,3.48-16.49.19-19.97-7.36Zm50.59-23.35c-3.48-7.55-.19-16.49,7.36-19.98,7.55-3.48,16.49-.19,19.97,7.36,3.48,7.55.19,16.49-7.36,19.97-7.55,3.48-16.49.19-19.97-7.36Z"/>
            <g class="cls-21">
              <rect class="cls-14" x="687.2" y="650.87" width="1.22" height="420.47" transform="translate(-297.53 367.46) rotate(-24.77)"/>
              <rect class="cls-14" x="648.77" y="668.61" width="1.22" height="420.47" transform="translate(-308.5 352.99) rotate(-24.77)"/>
              <rect class="cls-14" x="610.34" y="686.35" width="1.22" height="420.47" transform="translate(-319.47 338.52) rotate(-24.77)"/>
              <rect class="cls-14" x="571.91" y="704.08" width="1.22" height="420.47" transform="translate(-330.44 324.05) rotate(-24.77)"/>
              <rect class="cls-14" x="533.48" y="721.82" width="1.22" height="420.47" transform="translate(-341.41 309.58) rotate(-24.77)"/>
              <rect class="cls-14" x="495.04" y="739.56" width="1.22" height="420.47" transform="translate(-352.38 295.1) rotate(-24.77)"/>
              <rect class="cls-14" x="456.61" y="757.29" width="1.22" height="420.47" transform="translate(-363.35 280.63) rotate(-24.77)"/>
            </g>
            <polygon class="cls-2" points="651.3 558.26 649.6 559.05 877.08 1051.94 285.78 1324.83 287.01 1327.49 880 1053.82 651.3 558.26"/>
          </g>
          <g class="cls-19">
            <path class="cls-5" d="m204.75,709.61c-2.03-.83-5.3-1.68,3.84,2.54-3.6-.98,2.47,1.99,3.84,2.54-7.78-3.18-4.29-1.02,5.34,3.65,5.46,2.97,15.19,7.68,5.34,3.65-.28-.11-4.79-1.96,3.34,1.37q6.12,2.5,3.34,1.37c4.27,1.75-.88-.61,4.35,1.29-2.05-1.08,1.06-.05,4.35,1.29,1.83.75,2.22.42,3.27.36,7.79,2.7,9.86,3.06,3.27.36-2.44-1,1.35.06,3.27.36,3.77,1.05,4.22.75,3.27.36.86.35,1.59,1.36,1.59,1.36l90.96-218.14-73.02-22.11s-68.48,167.48-84.29,206.13c-.69,1.68-1.27,3.12-1.75,4.29-.75,1.06,2.98,3.64-1.1,2.68,1.87,1.48-1.5.47-.38.93.21.09-.75-1.06,4.11-.09.93-.63,7.82.92,7.64-.16.54-.79,3.46-.36,4.11-.09-2-.82,1.22,1.47,2.66,3.04,1.3,1.51,3.73,3.48,2.66,3.04Z"/>
            <path class="cls-12" d="m204.36,704.46c-2.03-.83-5.3-1.68,3.84,2.54-3.6-.98,2.47,1.99,3.84,2.54-7.78-3.18-4.29-1.02,5.34,3.65,5.46,2.97,15.2,7.68,5.34,3.65-.28-.11-4.79-1.96,3.34,1.37q6.12,2.5,3.34,1.37c4.27,1.75-.88-.61,4.35,1.29-2.05-1.08,1.06-.05,4.35,1.29,1.83.75,2.22.42,3.27.36,7.79,2.7,9.86,3.06,3.27.36-2.44-1,1.35.06,3.27.36,3.77,1.05,4.22.75,3.27.36.86.35,1.59,1.36,1.59,1.36l90.96-218.14-73.02-22.11s-68.48,167.48-84.29,206.13c-.69,1.68-1.27,3.12-1.75,4.29-.75,1.06,2.98,3.64-1.1,2.68,1.87,1.48-1.5.47-.38.93.21.09-.75-1.06,4.11-.09.93-.63,7.82.92,7.64-.16.54-.79,3.46-.36,4.11-.09-2-.82,1.22,1.47,2.66,3.04,1.3,1.51,3.73,3.48,2.66,3.04Z"/>
            <g class="cls-20">
              <ellipse class="cls-4" cx="295.58" cy="541.85" rx="32.78" ry="76.1" transform="translate(-189.91 160.7) rotate(-23.25)"/>
              <ellipse class="cls-8" cx="285.14" cy="607.98" rx="76.1" ry="45.53" transform="translate(-382.76 677.58) rotate(-70.82)"/>
              <path class="cls-16" d="m289.93,544.28c-16.59-38.62-16.56-75.72.07-82.86,16.63-7.15,43.57,18.36,60.16,56.98,16.59,38.62,16.56,75.72-.07,82.86-16.63,7.15-43.57-18.36-60.16-56.98Z"/>
              <ellipse class="cls-17" cx="238.4" cy="602.02" rx="32.78" ry="134.14" transform="translate(-218.3 143.02) rotate(-23.25)"/>
              <path class="cls-6" d="m278.79,679.61l-29.67-1.76-18.82,10.47,2.41-19.99-7.29-13.1-19.12-2.76c-12.22,5.23,7.51,17.08,2.27,16.11-5.24-.97-35.68,17.01-35.68,17.01l-37.66,94.05,83.39,33.39,60.17-133.42Z"/>
              <ellipse class="cls-15" cx="213.09" cy="677.16" rx="32.78" ry="122.42" transform="translate(-484.86 806.86) rotate(-83.06)"/>
              <path class="cls-7" d="m385.73,660.66c6.9-38.86-40.17-79.7-105.13-91.23-64.96-11.53-123.2,10.63-130.1,49.49-.19,1.09-.33,2.18-.44,3.27l234.95,41.69c.27-1.06.52-2.13.71-3.22Z"/>
              <path class="cls-18" d="m449.41,566.69c6.9-38.86-40.17-79.7-105.13-91.23-64.96-11.53-123.2,10.63-130.1,49.49-.19,1.09-.33,2.18-.44,3.27l234.95,41.69c.27-1.06.52-2.13.71-3.22Z"/>
            </g>
          </g>
          <g>
            <path class="cls-13" d="m219.2-165.18s38.5,79.83,61.6,127.72c.82,1.71,1.63,3.38,2.41,5,.78,1.62,1.54,3.2,2.28,4.73.19.38.91,1.88,1.85,3.84.88,1.82.08.17,2.25,4.67-.6-1.24-.5-1.03-.08-.17.41.86,1.14,2.36,1.78,3.7,1.71,3.55,2.35,4.86,1.7,3.52,1.7,3.53-.55-1.14.64,1.32.75,1.56.21.44,1.94,4.02.55,1.15-.3-.61,1.63,3.38-2.14-4.44.22.45.57,1.18.37.77-2.07-1.47-3.85-.94-.33,3.55-6.87-4.37-8.47-2.07-1.43,2.67-8.03-5.38-8.47-2.07-1.45,1.22-3.65-.53-3.85-.94-.76-1.57-1.51,2.17-4.45,3.14-.85,5.31-5.22,5.09-8.27,5.84-3.24.34-3.63,4.86-4.45,3.14.74,1.53-2.42.28-4.84,2.34-2.82,1.22-5.41,4.7-8.99,4.34-3.03.8-6.22-.53-4.84,2.34,1.53,3.17-2.19.09-3.63,1.75.18,5.02-3.61,1.79-3.63,1.75.06.12.14,3.77-3.09,2.29-1.67,1.75-3.9,4.09-6.8,5.04-3.4-.08-6.67.09-6.8,5.04-1.9,1.28-3.42,1.6-3.09,2.29.55,1.15.35,2-1.2,1.15-1.19-.1-2.12,1.46-3.41,3.2-.68,3-3.53,2.45-5.31,4.85-3.41-.96-4.22,4.23-6.91,6.12-2.73,1.82-5.63,3.85-8.21,6.99-3.18,1.88-5.92,3.21-7.48,5.99-2.08,1.69-3.44,3.88-5.54,4.01-1.23,1.96-3.12,2.01-4.56,2.99-1.54.77-3.29,1.08-4.54,2.92-1.44,1.42-3.65,1.72-5.47,3.79-2.24,1.19-4.52,1.98-6.13,4.08-1.47,2.4-4.22,2.1-6.22,3.51-2.49.42-4.23,2.59-6.79,3.48-2.14,1.77-5.32,1.86-7.84,3.99-2.64,1.89-5.77,3.45-9.36,5.03-.81,2.08-3.05,1.26-4.4,2.34-1.17,1.44-3.07,1.4-4.55,2.23-2.16-.57-4.09-.68-4.79,1.71-1.48.79-4.19-1.02-4.36,2.36-.66,2.36-2.55,2.1-4.52,1.55-1.08,1.3-1.88,3.05-4.03,1.86-1.34.48-2.96.22-4.15.66.53,4.01-3.67-2-2.96,1.96-.08,2.3-.1,4.52-1.48,3.64-2.07-2.31-3.61-3.8-3.39-1.96.52,2.47.83,4.19-.29,2.62.17,1.09-1.76-2.53-1.52-2.03-.4-.83.26,1.7-.61,1.64-.87-.06-2.14-.37-3.02.11-2.49-.52-4.27.43-3.63,1.75.66,1.36-2.14-.63-3.49,2.28-2.15,1.25-3.94,5.17-7.69,5.03-3.39.6-5.57,3.7-7.69,5.03-2.1,1.37-3.49,2.28-3.49,2.28,0,0-5.15-.07-16.64,10.58-2.3,2.13-4.72,4.22-7.12,6.2s-4.79,3.84-7.01,5.53c-2.03,2.1-4.17,3.45-6.06,4.46-2.3.16-2.86,3.04-4.26,2.97-.44,1.9-2.08.1-1.61,1.08.36.75-.92.75-2.29,2.22-.99,2.26-3.84,2.32-5.05,6.43-.54,3.29-2.8,4.5-5.15,5.52-2.38.96-4.31,2.85-5.71,4.36-2.72-1.23-2.5,2.17-2.7,1.77-.83-1.72-3.43-1.15-4.67,2.25-1.19,3.5-5.52.49-4.67,2.25.54,1.11-1.76.16-3.73,1.8-2.84-.16-6.48-.08-8.2,3.96-2.81,1.79-6.34,2.1-8.2,3.96-1.73,2.12-3.92,1.39-3.73,1.8,1.2,2.48-2.34,1.12-4.17,3.29-1.69,2.46-3.45,4.79-4.17,3.29,1.11,2.29-1.04.78-1.52,3.72-.7,2.48-3.88.79-2.83,6.91-.69,2.5-.64,5.54-1.52,3.72.81,1.68.37,3.41-1.08,3.72-.17,2.96-1.21,4.77-1.14,7.58-1.23.1-.72,3.82-.1,7.08,1.09,4.24-2.05-.93-.05,3.22,1.82,3.78,3.73,10.39-.07,5.15-.38,1.87-.88,3.49-.07,5.15,1.89,3.92-3.44-3.89-4.52-1.8-2.07.03-6.03-2.78-8.39-3.34-.43,3.44-4.55-1.87-4.52-1.8-.36-.75-.56-1.15-.44-.92-.86-1.78-.72-1.5-1.28-2.66-13.45-27.88-100.86-209.13-100.86-209.13L219.2-165.18Z"/>
            <path class="cls-10" d="m289.91-11.51c-.33,3.55-6.87-4.37-8.47-2.07-1.43,2.67-8.03-5.38-8.47-2.07-1.45,1.22-3.65-.53-3.85-.94-.76-1.57-1.51,2.17-4.45,3.14-.85,5.31-9.29-6.01-12.35-5.26-3.24.34-3.63,4.86-4.45,3.14.74,1.53-2.42.28-4.84,2.34-2.82,1.22-5.41,4.7-8.99,4.34-3.03.8-2.15,10.57-.77,13.43,1.53,3.17-2.19.09-3.63,1.75.18,5.02-3.61,1.79-3.63,1.75.06.12.14,3.77-3.09,2.29-1.67,1.75-3.9,4.09-6.8,5.04-3.4-.08-8.99-9.44-9.13-4.49-1.9,1.28-3.42,1.6-3.09,2.29.55,1.15.35,2-1.2,1.15-1.19-.1-2.12,1.46-3.41,3.2-.68,3-1.2,11.98-2.99,14.39-3.41-.96-4.22,4.23-6.91,6.12-2.73,1.82-5.63,3.85-8.21,6.99-3.18,1.88-5.92,3.21-7.48,5.99-2.08,1.69-3.44,3.88-5.54,4.01-1.23,1.96-3.12,2.01-4.56,2.99-1.54.77-3.29,1.08-4.54,2.92-1.44,1.42-3.71-4.51-5.53-2.44-2.24,1.19-4.52,1.98-6.13,4.08-1.47,2.4-4.22,2.1-6.22,3.51-2.49.42-4.23,2.59-6.79,3.48-2.14,1.77-5.32,1.86-7.84,3.99-2.64,1.89-5.71,9.69-9.3,11.26-.81,2.08-3.05,1.26-4.4,2.34-1.17,1.44-3.07,1.4-4.55,2.23-2.16-.57-4.09-.69-4.79,1.71-1.48.79-4.19-1.02-4.36,2.36-.66,2.36-2.55,2.1-4.52,1.55-1.08,1.3-3.42-5.16-5.56-6.35-1.34.48-2.96.22-4.15.66.53,4.01-3.67-2-2.96,1.96-.08,2.3-.1,4.52-1.48,3.64-2.07-2.31-3.61-3.8-3.39-1.96.52,2.47.83,4.19-.29,2.62.17,1.09-1.76-2.53-1.52-2.03-.4-.83.26,1.7-.61,1.64-.87-.06-2.14-.37-3.02.11-2.49-.52-4.27.43-3.63,1.75.66,1.36-2.14-.63-3.49,2.28-2.15,1.25-3.94,5.17-7.69,5.03-3.39.6-5.57,3.7-7.69,5.03-2.1,1.37-7.77,8.19-7.77,8.19,0,0-3.24-3.55-14.73,7.1-2.3,2.13-.82,10-3.22,11.98-2.4,1.98-4.79,3.84-7.01,5.53-2.03,2.1-4.17,3.45-6.06,4.46-2.29.16-2.86,3.04-4.25,2.97-.44,1.9-2.08.1-1.61,1.08.36.75-.92.75-2.29,2.22-.99,2.26-3.84,2.32-5.05,6.43-.54,3.29-2.8,4.5-5.15,5.52-2.38.96-4.31,2.85-5.71,4.37-2.72-1.23-2.5,2.17-2.7,1.77-.83-1.72-3.43-1.15-4.67,2.25-1.19,3.5-5.52.49-4.67,2.25.54,1.11-1.76.16-3.73,1.8-2.84-.16-6.48-.08-8.2,3.96-2.81,1.79-11.19-5.32-13.05-3.46-1.73,2.12-3.92,1.39-3.73,1.8,1.2,2.48-2.34,1.12-4.17,3.29-1.69,2.46-3.45,4.79-4.17,3.29,1.1,2.29-1.04.78-1.52,3.72-.7,2.48.96,8.21,2.02,14.33-.69,2.5-3.11,3.9-3.98,2.08.81,1.68.37,3.41-1.08,3.72-.17,2.96,1.25,6.41,1.32,9.22-1.23.1-.72,3.82-.1,7.08,1.09,4.24-2.05-.93-.05,3.22,1.82,3.78,3.73,10.39-.07,5.15-.38,1.87-.88,3.49-.07,5.15,1.89,3.92-3.44-3.89-4.52-1.8-2.07.03-6.03-2.78-8.39-3.34-.43,3.44-4.55-1.87-4.52-1.8.9,1.86,1.67,3.45,2.28,4.72.55,1.15.43.9,1.26,2.6,0,0,.02.04.03.06.06.11.21.43.44.92-.03-.07,4.09,5.24,4.52,1.8,2.35.56,6.32,3.37,8.39,3.34,1.08-2.09,6.41,5.72,4.52,1.8-.8-1.66-.3-3.28.07-5.15,3.81,5.24,1.9-1.37.07-5.15-2-4.15,1.13,1.02.05-3.22-.62-3.27-1.13-6.99.1-7.08-.08-2.81.97-4.62,1.14-7.58,1.45-.31,1.9-2.04,1.08-3.72.88,1.82.83-1.22,1.52-3.72-1.06-6.12,2.13-4.42,2.83-6.91.48-2.94,2.63-1.43,1.52-3.72.72,1.5,2.48-.83,4.17-3.29,1.83-2.17,5.36-.81,4.17-3.29-.2-.41,1.99.32,3.73-1.8,1.86-1.86,5.39-2.16,8.2-3.96,1.73-4.04,5.37-4.12,8.2-3.96,1.97-1.64,4.26-.69,3.73-1.8-.85-1.76,3.48,1.25,4.67-2.25,1.24-3.4,3.84-3.97,4.67-2.25.19.4-.03-3,2.7-1.77,1.4-1.52,3.33-3.41,5.71-4.37,2.35-1.02,4.61-2.23,5.15-5.52,1.22-4.11,4.06-4.18,5.05-6.43,1.37-1.47,2.65-1.47,2.29-2.22-.47-.98,1.16.82,1.61-1.08,1.4.07,1.96-2.81,4.25-2.97,1.89-1,4.03-2.36,6.06-4.46,2.23-1.69,4.61-3.55,7.01-5.53,2.4-1.98,4.82-4.07,7.12-6.2,11.49-10.66,16.64-10.58,16.64-10.58,0,0,1.4-.91,3.49-2.28,2.12-1.32,4.3-4.43,7.69-5.03,3.74.14,5.54-3.77,7.69-5.03,1.35-2.92,4.15-.92,3.49-2.28-.64-1.32,1.14-2.27,3.63-1.75.88-.49,2.16-.17,3.02-.11.87.06.21-2.47.61-1.64-.24-.5,1.69,3.12,1.52,2.03,1.11,1.57.81-.15.29-2.62-.22-1.84,1.32-.35,3.39,1.96,1.38.88,1.39-1.33,1.48-3.64-.71-3.95,3.5,2.06,2.96-1.96,1.19-.44,2.81-.18,4.15-.66,2.14,1.18,2.95-.56,4.03-1.86,1.97.55,3.86.81,4.52-1.55.17-3.38,2.88-1.56,4.36-2.36.7-2.4,2.64-2.28,4.79-1.71,1.48-.83,3.38-.79,4.55-2.23,1.35-1.08,3.59-.26,4.4-2.34,3.59-1.57,6.72-3.14,9.36-5.03,2.52-2.13,5.69-2.22,7.84-3.99,2.57-.89,4.3-3.06,6.79-3.48,2.01-1.41,4.75-1.11,6.22-3.51,1.62-2.1,3.89-2.89,6.13-4.08,1.81-2.07,4.02-2.37,5.47-3.79,1.24-1.83,3-2.15,4.54-2.92,1.44-.97,3.34-1.03,4.56-2.99,2.11-.13,3.46-2.33,5.54-4.01,1.56-2.78,4.29-4.11,7.48-5.99,2.58-3.14,5.49-5.17,8.21-6.99,2.69-1.89,3.5-7.08,6.91-6.12,1.79-2.4,4.63-1.85,5.31-4.85,1.29-1.74,2.22-3.3,3.41-3.2,1.55.85,1.76,0,1.2-1.15-.33-.69,1.19-1.01,3.09-2.29.13-4.94,3.4-5.12,6.8-5.04,2.9-.95,5.13-3.29,6.8-5.04,3.23,1.48,3.15-2.17,3.09-2.29.02.04,3.82,3.27,3.63-1.75,1.44-1.66,5.16,1.42,3.63-1.75-1.38-2.86,1.82-1.54,4.84-2.34,3.58.36,6.17-3.11,8.99-4.34,2.42-2.05,5.58-.81,4.84-2.34.83,1.72,1.21-2.8,4.45-3.14,3.05-.75,7.42-.52,8.27-5.84,2.94-.97,3.7-4.71,4.45-3.14.2.41,2.4,2.16,3.85.94.44-3.31,7.04,4.74,8.47,2.07,1.61-2.3,8.15,5.62,8.47,2.07,1.78-.53,4.22,1.71,3.85.94-.09-.19-.32-.66-.57-1.18-.41-.85-.69-1.43-.89-1.84-.73-1.52-.31-.64-.74-1.54-1.61-3.33-1.24-2.58-1.8-3.74.37.77-2.07-1.47-3.85-.94Z"/>
          </g>
        </g>
      </g>
    </g>
  </g>
</svg>