<?xml version="1.0" encoding="UTF-8"?>
<svg id="Capa_2" data-name="Capa 2" xmlns="http://www.w3.org/2000/svg" xmlns:xlink="http://www.w3.org/1999/xlink" viewBox="0 0 597.17 766.96">
  <defs>
    <style>
      .cls-1 {
        letter-spacing: .41em;
      }

      .cls-2 {
        letter-spacing: .41em;
      }

      .cls-3 {
        letter-spacing: -.02em;
      }

      .cls-4, .cls-5, .cls-6, .cls-7 {
        fill: none;
      }

      .cls-8 {
        letter-spacing: -.02em;
      }

      .cls-9 {
        letter-spacing: 1.72em;
      }

      .cls-5 {
        stroke-width: 1.5px;
      }

      .cls-5, .cls-6, .cls-7 {
        stroke: #fff;
        stroke-miterlimit: 10;
      }

      .cls-10 {
        letter-spacing: -.04em;
      }

      .cls-11 {
        letter-spacing: -.01em;
      }

      .cls-6 {
        stroke-width: 3px;
      }

      .cls-12 {
        letter-spacing: -.02em;
      }

      .cls-13, .cls-14 {
        letter-spacing: -.01em;
      }

      .cls-15 {
        letter-spacing: -.02em;
      }

      .cls-16 {
        clip-path: url(#clippath);
      }

      .cls-17 {
        letter-spacing: -.08em;
      }

      .cls-18 {
        letter-spacing: .44em;
      }

      .cls-19 {
        letter-spacing: -.02em;
      }

      .cls-20 {
        letter-spacing: .44em;
      }

      .cls-21 {
        letter-spacing: -.02em;
      }

      .cls-22 {
        letter-spacing: 0em;
      }

      .cls-23 {
        fill: #029da4;
      }

      .cls-24, .cls-25 {
        fill: #fff;
      }

      .cls-26 {
        fill: #b3dee5;
      }

      .cls-27 {
        letter-spacing: 0em;
      }

      .cls-28 {
        letter-spacing: .03em;
      }

      .cls-29 {
        letter-spacing: .03em;
      }

      .cls-30 {
        letter-spacing: .17em;
      }

      .cls-31 {
        letter-spacing: .17em;
      }

      .cls-32 {
        letter-spacing: -.02em;
      }

      .cls-33 {
        letter-spacing: 1.97em;
      }

      .cls-25, .cls-14, .cls-34 {
        font-family: CenturyGothicPro, 'Century Gothic Pro';
        font-size: 11px;
      }

      .cls-35 {
        letter-spacing: .95em;
      }

      .cls-36 {
        letter-spacing: .95em;
      }

      .cls-37 {
        letter-spacing: -.02em;
      }

      .cls-38 {
        letter-spacing: 1em;
      }

      .cls-39 {
        letter-spacing: .04em;
      }

      .cls-40 {
        letter-spacing: 1.03em;
      }

      .cls-41 {
        letter-spacing: .27em;
      }

      .cls-42 {
        letter-spacing: .52em;
      }

      .cls-43 {
        letter-spacing: .52em;
      }

      .cls-44 {
        letter-spacing: .52em;
      }

      .cls-45 {
        letter-spacing: .52em;
      }

      .cls-46 {
        letter-spacing: -.03em;
      }

      .cls-47 {
        letter-spacing: .49em;
      }

      .cls-48 {
        letter-spacing: 0em;
      }

      .cls-49 {
        letter-spacing: -.02em;
      }

      .cls-50 {
        letter-spacing: .01em;
      }

      .cls-51 {
        letter-spacing: 1.99em;
      }

      .cls-52 {
        letter-spacing: -.01em;
      }

      .cls-53 {
        letter-spacing: .3em;
      }

      .cls-54 {
        letter-spacing: .02em;
      }

      .cls-55 {
        font-family: CenturyGothicPro-Bold, 'Century Gothic Pro';
        font-size: 20px;
        font-weight: 700;
      }

      .cls-56 {
        letter-spacing: -.01em;
      }

      .cls-57 {
        letter-spacing: .12em;
      }

      .cls-58 {
        letter-spacing: .61em;
      }

      .cls-59 {
        letter-spacing: 0em;
      }

      .cls-60 {
        letter-spacing: -.01em;
      }

      .cls-61 {
        letter-spacing: .32em;
      }

      .cls-62 {
        letter-spacing: -.05em;
      }

      .cls-63 {
        letter-spacing: -.01em;
      }

      .cls-64 {
        letter-spacing: 1.26em;
      }

      .cls-65 {
        letter-spacing: .9em;
      }

      .cls-66 {
        letter-spacing: .94em;
      }

      .cls-67 {
        letter-spacing: .08em;
      }

      .cls-68 {
        letter-spacing: .01em;
      }

      .cls-69 {
        letter-spacing: 0em;
      }

      .cls-70 {
        letter-spacing: 0em;
      }

      .cls-71 {
        letter-spacing: .52em;
      }

      .cls-72 {
        letter-spacing: 0em;
      }

      .cls-73 {
        letter-spacing: -.01em;
      }

      .cls-74 {
        letter-spacing: .59em;
      }

      .cls-7 {
        stroke-width: .5px;
      }

      .cls-75 {
        letter-spacing: .54em;
      }

      .cls-76 {
        letter-spacing: .54em;
      }
    </style>
    <clipPath id="clippath">
      <path class="cls-4" d="m16.66,711.68c2.54-3.45,6.94-5.46,11.72-4.54,4.56.88,8.24,4.55,9.12,9.1,1.45,7.47-4.23,14.01-11.44,14.01-2.76,0-5.29-.95-7.28-2.55l-18.78,7.97v31.29h554.77c23.42,0,42.4-18.99,42.4-42.4V41.37c0-22.84-18.52-41.37-41.37-41.37H0v35.01l3.72,2.21,13.4,2.73c.86-1.15,5.46-3.25,8.94-3.25,7.21,0,12.89,6.54,11.44,14.01-.89,4.55-4.55,8.22-9.1,9.1-7.47,1.45-14.01-4.23-14.01-11.44,0-.36-11.17-1.47-11.17-1.47l-3.23,1.42v67.23l16.39.77c2.47-3.66,6.95-5.83,11.86-4.95,4.62.84,8.36,4.52,9.26,9.13,1.45,7.47-4.23,14.01-11.44,14.01-4.41,0-8.25-2.45-10.23-6.06l-15.83.52v73.5l14.64-2.77c-.28-1.33-.33-2.75-.11-4.21.77-5.13,5.07-9.21,10.22-9.77,7.79-.84,14.25,5.99,12.75,13.88-.88,4.64-4.65,8.37-9.31,9.19-2.12.38-4.15.18-5.98-.46l-14.53,1.65-7.69,5.55v46.58l17.58,1.67c2.58-2.73,6.47-4.22,10.67-3.45,4.61.84,8.35,4.52,9.25,9.13,1.45,7.47-4.23,14.01-11.44,14.01-3.54,0-6.72-1.58-8.86-4.07l-17.2-.4v63.79l5.46-.5c.9-1.65,12.53-4.64,14.08-5.69,2.23-1.51,5.01-2.26,7.98-1.9,5.27.64,9.54,4.96,10.13,10.23.79,7.05-4.7,13.01-11.59,13.01-3.86,0-7.28-1.87-9.4-4.76-.71-.97-10.5,2.5-11.95,1.77l-4.71,1.24v53.36l17.45,3.32c2.57-2.81,6.5-4.36,10.75-3.61,4.64.82,8.41,4.52,9.31,9.14,1.45,7.47-4.23,14.01-11.44,14.01-4.49,0-8.39-2.54-10.34-6.26l-15.72.54v56.09l17.81,4.18c2.6-2.6,6.43-3.98,10.54-3.2,4.57.87,8.26,4.54,9.15,9.11,1.45,7.47-4.23,14.01-11.44,14.01-4.27,0-8.01-2.29-10.04-5.72l-16.02-6.21v65.28l17.47,1.57c2.57-2.8,6.49-4.34,10.74-3.59,4.63.82,8.4,4.52,9.3,9.13,1.45,7.47-4.23,14.01-11.44,14.01-3.6,0-6.82-1.63-8.96-4.19l-17.1,2.67v50.63l16.9,6.47c2.41-3.05,6.31-4.87,10.6-4.36,5.28.63,9.56,4.95,10.15,10.24.79,7.04-4.7,13.01-11.59,13.01-3.22,0-6.14-1.31-8.25-3.42l-17.81,3.38v58.08l16.66-2.14Z"/>
    </clipPath>
  </defs>
  <g id="Capa_1-2" data-name="Capa 1">
    <g class="cls-16">
      <rect class="cls-26" x="-6.42" y="-9.07" width="612.59" height="792.2"/>
      <polygon class="cls-23" points="-6.42 784.1 -5.15 497.26 188.6 497.26 242.47 590.58 129.91 783.22 -6.42 784.1"/>
      <polygon class="cls-23" points="484.01 784.1 369.65 585.92 423.53 492.6 606.27 492.6 607.06 783.22 484.01 784.1"/>
      <polygon class="cls-23" points="252.28 583.25 198.41 489.94 252.28 396.63 360.03 396.63 413.9 489.94 360.03 583.25 252.28 583.25"/>
      <polygon class="cls-23" points="141.42 784.1 252.28 595.51 360.03 595.51 468.96 784.1 141.42 784.1"/>
      <polygon class="cls-23" points="425.13 482.66 371.25 389.35 425.13 296.04 606.88 296.04 606.88 482.66 425.13 482.66"/>
      <rect class="cls-4" x="69.72" y="275.94" width="611.09" height="495.17"/>
      <text class="cls-24" transform="translate(449.42 357.09)"><tspan class="cls-55"><tspan x="0" y="0">Socios</tspan></tspan><tspan class="cls-34"><tspan class="cls-13" x="-33.57" y="13">Grupo</tspan><tspan class="cls-57" x=".18" y="13"> </tspan><tspan class="cls-13" x="4.56" y="13">de</tspan><tspan class="cls-57" x="19.03" y="13"> </tspan><tspan class="cls-13" x="23.42" y="13">personas</tspan><tspan class="cls-57" x="70.46" y="13"> </tspan><tspan class="cls-13" x="74.85" y="13">que </tspan></tspan><tspan class="cls-34"><tspan class="cls-13" x="-33.57" y="25">comparten</tspan><tspan class="cls-74" x="25.99" y="25"> </tspan><tspan class="cls-13" x="35.58" y="25">inte</tspan><tspan class="cls-63" x="54.93" y="25">r</tspan><tspan class="cls-13" x="58.09" y="25">eses</tspan><tspan class="cls-74" x="80.48" y="25"> </tspan><tspan class="cls-70" x="90.07" y="25">y </tspan></tspan><tspan class="cls-34"><tspan class="cls-13" x="-33.57" y="37">objetivos</tspan><tspan class="cls-40" x="13.02" y="37"> </tspan><tspan class="cls-13" x="27.41" y="37">en</tspan><tspan class="cls-40" x="41.05" y="37"> </tspan><tspan class="cls-13" x="55.44" y="37">común, </tspan></tspan><tspan class="cls-34"><tspan class="cls-13" x="-33.57" y="49">deciden</tspan><tspan class="cls-33" x="11.06" y="49"> </tspan><tspan class="cls-13" x="35.8" y="49">o</tspan><tspan class="cls-48" x="42.9" y="49">r</tspan><tspan class="cls-70" x="46.11" y="49">ganizarse </tspan></tspan><tspan class="cls-34"><tspan class="cls-13" x="-33.57" y="61">para</tspan><tspan class="cls-38" x="-8.17" y="61"> </tspan><tspan class="cls-70" x="5.82" y="61">confo</tspan><tspan class="cls-54" x="36.96" y="61">r</tspan><tspan class="cls-70" x="40.47" y="61">mar</tspan><tspan class="cls-38" x="61.28" y="61"> </tspan><tspan class="cls-70" x="75.28" y="61">una </tspan></tspan><tspan class="cls-14"><tspan x="-33.57" y="73">Sociedad Cooperativa. </tspan></tspan></text>
      <text class="cls-24" transform="translate(258.19 446.5)"><tspan class="cls-55"><tspan x="0" y="0">Asamblea </tspan></tspan><tspan class="cls-55"><tspan x="10.4" y="20">General</tspan></tspan><tspan class="cls-34"><tspan class="cls-13" x="-24.41" y="33">Es</tspan><tspan class="cls-47" x="-14.47" y="33"> </tspan><tspan class="cls-13" x="-5.99" y="33">el</tspan><tspan class="cls-47" x="3.14" y="33"> </tspan><tspan class="cls-13" x="11.61" y="33">máximo</tspan><tspan class="cls-47" x="53.79" y="33"> </tspan><tspan class="cls-13" x="62.26" y="33">ó</tspan><tspan class="cls-27" x="69.36" y="33">r</tspan><tspan class="cls-13" x="72.57" y="33">gano</tspan><tspan class="cls-47" x="100.96" y="33"> </tspan><tspan class="cls-13" x="109.44" y="33">de </tspan></tspan><tspan class="cls-34"><tspan class="cls-13" x="-24.41" y="45">Gobie</tspan><tspan class="cls-50" x="8.69" y="45">r</tspan><tspan class="cls-69" x="12.12" y="45">no</tspan><tspan class="cls-10" x="25.81" y="45"> </tspan><tspan class="cls-13" x="28.45" y="45">de</tspan><tspan class="cls-10" x="42.92" y="45"> </tspan><tspan class="cls-13" x="45.56" y="45">las</tspan><tspan class="cls-10" x="59.21" y="45"> </tspan><tspan class="cls-11" x="61.85" y="45">Sociedades </tspan></tspan><tspan class="cls-34"><tspan class="cls-13" x="-24.41" y="57">Cooperativas,</tspan><tspan class="cls-9" x="49.83" y="57"> </tspan><tspan class="cls-13" x="71.83" y="57">integrada </tspan></tspan><tspan class="cls-34"><tspan class="cls-13" x="-24.41" y="69">por</tspan><tspan class="cls-53" x="-6.73" y="69"> </tspan><tspan class="cls-13" x="-.37" y="69">Socios,</tspan><tspan class="cls-53" x="35.38" y="69"> </tspan><tspan class="cls-13" x="41.73" y="69">quienes</tspan><tspan class="cls-53" x="82.62" y="69"> </tspan><tspan class="cls-13" x="88.98" y="69">toman </tspan></tspan><tspan class="cls-34"><tspan class="cls-13" x="-24.41" y="81">las</tspan><tspan class="cls-71" x="-10.76" y="81"> </tspan><tspan class="cls-13" x="-1.99" y="81">decisiones</tspan><tspan class="cls-71" x="52.71" y="81"> </tspan><tspan class="cls-70" x="61.48" y="81">importantes </tspan></tspan><tspan class="cls-34"><tspan class="cls-13" x="-24.41" y="93">en fo</tspan><tspan class="cls-54" x="2.6" y="93">r</tspan><tspan class="cls-70" x="6.11" y="93">ma democrática.</tspan></tspan></text>
      <text class="cls-24" transform="translate(85.98 537.68)"><tspan class="cls-55"><tspan x="0" y="0">Gobie</tspan><tspan class="cls-72" x="60.4" y="0">r</tspan><tspan x="66.9" y="0">no </tspan></tspan><tspan class="cls-55"><tspan x="-11.75" y="19">Corporativo</tspan></tspan><tspan class="cls-34"><tspan class="cls-13" x="-33.67" y="32">Enca</tspan><tspan class="cls-27" x="-6.88" y="32">r</tspan><tspan class="cls-13" x="-3.67" y="32">gados</tspan><tspan class="cls-41" x="29.71" y="32"> </tspan><tspan class="cls-13" x="35.68" y="32">de</tspan><tspan class="cls-41" x="50.14" y="32"> </tspan><tspan class="cls-70" x="56.11" y="32">administrar</tspan><tspan class="cls-41" x="113.51" y="32"> </tspan><tspan class="cls-70" x="119.48" y="32">y </tspan></tspan><tspan class="cls-34"><tspan class="cls-13" x="-33.67" y="44">vigilar</tspan><tspan class="cls-52" x="-3.52" y="44"> </tspan><tspan class="cls-13" x="-.63" y="44">el</tspan><tspan class="cls-52" x="8.5" y="44"> </tspan><tspan class="cls-70" x="11.39" y="44">buen</tspan><tspan class="cls-52" x="39" y="44"> </tspan><tspan class="cls-13" x="41.9" y="44">funcionamiento </tspan></tspan><tspan class="cls-34"><tspan class="cls-13" x="-33.67" y="56">de</tspan><tspan class="cls-1" x="-19.21" y="56"> </tspan><tspan class="cls-13" x="-11.62" y="56">la</tspan><tspan class="cls-1" x="-2.12" y="56"> </tspan><tspan class="cls-13" x="5.47" y="56">Cooperativa.</tspan><tspan class="cls-1" x="75.56" y="56"> </tspan><tspan class="cls-70" x="83.15" y="56">Las</tspan><tspan class="cls-2" x="99.7" y="56"> </tspan><tspan class="cls-13" x="107.29" y="56">t</tspan><tspan class="cls-63" x="110.91" y="56">r</tspan><tspan class="cls-70" x="114.06" y="56">es </tspan></tspan><tspan class="cls-34"><tspan class="cls-13" x="-33.67" y="68">figuras</tspan><tspan class="cls-65" x=".2" y="68"> </tspan><tspan class="cls-13" x="13.1" y="68">principales</tspan><tspan class="cls-65" x="69.56" y="68"> </tspan><tspan class="cls-13" x="82.45" y="68">son:</tspan><tspan class="cls-65" x="103.24" y="68"> </tspan><tspan class="cls-13" x="116.13" y="68">el </tspan></tspan><tspan class="cls-34"><tspan class="cls-13" x="-33.67" y="80">Consejo</tspan><tspan class="cls-67" x="9.27" y="80"> </tspan><tspan class="cls-13" x="13.22" y="80">de</tspan><tspan class="cls-67" x="27.68" y="80"> </tspan><tspan class="cls-13" x="31.63" y="80">Administración,</tspan><tspan class="cls-67" x="112.19" y="80"> </tspan><tspan class="cls-13" x="116.14" y="80">el </tspan></tspan><tspan class="cls-34"><tspan class="cls-13" x="-33.67" y="92">Consejo</tspan><tspan class="cls-44" x="9.27" y="92"> </tspan><tspan class="cls-70" x="17.99" y="92">de</tspan><tspan class="cls-45" x="32.46" y="92"> </tspan><tspan class="cls-22" x="41.18" y="92">V</tspan><tspan class="cls-13" x="48.84" y="92">igilancia</tspan><tspan class="cls-45" x="92.91" y="92"> </tspan><tspan class="cls-13" x="101.63" y="92">y</tspan><tspan class="cls-45" x="107.41" y="92"> </tspan><tspan class="cls-13" x="116.13" y="92">el </tspan></tspan><tspan class="cls-34"><tspan class="cls-13" x="-33.67" y="104">Di</tspan><tspan class="cls-63" x="-23.51" y="104">r</tspan><tspan class="cls-13" x="-20.35" y="104">ector o Ge</tspan><tspan class="cls-63" x="37.1" y="104">r</tspan><tspan class="cls-13" x="40.25" y="104">ente General.</tspan></tspan></text>
      <text class="cls-24" transform="translate(253 623.55)"><tspan class="cls-55"><tspan x="0" y="0">Principios y </tspan></tspan><tspan class="cls-55"><tspan class="cls-17" x="18.88" y="18">V</tspan><tspan x="31.28" y="18">alo</tspan><tspan class="cls-59" x="62.08" y="18">r</tspan><tspan x="68.32" y="18">es </tspan></tspan><tspan class="cls-55"><tspan x="-10.8" y="36">Cooperativos</tspan></tspan><tspan class="cls-34"><tspan class="cls-13" x="-35.45" y="49">Conjunto</tspan><tspan class="cls-61" x="13.09" y="49"> </tspan><tspan class="cls-13" x="19.6" y="49">de</tspan><tspan class="cls-61" x="34.07" y="49"> </tspan><tspan class="cls-13" x="40.58" y="49">lineamientos</tspan><tspan class="cls-61" x="106.62" y="49"> </tspan><tspan class="cls-70" x="113.13" y="49">éticos </tspan></tspan></text>
      <text class="cls-25" transform="translate(217.55 684.55)"><tspan class="cls-56" x="0" y="0">para</tspan><tspan class="cls-15" x="25.22" y="0"> </tspan><tspan class="cls-56" x="28.04" y="0">orientar</tspan><tspan class="cls-21" x="67.93" y="0"> </tspan><tspan class="cls-56" x="70.74" y="0">la</tspan><tspan class="cls-21" x="80.15" y="0"> </tspan><tspan class="cls-60" x="82.96" y="0">participación</tspan><tspan class="cls-21" x="152.78" y="0"> </tspan><tspan class="cls-56" x="155.59" y="0">en</tspan><tspan class="cls-15" x="169.14" y="0"> </tspan><tspan class="cls-56" x="171.96" y="0">la </tspan><tspan class="cls-56" x="0" y="12">Sociedad</tspan><tspan class="cls-36" x="50.5" y="12"> </tspan><tspan class="cls-56" x="63.99" y="12">y</tspan><tspan class="cls-36" x="69.73" y="12"> </tspan><tspan class="cls-56" x="83.23" y="12">guías</tspan><tspan class="cls-36" x="110.53" y="12"> </tspan><tspan class="cls-56" x="124.02" y="12">del</tspan><tspan class="cls-35" x="140.44" y="12"> </tspan><tspan class="cls-56" x="153.93" y="12">buen </tspan><tspan class="cls-56" x="0" y="24">comportamiento</tspan><tspan class="cls-19" x="89.05" y="24"> </tspan><tspan class="cls-56" x="91.88" y="24">de</tspan><tspan class="cls-8" x="106.26" y="24"> </tspan><tspan class="cls-56" x="109.08" y="24">los</tspan><tspan class="cls-8" x="122.29" y="24"> </tspan><tspan class="cls-56" x="125.12" y="24">Socios</tspan><tspan class="cls-19" x="157.66" y="24"> </tspan><tspan class="cls-56" x="160.49" y="24">que </tspan><tspan class="cls-56" x="0" y="36">se</tspan><tspan class="cls-28" x="11.11" y="36"> </tspan><tspan class="cls-56" x="14.47" y="36">deben</tspan><tspan class="cls-29" x="49.75" y="36"> </tspan><tspan class="cls-56" x="53.11" y="36">practicar</tspan><tspan class="cls-28" x="101.03" y="36"> </tspan><tspan class="cls-56" x="104.4" y="36">en</tspan><tspan class="cls-29" x="117.95" y="36"> </tspan><tspan class="cls-56" x="121.31" y="36">el</tspan><tspan class="cls-28" x="130.35" y="36"> </tspan><tspan class="cls-56" x="133.71" y="36">día</tspan><tspan class="cls-29" x="150.5" y="36"> </tspan><tspan class="cls-56" x="153.86" y="36">a</tspan><tspan class="cls-28" x="161.22" y="36"> </tspan><tspan class="cls-56" x="164.58" y="36">día </tspan><tspan class="cls-56" x="0" y="48">y</tspan><tspan class="cls-76" x="5.74" y="48"> </tspan><tspan class="cls-56" x="14.74" y="48">es</tspan><tspan class="cls-75" x="25.85" y="48"> </tspan><tspan class="cls-60" x="34.85" y="48">lo</tspan><tspan class="cls-75" x="43.94" y="48"> </tspan><tspan class="cls-56" x="52.94" y="48">que</tspan><tspan class="cls-75" x="73.82" y="48"> </tspan><tspan class="cls-56" x="82.81" y="48">dife</tspan><tspan class="cls-49" x="102.53" y="48">r</tspan><tspan class="cls-56" x="105.65" y="48">encia</tspan><tspan class="cls-76" x="135.57" y="48"> </tspan><tspan class="cls-56" x="144.56" y="48">a</tspan><tspan class="cls-76" x="151.92" y="48"> </tspan><tspan class="cls-56" x="160.92" y="48">una </tspan><tspan class="cls-56" x="0" y="60">Sociedad</tspan><tspan class="cls-58" x="50.5" y="60"> </tspan><tspan class="cls-56" x="60.29" y="60">Cooperativa</tspan><tspan class="cls-58" x="126.96" y="60"> </tspan><tspan class="cls-56" x="136.75" y="60">de</tspan><tspan class="cls-58" x="151.13" y="60"> </tspan><tspan class="cls-56" x="160.92" y="60">una </tspan><tspan class="cls-56" x="0" y="72">emp</tspan><tspan class="cls-49" x="24.51" y="72">r</tspan><tspan class="cls-60" x="27.62" y="72">esa tradicional.</tspan></text>
      <text class="cls-24" transform="translate(413.35 535.02)"><tspan class="cls-55"><tspan class="cls-62" x="0" y="0">R</tspan><tspan class="cls-46" x="10.6" y="0">eglas y No</tspan><tspan class="cls-12" x="108.8" y="0">r</tspan><tspan class="cls-46" x="114.8" y="0">mas</tspan></tspan><tspan class="cls-34"><tspan class="cls-13" x="-.16" y="13">Son</tspan><tspan class="cls-37" x="18.9" y="13"> </tspan><tspan class="cls-13" x="21.7" y="13">importantes</tspan><tspan class="cls-32" x="84.12" y="13"> </tspan><tspan class="cls-70" x="86.92" y="13">para</tspan><tspan class="cls-32" x="112.32" y="13"> </tspan><tspan class="cls-70" x="115.11" y="13">el</tspan><tspan class="cls-32" x="124.24" y="13"> </tspan><tspan class="cls-70" x="127.04" y="13">buen </tspan></tspan></text>
      <text class="cls-25" transform="translate(413.19 560.02)"><tspan class="cls-56" x="0" y="0">funcionamiento</tspan><tspan class="cls-51" x="82.75" y="0"> </tspan><tspan class="cls-56" x="107.65" y="0">de</tspan><tspan class="cls-51" x="122.02" y="0"> </tspan><tspan class="cls-56" x="146.92" y="0">la </tspan><tspan class="cls-56" x="0" y="12">O</tspan><tspan class="cls-73" x="9.4" y="12">r</tspan><tspan class="cls-56" x="12.57" y="12">ganización</tspan><tspan class="cls-18" x="70.28" y="12"> </tspan><tspan class="cls-56" x="78.19" y="12">y</tspan><tspan class="cls-18" x="83.93" y="12"> </tspan><tspan class="cls-56" x="91.84" y="12">sob</tspan><tspan class="cls-3" x="110.36" y="12">r</tspan><tspan class="cls-56" x="113.47" y="12">e</tspan><tspan class="cls-20" x="120.46" y="12"> </tspan><tspan class="cls-60" x="128.38" y="12">todo, </tspan><tspan class="cls-56" x="0" y="24">para</tspan><tspan class="cls-43" x="25.22" y="24"> </tspan><tspan class="cls-56" x="33.97" y="24">p</tspan><tspan class="cls-49" x="41.32" y="24">r</tspan><tspan class="cls-56" x="44.43" y="24">evenir</tspan><tspan class="cls-42" x="76.12" y="24"> </tspan><tspan class="cls-56" x="84.87" y="24">los</tspan><tspan class="cls-42" x="98.08" y="24"> </tspan><tspan class="cls-60" x="106.83" y="24">conflictos </tspan><tspan class="cls-56" x="0" y="36">que</tspan><tspan class="cls-39" x="20.88" y="36"> </tspan><tspan class="cls-56" x="24.33" y="36">se</tspan><tspan class="cls-39" x="35.44" y="36"> </tspan><tspan class="cls-56" x="38.9" y="36">pueden</tspan><tspan class="cls-39" x="80.71" y="36"> </tspan><tspan class="cls-56" x="84.17" y="36">generar</tspan><tspan class="cls-39" x="125.64" y="36"> </tspan><tspan class="cls-56" x="129.09" y="36">ent</tspan><tspan class="cls-49" x="146.22" y="36">r</tspan><tspan class="cls-56" x="149.33" y="36">e </tspan><tspan class="cls-56" x="0" y="48">los miemb</tspan><tspan class="cls-49" x="52.82" y="48">r</tspan><tspan class="cls-56" x="55.93" y="48">os. </tspan><tspan class="cls-56" x="0" y="62">Las</tspan><tspan class="cls-64" x="16.41" y="62"> </tspan><tspan class="cls-56" x="33.34" y="62">Cooperativas</tspan><tspan class="cls-64" x="104.12" y="62"> </tspan><tspan class="cls-56" x="121.05" y="62">deben </tspan><tspan class="cls-56" x="0" y="74">contar</tspan><tspan class="cls-31" x="34.66" y="74"> </tspan><tspan class="cls-60" x="39.54" y="74">con</tspan><tspan class="cls-30" x="60.11" y="74"> </tspan><tspan class="cls-56" x="64.99" y="74">sus</tspan><tspan class="cls-30" x="79.75" y="74"> </tspan><tspan class="cls-56" x="84.63" y="74">p</tspan><tspan class="cls-49" x="91.98" y="74">r</tspan><tspan class="cls-56" x="95.1" y="74">opios</tspan><tspan class="cls-31" x="122.7" y="74"> </tspan><tspan class="cls-56" x="127.59" y="74">Bases </tspan><tspan class="cls-56" x="0" y="86">Constitutivas</tspan><tspan class="cls-66" x="65.27" y="86"> </tspan><tspan class="cls-56" x="78.71" y="86">ap</tspan><tspan class="cls-49" x="93.42" y="86">r</tspan><tspan class="cls-56" x="96.53" y="86">obadas</tspan><tspan class="cls-66" x="137.14" y="86"> </tspan><tspan class="cls-56" x="150.59" y="86">y </tspan><tspan class="cls-56" x="0" y="98">fo</tspan><tspan class="cls-68" x="10.35" y="98">r</tspan><tspan class="cls-56" x="13.81" y="98">malizadas.</tspan></text>
      <polygon class="cls-6" points="605.96 782.13 552.09 688.82 605.96 595.51 713.71 595.51 767.58 688.82 713.71 782.13 605.96 782.13"/>
      <polygon class="cls-6" points="606.44 379.45 559.32 297.83 606.44 216.21 700.69 216.21 747.81 297.83 700.69 379.45 606.44 379.45"/>
      <polygon class="cls-5" points="135.65 505.34 103.35 449.39 135.65 393.44 200.26 393.44 232.56 449.39 200.26 505.34 135.65 505.34"/>
      <polygon class="cls-7" points="428.03 288.17 374.16 194.86 428.03 101.54 535.78 101.54 589.65 194.86 535.78 288.17 428.03 288.17"/>
      <polygon class="cls-7" points="80.34 477.25 64.66 450.09 80.34 422.93 111.7 422.93 127.39 450.09 111.7 477.25 80.34 477.25"/>
      <polygon class="cls-7" points="428.03 89.29 374.15 -4.02 428.03 -97.33 535.77 -97.33 589.65 -4.02 535.77 89.29 428.03 89.29"/>
      <polygon class="cls-7" points="605.79 183.11 551.92 89.8 605.79 -3.52 713.54 -3.52 767.41 89.8 713.54 183.11 605.79 183.11"/>
      <polygon class="cls-7" points="394.98 67.12 341.11 -26.19 394.98 -119.51 502.73 -119.51 556.6 -26.19 502.73 67.12 394.98 67.12"/>
      <polygon class="cls-6" points="56.47 905.83 -2.87 803.04 56.47 700.25 175.15 700.25 234.5 803.04 175.15 905.83 56.47 905.83"/>
      <polygon class="cls-6" points="435.46 871.66 384.86 784.02 435.46 696.37 536.66 696.37 587.27 784.02 536.66 871.66 435.46 871.66"/>
      <polygon class="cls-6" points="606.54 583.25 552.66 489.94 606.54 396.63 714.28 396.63 768.16 489.94 714.28 583.25 606.54 583.25"/>
    </g>
  </g>
</svg>