<?xml version="1.0" encoding="UTF-8"?>
<svg id="Capa_2" data-name="Capa 2" xmlns="http://www.w3.org/2000/svg" xmlns:xlink="http://www.w3.org/1999/xlink" viewBox="0 0 501.09 92.91">
  <defs>
    <style>
      .cls-1 {
        fill: url(#_ÅÂÁ_Ï_ÌÌ_È_ËÂÌÚ_1615-3);
      }

      .cls-2 {
        fill: url(#_ÅÂÁ_Ï_ÌÌ_È_ËÂÌÚ_1615-2);
      }

      .cls-3 {
        fill: #029da4;
      }

      .cls-4 {
        fill: url(#_ÅÂÁ_Ï_ÌÌ_È_ËÂÌÚ_1615);
      }
    </style>
    <linearGradient id="_ÅÂÁ_Ï_ÌÌ_È_ËÂÌÚ_1615" data-name="ÅÂÁ˚ÏﬂÌÌ˚È „‡‰ËÂÌÚ 1615" x1="175.66" y1="20.55" x2="320.84" y2="20.55" gradientUnits="userSpaceOnUse">
      <stop offset=".64" stop-color="#f3f4f4"/>
      <stop offset="1" stop-color="#edeeee"/>
    </linearGradient>
    <linearGradient id="_ÅÂÁ_Ï_ÌÌ_È_ËÂÌÚ_1615-2" data-name="ÅÂÁ˚ÏﬂÌÌ˚È „‡‰ËÂÌÚ 1615" x1="338.53" y1="73.16" x2="495.95" y2="73.16" xlink:href="#_ÅÂÁ_Ï_ÌÌ_È_ËÂÌÚ_1615"/>
    <linearGradient id="_ÅÂÁ_Ï_ÌÌ_È_ËÂÌÚ_1615-3" data-name="ÅÂÁ˚ÏﬂÌÌ˚È „‡‰ËÂÌÚ 1615" x1="4.92" y1="73.16" x2="181.72" y2="73.16" xlink:href="#_ÅÂÁ_Ï_ÌÌ_È_ËÂÌÚ_1615"/>
  </defs>
  <g id="Capa_1-2" data-name="Capa 1">
    <polygon class="cls-4" points="320.84 5.22 320.84 36.37 177.59 36.85 175.66 4.25 320.84 5.22"/>
    <path class="cls-3" d="m172.44,38.64c0,.08.03.15.05.22-.04.37.13.78.53.84,6.86,1.07,14.23.39,21.17.43,7.31.04,14.61.09,21.92.11,14.93.04,91.86,0,106.8-.13.28,0,.45-.17.51-.38.4.05.8-.13.87-.6,1.42-9.71,1.74-26.49.6-36.29.1-.01.2-.02.3-.04.51-.08.51-.95,0-1.03-.17-.03-.35-.04-.53-.06-.12-.1-.29-.12-.42-.05-6.64-.86-13.65-.36-20.32-.44-7.68-.08-77.36-.15-85.05-.26-15.31-.22-30.79-1.34-46.08-.86-.86.03-1.07.92-.68,1.45-.01.04-.03.08-.04.12-1.08,10.16.04,26.76.35,36.96Zm1.88-.55c-.15-9.94.37-26.29-1.11-36.13,15.09,1.27,30.54.82,45.68,1.02,7.68.1,77.36.2,85.05.22,6.58.02,13.5.55,20.06-.25-.71,9.91-1.08,26.03-1.37,35.95,0,.03.01.06.02.09-14.84-.33-91.68-.56-106.52-.73-7.31-.08-14.61-.13-21.92-.19-6.51-.05-13.38-.71-19.88,0Z"/>
    <polygon class="cls-2" points="495.95 57.83 495.95 88.97 340.63 89.46 338.53 56.86 495.95 57.83"/>
    <path class="cls-3" d="m335.03,91.25c0,.08.04.15.06.22-.04.37.14.78.58.84,7.44,1.07,15.43.39,22.96.43,7.92.04,15.85.09,23.77.11,16.19.04,99.61,0,115.8-.13.31,0,.49-.17.55-.38.43.05.87-.13.95-.6,1.54-9.71,1.88-26.49.65-36.29.11-.01.22-.02.33-.04.55-.08.55-.95,0-1.03-.19-.03-.38-.04-.57-.06-.13-.1-.31-.12-.46-.05-7.2-.86-14.8-.36-22.04-.44-8.33-.08-83.89-.15-92.21-.26-16.6-.22-33.38-1.34-49.97-.86-.94.03-1.16.92-.74,1.45-.02.04-.03.08-.04.12-1.17,10.16.05,26.76.38,36.96Zm2.03-.55c-.17-9.94.4-26.29-1.2-36.13,16.37,1.27,33.11.82,49.53,1.02,8.33.1,83.89.2,92.21.22,7.14.02,14.64.55,21.76-.25-.77,9.91-1.17,26.03-1.49,35.95,0,.03.01.06.02.09-16.09-.33-99.41-.56-115.5-.73-7.92-.08-15.85-.13-23.77-.19-7.06-.05-14.5-.71-21.55,0Z"/>
    <polygon class="cls-1" points="181.72 57.83 181.72 88.97 7.27 89.46 4.92 56.86 181.72 57.83"/>
    <path class="cls-3" d="m.99,91.25c0,.08.04.15.06.22-.05.37.16.78.65.84,8.35,1.07,17.33.39,25.78.43,8.9.04,17.8.09,26.7.11,18.19.04,111.88,0,130.07-.13.34,0,.55-.17.62-.38.48.05.98-.13,1.06-.6,1.73-9.71,2.11-26.49.73-36.29.12-.01.25-.02.37-.04.62-.08.62-.95,0-1.03-.21-.03-.43-.04-.64-.06-.14-.1-.35-.12-.51-.05-8.09-.86-16.62-.36-24.75-.44-9.36-.08-94.22-.15-103.57-.26-18.64-.22-37.5-1.34-56.12-.86-1.05.03-1.3.92-.83,1.45-.02.04-.04.08-.04.12-1.32,10.16.05,26.76.43,36.96Zm2.28-.55c-.19-9.94.45-26.29-1.35-36.13,18.38,1.27,37.19.82,55.63,1.02,9.35.1,94.22.2,103.57.22,8.02.02,16.44.55,24.44-.25-.86,9.91-1.31,26.03-1.67,35.95,0,.03.02.06.02.09-18.08-.33-111.65-.56-129.73-.73-8.9-.08-17.8-.13-26.7-.19-7.93-.05-16.29-.71-24.21,0Z"/>
    <g>
      <path class="cls-3" d="m180.91,16.5h1.51v7.9h-1.51v-7.9Z"/>
      <path class="cls-3" d="m185.52,23.7c0,.46-.36.85-.84.85s-.85-.39-.85-.85.38-.84.85-.84.84.37.84.84Z"/>
      <path class="cls-3" d="m194.65,16.5h.79v7.13h3.04v.77h-3.83v-7.9Z"/>
      <path class="cls-3" d="m204.69,18.55h.74v5.84h-.74v-1c-.64.77-1.44,1.14-2.35,1.14-1.71,0-2.99-1.42-2.99-3.08s1.32-3.06,3.01-3.06c.95,0,1.75.41,2.33,1.22v-1.07Zm-4.58,2.93c0,1.27.99,2.38,2.3,2.38,1.2,0,2.33-.9,2.33-2.35,0-1.35-1.01-2.38-2.32-2.38s-2.31,1.1-2.31,2.35Z"/>
      <path class="cls-3" d="m213.41,16.5l3.69,7.9h-.85l-1.24-2.6h-3.41l-1.23,2.6h-.88l3.74-7.9h.19Zm-.1,1.67l-1.36,2.86h2.71l-1.34-2.86Z"/>
      <path class="cls-3" d="m218.07,23.18c.37.42.78.65,1.22.65.57,0,1.08-.42,1.08-.97,0-.34-.2-.66-.48-.81-1.34-.75-2.02-1.07-2.02-2.09,0-.92.72-1.55,1.61-1.55.64,0,1.12.31,1.62.79l-.48.5c-.35-.34-.7-.56-1.18-.56s-.88.34-.88.78c0,.3.19.63.45.78,1.34.78,2.09,1.08,2.09,2.13,0,.91-.7,1.73-1.76,1.73-.65,0-1.31-.3-1.73-.84l.47-.54Z"/>
      <path class="cls-3" d="m227.44,18.55h.74v5.84h-.74v-1c-.64.77-1.44,1.14-2.35,1.14-1.71,0-2.99-1.42-2.99-3.08s1.32-3.06,3.01-3.06c.95,0,1.75.41,2.33,1.22v-1.07Zm-4.58,2.93c0,1.27.99,2.38,2.3,2.38,1.2,0,2.33-.9,2.33-2.35,0-1.35-1.01-2.38-2.32-2.38s-2.31,1.1-2.31,2.35Z"/>
      <path class="cls-3" d="m234.53,24.4h-.75v-2.99c0-.45-.04-.83-.05-1.09-.03-.64-.55-1.19-1.32-1.19-.52,0-1.03.25-1.36.68-.42.54-.5,1.23-.5,2.11v2.48h-.75v-5.84h.75v1c.52-.75,1.17-1.16,2-1.16.89,0,1.53.46,1.85,1.41.52-.94,1.29-1.41,2.15-1.41,1.21,0,1.99.87,1.99,2.53v3.47h-.75v-3.19c0-.43-.06-.77-.07-.99-.03-.52-.53-1.09-1.32-1.09-.73,0-1.36.44-1.66,1.19-.19.47-.21.99-.21,1.53v2.55Z"/>
      <path class="cls-3" d="m240.88,24.4h-.75v-8.1h.75v3.26c.64-.77,1.43-1.16,2.34-1.16,1.71,0,3,1.42,3,3.08s-1.32,3.07-3.03,3.07c-.95,0-1.73-.42-2.32-1.23v1.08Zm4.58-2.94c0-1.27-1-2.38-2.31-2.38-1.2,0-2.32.89-2.32,2.35,0,1.35,1,2.39,2.32,2.39s2.31-1.11,2.31-2.37Z"/>
      <path class="cls-3" d="m247.41,16.3h.75v8.1h-.75v-8.1Z"/>
      <path class="cls-3" d="m250.16,21.54c.03,1.34.95,2.32,2.2,2.32s1.8-.69,2.23-1.4l.63.33c-.59,1.17-1.51,1.75-2.78,1.75-1.94,0-3.05-1.48-3.05-3.05s1.18-3.09,3-3.09c1.66,0,3,1.2,3.03,3.14h-5.26Zm4.43-.66c-.31-1.21-1.18-1.75-2.19-1.75s-1.83.56-2.17,1.75h4.36Z"/>
      <path class="cls-3" d="m261.85,18.55h.74v5.84h-.74v-1c-.64.77-1.44,1.14-2.35,1.14-1.71,0-2.99-1.42-2.99-3.08s1.32-3.06,3.01-3.06c.95,0,1.75.41,2.33,1.22v-1.07Zm-4.58,2.93c0,1.27.99,2.38,2.3,2.38,1.2,0,2.33-.9,2.33-2.35,0-1.35-1.01-2.38-2.32-2.38s-2.31,1.1-2.31,2.35Z"/>
      <path class="cls-3" d="m275.43,20.6c-.01,2.51-1.61,3.98-3.97,3.98-2.74,0-4.46-1.96-4.46-4.14s1.74-4.15,4.33-4.15c1.45,0,2.56.53,3.62,1.53l-.6.57c-.89-.87-1.97-1.33-2.99-1.33-1.89,0-3.53,1.45-3.53,3.36s1.53,3.43,3.65,3.43c1.5,0,2.84-.89,3.06-2.49h-2.52v-.77h3.41Z"/>
      <path class="cls-3" d="m277.25,21.54c.03,1.34.95,2.32,2.2,2.32s1.8-.69,2.23-1.4l.63.33c-.59,1.17-1.51,1.75-2.78,1.75-1.94,0-3.05-1.48-3.05-3.05s1.18-3.09,3-3.09c1.66,0,3,1.2,3.03,3.14h-5.26Zm4.43-.66c-.31-1.21-1.18-1.75-2.19-1.75s-1.83.56-2.17,1.75h4.36Z"/>
      <path class="cls-3" d="m284.59,19.6c.61-.79,1.33-1.2,2.19-1.2,1.28,0,2.17.88,2.17,2.72v3.28h-.75v-3.18c0-1.38-.43-2.13-1.56-2.13-.63,0-1.14.28-1.54.79-.44.57-.51,1.14-.51,2.07v2.45h-.75v-5.84h.75v1.04Z"/>
      <path class="cls-3" d="m291,21.54c.03,1.34.95,2.32,2.2,2.32s1.8-.69,2.23-1.4l.63.33c-.59,1.17-1.51,1.75-2.78,1.75-1.94,0-3.05-1.48-3.05-3.05s1.18-3.09,3-3.09c1.66,0,3,1.2,3.03,3.14h-5.26Zm4.43-.66c-.31-1.21-1.18-1.75-2.19-1.75s-1.83.56-2.17,1.75h4.36Z"/>
      <path class="cls-3" d="m298.09,19.4c.44-.64.91-1,1.51-1,.34,0,.52.11.67.2l-.4.64c-.09-.04-.23-.11-.4-.11-.55,0-1.05.47-1.27,1.28-.1.37-.12.98-.12,1.77v2.22h-.79v-5.84h.79v.85Z"/>
      <path class="cls-3" d="m305.94,18.55h.74v5.84h-.74v-1c-.64.77-1.44,1.14-2.35,1.14-1.71,0-2.99-1.42-2.99-3.08s1.32-3.06,3.01-3.06c.95,0,1.75.41,2.33,1.22v-1.07Zm-4.58,2.93c0,1.27.99,2.38,2.3,2.38,1.2,0,2.33-.9,2.33-2.35,0-1.35-1.01-2.38-2.32-2.38s-2.31,1.1-2.31,2.35Z"/>
      <path class="cls-3" d="m308.2,16.3h.75v8.1h-.75v-8.1Z"/>
      <path class="cls-3" d="m311.94,23.88c0,.37-.3.67-.66.67s-.66-.31-.66-.67.3-.67.66-.67.66.3.66.67Z"/>
    </g>
    <g>
      <path class="cls-3" d="m8.88,69.32h1.51v7.9h-1.51v-7.9Z"/>
      <path class="cls-3" d="m11.9,69.32h1.51v7.9h-1.51v-7.9Z"/>
      <path class="cls-3" d="m16.51,76.52c0,.46-.36.85-.84.85s-.85-.38-.85-.85.38-.84.85-.84.84.37.84.84Z"/>
      <path class="cls-3" d="m25.59,69.32h4.51v.77h-3.72v2.48h3.72v.77h-3.72v3.11h3.72v.77h-4.51v-7.9Z"/>
      <path class="cls-3" d="m31.19,69.12h.75v8.1h-.75v-8.1Z"/>
      <path class="cls-3" d="m43.29,71.25c-.69-.91-1.68-1.36-2.82-1.36-1.87,0-3.44,1.39-3.44,3.4s1.5,3.39,3.49,3.39c1.1,0,2.04-.45,2.77-1.31l.63.47c-.81,1.02-2.01,1.56-3.46,1.56-2.64,0-4.26-1.86-4.26-4.18s1.8-4.1,4.26-4.1c1.45,0,2.67.57,3.46,1.66l-.63.47Z"/>
      <path class="cls-3" d="m51.14,74.31c0,1.66-1.29,3.06-3.05,3.06s-3.05-1.4-3.05-3.06,1.3-3.09,3.05-3.09,3.05,1.42,3.05,3.09Zm-5.33.01c0,1.28.96,2.32,2.28,2.32s2.28-1.04,2.28-2.32-1.03-2.38-2.28-2.38-2.28,1.08-2.28,2.38Z"/>
      <path class="cls-3" d="m53.22,72.42c.61-.79,1.33-1.2,2.19-1.2,1.28,0,2.17.88,2.17,2.72v3.28h-.75v-3.18c0-1.38-.43-2.13-1.56-2.13-.63,0-1.14.28-1.54.79-.44.57-.51,1.14-.51,2.07v2.45h-.75v-5.84h.75v1.04Z"/>
      <path class="cls-3" d="m59.05,76c.37.42.78.65,1.22.65.57,0,1.08-.42,1.08-.97,0-.34-.2-.66-.48-.81-1.34-.75-2.02-1.07-2.02-2.09,0-.92.72-1.55,1.61-1.55.64,0,1.12.31,1.62.79l-.48.5c-.35-.34-.7-.56-1.18-.56s-.88.34-.88.78c0,.3.19.63.45.78,1.34.78,2.09,1.08,2.09,2.13,0,.91-.7,1.73-1.76,1.73-.65,0-1.31-.3-1.73-.84l.47-.54Z"/>
      <path class="cls-3" d="m63.83,74.36c.03,1.34.95,2.32,2.2,2.32s1.8-.69,2.23-1.4l.63.33c-.59,1.17-1.51,1.75-2.78,1.75-1.94,0-3.05-1.49-3.05-3.05s1.18-3.09,3-3.09c1.66,0,3,1.2,3.03,3.14h-5.26Zm4.43-.66c-.31-1.21-1.18-1.75-2.19-1.75s-1.83.56-2.17,1.75h4.36Z"/>
      <path class="cls-3" d="m70.36,71.37h.75v6.72c0,.93-.33,1.42-1,1.42-.33,0-.62-.1-.85-.19v-.68c.13.07.31.14.54.14.35,0,.56-.23.56-.69v-6.72Zm.99-1.79c0,.34-.29.63-.63.63s-.62-.29-.62-.63.28-.62.62-.62.63.28.63.62Z"/>
      <path class="cls-3" d="m78.43,74.31c0,1.66-1.29,3.06-3.05,3.06s-3.05-1.4-3.05-3.06,1.3-3.09,3.05-3.09,3.05,1.42,3.05,3.09Zm-5.33.01c0,1.28.96,2.32,2.28,2.32s2.28-1.04,2.28-2.32-1.03-2.38-2.28-2.38-2.28,1.08-2.28,2.38Z"/>
      <path class="cls-3" d="m87.85,76.22c-.64.77-1.44,1.14-2.35,1.14-1.71,0-2.99-1.42-2.99-3.08s1.32-3.06,3.01-3.06c.95,0,1.75.41,2.33,1.22v-3.32h.75v8.1h-.75v-1Zm-4.58-1.91c0,1.26.99,2.38,2.3,2.38,1.2,0,2.32-.9,2.32-2.35,0-1.35-1-2.38-2.31-2.38s-2.31,1.1-2.31,2.35Z"/>
      <path class="cls-3" d="m90.73,74.36c.03,1.34.95,2.32,2.2,2.32s1.8-.69,2.23-1.4l.63.33c-.59,1.17-1.51,1.75-2.78,1.75-1.94,0-3.05-1.49-3.05-3.05s1.18-3.09,3-3.09c1.66,0,3,1.2,3.03,3.14h-5.26Zm4.43-.66c-.31-1.21-1.18-1.75-2.19-1.75s-1.83.56-2.17,1.75h4.36Z"/>
      <path class="cls-3" d="m103.68,69.32l3.69,7.9h-.85l-1.24-2.6h-3.41l-1.23,2.6h-.88l3.74-7.9h.19Zm-.1,1.67l-1.36,2.86h2.71l-1.34-2.86Z"/>
      <path class="cls-3" d="m113.5,76.22c-.64.77-1.44,1.14-2.35,1.14-1.71,0-2.99-1.42-2.99-3.08s1.32-3.06,3.01-3.06c.95,0,1.75.41,2.33,1.22v-3.32h.75v8.1h-.75v-1Zm-4.58-1.91c0,1.26.99,2.38,2.3,2.38,1.2,0,2.32-.9,2.32-2.35,0-1.35-1-2.38-2.31-2.38s-2.31,1.1-2.31,2.35Z"/>
      <path class="cls-3" d="m120.61,77.22h-.75v-2.99c0-.45-.04-.83-.05-1.09-.03-.64-.55-1.19-1.32-1.19-.52,0-1.03.25-1.36.68-.42.54-.5,1.23-.5,2.11v2.48h-.75v-5.84h.75v1c.52-.75,1.17-1.16,2-1.16.89,0,1.53.46,1.85,1.41.52-.93,1.29-1.41,2.15-1.41,1.21,0,1.99.87,1.99,2.53v3.46h-.75v-3.19c0-.43-.06-.77-.07-.99-.03-.52-.53-1.09-1.32-1.09-.73,0-1.36.44-1.66,1.19-.19.47-.21.99-.21,1.53v2.55Z"/>
      <path class="cls-3" d="m127.04,69.58c0,.34-.29.63-.63.63s-.62-.29-.62-.63.29-.62.62-.62.63.28.63.62Zm-.99,1.79h.75v5.84h-.75v-5.84Z"/>
      <path class="cls-3" d="m129.04,72.42c.61-.79,1.33-1.2,2.19-1.2,1.28,0,2.17.88,2.17,2.72v3.28h-.75v-3.18c0-1.38-.43-2.13-1.56-2.13-.63,0-1.14.28-1.54.79-.44.57-.51,1.14-.51,2.07v2.45h-.75v-5.84h.75v1.04Z"/>
      <path class="cls-3" d="m135.84,69.58c0,.34-.29.63-.63.63s-.62-.29-.62-.63.29-.62.62-.62.63.28.63.62Zm-.99,1.79h.75v5.84h-.75v-5.84Z"/>
      <path class="cls-3" d="m137.02,76c.37.42.78.65,1.22.65.57,0,1.08-.42,1.08-.97,0-.34-.2-.66-.48-.81-1.34-.75-2.02-1.07-2.02-2.09,0-.92.72-1.55,1.61-1.55.64,0,1.12.31,1.62.79l-.48.5c-.35-.34-.7-.56-1.18-.56s-.88.34-.88.78c0,.3.19.63.45.78,1.34.78,2.09,1.08,2.09,2.13,0,.91-.7,1.73-1.76,1.73-.65,0-1.31-.3-1.73-.84l.47-.54Z"/>
      <path class="cls-3" d="m141.98,69.2h.75v2.18h1.2v.66h-1.2v5.18h-.75v-5.18h-1.03v-.66h1.03v-2.18Z"/>
      <path class="cls-3" d="m145.48,72.22c.44-.64.91-1,1.51-1,.34,0,.52.11.67.2l-.4.64c-.09-.04-.23-.11-.4-.11-.55,0-1.05.47-1.27,1.28-.1.37-.12.98-.12,1.77v2.22h-.79v-5.84h.79v.85Z"/>
      <path class="cls-3" d="m153.32,71.37h.74v5.84h-.74v-1c-.64.77-1.44,1.14-2.35,1.14-1.71,0-2.99-1.42-2.99-3.08s1.32-3.06,3.01-3.06c.95,0,1.75.41,2.33,1.22v-1.07Zm-4.58,2.93c0,1.26.99,2.38,2.3,2.38,1.2,0,2.33-.9,2.33-2.35,0-1.35-1.01-2.38-2.32-2.38s-2.31,1.1-2.31,2.35Z"/>
      <path class="cls-3" d="m161.37,76.04c-.57.87-1.56,1.32-2.74,1.32-1.92,0-3.21-1.39-3.21-3.01,0-1.72,1.34-3.12,3.27-3.12,1.12,0,2.15.46,2.68,1.36l-.6.37c-.52-.68-1.23-1.01-2.11-1.01-1.49,0-2.46,1.09-2.46,2.34s.97,2.39,2.48,2.39c.85,0,1.55-.34,2.1-1.02l.6.38Z"/>
      <path class="cls-3" d="m163.65,69.58c0,.34-.29.63-.63.63s-.62-.29-.62-.63.29-.62.62-.62.63.28.63.62Zm-.99,1.79h.75v5.84h-.75v-5.84Z"/>
      <path class="cls-3" d="m170.72,74.31c0,1.66-1.29,3.06-3.05,3.06s-3.05-1.4-3.05-3.06,1.3-3.09,3.05-3.09,3.05,1.42,3.05,3.09Zm-5.33.01c0,1.28.96,2.32,2.28,2.32s2.28-1.04,2.28-2.32-1.03-2.38-2.28-2.38-2.28,1.08-2.28,2.38Zm2.64-5.7h1.16l-1.6,1.66h-.74l1.18-1.66Z"/>
      <path class="cls-3" d="m172.8,72.42c.61-.79,1.33-1.2,2.19-1.2,1.28,0,2.17.88,2.17,2.72v3.28h-.75v-3.18c0-1.38-.43-2.13-1.56-2.13-.63,0-1.14.28-1.54.79-.44.57-.51,1.14-.51,2.07v2.45h-.75v-5.84h.75v1.04Z"/>
      <path class="cls-3" d="m180.19,76.7c0,.37-.3.67-.66.67s-.66-.31-.66-.67.3-.67.66-.67.66.3.66.67Z"/>
    </g>
    <g>
      <path class="cls-3" d="m344.09,69.32h1.51v7.9h-1.51v-7.9Z"/>
      <path class="cls-3" d="m347.12,69.32h1.51v7.9h-1.51v-7.9Z"/>
      <path class="cls-3" d="m350.14,69.32h1.51v7.9h-1.51v-7.9Z"/>
      <path class="cls-3" d="m354.75,76.52c0,.46-.36.85-.84.85s-.85-.39-.85-.85.38-.84.85-.84.84.37.84.84Z"/>
      <path class="cls-3" d="m363.83,69.32h4.51v.77h-3.72v2.48h3.72v.77h-3.72v3.11h3.72v.77h-4.51v-7.9Z"/>
      <path class="cls-3" d="m369.42,69.12h.75v8.1h-.75v-8.1Z"/>
      <path class="cls-3" d="m381.53,71.25c-.69-.91-1.68-1.36-2.82-1.36-1.87,0-3.44,1.39-3.44,3.4s1.5,3.39,3.49,3.39c1.1,0,2.04-.45,2.77-1.31l.63.47c-.81,1.02-2.01,1.56-3.46,1.56-2.64,0-4.26-1.86-4.26-4.18s1.8-4.1,4.26-4.1c1.45,0,2.67.57,3.46,1.66l-.63.47Z"/>
      <path class="cls-3" d="m389.38,74.31c0,1.66-1.29,3.06-3.05,3.06s-3.05-1.4-3.05-3.06,1.3-3.09,3.05-3.09,3.05,1.42,3.05,3.09Zm-5.33.01c0,1.28.96,2.32,2.28,2.32s2.28-1.04,2.28-2.32-1.03-2.38-2.28-2.38-2.28,1.08-2.28,2.38Z"/>
      <path class="cls-3" d="m391.46,72.42c.61-.79,1.33-1.2,2.19-1.2,1.28,0,2.17.88,2.17,2.72v3.28h-.75v-3.18c0-1.38-.43-2.13-1.56-2.13-.63,0-1.14.27-1.54.79-.44.57-.51,1.14-.51,2.07v2.45h-.75v-5.84h.75v1.04Z"/>
      <path class="cls-3" d="m397.29,76c.37.42.78.65,1.22.65.57,0,1.08-.42,1.08-.97,0-.34-.2-.66-.48-.81-1.34-.75-2.02-1.07-2.02-2.09,0-.92.72-1.55,1.61-1.55.64,0,1.12.31,1.62.79l-.48.5c-.35-.34-.7-.56-1.18-.56s-.88.34-.88.78c0,.3.19.63.45.78,1.34.78,2.09,1.08,2.09,2.13,0,.91-.7,1.73-1.76,1.73-.65,0-1.31-.3-1.73-.84l.47-.54Z"/>
      <path class="cls-3" d="m402.07,74.36c.03,1.34.95,2.32,2.2,2.32s1.8-.69,2.23-1.4l.63.33c-.59,1.17-1.51,1.75-2.78,1.75-1.94,0-3.05-1.48-3.05-3.05s1.18-3.09,3-3.09c1.66,0,3,1.2,3.03,3.14h-5.26Zm4.43-.66c-.31-1.21-1.18-1.75-2.19-1.75s-1.83.56-2.17,1.75h4.36Z"/>
      <path class="cls-3" d="m408.6,71.37h.75v6.72c0,.94-.33,1.42-1,1.42-.33,0-.62-.1-.85-.19v-.68c.13.07.31.14.54.14.35,0,.56-.23.56-.69v-6.72Zm.99-1.79c0,.34-.29.63-.63.63s-.62-.29-.62-.63.28-.62.62-.62.63.27.63.62Z"/>
      <path class="cls-3" d="m416.67,74.31c0,1.66-1.29,3.06-3.05,3.06s-3.05-1.4-3.05-3.06,1.3-3.09,3.05-3.09,3.05,1.42,3.05,3.09Zm-5.33.01c0,1.28.96,2.32,2.28,2.32s2.28-1.04,2.28-2.32-1.03-2.38-2.28-2.38-2.28,1.08-2.28,2.38Z"/>
      <path class="cls-3" d="m426.09,76.22c-.64.77-1.44,1.14-2.35,1.14-1.71,0-2.99-1.42-2.99-3.08s1.32-3.06,3.01-3.06c.95,0,1.75.41,2.33,1.22v-3.32h.75v8.1h-.75v-1Zm-4.58-1.91c0,1.26.99,2.38,2.3,2.38,1.2,0,2.32-.9,2.32-2.35,0-1.35-1-2.38-2.31-2.38s-2.31,1.1-2.31,2.35Z"/>
      <path class="cls-3" d="m428.97,74.36c.03,1.34.95,2.32,2.2,2.32s1.8-.69,2.23-1.4l.63.33c-.59,1.17-1.51,1.75-2.78,1.75-1.94,0-3.05-1.48-3.05-3.05s1.18-3.09,3-3.09c1.66,0,3,1.2,3.03,3.14h-5.26Zm4.43-.66c-.31-1.21-1.18-1.75-2.19-1.75s-1.83.56-2.17,1.75h4.36Z"/>
      <path class="cls-3" d="m438.09,69.32h.86l2.62,6.11,2.66-6.11h.86l-3.43,7.9h-.18l-3.39-7.9Z"/>
      <path class="cls-3" d="m447.17,69.58c0,.34-.29.63-.63.63s-.62-.29-.62-.63.29-.62.62-.62.63.27.63.62Zm-.99,1.79h.75v5.84h-.75v-5.84Z"/>
      <path class="cls-3" d="m454.22,76.03c0,.96-.05,1.75-.53,2.4-.5.67-1.36,1.07-2.47,1.07-1.68,0-2.5-.68-3.01-1.82h.81c.44.77,1.12,1.13,2.16,1.13.97,0,1.68-.35,2.04-.99.22-.41.25-.83.25-1.28v-.44c-.58.74-1.43,1.11-2.34,1.11-1.62,0-2.99-1.23-2.99-2.96s1.44-3.04,2.99-3.04c1.03,0,1.73.44,2.34,1.17v-1.01h.76v4.65Zm-5.32-1.73c0,1.17.83,2.19,2.37,2.19,1.28,0,2.23-.88,2.23-2.24s-1.05-2.3-2.26-2.3c-1.31,0-2.34,1-2.34,2.35Z"/>
      <path class="cls-3" d="m456.67,69.58c0,.34-.29.63-.63.63s-.62-.29-.62-.63.29-.62.62-.62.63.27.63.62Zm-.99,1.79h.75v5.84h-.75v-5.84Z"/>
      <path class="cls-3" d="m457.81,69.12h.75v8.1h-.75v-8.1Z"/>
      <path class="cls-3" d="m465.15,71.37h.74v5.84h-.74v-1c-.64.77-1.44,1.14-2.35,1.14-1.71,0-2.99-1.42-2.99-3.08s1.32-3.06,3.01-3.06c.95,0,1.75.41,2.33,1.22v-1.07Zm-4.58,2.93c0,1.26.99,2.38,2.3,2.38,1.2,0,2.33-.9,2.33-2.35,0-1.35-1.01-2.38-2.32-2.38s-2.31,1.1-2.31,2.35Z"/>
      <path class="cls-3" d="m468.27,72.42c.61-.79,1.33-1.2,2.19-1.2,1.28,0,2.17.88,2.17,2.72v3.28h-.75v-3.18c0-1.38-.43-2.13-1.56-2.13-.63,0-1.14.27-1.54.79-.44.57-.51,1.14-.51,2.07v2.45h-.75v-5.84h.75v1.04Z"/>
      <path class="cls-3" d="m479.85,76.04c-.57.87-1.56,1.32-2.74,1.32-1.92,0-3.21-1.39-3.21-3.01,0-1.72,1.34-3.12,3.27-3.12,1.12,0,2.15.46,2.68,1.36l-.6.37c-.52-.68-1.23-1.01-2.11-1.01-1.49,0-2.46,1.09-2.46,2.34s.97,2.39,2.48,2.39c.85,0,1.55-.34,2.1-1.02l.6.39Z"/>
      <path class="cls-3" d="m482.13,69.58c0,.34-.29.63-.63.63s-.62-.29-.62-.63.29-.62.62-.62.63.27.63.62Zm-.99,1.79h.75v5.84h-.75v-5.84Z"/>
      <path class="cls-3" d="m488.47,71.37h.74v5.84h-.74v-1c-.64.77-1.44,1.14-2.35,1.14-1.71,0-2.99-1.42-2.99-3.08s1.32-3.06,3.01-3.06c.95,0,1.75.41,2.33,1.22v-1.07Zm-4.58,2.93c0,1.26.99,2.38,2.3,2.38,1.2,0,2.33-.9,2.33-2.35,0-1.35-1.01-2.38-2.32-2.38s-2.31,1.1-2.31,2.35Z"/>
      <path class="cls-3" d="m492.33,76.7c0,.37-.3.67-.66.67s-.66-.31-.66-.67.3-.67.66-.67.66.3.66.67Z"/>
    </g>
  </g>
</svg>