<?xml version="1.0" encoding="UTF-8"?><svg id="Capa_2" xmlns="http://www.w3.org/2000/svg" xmlns:xlink="http://www.w3.org/1999/xlink" viewBox="0 0 761.33 761.33"><defs><style>.cls-1{clip-path:url(#clippath);}.cls-2{fill:none;stroke-width:0px;}.cls-3{fill:#f1f1f1;}.cls-3,.cls-4{stroke:#8b9fa3;stroke-miterlimit:10;}.cls-4{fill:#8b9fa3;}</style><clipPath id="clippath"><circle class="cls-2" cx="380.66" cy="380.66" r="380.66"/></clipPath></defs><g id="Capa_1-2"><g class="cls-1"><path class="cls-3" d="M-61.92-109.03l-1.59,885.33,885.33,1.59,1.59-885.33-885.33-1.59ZM-.04-45.16c-11.21-.02-20.29-9.13-20.27-20.34.02-11.21,9.13-20.29,20.34-20.27,11.21.02,20.29,9.13,20.27,20.34-.02,11.21-9.13,20.29-20.34,20.27ZM63.41-45.04c-11.21-.02-20.29-9.13-20.27-20.34.02-11.21,9.13-20.29,20.34-20.27,11.21.02,20.29,9.13,20.27,20.34-.02,11.21-9.13,20.29-20.34,20.27ZM126.85-44.93c-11.21-.02-20.29-9.13-20.27-20.34.02-11.21,9.13-20.29,20.34-20.27,11.21.02,20.29,9.13,20.27,20.34-.02,11.21-9.13,20.29-20.34,20.27ZM190.3-44.82c-11.21-.02-20.29-9.13-20.27-20.34.02-11.21,9.13-20.29,20.34-20.27,11.21.02,20.29,9.13,20.27,20.34-.02,11.21-9.13,20.29-20.34,20.27ZM253.74-44.7c-11.21-.02-20.29-9.13-20.27-20.34.02-11.21,9.13-20.29,20.34-20.27,11.21.02,20.29,9.13,20.27,20.34-.02,11.21-9.13,20.29-20.34,20.27ZM317.18-44.59c-11.21-.02-20.29-9.13-20.27-20.34.02-11.21,9.13-20.29,20.34-20.27,11.21.02,20.29,9.13,20.27,20.34-.02,11.21-9.13,20.29-20.34,20.27ZM380.63-44.47c-11.21-.02-20.29-9.13-20.27-20.34.02-11.21,9.13-20.29,20.34-20.27,11.21.02,20.29,9.13,20.27,20.34-.02,11.21-9.13,20.29-20.34,20.27ZM444.07-44.36c-11.21-.02-20.29-9.13-20.27-20.34.02-11.21,9.13-20.29,20.34-20.27,11.21.02,20.29,9.13,20.27,20.34-.02,11.21-9.13,20.29-20.34,20.27ZM507.52-44.25c-11.21-.02-20.29-9.13-20.27-20.34.02-11.21,9.13-20.29,20.34-20.27,11.21.02,20.29,9.13,20.27,20.34-.02,11.21-9.13,20.29-20.34,20.27ZM570.96-44.13c-11.21-.02-20.29-9.13-20.27-20.34.02-11.21,9.13-20.29,20.34-20.27,11.21.02,20.29,9.13,20.27,20.34-.02,11.21-9.13,20.29-20.34,20.27ZM634.4-44.02c-11.21-.02-20.29-9.13-20.27-20.34.02-11.21,9.13-20.29,20.34-20.27,11.21.02,20.29,9.13,20.27,20.34-.02,11.21-9.13,20.29-20.34,20.27ZM697.85-43.9c-11.21-.02-20.29-9.13-20.27-20.34.02-11.21,9.13-20.29,20.34-20.27,11.21.02,20.29,9.13,20.27,20.34-.02,11.21-9.13,20.29-20.34,20.27ZM761.29-43.79c-11.21-.02-20.29-9.13-20.27-20.34.02-11.21,9.13-20.29,20.34-20.27,11.21.02,20.29,9.13,20.27,20.34-.02,11.21-9.13,20.29-20.34,20.27Z"/><line class="cls-4" x1="-37.97" y1="38.59" x2="823.54" y2="40.14"/><line class="cls-4" x1="-38.08" y1="97.67" x2="823.44" y2="99.22"/><line class="cls-4" x1="-38.18" y1="156.75" x2="823.33" y2="158.3"/><line class="cls-4" x1="-38.29" y1="215.83" x2="823.23" y2="217.38"/><line class="cls-4" x1="-38.4" y1="274.91" x2="823.12" y2="276.46"/><line class="cls-4" x1="-38.5" y1="333.99" x2="823.01" y2="335.54"/><line class="cls-4" x1="-38.61" y1="393.07" x2="822.91" y2="394.62"/><line class="cls-4" x1="-38.71" y1="452.15" x2="822.8" y2="453.7"/><line class="cls-4" x1="-38.82" y1="511.23" x2="822.69" y2="512.78"/><line class="cls-4" x1="-38.93" y1="570.31" x2="822.59" y2="571.85"/><line class="cls-4" x1="-37.97" y1="570.63" x2="823.54" y2="572.17"/><line class="cls-4" x1="-38.08" y1="629.7" x2="823.44" y2="631.25"/><line class="cls-4" x1="-38.18" y1="688.78" x2="823.33" y2="690.33"/><line class="cls-4" x1="-38.29" y1="747.86" x2="823.23" y2="749.41"/><line class="cls-4" x1="557.59" y1="-6.22" x2="556.17" y2="779.31"/><line class="cls-4" x1="498.51" y1="-6.33" x2="497.09" y2="779.2"/><line class="cls-4" x1="439.43" y1="-6.43" x2="438.02" y2="779.1"/><line class="cls-4" x1="380.35" y1="-6.54" x2="378.94" y2="778.99"/><line class="cls-4" x1="321.27" y1="-6.65" x2="319.86" y2="778.88"/><line class="cls-4" x1="262.19" y1="-6.75" x2="260.78" y2="778.78"/><line class="cls-4" x1="203.11" y1="-6.86" x2="201.7" y2="778.67"/><line class="cls-4" x1="144.03" y1="-6.97" x2="142.62" y2="778.56"/><line class="cls-4" x1="84.95" y1="-7.07" x2="83.54" y2="778.46"/><line class="cls-4" x1="25.87" y1="-7.18" x2="24.46" y2="778.35"/><line class="cls-4" x1="735.14" y1="-6.86" x2="733.73" y2="778.67"/><line class="cls-4" x1="676.06" y1="-6.97" x2="674.65" y2="778.56"/><line class="cls-4" x1="616.99" y1="-7.07" x2="615.57" y2="778.46"/></g></g></svg>