<?xml version="1.0" encoding="UTF-8"?>
<svg id="Capa_2" data-name="Capa 2" xmlns="http://www.w3.org/2000/svg" viewBox="0 0 471.52 699.55">
  <defs>
    <style>
      .cls-1 {
        fill: #fff;
        stroke: #fff;
        stroke-miterlimit: 10;
        stroke-width: .25px;
      }
    </style>
  </defs>
  <g id="Capa_1-2" data-name="Capa 1">
    <path class="cls-1" d="m439.03.12c.05.45.08.91.08,1.37,0,8.96-8.76,16.22-19.56,16.22s-19.56-7.26-19.56-16.22c0-.46.04-.92.08-1.37h-34.47c.05.45.08.91.08,1.37,0,8.96-8.76,16.22-19.56,16.22s-19.56-7.26-19.56-16.22c0-.46.04-.92.08-1.37h-34.47c.05.45.08.91.08,1.37,0,8.96-8.76,16.22-19.56,16.22s-19.56-7.26-19.56-16.22c0-.46.04-.92.08-1.37h-34.47c.05.45.08.91.08,1.37,0,8.96-8.76,16.22-19.56,16.22s-19.56-7.26-19.56-16.22c0-.46.04-.92.08-1.37h-34.47c.05.45.08.91.08,1.37,0,8.96-8.76,16.22-19.56,16.22s-19.56-7.26-19.56-16.22c0-.46.04-.92.08-1.37h-34.47c.05.45.08.91.08,1.37,0,8.96-8.76,16.22-19.56,16.22S32.93,10.45,32.93,1.49c0-.46.04-.92.08-1.37H.12v699.3h471.27V.12h-32.37Z"/>
  </g>
</svg>