<?xml version="1.0" encoding="UTF-8"?>
<svg xmlns="http://www.w3.org/2000/svg" xmlns:xlink="http://www.w3.org/1999/xlink" viewBox="0 0 600.49 769.58">
  <defs>
    <style>
      .cls-1 {
        mask: url(#mask);
      }

      .cls-2 {
        filter: url(#luminosity-noclip);
      }

      .cls-3 {
        fill: #fff;
      }

      .cls-4 {
        fill: #bcaeab;
      }

      .cls-4, .cls-5 {
        mix-blend-mode: multiply;
      }

      .cls-5 {
        fill: url(#_ÅÂÁ_Ï_ÌÌ_È_ËÂÌÚ_4);
      }

      .cls-6 {
        isolation: isolate;
      }

      .cls-7 {
        mask: url(#mask-1);
      }
    </style>
    <filter id="luminosity-noclip" x="7.18" y="2.06" width="593.3" height="767.52" color-interpolation-filters="sRGB" filterUnits="userSpaceOnUse">
      <feFlood flood-color="#fff" result="bg"/>
      <feBlend in="SourceGraphic" in2="bg"/>
    </filter>
    <filter id="luminosity-noclip-2" x="7.18" y="-8578.99" width="593.3" height="32766" color-interpolation-filters="sRGB" filterUnits="userSpaceOnUse">
      <feFlood flood-color="#fff" result="bg"/>
      <feBlend in="SourceGraphic" in2="bg"/>
    </filter>
    <mask id="mask-1" x="7.18" y="-8578.99" width="593.3" height="32766" maskUnits="userSpaceOnUse"/>
    <linearGradient id="_ÅÂÁ_Ï_ÌÌ_È_ËÂÌÚ_4" data-name="ÅÂÁ˚ÏﬂÌÌ˚È „‡‰ËÂÌÚ 4" x1="7.18" y1="385.82" x2="600.49" y2="385.82" gradientUnits="userSpaceOnUse">
      <stop offset="0" stop-color="#000"/>
      <stop offset=".5" stop-color="#fff"/>
      <stop offset="1" stop-color="#fff"/>
    </linearGradient>
    <mask id="mask" x="7.18" y="2.06" width="593.3" height="767.52" maskUnits="userSpaceOnUse">
      <g class="cls-2">
        <g class="cls-7">
          <path class="cls-5" d="m558.24,769.58H7.18v-31.55l.09-.04,18.73-8,.07.06c2.05,1.65,4.52,2.52,7.14,2.52,3.43,0,6.64-1.53,8.83-4.2,2.18-2.67,3.05-6.18,2.38-9.64-.87-4.51-4.46-8.12-8.94-8.99-4.43-.86-8.84.86-11.49,4.48l-.04.05h-.06s-16.71,2.17-16.71,2.17v-58.39l.12-.02,17.76-3.39.05.06c2.16,2.18,5.03,3.37,8.09,3.37,3.25,0,6.36-1.4,8.53-3.84,2.2-2.48,3.2-5.67,2.84-9.01-.58-5.23-4.76-9.48-9.95-10.11-4.02-.47-7.9,1.13-10.4,4.31l-.07.09-.1-.04-16.88-6.51v-50.88l.13-.02,17.06-2.69.05.07c2.18,2.63,5.38,4.14,8.79,4.14s6.64-1.53,8.83-4.2c2.18-2.67,3.05-6.18,2.38-9.64-.88-4.58-4.55-8.2-9.11-9.02-3.93-.7-7.86.62-10.53,3.54l-.05.05h-.07s-17.48-1.59-17.48-1.59v-65.65l.2.08,15.96,6.24.02.04c2.05,3.49,5.83,5.65,9.85,5.65,3.43,0,6.64-1.53,8.83-4.2,2.18-2.67,3.05-6.18,2.38-9.64-.87-4.52-4.47-8.13-8.96-8.99-3.85-.74-7.61.42-10.34,3.16l-.06.06-.08-.02-17.8-4.21v-56.38l15.85-.54.04.08c1.98,3.81,5.87,6.18,10.14,6.18,3.43,0,6.64-1.53,8.83-4.2,2.18-2.67,3.05-6.18,2.38-9.64-.88-4.58-4.55-8.2-9.12-9.02-3.93-.71-7.88.63-10.54,3.56l-.05.06-.08-.02-17.45-3.34v-53.62l4.84-1.29.05.03c.66.33,3.49-.35,5.99-.96,3.41-.83,5.52-1.32,5.92-.77,2.15,2.94,5.6,4.7,9.22,4.7,3.25,0,6.36-1.4,8.53-3.84,2.2-2.48,3.21-5.67,2.84-9.01-.58-5.22-4.76-9.47-9.93-10.1-2.78-.34-5.55.33-7.83,1.88-.61.42-2.69,1.11-5.1,1.91-3.51,1.17-8.31,2.77-8.83,3.73l-.04.07h-.08s-5.58.52-5.58.52v-64.12h.15s17.15.4,17.15.4l.04.05c2.18,2.55,5.34,4.02,8.68,4.02s6.64-1.53,8.83-4.2c2.18-2.66,3.05-6.18,2.39-9.63-.88-4.56-4.52-8.18-9.06-9.01-3.87-.72-7.79.56-10.46,3.41l-.05.05h-.07s-17.59-1.69-17.59-1.69v-46.8l.06-.04,7.67-5.57h.04s14.46-1.65,14.46-1.65h.03c1.88.67,3.85.82,5.86.46,4.59-.82,8.26-4.47,9.13-9.08.69-3.69-.33-7.36-2.82-10.07-2.49-2.71-6.02-4.02-9.68-3.64-5.05.56-9.27,4.61-10.02,9.65-.21,1.4-.18,2.8.1,4.16l.03.15-.15.03-14.71,2.8v-73.85l15.95-.52.04.08c2.01,3.69,5.86,5.98,10.03,5.98,3.43,0,6.64-1.53,8.83-4.2,2.18-2.67,3.05-6.18,2.39-9.64-.88-4.56-4.53-8.18-9.07-9.01-4.59-.85-9.04,1.04-11.62,4.88l-.05.07h-.08s-16.41-.78-16.41-.78V50.45l.09-.04,3.24-1.44h.04c11.22,1.13,11.22,1.45,11.22,1.62,0,3.45,1.52,6.7,4.17,8.9,2.65,2.2,6.13,3.08,9.57,2.4,4.47-.87,8.05-4.49,8.92-8.99.67-3.46-.2-6.97-2.39-9.64-2.18-2.67-5.4-4.2-8.83-4.2s-7.95,2.11-8.76,3.19l-.05.08-.09-.02-13.35-2.75-3.77-2.25V2.06h552.08c22.73,0,41.23,18.63,41.23,41.53v683.43c0,23.47-18.95,42.56-42.25,42.56Zm-550.76-.29h550.76c23.13,0,41.96-18.96,41.96-42.27V43.59c0-22.73-18.36-41.23-40.93-41.23H7.48v34.79l3.61,2.15,13.2,2.71c1.05-1.25,5.63-3.23,8.93-3.23,3.51,0,6.82,1.57,9.05,4.3,2.24,2.74,3.13,6.34,2.44,9.88-.89,4.62-4.57,8.32-9.15,9.22-3.52.69-7.1-.21-9.81-2.46-2.7-2.24-4.25-5.54-4.27-9.05-.68-.28-6.98-.99-10.92-1.39l-3.08,1.37v67.01l16.05.76c2.65-3.9,7.2-5.8,11.88-4.94,4.66.85,8.4,4.57,9.31,9.25.69,3.55-.21,7.15-2.44,9.88-2.24,2.74-5.54,4.3-9.05,4.3-4.25,0-8.17-2.32-10.25-6.06l-15.49.51v73.2l14.22-2.71c-.26-1.34-.28-2.72-.08-4.11.77-5.17,5.1-9.33,10.28-9.9,3.78-.42,7.38.95,9.93,3.73,2.55,2.78,3.61,6.55,2.89,10.33-.89,4.73-4.65,8.47-9.36,9.32-2.05.36-4.07.21-5.98-.45l-14.35,1.64-7.55,5.48v46.38l17.25,1.65c2.74-2.88,6.72-4.18,10.68-3.45,4.66.86,8.4,4.57,9.3,9.25.69,3.55-.21,7.15-2.44,9.88-2.24,2.74-5.54,4.31-9.05,4.31s-6.63-1.49-8.86-4.08l-16.87-.39v63.5l5.19-.47c.72-1.06,5.09-2.52,8.95-3.8,2.39-.79,4.45-1.48,5.03-1.88,2.34-1.59,5.17-2.28,8.02-1.93,5.31.65,9.6,5.01,10.19,10.37.38,3.42-.65,6.7-2.91,9.24-2.22,2.51-5.41,3.94-8.75,3.94-3.71,0-7.25-1.8-9.46-4.82-.3-.41-3.25.3-5.61.88-2.74.66-5.32,1.29-6.14.96l-4.52,1.2v53.14l17.13,3.28c2.73-2.96,6.74-4.31,10.75-3.6,4.69.84,8.45,4.56,9.36,9.26.69,3.55-.21,7.15-2.44,9.88-2.24,2.74-5.54,4.3-9.05,4.3-4.35,0-8.31-2.4-10.36-6.26l-15.38.53v55.85l17.49,4.14c2.79-2.77,6.63-3.93,10.55-3.18,4.61.88,8.3,4.59,9.19,9.23.69,3.54-.21,7.15-2.44,9.88-2.24,2.73-5.54,4.3-9.05,4.3-4.11,0-7.96-2.2-10.07-5.75l-15.66-6.12v64.95l17.14,1.56c2.73-2.96,6.74-4.3,10.75-3.58,4.69.84,8.44,4.56,9.35,9.25.69,3.55-.21,7.15-2.44,9.88-2.24,2.74-5.54,4.3-9.05,4.3s-6.72-1.52-8.96-4.18l-16.78,2.64v50.42l16.59,6.4c2.56-3.2,6.51-4.82,10.59-4.33,5.32.64,9.62,5,10.21,10.37.38,3.42-.65,6.7-2.91,9.24-2.22,2.51-5.41,3.94-8.74,3.94-3.11,0-6.03-1.21-8.24-3.41l-17.49,3.34v57.81l16.32-2.12c2.72-3.68,7.21-5.42,11.74-4.54,4.6.89,8.28,4.6,9.17,9.22.69,3.55-.21,7.15-2.44,9.88-2.24,2.73-5.54,4.3-9.05,4.3-2.67,0-5.17-.87-7.26-2.53l-18.48,7.89v31.06Z"/>
        </g>
      </g>
    </mask>
  </defs>
  <g class="cls-6">
    <g id="Capa_2" data-name="Capa 2">
      <g id="Capa_1-2" data-name="Capa 1">
        <g>
          <path class="cls-4" d="m16.54,711.93c2.52-3.45,6.89-5.45,11.64-4.54,4.53.88,8.18,4.55,9.06,9.11,1.44,7.48-4.2,14.01-11.36,14.01-2.74,0-5.25-.95-7.23-2.55l-18.65,7.97v31.3h550.9c23.25,0,42.11-18.99,42.11-42.42V41.38c0-22.85-18.39-41.38-41.08-41.38H0v35.02l3.7,2.21,13.31,2.73c.86-1.15,5.42-3.25,8.87-3.25,7.16,0,12.8,6.54,11.36,14.01-.88,4.55-4.52,8.22-9.03,9.1-7.42,1.45-13.91-4.23-13.91-11.44,0-.36-11.09-1.47-11.09-1.47l-3.2,1.42v67.25l16.27.77c2.45-3.65,6.9-5.84,11.77-4.95,4.58.84,8.3,4.52,9.19,9.13,1.44,7.47-4.2,14.01-11.36,14.01-4.38,0-8.19-2.45-10.16-6.06l-15.72.52v73.52l14.54-2.77c-.28-1.33-.32-2.75-.11-4.21.77-5.13,5.03-9.22,10.15-9.78,7.73-.85,14.15,5.99,12.66,13.88-.87,4.64-4.62,8.37-9.24,9.19-2.1.38-4.12.18-5.94-.46l-14.43,1.65-7.64,5.55v46.59l17.46,1.67c2.57-2.73,6.43-4.22,10.6-3.46,4.58.84,8.29,4.53,9.18,9.13,1.44,7.47-4.2,14.01-11.36,14.01-3.52,0-6.67-1.58-8.79-4.07l-17.08-.4v63.81l5.42-.5c.89-1.65,12.44-4.65,13.98-5.7,2.22-1.51,4.98-2.26,7.92-1.9,5.24.64,9.48,4.96,10.06,10.24.78,7.05-4.67,13.02-11.51,13.02-3.83,0-7.22-1.87-9.33-4.76-.71-.97-10.43,2.5-11.86,1.77l-4.68,1.24v53.38l17.33,3.32c2.55-2.81,6.45-4.36,10.67-3.61,4.6.82,8.35,4.52,9.24,9.14,1.44,7.47-4.2,14.01-11.36,14.01-4.46,0-8.33-2.54-10.27-6.27l-15.61.54v56.12l17.69,4.19c2.58-2.6,6.38-3.98,10.47-3.2,4.54.87,8.2,4.54,9.08,9.11,1.44,7.47-4.2,14.01-11.36,14.01-4.24,0-7.95-2.3-9.97-5.72l-15.91-6.22v65.3l17.34,1.57c2.55-2.8,6.45-4.34,10.66-3.59,4.6.83,8.34,4.52,9.23,9.14,1.44,7.47-4.2,14.01-11.36,14.01-3.58,0-6.77-1.63-8.9-4.2l-16.98,2.68v50.65l16.78,6.47c2.39-3.05,6.27-4.87,10.53-4.36,5.24.63,9.49,4.96,10.08,10.24.78,7.04-4.67,13.01-11.51,13.01-3.2,0-6.09-1.31-8.19-3.42l-17.69,3.38v58.1l16.54-2.15Z"/>
          <g>
            <path class="cls-3" d="m23.87,714.14c2.52-3.45,6.89-5.46,11.64-4.54,4.53.88,8.18,4.55,9.06,9.11,1.44,7.47-4.2,14.01-11.36,14.01-2.74,0-5.25-.96-7.23-2.55l-18.65,7.97v31.3h550.9c23.25,0,42.11-18.99,42.11-42.42V43.59c0-22.85-18.39-41.38-41.08-41.38H7.33v35.03l3.7,2.21,13.31,2.73c.86-1.15,5.42-3.25,8.87-3.25,7.16,0,12.8,6.54,11.36,14.01-.88,4.55-4.52,8.22-9.03,9.1-7.42,1.45-13.91-4.23-13.91-11.44,0-.36-11.09-1.47-11.09-1.47l-3.2,1.42v67.25l16.27.77c2.45-3.66,6.9-5.84,11.77-4.95,4.58.84,8.3,4.52,9.19,9.13,1.44,7.47-4.2,14.01-11.36,14.01-4.38,0-8.19-2.45-10.16-6.06l-15.72.52v73.52l14.54-2.77c-.28-1.33-.32-2.75-.11-4.21.77-5.13,5.03-9.22,10.15-9.78,7.73-.85,14.15,5.99,12.66,13.88-.87,4.65-4.62,8.37-9.24,9.19-2.1.38-4.12.18-5.94-.46l-14.43,1.65-7.64,5.55v46.59l17.46,1.67c2.57-2.73,6.43-4.22,10.6-3.45,4.58.84,8.29,4.53,9.18,9.13,1.44,7.47-4.2,14.01-11.36,14.01-3.52,0-6.67-1.58-8.79-4.07l-17.08-.4v63.81l5.42-.5c.89-1.65,12.44-4.65,13.98-5.7,2.22-1.51,4.98-2.26,7.92-1.9,5.24.64,9.48,4.96,10.06,10.24.78,7.05-4.67,13.02-11.51,13.02-3.83,0-7.22-1.87-9.33-4.76-.71-.97-10.43,2.5-11.86,1.77l-4.68,1.24v53.38l17.33,3.32c2.55-2.81,6.45-4.36,10.67-3.61,4.6.82,8.35,4.52,9.24,9.14,1.44,7.47-4.2,14.01-11.36,14.01-4.46,0-8.33-2.54-10.27-6.26l-15.61.54v56.11l17.69,4.19c2.58-2.6,6.38-3.98,10.47-3.2,4.54.87,8.2,4.54,9.08,9.11,1.44,7.47-4.2,14.01-11.36,14.01-4.24,0-7.95-2.3-9.97-5.72l-15.91-6.22v65.3l17.34,1.57c2.55-2.8,6.45-4.34,10.66-3.59,4.6.82,8.34,4.52,9.23,9.14,1.44,7.47-4.2,14.01-11.36,14.01-3.58,0-6.77-1.63-8.9-4.2l-16.98,2.67v50.65l16.78,6.47c2.39-3.05,6.27-4.87,10.53-4.36,5.24.63,9.49,4.96,10.08,10.24.78,7.04-4.67,13.01-11.51,13.01-3.2,0-6.09-1.31-8.19-3.42l-17.69,3.38v58.1l16.54-2.15Z"/>
            <g class="cls-1">
              <path class="cls-3" d="m558.24,769.58H7.18v-31.55l.09-.04,18.73-8,.07.06c2.05,1.65,4.52,2.52,7.14,2.52,3.43,0,6.64-1.53,8.83-4.2,2.18-2.67,3.05-6.18,2.38-9.64-.87-4.51-4.46-8.12-8.94-8.99-4.43-.86-8.84.86-11.49,4.48l-.04.05h-.06s-16.71,2.17-16.71,2.17v-58.39l.12-.02,17.76-3.39.05.06c2.16,2.18,5.03,3.37,8.09,3.37,3.25,0,6.36-1.4,8.53-3.84,2.2-2.48,3.2-5.67,2.84-9.01-.58-5.23-4.76-9.48-9.95-10.11-4.02-.47-7.9,1.13-10.4,4.31l-.07.09-.1-.04-16.88-6.51v-50.88l.13-.02,17.06-2.69.05.07c2.18,2.63,5.38,4.14,8.79,4.14s6.64-1.53,8.83-4.2c2.18-2.67,3.05-6.18,2.38-9.64-.88-4.58-4.55-8.2-9.11-9.02-3.93-.7-7.86.62-10.53,3.54l-.05.05h-.07s-17.48-1.59-17.48-1.59v-65.65l.2.08,15.96,6.24.02.04c2.05,3.49,5.83,5.65,9.85,5.65,3.43,0,6.64-1.53,8.83-4.2,2.18-2.67,3.05-6.18,2.38-9.64-.87-4.52-4.47-8.13-8.96-8.99-3.85-.74-7.61.42-10.34,3.16l-.06.06-.08-.02-17.8-4.21v-56.38l15.85-.54.04.08c1.98,3.81,5.87,6.18,10.14,6.18,3.43,0,6.64-1.53,8.83-4.2,2.18-2.67,3.05-6.18,2.38-9.64-.88-4.58-4.55-8.2-9.12-9.02-3.93-.71-7.88.63-10.54,3.56l-.05.06-.08-.02-17.45-3.34v-53.62l4.84-1.29.05.03c.66.33,3.49-.35,5.99-.96,3.41-.83,5.52-1.32,5.92-.77,2.15,2.94,5.6,4.7,9.22,4.7,3.25,0,6.36-1.4,8.53-3.84,2.2-2.48,3.21-5.67,2.84-9.01-.58-5.22-4.76-9.47-9.93-10.1-2.78-.34-5.55.33-7.83,1.88-.61.42-2.69,1.11-5.1,1.91-3.51,1.17-8.31,2.77-8.83,3.73l-.04.07h-.08s-5.58.52-5.58.52v-64.12h.15s17.15.4,17.15.4l.04.05c2.18,2.55,5.34,4.02,8.68,4.02s6.64-1.53,8.83-4.2c2.18-2.66,3.05-6.18,2.39-9.63-.88-4.56-4.52-8.18-9.06-9.01-3.87-.72-7.79.56-10.46,3.41l-.05.05h-.07s-17.59-1.69-17.59-1.69v-46.8l.06-.04,7.67-5.57h.04s14.46-1.65,14.46-1.65h.03c1.88.67,3.85.82,5.86.46,4.59-.82,8.26-4.47,9.13-9.08.69-3.69-.33-7.36-2.82-10.07-2.49-2.71-6.02-4.02-9.68-3.64-5.05.56-9.27,4.61-10.02,9.65-.21,1.4-.18,2.8.1,4.16l.03.15-.15.03-14.71,2.8v-73.85l15.95-.52.04.08c2.01,3.69,5.86,5.98,10.03,5.98,3.43,0,6.64-1.53,8.83-4.2,2.18-2.67,3.05-6.18,2.39-9.64-.88-4.56-4.53-8.18-9.07-9.01-4.59-.85-9.04,1.04-11.62,4.88l-.05.07h-.08s-16.41-.78-16.41-.78V50.45l.09-.04,3.24-1.44h.04c11.22,1.13,11.22,1.45,11.22,1.62,0,3.45,1.52,6.7,4.17,8.9,2.65,2.2,6.13,3.08,9.57,2.4,4.47-.87,8.05-4.49,8.92-8.99.67-3.46-.2-6.97-2.39-9.64-2.18-2.67-5.4-4.2-8.83-4.2s-7.95,2.11-8.76,3.19l-.05.08-.09-.02-13.35-2.75-3.77-2.25V2.06h552.08c22.73,0,41.23,18.63,41.23,41.53v683.43c0,23.47-18.95,42.56-42.25,42.56Zm-550.76-.29h550.76c23.13,0,41.96-18.96,41.96-42.27V43.59c0-22.73-18.36-41.23-40.93-41.23H7.48v34.79l3.61,2.15,13.2,2.71c1.05-1.25,5.63-3.23,8.93-3.23,3.51,0,6.82,1.57,9.05,4.3,2.24,2.74,3.13,6.34,2.44,9.88-.89,4.62-4.57,8.32-9.15,9.22-3.52.69-7.1-.21-9.81-2.46-2.7-2.24-4.25-5.54-4.27-9.05-.68-.28-6.98-.99-10.92-1.39l-3.08,1.37v67.01l16.05.76c2.65-3.9,7.2-5.8,11.88-4.94,4.66.85,8.4,4.57,9.31,9.25.69,3.55-.21,7.15-2.44,9.88-2.24,2.74-5.54,4.3-9.05,4.3-4.25,0-8.17-2.32-10.25-6.06l-15.49.51v73.2l14.22-2.71c-.26-1.34-.28-2.72-.08-4.11.77-5.17,5.1-9.33,10.28-9.9,3.78-.42,7.38.95,9.93,3.73,2.55,2.78,3.61,6.55,2.89,10.33-.89,4.73-4.65,8.47-9.36,9.32-2.05.36-4.07.21-5.98-.45l-14.35,1.64-7.55,5.48v46.38l17.25,1.65c2.74-2.88,6.72-4.18,10.68-3.45,4.66.86,8.4,4.57,9.3,9.25.69,3.55-.21,7.15-2.44,9.88-2.24,2.74-5.54,4.31-9.05,4.31s-6.63-1.49-8.86-4.08l-16.87-.39v63.5l5.19-.47c.72-1.06,5.09-2.52,8.95-3.8,2.39-.79,4.45-1.48,5.03-1.88,2.34-1.59,5.17-2.28,8.02-1.93,5.31.65,9.6,5.01,10.19,10.37.38,3.42-.65,6.7-2.91,9.24-2.22,2.51-5.41,3.94-8.75,3.94-3.71,0-7.25-1.8-9.46-4.82-.3-.41-3.25.3-5.61.88-2.74.66-5.32,1.29-6.14.96l-4.52,1.2v53.14l17.13,3.28c2.73-2.96,6.74-4.31,10.75-3.6,4.69.84,8.45,4.56,9.36,9.26.69,3.55-.21,7.15-2.44,9.88-2.24,2.74-5.54,4.3-9.05,4.3-4.35,0-8.31-2.4-10.36-6.26l-15.38.53v55.85l17.49,4.14c2.79-2.77,6.63-3.93,10.55-3.18,4.61.88,8.3,4.59,9.19,9.23.69,3.54-.21,7.15-2.44,9.88-2.24,2.73-5.54,4.3-9.05,4.3-4.11,0-7.96-2.2-10.07-5.75l-15.66-6.12v64.95l17.14,1.56c2.73-2.96,6.74-4.3,10.75-3.58,4.69.84,8.44,4.56,9.35,9.25.69,3.55-.21,7.15-2.44,9.88-2.24,2.74-5.54,4.3-9.05,4.3s-6.72-1.52-8.96-4.18l-16.78,2.64v50.42l16.59,6.4c2.56-3.2,6.51-4.82,10.59-4.33,5.32.64,9.62,5,10.21,10.37.38,3.42-.65,6.7-2.91,9.24-2.22,2.51-5.41,3.94-8.74,3.94-3.11,0-6.03-1.21-8.24-3.41l-17.49,3.34v57.81l16.32-2.12c2.72-3.68,7.21-5.42,11.74-4.54,4.6.89,8.28,4.6,9.17,9.22.69,3.55-.21,7.15-2.44,9.88-2.24,2.73-5.54,4.3-9.05,4.3-2.67,0-5.17-.87-7.26-2.53l-18.48,7.89v31.06Z"/>
            </g>
          </g>
        </g>
      </g>
    </g>
  </g>
</svg>