<?xml version="1.0" encoding="UTF-8"?>
<svg xmlns="http://www.w3.org/2000/svg" xmlns:xlink="http://www.w3.org/1999/xlink" viewBox="0 0 678.23 906.36">
  <defs>
    <style>
      .cls-1 {
        mask: url(#mask);
      }

      .cls-2 {
        filter: url(#luminosity-noclip);
      }

      .cls-3 {
        fill: #fff;
      }

      .cls-4 {
        fill: url(#_ÅÂÁ_Ï_ÌÌ_È_ËÂÌÚ_5200);
      }

      .cls-5 {
        fill: #bcaeab;
      }

      .cls-5, .cls-6, .cls-7 {
        mix-blend-mode: multiply;
      }

      .cls-6 {
        fill: #ddd;
      }

      .cls-7 {
        fill: url(#_ÅÂÁ_Ï_ÌÌ_È_ËÂÌÚ_4);
      }

      .cls-8 {
        isolation: isolate;
      }

      .cls-9 {
        mask: url(#mask-1);
      }
    </style>
    <filter id="luminosity-noclip" x="1.16" y="4.16" width="670.29" height="902.2" color-interpolation-filters="sRGB" filterUnits="userSpaceOnUse">
      <feFlood flood-color="#fff" result="bg"/>
      <feBlend in="SourceGraphic" in2="bg"/>
    </filter>
    <filter id="luminosity-noclip-2" x="1.16" y="-8572.36" width="670.29" height="32766" color-interpolation-filters="sRGB" filterUnits="userSpaceOnUse">
      <feFlood flood-color="#fff" result="bg"/>
      <feBlend in="SourceGraphic" in2="bg"/>
    </filter>
    <mask id="mask-1" x="1.16" y="-8572.36" width="670.29" height="32766" maskUnits="userSpaceOnUse"/>
    <linearGradient id="_ÅÂÁ_Ï_ÌÌ_È_ËÂÌÚ_4" data-name="ÅÂÁ˚ÏﬂÌÌ˚È „‡‰ËÂÌÚ 4" x1="-2637.44" y1="-1368.24" x2="-1736.02" y2="-1368.24" gradientTransform="translate(-1029.21 2643.7) rotate(89.93)" gradientUnits="userSpaceOnUse">
      <stop offset="0" stop-color="#000"/>
      <stop offset=".5" stop-color="#fff"/>
      <stop offset="1" stop-color="#fff"/>
    </linearGradient>
    <mask id="mask" x="1.16" y="4.16" width="670.29" height="902.2" maskUnits="userSpaceOnUse">
      <g class="cls-2">
        <g class="cls-9">
          <path class="cls-7" d="m629.91,905.64l-585.14.72c-23.43.03-42.52-19.01-42.55-42.44L1.16,4.99l27.51-.03.03.08,7,16.44-.05.06c-1.44,1.8-2.19,3.97-2.19,6.28,0,3.01,1.34,5.83,3.67,7.75,2.33,1.91,5.41,2.67,8.4,2.08,3.96-.77,6.94-3.7,7.78-7.63.85-3.99-.63-7.94-3.87-10.32l-.04-.03v-.06s-1.92-14.68-1.92-14.68l50.92-.06.02.11,2.98,15.6-.05.05c-1.9,1.9-2.94,4.42-2.93,7.11,0,2.86,1.23,5.59,3.38,7.5,2.17,1.93,4.98,2.8,7.88,2.46,4.41-.52,8.08-4.07,8.72-8.46.53-3.64-.86-7.15-3.73-9.41l-.07-.06.04-.09,5.65-14.83,44.36-.05v.11s2.38,14.99,2.38,14.99l-.06.04c-2.29,1.92-3.6,4.73-3.6,7.72s1.36,5.88,3.72,7.79c2.36,1.92,5.46,2.65,8.5,2.01,3.79-.8,6.86-3.88,7.65-7.68.74-3.56-.4-7.13-3.04-9.55l-.05-.04v-.06s1.37-15.36,1.37-15.36l57.25-.07-.07.18-5.42,14.03-.04.02c-3.04,1.81-4.92,5.12-4.92,8.66,0,3.04,1.36,5.89,3.73,7.8,2.36,1.91,5.45,2.64,8.52,1.99,3.72-.79,6.77-3.81,7.59-7.52.76-3.45-.25-6.96-2.7-9.4l-.05-.05v-.07s3.67-15.65,3.67-15.65l49.16-.06v.13s.48,13.79.48,13.79l-.07.04c-3.32,1.75-5.38,5.16-5.38,8.91,0,3.03,1.36,5.88,3.72,7.79,2.36,1.92,5.46,2.65,8.5,2.01,3.79-.8,6.87-3.89,7.65-7.68.74-3.57-.41-7.15-3.06-9.56l-.06-.05.02-.07,2.9-15.33,46.75-.06.03.1,1.1,4.16-.02.04c-.3.58.31,3.06.84,5.26.73,3,1.15,4.86.67,5.2-2.56,1.89-4.09,4.92-4.09,8.1,0,2.86,1.23,5.59,3.37,7.49,2.17,1.93,4.94,2.81,7.87,2.47,4.49-.52,8.18-4.14,8.77-8.61.32-2.47-.25-4.96-1.63-6.99-.36-.54-.97-2.37-1.67-4.48-1.02-3.08-2.42-7.3-3.27-7.75l-.06-.03v-.07s-.46-4.9-.46-4.9l55.91-.07v.13s-.34,15.07-.34,15.07l-.04.04c-2.23,1.91-3.5,4.7-3.5,7.63,0,3.03,1.36,5.88,3.72,7.79,2.36,1.92,5.45,2.66,8.51,2.01,3.77-.79,6.83-3.86,7.63-7.63.74-3.52-.35-7.07-2.93-9.5l-.04-.04v-.06s1.45-15.45,1.45-15.45l40.81-.05.04.06,4.87,6.73v.03s1.46,12.7,1.46,12.7v.03c-.58,1.65-.71,3.38-.4,5.15.75,4.2,4.24,7.52,8.48,8.1,3.35.45,6.56-.7,8.81-3.17,2.26-2.47,3.12-5.79,2.37-9.13-.84-3.75-3.96-6.77-7.75-7.51-1.39-.27-2.77-.27-4.1.01l-.13.03-.02-.13-2.46-12.92,64.39-.08v.13s.47,13.89.47,13.89l-.07.04c-3.22,1.77-5.21,5.15-5.21,8.82,0,3.04,1.36,5.88,3.73,7.8,2.36,1.92,5.47,2.65,8.51,2,3.74-.79,6.8-3.83,7.61-7.57.89-4.11-.76-8.26-4.2-10.58l-.06-.04v-.07s.67-14.42.67-14.42l58.84-.07.03.08,1.25,2.88c-.96,9.86-1.24,9.86-1.4,9.86-3.04,0-5.88,1.36-7.79,3.72-1.92,2.36-2.65,5.46-2.01,8.5.79,3.79,3.88,6.86,7.66,7.65,3.05.63,6.14-.11,8.5-2.03,2.36-1.92,3.7-4.77,3.7-7.8,0-3.07-1.85-6.98-2.79-7.69l-.06-.05.02-.08,2.38-11.73,1.95-3.32,30.75-.04,1.06,859.83c.03,22.93-18.61,41.61-41.54,41.64ZM1.42,5.25l1.06,858.67c.03,23.29,19,42.21,42.29,42.18l585.14-.72c22.79-.03,41.31-18.59,41.28-41.38l-1.06-859.57-30.34.04-1.87,3.17-2.35,11.6c1.09.92,2.83,4.95,2.83,7.84,0,3.11-1.38,6.03-3.8,8-2.42,1.97-5.58,2.73-8.71,2.09-3.89-.81-7.05-3.96-7.87-7.85-.65-3.12.1-6.29,2.06-8.71,1.95-2.41,4.84-3.8,7.93-3.82.25-.6.86-6.13,1.2-9.59l-1.2-2.7-58.42.07-.65,14.1c3.48,2.38,5.15,6.61,4.24,10.81-.83,3.83-3.97,6.95-7.81,7.77-3.12.66-6.3-.09-8.73-2.06-2.43-1.96-3.82-4.88-3.83-8,0-3.74,2.02-7.19,5.28-9.01l-.46-13.6-63.83.08,2.38,12.49c1.32-.27,2.7-.26,4.08.01,3.89.76,7.08,3.85,7.94,7.71.77,3.41-.11,6.82-2.43,9.35-2.32,2.53-5.62,3.71-9.04,3.25-4.34-.59-7.92-4-8.69-8.3-.32-1.8-.19-3.57.39-5.25l-1.44-12.61-4.79-6.62-40.44.05-1.42,15.16c2.61,2.49,3.72,6.11,2.96,9.7-.81,3.86-3.96,7.01-7.83,7.83-3.1.66-6.3-.1-8.73-2.06-2.42-1.96-3.82-4.88-3.82-7.99,0-2.99,1.29-5.83,3.55-7.79l.32-14.82-55.36.07.42,4.56c.93.64,2.2,4.47,3.33,7.86.69,2.1,1.3,3.91,1.64,4.42,1.41,2.08,2.01,4.63,1.67,7.17-.6,4.59-4.38,8.31-8.99,8.84-2.99.35-5.85-.55-8.07-2.53-2.19-1.95-3.45-4.75-3.45-7.69,0-3.27,1.56-6.37,4.19-8.31.36-.26-.27-2.86-.77-4.94-.58-2.4-1.13-4.67-.84-5.39l-1.05-3.97-46.34.06-2.84,15.05c2.68,2.48,3.83,6.12,3.08,9.75-.8,3.9-3.95,7.07-7.85,7.89-3.13.65-6.3-.1-8.72-2.07-2.42-1.96-3.82-4.88-3.82-7.99,0-3.82,2.08-7.3,5.45-9.11l-.48-13.51-48.7.06-3.59,15.37c2.47,2.5,3.49,6.08,2.72,9.59-.84,3.81-3.97,6.91-7.79,7.72-3.11.66-6.3-.08-8.73-2.04-2.43-1.96-3.83-4.88-3.83-8,0-3.61,1.91-6.99,5.01-8.85l5.32-13.76-56.63.07-1.34,15.06c2.67,2.48,3.82,6.12,3.07,9.75-.8,3.9-3.96,7.06-7.85,7.88-3.12.65-6.29-.1-8.72-2.07-2.42-1.96-3.81-4.88-3.82-7.99s1.32-5.91,3.64-7.87l-2.33-14.73-43.96.05-5.56,14.58c2.89,2.31,4.29,5.9,3.75,9.6-.66,4.49-4.42,8.14-8.94,8.68-2.99.35-5.86-.55-8.09-2.53-2.2-1.95-3.46-4.76-3.46-7.69,0-2.73,1.05-5.3,2.96-7.24l-2.93-15.36-50.4.06,1.87,14.33c3.29,2.44,4.79,6.47,3.92,10.55-.85,3.97-3.98,7.04-7.98,7.83-3.11.61-6.23-.18-8.62-2.14-2.39-1.96-3.76-4.86-3.76-7.94,0-2.34.76-4.55,2.2-6.38l-6.9-16.22-27.08.03Z"/>
        </g>
      </g>
    </mask>
    <linearGradient id="_ÅÂÁ_Ï_ÌÌ_È_ËÂÌÚ_5200" data-name="ÅÂÁ˚ÏﬂÌÌ˚È „‡‰ËÂÌÚ 5200" x1="-39.21" y1="455.88" x2="705.57" y2="455.88" gradientTransform="translate(43.73 -30.62) rotate(5.14)" gradientUnits="userSpaceOnUse">
      <stop offset="0" stop-color="#c2c5c6"/>
      <stop offset=".5" stop-color="#dadad9"/>
      <stop offset="1" stop-color="#efeeee"/>
    </linearGradient>
  </defs>
  <g class="cls-8">
    <g id="Capa_2" data-name="Capa 2">
      <g id="Capa_1-2" data-name="Capa 1">
        <g>
          <path class="cls-5" d="m56.44,15.3c3.07,2.25,4.83,6.19,3.92,10.45-.85,3.96-3.91,6.95-7.88,7.73-6.51,1.27-12.22-3.67-12.23-9.96,0-2.4.83-4.61,2.22-6.35L35.5.79l-27.29.03,1.06,858.8c.03,23.4,19.02,42.34,42.41,42.31l585.14-.72c22.9-.03,41.44-18.61,41.41-41.51L677.17,0l-30.54.04-1.92,3.25-2.37,11.7c1,.75,2.84,4.76,2.84,7.79,0,6.34-5.78,11.33-12.35,9.97-3.85-.8-6.96-3.9-7.77-7.75-1.38-6.58,3.6-12.37,9.93-12.38.32,0,1.27-9.74,1.27-9.74l-1.24-2.81-58.64.07-.65,14.29c3.28,2.21,5.2,6.29,4.25,10.71-.82,3.8-3.9,6.86-7.71,7.67-6.58,1.39-12.39-3.59-12.4-9.93,0-3.84,2.12-7.2,5.27-8.93l-.47-13.81-64.11.08,2.43,12.77c1.31-.27,2.71-.3,4.16-.01,3.84.75,6.99,3.79,7.84,7.61,1.61,7.13-4.28,13.4-11.33,12.44-4.28-.58-7.82-3.94-8.59-8.2-.33-1.84-.16-3.62.4-5.21l-1.46-12.67-4.84-6.7-40.62.05-1.44,15.34c2.46,2.31,3.76,5.84,2.96,9.62-.81,3.83-3.9,6.92-7.73,7.73-6.58,1.39-12.38-3.59-12.39-9.93,0-3.09,1.37-5.86,3.55-7.73l.32-15.01-55.64.07.44,4.76c1.44.78,4.06,10.92,4.98,12.27,1.34,1.97,2,4.45,1.65,7.08-.59,4.54-4.33,8.2-8.88,8.73-6.15.71-11.37-4.08-11.38-10.1,0-3.36,1.62-6.35,4.14-8.2.84-.62-2.19-9.16-1.56-10.42l-1.09-4.11-46.55.06-2.88,15.22c2.52,2.3,3.88,5.86,3.1,9.68-.79,3.86-3.9,6.98-7.75,7.79-6.58,1.38-12.37-3.6-12.38-9.94,0-3.92,2.21-7.32,5.45-9.02l-.48-13.71-48.93.06-3.63,15.54c2.34,2.34,3.55,5.81,2.73,9.52-.83,3.78-3.9,6.82-7.69,7.62-6.59,1.4-12.4-3.58-12.41-9.93,0-3.72,1.99-6.98,4.98-8.76l5.4-13.98-56.94.07-1.35,15.24c2.51,2.3,3.87,5.85,3.08,9.67-.79,3.85-3.9,6.97-7.75,7.78-6.58,1.38-12.37-3.6-12.38-9.94,0-3.14,1.41-5.95,3.65-7.82l-2.35-14.91-44.16.05-5.62,14.74c2.73,2.15,4.34,5.68,3.77,9.53-.65,4.46-4.36,8.04-8.83,8.57-6.16.73-11.4-4.07-11.41-10.09,0-2.81,1.13-5.35,2.97-7.19l-2.97-15.53-50.66.06,1.89,14.53Z"/>
          <g id="Notebook_paper_2" data-name="Notebook paper 2">
            <path class="cls-6" d="m48.23,19.59c3.01,2.21,4.76,6.04,3.97,10.21-.76,3.98-3.95,7.19-7.93,7.97-6.51,1.28-12.22-3.67-12.23-9.96,0-2.4.83-4.61,2.22-6.35l-6.97-16.37-27.29.03,1.06,860.18c.03,20.43,16.61,36.96,37.03,36.94l595.9-.74c19.92-.02,36.06-16.2,36.04-36.13l-1.06-861.08-30.54.04-1.92,3.25-2.37,11.7c1,.75,2.84,4.76,2.84,7.79,0,6.29-5.68,11.25-12.2,9.99-3.97-.77-7.17-3.96-7.95-7.92-1.27-6.51,3.68-12.22,9.96-12.23.31,0,1.27-9.74,1.27-9.74l-1.24-2.81-58.64.07-.66,14.29c3.19,2.15,5.1,6.06,4.33,10.34-.73,4.03-3.94,7.3-7.95,8.08-6.51,1.28-12.22-3.67-12.23-9.96,0-3.84,2.12-7.2,5.27-8.93l-.47-13.81-64.1.08,2.43,12.77c1.16-.24,2.4-.29,3.67-.1,4.48.67,8.04,4.41,8.54,8.91.75,6.8-5.21,12.44-12.09,11.14-4.05-.76-7.3-4.05-8.03-8.11-.33-1.84-.17-3.62.39-5.21l-1.45-12.67-4.85-6.7-40.62.05-1.44,15.34c2.39,2.25,3.69,5.64,3.02,9.31-.73,4.02-3.94,7.29-7.95,8.07-6.51,1.28-12.22-3.67-12.23-9.96,0-3.09,1.37-5.86,3.54-7.73l.33-15.01-55.64.07.44,4.76c1.44.78,4.07,10.92,4.98,12.27,1.32,1.94,1.98,4.37,1.67,6.96-.55,4.6-4.31,8.33-8.91,8.85-6.14.69-11.35-4.09-11.36-10.1,0-3.36,1.63-6.35,4.14-8.2.84-.62-2.19-9.16-1.56-10.42l-1.09-4.11-46.55.06-2.88,15.22c2.46,2.24,3.81,5.66,3.16,9.37-.71,4.04-3.93,7.34-7.96,8.12-6.51,1.28-12.22-3.67-12.23-9.96,0-3.92,2.21-7.32,5.45-9.02l-.48-13.71-48.93.06-3.63,15.54c2.27,2.27,3.48,5.6,2.8,9.19-.75,3.99-3.95,7.21-7.93,7.98-6.51,1.28-12.22-3.67-12.23-9.96,0-3.72,1.99-6.98,4.98-8.76l5.4-13.98-56.93.07-1.36,15.24c2.44,2.24,3.8,5.66,3.14,9.36-.72,4.04-3.93,7.33-7.96,8.12-6.51,1.28-12.22-3.67-12.23-9.96,0-3.14,1.42-5.95,3.65-7.82l-2.35-14.91-44.16.05-5.63,14.74c2.67,2.1,4.26,5.5,3.82,9.25-.55,4.6-4.31,8.34-8.92,8.86-6.15.69-11.35-4.09-11.36-10.1,0-2.81,1.13-5.35,2.97-7.19l-2.97-15.53-50.66.06,1.89,14.53Z"/>
            <g>
              <path class="cls-3" d="m49.53,19.59c3.07,2.25,4.83,6.19,3.92,10.45-.85,3.96-3.91,6.95-7.88,7.73-6.51,1.27-12.22-3.67-12.23-9.96,0-2.4.83-4.61,2.22-6.35l-6.97-16.37-27.29.03,1.06,858.8c.03,23.4,19.02,42.34,42.41,42.31l585.14-.72c22.9-.03,41.44-18.61,41.41-41.51l-1.06-859.7-30.54.04-1.92,3.25-2.37,11.7c1,.75,2.84,4.76,2.84,7.79,0,6.34-5.78,11.33-12.35,9.97-3.85-.8-6.96-3.9-7.77-7.75-1.38-6.58,3.6-12.37,9.93-12.38.32,0,1.27-9.74,1.27-9.74l-1.24-2.81-58.64.07-.65,14.29c3.28,2.21,5.2,6.29,4.25,10.71-.82,3.8-3.9,6.86-7.71,7.67-6.58,1.39-12.39-3.59-12.4-9.93,0-3.84,2.12-7.2,5.27-8.93l-.47-13.81-64.11.08,2.43,12.77c1.31-.27,2.71-.3,4.16-.01,3.84.75,6.99,3.79,7.84,7.61,1.61,7.13-4.28,13.4-11.33,12.44-4.28-.58-7.82-3.94-8.59-8.2-.33-1.84-.16-3.62.4-5.21l-1.46-12.67-4.84-6.7-40.62.05-1.44,15.34c2.46,2.31,3.76,5.84,2.96,9.62-.81,3.83-3.9,6.92-7.73,7.73-6.58,1.39-12.38-3.59-12.39-9.93,0-3.09,1.37-5.86,3.55-7.73l.32-15.01-55.64.07.44,4.76c1.44.78,4.06,10.92,4.98,12.27,1.34,1.97,2,4.45,1.65,7.08-.59,4.54-4.33,8.2-8.88,8.73-6.15.71-11.37-4.08-11.38-10.1,0-3.36,1.62-6.35,4.14-8.2.84-.62-2.19-9.16-1.56-10.42l-1.09-4.11-46.55.06-2.88,15.22c2.52,2.3,3.88,5.86,3.1,9.68-.79,3.86-3.9,6.98-7.75,7.79-6.58,1.38-12.37-3.6-12.38-9.94,0-3.92,2.21-7.32,5.45-9.02l-.48-13.71-48.93.06-3.63,15.54c2.34,2.34,3.55,5.81,2.73,9.52-.83,3.78-3.9,6.82-7.69,7.62-6.59,1.4-12.4-3.58-12.41-9.93,0-3.72,1.99-6.98,4.98-8.76l5.4-13.98-56.94.07-1.35,15.24c2.51,2.3,3.87,5.85,3.08,9.67-.79,3.85-3.9,6.97-7.75,7.78-6.58,1.38-12.37-3.6-12.38-9.94,0-3.14,1.41-5.95,3.65-7.82l-2.35-14.91-44.16.05-5.62,14.74c2.73,2.15,4.34,5.68,3.77,9.53-.65,4.46-4.36,8.04-8.83,8.57-6.16.73-11.4-4.07-11.41-10.09,0-2.81,1.13-5.35,2.97-7.19l-2.97-15.53-50.66.06,1.89,14.53Z"/>
              <g class="cls-1">
                <path class="cls-4" d="m629.91,905.64l-585.14.72c-23.43.03-42.52-19.01-42.55-42.44L1.16,4.99l27.51-.03.03.08,7,16.44-.05.06c-1.44,1.8-2.19,3.97-2.19,6.28,0,3.01,1.34,5.83,3.67,7.75,2.33,1.91,5.41,2.67,8.4,2.08,3.96-.77,6.94-3.7,7.78-7.63.85-3.99-.63-7.94-3.87-10.32l-.04-.03v-.06s-1.92-14.68-1.92-14.68l50.92-.06.02.11,2.98,15.6-.05.05c-1.9,1.9-2.94,4.42-2.93,7.11,0,2.86,1.23,5.59,3.38,7.5,2.17,1.93,4.98,2.8,7.88,2.46,4.41-.52,8.08-4.07,8.72-8.46.53-3.64-.86-7.15-3.73-9.41l-.07-.06.04-.09,5.65-14.83,44.36-.05v.11s2.38,14.99,2.38,14.99l-.06.04c-2.29,1.92-3.6,4.73-3.6,7.72s1.36,5.88,3.72,7.79c2.36,1.92,5.46,2.65,8.5,2.01,3.79-.8,6.86-3.88,7.65-7.68.74-3.56-.4-7.13-3.04-9.55l-.05-.04v-.06s1.37-15.36,1.37-15.36l57.25-.07-.07.18-5.42,14.03-.04.02c-3.04,1.81-4.92,5.12-4.92,8.66,0,3.04,1.36,5.89,3.73,7.8,2.36,1.91,5.45,2.64,8.52,1.99,3.72-.79,6.77-3.81,7.59-7.52.76-3.45-.25-6.96-2.7-9.4l-.05-.05v-.07s3.67-15.65,3.67-15.65l49.16-.06v.13s.48,13.79.48,13.79l-.07.04c-3.32,1.75-5.38,5.16-5.38,8.91,0,3.03,1.36,5.88,3.72,7.79,2.36,1.92,5.46,2.65,8.5,2.01,3.79-.8,6.87-3.89,7.65-7.68.74-3.57-.41-7.15-3.06-9.56l-.06-.05.02-.07,2.9-15.33,46.75-.06.03.1,1.1,4.16-.02.04c-.3.58.31,3.06.84,5.26.73,3,1.15,4.86.67,5.2-2.56,1.89-4.09,4.92-4.09,8.1,0,2.86,1.23,5.59,3.37,7.49,2.17,1.93,4.94,2.81,7.87,2.47,4.49-.52,8.18-4.14,8.77-8.61.32-2.47-.25-4.96-1.63-6.99-.36-.54-.97-2.37-1.67-4.48-1.02-3.08-2.42-7.3-3.27-7.75l-.06-.03v-.07s-.46-4.9-.46-4.9l55.91-.07v.13s-.34,15.07-.34,15.07l-.04.04c-2.23,1.91-3.5,4.7-3.5,7.63,0,3.03,1.36,5.88,3.72,7.79,2.36,1.92,5.45,2.66,8.51,2.01,3.77-.79,6.83-3.86,7.63-7.63.74-3.52-.35-7.07-2.93-9.5l-.04-.04v-.06s1.45-15.45,1.45-15.45l40.81-.05.04.06,4.87,6.73v.03s1.46,12.7,1.46,12.7v.03c-.58,1.65-.71,3.38-.4,5.15.75,4.2,4.24,7.52,8.48,8.1,3.35.45,6.56-.7,8.81-3.17,2.26-2.47,3.12-5.79,2.37-9.13-.84-3.75-3.96-6.77-7.75-7.51-1.39-.27-2.77-.27-4.1.01l-.13.03-.02-.13-2.46-12.92,64.39-.08v.13s.47,13.89.47,13.89l-.07.04c-3.22,1.77-5.21,5.15-5.21,8.82,0,3.04,1.36,5.88,3.73,7.8,2.36,1.92,5.47,2.65,8.51,2,3.74-.79,6.8-3.83,7.61-7.57.89-4.11-.76-8.26-4.2-10.58l-.06-.04v-.07s.67-14.42.67-14.42l58.84-.07.03.08,1.25,2.88c-.96,9.86-1.24,9.86-1.4,9.86-3.04,0-5.88,1.36-7.79,3.72-1.92,2.36-2.65,5.46-2.01,8.5.79,3.79,3.88,6.86,7.66,7.65,3.05.63,6.14-.11,8.5-2.03,2.36-1.92,3.7-4.77,3.7-7.8,0-3.07-1.85-6.98-2.79-7.69l-.06-.05.02-.08,2.38-11.73,1.95-3.32,30.75-.04,1.06,859.83c.03,22.93-18.61,41.61-41.54,41.64ZM1.42,5.25l1.06,858.67c.03,23.29,19,42.21,42.29,42.18l585.14-.72c22.79-.03,41.31-18.59,41.28-41.38l-1.06-859.57-30.34.04-1.87,3.17-2.35,11.6c1.09.92,2.83,4.95,2.83,7.84,0,3.11-1.38,6.03-3.8,8-2.42,1.97-5.58,2.73-8.71,2.09-3.89-.81-7.05-3.96-7.87-7.85-.65-3.12.1-6.29,2.06-8.71,1.95-2.41,4.84-3.8,7.93-3.82.25-.6.86-6.13,1.2-9.59l-1.2-2.7-58.42.07-.65,14.1c3.48,2.38,5.15,6.61,4.24,10.81-.83,3.83-3.97,6.95-7.81,7.77-3.12.66-6.3-.09-8.73-2.06-2.43-1.96-3.82-4.88-3.83-8,0-3.74,2.02-7.19,5.28-9.01l-.46-13.6-63.83.08,2.38,12.49c1.32-.27,2.7-.26,4.08.01,3.89.76,7.08,3.85,7.94,7.71.77,3.41-.11,6.82-2.43,9.35-2.32,2.53-5.62,3.71-9.04,3.25-4.34-.59-7.92-4-8.69-8.3-.32-1.8-.19-3.57.39-5.25l-1.44-12.61-4.79-6.62-40.44.05-1.42,15.16c2.61,2.49,3.72,6.11,2.96,9.7-.81,3.86-3.96,7.01-7.83,7.83-3.1.66-6.3-.1-8.73-2.06-2.42-1.96-3.82-4.88-3.82-7.99,0-2.99,1.29-5.83,3.55-7.79l.32-14.82-55.36.07.42,4.56c.93.64,2.2,4.47,3.33,7.86.69,2.1,1.3,3.91,1.64,4.42,1.41,2.08,2.01,4.63,1.67,7.17-.6,4.59-4.38,8.31-8.99,8.84-2.99.35-5.85-.55-8.07-2.53-2.19-1.95-3.45-4.75-3.45-7.69,0-3.27,1.56-6.37,4.19-8.31.36-.26-.27-2.86-.77-4.94-.58-2.4-1.13-4.67-.84-5.39l-1.05-3.97-46.34.06-2.84,15.05c2.68,2.48,3.83,6.12,3.08,9.75-.8,3.9-3.95,7.07-7.85,7.89-3.13.65-6.3-.1-8.72-2.07-2.42-1.96-3.82-4.88-3.82-7.99,0-3.82,2.08-7.3,5.45-9.11l-.48-13.51-48.7.06-3.59,15.37c2.47,2.5,3.49,6.08,2.72,9.59-.84,3.81-3.97,6.91-7.79,7.72-3.11.66-6.3-.08-8.73-2.04-2.43-1.96-3.83-4.88-3.83-8,0-3.61,1.91-6.99,5.01-8.85l5.32-13.76-56.63.07-1.34,15.06c2.67,2.48,3.82,6.12,3.07,9.75-.8,3.9-3.96,7.06-7.85,7.88-3.12.65-6.29-.1-8.72-2.07-2.42-1.96-3.81-4.88-3.82-7.99s1.32-5.91,3.64-7.87l-2.33-14.73-43.96.05-5.56,14.58c2.89,2.31,4.29,5.9,3.75,9.6-.66,4.49-4.42,8.14-8.94,8.68-2.99.35-5.86-.55-8.09-2.53-2.2-1.95-3.46-4.76-3.46-7.69,0-2.73,1.05-5.3,2.96-7.24l-2.93-15.36-50.4.06,1.87,14.33c3.29,2.44,4.79,6.47,3.92,10.55-.85,3.97-3.98,7.04-7.98,7.83-3.11.61-6.23-.18-8.62-2.14-2.39-1.96-3.76-4.86-3.76-7.94,0-2.34.76-4.55,2.2-6.38l-6.9-16.22-27.08.03Z"/>
              </g>
            </g>
          </g>
        </g>
      </g>
    </g>
  </g>
</svg>