<?xml version="1.0" encoding="UTF-8"?>
<svg xmlns="http://www.w3.org/2000/svg" xmlns:xlink="http://www.w3.org/1999/xlink" viewBox="0 0 600.49 769.58">
  <defs>
    <style>
      .cls-1 {
        mask: url(#mask);
      }

      .cls-2 {
        filter: url(#luminosity-noclip);
      }

      .cls-3 {
        fill: #fff;
      }

      .cls-4 {
        fill: #bcaeab;
      }

      .cls-4, .cls-5 {
        mix-blend-mode: multiply;
      }

      .cls-5 {
        fill: url(#_ÅÂÁ_Ï_ÌÌ_È_ËÂÌÚ_4);
      }

      .cls-6 {
        isolation: isolate;
      }

      .cls-7 {
        mask: url(#mask-1);
      }
    </style>
    <filter id="luminosity-noclip" x="0" y="2.06" width="593.3" height="767.52" color-interpolation-filters="sRGB" filterUnits="userSpaceOnUse">
      <feFlood flood-color="#fff" result="bg"/>
      <feBlend in="SourceGraphic" in2="bg"/>
    </filter>
    <filter id="luminosity-noclip-2" x="0" y="-8578.99" width="593.3" height="32766" color-interpolation-filters="sRGB" filterUnits="userSpaceOnUse">
      <feFlood flood-color="#fff" result="bg"/>
      <feBlend in="SourceGraphic" in2="bg"/>
    </filter>
    <mask id="mask-1" x="0" y="-8578.99" width="593.3" height="32766" maskUnits="userSpaceOnUse"/>
    <linearGradient id="_ÅÂÁ_Ï_ÌÌ_È_ËÂÌÚ_4" data-name="ÅÂÁ˚ÏﬂÌÌ˚È „‡‰ËÂÌÚ 4" x1="7.18" y1="385.82" x2="600.49" y2="385.82" gradientTransform="translate(600.49) rotate(-180) scale(1 -1)" gradientUnits="userSpaceOnUse">
      <stop offset="0" stop-color="#000"/>
      <stop offset=".5" stop-color="#fff"/>
      <stop offset="1" stop-color="#fff"/>
    </linearGradient>
    <mask id="mask" x="0" y="2.06" width="593.3" height="767.52" maskUnits="userSpaceOnUse">
      <g class="cls-2">
        <g class="cls-7">
          <path class="cls-5" d="m0,727.02V43.59C0,20.69,18.49,2.06,41.23,2.06h552.08v35.26s-3.77,2.25-3.77,2.25l-13.35,2.75-.09.02-.05-.08c-.81-1.08-5.27-3.19-8.76-3.19s-6.64,1.53-8.83,4.2c-2.18,2.67-3.05,6.18-2.39,9.64.87,4.5,4.45,8.11,8.92,8.99,3.44.67,6.92-.2,9.57-2.4,2.65-2.2,4.17-5.44,4.17-8.9,0-.17,0-.49,11.22-1.62h.04s3.24,1.43,3.24,1.43l.09.04v67.49s-16.41.78-16.41.78h-.08s-.05-.07-.05-.07c-2.58-3.85-7.03-5.73-11.62-4.88-4.55.83-8.19,4.45-9.07,9.01-.67,3.46.2,6.97,2.39,9.64,2.18,2.67,5.4,4.2,8.83,4.2,4.18,0,8.02-2.29,10.03-5.98l.04-.08,15.95.52v73.85s-14.71-2.8-14.71-2.8l-.15-.03.03-.15c.28-1.36.31-2.75.1-4.16-.75-5.04-4.97-9.1-10.02-9.65-3.66-.39-7.19.93-9.68,3.64-2.49,2.71-3.51,6.38-2.82,10.07.87,4.61,4.53,8.26,9.13,9.08,2.02.36,3.99.21,5.86-.45h.03s14.46,1.64,14.46,1.64h.04s7.67,5.58,7.67,5.58l.06.04v46.8s-17.59,1.68-17.59,1.68h-.07s-.05-.05-.05-.05c-2.67-2.85-6.59-4.13-10.46-3.41-4.54.83-8.18,4.45-9.06,9.01-.67,3.46.2,6.97,2.39,9.63,2.18,2.67,5.4,4.2,8.83,4.2s6.5-1.47,8.68-4.02l.04-.05,17.15-.4h.15s0,64.12,0,64.12l-5.58-.51h-.08s-.04-.08-.04-.08c-.52-.97-5.32-2.56-8.83-3.73-2.41-.8-4.49-1.5-5.1-1.91-2.28-1.55-5.05-2.22-7.83-1.88-5.18.63-9.35,4.88-9.93,10.1-.37,3.33.64,6.53,2.84,9.01,2.17,2.44,5.28,3.84,8.53,3.84,3.62,0,7.07-1.76,9.22-4.7.41-.55,2.51-.06,5.92.77,2.5.61,5.33,1.29,5.99.96l.05-.03,4.84,1.29v53.62s-17.45,3.34-17.45,3.34l-.08.02-.05-.06c-2.66-2.93-6.6-4.27-10.54-3.56-4.57.82-8.24,4.44-9.12,9.02-.67,3.46.2,6.97,2.38,9.64,2.18,2.67,5.4,4.2,8.83,4.2,4.27,0,8.16-2.37,10.14-6.18l.04-.08,15.85.54v56.38s-17.8,4.21-17.8,4.21l-.08.02-.06-.06c-2.73-2.74-6.49-3.9-10.34-3.16-4.49.86-8.09,4.48-8.96,8.99-.67,3.46.2,6.97,2.38,9.64,2.18,2.67,5.4,4.2,8.83,4.2,4.02,0,7.79-2.17,9.85-5.65l.02-.04,15.96-6.24.2-.08v65.65s-17.48,1.59-17.48,1.59h-.07s-.05-.05-.05-.05c-2.66-2.92-6.6-4.24-10.53-3.54-4.57.82-8.23,4.44-9.11,9.02-.67,3.46.2,6.97,2.38,9.64,2.18,2.67,5.4,4.2,8.83,4.2s6.61-1.51,8.79-4.14l.05-.07,17.06,2.69.13.02v50.88s-16.88,6.51-16.88,6.51l-.1.04-.07-.09c-2.49-3.18-6.37-4.77-10.4-4.31-5.19.63-9.37,4.88-9.95,10.11-.37,3.33.64,6.53,2.84,9.01,2.17,2.44,5.28,3.84,8.53,3.84,3.06,0,5.93-1.2,8.09-3.37l.05-.06,17.76,3.39.12.02v58.39s-16.71-2.17-16.71-2.17h-.06s-.04-.06-.04-.06c-2.65-3.62-7.06-5.34-11.49-4.48-4.48.87-8.07,4.48-8.94,8.99-.67,3.46.2,6.97,2.38,9.64,2.18,2.67,5.4,4.2,8.83,4.2,2.63,0,5.1-.87,7.14-2.52l.07-.06,18.73,8,.09.04v31.55H42.25c-23.3,0-42.25-19.09-42.25-42.56Zm593.01,11.22l-18.48-7.89c-2.09,1.65-4.59,2.53-7.26,2.53-3.52,0-6.82-1.57-9.05-4.3-2.24-2.74-3.13-6.34-2.44-9.88.89-4.63,4.58-8.33,9.17-9.22,4.53-.88,9.03.86,11.74,4.54l16.32,2.12v-57.81s-17.49-3.34-17.49-3.34c-2.21,2.2-5.13,3.41-8.24,3.41-3.33,0-6.52-1.44-8.74-3.94-2.26-2.54-3.29-5.82-2.91-9.24.59-5.37,4.89-9.73,10.21-10.37,4.08-.49,8.04,1.12,10.59,4.33l16.59-6.4v-50.42s-16.78-2.64-16.78-2.64c-2.24,2.66-5.5,4.18-8.96,4.18s-6.82-1.57-9.05-4.3c-2.24-2.73-3.13-6.34-2.44-9.88.9-4.69,4.66-8.41,9.35-9.25,4-.72,8.02.62,10.75,3.58l17.14-1.56v-64.95s-15.66,6.12-15.66,6.12c-2.11,3.55-5.96,5.75-10.07,5.75-3.51,0-6.82-1.57-9.05-4.3-2.24-2.74-3.13-6.34-2.44-9.88.89-4.63,4.59-8.34,9.19-9.23,3.92-.75,7.75.41,10.55,3.18l17.49-4.14v-55.85s-15.38-.53-15.38-.53c-2.05,3.86-6.01,6.26-10.36,6.26-3.51,0-6.82-1.57-9.05-4.3-2.24-2.74-3.13-6.34-2.44-9.88.9-4.7,4.66-8.42,9.36-9.26,4.01-.71,8.02.63,10.75,3.6l17.13-3.28v-53.14s-4.52-1.2-4.52-1.2c-.82.33-3.41-.3-6.14-.96-2.36-.58-5.31-1.29-5.61-.88-2.21,3.02-5.74,4.82-9.46,4.82-3.33,0-6.52-1.44-8.75-3.94-2.26-2.54-3.29-5.82-2.91-9.24.59-5.36,4.88-9.72,10.19-10.37,2.85-.35,5.69.34,8.02,1.93.58.39,2.64,1.08,5.03,1.88,3.86,1.29,8.23,2.74,8.95,3.8l5.19.47v-63.5s-16.87.39-16.87.39c-2.23,2.59-5.46,4.08-8.86,4.08s-6.82-1.57-9.05-4.31c-2.24-2.74-3.13-6.34-2.44-9.88.9-4.67,4.64-8.39,9.3-9.25,3.97-.73,7.94.56,10.68,3.45l17.25-1.65v-46.38s-7.55-5.48-7.55-5.48l-14.35-1.64c-1.91.67-3.92.82-5.98.45-4.71-.84-8.48-4.59-9.36-9.32-.71-3.78.34-7.55,2.89-10.33,2.55-2.78,6.15-4.14,9.93-3.73,5.18.57,9.51,4.73,10.28,9.9.21,1.39.18,2.77-.08,4.11l14.22,2.71v-73.2s-15.49-.51-15.49-.51c-2.07,3.74-5.99,6.06-10.25,6.06-3.51,0-6.82-1.57-9.05-4.3-2.24-2.74-3.13-6.34-2.44-9.88.9-4.68,4.64-8.39,9.31-9.25,4.68-.85,9.22,1.04,11.88,4.94l16.05-.76V50.64s-3.08-1.37-3.08-1.37c-3.94.4-10.24,1.11-10.92,1.39-.02,3.52-1.57,6.81-4.27,9.05-2.71,2.25-6.29,3.16-9.81,2.46-4.58-.89-8.26-4.6-9.15-9.22-.69-3.55.21-7.15,2.44-9.88,2.24-2.73,5.54-4.3,9.05-4.3,3.3,0,7.88,1.98,8.93,3.23l13.2-2.71,3.61-2.15V2.36s-551.79,0-551.79,0c-22.57,0-40.93,18.5-40.93,41.23v683.43c0,23.31,18.82,42.27,41.96,42.27h550.76s0-31.06,0-31.06Z"/>
        </g>
      </g>
    </mask>
  </defs>
  <g class="cls-6">
    <g id="Capa_2" data-name="Capa 2">
      <g id="Capa_1-2" data-name="Capa 1">
        <g>
          <path class="cls-4" d="m600.49,714.07v-58.1s-17.69-3.38-17.69-3.38c-2.09,2.11-4.99,3.42-8.19,3.42-6.84,0-12.29-5.97-11.51-13.01.58-5.29,4.84-9.61,10.08-10.24,4.26-.51,8.14,1.31,10.53,4.36l16.78-6.47v-50.65s-16.98-2.68-16.98-2.68c-2.12,2.56-5.32,4.2-8.9,4.2-7.16,0-12.8-6.54-11.36-14.01.89-4.62,4.63-8.31,9.23-9.14,4.21-.75,8.11.79,10.66,3.59l17.34-1.57v-65.3s-15.91,6.22-15.91,6.22c-2.02,3.43-5.73,5.72-9.97,5.72-7.16,0-12.8-6.54-11.36-14.01.88-4.56,4.55-8.24,9.08-9.11,4.09-.78,7.89.6,10.47,3.2l17.69-4.19v-56.12s-15.61-.54-15.61-.54c-1.94,3.73-5.81,6.27-10.27,6.27-7.16,0-12.8-6.54-11.36-14.01.89-4.62,4.64-8.32,9.24-9.14,4.22-.75,8.12.8,10.67,3.61l17.33-3.32v-53.38s-4.68-1.24-4.68-1.24c-1.43.73-11.16-2.74-11.86-1.77-2.11,2.89-5.5,4.76-9.33,4.76-6.84,0-12.29-5.97-11.51-13.02.59-5.28,4.83-9.6,10.06-10.24,2.95-.36,5.71.4,7.92,1.9,1.54,1.05,13.09,4.04,13.98,5.7l5.42.5v-63.81s-17.08.4-17.08.4c-2.12,2.49-5.28,4.07-8.79,4.07-7.16,0-12.8-6.54-11.36-14.01.89-4.6,4.6-8.29,9.18-9.13,4.17-.76,8.03.72,10.6,3.46l17.46-1.67v-46.59s-7.64-5.55-7.64-5.55l-14.43-1.65c-1.82.64-3.84.83-5.94.46-4.62-.82-8.37-4.55-9.24-9.19-1.49-7.89,4.93-14.73,12.66-13.88,5.12.56,9.38,4.64,10.15,9.78.22,1.46.17,2.87-.11,4.21l14.54,2.77v-73.52s-15.72-.52-15.72-.52c-1.97,3.61-5.78,6.06-10.16,6.06-7.16,0-12.8-6.54-11.36-14.01.89-4.61,4.61-8.29,9.19-9.13,4.87-.89,9.32,1.29,11.77,4.95l16.27-.77V48.34s-3.2-1.42-3.2-1.42c0,0-11.09,1.11-11.09,1.47,0,7.21-6.49,12.89-13.91,11.44-4.52-.88-8.16-4.55-9.03-9.1-1.44-7.47,4.2-14.01,11.36-14.01,3.45,0,8.02,2.1,8.87,3.25l13.31-2.73,3.7-2.21V0s-551.93,0-551.93,0C25.87,0,7.48,18.53,7.48,41.38v683.43c0,23.43,18.85,42.42,42.11,42.42h550.9s0-31.3,0-31.3l-18.65-7.97c-1.98,1.6-4.5,2.55-7.23,2.55-7.16,0-12.8-6.54-11.36-14.01.88-4.56,4.53-8.23,9.06-9.11,4.75-.92,9.11,1.09,11.64,4.54l16.54,2.15Z"/>
          <g>
            <path class="cls-3" d="m593.16,716.29v-58.1s-17.69-3.38-17.69-3.38c-2.09,2.11-4.99,3.42-8.19,3.42-6.84,0-12.29-5.97-11.51-13.01.58-5.28,4.84-9.61,10.08-10.24,4.26-.52,8.14,1.31,10.53,4.36l16.78-6.47v-50.65s-16.98-2.67-16.98-2.67c-2.12,2.56-5.32,4.2-8.9,4.2-7.16,0-12.8-6.54-11.36-14.01.89-4.62,4.63-8.31,9.23-9.14,4.21-.75,8.11.79,10.66,3.59l17.34-1.57v-65.3s-15.91,6.22-15.91,6.22c-2.02,3.43-5.73,5.72-9.97,5.72-7.16,0-12.8-6.54-11.36-14.01.88-4.57,4.55-8.24,9.08-9.11,4.09-.78,7.89.59,10.47,3.2l17.69-4.19v-56.11s-15.61-.54-15.61-.54c-1.94,3.72-5.81,6.26-10.27,6.26-7.16,0-12.8-6.54-11.36-14.01.89-4.62,4.64-8.32,9.24-9.14,4.22-.75,8.12.8,10.67,3.61l17.33-3.32v-53.38s-4.68-1.24-4.68-1.24c-1.43.73-11.16-2.74-11.86-1.77-2.11,2.89-5.5,4.76-9.33,4.76-6.84,0-12.29-5.97-11.51-13.02.59-5.28,4.83-9.6,10.06-10.24,2.95-.36,5.71.4,7.92,1.9,1.54,1.05,13.09,4.04,13.98,5.7l5.42.5v-63.81s-17.08.4-17.08.4c-2.12,2.5-5.28,4.07-8.79,4.07-7.16,0-12.8-6.54-11.36-14.01.89-4.6,4.6-8.29,9.18-9.13,4.17-.76,8.03.72,10.6,3.45l17.46-1.67v-46.59s-7.64-5.55-7.64-5.55l-14.43-1.65c-1.82.64-3.84.83-5.94.46-4.62-.82-8.37-4.55-9.24-9.19-1.49-7.89,4.93-14.73,12.66-13.88,5.12.56,9.38,4.64,10.15,9.78.22,1.46.17,2.88-.11,4.21l14.54,2.77v-73.52s-15.72-.52-15.72-.52c-1.97,3.61-5.78,6.06-10.16,6.06-7.16,0-12.8-6.54-11.36-14.01.89-4.61,4.61-8.29,9.19-9.13,4.87-.89,9.32,1.29,11.77,4.95l16.27-.77V50.55s-3.2-1.42-3.2-1.42c0,0-11.09,1.11-11.09,1.47,0,7.21-6.49,12.89-13.91,11.44-4.52-.88-8.16-4.55-9.03-9.1-1.44-7.47,4.2-14.01,11.36-14.01,3.45,0,8.02,2.1,8.87,3.25l13.31-2.73,3.7-2.21V2.21s-551.93,0-551.93,0c-22.69,0-41.08,18.53-41.08,41.38v683.43c0,23.43,18.85,42.42,42.11,42.42h550.9s0-31.3,0-31.3l-18.65-7.97c-1.98,1.6-4.5,2.55-7.23,2.55-7.16,0-12.8-6.54-11.36-14.01.88-4.56,4.53-8.23,9.06-9.11,4.75-.92,9.11,1.09,11.64,4.54l16.54,2.15Z"/>
            <g class="cls-1">
              <path class="cls-3" d="m0,727.02V43.59C0,20.69,18.49,2.06,41.23,2.06h552.08v35.26s-3.77,2.25-3.77,2.25l-13.35,2.75-.09.02-.05-.08c-.81-1.08-5.27-3.19-8.76-3.19s-6.64,1.53-8.83,4.2c-2.18,2.67-3.05,6.18-2.39,9.64.87,4.5,4.45,8.11,8.92,8.99,3.44.67,6.92-.2,9.57-2.4,2.65-2.2,4.17-5.44,4.17-8.9,0-.17,0-.49,11.22-1.62h.04s3.24,1.43,3.24,1.43l.09.04v67.49s-16.41.78-16.41.78h-.08s-.05-.07-.05-.07c-2.58-3.85-7.03-5.73-11.62-4.88-4.55.83-8.19,4.45-9.07,9.01-.67,3.46.2,6.97,2.39,9.64,2.18,2.67,5.4,4.2,8.83,4.2,4.18,0,8.02-2.29,10.03-5.98l.04-.08,15.95.52v73.85s-14.71-2.8-14.71-2.8l-.15-.03.03-.15c.28-1.36.31-2.75.1-4.16-.75-5.04-4.97-9.1-10.02-9.65-3.66-.39-7.19.93-9.68,3.64-2.49,2.71-3.51,6.38-2.82,10.07.87,4.61,4.53,8.26,9.13,9.08,2.02.36,3.99.21,5.86-.45h.03s14.46,1.64,14.46,1.64h.04s7.67,5.58,7.67,5.58l.06.04v46.8s-17.59,1.68-17.59,1.68h-.07s-.05-.05-.05-.05c-2.67-2.85-6.59-4.13-10.46-3.41-4.54.83-8.18,4.45-9.06,9.01-.67,3.46.2,6.97,2.39,9.63,2.18,2.67,5.4,4.2,8.83,4.2s6.5-1.47,8.68-4.02l.04-.05,17.15-.4h.15s0,64.12,0,64.12l-5.58-.51h-.08s-.04-.08-.04-.08c-.52-.97-5.32-2.56-8.83-3.73-2.41-.8-4.49-1.5-5.1-1.91-2.28-1.55-5.05-2.22-7.83-1.88-5.18.63-9.35,4.88-9.93,10.1-.37,3.33.64,6.53,2.84,9.01,2.17,2.44,5.28,3.84,8.53,3.84,3.62,0,7.07-1.76,9.22-4.7.41-.55,2.51-.06,5.92.77,2.5.61,5.33,1.29,5.99.96l.05-.03,4.84,1.29v53.62s-17.45,3.34-17.45,3.34l-.08.02-.05-.06c-2.66-2.93-6.6-4.27-10.54-3.56-4.57.82-8.24,4.44-9.12,9.02-.67,3.46.2,6.97,2.38,9.64,2.18,2.67,5.4,4.2,8.83,4.2,4.27,0,8.16-2.37,10.14-6.18l.04-.08,15.85.54v56.38s-17.8,4.21-17.8,4.21l-.08.02-.06-.06c-2.73-2.74-6.49-3.9-10.34-3.16-4.49.86-8.09,4.48-8.96,8.99-.67,3.46.2,6.97,2.38,9.64,2.18,2.67,5.4,4.2,8.83,4.2,4.02,0,7.79-2.17,9.85-5.65l.02-.04,15.96-6.24.2-.08v65.65s-17.48,1.59-17.48,1.59h-.07s-.05-.05-.05-.05c-2.66-2.92-6.6-4.24-10.53-3.54-4.57.82-8.23,4.44-9.11,9.02-.67,3.46.2,6.97,2.38,9.64,2.18,2.67,5.4,4.2,8.83,4.2s6.61-1.51,8.79-4.14l.05-.07,17.06,2.69.13.02v50.88s-16.88,6.51-16.88,6.51l-.1.04-.07-.09c-2.49-3.18-6.37-4.77-10.4-4.31-5.19.63-9.37,4.88-9.95,10.11-.37,3.33.64,6.53,2.84,9.01,2.17,2.44,5.28,3.84,8.53,3.84,3.06,0,5.93-1.2,8.09-3.37l.05-.06,17.76,3.39.12.02v58.39s-16.71-2.17-16.71-2.17h-.06s-.04-.06-.04-.06c-2.65-3.62-7.06-5.34-11.49-4.48-4.48.87-8.07,4.48-8.94,8.99-.67,3.46.2,6.97,2.38,9.64,2.18,2.67,5.4,4.2,8.83,4.2,2.63,0,5.1-.87,7.14-2.52l.07-.06,18.73,8,.09.04v31.55H42.25c-23.3,0-42.25-19.09-42.25-42.56Zm593.01,11.22l-18.48-7.89c-2.09,1.65-4.59,2.53-7.26,2.53-3.52,0-6.82-1.57-9.05-4.3-2.24-2.74-3.13-6.34-2.44-9.88.89-4.63,4.58-8.33,9.17-9.22,4.53-.88,9.03.86,11.74,4.54l16.32,2.12v-57.81s-17.49-3.34-17.49-3.34c-2.21,2.2-5.13,3.41-8.24,3.41-3.33,0-6.52-1.44-8.74-3.94-2.26-2.54-3.29-5.82-2.91-9.24.59-5.37,4.89-9.73,10.21-10.37,4.08-.49,8.04,1.12,10.59,4.33l16.59-6.4v-50.42s-16.78-2.64-16.78-2.64c-2.24,2.66-5.5,4.18-8.96,4.18s-6.82-1.57-9.05-4.3c-2.24-2.73-3.13-6.34-2.44-9.88.9-4.69,4.66-8.41,9.35-9.25,4-.72,8.02.62,10.75,3.58l17.14-1.56v-64.95s-15.66,6.12-15.66,6.12c-2.11,3.55-5.96,5.75-10.07,5.75-3.51,0-6.82-1.57-9.05-4.3-2.24-2.74-3.13-6.34-2.44-9.88.89-4.63,4.59-8.34,9.19-9.23,3.92-.75,7.75.41,10.55,3.18l17.49-4.14v-55.85s-15.38-.53-15.38-.53c-2.05,3.86-6.01,6.26-10.36,6.26-3.51,0-6.82-1.57-9.05-4.3-2.24-2.74-3.13-6.34-2.44-9.88.9-4.7,4.66-8.42,9.36-9.26,4.01-.71,8.02.63,10.75,3.6l17.13-3.28v-53.14s-4.52-1.2-4.52-1.2c-.82.33-3.41-.3-6.14-.96-2.36-.58-5.31-1.29-5.61-.88-2.21,3.02-5.74,4.82-9.46,4.82-3.33,0-6.52-1.44-8.75-3.94-2.26-2.54-3.29-5.82-2.91-9.24.59-5.36,4.88-9.72,10.19-10.37,2.85-.35,5.69.34,8.02,1.93.58.39,2.64,1.08,5.03,1.88,3.86,1.29,8.23,2.74,8.95,3.8l5.19.47v-63.5s-16.87.39-16.87.39c-2.23,2.59-5.46,4.08-8.86,4.08s-6.82-1.57-9.05-4.31c-2.24-2.74-3.13-6.34-2.44-9.88.9-4.67,4.64-8.39,9.3-9.25,3.97-.73,7.94.56,10.68,3.45l17.25-1.65v-46.38s-7.55-5.48-7.55-5.48l-14.35-1.64c-1.91.67-3.92.82-5.98.45-4.71-.84-8.48-4.59-9.36-9.32-.71-3.78.34-7.55,2.89-10.33,2.55-2.78,6.15-4.14,9.93-3.73,5.18.57,9.51,4.73,10.28,9.9.21,1.39.18,2.77-.08,4.11l14.22,2.71v-73.2s-15.49-.51-15.49-.51c-2.07,3.74-5.99,6.06-10.25,6.06-3.51,0-6.82-1.57-9.05-4.3-2.24-2.74-3.13-6.34-2.44-9.88.9-4.68,4.64-8.39,9.31-9.25,4.68-.85,9.22,1.04,11.88,4.94l16.05-.76V50.64s-3.08-1.37-3.08-1.37c-3.94.4-10.24,1.11-10.92,1.39-.02,3.52-1.57,6.81-4.27,9.05-2.71,2.25-6.29,3.16-9.81,2.46-4.58-.89-8.26-4.6-9.15-9.22-.69-3.55.21-7.15,2.44-9.88,2.24-2.73,5.54-4.3,9.05-4.3,3.3,0,7.88,1.98,8.93,3.23l13.2-2.71,3.61-2.15V2.36s-551.79,0-551.79,0c-22.57,0-40.93,18.5-40.93,41.23v683.43c0,23.31,18.82,42.27,41.96,42.27h550.76s0-31.06,0-31.06Z"/>
            </g>
          </g>
        </g>
      </g>
    </g>
  </g>
</svg>