<?xml version="1.0" encoding="UTF-8"?>
<svg id="Capa_2" data-name="Capa 2" xmlns="http://www.w3.org/2000/svg" xmlns:xlink="http://www.w3.org/1999/xlink" viewBox="0 0 224.07 458.36">
  <defs>
    <style>
      .cls-1, .cls-2 {
        fill: none;
      }

      .cls-3 {
        fill: #263239;
      }

      .cls-3, .cls-4, .cls-2, .cls-5, .cls-6, .cls-7 {
        stroke-linecap: round;
        stroke-linejoin: round;
      }

      .cls-3, .cls-4, .cls-2, .cls-5, .cls-6, .cls-7, .cls-8, .cls-9 {
        stroke: #263239;
      }

      .cls-4, .cls-6, .cls-10, .cls-11 {
        fill: #fff;
      }

      .cls-5 {
        opacity: .16;
      }

      .cls-12 {
        clip-path: url(#clippath);
      }

      .cls-6 {
        opacity: .62;
      }

      .cls-7 {
        opacity: .35;
      }

      .cls-8 {
        fill: #029da4;
      }

      .cls-8, .cls-9 {
        stroke-miterlimit: 10;
      }

      .cls-9 {
        fill: #8acdcf;
      }

      .cls-11 {
        opacity: .49;
      }
    </style>
    <clipPath id="clippath">
      <path class="cls-1" d="m0,301.79c0,55.77,11.92,108.76,33.35,156.56,110.86-37.28,190.72-142.06,190.72-265.49,0-74.75-29.29-142.65-77.01-192.87C57.53,70.14,0,179.25,0,301.79Z"/>
    </clipPath>
  </defs>
  <g id="Capa_1-2" data-name="Capa 1">
    <g class="cls-12">
      <g>
        <g>
          <rect class="cls-8" x="72.93" y="195.9" width="88.97" height="9.91" transform="translate(-110.38 153.56) rotate(-47.96)"/>
          <rect class="cls-4" x="80.2" y="195.9" width="74.44" height="9.91" transform="translate(-110.38 153.56) rotate(-47.96)"/>
          <rect class="cls-8" x="90.32" y="218.66" width="13.15" height="9.91" transform="translate(-134.06 145.84) rotate(-47.96)"/>
          <rect class="cls-7" x="90.32" y="218.66" width="13.15" height="9.91" transform="translate(-134.06 145.84) rotate(-47.96)"/>
          <rect class="cls-8" x="91.26" y="195.9" width="52.31" height="9.91" transform="translate(-110.38 153.56) rotate(-47.96)"/>
          <rect class="cls-5" x="96.81" y="208.38" width="18.71" height="9.91" transform="translate(-123.37 149.33) rotate(-47.96)"/>
          <rect class="cls-9" x="107.61" y="195.9" width="19.62" height="9.91" transform="translate(-110.38 153.56) rotate(-47.96)"/>
        </g>
        <g>
          <circle class="cls-3" cx="60.9" cy="172.5" r="25.69" transform="translate(-30.94 14.29) rotate(-10.69)"/>
          <circle class="cls-8" cx="62.02" cy="170.87" r="25.69" transform="translate(-30.46 14.38) rotate(-10.63)"/>
          <circle class="cls-2" cx="62.02" cy="170.87" r="25.69" transform="translate(-30.46 14.38) rotate(-10.63)"/>
          <circle class="cls-8" cx="62.02" cy="170.87" r="21.8" transform="translate(-14.58 6.02) rotate(-4.97)"/>
          <path class="cls-11" d="m79.97,183.25c-.11.16-.23.32-.35.48-12.23-15.36-26.54-21.76-36.09-24.41.17-.28.35-.56.54-.83,1.63-2.36,3.64-4.3,5.89-5.79,7.2-4.78,16.89-4.98,24.44.23,7.43,5.13,10.69,14.04,8.97,22.35-.57,2.78-1.69,5.49-3.41,7.98Z"/>
          <path class="cls-10" d="m83.38,175.27c-11.32-13.59-24.21-19.77-33.41-22.58,7.2-4.78,16.89-4.98,24.44.23,7.43,5.13,10.69,14.04,8.97,22.35Z"/>
          <path class="cls-3" d="m73.73,153.9c9.75,6.73,12.31,19.97,5.89,29.83.12-.16.24-.32.35-.48,6.84-9.91,4.35-23.49-5.56-30.33-9.91-6.84-23.49-4.35-30.33,5.56-.11.16-.22.33-.32.5,6.94-9.51,20.23-11.81,29.98-5.08Z"/>
          <path class="cls-3" d="m51.67,185.33l.31-.83,1.58-1.91c-1.84-1.41-2.84-3-3.01-4.79-.17-1.79.53-3.9,2.08-6.31l4.99,1.45-.31.83c-.64.97-1.1,1.81-1.36,2.5-.26.69-.34,1.27-.23,1.72.11.46.36.82.77,1.1.52.36.97.41,1.37.17.4-.24.73-.56,1-.95.64-.92.96-1.85.96-2.79,0-.94-.15-1.99-.46-3.16l-.8-3.05c-.21-.88-.36-1.74-.45-2.58-.09-.84-.03-1.7.17-2.58.2-.88.63-1.81,1.3-2.77,1.21-1.75,2.66-2.78,4.36-3.09,1.69-.3,3.44.07,5.22,1.11l3.54-2.49-.31.83-1.8,2.6c1.03.79,1.72,1.63,2.07,2.51.35.88.46,1.75.35,2.61-.12.86-.36,1.69-.73,2.48-.37.79-.76,1.5-1.16,2.12l-4.66-2.44c.07-.11.25-.73.31-.83.35-.55.53-.54.77-1,.28-.54.41-1.02.41-1.42,0-.4-.23-.74-.67-1.01-.46-.32-.94-.36-1.43-.13-.49.24-.87.55-1.14.93-.61.89-.88,1.76-.8,2.61.08.86.22,1.71.42,2.56l.76,2.93c.23,1.01.39,2.01.47,3.02.08,1.01,0,2.02-.23,3.03-.23,1.01-.71,2.03-1.42,3.07-.68.98-1.5,1.73-2.46,2.27-.97.53-2,.79-3.11.78-1.11-.01-2.23-.33-3.35-.95l-1.91,2.77-1.41-.97Z"/>
          <path class="cls-8" d="m51.98,184.5l1.89-2.74c-1.84-1.41-2.84-3-3.01-4.79-.17-1.79.53-3.9,2.08-6.31l4.68,2.29c-.64.97-1.1,1.81-1.36,2.5-.26.69-.34,1.27-.23,1.72.11.46.36.82.77,1.1.52.36.97.41,1.37.17.4-.24.73-.56,1-.95.64-.92.96-1.85.96-2.79,0-.94-.15-1.99-.46-3.16l-.8-3.05c-.21-.88-.36-1.74-.45-2.58-.09-.84-.03-1.7.17-2.58.2-.88.63-1.81,1.3-2.77,1.21-1.75,2.66-2.78,4.36-3.09,1.69-.3,3.44.07,5.22,1.11l1.82-2.63,1.41.97-1.8,2.6c1.03.79,1.72,1.63,2.07,2.51.35.88.46,1.75.35,2.61-.12.86-.36,1.69-.73,2.48-.37.79-.76,1.5-1.16,2.12l-4.66-2.44c.44-.68.8-1.29,1.08-1.83.28-.54.41-1.02.41-1.42,0-.4-.23-.74-.67-1.01-.46-.32-.94-.36-1.43-.13-.49.24-.87.55-1.14.93-.61.89-.88,1.76-.8,2.61.08.86.22,1.71.42,2.56l.76,2.93c.23,1.01.39,2.01.47,3.02.08,1.01,0,2.02-.23,3.03-.23,1.01-.71,2.03-1.42,3.07-.68.98-1.5,1.73-2.46,2.27-.97.53-2,.79-3.11.78-1.11-.01-2.23-.33-3.35-.95l-1.91,2.77-1.41-.97Z"/>
        </g>
        <g>
          <ellipse class="cls-3" cx="131.66" cy="282.64" rx="45.61" ry="30.56" transform="translate(-169.82 203.08) rotate(-50.24)"/>
          <ellipse class="cls-8" cx="127.78" cy="279.24" rx="45.61" ry="30.56" transform="translate(-168.6 198.87) rotate(-50.24)"/>
          <ellipse class="cls-8" cx="127.78" cy="279.24" rx="38.7" ry="25.93" transform="translate(-168.6 198.87) rotate(-50.24)"/>
          <path class="cls-11" d="m152.21,249.22c-27.59,10.61-42.51,40.54-49.43,59.56-2.82-2.42-4.76-5.67-5.82-9.47-2.47-8.77-.2-20.44,7.01-31.43,9.63-14.69,25.07-23.59,37.57-22.65,2.59.19,5.04.82,7.3,1.89,1.22.59,2.36,1.29,3.38,2.1Z"/>
          <path class="cls-11" d="m141.53,245.23c-23.64,10.8-37.41,35.95-44.57,54.08-2.47-8.77-.2-20.44,7.01-31.43,9.63-14.69,25.07-23.59,37.57-22.65Z"/>
          <ellipse class="cls-2" cx="127.78" cy="279.24" rx="38.7" ry="25.93" transform="translate(-168.6 198.87) rotate(-50.24)"/>
          <path class="cls-3" d="m105.85,269.14c11.63-17.74,31.71-27.03,44.86-20.76.42.2.83.42,1.23.65-.95-.72-1.99-1.36-3.11-1.9-13.15-6.27-33.23,3.03-44.86,20.76-11.25,17.17-10.46,35.95,1.52,42.82-10.14-7.7-10.27-25.35.36-41.56Z"/>
          <path class="cls-3" d="m110.86,303.89l-.83-1.66,4.05-3.25c-2.41-1.37-3.59-3.37-3.52-6,.07-2.63,1.44-6.09,4.12-10.37l5.54-.12.83,1.66c-1.1,1.73-1.9,3.17-2.4,4.32-.5,1.15-.71,2.05-.63,2.69.08.64.38,1.09.92,1.35.69.33,1.34.23,1.96-.3.62-.53,1.16-1.14,1.61-1.83,1.08-1.65,1.71-3.19,1.88-4.6.17-1.41.13-2.94-.11-4.57l-.63-4.27c-.15-1.24-.22-2.48-.2-3.71.02-1.23.25-2.55.69-3.96.44-1.41,1.23-2.98,2.36-4.7,2.06-3.14,4.34-5.28,6.84-6.43,2.5-1.15,4.96-1.3,7.37-.46l4.13-5.47.83,1.66-3.05,4.66c1.36.78,2.21,1.76,2.56,2.94.35,1.19.36,2.45.04,3.79-.32,1.34-.82,2.69-1.49,4.04-.68,1.35-1.36,2.57-2.05,3.68l-6.31-1.77c.16-.25-.83-1.66-.83-1.66,0,0,2.31-.81,2.71-1.54.5-.93.78-1.7.83-2.3.06-.6-.21-1.02-.79-1.26-.61-.29-1.29-.16-2.04.39-.75.55-1.35,1.18-1.81,1.87-1.04,1.59-1.58,3.01-1.62,4.27-.04,1.26.01,2.49.16,3.69l.58,4.12c.16,1.42.21,2.88.15,4.37-.06,1.49-.35,3.04-.86,4.66-.52,1.62-1.38,3.35-2.59,5.2-1.15,1.75-2.47,3.23-3.96,4.42-1.49,1.2-3.04,2.01-4.64,2.44-1.6.43-3.16.41-4.69-.06l-3.25,4.96-1.87-.89Z"/>
          <path class="cls-8" d="m110.03,302.23l3.22-4.91c-2.41-1.37-3.59-3.37-3.52-6,.07-2.63,1.44-6.09,4.12-10.37l6.37,1.54c-1.1,1.73-1.9,3.17-2.4,4.32-.5,1.15-.71,2.05-.63,2.69.08.64.38,1.09.92,1.35.69.33,1.34.23,1.96-.3.62-.53,1.16-1.14,1.61-1.83,1.08-1.65,1.71-3.19,1.88-4.6.17-1.41.13-2.94-.11-4.57l-.63-4.27c-.15-1.24-.22-2.48-.2-3.71.02-1.23.25-2.55.69-3.96.44-1.41,1.23-2.98,2.36-4.7,2.06-3.14,4.34-5.28,6.84-6.43,2.5-1.15,4.96-1.3,7.37-.46l3.09-4.71,1.87.89-3.05,4.66c1.36.78,2.21,1.76,2.56,2.94.35,1.19.36,2.45.04,3.79-.32,1.34-.82,2.69-1.49,4.04-.68,1.35-1.36,2.57-2.05,3.68l-6.31-1.77c.76-1.2,1.38-2.27,1.88-3.2.5-.93.78-1.7.83-2.3.06-.6-.21-1.02-.79-1.26-.61-.29-1.29-.16-2.04.39-.75.55-1.35,1.18-1.81,1.87-1.04,1.59-1.58,3.01-1.62,4.27-.04,1.26.01,2.49.16,3.69l.58,4.12c.16,1.42.21,2.88.15,4.37-.06,1.49-.35,3.04-.86,4.66-.52,1.62-1.38,3.35-2.59,5.2-1.15,1.75-2.47,3.23-3.96,4.42-1.49,1.2-3.04,2.01-4.64,2.44-1.6.43-3.16.41-4.69-.06l-3.25,4.96-1.87-.89Z"/>
        </g>
        <g>
          <ellipse class="cls-8" cx="65.02" cy="361.55" rx="34.16" ry="50.99" transform="translate(-207.62 115.35) rotate(-37.72)"/>
          <path class="cls-6" d="m100.3,397.8c-11.81,15.12-37.2,11.14-56.69-8.87-19.49-20.01-25.71-48.5-13.89-63.62,10.46-13.39,31.56-11.8,49.78,2.62,2.36,1.87,4.67,3.95,6.91,6.25,1.28,1.32,2.5,2.66,3.66,4.05,16.56,19.65,21.27,45.44,10.23,59.57Z"/>
          <path class="cls-4" d="m90.08,338.23l-10.13,5.01-11.31-9.54,10.87-5.78c2.36,1.87,4.67,3.95,6.91,6.25,1.28,1.32,2.5,2.66,3.66,4.05Z"/>
          <g>
            <line class="cls-2" x1="54.12" y1="316.7" x2="32.56" y2="326.36"/>
            <line class="cls-2" x1="61.12" y1="318.48" x2="40.49" y2="327.45"/>
            <line class="cls-2" x1="69.95" y1="322.09" x2="48.4" y2="331.75"/>
            <line class="cls-2" x1="105.3" y1="369.6" x2="83.75" y2="379.26"/>
            <line class="cls-2" x1="106.23" y1="378.36" x2="84.68" y2="388.02"/>
            <line class="cls-2" x1="105.14" y1="387.36" x2="83.58" y2="397.02"/>
            <line class="cls-2" x1="79.4" y1="328.16" x2="58.39" y2="337.77"/>
            <line class="cls-2" x1="90.1" y1="338.48" x2="68.54" y2="348.14"/>
          </g>
          <ellipse class="cls-2" cx="65.02" cy="361.55" rx="34.16" ry="50.99" transform="translate(-207.62 115.35) rotate(-37.72)"/>
          <ellipse class="cls-8" cx="60.37" cy="364.96" rx="34.16" ry="50.99" transform="translate(-210.68 113.21) rotate(-37.72)"/>
          <ellipse class="cls-8" cx="60.37" cy="364.96" rx="28.99" ry="43.27" transform="translate(-210.68 113.21) rotate(-37.72)"/>
          <ellipse class="cls-5" cx="60.37" cy="364.96" rx="28.99" ry="43.27" transform="translate(-210.68 113.21) rotate(-37.72)"/>
          <ellipse class="cls-2" cx="60.37" cy="364.96" rx="28.99" ry="43.27" transform="translate(-210.68 113.21) rotate(-37.72)"/>
          <path class="cls-3" d="m44.04,386.44c-16.54-16.99-21.82-41.16-11.79-53.99.32-.41.66-.81,1-1.19-1.02.86-1.97,1.84-2.83,2.94-10.03,12.83-4.75,37,11.79,53.99,16.01,16.44,36.7,20.13,47.1,8.71-10.86,9.21-30.16,5.06-45.28-10.47Z"/>
          <path class="cls-3" d="m83.17,389.4l-2.01.5-2.57-5.2c-2.08,2.3-4.55,3.1-7.4,2.38-2.86-.72-6.3-3.05-10.31-7.01l1.22-6.08,2.01-.5c1.62,1.62,3,2.84,4.13,3.67,1.14.82,2.06,1.27,2.78,1.34.72.07,1.29-.15,1.7-.68.52-.67.57-1.41.14-2.21-.43-.8-.96-1.54-1.61-2.2-1.54-1.58-3.06-2.64-4.56-3.17-1.5-.53-3.18-.86-5.02-.99l-4.81-.35c-1.39-.14-2.76-.36-4.09-.68-1.34-.32-2.72-.89-4.16-1.72-1.44-.83-2.95-2.07-4.56-3.71-2.93-3.01-4.71-6.02-5.36-9.03-.65-3.01-.22-5.73,1.29-8.15l-4.97-5.84,2.01-.5,4.34,4.46c1.18-1.29,2.45-1.98,3.83-2.08,1.38-.09,2.76.2,4.15.87,1.39.67,2.74,1.54,4.05,2.61,1.31,1.06,2.48,2.11,3.51,3.13l-3.47,6.46c-.24-.23-2.01.5-2.01.5,0,0-.32-2.72-1.03-3.33-.9-.77-1.67-1.26-2.31-1.47-.64-.21-1.16-.02-1.56.56-.47.6-.49,1.37-.07,2.32.42.95.96,1.76,1.61,2.42,1.48,1.52,2.9,2.45,4.27,2.8,1.37.35,2.72.59,4.06.72l4.63.36c1.59.17,3.19.47,4.8.89,1.61.43,3.24,1.12,4.88,2.07,1.64.96,3.33,2.32,5.05,4.09,1.63,1.68,2.92,3.48,3.87,5.39.94,1.92,1.46,3.8,1.54,5.65.08,1.85-.32,3.55-1.2,5.1l4.62,4.75-1.43,1.83Z"/>
          <path class="cls-8" d="m81.16,389.9l-4.58-4.7c-2.08,2.3-4.55,3.1-7.4,2.38-2.86-.72-6.3-3.05-10.31-7.01l3.23-6.58c1.62,1.62,3,2.84,4.13,3.67,1.14.82,2.06,1.27,2.78,1.34.72.07,1.29-.15,1.7-.68.52-.67.57-1.41.14-2.21-.43-.8-.96-1.54-1.61-2.2-1.54-1.58-3.06-2.64-4.56-3.17-1.5-.53-3.18-.86-5.02-.99l-4.81-.35c-1.39-.14-2.76-.36-4.09-.68-1.34-.32-2.72-.89-4.16-1.72-1.44-.83-2.95-2.07-4.56-3.71-2.93-3.01-4.71-6.02-5.36-9.03-.65-3.01-.22-5.73,1.29-8.15l-4.39-4.51,1.43-1.83,4.34,4.46c1.18-1.29,2.45-1.98,3.83-2.08,1.38-.09,2.76.2,4.15.87,1.39.67,2.74,1.54,4.05,2.61,1.31,1.06,2.48,2.11,3.51,3.13l-3.47,6.46c-1.13-1.12-2.14-2.06-3.04-2.83-.9-.77-1.67-1.26-2.31-1.47-.64-.21-1.16-.02-1.56.56-.47.6-.49,1.37-.07,2.32.42.95.96,1.76,1.61,2.42,1.48,1.52,2.9,2.45,4.27,2.8,1.37.35,2.72.59,4.06.72l4.63.36c1.59.17,3.19.47,4.8.89,1.61.43,3.24,1.12,4.88,2.07,1.64.95,3.33,2.32,5.05,4.09,1.63,1.68,2.92,3.48,3.87,5.39.94,1.92,1.46,3.8,1.54,5.65.08,1.85-.32,3.55-1.2,5.1l4.62,4.75-1.43,1.83Z"/>
        </g>
        <g>
          <ellipse class="cls-8" cx="120.97" cy="101.82" rx="28.31" ry="42.26" transform="translate(-14.03 19.5) rotate(-8.71)"/>
          <path class="cls-6" d="m131.98,142.27c-14.64,6.21-31.44-6.88-37.52-29.22-6.08-22.34.86-45.49,15.51-51.7,12.97-5.5,27.62,4.13,35.02,21.91.96,2.3,1.8,4.74,2.5,7.31.4,1.47.74,2.94,1.03,4.41,4.11,20.9-2.84,41.49-16.53,47.29Z"/>
          <path class="cls-4" d="m148.51,94.98l-9.36-.44-4.37-11.46,10.2.18c.96,2.3,1.8,4.74,2.5,7.31.4,1.47.74,2.94,1.03,4.41Z"/>
          <g>
            <line class="cls-2" x1="131.1" y1="64.92" x2="111.59" y2="63.26"/>
            <line class="cls-2" x1="135.46" y1="69.03" x2="116.9" y2="67.24"/>
            <line class="cls-2" x1="140.41" y1="75.2" x2="120.9" y2="73.54"/>
            <line class="cls-2" x1="146.94" y1="123.84" x2="127.43" y2="122.18"/>
            <line class="cls-2" x1="144.09" y1="130.57" x2="124.58" y2="128.91"/>
            <line class="cls-2" x1="139.68" y1="136.65" x2="120.17" y2="134.99"/>
            <line class="cls-2" x1="144.82" y1="83.4" x2="125.73" y2="81.92"/>
            <line class="cls-2" x1="148.42" y1="95.18" x2="128.92" y2="93.52"/>
          </g>
          <ellipse class="cls-2" cx="120.97" cy="101.82" rx="28.31" ry="42.26" transform="translate(-14.03 19.5) rotate(-8.71)"/>
          <ellipse class="cls-8" cx="116.23" cy="102.42" rx="28.31" ry="42.26" transform="translate(-14.17 18.79) rotate(-8.71)"/>
          <ellipse class="cls-8" cx="116.23" cy="102.42" rx="24.03" ry="35.86" transform="translate(-14.17 18.79) rotate(-8.71)"/>
          <ellipse class="cls-5" cx="116.23" cy="102.42" rx="24.03" ry="35.86" transform="translate(-14.17 18.79) rotate(-8.71)"/>
          <ellipse class="cls-2" cx="116.23" cy="102.42" rx="24.03" ry="35.86" transform="translate(-14.17 18.79) rotate(-8.71)"/>
          <path class="cls-3" d="m95.76,111.43c-5.16-18.96.73-38.61,13.16-43.87.4-.17.8-.32,1.2-.46-1.09.22-2.17.54-3.23.99-12.43,5.27-18.32,24.91-13.16,43.87,4.99,18.35,18.51,29.34,30.64,25.25-11.57,2.31-23.89-8.45-28.61-25.79Z"/>
          <path class="cls-3" d="m122.94,129.3l-1.66-.44.23-4.8c-2.43.83-4.54.42-6.32-1.25-1.78-1.67-3.34-4.74-4.66-9.22l3.32-3.92,1.66.44c.52,1.83,1.03,3.27,1.52,4.32.49,1.05.99,1.75,1.48,2.09.49.34.99.41,1.5.19.65-.27.98-.79.99-1.54.01-.75-.08-1.5-.28-2.24-.48-1.77-1.16-3.14-2.03-4.13-.88-.99-1.96-1.9-3.24-2.73l-3.35-2.19c-.95-.66-1.85-1.37-2.69-2.14-.84-.77-1.62-1.74-2.32-2.92s-1.31-2.68-1.81-4.52c-.91-3.36-1-6.26-.26-8.7.74-2.44,2.15-4.24,4.21-5.39l-1.26-6.23,1.66.44,1.36,4.98c1.37-.46,2.58-.45,3.61.04,1.04.49,1.92,1.25,2.66,2.3.74,1.05,1.37,2.22,1.89,3.52.52,1.3.95,2.52,1.29,3.68l-5.11,3.29c-.08-.26-1.66-.44-1.66-.44,0,0,.86-2.1.59-2.83-.34-.92-.7-1.58-1.08-1.99-.38-.41-.84-.48-1.36-.22-.58.25-.91.8-.98,1.66-.08.86-.01,1.66.19,2.4.46,1.7,1.12,2.95,1.97,3.75.85.8,1.74,1.52,2.66,2.15l3.21,2.13c1.08.76,2.13,1.62,3.12,2.58,1,.96,1.9,2.11,2.7,3.46.81,1.35,1.48,3.02,2.02,5,.51,1.87.72,3.69.63,5.46-.09,1.77-.47,3.34-1.16,4.72-.69,1.37-1.66,2.45-2.92,3.22l1.44,5.3-1.77.75Z"/>
          <path class="cls-8" d="m121.28,128.85l-1.43-5.25c-2.43.83-4.54.42-6.32-1.25-1.78-1.67-3.34-4.74-4.66-9.22l4.98-3.47c.52,1.83,1.03,3.27,1.52,4.32.49,1.05.99,1.75,1.48,2.09.49.34.99.41,1.5.19.65-.27.98-.79.99-1.54.01-.75-.08-1.5-.28-2.24-.48-1.77-1.16-3.14-2.03-4.13-.88-.99-1.96-1.9-3.24-2.73l-3.35-2.19c-.95-.66-1.85-1.37-2.69-2.14-.84-.77-1.62-1.74-2.32-2.92-.71-1.18-1.31-2.68-1.81-4.52-.91-3.36-1-6.26-.26-8.7.74-2.44,2.15-4.24,4.21-5.39l-1.37-5.03,1.77-.75,1.36,4.98c1.37-.46,2.58-.45,3.61.04,1.04.49,1.92,1.25,2.66,2.3.74,1.05,1.37,2.22,1.89,3.52.52,1.3.95,2.52,1.29,3.68l-5.11,3.29c-.37-1.26-.72-2.35-1.06-3.27-.34-.92-.7-1.58-1.08-1.99-.38-.41-.84-.48-1.36-.22-.58.25-.91.8-.98,1.66-.08.86-.01,1.66.19,2.4.46,1.7,1.12,2.95,1.97,3.75.85.8,1.74,1.52,2.66,2.15l3.21,2.13c1.08.76,2.13,1.62,3.12,2.58,1,.96,1.9,2.11,2.7,3.46.81,1.35,1.48,3.02,2.02,5,.51,1.87.72,3.69.63,5.46-.09,1.77-.47,3.34-1.16,4.72-.69,1.37-1.66,2.45-2.92,3.22l1.44,5.3-1.77.75Z"/>
        </g>
        <g>
          <ellipse class="cls-3" cx="44.01" cy="258.69" rx="27.13" ry="40.49" transform="translate(-57.44 16.69) rotate(-13.09)"/>
          <ellipse class="cls-8" cx="48.5" cy="257.77" rx="27.13" ry="40.49" transform="translate(-57.11 17.68) rotate(-13.09)"/>
          <ellipse class="cls-8" cx="48.5" cy="257.77" rx="23.02" ry="34.36" transform="translate(-57.11 17.68) rotate(-13.09)"/>
          <path class="cls-11" d="m56.63,291.16c7.28-25.21-5.9-51.82-15.64-66.92,3.22-.69,6.57-.33,9.82.96,7.53,2.96,14.57,10.82,18.49,21.82,5.23,14.69,3.25,30.39-4.12,38.73-1.52,1.73-3.28,3.13-5.25,4.15-1.07.55-2.18.98-3.3,1.27Z"/>
          <path class="cls-11" d="m65.18,285.74c5.03-22.52-5.38-45.75-14.37-60.54,7.53,2.96,14.57,10.82,18.49,21.82,5.23,14.69,3.25,30.39-4.12,38.73Z"/>
          <ellipse class="cls-2" cx="48.5" cy="257.77" rx="23.02" ry="34.36" transform="translate(-57.11 17.68) rotate(-13.09)"/>
          <path class="cls-3" d="m67.39,247.67c6.32,17.74,2.12,36.94-9.36,42.88-.37.19-.74.36-1.12.52,1.02-.29,2.03-.67,3.02-1.18,11.49-5.94,15.68-25.14,9.36-42.88-6.11-17.17-19.83-26.68-31.12-21.88,10.89-3.05,23.45,6.33,29.22,22.54Z"/>
          <path class="cls-3" d="m40.12,232.58l1.62.3.13,4.61c2.26-.97,4.31-.73,6.13.73,1.83,1.46,3.53,4.29,5.13,8.47l-2.89,3.98-1.62-.3c-.63-1.71-1.22-3.05-1.77-4.01-.55-.97-1.07-1.6-1.57-1.89-.5-.29-.98-.31-1.45-.07-.6.31-.88.83-.84,1.55.04.72.19,1.43.43,2.12.59,1.65,1.34,2.92,2.25,3.8.91.88,2.01,1.67,3.3,2.37l3.36,1.84c.96.56,1.87,1.18,2.73,1.85.86.67,1.67,1.54,2.43,2.62.76,1.07,1.45,2.47,2.06,4.19,1.12,3.14,1.41,5.9.88,8.29-.53,2.39-1.74,4.21-3.63,5.46l1.66,5.86-1.62-.3-1.66-4.66c-1.28.54-2.43.62-3.45.23-1.03-.39-1.93-1.06-2.71-2-.78-.95-1.47-2.02-2.06-3.22-.59-1.2-1.09-2.34-1.5-3.42l4.64-3.52c.09.25,1.62.3,1.62.3,0,0-.67,2.07-.36,2.75.39.85.79,1.46,1.18,1.82.4.36.83.4,1.31.11.54-.28.81-.83.82-1.66,0-.83-.11-1.59-.36-2.28-.56-1.59-1.28-2.73-2.15-3.43-.87-.7-1.77-1.33-2.7-1.86l-3.22-1.8c-1.09-.65-2.15-1.39-3.17-2.23-1.02-.84-1.97-1.88-2.84-3.11-.87-1.23-1.63-2.77-2.29-4.63-.62-1.75-.96-3.48-1.01-5.17-.05-1.7.21-3.23.76-4.59.55-1.36,1.41-2.46,2.55-3.29l-1.77-4.96,1.64-.85Z"/>
          <path class="cls-8" d="m41.74,232.88l1.75,4.91c2.26-.97,4.31-.73,6.13.73,1.83,1.46,3.53,4.29,5.13,8.47l-4.51,3.68c-.63-1.71-1.22-3.05-1.77-4.01-.55-.97-1.07-1.6-1.57-1.89-.5-.29-.98-.31-1.45-.07-.6.31-.88.83-.84,1.55.04.72.19,1.43.43,2.12.59,1.65,1.34,2.92,2.25,3.8.91.88,2.01,1.67,3.3,2.37l3.36,1.84c.96.56,1.87,1.18,2.73,1.85.86.67,1.67,1.54,2.43,2.62.76,1.07,1.45,2.47,2.06,4.19,1.12,3.14,1.41,5.9.88,8.29-.53,2.39-1.74,4.21-3.63,5.46l1.68,4.71-1.64.85-1.66-4.66c-1.28.54-2.43.62-3.45.23-1.03-.39-1.93-1.06-2.71-2-.78-.95-1.47-2.02-2.06-3.22-.59-1.2-1.09-2.34-1.5-3.42l4.64-3.52c.45,1.18.86,2.19,1.26,3.05.39.85.79,1.46,1.18,1.82.4.36.83.4,1.31.11.54-.28.81-.83.82-1.66,0-.83-.11-1.59-.36-2.28-.56-1.59-1.28-2.73-2.15-3.43-.87-.7-1.77-1.33-2.7-1.86l-3.22-1.8c-1.09-.65-2.15-1.39-3.17-2.23-1.02-.84-1.97-1.88-2.84-3.11-.87-1.23-1.63-2.77-2.29-4.63-.62-1.75-.96-3.48-1.01-5.17-.05-1.7.21-3.23.76-4.59.55-1.36,1.41-2.46,2.55-3.29l-1.77-4.96,1.64-.85Z"/>
        </g>
      </g>
    </g>
  </g>
</svg>