<?xml version="1.0" encoding="UTF-8"?>
<svg id="Capa_2" data-name="Capa 2" xmlns="http://www.w3.org/2000/svg" viewBox="0 0 313.17 214.36">
  <defs>
    <style>
      .cls-1 {
        fill: #029da4;
      }

      .cls-2 {
        fill: #fff;
      }

      .cls-3 {
        fill: #8acdcf;
      }

      .cls-4 {
        fill: #3765ae;
      }
    </style>
  </defs>
  <g id="Capa_1-2" data-name="Capa 1">
    <g>
      <path class="cls-1" d="m71.22,102.4l-9.45-8.85c3.06-4.57,2.57-10.81-1.46-14.85-4.59-4.59-12.04-4.59-16.63,0-4.59,4.59-4.59,12.04,0,16.63,4.04,4.04,10.28,4.52,14.85,1.46l8.89,9.41c1.05,1.05,2.75,1.05,3.8,0,1.05-1.05,1.05-2.75,0-3.8Zm-25.14-9.46c-3.27-3.27-3.27-8.57,0-11.84,3.27-3.27,8.57-3.27,11.84,0s3.27,8.57,0,11.84c-3.27,3.27-8.57,3.27-11.84,0Z"/>
      <g>
        <path class="cls-1" d="m151.99,69.43c1,0,1.82-.91,1.82-2.04h-3.63c0,1.13.81,2.04,1.82,2.04Z"/>
        <polygon class="cls-1" points="147.83 65.64 156.44 63.96 156.44 62.96 147.83 64.64 147.83 65.64"/>
        <polygon class="cls-1" points="147.83 63.84 156.44 62.16 156.44 61.15 147.83 62.83 147.83 63.84"/>
        <path class="cls-1" d="m148.56,60.2c-.41,0-.74.33-.74.74v1.09l8.37-1.63c-.13-.12-.3-.19-.5-.19h-7.14Z"/>
        <path class="cls-1" d="m148.56,66.51h7.14c.41,0,.74-.33.74-.74v-1.01l-8.29,1.62c.12.08.26.13.41.13Z"/>
        <path class="cls-1" d="m151.91,35.91h0c.08,0,.15,0,.23,0,.14,0,.29,0,.44,0l.77-4.15h-2.42l.77,4.15c.07,0,.14,0,.21,0Z"/>
        <path class="cls-1" d="m140.95,37.28l3.13,2.15c.2-.22.41-.43.63-.63l-2.15-3.14h0l-.21-.31-1.71,1.71.31.21h0Z"/>
        <path class="cls-1" d="m141.18,46.86c0-.16,0-.32.01-.47l-4.05-.75v2.42l4.05-.75c0-.15-.01-.3-.01-.44Z"/>
        <path class="cls-1" d="m140.75,56.64l1.71,1.71,2.31-3.37c-.18-.24-.37-.49-.55-.73l-3.48,2.39Z"/>
        <path class="cls-1" d="m163.58,37.07l-1.71-1.71-2.35,3.42c.22.2.44.42.64.64l3.42-2.35Z"/>
        <path class="cls-1" d="m163.08,46.37c0,.16.01.32.01.48,0,.15,0,.3-.01.45l4,.74v-2.42l-4,.74Z"/>
        <path class="cls-1" d="m159.47,55.01l2.29,3.34,1.71-1.71-3.45-2.37c-.18.25-.37.5-.55.74Z"/>
        <path class="cls-1" d="m148.29,56.23c.33.5.38,1.72.35,2.78h2.94v-6.92l-3.67-3.67c-.2-.2-.2-.54,0-.74.2-.2.54-.2.74,0l3.47,3.47,3.47-3.47c.2-.2.54-.2.74,0,.2.2.2.54,0,.74l-3.71,3.71v6.88h2.98c-.03-1.06.02-2.28.35-2.78,1.82-2.74,5.02-5.86,5.02-9.37,0-4.89-3.97-8.86-8.86-8.86s-8.86,3.97-8.86,8.86c0,3.52,3.19,6.63,5.02,9.37Z"/>
      </g>
      <path class="cls-4" d="m186.96,39.33c-.28-1-.6-1.98-.96-2.93l5.04-4.01c-.48-1.11-1-2.19-1.56-3.24l-6.27,1.44c-1.06-1.79-2.27-3.46-3.6-5.01l3.36-5.48c-.82-.87-1.68-1.71-2.58-2.51l-5.4,3.5c-1.6-1.3-3.31-2.46-5.1-3.47l1.28-6.3c-1.07-.54-2.17-1.03-3.28-1.48l-3.88,5.13c-1.94-.68-3.94-1.19-5.98-1.53l-.95-6.36c-1.19-.14-2.38-.23-3.58-.27l-1.89,6.15c-2.03.03-4.09.23-6.14.62l-3.07-5.65c-.58.14-1.16.28-1.74.45-.58.16-1.15.34-1.72.53l.33,6.42c-1.95.74-3.81,1.64-5.56,2.67l-4.82-4.26c-1.01.66-1.98,1.36-2.92,2.1l2.51,5.93c-1.57,1.35-3.01,2.84-4.31,4.42l-5.98-2.36c-.72.96-1.39,1.95-2.03,2.97l4.38,4.71c-1,1.8-1.85,3.68-2.54,5.62l-6.43-.17c-.35,1.15-.64,2.31-.89,3.48l5.73,2.93c-.33,2.02-.49,4.08-.46,6.16l-6.1,2.04c.07,1.19.19,2.38.36,3.58l6.39.79c.19,1,.43,2,.71,3.01.28,1,.6,1.98.96,2.93l-5.04,4.01c.48,1.11,1,2.19,1.56,3.24l6.27-1.44c1.06,1.79,2.27,3.46,3.6,5.01l-3.36,5.48c.82.87,1.68,1.71,2.58,2.51l5.4-3.5c1.6,1.3,3.31,2.46,5.1,3.47l-1.28,6.3c1.07.54,2.17,1.03,3.28,1.48l3.88-5.13c1.94.68,3.94,1.19,5.98,1.53l.95,6.36c1.19.14,2.38.23,3.58.27l1.89-6.15c2.03-.03,4.09-.23,6.14-.62l3.07,5.65c.58-.14,1.16-.28,1.74-.45s1.15-.34,1.72-.53l-.33-6.42c1.95-.74,3.81-1.64,5.56-2.67l4.82,4.26c1.01-.66,1.98-1.36,2.92-2.1l-2.51-5.93c1.57-1.35,3.01-2.84,4.31-4.42l5.98,2.36c.72-.96,1.39-1.95,2.03-2.97l-4.38-4.71c1-1.8,1.85-3.68,2.54-5.62l6.43.17c.35-1.15.64-2.31.89-3.48l-5.73-2.93c.33-2.02.49-4.08.46-6.16l6.1-2.04c-.07-1.19-.19-2.38-.36-3.58l-6.39-.79c-.19-1-.43-2-.71-3.01Zm-27.59,35.55c-14.22,4-29-4.28-33-18.51-4-14.22,4.28-29,18.51-33,14.22-4,29,4.28,33,18.51,4,14.22-4.28,29-18.51,33Z"/>
      <g>
        <path class="cls-2" d="m146.52,14.22c2.05-.39,4.11-.59,6.14-.62l1.89-6.15c.88.03,1.75.09,2.62.18l-.09-.57c-1.19-.14-2.38-.23-3.58-.27l-1.89,6.15c-1.83.03-3.67.2-5.51.52l.42.77Z"/>
        <path class="cls-2" d="m188.6,42.45c.04.18.08.36.12.55l5.41.67c-.02-.18-.04-.36-.07-.54l-5.46-.68Z"/>
        <path class="cls-2" d="m184.26,31.25l5.63-1.29c-.14-.27-.27-.54-.41-.81l-5.71,1.31c.17.26.33.52.49.79Z"/>
        <path class="cls-2" d="m159.09,14.08c2.04.34,4.04.85,5.98,1.53l3.88-5.13c.74.3,1.48.63,2.2.97l.03-.15c-1.07-.54-2.17-1.03-3.28-1.48l-3.88,5.13c-1.63-.57-3.3-1.01-5-1.34l.07.48Z"/>
        <path class="cls-2" d="m176.04,21.74l5.2-3.37c-.28-.27-.56-.53-.85-.79l-5.29,3.43c.32.24.63.48.94.73Z"/>
        <path class="cls-2" d="m171.94,18.85c-.33-.21-.66-.43-.99-.63v.04c.33.19.66.39.99.59Z"/>
        <path class="cls-2" d="m188.91,55.56l4.65,2.38s.02-.08.03-.11l-4.66-2.38s-.01.08-.02.12Z"/>
        <path class="cls-2" d="m130.21,77.91c1.02.77,2.07,1.49,3.16,2.15-1.05-.69-2.08-1.43-3.05-2.22l-.11.07Z"/>
        <path class="cls-2" d="m178.93,42.54c-1.92-6.84-6.34-12.3-11.99-15.69,5.14,3.42,9.14,8.61,10.94,15.02,4,14.22-4.28,29-18.51,33-7.38,2.08-14.91.84-21.01-2.82,6.27,4.17,14.24,5.68,22.06,3.48,14.22-4,22.51-18.77,18.51-33Z"/>
        <path class="cls-2" d="m159.84,85.35c-.21.04-.42.07-.63.1l2.65,4.88c.2-.05.4-.1.6-.16l-2.62-4.83Z"/>
        <path class="cls-2" d="m147.27,85.49c-.33-.05-.65-.12-.98-.18l.88,5.89c.32.04.64.06.96.09l-.87-5.79Z"/>
        <path class="cls-2" d="m171.61,80.94c-.06.04-.12.07-.18.1l3.95,3.5c.06-.04.11-.08.17-.12l-3.94-3.49Z"/>
        <path class="cls-2" d="m135.42,81.31c-.36-.2-.71-.41-1.05-.62l-1.27,6.26c.36.18.72.35,1.08.51l1.25-6.15Z"/>
        <path class="cls-2" d="m122.34,78.83l3.36-5.48c-1.33-1.55-2.54-3.23-3.6-5.01l-.55.13c.94,1.49,1.98,2.9,3.11,4.22l-3.36,5.48c.82.87,1.68,1.71,2.58,2.51l.2-.13c-.59-.56-1.17-1.13-1.73-1.72Z"/>
        <path class="cls-2" d="m112.62,37.6l6.43.17c.69-1.95,1.54-3.83,2.54-5.62l-4.38-4.71c.63-1.02,1.31-2.01,2.03-2.97l5.98,2.36c1.3-1.59,2.74-3.07,4.31-4.42l-2.51-5.93c.89-.7,1.8-1.36,2.75-1.98l-.88-.78c-1.01.66-1.98,1.36-2.92,2.1l2.51,5.93c-1.57,1.35-3.01,2.84-4.31,4.42l-5.98-2.36c-.72.96-1.39,1.95-2.03,2.97l4.38,4.71c-1,1.8-1.85,3.68-2.54,5.62l-6.43-.17c-.35,1.15-.64,2.31-.89,3.48l1.07.55c.24-1.14.53-2.26.86-3.37Z"/>
        <path class="cls-2" d="m110.89,52.21l6.1-2.04c-.02-2.08.13-4.14.46-6.16l-1.06-.54c-.31,1.98-.47,4-.45,6.04l-6.1,2.04c.07,1.19.19,2.38.36,3.58l.98.12c-.13-1.01-.24-2.03-.29-3.04Z"/>
        <path class="cls-2" d="m134.75,18.64c1.75-1.03,3.61-1.93,5.56-2.67l-.33-6.42c.57-.19,1.14-.36,1.72-.53.38-.11.76-.2,1.14-.29l-.44-.82c-.58.14-1.16.28-1.74.45-.58.16-1.15.34-1.72.53l.33,6.42c-1.89.72-3.68,1.58-5.38,2.57l.86.76Z"/>
        <path class="cls-2" d="m114.27,66.53l5.04-4.01c-.36-.96-.68-1.93-.96-2.93-.28-1-.52-2-.71-3.01l-.93-.12c.17.82.36,1.64.59,2.46.28,1,.6,1.98.96,2.93l-5.04,4.01c.48,1.11,1,2.19,1.56,3.24l.64-.15c-.4-.8-.79-1.6-1.15-2.43Z"/>
      </g>
      <g>
        <path class="cls-4" d="m260.58,94.71c.41,1.57.59,3.23.47,4.94-.58,8.4-7.86,14.74-16.26,14.16-8.4-.58-14.74-7.86-14.16-16.26s7.86-14.74,16.26-14.16c3.51.24,6.66,1.66,9.1,3.83l3.21-2.77c-3.16-2.99-7.34-4.94-12.02-5.26-10.72-.74-20.01,7.35-20.75,18.07-.74,10.72,7.35,20.01,18.07,20.75,10.72.74,20.01-7.35,20.75-18.07.2-2.89-.25-5.67-1.21-8.21l-3.46,2.98Z"/>
        <polygon class="cls-4" points="243.83 105.67 237.77 96.41 240.63 94.54 244.55 100.54 265.79 82.24 268.02 84.83 243.83 105.67"/>
      </g>
      <path class="cls-1" d="m295.7,88.39c-.28-1.42-.62-2.8-1.01-4.17l7.41-4.99c-.54-1.59-1.14-3.14-1.8-4.66l-8.83,1.31c-1.28-2.59-2.77-5.04-4.44-7.33l5.25-7.22c-1.05-1.3-2.14-2.55-3.29-3.75l-7.86,4.25c-2.07-1.98-4.31-3.77-6.68-5.37l2.46-8.58c-1.42-.86-2.88-1.67-4.38-2.41l-5.93,6.68c-2.61-1.15-5.32-2.08-8.11-2.77l-.62-8.91c-1.63-.32-3.27-.58-4.93-.77l-3.29,8.31c-2.82-.18-5.68-.12-8.57.19l-3.63-8.16c-.82.13-1.64.27-2.46.43s-1.63.35-2.44.54l-.25,8.92c-2.79.81-5.46,1.85-7.99,3.09l-6.2-6.43c-1.47.8-2.89,1.67-4.27,2.59l2.82,8.47c-2.32,1.7-4.47,3.6-6.44,5.65l-8.02-3.92c-1.1,1.25-2.14,2.55-3.13,3.89l5.55,7c-1.58,2.38-2.97,4.89-4.13,7.5l-8.88-.94c-.6,1.55-1.14,3.12-1.61,4.72l7.61,4.68c-.67,2.76-1.12,5.59-1.31,8.47l-8.66,2.16c-.03,1.65,0,3.32.11,4.99l8.75,1.79c.16,1.41.37,2.82.65,4.24.28,1.42.62,2.8,1.01,4.17l-7.41,4.99c.54,1.59,1.14,3.14,1.8,4.66l8.83-1.31c1.28,2.59,2.77,5.04,4.44,7.33l-5.25,7.22c1.05,1.3,2.14,2.55,3.29,3.75l7.86-4.25c2.07,1.98,4.31,3.77,6.68,5.37l-2.46,8.58c1.42.86,2.88,1.67,4.38,2.41l5.93-6.68c2.61,1.15,5.32,2.08,8.11,2.77l.62,8.91c1.63.32,3.27.58,4.93.77l3.29-8.31c2.82.18,5.68.12,8.57-.19l3.63,8.16c.82-.13,1.64-.27,2.46-.43.82-.16,1.63-.35,2.44-.54l.25-8.92c2.79-.81,5.46-1.85,7.99-3.09l6.2,6.43c1.47-.8,2.89-1.67,4.27-2.59l-2.82-8.47c2.32-1.7,4.47-3.6,6.44-5.65l8.02,3.92c1.1-1.25,2.14-2.55,3.13-3.89l-5.55-7c1.58-2.38,2.97-4.89,4.13-7.5l8.88.94c.6-1.55,1.14-3.12,1.61-4.72l-7.61-4.68c.67-2.76,1.12-5.59,1.31-8.47l8.66-2.16c.03-1.65,0-3.32-.11-4.99l-8.75-1.79c-.16-1.41-.37-2.82-.65-4.24Zm-42.07,46.19c-20.12,3.98-39.66-9.1-43.64-29.22-3.98-20.12,9.1-39.66,29.22-43.64,20.12-3.98,39.66,9.1,43.64,29.22,3.98,20.12-9.1,39.66-29.22,43.64Z"/>
      <g>
        <path class="cls-2" d="m275.56,57.73c2.37,1.59,4.6,3.39,6.68,5.37l7.86-4.25c.41.43.8.87,1.2,1.31-.75-.88-1.51-1.75-2.3-2.58l-7.86,4.25c-1.71-1.63-3.54-3.13-5.46-4.51l-.12.41Z"/>
        <path class="cls-2" d="m296.34,111.31l6.35,3.9c.05-.16.11-.33.16-.49l-6.39-3.93c-.04.17-.07.35-.12.52Z"/>
        <path class="cls-2" d="m259.61,50.65c2.79.69,5.5,1.62,8.11,2.77l5.93-6.68c1.06.53,2.09,1.09,3.12,1.68l.16-.54c-1.42-.86-2.88-1.67-4.38-2.41l-5.93,6.68c-2.28-1-4.65-1.83-7.07-2.49l.07.99Z"/>
        <path class="cls-2" d="m292.57,77.15l8.28-1.22c-.18-.45-.36-.9-.56-1.35l-8.42,1.24c.23.44.47.88.69,1.33Z"/>
        <path class="cls-2" d="m242.21,49.47c2.89-.31,5.75-.37,8.57-.19l3.29-8.31c1.31.15,2.61.35,3.9.58l-.08-1.09c-1.63-.32-3.27-.58-4.93-.77l-3.29,8.31c-2.65-.17-5.34-.12-8.05.14l.58,1.31Z"/>
        <path class="cls-2" d="m283.96,92.2c-1.36-6.87-4.53-12.91-8.92-17.74,3.82,4.6,6.58,10.2,7.82,16.47,3.98,20.12-9.1,39.66-29.22,43.64-13.25,2.62-26.25-2.16-34.72-11.48,8.42,10.15,21.98,15.49,35.83,12.75,20.12-3.98,33.2-23.52,29.22-43.64Z"/>
        <path class="cls-2" d="m297.46,93.9l7.69,1.58c-.02-.35-.02-.7-.05-1.05l-7.79-1.6c.05.36.1.71.14,1.07Z"/>
        <path class="cls-2" d="m235.45,148.18c-.35-.09-.69-.19-1.04-.28l.55,7.92c.34.07.69.12,1.03.18l-.54-7.83Z"/>
        <path class="cls-2" d="m219.5,141.1c-.41-.28-.82-.57-1.22-.86l-2.35,8.17c.41.25.84.49,1.26.73l2.31-8.04Z"/>
        <path class="cls-2" d="m252.86,149.36c-.17.02-.35.03-.52.04l3.04,6.84c.17-.03.33-.06.5-.09l-3.03-6.8Z"/>
        <path class="cls-2" d="m201.68,136.23l5.25-7.22c-1.67-2.29-3.16-4.74-4.44-7.33l-.41.06c1.12,2.1,2.36,4.11,3.75,6l-5.25,7.22c.67.84,1.38,1.65,2.09,2.44-.33-.39-.67-.78-.99-1.18Z"/>
        <path class="cls-2" d="m192.73,78.12l8.88.94c1.16-2.62,2.55-5.13,4.13-7.5l-5.55-7c.99-1.34,2.03-2.64,3.13-3.89l8.02,3.92c1.97-2.05,4.13-3.95,6.44-5.65l-2.82-8.47c1.38-.92,2.8-1.78,4.27-2.59l6.2,6.43c2.54-1.24,5.21-2.28,7.99-3.09l.25-8.92c.81-.19,1.62-.38,2.44-.54.65-.13,1.31-.24,1.96-.34l-.6-1.36c-.82.13-1.64.27-2.46.43s-1.63.35-2.44.54l-.25,8.92c-2.79.81-5.46,1.85-7.99,3.09l-6.2-6.43c-1.47.8-2.89,1.67-4.27,2.59l2.82,8.47c-2.32,1.7-4.47,3.6-6.44,5.65l-8.02-3.92c-1.1,1.25-2.14,2.55-3.13,3.89l5.55,7c-1.58,2.38-2.97,4.89-4.13,7.5l-8.88-.94c-.6,1.55-1.14,3.12-1.61,4.72l1.26.78c.44-1.43.91-2.84,1.46-4.23Z"/>
        <path class="cls-2" d="m188.74,98.15l8.66-2.16c.2-2.88.64-5.71,1.31-8.47l-1.22-.75c-.61,2.59-1.01,5.25-1.2,7.95l-8.66,2.16c-.03,1.65,0,3.32.11,4.99l1.06.22c-.06-1.32-.09-2.63-.06-3.94Z"/>
        <path class="cls-2" d="m191.86,118.33l7.41-4.99c-.39-1.36-.73-2.75-1.01-4.17-.28-1.42-.49-2.83-.65-4.24l-.96-.2c.14,1.05.3,2.11.51,3.17.28,1.42.62,2.8,1.01,4.17l-7.41,4.99c.54,1.59,1.14,3.14,1.8,4.66l.55-.08c-.44-1.09-.87-2.18-1.25-3.31Z"/>
      </g>
      <path class="cls-1" d="m87.93,158.82c-.02-.55-.06-1.11-.12-1.67s-.14-1.11-.25-1.66l-3.72-.79c-.36-1.34-.86-2.62-1.49-3.82l2.2-3.1c-.6-.95-1.26-1.85-1.98-2.69l-3.62,1.18c-.97-.97-2.04-1.82-3.2-2.56l.36-3.79c-.98-.52-2-.97-3.06-1.35l-2.54,2.83c-1.31-.35-2.66-.56-4.06-.62l-1.58-3.46c-.55.02-1.11.06-1.67.12s-1.11.14-1.66.25l-.79,3.72c-1.34.36-2.62.86-3.82,1.49l-3.1-2.2c-.95.6-1.85,1.26-2.69,1.98l1.18,3.62c-.97.97-1.82,2.04-2.56,3.2l-3.79-.36c-.52.98-.97,2-1.35,3.06l2.83,2.54c-.35,1.31-.56,2.66-.62,4.06l-3.46,1.58c.02.55.06,1.11.12,1.67s.14,1.11.25,1.66l3.72.79c.36,1.34.86,2.62,1.49,3.82l-2.2,3.1c.6.95,1.26,1.85,1.98,2.69l3.62-1.18c.97.97,2.04,1.82,3.2,2.56l-.36,3.79c.98.52,2,.97,3.06,1.35l2.54-2.83c1.31.35,2.66.56,4.06.62l1.58,3.46c.55-.02,1.11-.06,1.67-.12s1.11-.14,1.66-.25l.79-3.72c1.34-.36,2.62-.86,3.82-1.49l3.1,2.2c.95-.6,1.85-1.26,2.69-1.98l-1.18-3.62c.97-.97,1.82-2.04,2.56-3.2l3.79.36c.52-.98.97-2,1.35-3.06l-2.83-2.54c.35-1.31.56-2.66.62-4.06l3.46-1.58Zm-20.86,13.46c-7,.78-13.3-4.27-14.08-11.27-.78-7,4.27-13.3,11.27-14.08s13.3,4.27,14.08,11.27c.78,7-4.27,13.3-11.27,14.08Z"/>
      <path class="cls-4" d="m95.85,91.44c0-1.15-.05-2.29-.15-3.42l6.57-2.76c-.17-1.33-.41-2.64-.69-3.92l-7.12-.35c-.6-2.23-1.38-4.37-2.34-6.43l5.23-4.84c-.62-1.18-1.28-2.33-1.99-3.45l-6.81,2.11c-1.32-1.87-2.79-3.62-4.4-5.23l3.26-6.34c-.98-.9-2-1.75-3.05-2.56l-5.67,4.31c-1.86-1.3-3.84-2.45-5.92-3.42l.9-7.07c-1.22-.51-2.47-.96-3.74-1.36l-3.86,5.99c-2.18-.58-4.43-.98-6.74-1.18l-1.58-6.95c-.66-.03-1.33-.05-1.99-.05s-1.33.02-1.99.05l-1.58,6.95c-2.31.2-4.56.6-6.74,1.18l-3.86-5.99c-1.27.4-2.52.86-3.74,1.36l.9,7.07c-2.08.97-4.06,2.12-5.92,3.42l-5.67-4.31c-1.05.81-2.07,1.67-3.05,2.56l3.26,6.34c-1.61,1.61-3.08,3.37-4.4,5.23l-6.81-2.11c-.71,1.12-1.38,2.27-1.99,3.45l5.23,4.84c-.95,2.05-1.74,4.2-2.34,6.43l-7.12.35c-.28,1.29-.51,2.6-.69,3.92l6.57,2.76c-.1,1.13-.15,2.27-.15,3.42s.05,2.29.15,3.42l-6.57,2.76c.17,1.33.41,2.64.69,3.92l7.12.35c.6,2.23,1.38,4.37,2.34,6.43l-5.23,4.84c.62,1.18,1.28,2.33,1.99,3.45l6.81-2.11c1.32,1.87,2.79,3.62,4.4,5.23l-3.26,6.34c.98.9,2,1.75,3.05,2.56l5.67-4.31c1.86,1.3,3.84,2.45,5.92,3.42l-.9,7.07c1.22.51,2.47.96,3.74,1.36l3.86-5.99c2.18.58,4.43.98,6.74,1.18l1.58,6.95c.66.03,1.33.05,1.99.05s1.33-.02,1.99-.05l1.58-6.95c2.31-.2,4.56-.6,6.74-1.18l3.86,5.99c1.27-.4,2.52-.86,3.74-1.36l-.9-7.07c2.08-.97,4.06-2.12,5.92-3.42l5.67,4.31c1.05-.81,2.07-1.67,3.05-2.56l-3.26-6.34c1.61-1.61,3.08-3.37,4.4-5.23l6.81,2.11c.71-1.12,1.38-2.27,1.99-3.45l-5.23-4.84c.95-2.05,1.74-4.2,2.34-6.43l7.12-.35c.28-1.29.51-2.6.69-3.92l-6.57-2.76c.1-1.13.15-2.27.15-3.42Zm-40.09,29.64c-16.37,0-29.64-13.27-29.64-29.64s13.27-29.64,29.64-29.64,29.64,13.27,29.64,29.64-13.27,29.64-29.64,29.64Z"/>
      <path class="cls-2" d="m46.64,53.88c2.18-.58,4.43-.98,6.74-1.18l1.58-6.95c.66-.03,1.33-.05,1.99-.05.36,0,.71.02,1.07.02l-.26-1.17c-.66-.03-1.33-.05-1.99-.05s-1.33.02-1.99.05l-1.58,6.95c-2.18.19-4.31.56-6.37,1.09l.82,1.28Z"/>
      <path class="cls-2" d="m73.96,56.32c2.08.97,4.06,2.12,5.92,3.42l5.67-4.31c.62.48,1.22.97,1.81,1.48l.05-.1c-.98-.9-2-1.75-3.05-2.56l-5.67,4.31c-1.48-1.04-3.04-1.97-4.66-2.8l-.07.56Z"/>
      <path class="cls-2" d="m60.52,52.7c2.31.2,4.56.6,6.74,1.18l3.86-5.99c.83.26,1.65.56,2.47.87l.09-.69c-1.22-.51-2.47-.96-3.74-1.36l-3.86,5.99c-1.88-.5-3.82-.85-5.79-1.08l.25,1.09Z"/>
      <path class="cls-2" d="m89.74,69.57l6.42-1.99c-.26-.44-.52-.88-.8-1.31l-6.55,2.03c.32.42.63.84.93,1.27Z"/>
      <path class="cls-2" d="m86.59,92.62c0-8.49-3.57-16.14-9.29-21.54,5.02,5.31,8.1,12.47,8.1,20.35,0,16.37-13.27,29.64-29.64,29.64-7.88,0-15.04-3.08-20.35-8.1,5.4,5.72,13.05,9.29,21.54,9.29,16.37,0,29.64-13.27,29.64-29.64Z"/>
      <g>
        <path class="cls-4" d="m131.66,157c-.26,0-.52-.08-.73-.23l-.15-.11c-.28-.2-.46-.49-.52-.83-.06-.34.02-.68.21-.95l1.71-2.43c.24-.34.63-.54,1.05-.54.26,0,.52.08.73.23l.15.11c.58.41.72,1.2.31,1.78l-1.71,2.44c-.24.34-.63.54-1.05.54h0Z"/>
        <path class="cls-4" d="m131.65,132.89l-4.7-1.84c-.42-.16-.88.04-1.05.46l-6.4,16.4c-.16.42.04.89.46,1.05l4.7,1.84c.42.16.89-.04,1.05-.46l6.4-16.4c.16-.42-.04-.89-.46-1.05Zm-8,14.74c-.89,0-1.62-.72-1.62-1.62s.72-1.62,1.62-1.62,1.62.72,1.62,1.62-.72,1.62-1.62,1.62Z"/>
        <path class="cls-4" d="m172.83,146.92l-6.4-16.4c-.16-.42-.63-.62-1.05-.46l-4.7,1.84c-.42.16-.62.63-.46,1.05l6.4,16.4c.16.42.63.62,1.05.46l4.7-1.84c.42-.16.62-.63.46-1.05Zm-4.16-.28c-.89,0-1.62-.72-1.62-1.62s.72-1.62,1.62-1.62,1.62.72,1.62,1.62-.72,1.62-1.62,1.62Z"/>
        <path class="cls-4" d="m134.73,159.89c-.31,0-.6-.09-.86-.27-.32-.23-.54-.57-.61-.97-.07-.39.02-.79.25-1.12l2.22-3.15c.28-.4.74-.63,1.23-.63.31,0,.6.09.86.27.67.47.84,1.41.36,2.08l-2.22,3.15c-.28.4-.74.63-1.23.63h0Z"/>
        <path class="cls-4" d="m163.7,149.74c-.61-.2-3.19-2.13-5.27-3.69-1.36-1.02-2.77-2.07-3.98-2.93-3.04-2.15-6.29-3.77-7.56-3.77-.03,0-.06,0-.09,0-.49.03-1.08.41-1.9.93-1.19.76-2.81,1.8-4.84,2.14-.41.07-.8.1-1.17.1h0c-1.21,0-2.15-.38-2.57-1.04-.28-.43-.3-.95-.07-1.46.7-1.49,6.98-6.99,9.38-7.25.1-.01.2-.02.32-.02,1.7,0,5.03,1.12,7.23,1.87,1.48.5,2.27.76,2.59.76.01,0,.05,0,.06,0,.3-.03,1.48-.33,3.5-.87l5.54,14.18c-.35.3-.74.65-1.16,1.04Z"/>
        <path class="cls-4" d="m141.74,164.15c-.26,0-.52-.08-.73-.23-.57-.4-.71-1.2-.31-1.78l1.5-2.13c.24-.34.63-.54,1.05-.54.26,0,.52.08.73.23.57.4.71,1.2.31,1.78l-1.5,2.13c-.24.34-.63.54-1.05.54h0Z"/>
        <path class="cls-4" d="m149.12,165.17c-.46,0-.91-.16-1.26-.44l-2.81-2.23.22-.32c.79-1.12.52-2.67-.6-3.45-.42-.29-.91-.45-1.42-.45-.19,0-.37.02-.55.06,0-.18,0-.37-.04-.55-.12-.71-.52-1.34-1.11-1.75-.46-.32-.99-.49-1.55-.49-.12,0-.25,0-.37.03.03-.26.03-.53-.02-.79-.12-.71-.51-1.33-1.1-1.74-.46-.32-.99-.49-1.55-.49-.4,0-.79.09-1.15.26-.12-.63-.48-1.18-1-1.55l-.15-.11c-.42-.3-.91-.45-1.42-.45-.81,0-1.57.39-2.03,1.05l-.83,1.19c-.88-1.1-1.93-2.62-2.7-3.77l5.39-13.81c1.52.61,2.52.94,2.97.99.09,0,.18.01.28.01.41,0,.95-.07,1.53-.14.01,0,.02,0,.03,0-1.43,1.3-2.57,2.6-2.9,3.3-.41.87-.35,2.02.15,2.79.65,1.02,1.95,1.6,3.58,1.6.43,0,.89-.04,1.37-.12,2.3-.39,4.2-1.48,5.44-2.27.6-.38,1.23-.62,1.44-.63.84,0,3.82,1.21,6.73,3.61,2.96,2.44,10.84,7.58,10.92,7.63.84.66,1.09,1.84.57,2.73-.38.64-1.05,1.03-1.8,1.03h0c-.47,0-.91-.15-1.28-.44,0,0-5.27-4.13-6.54-5.14-.12-.09-.27-.15-.42-.15-.19,0-.37.08-.5.22-.13.14-.2.33-.19.52.01.19.11.36.25.48l6.07,4.85c.85.68,1.09,1.86.56,2.75-.38.63-1.05,1.01-1.79,1.01-.48,0-.92-.16-1.29-.45,0,0-5.27-4.21-6.49-5.2-.12-.09-.26-.15-.42-.15-.18,0-.34.07-.47.19-.14.14-.21.32-.2.51,0,.19.09.36.24.48l5.4,4.51c.45.38.72.93.74,1.52.02.6-.2,1.15-.62,1.57-.37.36-.87.56-1.42.56s-1.04-.19-1.45-.53l-5.72-4.78c-.12-.1-.27-.16-.43-.16-.18,0-.35.07-.47.2-.14.14-.21.33-.2.52.01.19.1.37.25.49l3.3,2.62c.41.33.66.81.7,1.34.03.53-.15,1.04-.52,1.42-.34.34-.8.53-1.3.53Z"/>
        <path class="cls-4" d="m138.27,162.2c-.31,0-.61-.09-.86-.27-.68-.48-.84-1.42-.36-2.1l1.72-2.44c.28-.4.74-.64,1.23-.64.31,0,.61.09.86.27.68.48.84,1.42.36,2.1l-1.72,2.44c-.28.4-.74.64-1.23.64h0Z"/>
      </g>
      <path class="cls-3" d="m194.79,137.33c-.23-1.39-.53-2.76-.87-4.11l7.39-4.67c-.48-1.57-1.02-3.11-1.63-4.61l-8.68,1.02c-1.18-2.57-2.56-5.01-4.13-7.3l5.35-6.92c-.99-1.3-2.02-2.56-3.11-3.77l-7.81,3.93c-1.97-1.99-4.11-3.82-6.38-5.44l2.66-8.33c-1.37-.89-2.77-1.71-4.21-2.48l-5.99,6.36c-2.52-1.2-5.15-2.18-7.86-2.94l-.35-8.74c-1.58-.36-3.18-.66-4.8-.89l-3.46,8.03c-2.75-.26-5.56-.28-8.39-.06l-3.32-8.09c-.81.1-1.61.21-2.42.35-.81.14-1.61.29-2.4.46l-.5,8.72c-2.75.71-5.39,1.65-7.91,2.79l-5.88-6.47c-1.46.74-2.87,1.55-4.25,2.41l2.52,8.37c-2.32,1.6-4.48,3.39-6.47,5.34l-7.74-4.06c-1.11,1.2-2.17,2.44-3.18,3.72l5.23,7.01c-1.62,2.28-3.04,4.7-4.26,7.22l-8.67-1.17c-.63,1.5-1.21,3.02-1.71,4.58l7.31,4.8c-.74,2.68-1.25,5.44-1.53,8.25l-8.54,1.86c-.08,1.62-.1,3.25-.04,4.89l8.51,2.01c.11,1.38.28,2.77.52,4.16.23,1.39.53,2.76.87,4.11l-7.39,4.67c.48,1.57,1.02,3.11,1.63,4.61l8.68-1.02c1.18,2.57,2.56,5.01,4.13,7.3l-5.35,6.92c.99,1.3,2.02,2.56,3.11,3.77l7.81-3.93c1.97,1.99,4.11,3.82,6.38,5.44l-2.66,8.33c1.37.89,2.77,1.71,4.21,2.48l5.99-6.36c2.52,1.2,5.15,2.18,7.86,2.94l.35,8.74c1.58.36,3.18.66,4.8.89l3.46-8.03c2.75.26,5.56.28,8.39.06l3.32,8.09c.81-.1,1.61-.21,2.42-.35s1.61-.29,2.4-.46l.5-8.72c2.75-.71,5.39-1.65,7.91-2.79l5.88,6.47c1.46-.74,2.87-1.55,4.25-2.41l-2.52-8.37c2.32-1.6,4.48-3.39,6.47-5.34l7.74,4.06c1.11-1.2,2.17-2.44,3.18-3.72l-5.23-7.01c1.62-2.28,3.04-4.7,4.26-7.22l8.67,1.17c.63-1.5,1.21-3.02,1.71-4.58l-7.31-4.8c.74-2.68,1.25-5.44,1.53-8.25l8.54-1.86c.08-1.62.1-3.25.04-4.89l-8.51-2.01c-.11-1.38-.28-2.77-.52-4.16Zm-42.5,43.98c-19.81,3.32-38.55-10.05-41.87-29.86-3.32-19.81,10.05-38.55,29.86-41.87,19.81-3.32,38.55,10.05,41.87,29.86,3.32,19.81-10.05,38.55-29.86,41.87Z"/>
      <path class="cls-2" d="m176.08,106.63c2.27,1.63,4.41,3.45,6.38,5.44l7.7-3.88c-.35-.41-.69-.82-1.05-1.22l-7.81,3.93c-1.61-1.63-3.33-3.13-5.14-4.51l-.08.24Z"/>
      <path class="cls-2" d="m160.68,99.24c2.71.76,5.34,1.75,7.86,2.94l5.99-6.36c1,.53,1.97,1.1,2.93,1.69l.12-.37c-1.37-.89-2.77-1.71-4.21-2.48l-5.99,6.36c-2.17-1.03-4.41-1.89-6.72-2.6l.03.82Z"/>
      <path class="cls-2" d="m143.68,97.59c2.83-.22,5.64-.2,8.39.06l3.46-8.03c1.24.18,2.46.4,3.68.66l-.04-.93c-1.58-.36-3.18-.66-4.8-.89l-3.46,8.03c-2.53-.24-5.11-.27-7.72-.1l.49,1.2Z"/>
      <path class="cls-2" d="m183.31,140.61c-1.35-8.06-5.26-15.06-10.75-20.29,4.88,5.09,8.33,11.65,9.59,19.13,3.32,19.81-10.05,38.55-29.86,41.87-11.74,1.97-23.11-1.93-31.12-9.56,8.04,8.39,19.95,12.79,32.28,10.73,19.81-3.32,33.17-22.06,29.86-41.87Z"/>
      <path class="cls-2" d="m196.47,142.66l7.36,1.74c0-.3,0-.59-.01-.89l-7.44-1.76c.03.3.07.61.09.91Z"/>
      <path class="cls-2" d="m194.88,159.67l6.03,3.96c.04-.11.08-.22.11-.33l-6.06-3.98c-.03.11-.06.23-.09.34Z"/>
      <path class="cls-2" d="m127.13,101.82c2.52-1.14,5.16-2.08,7.91-2.79l.5-8.72c.79-.17,1.59-.32,2.4-.46.59-.1,1.18-.18,1.77-.26l-.52-1.26c-.81.1-1.61.21-2.42.35-.81.14-1.61.29-2.4.46l-.5,8.72c-2.72.71-5.34,1.63-7.83,2.76l1.09,1.2Z"/>
      <path class="cls-2" d="m192.17,126.13l7.99-.94c-.16-.42-.31-.84-.47-1.25l-8.11.96c.2.41.41.82.6,1.23Z"/>
      <path class="cls-2" d="m151.22,195.65c-.22.02-.45.02-.67.04l2.82,6.88c.22-.03.43-.06.65-.09l-2.8-6.83Z"/>
      <path class="cls-2" d="m134.23,193.99c-.38-.11-.75-.23-1.13-.34l.32,7.92c.37.09.75.16,1.13.23l-.31-7.81Z"/>
      <path class="cls-2" d="m94.44,124.19l8.67,1.17c1.21-2.53,2.64-4.94,4.26-7.22l-5.23-7.01c1-1.28,2.06-2.52,3.18-3.72l7.74,4.06c1.99-1.95,4.15-3.74,6.47-5.34l-2.52-8.37c1.35-.84,2.75-1.64,4.18-2.37l-1.09-1.2c-1.46.74-2.87,1.55-4.25,2.41l2.52,8.37c-2.32,1.6-4.48,3.39-6.47,5.34l-7.74-4.06c-1.11,1.2-2.17,2.44-3.18,3.72l5.23,7.01c-1.62,2.28-3.04,4.7-4.26,7.22l-8.67-1.17c-.63,1.5-1.21,3.02-1.71,4.58l1.28.84c.48-1.44,1.01-2.86,1.6-4.25Z"/>
      <path class="cls-2" d="m118.82,186.6c-.42-.3-.83-.61-1.24-.93l-2.58,8.09c.42.27.85.53,1.28.79l2.54-7.96Z"/>
      <path class="cls-2" d="m167.77,191.41s-.05.02-.08.03l4.8,5.27s.05-.03.07-.04l-4.79-5.27Z"/>
      <path class="cls-2" d="m89.96,143.68l8.54-1.86c.27-2.81.79-5.57,1.53-8.25l-1.25-.82c-.69,2.57-1.18,5.21-1.44,7.91l-8.54,1.86c-.08,1.62-.1,3.25-.04,4.89l1.15.27c-.03-1.34-.02-2.67.05-4Z"/>
      <path class="cls-2" d="m101.52,181.32l5.35-6.92c-1.57-2.29-2.96-4.73-4.13-7.3l-.57.07c1.04,2.12,2.22,4.15,3.54,6.07l-5.35,6.92c.99,1.3,2.02,2.56,3.11,3.77l.11-.06c-.71-.83-1.4-1.68-2.06-2.55Z"/>
      <path class="cls-2" d="m92.43,163.52l7.39-4.67c-.34-1.34-.64-2.71-.87-4.11-.23-1.39-.4-2.78-.52-4.16l-1.07-.25c.11,1.08.24,2.17.42,3.25.23,1.39.53,2.76.87,4.11l-7.39,4.67c.48,1.57,1.02,3.11,1.63,4.61l.69-.08c-.41-1.11-.81-2.22-1.16-3.36Z"/>
      <path class="cls-2" d="m95.66,82.18l6.15.3c-.07-.38-.14-.76-.23-1.14l-6.26-.3c.11.38.23.76.34,1.15Z"/>
      <path class="cls-2" d="m96.89,96.04l5.29,2.22c.03-.22.07-.43.1-.65l-5.34-2.24c-.02.22-.02.45-.04.67Z"/>
      <path class="cls-2" d="m93.32,109.5l4.01,3.71s.02-.04.03-.06l-4.01-3.71s-.02.04-.03.06Z"/>
      <path class="cls-2" d="m53.37,132.55c-.32-.03-.63-.07-.94-.1l1.33,5.86c.31.01.62.01.92.02l-1.31-5.78Z"/>
      <path class="cls-2" d="m25.34,127.15l3.21-6.24c-1.61-1.61-3.08-3.37-4.4-5.23l-.25.08c1.07,1.4,2.22,2.72,3.46,3.97l-3.26,6.34c.41.37.82.73,1.24,1.09Z"/>
      <path class="cls-2" d="m39.93,128.93c-.43-.2-.84-.41-1.26-.62l-.82,6.51c.42.17.85.33,1.28.5l.81-6.38Z"/>
      <path class="cls-2" d="m67.25,131.37c-.12.03-.24.06-.37.09l3.04,4.72c.12-.04.23-.08.35-.12l-3.02-4.69Z"/>
      <path class="cls-2" d="m10.43,98.8l6.57-2.76c-.1-1.13-.15-2.27-.15-3.42s.05-2.29.15-3.42l-1.23-.52c-.06.91-.1,1.82-.1,2.75,0,1.15.05,2.29.15,3.42l-6.57,2.76c.17,1.33.41,2.64.69,3.92l.96.05c-.18-.92-.34-1.84-.46-2.78Z"/>
      <path class="cls-2" d="m11.12,82.52l7.12-.35c.6-2.23,1.39-4.37,2.34-6.43l-1.22-1.13c-.94,2.04-1.72,4.16-2.31,6.37l-7.12.35c-.28,1.29-.51,2.6-.69,3.92l1.29.54c.16-1.1.35-2.2.59-3.28Z"/>
      <path class="cls-2" d="m17.34,67.46l6.81,2.11c1.32-1.87,2.79-3.62,4.4-5.23l-3.26-6.34c.98-.9,2-1.75,3.05-2.56l5.67,4.31c1.86-1.3,3.84-2.45,5.92-3.42l-.9-7.07c1.11-.46,2.24-.87,3.39-1.25l-.84-1.31c-1.27.4-2.52.86-3.74,1.36l.9,7.07c-2.08.97-4.06,2.12-5.92,3.42l-5.67-4.31c-1.05.81-2.07,1.67-3.05,2.56l3.26,6.34c-1.61,1.61-3.08,3.37-4.4,5.23l-6.81-2.11c-.71,1.12-1.38,2.27-1.99,3.45l1.22,1.13c.61-1.16,1.26-2.29,1.96-3.39Z"/>
      <path class="cls-2" d="m15.35,114.34l5.23-4.84c-.95-2.05-1.74-4.2-2.34-6.43l-.85-.04c.55,1.82,1.21,3.58,2,5.28l-5.23,4.84c.62,1.18,1.28,2.33,1.99,3.45l.39-.12c-.42-.7-.82-1.41-1.2-2.14Z"/>
      <g>
        <path class="cls-4" d="m29.72,140.72s-.1-.01-.14-.04c-.27-.14-.54-.29-.81-.44-.15-.08-.2-.27-.12-.41.08-.15.27-.2.41-.12.26.15.53.29.8.43.15.08.2.26.13.41-.05.1-.16.16-.27.16Z"/>
        <path class="cls-4" d="m26.31,138.75c-.06,0-.11-.02-.16-.05-.51-.32-1.02-.65-1.53-.99-.14-.09-.18-.28-.08-.42.09-.14.28-.18.42-.08.5.34,1,.66,1.51.98.14.09.19.28.1.42-.06.09-.16.14-.26.14Zm-3.98-2.74c-.06,0-.13-.02-.18-.06-.48-.37-.96-.74-1.44-1.12-.13-.11-.15-.3-.05-.43.11-.13.3-.15.43-.05.47.38.94.75,1.42,1.11.13.1.16.29.06.43-.06.08-.15.12-.24.12Zm-3.72-3.08c-.07,0-.15-.03-.2-.08-.45-.41-.89-.82-1.33-1.24-.12-.12-.12-.31,0-.43.12-.12.31-.12.43,0,.43.42.87.83,1.32,1.23.12.11.13.3.02.43-.06.07-.14.1-.23.1Zm-3.44-3.39c-.08,0-.16-.03-.22-.1-.41-.44-.82-.89-1.22-1.35-.11-.13-.1-.32.03-.43.13-.11.32-.1.43.03.39.45.8.9,1.21,1.34.11.12.11.31-.02.43-.06.05-.13.08-.21.08Zm-3.14-3.67c-.09,0-.18-.04-.24-.12-.37-.48-.74-.96-1.1-1.45-.1-.14-.07-.33.07-.42.14-.1.33-.07.42.07.35.49.72.96,1.09,1.44.1.13.08.32-.05.43-.06.04-.12.06-.19.06Zm-2.81-3.93c-.1,0-.2-.05-.26-.14-.33-.51-.65-1.02-.97-1.54-.09-.14-.04-.33.1-.42.14-.09.33-.04.42.1.31.51.63,1.02.96,1.53.09.14.05.33-.09.42-.05.03-.11.05-.17.05Zm-2.45-4.16c-.11,0-.21-.06-.27-.16-.28-.53-.56-1.07-.83-1.62-.07-.15-.01-.33.14-.41.15-.07.33-.01.41.14.26.54.54,1.07.82,1.6.08.15.02.33-.13.41-.05.02-.09.04-.14.04Zm-2.08-4.35c-.12,0-.23-.07-.28-.18-.24-.56-.47-1.12-.68-1.69-.06-.16.02-.33.17-.39.16-.06.33.02.39.17.22.56.44,1.12.68,1.67.07.15,0,.33-.16.4-.04.02-.08.02-.12.02Zm-1.69-4.52c-.13,0-.25-.08-.29-.21-.19-.58-.36-1.15-.53-1.74-.05-.16.05-.33.21-.38.16-.05.33.05.38.21.17.58.34,1.15.53,1.72.05.16-.04.33-.2.38-.03.01-.06.01-.09.01Zm-1.29-4.65c-.14,0-.26-.09-.3-.24-.14-.59-.26-1.18-.38-1.78-.03-.16.08-.32.24-.36.16-.03.32.07.36.24.12.59.24,1.17.38,1.76.04.16-.06.33-.23.36-.02,0-.05,0-.07,0Zm-.88-4.74c-.15,0-.28-.11-.3-.26-.08-.6-.16-1.2-.22-1.81-.02-.17.1-.32.27-.33.17-.01.32.1.33.27.06.6.14,1.19.22,1.79.02.17-.09.32-.26.34-.01,0-.03,0-.04,0Zm-.46-4.81c-.16,0-.29-.13-.3-.29-.03-.6-.05-1.21-.07-1.82,0-.17.13-.31.3-.31.18,0,.31.13.31.3.01.6.03,1.2.07,1.8,0,.17-.12.31-.29.32,0,0-.01,0-.02,0Zm-.05-4.83s0,0-.01,0c-.17,0-.3-.15-.29-.31.02-.61.05-1.21.09-1.82.01-.17.16-.29.32-.28.17.01.29.16.28.32-.04.6-.07,1.2-.09,1.8,0,.16-.14.29-.3.29Zm.37-4.81s-.02,0-.04,0c-.17-.02-.29-.17-.27-.34.07-.6.15-1.21.25-1.8.03-.17.18-.28.35-.25.17.03.28.18.25.35-.09.59-.17,1.19-.24,1.78-.02.15-.15.27-.3.27Zm.78-4.76s-.04,0-.06,0c-.16-.03-.27-.2-.24-.36.12-.6.26-1.19.4-1.78.04-.16.2-.26.37-.22.16.04.26.2.22.37-.14.58-.28,1.17-.4,1.76-.03.14-.16.24-.3.24Zm1.2-4.68s-.06,0-.09-.01c-.16-.05-.25-.22-.2-.38.18-.58.36-1.16.56-1.74.05-.16.23-.24.39-.19.16.05.24.23.19.39-.19.57-.38,1.14-.55,1.72-.04.13-.16.22-.29.22Zm1.61-4.57s-.08,0-.11-.02c-.16-.06-.23-.24-.17-.4.23-.57.46-1.13.71-1.68.07-.15.25-.22.4-.16.15.07.22.25.16.4-.24.55-.48,1.1-.7,1.66-.05.12-.16.19-.28.19Zm2-4.41s-.09-.01-.14-.03c-.15-.08-.21-.26-.13-.41.28-.54.56-1.08.85-1.61.08-.15.27-.2.41-.12.15.08.2.27.12.41-.29.53-.57,1.06-.84,1.6-.05.11-.16.17-.27.17Zm96.78-3.89c-.1,0-.2-.05-.26-.14-.31-.51-.64-1.02-.97-1.52-.09-.14-.05-.33.09-.42.14-.09.33-.05.42.09.33.51.66,1.02.98,1.54.09.14.04.33-.1.42-.05.03-.1.04-.16.04Zm-94.41-.32c-.05,0-.11-.01-.16-.05-.14-.09-.19-.28-.1-.42.32-.52.65-1.03.99-1.53.09-.14.28-.18.42-.08.14.09.18.28.08.42-.33.5-.66,1-.98,1.51-.06.09-.16.14-.26.14Zm91.71-3.68c-.09,0-.18-.04-.24-.12-.36-.48-.72-.96-1.1-1.43-.1-.13-.08-.32.05-.43.13-.1.32-.08.43.05.38.48.75.96,1.11,1.45.1.13.07.33-.06.43-.05.04-.12.06-.18.06Zm-88.97-.31c-.06,0-.13-.02-.18-.06-.13-.1-.16-.29-.06-.43.37-.49.74-.97,1.12-1.44.11-.13.3-.15.43-.05.13.11.15.3.05.43-.38.47-.75.94-1.11,1.42-.06.08-.15.12-.24.12Zm85.93-3.45c-.08,0-.17-.03-.23-.1-.4-.45-.8-.89-1.22-1.33-.12-.12-.11-.31.01-.43.12-.11.31-.11.43.01.42.44.83.89,1.23,1.34.11.13.1.32-.03.43-.06.05-.13.08-.2.08Zm-82.87-.29c-.07,0-.14-.03-.2-.08-.13-.11-.14-.3-.02-.43.41-.45.82-.9,1.24-1.34.12-.12.31-.13.43,0,.12.12.13.31,0,.43-.42.43-.82.87-1.22,1.32-.06.07-.14.1-.23.1Zm79.51-3.19c-.08,0-.15-.03-.21-.08-.44-.41-.88-.82-1.33-1.22-.13-.11-.14-.3-.02-.43.11-.13.3-.14.43-.02.45.4.9.82,1.34,1.23.12.12.13.31.01.43-.06.06-.14.09-.22.09Zm-76.14-.26c-.08,0-.16-.03-.22-.1-.11-.12-.11-.31.01-.43.44-.42.89-.82,1.35-1.22.13-.11.32-.1.43.03.11.13.1.32-.03.43-.45.4-.9.8-1.33,1.21-.06.05-.13.08-.21.08Zm72.5-2.91c-.07,0-.13-.02-.19-.07-.47-.37-.94-.74-1.43-1.1-.13-.1-.16-.29-.06-.43.1-.13.29-.16.43-.06.49.36.97.73,1.44,1.11.13.1.15.3.05.43-.06.08-.15.11-.24.11Zm-68.83-.24c-.09,0-.18-.04-.24-.12-.1-.13-.08-.32.05-.43.48-.37.96-.74,1.45-1.1.14-.1.33-.07.43.06.1.14.07.33-.06.43-.48.36-.96.72-1.43,1.09-.06.04-.12.07-.19.07Zm64.93-2.61c-.06,0-.12-.02-.17-.05-.5-.33-1.01-.66-1.52-.97-.14-.09-.19-.28-.1-.42.09-.14.28-.19.42-.1.52.32,1.03.65,1.53.98.14.09.18.28.08.42-.06.09-.16.14-.25.14Zm-61.01-.21c-.1,0-.2-.05-.25-.14-.09-.14-.05-.33.09-.42.51-.33,1.02-.66,1.54-.97.14-.09.33-.04.42.1.09.14.04.33-.1.42-.51.31-1.02.63-1.52.96-.05.03-.11.05-.17.05Zm56.88-2.29s-.1-.01-.15-.04c-.53-.29-1.06-.57-1.6-.84-.15-.08-.21-.26-.13-.41.08-.15.26-.21.41-.13.54.27,1.08.56,1.61.85.15.08.2.27.12.41-.06.1-.16.16-.27.16Zm-52.73-.17c-.11,0-.21-.06-.27-.16-.08-.15-.02-.33.12-.41.53-.29,1.07-.56,1.61-.83.15-.07.33-.01.41.14.07.15.01.33-.14.41-.54.27-1.07.54-1.6.82-.05.02-.09.04-.14.04Zm48.39-1.95s-.08,0-.12-.03c-.55-.24-1.11-.47-1.66-.69-.16-.06-.23-.24-.17-.39.06-.16.24-.23.39-.17.57.23,1.13.46,1.68.7.15.07.22.25.16.4-.05.11-.16.18-.28.18Zm-44.05-.14c-.12,0-.23-.07-.28-.18-.07-.15,0-.33.16-.4.56-.24,1.12-.47,1.68-.69.16-.06.33.02.39.17s-.02.33-.17.39c-.56.22-1.11.45-1.66.68-.04.02-.08.02-.12.02Zm39.54-1.6s-.06,0-.1-.02c-.57-.19-1.14-.37-1.72-.55-.16-.05-.25-.22-.2-.38.05-.16.22-.25.38-.2.58.17,1.16.36,1.74.55.16.05.24.23.19.39-.04.13-.16.21-.29.21Zm-35.03-.11c-.13,0-.25-.08-.29-.21-.05-.16.03-.33.19-.38.58-.19,1.16-.37,1.74-.54.16-.05.33.05.38.21.05.16-.05.33-.21.38-.58.17-1.15.35-1.72.53-.03.01-.06.02-.09.02Zm30.38-1.23s-.05,0-.07,0c-.58-.14-1.17-.27-1.76-.39-.16-.03-.27-.19-.24-.36.03-.16.19-.27.36-.24.6.12,1.19.26,1.78.4.16.04.26.2.22.37-.03.14-.16.23-.3.23Zm-25.74-.08c-.14,0-.26-.09-.3-.23-.04-.16.06-.33.23-.37.59-.14,1.18-.27,1.78-.39.16-.03.32.07.36.24s-.07.32-.24.36c-.59.12-1.18.25-1.76.38-.02,0-.05,0-.07,0Zm20.99-.85s-.03,0-.05,0c-.59-.09-1.19-.17-1.79-.24-.17-.02-.29-.17-.27-.34.02-.17.17-.29.34-.27.61.07,1.21.15,1.81.24.17.02.28.18.26.35-.02.15-.15.26-.3.26Zm-16.25-.05c-.15,0-.28-.11-.3-.26-.02-.17.09-.32.26-.34.6-.09,1.2-.16,1.81-.23.17-.02.32.1.34.27.02.17-.1.32-.27.34-.6.07-1.19.14-1.79.23-.01,0-.03,0-.04,0Zm11.44-.46s-.01,0-.02,0c-.6-.04-1.2-.06-1.8-.08-.17,0-.3-.15-.29-.31,0-.17.15-.29.31-.29.61.02,1.21.05,1.82.08.17.01.3.15.28.32,0,.16-.14.29-.3.29Zm-6.64-.02c-.16,0-.29-.13-.3-.29,0-.17.12-.31.29-.32.6-.03,1.21-.06,1.82-.07.16,0,.31.13.31.3,0,.17-.13.31-.3.31-.6.01-1.2.04-1.8.07,0,0-.01,0-.02,0Z"/>
        <path class="cls-4" d="m105.03,66.24c-.11,0-.22-.06-.27-.16-.14-.27-.28-.54-.42-.8-.08-.15-.02-.33.12-.41.15-.08.33-.02.41.12.15.27.29.54.43.81.08.15.02.33-.13.41-.04.02-.09.03-.14.03Z"/>
        <polygon class="cls-4" points="107.18 70.62 101.39 65.33 104.81 65.62 106.74 62.79 107.18 70.62"/>
      </g>
      <g>
        <path class="cls-4" d="m146.09,214.36c-.17,0-.3-.13-.3-.3,0-.17.13-.31.3-.31.6,0,1.21-.02,1.82-.04.17,0,.31.13.31.29,0,.17-.12.31-.29.32-.61.02-1.22.04-1.83.04h0Zm-3.04-.04h-.01c-.61-.02-1.22-.05-1.83-.09-.17-.01-.3-.15-.28-.32s.16-.3.32-.28c.6.04,1.21.06,1.82.09.17,0,.3.15.29.31,0,.16-.14.29-.3.29Zm7.9-.19c-.16,0-.29-.12-.3-.28-.01-.17.11-.31.28-.33.6-.05,1.2-.11,1.81-.17.17-.02.32.1.33.27.02.17-.1.32-.27.33-.61.07-1.22.12-1.82.17,0,0-.02,0-.02,0Zm-12.75-.15s-.02,0-.03,0c-.61-.06-1.22-.14-1.82-.22-.17-.02-.28-.18-.26-.34.02-.17.17-.28.34-.26.6.08,1.2.15,1.81.21.17.02.29.17.27.33-.02.16-.15.27-.3.27Zm17.58-.41c-.15,0-.28-.11-.3-.26-.03-.17.09-.32.25-.35.6-.09,1.2-.19,1.79-.3.17-.03.32.08.35.25.03.17-.08.32-.25.35-.6.11-1.2.21-1.81.3-.02,0-.03,0-.05,0Zm-22.4-.27s-.04,0-.05,0c-.6-.11-1.2-.22-1.8-.35-.16-.03-.27-.19-.24-.36.03-.17.19-.27.36-.24.59.12,1.19.24,1.79.34.17.03.28.19.25.35-.03.15-.15.25-.3.25Zm27.18-.62c-.14,0-.26-.1-.3-.24-.04-.16.07-.33.23-.36.59-.13,1.18-.27,1.77-.42.16-.04.33.06.37.22.04.16-.06.33-.22.37-.59.15-1.18.29-1.78.42-.02,0-.04,0-.07,0Zm-31.94-.4s-.05,0-.07,0c-.59-.15-1.18-.31-1.77-.47-.16-.05-.26-.21-.21-.38.05-.16.21-.26.37-.21.58.16,1.17.32,1.76.47.16.04.26.21.22.37-.04.14-.16.23-.29.23Zm36.64-.83c-.13,0-.25-.08-.29-.22-.05-.16.04-.33.2-.38.58-.17,1.16-.36,1.73-.54.16-.05.33.03.38.19.05.16-.03.33-.19.38-.58.19-1.16.37-1.75.55-.03,0-.06.01-.09.01Zm-41.31-.53s-.06,0-.1-.02c-.58-.19-1.16-.39-1.73-.6-.16-.06-.24-.23-.18-.39.06-.16.23-.24.39-.18.57.21,1.14.4,1.72.59.16.05.25.22.19.38-.04.13-.16.21-.29.21Zm45.91-1.03c-.12,0-.24-.07-.28-.2-.06-.16.02-.33.18-.39.57-.21,1.13-.44,1.68-.66.16-.06.33.01.4.17.06.15-.01.33-.17.4-.56.23-1.13.45-1.7.67-.04.01-.07.02-.11.02Zm-50.47-.66s-.08,0-.12-.02c-.57-.23-1.13-.47-1.69-.72-.15-.07-.22-.25-.15-.4.07-.15.25-.22.4-.15.55.25,1.11.48,1.67.71.16.06.23.24.17.4-.05.12-.16.19-.28.19Zm54.95-1.23c-.11,0-.22-.07-.28-.18-.07-.15,0-.33.15-.4.55-.25,1.09-.52,1.63-.78.15-.07.33-.01.41.14.07.15.01.33-.14.41-.55.27-1.09.53-1.65.79-.04.02-.08.03-.13.03Zm-59.38-.78s-.09-.01-.14-.03c-.55-.27-1.09-.55-1.63-.84-.15-.08-.2-.26-.13-.41.08-.15.26-.21.41-.13.53.28,1.07.56,1.62.83.15.07.21.26.14.41-.05.11-.16.17-.27.17Zm63.71-1.42c-.11,0-.21-.06-.27-.16-.08-.15-.03-.33.12-.41.53-.29,1.05-.59,1.57-.9.15-.08.33-.04.42.11.09.14.04.33-.11.42-.52.31-1.05.61-1.59.91-.05.03-.1.04-.15.04Zm-67.98-.9c-.05,0-.11-.01-.15-.04-.53-.31-1.05-.63-1.57-.95-.14-.09-.19-.28-.1-.42s.28-.19.42-.1c.51.32,1.03.63,1.55.94.14.08.19.27.11.42-.06.1-.16.15-.26.15Zm72.15-1.6c-.1,0-.2-.05-.26-.14-.09-.14-.05-.33.09-.42.51-.33,1.01-.67,1.51-1.01.14-.1.33-.06.42.08.09.14.06.33-.08.42-.5.34-1.01.68-1.52,1.02-.05.03-.11.05-.17.05Zm-76.25-1.01c-.06,0-.12-.02-.17-.05-.5-.35-1-.7-1.5-1.06-.14-.1-.17-.29-.07-.42.1-.14.29-.17.42-.07.49.36.98.71,1.48,1.05.14.1.17.28.08.42-.06.09-.15.13-.25.13Zm80.23-1.78c-.09,0-.18-.04-.24-.12-.1-.13-.07-.32.06-.43.48-.37.96-.74,1.43-1.11.13-.1.32-.08.43.05.1.13.08.32-.05.43-.48.38-.96.76-1.45,1.12-.05.04-.12.06-.18.06Zm-84.14-1.12c-.07,0-.13-.02-.19-.07-.48-.38-.95-.77-1.42-1.16-.13-.11-.15-.3-.04-.43.11-.13.3-.15.43-.04.46.39.93.77,1.41,1.15.13.1.15.3.05.43-.06.08-.15.11-.24.11Zm87.91-1.95c-.08,0-.17-.04-.23-.1-.11-.13-.1-.32.03-.43.46-.4.91-.8,1.35-1.21.12-.11.32-.1.43.02.11.12.11.32-.02.43-.45.41-.9.82-1.36,1.22-.06.05-.13.07-.2.07Zm-91.6-1.21c-.07,0-.15-.03-.21-.08-.45-.41-.89-.83-1.33-1.26-.12-.12-.12-.31,0-.43.12-.12.31-.12.43,0,.43.42.87.84,1.32,1.25.12.11.13.31.02.43-.06.07-.14.1-.22.1Zm95.15-2.11c-.08,0-.15-.03-.21-.09-.12-.12-.12-.31,0-.43.43-.43.85-.86,1.26-1.3.11-.12.31-.13.43-.01.12.12.13.31.01.43-.42.44-.84.88-1.27,1.32-.06.06-.14.09-.22.09Zm3.3-3.57c-.07,0-.14-.02-.2-.07-.13-.11-.14-.3-.03-.43.4-.46.78-.92,1.17-1.39.11-.13.3-.15.43-.04.13.11.15.3.04.43-.39.47-.78.94-1.18,1.4-.06.07-.14.11-.23.11Zm3.04-3.79c-.06,0-.13-.02-.18-.06-.13-.1-.16-.29-.06-.43.36-.49.72-.97,1.07-1.47.1-.14.29-.17.42-.07.14.1.17.29.07.42-.35.5-.71.99-1.08,1.48-.06.08-.15.12-.24.12Zm2.77-4c-.06,0-.11-.02-.16-.05-.14-.09-.18-.28-.09-.42.33-.51.65-1.02.96-1.54.09-.14.27-.19.42-.1.14.09.19.27.1.42-.32.52-.64,1.04-.97,1.55-.06.09-.16.14-.26.14Zm2.48-4.18s-.1-.01-.15-.04c-.15-.08-.2-.27-.12-.41.29-.53.57-1.07.85-1.61.08-.15.26-.21.41-.13.15.08.21.26.13.41-.28.54-.57,1.08-.86,1.62-.06.1-.16.16-.27.16Z"/>
        <polygon class="cls-4" points="203.22 177.34 206.15 177.48 208.08 179.69 208.44 172.75 203.22 177.34"/>
      </g>
      <g>
        <path class="cls-4" d="m219.84,39.18c.07.15,0,.33-.15.39-.55.24-1.09.48-1.62.74h0c-.15.07-.32,0-.39-.14-.07-.15,0-.33.14-.4.54-.25,1.09-.5,1.64-.74h0c.15-.07.33,0,.39.15Zm2.38-1.29c.56-.21,1.12-.42,1.68-.62.16-.06.33.03.38.18.06.16-.03.33-.18.38-.56.2-1.12.41-1.67.62-.15.06-.33-.02-.39-.17-.06-.15.01-.32.16-.38h.01Zm-6.68,3.34c.08.15.02.33-.13.4-.53.28-1.05.56-1.56.85-.14.08-.33.03-.41-.11-.08-.14-.03-.33.11-.41.52-.29,1.05-.58,1.58-.86,0,0,.01,0,.02,0,.14-.06.31,0,.38.14Zm11.21-4.91c.57-.18,1.15-.34,1.72-.5.16-.04.32.05.37.21.04.16-.05.32-.21.37-.57.16-1.14.32-1.71.5-.16.05-.32-.04-.37-.2-.05-.15.03-.3.17-.36.01,0,.02,0,.03-.01Zm-15.36,7.26c.09.14.04.32-.1.41-.5.31-1.01.63-1.5.96-.13.09-.32.05-.41-.08-.09-.14-.05-.32.08-.41.5-.33,1-.65,1.51-.97.01,0,.03-.02.04-.02.13-.06.29-.01.37.12Zm19.98-8.5c.58-.14,1.17-.26,1.76-.38.16-.03.32.07.35.23.03.16-.07.31-.23.35-.58.12-1.16.24-1.74.38-.16.04-.32-.06-.36-.22-.03-.14.04-.28.17-.34.02,0,.03-.01.05-.02Zm-23.95,11.15c.1.13.07.32-.07.42-.48.35-.96.71-1.43,1.07-.13.1-.32.08-.42-.05-.1-.13-.08-.32.05-.42.47-.37.95-.72,1.44-1.08.02-.01.04-.02.06-.03.13-.05.28-.02.36.1Zm28.66-12.06c.59-.09,1.19-.18,1.78-.25.16-.02.31.09.33.26.02.16-.09.31-.26.33-.59.08-1.18.16-1.76.25-.16.02-.32-.09-.34-.25-.02-.14.05-.27.18-.32.02,0,.05-.02.07-.02Zm4.75-.57c.6-.05,1.2-.09,1.79-.12.16,0,.3.12.31.28,0,.16-.12.31-.28.31-.59.03-1.18.07-1.78.12-.16.01-.31-.11-.32-.27-.01-.13.06-.25.18-.3.03-.01.06-.02.09-.02Zm4.78-.22c.6,0,1.2,0,1.8,0,.16,0,.3.14.29.3,0,.16-.14.3-.3.29-.59-.01-1.19-.01-1.78,0-.16,0-.3-.13-.3-.29,0-.12.07-.23.18-.28.04-.02.07-.02.12-.02Zm4.78.12c.6.04,1.19.08,1.79.13.16.01.29.16.27.32-.01.16-.16.29-.32.27-.59-.05-1.18-.1-1.77-.13-.16-.01-.29-.15-.28-.32,0-.12.08-.21.18-.26.04-.02.09-.03.14-.02Zm4.76.46c.59.08,1.18.17,1.77.26.16.03.27.18.25.34-.03.16-.18.27-.34.25-.58-.09-1.17-.18-1.76-.26-.16-.02-.28-.17-.26-.34.01-.11.08-.19.18-.23.05-.02.1-.03.16-.02Zm4.71.81c.59.12,1.17.25,1.75.39.16.04.26.2.22.36-.04.16-.2.26-.36.22-.58-.14-1.15-.26-1.73-.39-.16-.03-.26-.19-.23-.35.02-.1.09-.18.17-.21.05-.02.12-.03.18-.02Zm4.64,1.14c.58.16,1.15.33,1.72.51.16.05.24.22.2.37-.05.16-.22.24-.37.2-.57-.18-1.13-.35-1.7-.51-.16-.05-.25-.21-.21-.37.03-.09.09-.16.17-.19.06-.03.13-.03.2-.01Zm4.55,1.47c.56.2,1.12.42,1.68.63.15.06.23.23.17.39-.06.15-.23.23-.39.17-.55-.22-1.11-.43-1.66-.63-.15-.06-.23-.23-.18-.38.03-.08.09-.14.16-.17.07-.03.15-.03.22,0Zm4.44,1.79c.55.24,1.09.49,1.63.75.15.07.21.25.14.4-.07.15-.25.21-.4.14-.54-.26-1.07-.5-1.62-.75-.15-.07-.22-.24-.15-.39.03-.07.09-.12.15-.15.07-.03.16-.03.24,0Zm4.3,2.1c.53.28,1.05.57,1.57.87.14.08.19.26.11.41-.08.14-.26.19-.41.11-.52-.29-1.04-.58-1.56-.86-.15-.08-.2-.26-.12-.4.03-.06.08-.11.14-.13.08-.03.18-.03.26.01Zm4.14,2.41c.51.32,1.01.64,1.51.98.14.09.17.28.08.41-.09.14-.28.17-.41.08-.49-.33-.99-.65-1.49-.97-.14-.09-.18-.27-.09-.41.03-.05.08-.09.13-.11.09-.04.19-.03.28.02Zm3.96,2.7c.48.35.96.72,1.44,1.08.13.1.15.29.05.42-.1.13-.29.15-.42.05-.47-.36-.94-.72-1.42-1.07-.13-.1-.16-.28-.06-.42.03-.04.07-.08.12-.1.09-.04.21-.03.29.03Zm3.76,2.97c.46.39.91.78,1.35,1.18.12.11.13.3.02.42-.11.12-.3.13-.42.02-.44-.4-.89-.79-1.34-1.17-.13-.11-.14-.29-.03-.42.03-.04.07-.06.11-.08.1-.04.22-.03.31.05Zm3.54,3.24c.43.42.85.85,1.27,1.28.11.12.11.31,0,.42-.12.12-.31.11-.42,0-.41-.43-.83-.85-1.25-1.27-.12-.12-.12-.3,0-.42.03-.03.06-.05.09-.06.11-.05.24-.03.33.06Zm3.3,3.49c.4.45.79.91,1.17,1.37.11.13.09.31-.04.42-.12.11-.31.09-.42-.04-.38-.46-.77-.91-1.16-1.36-.11-.12-.1-.31.03-.42.02-.02.05-.04.08-.05.12-.05.25-.02.34.08Zm3.04,3.72c.36.48.72.96,1.07,1.45.1.13.07.32-.07.42-.13.1-.32.06-.42-.07-.35-.48-.7-.96-1.06-1.44-.1-.13-.07-.32.06-.42.02-.02.04-.03.06-.04.12-.05.27-.02.36.09Zm2.76,3.92c.33.5.65,1.01.96,1.52.09.14.04.32-.1.41-.14.09-.32.04-.41-.1-.31-.51-.63-1.01-.95-1.51-.09-.14-.05-.32.09-.41.01,0,.03-.02.04-.02.13-.06.29-.01.37.11Zm2.47,4.11c.29.52.57,1.05.85,1.58.08.15.02.33-.13.4-.14.07-.33.02-.4-.13-.27-.53-.55-1.05-.84-1.57-.08-.14-.03-.33.12-.41,0,0,.02,0,.03-.01.14-.06.3,0,.38.13Zm2.17,4.27c.24.51.47,1.02.69,1.54l.04.1c.07.15,0,.33-.16.39s-.33,0-.39-.16l-.04-.1c-.22-.51-.45-1.02-.68-1.53-.07-.15,0-.33.15-.4h0c.15-.07.32,0,.39.15Zm1.47,4.24c.15-.06.33.02.38.17.2.52.39,1.04.57,1.57l.04.12c.05.16-.04.33-.18.38-.16.05-.33-.03-.38-.18l-.04-.12c-.18-.52-.37-1.04-.57-1.56-.06-.15.01-.32.16-.38,0,0,0,0,.01,0Zm1.55,4.51c.16-.05.32.04.37.2.17.58.34,1.15.49,1.73.04.16-.06.33-.21.37-.16.04-.32-.05-.37-.21-.16-.57-.32-1.14-.49-1.71-.04-.15.03-.3.17-.36.01,0,.02,0,.03-.01Zm1.23,4.61c.16-.04.32.07.36.23.13.59.25,1.17.37,1.76.03.16-.08.32-.23.35-.16.03-.32-.07-.35-.24-.11-.58-.24-1.16-.37-1.74-.03-.14.04-.28.17-.34.02,0,.03-.01.05-.02Zm.9,4.68c.16-.02.31.09.34.25.09.59.17,1.19.24,1.78.02.16-.09.31-.26.33-.16.02-.31-.1-.33-.26-.07-.59-.15-1.18-.24-1.76-.02-.14.06-.27.18-.32.02,0,.05-.02.07-.02Zm.56,4.74c.16-.01.31.11.32.27.05.6.08,1.2.11,1.79,0,.16-.12.3-.28.31-.16,0-.3-.12-.31-.28-.03-.59-.07-1.18-.11-1.78-.01-.13.06-.25.18-.3.03-.01.06-.02.1-.02Zm.22,4.77c.16,0,.3.13.3.3,0,.6,0,1.2-.02,1.8,0,.16-.14.3-.3.29-.16,0-.29-.14-.29-.3.01-.59.02-1.19.02-1.78,0-.12.07-.23.18-.28.04-.02.08-.02.12-.02Zm-.13,4.76c.16.01.29.15.28.32-.04.6-.09,1.19-.14,1.79-.02.16-.16.28-.33.27-.16-.02-.28-.16-.27-.32.06-.59.1-1.18.14-1.77,0-.12.08-.21.18-.25.04-.02.09-.03.14-.02Zm-.47,4.74c.16.02.28.17.25.34-.08.59-.17,1.18-.27,1.77-.03.16-.18.27-.34.24-.16-.03-.27-.18-.24-.34.1-.58.19-1.17.27-1.76.02-.11.08-.19.18-.23.05-.02.1-.03.16-.02Zm-.81,4.69c.16.03.26.19.23.35-.13.59-.26,1.17-.4,1.75-.04.16-.2.26-.36.22-.16-.04-.26-.2-.22-.36.14-.58.27-1.15.4-1.73.02-.1.09-.17.17-.21.06-.02.12-.03.18-.02Zm-1.14,4.63c.16.05.25.21.2.37-.17.58-.34,1.15-.52,1.72-.05.16-.22.24-.37.19-.16-.05-.24-.22-.19-.37.18-.56.35-1.13.52-1.7.03-.09.09-.16.17-.19.06-.03.13-.03.2-.01Zm-1.47,4.53c.15.06.23.23.18.38-.21.56-.42,1.12-.64,1.68-.06.15-.23.23-.39.17-.15-.06-.23-.23-.17-.39.22-.55.43-1.1.64-1.66.03-.08.09-.14.16-.17.07-.03.15-.03.22,0Zm-1.79,4.42c.15.07.22.24.15.39-.25.55-.5,1.09-.76,1.63-.07.15-.25.21-.4.14-.15-.07-.21-.25-.14-.4.26-.53.51-1.07.76-1.61.03-.07.09-.12.15-.15.07-.03.16-.03.24,0Zm-2.1,4.28c.14.08.2.26.12.4-.28.53-.58,1.05-.88,1.57-.08.14-.26.19-.41.11-.14-.08-.19-.26-.11-.41.3-.51.59-1.03.87-1.56.03-.06.08-.11.14-.13.08-.03.18-.03.26.01Zm-2.4,4.12c.14.09.18.27.09.41-.32.51-.65,1.01-.99,1.5-.09.13-.28.17-.41.08-.14-.09-.17-.28-.08-.41.33-.49.66-.99.98-1.49.03-.05.08-.09.13-.11.09-.04.19-.03.28.02Zm-2.69,3.94c.13.1.16.28.06.42-.36.48-.72.96-1.09,1.43-.1.13-.29.15-.42.05-.13-.1-.15-.29-.05-.42.37-.47.73-.94,1.08-1.42.03-.04.07-.08.12-.1.09-.04.21-.03.3.03Zm-2.96,3.74c.12.11.14.3.03.42-.39.45-.79.9-1.19,1.35-.11.12-.3.13-.42.02-.12-.11-.13-.3-.02-.42.4-.44.79-.89,1.18-1.34.03-.04.07-.06.11-.08.1-.04.22-.03.31.05Zm-3.23,3.52c.12.12.12.3,0,.42-.42.43-.85.85-1.29,1.26-.12.11-.31.11-.42-.01-.11-.12-.11-.31,0-.42.43-.41.86-.83,1.28-1.25.03-.03.06-.05.09-.06.11-.05.24-.03.33.06Zm-3.47,3.28c.11.12.1.31-.03.42-.45.39-.91.78-1.37,1.16-.13.11-.32.09-.42-.04-.1-.13-.09-.32.04-.42.46-.38.91-.76,1.36-1.15.02-.02.05-.04.08-.05.12-.05.26-.02.34.08Zm-3.7,3.02c.1.13.07.32-.06.42-.48.36-.96.71-1.45,1.06-.13.09-.32.06-.42-.07-.1-.13-.06-.32.07-.42.48-.34.96-.69,1.44-1.05.02-.01.04-.03.06-.04.12-.05.27-.02.36.09Zm-3.9,2.74c.09.14.05.32-.09.41-.5.32-1.01.64-1.52.95-.14.08-.32.04-.41-.1-.09-.14-.04-.32.1-.41.51-.31,1.01-.62,1.51-.94.01,0,.03-.02.04-.02.13-.06.29-.01.37.11Zm-4.09,2.45c.08.14.03.33-.12.4-.52.29-1.05.57-1.59.84-.15.08-.33.02-.4-.13-.07-.15-.02-.33.13-.4.53-.27,1.05-.55,1.57-.83,0,0,.02,0,.03-.01.14-.06.31,0,.38.13Zm-4.25,2.15c.07.15,0,.33-.15.4-.4.18-.8.36-1.2.53l-.44.19c-.15.06-.33,0-.39-.16-.06-.15,0-.33.16-.39h0s.44-.19.44-.19c.4-.17.8-.35,1.19-.53h0c.15-.07.32,0,.39.15Z"/>
        <polygon class="cls-4" points="272.44 158.23 272.38 161.16 274.44 163.25 267.49 163.1 272.44 158.23"/>
      </g>
      <g>
        <path class="cls-4" d="m169.86,3.61c-.07.17-.26.26-.44.19-.64-.24-1.28-.46-1.92-.67-.16-.05-.28-.25-.22-.42.06-.18.25-.27.43-.21.65.21,1.3.44,1.95.68h0c.17.07.25.26.19.43Zm2.98.87c.63.28,1.25.58,1.86.89.17.08.23.29.15.45-.09.17-.3.24-.46.15-.6-.3-1.21-.59-1.83-.87-.17-.08-.25-.28-.17-.45.08-.16.27-.24.44-.17h.01Zm-8.18-2.54c-.05.18-.23.29-.42.24-.66-.17-1.32-.32-1.98-.46-.18-.04-.3-.22-.26-.4.04-.18.22-.3.41-.26.67.14,1.34.3,2.01.47.02,0,.03,0,.05.02.15.06.24.23.2.39Zm13.04,5.06c.59.35,1.18.71,1.75,1.08.16.1.2.31.1.46-.1.16-.32.19-.47.09-.56-.37-1.14-.72-1.72-1.07-.16-.1-.21-.3-.12-.46.09-.14.27-.2.42-.14.02,0,.03.01.05.02Zm-18.4-6.15c-.03.18-.2.31-.39.29-.67-.09-1.35-.17-2.02-.24-.19-.02-.33-.18-.31-.37.02-.18.19-.32.37-.3.68.07,1.37.15,2.05.24.03,0,.06.01.08.02.14.06.23.2.21.36Zm22.95,9.19c.55.41,1.08.83,1.61,1.26.14.12.16.33.04.47-.12.14-.33.16-.48.04-.52-.43-1.05-.84-1.59-1.25-.15-.11-.18-.32-.06-.47.1-.12.26-.16.4-.11.03.01.05.02.08.04ZM153.85.37c0,.19-.16.33-.35.33-.68-.02-1.36-.02-2.04-.01-.19,0-.34-.15-.35-.33,0-.19.15-.34.34-.34.69,0,1.38,0,2.07.02.04,0,.08.01.12.03.13.05.21.18.21.32Zm32.58,13.2c.5.47.98.95,1.46,1.43.13.13.12.35-.01.47-.14.13-.35.12-.48-.01-.47-.48-.95-.95-1.44-1.41-.14-.13-.14-.34,0-.47.1-.1.25-.13.38-.08.04.02.07.04.11.07ZM148.37.47c.02.18-.12.35-.31.36-.68.06-1.36.13-2.03.21-.19.02-.36-.11-.38-.29-.02-.18.11-.35.3-.37.68-.08,1.37-.15,2.06-.21.06,0,.11,0,.16.02.11.05.2.15.21.28Zm41.8,17.05c.44.52.87,1.05,1.29,1.58.11.15.09.36-.06.47-.15.11-.37.08-.48-.06-.41-.53-.83-1.05-1.27-1.56-.12-.14-.1-.35.04-.47.1-.08.24-.1.35-.05.05.02.1.05.13.09ZM142.94,1.18c.04.18-.08.36-.27.39-.67.13-1.33.27-1.99.43-.18.04-.37-.07-.41-.25-.04-.18.07-.36.25-.4.67-.16,1.34-.3,2.02-.43.07-.01.14,0,.2.02.1.04.18.13.2.24Zm50.51,20.68c.38.56.74,1.14,1.1,1.71.1.16.04.36-.12.46-.16.1-.37.04-.47-.12-.35-.57-.71-1.13-1.08-1.69-.1-.16-.06-.36.1-.46.1-.06.22-.07.32-.03.06.02.12.07.15.13ZM137.63,2.47c.06.18-.04.36-.22.42-.65.2-1.29.41-1.93.64-.18.06-.37-.03-.44-.2-.06-.17.03-.37.21-.43.65-.23,1.3-.45,1.96-.65.08-.02.16-.02.23.01.09.04.16.11.19.21Zm58.59,24.06c.31.6.61,1.21.9,1.82.08.17,0,.37-.17.44-.17.08-.37,0-.45-.17-.28-.61-.58-1.2-.89-1.8-.09-.16-.02-.37.15-.45.09-.05.2-.05.29-.01.07.03.14.08.17.16Zm-63.72-22.2c.08.17,0,.37-.18.44-.62.27-1.24.55-1.85.84-.17.08-.38.01-.46-.15-.08-.17-.01-.37.16-.45.62-.3,1.24-.58,1.87-.86.09-.04.19-.04.27,0,.08.03.14.09.18.17Zm65.94,27.14c.24.63.47,1.27.69,1.91.06.18-.04.37-.22.42-.18.06-.37-.04-.43-.21-.21-.63-.44-1.26-.68-1.88-.07-.17.02-.37.2-.43.08-.03.17-.03.25,0,.08.03.15.1.19.19ZM127.61,6.73c.09.16.04.37-.12.46-.59.33-1.17.68-1.74,1.04-.16.1-.37.05-.47-.1-.1-.16-.06-.36.1-.46.58-.36,1.17-.71,1.76-1.05.1-.05.21-.06.3-.02.07.03.13.08.16.14Zm72.49,29.9c.17.65.33,1.31.47,1.97.04.18-.08.36-.26.4-.18.04-.37-.08-.41-.26-.14-.65-.29-1.3-.46-1.95-.05-.18.06-.36.25-.41.07-.02.15-.01.22.02.1.04.17.12.2.23ZM123.02,9.64c.11.15.08.36-.07.47-.54.4-1.08.8-1.61,1.22-.15.12-.36.09-.48-.05-.12-.14-.1-.36.05-.47.54-.42,1.08-.84,1.63-1.24.1-.07.23-.08.34-.04.06.02.11.06.14.11Zm78.14,32.28c.09.67.18,1.34.24,2.01.02.18-.12.35-.31.37-.19.02-.36-.12-.37-.3-.07-.66-.14-1.33-.24-1.99-.03-.18.1-.35.29-.38.06,0,.12,0,.18.02.11.04.19.14.21.26ZM118.79,13.03c.13.14.12.35-.02.47-.5.45-.98.91-1.46,1.39-.13.13-.35.13-.48,0-.13-.13-.14-.34,0-.47.48-.48.98-.95,1.48-1.41.1-.09.24-.11.36-.06.04.02.08.05.12.08Zm-3.82,3.83c.14.12.16.33.04.47-.44.5-.87,1.02-1.3,1.54-.12.15-.33.17-.48.06-.15-.11-.17-.33-.06-.47.43-.53.87-1.05,1.31-1.56.1-.11.26-.15.39-.09.03.01.06.03.09.05Zm-3.36,4.23c.16.1.2.31.09.47-.38.55-.75,1.11-1.11,1.67-.1.16-.32.21-.47.11-.16-.1-.21-.3-.11-.46.37-.58.74-1.14,1.13-1.7.09-.13.27-.18.41-.12.02,0,.04.02.06.03Zm-2.86,4.57c.17.09.23.29.14.45-.32.59-.62,1.18-.92,1.78-.08.17-.27.25-.46.16-.17-.08-.24-.28-.16-.45.3-.61.61-1.22.93-1.81.08-.15.27-.22.43-.15,0,0,.02,0,.03.01Zm-2.13,5.29c-.13.32-.25.64-.38.96-.07.17-.26.26-.44.2-.18-.07-.27-.26-.2-.43.12-.33.25-.65.38-.98.07-.17.27-.26.44-.19h0c.17.07.26.27.19.44Z"/>
        <polygon class="cls-4" points="109.15 31.89 106.23 32.14 104.02 30.2 104.58 37.13 109.15 31.89"/>
      </g>
      <g>
        <path class="cls-4" d="m65.73,192.7c-.46,0-.9,0-1.35-.02-.17,0-.3-.15-.29-.32,0-.17.16-.29.32-.29.44.02.88.02,1.32.02.16,0,.32,0,.48,0h0c.17,0,.3.13.3.3,0,.17-.13.31-.3.31-.16,0-.33,0-.49,0Zm3.52-.19c-.15,0-.28-.12-.3-.27-.02-.17.1-.32.27-.34.6-.07,1.2-.15,1.79-.25.17-.03.32.08.35.25.03.17-.08.32-.25.35-.6.1-1.21.18-1.82.25-.01,0-.02,0-.03,0Zm-7.88-.08s-.03,0-.04,0c-.61-.08-1.22-.18-1.82-.29-.17-.03-.27-.19-.24-.35.03-.17.19-.27.35-.24.59.11,1.19.21,1.78.28.17.02.28.17.26.34-.02.15-.15.26-.3.26Zm12.66-.8c-.13,0-.26-.09-.29-.23-.04-.16.05-.33.22-.37.57-.15,1.16-.32,1.73-.51.16-.05.33.04.38.2.05.16-.04.33-.2.38-.59.19-1.18.37-1.77.52-.03,0-.05.01-.08.01Zm-17.42-.18s-.06,0-.08-.01c-.58-.17-1.17-.35-1.75-.56-.16-.06-.24-.23-.19-.39.06-.16.23-.24.39-.19.57.2,1.15.38,1.72.55.16.05.25.21.21.38-.04.13-.16.22-.29.22Zm22.01-1.4c-.12,0-.23-.07-.28-.18-.07-.15,0-.33.16-.4.55-.24,1.1-.49,1.64-.76.15-.08.33-.01.41.14.08.15.01.33-.14.41-.55.27-1.11.53-1.67.78-.04.02-.08.02-.12.02Zm-26.57-.28s-.09,0-.13-.03c-.56-.25-1.11-.53-1.65-.81-.15-.08-.21-.26-.13-.41.08-.15.26-.21.41-.13.53.28,1.08.55,1.62.8.15.07.22.25.15.4-.05.11-.16.18-.28.18Zm-4.26-2.34c-.06,0-.11-.02-.17-.05-.51-.33-1.02-.68-1.51-1.05-.14-.1-.16-.29-.07-.43.1-.14.29-.17.42-.07.49.36.99.7,1.49,1.03.14.09.18.28.09.42-.06.09-.16.14-.25.14Zm-3.87-2.95c-.07,0-.14-.02-.2-.08-.46-.4-.91-.83-1.34-1.26-.12-.12-.12-.31,0-.43.12-.12.31-.12.43,0,.43.42.87.84,1.32,1.23.13.11.14.3.03.43-.06.07-.14.1-.23.1Zm-3.39-3.48c-.09,0-.17-.04-.23-.11-.39-.47-.78-.95-1.14-1.44-.1-.13-.07-.32.06-.43.13-.1.33-.07.43.06.36.48.74.95,1.12,1.41.11.13.09.32-.04.43-.06.05-.13.07-.2.07Zm-2.84-3.94c-.1,0-.2-.05-.26-.14-.32-.52-.63-1.06-.92-1.59-.08-.15-.02-.33.12-.41.15-.08.33-.02.41.12.28.52.59,1.05.9,1.56.09.14.04.33-.1.42-.05.03-.1.05-.16.05Zm-2.23-4.31c-.12,0-.23-.07-.28-.19-.24-.56-.46-1.14-.67-1.71-.06-.16.02-.33.18-.39.16-.05.33.03.39.18.2.56.42,1.13.66,1.68.07.15,0,.33-.16.4-.04.02-.08.02-.12.02Zm-1.56-4.6c-.14,0-.26-.09-.29-.23-.15-.59-.29-1.2-.41-1.79-.03-.16.07-.32.24-.36.17-.04.32.07.36.24.12.59.25,1.18.4,1.76.04.16-.06.33-.22.37-.03,0-.05,0-.08,0Zm-.86-4.78c-.15,0-.29-.12-.3-.27-.06-.6-.11-1.22-.14-1.83,0-.17.12-.31.29-.32.16-.03.31.12.32.29.03.6.08,1.21.14,1.8.02.17-.1.32-.27.33-.01,0-.02,0-.03,0Zm-.15-4.86h-.01c-.17,0-.3-.15-.29-.32.03-.61.07-1.23.13-1.84.02-.17.16-.28.33-.27.17.02.29.17.27.33-.06.6-.1,1.2-.13,1.8,0,.16-.14.29-.3.29Zm.56-4.83s-.04,0-.06,0c-.16-.03-.27-.19-.24-.36.12-.6.25-1.21.4-1.8.04-.16.21-.26.37-.22.16.04.26.21.22.37-.15.58-.28,1.17-.39,1.76-.03.15-.16.25-.3.25Zm1.27-4.69s-.07,0-.1-.02c-.16-.06-.24-.23-.18-.39.2-.58.43-1.15.66-1.72.06-.16.24-.23.4-.16.15.06.23.24.16.4-.23.55-.45,1.12-.65,1.69-.04.12-.16.2-.29.2Z"/>
        <polygon class="cls-4" points="77.67 187.79 79.6 189.29 79.86 191.73 83.43 187.17 77.67 187.79"/>
      </g>
      <g>
        <path class="cls-2" d="m85.15,155.76l2.53.53c-.04-.27-.07-.54-.12-.8l-2.65-.56c.09.27.17.55.25.82Z"/>
        <path class="cls-2" d="m67.77,141.85c1.39.06,2.75.27,4.06.62l2.54-2.83c.58.21,1.15.44,1.71.69l.04-.39c-.98-.52-2-.97-3.06-1.35l-2.54,2.83c-1.04-.28-2.11-.46-3.2-.56l.45.99Z"/>
        <path class="cls-2" d="m79.65,159.25c-.42-3.8-2.48-7.01-5.39-9.04,2.2,2.01,3.72,4.79,4.08,7.99.78,7-4.27,13.3-11.27,14.08-3.2.36-6.25-.52-8.69-2.22,2.62,2.39,6.2,3.7,10,3.27,7-.78,12.04-7.08,11.27-14.08Z"/>
        <path class="cls-2" d="m78.06,145.45c-.32-.28-.65-.55-.99-.8v.12c.33.22.66.45.99.69Z"/>
        <path class="cls-2" d="m80.26,147.33l3.24-1.06c-.3-.4-.61-.79-.94-1.17l-3.51,1.14c.41.35.82.71,1.2,1.09Z"/>
        <path class="cls-2" d="m44.82,163.12c-.06-.56-.1-1.12-.12-1.67l3.46-1.58c.06-1.39.27-2.75.62-4.06l-2.83-2.54c.37-1.06.82-2.08,1.35-3.06l3.79.36c.73-1.16,1.59-2.23,2.56-3.2l-1.18-3.62c.84-.72,1.74-1.39,2.69-1.98l3.1,2.2c1.2-.63,2.48-1.13,3.82-1.49l.79-3.72c.54-.1,1.1-.18,1.66-.25.29-.03.58-.04.86-.06l-.51-1.11c-.55.02-1.11.06-1.67.12s-1.11.14-1.66.25l-.79,3.72c-1.34.36-2.62.86-3.82,1.49l-3.1-2.2c-.95.6-1.85,1.26-2.69,1.98l1.18,3.62c-.97.97-1.82,2.04-2.56,3.2l-3.79-.36c-.52.98-.97,2-1.35,3.06l2.83,2.54c-.35,1.31-.56,2.66-.62,4.06l-3.46,1.58c.02.55.06,1.11.12,1.67s.14,1.11.25,1.66l1.19.25c-.04-.29-.1-.57-.13-.86Z"/>
        <path class="cls-2" d="m56.88,176.56c-.46-.29-.89-.6-1.32-.93l-.35,3.67c.44.23.89.45,1.35.66l.32-3.39Z"/>
        <path class="cls-2" d="m66.18,179.48c-.29-.01-.57-.03-.86-.06l1.13,2.47c.27,0,.54-.04.8-.06l-1.07-2.35Z"/>
        <path class="cls-2" d="m53.68,174l-.11.04c.33.27.66.54,1,.79-.3-.27-.6-.54-.89-.82Z"/>
        <path class="cls-2" d="m48.08,172.49l2.2-3.1c-.63-1.2-1.13-2.48-1.49-3.82l-1.07-.23c.33,1.04.75,2.05,1.24,3l-2.2,3.1c.6.95,1.26,1.85,1.98,2.69l.38-.12c-.37-.49-.72-1-1.05-1.52Z"/>
      </g>
    </g>
  </g>
</svg>