<?xml version="1.0" encoding="UTF-8"?>
<svg id="Capa_2" data-name="Capa 2" xmlns="http://www.w3.org/2000/svg" viewBox="0 0 370.75 59.12">
  <defs>
    <style>
      .cls-1 {
        fill: #029da4;
      }

      .cls-2 {
        fill: #fff;
      }
    </style>
  </defs>
  <g id="Capa_1-2" data-name="Capa 1">
    <path class="cls-1" d="m29.56,0h341.19v59.12H29.56C13.25,59.12,0,45.88,0,29.56H0C0,13.25,13.25,0,29.56,0Z" transform="translate(370.75 59.12) rotate(-180)"/>
    <g>
      <path class="cls-2" d="m55.47,21.15h2.8v12.01h4.07v2.66h-6.86v-14.67Z"/>
      <path class="cls-2" d="m68.94,21.15h2.82l5.66,14.67h-2.9l-1.14-3.02h-5.99l-1.21,3.02h-2.9l5.66-14.67Zm1.43,3.88l-1.94,5.03h3.88l-1.94-5.03Z"/>
      <path class="cls-2" d="m89.78,21.15h2.82l5.66,14.67h-2.9l-1.14-3.02h-5.99l-1.21,3.02h-2.9l5.66-14.67Zm1.43,3.88l-1.94,5.03h3.88l-1.94-5.03Z"/>
      <path class="cls-2" d="m101.51,31.59c.67,1.27,1.45,1.92,2.43,1.92s1.7-.61,1.7-1.37c0-.53-.35-1.14-.94-1.63-3.04-2.55-4.84-3.94-4.84-6.03s1.82-3.7,4.02-3.7c1.86,0,3.09,1,4.25,2.35l-2.08,1.84c-.69-.98-1.41-1.51-2.21-1.51-.74,0-1.25.43-1.25,1.02s.43.94.86,1.31c2.74,2.41,4.92,3.56,4.92,6.23,0,2.45-1.84,4.17-4.5,4.17-2.14,0-3.64-1.04-4.72-3.19l2.35-1.41Z"/>
      <path class="cls-2" d="m115.53,21.15h2.82l5.66,14.67h-2.9l-1.14-3.02h-5.99l-1.21,3.02h-2.9l5.66-14.67Zm1.43,3.88l-1.94,5.03h3.88l-1.94-5.03Z"/>
      <path class="cls-2" d="m127.58,21.15h2.74l3.39,10.24,3.43-10.24h2.7l2.47,14.67h-2.7l-1.57-9.28-3.13,9.28h-2.45l-3.09-9.28-1.61,9.28h-2.72l2.53-14.67Z"/>
      <path class="cls-2" d="m144.56,35.82v-14.67h2.68c1.53,0,2.78.16,3.7.72,1.1.65,1.76,1.8,1.76,3.06,0,1.16-.53,2.04-1.53,2.82,1.72.82,2.58,2,2.58,3.78,0,1.21-.41,2.21-1.27,3.02-.98.96-2.04,1.27-3.53,1.27h-4.37Zm2.8-12.01v3.08h.61c1.31,0,1.98-.57,1.98-1.59,0-.94-.63-1.49-1.88-1.49h-.71Zm0,5.58v3.78h.94c1.76,0,2.7-.49,2.7-1.74s-.98-2.04-2.94-2.04h-.69Z"/>
      <path class="cls-2" d="m156.42,21.15h2.8v12.01h4.07v2.66h-6.86v-14.67Z"/>
      <path class="cls-2" d="m165.43,21.15h8.01v2.74h-5.21v2.62h5.21v2.74h-5.21v3.84h5.21v2.74h-8.01v-14.67Z"/>
      <path class="cls-2" d="m180.51,21.15h2.82l5.66,14.67h-2.9l-1.14-3.02h-5.99l-1.21,3.02h-2.9l5.66-14.67Zm1.43,3.88l-1.94,5.03h3.88l-1.94-5.03Z"/>
      <path class="cls-2" d="m211.46,28.36c0,1.98-.29,3.64-1.76,5.37-1.43,1.68-3.21,2.45-5.54,2.45-4.88,0-7.95-3.62-7.95-7.78s3.23-7.6,7.87-7.6c2.9,0,4.76,1.02,6.33,2.74l-1.96,1.94c-1.25-1.31-2.62-2-4.35-2-2.94,0-5.07,2.25-5.07,4.96s2.31,5.07,5.25,5.07c1.94,0,3.23-.8,4.03-2.49h-4.25v-2.66h7.4Z"/>
      <path class="cls-2" d="m214.06,21.15h8.01v2.74h-5.21v2.62h5.21v2.74h-5.21v3.84h5.21v2.74h-8.01v-14.67Z"/>
      <path class="cls-2" d="m224.66,21.15h2.68l6.29,9.64v-9.64h2.8v14.67h-2.7l-6.27-9.62v9.62h-2.8v-14.67Z"/>
      <path class="cls-2" d="m239.81,21.15h8.01v2.74h-5.21v2.62h5.21v2.74h-5.21v3.84h5.21v2.74h-8.01v-14.67Z"/>
      <path class="cls-2" d="m250.59,21.15h3.41c1.86,0,3.17.22,4.15,1.19.74.72,1.18,1.82,1.18,3.06,0,1.92-.96,3.23-2.82,3.9l3.47,6.52h-3.04l-3.29-6.21h-.27v6.21h-2.8v-14.67Zm2.8,5.74h1.29c1.27,0,1.92-.51,1.92-1.51s-.67-1.49-2-1.49h-1.21v3Z"/>
      <path class="cls-2" d="m266.73,21.15h2.82l5.66,14.67h-2.9l-1.14-3.02h-5.99l-1.21,3.02h-2.9l5.66-14.67Zm1.43,3.88l-1.94,5.03h3.88l-1.94-5.03Z"/>
      <path class="cls-2" d="m277.38,21.15h2.8v12.01h4.07v2.66h-6.86v-14.67Z"/>
    </g>
  </g>
</svg>