<?xml version="1.0" encoding="UTF-8"?>
<svg id="Capa_2" data-name="Capa 2" xmlns="http://www.w3.org/2000/svg" xmlns:xlink="http://www.w3.org/1999/xlink" viewBox="0 0 696.19 415.38">
  <defs>
    <style>
      .cls-1 {
        fill: none;
      }

      .cls-2 {
        fill: url(#linear-gradient);
      }

      .cls-3 {
        clip-path: url(#clippath);
      }

      .cls-4 {
        fill: #fff;
      }

      .cls-5 {
        fill: #ce1327;
      }

      .cls-6 {
        filter: url(#drop-shadow-1);
      }

      .cls-7 {
        fill: url(#linear-gradient-3);
      }

      .cls-8 {
        fill: url(#linear-gradient-4);
      }

      .cls-9 {
        fill: url(#linear-gradient-2);
      }

      .cls-10 {
        fill: url(#linear-gradient-5);
      }
    </style>
    <clipPath id="clippath">
      <rect class="cls-1" x="259.48" y="61.34" width="436.71" height="284.32"/>
    </clipPath>
    <filter id="drop-shadow-1" filterUnits="userSpaceOnUse">
      <feOffset dx="3" dy="4"/>
      <feGaussianBlur result="blur" stdDeviation="5"/>
      <feFlood flood-color="#010101" flood-opacity=".25"/>
      <feComposite in2="blur" operator="in"/>
      <feComposite in="SourceGraphic"/>
    </filter>
    <linearGradient id="linear-gradient" x1="66.6" y1="1836.53" x2="355.54" y2="1836.53" gradientTransform="translate(-412.27 -1523.74) rotate(-20.09)" gradientUnits="userSpaceOnUse">
      <stop offset="0" stop-color="#b4202e"/>
      <stop offset="1" stop-color="#e62743"/>
    </linearGradient>
    <linearGradient id="linear-gradient-2" x1="-248.91" y1="1923.68" x2="140.97" y2="1923.68" xlink:href="#linear-gradient"/>
    <linearGradient id="linear-gradient-3" x1="55.02" y1="1794.15" x2="343.96" y2="1794.15" gradientTransform="translate(-412.27 -1523.74) rotate(-20.09)" gradientUnits="userSpaceOnUse">
      <stop offset="0" stop-color="#015433"/>
      <stop offset=".45" stop-color="#008863"/>
      <stop offset=".98" stop-color="#054c33"/>
    </linearGradient>
    <linearGradient id="linear-gradient-4" x1="55.2" y1="1835.55" x2="129.2" y2="1835.55" gradientTransform="translate(-412.27 -1523.74) rotate(-20.09)" gradientUnits="userSpaceOnUse">
      <stop offset="0" stop-color="#013a24"/>
      <stop offset=".45" stop-color="#036e50"/>
      <stop offset=".98" stop-color="#053323"/>
    </linearGradient>
    <linearGradient id="linear-gradient-5" x1="-260.49" y1="1881.3" x2="129.39" y2="1881.3" xlink:href="#linear-gradient-3"/>
  </defs>
  <g id="Capa_1-2" data-name="Capa 1">
    <g class="cls-3">
      <g class="cls-6">
        <g>
          <path class="cls-2" d="m530.57,35.82c-15.68,25.38-41.99,42.65-69.21,55.1-27.23,12.45-56.12,20.92-83.2,33.68-27.56,12.99-53,30.33-75.14,51.24h0c-12.08,11.6-15.32,20.31-13.29,25.76.2.52.44,1.03.74,1.5l12.72,17.91c-.3-.47-.54-.97-.74-1.5-2.03-5.45,1.21-14.16,13.29-25.76h0c22.14-20.92,47.58-38.25,75.14-51.24,27.08-12.76,55.98-21.23,83.2-33.68,27.23-12.45,53.53-29.72,69.21-55.1l-12.72-17.91Z"/>
          <path class="cls-5" d="m290.46,203.1c.89,1.41,2.2,2.52,3.81,2.98,2.15.62,4.46.37,6.65-.08,16.39-3.39,30.87-15.41,47.08-19.61,5.43-1.4,8.11-.6,9.32.95l12.72,17.91c-1.22-1.55-3.9-2.35-9.33-.95-16.21,4.19-30.69,16.22-47.08,19.61-2.19.45-4.5.71-6.65.08-1.61-.47-2.93-1.57-3.81-2.98l-12.72-17.91Z"/>
          <path class="cls-9" d="m357.33,187.34c1.67,2.13.59,5.66.09,6.87-13.6,33.15-58.28,65.33-97.31,85.7-39.03,20.36-81.1,33.99-121.89,50.5-40.79,16.51-81.16,36.49-112.79,67.07l12.72,17.91c31.63-30.58,72.01-50.56,112.79-67.07,40.78-16.51,82.86-30.13,121.89-50.5,39.03-20.36,83.71-52.55,97.31-85.7.51-1.21,1.58-4.74-.09-6.87l-12.72-17.91Z"/>
        </g>
        <g>
          <path class="cls-4" d="m517.85,17.91c-15.68,25.38-41.99,42.65-69.21,55.1-27.23,12.45-56.12,20.92-83.2,33.68-27.56,12.99-53,30.33-75.14,51.24h0c-12.08,11.6-15.32,20.31-13.29,25.76.2.52.44,1.03.74,1.5l12.72,17.91c-.3-.47-.54-.97-.74-1.5-2.03-5.45,1.21-14.16,13.29-25.76h0c22.14-20.92,47.58-38.25,75.14-51.24,27.08-12.76,55.98-21.23,83.2-33.68,27.23-12.45,53.53-29.72,69.21-55.1l-12.72-17.91Z"/>
          <path class="cls-4" d="m277.75,185.19c.89,1.41,2.2,2.52,3.81,2.98,2.15.62,4.46.37,6.65-.08,16.39-3.39,30.87-15.41,47.08-19.61,5.43-1.4,8.11-.6,9.32.95l12.72,17.91c-1.22-1.55-3.9-2.35-9.32-.95-16.21,4.19-30.69,16.22-47.08,19.61-2.19.45-4.5.71-6.65.08-1.61-.47-2.93-1.57-3.81-2.98l-12.72-17.91Z"/>
          <path class="cls-4" d="m344.61,169.43c1.67,2.13.59,5.66.09,6.87-13.6,33.15-58.28,65.33-97.31,85.7-39.03,20.36-81.1,33.99-121.89,50.5-40.78,16.51-81.16,36.49-112.79,67.07l12.72,17.91c31.63-30.58,72.01-50.56,112.79-67.07,40.78-16.51,82.86-30.13,121.89-50.5,39.03-20.36,83.71-52.55,97.31-85.7.51-1.21,1.58-4.74-.09-6.87l-12.72-17.91Z"/>
        </g>
        <g>
          <path class="cls-7" d="m505.14,0c-15.68,25.38-41.99,42.65-69.21,55.1-27.23,12.45-56.12,20.92-83.2,33.68-27.56,12.99-53,30.33-75.14,51.24h0c-12.08,11.6-15.32,20.31-13.29,25.76.2.52.44,1.03.74,1.5l12.72,17.91c-.3-.47-.54-.97-.74-1.5-2.03-5.45,1.21-14.16,13.29-25.76h0c22.14-20.92,47.58-38.25,75.14-51.24,27.08-12.76,55.98-21.23,83.2-33.68,27.23-12.45,53.53-29.72,69.21-55.1l-12.72-17.91Z"/>
          <path class="cls-8" d="m265.03,167.28c.89,1.41,2.2,2.52,3.81,2.98,2.15.62,4.46.37,6.65-.08,16.39-3.39,30.87-15.41,47.08-19.61,5.43-1.4,8.11-.6,9.32.95l12.72,17.91c-1.22-1.55-3.9-2.35-9.32-.95-16.21,4.19-30.69,16.22-47.08,19.61-2.19.45-4.5.71-6.65.08-1.61-.47-2.93-1.57-3.81-2.98l-12.72-17.91Z"/>
          <path class="cls-10" d="m331.9,151.52c1.67,2.13.59,5.66.09,6.87-13.6,33.15-58.28,65.33-97.31,85.7-39.03,20.36-81.1,33.99-121.89,50.5-40.79,16.51-81.16,36.49-112.79,67.07l12.72,17.91c31.63-30.58,72.01-50.56,112.79-67.07,40.79-16.51,82.86-30.13,121.89-50.5,39.03-20.36,83.71-52.55,97.31-85.7.51-1.21,1.58-4.74-.09-6.87l-12.72-17.91Z"/>
        </g>
      </g>
    </g>
  </g>
</svg>