<?xml version="1.0" encoding="UTF-8"?>
<svg xmlns="http://www.w3.org/2000/svg" xmlns:xlink="http://www.w3.org/1999/xlink" viewBox="0 0 176.85 104.73">
  <defs>
    <style>
      .cls-1, .cls-2, .cls-3 {
        fill: #fff;
      }

      .cls-1, .cls-4, .cls-5 {
        mix-blend-mode: screen;
        opacity: .3;
      }

      .cls-6 {
        fill: #f6cfdf;
      }

      .cls-7 {
        fill: #fadfb6;
      }

      .cls-4 {
        fill: url(#linear-gradient-6);
      }

      .cls-8 {
        fill: url(#linear-gradient);
      }

      .cls-8, .cls-9, .cls-10, .cls-11, .cls-12 {
        mix-blend-mode: multiply;
        opacity: .8;
      }

      .cls-9 {
        fill: url(#linear-gradient-5);
      }

      .cls-10 {
        fill: url(#linear-gradient-3);
      }

      .cls-11 {
        fill: url(#linear-gradient-2);
      }

      .cls-12 {
        fill: url(#linear-gradient-4);
      }

      .cls-13 {
        opacity: .7;
      }

      .cls-14 {
        isolation: isolate;
      }

      .cls-3 {
        stroke: #1d1d1b;
        stroke-dasharray: 0 3;
        stroke-miterlimit: 10;
      }
    </style>
    <linearGradient id="linear-gradient" x1="-4274.95" y1="5057.35" x2="-4280.47" y2="5058.34" gradientTransform="translate(-5030.46 -4720.2) rotate(-90.46) scale(1.11 1)" gradientUnits="userSpaceOnUse">
      <stop offset="0" stop-color="#f6cfdf"/>
      <stop offset=".65" stop-color="#fff"/>
    </linearGradient>
    <linearGradient id="linear-gradient-2" x1="-4274.5" y1="5040.87" x2="-4278.64" y2="5041.16" xlink:href="#linear-gradient"/>
    <linearGradient id="linear-gradient-3" x1="-4284.39" y1="5072.68" x2="-4289.96" y2="5073.07" gradientTransform="translate(-5030.46 -4720.2) rotate(-90.46) scale(1.11 1)" gradientUnits="userSpaceOnUse">
      <stop offset="0" stop-color="#fff"/>
      <stop offset=".19" stop-color="#fbeaf1"/>
      <stop offset=".4" stop-color="#f8dae6"/>
      <stop offset=".65" stop-color="#f6d1e0"/>
      <stop offset="1" stop-color="#f6cfdf"/>
    </linearGradient>
    <linearGradient id="linear-gradient-4" x1="-4285.34" y1="5058.1" x2="-4289.76" y2="5058.4" xlink:href="#linear-gradient-3"/>
    <linearGradient id="linear-gradient-5" x1="-4273.82" y1="5086.44" x2="-4283.43" y2="5087.1" xlink:href="#linear-gradient"/>
    <linearGradient id="linear-gradient-6" x1="-4290.75" y1="5062.84" x2="-4295.87" y2="5058.27" gradientTransform="translate(-5030.46 -4720.2) rotate(-90.46) scale(1.11 1)" gradientUnits="userSpaceOnUse">
      <stop offset=".22" stop-color="#f6cfdf"/>
      <stop offset=".27" stop-color="#eac5d4"/>
      <stop offset=".34" stop-color="#cdacba"/>
      <stop offset=".44" stop-color="#9d848e"/>
      <stop offset=".56" stop-color="#5a4c52"/>
      <stop offset=".7" stop-color="#070606"/>
      <stop offset=".71" stop-color="#010101"/>
    </linearGradient>
  </defs>
  <g class="cls-14">
    <g id="Capa_2" data-name="Capa 2">
      <g id="Capa_1-2" data-name="Capa 1">
        <g>
          <rect class="cls-3" x="42.81" y="-29.32" width="91.24" height="175.85" transform="translate(147.03 -29.82) rotate(90)"/>
          <rect class="cls-7" x="10.5" y="21.72" width="155.85" height="73.79"/>
          <g class="cls-13">
            <path class="cls-6" d="m117.21.18c.61,3.79,4.72,3.76,4.51,7.41.14.59.2,1.18.26,1.76,0,.57-1.89,1.96-1.89,2.51,0,.42,0,.83,0,1.25,0,.42,1.86,1.2,1.86,1.62,0,.96,0,1.92,0,2.85.01.72-1.33,2.77-1.35,4.46-.02,2.14,1.27,2.79.59,3.86-1.13,1.78-6.92,1.58-11.56,1.4-4.73-.18-9.51-.06-14.32-.18-.59-.01-1.18-.03-1.78-.05-3.28-.08-7.39-.05-10.69-.23-.59,0-1.18-.01-1.77-.02-5.93-.04-11.84.07-17.66.58-.56,0-1.1,0-1.6.01-3.01.02-4.82.04-4.82.04,0,0,0-.55-.01-1.49.26-.68-.66-1.6-.48-2.28.19-.68,1.48-1.1,1.59-1.78.32-1.84.41-3.69.36-5.56-.03-1.11-.85-1.33-.96-2.47-.05-.54.62-1.99.55-2.54-.03-.21-2.49-1.14-2.52-1.35-.12-.9.4-2.03.27-2.95-.27-1.88,1.23-2.86,1-4.84,0-.99-.01-1.54-.01-1.54,0,0,4.53-.04,11.21-.09.35,0,.71,0,1.07,0,7.94.5,15.59.5,23.21.33.54-.01,1.09-.02,1.62-.02,8.82,3.5,13.61-1.89,22.29-.7.65,0,1.01,0,1.01,0Z"/>
            <path class="cls-8" d="m63.63,10.97c4.04-.27,2.39,1.39,10.42-2.66,8.03-4.05,14.88-3.64,16.59-2.95,1.72.69,10.14,2.45,10.14,2.45,0,0-9.8-.67-13.48.11-3.68.78-7.85,1.57-10.89,3.09-3.03,1.52-12.79-.04-12.79-.04Z"/>
            <path class="cls-11" d="m57.6,7.99c2.23-.49,5.36-1.19,6-1.39,1.03-.32,10.75-2.27,8.6-2.26-2.14.02-6.73.05-7.77.06-.88,0-4.24,1.49-7.19,1.14.12.82.24,1.64.35,2.45Z"/>
            <path class="cls-10" d="m86.25,19.08c4.07,1.22,6.19-2.86,8.73-2.73,2.54.13,10.16-2.4,12.68-1.73l-8.74,2.27s-3.44-.39-5.2,1.19c-1.76,1.58-4.46,1.91-4.46,1.91l-3.01-.91Z"/>
            <path class="cls-12" d="m75.82,20.1s2.68-3.33,4.2-2.7c1.53.63,4.56-.36,4.94-.04.38.32,4.02.61,4.02.61,0,0-3.35-1.53-4.7-1.37-1.35.17-4.77.02-5.41.03-.63.01-3.06,3.47-3.06,3.47Z"/>
            <path class="cls-9" d="m112.91,4.02c-2.44,1.42-8.02,4.18-13.09,3.18,0,0,7.78,1.32,9.68,1.32,1.9,0,3.42-.98,6.01-1.45,1.91-.34,4.98,1.71,6.48,2.82,0-.18,0-.36,0-.54-.06-.58-.12-1.16-.26-1.76.1-1.73-.77-2.63-1.78-3.51-1.66-.14-5.11-1.2-7.03-.07Z"/>
            <g class="cls-5">
              <path class="cls-2" d="m66.01,15.92c1.16-.18,2.37-.24,3.41-.82.51-.3,1.01-.72,1.57-.99.55-.29,1.12-.52,1.69-.72,1.14-.41,2.3-.69,3.46-.93,1.17-.23,2.36-.38,3.56-.32,2.4.19,4.66,1.09,6.97.7,1.15-.13,2.3-.45,3.47-.66,1.16-.19,2.39-.27,3.52.17-1.16-.29-2.33-.13-3.47.17-1.14.28-2.28.65-3.46.86-2.4.51-4.77-.42-7.05-.54-2.3-.15-4.62.45-6.89,1.07-.56.17-1.12.36-1.66.61-.55.23-1.03.61-1.6.9-.57.27-1.17.36-1.76.43-.59.06-1.18.08-1.77.08Z"/>
            </g>
            <path class="cls-1" d="m63.83,19.44c-.7.08-1.43.18-2.1.23-.68.04-1.39.02-2.09,0-.42-.02-.83-.05-1.25-.08-.04.52-.1,1.04-.17,1.55.48-.02.96-.04,1.44-.07.72-.05,1.44-.11,2.17-.24.73-.14,1.41-.31,2.12-.47l8.37-1.97-8.48,1.04Z"/>
            <path class="cls-4" d="m82.09,23.72l2.51,3.19c2.93.1,6.22.09,8.95.16l-7.25-2.21s-3.28-2.79-3.87-2.55c-.59.24-6.59.04-6.59.04l6.25,1.37Z"/>
          </g>
        </g>
      </g>
    </g>
  </g>
</svg>