<?xml version="1.0" encoding="UTF-8"?>
<svg id="Capa_2" data-name="Capa 2" xmlns="http://www.w3.org/2000/svg" viewBox="0 0 536.07 312.82">
  <defs>
    <style>
      .cls-1 {
        fill: #f0f2f3;
      }
    </style>
  </defs>
  <g id="Capa_1-2" data-name="Capa 1">
    <path class="cls-1" d="m536.03,312.82l.04-310.57h-23.05s0,9.58,0,9.58c2.31,1.37,3.91,3.52,3.91,6.08,0,4.19-4.05,7.58-9.04,7.58-4.99,0-9.03-3.4-9.03-7.58,0-2.56,1.61-4.7,3.92-6.08v-.09l-.27-2.78.27-2.85-.79-1.56.98-2.86-33.57.55v9.59c2.31,1.37,3.75,2.2,3.75,4.76,0,4.19-3.26,8.68-8.25,8.68-4.99,0-9.03-3.4-9.03-7.59,0-2.56.99-4.48,3.3-5.86V2.23s-5.36,1.28-14.39,1.27c-6.81,0-17.37-1.12-17.37-1.12l-1.61,9.43c2.31,1.37,3.91,3.52,3.91,6.08,0,4.19-4.62,6.21-9.61,6.21-4.99,0-8.46-2.03-8.45-6.22,0-2.56,1.61-4.7,3.92-6.08V2.21s-32.88-.01-32.88-.01l.1.71-.26.86-.32.83.19,1.36-.19,1.11.32,1.41-.32,3.29c2.31,1.37,3.91,3.52,3.91,6.08,0,4.19-4.05,7.58-9.04,7.58-4.99,0-9.03-3.4-9.03-7.58,0-2.56,1.61-4.7,3.92-6.08v-.09l.24-4.13-.49-2.04-.24-3.32-32.49.49-.4,9.09c2.31,1.37,3.91,3.52,3.91,6.08,0,4.19-4.05,7.58-9.03,7.58-4.99,0-9.03-3.4-9.03-7.58,0-2.56,1.61-4.7,3.92-6.08l.89-10.01s-4.74.42-7.2.42c-6.77,0-27.06,0-27.06,0v9.59c2.3,1.37,3.91,3.52,3.91,6.08,0,4.19-4.05,7.58-9.04,7.58-4.99,0-9.03-3.4-9.03-7.58,0-2.56,1.61-4.7,3.92-6.08V2.17s-13.58-.17-18.93-.17c-7.77,0-15.12-2-15.12-2l.68,11.75c2.99.58,3.91,3.52,3.91,6.08,0,4.19-4.57,6.1-9.56,6.1-4.99,0-8.5-1.92-8.5-6.11,0-2.56,1.61-4.7,3.92-6.08l-2.1-9.59h-31.27s0,9.58,0,9.58c2.31,1.38,3.91,3.52,3.91,6.08,0,4.19-4.05,7.58-9.04,7.58-4.99,0-9.03-3.4-9.03-7.59,0-2.56,1.61-4.7,3.92-6.08V2.14s-33.37-.01-33.37-.01v9.59c2.31,1.37,3.91,3.52,3.91,6.08,0,4.19-4.05,7.58-9.04,7.58-4.99,0-9.03-3.4-9.03-7.59,0-2.56,1.61-4.7,3.92-6.08V2.12s-30.16,0-30.16,0l-2.67,4.04-.54,5.54c2.31,1.37,3.91,3.52,3.91,6.08,0,4.19-4.05,7.58-9.03,7.58-4.99,0-9.03-3.4-9.03-7.59,0-2.56,1.61-4.7,3.92-6.08V2.11s-29.74,0-29.74,0h-3.63s.34,3.52.34,3.52l-.16.97.32,2.16-.32,2.45-.18.5c2.31,1.37,3.91,3.52,3.91,6.08,0,4.19-4.05,7.58-9.04,7.58-4.99,0-9.03-3.4-9.03-7.59,0-2.56,1.61-4.7,3.92-6.08v-2.93s0-1.31,0-1.31l-.69-1.42.69-2.18-1.21-1.76h-32.16s0,9.58,0,9.58c2.31,1.37,3.91,3.52,3.91,6.08,0,4.19-4.05,7.58-9.04,7.58-4.99,0-9.03-3.4-9.03-7.59,0-2.56,1.61-4.7,3.92-6.08V2.08s-23.04,0-23.04,0C.04,2.07.87,7.93.87,10.3c0,4.86-.83,12.58-.83,19.98-.01,37.46-.03,282.35-.03,282.35l536.03.18Z"/>
  </g>
</svg>