<?xml version="1.0" encoding="UTF-8"?>
<svg xmlns="http://www.w3.org/2000/svg" viewBox="0 0 231.19 246.86">
  <defs>
    <style>
      .cls-1 {
        fill: #fadfb6;
      }

      .cls-2 {
        fill: #119da4;
      }

      .cls-3 {
        fill: #d0d1d3;
        mix-blend-mode: multiply;
      }

      .cls-4 {
        isolation: isolate;
      }

      .cls-5 {
        fill: #3765ae;
        opacity: .8;
      }
    </style>
  </defs>
  <g class="cls-4">
    <g id="Capa_2" data-name="Capa 2">
      <g id="Capa_1-2" data-name="Capa 1">
        <g>
          <g>
            <polygon class="cls-3" points="231.19 219.52 231.19 219.52 231.03 19.29 3.64 19.47 3.82 246.86 204.05 246.7 231.19 219.52 231.19 219.52 231.19 219.52"/>
            <polygon class="cls-2" points="227.39 15.17 0 15.36 .19 242.75 200.42 242.59 227.55 215.41 227.39 15.17"/>
            <polygon class="cls-1" points="200.4 215.43 200.42 242.59 227.55 215.41 200.4 215.43"/>
          </g>
          <path class="cls-5" d="m16.01,86.98c2.87.05,5.72-.28,8.59-.25,1.03.01,2.41-.04,3.51.2L29.6.1c-2.14.59-5.62.12-7.31.12-5.36,0-10.73-.03-16.09-.22l-1.49,86.59c3.69-.42,7.53.32,11.3.39Z"/>
        </g>
      </g>
    </g>
  </g>
</svg>