<?xml version="1.0" encoding="UTF-8"?>
<svg xmlns="http://www.w3.org/2000/svg" viewBox="0 0 217.24 233.58">
  <defs>
    <style>
      .cls-1 {
        fill: #e7f4f8;
      }

      .cls-2 {
        fill: #d9ecee;
      }

      .cls-3 {
        fill: #d0d1d3;
        mix-blend-mode: multiply;
      }

      .cls-4 {
        isolation: isolate;
      }

      .cls-5 {
        fill: #e0c4a3;
        opacity: .8;
      }
    </style>
  </defs>
  <g class="cls-4">
    <g id="Capa_2" data-name="Capa 2">
      <g id="Capa_1-2" data-name="Capa 1">
        <g>
          <rect class="cls-3" x="3.3" y="19.64" width="213.93" height="213.93"/>
          <rect class="cls-1" x=".14" y="16.19" width="213.93" height="213.93"/>
          <g>
            <g>
              <rect class="cls-2" x="214.03" y="16.2" width=".08" height="213.93"/>
              <path class="cls-2" d="m214.2,230.17h-.27s0-.04,0-.04l.02-213.97h.27s0,.04,0,.04l-.02,213.97Zm-.18-.08h.1s.02-213.84.02-213.84h-.1s-.02,213.84-.02,213.84Z"/>
            </g>
            <g>
              <rect class="cls-2" x="204.73" y="16.2" width=".08" height="213.93"/>
              <path class="cls-2" d="m204.9,230.17h-.27s0-.04,0-.04l.02-213.97h.27s0,.04,0,.04l-.02,213.97Zm-.18-.08h.1s.02-213.84.02-213.84h-.1s-.02,213.84-.02,213.84Z"/>
            </g>
            <g>
              <rect class="cls-2" x="195.43" y="16.2" width=".08" height="213.93"/>
              <path class="cls-2" d="m195.59,230.17h-.27s0-.04,0-.04l.02-213.97h.27s0,.04,0,.04l-.02,213.97Zm-.18-.08h.1s.02-213.84.02-213.84h-.1s-.02,213.84-.02,213.84Z"/>
            </g>
            <g>
              <rect class="cls-2" x="186.13" y="16.2" width=".08" height="213.93"/>
              <path class="cls-2" d="m186.29,230.17h-.27s0-.04,0-.04l.02-213.97h.27s0,.04,0,.04l-.02,213.97Zm-.18-.08h.1s.02-213.84.02-213.84h-.1s-.02,213.84-.02,213.84Z"/>
            </g>
            <g>
              <rect class="cls-2" x="176.82" y="16.2" width=".08" height="213.93"/>
              <path class="cls-2" d="m176.99,230.17h-.27s0-.04,0-.04l.02-213.97h.27s0,.04,0,.04l-.02,213.97Zm-.18-.08h.1s.02-213.84.02-213.84h-.1s-.02,213.84-.02,213.84Z"/>
            </g>
            <g>
              <rect class="cls-2" x="167.52" y="16.2" width=".08" height="213.93"/>
              <path class="cls-2" d="m167.69,230.17h-.27s0-.04,0-.04l.02-213.97h.27s0,.04,0,.04l-.02,213.97Zm-.18-.08h.1s.02-213.84.02-213.84h-.1s-.02,213.84-.02,213.84Z"/>
            </g>
            <g>
              <rect class="cls-2" x="158.22" y="16.2" width=".08" height="213.93"/>
              <path class="cls-2" d="m158.39,230.17h-.27s0-.04,0-.04l.02-213.97h.27s0,.04,0,.04l-.02,213.97Zm-.18-.08h.1s.02-213.84.02-213.84h-.1s-.02,213.84-.02,213.84Z"/>
            </g>
            <g>
              <rect class="cls-2" x="148.92" y="16.2" width=".08" height="213.93"/>
              <path class="cls-2" d="m149.09,230.17h-.27s0-.04,0-.04l.02-213.97h.27s0,.04,0,.04l-.02,213.97Zm-.18-.08h.1s.02-213.84.02-213.84h-.1s-.02,213.84-.02,213.84Z"/>
            </g>
            <g>
              <rect class="cls-2" x="139.62" y="16.19" width=".08" height="213.93"/>
              <path class="cls-2" d="m139.79,230.17h-.27s0-.04,0-.04l.02-213.97h.27s0,.04,0,.04l-.02,213.97Zm-.18-.08h.1s.02-213.84.02-213.84h-.1s-.02,213.84-.02,213.84Z"/>
            </g>
            <g>
              <rect class="cls-2" x="130.32" y="16.19" width=".08" height="213.93"/>
              <path class="cls-2" d="m130.49,230.17h-.27s0-.04,0-.04l.02-213.97h.27s0,.04,0,.04l-.02,213.97Zm-.18-.08h.1s.02-213.84.02-213.84h-.1s-.02,213.84-.02,213.84Z"/>
            </g>
            <g>
              <rect class="cls-2" x="121.02" y="16.19" width=".08" height="213.93"/>
              <path class="cls-2" d="m121.18,230.16h-.27s0-.04,0-.04l.02-213.97h.27s0,.04,0,.04l-.02,213.97Zm-.18-.08h.1s.02-213.84.02-213.84h-.1s-.02,213.84-.02,213.84Z"/>
            </g>
            <g>
              <rect class="cls-2" x="111.72" y="16.19" width=".08" height="213.93"/>
              <path class="cls-2" d="m111.88,230.16h-.27s0-.04,0-.04l.02-213.97h.27s0,.04,0,.04l-.02,213.97Zm-.18-.08h.1s.02-213.84.02-213.84h-.1s-.02,213.84-.02,213.84Z"/>
            </g>
            <g>
              <rect class="cls-2" x="102.41" y="16.19" width=".08" height="213.93"/>
              <path class="cls-2" d="m102.58,230.16h-.27s0-.04,0-.04l.02-213.97h.27s0,.04,0,.04l-.02,213.97Zm-.18-.08h.1s.02-213.84.02-213.84h-.1s-.02,213.84-.02,213.84Z"/>
            </g>
            <g>
              <rect class="cls-2" x="93.11" y="16.19" width=".08" height="213.93"/>
              <path class="cls-2" d="m93.28,230.16h-.27s0-.04,0-.04l.02-213.97h.27s0,.04,0,.04l-.02,213.97Zm-.18-.08h.1s.02-213.84.02-213.84h-.1s-.02,213.84-.02,213.84Z"/>
            </g>
            <g>
              <rect class="cls-2" x="83.81" y="16.19" width=".08" height="213.93"/>
              <path class="cls-2" d="m83.98,230.16h-.27s0-.04,0-.04l.02-213.97h.27s0,.04,0,.04l-.02,213.97Zm-.18-.08h.1s.02-213.84.02-213.84h-.1s-.02,213.84-.02,213.84Z"/>
            </g>
            <g>
              <rect class="cls-2" x="74.51" y="16.19" width=".08" height="213.93"/>
              <path class="cls-2" d="m74.68,230.16h-.27s0-.04,0-.04l.02-213.97h.27s0,.04,0,.04l-.02,213.97Zm-.18-.08h.1s.02-213.84.02-213.84h-.1s-.02,213.84-.02,213.84Z"/>
            </g>
            <g>
              <rect class="cls-2" x="65.21" y="16.19" width=".08" height="213.93"/>
              <path class="cls-2" d="m65.38,230.16h-.27s0-.04,0-.04l.02-213.97h.27s0,.04,0,.04l-.02,213.97Zm-.18-.08h.1s.02-213.84.02-213.84h-.1s-.02,213.84-.02,213.84Z"/>
            </g>
            <g>
              <rect class="cls-2" x="55.91" y="16.19" width=".08" height="213.93"/>
              <path class="cls-2" d="m56.07,230.16h-.27s0-.04,0-.04l.02-213.97h.27s0,.04,0,.04l-.02,213.97Zm-.18-.08h.1s.02-213.84.02-213.84h-.1s-.02,213.84-.02,213.84Z"/>
            </g>
            <g>
              <rect class="cls-2" x="46.61" y="16.19" width=".08" height="213.93"/>
              <path class="cls-2" d="m46.77,230.16h-.27s0-.04,0-.04l.02-213.97h.27s0,.04,0,.04l-.02,213.97Zm-.18-.08h.1s.02-213.84.02-213.84h-.1s-.02,213.84-.02,213.84Z"/>
            </g>
            <g>
              <rect class="cls-2" x="37.31" y="16.19" width=".08" height="213.93"/>
              <path class="cls-2" d="m37.47,230.16h-.27s0-.04,0-.04l.02-213.97h.27s0,.04,0,.04l-.02,213.97Zm-.18-.08h.1s.02-213.84.02-213.84h-.1s-.02,213.84-.02,213.84Z"/>
            </g>
            <g>
              <rect class="cls-2" x="28" y="16.19" width=".08" height="213.93"/>
              <path class="cls-2" d="m28.17,230.16h-.27s0-.04,0-.04l.02-213.97h.27s0,.04,0,.04l-.02,213.97Zm-.18-.08h.1s.02-213.84.02-213.84h-.1s-.02,213.84-.02,213.84Z"/>
            </g>
            <g>
              <rect class="cls-2" x="18.7" y="16.18" width=".08" height="213.93"/>
              <path class="cls-2" d="m18.87,230.16h-.27s0-.04,0-.04l.02-213.97h.27s0,.04,0,.04l-.02,213.97Zm-.18-.08h.1s.02-213.84.02-213.84h-.1s-.02,213.84-.02,213.84Z"/>
            </g>
            <g>
              <rect class="cls-2" x="9.4" y="16.18" width=".08" height="213.93"/>
              <path class="cls-2" d="m9.57,230.16h-.27s0-.04,0-.04l.02-213.97h.27s0,.04,0,.04l-.02,213.97Zm-.18-.08h.1s.02-213.84.02-213.84h-.1s-.02,213.84-.02,213.84Z"/>
            </g>
            <g>
              <rect class="cls-2" x=".1" y="16.18" width=".08" height="213.93"/>
              <path class="cls-2" d="m.27,230.15h-.27s0-.04,0-.04L.02,16.14h.27s0,.04,0,.04l-.02,213.97Zm-.18-.08h.1s.02-213.84.02-213.84h-.1s-.02,213.84-.02,213.84Z"/>
            </g>
          </g>
          <g>
            <g>
              <rect class="cls-2" x=".13" y="230.08" width="213.93" height=".08"/>
              <path class="cls-2" d="m214.11,230.26h-.04s-213.97-.02-213.97-.02v-.27s.04,0,.04,0l213.97.02v.27Zm-213.93-.1l213.84.02v-.1s-213.84-.02-213.84-.02v.1Z"/>
            </g>
            <g>
              <rect class="cls-2" x=".13" y="220.78" width="213.93" height=".08"/>
              <path class="cls-2" d="m214.11,220.96h-.04s-213.97-.02-213.97-.02v-.27s.04,0,.04,0l213.97.02v.27Zm-213.93-.1l213.85.02v-.1s-213.85-.02-213.85-.02v.1Z"/>
            </g>
            <g>
              <rect class="cls-2" x=".14" y="211.48" width="213.93" height=".08"/>
              <path class="cls-2" d="m214.11,211.66h-.04s-213.97-.02-213.97-.02v-.27s.04,0,.04,0l213.97.02v.27Zm-213.93-.1l213.84.02v-.1s-213.85-.02-213.85-.02v.1Z"/>
            </g>
            <g>
              <rect class="cls-2" x=".14" y="202.17" width="213.93" height=".08"/>
              <path class="cls-2" d="m214.11,202.36h-.04s-213.97-.02-213.97-.02v-.27s.04,0,.04,0l213.97.02v.27Zm-213.93-.1l213.84.02v-.1s-213.85-.02-213.85-.02v.1Z"/>
            </g>
            <g>
              <rect class="cls-2" x=".14" y="192.87" width="213.93" height=".08"/>
              <path class="cls-2" d="m214.11,193.06h-.04s-213.97-.02-213.97-.02v-.27s.04,0,.04,0l213.97.02v.27Zm-213.93-.1l213.85.02v-.1s-213.85-.02-213.85-.02v.1Z"/>
            </g>
            <g>
              <rect class="cls-2" x=".14" y="183.57" width="213.93" height=".08"/>
              <path class="cls-2" d="m214.11,183.76h-.04s-213.97-.02-213.97-.02v-.27s.04,0,.04,0l213.97.02v.27Zm-213.93-.1l213.85.02v-.1s-213.85-.02-213.85-.02v.1Z"/>
            </g>
            <g>
              <rect class="cls-2" x=".14" y="174.27" width="213.93" height=".08"/>
              <path class="cls-2" d="m214.11,174.46h-.04s-213.97-.02-213.97-.02v-.27s.04,0,.04,0l213.97.02v.27Zm-213.93-.1l213.84.02v-.1s-213.85-.02-213.85-.02v.1Z"/>
            </g>
            <g>
              <rect class="cls-2" x=".14" y="164.97" width="213.93" height=".08"/>
              <path class="cls-2" d="m214.11,165.15h-.04s-213.97-.02-213.97-.02v-.27s.04,0,.04,0l213.97.02v.27Zm-213.93-.1l213.85.02v-.1s-213.85-.02-213.85-.02v.1Z"/>
            </g>
            <g>
              <rect class="cls-2" x=".14" y="155.67" width="213.93" height=".08"/>
              <path class="cls-2" d="m214.11,155.85h-.04s-213.97-.02-213.97-.02v-.27s.04,0,.04,0l213.97.02v.27Zm-213.93-.1l213.85.02v-.1s-213.85-.02-213.85-.02v.1Z"/>
            </g>
            <g>
              <rect class="cls-2" x=".14" y="146.37" width="213.93" height=".08"/>
              <path class="cls-2" d="m214.11,146.55h-.04s-213.97-.02-213.97-.02v-.27s.04,0,.04,0l213.97.02v.27Zm-213.93-.1l213.85.02v-.1s-213.85-.02-213.85-.02v.1Z"/>
            </g>
            <g>
              <rect class="cls-2" x=".14" y="137.07" width="213.93" height=".08"/>
              <path class="cls-2" d="m214.11,137.25h-.04s-213.97-.02-213.97-.02v-.27s.04,0,.04,0l213.97.02v.27Zm-213.93-.1l213.85.02v-.1s-213.85-.02-213.85-.02v.1Z"/>
            </g>
            <g>
              <rect class="cls-2" x=".14" y="127.76" width="213.93" height=".08"/>
              <path class="cls-2" d="m214.11,127.95h-.04s-213.97-.02-213.97-.02v-.27s.04,0,.04,0l213.97.02v.27Zm-213.93-.1l213.85.02v-.1s-213.85-.02-213.85-.02v.1Z"/>
            </g>
            <g>
              <rect class="cls-2" x=".14" y="118.46" width="213.93" height=".08"/>
              <path class="cls-2" d="m214.11,118.65h-.04s-213.97-.02-213.97-.02v-.27s.04,0,.04,0l213.97.02v.27Zm-213.93-.1l213.84.02v-.1s-213.85-.02-213.85-.02v.1Z"/>
            </g>
            <g>
              <rect class="cls-2" x=".14" y="109.16" width="213.93" height=".08"/>
              <path class="cls-2" d="m214.12,109.35h-.04s-213.97-.02-213.97-.02v-.27s.04,0,.04,0l213.97.02v.27Zm-213.93-.1l213.85.02v-.1s-213.85-.02-213.85-.02v.1Z"/>
            </g>
            <g>
              <rect class="cls-2" x=".14" y="99.86" width="213.93" height=".08"/>
              <path class="cls-2" d="m214.12,100.05h-.04s-213.97-.02-213.97-.02v-.27s.04,0,.04,0l213.97.02v.27Zm-213.93-.1l213.85.02v-.1s-213.85-.02-213.85-.02v.1Z"/>
            </g>
            <g>
              <rect class="cls-2" x=".15" y="90.56" width="213.93" height=".08"/>
              <path class="cls-2" d="m214.12,90.74h-.04s-213.97-.02-213.97-.02v-.27s.04,0,.04,0l213.97.02v.27Zm-213.93-.1l213.85.02v-.1s-213.85-.02-213.85-.02v.1Z"/>
            </g>
            <g>
              <rect class="cls-2" x=".15" y="81.26" width="213.93" height=".08"/>
              <path class="cls-2" d="m214.12,81.44h-.04s-213.97-.02-213.97-.02v-.27s.04,0,.04,0l213.97.02v.27Zm-213.93-.1l213.84.02v-.1s-213.85-.02-213.85-.02v.1Z"/>
            </g>
            <g>
              <rect class="cls-2" x=".15" y="71.96" width="213.93" height=".08"/>
              <path class="cls-2" d="m214.12,72.14h-.04s-213.97-.02-213.97-.02v-.27s.04,0,.04,0l213.97.02v.27Zm-213.93-.1l213.85.02v-.1s-213.85-.02-213.85-.02v.1Z"/>
            </g>
            <g>
              <rect class="cls-2" x=".15" y="62.66" width="213.93" height=".08"/>
              <path class="cls-2" d="m214.12,62.84h-.04s-213.97-.02-213.97-.02v-.27s.04,0,.04,0l213.97.02v.27ZM.19,62.74l213.84.02v-.1s-213.85-.02-213.85-.02v.1Z"/>
            </g>
            <g>
              <rect class="cls-2" x=".15" y="53.35" width="213.93" height=".08"/>
              <path class="cls-2" d="m214.12,53.54h-.04s-213.97-.02-213.97-.02v-.27s.04,0,.04,0l213.97.02v.27ZM.19,53.44l213.85.02v-.1s-213.85-.02-213.85-.02v.1Z"/>
            </g>
            <g>
              <rect class="cls-2" x=".15" y="44.05" width="213.93" height=".08"/>
              <path class="cls-2" d="m214.12,44.24h-.04s-213.97-.02-213.97-.02v-.27s.04,0,.04,0l213.97.02v.27ZM.19,44.14l213.85.02v-.1s-213.85-.02-213.85-.02v.1Z"/>
            </g>
            <g>
              <rect class="cls-2" x=".15" y="34.75" width="213.93" height=".08"/>
              <path class="cls-2" d="m214.12,34.94h-.04s-213.97-.02-213.97-.02v-.27s.04,0,.04,0l213.97.02v.27ZM.19,34.83l213.85.02v-.1s-213.85-.02-213.85-.02v.1Z"/>
            </g>
            <g>
              <rect class="cls-2" x=".15" y="25.45" width="213.93" height=".08"/>
              <path class="cls-2" d="m214.12,25.64h-.04S.11,25.62.11,25.62v-.27s.04,0,.04,0l213.97.02v.27ZM.19,25.53l213.84.02v-.1s-213.85-.02-213.85-.02v.1Z"/>
            </g>
            <g>
              <rect class="cls-2" x=".15" y="16.15" width="213.93" height=".08"/>
              <path class="cls-2" d="m214.12,16.33h-.04S.11,16.32.11,16.32v-.27s.04,0,.04,0l213.97.02v.27ZM.19,16.23l213.85.02v-.1s-213.85-.02-213.85-.02v.1Z"/>
            </g>
          </g>
          <path class="cls-5" d="m146.77,11.37c-.07-2.7-.56-5.36-.66-8.06-.04-.97-.15-2.26.05-3.31l-70.15,1.74c.72,1.98.38,5.27.46,6.87.24,5.04.46,10.08.5,15.13l69.9-1.73c-.61-3.44,0-7.09-.1-10.63Z"/>
        </g>
      </g>
    </g>
  </g>
</svg>