<?xml version="1.0" encoding="utf-8"?>
<!-- Generator: Adobe Illustrator 27.5.0, SVG Export Plug-In . SVG Version: 6.00 Build 0)  -->
<svg version="1.1" xmlns="http://www.w3.org/2000/svg" xmlns:xlink="http://www.w3.org/1999/xlink" x="0px" y="0px"
	 viewBox="0 0 500 500" style="enable-background:new 0 0 500 500;" xml:space="preserve">
<g id="Background_Complete">
	<g>
		<g>
			<g>
				<g>
					<g>
						<g>
							<g>
								<g>
									<g>
										<g>
											<g>
												<rect x="403.373" y="156.629" style="fill:#E0E0E0;" width="77.558" height="80.848"/>
											</g>
										</g>
									</g>
								</g>
							</g>
						</g>
					</g>
				</g>
			</g>
		</g>
		<g>
			<g>
				<g>
					<g>
						<g>
							<g>
								<g>
									<g>
										<g>
											<g>
												<rect x="398.12" y="156.629" style="fill:#FAFAFA;" width="77.558" height="80.848"/>
											</g>
										</g>
									</g>
								</g>
							</g>
						</g>
					</g>
				</g>
			</g>
			<g>
				<g>
					<g>
						<g>
							<g>
								<g>
									<g>
										<g>
											<g>
												<path style="fill:#E0E0E0;" d="M475.702,237.501h-77.606v-80.896h77.606V237.501z M398.144,237.453h77.51v-80.799
													h-77.51V237.453z"/>
											</g>
										</g>
									</g>
								</g>
							</g>
						</g>
					</g>
				</g>
			</g>
		</g>
		<g>
			<g>
				<g>
					<g>
						<g>
							<g>
								<g>
									<g>
										<g>
											<g>
												<rect x="408.546" y="167.497" style="fill:#FAFAFA;" width="56.706" height="59.111"/>
											</g>
										</g>
									</g>
								</g>
							</g>
						</g>
					</g>
				</g>
			</g>
		</g>
		<g>
			<g>
				<g>
					<g>
						<g>
							<g>
								<g>
									<g>
										<g>
											<g>
												<g>
													<path style="fill:#E0E0E0;" d="M408.546,227.002c0.045,0.053-0.494,0.671-1.399,1.627
														c-0.906,0.956-2.178,2.249-3.605,3.654c-1.427,1.406-2.738,2.657-3.705,3.546c-0.967,0.888-1.59,1.414-1.639,1.365
														c-0.049-0.049,0.486-0.665,1.392-1.62c0.906-0.956,2.182-2.252,3.613-3.661c1.431-1.409,2.745-2.664,3.711-3.552
														C407.882,227.471,408.502,226.949,408.546,227.002z"/>
												</g>
											</g>
										</g>
									</g>
								</g>
							</g>
						</g>
					</g>
				</g>
			</g>
		</g>
		<g>
			<g>
				<g>
					<g>
						<g>
							<g>
								<g>
									<g>
										<g>
											<g>
												<g>
													<path style="fill:#E0E0E0;" d="M465.252,226.856c0.053-0.045,0.671,0.494,1.627,1.399
														c0.956,0.906,2.249,2.178,3.654,3.605c1.405,1.427,2.657,2.738,3.546,3.705c0.889,0.967,1.414,1.59,1.365,1.639
														c-0.049,0.049-0.665-0.486-1.62-1.392c-0.956-0.906-2.252-2.182-3.661-3.613c-1.409-1.431-2.664-2.745-3.552-3.712
														C465.722,227.521,465.199,226.901,465.252,226.856z"/>
												</g>
											</g>
										</g>
									</g>
								</g>
							</g>
						</g>
					</g>
				</g>
			</g>
		</g>
		<g>
			<g>
				<g>
					<g>
						<g>
							<g>
								<g>
									<g>
										<g>
											<g>
												<g>
													<path style="fill:#E0E0E0;" d="M465.097,167.655c-0.045-0.053,0.494-0.671,1.399-1.627
														c0.906-0.956,2.178-2.249,3.605-3.654c1.427-1.406,2.738-2.657,3.704-3.546c0.967-0.889,1.59-1.414,1.639-1.365
														c0.049,0.049-0.486,0.664-1.392,1.62c-0.906,0.956-2.182,2.252-3.613,3.662c-1.431,1.409-2.745,2.663-3.712,3.552
														C465.762,167.185,465.142,167.708,465.097,167.655z"/>
												</g>
											</g>
										</g>
									</g>
								</g>
							</g>
						</g>
					</g>
				</g>
			</g>
		</g>
		<g>
			<g>
				<g>
					<g>
						<g>
							<g>
								<g>
									<g>
										<g>
											<g>
												<g>
													<path style="fill:#E0E0E0;" d="M408.391,167.8c-0.053,0.045-0.671-0.494-1.627-1.399
														c-0.956-0.906-2.249-2.178-3.654-3.605c-1.406-1.427-2.658-2.738-3.546-3.704c-0.889-0.967-1.414-1.59-1.365-1.639
														c0.049-0.049,0.664,0.486,1.62,1.391c0.956,0.905,2.252,2.182,3.661,3.613c1.409,1.431,2.664,2.745,3.552,3.712
														C407.922,167.136,408.444,167.755,408.391,167.8z"/>
												</g>
											</g>
										</g>
									</g>
								</g>
							</g>
						</g>
					</g>
				</g>
			</g>
		</g>
		<g>
			<g>
				<g>
					<g>
						<g>
							<g>
								<g>
									<g>
										<g>
											<g>
												<g>
													<path style="fill:#E0E0E0;" d="M465.097,226.608c-0.004-0.004-0.008-0.101-0.012-0.287
														c-0.003-0.202-0.007-0.473-0.013-0.825c-0.006-0.741-0.014-1.807-0.026-3.191c-0.013-2.8-0.033-6.874-0.057-12.047
														c-0.027-10.353-0.065-25.101-0.111-42.761l0.219,0.219c-16.508,0.01-35.894,0.021-56.545,0.033h-0.006l0.251-0.251
														c-0.013,21.696-0.025,41.993-0.035,59.111l-0.216-0.215c16.945,0.045,31.055,0.084,40.947,0.11
														c4.942,0.024,8.83,0.043,11.501,0.056c1.32,0.011,2.335,0.019,3.043,0.025c0.334,0.005,0.593,0.009,0.786,0.012
														C465.001,226.6,465.093,226.604,465.097,226.608c0.004,0.004-0.08,0.008-0.25,0.012
														c-0.187,0.003-0.438,0.007-0.763,0.012c-0.698,0.006-1.7,0.014-3.002,0.025c-2.66,0.013-6.531,0.032-11.452,0.056
														c-9.925,0.026-24.081,0.065-41.084,0.11l-0.215,0.001l0-0.217c-0.01-17.118-0.023-37.415-0.036-59.111l0-0.251h0.251
														h0.006c20.651,0.011,40.037,0.023,56.545,0.032h0.219l0,0.219c-0.046,17.717-0.084,32.514-0.111,42.901
														c-0.025,5.152-0.044,9.209-0.057,11.998c-0.011,1.366-0.02,2.417-0.026,3.149c-0.005,0.342-0.009,0.605-0.012,0.801
														C465.105,226.524,465.102,226.613,465.097,226.608z"/>
												</g>
											</g>
										</g>
									</g>
								</g>
							</g>
						</g>
					</g>
				</g>
			</g>
		</g>
		<g>
			<g>
				<g>
					<g>
						<g>
							<g>
								<g>
									<g>
										<g>
											<g>
												<rect x="427.438" y="187.592" style="fill:#EBEBEB;" width="18.922" height="18.922"/>
											</g>
										</g>
									</g>
								</g>
							</g>
						</g>
					</g>
				</g>
			</g>
		</g>
	</g>
	<g>
		
			<rect x="152.569" y="41.688" transform="matrix(0.9996 -0.0279 0.0279 0.9996 -6.3273 7.9374)" style="fill:#E0E0E0;" width="257.586" height="378.179"/>
	</g>
	<g>
		
			<rect x="122.61" y="42.306" transform="matrix(0.9985 0.0548 -0.0548 0.9985 13.0623 -13.4331)" style="fill:#F5F5F5;" width="257.586" height="378.178"/>
	</g>
	<g>
		
			<rect x="162.174" y="62.421" transform="matrix(0.9964 0.0849 -0.0849 0.9964 22.3901 -23.7816)" style="fill:#EBEBEB;" width="257.586" height="378.178"/>
	</g>
	<g>
		<g>
			<g>
				<g>
					<path style="fill:#E0E0E0;" d="M42.129,373.578c-3.889-2.442-8.345-3.976-12.914-4.445c-2.11-0.217-4.416-0.155-6.108,1.123
						c-0.359,0.271-0.709,0.672-0.629,1.115c0.059,0.326,0.334,0.562,0.597,0.763C28.33,376.143,36.277,376.649,42.129,373.578"/>
				</g>
			</g>
			<g>
				<g>
					<path style="fill:#E0E0E0;" d="M41.798,373.213c-2.924-2.281-5.864-4.578-8.341-7.339c-2.477-2.76-4.489-6.037-5.229-9.671
						c-0.224-1.102-0.294-2.361,0.413-3.236C35.289,358.16,40.512,364.875,41.798,373.213"/>
				</g>
			</g>
			<g>
				<g>
					<path style="fill:#E0E0E0;" d="M42.06,373.528c-0.501-3.637-0.681-7.376,0.154-10.951c0.835-3.575,2.78-6.997,5.833-9.036
						c1.149,2.685,0.655,5.779-0.154,8.585c-1.251,4.337-3.213,8.468-5.784,12.177"/>
				</g>
			</g>
			<g>
				<g>
					<path style="fill:#E0E0E0;" d="M48.578,385.206c-3.956,0.481-7.402,2.566-10.356,5.241c-2.954,2.675-5.054,6.28-5.924,10.169
						c3.881-0.24,7.173-2.976,9.561-6.045c2.388-3.069,4.042-6.435,6.665-9.306"/>
				</g>
			</g>
			<g>
				<g>
					<path style="fill:#E0E0E0;" d="M49.993,387.074c-3.187-7.85-2.032-17.308,2.949-24.161
						C55.196,370.931,54.369,379.988,49.993,387.074"/>
				</g>
			</g>
			<g>
				<g>
					<path style="fill:#E0E0E0;" d="M58.605,397.328c-3.59-0.223-7.241,0.632-10.359,2.427c-3.118,1.795-5.691,4.522-7.301,7.739
						c-0.219,0.437-0.412,0.993-0.119,1.385c0.255,0.34,0.747,0.372,1.171,0.345c3.48-0.225,6.565-2.32,9.11-4.704
						c2.545-2.384,4.763-5.139,7.576-7.201"/>
				</g>
			</g>
			<g>
				<g>
					<path style="fill:#E0E0E0;" d="M58.33,396.77c-1.852-5.927-1.967-12.384-0.328-18.373c0.647-2.365,1.734-4.855,3.921-5.964
						c0.187-0.095,0.404-0.179,0.6-0.105c0.186,0.07,0.293,0.26,0.379,0.439c0.778,1.625,1.005,3.471,0.924,5.271
						c-0.08,1.8-0.454,3.573-0.826,5.336c-0.689,3.261-1.055,6.766-2.844,9.579c-0.425,0.668-0.799,1.389-1.137,2.104
						c-0.339,0.715-0.341,0.966-0.652,1.535"/>
				</g>
			</g>
			<g>
				<g>
					<path style="fill:#E0E0E0;" d="M81.125,400.166c-1.689-6.424,0.104-14.212,4.152-19.478c0.298-0.388,0.693-0.803,1.18-0.758
						c0.745,0.069,0.939,1.062,0.905,1.81C87.069,388.304,84.88,394.773,81.125,400.166"/>
				</g>
			</g>
			<g>
				<g>
					<path style="fill:#E0E0E0;" d="M83.18,401.571c7.805,2.031,16.758,0.057,23.25-4.729c-3.847-1.95-8.382-2.506-12.586-1.545
						C89.639,396.259,85.797,398.143,83.18,401.571"/>
				</g>
			</g>
			<g>
				<g>
					<path style="fill:#E0E0E0;" d="M84.913,397.293c4.371-7.126,12.751-11.778,21.101-12.201c-0.962,3.396-3.753,6.036-6.901,7.63
						c-3.149,1.595-6.664,2.289-10.129,2.962C87.636,395.947,85.787,396.234,84.913,397.293"/>
				</g>
			</g>
			<g>
				<g>
					<path style="fill:#E0E0E0;" d="M81.559,376.538c1.184-4.055,2.374-8.146,2.699-12.358c0.325-4.212-0.276-8.609-2.461-12.224
						c-4.083,7.901-4.496,17.132-0.36,25.005"/>
				</g>
			</g>
			<g>
				<g>
					<path style="fill:#E0E0E0;" d="M95.305,369.59c4.775-8.678,14.516-15.61,24.374-16.581
						C115.877,362.477,105.506,369.794,95.305,369.59"/>
				</g>
			</g>
			<g>
				<g>
					<path style="fill:#E0E0E0;" d="M92.302,371.291c7.121,1.085,13.188,5.633,19.843,8.39c1.423,0.59,2.958,1.059,4.486,0.859
						c1.527-0.2,3.035-1.225,3.377-2.727c0.284-1.247-0.284-2.571-1.178-3.485c-0.895-0.914-2.077-1.485-3.258-1.976
						c-7.248-3.018-15.021-3.093-22.656-1.263"/>
				</g>
			</g>
			<g>
				<g>
					<path style="fill:#E0E0E0;" d="M88.181,376.285c1.612,0.462,2.163,1.296,3.44,2.384c4.331,3.689,9.526,6.357,15.047,7.73
						c0.575,0.143,1.329,0.2,1.614-0.32c0.249-0.454-0.066-1.003-0.389-1.407c-2.313-2.895-5.613-4.874-9.085-6.168
						c-3.472-1.293-6.481-2.852-10.626-2.517"/>
				</g>
			</g>
			<g>
				<g>
					<path style="fill:#E0E0E0;" d="M83.531,346.12c5.791,5.405,13.947,8.18,21.832,7.428c0.359-0.034,0.75-0.091,0.994-0.357
						c0.549-0.598-0.11-1.521-0.75-2.02C99.188,346.167,91.413,344.093,83.531,346.12"/>
				</g>
			</g>
			<g>
				<g>
					<path style="fill:#E0E0E0;" d="M89.044,344.103c7.654-5.739,18.15-7.471,27.242-4.495c-3.431,3.381-8.191,5.2-12.982,5.699
						C98.514,345.806,93.716,345.274,89.044,344.103"/>
				</g>
			</g>
			<g>
				<g>
					<path style="fill:#E0E0E0;" d="M86.853,330.241c-0.631-6.407-0.221-11.464-0.666-17.901c-0.036-0.514-0.146-1.133-0.627-1.318
						c-0.67-0.258-1.228,0.565-1.448,1.249c-1.908,5.934-0.865,12.739,2.732,17.829"/>
				</g>
			</g>
			<g>
				<g>
					<path style="fill:#E0E0E0;" d="M86.392,330.949c4.342-2.685,7.6-6.193,10.613-10.315c2.096-2.868,3.863-6.304,3.387-9.824
						c-2.944-0.059-5.741,1.565-7.655,3.802c-1.915,2.237-3.053,5.033-3.903,7.852C87.984,325.282,87.389,328.179,86.392,330.949"/>
				</g>
			</g>
			<g>
				<g>
					<path style="fill:#E0E0E0;" d="M96.819,328.052c9.53-3.524,18.421-8.767,26.118-15.4c-3.12-1.257-6.692-0.505-9.811,0.754
						c-7.126,2.877-12.948,7.732-16.443,14.576"/>
				</g>
			</g>
			<g>
				<g>
					<path style="fill:#E0E0E0;" d="M89.323,334.454c4.821,0.527,9.719,0.87,14.502,0.071c4.702-0.786,9.145-2.649,13.539-4.499
						c0.364-0.153,0.76-0.337,0.92-0.698c0.173-0.392-0.011-0.87-0.33-1.159c-0.318-0.288-0.741-0.425-1.155-0.541
						c-4.776-1.336-9.931-0.711-14.631,0.874C97.469,330.087,93.616,331.97,89.323,334.454"/>
				</g>
			</g>
			<g>
				<g>
					<path style="fill:#E0E0E0;" d="M61.794,346.339c-3.289-6.64-3.076-14.388-0.234-21.231c2,3.048,2.245,6.929,1.879,10.556
						c-0.366,3.627-1.47,7.36-1.541,11.005"/>
				</g>
			</g>
			<g>
				<g>
					<path style="fill:#E0E0E0;" d="M48.653,339.712c-8.212-0.157-16.428,3.343-22.004,9.374c4.099,0.644,8.32-0.413,12.049-2.234
						c3.729-1.821,7.042-4.375,10.326-6.911"/>
				</g>
			</g>
			<g>
				<g>
					<path style="fill:#E0E0E0;" d="M39.818,336.757c-4.018-0.326-7.884-0.823-11.746,0.361c-3.863,1.184-7.379,3.871-8.953,7.591
						c3.758,0.424,7.568-0.519,11.013-2.08C33.576,341.069,36.708,338.907,39.818,336.757"/>
				</g>
			</g>
			<g>
				<g>
					<path style="fill:#E0E0E0;" d="M52.899,336.892c-3.614-2.368-7.326-4.78-11.534-5.761c-4.208-0.981-9.085-0.256-12.02,2.916
						c3.407,1.999,7.54,2.235,11.49,2.232c3.95-0.003,8.792-0.048,12.516,1.27"/>
				</g>
			</g>
			<g>
				<g>
					<path style="fill:#E0E0E0;" d="M52.921,337.083c-6.179-6.068-8.521-16.967-6.035-25.263
						C51.742,319.2,53.917,328.305,52.921,337.083"/>
				</g>
			</g>
			<g>
				<g>
					<path style="fill:#E0E0E0;" d="M69.911,319.892c1.165-2.709,1.985-5.553,3.03-8.31c1.045-2.758,2.345-5.471,4.321-7.661
						c1.976-2.189,4.707-3.82,7.653-3.966c-1.844,8.349-7.389,15.809-14.853,19.981"/>
				</g>
			</g>
			<g>
				<g>
					<path style="fill:#E0E0E0;" d="M66.837,323.474c-1.929-2.654-4.157-6.257-6.772-8.239c-2.615-1.981-6.021-3.18-9.212-2.419
						C54.099,318.618,60.232,322.708,66.837,323.474"/>
				</g>
			</g>
			<g>
				<g>
					<path style="fill:#E0E0E0;" d="M67.452,320.112c-1.264-3.212-2.537-6.458-3.048-9.872c-0.511-3.414-0.2-7.06,1.545-10.038
						c3.392,6.412,4.484,13.294,1.676,19.982"/>
				</g>
			</g>
			<g>
				<g>
					<path style="fill:#E0E0E0;" d="M69.942,300.203c1.921-6.356,7.741-11.036,14.025-13.183c0.792-0.271,1.632-0.496,2.459-0.369
						c0.827,0.128,1.639,0.694,1.812,1.513c0.229,1.081-0.664,2.05-1.504,2.768C81.841,295.116,76.09,298.292,69.942,300.203"/>
				</g>
			</g>
			<g>
				<g>
					<path style="fill:#E0E0E0;" d="M70.012,295.005c0.244-4.098,0.5-8.255,1.833-12.138c1.333-3.883,3.902-7.525,7.639-9.225
						c0.636,4.139-1.19,8.257-3.393,11.818c-2.202,3.562-4.857,6.923-6.18,10.897"/>
				</g>
			</g>
			<g>
				<g>
					<path style="fill:#E0E0E0;" d="M69.911,297.826c-1.588-4.632-1.752-10.516-4.526-14.551c-1.939-2.821-5.044-4.743-6.715-7.73
						c-1.11,2.79-0.77,6.006,0.391,8.776c1.161,2.77,3.079,5.154,5.131,7.346C66.245,293.858,68.003,295.507,69.911,297.826"/>
				</g>
			</g>
			<g>
				<g>
					<g>
						<path style="fill:#E0E0E0;" d="M69.942,434.239c-0.123,0-0.23-30.901-0.239-69.01c-0.008-38.122,0.084-69.017,0.208-69.017
							c0.123,0,0.23,30.894,0.239,69.017C70.159,403.338,70.066,434.239,69.942,434.239z"/>
					</g>
				</g>
			</g>
			<g>
				<g>
					<g>
						<path style="fill:#E0E0E0;" d="M96.946,341.676c0.009,0.03-0.406,0.184-1.162,0.436c-0.835,0.282-1.909,0.644-3.197,1.079
							c-2.696,0.918-6.399,2.248-10.419,3.896c-3.98,1.707-7.734,3.094-9.871,4.945c-1.068,0.914-1.681,1.903-1.983,2.624
							c-0.307,0.726-0.361,1.169-0.402,1.162c-0.015-0.002-0.01-0.113,0.013-0.324c0.035-0.208,0.089-0.519,0.227-0.9
							c0.261-0.762,0.857-1.82,1.936-2.797c1.074-0.979,2.57-1.86,4.283-2.661c1.713-0.8,3.612-1.634,5.628-2.462
							c4.032-1.652,7.764-2.939,10.491-3.783c1.362-0.425,2.474-0.738,3.245-0.945C96.507,341.744,96.938,341.647,96.946,341.676z"
							/>
					</g>
				</g>
			</g>
			<g>
				<g>
					<g>
						<path style="fill:#E0E0E0;" d="M105.797,319.935c0.01,0.012-0.102,0.131-0.326,0.348c-0.263,0.247-0.591,0.555-0.992,0.931
							c-0.921,0.837-2.174,1.975-3.702,3.363c-3.196,2.846-7.531,6.706-12.321,10.97c-4.809,4.281-8.966,8.371-11.846,11.451
							c-1.442,1.538-2.578,2.812-3.353,3.702c-0.362,0.413-0.658,0.751-0.895,1.022c-0.207,0.232-0.322,0.349-0.334,0.339
							c-0.012-0.01,0.079-0.146,0.264-0.396c0.187-0.248,0.459-0.619,0.832-1.077c0.735-0.926,1.838-2.235,3.254-3.804
							c2.828-3.143,6.962-7.281,11.781-11.571c4.826-4.271,9.218-8.108,12.409-10.874c1.566-1.344,2.851-2.446,3.796-3.257
							c0.423-0.351,0.769-0.638,1.047-0.868C105.655,320.02,105.787,319.923,105.797,319.935z"/>
					</g>
				</g>
			</g>
			<g>
				<g>
					<g>
						<path style="fill:#E0E0E0;" d="M83.266,339.9c-0.126-0.056,0.879-2.376,1.88-5.31c1.01-2.933,1.486-5.409,1.614-5.388
							c0.117,0.012-0.168,2.56-1.191,5.531c-0.503,1.483-1.059,2.788-1.496,3.714C83.635,339.373,83.321,339.924,83.266,339.9z"/>
					</g>
				</g>
			</g>
			<g>
				<g>
					<g>
						<path style="fill:#E0E0E0;" d="M69.971,358.603c-0.025,0.018-0.288-0.289-0.741-0.86c-0.503-0.645-1.139-1.461-1.899-2.435
							c-1.595-2.061-3.8-4.907-6.271-8.021c-2.473-3.115-4.744-5.908-6.39-7.929c-0.776-0.96-1.426-1.766-1.94-2.401
							c-0.453-0.571-0.693-0.897-0.669-0.917c0.023-0.02,0.307,0.267,0.802,0.804c0.495,0.536,1.195,1.326,2.05,2.311
							c1.709,1.971,4.021,4.736,6.498,7.854c2.474,3.118,4.642,5.998,6.173,8.109c0.766,1.056,1.376,1.917,1.786,2.521
							C69.78,358.243,69.995,358.585,69.971,358.603z"/>
					</g>
				</g>
			</g>
			<g>
				<g>
					<g>
						<path style="fill:#E0E0E0;" d="M64.05,351.002c-0.073,0.078-1.653-1.796-2.48-4.644c-0.611-2.007-0.638-3.842-0.563-4.682
							l0.197,0.016c-0.088,0.358-0.153,0.547-0.188,0.541c-0.035-0.006-0.037-0.205-0.008-0.573l0.197,0.016
							c0.072,0.833,0.198,2.605,0.792,4.554C62.797,348.991,64.17,350.926,64.05,351.002z"/>
					</g>
				</g>
			</g>
			<g>
				<g>
					<g>
						<path style="fill:#E0E0E0;" d="M56.406,341.387c-0.057,0.062-0.566-0.579-1.732-1.006c-1.157-0.448-2.898-0.546-4.808-0.382
							c-1.912,0.14-3.62,0.481-4.842,0.781c-1.222,0.303-1.969,0.541-1.992,0.478c-0.02-0.053,0.691-0.397,1.908-0.782
							c1.215-0.382,2.946-0.78,4.893-0.923c1.932-0.167,3.764-0.018,4.96,0.535C56.004,340.625,56.446,341.376,56.406,341.387z"/>
					</g>
				</g>
			</g>
			<g>
				<g>
					<g>
						<path style="fill:#E0E0E0;" d="M54.594,339.056c-0.034,0.069-1.009-0.404-2.653-0.966c-1.641-0.565-3.98-1.157-6.62-1.363
							c-2.642-0.197-5.043,0.034-6.751,0.343c-1.711,0.306-2.746,0.626-2.769,0.553c-0.01-0.029,0.24-0.134,0.703-0.3
							c0.461-0.172,1.146-0.368,2.004-0.563c1.713-0.393,4.157-0.68,6.847-0.479c2.688,0.209,5.06,0.863,6.694,1.511
							c0.818,0.322,1.466,0.62,1.895,0.86C54.376,338.887,54.608,339.029,54.594,339.056z"/>
					</g>
				</g>
			</g>
			<g>
				<g>
					<g>
						<path style="fill:#E0E0E0;" d="M69.911,329.202c-0.119,0.03-0.986-2.979-1.935-6.721c-0.949-3.743-1.622-6.801-1.502-6.832
							c0.119-0.03,0.986,2.979,1.935,6.722C69.358,326.113,70.031,329.172,69.911,329.202z"/>
					</g>
				</g>
			</g>
			<g>
				<g>
					<g>
						<path style="fill:#E0E0E0;" d="M70.035,329.202c-0.133,0.043-0.69-1.968-2.145-4.024c-1.416-2.1-3.223-3.154-3.157-3.258
							c0.023-0.047,0.522,0.136,1.218,0.628c0.698,0.486,1.56,1.309,2.304,2.373C69.765,327.061,70.143,329.194,70.035,329.202z"/>
					</g>
				</g>
			</g>
			<g>
				<g>
					<g>
						<path style="fill:#E0E0E0;" d="M69.942,417.767c-0.048,0.007-0.139-0.743-0.487-2.055c-0.344-1.312-0.993-3.173-2.065-5.35
							c-2.135-4.363-6.02-9.894-10.956-15.435c-2.446-2.795-4.819-5.431-6.833-7.955c-2.018-2.52-3.676-4.923-4.886-7.048
							c-1.215-2.123-2.005-3.945-2.467-5.23c-0.227-0.645-0.393-1.148-0.484-1.496c-0.098-0.346-0.142-0.529-0.127-0.534
							c0.04-0.013,0.265,0.707,0.774,1.967c0.509,1.259,1.337,3.046,2.577,5.133c1.237,2.089,2.909,4.454,4.934,6.949
							c2.022,2.498,4.399,5.12,6.849,7.919c4.949,5.555,8.825,11.157,10.904,15.592c1.045,2.213,1.654,4.11,1.949,5.445
							c0.143,0.669,0.24,1.191,0.274,1.55C69.942,417.577,69.958,417.765,69.942,417.767z"/>
					</g>
				</g>
			</g>
			<g>
				<g>
					<g>
						<path style="fill:#E0E0E0;" d="M94.344,390.205c0.015,0.033-0.452,0.269-1.279,0.718c-0.82,0.461-1.984,1.171-3.317,2.193
							c-1.333,1.021-2.825,2.362-4.356,3.973c-1.529,1.615-3.104,3.491-4.712,5.501c-3.214,4.033-6.22,7.601-8.02,10.449
							c-0.914,1.413-1.578,2.604-2.014,3.44c-0.439,0.834-0.672,1.302-0.704,1.288c-0.014-0.006,0.027-0.131,0.118-0.363
							c0.095-0.23,0.224-0.575,0.43-1.002c0.389-0.863,1.016-2.086,1.902-3.531c1.748-2.917,4.73-6.534,7.939-10.56
							c1.611-2.014,3.205-3.893,4.763-5.506c1.561-1.61,3.091-2.942,4.464-3.941c1.373-1.001,2.575-1.677,3.426-2.094
							c0.424-0.213,0.77-0.343,0.998-0.442C94.214,390.233,94.338,390.191,94.344,390.205z"/>
					</g>
				</g>
			</g>
			<g>
				<g>
					<g>
						<path style="fill:#E0E0E0;" d="M94.822,399.147c0.006,0.065-1.032,0.191-2.703,0.393c-1.665,0.215-3.983,0.493-6.411,1.263
							c-2.419,0.788-4.43,1.988-5.74,3.012c-1.323,1.022-1.947,1.868-2.008,1.819c-0.021-0.016,0.108-0.246,0.4-0.622
							c0.289-0.379,0.763-0.885,1.408-1.441c1.289-1.111,3.319-2.384,5.803-3.193c2.487-0.787,4.837-1.016,6.516-1.152
							C93.773,399.103,94.817,399.089,94.822,399.147z"/>
					</g>
				</g>
			</g>
			<g>
				<g>
					<g>
						<path style="fill:#E0E0E0;" d="M78.748,404.651c-0.141-0.08,1.077-1.941,2.022-4.443c0.887-2.526,1.094-4.74,1.253-4.715
							c0.058,0.007,0.055,0.561-0.045,1.45c-0.106,0.886-0.319,2.119-0.789,3.416c-0.472,1.296-1.092,2.379-1.568,3.134
							C79.141,404.246,78.798,404.681,78.748,404.651z"/>
					</g>
				</g>
			</g>
			<g>
				<g>
					<g>
						<path style="fill:#E0E0E0;" d="M102.247,366.201c0.005,0.014-0.144,0.093-0.433,0.23c-0.335,0.152-0.756,0.343-1.27,0.577
							c-0.557,0.239-1.232,0.541-1.993,0.942c-0.764,0.394-1.655,0.8-2.583,1.357c-0.471,0.268-0.963,0.548-1.475,0.838
							c-0.511,0.294-1.017,0.643-1.555,0.98c-1.087,0.659-2.176,1.472-3.338,2.301c-2.275,1.726-4.666,3.77-6.969,6.129
							c-2.28,2.383-4.241,4.843-5.889,7.176c-0.789,1.19-1.563,2.306-2.185,3.415c-0.318,0.55-0.65,1.067-0.926,1.588
							c-0.273,0.521-0.536,1.023-0.787,1.503c-0.525,0.946-0.9,1.851-1.268,2.628c-0.375,0.774-0.654,1.459-0.874,2.024
							c-0.216,0.522-0.393,0.949-0.534,1.289c-0.127,0.293-0.2,0.445-0.215,0.44s0.031-0.167,0.13-0.47
							c0.121-0.349,0.271-0.786,0.456-1.322c0.195-0.576,0.452-1.273,0.807-2.061c0.347-0.79,0.705-1.709,1.215-2.669
							c0.245-0.487,0.501-0.996,0.767-1.525c0.27-0.529,0.596-1.054,0.91-1.611c0.612-1.125,1.38-2.256,2.166-3.462
							c1.641-2.363,3.608-4.851,5.907-7.253c2.321-2.378,4.74-4.429,7.045-6.15c1.178-0.826,2.282-1.633,3.385-2.283
							c0.546-0.332,1.06-0.676,1.579-0.965c0.52-0.284,1.019-0.557,1.498-0.818c0.943-0.543,1.849-0.931,2.626-1.305
							c0.775-0.381,1.463-0.662,2.032-0.877c0.529-0.203,0.961-0.369,1.306-0.501C102.081,366.237,102.241,366.186,102.247,366.201z
							"/>
					</g>
				</g>
			</g>
			<g>
				<g>
					<g>
						<path style="fill:#E0E0E0;" d="M82.935,379.14c-0.039-0.007,0.176-0.756,1.062-1.581c0.865-0.824,2.442-1.586,4.279-1.642
							c1.831-0.048,3.418,0.464,4.503,0.88c1.09,0.428,1.724,0.775,1.702,0.827c-0.025,0.062-0.704-0.182-1.806-0.529
							c-1.098-0.336-2.649-0.779-4.384-0.732c-1.729,0.053-3.221,0.719-4.087,1.434C83.318,378.51,83.006,379.183,82.935,379.14z"/>
					</g>
				</g>
			</g>
			<g>
				<g>
					<g>
						<path style="fill:#E0E0E0;" d="M80.048,382.118c-0.123-0.068,0.967-1.665,1.215-3.953c0.285-2.284-0.407-4.088-0.272-4.126
							c0.049-0.02,0.292,0.4,0.502,1.151c0.211,0.748,0.351,1.837,0.214,3.027c-0.141,1.189-0.527,2.217-0.905,2.896
							C80.424,381.796,80.091,382.149,80.048,382.118z"/>
					</g>
				</g>
			</g>
		</g>
		<g>
			<g>
				<path style="fill:#E0E0E0;" d="M48.6,422.194c0.666,11.809,4.224,23.819,9.698,35.962h23.802
					c5.22-12.022,8.533-24.014,9.122-35.962H48.6z"/>
			</g>
		</g>
		<g>
			<g>
				<g>
					<path style="fill:#FAFAFA;" d="M87.365,441.303c0,0.123-7.837,0.223-17.502,0.223c-9.668,0-17.504-0.1-17.504-0.223
						c0-0.123,7.835-0.223,17.504-0.223C79.528,441.08,87.365,441.18,87.365,441.303z"/>
				</g>
			</g>
		</g>
		<g>
			<g>
				<g>
					<path style="fill:#FAFAFA;" d="M86.833,445.582c0,0.123-7.347,0.223-16.408,0.223c-9.064,0-16.409-0.1-16.409-0.223
						c0-0.123,7.345-0.223,16.409-0.223C79.486,445.358,86.833,445.458,86.833,445.582z"/>
				</g>
			</g>
		</g>
		<g>
			<g>
				<g>
					<path style="fill:#FAFAFA;" d="M58.682,429.948c0.123,0,0.223,2.455,0.223,5.482c0,3.029-0.1,5.483-0.223,5.483
						c-0.123,0-0.223-2.454-0.223-5.483C58.459,432.403,58.559,429.948,58.682,429.948z"/>
				</g>
			</g>
		</g>
		<g>
			<g>
				<g>
					<path style="fill:#FAFAFA;" d="M71.435,429.948c0.123,0,0.223,2.542,0.223,5.677c0,3.136-0.1,5.678-0.223,5.678
						c-0.123,0-0.223-2.542-0.223-5.678C71.212,432.49,71.312,429.948,71.435,429.948z"/>
				</g>
			</g>
		</g>
		<g>
			<g>
				<g>
					<path style="fill:#FAFAFA;" d="M83.408,429.852c0.123,0,0.223,2.593,0.223,5.791c0,3.199-0.1,5.791-0.223,5.791
						s-0.223-2.592-0.223-5.791C83.184,432.445,83.285,429.852,83.408,429.852z"/>
				</g>
			</g>
		</g>
		<g>
			<g>
				<g>
					<path style="fill:#FAFAFA;" d="M90.467,429.948c0,0.123-9.192,0.223-20.528,0.223c-11.34,0-20.53-0.1-20.53-0.223
						c0-0.123,9.19-0.223,20.53-0.223C81.275,429.725,90.467,429.825,90.467,429.948z"/>
				</g>
			</g>
		</g>
	</g>
	<g>
		<g>
			<g>
				<rect x="28.505" y="71.826" style="fill:#E0E0E0;" width="95.419" height="138.307"/>
			</g>
		</g>
		<g>
			<g>
				<rect x="23.725" y="71.826" style="fill:#F5F5F5;" width="95.419" height="138.307"/>
			</g>
		</g>
		<g>
			<g>
				<g>
					<rect x="35.58" y="86.806" style="fill:#FFFFFF;" width="71.709" height="108.348"/>
				</g>
			</g>
			<g>
				<g>
					<g>
						<path style="fill:#E0E0E0;" d="M107.29,195.153c0,0-0.009-0.183-0.014-0.53c-0.003-0.358-0.008-0.868-0.014-1.536
							c-0.007-1.362-0.016-3.355-0.029-5.943c-0.015-5.193-0.037-12.76-0.064-22.319c-0.029-19.105-0.069-46.16-0.117-78.019
							l0.238,0.238c-21.909,0.007-46.185,0.014-71.701,0.021h-0.009l0.259-0.259c-0.02,40.873-0.038,78.558-0.053,108.347
							l-0.207-0.207c21.838,0.046,39.739,0.083,52.195,0.109c6.231,0.023,11.097,0.04,14.42,0.053
							c1.652,0.01,2.917,0.018,3.785,0.023C106.838,195.139,107.29,195.153,107.29,195.153s-0.422,0.015-1.265,0.022
							c-0.859,0.005-2.112,0.013-3.746,0.023c-3.313,0.012-8.163,0.03-14.374,0.053c-12.487,0.026-30.431,0.063-52.323,0.109
							l-0.207,0l0-0.207c-0.014-29.789-0.033-67.474-0.053-108.347l0-0.26h0.26h0.009c25.516,0.008,49.792,0.015,71.701,0.021
							l0.239,0l0,0.238c-0.048,31.923-0.088,59.032-0.117,78.176c-0.027,9.536-0.049,17.085-0.064,22.265
							c-0.013,2.567-0.022,4.545-0.029,5.895c-0.006,0.656-0.011,1.158-0.014,1.51C107.299,194.989,107.29,195.153,107.29,195.153z"
							/>
					</g>
				</g>
			</g>
		</g>
		<g>
			<g>
				<g>
					<path style="fill:none;stroke:#FBFBFB;stroke-width:0.25;stroke-miterlimit:10;" d="M103.965,87.529"/>
				</g>
			</g>
		</g>
		<g>
			<g>
				<g>
					<path style="fill:#E0E0E0;" d="M119.413,71.826c0.056,0.043-0.592,0.989-1.701,2.471c-1.109,1.482-2.682,3.499-4.477,5.679
						c-1.796,2.181-3.474,4.111-4.717,5.483c-1.242,1.372-2.046,2.189-2.099,2.143c-0.055-0.048,0.651-0.95,1.821-2.382
						c1.279-1.552,2.853-3.462,4.594-5.574c1.739-2.113,3.311-4.023,4.59-5.576C118.605,72.647,119.355,71.782,119.413,71.826z"/>
				</g>
			</g>
		</g>
		<g>
			<g>
				<g>
					<path style="fill:#FFFFFF;" d="M107.655,194.804c3.561,5.663,7.766,10.922,12.507,15.642"/>
				</g>
			</g>
			<g>
				<g>
					<g>
						<path style="fill:#E0E0E0;" d="M120.162,210.446c-0.047,0.048-0.898-0.691-2.181-1.984c-1.282-1.292-2.981-3.151-4.718-5.321
							c-1.735-2.172-3.176-4.239-4.154-5.774c-0.979-1.535-1.512-2.528-1.455-2.563c0.065-0.041,0.707,0.882,1.759,2.358
							c1.052,1.476,2.53,3.496,4.255,5.655c1.726,2.157,3.371,4.043,4.58,5.394C119.457,209.563,120.216,210.392,120.162,210.446z"
							/>
					</g>
				</g>
			</g>
		</g>
		<g>
			<g>
				<g>
					<path style="fill:#FFFFFF;" d="M23.712,210.023c4.166-5.14,8.332-10.28,12.498-15.421"/>
				</g>
			</g>
			<g>
				<g>
					<g>
						<path style="fill:#E0E0E0;" d="M36.21,194.603c0.111,0.09-2.597,3.616-6.047,7.873c-3.452,4.259-6.34,7.637-6.451,7.547
							c-0.111-0.09,2.596-3.615,6.048-7.874C33.21,197.892,36.099,194.512,36.21,194.603z"/>
					</g>
				</g>
			</g>
		</g>
		<g>
			<g>
				<g>
					<path style="fill:#E0E0E0;" d="M23.725,71.826c0.112-0.089,2.829,3.158,6.066,7.252c3.239,4.095,5.772,7.486,5.66,7.575
						c-0.112,0.089-2.828-3.158-6.067-7.253C26.147,75.307,23.613,71.915,23.725,71.826z"/>
				</g>
			</g>
		</g>
		<g>
			<g>
				<rect x="60.937" y="108.805" style="fill:#E0E0E0;" width="24.011" height="68.174"/>
			</g>
		</g>
	</g>
</g>
<g id="Background_Simple" style="display:none;">
	<g style="display:inline;">
		<path style="fill:#EBEBEB;" d="M53.664,111.559l1.477-4.24c12.449-35.742,43.096-62.228,80.195-67.725
			c4.769-0.707,9.59-1.07,14.424-1.067c34.802,0.021,69.132,19.008,88.014,48.678c11.105,17.45,17.736,38.855,34.344,51.042
			c21.614,15.861,51.345,10.159,77.196,3.793c25.851-6.366,55.618-11.995,77.164,3.961c13.494,9.993,20.684,26.765,23.327,43.442
			c6.998,44.15-15.091,89.677-49.636,117.336c-34.545,27.659-79.723,39.118-123.884,39.62
			c-61.865,0.703-125.279-20.094-170.008-63.572S38.22,172.087,53.664,111.559z"/>
	</g>
</g>
<g id="Floor_1_">
	<g>
		<g>
			<path style="fill:#263238;" d="M473.223,458.384c0,0.144-99.948,0.26-223.212,0.26c-123.307,0-223.233-0.116-223.233-0.26
				c0-0.144,99.927-0.26,223.233-0.26C373.274,458.123,473.223,458.24,473.223,458.384z"/>
		</g>
	</g>
</g>
<g id="Manual">
	<g>
		<g>
			<g>
				<path style="fill:#FF725E;" d="M402.643,457.673H118.408V64.566h284.235c5.941,0,10.758,4.816,10.758,10.758v371.591
					C413.401,452.857,408.585,457.673,402.643,457.673z"/>
			</g>
			<g style="opacity:0.3;">
				<path d="M402.643,457.673H118.408V64.566h284.235c5.941,0,10.758,4.816,10.758,10.758v371.591
					C413.401,452.857,408.585,457.673,402.643,457.673z"/>
			</g>
		</g>
		<g>
			<rect x="247.525" y="76.743" style="fill:#E0E0E0;" width="157.703" height="380.93"/>
		</g>
		<g>
			<path style="fill:#FF725E;" d="M381.335,457.673H117.184V61.47h264.151c5.941,0,10.758,4.816,10.758,10.758v374.688
				C392.093,452.857,387.276,457.673,381.335,457.673z"/>
		</g>
		<g>
			<g>
				<path style="fill:#263238;" d="M145.436,458.391c-0.144,0-0.26-88.861-0.26-198.451c0-109.628,0.117-198.47,0.26-198.47
					c0.144,0,0.26,88.842,0.26,198.47C145.696,369.53,145.58,458.391,145.436,458.391z"/>
			</g>
		</g>
		<g>
			<g>
				<path style="fill:#263238;" d="M152.863,458.391c-0.144,0-0.26-88.861-0.26-198.451c0-109.628,0.117-198.47,0.26-198.47
					s0.26,88.842,0.26,198.47C153.123,369.53,153.007,458.391,152.863,458.391z"/>
			</g>
		</g>
		<g>
			<path style="fill:#FFFFFF;" d="M218.466,208.563l-0.067-12.415l-6.023,10.105h-2.944l-5.99-9.771v12.08h-6.124v-23.424h5.455
				l8.231,13.519l8.031-13.519h5.455l0.067,23.424H218.466z"/>
			<path style="fill:#FFFFFF;" d="M244.938,204.012h-9.905l-1.84,4.551h-6.759l10.34-23.424h6.525l10.374,23.424h-6.894
				L244.938,204.012z M242.998,199.126l-3.012-7.496l-3.012,7.496H242.998z"/>
			<path style="fill:#FFFFFF;" d="M277.836,185.139v23.424h-5.455l-10.34-12.481v12.481h-6.491v-23.424h5.454l10.34,12.481v-12.481
				H277.836z"/>
			<path style="fill:#FFFFFF;" d="M282.321,198.122v-12.983h6.626v12.783c0,4.016,1.673,5.622,4.45,5.622
				c2.744,0,4.417-1.606,4.417-5.622v-12.783h6.525v12.983c0,6.994-4.083,10.909-11.01,10.909
				C286.403,209.031,282.321,205.116,282.321,198.122z"/>
			<path style="fill:#FFFFFF;" d="M324.018,204.012h-9.904l-1.841,4.551h-6.76l10.34-23.424h6.525l10.373,23.424h-6.893
				L324.018,204.012z M322.078,199.126l-3.012-7.496l-3.012,7.496H322.078z"/>
			<path style="fill:#FFFFFF;" d="M334.629,185.139h6.625v18.17h11.177v5.253h-17.802V185.139z"/>
		</g>
		<g>
			<path style="fill:#FFFFFF;" d="M207.429,164.486h1.383v13.084h-1.383V164.486z"/>
			<path style="fill:#FFFFFF;" d="M224.01,164.486v13.084h-1.141l-8.411-10.617v10.617h-1.383v-13.084h1.14l8.43,10.617v-10.617
				H224.01z"/>
			<path style="fill:#FFFFFF;" d="M227.022,175.981l0.542-1.065c0.935,0.916,2.598,1.589,4.318,1.589
				c2.449,0,3.514-1.028,3.514-2.318c0-3.589-8.056-1.383-8.056-6.225c0-1.925,1.496-3.589,4.823-3.589
				c1.477,0,3.009,0.43,4.056,1.159l-0.467,1.103c-1.122-0.729-2.43-1.084-3.589-1.084c-2.392,0-3.458,1.065-3.458,2.374
				c0,3.589,8.056,1.42,8.056,6.187c0,1.925-1.533,3.57-4.879,3.57C229.919,177.682,227.994,176.99,227.022,175.981z"/>
			<path style="fill:#FFFFFF;" d="M242.127,165.682h-4.598v-1.196h10.58v1.196h-4.598v11.888h-1.383V165.682z"/>
			<path style="fill:#FFFFFF;" d="M259.251,177.57l-2.99-4.206c-0.337,0.037-0.673,0.056-1.047,0.056h-3.515v4.149h-1.383v-13.084
				h4.898c3.327,0,5.346,1.682,5.346,4.486c0,2.056-1.084,3.495-2.99,4.112l3.196,4.486H259.251z M259.176,168.972
				c0-2.094-1.384-3.29-4-3.29h-3.477v6.561h3.477C257.793,172.243,259.176,171.028,259.176,168.972z"/>
			<path style="fill:#FFFFFF;" d="M263.72,171.981v-7.496h1.384v7.439c0,3.103,1.458,4.523,4,4.523c2.561,0,4.019-1.42,4.019-4.523
				v-7.439h1.346v7.496c0,3.757-2.019,5.701-5.364,5.701S263.72,175.738,263.72,171.981z"/>
			<path style="fill:#FFFFFF;" d="M277.48,171.028c0-3.832,2.916-6.655,6.86-6.655c1.906,0,3.626,0.636,4.785,1.907l-0.879,0.878
				c-1.065-1.084-2.374-1.551-3.869-1.551c-3.159,0-5.532,2.318-5.532,5.421c0,3.103,2.373,5.42,5.532,5.42
				c1.495,0,2.804-0.467,3.869-1.57l0.879,0.878c-1.159,1.271-2.879,1.925-4.804,1.925
				C280.396,177.682,277.48,174.86,277.48,171.028z"/>
			<path style="fill:#FFFFFF;" d="M294.456,165.682h-4.598v-1.196h10.579v1.196h-4.598v11.888h-1.384V165.682z"/>
			<path style="fill:#FFFFFF;" d="M302.645,164.486h1.383v13.084h-1.383V164.486z"/>
			<path style="fill:#FFFFFF;" d="M307.132,171.028c0-3.813,2.916-6.655,6.879-6.655c3.926,0,6.86,2.823,6.86,6.655
				c0,3.832-2.935,6.654-6.86,6.654C310.047,177.682,307.132,174.841,307.132,171.028z M319.487,171.028
				c0-3.122-2.336-5.421-5.477-5.421c-3.159,0-5.514,2.299-5.514,5.421c0,3.122,2.354,5.42,5.514,5.42
				C317.151,176.449,319.487,174.15,319.487,171.028z"/>
			<path style="fill:#FFFFFF;" d="M334.911,164.486v13.084h-1.14l-8.412-10.617v10.617h-1.383v-13.084h1.141l8.43,10.617v-10.617
				H334.911z"/>
		</g>
		<g style="opacity:0.3;">
			<rect x="145.436" y="61.47" width="7.427" height="396.922"/>
		</g>
		<g>
			<polygon style="fill:#455A64;" points="309.004,106.822 309.004,61.47 352.676,61.47 352.676,107.662 331.26,129.078 			"/>
		</g>
		<g>
			<g>
				<path style="fill:#263238;" d="M396.028,76.743c0.144,0,0.26,84.361,0.26,188.401c0,104.076-0.117,188.419-0.26,188.419
					c-0.144,0-0.26-84.343-0.26-188.419C395.768,161.104,395.884,76.743,396.028,76.743z"/>
			</g>
		</g>
		<g>
			<g>
				<path style="fill:#263238;" d="M400.497,76.743c0.144,0,0.26,84.361,0.26,188.401c0,104.076-0.117,188.419-0.26,188.419
					s-0.26-84.343-0.26-188.419C400.237,161.104,400.354,76.743,400.497,76.743z"/>
			</g>
		</g>
		<g>
			<polygon style="fill:#455A64;" points="396.028,131.551 406.971,131.551 416.966,139.133 408.005,148.094 396.028,148.094 			"/>
		</g>
		<g>
			<rect x="400.497" y="164.031" style="fill:#FF725E;" width="20.659" height="13.758"/>
		</g>
		<g>
			<g style="opacity:0.3;">
				<g>
					<path d="M320.585,327.539l-12.342,12.033c-1.26,1.229-3.268,1.238-4.539,0.021l-85.034-81.361
						c-1.304-1.247-1.349-3.316-0.102-4.619l12.88-13.462c1.258-1.315,3.348-1.348,4.647-0.075l84.495,82.789
						C321.9,324.15,321.898,326.259,320.585,327.539z"/>
				</g>
			</g>
			<g>
				<g>
					<g>
						<path style="fill:#263238;" d="M241.415,245.556c0.102,0.098-1.429,1.856-3.419,3.926c-1.991,2.07-3.687,3.669-3.789,3.57
							c-0.102-0.098,1.428-1.856,3.419-3.926C239.617,247.057,241.313,245.458,241.415,245.556z"/>
					</g>
				</g>
			</g>
			<g>
				<g>
					<g>
						<path style="fill:#263238;" d="M254.93,258.574c0.102,0.098-1.429,1.856-3.419,3.926c-1.991,2.07-3.687,3.669-3.789,3.57
							c-0.102-0.098,1.428-1.855,3.419-3.926C253.131,260.075,254.828,258.476,254.93,258.574z"/>
					</g>
				</g>
			</g>
			<g>
				<g>
					<g>
						<path style="fill:#263238;" d="M247.869,251.513c0.102,0.099-1.988,2.415-4.666,5.173c-2.679,2.759-4.933,4.915-5.035,4.816
							c-0.101-0.099,1.987-2.414,4.667-5.173C245.513,253.571,247.768,251.415,247.869,251.513z"/>
					</g>
				</g>
			</g>
			<g>
				<g>
					<g>
						<path style="fill:#263238;" d="M261.758,265.402c0.102,0.099-1.988,2.415-4.666,5.173c-2.679,2.759-4.933,4.915-5.034,4.816
							c-0.102-0.099,1.987-2.414,4.667-5.173C259.402,267.459,261.656,265.303,261.758,265.402z"/>
					</g>
				</g>
			</g>
			<g>
				<g>
					<g>
						<path style="fill:#263238;" d="M268.143,271.788c0.102,0.098-1.429,1.856-3.419,3.926c-1.991,2.07-3.687,3.669-3.789,3.57
							c-0.102-0.098,1.428-1.856,3.419-3.926C266.345,273.288,268.041,271.69,268.143,271.788z"/>
					</g>
				</g>
			</g>
			<g>
				<g>
					<g>
						<path style="fill:#263238;" d="M274.971,278.615c0.102,0.099-1.988,2.415-4.666,5.173c-2.679,2.759-4.933,4.914-5.035,4.816
							c-0.102-0.099,1.987-2.414,4.667-5.173C272.615,280.673,274.87,278.517,274.971,278.615z"/>
					</g>
				</g>
			</g>
			<g>
				<g>
					<g>
						<path style="fill:#263238;" d="M281.357,285.001c0.102,0.098-1.429,1.856-3.419,3.926c-1.991,2.07-3.687,3.669-3.789,3.57
							c-0.102-0.098,1.429-1.856,3.419-3.926C279.559,286.502,281.255,284.903,281.357,285.001z"/>
					</g>
				</g>
			</g>
			<g>
				<g>
					<g>
						<path style="fill:#263238;" d="M288.185,291.829c0.102,0.099-1.988,2.415-4.666,5.173c-2.679,2.759-4.933,4.914-5.034,4.816
							c-0.102-0.099,1.987-2.414,4.667-5.173C285.829,293.886,288.083,291.73,288.185,291.829z"/>
					</g>
				</g>
			</g>
			<g>
				<g>
					<g>
						<path style="fill:#263238;" d="M294.57,298.215c0.102,0.098-1.429,1.856-3.419,3.926c-1.991,2.07-3.687,3.669-3.789,3.57
							c-0.102-0.098,1.429-1.856,3.419-3.926C292.772,299.715,294.468,298.117,294.57,298.215z"/>
					</g>
				</g>
			</g>
			<g>
				<g>
					<g>
						<path style="fill:#263238;" d="M301.398,305.042c0.102,0.099-1.988,2.415-4.666,5.173c-2.679,2.759-4.933,4.914-5.034,4.816
							c-0.102-0.099,1.987-2.414,4.666-5.173C299.043,307.1,301.297,304.944,301.398,305.042z"/>
					</g>
				</g>
			</g>
			<g>
				<g>
					<g>
						<path style="fill:#263238;" d="M307.784,311.428c0.102,0.098-1.429,1.856-3.419,3.926c-1.991,2.07-3.687,3.669-3.789,3.57
							c-0.102-0.098,1.429-1.855,3.419-3.926C305.986,312.929,307.682,311.33,307.784,311.428z"/>
					</g>
				</g>
			</g>
			<g style="opacity:0.3;">
				<g>
					<path d="M275.707,273.234l11.907,11.158l8.033-7.872c0,0,12.877,3.959,21.15-5.14c7.518-8.269,5.281-20.301,5.281-20.301
						l-13.855,12.227l-11.732-11.732l12.37-12.827c0,0-12.09-3.874-21.577,6.862c-7.447,8.427-3.603,19.515-3.603,19.515
						L275.707,273.234z"/>
				</g>
			</g>
			<g style="opacity:0.3;">
				<g>
					<path d="M260.932,305.795c-0.296-0.518-11.887-11.128-11.887-11.128l-7.531,7.38c0,0-14.152-2.813-21.15,5.14
						c-7.842,8.913-5.281,20.301-5.281,20.301l13.855-12.227l11.731,11.732L228.3,339.82c0,0,12.09,3.874,21.577-6.862
						c7.447-8.427,3.603-19.515,3.603-19.515L260.932,305.795z"/>
				</g>
			</g>
		</g>
		<g>
			<g>
				<path style="fill:#FFFFFF;" d="M358.813,413.853c0,0.144-37.539,0.26-83.834,0.26c-46.312,0-83.842-0.117-83.842-0.26
					c0-0.144,37.531-0.26,83.842-0.26C321.274,413.593,358.813,413.71,358.813,413.853z"/>
			</g>
		</g>
		<g>
			<g>
				<path style="fill:#FFFFFF;" d="M330.84,421.836c0,0.144-24.686,0.26-55.13,0.26c-30.455,0-55.135-0.117-55.135-0.26
					c0-0.144,24.68-0.26,55.135-0.26C306.154,421.576,330.84,421.692,330.84,421.836z"/>
			</g>
		</g>
		<g>
			<rect x="268.368" y="429.512" style="fill:#E0E0E0;" width="13.214" height="13.214"/>
		</g>
	</g>
</g>
<g id="Character">
	<g>
		<g>
			<g>
				<g>
					<g>
						<g>
							<g>
								<g>
									<g>
										<g>
											<g>
												<g>
													<g>
														<g>
															<g>
																<g>
																	<path style="fill:#455A64;" d="M129.886,440.124l-2.777,20.212c0,0,19.612,9.611,19.463,13.396l-39.384-3.976
																		l3.034-31.671L129.886,440.124z"/>
																</g>
															</g>
														</g>
													</g>
												</g>
											</g>
										</g>
									</g>
								</g>
							</g>
						</g>
					</g>
					<g>
						<g>
							<g>
								<g>
									<g>
										<g>
											<g>
												<g>
													<g>
														<g>
															<g>
																<g>
																	<g>
																		<path style="fill:#E0E0E0;" d="M115.104,457.4c-0.783,0.131-1.396,0.935-1.298,1.723
																			c0.099,0.788,0.911,1.419,1.697,1.301c0.785-0.117,1.551-1.06,1.364-1.832c-0.187-0.772-1.181-1.46-1.915-1.158"
																			/>
																	</g>
																</g>
															</g>
														</g>
													</g>
												</g>
											</g>
										</g>
									</g>
								</g>
							</g>
						</g>
					</g>
					<g style="opacity:0.6;">
						<g>
							<g>
								<g>
									<g>
										<g>
											<g>
												<g>
													<g>
														<g>
															<g>
																<g>
																	<path style="fill:#FFFFFF;" d="M107.188,469.756l0.431-3.18l37.599,5.001c0,0,1.676,0.94,1.354,2.155
																		L107.188,469.756z"/>
																</g>
															</g>
														</g>
													</g>
												</g>
											</g>
										</g>
									</g>
								</g>
							</g>
						</g>
					</g>
					<g>
						<g>
							<g>
								<g>
									<g>
										<g>
											<g>
												<g>
													<g>
														<g>
															<g>
																<g>
																	<g>
																		<path style="fill:#263238;" d="M127.768,460.201c-0.026,0.192-0.996,0.182-2.005,0.704
																			c-1.022,0.497-1.594,1.28-1.764,1.186c-0.173-0.055,0.229-1.176,1.462-1.788
																			C126.688,459.681,127.827,460.028,127.768,460.201z"/>
																	</g>
																</g>
															</g>
														</g>
													</g>
												</g>
											</g>
										</g>
									</g>
								</g>
							</g>
						</g>
					</g>
					<g>
						<g>
							<g>
								<g>
									<g>
										<g>
											<g>
												<g>
													<g>
														<g>
															<g>
																<g>
																	<g>
																		<path style="fill:#263238;" d="M131.726,462.326c0.025,0.191-0.841,0.434-1.576,1.181
																			c-0.757,0.726-1.011,1.589-1.202,1.561c-0.184,0.012-0.203-1.128,0.729-2.04
																			C130.601,462.108,131.741,462.142,131.726,462.326z"/>
																	</g>
																</g>
															</g>
														</g>
													</g>
												</g>
											</g>
										</g>
									</g>
								</g>
							</g>
						</g>
					</g>
					<g>
						<g>
							<g>
								<g>
									<g>
										<g>
											<g>
												<g>
													<g>
														<g>
															<g>
																<g>
																	<g>
																		<path style="fill:#263238;" d="M133.573,467.507c-0.179,0.023-0.35-0.965,0.251-1.968
																			c0.593-1.008,1.542-1.332,1.607-1.163c0.093,0.169-0.548,0.675-1.029,1.507
																			C133.903,466.702,133.766,467.507,133.573,467.507z"/>
																	</g>
																</g>
															</g>
														</g>
													</g>
												</g>
											</g>
										</g>
									</g>
								</g>
							</g>
						</g>
					</g>
					<g>
						<g>
							<g>
								<g>
									<g>
										<g>
											<g>
												<g>
													<g>
														<g>
															<g>
																<g>
																	<g>
																		<path style="fill:#263238;" d="M127.89,455.524c-0.098,0.167-0.954-0.187-2.048-0.223
																			c-1.094-0.058-1.976,0.221-2.06,0.046c-0.097-0.15,0.8-0.779,2.089-0.718
																			C127.159,454.679,127.999,455.382,127.89,455.524z"/>
																	</g>
																</g>
															</g>
														</g>
													</g>
												</g>
											</g>
										</g>
									</g>
								</g>
							</g>
						</g>
					</g>
				</g>
			</g>
		</g>
		<g>
			<g>
				<path style="fill:#263238;" d="M76.363,303.453c0,0-7.233,51.319-3.593,59.711c2.812,6.483,7.79,9.306,14.156,10.944
					c9.191,2.365,23.933,4.051,23.933,4.051l4.962-29.57l-11.227-2.446l10.333-36.795l-18.289-12.526L76.363,303.453z"/>
			</g>
			<g>
				<path style="fill:#263238;" d="M114.927,309.348l-9.053,141.772l25.007,1.266l11.152-70.325c0,0,11.874-57.996,12.689-65.096
					c0.815-7.1,0-22.144,0-22.144L114.927,309.348z"/>
			</g>
			<g>
				<g>
					<path style="fill:#455A64;" d="M114.22,320.422c0.009,0,0.013,0.095,0.012,0.279c-0.005,0.214-0.01,0.482-0.017,0.816
						c-0.028,0.755-0.068,1.804-0.118,3.135c-0.124,2.721-0.322,6.658-0.616,11.52c-0.572,9.724-1.523,23.146-2.502,37.971
						c-0.45,7.418-0.879,14.482-1.269,20.914c-0.464,6.429-1.093,12.196-1.573,17.041c-0.492,4.844-0.842,8.767-1.055,11.482
						c-0.103,1.327-0.184,2.372-0.242,3.126c-0.029,0.333-0.053,0.6-0.071,0.813c-0.019,0.183-0.033,0.276-0.042,0.276
						c-0.009-0.001-0.013-0.095-0.011-0.279c0.005-0.214,0.012-0.482,0.02-0.816c0.02-0.717,0.067-1.774,0.145-3.134
						c0.151-2.72,0.445-6.652,0.891-11.503c0.434-4.851,1.025-10.62,1.461-17.039c0.388-6.418,0.72-13.502,1.228-20.915
						c1.035-14.807,1.973-28.211,2.655-37.961c0.328-4.828,0.594-8.75,0.781-11.507c0.092-1.328,0.164-2.375,0.216-3.129
						c0.028-0.333,0.051-0.6,0.069-0.813C114.197,320.515,114.211,320.422,114.22,320.422z"/>
				</g>
			</g>
			<g>
				<g>
					<path style="fill:#455A64;" d="M108.39,332.737c0.035,0.008-0.022,0.405-0.155,1.116c-0.131,0.712-0.352,1.734-0.651,2.992
						c-0.597,2.516-1.546,5.965-2.815,9.704c-1.272,3.739-2.622,7.053-3.681,9.411c-0.529,1.18-0.977,2.126-1.307,2.769
						c-0.328,0.645-0.524,0.994-0.557,0.979c-0.033-0.015,0.102-0.393,0.372-1.062c0.314-0.772,0.7-1.717,1.153-2.83
						c0.97-2.39,2.259-5.711,3.527-9.435c1.264-3.724,2.265-7.143,2.951-9.629c0.318-1.159,0.589-2.143,0.81-2.947
						C108.231,333.111,108.355,332.729,108.39,332.737z"/>
				</g>
			</g>
		</g>
		<g>
			<g>
				<g>
					<path style="fill:#455A64;" d="M99.517,178.499l-6.014,4.791c0,0-19.1,3.408-20.734,6.387l6.188,38.357l4.823,32.874
						c0,0-7.218,19.391-7.418,27.575c-0.2,8.184,0,14.971,0,14.971h3.579c8.335,0,16.349,3.218,22.37,8.982l0,0l6.587-5.988
						l1.288,11.378c0,0,25.859,1.597,32.446-3.393s15.51-15.569,15.51-15.569s1.54-26.538-6.336-39.945
						c-7.876-13.407-9.773-16.177-9.773-16.177s2.794-23.123,2.794-23.922c0-0.798,2.395-32.337,2.395-32.337l-19.843-4.99
						l-5.742-4.391L99.517,178.499z"/>
				</g>
				<g style="opacity:0.3;">
					<g>
						<path d="M83.123,262.731c2.472,2.322,5.824,3.278,9.184,2.82c2.217-0.303,4.347-1.255,6.585-1.222
							c3.256,0.047,6.066,2.129,8.908,3.719c6.12,3.423,13.368,4.787,20.314,3.825c8.023-1.111,15.32-5.162,22.124-9.556
							c0.494-0.319,0.999-0.651,1.349-1.124c0.763-1.031,0.594-2.559-0.174-3.586c-0.769-1.027-2.017-1.604-3.278-1.84
							c-2.276-0.426-4.603,0.134-6.888,0.509c-4.858,0.797-9.853,0.752-14.695-0.131c-6.159-1.123-12.035-3.581-18.239-4.419
							c-6.937-0.936-14.144,0.236-20.425,3.323c-1.351,0.664-2.687,1.435-3.672,2.573C83.23,258.758,82.778,261.266,83.123,262.731"
							/>
					</g>
				</g>
				<g>
					<g>
						<path style="fill:#263238;" d="M104.705,199.339c0.009,0,0.023,0.103,0.041,0.305c0.018,0.231,0.04,0.526,0.069,0.897
							c0.051,0.825,0.123,1.981,0.214,3.452c0.165,3.036,0.4,7.366,0.689,12.701c0.533,10.758,1.267,25.561,2.078,41.912
							c0.194,4.093,0.383,8.09,0.565,11.95c0.181,3.859,0.369,7.587,0.362,11.146c-0.004,1.779-0.053,3.516-0.164,5.2
							c-0.117,1.692-0.323,3.297-0.299,4.869c0.011,3.138,0.263,6.094,0.211,8.774c0.103,2.668,0.396,5.086,0.619,7.204
							c0.243,2.109,0.453,3.931,0.626,5.435c0.162,1.465,0.289,2.616,0.38,3.438c0.033,0.37,0.059,0.666,0.08,0.896
							c0.015,0.202,0.018,0.306,0.009,0.307c-0.009,0.001-0.03-0.101-0.062-0.301c-0.034-0.229-0.077-0.522-0.131-0.89
							c-0.114-0.819-0.274-1.965-0.477-3.425c-0.198-1.501-0.437-3.321-0.714-5.426c-0.251-2.12-0.57-4.528-0.698-7.227
							c0.029-2.693-0.244-5.607-0.275-8.785c-0.034-1.591,0.167-3.235,0.274-4.898c0.102-1.673,0.143-3.4,0.141-5.171
							c-0.006-3.543-0.204-7.262-0.392-11.122c-0.186-3.86-0.379-7.856-0.576-11.949c-0.751-16.354-1.431-31.16-1.925-41.92
							c-0.22-5.339-0.399-9.671-0.524-12.709c-0.049-1.473-0.088-2.631-0.116-3.457c-0.007-0.372-0.013-0.668-0.017-0.9
							C104.692,199.443,104.696,199.339,104.705,199.339z"/>
					</g>
				</g>
				<g>
					<path style="fill:#455A64;" d="M80.184,196.863L79.6,236.997l2.951,6.998l-2.495,19.115l-10.108-5.664
						c-5.012-2.808-7.986-8.322-7.341-14.031c0.005-0.045,0.01-0.09,0.016-0.134c0.928-7.78,2.469-20.18,3.76-28.053
						c1.996-12.176,3.393-21.757,6.388-25.55L80.184,196.863z"/>
				</g>
				<g>
					<path style="fill:#455A64;" d="M147.224,186.483c0,0,5.789-1.198,8.783,12.775c2.994,13.973,5.389,38.325,5.389,38.325
						s2.395,0.659,1.198,3.024c0,0-0.399,13.158-1.996,14.748l-16.667-9.844l-1.896-2.77L147.224,186.483z"/>
				</g>
				<g>
					<polygon style="fill:#9D6054;" points="80.105,262.731 102.5,260.238 104.216,249.35 82.258,247.585 					"/>
				</g>
				<g>
					<g>
						<path style="fill:#263238;" d="M108.545,194.472c0.029,0.022-0.239,0.428-0.747,1.143c-0.577,0.79-1.313,1.797-2.192,3
							c-0.958,1.286-2.07,2.779-3.293,4.421c-0.085,0.121-0.275,0.282-0.496,0.29c-0.214,0.013-0.392-0.075-0.521-0.162
							c-0.263-0.185-0.419-0.374-0.629-0.563c-0.404-0.373-0.803-0.768-1.175-1.202c-0.779-0.837-1.467-1.805-2.13-2.817
							c-2.58-4.139-3.361-8.633-3.264-11.774c0.014-1.584,0.252-2.849,0.429-3.71c0.223-0.854,0.363-1.319,0.397-1.31
							c0.124,0.022-0.502,1.901-0.458,5.022c-0.001,3.089,0.822,7.459,3.338,11.496c0.648,0.987,1.315,1.933,2.069,2.753
							c0.36,0.426,0.746,0.813,1.136,1.181c0.189,0.176,0.388,0.399,0.561,0.519c0.201,0.112,0.242,0.126,0.367-0.02
							c1.24-1.652,2.412-3.113,3.377-4.347c0.932-1.163,1.711-2.135,2.323-2.899C108.194,194.814,108.516,194.45,108.545,194.472z"
							/>
					</g>
				</g>
				<g>
					<g>
						<path style="fill:#263238;" d="M127.381,181.493c0.018-0.001,0.038,0.138,0.061,0.404c0.029,0.266,0.04,0.659,0.041,1.167
							c-0.014,1.012-0.142,2.496-0.643,4.249c-0.486,1.758-1.344,3.747-2.319,5.922c-0.979,2.19-2.249,4.505-3.703,6.85
							c-0.725,1.174-1.455,2.305-2.167,3.392c-0.178,0.271-0.355,0.54-0.53,0.807c-0.19,0.262-0.303,0.531-0.603,0.815
							c-0.15,0.136-0.398,0.233-0.625,0.193c-0.228-0.035-0.398-0.154-0.53-0.27c-0.268-0.247-0.421-0.502-0.606-0.733
							c-1.419-1.888-2.705-3.6-3.808-5.067c-1.027-1.397-1.878-2.555-2.531-3.444c-0.588-0.82-0.9-1.284-0.872-1.306
							c0.028-0.022,0.395,0.4,1.033,1.182c0.687,0.862,1.583,1.987,2.662,3.343c1.128,1.447,2.444,3.136,3.896,4.999
							c0.349,0.476,0.772,1.033,1.058,0.724c0.161-0.143,0.328-0.457,0.504-0.713c0.173-0.267,0.348-0.537,0.524-0.809
							c0.705-1.089,1.431-2.218,2.152-3.387c1.446-2.334,2.717-4.619,3.709-6.774c0.999-2.165,1.882-4.116,2.403-5.828
							C127.542,183.772,127.254,181.48,127.381,181.493z"/>
					</g>
				</g>
				<g>
					<g>
						<path style="fill:#263238;" d="M96.117,197.053c0.02,0.084-1.058,0.265-2.666,1.01c-1.595,0.731-3.721,2.143-5.333,4.437
							l-0.151,0.215l-0.217-0.16c-0.533-0.394-1.102-0.788-1.727-1.116c-2.9-1.583-6.013-1.814-8.14-1.566
							c-2.155,0.257-3.401,0.846-3.435,0.753c-0.014-0.031,0.287-0.192,0.855-0.438c0.577-0.218,1.432-0.508,2.531-0.68
							c2.172-0.35,5.415-0.175,8.436,1.473c0.651,0.342,1.243,0.755,1.795,1.17l-0.367,0.054c1.699-2.379,3.946-3.784,5.617-4.45
							c0.841-0.341,1.545-0.528,2.034-0.621C95.839,197.042,96.111,197.024,96.117,197.053z"/>
					</g>
				</g>
				<g>
					<g>
						<path style="fill:#263238;" d="M146.514,199.518c-0.037,0.105-1.289-0.95-3.72-1.022c-1.197-0.034-2.626,0.186-4.104,0.777
							c-1.484,0.574-3.004,1.474-4.572,2.471c-0.163,0.103-0.324,0.205-0.474,0.301l-0.2,0.126l-0.146-0.187
							c-2.191-2.808-5.422-3.986-7.672-4.204c-2.299-0.25-3.705,0.223-3.722,0.112c-0.008-0.027,0.33-0.16,0.972-0.302
							c0.641-0.143,1.599-0.251,2.784-0.169c1.183,0.078,2.59,0.387,4.026,1.061c1.434,0.665,2.88,1.728,4.024,3.184l-0.345-0.061
							c0.15-0.096,0.312-0.198,0.475-0.302c1.574-1.001,3.135-1.911,4.68-2.48c1.537-0.586,3.049-0.781,4.292-0.696
							c1.25,0.08,2.222,0.436,2.83,0.764C146.255,199.225,146.531,199.498,146.514,199.518z"/>
					</g>
				</g>
				<g>
					<g>
						<path style="fill:#263238;" d="M141.108,286.621c0.011,0.014-0.123,0.126-0.388,0.324c-0.317,0.23-0.705,0.51-1.175,0.85
							c-0.264,0.186-0.549,0.387-0.857,0.605c-0.321,0.21-0.686,0.411-1.069,0.642c-0.777,0.444-1.635,1.004-2.665,1.466
							c-0.509,0.247-1.041,0.505-1.593,0.773c-0.557,0.264-1.163,0.474-1.777,0.726c-1.22,0.528-2.585,0.921-4.009,1.37
							c-2.879,0.787-6.118,1.399-9.56,1.625c-3.446,0.183-6.736-0.041-9.688-0.482c-1.467-0.277-2.869-0.506-4.143-0.886
							c-0.639-0.178-1.266-0.315-1.85-0.511c-0.58-0.201-1.139-0.394-1.674-0.579c-1.078-0.337-1.996-0.791-2.82-1.141
							c-0.408-0.183-0.795-0.34-1.138-0.51c-0.332-0.179-0.639-0.345-0.923-0.499c-0.507-0.282-0.925-0.514-1.267-0.705
							c-0.286-0.166-0.432-0.261-0.424-0.276c0.009-0.016,0.172,0.048,0.474,0.184c0.353,0.166,0.785,0.369,1.307,0.616
							c0.288,0.14,0.601,0.292,0.937,0.455c0.347,0.156,0.737,0.299,1.148,0.468c0.829,0.321,1.749,0.748,2.825,1.06
							c0.534,0.173,1.09,0.354,1.669,0.542c0.582,0.184,1.206,0.31,1.841,0.477c1.266,0.359,2.657,0.568,4.11,0.83
							c2.925,0.41,6.176,0.617,9.584,0.436c3.403-0.224,6.607-0.814,9.462-1.567c1.412-0.432,2.768-0.805,3.982-1.31
							c0.611-0.241,1.216-0.44,1.771-0.691c0.552-0.255,1.084-0.5,1.593-0.736c1.032-0.437,1.895-0.97,2.68-1.387
							c0.388-0.217,0.758-0.404,1.085-0.6c0.315-0.202,0.607-0.39,0.877-0.563c0.49-0.306,0.894-0.559,1.225-0.766
							C140.943,286.69,141.097,286.607,141.108,286.621z"/>
					</g>
				</g>
				<g>
					<g>
						<path style="fill:#263238;" d="M135.003,272.517c0.024,0.026-0.389,0.434-1.161,1.152c-0.381,0.364-0.859,0.797-1.45,1.257
							c-0.586,0.465-1.232,1.025-2.014,1.553c-0.765,0.552-1.609,1.148-2.563,1.716c-0.928,0.61-1.98,1.159-3.076,1.758
							c-2.225,1.13-4.754,2.216-7.502,3.09c-2.757,0.848-5.454,1.396-7.927,1.736c-1.241,0.133-2.419,0.281-3.529,0.308
							c-1.108,0.077-2.141,0.068-3.084,0.05c-0.944,0.012-1.794-0.08-2.54-0.128c-0.748-0.041-1.387-0.124-1.908-0.206
							c-1.043-0.15-1.615-0.25-1.61-0.285c0.005-0.036,0.587-0.004,1.632,0.084c0.522,0.051,1.16,0.104,1.905,0.117
							c0.744,0.02,1.588,0.086,2.525,0.051c0.936-0.006,1.96-0.018,3.056-0.113c1.099-0.045,2.263-0.209,3.491-0.353
							c2.444-0.363,5.108-0.92,7.836-1.758c2.718-0.865,5.224-1.926,7.439-3.02c1.09-0.581,2.14-1.11,3.069-1.699
							c0.955-0.546,1.803-1.12,2.576-1.648c0.79-0.504,1.446-1.04,2.046-1.48c0.604-0.435,1.099-0.843,1.499-1.182
							C134.518,272.849,134.978,272.491,135.003,272.517z"/>
					</g>
				</g>
				<g>
					<g>
						<path style="fill:#263238;" d="M75.224,200.377c0.036-0.004,0.121,0.471,0.244,1.332c0.129,0.963,0.292,2.187,0.487,3.649
							c0.422,3.183,0.979,7.387,1.595,12.035c0.668,4.642,1.271,8.84,1.728,12.019c0.209,1.46,0.383,2.682,0.52,3.644
							c0.115,0.862,0.162,1.342,0.126,1.348c-0.035,0.006-0.15-0.462-0.326-1.314c-0.177-0.852-0.411-2.088-0.684-3.619
							c-0.546-3.062-1.23-7.304-1.881-12.006c-0.649-4.701-1.14-8.969-1.445-12.064c-0.153-1.548-0.263-2.801-0.323-3.669
							C75.205,200.862,75.188,200.38,75.224,200.377z"/>
					</g>
				</g>
				<g>
					<g>
						<path style="fill:#263238;" d="M147.191,192.28c0.018,0.002,0.02,0.177,0.008,0.51c-0.021,0.392-0.048,0.872-0.079,1.453
							c-0.079,1.261-0.218,3.084-0.41,5.336c-0.382,4.502-0.994,10.715-1.808,17.562c-0.815,6.849-1.678,13.033-2.362,17.499
							c-0.342,2.233-0.634,4.038-0.853,5.283c-0.105,0.573-0.193,1.045-0.264,1.431c-0.066,0.326-0.109,0.496-0.127,0.494
							c-0.018-0.003-0.009-0.178,0.023-0.509c0.045-0.39,0.1-0.867,0.167-1.446c0.173-1.331,0.406-3.124,0.689-5.304
							c0.591-4.478,1.395-10.665,2.21-17.509c0.813-6.842,1.482-13.044,1.958-17.536c0.236-2.186,0.43-3.984,0.574-5.318
							c0.071-0.578,0.129-1.055,0.177-1.445C147.141,192.451,147.173,192.278,147.191,192.28z"/>
					</g>
				</g>
				<g>
					<g>
						<g>
							<polygon style="fill:#FF725E;" points="150.752,224.477 122.138,241.721 114.748,239.636 80.828,233.099 73.817,255.355 
								100.511,257.872 112.284,263.513 117.969,261.049 142.793,243.995 							"/>
						</g>
						<g>
							<g>
								<path style="fill:#263238;" d="M112.271,263.428c-0.067-0.033,0.466-1.246,1.342-3.198c0.877-1.952,2.086-4.647,3.379-7.642
									c1.292-2.997,2.422-5.727,3.241-7.704c0.819-1.977,1.335-3.197,1.405-3.171c0.034,0.013-0.051,0.334-0.232,0.906
									c-0.18,0.572-0.463,1.392-0.83,2.399c-0.732,2.014-1.811,4.773-3.106,7.776c-1.296,3.002-2.562,5.68-3.525,7.594
									c-0.481,0.957-0.883,1.726-1.175,2.25C112.48,263.162,112.303,263.444,112.271,263.428z"/>
							</g>
						</g>
						<g>
							<g>
								<path style="fill:#263238;" d="M111.466,247.137c-0.134-0.053,0.393-1.716,1.176-3.715c0.784-2,1.528-3.578,1.661-3.525
									c0.134,0.052-0.393,1.715-1.177,3.715C112.344,245.611,111.6,247.19,111.466,247.137z"/>
							</g>
						</g>
						<g>
							<path style="fill:#E0E0E0;" d="M118.189,240.607c0,0,0.857-3.421,3.45-4.745c2.593-1.324,24.075-12.507,24.075-12.507
								l2.546,2.623l-26.122,15.743L118.189,240.607z"/>
						</g>
						<g>
							<path style="fill:#E0E0E0;" d="M83.78,233.668l4.349-2.181c0,0,12.318-1.329,19.444,0c7.125,1.329,10.845,5.317,10.616,9.12
								L83.78,233.668z"/>
						</g>
					</g>
					<g>
						<g>
							<path style="fill:#9D6054;" d="M134.266,242.858c0,0-3.222,1.137-4.927,4.927c-1.705,3.79-2.842,5.685-4.927,7.011
								c-2.084,1.327-3.221,2.274-5.685,1.137c-2.463-1.137-6.456-4.86-8.345-5.165c-1.123-0.181-1.509,1.565-1.509,1.565
								s-4.927-3.283-6.632-2.684c-1.705,0.599-0.189,1.926,0.948,3.252c1.137,1.326,1.895,2.653,1.895,2.653
								c0.37-0.158-3.426-3.729-5.763-2.983c-1.532,0.489-1.068,1.773-1.068,1.773l2.852,2.097c0,0-1.516,2.714-0.189,3.283
								c1.326,0.568,10.801,7.201,12.886,7.201c2.085,0,11.559,1.706,15.539,0.758c3.979-0.948,8.42-2.309,8.42-2.309
								s15.646-5.082,20.383-11.145l-14.212-8.717c0,0-9.475,12.317-10.043,10.991s-1.137-4.169-0.568-7.011
								C133.887,246.648,135.914,241.94,134.266,242.858z"/>
						</g>
						<g>
							<g>
								<path style="fill:#724A44;" d="M121.14,261.372c-0.013,0.056-0.891-0.072-2.2-0.644c-1.328-0.549-2.91-1.729-4.692-2.871
									c-1.849-1.132-3.308-2.457-4.272-3.513c-0.917-1.106-1.189-1.99-1.103-2.012c0.052-0.019,0.424,0.761,1.378,1.767
									c0.993,0.948,2.464,2.211,4.276,3.318c1.82,1.169,3.329,2.367,4.573,2.98C120.329,261.036,121.165,261.29,121.14,261.372z"
									/>
							</g>
						</g>
						<g>
							<g>
								<path style="fill:#724A44;" d="M117.905,265.373c-0.039,0.058-0.812-0.386-2.013-1.179c-1.2-0.793-2.823-1.941-4.558-3.285
									c-1.736-1.345-3.254-2.629-4.321-3.593c-1.068-0.964-1.691-1.601-1.645-1.654c0.049-0.056,0.757,0.483,1.882,1.372
									c1.283,1.009,2.765,2.175,4.403,3.463c1.655,1.263,3.155,2.407,4.453,3.397
									C117.248,264.761,117.947,265.312,117.905,265.373z"/>
							</g>
						</g>
						<g>
							<g>
								<path style="fill:#724A44;" d="M110.014,264.11c-0.123,0.099-1.828-1.97-4.328-4.098c-2.488-2.143-4.795-3.509-4.716-3.645
									c0.055-0.118,2.517,1.066,5.055,3.25C108.573,261.786,110.122,264.037,110.014,264.11z"/>
							</g>
						</g>
					</g>
				</g>
			</g>
			<g>
				<g>
					<path style="fill:#263238;" d="M112.884,208.396c-0.045,0.001-0.055-0.252-0.187-0.666c-0.13-0.407-0.425-0.994-1.042-1.437
						c-0.597-0.444-1.561-0.682-2.483-0.329c-0.914,0.324-1.697,1.298-1.687,2.432c-0.01,1.134,0.773,2.108,1.687,2.433
						c0.922,0.352,1.886,0.115,2.483-0.329c0.618-0.443,0.912-1.029,1.042-1.437C112.829,208.647,112.84,208.395,112.884,208.396
						c0.026-0.002,0.088,0.253,0.01,0.715c-0.077,0.452-0.343,1.135-1.016,1.68c-0.649,0.546-1.764,0.878-2.87,0.488
						c-1.095-0.355-2.058-1.518-2.045-2.884c-0.013-1.366,0.95-2.528,2.045-2.883c1.105-0.391,2.221-0.058,2.869,0.488
						c0.672,0.545,0.938,1.228,1.016,1.68C112.972,208.142,112.911,208.398,112.884,208.396z"/>
				</g>
			</g>
			<g>
				<g>
					<path style="fill:#263238;" d="M113.886,227.479c-0.045,0.001-0.055-0.252-0.187-0.666c-0.13-0.407-0.425-0.994-1.043-1.437
						c-0.597-0.444-1.561-0.682-2.483-0.329c-0.915,0.324-1.697,1.298-1.687,2.432c-0.01,1.134,0.773,2.108,1.687,2.433
						c0.922,0.352,1.886,0.115,2.483-0.329c0.618-0.442,0.912-1.029,1.042-1.437C113.831,227.73,113.841,227.478,113.886,227.479
						c0.027-0.002,0.088,0.254,0.01,0.716c-0.077,0.452-0.343,1.135-1.016,1.68c-0.649,0.546-1.765,0.878-2.87,0.488
						c-1.095-0.355-2.058-1.518-2.045-2.884c-0.013-1.366,0.95-2.528,2.045-2.883c1.105-0.391,2.221-0.058,2.869,0.488
						c0.672,0.545,0.938,1.228,1.016,1.68C113.974,227.225,113.913,227.481,113.886,227.479z"/>
				</g>
			</g>
			<g>
				<g>
					<path style="fill:#263238;" d="M115.761,272.694c-0.045,0.001-0.055-0.252-0.187-0.666c-0.13-0.407-0.425-0.994-1.043-1.437
						c-0.597-0.444-1.561-0.682-2.483-0.329c-0.915,0.324-1.697,1.298-1.687,2.432c-0.01,1.134,0.773,2.108,1.687,2.433
						c0.922,0.352,1.886,0.115,2.483-0.329c0.618-0.443,0.913-1.029,1.042-1.437C115.705,272.945,115.716,272.693,115.761,272.694
						c0.026-0.002,0.088,0.253,0.01,0.716c-0.077,0.452-0.343,1.135-1.016,1.68c-0.649,0.546-1.765,0.878-2.87,0.488
						c-1.095-0.355-2.058-1.518-2.045-2.884c-0.013-1.366,0.95-2.528,2.045-2.883c1.105-0.391,2.221-0.058,2.87,0.488
						c0.672,0.545,0.938,1.228,1.016,1.68C115.848,272.44,115.787,272.696,115.761,272.694z"/>
				</g>
			</g>
			<g>
				<g>
					<path style="fill:#263238;" d="M115.326,290.496c-0.045,0.001-0.055-0.252-0.187-0.666c-0.13-0.407-0.425-0.994-1.043-1.437
						c-0.597-0.444-1.561-0.681-2.483-0.329c-0.915,0.324-1.697,1.298-1.687,2.432c-0.01,1.134,0.773,2.108,1.687,2.433
						c0.922,0.352,1.886,0.115,2.483-0.329c0.618-0.443,0.913-1.029,1.042-1.437C115.271,290.748,115.282,290.495,115.326,290.496
						c0.026-0.002,0.088,0.254,0.01,0.716c-0.077,0.452-0.344,1.135-1.016,1.68c-0.649,0.546-1.765,0.878-2.87,0.488
						c-1.095-0.355-2.058-1.518-2.044-2.884c-0.013-1.366,0.95-2.528,2.044-2.883c1.105-0.391,2.221-0.058,2.87,0.488
						c0.672,0.545,0.938,1.228,1.016,1.68C115.414,290.242,115.353,290.498,115.326,290.496z"/>
				</g>
			</g>
		</g>
		<g>
			<g>
				<g>
					<g>
						<path style="fill:#263238;" d="M90.05,129.558c0.994-3.637,3.517-6.829,6.826-8.637c3.635-1.986,8.026-2.272,12.088-1.459
							c4.062,0.813,7.847,2.652,11.432,4.726c2.012,1.164,4.018,2.443,5.464,4.263c2.639,3.321,3.002,7.85,3.256,12.084
							c0.206,3.424,0.382,7.012-1.065,10.122c-1.328,2.854-4.021,5.034-7.089,5.738"/>
					</g>
				</g>
			</g>
			<g>
				<g>
					<g>
						<path style="fill:#263238;" d="M127.235,146.725c3.996-4.557,6.016-10.791,5.45-16.826c-0.19-2.03-0.747-4.182-2.308-5.493
							c-0.796-0.669-1.792-1.062-2.604-1.712c-1.481-1.186-2.208-3.1-3.616-4.371c-1.441-1.301-3.567-1.796-5.434-1.263
							c-1.867,0.532-3.413,2.074-3.951,3.94c-0.741,2.572,0.365,5.275,1.45,7.722c1.675,3.78,3.351,7.56,5.026,11.34
							c0.63,1.42,1.275,2.866,2.308,4.026c1.033,1.16,2.536,2.01,4.083,1.874"/>
					</g>
				</g>
			</g>
			<g>
				<g>
					<g>
						<path style="fill:#263238;" d="M91.768,127.02c-2.97,3.223-4.805,7.473-5.114,11.845c-0.309,4.372,0.91,8.838,3.397,12.447
							c2.11-9.291,5.032-18.398,8.72-27.183"/>
					</g>
				</g>
			</g>
			<g>
				<g>
					<g>
						<g>
							<g>
								<g>
									<path style="fill:#9D6054;" d="M88.165,139.658c0.44-6.741,4.925-15.002,11.64-14.277l15.54,3.964
										c4.985,1.272,8.308,5.481,8.671,10.613c0.018,0.256,0.044-0.056,0.04,0.136l-1.049,38.052l-14.461,16.325l0,0
										l-9.918-15.264c-0.006-3.282-0.007-5.894-0.007-5.877c0,0-8.61-1.449-10.369-12.69
										C87.375,155.049,87.676,147.147,88.165,139.658z"/>
								</g>
							</g>
						</g>
					</g>
				</g>
			</g>
			<g>
				<g>
					<g>
						<g>
							<path style="fill:#724A44;" d="M103.608,136.143c0.019,0.069-1.423,0.487-3.259,0.671c-1.836,0.19-3.332,0.069-3.328-0.002
								c0.002-0.082,1.485-0.086,3.3-0.273C102.135,136.358,103.59,136.064,103.608,136.143z"/>
						</g>
					</g>
				</g>
			</g>
			<g>
				<g>
					<g>
						<g>
							<path style="fill:#724A44;" d="M101.098,135.742c0.016,0.072-0.883,0.314-2.024,0.374c-1.141,0.063-2.06-0.082-2.052-0.155
								c0.006-0.079,0.919-0.059,2.037-0.122C100.178,135.782,101.083,135.664,101.098,135.742z"/>
						</g>
					</g>
				</g>
			</g>
			<g>
				<g>
					<g>
						<g>
							<path style="fill:#724A44;" d="M105.776,157.99c-0.076,0.009-0.172-0.449-0.626-0.739c-0.442-0.308-0.902-0.22-0.923-0.293
								c-0.011-0.032,0.095-0.112,0.303-0.138c0.205-0.028,0.506,0.023,0.773,0.201c0.267,0.178,0.43,0.436,0.483,0.636
								C105.843,157.86,105.81,157.989,105.776,157.99z"/>
						</g>
					</g>
				</g>
			</g>
			<g>
				<g>
					<g>
						<g>
							<g>
								<g>
									<g>
										<g>
											<g>
												<g>
													<g>
														<g>
															<g>
																<g>
																	<path style="fill:#263238;" d="M92.317,148.392c-0.029,0.761,0.592,1.413,1.386,1.457
																		c0.793,0.044,1.46-0.535,1.488-1.296c0.028-0.761-0.592-1.414-1.385-1.458
																		C93.013,147.051,92.346,147.631,92.317,148.392z"/>
																</g>
															</g>
														</g>
													</g>
												</g>
											</g>
										</g>
									</g>
								</g>
							</g>
						</g>
					</g>
				</g>
			</g>
			<g>
				<g>
					<g>
						<g>
							<g>
								<g>
									<g>
										<g>
											<g>
												<g>
													<g>
														<g>
															<g>
																<g>
																	<g>
																		<path style="fill:#263238;" d="M90.142,144.429c0.178,0.188,1.272-0.617,2.823-0.61
																			c1.549-0.015,2.686,0.786,2.854,0.596c0.083-0.084-0.099-0.424-0.593-0.785c-0.487-0.36-1.318-0.712-2.284-0.71
																			c-0.966,0.003-1.779,0.357-2.247,0.72C90.217,144.005,90.054,144.345,90.142,144.429z"/>
																	</g>
																</g>
															</g>
														</g>
													</g>
												</g>
											</g>
										</g>
									</g>
								</g>
							</g>
						</g>
					</g>
				</g>
			</g>
			<g>
				<g>
					<g>
						<g>
							<g>
								<g>
									<g>
										<g>
											<g>
												<g>
													<g>
														<g>
															<g>
																<g>
																	<path style="fill:#263238;" d="M106.776,148.393c-0.029,0.761,0.592,1.413,1.386,1.457
																		c0.792,0.044,1.46-0.535,1.488-1.296c0.029-0.761-0.592-1.413-1.385-1.458
																		C107.471,147.051,106.804,147.632,106.776,148.393z"/>
																</g>
															</g>
														</g>
													</g>
												</g>
											</g>
										</g>
									</g>
								</g>
							</g>
						</g>
					</g>
				</g>
			</g>
			<g>
				<g>
					<g>
						<g>
							<g>
								<g>
									<g>
										<g>
											<g>
												<g>
													<g>
														<g>
															<g>
																<g>
																	<g>
																		<path style="fill:#263238;" d="M105.385,144.752c0.179,0.188,1.274-0.617,2.823-0.61
																			c1.549-0.015,2.686,0.785,2.854,0.596c0.082-0.084-0.097-0.423-0.594-0.785c-0.487-0.361-1.318-0.712-2.284-0.71
																			c-0.966,0.003-1.779,0.357-2.248,0.72C105.461,144.328,105.298,144.668,105.385,144.752z"/>
																	</g>
																</g>
															</g>
														</g>
													</g>
												</g>
											</g>
										</g>
									</g>
								</g>
							</g>
						</g>
					</g>
				</g>
			</g>
			<g>
				<g>
					<g>
						<g>
							<g>
								<g>
									<g>
										<g>
											<g>
												<g>
													<g>
														<g>
															<g>
																<g>
																	<g>
																		<path style="fill:#263238;" d="M99.732,156.24c0.007-0.088-0.956-0.257-2.518-0.46
																			c-0.396-0.042-0.771-0.121-0.837-0.392c-0.093-0.286,0.074-0.713,0.267-1.173
																			c0.374-0.957,0.766-1.961,1.178-3.013c1.636-4.29,2.821-7.817,2.648-7.882c-0.173-0.064-1.64,3.36-3.276,7.65
																			c-0.394,1.058-0.77,2.066-1.129,3.031c-0.151,0.45-0.41,0.96-0.209,1.554c0.106,0.296,0.396,0.511,0.65,0.58
																			c0.254,0.078,0.476,0.083,0.672,0.095C98.75,156.32,99.726,156.329,99.732,156.24z"/>
																	</g>
																</g>
															</g>
														</g>
													</g>
												</g>
											</g>
										</g>
									</g>
								</g>
							</g>
						</g>
					</g>
				</g>
			</g>
			<g>
				<g>
					<g>
						<path style="fill:#724A44;" d="M113.524,169.331c0,0-3.657,7.719-14.902,6.642l-0.003-2.643
							C98.62,173.33,106.025,173.817,113.524,169.331z"/>
					</g>
				</g>
			</g>
			<g>
				<g>
					<g>
						<g>
							<g>
								<g>
									<g>
										<g>
											<g>
												<g>
													<g>
														<g>
															<g>
																<g>
																	<path style="fill:#724A44;" d="M100.379,159.98c0.56-0.736,1.537-1.139,2.508-1.032
																		c0.673,0.074,1.352,0.4,1.759,0.949c0.408,0.549,0.492,1.327,0.119,1.849c-0.42,0.588-1.295,0.722-2.034,0.51
																		c-0.74-0.212-1.376-0.701-1.979-1.187c-0.167-0.135-0.338-0.275-0.442-0.46c-0.104-0.184-0.126-0.425,0.003-0.577"
																		/>
																</g>
															</g>
														</g>
													</g>
												</g>
											</g>
										</g>
									</g>
								</g>
							</g>
						</g>
					</g>
				</g>
			</g>
			<g>
				<g>
					<g>
						<g>
							<g>
								<g>
									<g>
										<g>
											<g>
												<g>
													<g>
														<g>
															<g>
																<g>
																	<g>
																		<path style="fill:#263238;" d="M104.293,157.323c-0.252-0.015-0.259,1.668-1.703,2.86
																			c-1.441,1.196-3.235,1.003-3.248,1.238c-0.024,0.106,0.399,0.328,1.156,0.35c0.743,0.027,1.828-0.209,2.711-0.938
																			c0.881-0.731,1.261-1.708,1.32-2.398C104.595,157.731,104.408,157.314,104.293,157.323z"/>
																	</g>
																</g>
															</g>
														</g>
													</g>
												</g>
											</g>
										</g>
									</g>
								</g>
							</g>
						</g>
					</g>
				</g>
			</g>
			<g>
				<g>
					<g>
						<g>
							<g>
								<g>
									<g>
										<g>
											<g>
												<g>
													<g>
														<path style="fill:#263238;" d="M105.011,140.211c0.152,0.422,1.701,0.226,3.519,0.449
															c1.824,0.187,3.29,0.723,3.532,0.345c0.108-0.181-0.147-0.578-0.739-0.988c-0.587-0.409-1.525-0.798-2.617-0.923
															c-1.092-0.122-2.092,0.049-2.756,0.317C105.283,139.68,104.946,140.011,105.011,140.211z"/>
													</g>
												</g>
											</g>
										</g>
									</g>
								</g>
							</g>
						</g>
					</g>
				</g>
			</g>
			<g>
				<g>
					<g>
						<g>
							<g>
								<g>
									<g>
										<g>
											<g>
												<g>
													<g>
														<path style="fill:#263238;" d="M90.722,139.942c0.272,0.353,1.341-0.01,2.626-0.025
															c1.284-0.059,2.372,0.242,2.623-0.126c0.11-0.179-0.061-0.532-0.535-0.866c-0.468-0.333-1.25-0.607-2.133-0.582
															c-0.883,0.026-1.648,0.344-2.096,0.704C90.752,139.408,90.602,139.77,90.722,139.942z"/>
													</g>
												</g>
											</g>
										</g>
									</g>
								</g>
							</g>
						</g>
					</g>
				</g>
			</g>
			<g>
				<g>
					<g>
						<path style="fill:#263238;" d="M91.218,129.395c0.687-1.691,2.543-2.706,4.366-2.799s3.603,0.598,5.184,1.511
							c6.692,3.868,10.455,11.552,17.068,15.554c1.626,0.984,3.42,1.743,4.804,3.047s2.281,3.388,1.516,5.128
							c0.888-1.219,1.789-2.46,2.294-3.881c0.505-1.421,0.569-3.074-0.186-4.38c-0.572-0.991-1.583-1.748-1.86-2.859
							c-0.244-0.977,0.142-1.999,0.099-3.005c-0.043-1.024-0.525-1.974-1.029-2.867c-2.59-4.581-6.154-8.725-10.742-11.301
							c-2.998-1.683-6.426-2.668-9.862-2.551c-3.436,0.117-6.868,1.38-9.383,3.724C92.005,126.097,90.451,127.523,91.218,129.395"/>
					</g>
				</g>
			</g>
			<g>
				<g>
					<g>
						<g>
							<path style="fill:#455A64;" d="M124.066,151.872c-0.012-0.011,0.13-0.153,0.35-0.458c0.222-0.302,0.515-0.784,0.726-1.467
								c0.449-1.348,0.463-3.545-0.617-5.881c-0.508-1.176-1.225-2.389-1.958-3.716c-0.747-1.323-1.398-2.817-2.058-4.384
								c-0.67-1.562-1.356-3.215-2.354-4.763c-0.974-1.56-2.239-3.012-3.722-4.279c-2.96-2.558-6.528-4.042-9.864-4.543
								c-3.347-0.501-6.491-0.009-8.753,1.183c-2.284,1.181-3.593,2.932-4.21,4.201c-0.316,0.642-0.481,1.177-0.58,1.541
								c-0.09,0.366-0.131,0.562-0.142,0.56c-0.005-0.001,0-0.05,0.014-0.147c0.016-0.096,0.032-0.241,0.074-0.426
								c0.082-0.371,0.232-0.916,0.537-1.574c0.595-1.301,1.9-3.102,4.216-4.328c2.293-1.236,5.488-1.755,8.881-1.262
								c3.384,0.494,7.006,1.991,10.007,4.585c1.503,1.285,2.785,2.759,3.771,4.344c1.01,1.575,1.696,3.244,2.36,4.808
								c0.655,1.572,1.291,3.053,2.025,4.373c0.721,1.327,1.434,2.553,1.936,3.749c1.072,2.379,1.03,4.631,0.539,5.992
								c-0.23,0.691-0.544,1.173-0.783,1.467C124.222,151.745,124.066,151.872,124.066,151.872z"/>
						</g>
					</g>
				</g>
			</g>
			<g>
				<g>
					<g>
						<g>
							<path style="fill:#455A64;" d="M129.253,145.979c-0.009-0.001-0.01-0.111-0.003-0.321c0.01-0.239,0.022-0.542,0.037-0.915
								c0.03-0.795,0.067-1.945,0.022-3.364c-0.043-1.418-0.168-3.109-0.544-4.943c-0.387-1.823-1.066-3.808-2.408-5.504
								c-1.313-1.712-2.899-3.057-4.311-4.293c-1.421-1.23-2.747-2.282-3.899-3.113c-1.153-0.829-2.127-1.441-2.812-1.844
								c-0.323-0.187-0.585-0.34-0.792-0.459c-0.181-0.105-0.274-0.164-0.27-0.173c0.004-0.008,0.106,0.034,0.296,0.124
								c0.191,0.087,0.467,0.227,0.819,0.415c0.703,0.376,1.698,0.966,2.871,1.778c1.172,0.814,2.517,1.856,3.951,3.079
								c1.423,1.228,3.026,2.574,4.365,4.319c1.371,1.732,2.062,3.777,2.438,5.62c0.367,1.859,0.472,3.564,0.49,4.99
								c0.02,1.427-0.048,2.581-0.11,3.375c-0.03,0.398-0.063,0.705-0.089,0.914C129.28,145.871,129.262,145.98,129.253,145.979z"/>
						</g>
					</g>
				</g>
			</g>
			<g>
				<g>
					<g>
						<g>
							<path style="fill:#455A64;" d="M124.317,118.829c0.032-0.007,0.181,0.473,0.311,1.275c0.131,0.8,0.221,1.925,0.149,3.165
								c-0.075,1.24-0.299,2.346-0.524,3.125c-0.224,0.78-0.429,1.24-0.461,1.229c-0.087-0.025,0.573-1.924,0.709-4.37
								C124.657,120.808,124.228,118.844,124.317,118.829z"/>
						</g>
					</g>
				</g>
			</g>
			<g>
				<g>
					<g>
						<g>
							<path style="fill:#455A64;" d="M132.225,127.154c0.029,0.01-0.069,0.389-0.381,0.936c-0.308,0.545-0.86,1.24-1.637,1.812
								c-0.779,0.57-1.606,0.89-2.219,1.021c-0.615,0.133-1.005,0.114-1.007,0.083c-0.005-0.046,0.375-0.095,0.957-0.272
								c0.581-0.175,1.358-0.508,2.105-1.054c0.744-0.549,1.294-1.191,1.635-1.694C132.021,127.483,132.182,127.136,132.225,127.154
								z"/>
						</g>
					</g>
				</g>
			</g>
			<g>
				<g>
					<g>
						<g>
							<path style="fill:#455A64;" d="M132.779,134.707c0.019,0.055-0.955,0.428-2.238,0.405c-1.283-0.049-2.234-0.477-2.212-0.53
								c0.024-0.09,0.999,0.209,2.219,0.254C131.769,134.86,132.761,134.616,132.779,134.707z"/>
						</g>
					</g>
				</g>
			</g>
			<g>
				<g>
					<g>
						<g>
							<path style="fill:#263238;" d="M127.893,154.346c-0.267-0.134-0.135-0.876-0.1-2.081c0.009-0.592-0.009-1.322-0.237-1.972
								c-0.057-0.16-0.125-0.314-0.206-0.454c-0.033-0.075-0.091-0.132-0.131-0.2c-0.039-0.061-0.123-0.175-0.185-0.261
								c-0.275-0.368-0.587-0.75-0.927-1.078c-0.329-0.329-0.726-0.615-0.968-0.681c-0.122-0.041-0.153-0.003-0.097,0.016
								c-0.13,0.025-0.262,0.051-0.394,0.077c-0.14,0.032-0.281,0.065-0.424,0.098c-0.556,0.142-1.069,0.332-1.597,0.604
								c-0.264,0.135-0.531,0.289-0.803,0.461l-0.204,0.132l-0.349,0.206c-0.235,0.127-0.473,0.24-0.715,0.339
								c-0.967,0.383-1.983,0.602-3.162,0.534c-0.588-0.042-1.229-0.164-1.892-0.477l-0.245-0.122l-0.193-0.115
								c-0.127-0.08-0.261-0.153-0.38-0.242c-0.246-0.173-0.481-0.357-0.697-0.558c-0.876-0.8-1.466-1.738-1.926-2.625
								c-0.455-0.89-0.796-1.762-1.123-2.555c-1.245-3.066-2.97-5.727-4.828-7.926c-1.856-2.203-3.846-3.923-5.635-5.223
								c-1.788-1.336-3.3-2.127-4.428-2.541c-1.12-0.418-1.851-0.528-1.894-0.828c-0.049-0.258,0.668-0.727,2.137-0.767
								c1.455-0.05,3.543,0.495,5.706,1.631c2.193,1.105,4.654,2.794,6.939,5.158c2.283,2.349,4.404,5.388,5.836,8.919
								c0.348,0.85,0.647,1.616,0.97,2.272c0.322,0.651,0.664,1.174,1.018,1.519c0.088,0.09,0.178,0.165,0.269,0.236
								c0.043,0.04,0.094,0.063,0.14,0.097l0.069,0.049l0.031,0.017c0.076,0.049,0.243,0.11,0.457,0.137
								c0.431,0.06,1.006-0.008,1.479-0.161c0.118-0.039,0.229-0.081,0.334-0.125l0.148-0.07l0.283-0.153
								c0.38-0.2,0.772-0.384,1.174-0.546c0.803-0.326,1.656-0.545,2.446-0.652c0.198-0.028,0.391-0.049,0.581-0.066l0.28-0.023
								l0.318-0.018c0.718-0.041,1.338,0.177,1.779,0.423c0.897,0.511,1.381,1.111,1.801,1.665c0.412,0.561,0.712,1.11,0.967,1.646
								c0.065,0.143,0.117,0.25,0.184,0.421c0.061,0.166,0.134,0.326,0.171,0.488c0.093,0.323,0.143,0.634,0.167,0.929
								c0.083,1.184-0.205,2.067-0.476,2.737C128.782,153.964,128.129,154.472,127.893,154.346z"/>
						</g>
					</g>
				</g>
			</g>
			<g>
				<g>
					<g>
						<g>
							<g>
								<g>
									<g>
										<g>
											<g>
												<g>
													<g>
														<g>
															<g>
																<g>
																	<g>
																		<g>
																			<g>
																				<path style="fill:#9D6054;" d="M122.477,148.101c0.118-0.322,5.98-2.438,6.058,3.793
																					c0.075,6.053-6.032,4.861-6.045,4.688C122.478,156.408,122.477,148.101,122.477,148.101z"/>
																			</g>
																		</g>
																	</g>
																</g>
															</g>
														</g>
													</g>
												</g>
											</g>
										</g>
									</g>
								</g>
							</g>
						</g>
					</g>
				</g>
				<g>
					<g>
						<g>
							<g>
								<g>
									<g>
										<g>
											<g>
												<g>
													<g>
														<g>
															<g>
																<g>
																	<g>
																		<g>
																			<g>
																				<g>
																					<path style="fill:#724A44;" d="M124.336,154.271c0.026-0.019,0.106,0.073,0.285,0.153
																						c0.174,0.078,0.474,0.13,0.788,0.009c0.637-0.241,1.166-1.261,1.185-2.352c0.01-0.551-0.11-1.074-0.309-1.507
																						c-0.189-0.441-0.478-0.748-0.801-0.802c-0.321-0.071-0.547,0.124-0.62,0.295
																						c-0.079,0.17-0.04,0.29-0.072,0.301c-0.017,0.015-0.131-0.1-0.084-0.351c0.024-0.121,0.093-0.264,0.234-0.382
																						c0.144-0.12,0.357-0.182,0.582-0.16c0.467,0.028,0.891,0.453,1.11,0.928c0.245,0.477,0.393,1.065,0.381,1.684
																						c-0.027,1.22-0.641,2.367-1.514,2.628c-0.425,0.115-0.781-0.01-0.966-0.151
																						C124.348,154.417,124.315,154.282,124.336,154.271z"/>
																				</g>
																			</g>
																		</g>
																	</g>
																</g>
															</g>
														</g>
													</g>
												</g>
											</g>
										</g>
									</g>
								</g>
							</g>
						</g>
					</g>
				</g>
			</g>
			<g>
				<g>
					<g>
						<g>
							<path style="fill:#455A64;" d="M127.145,148.009c-0.019,0.009-0.069-0.156-0.256-0.409c-0.183-0.251-0.527-0.589-1.086-0.801
								c-0.555-0.212-1.301-0.309-2.141-0.188c-0.846,0.104-1.731,0.532-2.716,0.977c-0.977,0.432-2.118,0.967-3.446,0.873
								c-1.317-0.095-2.604-0.841-3.577-1.914c-0.994-1.08-1.632-2.498-2.144-3.969c-0.504-1.481-0.956-3.022-1.567-4.552
								c-1.19-3.064-2.777-5.829-4.768-7.867c-1.958-2.072-4.334-3.262-6.407-3.784c-1.041-0.264-2.014-0.362-2.868-0.365
								c-0.853,0.022-1.586,0.116-2.17,0.261c-1.17,0.286-1.763,0.62-1.778,0.583c-0.002-0.004,0.034-0.025,0.107-0.062
								c0.089-0.042,0.196-0.094,0.328-0.157c0.286-0.144,0.731-0.308,1.317-0.468c0.587-0.163,1.328-0.274,2.194-0.311
								c0.866-0.013,1.856,0.073,2.917,0.329c2.111,0.505,4.542,1.699,6.543,3.796c2.032,2.06,3.644,4.858,4.843,7.943
								c0.615,1.539,1.07,3.097,1.566,4.564c0.503,1.459,1.124,2.844,2.076,3.887c0.936,1.042,2.164,1.758,3.406,1.857
								c1.25,0.1,2.368-0.401,3.348-0.824c0.985-0.432,1.897-0.859,2.775-0.952c0.866-0.109,1.633,0.007,2.202,0.242
								c0.574,0.235,0.92,0.601,1.092,0.869c0.094,0.132,0.139,0.247,0.17,0.324C127.135,147.968,127.149,148.008,127.145,148.009z"
								/>
						</g>
					</g>
				</g>
			</g>
			<g>
				<g>
					<g>
						<g>
							<path style="fill:#455A64;" d="M124.885,144.99c-0.005,0.008-0.13-0.062-0.365-0.204c-0.231-0.147-0.589-0.344-1.015-0.645
								c-0.846-0.612-2.019-1.581-3.268-2.975c-1.256-1.386-2.571-3.185-3.996-5.191c-1.428-2.002-2.996-4.218-4.995-6.22
								c-1.018-0.977-2.088-1.855-3.223-2.547c-1.132-0.697-2.318-1.21-3.482-1.58c-2.331-0.75-4.569-0.914-6.412-0.787
								c-1.851,0.116-3.315,0.509-4.295,0.842c-0.497,0.151-0.865,0.318-1.121,0.416c-0.255,0.1-0.391,0.149-0.395,0.14
								c-0.004-0.009,0.124-0.074,0.373-0.191c0.25-0.114,0.612-0.298,1.108-0.466c0.975-0.367,2.446-0.793,4.317-0.935
								c1.862-0.153,4.133-0.008,6.503,0.74c1.184,0.369,2.391,0.885,3.545,1.591c1.158,0.701,2.246,1.591,3.277,2.582
								c2.024,2.026,3.592,4.26,5.009,6.27c1.414,2.015,2.706,3.816,3.935,5.209c1.221,1.4,2.364,2.383,3.185,3.017
								c0.414,0.313,0.76,0.523,0.981,0.685C124.774,144.896,124.89,144.982,124.885,144.99z"/>
						</g>
					</g>
				</g>
			</g>
			<g>
				<g>
					<g>
						<g>
							<path style="fill:#FFFFFF;" d="M125.024,155.341c0.59-0.11,1.228,0.3,1.374,0.882c0.146,0.581-0.223,1.245-0.795,1.426
								c-0.571,0.182-1.256-0.145-1.473-0.704c-0.217-0.559,0.067-1.263,0.611-1.514"/>
						</g>
					</g>
				</g>
				<g>
					<g>
						<g>
							<g>
								<path style="fill:#263238;" d="M124.742,155.431c0.035,0.036-0.395,0.21-0.545,0.813c-0.07,0.288-0.032,0.671,0.237,0.95
									c0.254,0.279,0.714,0.453,1.128,0.324c0.413-0.134,0.688-0.542,0.733-0.917c0.057-0.383-0.133-0.717-0.356-0.912
									c-0.471-0.406-0.922-0.299-0.915-0.348c-0.004-0.015,0.093-0.063,0.284-0.067c0.188-0.004,0.476,0.053,0.755,0.264
									c0.275,0.199,0.541,0.607,0.485,1.092c-0.044,0.465-0.362,0.971-0.903,1.151c-0.545,0.166-1.097-0.063-1.402-0.417
									c-0.326-0.363-0.344-0.85-0.235-1.171c0.105-0.334,0.308-0.547,0.463-0.652C124.63,155.433,124.736,155.416,124.742,155.431
									z"/>
							</g>
						</g>
					</g>
				</g>
			</g>
		</g>
	</g>
</g>
<g id="Plant">
	<g>
		<g>
			<path style="fill:#263238;" d="M450.719,393.558c0.887-3.074,2.787-6.046,5.726-7.313c3.057-1.317,6.597-0.567,9.725,0.569
				c3.128,1.136,6.2,2.658,9.522,2.863c3.322,0.205,7.072-1.371,8.066-4.547c0.935-2.986-0.865-6.171-3.12-8.34
				c-4.737-4.559-11.854-6.493-18.247-4.958c-6.393,1.535-11.856,6.489-14.007,12.702"/>
		</g>
		<g>
			<path style="fill:#455A64;" d="M424.399,406.903c-4.874-4.63-4.631-12.69-2.199-18.958c2.431-6.268,7.738-11.08,13.665-14.252
				c11.49-6.149,25.853-6.614,37.716-1.223c-5.83,0.193-11.465,3.502-14.474,8.499c-2.671,4.436-3.265,9.82-5.471,14.504
				c-2.458,5.219-6.97,9.436-12.343,11.536C435.921,409.11,429.745,409.071,424.399,406.903"/>
		</g>
		<g>
			<path style="fill:#455A64;" d="M422.056,379.085c-5.396-6.37-6.115-16.595-5.32-24.905c0.795-8.31,2.721-16.674,1.41-24.919
				c-0.777-4.884-2.672-9.548-3.312-14.452c-0.64-4.904,0.267-10.45,4.067-13.616c4.368-3.638,11.245-2.78,15.788,0.636
				c4.543,3.416,7.176,8.783,9.099,14.132c4.226,11.752,5.778,24.784,2.306,36.78c-3.472,11.996-11.618,22.723-23.571,26.344"/>
		</g>
		<g>
			<g>
				<path style="fill:#263238;" d="M419.467,431.348c-0.018,0-0.027-0.253-0.028-0.734c0.004-0.481-0.005-1.192,0.033-2.105
					c0.064-1.827,0.237-4.471,0.643-7.718c0.408-3.245,1.048-7.094,2.066-11.302c1.004-4.218,2.723-8.715,5.156-13.09
					c2.441-4.377,5.419-8.156,8.432-11.268c3.021-3.115,6.111-5.537,8.842-7.343c1.35-0.931,2.655-1.637,3.779-2.292
					c1.152-0.603,2.158-1.097,2.983-1.492c0.807-0.336,1.453-0.605,1.945-0.81c0.446-0.18,0.684-0.266,0.691-0.249
					s-0.217,0.135-0.65,0.346c-0.48,0.227-1.111,0.525-1.899,0.897c-0.807,0.422-1.795,0.94-2.928,1.564
					c-1.104,0.675-2.388,1.398-3.715,2.343c-2.686,1.832-5.727,4.265-8.702,7.37c-2.968,3.104-5.906,6.854-8.323,11.189
					c-4.957,8.672-6.32,17.791-7.312,24.186c-0.451,3.229-0.679,5.86-0.805,7.68c-0.054,0.87-0.098,1.567-0.13,2.098
					C419.511,431.096,419.485,431.349,419.467,431.348z"/>
			</g>
		</g>
		<g>
			<g>
				<path style="fill:#263238;" d="M372.922,353.956c-9.984,6.025-9.953,11.508-8.286,16.683c1.667,5.175,7.795,8.771,12.875,6.833
					c2.872-1.095,4.952-3.592,6.729-6.1c1.777-2.508,3.446-5.193,5.936-6.994c2.49-1.802,6.1-2.491,8.602-0.705"/>
			</g>
			<g>
				<path style="fill:#455A64;" d="M365.447,360.562c2.61-3.607,9.06-4.652,13.132-2.852s7.056,5.37,9.725,8.933
					c2.67,3.563,5.269,7.326,8.967,9.805c3.698,2.479,8.865,3.377,12.551,0.879c2.421-1.64,3.824-4.491,4.264-7.383
					c0.439-2.891,0.016-5.844-0.586-8.705c-0.881-4.187-2.32-8.56-5.67-11.221c-3.734-2.965-8.916-3.105-13.682-2.949
					c-5.469,0.179-11.019,0.589-16.152,2.485C372.864,351.449,367.626,355.543,365.447,360.562"/>
			</g>
			<g>
				<g>
					<path style="fill:#263238;" d="M411.169,423.353c-0.018,0-0.041-0.297-0.068-0.863c-0.023-0.613-0.054-1.438-0.093-2.478
						c-0.066-2.202-0.159-5.303-0.273-9.113c-0.124-3.846-0.284-8.426-0.563-13.505c-0.287-5.077-0.664-10.661-1.435-16.471
						c-0.392-2.901-0.85-5.738-1.652-8.361c-0.808-2.627-1.885-5.075-3.055-7.315c-2.34-4.498-5.26-8.081-8.063-10.683
						c-2.828-2.59-5.535-4.174-7.461-5.101c-0.96-0.481-1.738-0.781-2.267-0.982c-0.526-0.21-0.8-0.328-0.794-0.346
						c0.005-0.017,0.29,0.068,0.83,0.247c0.543,0.17,1.336,0.441,2.317,0.897c1.967,0.877,4.732,2.429,7.624,5.012
						c2.866,2.595,5.85,6.197,8.239,10.731c1.196,2.261,2.29,4.724,3.118,7.389c0.825,2.677,1.286,5.526,1.681,8.442
						c0.774,5.837,1.137,11.43,1.398,16.516c0.253,5.087,0.375,9.671,0.452,13.521c0.075,3.85,0.102,6.966,0.108,9.119
						c-0.002,1.04-0.004,1.867-0.005,2.48C411.199,423.054,411.187,423.352,411.169,423.353z"/>
				</g>
			</g>
		</g>
		<g>
			<g>
				<path style="fill:#263238;" d="M414.761,427.864c0,0-0.568-1.48-1.108-4.285c-0.525-2.801-0.92-6.956-0.469-12.051
					c0.423-5.093,1.724-11.071,3.798-17.485c2.048-6.425,4.828-13.296,7.204-20.677c1.178-3.694,2.18-7.347,2.867-10.935
					c0.696-3.586,1.137-7.087,1.418-10.434c0.561-6.697,0.485-12.764,0.326-17.846c-0.169-5.084-0.435-9.196-0.6-12.037
					c-0.079-1.392-0.141-2.487-0.186-3.273c-0.015-0.35-0.027-0.631-0.036-0.852c-0.005-0.192-0.004-0.291,0.005-0.292
					c0.009-0.001,0.025,0.097,0.048,0.288c0.023,0.22,0.052,0.5,0.088,0.848c0.068,0.784,0.163,1.877,0.283,3.266
					c0.226,2.838,0.549,6.947,0.765,12.038c0.207,5.088,0.322,11.17-0.215,17.898c-0.269,3.362-0.702,6.883-1.395,10.492
					c-0.685,3.612-1.689,7.289-2.871,10.996c-2.385,7.409-5.178,14.27-7.243,20.666c-2.092,6.384-3.42,12.315-3.888,17.371
					c-0.494,5.057-0.158,9.184,0.302,11.982c0.243,1.398,0.465,2.481,0.66,3.203c0.081,0.341,0.146,0.614,0.198,0.829
					C414.753,427.764,414.77,427.862,414.761,427.864z"/>
			</g>
		</g>
		<g>
			<polygon style="fill:#263238;" points="439.513,432.376 392.634,432.376 391.564,423.353 439.513,423.353 			"/>
		</g>
		<g>
			<polygon style="fill:#263238;" points="397.665,431.348 403.526,458.417 428.999,458.417 434.483,431.348 			"/>
		</g>
		<g>
			<g>
				<path style="fill:#455A64;" d="M439.513,432.376c0,0.144-10.307,0.232-23.018,0.196c-12.715-0.036-23.019-0.181-23.019-0.325
					c0-0.144,10.305-0.232,23.02-0.196C429.207,432.086,439.513,432.232,439.513,432.376z"/>
			</g>
		</g>
		<g>
			<g>
				<path style="fill:#455A64;" d="M431.467,445.736c-0.066,0.098-1.396-1.258-4.138-2.342c-1.361-0.538-3.081-0.956-5.012-0.998
					c-1.934-0.061-4.033,0.402-6.159,1.134c-2.135,0.722-4.131,1.562-6.08,2.025c-1.958,0.42-3.779,0.386-5.262,0.151
					c-1.488-0.236-2.64-0.682-3.377-1.082c-0.364-0.211-0.642-0.381-0.811-0.524c-0.175-0.135-0.261-0.212-0.25-0.227
					c0.039-0.093,1.546,1.114,4.491,1.467c1.449,0.184,3.223,0.176,5.104-0.254c1.871-0.469,3.866-1.32,6.02-2.05
					c2.149-0.741,4.335-1.21,6.338-1.12c1.997,0.071,3.76,0.542,5.138,1.137c1.39,0.58,2.397,1.283,3.054,1.795
					c0.329,0.258,0.57,0.476,0.724,0.634C431.403,445.636,431.479,445.723,431.467,445.736z"/>
			</g>
		</g>
		<g>
			<g>
				<path style="fill:#FFFFFF;" d="M431.111,447.544c-0.068,0.099-1.347-1.216-3.975-2.311c-1.307-0.537-2.966-0.953-4.831-0.987
					c-1.868-0.049-3.901,0.374-5.958,1.075c-2.063,0.69-4.002,1.49-5.857,1.987c-1.852,0.504-3.602,0.679-5.057,0.56
					c-1.459-0.105-2.596-0.521-3.312-0.898c-0.354-0.202-0.622-0.367-0.786-0.506c-0.169-0.131-0.251-0.206-0.241-0.22
					c0.028-0.041,0.393,0.217,1.115,0.544c0.725,0.312,1.834,0.658,3.247,0.713c1.41,0.069,3.103-0.137,4.905-0.655
					c1.809-0.511,3.731-1.32,5.821-2.019c2.081-0.71,4.198-1.14,6.134-1.061c1.933,0.063,3.64,0.532,4.963,1.128
					c1.335,0.585,2.296,1.28,2.925,1.783c0.316,0.253,0.546,0.466,0.695,0.618C431.05,447.446,431.123,447.531,431.111,447.544z"/>
			</g>
		</g>
		<g>
			<g>
				<path style="fill:#FFFFFF;" d="M431.932,443.942c-0.065,0.092-1.445-1.281-4.25-2.474c-1.393-0.588-3.147-1.111-5.137-1.227
					c-1.991-0.138-4.16,0.371-6.355,1.123c-2.208,0.74-4.257,1.638-6.296,2.053c-2.037,0.367-3.907,0.251-5.433,0.001
					c-1.529-0.268-2.72-0.709-3.485-1.115c-0.378-0.213-0.667-0.385-0.844-0.532c-0.181-0.138-0.271-0.217-0.26-0.232
					c0.028-0.04,0.418,0.233,1.191,0.581c0.775,0.342,1.954,0.718,3.454,0.934c1.497,0.199,3.329,0.271,5.285-0.109
					c1.938-0.418,3.997-1.327,6.22-2.075c2.215-0.76,4.476-1.28,6.551-1.109c2.062,0.148,3.852,0.724,5.256,1.369
					c1.415,0.637,2.448,1.365,3.125,1.895c0.339,0.268,0.588,0.491,0.747,0.654C431.865,443.839,431.944,443.928,431.932,443.942z"
					/>
			</g>
		</g>
	</g>
</g>
</svg>
