<?xml version="1.0" encoding="utf-8"?>
<!-- Generator: Adobe Illustrator 26.5.3, SVG Export Plug-In . SVG Version: 6.00 Build 0)  -->
<svg version="1.1" id="Capa_1" xmlns="http://www.w3.org/2000/svg" xmlns:xlink="http://www.w3.org/1999/xlink" x="0px" y="0px"
	 viewBox="0 0 547 358" style="enable-background:new 0 0 547 358;" xml:space="preserve">
<style type="text/css">
	.st0{fill:none;}
	.st1{fill:#6D9DC4;}
	.st2{fill:#E6E6E6;}
	.st3{fill:#FFB6B6;}
	.st4{fill:#2F2E41;}
	.st5{opacity:0.1;enable-background:new    ;}
	.st6{fill:#3F3D56;}
	.st7{fill:#FFFFFF;}
	.st8{fill:#A0616A;}
</style>
<rect y="0" class="st0" width="547" height="358"/>
<path class="st1" d="M504.7,172.9H61.1c-5.9,0-10.8-4.8-10.8-10.8V10.8C50.3,4.8,55.2,0,61.1,0h443.6c5.9,0,10.8,4.8,10.8,10.8
	v151.3C515.5,168,510.6,172.9,504.7,172.9z M61.1,1.3c-5.2,0-9.5,4.3-9.5,9.5v151.3c0,5.2,4.3,9.5,9.5,9.5h443.6
	c5.2,0,9.5-4.3,9.5-9.5V10.8c0-5.2-4.3-9.5-9.5-9.5H61.1z"/>
<path class="st2" d="M547,353.6H0v1.1h547V353.6z"/>
<path class="st2" d="M547,298.4H0v1.1h547V298.4z"/>
<path class="st3" d="M249.3,178.4c0.4,4.9,3.3,8.7,6.4,8.5c3.1-0.2,5.4-4.5,5-9.4c-0.1-2-0.7-3.9-1.8-5.6l-1.9-20.9l-9.8,1.1
	l2.9,20.5C249.4,174.5,249.1,176.5,249.3,178.4z"/>
<path class="st2" d="M237.6,81c0,0,9.1-4.8,13.8,2.4c4.6,7.2,7.8,85.4,7.8,85.4l-12.9,1.4l-2.4-55.1L237.6,81L237.6,81z"/>
<path class="st3" d="M218.6,294.3l7.4,0l3.5-28.7h-11L218.6,294.3z"/>
<path class="st4" d="M244.1,294.1c0.2,0.4,0.4,1.7,0.4,2.1c0,1.4-1.1,2.5-2.5,2.5h-23.1c-1,0-1.7-0.8-1.7-1.7v-1
	c0,0-1.1-2.9,1.2-6.4c0,0,2.9,2.8,7.3-1.6l1.3-2.3l9.3,6.8l5.2,0.6C242.5,293.3,243.5,293.2,244.1,294.1L244.1,294.1L244.1,294.1z"
	/>
<path class="st3" d="M261.7,293.1l7.2-1.8l-3.7-28.7l-10.6,2.7L261.7,293.1z"/>
<path class="st4" d="M286.4,286.6c0.3,0.3,0.8,1.5,0.9,2c0.3,1.4-0.5,2.7-1.8,3.1l-22.3,5.7c-0.9,0.2-1.9-0.3-2.1-1.2l-0.2-0.9
	c0,0-1.8-2.5-0.4-6.5c0,0,3.5,2,6.7-3.3l0.7-2.6l10.7,4.3l5.2-0.7C284.7,286.2,285.6,285.8,286.4,286.6L286.4,286.6z"/>
<path class="st3" d="M212.4,74.8l-0.4-2.6l4.2-10.2l11.5-1.3l2.5,14.7L212.4,74.8z"/>
<path class="st5" d="M212.4,74.8l-0.4-2.6l4.2-10.2l11.5-1.3l2.5,14.7L212.4,74.8z"/>
<path class="st4" d="M199,147.2l-5.1,14.1l3.8,7.7l19.2,111.4h12.8l-2.5-98.6l29.5,98.6h12.6l-10.2-66.6l-7.6-61.5l-4.6-2.8
	L224.6,137L199,147.2z"/>
<path class="st2" d="M231.7,156.8l-7.7,1.3l-10.3-24.3h23.1L231.7,156.8z"/>
<path class="st4" d="M247,150.4l-15.4,6.4l-5.1-11.5l-2.6,12.8l-26.9-8.7l3.8-15.7l-3.8-51.2l13.6-9l1.8-1.2l16.7,1.3l1.5,0.8
	l10.1,5.6l2.6,42.3L247,150.4z"/>
<path class="st2" d="M230.6,74.4l-7.2,30.6l-12.7-31.4l1.8-1.2l16.7,1.3L230.6,74.4z"/>
<path class="st4" d="M218.2,72.3l-2.6,4.4l2.6,1.5l-1.3,26.9l5.1,7l5.1-10.3l-3.8-23.5l1.3-5.9H218.2z"/>
<path class="st3" d="M222.1,69.7c6.7,0,12.2-5.4,12.2-12.2c0-6.7-5.4-12.2-12.2-12.2c-6.7,0-12.2,5.4-12.2,12.2
	C209.9,64.3,215.3,69.7,222.1,69.7z"/>
<path class="st4" d="M214.3,58.6l2.6,1.1l1.1-6.9c0,0,4.6-2.3,8-1.1c3.4,1.1,9.2,0,9.2,0s0-11.5-8-11.5s-16.1,1.1-16.1,4.6
	s-3.4,6.9-3.4,6.9s-4.6,6.9,0,11.5c4.6,4.6,6.9,4.6,6.9,4.6L214.3,58.6z"/>
<path class="st3" d="M190.7,178.1c-0.1,4.9,2.3,9,5.5,9.1c3.2,0.1,5.8-3.9,5.9-8.8c0.1-2-0.3-3.9-1.1-5.7l0.3-21l-9.8,0.1l0.7,20.7
	C191.2,174.2,190.7,176.1,190.7,178.1L190.7,178.1z"/>
<path class="st2" d="M202.8,79.9c0,0-8.3-2.6-12.2,5.1c-3.8,7.7,1.3,85.8,1.3,85.8h12.9l-3.4-55.1L202.8,79.9L202.8,79.9z"/>
<path class="st6" d="M522.3,225.5l-31.1-9.5c-0.7-0.2-1.4-0.3-2.1-0.2l-157.4,13.4c-2.2,0.2-2.8,3.2-0.8,4.2l5,2.5h-0.1v117.5h4.8
	V238l15.8,7.7c1.2,0.6,2.6,0.8,3.9,0.7l1.7-0.2v107.1h4.8V245.8l121.7-12.3v119.8h4.8V233l20.2-2v122.3h4.8V230.5l3.7-0.4
	C524.5,229.8,524.8,226.2,522.3,225.5L522.3,225.5z"/>
<path class="st7" d="M377.4,228.7c3,0,46.9-5.3,46.9-5.3l6.5,8.9l-45.7,8.9L377.4,228.7z"/>
<path class="st8" d="M425.7,348.7l-7.6,0l-3.6-29.4l11.3,0L425.7,348.7z"/>
<path class="st4" d="M399.5,348.5c-0.2,0.4-0.4,1.7-0.4,2.2c0,1.4,1.2,2.6,2.6,2.6l23.6,0c1,0,1.8-0.8,1.8-1.8l0-1
	c0,0,1.2-3-1.2-6.6c0,0-3,2.8-7.5-1.6l-1.3-2.4l-9.6,7l-5.3,0.6C401.1,347.7,400.1,347.5,399.5,348.5L399.5,348.5L399.5,348.5z"/>
<path class="st8" d="M466.7,335l-6,4.5l-20.4-21.1l8.9-6.7L466.7,335z"/>
<path class="st4" d="M445.9,350.5c0,0.5,0.7,1.6,1,1.9c0.9,1.1,2.5,1.4,3.6,0.5l18.7-14.1c0.8-0.6,0.9-1.7,0.3-2.4l-0.6-0.8
	c0,0-0.8-3-4.9-4.5c0,0-0.7,4-6.9,3.2l-2.5-1.1l-3.4,11.2l-3.8,3.7C446.7,348.8,445.8,349.3,445.9,350.5L445.9,350.5z"/>
<path class="st8" d="M450.7,182.9c0,7-5.7,12.7-12.8,12.7c-7,0-12.7-5.7-12.7-12.7c0-7,5.7-12.7,12.7-12.7
	C445,170.2,450.7,175.9,450.7,182.9z"/>
<path class="st4" d="M449.5,256.4c0,0-46.9-2.7-49.6,2.7c-2.7,5.3,14.4,78.3,14.4,78.3l15.2-3.2l-7.4-51.2c0,0,39.2,10.4,44.5-2
	c5.3-12.4,3.8-17,3.8-17L449.5,256.4z"/>
<path class="st4" d="M461.5,247.4c0,0-46,9.8-47.1,15.7s34.6,71.7,34.6,71.7l13.8-7.1l-20.7-47.4c0,0,40.5-0.4,42.4-13.7
	c1.8-13.4-0.9-17.4-0.9-17.4L461.5,247.4z"/>
<path class="st1" d="M466.8,197.5h-22.1l-15.1,24.8c0,0-3.5,16,0,17.7c3.5,1.7,3.5,20.3,3.5,20.3l37.2,3.5c0,0,5.3-55.8,3.5-61.1
	C472.1,197.5,466.8,197.5,466.8,197.5z"/>
<path class="st8" d="M431.8,213.9l-2.2,26.2l-24.9-10.6l-5.9-3c-1.2-1.5-2.7-2.7-4.4-3.5c-4.3-2.1-8.9-1.6-10.2,1.2
	c-1.3,2.7,1.1,6.7,5.4,8.7c1.7,0.9,3.6,1.3,5.5,1.3l17.4,9.9l0,0l0.1,0.1l27.3,11.4l6.3-34.3L431.8,213.9L431.8,213.9z"/>
<path class="st4" d="M429.1,184.7c0,0-13.3,1.8-8-9.7c0,0-0.8-6.2,3.1-6.7s9.3-7.5,9.3-7.5s12.2-6.2,18.5,0
	c6.3,6.2,24.9,42.5,24.9,42.5l-12.4,13.3c0,0-7.5-19.6-16.1-17.3c-8.7,2.3-16.6,9-16.6,9s-8.8-4.4-4.8-8.2
	C430.9,196.2,429.1,184.7,429.1,184.7z"/>
<path class="st1" d="M446.8,204.1c0,0-6.2-8-10.6-1.8c-4.4,6.2-8,14.2-8,14.2l17.7,6.2L446.8,204.1L446.8,204.1z"/>
<path class="st2" d="M514.1,351.5l-20.6-65.4h0h0l-0.1-0.1l0,0l-1.5-4.7l0,0c2.2-1.9,3.8-4.7,4.1-7.8l-9.4-51.7
	c0.6-6.8-4.6-12.7-11.4-13l-21.2-0.1c-6-0.2-11.3,4.1-12.1,10.1l-0.5,3.2l-6.5,44.2c-0.2,1.6-0.1,3.2,0.2,4.6l-4.7,0.6l-1.4,0.2
	l-5.6,0.7l0,0l-0.7,0.1H422v19h0v60.7c0,0.4,0.3,0.7,0.7,0.7c0.4,0,0.7-0.3,0.7-0.7v-60.7h8.3l8.3,60.6c0.1,0.4,0.4,0.6,0.7,0.6
	c0,0,0.1,0,0.1,0c0.4-0.1,0.7-0.4,0.6-0.8l-8.3-60.4h40c4,0,7.6-1.3,10.6-3.4l15.8,63.9c0.1,0.3,0.4,0.5,0.7,0.5c0.1,0,0.1,0,0.2,0
	c0.4-0.1,0.6-0.5,0.5-0.9l-16-64.6c0.2-0.2,0.4-0.4,0.6-0.6l6.4-0.4l20.7,65.7c0.1,0.3,0.4,0.5,0.7,0.5c0.1,0,0.1,0,0.2,0
	C514,352.3,514.2,351.9,514.1,351.5z M490.7,282.4c0.1,0,0.1-0.1,0.1-0.1h0l0.2,0.5L490.7,282.4z"/>
<path class="st3" d="M110.3,240.7l13.9-8.8l5.6,3.4l-19.5,22.4V240.7z"/>
<path class="st2" d="M91.3,206.7c0,0-9.2,2.2-4.9,14.6c4.3,12.4,18.4,38.4,22.7,36.8c4.3-1.6,4.9-17.8,4.9-17.8s-0.5,0.5-2.7-1.6
	c-2.2-2.2-2.2-1.2-2.2-3.6c0-2.4-1.8-4.2-1.8-4.2l-2-4.2c0,0,0-19.5-8.1-20.6C89.2,205,91.3,206.7,91.3,206.7L91.3,206.7z"/>
<path class="st3" d="M134.3,234.7c3.6-3.6,4.7-8.3,2.5-10.5c-2.2-2.2-6.9-1.1-10.5,2.5c-3.6,3.6-4.7,8.3-2.5,10.5
	C126,239.4,130.7,238.3,134.3,234.7z"/>
<path class="st2" d="M55.5,278.3l9.5,15.6l55.1-3.3l-14.7-18.9L55.5,278.3z"/>
<path class="st2" d="M72,351.4c-0.3,0-0.6-0.2-0.6-0.6L54.9,230.7c0-0.4,0.2-0.7,0.6-0.7c0.4-0.1,0.7,0.2,0.7,0.6l16.5,120.1
	C72.7,351,72.4,351.4,72,351.4C72,351.4,72,351.4,72,351.4z"/>
<path class="st2" d="M55.5,351.6c-0.4,0-0.7-0.3-0.7-0.7V230.7c0-0.4,0.3-0.7,0.7-0.7s0.7,0.3,0.7,0.7v120.2
	C56.2,351.3,55.9,351.6,55.5,351.6z"/>
<path class="st2" d="M138.1,351.1c-0.3,0-0.5-0.2-0.6-0.5L98.5,226.9c-0.1-0.3,0.1-0.7,0.4-0.8c0.3-0.1,0.7,0.1,0.8,0.4l38.9,123.7
	c0.1,0.3-0.1,0.7-0.4,0.8C138.2,351.1,138.2,351.1,138.1,351.1z"/>
<path class="st2" d="M126.2,351.3c-0.3,0-0.6-0.2-0.6-0.5l-27-109.2c-0.1-0.3,0.1-0.7,0.5-0.8c0.3-0.1,0.7,0.1,0.8,0.5l27,109.2
	c0.1,0.3-0.1,0.7-0.5,0.8C126.3,351.3,126.3,351.3,126.2,351.3L126.2,351.3z"/>
<path class="st2" d="M55.5,232.6l45.1-0.7l8.3,47.4H56.2L55.5,232.6z"/>
<path class="st3" d="M124.9,302.3l-11.4,20l13.2,2.9l5.5-14.2L124.9,302.3z"/>
<path class="st4" d="M117.6,318.5c0,0-0.4-3.3-3-2.2c-2.6,1-10.1,4.9-10.1,4.9s19.6,31.8,23.3,30.3c3.7-1.5-0.7-10.5-0.7-10.5
	l1-15.9L117.6,318.5L117.6,318.5z"/>
<path class="st4" d="M74.6,263.4c0,0-4.1,18.7,8.4,25.1c12.4,6.5,54.9-9.5,54.9-9.5l-19.5,29.2l13.5,5.4c0,0,30.8-40.6,28.7-47
	c-2.2-6.5-16.8-7-16.8-7l-33,1.6l-8.7-2.7L74.6,263.4L74.6,263.4z"/>
<path class="st3" d="M108,311.2l-17.9,14.5l11.2,7.5l10.3-11.3L108,311.2z"/>
<path class="st4" d="M95.3,323.6c0,0,0.8-3.2-2-3.2c-2.8,0-11.2,0.9-11.2,0.9S88.8,358,92.8,358c4,0,3.1-10,3.1-10l6.7-14.4
	L95.3,323.6z"/>
<path class="st4" d="M75.3,256.7c0,0-10.6,15.9-1.3,26.5c9.2,10.6,54.6,11.2,54.6,11.2l-28.8,20.1l10.6,10c0,0,43.5-26.6,43.8-33.4
	s-13.1-12.6-13.1-12.6l-31.3-10.5l-7.1-5.7L75.3,256.7L75.3,256.7z"/>
<path class="st4" d="M102.5,219.9c0,0-10.3-3.8-15.2-3.8c-0.5,0-0.9,0.1-1.4,0.2c-3.1,0.7-6,3.3-7.4,4.8c-0.5,0.6-0.8,1-0.8,1
	s0-0.4,0.1-1c0.3-3.4,1.5-14.7,3.6-22c0.8-2.6,1.6-4.6,2.6-5.6c2.3-2.3,3.4-5.1,3.9-7.2c0.4-1.8,0.4-3,0.4-3l-3.9-1.7l-0.7-4.8
	c-0.1,0.6-0.7,1.7-2.7,3.8c-0.2,0.2-0.4,0.3-0.6,0.5c-2.9,1.8-8.8-1.4-12-3.4c1.3-4.6,3.7-8.9,8.1-9.5c10.3-1.6,10.3-7.6,16.8-1.1
	c0.5,0.5,1.1,1,1.6,1.5c2.1,4,2.8,9.3,3.1,13c0.2,2.6,0.1,4.4,0.1,4.4s2.7,16.2,7,19.5C109.5,208.5,102.5,219.9,102.5,219.9z"/>
<path class="st3" d="M82.5,193.9l-7.3,10.7l16.5,4.4v-15.1H82.5z"/>
<path class="st5" d="M82.5,193.9l-7.3,10.7l16.5,4.4v-15.1H82.5z"/>
<path class="st2" d="M92.7,204.2L77,197.7c0,0-21.1,9.2-19.5,27c1.6,17.8,16.8,48.7,16.8,48.7l30.3-13l-3.2-34.6L92.7,204.2z"/>
<path class="st3" d="M86,198.7c7.6,0,13.8-6.2,13.8-13.8c0-7.6-6.2-13.8-13.8-13.8s-13.8,6.2-13.8,13.8
	C72.1,192.5,78.3,198.7,86,198.7z"/>
<path class="st4" d="M104.6,179.8c-2.7,2.7-4.9,5.4-4.9,5.4l-1.1-4.3c0,0-0.2,0.2-0.7,0.5c-1.7,1.2-6.3,4.1-10,4.7
	c-1.6,0.3-3.1,0.1-4.1-0.9c-2-2.1-2.6-3.2-2.7-3.8l-0.7,4.8l-3.9,1.7c0,0,0,5.9,4.3,10.3c0.2,0.2,0.4,0.5,0.6,0.8
	c2.1,3.1,3.6,10.7,4.5,17.2c0.8,5.8,1.2,10.6,1.2,10.6s-4.1-5.1-8.6-5.8c-0.2,0-0.5-0.1-0.7-0.1c-0.1,0-0.2,0-0.2,0
	c-4.9,0-15.2,3.8-15.2,3.8s-7-11.4-2.7-14.6c4.3-3.2,7-19.5,7-19.5s-0.2-6.9,1.6-13.2c1.3-4.6,3.7-8.9,8.1-9.5
	c10.3-1.6,10.3-7.6,16.8-1.1c0.5,0.5,1.1,1.1,1.6,1.5C100.9,174,107.1,177.4,104.6,179.8z"/>
<path class="st6" d="M43.9,252.4h-5.1v101.5h5.1V252.4z"/>
<path class="st6" d="M168.6,252.4h-5.1v101.5h5.1V252.4z"/>
<path class="st1" d="M135.8,209.4h-34.1v34h34.1V209.4z"/>
<path class="st3" d="M82.1,245.6l13.9-8.8l5.6,3.4l-19.5,22.4V245.6z"/>
<path class="st2" d="M63.2,211.5c0,0-9.2,2.2-4.9,14.6c4.3,12.4,18.4,38.4,22.7,36.8c4.3-1.6,4.9-17.8,4.9-17.8s-0.5,0.5-2.7-1.6
	c-2.2-2.2-2.2-1.2-2.2-3.6c0-2.4-1.8-4.2-1.8-4.2l-2-4.2c0,0,0-19.5-8.1-20.6C61,209.9,63.2,211.5,63.2,211.5L63.2,211.5z"/>
<path class="st3" d="M106.2,239.6c3.6-3.6,4.7-8.3,2.5-10.5c-2.2-2.2-6.9-1.1-10.5,2.5c-3.6,3.6-4.7,8.3-2.5,10.5
	C97.9,244.3,102.6,243.2,106.2,239.6z"/>
<path class="st6" d="M178.9,248.6H23.4v11.6h155.5V248.6z"/>
<path class="st6" d="M336.9,156.1h-23c-1.8,0-3.3,1.5-3.3,3.3v9.5c0,1.8,1.5,3.3,3.3,3.3h23c1.8,0,3.3-1.5,3.3-3.3v-9.5
	C340.2,157.6,338.8,156.1,336.9,156.1z"/>
<path class="st1" d="M385.1,165.6h-23c-1.8,0-3.3,1.5-3.3,3.3l0,0c0,1.8,1.5,3.3,3.3,3.3h23c1.8,0,3.3-1.5,3.3-3.3l0,0
	C388.4,167,387,165.6,385.1,165.6z"/>
</svg>
