<?xml version="1.0" encoding="utf-8"?>
<!-- Generator: Adobe Illustrator 27.7.0, SVG Export Plug-In . SVG Version: 6.00 Build 0)  -->
<svg version="1.1" id="Capa_1" xmlns="http://www.w3.org/2000/svg" xmlns:xlink="http://www.w3.org/1999/xlink" x="0px" y="0px"
	 viewBox="0 0 1403 1391.6" style="enable-background:new 0 0 1403 1391.6;" xml:space="preserve">
<style type="text/css">
	.st0{fill:#E4F2F3;}
</style>
<path class="st0" d="M703.3,5.4C323,5.4,14.6,313.7,14.6,694.1c0,380.4,308.4,688.7,688.7,688.7c380.4,0,688.7-308.3,688.7-688.7
	C1392.1,313.7,1083.7,5.4,703.3,5.4z M1166.8,1157.6c-123.8,123.8-288.4,192-463.5,192c-175.1,0-339.7-68.2-463.5-192
	c-123.8-123.8-192-288.4-192-463.5s68.2-339.7,192-463.5c2.9-2.9,6-5.6,8.9-8.5c-2.3,7.1-4.9,14.1-9,20.2c-9.7,14.5-26,20.3-36.2,34
	c-9.3,12.4-16.8,31.2-20.2,45.1c-3.7,15.1-1.5,33.4-6.8,48.5c-6.7,19.1-19,30.5-16.7,52.6c26.6,7.9,15.1-39.4,37.5-41.8
	c7.1,17.7,2.4,50.5,0.4,69.8c-2.8,26.5-7.9,33,7.9,55.8c12.5,18,16.7,30.1,40.9,32.9c22.2,2.6,31.4,12.7,40.7,34.1
	c17.1,3.6,27.5,6.5,29.7,25.5c7.4,4.1,21.4,17.5,29.2,19.6c11.4,3,30.3-13.2,41.1-0.7c17.9,20.8-22.7,75.2-29.9,94
	c-10.6,27.5-12.2,67.9,13.9,87.6c13.4,10.1,27.6,15,31.9,33.4c4,17,0.9,31.2,8.4,47.2c11.7,25.1,38.6,33.4,57.8,52.5
	c25.1,25.1,23.4,57.8,23.4,93.4c0,37.3,14.2,65.6,19.1,99.8c5.1,35.2,15.4,67.8,22.8,101.9c5.6,25.6,27.7,64.3,59.6,59.1
	c2.2-12.1-10.4-21.6-11.9-33.6c-1.4-10.9,1.6-22.3-0.5-34c-4.3-23.1-4.1-36.7,11.2-56.8c5.4-7.1,12.9-13,18.5-20.1
	c10.8-13.8,2.5-9.7,2.1-24.8c-0.6-18.9,5.2-9.6,16.5-15.5c5.9-3.1,12.5-12.3,17-17c9.9-10.3,25.3-22.7,32.9-35
	c8.6-13.8,7.6-33,16.4-47.3c10.2-16.3,24.6-16.4,38.8-27c18.4-13.8,10.8-28.3,14.2-47.3c5.6-31.7,20-66.6,39.9-91.8
	c25.1-31.7,35.9-58.7,5.3-89.2c-15.1-15.1-23-11-43-16.3c-15.3-4-29-15.2-44.6-17.1c-9.3-1.1-14.8,2.2-23.3,0
	c-7.9-2.1-7-6.9-15.3-6.8c-12.5,0.1-29.9,26.1-40.4,9.5c-5.9-9.3,11.9-34.8,11.1-47.3c-1-15.2-6.7-40.1-21.6-48.4
	c-5.6-3.2-18.2-3.6-25.1-6.3c-8.1-3.1-16.1-8.2-23.4-12.8c-9.5-6.1-27.9-16.7-32.1-27.6c-11.7-0.5-19.6-6.9-31.5-6.7
	c-10.7,0.1-17.7,5.1-29.2,3.8c-10.1-1.1-21-9.1-31.8-7.6c-7.3,1-18,10.4-24.3,14c-16.6,9.4-34.2,16.1-52.6,19.6
	c-28.4,5.3-33.5-5.5-31.8-31.8l-4.3-8.5c10.6-29.3-8.5-31.4-29.4-38.5c-2.9-20.9,22.8-35.8,12.1-58.7c-21.7-1.1-45.4,60.1-63.8,33.6
	c-12.1-17.5,6.3-66.3,17-81.2c10.8-14.9,49.9-41.8,68.3-44.2c14.3-1.8,26.9,4.5,32.4,17.1c6,13.7-1.8,26.6-0.1,42.2
	c18.3-4.2,13.6-27.6,12.8-40.1c-1.3-20.9,9.6-19.3,20.3-34.4c9.7-13.7,11.2-29.4,23.3-42.6c9.4-10.3,20.5-21.2,30.8-30.7
	c11.8-10.9,25.1-9.9,37.2-17.9c18.4-12.2-5.9-34.8,21.2-33.1c9.6,0.6,4.9,6.6,17.6,3.7c5.4-1.2,15.4-6.2,21.1-8.5
	c25.9-10.5,7.5-13.3-4.3-27c-15.1-17.4,6.3-14.4,21.9-17c11.4-1.9,9-5.7,19.1,1.1c8.8,5.9,3.6,13.8,16.5,13.4
	c24.5-0.8,7.5-25.4,2.1-33.5c-9.3-14-11.7-23.7-31.5-24.2c1.9-6.3,2.1-14.5-0.6-20.6c-16.6,2.2-19.5-9.9-32.1-14.6
	c-21.2-8-17.8,9.3-26.4,21.1c-8.9,12.2-26,10.1-32.5,25c-6.8,15.5-0.3,27.3-25.2,23.1c3.4-9.3,2.2-21.3,1.6-31.2
	c-7.2-0.9-13.8-2.8-20.5-4.9c0-24.9,27.6-27,46.3-29.3c21-2.7,27.8-24,46.6-27.6c17.5-3.4,30,25,51.6,8.5
	c12.3-9.4,6.6-14.9,2.1-23.9c-1.2-2.4-7.4-7.8-9.1-10.1c-0.2-0.3-0.3-0.5-0.4-0.7c16.7-3.2,33.6-5.7,50.7-7.7
	c3.2,9.3,10.1,20.6,13.9,27c2.8,4.7,8,7.9,10.2,13.1c2.5,5.9-3.4,13.2,4,17.2c11.5,6.2,45.1-34,53.2-40.5
	c10.2-8.3,16.6-12.8,14.2-20.8c54,1.6,106.8,9.7,157.6,24c4,5.1,8.2,10.3,12.3,16.1c8.9,12.4,14.6,23.6,30.7,29.1
	c9.3,3.2,39.1,2.6,26.8,23.9c-11.4,19.7-24.1-6.1-29.9-12.3c-8-8.6-31.6-18.1-30.9,1.6c1.1,29.3,67.1,24.6,53,56.8
	c7.9,4.7,23.5,12.4,21,23.9c-3.2,14.2-21.7,5.2-21.3,23.4c0.5,25.8,28.7,47,54.8,37.7c27.9-9.9,6.9-48.6,38.8-52.5
	c12.6-1.6,20,2.1,31.3,11c9.2,7.3,15.1,23.8,27.7,22.5c1.3-7.9-4.6-13.5-5.6-20.7c9.8,2.4,29.5,14.7,35.1,23.2
	c8.5,12.9,7.6,31.5,28.4,14.8c-3.1-2.6-4.7-8.3-6.4-10.3c26.6,0.1,45.1,11,56.6,34.1c25.5,51.5-37.1,10.6-40.2,37.5
	c-15.4-4.9-22.3-17.3-35.7-24.7c-6.4-3.5-18.1-1.6-23-5.2c-6.7-4.9-5-13.8-10.9-18.7c-23.2-19-76,11.7-97.3,23.9
	c-5.8,3.3-11.9,3.7-15.9,9.9c-6.8,10.7,2.7,13.4,0.6,23.4c-3,14.3-21.6,20.8-27.3,32.3c-13.5,27.4,13.9,66.7,10.2,97.2
	c-2,16.9-20.3,35.2-13.3,49.4c3,6.1,13.5,11.3,17.6,18.5c3.7,6.5,5.2,15.1,10,21.9c15.6,21.9,38.1,46.3,56.3,66.8
	c10.4,11.6,24.5,14.9,40.2,11.7c12.9-2.7,32.6-7,44.6-12.7c16-7.7,18.1-18.5,35-11.2c13.4,5.8,25.2,22.9,40.8,8.8
	c12.9,12.6-1.4,34.6-4.3,48.6c-3.7,18,3.4,33.6,14.5,48.9c13.3,18.4,16.4,21.6,13.7,46.1c-2.1,19.1-7,36.6-11.1,55.5
	c-3.9,18.1-15.5,31.9-14.9,51.1c0.6,17.7,8.2,31.9,5.9,50.9c-2.1,16.7-3.1,36.7-7.4,53.1c-4.5,16.8-16.3,31.6-21.3,48.8
	c-4.7,16.3-3.4,37.5,8,50.9c11.9,14,23.7,6,37.7-4.6c27.5-20.9,40.1-56.4,58.3-84.5c18.7-28.8,37.5-55.1,49.9-84.9
	c2.6-6.3,5.8-12.6,9.1-18.8C1303.2,980.9,1246.6,1077.7,1166.8,1157.6z"/>
</svg>
