<?xml version="1.0" encoding="UTF-8"?>
<svg id="Capa_2" data-name="Capa 2" xmlns="http://www.w3.org/2000/svg" xmlns:xlink="http://www.w3.org/1999/xlink" viewBox="0 0 179.09 209.36">
  <defs>
    <style>
      .cls-1 {
        fill: none;
      }

      .cls-2 {
        clip-path: url(#clippath);
      }

      .cls-3 {
        fill: #f7e824;
      }

      .cls-4 {
        fill: #009339;
      }

      .cls-5 {
        fill: #ebebeb;
      }

      .cls-6, .cls-7 {
        fill: #fff;
      }

      .cls-8 {
        fill: #918c8c;
      }

      .cls-9 {
        fill: #655c5d;
      }

      .cls-10 {
        fill: #847d7e;
      }

      .cls-11 {
        fill: #b4adab;
      }

      .cls-12 {
        fill: #b9b6b6;
      }

      .cls-13 {
        fill: #a6a0a0;
      }

      .cls-14 {
        fill: #cfc8c8;
      }

      .cls-15 {
        fill: #dddcdc;
      }

      .cls-16 {
        fill: #d5d3d3;
      }

      .cls-17 {
        fill: #3f3434;
      }

      .cls-18 {
        fill: #483c3f;
      }

      .cls-19 {
        fill: #776c6c;
      }

      .cls-20 {
        fill: #005a34;
        opacity: .5;
      }

      .cls-7 {
        opacity: .7;
      }
    </style>
    <clipPath id="clippath">
      <path class="cls-1" d="m103.97,23.68l5.28,1.08s-.02-.4-.67,2.79h-5.39c.65-3.19.78-3.87.78-3.87Zm13.21-9.33c.46-2.53.09-5.25-1.11-7.56-.59-1.15-1.37-2.22-2.28-3.15-.93-.91-2-1.68-3.17-2.28-1.17-.6-2.43-.99-3.72-1.18-1.28-.22-2.61-.23-3.89-.01-2.56.38-4.96,1.62-6.78,3.4-.91.89-1.65,1.95-2.22,3.06-.3.55-.52,1.15-.74,1.74-.15.58-.35,1.28-.41,1.7-.78,3.84-1.57,7.63-2.33,11.36-.3,1.5-.93,4.65-1.24,6.14h5.32c.3-1.49.89-3.56,1.2-5.06.76-3.73,1.52-7.52,2.3-11.34.07-.25.11-.49.15-.64.04-.16.09-.35.13-.51.13-.33.24-.67.41-.98.33-.63.74-1.23,1.26-1.72,1.02-1.01,2.37-1.72,3.83-1.93.72-.12,1.46-.12,2.2.01.72.12,1.46.33,2.09.67.67.34,1.26.76,1.8,1.28.5.52.93,1.13,1.28,1.78.67,1.3.87,2.83.63,4.26l-1.2,5.91c-3.26,15.9-6.5,31.78-9.52,46.69l-.15.7-.15.55c-.07.36-.2.71-.33,1.05-.26.7-.63,1.34-1.04,1.95-.85,1.21-1.96,2.2-3.22,2.91-2.54,1.47-5.67,1.59-8.28.62-2.63-.95-4.72-3.01-5.69-5.4-.5-1.21-.74-2.47-.74-3.71.02-.32.02-.62.04-.93.04-.3.09-.61.13-.9.17-.76.33-1.51.48-2.25,4.85-23.84,8.08-39.74,8.08-39.74l-5.26-1.08s-3.24,15.9-8.11,39.74c-.15.74-.3,1.5-.46,2.26-.07.47-.15.93-.22,1.4-.04.48-.04.96-.07,1.43-.02,1.92.37,3.89,1.13,5.74,1.52,3.71,4.74,6.9,8.82,8.38,4.02,1.5,8.89,1.28,12.8-.98,1.96-1.1,3.69-2.63,5-4.5.63-.95,1.2-1.95,1.59-3.02.22-.53.41-1.08.54-1.63l.2-.83.15-.7c3.04-14.91,6.28-30.8,9.52-46.69l1.22-6.01Z"/>
    </clipPath>
  </defs>
  <g id="Capa_1-2" data-name="Capa 1">
    <g>
      <circle class="cls-20" cx="86.98" cy="122.38" r="86.98"/>
      <circle class="cls-6" cx="92.11" cy="116.23" r="86.98"/>
      <circle class="cls-4" cx="92.11" cy="116.23" r="78.36"/>
      <circle class="cls-3" cx="92.11" cy="116.23" r="74.67"/>
      <g>
        <g>
          <polygon class="cls-4" points="64.08 69.4 38.17 134.54 90 134.54 64.08 69.4"/>
          <rect class="cls-4" x="61.52" y="131.62" width="5.13" height="31.44"/>
        </g>
        <g>
          <polygon class="cls-4" points="120.13 69.4 94.22 134.54 146.04 134.54 120.13 69.4"/>
          <rect class="cls-4" x="117.57" y="131.62" width="5.13" height="31.44"/>
        </g>
      </g>
      <path class="cls-7" d="m90.41,49.27c39.9,0,72.24,32.34,72.24,72.24,0,9.84-1.98,19.22-5.54,27.77,5.06-9.87,7.93-21.04,7.93-32.9,0-39.9-32.34-72.24-72.24-72.24-30.05,0-55.81,18.36-66.7,44.47,11.97-23.35,36.26-39.34,64.31-39.34Z"/>
    </g>
    <g class="cls-2">
      <g>
        <path class="cls-8" d="m86.84,19.92s-3.3,16.21-8.26,40.53c-.15.76-.33,1.53-.48,2.3-.07.44-.13.87-.2,1.3-.04.43-.04.88-.07,1.33-.02,1.78.33,3.6,1.02,5.3,1.37,3.43,4.28,6.37,7.98,7.72,3.65,1.37,8.06,1.16,11.63-.93,1.78-1.02,3.37-2.46,4.56-4.18.57-.88,1.09-1.8,1.46-2.8.2-.49.37-.99.48-1.51l.2-.77.15-.72c3.11-15.19,6.41-31.4,9.71-47.62l1.24-6.11c.41-2.29.09-4.74-.96-6.82-.52-1.04-1.22-2.01-2.02-2.84-.83-.83-1.78-1.52-2.8-2.05-1.02-.54-2.15-.89-3.3-1.06-1.13-.18-2.3-.2-3.43.01-2.3.35-4.41,1.48-6.02,3.1-.83.8-1.48,1.76-2,2.77-.26.5-.46,1.03-.65,1.58-.15.52-.3,1.13-.39,1.59-.8,3.91-1.59,7.77-2.37,11.57-1.54,7.6-3.04,14.94-4.46,21.91-.35,1.75-.72,3.47-1.04,5.15-.17.85-.35,1.7-.52,2.52-.17.76-.37,1.87-.3,2.84.11,1.99.98,3.88,2.33,5.24,1.37,1.38,3.19,2.18,5.02,2.36,1.85.16,3.67-.33,5.15-1.28,1.48-.98,2.61-2.39,3.17-3.98.15-.39.24-.8.35-1.2.07-.35.13-.68.2-1.02.15-.67.28-1.34.41-2,.26-1.31.52-2.59.78-3.83,1-4.93,1.89-9.24,2.61-12.79,1.43-7.09,2.26-11.14,2.26-11.14l.17.02s-.83,4.06-2.28,11.15c-.72,3.54-1.61,7.86-2.61,12.79-.26,1.24-.52,2.51-.78,3.83-.13.66-.26,1.33-.41,2-.07.34-.13.67-.2,1.02-.11.39-.2.82-.37,1.22-.56,1.62-1.72,3.06-3.22,4.05-1.5.98-3.39,1.48-5.26,1.3-1.87-.17-3.72-1-5.11-2.4-1.37-1.38-2.26-3.3-2.37-5.34-.09-.98.13-2.13.3-2.88.17-.83.35-1.67.52-2.51.33-1.7.7-3.41,1.04-5.15,1.41-6.98,2.91-14.31,4.46-21.92.78-3.79,1.56-7.66,2.37-11.57.09-.46.24-1.06.39-1.61.2-.54.39-1.09.67-1.6.52-1.02,1.17-1.99,2-2.8,1.65-1.64,3.8-2.78,6.11-3.15,1.17-.2,2.35-.2,3.52,0,1.15.17,2.28.52,3.33,1.08,1.04.54,2.02,1.24,2.85,2.08.83.86,1.52,1.83,2.04,2.88,1.09,2.12,1.39,4.61.98,6.93l-1.24,6.11c-3.3,16.21-6.61,32.43-9.71,47.62l-.15.72-.2.77c-.11.53-.28,1.03-.48,1.53-.37,1.01-.91,1.95-1.48,2.84-1.22,1.75-2.8,3.2-4.63,4.23-3.59,2.13-8.06,2.35-11.76.96-3.74-1.37-6.67-4.34-8.06-7.8-.7-1.73-1.04-3.56-1.04-5.37.04-.45.04-.9.09-1.34.07-.45.13-.88.2-1.32.15-.78.33-1.55.48-2.31,4.96-24.32,8.26-40.53,8.26-40.53l.15.03Z"/>
        <path class="cls-9" d="m86.99,19.96s-3.3,16.21-8.26,40.53c-.15.76-.3,1.53-.48,2.3-.07.42-.13.86-.2,1.29-.02.43-.04.87-.07,1.3-.02,1.76.33,3.56,1,5.25,1.37,3.38,4.24,6.29,7.89,7.63,3.61,1.36,7.98,1.14,11.5-.93,1.76-1.01,3.32-2.42,4.52-4.13.56-.88,1.06-1.79,1.43-2.77.2-.49.37-.99.48-1.5l.2-.76.15-.72c3.09-15.19,6.41-31.4,9.71-47.62l1.22-6.11c.41-2.26.11-4.67-.93-6.73-.5-1.02-1.17-1.97-1.98-2.79-.8-.82-1.74-1.5-2.76-2.02-1.02-.54-2.13-.87-3.26-1.05-1.11-.18-2.28-.18-3.39.01-2.26.35-4.35,1.46-5.93,3.05-1.59,1.59-2.65,3.76-3,5.86-.78,3.91-1.59,7.77-2.35,11.57-1.57,7.6-3.06,14.94-4.48,21.91-.35,1.75-.7,3.47-1.04,5.15-.17.85-.35,1.68-.52,2.52-.17.77-.37,1.85-.3,2.79.11,1.96.98,3.8,2.3,5.14,1.33,1.35,3.11,2.14,4.91,2.32,1.8.16,3.61-.33,5.04-1.26,1.43-.96,2.56-2.35,3.11-3.9.15-.38.24-.79.33-1.17.09-.35.15-.68.22-1.02.13-.67.28-1.34.41-2,.26-1.31.52-2.59.78-3.81,1-4.94,1.87-9.25,2.61-12.8,1.43-7.08,2.26-11.14,2.26-11.14l.2.03s-.83,4.05-2.28,11.15c-.72,3.54-1.61,7.85-2.61,12.79-.24,1.23-.5,2.51-.78,3.83-.13.65-.26,1.32-.41,1.99-.07.34-.13.68-.2,1.02-.11.39-.2.81-.35,1.21-.57,1.6-1.7,3.01-3.17,3.99-1.48.97-3.33,1.46-5.17,1.29-1.85-.18-3.67-.99-5.02-2.37-1.37-1.37-2.24-3.26-2.35-5.26-.09-.97.13-2.09.3-2.84.15-.84.33-1.67.5-2.52.35-1.7.7-3.41,1.06-5.15,1.41-6.97,2.91-14.31,4.46-21.91.78-3.8,1.57-7.67,2.37-11.58.09-.46.24-1.05.39-1.59.2-.54.39-1.08.65-1.58.52-1.02,1.17-1.97,2-2.78,1.61-1.62,3.74-2.75,6.02-3.11,1.15-.21,2.33-.2,3.48-.01,1.13.18,2.26.52,3.3,1.08,1.02.53,1.98,1.22,2.8,2.05.83.84,1.5,1.79,2.02,2.85,1.06,2.09,1.37,4.54.96,6.85l-1.24,6.1c-3.3,16.21-6.61,32.43-9.71,47.63l-.13.71-.2.77c-.13.52-.3,1.02-.5,1.52-.37,1-.89,1.92-1.46,2.8-1.2,1.74-2.78,3.17-4.56,4.19-3.59,2.11-8,2.33-11.67.95-3.69-1.36-6.61-4.3-8-7.73-.7-1.72-1.02-3.54-1.02-5.32.02-.45.04-.89.09-1.33.07-.43.13-.87.2-1.3.15-.78.3-1.54.46-2.3,4.98-24.32,8.28-40.53,8.28-40.53l.17.03Z"/>
        <path class="cls-9" d="m87.12,19.99s-3.3,16.21-8.26,40.53c-.15.76-.3,1.52-.46,2.3-.09.41-.15.85-.2,1.27-.04.42-.07.86-.09,1.29,0,1.75.33,3.52,1,5.19,1.35,3.35,4.19,6.23,7.8,7.55,3.59,1.34,7.91,1.13,11.39-.92,1.74-1,3.3-2.4,4.48-4.09.54-.87,1.06-1.77,1.41-2.75.2-.48.37-.97.48-1.48l.2-.75.15-.72c3.09-15.2,6.39-31.42,9.71-47.63l1.22-6.1c.41-2.24.11-4.61-.91-6.64-.52-1.01-1.17-1.95-1.96-2.77-.8-.8-1.74-1.47-2.74-1.99-1-.53-2.11-.86-3.22-1.03-1.11-.2-2.24-.2-3.35,0-2.22.35-4.3,1.44-5.87,3.02-1.56,1.57-2.61,3.71-2.96,5.78-.78,3.91-1.59,7.78-2.35,11.58-1.56,7.6-3.04,14.94-4.48,21.91-.35,1.74-.7,3.46-1.04,5.15-.17.85-.35,1.68-.52,2.52-.17.77-.37,1.81-.28,2.76.11,1.91.93,3.73,2.24,5.04,1.3,1.33,3.06,2.1,4.82,2.27,1.78.16,3.54-.32,4.98-1.24,1.41-.93,2.5-2.3,3.04-3.84.15-.37.24-.77.33-1.15.09-.34.15-.67.22-1.02.13-.67.28-1.34.41-1.99.26-1.31.52-2.59.78-3.83,1-4.94,1.87-9.25,2.61-12.79,1.43-7.1,2.26-11.15,2.26-11.15l.2.04s-.83,4.05-2.28,11.15c-.72,3.54-1.59,7.85-2.61,12.79-.24,1.23-.5,2.51-.76,3.81-.15.66-.28,1.33-.41,2-.07.34-.15.67-.22,1.02-.09.39-.17.79-.35,1.17-.54,1.58-1.67,2.98-3.11,3.93-1.46.96-3.28,1.43-5.11,1.27-1.8-.17-3.61-.97-4.93-2.33-1.35-1.35-2.19-3.21-2.3-5.18-.09-.95.11-2.04.28-2.8.17-.84.35-1.67.52-2.52.35-1.68.7-3.4,1.04-5.15,1.43-6.97,2.93-14.31,4.48-21.91.78-3.8,1.57-7.66,2.37-11.57.35-2.11,1.39-4.29,3-5.88,1.59-1.61,3.69-2.73,5.95-3.09,1.13-.2,2.3-.2,3.43,0,1.13.17,2.24.51,3.26,1.05,1.02.53,1.96,1.21,2.78,2.03.8.83,1.48,1.78,2,2.81,1.04,2.06,1.35,4.49.93,6.77l-1.24,6.1c-3.3,16.21-6.61,32.43-9.71,47.63l-.13.71-.2.76c-.11.52-.3,1.01-.48,1.51-.37.99-.89,1.9-1.46,2.78-1.2,1.72-2.76,3.13-4.52,4.15-3.54,2.09-7.93,2.29-11.56.93-3.67-1.35-6.54-4.26-7.91-7.66-.7-1.7-1.02-3.5-1.02-5.27.02-.43.04-.88.09-1.31.07-.44.13-.86.2-1.29.15-.77.3-1.54.46-2.3,4.96-24.32,8.28-40.53,8.28-40.53l.17.04Z"/>
        <path class="cls-13" d="m87.39,20.03s-3.3,16.21-8.28,40.53c-.15.76-.3,1.53-.46,2.3-.07.41-.13.84-.2,1.25-.04.42-.04.85-.07,1.27-.02,1.72.3,3.46.98,5.11,1.3,3.28,4.11,6.11,7.65,7.41,3.52,1.31,7.76,1.11,11.19-.91,1.7-.98,3.22-2.36,4.37-4.02.54-.84,1.04-1.73,1.41-2.68.17-.48.35-.96.46-1.46.13-.5.24-.99.33-1.46,3.11-15.19,6.41-31.4,9.71-47.62l1.24-6.1c.39-2.18.11-4.51-.91-6.49-.5-.99-1.13-1.9-1.91-2.7-.78-.79-1.67-1.44-2.65-1.95-.98-.52-2.06-.85-3.13-1.02-1.09-.17-2.22-.17-3.28.01-2.17.34-4.19,1.41-5.74,2.94-1.52,1.53-2.54,3.61-2.87,5.66-.8,3.91-1.59,7.77-2.37,11.57-1.54,7.6-3.04,14.94-4.46,21.91-.37,1.75-.72,3.47-1.06,5.16-.17.84-.35,1.68-.5,2.51-.2.79-.37,1.78-.3,2.7.11,1.86.91,3.62,2.17,4.89,1.26,1.28,2.98,2.03,4.67,2.2,1.72.15,3.43-.3,4.8-1.2,1.37-.91,2.43-2.23,2.96-3.72.15-.36.24-.74.33-1.11.07-.35.15-.68.22-1.02.13-.67.26-1.34.39-2,.28-1.32.54-2.59.78-3.83,1.02-4.93,1.89-9.24,2.61-12.79,1.46-7.1,2.28-11.14,2.28-11.14l.24.04s-.83,4.05-2.26,11.15c-.74,3.54-1.61,7.85-2.61,12.79-.26,1.24-.52,2.51-.78,3.83-.13.65-.28,1.31-.41,1.99-.07.35-.13.68-.22,1.02-.09.38-.17.78-.33,1.15-.54,1.53-1.63,2.9-3.04,3.84-1.43.92-3.19,1.4-4.98,1.24-1.76-.17-3.52-.95-4.82-2.27-1.3-1.32-2.13-3.13-2.24-5.04-.09-.95.11-1.99.28-2.76.17-.84.35-1.67.52-2.52.35-1.7.7-3.41,1.04-5.15,1.43-6.97,2.91-14.31,4.48-21.91.76-3.8,1.57-7.67,2.35-11.58.35-2.08,1.39-4.22,2.96-5.78,1.57-1.58,3.65-2.67,5.87-3.02,1.11-.2,2.24-.2,3.35,0,1.11.17,2.22.5,3.22,1.03,1,.52,1.93,1.18,2.74,1.99.78.83,1.43,1.76,1.96,2.77,1.02,2.03,1.33,4.4.91,6.64l-1.22,6.1c-3.33,16.21-6.63,32.43-9.71,47.63l-.15.72-.2.75c-.11.51-.28,1-.48,1.48-.35.98-.87,1.88-1.41,2.75-1.17,1.68-2.74,3.09-4.48,4.09-3.48,2.05-7.8,2.26-11.39.92-3.61-1.33-6.45-4.21-7.8-7.55-.67-1.67-1-3.45-1-5.19.02-.43.04-.87.09-1.29.04-.42.11-.86.2-1.27.15-.78.3-1.54.46-2.3,4.96-24.32,8.26-40.53,8.26-40.53l.26.04Z"/>
        <path class="cls-16" d="m87.54,20.07s-3.3,16.21-8.26,40.53c-.15.76-.33,1.53-.48,2.3-.07.41-.13.83-.17,1.24s-.07.84-.09,1.25c0,1.7.3,3.42.98,5.04,1.3,3.25,4.06,6.03,7.56,7.32,3.46,1.29,7.65,1.09,11.04-.9,1.7-.97,3.19-2.33,4.32-3.97.54-.84,1.04-1.72,1.39-2.65.17-.48.35-.95.46-1.45.13-.49.24-.97.33-1.44,3.11-15.19,6.41-31.4,9.71-47.62l1.24-6.1c.39-2.14.09-4.43-.91-6.38-.48-.98-1.11-1.88-1.87-2.66-.76-.77-1.65-1.41-2.63-1.91-.96-.51-2.02-.83-3.09-1-1.06-.17-2.15-.17-3.22.01-2.13.33-4.13,1.39-5.63,2.9-1.52,1.51-2.5,3.54-2.85,5.57-.8,3.91-1.59,7.78-2.37,11.57-1.54,7.6-3.04,14.94-4.46,21.91-.37,1.75-.72,3.47-1.06,5.16-.15.84-.33,1.68-.5,2.51-.17.8-.35,1.76-.28,2.66.09,1.81.89,3.53,2.13,4.77,1.22,1.26,2.89,1.99,4.56,2.15,1.67.15,3.35-.29,4.69-1.17,1.35-.89,2.39-2.17,2.89-3.63.15-.35.22-.73.33-1.09.07-.35.13-.68.2-1.02.15-.67.28-1.34.41-2,.26-1.31.52-2.59.78-3.83,1-4.93,1.89-9.24,2.61-12.79,1.43-7.09,2.26-11.15,2.26-11.15l.22.05s-.83,4.05-2.26,11.14c-.74,3.55-1.61,7.86-2.61,12.79-.26,1.24-.52,2.51-.78,3.83-.13.66-.28,1.33-.41,2-.07.34-.13.67-.2,1.02-.11.37-.17.76-.33,1.12-.54,1.5-1.61,2.83-2.98,3.74-1.39.91-3.13,1.37-4.85,1.21s-3.43-.92-4.72-2.21c-1.26-1.28-2.09-3.05-2.17-4.93-.09-.91.11-1.92.28-2.71.17-.83.35-1.67.52-2.51.33-1.7.7-3.41,1.04-5.16,1.41-6.97,2.91-14.31,4.48-21.91.76-3.8,1.56-7.66,2.35-11.57.35-2.05,1.37-4.15,2.91-5.68,1.52-1.55,3.56-2.63,5.74-2.97,1.09-.18,2.22-.18,3.3,0,1.09.16,2.15.49,3.15,1.01.98.51,1.89,1.17,2.67,1.96.78.8,1.43,1.72,1.93,2.72,1,1.99,1.3,4.32.89,6.52l-1.22,6.1c-3.3,16.21-6.63,32.43-9.71,47.62-.09.48-.2.96-.35,1.46-.11.51-.28.99-.46,1.47-.35.96-.87,1.85-1.41,2.71-1.15,1.66-2.67,3.04-4.39,4.02-3.46,2.03-7.69,2.24-11.24.91-3.54-1.3-6.37-4.14-7.67-7.43-.67-1.65-1-3.41-1-5.13.02-.42.04-.85.09-1.27s.11-.84.17-1.26c.17-.77.33-1.54.48-2.3,4.96-24.32,8.26-40.53,8.26-40.53l.22.04Z"/>
        <path class="cls-5" d="m87.93,20.18s-3.3,16.21-8.28,40.53c-.28,1.51-.72,3.06-.7,4.72-.02,1.64.3,3.3.93,4.88,1.28,3.14,3.96,5.85,7.37,7.07,3.37,1.26,7.41,1.04,10.69-.89,1.63-.95,3.09-2.26,4.17-3.86,1.11-1.6,1.76-3.49,2.11-5.4,3.11-15.19,6.41-31.4,9.71-47.61l1.24-6.09c.37-2.08.09-4.26-.87-6.14-.48-.93-1.09-1.79-1.83-2.54-.74-.74-1.59-1.36-2.52-1.84-.91-.49-1.93-.79-2.96-.96s-2.09-.16-3.11.01c-2.04.33-3.96,1.35-5.41,2.8-1.43,1.46-2.39,3.39-2.72,5.38-.8,3.9-1.59,7.77-2.37,11.57-1.54,7.6-3.04,14.94-4.46,21.91-.37,1.74-.72,3.46-1.06,5.15-.17.85-.35,1.68-.5,2.51-.2.83-.35,1.7-.28,2.55.09,1.72.85,3.35,2.02,4.52,1.17,1.18,2.74,1.87,4.32,2.03,1.59.14,3.17-.28,4.46-1.12,1.26-.85,2.24-2.06,2.72-3.43.26-.68.37-1.38.5-2.05.15-.67.28-1.34.41-1.99.26-1.31.52-2.59.78-3.83,1-4.94,1.89-9.25,2.61-12.79,1.43-7.1,2.28-11.15,2.28-11.15l.41.09s-.83,4.05-2.28,11.14c-.72,3.55-1.61,7.86-2.61,12.79-.26,1.24-.52,2.51-.78,3.83-.13.65-.26,1.33-.41,2-.07.34-.13.67-.2,1.02-.11.36-.17.74-.33,1.1-.5,1.45-1.54,2.74-2.89,3.64-1.35.88-3.02,1.33-4.72,1.17-1.67-.16-3.35-.89-4.59-2.15-1.24-1.24-2.04-2.97-2.13-4.79-.07-.89.11-1.86.28-2.65.17-.84.35-1.67.5-2.52.35-1.7.7-3.41,1.06-5.15,1.41-6.97,2.91-14.31,4.46-21.91.78-3.8,1.57-7.66,2.37-11.57.33-2.03,1.33-4.08,2.83-5.59,1.52-1.52,3.5-2.59,5.65-2.92,1.06-.18,2.17-.18,3.24-.01,1.06.16,2.11.49,3.09.99.96.5,1.87,1.14,2.63,1.92.76.78,1.39,1.68,1.89,2.65,1,1.96,1.3,4.25.91,6.4l-1.24,6.09c-3.3,16.21-6.61,32.43-9.71,47.62-.09.48-.2.96-.33,1.44-.11.5-.28.97-.46,1.45-.35.95-.85,1.83-1.39,2.66-1.13,1.64-2.63,3-4.3,3.98-3.39,2.01-7.58,2.23-11.06.92-3.52-1.27-6.28-4.06-7.61-7.3-.65-1.63-.98-3.35-.98-5.04.02-.42.04-.85.07-1.26.07-.41.13-.83.2-1.24.15-.77.3-1.54.46-2.3,4.98-24.32,8.28-40.52,8.28-40.52l.41.08Z"/>
        <path class="cls-15" d="m88.15,20.2s-3.3,16.2-8.28,40.52c-.28,1.52-.72,3.06-.72,4.68s.3,3.25.93,4.79c1.24,3.11,3.87,5.76,7.22,6.99,3.3,1.24,7.28,1.04,10.52-.86,1.61-.92,3.04-2.22,4.13-3.78,1.06-1.57,1.72-3.41,2.06-5.31,3.11-15.2,6.41-31.42,9.71-47.62l1.24-6.09c.37-2.02.09-4.16-.85-6-.46-.92-1.04-1.77-1.76-2.5-.72-.73-1.57-1.34-2.48-1.8-.89-.48-1.89-.77-2.89-.93s-2.04-.17-3.04,0c-2,.31-3.87,1.3-5.28,2.73-1.43,1.43-2.35,3.3-2.67,5.27-.8,3.91-1.59,7.78-2.37,11.57-1.54,7.61-3.04,14.95-4.48,21.92-.35,1.74-.7,3.46-1.04,5.15-.17.84-.35,1.68-.52,2.51-.17.84-.33,1.67-.26,2.5.09,1.67.83,3.25,1.96,4.39,1.13,1.15,2.65,1.81,4.17,1.97,1.54.14,3.09-.27,4.33-1.08,1.24-.82,2.17-2,2.65-3.32.24-.66.35-1.35.5-2.02.13-.67.26-1.35.39-2,.28-1.31.54-2.59.78-3.83,1.02-4.93,1.89-9.25,2.61-12.79,1.46-7.1,2.28-11.15,2.28-11.15l.24.05s-.83,4.05-2.28,11.14c-.72,3.55-1.59,7.86-2.61,12.8-.24,1.23-.5,2.51-.78,3.81-.13.66-.26,1.33-.41,2-.13.66-.24,1.37-.5,2.06-.48,1.37-1.48,2.6-2.74,3.44-1.28.83-2.87,1.25-4.48,1.11-1.59-.15-3.15-.85-4.32-2.04-1.17-1.18-1.93-2.81-2.02-4.53-.07-.87.09-1.74.28-2.56.15-.83.33-1.67.5-2.52.35-1.68.7-3.41,1.06-5.15,1.41-6.97,2.91-14.31,4.46-21.91.78-3.8,1.57-7.66,2.37-11.57.33-1.99,1.28-3.92,2.74-5.39,1.46-1.46,3.37-2.48,5.43-2.79,1.02-.18,2.06-.18,3.11-.01,1.02.16,2.04.47,2.96.97.93.48,1.8,1.1,2.54,1.84.72.76,1.35,1.63,1.8,2.56.96,1.88,1.24,4.07.87,6.15l-1.24,6.09c-3.3,16.21-6.61,32.43-9.71,47.63-.35,1.9-1.02,3.8-2.11,5.4-1.11,1.59-2.56,2.9-4.22,3.85-3.28,1.95-7.35,2.13-10.71.88-3.41-1.25-6.08-3.97-7.35-7.12-.65-1.58-.96-3.25-.96-4.89s.46-3.22.72-4.73c4.98-24.32,8.28-40.53,8.28-40.53l.24.05Z"/>
        <path class="cls-12" d="m88.32,20.23s-3.3,16.21-8.26,40.53c-.28,1.53-.72,3.06-.7,4.64-.02,1.59.28,3.21.89,4.73,1.24,3.04,3.83,5.66,7.11,6.87,3.26,1.22,7.17,1.03,10.35-.85,1.59-.91,3-2.18,4.06-3.72,1.06-1.55,1.7-3.35,2.06-5.24,3.09-15.2,6.39-31.42,9.69-47.63l1.24-6.07c.37-1.98.09-4.09-.83-5.88-.46-.9-1.02-1.73-1.72-2.44-.72-.72-1.54-1.3-2.43-1.77-.87-.47-1.85-.76-2.83-.91-1-.16-2-.16-2.98,0-1.98.3-3.8,1.28-5.19,2.68-1.39,1.4-2.28,3.22-2.61,5.16-.8,3.91-1.59,7.77-2.37,11.57-1.54,7.6-3.04,14.94-4.48,21.91-.35,1.75-.7,3.47-1.04,5.15-.17.85-.35,1.7-.52,2.52-.17.85-.33,1.64-.26,2.44.09,1.62.8,3.15,1.89,4.26,1.11,1.12,2.59,1.76,4.06,1.91,1.5.13,3-.26,4.2-1.04,1.2-.79,2.11-1.95,2.56-3.23.24-.64.35-1.33.5-2,.13-.67.26-1.34.41-2,.26-1.3.52-2.59.76-3.81,1.02-4.94,1.89-9.25,2.63-12.8,1.43-7.09,2.26-11.14,2.26-11.14l.24.04s-.83,4.05-2.28,11.15c-.72,3.54-1.59,7.85-2.61,12.79-.24,1.23-.5,2.51-.78,3.81-.13.66-.26,1.33-.39,2-.15.67-.26,1.37-.52,2.03-.46,1.34-1.41,2.53-2.65,3.35-1.24.82-2.78,1.23-4.35,1.09-1.54-.15-3.06-.83-4.22-1.99-1.13-1.14-1.87-2.73-1.96-4.41-.07-.84.09-1.67.26-2.5.17-.84.35-1.67.52-2.52.35-1.7.7-3.41,1.06-5.15,1.41-6.97,2.91-14.31,4.46-21.91.78-3.8,1.56-7.67,2.37-11.58.33-1.97,1.26-3.85,2.67-5.28,1.43-1.43,3.3-2.43,5.32-2.74,1-.17,2.04-.17,3.04-.01,1.02.16,2.02.46,2.91.95.91.47,1.76,1.08,2.48,1.8.72.74,1.33,1.59,1.78,2.51.93,1.84,1.22,4,.85,6.03l-1.24,6.07c-3.3,16.21-6.61,32.43-9.71,47.63-.35,1.9-1,3.75-2.09,5.32-1.09,1.58-2.52,2.87-4.13,3.79-3.24,1.91-7.24,2.1-10.56.86-3.35-1.23-6-3.89-7.24-7-.63-1.55-.93-3.19-.91-4.81-.02-1.62.41-3.16.7-4.68,4.98-24.32,8.28-40.53,8.28-40.53l.22.04Z"/>
        <path class="cls-10" d="m88.54,20.27s-3.32,16.21-8.28,40.53c-.15.76-.3,1.52-.46,2.3-.07.37-.13.75-.17,1.13-.02.39-.04.78-.07,1.16-.02,1.57.28,3.15.89,4.65,1.2,3,3.74,5.57,6.98,6.76,3.19,1.2,7.06,1.01,10.19-.84,1.57-.89,2.93-2.14,4-3.65,1.04-1.53,1.67-3.28,2.02-5.17,3.09-15.2,6.39-31.42,9.69-47.63l1.24-6.06c.35-1.95.09-4-.8-5.76-.43-.88-1.02-1.7-1.7-2.4-.7-.7-1.5-1.27-2.37-1.72-.87-.47-1.8-.75-2.78-.9-.96-.16-1.96-.16-2.91,0-1.91.3-3.72,1.25-5.06,2.62-1.37,1.38-2.26,3.15-2.59,5.06-.78,3.91-1.57,7.78-2.35,11.58-1.56,7.6-3.04,14.94-4.48,21.91-.35,1.74-.7,3.46-1.04,5.15-.17.85-.35,1.68-.52,2.52-.17.85-.3,1.6-.26,2.39.09,1.56.78,3.05,1.83,4.13,1.09,1.09,2.52,1.72,3.96,1.86,1.46.13,2.89-.25,4.06-1.01,1.15-.77,2.06-1.89,2.5-3.14.13-.3.17-.63.26-.95.09-.35.15-.68.22-1.02.13-.67.26-1.34.41-2,.26-1.3.52-2.59.76-3.81,1.02-4.94,1.89-9.25,2.61-12.79,1.46-7.1,2.28-11.15,2.28-11.15l.24.04s-.83,4.06-2.28,11.15c-.72,3.54-1.59,7.86-2.61,12.79-.24,1.24-.5,2.51-.78,3.83-.13.66-.26,1.33-.39,2-.15.67-.26,1.36-.5,2-.46,1.29-1.39,2.45-2.59,3.25-1.22.78-2.72,1.18-4.22,1.05-1.5-.15-2.98-.8-4.09-1.92-1.11-1.12-1.83-2.66-1.91-4.28-.04-.83.09-1.62.26-2.46.17-.84.35-1.67.52-2.52.35-1.7.7-3.41,1.04-5.15,1.43-6.98,2.93-14.32,4.48-21.92.78-3.79,1.57-7.66,2.37-11.57.33-1.95,1.24-3.77,2.63-5.18,1.39-1.4,3.24-2.38,5.22-2.68.98-.17,1.98-.17,2.98-.01.98.16,1.96.45,2.85.92.89.46,1.72,1.05,2.43,1.77.7.73,1.28,1.55,1.74,2.46.91,1.8,1.2,3.92.83,5.91l-1.24,6.07c-3.3,16.21-6.61,32.43-9.71,47.62-.35,1.9-.98,3.71-2.04,5.26-1.09,1.54-2.48,2.83-4.09,3.74-3.17,1.88-7.11,2.06-10.39.84-3.28-1.21-5.89-3.84-7.11-6.89-.63-1.52-.93-3.15-.91-4.74-.02-1.59.41-3.12.7-4.65,4.98-24.32,8.28-40.53,8.28-40.53l.24.05Z"/>
        <path class="cls-17" d="m88.71,20.3s-3.33,16.21-8.28,40.53c-.15.76-.3,1.53-.46,2.3-.07.37-.13.75-.17,1.12-.02.38-.04.76-.07,1.15-.02,1.53.28,3.1.87,4.58,1.2,2.94,3.69,5.49,6.89,6.65,3.15,1.18,6.95,1.01,10.04-.82,1.54-.88,2.89-2.12,3.93-3.61.48-.76.93-1.55,1.26-2.41.15-.42.33-.86.41-1.3.13-.43.22-.9.3-1.39,3.11-15.19,6.41-31.4,9.71-47.62l1.24-6.06c.35-1.91.09-3.92-.78-5.65-.43-.86-1-1.65-1.67-2.35-.67-.68-1.46-1.25-2.33-1.7-.85-.46-1.78-.73-2.72-.88-.93-.16-1.91-.16-2.85.01-1.89.28-3.65,1.22-5,2.56-1.33,1.35-2.2,3.08-2.52,4.98-.78,3.91-1.56,7.77-2.35,11.57-1.54,7.6-3.04,14.94-4.48,21.91-.35,1.75-.7,3.47-1.04,5.15-.17.85-.35,1.68-.52,2.52-.17.86-.3,1.58-.26,2.35.09,1.52.76,2.97,1.78,4.01,1.04,1.07,2.43,1.67,3.85,1.8,1.41.13,2.8-.24,3.96-.98,1.11-.75,1.98-1.83,2.41-3.04.13-.3.17-.62.26-.92.09-.35.15-.68.22-1.02.13-.67.26-1.34.41-2,.26-1.3.52-2.59.76-3.81,1.02-4.94,1.89-9.25,2.61-12.8,1.46-7.08,2.28-11.14,2.28-11.14l.22.04s-.83,4.05-2.28,11.14c-.72,3.55-1.59,7.86-2.61,12.8-.24,1.23-.5,2.51-.78,3.81-.13.66-.26,1.33-.39,2-.07.34-.15.67-.22,1.02-.09.31-.15.64-.28.96-.43,1.26-1.33,2.38-2.5,3.15-1.17.76-2.63,1.15-4.09,1.01-1.46-.14-2.91-.77-3.98-1.86-1.06-1.09-1.76-2.59-1.85-4.16-.04-.79.09-1.55.26-2.4.17-.84.35-1.67.52-2.52.35-1.68.7-3.41,1.04-5.15,1.43-6.97,2.93-14.31,4.48-21.91.78-3.8,1.56-7.66,2.37-11.57.33-1.92,1.2-3.71,2.56-5.09,1.37-1.38,3.17-2.34,5.11-2.63.96-.17,1.96-.17,2.91-.01.98.15,1.93.45,2.8.9.87.46,1.67,1.03,2.37,1.74.7.71,1.26,1.52,1.72,2.41.89,1.76,1.15,3.83.8,5.77l-1.24,6.07c-3.3,16.21-6.61,32.43-9.71,47.63-.35,1.89-.96,3.64-2.02,5.18-1.04,1.51-2.43,2.77-4,3.67-3.15,1.85-7.02,2.03-10.24.83-3.24-1.18-5.8-3.77-7-6.78-.61-1.5-.91-3.1-.89-4.66.02-.39.04-.77.07-1.16.04-.38.11-.76.17-1.14.15-.77.3-1.54.46-2.3,4.96-24.32,8.28-40.53,8.28-40.53l.22.04Z"/>
        <path class="cls-18" d="m88.95,20.36s-3.3,16.21-8.28,40.53c-.15.75-.3,1.52-.46,2.3-.07.36-.11.73-.17,1.1-.02.37-.04.74-.07,1.12,0,1.5.28,3.03.87,4.48,1.15,2.89,3.63,5.37,6.74,6.52,3.09,1.15,6.8.98,9.82-.8,1.5-.87,2.85-2.08,3.85-3.53.48-.74.93-1.52,1.24-2.36.15-.42.3-.84.41-1.28.11-.42.22-.89.3-1.37,3.11-15.2,6.41-31.42,9.71-47.62l1.24-6.07c.33-1.85.09-3.8-.78-5.49-.41-.84-.96-1.61-1.61-2.28-.67-.66-1.43-1.22-2.26-1.64-.83-.45-1.74-.72-2.65-.86-.91-.15-1.85-.15-2.76,0-1.85.28-3.56,1.2-4.85,2.5-1.3,1.33-2.15,2.98-2.46,4.85-.8,3.91-1.59,7.78-2.37,11.57-1.54,7.61-3.04,14.95-4.46,21.92-.37,1.74-.72,3.46-1.06,5.15-.17.85-.35,1.68-.5,2.52-.2.87-.3,1.53-.26,2.28.07,1.46.72,2.85,1.7,3.85,1,1.01,2.35,1.6,3.69,1.74,1.35.12,2.69-.24,3.78-.95,1.09-.73,1.91-1.76,2.33-2.92.13-.29.17-.59.26-.89.07-.34.13-.68.2-1.02.15-.67.28-1.34.41-1.99.28-1.31.54-2.6.78-3.83,1-4.94,1.89-9.25,2.61-12.79,1.46-7.1,2.28-11.15,2.28-11.15l.26.05s-.83,4.05-2.28,11.15c-.72,3.54-1.59,7.85-2.61,12.79-.24,1.24-.5,2.51-.76,3.83-.15.65-.28,1.31-.41,2-.07.33-.15.67-.22,1.01-.09.31-.13.63-.26.92-.43,1.23-1.3,2.3-2.43,3.06-1.13.74-2.54,1.11-3.96.98-1.41-.14-2.83-.75-3.85-1.8-1.04-1.04-1.72-2.5-1.8-4.03-.04-.77.09-1.49.26-2.35.17-.84.35-1.67.52-2.52.35-1.69.7-3.41,1.04-5.15,1.43-6.97,2.93-14.31,4.48-21.92.76-3.79,1.57-7.66,2.37-11.57.3-1.9,1.17-3.62,2.52-4.99,1.33-1.34,3.09-2.28,5-2.56.93-.17,1.91-.17,2.85-.01.96.15,1.89.43,2.74.88.85.45,1.63,1.02,2.33,1.69.67.7,1.24,1.5,1.67,2.37.87,1.72,1.13,3.74.78,5.65l-1.24,6.06c-3.3,16.21-6.61,32.43-9.69,47.63-.11.48-.22.95-.33,1.38-.11.46-.26.88-.41,1.31-.33.86-.78,1.65-1.26,2.42-1.04,1.49-2.41,2.72-3.96,3.61-3.09,1.83-6.89,2-10.06.82-3.17-1.16-5.69-3.71-6.89-6.67-.59-1.48-.89-3.04-.87-4.58.02-.39.04-.77.07-1.15.07-.37.11-.75.17-1.13.15-.77.3-1.54.46-2.3,4.96-24.31,8.28-40.52,8.28-40.52l.26.05Z"/>
        <path class="cls-19" d="m89.15,20.4s-3.3,16.21-8.26,40.53c-.15.75-.3,1.52-.48,2.29-.04.36-.09.72-.15,1.09-.02.36-.04.73-.07,1.1,0,1.48.26,2.98.85,4.4,1.13,2.84,3.56,5.27,6.61,6.39,3.04,1.14,6.69.97,9.65-.78,1.48-.85,2.8-2.03,3.78-3.47.48-.73.91-1.49,1.22-2.31.15-.41.3-.83.41-1.26l.15-.64.15-.72c3.09-15.2,6.39-31.4,9.71-47.62l1.22-6.06c.33-1.8.09-3.72-.74-5.36-.41-.81-.96-1.58-1.59-2.23-.65-.65-1.39-1.2-2.2-1.61-.8-.43-1.7-.7-2.59-.84-.91-.15-1.83-.15-2.72,0-1.78.28-3.46,1.17-4.72,2.44-1.28,1.29-2.09,2.89-2.41,4.74-.78,3.91-1.59,7.78-2.35,11.57-1.57,7.61-3.06,14.95-4.48,21.92-.35,1.74-.7,3.46-1.04,5.15-.17.85-.35,1.68-.52,2.52-.2.88-.3,1.5-.26,2.23.09,1.4.7,2.75,1.65,3.72.98.97,2.26,1.53,3.56,1.66,1.3.12,2.59-.23,3.65-.91,1.04-.7,1.85-1.68,2.24-2.81.11-.27.17-.57.26-.86.07-.34.13-.67.2-1.02.13-.67.28-1.34.41-1.99.26-1.31.52-2.59.78-3.83,1-4.93,1.87-9.25,2.61-12.79,1.43-7.1,2.26-11.15,2.26-11.15l.26.05s-.83,4.05-2.26,11.15c-.74,3.54-1.61,7.85-2.61,12.79-.26,1.24-.52,2.51-.78,3.83-.13.65-.28,1.31-.41,2-.07.33-.13.67-.2,1.01-.09.3-.15.61-.26.9-.41,1.17-1.26,2.22-2.35,2.94-1.11.72-2.48,1.08-3.83.96-1.37-.14-2.72-.73-3.72-1.75-1-1.01-1.65-2.41-1.74-3.89-.04-.75.07-1.42.26-2.29.17-.84.35-1.67.52-2.52.35-1.7.7-3.41,1.04-5.15,1.41-6.97,2.91-14.31,4.48-21.92.76-3.79,1.57-7.66,2.35-11.57.33-1.87,1.17-3.54,2.48-4.88,1.3-1.3,3.02-2.23,4.87-2.51.91-.16,1.87-.16,2.8,0,.91.14,1.83.41,2.65.86.85.43,1.61.99,2.28,1.65.65.68,1.2,1.46,1.63,2.3.85,1.69,1.11,3.66.76,5.52l-1.22,6.06c-3.33,16.21-6.63,32.43-9.71,47.63-.09.49-.2.95-.33,1.37-.09.45-.24.87-.41,1.29-.3.85-.74,1.62-1.22,2.37-1.02,1.47-2.37,2.68-3.89,3.55-3.02,1.78-6.76,1.96-9.87.79-3.13-1.14-5.61-3.64-6.76-6.54-.61-1.46-.89-2.99-.87-4.5.02-.38.04-.76.07-1.13.04-.37.11-.74.15-1.11.17-.77.33-1.54.48-2.3,4.96-24.31,8.26-40.52,8.26-40.52l.26.05Z"/>
        <path class="cls-11" d="m89.34,20.43s-3.3,16.21-8.26,40.53c-.15.76-.3,1.53-.48,2.3-.04.35-.11.71-.15,1.05-.02.37-.04.73-.07,1.09,0,1.45.26,2.93.83,4.32,1.13,2.78,3.5,5.18,6.5,6.28,3,1.12,6.59.96,9.5-.77,1.46-.84,2.74-2,3.72-3.4.46-.72.89-1.47,1.17-2.28.15-.4.3-.8.39-1.24l.17-.63.15-.72c3.09-15.19,6.39-31.4,9.71-47.62l1.22-6.06c.33-1.76.09-3.63-.74-5.23-.39-.79-.91-1.53-1.54-2.18-.63-.63-1.35-1.15-2.15-1.57-.78-.41-1.63-.67-2.52-.82-.87-.14-1.76-.15-2.63.01-1.76.26-3.39,1.13-4.63,2.37-.63.62-1.11,1.36-1.52,2.13-.2.38-.35.79-.5,1.2-.11.44-.22.8-.33,1.33-.78,3.91-1.59,7.78-2.35,11.57-1.56,7.6-3.06,14.94-4.48,21.91-.35,1.75-.7,3.47-1.04,5.15-.17.85-.35,1.7-.52,2.52-.2.9-.28,1.48-.24,2.18.07,1.36.65,2.65,1.59,3.59.91.93,2.17,1.48,3.43,1.61,1.26.11,2.5-.22,3.52-.88,1-.67,1.78-1.63,2.15-2.72.13-.27.17-.55.24-.83.09-.35.15-.68.22-1.02.13-.67.28-1.34.41-2,.26-1.31.52-2.59.78-3.81,1-4.94,1.87-9.25,2.61-12.8,1.43-7.09,2.26-11.14,2.26-11.14l.26.04s-.83,4.05-2.28,11.15c-.72,3.54-1.61,7.86-2.61,12.79-.26,1.24-.52,2.51-.78,3.83-.13.65-.26,1.31-.41,2-.07.33-.13.67-.2,1.01-.09.29-.13.59-.26.87-.39,1.14-1.2,2.14-2.26,2.84s-2.37,1.04-3.69.92c-1.3-.13-2.61-.71-3.56-1.68-.98-.98-1.59-2.33-1.67-3.75-.04-.73.07-1.36.26-2.24.15-.84.33-1.67.5-2.52.35-1.7.7-3.41,1.06-5.15,1.41-6.97,2.91-14.31,4.46-21.92.78-3.79,1.56-7.66,2.37-11.57.33-1.85,1.13-3.47,2.41-4.77,1.26-1.27,2.96-2.17,4.76-2.44.89-.16,1.8-.16,2.72-.01.91.14,1.78.41,2.61.85.8.41,1.57.96,2.22,1.61.63.66,1.17,1.42,1.59,2.25.83,1.64,1.06,3.58.74,5.39l-1.22,6.05c-3.3,16.21-6.61,32.43-9.71,47.63l-.15.71-.15.65c-.09.43-.26.85-.41,1.27-.3.83-.74,1.59-1.22,2.33-1,1.43-2.3,2.63-3.8,3.49-2.96,1.75-6.63,1.92-9.69.78-3.06-1.13-5.5-3.58-6.63-6.43-.59-1.42-.87-2.93-.85-4.41l.07-1.11c.04-.36.11-.72.15-1.09.15-.77.3-1.54.48-2.3,4.96-24.32,8.26-40.52,8.26-40.52l.24.04Z"/>
        <path class="cls-11" d="m89.45,20.46s-3.3,16.21-8.26,40.53c-.17.76-.33,1.53-.48,2.3-.04.35-.11.7-.15,1.05-.02.35-.04.71-.07,1.06,0,1.43.26,2.9.83,4.28,1.11,2.77,3.46,5.14,6.43,6.23,2.96,1.11,6.52.95,9.39-.76,1.46-.83,2.72-1.98,3.69-3.37.46-.72.87-1.46,1.17-2.26.15-.4.3-.8.39-1.23l.15-.63.15-.72c3.11-15.19,6.41-31.4,9.71-47.62l1.22-6.05c.33-1.75.09-3.59-.72-5.17-.39-.78-.91-1.51-1.52-2.15-.63-.62-1.35-1.14-2.13-1.54-.76-.42-1.63-.67-2.48-.82-.87-.14-1.76-.14-2.63.01-1.72.26-3.32,1.12-4.54,2.35-.63.61-1.13,1.34-1.52,2.1-.2.38-.35.78-.48,1.18-.13.43-.24.79-.33,1.31-.8,3.91-1.59,7.77-2.37,11.57-1.54,7.6-3.04,14.94-4.46,21.91-.37,1.75-.72,3.47-1.06,5.15-.17.85-.35,1.7-.5,2.52-.2.9-.3,1.46-.26,2.15.09,1.34.67,2.61,1.56,3.52.91.92,2.13,1.46,3.37,1.58,1.24.12,2.46-.21,3.46-.86,1-.66,1.76-1.6,2.13-2.66.11-.27.15-.54.24-.82.07-.35.13-.68.2-1.02.15-.67.28-1.34.41-2,.26-1.31.52-2.59.78-3.81,1-4.94,1.89-9.25,2.61-12.8,1.46-7.09,2.28-11.14,2.28-11.14l.13.02s-.83,4.05-2.28,11.15c-.72,3.54-1.59,7.86-2.61,12.79-.24,1.24-.5,2.51-.78,3.83-.13.65-.26,1.32-.39,2-.09.33-.15.67-.22,1.01-.09.28-.13.56-.24.84-.39,1.1-1.17,2.06-2.17,2.74-1.02.66-2.28,1-3.56.88-1.26-.12-2.5-.67-3.43-1.62-.93-.93-1.54-2.24-1.61-3.61-.04-.72.04-1.29.24-2.18.17-.84.35-1.67.52-2.52.35-1.7.7-3.41,1.04-5.15,1.43-6.97,2.93-14.31,4.48-21.92.78-3.79,1.57-7.66,2.37-11.57.09-.51.2-.88.33-1.33.13-.4.28-.82.5-1.21.39-.77.89-1.51,1.52-2.13,1.24-1.24,2.87-2.12,4.63-2.39.87-.15,1.78-.15,2.65,0,.89.14,1.76.39,2.54.82.8.41,1.52.95,2.17,1.58.61.65,1.15,1.39,1.54,2.19.83,1.61,1.04,3.48.74,5.25l-1.24,6.05c-3.3,16.21-6.61,32.43-9.71,47.63l-.13.71-.17.64c-.09.43-.24.84-.39,1.24-.3.82-.74,1.57-1.2,2.29-.98,1.41-2.26,2.57-3.72,3.41-2.93,1.73-6.52,1.89-9.52.77-3.02-1.1-5.39-3.5-6.52-6.3-.56-1.4-.85-2.88-.83-4.34.02-.36.02-.73.04-1.09.07-.36.11-.71.17-1.06.15-.77.3-1.54.46-2.3,4.98-24.32,8.28-40.52,8.28-40.52l.13.02Z"/>
        <path class="cls-14" d="m89.52,20.48s-3.3,16.2-8.26,40.52c-.15.76-.3,1.53-.48,2.3-.04.35-.11.7-.15,1.04-.02.36-.04.71-.07,1.06,0,1.42.26,2.88.83,4.26,1.11,2.74,3.43,5.11,6.39,6.18,2.93,1.1,6.48.93,9.35-.76,1.41-.81,2.7-1.97,3.65-3.35.46-.71.87-1.45,1.17-2.25.15-.39.3-.79.39-1.22l.15-.62.15-.72c3.09-15.2,6.41-31.42,9.71-47.63l1.22-6.04c.3-1.74.09-3.56-.72-5.13-.39-.78-.89-1.5-1.5-2.13-.63-.62-1.35-1.13-2.11-1.54-.78-.4-1.63-.65-2.48-.79-.87-.14-1.74-.14-2.59.01-1.72.26-3.3,1.11-4.52,2.33-.61.6-1.11,1.33-1.5,2.08-.2.38-.33.78-.48,1.17-.11.43-.22.78-.33,1.3-.78,3.91-1.59,7.78-2.35,11.57-1.57,7.61-3.06,14.95-4.48,21.92-.35,1.74-.7,3.46-1.04,5.15-.17.85-.35,1.68-.52,2.51-.2.91-.28,1.44-.24,2.14.07,1.32.65,2.56,1.54,3.47.89.91,2.09,1.43,3.3,1.56,1.22.11,2.43-.22,3.41-.85.98-.66,1.74-1.59,2.11-2.64.11-.26.15-.52.24-.79.07-.35.13-.68.2-1.02.13-.67.28-1.35.41-2,.26-1.31.52-2.59.78-3.83,1-4.93,1.89-9.25,2.61-12.79,1.43-7.1,2.26-11.14,2.26-11.14h.11s-.83,4.06-2.26,11.16c-.74,3.54-1.61,7.86-2.61,12.79-.26,1.24-.52,2.51-.78,3.83-.13.65-.28,1.33-.41,2-.07.33-.13.67-.22,1.01-.07.28-.11.55-.24.82-.37,1.08-1.13,2.02-2.13,2.7-1,.65-2.24.98-3.48.87-1.24-.13-2.48-.67-3.39-1.6-.91-.92-1.5-2.19-1.56-3.53-.04-.71.04-1.26.24-2.17.17-.83.35-1.67.52-2.51.35-1.7.7-3.41,1.04-5.15,1.43-6.97,2.93-14.31,4.48-21.92.76-3.79,1.56-7.66,2.35-11.57.11-.52.22-.88.33-1.32.15-.4.3-.8.5-1.2.39-.76.89-1.49,1.5-2.1,1.24-1.23,2.85-2.09,4.59-2.36.87-.15,1.76-.15,2.63-.01.87.14,1.72.4,2.5.82.78.4,1.5.92,2.13,1.55.63.64,1.13,1.37,1.54,2.16.8,1.59,1.02,3.43.72,5.18l-1.24,6.06c-3.3,16.2-6.61,32.42-9.69,47.62l-.15.71-.17.64c-.09.42-.24.83-.39,1.23-.28.8-.72,1.54-1.17,2.26-.98,1.4-2.24,2.56-3.69,3.39-2.89,1.71-6.45,1.87-9.43.76-2.98-1.09-5.32-3.48-6.45-6.25-.56-1.38-.83-2.85-.83-4.29.02-.36.04-.72.07-1.08.07-.35.11-.71.15-1.05.17-.77.33-1.54.48-2.3,4.96-24.32,8.26-40.52,8.26-40.52l.11.02Z"/>
      </g>
    </g>
  </g>
</svg>