<?xml version="1.0" encoding="utf-8"?>
<!-- Generator: Adobe Illustrator 26.5.3, SVG Export Plug-In . SVG Version: 6.00 Build 0)  -->
<svg version="1.1" id="Capa_1" xmlns="http://www.w3.org/2000/svg" xmlns:xlink="http://www.w3.org/1999/xlink" x="0px" y="0px"
	 viewBox="0 0 856.4 559.9" style="enable-background:new 0 0 856.4 559.9;" xml:space="preserve">
<style type="text/css">
	.st0{fill:#CCCCCC;}
	.st1{fill:#6D9DC4;}
	.st2{fill:#3F3D56;}
	.st3{fill:#FFFFFF;}
	.st4{fill:#FEB8B8;}
	.st5{fill:#2F2E41;}
	.st6{fill:#E6E6E6;}
	.st7{fill:#F2F2F2;}
</style>
<rect id="Rectangle_113" x="411" y="37" class="st0" width="94.6" height="1.8"/>
<rect id="Rectangle_114" x="37" y="37" class="st0" width="300.2" height="1.8"/>
<circle id="Ellipse_115" class="st1" cx="37" cy="37.9" r="37"/>
<circle id="Ellipse_116" class="st2" cx="205.5" cy="37.9" r="37"/>
<path id="Path_748-320" class="st0" d="M374.1,75.7c-20.9,0-37.9-16.9-37.9-37.9S353.2,0,374.1,0s37.9,16.9,37.9,37.9
	S395,75.7,374.1,75.7C374.1,75.7,374.1,75.7,374.1,75.7z M374.1,1.8c-19.9,0-36.1,16.1-36.1,36.1s16.1,36.1,36.1,36.1
	c19.9,0,36.1-16.1,36.1-36.1l0,0C410.1,17.9,394,1.8,374.1,1.8z"/>
<path id="Path_749-321" class="st0" d="M542.6,75.7c-20.9,0-37.9-16.9-37.9-37.9S521.7,0,542.6,0c20.9,0,37.9,16.9,37.9,37.9
	S563.5,75.7,542.6,75.7L542.6,75.7z M542.6,1.8c-19.9,0-36.1,16.1-36.1,36.1c0,19.9,16.1,36.1,36.1,36.1c19.9,0,36.1-16.1,36.1-36.1
	S562.5,1.8,542.6,1.8L542.6,1.8z"/>
<path id="Path_395-322" class="st3" d="M34.1,48.9c-0.6,0-1.3-0.2-1.8-0.6l0,0l-6.8-5.2c-1.3-1-1.6-2.9-0.6-4.2
	c1-1.3,2.9-1.6,4.2-0.6l4.4,3.4l10.4-13.5c1-1.3,2.9-1.6,4.2-0.6l0,0l-0.1,0.1l0.1-0.1c1.3,1,1.6,2.9,0.6,4.2L36.5,47.7
	C35.9,48.4,35,48.9,34.1,48.9L34.1,48.9z"/>
<g id="Group_24" transform="translate(808.073 222.403)">
	<path id="Path_552-323" class="st4" d="M-151.5-26.4c0.7,0.3,1.4,0.7,2,1.1l63.2-27l2.3-16.6l25.2-0.2l-1.5,38.2l-83.4,22
		c-0.2,0.6-0.4,1.1-0.6,1.7c-3.4,7.2-12,10.3-19.2,6.9c-7.2-3.4-10.3-12-6.9-19.2C-167.1-26.5-158.7-29.7-151.5-26.4L-151.5-26.4z"
		/>
	<path id="Path_553-324" class="st4" d="M-49.7,319.3H-67l-8.2-66.6h25.5L-49.7,319.3z"/>
	<path id="Path_554-325" class="st5" d="M-79.3,314.4H-46v21h-54.3C-100.2,323.8-90.9,314.4-79.3,314.4L-79.3,314.4L-79.3,314.4z"/>
	<path id="Path_555-326" class="st4" d="M17.4,314.4l-17.2,1.7l-14.7-65.5l25.4-2.5L17.4,314.4z"/>
	<path id="Path_556-327" class="st5" d="M-12.5,312.4l33.1-3.3l2.1,20.9l-54,5.3C-32.4,323.8-24,313.6-12.5,312.4L-12.5,312.4z"/>
	<ellipse id="Ellipse_84" class="st4" cx="-44.9" cy="-174.1" rx="34.6" ry="34.6"/>
	<path id="Path_557-328" class="st5" d="M-70.8,305.9c-3.1,0-5.7-2.2-6.2-5.2c-8.9-49.6-38.1-211.8-38.8-216.3c0-0.1,0-0.2,0-0.3V72
		c0-0.4,0.1-0.9,0.4-1.2l3.9-5.4c0.4-0.5,1-0.9,1.6-0.9c22-1,94-4.1,97.5,0.3l0,0c3.5,4.4,2.3,17.6,2,20.2l0,0.3l32.4,207
		c0.5,3.4-1.8,6.7-5.2,7.2l-20.2,3.3c-3.1,0.5-6.1-1.4-7.1-4.4c-6.3-20-27.2-87.2-34.5-113.2c-0.1-0.4-0.5-0.6-0.8-0.5
		c-0.3,0.1-0.6,0.4-0.5,0.7c0.4,24.8,1.2,88,1.5,109.9l0,2.4c0,3.3-2.5,6.1-5.8,6.4l-19.5,1.8C-70.4,305.8-70.6,305.9-70.8,305.9z"
		/>
	<path id="Path_99-329" class="st6" d="M-66.8-126c-6,3.6-9.6,10.2-11.7,16.9c-3.8,12.4-6.1,25.3-6.9,38.2l-2.2,38.9l-27.1,103
		C-91.2,91-77.7,86.4-46,70.2s35.2,5.4,35.2,5.4l6.3-87.7l9-95.8c-2-2.4-4.3-4.7-6.8-6.6c-16.9-13.2-39-17.8-59.8-12.7L-66.8-126z"
		/>
	<path id="Path_558-330" class="st4" d="M-75.6-5.6c0.7,0.3,1.4,0.6,2.1,1l62.4-31.3l1-16.9l25.8-1.8L17.1-16l-83.5,27.6
		c-1.9,8-9.8,12.9-17.8,11c-8-1.9-12.9-9.8-11-17.8c1.9-8,9.8-12.9,17.8-11C-76.8-6-76.2-5.9-75.6-5.6L-75.6-5.6z"/>
	<path id="Path_101-331" class="st6" d="M4.1-107.4c15.4,5.4,18.1,64.2,18.1,64.2c-18.1-9.9-39.8,6.3-39.8,6.3s-4.5-15.4-9.9-35.2
		c-3.3-11.4-0.6-23.6,7.2-32.5C-20.3-104.7-11.2-112.8,4.1-107.4z"/>
	<path id="Path_102-332" class="st5" d="M-13.9-165c-4.3-3.4-10.2,2.8-10.2,2.8l-3.4-31c0,0-21.5,2.6-35.3-0.9s-15.9,12.5-15.9,12.5
		c-0.7-6.4-0.9-12.9-0.4-19.4c0.9-7.8,12.1-15.5,31.9-20.7s30.2,17.2,30.2,17.2C-3.4-197.5-9.6-161.5-13.9-165z"/>
</g>
<rect id="Rectangle_110" x="119" y="557.7" class="st6" width="737.4" height="2.2"/>
<path id="Path_438-333" class="st6" d="M190.1,519.1c6.4,2.3,13.5,1,18.8-3.3c6.6-5.5,8.7-14.6,10.3-23.1l5-24.9l-10.4,7.2
	c-7.5,5.2-15.1,10.5-20.3,17.9s-7.4,17.7-3.3,25.7"/>
<path id="Path_439-334" class="st7" d="M191.7,551c-1.3-9.5-2.7-19.2-1.7-28.8c0.8-8.6,3.4-16.9,8.7-23.8c2.8-3.6,6.3-6.7,10.2-9.2
	c1-0.6,2,1,0.9,1.6c-6.7,4.3-12,10.5-14.9,18c-3.2,8.2-3.8,17.2-3.2,26c0.3,5.3,1.1,10.6,1.8,15.8c0.1,0.5-0.2,1-0.6,1.1
	C192.4,551.8,191.9,551.5,191.7,551L191.7,551z"/>
<path id="Path_442-335" class="st6" d="M201.2,535.7c2.8,4.2,7.5,6.6,12.5,6.4c6.3-0.3,11.6-4.7,16.3-8.9l14-12.4l-9.3-0.4
	c-6.7-0.3-13.5-0.6-19.9,1.4s-12.2,7-13.4,13.6"/>
<path id="Path_443-336" class="st7" d="M188,556.5c6.3-11.2,13.6-23.6,26.7-27.5c3.6-1.1,7.4-1.5,11.2-1.2c1.2,0.1,0.9,1.9-0.3,1.8
	c-6.3-0.5-12.7,1.1-17.9,4.7c-5.1,3.4-9,8.2-12.3,13.3c-2,3.1-3.9,6.3-5.7,9.6C189.2,558.3,187.5,557.5,188,556.5z"/>
<path id="Path_138-337" class="st6" d="M632.4,234.6H316.7c-3.2,0-5.8-2.6-5.8-5.8v-78.3c0-3.2,2.6-5.8,5.8-5.8h315.7
	c3.2,0,5.8,2.6,5.8,5.8v78.3C638.3,232,635.6,234.6,632.4,234.6z M316.7,146.9c-1.9,0-3.5,1.6-3.5,3.5v78.3c0,1.9,1.6,3.5,3.5,3.5
	h315.7c1.9,0,3.5-1.6,3.5-3.5v-78.3c0-1.9-1.6-3.5-3.5-3.5L316.7,146.9z"/>
<path id="Path_139-338" class="st6" d="M420.8,170.7c-2.2,0-4,1.8-4,4c0,2.2,1.8,4,4,4c0,0,0,0,0,0h187.1c2.2,0,4-1.8,4-4
	c0-2.2-1.8-4-4-4H420.8z"/>
<path id="Path_140-339" class="st6" d="M420.8,194.5c-2.2,0-4,1.8-4,4c0,2.2,1.8,4,4,4c0,0,0,0,0,0h80.5c2.2,0,4-1.8,4-4
	c0-2.2-1.8-4-4-4c0,0,0,0,0,0H420.8z"/>
<circle id="Ellipse_18" class="st6" cx="366" cy="186.4" r="23.8"/>
<path id="Path_395-2-340" class="st1" d="M362.3,199.6c-0.8,0-1.6-0.3-2.2-0.7l0,0l-8.4-6.4c-1.6-1.2-1.9-3.6-0.7-5.2
	s3.6-1.9,5.2-0.7l5.4,4.2l12.8-16.7c1.2-1.6,3.6-1.9,5.2-0.7l0,0l-0.1,0.1l0.1-0.1c1.6,1.2,1.9,3.6,0.7,5.2l-15,19.6
	C364.5,199.1,363.4,199.6,362.3,199.6L362.3,199.6z"/>
</svg>
