<?xml version="1.0" encoding="UTF-8"?><svg id="Capa_2" xmlns="http://www.w3.org/2000/svg" viewBox="0 0 593.11 775.47"><defs><style>.cls-1{fill:#f9d1da;}</style></defs><g id="Capa_1-2"><path class="cls-1" d="M0,0v33.34h16.37c2.34-3.34,6.01-5.66,10.38-5.66,7.15,0,12.94,5.85,12.94,13.07s-5.8,13.06-12.94,13.06c-4.37,0-8.03-2.32-10.38-5.66H0v48.28h16.37c2.34-3.34,6.01-5.66,10.38-5.66,7.15,0,12.94,5.85,12.94,13.07s-5.8,13.07-12.94,13.07c-4.37,0-8.03-2.33-10.38-5.66H0v48.28h16.37c2.34-3.34,6.01-5.66,10.38-5.66,7.15,0,12.94,5.85,12.94,13.07s-5.8,13.07-12.94,13.07c-4.37,0-8.03-2.32-10.38-5.66H0v48.28h16.37c2.34-3.34,6.01-5.66,10.38-5.66,7.15,0,12.94,5.85,12.94,13.07s-5.8,13.07-12.94,13.07c-4.37,0-8.03-2.32-10.38-5.66H0v48.28h16.37c2.34-3.34,6.01-5.66,10.38-5.66,7.15,0,12.94,5.85,12.94,13.07s-5.8,13.07-12.94,13.07c-4.37,0-8.03-2.33-10.38-5.66H0v48.28h16.37c2.34-3.34,6.01-5.66,10.38-5.66,7.15,0,12.94,5.85,12.94,13.07s-5.8,13.07-12.94,13.07c-4.37,0-8.03-2.33-10.38-5.66H0v48.28h16.37c2.34-3.34,6.01-5.66,10.38-5.66,7.15,0,12.94,5.85,12.94,13.07s-5.8,13.07-12.94,13.07c-4.37,0-8.03-2.32-10.38-5.66H0v48.28h16.37c2.34-3.34,6.01-5.66,10.38-5.66,7.15,0,12.94,5.85,12.94,13.07s-5.8,13.06-12.94,13.06c-4.37,0-8.03-2.32-10.38-5.66H0v48.28h16.37c2.34-3.34,6.01-5.66,10.38-5.66,7.15,0,12.94,5.85,12.94,13.07s-5.8,13.07-12.94,13.07c-4.37,0-8.03-2.33-10.38-5.66H0v48.28h16.37c2.34-3.34,6.01-5.66,10.38-5.66,7.15,0,12.94,5.85,12.94,13.07s-5.8,13.07-12.94,13.07c-4.37,0-8.03-2.32-10.38-5.66H0v48.28h16.37c2.34-3.34,6.01-5.66,10.38-5.66,7.15,0,12.94,5.85,12.94,13.07s-5.8,13.07-12.94,13.07c-4.37,0-8.03-2.33-10.38-5.66H0v48.28h16.37c2.34-3.34,6.01-5.66,10.38-5.66,7.15,0,12.94,5.85,12.94,13.07s-5.8,13.07-12.94,13.07c-4.37,0-8.03-2.33-10.38-5.66H0v33.34h313.03l7.15-3.62,8.74,3.62,14.49-1.62,16.14,1.62,8.68-1.02,11.18,1.02,27.95-2.19,14.1,2.19,31.14-7.54,28.32,7.54,5.4-1.2,6.66,1.2,3.76-2.14,6.5,2.14,29.21-6.69,9.61,2.29,1.96,2.63,5.89-.76,5.09,2.52h5.49l12.75-1.58,19.85,1.58V0H0Z"/></g></svg>